<?xml version="1.0" encoding="utf-8"?>
<!-- Generator: Adobe Illustrator 16.0.0, SVG Export Plug-In . SVG Version: 6.00 Build 0)  -->
<!DOCTYPE svg PUBLIC "-//W3C//DTD SVG 1.1//EN" "http://www.w3.org/Graphics/SVG/1.1/DTD/svg11.dtd">
<svg version="1.1" id="Layer_1" xmlns="http://www.w3.org/2000/svg" xmlns:xlink="http://www.w3.org/1999/xlink" x="0px" y="0px"
	 width="595.3px" height="595.3px" viewBox="0 0 595.3 595.3" enable-background="new 0 0 595.3 595.3" xml:space="preserve">
<path fill="#1B1D1D" d="M297.6,0C133.3,0,0,133.3,0,297.6C0,462,133.3,595.3,297.6,595.3c164.4,0,297.6-133.2,297.6-297.6
	C595.3,133.3,462,0,297.6,0z M297.6,549C158.8,549,46.3,436.5,46.3,297.6c0-138.8,112.5-251.4,251.4-251.4
	C436.5,46.3,549,158.8,549,297.6C549,436.5,436.5,549,297.6,549z"/>
<path fill="#C3442B" d="M143,453.4h-1.3c-0.4,0-0.9,0-1.3-0.1C141.2,453.4,142.1,453.4,143,453.4z"/>
<g>
	<path fill="#C3442B" d="M145.9,252.7h303.4l-118-138.5c-1.4-2.6-3.1-5-5-7.2l0,0h0c-6.9-7.8-17.1-12.8-28.4-12.8
		c-11.3,0-21.4,4.9-28.4,12.8h0l-0.1,0.1c-1.2,1.3-2.2,2.7-3.2,4.2L145.9,252.7z"/>
	<g>
		<rect x="177.2" y="138.7" fill="#FFFFFF" width="241.1" height="224.1"/>
		<rect x="194.1" y="161.7" fill="#1B1D1D" width="207.3" height="11.7"/>
		<rect x="194.1" y="187.5" fill="#1B1D1D" width="207.3" height="11.7"/>
		<rect x="194.1" y="213.2" fill="#1B1D1D" width="207.3" height="11.7"/>
		<rect x="194.1" y="238.9" fill="#1B1D1D" width="207.3" height="11.7"/>
		<rect x="194.1" y="264.7" fill="#1B1D1D" width="207.3" height="11.7"/>
		<rect x="194.1" y="290.4" fill="#1B1D1D" width="207.3" height="11.7"/>
	</g>
	<path fill="#1B1D1D" d="M460.3,430.7c0,23.3-18.9,42.1-42.2,42.1l-241.1-0.4c-23.3,0-42.1-18.9-42.1-42.2l0.2-149.3
		c0-23.3,18.9-42.1,42.2-42.1L460.3,430.7z"/>
	<path fill="#C3442B" d="M418.3,239.1c23.3,0,42.1,18.9,42.1,42.2l-0.2,149.3c0,23.3-18.9,42.1-42.2,42.1l-241.1-0.4
		c-23.3,0-42.1-18.9-42.1-42.2L418.3,239.1z"/>
	<circle fill="#FFFFFF" cx="398.2" cy="332.4" r="20.1"/>
</g>
</svg>
