<?xml version="1.0" encoding="utf-8"?>
<!-- Generator: Adobe Illustrator 16.0.0, SVG Export Plug-In . SVG Version: 6.00 Build 0)  -->
<!DOCTYPE svg PUBLIC "-//W3C//DTD SVG 1.1//EN" "http://www.w3.org/Graphics/SVG/1.1/DTD/svg11.dtd">
<svg version="1.1" id="Layer_1" xmlns="http://www.w3.org/2000/svg" xmlns:xlink="http://www.w3.org/1999/xlink" x="0px" y="0px"
	 width="595.3px" height="595.3px" viewBox="0 0 595.3 595.3" enable-background="new 0 0 595.3 595.3" xml:space="preserve">
<path fill="#1B1D1D" d="M297.6,0C133.3,0,0,133.3,0,297.6C0,462,133.3,595.3,297.6,595.3c164.4,0,297.6-133.2,297.6-297.6
	C595.3,133.3,462,0,297.6,0z M297.6,549C158.8,549,46.3,436.5,46.3,297.6c0-138.8,112.5-251.4,251.4-251.4
	C436.5,46.3,549,158.8,549,297.6C549,436.5,436.5,549,297.6,549z"/>
<path fill="#C3442B" d="M143,453.4h-1.3c-0.4,0-0.9,0-1.3-0.1C141.2,453.4,142.1,453.4,143,453.4z"/>
<path fill="#C3442B" d="M169.8,218.9c0,46.2,24.5,86.7,61.2,109.1l-39.9,146.7c-60-36.2-100.1-101.9-100.1-177
	c0-112.9,90.6-204.7,203.1-206.5C225.2,93,169.8,149.4,169.8,218.9z"/>
<path fill="#C3442B" d="M504.2,297.6c0,75.1-40.1,140.9-100.1,177L364.2,328c36.7-22.5,61.2-62.9,61.2-109.1
	c0-69.4-55.3-125.9-124.3-127.8C413.6,93,504.2,184.7,504.2,297.6z"/>
<path fill="#1B1D1D" d="M364.2,328l39.9,146.7c-31.1,18.7-67.5,29.5-106.5,29.5s-75.4-10.8-106.5-29.5L231.1,328
	c-36.7-22.5-61.2-62.9-61.2-109.1c0-69.4,55.3-125.9,124.3-127.8c0.5,0,1.1,0,1.6,0c0.6,0,1.2,0,1.9,0c0.6,0,1.2,0,1.9,0
	c0.5,0,1.1,0,1.6,0c69,1.9,124.3,58.3,124.3,127.8C425.4,265.1,400.9,305.5,364.2,328z"/>
<path fill="#FFFFFF" d="M392.1,218.9c0,38.6-42.3,70-94.5,70c-52.2,0-94.5-31.3-94.5-70c0-38.7,42.3-70,94.5-70
	C349.8,148.9,392.1,180.2,392.1,218.9z"/>
<circle fill="#1B1D1D" cx="297.6" cy="218.9" r="41.1"/>
</svg>
