<?xml version="1.0" encoding="utf-8"?>
<!-- Generator: Adobe Illustrator 16.0.0, SVG Export Plug-In . SVG Version: 6.00 Build 0)  -->
<!DOCTYPE svg PUBLIC "-//W3C//DTD SVG 1.1//EN" "http://www.w3.org/Graphics/SVG/1.1/DTD/svg11.dtd">
<svg version="1.1" id="Layer_1" xmlns="http://www.w3.org/2000/svg" xmlns:xlink="http://www.w3.org/1999/xlink" x="0px" y="0px"
	 width="595.3px" height="595.3px" viewBox="0 0 595.3 595.3" enable-background="new 0 0 595.3 595.3" xml:space="preserve">
<g>
	<polygon fill="#1B1D1D" points="436.3,160.7 144.5,160.7 127.5,160.7 127.5,177.7 127.5,296.3 127.5,313.3 144.5,313.3 
		436.3,313.3 453.3,313.3 453.3,296.3 453.3,177.7 453.3,160.7 	"/>
	<polygon fill="#C3442B" points="453.3,177.7 161.5,177.7 144.5,177.7 144.5,194.7 144.5,313.3 144.5,330.3 161.5,330.3 
		453.3,330.3 470.3,330.3 470.3,313.3 470.3,194.7 470.3,177.7 	"/>
	<path fill="#FFFFFF" d="M453.3,211.7v84.6c-9.4,0-17,7.6-17,17H178.5c0-9.4-7.6-17-17-17v-84.6c9.4,0,17-7.6,17-17h257.8
		C436.3,204.1,443.9,211.7,453.3,211.7z"/>
	<g>
		<circle fill="#1B1D1D" cx="307.4" cy="254" r="40.7"/>
		<rect x="192.1" y="177.7" fill="#1B1D1D" width="18.2" height="152.6"/>
		<rect x="404.6" y="177.7" fill="#1B1D1D" width="18.2" height="152.6"/>
	</g>
</g>
<path fill="#1B1D1D" d="M297.6,0C133.3,0,0,133.3,0,297.6C0,462,133.3,595.3,297.6,595.3c164.4,0,297.6-133.2,297.6-297.6
	C595.3,133.3,462,0,297.6,0z M297.6,549C158.8,549,46.3,436.5,46.3,297.6c0-138.8,112.5-251.4,251.4-251.4
	C436.5,46.3,549,158.8,549,297.6C549,436.5,436.5,549,297.6,549z"/>
<path fill="#C3442B" d="M491.6,266.3v150.3c0,20.3-16.4,36.7-36.7,36.7H143c-0.9,0-1.8,0-2.6-0.1c-19.1-1.3-34.1-17.2-34.1-36.6
	V266.3c0-15.9,10.1-29.4,24.2-34.6c2.7-1,5.5-1.6,8.5-2c1.3-0.1,2.7-0.2,4-0.2h311.9c0.5,0,1,0,1.4,0c2.9,0.1,5.8,0.6,8.5,1.3
	c3,0.8,5.9,2.1,8.5,3.6C484.2,240.9,491.6,252.7,491.6,266.3z"/>
<path fill="#1B1D1D" d="M491.6,416.7v11.3c0,20.3-16.4,36.7-36.7,36.7H143c-20.3,0-36.7-16.5-36.7-36.7v-11.3
	c0,20.3,16.4,36.7,36.7,36.7h311.9C475.2,453.4,491.6,436.9,491.6,416.7z"/>
<path fill="#C3442B" d="M143,453.4h-1.3c-0.5,0-0.9,0-1.3-0.1C141.2,453.4,142.1,453.4,143,453.4z"/>
<path fill="#1B1D1D" d="M464.8,271.5v139c0,6.2-5,11.2-11.2,11.2H141.7c-6.2,0-11.2-5-11.2-11.2v-139H464.8z"/>
<g>
	<path fill="#1B1D1D" d="M313.6,271.5h-8.2c0-14.4,11.6-26,26-26h8.2L313.6,271.5z"/>
	<path fill="#FFFFFF" d="M365.6,271.5h-52c0-13,9.5-23.7,21.9-25.7c1.3-0.2,2.7-0.3,4.1-0.3c4.5,0,8.7,1.1,12.4,3.2
		c1,0.5,2,1.2,2.9,1.8C361.4,255.2,365.6,262.9,365.6,271.5z"/>
	<path fill="#1B1D1D" d="M321,271.5c0-10.3,8.3-18.6,18.6-18.6s18.6,8.3,18.6,18.6H321z"/>
</g>
<path fill="#C3442B" d="M391.8,388.4c-0.8,0.2-1.5,0.4-2.3,0.5c-1.4,0.2-2.8,0.3-4.2,0.3c-4.6,0-9-1.2-12.8-3.2c-1-0.6-2-1.2-3-1.9
	c-6.7-4.9-11-12.7-11-21.6h-0.1v-90.9h7.4v90h0.1c0,8.9,4.3,16.8,11,21.6c1,0.7,2,1.4,3,1.9C383.4,387.1,387.5,388.2,391.8,388.4z"
	/>
<path fill="#FFFFFF" d="M419.3,270.7v90.9c0,13.3-9.8,24.4-22.5,26.5c-1.4,0.2-2.8,0.3-4.2,0.3c-0.2,0-0.5,0-0.8,0c0,0,0,0,0,0
	c-4.3-0.1-8.4-1.3-12-3.2c-1-0.6-2.1-1.2-3-1.9c-6.7-4.9-11-12.7-11-21.6h-0.1v-90.9H419.3z"/>
<circle fill="#1B1D1D" cx="392.5" cy="366.2" r="9"/>
<path fill="#FFFFFF" d="M143.9,352l0.1-45.1c0-9.4,7.6-16.9,17-16.9l96.9,0.1c9.4,0,16.9,7.6,16.9,17l-0.1,45.1
	c0,9.4-7.6,16.9-17,16.9l-96.9-0.1C151.5,369,143.9,361.4,143.9,352z"/>
<rect x="143.9" y="315.9" transform="matrix(-1 -1.508148e-03 1.508148e-03 -1 418.1957 645.661)" fill="#1B1D1D" width="130.8" height="13.5"/>
<rect x="135.2" y="359.1" transform="matrix(-1 -1.508386e-03 1.508386e-03 -1 418.1414 734.3759)" fill="#1B1D1D" width="148.3" height="15.8"/>
<rect x="130.5" y="341.5" fill="#1B1D1D" width="159.4" height="69.2"/>
<g>
	<path fill="#1B1D1D" d="M270.3,214.1c-25.1,0-45.5-20.4-45.5-45.5v-53.3c1.2-0.9,2-2.3,2-3.9c0-2.7-2.2-4.8-4.8-4.8
		c-2.7,0-4.8,2.2-4.8,4.8c0,1.6,0.8,3,2,3.9v53.3c0,28.2,23,51.2,51.2,51.2c1.6,0,2.8-1.3,2.8-2.8S271.9,214.1,270.3,214.1z"/>
	<path fill="#1B1D1D" d="M300,126.9c-0.5-0.4-1.1-0.5-1.6-0.5c-0.9,0-1.8,0.4-2.3,1.2c-0.4,0.5-0.5,1.1-0.5,1.7v18.7h15.2
		c3.2,6.3,5,13.4,5,20.7c0,1.6,1.3,2.8,2.8,2.8s2.8-1.3,2.8-2.8C321.5,152.1,313.5,136.5,300,126.9z"/>
	<polygon fill="#1B1D1D" points="223.4,49.9 220.4,49.9 220.4,106.5 221.9,106.5 223.4,106.5 	"/>
</g>
</svg>
