<?xml version="1.0" encoding="utf-8"?>
<!-- Generator: Adobe Illustrator 16.0.0, SVG Export Plug-In . SVG Version: 6.00 Build 0)  -->
<!DOCTYPE svg PUBLIC "-//W3C//DTD SVG 1.1//EN" "http://www.w3.org/Graphics/SVG/1.1/DTD/svg11.dtd">
<svg version="1.1" id="Layer_1" xmlns="http://www.w3.org/2000/svg" xmlns:xlink="http://www.w3.org/1999/xlink" x="0px" y="0px"
	 width="595.3px" height="595.3px" viewBox="0 0 595.3 595.3" enable-background="new 0 0 595.3 595.3" xml:space="preserve">
<path fill="#C3432A" d="M485.2,64.8l-29.5,35.7L404.1,163l-109-90l21.6-26.2l34.9-42.3C401.6,13.3,447.2,34.5,485.2,64.8z"/>
<g>
	<path fill="#1B1D1D" d="M216.9,328.5c4.6,2.5,8.8,5.6,12.4,9.4c5.4,5.6,9.6,12.5,12,20.5c2.4,8,2.7,16.1,1.3,23.7
		c-3.4,17.9-16.4,33.4-35.1,38.9l-63-210.3c2.4-0.2,4.8-0.3,7.1-0.2c15.9,0.2,31.2,5.4,43.8,14.4c6.5,4.6,12.4,10.3,17.2,16.8
		c5.3,7.1,9.4,15.2,12.1,24.2c1.7,5.6,2.7,11.2,3.1,16.8c0.8,11.6-1,23.1-5.1,33.6C221.2,320.6,219.2,324.7,216.9,328.5z"/>
	<g>
		<path fill="#1B1D1D" d="M176,372.9l0-6.7c0-17.4,14.2-31.5,31.6-31.5l180.3,0.3c17.4,0,31.5,14.2,31.5,31.6l0,6.7
			c0-17.4-14.1-31.6-31.5-31.6l-180.3-0.3C190.2,341.4,176,355.5,176,372.9z"/>
		<path fill="#C3442B" d="M175.9,457l0.1-84c0-17.4,14.2-31.5,31.6-31.5l180.3,0.3c17.4,0,31.5,14.2,31.5,31.6l-0.1,84
			c0,17.4-14.2,31.5-31.6,31.5l-180.3-0.3C189.9,488.5,175.8,474.4,175.9,457z"/>
		
			<rect x="175.9" y="432.3" transform="matrix(-1 -1.508386e-03 1.508386e-03 -1 594.5175 890.9825)" fill="#1B1D1D" width="243.4" height="26"/>
		<path fill="#1B1D1D" d="M357,393.2c-3.5,2.9-8,4.7-12.9,4.7c-11.1,0-20-9-20-20.1c0-11.1,9-20,20.1-20c4.9,0,9.4,1.8,12.9,4.7
			c-4.4,3.7-7.2,9.2-7.2,15.3C349.9,384,352.7,389.5,357,393.2z"/>
		<path fill="#1B1D1D" d="M367.6,377.9c0,6.2-2.8,11.7-7.2,15.3c-4.4-3.7-7.1-9.2-7.1-15.4c0-6.2,2.8-11.7,7.2-15.3
			C364.8,366.2,367.6,371.7,367.6,377.9z"/>
		<path fill="#1B1D1D" d="M396.7,377.9c0,11.1-9,20-20.1,20c-4.9,0-9.4-1.8-12.9-4.7c4.4-3.7,7.2-9.2,7.2-15.3
			c0-6.2-2.8-11.7-7.1-15.4c3.5-2.9,8-4.7,12.9-4.7C387.8,357.9,396.8,366.8,396.7,377.9z"/>
	</g>
	<path fill="#1B1D1D" d="M130.1,205.7l115.5-94.2l14.2-11.5l22.9-35.3L416.4,175l-29.9,28.8c-1.1,3.8-15,48-60.2,79.5l-32.4,105
		c-18.6-5.7-31.5-21.3-34.7-39.2c-1.4-7.7-1-15.8,1.4-23.7c0.4-1.3,0.8-2.5,1.3-3.8c1.9-4.8,4.5-9.1,7.6-13c0.4-0.6,0.9-1.1,1.4-1.6
		c0.6-0.7,1.2-1.4,1.9-2c2.4-2.4,5-4.6,7.8-6.5c0.3-1.6,0.4-3.3,0.4-5.1c0-3.4-0.5-6.7-1.6-9.8c0,0,0,0,0-0.1
		c-0.2-0.5-0.4-1.1-0.6-1.6c0,0,0-0.1,0-0.2c-4.5-11.2-15.5-19.1-28.3-19.1c-0.4,0-0.8,0-1.2,0c-1.6,0.1-3.2,0.2-4.8,0.5
		c-0.3,0.1-0.7,0.1-1,0.2c-0.4,0.1-0.9,0.2-1.3,0.3c-0.2,0.1-0.5,0.1-0.7,0.2c-0.2,0-0.3,0.1-0.5,0.1c-0.3,0.1-0.6,0.2-0.9,0.3
		c-0.4,0.1-0.8,0.3-1.2,0.5c-0.3,0.1-0.6,0.2-0.8,0.3c0,0-0.1,0-0.1,0c-0.3,0.1-0.7,0.3-1,0.5c-0.3,0.1-0.5,0.3-0.8,0.4
		c-0.2,0.1-0.3,0.1-0.4,0.2l-0.8,0.4c-0.3,0.2-0.6,0.4-0.9,0.6c-0.1,0-0.1,0.1-0.2,0.1c-0.3,0.2-0.5,0.3-0.8,0.5
		c-5,2-10.3,3.3-15.7,4.2c-5.4,0.9-11.1,1.2-16.8,1.2c-10.8,0-21.1-2.1-30.6-5.7c-0.9-2.6-2-5.2-3.3-7.7c7.3-6,12-15.1,12-25.4
		c0-18.1-14.7-32.8-32.8-32.8L130.1,205.7z"/>
	<path fill="#1B1D1D" d="M170.2,267.5c3,8.3,4.6,17.3,4.6,26.6c0,5.8-0.7,11.5-2,17c-2.6,11.4-7.7,21.8-14.6,30.6
		c-2.8,3.6-5.9,6.9-9.3,9.9c3.7,3.7,6.8,7.9,9.2,12.6c3.5,6.9,5.5,14.8,5.5,23.1c0,8.3-2.1,16.2-5.7,23.1
		c-8.4,16.2-25.4,27.1-44.9,27.1l0.9-196.5l0.1-13.4c0.7-3.1,1.8-6.1,3.3-8.8c5.6-10.2,16.4-17.2,28.9-17.2
		c18.1,0,32.8,14.7,32.8,32.8c0,10.2-4.7,19.4-12,25.4C168.1,262.2,169.2,264.8,170.2,267.5z"/>
	<path fill="#1B1D1D" d="M483,64.8c-38-30.3-83.6-51.5-133.5-60.3c-16.8-3-34.2-4.5-51.9-4.5C133.3,0,0,133.3,0,297.6
		C0,462,133.3,595.3,297.6,595.3c164.4,0,297.6-133.2,297.6-297.6C595.3,203.4,551.4,119.3,483,64.8z M297.6,549
		C158.8,549,46.3,436.5,46.3,297.6c0-138.8,112.5-251.4,251.4-251.4c5.7,0,11.3,0.2,16.9,0.6c52.3,3.5,100.3,23,139,53.6
		c58.1,46,95.4,117.2,95.4,197.2C549,436.5,436.5,549,297.6,549z"/>
</g>
</svg>
