<?xml version="1.0" encoding="utf-8"?>
<!-- Generator: Adobe Illustrator 16.0.0, SVG Export Plug-In . SVG Version: 6.00 Build 0)  -->
<!DOCTYPE svg PUBLIC "-//W3C//DTD SVG 1.1//EN" "http://www.w3.org/Graphics/SVG/1.1/DTD/svg11.dtd">
<svg version="1.1" id="Layer_1" xmlns="http://www.w3.org/2000/svg" xmlns:xlink="http://www.w3.org/1999/xlink" x="0px" y="0px"
	 width="595.3px" height="595.3px" viewBox="0 0 595.3 595.3" enable-background="new 0 0 595.3 595.3" xml:space="preserve">
<g>
	<path fill="#1B1D1D" d="M221.9,473.3c11.2,0,19.8,9,19.8,20.2s-9,20.2-20.2,20.2l-67,0.1l-0.1-92.3l39.6,0l27.8,0L221.9,473.3z"/>
	<path fill="#1B1D1D" d="M245.7,445c0,15-12.2,27.2-27.2,27.2c-15,0-27.2-12.2-27.2-27.2l-0.4-4.5l0-29.7
		c-11-4.6-13.6-15.2-13.6-27.8c0-16.9,8.5-30.9,25.4-30.9l0.3,33.3l31.2,37.4C241.2,427.7,245.7,435.8,245.7,445z"/>
</g>
<path fill="#FFFFFF" d="M200,361.5c-5.3,0-9.6,4.3-9.6,9.6c0,5.3,4.3,9.6,9.6,9.6L200,361.5z"/>
<path fill="#1B1D1D" d="M562.9,432.7c-15,29.5-34.8,56.1-58.3,78.8h-290v-78.8H562.9z"/>
<path fill="#C3432A" d="M388.4,141.5c-14.1,36.3-49.4,62.1-90.7,62.1c-41.3,0-76.6-25.8-90.7-62.1c0.2-0.3,0.4-0.6,0.6-0.8
	c7.5-9.6,16.4-17.9,26.5-24.7c18.2-12.2,40.1-19.3,63.6-19.3C334.6,96.7,367.5,114.2,388.4,141.5z"/>
<path fill="#C3442B" d="M411.8,210.9v115.8c0,23-6.8,44.4-18.5,62.3c-1.8,2.7-3.7,5.4-5.7,7.9c-2,2.5-4.1,5-6.3,7.4
	c-6,6.5-12.8,12.3-20.2,17.3c-18.2,12.2-40.1,19.3-63.6,19.3c-33.1,0-63-14.1-83.8-36.6c-3.9-4.2-7.5-8.7-10.8-13.5
	c-12.4-18.3-19.6-40.3-19.6-64V210.9c0-26.1,8.7-50.1,23.5-69.4c14.1,36.3,49.4,62.1,90.7,62.1c41.3,0,76.6-25.8,90.7-62.1
	C403.1,160.7,411.8,184.8,411.8,210.9z"/>
<g>
	<path fill="#C3442B" d="M207.3,294.1c0,0-39.4-14-47.1-14c-7.7,0-14,6.3-14,14s6.3,14,14,14C167.9,308.1,207.3,294.1,207.3,294.1z"
		/>
	<path fill="#C3442B" d="M388,294.1c0,0,39.4,14,47.1,14s14-6.3,14-14s-6.3-14-14-14S388,294.1,388,294.1z"/>
</g>
<path fill="#1B1D1D" d="M340.2,336.7h-6.5c0-5.8-4.7-10.5-10.5-10.5c-5.8,0-10.5,4.7-10.5,10.5h-30.2c0-5.8-4.7-10.5-10.5-10.5
	c-5.8,0-10.5,4.7-10.5,10.5H255c0-23.5,19.1-42.6,42.6-42.6C321.2,294.1,340.2,313.2,340.2,336.7z"/>
<g>
	<circle fill="#1B1D1D" cx="220.7" cy="280.1" r="7"/>
	<circle fill="#1B1D1D" cx="374.6" cy="280.1" r="7"/>
</g>
<path fill="#1D1D1B" d="M388.4,141.5c-14.1,36.3-49.4,62.1-90.7,62.1c-41.3,0-76.6-25.8-90.7-62.1c0.2-0.3,0.4-0.6,0.6-0.8
	c7.5-9.6,16.4-17.9,26.5-24.7c18.2-12.2,40.1-19.3,63.6-19.3C334.6,96.7,367.5,114.2,388.4,141.5z"/>
<path fill="#1B1D1D" d="M327.5,375.3h-59.6c-1.7,0-3.1-1.4-3.1-3.1c0-1.7,1.4-3.1,3.1-3.1h59.6c1.7,0,3.1,1.4,3.1,3.1
	C330.6,373.9,329.2,375.3,327.5,375.3z"/>
<path fill="#FFFFFF" d="M288.1,375.3V388c0,1.6-1.3,2.9-2.9,2.9h-8.8c-1.6,0-2.9-1.3-2.9-2.9v-12.7H288.1z"/>
<path fill="#C3442B" d="M430.2,463.6v76.5h-50.5v18.6H215.5v-18.6h-46.1v-76.5c0-30.1,17.3-56.2,42.6-68.9
	c18.6,27.4,50,45.4,85.6,45.4c21.3,0,41.1-6.4,57.6-17.5c9.1-6.1,17.2-13.7,24-22.3c1.8-2.3,3.5-4.7,5.1-7.2
	C411.4,405.1,430.2,432.2,430.2,463.6z"/>
<path fill="#1B1D1D" d="M381.5,404.2c-16.9,28.7-48.1,47.9-83.8,47.9c-35.7,0-66.9-19.2-83.8-47.9c20.9,22.5,50.7,36.6,83.8,36.6
	c23.5,0,45.4-7.1,63.6-19.3C368.6,416.5,375.4,410.7,381.5,404.2z"/>
<g>
	<path fill="#1B1D1D" d="M132,438.5c-7.2,0-13.1-5.8-13.1-13.1c0-7.2,5.8-13.1,13.1-13.1l32.9,0c7.2,0,13.1,5.8,13.1,13.1
		c0,7.2-5.9,13.1-13.1,13.1L132,438.5z"/>
	<path fill="#1B1D1D" d="M127.3,464.7c-7.2,0-13.1-5.8-13.1-13.1c0-7.2,5.9-13.1,13.1-13.1l37.6,0c7.2,0,13.1,5.8,13.1,13.1
		c0,7.2-5.9,13.1-13.1,13.1L127.3,464.7z"/>
	<path fill="#1B1D1D" d="M166.3,517.1c7.2,0,13.1-5.9,13.1-13.1c0-7.2-5.9-13.1-13.1-13.1l-25.8,0c-7.2,0-13.1,5.9-13.1,13.1
		c0,7.2,5.9,13.1,13.1,13.1L166.3,517.1z"/>
	<path fill="#1B1D1D" d="M164.9,490.9c7.2,0,13.1-5.9,13.1-13.1c0-7.2-5.9-13.1-13.1-13.1l-30.6,0c-7.2,0-13.1,5.9-13.1,13.1
		c0,7.2,5.9,13.1,13.1,13.1L164.9,490.9z"/>
	<path fill="#FFFFFF" d="M165.8,433c4.2,0,7.6-3.4,7.6-7.6c0-4.2-3.4-7.6-7.6-7.6L165.8,433z"/>
	<path fill="#FFFFFF" d="M165.8,459.2c4.2,0,7.6-3.4,7.6-7.6c0-4.2-3.4-7.6-7.6-7.6L165.8,459.2z"/>
	<path fill="#FFFFFF" d="M165.8,485.4c4.2,0,7.6-3.4,7.6-7.6c0-4.2-3.4-7.6-7.6-7.6L165.8,485.4z"/>
	<path fill="#FFFFFF" d="M165.9,511.6c4.2,0,7.6-3.4,7.6-7.6c0-4.2-3.4-7.6-7.6-7.6L165.9,511.6z"/>
</g>
<path fill="#1B1D1D" d="M297.6,0C133.3,0,0,133.3,0,297.6C0,462,133.3,595.3,297.6,595.3c80.4,0,153.4-31.9,206.9-83.7
	c23.5-22.8,43.3-49.4,58.3-78.8c20.7-40.5,32.4-86.4,32.4-135.1C595.3,133.3,462,0,297.6,0z M429.7,511.6
	c-38.4,23.7-83.6,37.4-132,37.4C158.8,549,46.3,436.5,46.3,297.6c0-138.8,112.5-251.4,251.4-251.4C436.5,46.3,549,158.8,549,297.6
	c0,49.7-14.4,96.1-39.3,135.1C489.3,464.6,461.9,491.7,429.7,511.6z"/>
</svg>
