<?xml version="1.0" encoding="utf-8"?>
<!-- Generator: Adobe Illustrator 16.0.0, SVG Export Plug-In . SVG Version: 6.00 Build 0)  -->
<!DOCTYPE svg PUBLIC "-//W3C//DTD SVG 1.1//EN" "http://www.w3.org/Graphics/SVG/1.1/DTD/svg11.dtd">
<svg version="1.1" id="Layer_1" xmlns="http://www.w3.org/2000/svg" xmlns:xlink="http://www.w3.org/1999/xlink" x="0px" y="0px"
	 width="595.3px" height="595.3px" viewBox="0 0 595.3 595.3" enable-background="new 0 0 595.3 595.3" xml:space="preserve">
<path fill="#C3442B" d="M297.6,101.3c-24.1,0-46.4,7.3-65,19.8c2.5,3.2,4,7.2,4,11.5c0,10.2-8.3,18.5-18.5,18.5
	c-4.8,0-9.2-1.9-12.5-4.9C190.2,166,181,190.9,181,217.9v340.9h233.3V217.9C414.3,153.5,362.1,101.3,297.6,101.3z M213.8,174.7
	c-4.8,0-8.8-3.9-8.8-8.7c0-4.8,3.9-8.8,8.8-8.8s8.7,3.9,8.7,8.8C222.5,170.8,218.6,174.7,213.8,174.7z"/>
<circle fill="#FFFFFF" cx="297.6" cy="242.7" r="56.4"/>
<circle fill="#1B1D1D" cx="297.6" cy="242.7" r="15.6"/>
<path fill="#1B1D1D" d="M338.6,362.2c-5.8,0-10.6-4.7-10.6-10.6c0-16.7-13.6-30.4-30.4-30.4c-1.3,0-2.6,0.1-3.9,0.3l-0.3,0
	c-14.9,2.1-26.1,15-26.1,30.1c0,5.8-4.7,10.6-10.6,10.6c-5.8,0-10.6-4.7-10.6-10.6c0-13.6,5.2-26.4,14.7-36.1
	c9.5-9.7,22.2-15.2,35.7-15.4c0.4,0,0.7,0,1.1,0c28.4,0,51.5,23.1,51.5,51.5C349.2,357.4,344.4,362.2,338.6,362.2z"/>
<path fill="#1B1D1D" d="M236.7,132.6c0,10.2-8.3,18.5-18.5,18.5c-4.8,0-9.2-1.9-12.5-4.9c7.6-9.8,16.8-18.3,27.1-25.2
	C235.2,124.2,236.7,128.2,236.7,132.6z"/>
<path fill="#1B1D1D" d="M222.5,166c0,4.8-3.9,8.7-8.7,8.7s-8.8-3.9-8.8-8.7c0-4.8,3.9-8.8,8.8-8.8S222.5,161.1,222.5,166z"/>
<g>
	<path fill="#C3442B" d="M203.2,473.8v73.1h-54.1l-30-18.1V295.9c0-4.1-3.3-7.4-7.4-7.4c-4.1,0-7.4,3.3-7.4,7.4
		c0,11.7-18.7,38.8-23,44.9c-0.6,0.8-0.9,1.2-0.9,1.2s-1-1.3-2.5-3.6c-6-8.7-21-31.3-21.4-42.1c0-0.2,0-0.3,0-0.5c0-0.4,0-0.8,0-1.2
		c0.7-28.7,24.1-51.8,53.1-51.8c29.3,0,53.1,23.8,53.1,53.1c0,1.5-0.1,3-0.2,4.5v173.4c0,5.1,4.1,9.2,9.2,9.2c5.1,0,9.2-4.1,9.2-9.2
		H203.2z"/>
	<g>
		<g>
			<circle fill="#1B1D1D" cx="70.8" cy="298.5" r="6.4"/>
			<circle fill="#1B1D1D" cx="90.1" cy="298.5" r="6.4"/>
		</g>
		<circle fill="#1B1D1D" cx="80.5" cy="316.7" r="6.4"/>
	</g>
</g>
<g>
	<path fill="#C3442B" d="M391.1,473.8v73.1h54.1l30-27.1V295.9c0-4.1,3.3-7.4,7.4-7.4c4.1,0,7.4,3.3,7.4,7.4
		c0,11.7,18.7,38.8,23,44.9c0.6,0.8,0.9,1.2,0.9,1.2s1-1.3,2.5-3.6c6-8.7,21-31.3,21.4-42.1c0-0.2,0-0.3,0-0.5c0-0.4,0-0.8,0-1.2
		c-0.7-28.7-24.1-51.8-53.1-51.8c-29.3,0-53.1,23.8-53.1,53.1c0,1.5,0.1,3,0.2,4.5v173.4c0,5.1-4.1,9.2-9.2,9.2
		c-5.1,0-9.2-4.1-9.2-9.2H391.1z"/>
	<g>
		<g>
			<circle fill="#1B1D1D" cx="523.5" cy="298.5" r="6.4"/>
			<circle fill="#1B1D1D" cx="504.2" cy="298.5" r="6.4"/>
		</g>
		<circle fill="#1B1D1D" cx="513.9" cy="316.7" r="6.4"/>
	</g>
</g>
<path fill="#1B1D1D" d="M297.6,0C133.3,0,0,133.3,0,297.6C0,462,133.3,595.3,297.6,595.3c164.4,0,297.6-133.2,297.6-297.6
	C595.3,133.3,462,0,297.6,0z M297.6,549C158.8,549,46.3,436.5,46.3,297.6c0-138.8,112.5-251.4,251.4-251.4
	C436.5,46.3,549,158.8,549,297.6C549,436.5,436.5,549,297.6,549z"/>
</svg>
