<?xml version="1.0" encoding="utf-8"?>
<!-- Generator: Adobe Illustrator 16.0.0, SVG Export Plug-In . SVG Version: 6.00 Build 0)  -->
<!DOCTYPE svg PUBLIC "-//W3C//DTD SVG 1.1//EN" "http://www.w3.org/Graphics/SVG/1.1/DTD/svg11.dtd">
<svg version="1.1" id="Layer_1" xmlns="http://www.w3.org/2000/svg" xmlns:xlink="http://www.w3.org/1999/xlink" x="0px" y="0px"
	 width="358px" height="370px" viewBox="19.5 11.5 358 370" enable-background="new 19.5 11.5 358 370" xml:space="preserve">
<g id="_x31_170px_grid">
	<path opacity="0.7" fill="#C3442B" enable-background="new    " d="M62.135,169.114l24.26-7.85l7.041-2.281l11.18-3.619l4.33-1.4
		l40.16-13l16.619-5.38c18.08,53.851,68.961,92.629,128.891,92.629h0.68c0.24,0,0.48,0,0.711-0.01l-0.158,17.48l-0.4,42.199
		l-0.04,4.531l-0.11,11.77l-0.068,7.391l-0.239,25.5h-0.37C186.255,337.074,94.346,266.673,62.135,169.114z"/>
	<path fill="#C3442B" d="M165.725,135.583l18.301-5.92v-0.011l39.81-12.879c10.142,29.33,38,50.398,70.78,50.398
		c0.66,0,1.32-0.01,1.97-0.021l-0.397,41.841l-0.182,19.21c-0.461,0.01-0.931,0.01-1.391,0.01
		C234.686,228.213,183.805,189.434,165.725,135.583z"/>
	<path fill="none" stroke="#C3442B" stroke-miterlimit="10" d="M219.735,92.293c0-19.92,7.771-38.02,20.46-51.43
		c13.64-14.45,32.979-23.46,54.42-23.46c9.641,0,18.85,1.819,27.312,5.13c21.229,8.33,37.737,26.07,44.379,48.09
		c2.08,6.859,3.188,14.13,3.188,21.67c0,14.16-3.938,27.41-10.771,38.71c-12.801,21.16-35.771,35.46-62.142,36.15
		c-0.647,0.01-1.31,0.02-1.97,0.02c-32.78,0-60.641-21.069-70.78-50.399C221.176,109.104,219.735,100.864,219.735,92.293z"/>
	<path opacity="0.2" fill="#C3442B" enable-background="new    " d="M24.587,181.374l0.607-0.2c0.029,0.101,0.07,0.21,0.102,0.31
		l36.84-12.368c32.211,97.559,124.119,167.959,232.479,167.959h0.37l0.31,38.83c0.23,0-0.229,0.01,0,0v0.68
		c-0.22,0.011-0.447,0.011-0.68,0.011c-124.45,0-230.221-79.99-268.721-191.35C25.445,183.954,25.016,182.664,24.587,181.374z"/>
</g>
</svg>
