<?xml version="1.0" encoding="utf-8"?>
<!-- Generator: Adobe Illustrator 16.0.0, SVG Export Plug-In . SVG Version: 6.00 Build 0)  -->
<!DOCTYPE svg PUBLIC "-//W3C//DTD SVG 1.1//EN" "http://www.w3.org/Graphics/SVG/1.1/DTD/svg11.dtd">
<svg version="1.1" id="Layer_1" xmlns="http://www.w3.org/2000/svg" xmlns:xlink="http://www.w3.org/1999/xlink" x="0px" y="0px"
	 width="1003px" height="169px" viewBox="0 0 1003 169" enable-background="new 0 0 1003 169" xml:space="preserve">
<g>
	<rect x="280.531" y="115.865" width="628.461" height="2"/>
	<path fill="#FFFFFF" d="M411.323,164.865c-26.467,0-48-21.532-48-48s21.533-47.999,48-47.999s48,21.531,48,47.999
		S437.79,164.865,411.323,164.865z"/>
	<path d="M411.323,71.866c24.853,0,45,20.146,45,44.999s-20.147,45-45,45c-24.853,0-45-20.147-45-45S386.47,71.866,411.323,71.866
		 M411.323,65.866c-28.122,0-51,22.877-51,50.999s22.878,51,51,51s51-22.878,51-51S439.444,65.866,411.323,65.866L411.323,65.866z"
		/>
	<path fill="#FFFFFF" d="M663.021,157.865c-22.607,0-41-18.393-41-41s18.393-40.999,41-40.999s41,18.392,41,40.999
		S685.628,157.865,663.021,157.865z"/>
	<path d="M663.021,78.866c20.986,0,38,17.012,38,37.999s-17.014,38-38,38c-20.987,0-38-17.013-38-38S642.033,78.866,663.021,78.866
		 M663.021,72.866c-24.262,0-44,19.737-44,43.999c0,24.263,19.738,44,44,44s44-19.737,44-44
		C707.021,92.604,687.282,72.866,663.021,72.866L663.021,72.866z"/>
	<path fill="#FFFFFF" d="M909.043,138.365c-11.855,0-21.5-9.645-21.5-21.5c0-11.854,9.645-21.5,21.5-21.5s21.5,9.646,21.5,21.5
		C930.543,128.721,920.898,138.365,909.043,138.365z"/>
	<path d="M909.043,98.365c10.217,0,18.5,8.282,18.5,18.5s-8.283,18.5-18.5,18.5c-10.218,0-18.5-8.282-18.5-18.5
		S898.825,98.365,909.043,98.365 M909.043,92.365c-13.51,0-24.5,10.991-24.5,24.5c0,13.51,10.99,24.5,24.5,24.5
		s24.5-10.99,24.5-24.5C933.543,103.356,922.553,92.365,909.043,92.365L909.043,92.365z"/>
	<path d="M401.062,119.974c0.635,0,1.147-0.234,1.538-0.704s0.586-1.155,0.586-2.056v-0.491c-0.239,0.327-0.531,0.575-0.875,0.743
		c-0.344,0.169-0.721,0.252-1.131,0.252c-1.016,0-1.818-0.32-2.406-0.962c-0.589-0.644-0.883-1.522-0.883-2.642
		c0-1.064,0.33-1.943,0.989-2.641c0.659-0.695,1.475-1.043,2.446-1.043c1.104,0,1.985,0.363,2.644,1.088s0.989,1.769,0.989,3.131
		v2.498c0,1.348-0.363,2.393-1.087,3.139c-0.726,0.744-1.662,1.116-2.809,1.116c-0.366,0-0.745-0.036-1.135-0.11
		s-0.75-0.184-1.077-0.332l0.234-1.367c0.298,0.137,0.603,0.234,0.916,0.293S400.666,119.974,401.062,119.974z M401.347,116.334
		c0.444,0,0.823-0.088,1.135-0.264c0.313-0.175,0.547-0.402,0.703-0.681v-0.952c0-0.845-0.159-1.485-0.476-1.923
		s-0.769-0.656-1.355-0.656c-0.479,0-0.879,0.215-1.201,0.641c-0.322,0.428-0.483,0.967-0.483,1.615
		c0,0.664,0.147,1.201,0.443,1.608S400.82,116.334,401.347,116.334z"/>
	<path d="M413.571,117.14c0,1.387-0.313,2.443-0.938,3.172c-0.625,0.728-1.475,1.091-2.549,1.091c-1.079,0-1.934-0.363-2.563-1.091
		c-0.63-0.729-0.945-1.785-0.945-3.172v-2.438c0-1.383,0.313-2.438,0.938-3.172c0.625-0.731,1.477-1.099,2.556-1.099
		c1.074,0,1.926,0.367,2.556,1.099c0.63,0.733,0.945,1.789,0.945,3.172V117.14z M411.792,114.427c0-0.873-0.146-1.52-0.439-1.938
		c-0.293-0.421-0.72-0.631-1.282-0.631s-0.988,0.21-1.278,0.631c-0.291,0.418-0.436,1.064-0.436,1.938v2.965
		c0,0.878,0.147,1.528,0.443,1.949c0.295,0.422,0.724,0.633,1.286,0.633s0.986-0.209,1.274-0.629s0.432-1.07,0.432-1.953V114.427z"
		/>
	<path d="M415.073,112.636c0-0.625,0.201-1.148,0.604-1.572c0.402-0.422,0.953-0.633,1.651-0.633c0.703,0,1.256,0.21,1.659,0.63
		c0.402,0.42,0.604,0.945,0.604,1.575v0.563c0,0.626-0.202,1.146-0.604,1.563c-0.403,0.418-0.951,0.627-1.645,0.627
		c-0.703,0-1.257-0.209-1.663-0.627s-0.608-0.938-0.608-1.563V112.636z M416.311,113.199c0,0.313,0.089,0.578,0.267,0.794
		c0.178,0.219,0.434,0.326,0.766,0.326c0.322,0,0.57-0.107,0.743-0.322s0.26-0.48,0.26-0.798v-0.563
		c0-0.317-0.089-0.586-0.267-0.807c-0.179-0.22-0.429-0.329-0.751-0.329c-0.327,0-0.579,0.109-0.754,0.329
		c-0.176,0.221-0.264,0.489-0.264,0.807V113.199z M417.709,120.45l-0.916-0.527l5.208-8.335l0.916,0.527L417.709,120.45z
		 M420.2,118.634c0-0.619,0.203-1.141,0.608-1.564c0.405-0.422,0.955-0.633,1.648-0.633c0.703,0,1.256,0.211,1.659,0.63
		c0.402,0.42,0.604,0.942,0.604,1.567v0.572c0,0.629-0.202,1.152-0.604,1.57c-0.403,0.418-0.951,0.626-1.645,0.626
		c-0.703,0-1.257-0.21-1.663-0.63s-0.608-0.942-0.608-1.566V118.634z M421.438,119.206c0,0.312,0.091,0.578,0.275,0.798
		c0.183,0.219,0.436,0.329,0.758,0.329c0.342,0,0.596-0.105,0.762-0.318s0.249-0.482,0.249-0.809v-0.572
		c0-0.313-0.089-0.578-0.268-0.798s-0.431-0.33-0.758-0.33s-0.579,0.11-0.754,0.33s-0.264,0.485-0.264,0.798V119.206z"/>
	<path d="M656.861,112.013c-1.226,1.44-2.054,2.739-2.483,3.896s-0.742,2.561-0.938,4.211l-0.109,1.129h-1.779l0.109-1.129
		c0.19-1.611,0.571-3.072,1.143-4.383s1.35-2.553,2.336-3.725h-5.646v-1.428h7.368V112.013z"/>
	<path d="M662.493,110.431c0.381,0,0.748,0.04,1.1,0.119c0.352,0.08,0.666,0.185,0.944,0.316l-0.337,1.366
		c-0.273-0.117-0.539-0.208-0.799-0.274c-0.258-0.066-0.559-0.1-0.9-0.1c-0.713,0-1.285,0.277-1.717,0.83
		c-0.434,0.553-0.648,1.296-0.648,2.232v0.051c0.293-0.269,0.633-0.477,1.021-0.623c0.389-0.146,0.814-0.219,1.277-0.219
		c0.953,0,1.705,0.332,2.26,1c0.555,0.666,0.832,1.514,0.832,2.545c0,1.088-0.318,1.982-0.953,2.68
		c-0.635,0.699-1.467,1.048-2.497,1.048c-1.084,0-1.974-0.38-2.669-1.142c-0.697-0.763-1.045-1.827-1.045-3.194v-2.036
		c0-1.387,0.393-2.5,1.176-3.34S661.308,110.431,662.493,110.431z M661.995,115.515c-0.449,0-0.83,0.078-1.143,0.237
		s-0.551,0.374-0.717,0.646v0.761c0,0.902,0.182,1.597,0.545,2.084c0.363,0.488,0.829,0.73,1.396,0.73
		c0.518,0,0.925-0.221,1.224-0.664c0.297-0.444,0.446-0.991,0.446-1.639c0-0.639-0.156-1.158-0.469-1.558
		S662.538,115.515,661.995,115.515z"/>
	<path d="M666.771,112.636c0-0.625,0.201-1.148,0.605-1.572c0.402-0.422,0.953-0.633,1.65-0.633c0.703,0,1.256,0.21,1.66,0.63
		c0.402,0.42,0.604,0.945,0.604,1.575v0.563c0,0.626-0.201,1.146-0.604,1.563c-0.404,0.418-0.951,0.627-1.645,0.627
		c-0.703,0-1.258-0.209-1.663-0.627s-0.608-0.938-0.608-1.563V112.636z M668.009,113.199c0,0.313,0.089,0.578,0.268,0.794
		c0.178,0.219,0.434,0.326,0.766,0.326c0.322,0,0.569-0.107,0.742-0.322c0.174-0.215,0.261-0.48,0.261-0.798v-0.563
		c0-0.317-0.089-0.586-0.267-0.807c-0.18-0.22-0.43-0.329-0.752-0.329c-0.326,0-0.578,0.109-0.754,0.329
		c-0.176,0.221-0.264,0.489-0.264,0.807V113.199z M669.407,120.45l-0.915-0.527l5.208-8.335l0.915,0.527L669.407,120.45z
		 M671.897,118.634c0-0.619,0.203-1.141,0.608-1.564c0.405-0.422,0.954-0.633,1.647-0.633c0.703,0,1.256,0.211,1.66,0.63
		c0.402,0.42,0.604,0.942,0.604,1.567v0.572c0,0.629-0.201,1.152-0.604,1.57c-0.404,0.418-0.951,0.626-1.645,0.626
		c-0.703,0-1.258-0.21-1.663-0.63s-0.608-0.942-0.608-1.566V118.634z M673.136,119.206c0,0.312,0.092,0.578,0.275,0.798
		c0.182,0.219,0.436,0.329,0.758,0.329c0.342,0,0.596-0.105,0.762-0.318s0.248-0.482,0.248-0.809v-0.572
		c0-0.313-0.089-0.578-0.268-0.798c-0.178-0.22-0.43-0.33-0.758-0.33c-0.326,0-0.578,0.11-0.754,0.33s-0.264,0.485-0.264,0.798
		V119.206z"/>
	<path d="M897.867,115.11h1.237c0.576,0,0.991-0.142,1.245-0.428c0.254-0.285,0.381-0.689,0.381-1.213
		c0-0.512-0.137-0.908-0.41-1.189s-0.676-0.422-1.209-0.422c-0.482,0-0.877,0.139-1.182,0.415c-0.307,0.274-0.459,0.638-0.459,1.087
		h-1.713l-0.016-0.044c-0.029-0.815,0.275-1.501,0.912-2.054c0.637-0.555,1.449-0.832,2.436-0.832c1.04,0,1.87,0.264,2.49,0.792
		c0.62,0.526,0.93,1.276,0.93,2.247c0,0.455-0.139,0.895-0.417,1.318c-0.278,0.426-0.674,0.756-1.187,0.989
		c0.605,0.216,1.051,0.542,1.336,0.981c0.287,0.439,0.43,0.939,0.43,1.502c0,0.977-0.336,1.744-1.008,2.303
		c-0.672,0.56-1.529,0.839-2.574,0.839c-0.986,0-1.815-0.263-2.486-0.788c-0.672-0.523-0.992-1.25-0.963-2.178l0.014-0.045h1.715
		c0,0.473,0.158,0.854,0.476,1.145c0.317,0.293,0.739,0.438,1.267,0.438c0.553,0,0.986-0.146,1.305-0.445
		c0.316-0.297,0.476-0.719,0.476-1.264c0-0.6-0.146-1.042-0.437-1.327c-0.29-0.285-0.74-0.427-1.351-0.427h-1.237V115.11z"/>
	<path d="M911.409,112.013c-1.226,1.44-2.054,2.739-2.483,3.896s-0.742,2.561-0.938,4.211l-0.109,1.129H906.1l0.109-1.129
		c0.19-1.611,0.571-3.072,1.143-4.383s1.35-2.553,2.336-3.725h-5.646v-1.428h7.368V112.013z"/>
	<path d="M912.793,112.636c0-0.625,0.201-1.148,0.605-1.572c0.402-0.422,0.953-0.633,1.65-0.633c0.703,0,1.256,0.21,1.66,0.63
		c0.402,0.42,0.604,0.945,0.604,1.575v0.563c0,0.626-0.201,1.146-0.604,1.563c-0.404,0.418-0.951,0.627-1.645,0.627
		c-0.703,0-1.258-0.209-1.663-0.627s-0.608-0.938-0.608-1.563V112.636z M914.031,113.199c0,0.313,0.089,0.578,0.268,0.794
		c0.178,0.219,0.434,0.326,0.766,0.326c0.322,0,0.569-0.107,0.742-0.322c0.174-0.215,0.261-0.48,0.261-0.798v-0.563
		c0-0.317-0.089-0.586-0.267-0.807c-0.18-0.22-0.43-0.329-0.752-0.329c-0.326,0-0.578,0.109-0.754,0.329
		c-0.176,0.221-0.264,0.489-0.264,0.807V113.199z M915.43,120.45l-0.915-0.527l5.208-8.335l0.915,0.527L915.43,120.45z
		 M917.92,118.634c0-0.619,0.203-1.141,0.608-1.564c0.405-0.422,0.954-0.633,1.647-0.633c0.703,0,1.256,0.211,1.66,0.63
		c0.402,0.42,0.604,0.942,0.604,1.567v0.572c0,0.629-0.201,1.152-0.604,1.57c-0.404,0.418-0.951,0.626-1.645,0.626
		c-0.703,0-1.258-0.21-1.663-0.63s-0.608-0.942-0.608-1.566V118.634z M919.158,119.206c0,0.312,0.092,0.578,0.275,0.798
		c0.182,0.219,0.436,0.329,0.758,0.329c0.342,0,0.596-0.105,0.762-0.318s0.248-0.482,0.248-0.809v-0.572
		c0-0.313-0.089-0.578-0.268-0.798c-0.178-0.22-0.43-0.33-0.758-0.33c-0.326,0-0.578,0.11-0.754,0.33s-0.264,0.485-0.264,0.798
		V119.206z"/>
	<path d="M390.262,30.699c0-0.58-0.217-1.054-0.652-1.422s-1.191-0.693-2.271-0.977c-1.167-0.292-2.051-0.672-2.651-1.142
		c-0.601-0.469-0.901-1.102-0.901-1.897c0-0.815,0.335-1.479,1.007-1.992s1.535-0.77,2.589-0.77c1.099,0,1.985,0.306,2.659,0.916
		s1.001,1.355,0.981,2.234l-0.022,0.045h-0.806c0-0.715-0.252-1.301-0.758-1.76c-0.505-0.459-1.19-0.688-2.054-0.688
		c-0.854,0-1.522,0.189-2.003,0.57s-0.721,0.855-0.721,1.422c0,0.537,0.222,0.984,0.667,1.344c0.444,0.358,1.211,0.675,2.3,0.948
		c1.147,0.293,2.02,0.688,2.618,1.187s0.897,1.155,0.897,1.971c0,0.85-0.348,1.525-1.044,2.028
		c-0.695,0.503-1.583,0.755-2.662,0.755c-1.064,0-1.994-0.268-2.787-0.803c-0.793-0.534-1.178-1.314-1.153-2.34l0.015-0.044h0.806
		c0,0.827,0.31,1.44,0.93,1.841c0.62,0.398,1.35,0.598,2.19,0.598c0.845,0,1.527-0.185,2.047-0.555
		C390.002,31.799,390.262,31.309,390.262,30.699z"/>
	<path d="M399.183,28.154h-5.134v4.417h5.881v0.747h-6.753V22.654h6.716v0.747h-5.845v4.007h5.134V28.154z"/>
	<path d="M407.547,30.345h-4.885l-1.099,2.974h-0.908l4.05-10.664h0.828l4.021,10.664h-0.908L407.547,30.345z M402.955,29.561h4.307
		l-2.124-5.771h-0.044L402.955,29.561z"/>
	<path d="M412.037,28.499v4.819h-0.872V22.662h3.611c1.143,0,2.019,0.25,2.629,0.75c0.61,0.501,0.916,1.232,0.916,2.193
		c0,0.566-0.164,1.074-0.491,1.521s-0.789,0.772-1.384,0.978c0.659,0.166,1.134,0.463,1.424,0.89
		c0.291,0.428,0.436,0.964,0.436,1.608v1.003c0,0.332,0.039,0.63,0.117,0.894s0.208,0.479,0.388,0.645v0.176h-0.894
		c-0.181-0.176-0.308-0.422-0.381-0.74c-0.073-0.316-0.11-0.646-0.11-0.987v-0.976c0-0.654-0.211-1.17-0.633-1.549
		c-0.423-0.378-1.012-0.567-1.769-0.567H412.037z M412.037,27.752h2.629c0.962,0,1.665-0.194,2.109-0.582
		c0.444-0.389,0.667-0.912,0.667-1.57c0-0.703-0.221-1.245-0.663-1.623c-0.442-0.379-1.11-0.568-2.003-0.568h-2.739V27.752z"/>
	<path d="M428.407,29.986l0.015,0.043c-0.093,1.069-0.474,1.911-1.143,2.523c-0.669,0.613-1.565,0.92-2.688,0.92
		c-1.187,0-2.144-0.428-2.871-1.286c-0.728-0.856-1.091-1.966-1.091-3.328v-1.736c0-1.357,0.364-2.467,1.091-3.329
		c0.728-0.861,1.685-1.293,2.871-1.293c1.133,0,2.031,0.301,2.695,0.901s1.042,1.446,1.135,2.534l-0.015,0.045h-0.82
		c-0.117-0.885-0.421-1.561-0.912-2.029c-0.49-0.469-1.185-0.703-2.083-0.703c-0.933,0-1.681,0.36-2.245,1.083
		c-0.564,0.722-0.846,1.647-0.846,2.773v1.749c0,1.141,0.282,2.072,0.846,2.792c0.563,0.72,1.312,1.079,2.245,1.079
		c0.898,0,1.594-0.229,2.087-0.686c0.493-0.459,0.796-1.143,0.908-2.053H428.407z"/>
	<path d="M438.485,33.318h-0.872v-4.906h-6.064v4.906h-0.872V22.654h0.872v5.01h6.064v-5.01h0.872V33.318z"/>
	<path d="M353.366,46.316h-5.186v5.002h-0.872V40.654h6.804v0.747h-5.933v4.167h5.186V46.316z"/>
	<path d="M363.745,46.858c0,1.376-0.377,2.489-1.132,3.339c-0.754,0.85-1.766,1.275-3.036,1.275c-1.25,0-2.248-0.426-2.992-1.275
		c-0.745-0.85-1.117-1.963-1.117-3.339v-1.736c0-1.372,0.371-2.485,1.113-3.34s1.738-1.282,2.988-1.282
		c1.27,0,2.283,0.428,3.04,1.282s1.135,1.968,1.135,3.34V46.858z M362.873,45.113c0-1.153-0.292-2.083-0.875-2.787
		c-0.583-0.705-1.393-1.057-2.428-1.057c-1.016,0-1.807,0.352-2.373,1.057c-0.566,0.704-0.85,1.634-0.85,2.787v1.754
		c0,1.163,0.284,2.098,0.854,2.802c0.568,0.704,1.361,1.056,2.376,1.056c1.04,0,1.849-0.351,2.428-1.053
		c0.578-0.701,0.868-1.637,0.868-2.805V45.113z"/>
	<path d="M366.901,46.499v4.819h-0.872V40.662h3.611c1.143,0,2.019,0.25,2.629,0.75c0.61,0.501,0.916,1.232,0.916,2.193
		c0,0.566-0.164,1.074-0.491,1.521s-0.789,0.772-1.384,0.978c0.659,0.166,1.134,0.463,1.424,0.89
		c0.291,0.428,0.436,0.964,0.436,1.608v1.003c0,0.332,0.039,0.63,0.117,0.894s0.208,0.479,0.388,0.645v0.176h-0.894
		c-0.181-0.176-0.308-0.422-0.381-0.74c-0.073-0.316-0.11-0.646-0.11-0.987v-0.976c0-0.654-0.211-1.17-0.633-1.549
		c-0.423-0.378-1.012-0.567-1.769-0.567H366.901z M366.901,45.752h2.629c0.962,0,1.665-0.194,2.109-0.582
		c0.444-0.389,0.667-0.912,0.667-1.57c0-0.703-0.221-1.245-0.663-1.623c-0.442-0.379-1.11-0.568-2.003-0.568h-2.739V45.752z"/>
	<path d="M380.642,51.318h-0.879V40.654h0.879V51.318z"/>
	<path d="M391.481,51.318h-0.872l-6.057-9.17l-0.044,0.008v9.162h-0.879V40.654h0.879l6.057,9.155l0.044-0.007v-9.148h0.872V51.318z
		"/>
	<path d="M400.336,46.316h-5.186v5.002h-0.872V40.654h6.804v0.747h-5.933v4.167h5.186V46.316z"/>
	<path d="M410.715,46.858c0,1.376-0.377,2.489-1.132,3.339c-0.754,0.85-1.766,1.275-3.036,1.275c-1.25,0-2.248-0.426-2.992-1.275
		c-0.745-0.85-1.117-1.963-1.117-3.339v-1.736c0-1.372,0.371-2.485,1.113-3.34s1.738-1.282,2.988-1.282
		c1.27,0,2.283,0.428,3.04,1.282s1.135,1.968,1.135,3.34V46.858z M409.843,45.113c0-1.153-0.292-2.083-0.875-2.787
		c-0.583-0.705-1.393-1.057-2.428-1.057c-1.016,0-1.807,0.352-2.373,1.057c-0.566,0.704-0.85,1.634-0.85,2.787v1.754
		c0,1.163,0.284,2.098,0.854,2.802c0.568,0.704,1.361,1.056,2.376,1.056c1.04,0,1.849-0.351,2.428-1.053
		c0.578-0.701,0.868-1.637,0.868-2.805V45.113z"/>
	<path d="M413.872,46.499v4.819H413V40.662h3.611c1.143,0,2.019,0.25,2.629,0.75c0.61,0.501,0.916,1.232,0.916,2.193
		c0,0.566-0.164,1.074-0.491,1.521s-0.789,0.772-1.384,0.978c0.659,0.166,1.134,0.463,1.424,0.89
		c0.291,0.428,0.436,0.964,0.436,1.608v1.003c0,0.332,0.039,0.63,0.117,0.894s0.208,0.479,0.388,0.645v0.176h-0.894
		c-0.181-0.176-0.308-0.422-0.381-0.74c-0.073-0.316-0.11-0.646-0.11-0.987v-0.976c0-0.654-0.211-1.17-0.633-1.549
		c-0.423-0.378-1.012-0.567-1.769-0.567H413.872z M413.872,45.752h2.629c0.962,0,1.665-0.194,2.109-0.582
		c0.444-0.389,0.667-0.912,0.667-1.57c0-0.703-0.221-1.245-0.663-1.623c-0.442-0.379-1.11-0.568-2.003-0.568h-2.739V45.752z"/>
	<path d="M424.045,40.654l3.918,9.391h0.044l3.933-9.391h1.157v10.664h-0.872v-4.709l0.073-4.666l-0.044-0.015l-3.962,9.39h-0.608
		l-3.955-9.346l-0.044,0.008l0.081,4.629v4.709h-0.872V40.654H424.045z"/>
	<path d="M441.755,48.345h-4.885l-1.099,2.974h-0.908l4.05-10.664h0.828l4.021,10.664h-0.908L441.755,48.345z M437.163,47.561h4.307
		l-2.124-5.771h-0.044L437.163,47.561z"/>
	<path d="M451.599,41.401h-3.669v9.917h-0.879v-9.917h-3.669v-0.747h8.218V41.401z"/>
	<path d="M454.404,51.318h-0.879V40.654h0.879V51.318z"/>
	<path d="M465.178,46.858c0,1.376-0.377,2.489-1.132,3.339c-0.754,0.85-1.766,1.275-3.036,1.275c-1.25,0-2.248-0.426-2.992-1.275
		c-0.745-0.85-1.117-1.963-1.117-3.339v-1.736c0-1.372,0.371-2.485,1.113-3.34s1.738-1.282,2.988-1.282
		c1.27,0,2.283,0.428,3.04,1.282s1.135,1.968,1.135,3.34V46.858z M464.306,45.113c0-1.153-0.292-2.083-0.875-2.787
		c-0.583-0.705-1.393-1.057-2.428-1.057c-1.016,0-1.807,0.352-2.373,1.057c-0.566,0.704-0.85,1.634-0.85,2.787v1.754
		c0,1.163,0.284,2.098,0.854,2.802c0.568,0.704,1.361,1.056,2.376,1.056c1.04,0,1.849-0.351,2.428-1.053
		c0.578-0.701,0.868-1.637,0.868-2.805V45.113z"/>
	<path d="M475.336,51.318h-0.872l-6.057-9.17l-0.044,0.008v9.162h-0.879V40.654h0.879l6.057,9.155l0.044-0.007v-9.148h0.872V51.318z
		"/>
	<path d="M624.122,33.318V22.654h3.098c1.305,0,2.381,0.435,3.23,1.304c0.85,0.87,1.274,1.985,1.274,3.347v1.37
		c0,1.367-0.425,2.483-1.274,3.347c-0.85,0.865-1.926,1.297-3.23,1.297H624.122z M624.993,23.401v9.17h2.227
		c1.055,0,1.924-0.368,2.604-1.104c0.682-0.737,1.022-1.668,1.022-2.796v-1.39c0-1.113-0.342-2.038-1.025-2.774
		c-0.684-0.737-1.55-1.105-2.601-1.105H624.993z"/>
	<path d="M641.751,28.858c0,1.376-0.377,2.489-1.131,3.339s-1.767,1.275-3.036,1.275c-1.25,0-2.247-0.426-2.991-1.275
		c-0.746-0.85-1.117-1.963-1.117-3.339v-1.736c0-1.372,0.371-2.485,1.113-3.34s1.738-1.282,2.988-1.282
		c1.27,0,2.282,0.428,3.039,1.282s1.135,1.968,1.135,3.34V28.858z M640.88,27.113c0-1.153-0.292-2.083-0.875-2.787
		c-0.584-0.705-1.393-1.057-2.428-1.057c-1.016,0-1.807,0.352-2.373,1.057c-0.566,0.704-0.85,1.634-0.85,2.787v1.754
		c0,1.163,0.283,2.098,0.854,2.802c0.568,0.704,1.36,1.056,2.376,1.056c1.04,0,1.849-0.351,2.429-1.053
		c0.578-0.701,0.867-1.637,0.867-2.805V27.113z"/>
	<path d="M645.919,30.301l0.322,1.633l0.044,0.008l0.403-1.641l2.256-7.646h0.827l2.256,7.646l0.388,1.648l0.045-0.008l0.344-1.641
		l1.926-7.646h0.895l-2.74,10.664h-0.827l-2.396-8.182l-0.277-1.12h-0.045l-0.271,1.12l-2.417,8.182h-0.835l-2.739-10.664h0.9
		L645.919,30.301z"/>
	<path d="M665.343,33.318h-0.871l-6.058-9.17l-0.044,0.008v9.162h-0.879V22.654h0.879l6.057,9.155l0.045-0.007v-9.148h0.871V33.318z
		"/>
	<path d="M669.02,32.571h5.273v0.747h-6.152V22.654h0.879V32.571z"/>
	<path d="M683.353,28.858c0,1.376-0.377,2.489-1.131,3.339s-1.767,1.275-3.036,1.275c-1.25,0-2.247-0.426-2.991-1.275
		c-0.746-0.85-1.117-1.963-1.117-3.339v-1.736c0-1.372,0.371-2.485,1.113-3.34s1.738-1.282,2.988-1.282
		c1.27,0,2.282,0.428,3.039,1.282s1.135,1.968,1.135,3.34V28.858z M682.481,27.113c0-1.153-0.292-2.083-0.875-2.787
		c-0.584-0.705-1.393-1.057-2.428-1.057c-1.016,0-1.807,0.352-2.373,1.057c-0.566,0.704-0.85,1.634-0.85,2.787v1.754
		c0,1.163,0.283,2.098,0.854,2.802c0.568,0.704,1.36,1.056,2.376,1.056c1.04,0,1.849-0.351,2.429-1.053
		c0.578-0.701,0.867-1.637,0.867-2.805V27.113z"/>
	<path d="M691.233,30.345h-4.885l-1.099,2.974h-0.908l4.05-10.664h0.828l4.021,10.664h-0.908L691.233,30.345z M686.642,29.561h4.307
		l-2.124-5.771h-0.044L686.642,29.561z"/>
	<path d="M694.874,33.318V22.654h3.098c1.305,0,2.381,0.435,3.23,1.304c0.85,0.87,1.274,1.985,1.274,3.347v1.37
		c0,1.367-0.425,2.483-1.274,3.347c-0.85,0.865-1.926,1.297-3.23,1.297H694.874z M695.745,23.401v9.17h2.227
		c1.055,0,1.924-0.368,2.604-1.104c0.682-0.737,1.022-1.668,1.022-2.796v-1.39c0-1.113-0.342-2.038-1.025-2.774
		c-0.684-0.737-1.55-1.105-2.601-1.105H695.745z"/>
	<path d="M645.161,46.316h-5.186v5.002h-0.872V40.654h6.804v0.747h-5.932v4.167h5.186V46.316z"/>
	<path d="M655.539,46.858c0,1.376-0.377,2.489-1.132,3.339c-0.754,0.85-1.766,1.275-3.035,1.275c-1.25,0-2.248-0.426-2.992-1.275
		c-0.745-0.85-1.117-1.963-1.117-3.339v-1.736c0-1.372,0.371-2.485,1.113-3.34s1.738-1.282,2.988-1.282
		c1.27,0,2.283,0.428,3.039,1.282c0.758,0.854,1.136,1.968,1.136,3.34V46.858z M654.667,45.113c0-1.153-0.291-2.083-0.875-2.787
		c-0.584-0.705-1.393-1.057-2.428-1.057c-1.016,0-1.807,0.352-2.373,1.057c-0.566,0.704-0.85,1.634-0.85,2.787v1.754
		c0,1.163,0.284,2.098,0.854,2.802c0.568,0.704,1.361,1.056,2.377,1.056c1.039,0,1.849-0.351,2.428-1.053
		c0.578-0.701,0.867-1.637,0.867-2.805V45.113z"/>
	<path d="M658.696,46.499v4.819h-0.872V40.662h3.61c1.143,0,2.02,0.25,2.63,0.75c0.61,0.501,0.915,1.232,0.915,2.193
		c0,0.566-0.163,1.074-0.49,1.521s-0.789,0.772-1.385,0.978c0.66,0.166,1.135,0.463,1.425,0.89c0.29,0.428,0.437,0.964,0.437,1.608
		v1.003c0,0.332,0.039,0.63,0.117,0.894s0.207,0.479,0.388,0.645v0.176h-0.894c-0.181-0.176-0.308-0.422-0.381-0.74
		c-0.073-0.316-0.109-0.646-0.109-0.987v-0.976c0-0.654-0.212-1.17-0.634-1.549c-0.423-0.378-1.013-0.567-1.769-0.567H658.696z
		 M658.696,45.752h2.629c0.962,0,1.665-0.194,2.109-0.582c0.444-0.389,0.666-0.912,0.666-1.57c0-0.703-0.221-1.245-0.662-1.623
		c-0.442-0.379-1.109-0.568-2.004-0.568h-2.738V45.752z"/>
	<path d="M668.869,40.654l3.919,9.391h0.043l3.934-9.391h1.157v10.664h-0.872v-4.709l0.074-4.666l-0.045-0.015l-3.962,9.39h-0.608
		l-3.955-9.346l-0.043,0.008l0.08,4.629v4.709h-0.871V40.654H668.869z"/>
	<path d="M686.821,48.699c0-0.58-0.218-1.054-0.652-1.422s-1.191-0.693-2.271-0.977c-1.167-0.292-2.051-0.672-2.651-1.142
		c-0.601-0.469-0.9-1.102-0.9-1.897c0-0.815,0.335-1.479,1.006-1.992c0.672-0.513,1.535-0.77,2.59-0.77
		c1.099,0,1.984,0.306,2.658,0.916s1.002,1.355,0.982,2.234l-0.022,0.045h-0.806c0-0.715-0.252-1.301-0.758-1.76
		s-1.19-0.688-2.055-0.688c-0.854,0-1.522,0.189-2.004,0.57c-0.48,0.381-0.721,0.855-0.721,1.422c0,0.537,0.223,0.984,0.666,1.344
		c0.445,0.358,1.211,0.675,2.301,0.948c1.146,0.293,2.02,0.688,2.617,1.187c0.599,0.498,0.898,1.155,0.898,1.971
		c0,0.85-0.348,1.525-1.045,2.028c-0.695,0.503-1.582,0.755-2.662,0.755c-1.064,0-1.993-0.268-2.787-0.803
		c-0.793-0.534-1.178-1.314-1.152-2.34l0.014-0.044h0.807c0,0.827,0.31,1.44,0.93,1.841c0.62,0.398,1.35,0.598,2.189,0.598
		c0.846,0,1.527-0.185,2.047-0.555C686.562,49.799,686.821,49.309,686.821,48.699z"/>
	<path d="M889.938,22.654v7.229c0,1.162-0.354,2.051-1.065,2.666s-1.637,0.924-2.779,0.924c-1.129,0-2.041-0.31-2.74-0.926
		c-0.697-0.619-1.047-1.506-1.047-2.664v-7.229h0.879v7.225c0,0.906,0.269,1.608,0.806,2.104c0.537,0.496,1.237,0.742,2.103,0.742
		c0.879,0,1.594-0.246,2.146-0.738c0.552-0.493,0.827-1.195,0.827-2.107v-7.225H889.938z"/>
	<path d="M893.418,28.887v4.432h-0.872V22.654h3.669c1.119,0,1.984,0.284,2.598,0.854c0.611,0.568,0.918,1.322,0.918,2.26
		c0,0.947-0.307,1.703-0.918,2.27c-0.613,0.566-1.479,0.85-2.598,0.85H893.418z M893.418,28.141h2.797
		c0.879,0,1.539-0.224,1.982-0.671c0.441-0.446,0.662-1.009,0.662-1.688c0-0.684-0.22-1.251-0.659-1.702
		c-0.439-0.452-1.101-0.678-1.985-0.678h-2.797V28.141z"/>
	<path d="M902.705,32.571h5.273v0.747h-6.152V22.654h0.879V32.571z"/>
	<path d="M917.038,28.858c0,1.376-0.377,2.489-1.132,3.339c-0.754,0.85-1.766,1.275-3.035,1.275c-1.25,0-2.248-0.426-2.992-1.275
		c-0.745-0.85-1.117-1.963-1.117-3.339v-1.736c0-1.372,0.371-2.485,1.113-3.34s1.738-1.282,2.988-1.282
		c1.27,0,2.283,0.428,3.039,1.282c0.758,0.854,1.136,1.968,1.136,3.34V28.858z M916.166,27.113c0-1.153-0.291-2.083-0.875-2.787
		c-0.584-0.705-1.393-1.057-2.428-1.057c-1.016,0-1.807,0.352-2.373,1.057c-0.566,0.704-0.85,1.634-0.85,2.787v1.754
		c0,1.163,0.284,2.098,0.854,2.802c0.568,0.704,1.361,1.056,2.377,1.056c1.039,0,1.849-0.351,2.428-1.053
		c0.578-0.701,0.867-1.637,0.867-2.805V27.113z"/>
	<path d="M924.919,30.345h-4.886l-1.098,2.974h-0.908l4.05-10.664h0.827l4.021,10.664h-0.908L924.919,30.345z M920.326,29.561h4.307
		l-2.123-5.771h-0.045L920.326,29.561z"/>
	<path d="M928.559,33.318V22.654h3.099c1.304,0,2.38,0.435,3.229,1.304c0.85,0.87,1.275,1.985,1.275,3.347v1.37
		c0,1.367-0.426,2.483-1.275,3.347c-0.85,0.865-1.926,1.297-3.229,1.297H928.559z M929.431,23.401v9.17h2.227
		c1.055,0,1.923-0.368,2.604-1.104c0.682-0.737,1.022-1.668,1.022-2.796v-1.39c0-1.113-0.342-2.038-1.025-2.774
		c-0.684-0.737-1.551-1.105-2.601-1.105H929.431z"/>
	<path d="M891.184,46.316h-5.186v5.002h-0.872V40.654h6.804v0.747h-5.932v4.167h5.186V46.316z"/>
	<path d="M901.562,46.858c0,1.376-0.377,2.489-1.132,3.339c-0.754,0.85-1.766,1.275-3.035,1.275c-1.25,0-2.248-0.426-2.992-1.275
		c-0.745-0.85-1.117-1.963-1.117-3.339v-1.736c0-1.372,0.371-2.485,1.113-3.34s1.738-1.282,2.988-1.282
		c1.27,0,2.283,0.428,3.039,1.282c0.758,0.854,1.136,1.968,1.136,3.34V46.858z M900.689,45.113c0-1.153-0.291-2.083-0.875-2.787
		c-0.584-0.705-1.393-1.057-2.428-1.057c-1.016,0-1.807,0.352-2.373,1.057c-0.566,0.704-0.85,1.634-0.85,2.787v1.754
		c0,1.163,0.284,2.098,0.854,2.802c0.568,0.704,1.361,1.056,2.377,1.056c1.039,0,1.849-0.351,2.428-1.053
		c0.578-0.701,0.867-1.637,0.867-2.805V45.113z"/>
	<path d="M904.719,46.499v4.819h-0.872V40.662h3.61c1.143,0,2.02,0.25,2.63,0.75c0.61,0.501,0.915,1.232,0.915,2.193
		c0,0.566-0.163,1.074-0.49,1.521s-0.789,0.772-1.385,0.978c0.66,0.166,1.135,0.463,1.425,0.89c0.29,0.428,0.437,0.964,0.437,1.608
		v1.003c0,0.332,0.039,0.63,0.117,0.894s0.207,0.479,0.388,0.645v0.176H910.6c-0.181-0.176-0.308-0.422-0.381-0.74
		c-0.073-0.316-0.109-0.646-0.109-0.987v-0.976c0-0.654-0.212-1.17-0.634-1.549c-0.423-0.378-1.013-0.567-1.769-0.567H904.719z
		 M904.719,45.752h2.629c0.962,0,1.665-0.194,2.109-0.582c0.444-0.389,0.666-0.912,0.666-1.57c0-0.703-0.221-1.245-0.662-1.623
		c-0.442-0.379-1.109-0.568-2.004-0.568h-2.738V45.752z"/>
	<path d="M914.892,40.654l3.919,9.391h0.043l3.934-9.391h1.157v10.664h-0.872v-4.709l0.074-4.666l-0.045-0.015l-3.962,9.39h-0.608
		l-3.955-9.346l-0.043,0.008l0.08,4.629v4.709h-0.871V40.654H914.892z"/>
	<path d="M932.844,48.699c0-0.58-0.218-1.054-0.652-1.422s-1.191-0.693-2.271-0.977c-1.167-0.292-2.051-0.672-2.651-1.142
		c-0.601-0.469-0.9-1.102-0.9-1.897c0-0.815,0.335-1.479,1.006-1.992c0.672-0.513,1.535-0.77,2.59-0.77
		c1.099,0,1.984,0.306,2.658,0.916s1.002,1.355,0.982,2.234l-0.022,0.045h-0.806c0-0.715-0.252-1.301-0.758-1.76
		s-1.19-0.688-2.055-0.688c-0.854,0-1.522,0.189-2.004,0.57c-0.48,0.381-0.721,0.855-0.721,1.422c0,0.537,0.223,0.984,0.666,1.344
		c0.445,0.358,1.211,0.675,2.301,0.948c1.146,0.293,2.02,0.688,2.617,1.187c0.599,0.498,0.898,1.155,0.898,1.971
		c0,0.85-0.348,1.525-1.045,2.028c-0.695,0.503-1.582,0.755-2.662,0.755c-1.064,0-1.993-0.268-2.787-0.803
		c-0.793-0.534-1.178-1.314-1.152-2.34l0.014-0.044h0.807c0,0.827,0.31,1.44,0.93,1.841c0.62,0.398,1.35,0.598,2.189,0.598
		c0.846,0,1.527-0.185,2.047-0.555C932.584,49.799,932.844,49.309,932.844,48.699z"/>
	<path d="M174.286,94.249h-2.139V83.586h2.139V94.249z"/>
	<path d="M185.038,94.249h-2.131l-4.307-7.287l-0.044,0.007v7.28h-2.139V83.586h2.139l4.307,7.278l0.044-0.007v-7.271h2.131V94.249z
		"/>
	<path d="M194.406,85.232h-3.018v9.017h-2.139v-9.017h-3.003v-1.646h8.159V85.232z"/>
	<path d="M202.155,89.562h-4.417v3.039h5.164v1.648H195.6V83.586h7.288v1.646h-5.149v2.681h4.417V89.562z"/>
	<path d="M206.352,89.985v4.264h-2.139V83.586h4.021c1.216,0,2.167,0.277,2.853,0.83c0.686,0.554,1.029,1.327,1.029,2.318
		c0,0.552-0.144,1.026-0.432,1.421s-0.71,0.715-1.267,0.959c0.63,0.186,1.083,0.495,1.359,0.93c0.275,0.436,0.414,0.973,0.414,1.612
		v0.784c0,0.297,0.041,0.607,0.121,0.934c0.081,0.324,0.219,0.565,0.414,0.721v0.154h-2.205c-0.195-0.156-0.322-0.418-0.381-0.785
		c-0.059-0.365-0.088-0.712-0.088-1.039v-0.754c0-0.533-0.146-0.947-0.436-1.242s-0.699-0.443-1.227-0.443H206.352z M206.352,88.338
		h1.846c0.601,0,1.048-0.127,1.344-0.38c0.295-0.255,0.443-0.631,0.443-1.129c0-0.488-0.148-0.877-0.443-1.164
		c-0.295-0.289-0.731-0.433-1.307-0.433h-1.882V88.338z"/>
	<path d="M219.85,91.948h-3.743l-0.725,2.301h-2.161l3.669-10.663h2.19l3.655,10.663h-2.161L219.85,91.948z M216.635,90.272h2.688
		l-1.318-4.19h-0.044L216.635,90.272z"/>
	<path d="M231.781,90.616l0.015,0.043c0.02,1.147-0.331,2.059-1.051,2.732s-1.72,1.011-2.999,1.011
		c-1.284,0-2.327-0.412-3.127-1.237s-1.201-1.888-1.201-3.186v-2.117c0-1.294,0.391-2.356,1.172-3.186
		c0.781-0.829,1.797-1.245,3.047-1.245c1.318,0,2.349,0.339,3.091,1.013c0.742,0.677,1.104,1.599,1.084,2.765l-0.015,0.044h-2.08
		c0-0.703-0.168-1.241-0.505-1.614c-0.337-0.375-0.862-0.561-1.575-0.561c-0.64,0-1.147,0.26-1.523,0.779s-0.564,1.182-0.564,1.986
		v2.129c0,0.814,0.198,1.482,0.593,2.002s0.93,0.779,1.604,0.779c0.669,0,1.163-0.18,1.483-0.539c0.319-0.358,0.479-0.893,0.479-1.6
		H231.781z"/>
	<path d="M240.438,85.232h-3.018v9.017h-2.139v-9.017h-3.003v-1.646h8.159V85.232z"/>
	<path d="M243.902,94.249h-2.138V83.586h2.138V94.249z"/>
	<path d="M254.61,89.876c0,1.309-0.413,2.391-1.241,3.244c-0.827,0.855-1.903,1.282-3.226,1.282c-1.314,0-2.381-0.427-3.201-1.282
		c-0.82-0.854-1.23-1.936-1.23-3.244v-1.918c0-1.305,0.409-2.385,1.227-3.242c0.818-0.857,1.884-1.285,3.197-1.285
		c1.323,0,2.399,0.428,3.23,1.285c0.829,0.857,1.244,1.937,1.244,3.242V89.876z M252.472,87.948c0-0.832-0.207-1.514-0.622-2.047
		c-0.415-0.534-0.986-0.801-1.714-0.801s-1.292,0.266-1.691,0.797c-0.401,0.53-0.602,1.215-0.602,2.051v1.938
		c0,0.846,0.203,1.535,0.608,2.069c0.405,0.532,0.969,0.8,1.692,0.8c0.732,0,1.303-0.268,1.713-0.8
		c0.41-0.534,0.615-1.224,0.615-2.069V87.948z"/>
	<path d="M264.902,94.249h-2.132l-4.307-7.287l-0.044,0.007v7.28h-2.139V83.586h2.139l4.307,7.278l0.044-0.007v-7.271h2.132V94.249z
		"/>
	<path d="M180.592,107.876c0,1.309-0.414,2.391-1.242,3.244c-0.827,0.855-1.903,1.282-3.226,1.282c-1.313,0-2.38-0.427-3.201-1.282
		c-0.82-0.854-1.23-1.936-1.23-3.244v-1.918c0-1.305,0.409-2.385,1.227-3.242s1.884-1.285,3.197-1.285c1.323,0,2.4,0.428,3.23,1.285
		s1.245,1.938,1.245,3.242V107.876z M178.454,105.948c0-0.832-0.208-1.514-0.623-2.047c-0.415-0.534-0.986-0.801-1.714-0.801
		s-1.292,0.266-1.692,0.797c-0.4,0.53-0.601,1.215-0.601,2.051v1.938c0,0.846,0.203,1.535,0.608,2.069
		c0.405,0.532,0.969,0.8,1.692,0.8c0.732,0,1.304-0.268,1.714-0.8c0.41-0.534,0.615-1.224,0.615-2.069V105.948z"/>
	<path d="M188.869,107.817h-4.468v4.432h-2.139v-10.664h7.354v1.647h-5.215v2.937h4.468V107.817z"/>
	<path d="M197.526,107.817h-4.468v4.432h-2.139v-10.664h7.354v1.647h-5.215v2.937h4.468V107.817z"/>
	<path d="M206.132,107.562h-4.417v3.039h5.164v1.648h-7.302v-10.664h7.288v1.647h-5.149v2.681h4.417V107.562z"/>
	<path d="M210.329,107.985v4.264h-2.139v-10.664h4.021c1.216,0,2.167,0.277,2.853,0.83c0.686,0.555,1.029,1.328,1.029,2.319
		c0,0.552-0.144,1.026-0.432,1.421s-0.71,0.715-1.267,0.959c0.63,0.186,1.083,0.495,1.359,0.93c0.275,0.436,0.414,0.973,0.414,1.612
		v0.784c0,0.297,0.041,0.607,0.121,0.934c0.081,0.324,0.219,0.565,0.414,0.721v0.154h-2.205c-0.195-0.156-0.322-0.418-0.381-0.784
		s-0.088-0.713-0.088-1.04v-0.754c0-0.533-0.146-0.947-0.436-1.242s-0.699-0.443-1.227-0.443H210.329z M210.329,106.338h1.846
		c0.601,0,1.048-0.127,1.344-0.38c0.295-0.255,0.443-0.631,0.443-1.129c0-0.488-0.148-0.877-0.443-1.164
		c-0.295-0.289-0.731-0.433-1.307-0.433h-1.882V106.338z"/>
	<path d="M224.662,107.562h-4.417v3.039h5.164v1.648h-7.302v-10.664h7.288v1.647h-5.149v2.681h4.417V107.562z"/>
	<path d="M226.72,112.249v-10.664h3.662c1.304,0,2.378,0.416,3.223,1.248s1.267,1.901,1.267,3.205v1.765
		c0,1.31-0.422,2.376-1.267,3.205c-0.845,0.827-1.919,1.241-3.223,1.241H226.72z M228.859,103.232v7.368h1.414
		c0.767,0,1.367-0.258,1.802-0.775s0.652-1.193,0.652-2.027v-1.777c0-0.824-0.217-1.495-0.652-2.012
		c-0.435-0.518-1.035-0.776-1.802-0.776H228.859z"/>
	<path d="M172.016,130.249v-10.664h3.604c1.255,0,2.234,0.244,2.937,0.732s1.055,1.218,1.055,2.189c0,0.493-0.131,0.935-0.392,1.322
		c-0.261,0.389-0.641,0.68-1.139,0.875c0.64,0.137,1.119,0.43,1.439,0.879c0.319,0.449,0.479,0.97,0.479,1.561
		c0,1.02-0.337,1.793-1.011,2.318c-0.674,0.523-1.628,0.787-2.864,0.787H172.016z M174.154,124.053h1.538
		c0.571,0,1.011-0.118,1.318-0.352c0.308-0.235,0.461-0.577,0.461-1.025c0-0.493-0.155-0.857-0.465-1.092s-0.772-0.352-1.388-0.352
		h-1.465V124.053z M174.154,125.532v3.068h1.97c0.566,0,0.999-0.123,1.296-0.369s0.447-0.609,0.447-1.092
		c0-0.521-0.127-0.919-0.381-1.195c-0.254-0.275-0.654-0.412-1.201-0.412H174.154z"/>
	<path d="M184.401,124.499h0.044l2.329-4.914h2.344l-3.662,6.914v3.75h-2.131v-3.859l-3.596-6.805h2.344L184.401,124.499z"/>
	<path d="M202.462,125.876c0,1.309-0.414,2.391-1.242,3.244c-0.827,0.855-1.903,1.282-3.226,1.282c-1.313,0-2.38-0.427-3.201-1.282
		c-0.82-0.854-1.23-1.936-1.23-3.244v-1.918c0-1.305,0.409-2.385,1.227-3.242s1.884-1.285,3.197-1.285c1.323,0,2.4,0.428,3.23,1.285
		s1.245,1.938,1.245,3.242V125.876z M200.324,123.948c0-0.832-0.208-1.514-0.623-2.047c-0.415-0.534-0.986-0.801-1.714-0.801
		s-1.292,0.266-1.692,0.797c-0.4,0.53-0.601,1.215-0.601,2.051v1.938c0,0.846,0.203,1.535,0.608,2.069
		c0.405,0.532,0.969,0.8,1.692,0.8c0.732,0,1.304-0.268,1.714-0.8c0.41-0.534,0.615-1.224,0.615-2.069V123.948z"/>
	<path d="M212.753,130.249h-2.131l-4.307-7.287l-0.044,0.007v7.28h-2.139v-10.664h2.139l4.307,7.279l0.044-0.007v-7.272h2.131
		V130.249z"/>
	<path d="M216.891,128.601h4.746v1.648h-6.885v-10.664h2.139V128.601z"/>
	<path d="M225.138,130.249H223v-10.664h2.139V130.249z"/>
	<path d="M235.89,130.249h-2.131l-4.307-7.287l-0.044,0.007v7.28h-2.139v-10.664h2.139l4.307,7.279l0.044-0.007v-7.272h2.131
		V130.249z"/>
	<path d="M244.444,125.562h-4.416v3.039h5.164v1.648h-7.303v-10.664h7.287v1.647h-5.148v2.681h4.416V125.562z"/>
	<path d="M252.377,126.382v3.867h-2.139v-10.664h4.248c1.226,0,2.189,0.313,2.893,0.938s1.055,1.447,1.055,2.468
		s-0.352,1.841-1.055,2.461s-1.667,0.931-2.893,0.931H252.377z M252.377,124.733h2.109c0.596,0,1.047-0.162,1.355-0.486
		c0.307-0.326,0.461-0.739,0.461-1.241c0-0.513-0.152-0.938-0.458-1.271c-0.305-0.335-0.758-0.502-1.358-0.502h-2.109V124.733z"/>
	<path d="M264.499,127.948h-3.743l-0.726,2.301h-2.16l3.67-10.664h2.189l3.654,10.664h-2.16L264.499,127.948z M261.283,126.272
		h2.688l-1.318-4.19h-0.045L261.283,126.272z"/>
	<path d="M179.384,139.232h-3.018v9.017h-2.139v-9.017h-3.003v-1.647h8.159V139.232z"/>
	<path d="M188.913,143.876c0,1.309-0.414,2.391-1.242,3.244c-0.827,0.855-1.903,1.282-3.226,1.282c-1.313,0-2.38-0.427-3.201-1.282
		c-0.82-0.854-1.23-1.936-1.23-3.244v-1.918c0-1.305,0.409-2.385,1.227-3.242s1.884-1.285,3.197-1.285c1.323,0,2.4,0.428,3.23,1.285
		s1.245,1.938,1.245,3.242V143.876z M186.774,141.948c0-0.832-0.208-1.514-0.623-2.047c-0.415-0.534-0.986-0.801-1.714-0.801
		s-1.292,0.266-1.692,0.797c-0.4,0.53-0.601,1.215-0.601,2.051v1.938c0,0.846,0.203,1.535,0.608,2.069
		c0.405,0.532,0.969,0.8,1.692,0.8c0.732,0,1.304-0.268,1.714-0.8c0.41-0.534,0.615-1.224,0.615-2.069V141.948z"/>
	<path d="M202.367,144.616l0.015,0.043c0.02,1.148-0.331,2.059-1.051,2.732s-1.72,1.011-2.999,1.011
		c-1.284,0-2.327-0.412-3.127-1.237s-1.201-1.888-1.201-3.186v-2.117c0-1.294,0.391-2.356,1.172-3.187
		c0.781-0.829,1.797-1.245,3.047-1.245c1.318,0,2.349,0.339,3.091,1.014c0.742,0.678,1.104,1.6,1.084,2.766l-0.015,0.044h-2.08
		c0-0.703-0.168-1.241-0.505-1.614c-0.337-0.375-0.862-0.561-1.575-0.561c-0.64,0-1.147,0.26-1.523,0.779s-0.564,1.182-0.564,1.986
		v2.129c0,0.814,0.198,1.482,0.593,2.002s0.93,0.779,1.604,0.779c0.669,0,1.163-0.18,1.483-0.539c0.319-0.358,0.479-0.893,0.479-1.6
		H202.367z"/>
	<path d="M206.176,148.249h-2.139v-10.664h2.139V148.249z"/>
	<path d="M215.675,139.232h-3.018v9.017h-2.139v-9.017h-3.003v-1.647h8.159V139.232z"/>
	<path d="M219.14,148.249h-2.139v-10.664h2.139V148.249z"/>
	<path d="M223.424,146.601h5.215v1.648h-7.8v-1.119l5.068-7.897h-5.061v-1.647h7.668v1.068L223.424,146.601z"/>
	<path d="M236.659,143.562h-4.417v3.039h5.164v1.648h-7.302v-10.664h7.288v1.647h-5.149v2.681h4.417V143.562z"/>
	<path d="M247.338,148.249h-2.131l-4.307-7.287l-0.044,0.007v7.28h-2.139v-10.664h2.139l4.306,7.279l0.045-0.007v-7.272h2.131
		V148.249z"/>
	<path d="M255.095,145.466c0-0.41-0.146-0.74-0.436-0.988c-0.291-0.25-0.8-0.484-1.527-0.704c-1.27-0.366-2.229-0.801-2.878-1.304
		c-0.65-0.503-0.975-1.191-0.975-2.065s0.372-1.589,1.117-2.142c0.744-0.555,1.695-0.832,2.853-0.832
		c1.172,0,2.126,0.312,2.864,0.934c0.736,0.623,1.093,1.391,1.068,2.304l-0.014,0.044h-2.073c0-0.493-0.165-0.893-0.494-1.197
		c-0.33-0.305-0.793-0.458-1.388-0.458c-0.572,0-1.014,0.127-1.326,0.381c-0.313,0.255-0.469,0.579-0.469,0.974
		c0,0.362,0.167,0.658,0.502,0.891c0.334,0.232,0.912,0.477,1.732,0.736c1.176,0.326,2.067,0.76,2.673,1.296
		c0.605,0.537,0.908,1.243,0.908,2.117c0,0.913-0.36,1.633-1.08,2.161c-0.721,0.527-1.672,0.79-2.853,0.79
		c-1.163,0-2.176-0.3-3.04-0.896c-0.864-0.599-1.284-1.438-1.26-2.517l0.015-0.044h2.08c0,0.635,0.194,1.101,0.582,1.396
		c0.389,0.296,0.929,0.443,1.623,0.443c0.58,0,1.025-0.12,1.332-0.359C254.941,146.186,255.095,145.866,255.095,145.466z"/>
	<rect x="282.365" y="83.601" width="2" height="64.672"/>
</g>
</svg>
