<?xml version="1.0" encoding="utf-8"?>
<!-- Generator: Adobe Illustrator 16.0.0, SVG Export Plug-In . SVG Version: 6.00 Build 0)  -->
<!DOCTYPE svg PUBLIC "-//W3C//DTD SVG 1.1//EN" "http://www.w3.org/Graphics/SVG/1.1/DTD/svg11.dtd">
<svg version="1.1" id="Layer_1" xmlns="http://www.w3.org/2000/svg" xmlns:xlink="http://www.w3.org/1999/xlink" x="0px" y="0px"
	 width="1003px" height="58px" viewBox="0 0 1003 58" enable-background="new 0 0 1003 58" xml:space="preserve">
<path fill="#1A171B" d="M27.028,13.457h-0.581v-3.271h-4.043v3.271h-0.581V6.348h0.581v3.34h4.043v-3.34h0.581V13.457z"/>
<path fill="#1A171B" d="M34.083,10.483c0,0.919-0.251,1.66-0.754,2.227s-1.178,0.85-2.024,0.85c-0.833,0-1.498-0.283-1.995-0.85
	s-0.745-1.308-0.745-2.227V9.327c0-0.916,0.248-1.657,0.742-2.228c0.495-0.57,1.159-0.854,1.992-0.854
	c0.846,0,1.522,0.285,2.026,0.854c0.504,0.57,0.757,1.312,0.757,2.228V10.483z M33.502,9.32c0-0.77-0.194-1.389-0.583-1.858
	C32.53,6.993,31.99,6.758,31.3,6.758c-0.677,0-1.205,0.235-1.582,0.704c-0.377,0.47-0.566,1.089-0.566,1.858v1.169
	c0,0.776,0.189,1.398,0.569,1.869c0.379,0.469,0.907,0.704,1.584,0.704c0.693,0,1.233-0.234,1.619-0.701
	c0.386-0.468,0.579-1.091,0.579-1.871V9.32z"/>
<path fill="#1A171B" d="M37.511,12.256l0.142,0.473h0.029l0.142-0.473l2.134-5.909h0.635l-2.651,7.109h-0.552l-2.651-7.109h0.635
	L37.511,12.256z"/>
<path fill="#1A171B" d="M45.685,10.015h-3.423v2.944h3.921v0.498h-4.502V6.348h4.478v0.498h-3.896v2.671h3.423V10.015z"/>
<path fill="#1A171B" d="M48.009,10.244v3.212h-0.581V6.353h2.407c0.762,0,1.346,0.167,1.753,0.5c0.407,0.334,0.61,0.822,0.61,1.463
	c0,0.377-0.109,0.715-0.327,1.014c-0.218,0.297-0.526,0.515-0.923,0.651c0.439,0.111,0.756,0.309,0.95,0.593
	c0.194,0.285,0.291,0.643,0.291,1.072v0.669c0,0.221,0.026,0.42,0.078,0.596c0.052,0.175,0.138,0.318,0.259,0.43v0.116H51.93
	c-0.121-0.116-0.205-0.281-0.254-0.492c-0.049-0.212-0.073-0.432-0.073-0.66v-0.649c0-0.436-0.141-0.78-0.422-1.033
	s-0.675-0.378-1.179-0.378H48.009z M48.009,9.746h1.753c0.641,0,1.11-0.129,1.406-0.388s0.444-0.608,0.444-1.047
	c0-0.469-0.147-0.829-0.442-1.082c-0.294-0.251-0.74-0.378-1.335-0.378h-1.826V9.746z"/>
<path fill="#1A171B" d="M61.647,10.483c0,0.919-0.251,1.66-0.754,2.227s-1.178,0.85-2.024,0.85c-0.833,0-1.498-0.283-1.995-0.85
	s-0.745-1.308-0.745-2.227V9.327c0-0.916,0.248-1.657,0.742-2.228c0.495-0.57,1.159-0.854,1.992-0.854
	c0.846,0,1.522,0.285,2.026,0.854c0.504,0.57,0.757,1.312,0.757,2.228V10.483z M61.066,9.32c0-0.77-0.194-1.389-0.583-1.858
	c-0.389-0.469-0.929-0.704-1.619-0.704c-0.677,0-1.205,0.235-1.582,0.704c-0.377,0.47-0.566,1.089-0.566,1.858v1.169
	c0,0.776,0.189,1.398,0.569,1.869c0.379,0.469,0.907,0.704,1.584,0.704c0.693,0,1.233-0.234,1.619-0.701
	c0.386-0.468,0.579-1.091,0.579-1.871V9.32z"/>
<path fill="#1A171B" d="M65.075,12.256l0.142,0.473h0.029l0.142-0.473l2.134-5.909h0.635l-2.651,7.109h-0.552l-2.651-7.109h0.635
	L65.075,12.256z"/>
<path fill="#1A171B" d="M73.249,10.015h-3.423v2.944h3.921v0.498h-4.502V6.348h4.478v0.498h-3.896v2.671h3.423V10.015z"/>
<path fill="#1A171B" d="M75.573,10.244v3.212h-0.581V6.353h2.407c0.762,0,1.346,0.167,1.753,0.5c0.407,0.334,0.61,0.822,0.61,1.463
	c0,0.377-0.109,0.715-0.327,1.014c-0.218,0.297-0.526,0.515-0.923,0.651c0.439,0.111,0.756,0.309,0.95,0.593
	c0.194,0.285,0.291,0.643,0.291,1.072v0.669c0,0.221,0.026,0.42,0.078,0.596c0.052,0.175,0.138,0.318,0.259,0.43v0.116h-0.596
	c-0.121-0.116-0.205-0.281-0.254-0.492c-0.049-0.212-0.073-0.432-0.073-0.66v-0.649c0-0.436-0.141-0.78-0.422-1.033
	s-0.675-0.378-1.179-0.378H75.573z M75.573,9.746h1.753c0.641,0,1.11-0.129,1.406-0.388s0.444-0.608,0.444-1.047
	c0-0.469-0.147-0.829-0.442-1.082c-0.294-0.251-0.74-0.378-1.335-0.378h-1.826V9.746z"/>
<path fill="#1A171B" d="M88.786,6.846h-2.446v6.611h-0.586V6.846h-2.446V6.348h5.479V6.846z"/>
<path fill="#1A171B" d="M95.148,13.457h-0.581v-3.271h-4.043v3.271h-0.581V6.348h0.581v3.34h4.043v-3.34h0.581V13.457z"/>
<path fill="#1A171B" d="M101.017,10.015h-3.423v2.944h3.921v0.498h-4.502V6.348h4.478v0.498h-3.896v2.671h3.423V10.015z"/>
<path fill="#1A171B" d="M105.773,10.244v3.212h-0.581V6.353h2.407c0.762,0,1.346,0.167,1.753,0.5c0.407,0.334,0.61,0.822,0.61,1.463
	c0,0.377-0.109,0.715-0.327,1.014c-0.218,0.297-0.526,0.515-0.923,0.651c0.439,0.111,0.756,0.309,0.95,0.593
	c0.194,0.285,0.291,0.643,0.291,1.072v0.669c0,0.221,0.026,0.42,0.078,0.596c0.052,0.175,0.138,0.318,0.259,0.43v0.116h-0.596
	c-0.121-0.116-0.205-0.281-0.254-0.492c-0.049-0.212-0.073-0.432-0.073-0.66v-0.649c0-0.436-0.141-0.78-0.422-1.033
	s-0.675-0.378-1.179-0.378H105.773z M105.773,9.746h1.753c0.641,0,1.11-0.129,1.406-0.388s0.444-0.608,0.444-1.047
	c0-0.469-0.147-0.829-0.442-1.082c-0.294-0.251-0.74-0.378-1.335-0.378h-1.826V9.746z"/>
<g>
	<path d="M10.805,35.535H9.943V25.083h0.861V35.535z"/>
	<path d="M21.428,35.535h-0.854l-5.936-8.988l-0.043,0.007v8.98h-0.861V25.083h0.861l5.936,8.973l0.043-0.007v-8.966h0.854V35.535z"
		/>
	<path d="M30.967,25.815h-3.596v9.72H26.51v-9.72h-3.596v-0.733h8.053V25.815z"/>
	<path d="M38.554,30.474h-5.032v4.328h5.764v0.733h-6.618V25.083h6.582v0.733h-5.728v3.926h5.032V30.474z"/>
	<path d="M41.971,30.811v4.725h-0.854V25.09h3.539c1.12,0,1.979,0.246,2.577,0.736c0.598,0.49,0.897,1.207,0.897,2.149
		c0,0.556-0.161,1.052-0.481,1.489c-0.321,0.438-0.773,0.758-1.357,0.959c0.646,0.162,1.111,0.453,1.396,0.871
		c0.285,0.42,0.427,0.944,0.427,1.576v0.983c0,0.325,0.038,0.617,0.115,0.876c0.077,0.258,0.204,0.469,0.38,0.631v0.174h-0.875
		c-0.177-0.174-0.301-0.415-0.373-0.726c-0.072-0.312-0.108-0.635-0.108-0.97v-0.955c0-0.641-0.207-1.146-0.621-1.518
		c-0.414-0.37-0.992-0.557-1.734-0.557H41.971z M41.971,30.079h2.577c0.943,0,1.632-0.19,2.067-0.571
		c0.435-0.38,0.653-0.894,0.653-1.54c0-0.689-0.217-1.219-0.65-1.59s-1.087-0.556-1.963-0.556h-2.685V30.079z"/>
	<path d="M56.427,32.62h-4.788l-1.077,2.915h-0.89l3.97-10.453h0.811l3.94,10.453h-0.89L56.427,32.62z M51.926,31.852h4.221
		l-2.082-5.655h-0.043L51.926,31.852z"/>
	<path d="M67.114,32.268l0.014,0.043c-0.091,1.049-0.464,1.873-1.12,2.474s-1.534,0.901-2.634,0.901
		c-1.163,0-2.101-0.42-2.813-1.261c-0.713-0.84-1.07-1.927-1.07-3.263v-1.7c0-1.331,0.356-2.418,1.07-3.263
		c0.713-0.845,1.651-1.266,2.813-1.266c1.11,0,1.991,0.293,2.642,0.882c0.65,0.589,1.021,1.416,1.112,2.483l-0.014,0.043H66.31
		c-0.115-0.866-0.413-1.529-0.894-1.988c-0.481-0.459-1.162-0.688-2.042-0.688c-0.914,0-1.647,0.354-2.2,1.061
		c-0.553,0.708-0.829,1.614-0.829,2.718v1.714c0,1.119,0.276,2.031,0.829,2.736c0.552,0.705,1.286,1.059,2.2,1.059
		c0.88,0,1.563-0.225,2.046-0.674c0.483-0.447,0.78-1.118,0.89-2.012H67.114z"/>
	<path d="M76.137,25.815h-3.596v9.72h-0.861v-9.72h-3.596v-0.733h8.053V25.815z"/>
	<path d="M78.886,35.535h-0.861V25.083h0.861V35.535z"/>
	<path d="M89.444,31.162c0,1.35-0.37,2.44-1.109,3.273c-0.739,0.834-1.731,1.25-2.975,1.25c-1.225,0-2.203-0.416-2.932-1.25
		c-0.73-0.833-1.095-1.924-1.095-3.273v-1.7c0-1.345,0.363-2.436,1.091-3.273c0.728-0.837,1.704-1.255,2.929-1.255
		c1.244,0,2.237,0.418,2.979,1.255c0.742,0.838,1.113,1.929,1.113,3.273V31.162z M88.59,29.453c0-1.13-0.286-2.042-0.857-2.731
		c-0.572-0.69-1.365-1.036-2.379-1.036c-0.996,0-1.771,0.346-2.326,1.036c-0.555,0.69-0.833,1.601-0.833,2.731v1.718
		c0,1.141,0.279,2.057,0.836,2.747c0.558,0.689,1.334,1.035,2.33,1.035c1.019,0,1.812-0.345,2.379-1.032
		c0.567-0.687,0.85-1.604,0.85-2.75V29.453z"/>
	<path d="M99.4,35.535h-0.854l-5.936-8.988l-0.043,0.007v8.98h-0.861V25.083h0.861l5.936,8.973l0.043-0.007v-8.966H99.4V35.535z"/>
	<path d="M105.717,35.535V25.083h3.05c1.086,0,1.932,0.229,2.538,0.686c0.605,0.458,0.908,1.146,0.908,2.065
		c0,0.536-0.152,1.003-0.456,1.4c-0.304,0.398-0.717,0.673-1.238,0.826c0.636,0.114,1.153,0.413,1.55,0.896
		c0.397,0.482,0.596,1.041,0.596,1.672c0,0.932-0.303,1.649-0.908,2.152c-0.605,0.502-1.416,0.754-2.43,0.754H105.717z
		 M106.571,29.771h2.405c0.756,0,1.341-0.167,1.755-0.499c0.414-0.333,0.621-0.822,0.621-1.468c0-0.66-0.22-1.157-0.66-1.489
		c-0.44-0.333-1.082-0.499-1.924-0.499h-2.196V29.771z M106.571,30.502v4.3h2.756c0.771,0,1.375-0.189,1.816-0.567
		c0.44-0.381,0.66-0.911,0.66-1.593c0-0.624-0.2-1.138-0.599-1.538c-0.4-0.4-0.98-0.602-1.741-0.602H106.571z"/>
	<path d="M120.711,30.474h-5.032v4.328h5.764v0.733h-6.618V25.083h6.582v0.733h-5.728v3.926h5.032V30.474z"/>
	<path d="M130.444,25.815h-3.596v9.72h-0.861v-9.72h-3.596v-0.733h8.053V25.815z"/>
	<path d="M134.076,32.577l0.315,1.601l0.043,0.008l0.395-1.608l2.211-7.495h0.811l2.21,7.495l0.38,1.614l0.043-0.006l0.337-1.608
		l1.888-7.495h0.875l-2.685,10.453h-0.811l-2.347-8.018l-0.272-1.099h-0.043l-0.266,1.099l-2.368,8.018h-0.818l-2.685-10.453h0.883
		L134.076,32.577z"/>
	<path d="M151.302,30.474h-5.032v4.328h5.764v0.733h-6.618V25.083h6.582v0.733h-5.728v3.926h5.032V30.474z"/>
	<path d="M159.772,30.474h-5.032v4.328h5.764v0.733h-6.618V25.083h6.582v0.733h-5.728v3.926h5.032V30.474z"/>
	<path d="M170.05,35.535h-0.854l-5.936-8.988l-0.043,0.007v8.98h-0.861V25.083h0.861l5.936,8.973l0.043-0.007v-8.966h0.854V35.535z"
		/>
	<path d="M177.415,35.535h-0.861V25.083h0.861V35.535z"/>
	<path d="M188.038,35.535h-0.854l-5.936-8.988l-0.043,0.007v8.98h-0.861V25.083h0.861l5.936,8.973l0.043-0.007v-8.966h0.854V35.535z
		"/>
	<path d="M197.578,25.815h-3.596v9.72h-0.861v-9.72h-3.596v-0.733h8.053V25.815z"/>
	<path d="M205.165,30.474h-5.032v4.328h5.764v0.733h-6.618V25.083h6.582v0.733h-5.728v3.926h5.032V30.474z"/>
	<path d="M208.581,30.811v4.725h-0.854V25.09h3.539c1.12,0,1.979,0.246,2.577,0.736c0.598,0.49,0.897,1.207,0.897,2.149
		c0,0.556-0.161,1.052-0.481,1.489c-0.321,0.438-0.773,0.758-1.357,0.959c0.646,0.162,1.111,0.453,1.396,0.871
		c0.285,0.42,0.427,0.944,0.427,1.576v0.983c0,0.325,0.038,0.617,0.115,0.876c0.077,0.258,0.204,0.469,0.38,0.631v0.174h-0.875
		c-0.177-0.174-0.301-0.415-0.373-0.726c-0.072-0.312-0.108-0.635-0.108-0.97v-0.955c0-0.641-0.207-1.146-0.621-1.518
		c-0.414-0.37-0.992-0.557-1.734-0.557H208.581z M208.581,30.079h2.577c0.943,0,1.632-0.19,2.067-0.571
		c0.435-0.38,0.653-0.894,0.653-1.54c0-0.689-0.217-1.219-0.65-1.59s-1.087-0.556-1.963-0.556h-2.685V30.079z"/>
	<path d="M225.119,35.535h-0.854l-5.936-8.988l-0.043,0.007v8.98h-0.861V25.083h0.861l5.936,8.973l0.043-0.007v-8.966h0.854V35.535z
		"/>
	<path d="M233.747,30.474h-5.032v4.328h5.764v0.733h-6.618V25.083h6.582v0.733h-5.728v3.926h5.032V30.474z"/>
	<path d="M243.479,25.815h-3.596v9.72h-0.861v-9.72h-3.596v-0.733h8.053V25.815z"/>
	<path d="M256.062,25.083v7.085c0,1.139-0.348,2.01-1.044,2.613c-0.696,0.602-1.604,0.904-2.724,0.904c-1.105,0-2-0.304-2.685-0.909
		c-0.685-0.604-1.026-1.475-1.026-2.608v-7.085h0.861v7.08c0,0.891,0.263,1.577,0.79,2.063s1.213,0.729,2.06,0.729
		c0.861,0,1.562-0.242,2.103-0.726c0.541-0.482,0.811-1.171,0.811-2.065v-7.08H256.062z"/>
	<path d="M264.597,32.969c0-0.569-0.213-1.034-0.639-1.395c-0.426-0.361-1.167-0.68-2.225-0.957c-1.144-0.287-2.01-0.661-2.599-1.12
		c-0.588-0.459-0.883-1.079-0.883-1.858c0-0.8,0.329-1.451,0.987-1.954c0.658-0.502,1.504-0.752,2.538-0.752
		c1.077,0,1.945,0.298,2.605,0.896c0.66,0.598,0.981,1.328,0.962,2.189l-0.021,0.043h-0.79c0-0.698-0.248-1.272-0.743-1.722
		c-0.495-0.45-1.167-0.674-2.013-0.674c-0.837,0-1.492,0.187-1.963,0.56c-0.471,0.373-0.707,0.836-0.707,1.392
		c0,0.526,0.218,0.964,0.653,1.317c0.436,0.352,1.187,0.662,2.254,0.929c1.125,0.287,1.979,0.675,2.566,1.163
		c0.586,0.488,0.879,1.132,0.879,1.931c0,0.833-0.341,1.496-1.023,1.988c-0.682,0.493-1.552,0.74-2.609,0.74
		c-1.043,0-1.954-0.263-2.731-0.787c-0.777-0.523-1.154-1.288-1.13-2.293l0.014-0.043h0.79c0,0.811,0.304,1.412,0.912,1.803
		c0.608,0.392,1.323,0.588,2.146,0.588c0.828,0,1.497-0.182,2.006-0.545C264.342,34.045,264.597,33.564,264.597,32.969z"/>
	<path d="M273.339,30.474h-5.032v4.328h5.764v0.733h-6.618V25.083h6.582v0.733h-5.728v3.926h5.032V30.474z"/>
	<path d="M276.756,30.811v4.725h-0.854V25.09h3.539c1.12,0,1.979,0.246,2.577,0.736c0.598,0.49,0.897,1.207,0.897,2.149
		c0,0.556-0.161,1.052-0.481,1.489c-0.321,0.438-0.773,0.758-1.357,0.959c0.646,0.162,1.111,0.453,1.396,0.871
		c0.285,0.42,0.427,0.944,0.427,1.576v0.983c0,0.325,0.038,0.617,0.115,0.876c0.077,0.258,0.204,0.469,0.38,0.631v0.174h-0.875
		c-0.177-0.174-0.301-0.415-0.373-0.726c-0.072-0.312-0.108-0.635-0.108-0.97v-0.955c0-0.641-0.207-1.146-0.621-1.518
		c-0.414-0.37-0.992-0.557-1.734-0.557H276.756z M276.756,30.079h2.577c0.943,0,1.632-0.19,2.067-0.571
		c0.435-0.38,0.653-0.894,0.653-1.54c0-0.689-0.217-1.219-0.65-1.59s-1.087-0.556-1.963-0.556h-2.685V30.079z"/>
	<path d="M291.578,32.969c0-0.569-0.213-1.034-0.639-1.395c-0.426-0.361-1.167-0.68-2.225-0.957c-1.144-0.287-2.01-0.661-2.599-1.12
		c-0.588-0.459-0.883-1.079-0.883-1.858c0-0.8,0.329-1.451,0.987-1.954c0.658-0.502,1.504-0.752,2.538-0.752
		c1.077,0,1.945,0.298,2.605,0.896c0.66,0.598,0.981,1.328,0.962,2.189l-0.021,0.043h-0.79c0-0.698-0.248-1.272-0.743-1.722
		c-0.495-0.45-1.167-0.674-2.013-0.674c-0.837,0-1.492,0.187-1.963,0.56c-0.471,0.373-0.707,0.836-0.707,1.392
		c0,0.526,0.218,0.964,0.653,1.317c0.436,0.352,1.187,0.662,2.254,0.929c1.125,0.287,1.979,0.675,2.566,1.163
		c0.586,0.488,0.879,1.132,0.879,1.931c0,0.833-0.341,1.496-1.023,1.988c-0.682,0.493-1.552,0.74-2.609,0.74
		c-1.043,0-1.954-0.263-2.731-0.787c-0.777-0.523-1.154-1.288-1.13-2.293l0.014-0.043h0.79c0,0.811,0.304,1.412,0.912,1.803
		c0.608,0.392,1.323,0.588,2.146,0.588c0.828,0,1.497-0.182,2.006-0.545C291.323,34.045,291.578,33.564,291.578,32.969z"/>
	<path d="M303.623,32.62h-4.788l-1.077,2.915h-0.89l3.97-10.453h0.811l3.94,10.453h-0.89L303.623,32.62z M299.122,31.852h4.221
		l-2.082-5.655h-0.043L299.122,31.852z"/>
	<path d="M314.884,35.535h-0.854l-5.936-8.988l-0.043,0.007v8.98h-0.861V25.083h0.861l5.936,8.973l0.043-0.007v-8.966h0.854V35.535z
		"/>
	<path d="M317.626,35.535V25.083h3.036c1.277,0,2.333,0.426,3.165,1.278c0.833,0.852,1.249,1.945,1.249,3.28v1.342
		c0,1.34-0.416,2.433-1.249,3.28c-0.833,0.847-1.888,1.271-3.165,1.271H317.626z M318.48,25.815v8.986h2.182
		c1.034,0,1.884-0.36,2.552-1.083c0.667-0.721,1.001-1.635,1.001-2.74v-1.362c0-1.09-0.335-1.996-1.005-2.718
		s-1.519-1.083-2.548-1.083H318.48z"/>
	<path d="M338.478,31.162c0,1.35-0.37,2.44-1.109,3.273c-0.739,0.834-1.731,1.25-2.975,1.25c-1.225,0-2.203-0.416-2.932-1.25
		c-0.73-0.833-1.095-1.924-1.095-3.273v-1.7c0-1.345,0.363-2.436,1.091-3.273c0.728-0.837,1.704-1.255,2.929-1.255
		c1.244,0,2.237,0.418,2.979,1.255c0.742,0.838,1.113,1.929,1.113,3.273V31.162z M337.624,29.453c0-1.13-0.286-2.042-0.857-2.731
		c-0.572-0.69-1.365-1.036-2.379-1.036c-0.996,0-1.771,0.346-2.326,1.036c-0.555,0.69-0.833,1.601-0.833,2.731v1.718
		c0,1.141,0.279,2.057,0.836,2.747c0.558,0.689,1.334,1.035,2.33,1.035c1.019,0,1.812-0.345,2.379-1.032
		c0.567-0.687,0.85-1.604,0.85-2.75V29.453z"/>
	<path d="M348.434,35.535h-0.854l-5.936-8.988l-0.043,0.007v8.98h-0.861V25.083h0.861l5.936,8.973l0.043-0.007v-8.966h0.854V35.535z
		"/>
	<path d="M352.037,34.802h5.168v0.733h-6.029V25.083h0.861V34.802z"/>
	<path d="M359.968,35.535h-0.861V25.083h0.861V35.535z"/>
	<path d="M370.591,35.535h-0.854l-5.936-8.988l-0.043,0.007v8.98h-0.861V25.083h0.861l5.936,8.973l0.043-0.007v-8.966h0.854V35.535z
		"/>
	<path d="M379.219,30.474h-5.032v4.328h5.764v0.733h-6.618V25.083h6.582v0.733h-5.728v3.926h5.032V30.474z"/>
	<path d="M386.232,31.191v4.344h-0.854V25.083h3.596c1.096,0,1.944,0.28,2.545,0.837c0.6,0.558,0.9,1.295,0.9,2.214
		c0,0.928-0.3,1.67-0.9,2.226c-0.601,0.555-1.449,0.832-2.545,0.832H386.232z M386.232,30.459h2.742
		c0.861,0,1.509-0.219,1.942-0.656c0.433-0.438,0.649-0.989,0.649-1.655c0-0.669-0.215-1.226-0.646-1.668
		c-0.431-0.442-1.079-0.664-1.945-0.664h-2.742V30.459z"/>
	<path d="M399.094,32.62h-4.788l-1.077,2.915h-0.89l3.97-10.453h0.811l3.94,10.453h-0.89L399.094,32.62z M394.594,31.852h4.221
		l-2.082-5.655h-0.043L394.594,31.852z"/>
</g>
<path fill="#1A171B" d="M115.792,10.015h-3.423v2.944h3.921v0.498h-4.502V6.348h4.478v0.498h-3.896v2.671h3.423V10.015z"/>
<path fill="#1A171B" d="M122.624,12.612c-0.16,0.231-0.45,0.447-0.872,0.647c-0.421,0.201-0.953,0.3-1.594,0.3
	c-0.827,0-1.505-0.282-2.034-0.845c-0.529-0.563-0.793-1.292-0.793-2.188V9.224c0-0.879,0.251-1.595,0.754-2.148
	s1.155-0.83,1.956-0.83c0.765,0,1.363,0.191,1.794,0.574s0.681,0.88,0.75,1.492l-0.01,0.03h-0.542
	c-0.084-0.476-0.285-0.861-0.601-1.155c-0.316-0.295-0.78-0.442-1.392-0.442c-0.638,0-1.151,0.231-1.541,0.692
	c-0.389,0.462-0.583,1.054-0.583,1.776v1.313c0,0.742,0.207,1.35,0.62,1.825c0.414,0.475,0.954,0.712,1.621,0.712
	c0.472,0,0.873-0.066,1.204-0.197c0.331-0.132,0.556-0.276,0.676-0.432v-1.852h-1.89v-0.499h2.476V12.612z"/>
<path fill="#1A171B" d="M125.104,13.457h-0.586V6.348h0.586V13.457z"/>
<path fill="#1A171B" d="M132.287,10.483c0,0.919-0.251,1.66-0.754,2.227s-1.178,0.85-2.024,0.85c-0.833,0-1.498-0.283-1.995-0.85
	s-0.745-1.308-0.745-2.227V9.327c0-0.916,0.248-1.657,0.742-2.228c0.495-0.57,1.159-0.854,1.992-0.854
	c0.846,0,1.522,0.285,2.026,0.854c0.504,0.57,0.757,1.312,0.757,2.228V10.483z M131.706,9.32c0-0.77-0.194-1.389-0.583-1.858
	c-0.389-0.469-0.929-0.704-1.619-0.704c-0.677,0-1.205,0.235-1.582,0.704c-0.377,0.47-0.566,1.089-0.566,1.858v1.169
	c0,0.776,0.189,1.398,0.569,1.869c0.379,0.469,0.907,0.704,1.584,0.704c0.693,0,1.233-0.234,1.619-0.701
	c0.386-0.468,0.579-1.091,0.579-1.871V9.32z"/>
<path fill="#1A171B" d="M139.059,13.457h-0.581l-4.038-6.113l-0.029,0.005v6.107h-0.586V6.348h0.586l4.038,6.104l0.029-0.005V6.348
	h0.581V13.457z"/>
<path fill="#1A171B" d="M144.992,11.711c0-0.387-0.145-0.703-0.435-0.948c-0.29-0.246-0.794-0.462-1.514-0.651
	c-0.778-0.195-1.367-0.449-1.768-0.762s-0.601-0.734-0.601-1.265c0-0.543,0.224-0.986,0.671-1.328
	c0.448-0.342,1.023-0.513,1.726-0.513c0.732,0,1.323,0.204,1.772,0.611c0.449,0.407,0.667,0.903,0.654,1.489l-0.015,0.029h-0.537
	c0-0.475-0.168-0.865-0.505-1.171s-0.793-0.459-1.37-0.459c-0.57,0-1.015,0.127-1.335,0.38c-0.321,0.254-0.481,0.57-0.481,0.948
	c0,0.358,0.148,0.656,0.444,0.896c0.296,0.239,0.807,0.451,1.533,0.632c0.765,0.195,1.347,0.459,1.746,0.791
	c0.399,0.333,0.598,0.771,0.598,1.313c0,0.566-0.232,1.017-0.696,1.353c-0.464,0.335-1.056,0.502-1.775,0.502
	c-0.709,0-1.329-0.178-1.858-0.535s-0.785-0.876-0.769-1.56l0.01-0.029h0.537c0,0.552,0.207,0.961,0.62,1.227
	c0.414,0.267,0.9,0.399,1.46,0.399c0.563,0,1.018-0.124,1.365-0.371C144.818,12.444,144.992,12.118,144.992,11.711z"/>
<path fill="#1A171B" d="M153.405,10.122h-3.457v3.334h-0.581V6.348h4.536v0.498h-3.955v2.778h3.457V10.122z"/>
<path fill="#1A171B" d="M160.324,10.483c0,0.919-0.251,1.66-0.754,2.227s-1.178,0.85-2.024,0.85c-0.833,0-1.498-0.283-1.995-0.85
	s-0.745-1.308-0.745-2.227V9.327c0-0.916,0.248-1.657,0.742-2.228c0.495-0.57,1.159-0.854,1.992-0.854
	c0.846,0,1.522,0.285,2.026,0.854c0.504,0.57,0.757,1.312,0.757,2.228V10.483z M159.743,9.32c0-0.77-0.194-1.389-0.583-1.858
	c-0.389-0.469-0.929-0.704-1.619-0.704c-0.677,0-1.205,0.235-1.582,0.704c-0.377,0.47-0.566,1.089-0.566,1.858v1.169
	c0,0.776,0.189,1.398,0.569,1.869c0.379,0.469,0.907,0.704,1.584,0.704c0.693,0,1.233-0.234,1.619-0.701
	c0.386-0.468,0.579-1.091,0.579-1.871V9.32z"/>
<path fill="#1A171B" d="M162.428,10.244v3.212h-0.581V6.353h2.407c0.762,0,1.346,0.167,1.753,0.5c0.407,0.334,0.61,0.822,0.61,1.463
	c0,0.377-0.109,0.715-0.327,1.014c-0.218,0.297-0.526,0.515-0.923,0.651c0.439,0.111,0.756,0.309,0.95,0.593
	c0.194,0.285,0.291,0.643,0.291,1.072v0.669c0,0.221,0.026,0.42,0.078,0.596c0.052,0.175,0.138,0.318,0.259,0.43v0.116h-0.596
	c-0.121-0.116-0.205-0.281-0.254-0.492c-0.049-0.212-0.073-0.432-0.073-0.66v-0.649c0-0.436-0.141-0.78-0.422-1.033
	s-0.675-0.378-1.179-0.378H162.428z M162.428,9.746h1.753c0.641,0,1.11-0.129,1.406-0.388s0.444-0.608,0.444-1.047
	c0-0.469-0.147-0.829-0.442-1.082c-0.294-0.251-0.74-0.378-1.335-0.378h-1.826V9.746z"/>
<path fill="#1A171B" d="M171.642,6.348l2.612,6.26h0.029l2.622-6.26h0.771v7.109h-0.581v-3.138l0.049-3.112l-0.029-0.009
	l-2.642,6.259h-0.405l-2.637-6.23l-0.029,0.005l0.054,3.087v3.138h-0.581V6.348H171.642z"/>
<path fill="#1A171B" d="M184.733,10.483c0,0.919-0.251,1.66-0.754,2.227s-1.178,0.85-2.024,0.85c-0.833,0-1.498-0.283-1.995-0.85
	s-0.745-1.308-0.745-2.227V9.327c0-0.916,0.248-1.657,0.742-2.228c0.495-0.57,1.159-0.854,1.992-0.854
	c0.846,0,1.522,0.285,2.026,0.854c0.504,0.57,0.757,1.312,0.757,2.228V10.483z M184.152,9.32c0-0.77-0.194-1.389-0.583-1.858
	c-0.389-0.469-0.929-0.704-1.619-0.704c-0.677,0-1.205,0.235-1.582,0.704c-0.377,0.47-0.566,1.089-0.566,1.858v1.169
	c0,0.776,0.189,1.398,0.569,1.869c0.379,0.469,0.907,0.704,1.584,0.704c0.693,0,1.233-0.234,1.619-0.701
	c0.386-0.468,0.579-1.091,0.579-1.871V9.32z"/>
<path fill="#1A171B" d="M186.837,10.244v3.212h-0.581V6.353h2.407c0.762,0,1.346,0.167,1.753,0.5c0.407,0.334,0.61,0.822,0.61,1.463
	c0,0.377-0.109,0.715-0.327,1.014c-0.218,0.297-0.526,0.515-0.923,0.651c0.439,0.111,0.756,0.309,0.95,0.593
	c0.194,0.285,0.291,0.643,0.291,1.072v0.669c0,0.221,0.026,0.42,0.078,0.596c0.052,0.175,0.138,0.318,0.259,0.43v0.116h-0.596
	c-0.121-0.116-0.205-0.281-0.254-0.492c-0.049-0.212-0.073-0.432-0.073-0.66v-0.649c0-0.436-0.141-0.78-0.422-1.033
	s-0.675-0.378-1.179-0.378H186.837z M186.837,9.746h1.753c0.641,0,1.11-0.129,1.406-0.388s0.444-0.608,0.444-1.047
	c0-0.469-0.147-0.829-0.442-1.082c-0.294-0.251-0.74-0.378-1.335-0.378h-1.826V9.746z"/>
<path fill="#1A171B" d="M196.857,10.015h-3.423v2.944h3.921v0.498h-4.502V6.348h4.478v0.498h-3.896v2.671h3.423V10.015z"/>
<path fill="#1A171B" d="M201.759,13.457h-0.586V6.348h0.586V13.457z"/>
<path fill="#1A171B" d="M208.986,13.457h-0.581l-4.038-6.113l-0.029,0.005v6.107h-0.586V6.348h0.586l4.038,6.104l0.029-0.005V6.348
	h0.581V13.457z"/>
<path fill="#1A171B" d="M214.889,10.122h-3.457v3.334h-0.581V6.348h4.536v0.498h-3.955v2.778h3.457V10.122z"/>
<path fill="#1A171B" d="M221.808,10.483c0,0.919-0.251,1.66-0.754,2.227s-1.178,0.85-2.024,0.85c-0.833,0-1.498-0.283-1.995-0.85
	s-0.745-1.308-0.745-2.227V9.327c0-0.916,0.248-1.657,0.742-2.228c0.495-0.57,1.159-0.854,1.992-0.854
	c0.846,0,1.522,0.285,2.026,0.854c0.504,0.57,0.757,1.312,0.757,2.228V10.483z M221.227,9.32c0-0.77-0.194-1.389-0.583-1.858
	c-0.389-0.469-0.929-0.704-1.619-0.704c-0.677,0-1.205,0.235-1.582,0.704c-0.377,0.47-0.566,1.089-0.566,1.858v1.169
	c0,0.776,0.189,1.398,0.569,1.869c0.379,0.469,0.907,0.704,1.584,0.704c0.693,0,1.233-0.234,1.619-0.701
	c0.386-0.468,0.579-1.091,0.579-1.871V9.32z"/>
<path fill="#1A171B" d="M223.913,10.244v3.212h-0.581V6.353h2.407c0.762,0,1.346,0.167,1.753,0.5c0.407,0.334,0.61,0.822,0.61,1.463
	c0,0.377-0.109,0.715-0.327,1.014c-0.218,0.297-0.526,0.515-0.923,0.651c0.439,0.111,0.756,0.309,0.95,0.593
	c0.194,0.285,0.291,0.643,0.291,1.072v0.669c0,0.221,0.026,0.42,0.078,0.596c0.052,0.175,0.138,0.318,0.259,0.43v0.116h-0.596
	c-0.121-0.116-0.205-0.281-0.254-0.492c-0.049-0.212-0.073-0.432-0.073-0.66v-0.649c0-0.436-0.141-0.78-0.422-1.033
	s-0.675-0.378-1.179-0.378H223.913z M223.913,9.746h1.753c0.641,0,1.11-0.129,1.406-0.388s0.444-0.608,0.444-1.047
	c0-0.469-0.147-0.829-0.442-1.082c-0.294-0.251-0.74-0.378-1.335-0.378h-1.826V9.746z"/>
<path fill="#1A171B" d="M230.695,6.348l2.612,6.26h0.029l2.622-6.26h0.771v7.109h-0.581v-3.138l0.049-3.112l-0.029-0.009
	l-2.642,6.259h-0.405l-2.637-6.23l-0.029,0.005l0.054,3.087v3.138h-0.581V6.348H230.695z"/>
<path fill="#1A171B" d="M242.501,11.475h-3.257l-0.732,1.982h-0.605l2.7-7.109h0.552l2.681,7.109h-0.605L242.501,11.475z
	 M239.44,10.952h2.871l-1.416-3.848h-0.029L239.44,10.952z"/>
<path fill="#1A171B" d="M249.064,6.846h-2.446v6.611h-0.586V6.846h-2.446V6.348h5.479V6.846z"/>
<path fill="#1A171B" d="M250.934,13.457h-0.586V6.348h0.586V13.457z"/>
<path fill="#1A171B" d="M258.117,10.483c0,0.919-0.251,1.66-0.754,2.227s-1.178,0.85-2.024,0.85c-0.833,0-1.498-0.283-1.995-0.85
	s-0.745-1.308-0.745-2.227V9.327c0-0.916,0.248-1.657,0.742-2.228c0.495-0.57,1.159-0.854,1.992-0.854
	c0.846,0,1.522,0.285,2.026,0.854c0.504,0.57,0.757,1.312,0.757,2.228V10.483z M257.536,9.32c0-0.77-0.194-1.389-0.583-1.858
	c-0.389-0.469-0.929-0.704-1.619-0.704c-0.677,0-1.205,0.235-1.582,0.704c-0.377,0.47-0.566,1.089-0.566,1.858v1.169
	c0,0.776,0.189,1.398,0.569,1.869c0.379,0.469,0.907,0.704,1.584,0.704c0.693,0,1.233-0.234,1.619-0.701
	c0.386-0.468,0.579-1.091,0.579-1.871V9.32z"/>
<path fill="#1A171B" d="M264.889,13.457h-0.581l-4.038-6.113l-0.029,0.005v6.107h-0.586V6.348h0.586l4.038,6.104l0.029-0.005V6.348
	h0.581V13.457z"/>
<polygon fill="#EB801A" points="9.531,14.219 9.551,4.09 17.049,10.894 13.857,11.494 15.341,14.85 13.601,15.607 12.122,12.261 "/>
</svg>
