<?xml version="1.0" encoding="utf-8"?>
<!-- Generator: Adobe Illustrator 16.0.0, SVG Export Plug-In . SVG Version: 6.00 Build 0)  -->
<!DOCTYPE svg PUBLIC "-//W3C//DTD SVG 1.1//EN" "http://www.w3.org/Graphics/SVG/1.1/DTD/svg11.dtd">
<svg version="1.1" id="Layer_1" xmlns="http://www.w3.org/2000/svg" xmlns:xlink="http://www.w3.org/1999/xlink" x="0px" y="0px"
	 width="160.96px" height="346.61px" viewBox="0 0 160.96 346.61" enable-background="new 0 0 160.96 346.61" xml:space="preserve">
<rect id="FLTpiemonte_1_" x="0" y="10.638" fill="#FFFFFF" width="158.178" height="30.058"/>
<rect id="FLTlombardia_1_" x="0" y="40.695" fill="#FFFFFF" width="158.178" height="31.492"/>
<rect id="FLTtrentino_1_" x="0" y="72.188" fill="#FFFFFF" width="158.178" height="21.321"/>
<rect id="FLTveneto_1_" x="0" y="93.509" fill="#FFFFFF" width="158.178" height="16.403"/>
<rect id="FLTfriuli_1_" x="0" y="109.912" fill="#FFFFFF" width="158.178" height="13.122"/>
<rect id="FLTliguria_1_" x="0" y="123.034" fill="#FFFFFF" width="158.178" height="13.447"/>
<rect id="FLTemilia_1_" x="0" y="136.481" fill="#FFFFFF" width="158.178" height="18.043"/>
<rect id="FLTtoscana_1_" x="0" y="154.524" fill="#FFFFFF" width="158.178" height="18.043"/>
<rect id="FLTumbria_1_" x="0" y="172.567" fill="#FFFFFF" width="158.178" height="9.842"/>
<rect id="FLTmarche_1_" x="0" y="182.409" fill="#FFFFFF" width="158.178" height="14.105"/>
<rect id="FLTlazio_1_" x="0" y="196.515" fill="#FFFFFF" width="158.178" height="20.34"/>
<rect id="FLTabruzzo_1_" x="0" y="216.854" fill="#FFFFFF" width="158.178" height="12.793"/>
<rect id="FLTmolise_1_" x="0" y="229.647" fill="#FFFFFF" width="158.178" height="8.857"/>
<rect id="FLTcampania_1_" x="0" y="238.505" fill="#FFFFFF" width="158.178" height="22.635"/>
<rect id="FLTpuglia_1_" x="0" y="261.14" fill="#FFFFFF" width="158.178" height="16.731"/>
<rect id="FLTbasilicata_1_" x="0" y="277.871" fill="#FFFFFF" width="158.178" height="8.856"/>
<rect id="FLTcalabria_1_" x="0" y="286.728" fill="#FFFFFF" width="158.178" height="15.09"/>
<rect id="FLTsicilia_1_" x="0" y="301.817" fill="#FFFFFF" width="158.178" height="19.355"/>
<rect id="FLTsardegna_1_" x="0" y="321.173" fill="#FFFFFF" width="158.178" height="14.104"/>
<g>
	<polygon points="160.958,261.139 160.958,238.504 160.958,229.647 160.958,229.647 160.958,216.854 160.958,196.515 
		160.958,196.515 160.958,182.409 160.958,182.409 160.958,172.566 160.958,154.525 160.958,136.482 160.958,123.033 
		160.958,109.912 160.958,93.509 160.958,72.188 160.958,40.695 160.952,40.695 160.952,10.638 155.399,10.638 155.399,40.695 
		155.399,72.188 155.399,93.509 155.399,109.912 155.399,123.033 155.399,136.482 155.399,154.525 155.399,172.566 155.399,182.409 
		155.399,196.515 155.399,216.854 155.399,229.647 155.399,238.504 155.399,261.139 155.399,277.87 155.399,286.727 
		155.399,301.817 155.399,321.173 155.399,335.277 160.958,335.277 160.958,321.173 160.958,301.817 160.957,301.817 
		160.957,286.727 160.958,286.727 160.958,277.87 160.96,277.87 160.96,261.139 	"/>
	<rect x="149.399" y="10.64" width="11.553" height="2.222"/>
	<rect x="149.399" y="39.583" width="11.553" height="2.224"/>
	<rect x="149.399" y="71.076" width="11.553" height="2.223"/>
	<rect x="149.399" y="92.398" width="11.553" height="2.222"/>
	<rect x="149.399" y="108.801" width="11.553" height="2.223"/>
	<rect x="149.399" y="121.923" width="11.553" height="2.222"/>
	<rect x="149.399" y="135.371" width="11.553" height="2.222"/>
	<rect x="149.399" y="153.414" width="11.553" height="2.222"/>
	<rect x="149.399" y="171.457" width="11.553" height="2.222"/>
	<rect x="149.399" y="181.299" width="11.553" height="2.222"/>
	<rect x="149.399" y="195.403" width="11.553" height="2.223"/>
	<rect x="149.399" y="215.743" width="11.553" height="2.223"/>
	<rect x="149.399" y="228.537" width="11.553" height="2.222"/>
	<rect x="149.399" y="237.394" width="11.553" height="2.222"/>
	<rect x="149.399" y="260.028" width="11.553" height="2.223"/>
	<rect x="149.399" y="276.76" width="11.553" height="2.222"/>
	<rect x="149.399" y="285.616" width="11.553" height="2.222"/>
	<rect x="149.399" y="300.706" width="11.553" height="2.224"/>
	<rect x="149.399" y="320.063" width="11.553" height="2.222"/>
	<rect x="149.399" y="333.054" width="11.553" height="2.223"/>
</g>
<path id="FLWpiemonte_1_" d="M4.03,26.68l0.152,0.592h0.035l0.146-0.58l2.039-6.311h1.518l-3.047,8.531H3.521l-3.041-8.531h1.518
	L4.03,26.68z M12.286,28.912c-0.051-0.161-0.093-0.316-0.126-0.469s-0.056-0.305-0.067-0.456c-0.195,0.296-0.452,0.545-0.771,0.746
	s-0.675,0.302-1.069,0.302c-0.66,0-1.167-0.17-1.521-0.51s-0.53-0.807-0.53-1.4c0-0.613,0.242-1.091,0.727-1.433
	s1.166-0.513,2.045-0.513h1.107v-0.557c0-0.332-0.098-0.592-0.293-0.779s-0.475-0.281-0.838-0.281c-0.324,0-0.582,0.078-0.773,0.234
	S9.89,24.154,9.89,24.4H8.519l-0.006-0.035c-0.027-0.5,0.196-0.943,0.671-1.33s1.093-0.58,1.854-0.58
	c0.738,0,1.334,0.188,1.787,0.563s0.68,0.914,0.68,1.617v2.818c0,0.262,0.018,0.513,0.053,0.753s0.092,0.476,0.17,0.706H12.286z
	 M10.54,27.893c0.359,0,0.683-0.09,0.97-0.27s0.478-0.385,0.571-0.615v-0.937H10.95c-0.414,0-0.738,0.102-0.973,0.307
	s-0.352,0.446-0.352,0.724c0,0.242,0.079,0.435,0.237,0.577S10.247,27.893,10.54,27.893z M16.517,28.912h-1.424v-9.141h1.424V28.912
	z M20.835,25.83c0-1.012,0.217-1.827,0.65-2.446s1.043-0.929,1.828-0.929c0.344,0,0.651,0.069,0.923,0.208s0.507,0.337,0.706,0.595
	v-3.486h1.424v9.141h-1.195l-0.141-0.786c-0.203,0.298-0.447,0.523-0.732,0.678s-0.617,0.231-0.996,0.231
	c-0.777,0-1.383-0.284-1.816-0.85c-0.434-0.566-0.65-1.311-0.65-2.232V25.83z M22.259,25.953c0,0.586,0.112,1.053,0.337,1.401
	c0.225,0.347,0.581,0.521,1.069,0.521c0.301,0,0.556-0.064,0.765-0.193c0.209-0.128,0.38-0.313,0.513-0.551v-2.766
	c-0.133-0.234-0.305-0.417-0.516-0.548s-0.461-0.196-0.75-0.196c-0.484,0-0.842,0.204-1.072,0.612s-0.346,0.94-0.346,1.597V25.953z
	 M29.196,20.908l-0.949,2.051H27.55l0.352-2.039v-1.148h1.295V20.908z M34.271,26.92h-3.34l-0.68,1.992H28.81l3.135-8.531h1.348
	l3.1,8.531h-1.447L34.271,26.92z M31.341,25.73h2.525l-1.236-3.645h-0.035L31.341,25.73z M36.937,25.684
	c0-0.941,0.258-1.715,0.773-2.32c0.523-0.605,1.232-0.908,2.127-0.908c0.91,0,1.623,0.303,2.139,0.908
	c0.52,0.602,0.779,1.375,0.779,2.32v0.123c0,0.953-0.26,1.73-0.779,2.332c-0.516,0.598-1.225,0.896-2.127,0.896
	c-0.906,0-1.619-0.301-2.139-0.902c-0.516-0.602-0.773-1.377-0.773-2.326V25.684z M38.36,25.804c0,0.616,0.121,1.12,0.363,1.51
	c0.238,0.386,0.613,0.579,1.125,0.579c0.496,0,0.867-0.193,1.113-0.579c0.25-0.39,0.375-0.894,0.375-1.51v-0.123
	c0-0.604-0.125-1.102-0.375-1.492c-0.246-0.394-0.621-0.591-1.125-0.591c-0.496,0-0.867,0.197-1.113,0.591
	c-0.242,0.395-0.363,0.892-0.363,1.492V25.804z M47.56,27.189c0-0.219-0.094-0.4-0.281-0.545s-0.537-0.271-1.049-0.381
	c-0.758-0.16-1.331-0.389-1.72-0.683c-0.389-0.295-0.583-0.696-0.583-1.205c0-0.53,0.225-0.983,0.674-1.358s1.041-0.563,1.775-0.563
	c0.773,0,1.388,0.191,1.843,0.571c0.455,0.381,0.673,0.853,0.653,1.415l-0.012,0.035h-1.365c0-0.262-0.1-0.486-0.299-0.674
	s-0.473-0.281-0.82-0.281c-0.344,0-0.605,0.077-0.785,0.231s-0.27,0.343-0.27,0.565s0.085,0.399,0.255,0.53s0.515,0.247,1.034,0.349
	c0.797,0.164,1.388,0.396,1.772,0.694s0.577,0.706,0.577,1.222c0,0.57-0.235,1.033-0.706,1.388c-0.471,0.356-1.091,0.534-1.86,0.534
	c-0.824,0-1.475-0.211-1.951-0.633s-0.703-0.906-0.68-1.453l0.012-0.035h1.324c0.016,0.367,0.148,0.635,0.398,0.803
	s0.555,0.252,0.914,0.252c0.367,0,0.65-0.07,0.85-0.211S47.56,27.428,47.56,27.189z M52.007,21.031v1.541h1.137v1.054h-1.137v3.505
	c0,0.262,0.057,0.448,0.17,0.56s0.264,0.167,0.451,0.167c0.078,0,0.154-0.007,0.229-0.021s0.145-0.032,0.211-0.056l0.152,1.043
	c-0.121,0.066-0.266,0.118-0.434,0.155s-0.342,0.056-0.521,0.056c-0.523,0-0.934-0.153-1.23-0.46s-0.445-0.787-0.445-1.444v-3.505
	h-0.967v-1.054h0.967v-1.541H52.007z M58.224,28.912c-0.051-0.161-0.093-0.316-0.126-0.469s-0.056-0.305-0.067-0.456
	c-0.195,0.296-0.452,0.545-0.771,0.746s-0.675,0.302-1.069,0.302c-0.66,0-1.167-0.17-1.521-0.51s-0.53-0.807-0.53-1.4
	c0-0.613,0.242-1.091,0.727-1.433s1.166-0.513,2.045-0.513h1.107v-0.557c0-0.332-0.098-0.592-0.293-0.779s-0.475-0.281-0.838-0.281
	c-0.324,0-0.582,0.078-0.773,0.234s-0.287,0.357-0.287,0.604h-1.371l-0.006-0.035c-0.027-0.5,0.196-0.943,0.671-1.33
	s1.093-0.58,1.854-0.58c0.738,0,1.334,0.188,1.787,0.563s0.68,0.914,0.68,1.617v2.818c0,0.262,0.018,0.513,0.053,0.753
	s0.092,0.476,0.17,0.706H58.224z M56.478,27.893c0.359,0,0.683-0.09,0.97-0.27s0.478-0.385,0.571-0.615v-0.937h-1.131
	c-0.414,0-0.738,0.102-0.973,0.307s-0.352,0.446-0.352,0.724c0,0.242,0.079,0.435,0.237,0.577S56.185,27.893,56.478,27.893z
	 M67.739,28.912c-0.051-0.161-0.093-0.316-0.126-0.469s-0.056-0.305-0.067-0.456c-0.195,0.296-0.452,0.545-0.771,0.746
	s-0.675,0.302-1.069,0.302c-0.66,0-1.167-0.17-1.521-0.51s-0.53-0.807-0.53-1.4c0-0.613,0.242-1.091,0.727-1.433
	s1.166-0.513,2.045-0.513h1.107v-0.557c0-0.332-0.098-0.592-0.293-0.779s-0.475-0.281-0.838-0.281c-0.324,0-0.582,0.078-0.773,0.234
	s-0.287,0.357-0.287,0.604h-1.371l-0.006-0.035c-0.027-0.5,0.196-0.943,0.671-1.33s1.093-0.58,1.854-0.58
	c0.738,0,1.334,0.188,1.787,0.563s0.68,0.914,0.68,1.617v2.818c0,0.262,0.018,0.513,0.053,0.753s0.092,0.476,0.17,0.706H67.739z
	 M65.993,27.893c0.359,0,0.683-0.09,0.97-0.27s0.478-0.385,0.571-0.615v-0.937h-1.131c-0.414,0-0.738,0.102-0.973,0.307
	s-0.352,0.446-0.352,0.724c0,0.242,0.079,0.435,0.237,0.577S65.7,27.893,65.993,27.893z M71.741,22.572l0.082,0.915
	c0.207-0.325,0.468-0.578,0.782-0.76s0.669-0.272,1.063-0.272c0.66,0,1.175,0.2,1.544,0.601s0.554,1.024,0.554,1.872v3.984h-1.424
	v-3.973c0-0.477-0.099-0.815-0.296-1.017s-0.497-0.302-0.899-0.302c-0.277,0-0.525,0.062-0.744,0.185
	c-0.219,0.124-0.398,0.292-0.539,0.507v4.6H70.44v-6.34H71.741z M76.985,25.83c0-1.012,0.217-1.827,0.65-2.446
	s1.043-0.929,1.828-0.929c0.344,0,0.651,0.069,0.923,0.208s0.507,0.337,0.706,0.595v-3.486h1.424v9.141h-1.195l-0.141-0.786
	c-0.203,0.298-0.447,0.523-0.732,0.678s-0.617,0.231-0.996,0.231c-0.777,0-1.383-0.284-1.816-0.85
	c-0.434-0.566-0.65-1.311-0.65-2.232V25.83z M78.409,25.953c0,0.586,0.112,1.053,0.337,1.401c0.225,0.347,0.581,0.521,1.069,0.521
	c0.301,0,0.556-0.064,0.765-0.193c0.209-0.128,0.38-0.313,0.513-0.551v-2.766c-0.133-0.234-0.305-0.417-0.516-0.548
	s-0.461-0.196-0.75-0.196c-0.484,0-0.842,0.204-1.072,0.612s-0.346,0.94-0.346,1.597V25.953z M88.64,25.678v3.234h-1.424v-8.531
	h3.334c0.941,0,1.679,0.243,2.212,0.729s0.8,1.126,0.8,1.919c0,0.801-0.267,1.442-0.8,1.925s-1.271,0.724-2.212,0.724H88.64z
	 M88.64,24.535h1.91c0.527,0,0.924-0.141,1.189-0.422s0.398-0.639,0.398-1.072s-0.133-0.795-0.398-1.084
	c-0.266-0.29-0.662-0.434-1.189-0.434h-1.91V24.535z M96.304,21.02H94.88v-1.248h1.424V21.02z M96.304,28.912H94.88v-6.34h1.424
	V28.912z M100.616,29.035c-0.898,0-1.614-0.294-2.147-0.882s-0.8-1.343-0.8-2.265v-0.234c0-0.922,0.265-1.687,0.794-2.294
	s1.192-0.909,1.989-0.905c0.855,0,1.511,0.259,1.966,0.776s0.683,1.212,0.683,2.083v0.838h-3.955l-0.012,0.029
	c0.023,0.502,0.171,0.913,0.442,1.232s0.647,0.479,1.128,0.479c0.383,0,0.711-0.047,0.984-0.142
	c0.273-0.093,0.537-0.228,0.791-0.403l0.457,0.934c-0.238,0.212-0.555,0.391-0.949,0.536S101.136,29.035,100.616,29.035z
	 M100.452,23.598c-0.352,0-0.641,0.14-0.867,0.419s-0.367,0.634-0.422,1.063l0.012,0.029h2.514v-0.146
	c0-0.402-0.103-0.73-0.308-0.984S100.866,23.598,100.452,23.598z M105.55,22.572l0.076,0.826c0.207-0.301,0.467-0.533,0.779-0.697
	s0.674-0.246,1.084-0.246c0.414,0,0.77,0.094,1.066,0.281s0.52,0.469,0.668,0.844c0.195-0.352,0.453-0.627,0.773-0.826
	s0.695-0.299,1.125-0.299c0.637,0,1.14,0.218,1.509,0.653s0.554,1.097,0.554,1.983v3.82h-1.424v-3.826
	c0-0.539-0.093-0.919-0.278-1.137c-0.186-0.219-0.464-0.328-0.835-0.328c-0.305,0-0.563,0.083-0.773,0.246
	c-0.211,0.164-0.363,0.384-0.457,0.662c0,0.059,0.002,0.109,0.006,0.152s0.006,0.084,0.006,0.123v4.107h-1.424v-3.826
	c0-0.52-0.095-0.894-0.284-1.122s-0.468-0.343-0.835-0.343c-0.289,0-0.534,0.056-0.735,0.167s-0.36,0.269-0.478,0.472v4.652h-1.424
	v-6.34H105.55z M114.421,25.684c0-0.941,0.258-1.715,0.773-2.32c0.523-0.605,1.232-0.908,2.127-0.908
	c0.91,0,1.623,0.303,2.139,0.908c0.52,0.602,0.779,1.375,0.779,2.32v0.123c0,0.953-0.26,1.73-0.779,2.332
	c-0.516,0.598-1.225,0.896-2.127,0.896c-0.906,0-1.619-0.301-2.139-0.902c-0.516-0.602-0.773-1.377-0.773-2.326V25.684z
	 M115.845,25.804c0,0.616,0.121,1.12,0.363,1.51c0.238,0.386,0.613,0.579,1.125,0.579c0.496,0,0.867-0.193,1.113-0.579
	c0.25-0.39,0.375-0.894,0.375-1.51v-0.123c0-0.604-0.125-1.102-0.375-1.492c-0.246-0.394-0.621-0.591-1.125-0.591
	c-0.496,0-0.867,0.197-1.113,0.591c-0.242,0.395-0.363,0.892-0.363,1.492V25.804z M122.771,22.572l0.082,0.915
	c0.207-0.325,0.468-0.578,0.782-0.76s0.669-0.272,1.063-0.272c0.66,0,1.175,0.2,1.544,0.601s0.554,1.024,0.554,1.872v3.984h-1.424
	v-3.973c0-0.477-0.099-0.815-0.296-1.017s-0.497-0.302-0.899-0.302c-0.277,0-0.525,0.062-0.744,0.185
	c-0.219,0.124-0.398,0.292-0.539,0.507v4.6h-1.424v-6.34H122.771z M130.048,21.031v1.541h1.137v1.054h-1.137v3.505
	c0,0.262,0.057,0.448,0.17,0.56s0.264,0.167,0.451,0.167c0.078,0,0.154-0.007,0.229-0.021s0.145-0.032,0.211-0.056l0.152,1.043
	c-0.121,0.066-0.266,0.118-0.434,0.155s-0.342,0.056-0.521,0.056c-0.523,0-0.934-0.153-1.23-0.46s-0.445-0.787-0.445-1.444v-3.505
	h-0.967v-1.054h0.967v-1.541H130.048z M135.169,29.035c-0.898,0-1.614-0.294-2.147-0.882s-0.8-1.343-0.8-2.265v-0.234
	c0-0.922,0.265-1.687,0.794-2.294s1.192-0.909,1.989-0.905c0.855,0,1.511,0.259,1.966,0.776s0.683,1.212,0.683,2.083v0.838h-3.955
	l-0.012,0.029c0.023,0.502,0.171,0.913,0.442,1.232s0.647,0.479,1.128,0.479c0.383,0,0.711-0.047,0.984-0.142
	c0.273-0.093,0.537-0.228,0.791-0.403l0.457,0.934c-0.238,0.212-0.555,0.391-0.949,0.536S135.688,29.035,135.169,29.035z
	 M135.005,23.598c-0.352,0-0.641,0.14-0.867,0.419s-0.367,0.634-0.422,1.063l0.012,0.029h2.514v-0.146
	c0-0.402-0.103-0.73-0.308-0.984S135.419,23.598,135.005,23.598z"/>
<path id="FLWlombardia_1_" d="M82.769,58.546h3.92v1.143h-5.344v-8.531h1.424V58.546z M87.392,56.459
	c0-0.94,0.258-1.714,0.773-2.319c0.523-0.605,1.232-0.908,2.127-0.908c0.91,0,1.623,0.303,2.139,0.908
	c0.52,0.602,0.779,1.375,0.779,2.319v0.124c0,0.953-0.26,1.73-0.779,2.332c-0.516,0.598-1.225,0.896-2.127,0.896
	c-0.906,0-1.619-0.301-2.139-0.902c-0.516-0.602-0.773-1.377-0.773-2.326V56.459z M88.815,56.58c0,0.616,0.121,1.119,0.363,1.51
	c0.238,0.386,0.613,0.579,1.125,0.579c0.496,0,0.867-0.193,1.113-0.579c0.25-0.391,0.375-0.894,0.375-1.51v-0.123
	c0-0.604-0.125-1.103-0.375-1.492c-0.246-0.394-0.621-0.591-1.125-0.591c-0.496,0-0.867,0.197-1.113,0.591
	c-0.242,0.395-0.363,0.892-0.363,1.492V56.58z M95.753,53.349l0.076,0.826c0.207-0.301,0.467-0.533,0.779-0.697
	s0.674-0.246,1.084-0.246c0.414,0,0.77,0.094,1.066,0.281s0.52,0.469,0.668,0.844c0.195-0.352,0.453-0.627,0.773-0.826
	s0.695-0.299,1.125-0.299c0.637,0,1.14,0.218,1.509,0.653s0.554,1.097,0.554,1.983v3.82h-1.424v-3.826
	c0-0.539-0.093-0.918-0.278-1.137s-0.464-0.328-0.835-0.328c-0.305,0-0.563,0.082-0.773,0.246s-0.363,0.385-0.457,0.662
	c0,0.059,0.002,0.109,0.006,0.152c0.004,0.042,0.006,0.083,0.006,0.123v4.107h-1.424v-3.826c0-0.52-0.095-0.894-0.284-1.122
	s-0.468-0.343-0.835-0.343c-0.289,0-0.534,0.056-0.735,0.167s-0.36,0.269-0.478,0.472v4.652h-1.424v-6.34H95.753z M110.454,56.729
	c0,0.926-0.216,1.671-0.647,2.235s-1.04,0.847-1.825,0.847c-0.395,0-0.737-0.08-1.028-0.24c-0.291-0.159-0.534-0.395-0.729-0.703
	l-0.141,0.82h-1.195v-9.141h1.424v3.521c0.195-0.27,0.43-0.477,0.703-0.621s0.592-0.217,0.955-0.217
	c0.793,0,1.405,0.309,1.837,0.926s0.647,1.434,0.647,2.449V56.729z M109.03,56.606c0-0.66-0.113-1.193-0.34-1.6
	s-0.586-0.609-1.078-0.609c-0.316,0-0.581,0.07-0.794,0.211s-0.382,0.336-0.507,0.587v2.659c0.121,0.254,0.289,0.45,0.504,0.589
	s0.484,0.208,0.809,0.208c0.492,0,0.85-0.173,1.072-0.519c0.223-0.345,0.334-0.813,0.334-1.403V56.606z M115.499,59.688
	c-0.051-0.16-0.093-0.316-0.126-0.469s-0.056-0.305-0.067-0.457c-0.195,0.297-0.452,0.546-0.771,0.747s-0.675,0.302-1.069,0.302
	c-0.66,0-1.167-0.17-1.521-0.51s-0.53-0.806-0.53-1.4c0-0.613,0.242-1.091,0.727-1.433s1.166-0.513,2.045-0.513h1.107v-0.557
	c0-0.332-0.098-0.592-0.293-0.779s-0.475-0.281-0.838-0.281c-0.324,0-0.582,0.077-0.773,0.234c-0.191,0.156-0.287,0.357-0.287,0.604
	h-1.371l-0.006-0.035c-0.027-0.5,0.196-0.943,0.671-1.33s1.093-0.58,1.854-0.58c0.738,0,1.334,0.188,1.787,0.563
	s0.68,0.914,0.68,1.618v2.817c0,0.262,0.018,0.513,0.053,0.753s0.092,0.476,0.17,0.706H115.499z M113.753,58.669
	c0.359,0,0.683-0.09,0.97-0.27s0.478-0.385,0.571-0.615v-0.938h-1.131c-0.414,0-0.738,0.103-0.973,0.308s-0.352,0.446-0.352,0.724
	c0,0.242,0.079,0.435,0.237,0.577S113.46,58.669,113.753,58.669z M121.37,54.632l-0.609-0.023c-0.277,0-0.509,0.058-0.694,0.176
	c-0.186,0.117-0.329,0.283-0.431,0.498v4.406h-1.424v-6.34h1.301l0.094,0.92c0.16-0.324,0.366-0.578,0.618-0.762
	s0.542-0.275,0.87-0.275c0.086,0,0.166,0.007,0.24,0.021s0.143,0.03,0.205,0.05L121.37,54.632z M122.103,56.606
	c0-1.012,0.217-1.827,0.65-2.446s1.043-0.929,1.828-0.929c0.344,0,0.651,0.069,0.923,0.208s0.507,0.337,0.706,0.595v-3.486h1.424
	v9.141h-1.195l-0.141-0.785c-0.203,0.297-0.447,0.522-0.732,0.677s-0.617,0.231-0.996,0.231c-0.777,0-1.383-0.283-1.816-0.85
	s-0.65-1.311-0.65-2.232V56.606z M123.526,56.729c0,0.586,0.112,1.053,0.337,1.4s0.581,0.521,1.069,0.521
	c0.301,0,0.556-0.064,0.765-0.193s0.38-0.312,0.513-0.551v-2.766c-0.133-0.234-0.305-0.417-0.516-0.548s-0.461-0.196-0.75-0.196
	c-0.484,0-0.842,0.204-1.072,0.612c-0.23,0.407-0.346,0.94-0.346,1.597V56.729z M130.681,51.796h-1.424v-1.248h1.424V51.796z
	 M130.681,59.688h-1.424v-6.34h1.424V59.688z M136.089,59.688c-0.051-0.16-0.093-0.316-0.126-0.469s-0.056-0.305-0.067-0.457
	c-0.195,0.297-0.452,0.546-0.771,0.747s-0.675,0.302-1.069,0.302c-0.66,0-1.167-0.17-1.521-0.51s-0.53-0.806-0.53-1.4
	c0-0.613,0.242-1.091,0.727-1.433s1.166-0.513,2.045-0.513h1.107v-0.557c0-0.332-0.098-0.592-0.293-0.779s-0.475-0.281-0.838-0.281
	c-0.324,0-0.582,0.077-0.773,0.234c-0.191,0.156-0.287,0.357-0.287,0.604h-1.371l-0.006-0.035c-0.027-0.5,0.196-0.943,0.671-1.33
	s1.093-0.58,1.854-0.58c0.738,0,1.334,0.188,1.787,0.563s0.68,0.914,0.68,1.618v2.817c0,0.262,0.018,0.513,0.053,0.753
	s0.092,0.476,0.17,0.706H136.089z M134.343,58.669c0.359,0,0.683-0.09,0.97-0.27s0.478-0.385,0.571-0.615v-0.938h-1.131
	c-0.414,0-0.738,0.103-0.973,0.308s-0.352,0.446-0.352,0.724c0,0.242,0.079,0.435,0.237,0.577S134.05,58.669,134.343,58.669z"/>
<path id="FLWtrentino_1_" d="M40.569,78.706h-2.578v7.39h-1.424v-7.39h-2.578v-1.143h6.58V78.706z M44.249,81.038l-0.609-0.022
	c-0.277,0-0.509,0.058-0.694,0.175s-0.329,0.283-0.431,0.498v4.407h-1.424v-6.341h1.301l0.094,0.92
	c0.16-0.324,0.366-0.578,0.618-0.761c0.252-0.185,0.542-0.276,0.87-0.276c0.086,0,0.166,0.007,0.24,0.021s0.143,0.03,0.205,0.05
	L44.249,81.038z M47.964,86.218c-0.898,0-1.614-0.294-2.147-0.882s-0.8-1.343-0.8-2.265v-0.234c0-0.922,0.265-1.687,0.794-2.294
	s1.192-0.909,1.989-0.905c0.855,0,1.511,0.259,1.966,0.776s0.683,1.212,0.683,2.084v0.837h-3.955l-0.012,0.03
	c0.023,0.502,0.171,0.912,0.442,1.231s0.647,0.479,1.128,0.479c0.383,0,0.711-0.046,0.984-0.141
	c0.273-0.094,0.537-0.229,0.791-0.404l0.457,0.934c-0.238,0.213-0.555,0.392-0.949,0.536C48.94,86.146,48.483,86.218,47.964,86.218z
	 M47.8,80.781c-0.352,0-0.641,0.14-0.867,0.418c-0.227,0.279-0.367,0.635-0.422,1.064l0.012,0.028h2.514v-0.146
	c0-0.403-0.103-0.731-0.308-0.984C48.523,80.907,48.214,80.781,47.8,80.781z M52.886,79.755l0.082,0.914
	c0.207-0.323,0.468-0.577,0.782-0.759s0.669-0.272,1.063-0.272c0.66,0,1.175,0.201,1.544,0.601c0.369,0.401,0.554,1.025,0.554,1.872
	v3.985h-1.424v-3.974c0-0.476-0.099-0.814-0.296-1.017c-0.197-0.2-0.497-0.302-0.899-0.302c-0.277,0-0.525,0.062-0.744,0.186
	c-0.219,0.122-0.398,0.292-0.539,0.507v4.6h-1.424v-6.341H52.886z M60.163,78.215v1.54H61.3v1.055h-1.137v3.504
	c0,0.262,0.057,0.448,0.17,0.561c0.113,0.11,0.264,0.166,0.451,0.166c0.078,0,0.154-0.007,0.229-0.02
	c0.074-0.014,0.145-0.033,0.211-0.057l0.152,1.043c-0.121,0.066-0.266,0.118-0.434,0.155s-0.342,0.056-0.521,0.056
	c-0.523,0-0.934-0.153-1.23-0.459c-0.297-0.308-0.445-0.789-0.445-1.445V80.81h-0.967v-1.055h0.967v-1.54H60.163z M64.083,78.202
	h-1.424v-1.248h1.424V78.202z M64.083,86.096h-1.424v-6.341h1.424V86.096z M66.966,79.755l0.082,0.914
	c0.207-0.323,0.468-0.577,0.782-0.759s0.669-0.272,1.063-0.272c0.66,0,1.175,0.201,1.544,0.601c0.369,0.401,0.554,1.025,0.554,1.872
	v3.985h-1.424v-3.974c0-0.476-0.099-0.814-0.296-1.017c-0.197-0.2-0.497-0.302-0.899-0.302c-0.277,0-0.525,0.062-0.744,0.186
	c-0.219,0.122-0.398,0.292-0.539,0.507v4.6h-1.424v-6.341H66.966z M72.21,82.866c0-0.941,0.258-1.715,0.773-2.319
	c0.523-0.606,1.232-0.909,2.127-0.909c0.91,0,1.623,0.303,2.139,0.909c0.52,0.601,0.779,1.374,0.779,2.319v0.123
	c0,0.953-0.26,1.73-0.779,2.332c-0.516,0.598-1.225,0.896-2.127,0.896c-0.906,0-1.619-0.301-2.139-0.902
	c-0.516-0.601-0.773-1.377-0.773-2.326V82.866z M73.634,82.987c0,0.615,0.121,1.119,0.363,1.509
	c0.238,0.387,0.613,0.579,1.125,0.579c0.496,0,0.867-0.192,1.113-0.579c0.25-0.39,0.375-0.894,0.375-1.509v-0.124
	c0-0.604-0.125-1.102-0.375-1.491c-0.246-0.395-0.621-0.591-1.125-0.591c-0.496,0-0.867,0.196-1.113,0.591
	c-0.242,0.394-0.363,0.892-0.363,1.491V82.987z M87.063,84.103h-3.34l-0.68,1.993h-1.441l3.135-8.532h1.348l3.1,8.532h-1.447
	L87.063,84.103z M84.134,82.914h2.525l-1.236-3.646h-0.035L84.134,82.914z M91.511,86.096h-1.424v-9.142h1.424V86.096z
	 M94.874,78.215v1.54h1.137v1.055h-1.137v3.504c0,0.262,0.057,0.448,0.17,0.561c0.113,0.11,0.264,0.166,0.451,0.166
	c0.078,0,0.154-0.007,0.229-0.02c0.074-0.014,0.145-0.033,0.211-0.057l0.152,1.043c-0.121,0.066-0.266,0.118-0.434,0.155
	s-0.342,0.056-0.521,0.056c-0.523,0-0.934-0.153-1.23-0.459c-0.297-0.308-0.445-0.789-0.445-1.445V80.81h-0.967v-1.055h0.967v-1.54
	H94.874z M97.013,82.866c0-0.941,0.258-1.715,0.773-2.319c0.523-0.606,1.232-0.909,2.127-0.909c0.91,0,1.623,0.303,2.139,0.909
	c0.52,0.601,0.779,1.374,0.779,2.319v0.123c0,0.953-0.26,1.73-0.779,2.332c-0.516,0.598-1.225,0.896-2.127,0.896
	c-0.906,0-1.619-0.301-2.139-0.902c-0.516-0.601-0.773-1.377-0.773-2.326V82.866z M98.437,82.987c0,0.615,0.121,1.119,0.363,1.509
	c0.238,0.387,0.613,0.579,1.125,0.579c0.496,0,0.867-0.192,1.113-0.579c0.25-0.39,0.375-0.894,0.375-1.509v-0.124
	c0-0.604-0.125-1.102-0.375-1.491c-0.246-0.395-0.621-0.591-1.125-0.591c-0.496,0-0.867,0.196-1.113,0.591
	c-0.242,0.394-0.363,0.892-0.363,1.491V82.987z M106.815,83.036h-3.076v-1.143h3.076V83.036z M112.815,84.103h-3.34l-0.68,1.993
	h-1.441l3.135-8.532h1.348l3.1,8.532h-1.447L112.815,84.103z M109.886,82.914h2.525l-1.236-3.646h-0.035L109.886,82.914z
	 M115.481,83.013c0-1.012,0.217-1.827,0.65-2.446s1.043-0.929,1.828-0.929c0.344,0,0.651,0.069,0.923,0.208s0.507,0.338,0.706,0.595
	v-3.486h1.424v9.142h-1.195l-0.141-0.786c-0.203,0.297-0.447,0.522-0.732,0.678c-0.285,0.153-0.617,0.23-0.996,0.23
	c-0.777,0-1.383-0.283-1.816-0.85s-0.65-1.311-0.65-2.232V83.013z M116.905,83.136c0,0.586,0.112,1.053,0.337,1.4
	s0.581,0.521,1.069,0.521c0.301,0,0.556-0.064,0.765-0.192c0.209-0.13,0.38-0.313,0.513-0.552v-2.766
	c-0.133-0.234-0.305-0.417-0.516-0.548s-0.461-0.196-0.75-0.196c-0.484,0-0.842,0.204-1.072,0.612
	c-0.23,0.409-0.346,0.94-0.346,1.597V83.136z M124.06,78.202h-1.424v-1.248h1.424V78.202z M124.06,86.096h-1.424v-6.341h1.424
	V86.096z M125.396,83.013c0-1.008,0.221-1.822,0.662-2.443c0.441-0.62,1.055-0.932,1.84-0.932c0.379,0,0.712,0.081,0.999,0.243
	s0.53,0.396,0.729,0.701l0.141-0.827h1.184v6.341c0,0.816-0.252,1.446-0.756,1.892s-1.219,0.668-2.145,0.668
	c-0.309,0-0.642-0.044-0.999-0.132s-0.681-0.204-0.97-0.349l0.305-1.119c0.234,0.121,0.493,0.216,0.776,0.284
	s0.575,0.103,0.876,0.103c0.516,0,0.893-0.11,1.131-0.331c0.238-0.22,0.357-0.56,0.357-1.016v-0.65
	c-0.199,0.253-0.435,0.446-0.706,0.576c-0.271,0.131-0.583,0.196-0.935,0.196c-0.777,0-1.387-0.283-1.828-0.85
	s-0.662-1.311-0.662-2.232V83.013z M126.819,83.136c0,0.582,0.116,1.048,0.349,1.397s0.593,0.524,1.081,0.524
	c0.305,0,0.562-0.063,0.771-0.19c0.209-0.126,0.378-0.31,0.507-0.548v-2.777c-0.133-0.229-0.304-0.411-0.513-0.542
	s-0.46-0.196-0.753-0.196c-0.488,0-0.851,0.205-1.087,0.615c-0.236,0.411-0.354,0.941-0.354,1.594V83.136z M135.169,86.218
	c-0.898,0-1.614-0.294-2.147-0.882s-0.8-1.343-0.8-2.265v-0.234c0-0.922,0.265-1.687,0.794-2.294s1.192-0.909,1.989-0.905
	c0.855,0,1.511,0.259,1.966,0.776s0.683,1.212,0.683,2.084v0.837h-3.955l-0.012,0.03c0.023,0.502,0.171,0.912,0.442,1.231
	s0.647,0.479,1.128,0.479c0.383,0,0.711-0.046,0.984-0.141c0.273-0.094,0.537-0.229,0.791-0.404l0.457,0.934
	c-0.238,0.213-0.555,0.392-0.949,0.536C136.146,86.146,135.688,86.218,135.169,86.218z M135.005,80.781
	c-0.352,0-0.641,0.14-0.867,0.418c-0.227,0.279-0.367,0.635-0.422,1.064l0.012,0.028h2.514v-0.146c0-0.403-0.103-0.731-0.308-0.984
	C135.729,80.907,135.419,80.781,135.005,80.781z"/>
<path id="FLWveneto_1_" d="M103.88,102.725l0.152,0.592h0.035l0.146-0.579l2.039-6.312h1.518l-3.047,8.532h-1.354l-3.041-8.532
	h1.518L103.88,102.725z M111.052,105.08c-0.898,0-1.614-0.294-2.147-0.882s-0.8-1.343-0.8-2.265v-0.234
	c0-0.922,0.265-1.687,0.794-2.294c0.529-0.606,1.192-0.909,1.989-0.905c0.855,0,1.511,0.259,1.966,0.776s0.683,1.213,0.683,2.083
	v0.838h-3.955l-0.012,0.029c0.023,0.503,0.171,0.913,0.442,1.232c0.271,0.32,0.647,0.479,1.128,0.479
	c0.383,0,0.711-0.046,0.984-0.141c0.273-0.093,0.537-0.229,0.791-0.404l0.457,0.934c-0.238,0.213-0.555,0.392-0.949,0.536
	C112.028,105.008,111.571,105.08,111.052,105.08z M110.888,99.643c-0.352,0-0.641,0.14-0.867,0.42
	c-0.227,0.278-0.367,0.633-0.422,1.063l0.012,0.029h2.514v-0.146c0-0.402-0.103-0.73-0.308-0.984
	C111.611,99.771,111.302,99.643,110.888,99.643z M115.974,98.617l0.082,0.914c0.207-0.324,0.468-0.577,0.782-0.759
	s0.669-0.272,1.063-0.272c0.66,0,1.175,0.2,1.544,0.601s0.554,1.024,0.554,1.872v3.985h-1.424v-3.974
	c0-0.477-0.099-0.815-0.296-1.017s-0.497-0.302-0.899-0.302c-0.277,0-0.525,0.062-0.744,0.185s-0.398,0.292-0.539,0.507v4.601
	h-1.424v-6.341H115.974z M124.2,105.08c-0.898,0-1.614-0.294-2.147-0.882s-0.8-1.343-0.8-2.265v-0.234
	c0-0.922,0.265-1.687,0.794-2.294c0.529-0.606,1.192-0.909,1.989-0.905c0.855,0,1.511,0.259,1.966,0.776s0.683,1.213,0.683,2.083
	v0.838h-3.955l-0.012,0.029c0.023,0.503,0.171,0.913,0.442,1.232c0.271,0.32,0.647,0.479,1.128,0.479
	c0.383,0,0.711-0.046,0.984-0.141c0.273-0.093,0.537-0.229,0.791-0.404l0.457,0.934c-0.238,0.213-0.555,0.392-0.949,0.536
	C125.177,105.008,124.72,105.08,124.2,105.08z M124.036,99.643c-0.352,0-0.641,0.14-0.867,0.42
	c-0.227,0.278-0.367,0.633-0.422,1.063l0.012,0.029h2.514v-0.146c0-0.402-0.103-0.73-0.308-0.984
	C124.76,99.771,124.45,99.643,124.036,99.643z M129.603,97.076v1.541h1.137v1.055h-1.137v3.504c0,0.262,0.057,0.448,0.17,0.56
	c0.113,0.112,0.264,0.167,0.451,0.167c0.078,0,0.154-0.006,0.229-0.02c0.074-0.015,0.145-0.033,0.211-0.057l0.152,1.043
	c-0.121,0.066-0.266,0.118-0.434,0.155c-0.168,0.038-0.342,0.056-0.521,0.056c-0.523,0-0.934-0.153-1.23-0.46
	s-0.445-0.788-0.445-1.444v-3.504h-0.967v-1.055h0.967v-1.541H129.603z M131.741,101.729c0-0.94,0.258-1.715,0.773-2.32
	c0.523-0.604,1.232-0.908,2.127-0.908c0.91,0,1.623,0.304,2.139,0.908c0.52,0.602,0.779,1.375,0.779,2.32v0.123
	c0,0.953-0.26,1.73-0.779,2.332c-0.516,0.598-1.225,0.896-2.127,0.896c-0.906,0-1.619-0.301-2.139-0.902
	c-0.516-0.602-0.773-1.377-0.773-2.326V101.729z M133.165,101.849c0,0.616,0.121,1.12,0.363,1.51
	c0.238,0.387,0.613,0.579,1.125,0.579c0.496,0,0.867-0.192,1.113-0.579c0.25-0.39,0.375-0.894,0.375-1.51v-0.123
	c0-0.604-0.125-1.102-0.375-1.491c-0.246-0.395-0.621-0.592-1.125-0.592c-0.496,0-0.867,0.197-1.113,0.592
	c-0.242,0.394-0.363,0.891-0.363,1.491V101.849z"/>
<path id="FLWfriuli_1_" d="M37.763,116.08h-3.738v3.639h-1.424v-8.531h5.76v1.143h-4.336v2.607h3.738V116.08z M42.374,114.662
	l-0.609-0.023c-0.277,0-0.509,0.059-0.694,0.176s-0.329,0.283-0.431,0.498v4.406h-1.424v-6.34h1.301l0.094,0.92
	c0.16-0.324,0.366-0.578,0.618-0.762c0.252-0.183,0.542-0.275,0.87-0.275c0.086,0,0.166,0.007,0.24,0.021s0.143,0.03,0.205,0.05
	L42.374,114.662z M44.888,111.826h-1.424v-1.248h1.424V111.826z M44.888,119.719h-1.424v-6.34h1.424V119.719z M50.431,118.792
	c-0.199,0.337-0.451,0.596-0.756,0.777c-0.305,0.181-0.656,0.272-1.055,0.272c-0.68,0-1.211-0.217-1.594-0.65
	s-0.574-1.108-0.574-2.021v-3.791h1.418v3.803c0,0.555,0.09,0.943,0.27,1.166c0.18,0.224,0.451,0.334,0.814,0.334
	c0.344,0,0.632-0.062,0.864-0.185s0.415-0.302,0.548-0.536v-4.582h1.424v6.34h-1.242L50.431,118.792z M54.796,119.719h-1.424v-9.141
	h1.424V119.719z M57.907,111.826h-1.424v-1.248h1.424V111.826z M57.907,119.719h-1.424v-6.34h1.424V119.719z M65.378,117.487
	l0.152,0.591h0.035l0.146-0.58l2.039-6.311h1.518l-3.047,8.531h-1.354l-3.041-8.531h1.518L65.378,117.487z M72.55,119.842
	c-0.898,0-1.614-0.294-2.147-0.883c-0.533-0.587-0.8-1.342-0.8-2.264v-0.234c0-0.922,0.265-1.687,0.794-2.295
	c0.529-0.606,1.192-0.908,1.989-0.904c0.855,0,1.511,0.259,1.966,0.776s0.683,1.212,0.683,2.083v0.838h-3.955l-0.012,0.029
	c0.023,0.502,0.171,0.913,0.442,1.232s0.647,0.479,1.128,0.479c0.383,0,0.711-0.047,0.984-0.141s0.537-0.229,0.791-0.404
	l0.457,0.934c-0.238,0.212-0.555,0.391-0.949,0.536C73.526,119.771,73.069,119.842,72.55,119.842z M72.386,114.404
	c-0.352,0-0.641,0.14-0.867,0.419s-0.367,0.634-0.422,1.063l0.012,0.029h2.514v-0.146c0-0.403-0.103-0.731-0.308-0.985
	S72.8,114.404,72.386,114.404z M77.472,113.379l0.082,0.913c0.207-0.323,0.468-0.576,0.782-0.758s0.669-0.272,1.063-0.272
	c0.66,0,1.175,0.2,1.544,0.601s0.554,1.024,0.554,1.872v3.984h-1.424v-3.973c0-0.476-0.099-0.815-0.296-1.017
	s-0.497-0.302-0.899-0.302c-0.277,0-0.525,0.062-0.744,0.185s-0.398,0.292-0.539,0.507v4.6h-1.424v-6.34H77.472z M85.698,119.842
	c-0.898,0-1.614-0.294-2.147-0.883c-0.533-0.587-0.8-1.342-0.8-2.264v-0.234c0-0.922,0.265-1.687,0.794-2.295
	c0.529-0.606,1.192-0.908,1.989-0.904c0.855,0,1.511,0.259,1.966,0.776s0.683,1.212,0.683,2.083v0.838h-3.955l-0.012,0.029
	c0.023,0.502,0.171,0.913,0.442,1.232s0.647,0.479,1.128,0.479c0.383,0,0.711-0.047,0.984-0.141s0.537-0.229,0.791-0.404
	l0.457,0.934c-0.238,0.212-0.555,0.391-0.949,0.536C86.675,119.771,86.218,119.842,85.698,119.842z M85.534,114.404
	c-0.352,0-0.641,0.14-0.867,0.419s-0.367,0.634-0.422,1.063l0.012,0.029h2.514v-0.146c0-0.403-0.103-0.731-0.308-0.985
	S85.948,114.404,85.534,114.404z M90.843,118.576h3.387v1.143h-5.15v-0.937l3.199-4.261h-3.135v-1.143h4.934v0.897L90.843,118.576z
	 M96.931,111.826h-1.424v-1.248h1.424V111.826z M96.931,119.719h-1.424v-6.34h1.424V119.719z M102.339,119.719
	c-0.051-0.16-0.093-0.316-0.126-0.469s-0.056-0.305-0.067-0.458c-0.195,0.298-0.452,0.547-0.771,0.748s-0.675,0.302-1.069,0.302
	c-0.66,0-1.167-0.17-1.521-0.51s-0.53-0.807-0.53-1.4c0-0.613,0.242-1.091,0.727-1.433s1.166-0.512,2.045-0.512h1.107v-0.558
	c0-0.332-0.098-0.592-0.293-0.779s-0.475-0.281-0.838-0.281c-0.324,0-0.582,0.078-0.773,0.234s-0.287,0.357-0.287,0.604h-1.371
	l-0.006-0.035c-0.027-0.5,0.196-0.943,0.671-1.33s1.093-0.58,1.854-0.58c0.738,0,1.334,0.188,1.787,0.563s0.68,0.914,0.68,1.617
	v2.818c0,0.262,0.018,0.513,0.053,0.753s0.092,0.476,0.17,0.706H102.339z M100.593,118.699c0.359,0,0.683-0.09,0.97-0.27
	s0.478-0.385,0.571-0.615v-0.938h-1.131c-0.414,0-0.738,0.103-0.973,0.308s-0.352,0.446-0.352,0.724
	c0,0.242,0.079,0.435,0.237,0.577S100.3,118.699,100.593,118.699z M114.579,118.564c-0.227,0.324-0.599,0.618-1.116,0.882
	c-0.518,0.263-1.183,0.396-1.995,0.396c-1.027,0-1.873-0.325-2.537-0.976s-0.996-1.491-0.996-2.522v-1.781
	c0-1.031,0.313-1.872,0.94-2.522s1.437-0.976,2.429-0.976c1.004,0,1.784,0.247,2.341,0.741s0.841,1.138,0.853,1.931l-0.012,0.035
	h-1.348c-0.031-0.469-0.198-0.847-0.501-1.134s-0.741-0.431-1.315-0.431c-0.59,0-1.065,0.221-1.427,0.662
	c-0.361,0.44-0.542,1.001-0.542,1.68v1.791c0,0.688,0.196,1.252,0.589,1.695c0.393,0.442,0.901,0.664,1.526,0.664
	c0.445,0,0.807-0.052,1.084-0.154c0.277-0.104,0.479-0.226,0.604-0.365v-1.73h-1.693v-1.066h3.117V118.564z M117.661,111.826h-1.424
	v-1.248h1.424V111.826z M117.661,119.719h-1.424v-6.34h1.424V119.719z M123.204,118.792c-0.199,0.337-0.451,0.596-0.756,0.777
	c-0.305,0.181-0.656,0.272-1.055,0.272c-0.68,0-1.211-0.217-1.594-0.65s-0.574-1.108-0.574-2.021v-3.791h1.418v3.803
	c0,0.555,0.09,0.943,0.27,1.166c0.18,0.224,0.451,0.334,0.814,0.334c0.344,0,0.632-0.062,0.864-0.185s0.415-0.302,0.548-0.536
	v-4.582h1.424v6.34h-1.242L123.204,118.792z M127.569,119.719h-1.424v-9.141h1.424V119.719z M130.681,111.826h-1.424v-1.248h1.424
	V111.826z M130.681,119.719h-1.424v-6.34h1.424V119.719z M136.089,119.719c-0.051-0.16-0.093-0.316-0.126-0.469
	s-0.056-0.305-0.067-0.458c-0.195,0.298-0.452,0.547-0.771,0.748s-0.675,0.302-1.069,0.302c-0.66,0-1.167-0.17-1.521-0.51
	s-0.53-0.807-0.53-1.4c0-0.613,0.242-1.091,0.727-1.433s1.166-0.512,2.045-0.512h1.107v-0.558c0-0.332-0.098-0.592-0.293-0.779
	s-0.475-0.281-0.838-0.281c-0.324,0-0.582,0.078-0.773,0.234s-0.287,0.357-0.287,0.604h-1.371l-0.006-0.035
	c-0.027-0.5,0.196-0.943,0.671-1.33s1.093-0.58,1.854-0.58c0.738,0,1.334,0.188,1.787,0.563s0.68,0.914,0.68,1.617v2.818
	c0,0.262,0.018,0.513,0.053,0.753s0.092,0.476,0.17,0.706H136.089z M134.343,118.699c0.359,0,0.683-0.09,0.97-0.27
	s0.478-0.385,0.571-0.615v-0.938h-1.131c-0.414,0-0.738,0.103-0.973,0.308s-0.352,0.446-0.352,0.724
	c0,0.242,0.079,0.435,0.237,0.577S134.05,118.699,134.343,118.699z"/>
<path id="FLWliguria_1_" d="M103.417,131.862h3.92v1.143h-5.344v-8.531h1.424V131.862z M109.821,125.112h-1.424v-1.248h1.424
	V125.112z M109.821,133.005h-1.424v-6.34h1.424V133.005z M111.157,129.923c0-1.008,0.221-1.822,0.662-2.443s1.055-0.932,1.84-0.932
	c0.379,0,0.712,0.081,0.999,0.243s0.53,0.396,0.729,0.7l0.141-0.826h1.184v6.34c0,0.816-0.252,1.447-0.756,1.893
	s-1.219,0.668-2.145,0.668c-0.309,0-0.642-0.044-0.999-0.132s-0.681-0.204-0.97-0.35l0.305-1.118
	c0.234,0.121,0.493,0.216,0.776,0.284s0.575,0.103,0.876,0.103c0.516,0,0.893-0.11,1.131-0.331s0.357-0.56,0.357-1.017v-0.65
	c-0.199,0.254-0.435,0.446-0.706,0.577s-0.583,0.196-0.935,0.196c-0.777,0-1.387-0.282-1.828-0.849
	c-0.441-0.567-0.662-1.312-0.662-2.233V129.923z M112.581,130.046c0,0.582,0.116,1.048,0.349,1.397
	c0.232,0.349,0.593,0.524,1.081,0.524c0.305,0,0.562-0.063,0.771-0.19s0.378-0.31,0.507-0.548v-2.777
	c-0.133-0.23-0.304-0.411-0.513-0.542s-0.46-0.196-0.753-0.196c-0.488,0-0.851,0.205-1.087,0.615s-0.354,0.941-0.354,1.594V130.046z
	 M122.161,132.079c-0.199,0.336-0.451,0.595-0.756,0.776s-0.656,0.272-1.055,0.272c-0.68,0-1.211-0.216-1.594-0.65
	c-0.383-0.434-0.574-1.107-0.574-2.021v-3.791h1.418v3.803c0,0.555,0.09,0.944,0.27,1.166c0.18,0.223,0.451,0.334,0.814,0.334
	c0.344,0,0.632-0.062,0.864-0.185s0.415-0.302,0.548-0.536v-4.582h1.424v6.34h-1.242L122.161,132.079z M128.167,127.948
	l-0.609-0.023c-0.277,0-0.509,0.059-0.694,0.176s-0.329,0.283-0.431,0.498v4.406h-1.424v-6.34h1.301l0.094,0.919
	c0.16-0.323,0.366-0.577,0.618-0.761s0.542-0.275,0.87-0.275c0.086,0,0.166,0.007,0.24,0.021s0.143,0.03,0.205,0.05L128.167,127.948
	z M130.681,125.112h-1.424v-1.248h1.424V125.112z M130.681,133.005h-1.424v-6.34h1.424V133.005z M136.089,133.005
	c-0.051-0.159-0.093-0.316-0.126-0.469s-0.056-0.305-0.067-0.457c-0.195,0.296-0.452,0.546-0.771,0.747s-0.675,0.302-1.069,0.302
	c-0.66,0-1.167-0.17-1.521-0.51c-0.354-0.339-0.53-0.807-0.53-1.4c0-0.613,0.242-1.091,0.727-1.433s1.166-0.513,2.045-0.513h1.107
	v-0.557c0-0.332-0.098-0.592-0.293-0.779s-0.475-0.281-0.838-0.281c-0.324,0-0.582,0.078-0.773,0.234s-0.287,0.357-0.287,0.604
	h-1.371l-0.006-0.035c-0.027-0.5,0.196-0.943,0.671-1.33s1.093-0.58,1.854-0.58c0.738,0,1.334,0.188,1.787,0.563
	s0.68,0.914,0.68,1.617v2.818c0,0.262,0.018,0.513,0.053,0.753s0.092,0.476,0.17,0.706H136.089z M134.343,131.985
	c0.359,0,0.683-0.09,0.97-0.27s0.478-0.385,0.571-0.615v-0.938h-1.131c-0.414,0-0.738,0.103-0.973,0.308s-0.352,0.445-0.352,0.725
	c0,0.241,0.079,0.434,0.237,0.576S134.05,131.985,134.343,131.985z"/>
<path id="FLWemilia_1_" d="M56.073,144.913h-3.732v2.695h4.33v1.142h-5.754v-8.53h5.713v1.143h-4.289v2.408h3.732V144.913z
	 M58.991,142.412l0.076,0.825c0.207-0.301,0.467-0.533,0.779-0.697c0.313-0.165,0.674-0.246,1.084-0.246
	c0.414,0,0.77,0.094,1.066,0.281s0.52,0.469,0.668,0.844c0.195-0.352,0.453-0.628,0.773-0.826c0.32-0.199,0.695-0.299,1.125-0.299
	c0.637,0,1.14,0.218,1.509,0.653s0.554,1.097,0.554,1.983v3.819h-1.424v-3.825c0-0.539-0.093-0.918-0.278-1.137
	s-0.464-0.329-0.835-0.329c-0.305,0-0.563,0.082-0.773,0.247c-0.211,0.164-0.363,0.385-0.457,0.662c0,0.059,0.002,0.109,0.006,0.152
	s0.006,0.084,0.006,0.123v4.106h-1.424v-3.825c0-0.52-0.095-0.894-0.284-1.122s-0.468-0.344-0.835-0.344
	c-0.289,0-0.534,0.057-0.735,0.168s-0.36,0.269-0.478,0.472v4.651H57.69v-6.338H58.991z M69.644,140.858H68.22v-1.248h1.424V140.858
	z M69.644,148.75H68.22v-6.338h1.424V148.75z M72.755,148.75h-1.424v-9.14h1.424V148.75z M75.866,140.858h-1.424v-1.248h1.424
	V140.858z M75.866,148.75h-1.424v-6.338h1.424V148.75z M81.274,148.75c-0.051-0.159-0.093-0.315-0.126-0.468
	s-0.056-0.305-0.067-0.457c-0.195,0.297-0.452,0.546-0.771,0.747s-0.675,0.302-1.069,0.302c-0.66,0-1.167-0.17-1.521-0.51
	s-0.53-0.807-0.53-1.4c0-0.613,0.242-1.091,0.727-1.433s1.166-0.513,2.045-0.513h1.107v-0.557c0-0.332-0.098-0.592-0.293-0.779
	c-0.195-0.187-0.475-0.281-0.838-0.281c-0.324,0-0.582,0.078-0.773,0.234c-0.191,0.155-0.287,0.357-0.287,0.604h-1.371l-0.006-0.035
	c-0.027-0.5,0.196-0.943,0.671-1.33s1.093-0.58,1.854-0.58c0.738,0,1.334,0.188,1.787,0.563s0.68,0.914,0.68,1.617v2.817
	c0,0.263,0.018,0.514,0.053,0.754s0.092,0.476,0.17,0.705H81.274z M79.528,147.731c0.359,0,0.683-0.09,0.97-0.27
	s0.478-0.385,0.571-0.615v-0.938h-1.131c-0.414,0-0.738,0.103-0.973,0.308s-0.352,0.446-0.352,0.724
	c0,0.242,0.079,0.435,0.237,0.577S79.235,147.731,79.528,147.731z M88.581,145.212v3.538h-1.424v-8.53h3.152
	c0.953,0,1.689,0.215,2.209,0.645s0.779,1.043,0.779,1.84c0,0.442-0.114,0.821-0.343,1.14s-0.562,0.572-0.999,0.765
	c0.48,0.152,0.826,0.401,1.037,0.747s0.316,0.77,0.316,1.274v0.709c0,0.25,0.031,0.494,0.094,0.732s0.168,0.42,0.316,0.545v0.134
	h-1.465c-0.156-0.128-0.257-0.331-0.302-0.608s-0.067-0.549-0.067-0.814v-0.686c0-0.438-0.125-0.785-0.375-1.043
	s-0.594-0.387-1.031-0.387H88.581z M88.581,144.069h1.652c0.57,0,0.986-0.11,1.248-0.328c0.262-0.219,0.393-0.553,0.393-1.002
	c0-0.43-0.129-0.767-0.387-1.011s-0.65-0.366-1.178-0.366h-1.729V144.069z M94.657,145.522c0-0.941,0.258-1.715,0.773-2.32
	c0.523-0.605,1.232-0.908,2.127-0.908c0.91,0,1.623,0.303,2.139,0.908c0.52,0.602,0.779,1.375,0.779,2.32v0.124
	c0,0.952-0.26,1.729-0.779,2.331c-0.516,0.598-1.225,0.896-2.127,0.896c-0.906,0-1.619-0.301-2.139-0.902
	c-0.516-0.602-0.773-1.377-0.773-2.325V145.522z M96.081,145.643c0,0.616,0.121,1.119,0.363,1.509
	c0.238,0.387,0.613,0.58,1.125,0.58c0.496,0,0.867-0.193,1.113-0.58c0.25-0.39,0.375-0.893,0.375-1.509v-0.123
	c0-0.604-0.125-1.104-0.375-1.492c-0.246-0.395-0.621-0.591-1.125-0.591c-0.496,0-0.867,0.196-1.113,0.591
	c-0.242,0.394-0.363,0.892-0.363,1.492V145.643z M103.019,142.412l0.076,0.825c0.207-0.301,0.467-0.533,0.779-0.697
	c0.313-0.165,0.674-0.246,1.084-0.246c0.414,0,0.77,0.094,1.066,0.281s0.52,0.469,0.668,0.844c0.195-0.352,0.453-0.628,0.773-0.826
	c0.32-0.199,0.695-0.299,1.125-0.299c0.637,0,1.14,0.218,1.509,0.653s0.554,1.097,0.554,1.983v3.819h-1.424v-3.825
	c0-0.539-0.093-0.918-0.278-1.137s-0.464-0.329-0.835-0.329c-0.305,0-0.563,0.082-0.773,0.247c-0.211,0.164-0.363,0.385-0.457,0.662
	c0,0.059,0.002,0.109,0.006,0.152s0.006,0.084,0.006,0.123v4.106h-1.424v-3.825c0-0.52-0.095-0.894-0.284-1.122
	s-0.468-0.344-0.835-0.344c-0.289,0-0.534,0.057-0.735,0.168s-0.36,0.269-0.478,0.472v4.651h-1.424v-6.338H103.019z M115.968,148.75
	c-0.051-0.159-0.093-0.315-0.126-0.468s-0.056-0.305-0.067-0.457c-0.195,0.297-0.452,0.546-0.771,0.747s-0.675,0.302-1.069,0.302
	c-0.66,0-1.167-0.17-1.521-0.51s-0.53-0.807-0.53-1.4c0-0.613,0.242-1.091,0.727-1.433s1.166-0.513,2.045-0.513h1.107v-0.557
	c0-0.332-0.098-0.592-0.293-0.779c-0.195-0.187-0.475-0.281-0.838-0.281c-0.324,0-0.582,0.078-0.773,0.234
	c-0.191,0.155-0.287,0.357-0.287,0.604H112.2l-0.006-0.035c-0.027-0.5,0.196-0.943,0.671-1.33s1.093-0.58,1.854-0.58
	c0.738,0,1.334,0.188,1.787,0.563s0.68,0.914,0.68,1.617v2.817c0,0.263,0.018,0.514,0.053,0.754s0.092,0.476,0.17,0.705H115.968z
	 M114.222,147.731c0.359,0,0.683-0.09,0.97-0.27s0.478-0.385,0.571-0.615v-0.938h-1.131c-0.414,0-0.738,0.103-0.973,0.308
	s-0.352,0.446-0.352,0.724c0,0.242,0.079,0.435,0.237,0.577S113.929,147.731,114.222,147.731z M118.423,145.669
	c0-1.008,0.221-1.822,0.662-2.443s1.055-0.932,1.84-0.932c0.379,0,0.712,0.081,0.999,0.243s0.53,0.396,0.729,0.7l0.141-0.825h1.184
	v6.338c0,0.817-0.252,1.448-0.756,1.894s-1.219,0.668-2.145,0.668c-0.309,0-0.642-0.044-0.999-0.132s-0.681-0.204-0.97-0.349
	l0.305-1.119c0.234,0.121,0.493,0.216,0.776,0.284s0.575,0.103,0.876,0.103c0.516,0,0.893-0.11,1.131-0.331s0.357-0.56,0.357-1.018
	v-0.649c-0.199,0.254-0.435,0.446-0.706,0.577s-0.583,0.196-0.935,0.196c-0.777,0-1.387-0.283-1.828-0.85s-0.662-1.311-0.662-2.233
	V145.669z M119.847,145.791c0,0.583,0.116,1.049,0.349,1.398s0.593,0.524,1.081,0.524c0.305,0,0.562-0.063,0.771-0.19
	s0.378-0.31,0.507-0.548v-2.777c-0.133-0.23-0.304-0.41-0.513-0.542c-0.209-0.131-0.46-0.197-0.753-0.197
	c-0.488,0-0.851,0.206-1.087,0.616s-0.354,0.941-0.354,1.594V145.791z M126.767,142.412l0.082,0.913
	c0.207-0.325,0.468-0.577,0.782-0.759s0.669-0.272,1.063-0.272c0.66,0,1.175,0.2,1.544,0.601s0.554,1.024,0.554,1.872v3.983h-1.424
	v-3.971c0-0.478-0.099-0.816-0.296-1.018s-0.497-0.303-0.899-0.303c-0.277,0-0.525,0.063-0.744,0.186s-0.398,0.292-0.539,0.507
	v4.599h-1.424v-6.338H126.767z M136.089,148.75c-0.051-0.159-0.093-0.315-0.126-0.468s-0.056-0.305-0.067-0.457
	c-0.195,0.297-0.452,0.546-0.771,0.747s-0.675,0.302-1.069,0.302c-0.66,0-1.167-0.17-1.521-0.51s-0.53-0.807-0.53-1.4
	c0-0.613,0.242-1.091,0.727-1.433s1.166-0.513,2.045-0.513h1.107v-0.557c0-0.332-0.098-0.592-0.293-0.779
	c-0.195-0.187-0.475-0.281-0.838-0.281c-0.324,0-0.582,0.078-0.773,0.234c-0.191,0.155-0.287,0.357-0.287,0.604h-1.371l-0.006-0.035
	c-0.027-0.5,0.196-0.943,0.671-1.33s1.093-0.58,1.854-0.58c0.738,0,1.334,0.188,1.787,0.563s0.68,0.914,0.68,1.617v2.817
	c0,0.263,0.018,0.514,0.053,0.754s0.092,0.476,0.17,0.705H136.089z M134.343,147.731c0.359,0,0.683-0.09,0.97-0.27
	s0.478-0.385,0.571-0.615v-0.938h-1.131c-0.414,0-0.738,0.103-0.973,0.308s-0.352,0.446-0.352,0.724
	c0,0.242,0.079,0.435,0.237,0.577S134.05,147.731,134.343,147.731z"/>
<path id="FLWtoscana_1_" d="M99.181,159.405h-2.578v7.388h-1.424v-7.388h-2.578v-1.144h6.58V159.405z M99.351,163.564
	c0-0.941,0.258-1.715,0.773-2.32c0.523-0.604,1.232-0.908,2.127-0.908c0.91,0,1.623,0.304,2.139,0.908
	c0.52,0.602,0.779,1.375,0.779,2.32v0.123c0,0.953-0.26,1.73-0.779,2.333c-0.516,0.597-1.225,0.896-2.127,0.896
	c-0.906,0-1.619-0.301-2.139-0.902c-0.516-0.602-0.773-1.376-0.773-2.326V163.564z M100.774,163.685c0,0.616,0.121,1.12,0.363,1.51
	c0.238,0.387,0.613,0.579,1.125,0.579c0.496,0,0.867-0.192,1.113-0.579c0.25-0.39,0.375-0.894,0.375-1.51v-0.122
	c0-0.604-0.125-1.104-0.375-1.491c-0.246-0.396-0.621-0.593-1.125-0.593c-0.496,0-0.867,0.197-1.113,0.593
	c-0.242,0.393-0.363,0.89-0.363,1.491V163.685z M109.974,165.071c0-0.22-0.094-0.4-0.281-0.546
	c-0.188-0.145-0.537-0.271-1.049-0.381c-0.758-0.16-1.331-0.388-1.72-0.682c-0.389-0.296-0.583-0.697-0.583-1.204
	c0-0.532,0.225-0.985,0.674-1.36s1.041-0.563,1.775-0.563c0.773,0,1.388,0.19,1.843,0.571s0.673,0.853,0.653,1.415l-0.012,0.035
	h-1.365c0-0.262-0.1-0.486-0.299-0.674s-0.473-0.281-0.82-0.281c-0.344,0-0.605,0.077-0.785,0.231s-0.27,0.343-0.27,0.565
	c0,0.224,0.085,0.4,0.255,0.53c0.17,0.131,0.515,0.247,1.034,0.349c0.797,0.164,1.388,0.396,1.772,0.694s0.577,0.706,0.577,1.222
	c0,0.57-0.235,1.033-0.706,1.389s-1.091,0.533-1.86,0.533c-0.824,0-1.475-0.21-1.951-0.633c-0.477-0.422-0.703-0.906-0.68-1.453
	l0.012-0.035h1.324c0.016,0.367,0.148,0.635,0.398,0.803s0.555,0.252,0.914,0.252c0.367,0,0.65-0.07,0.85-0.21
	C109.874,165.498,109.974,165.309,109.974,165.071z M115.271,165.773c0.348,0,0.641-0.102,0.879-0.306s0.357-0.459,0.357-0.767
	h1.289l0.012,0.036c0.02,0.593-0.222,1.104-0.724,1.534s-1.106,0.645-1.813,0.645c-0.934,0-1.649-0.301-2.147-0.902
	s-0.747-1.363-0.747-2.285v-0.205c0-0.918,0.249-1.678,0.747-2.282c0.498-0.604,1.214-0.905,2.147-0.905
	c0.762,0,1.38,0.222,1.854,0.665s0.704,1.007,0.688,1.69l-0.012,0.035h-1.295c0-0.348-0.114-0.643-0.343-0.885
	s-0.526-0.363-0.894-0.363c-0.535,0-0.914,0.194-1.137,0.584c-0.223,0.387-0.334,0.873-0.334,1.459v0.204
	c0,0.597,0.111,1.088,0.334,1.472C114.356,165.582,114.735,165.773,115.271,165.773z M122.765,166.793
	c-0.051-0.16-0.093-0.316-0.126-0.468c-0.033-0.153-0.056-0.305-0.067-0.458c-0.195,0.297-0.452,0.547-0.771,0.747
	c-0.318,0.201-0.675,0.302-1.069,0.302c-0.66,0-1.167-0.17-1.521-0.51s-0.53-0.807-0.53-1.399c0-0.614,0.242-1.092,0.727-1.434
	s1.166-0.513,2.045-0.513h1.107v-0.557c0-0.332-0.098-0.592-0.293-0.779c-0.195-0.187-0.475-0.281-0.838-0.281
	c-0.324,0-0.582,0.078-0.773,0.234s-0.287,0.357-0.287,0.604h-1.371l-0.006-0.035c-0.027-0.5,0.196-0.942,0.671-1.33
	c0.475-0.387,1.093-0.58,1.854-0.58c0.738,0,1.334,0.188,1.787,0.563s0.68,0.914,0.68,1.617v2.818c0,0.262,0.018,0.514,0.053,0.753
	c0.035,0.24,0.092,0.476,0.17,0.706H122.765z M121.019,165.773c0.359,0,0.683-0.09,0.97-0.27c0.287-0.179,0.478-0.385,0.571-0.615
	v-0.938h-1.131c-0.414,0-0.738,0.103-0.973,0.308s-0.352,0.447-0.352,0.724c0,0.242,0.079,0.435,0.237,0.577
	S120.726,165.773,121.019,165.773z M126.767,160.454l0.082,0.913c0.207-0.324,0.468-0.577,0.782-0.759s0.669-0.272,1.063-0.272
	c0.66,0,1.175,0.2,1.544,0.601s0.554,1.024,0.554,1.872v3.984h-1.424v-3.972c0-0.478-0.099-0.816-0.296-1.018
	s-0.497-0.302-0.899-0.302c-0.277,0-0.525,0.062-0.744,0.185s-0.398,0.292-0.539,0.507v4.6h-1.424v-6.339H126.767z M136.089,166.793
	c-0.051-0.16-0.093-0.316-0.126-0.468c-0.033-0.153-0.056-0.305-0.067-0.458c-0.195,0.297-0.452,0.547-0.771,0.747
	c-0.318,0.201-0.675,0.302-1.069,0.302c-0.66,0-1.167-0.17-1.521-0.51s-0.53-0.807-0.53-1.399c0-0.614,0.242-1.092,0.727-1.434
	s1.166-0.513,2.045-0.513h1.107v-0.557c0-0.332-0.098-0.592-0.293-0.779c-0.195-0.187-0.475-0.281-0.838-0.281
	c-0.324,0-0.582,0.078-0.773,0.234s-0.287,0.357-0.287,0.604h-1.371l-0.006-0.035c-0.027-0.5,0.196-0.942,0.671-1.33
	c0.475-0.387,1.093-0.58,1.854-0.58c0.738,0,1.334,0.188,1.787,0.563s0.68,0.914,0.68,1.617v2.818c0,0.262,0.018,0.514,0.053,0.753
	c0.035,0.24,0.092,0.476,0.17,0.706H136.089z M134.343,165.773c0.359,0,0.683-0.09,0.97-0.27c0.287-0.179,0.478-0.385,0.571-0.615
	v-0.938h-1.131c-0.414,0-0.738,0.103-0.973,0.308s-0.352,0.447-0.352,0.724c0,0.242,0.079,0.435,0.237,0.577
	S134.05,165.773,134.343,165.773z"/>
<path id="FLWumbria_1_" d="M106.259,172.204v5.719c0,0.945-0.309,1.671-0.926,2.178c-0.617,0.505-1.424,0.758-2.42,0.758
	c-0.977,0-1.768-0.254-2.373-0.762s-0.908-1.232-0.908-2.174v-5.719h1.424v5.715c0,0.597,0.168,1.046,0.504,1.346
	c0.336,0.301,0.787,0.451,1.354,0.451c0.586,0,1.053-0.15,1.4-0.451c0.348-0.3,0.521-0.749,0.521-1.346v-5.715H106.259z
	 M109.077,174.396l0.076,0.826c0.207-0.301,0.467-0.533,0.779-0.697s0.674-0.245,1.084-0.245c0.414,0,0.77,0.093,1.066,0.28
	s0.52,0.469,0.668,0.844c0.195-0.352,0.453-0.627,0.773-0.826s0.695-0.298,1.125-0.298c0.637,0,1.14,0.217,1.509,0.652
	c0.369,0.437,0.554,1.097,0.554,1.983v3.82h-1.424v-3.826c0-0.539-0.093-0.918-0.278-1.137s-0.464-0.328-0.835-0.328
	c-0.305,0-0.563,0.082-0.773,0.246s-0.363,0.385-0.457,0.662c0,0.06,0.002,0.109,0.006,0.152s0.006,0.084,0.006,0.123v4.107h-1.424
	v-3.826c0-0.52-0.095-0.894-0.284-1.121c-0.189-0.229-0.468-0.344-0.835-0.344c-0.289,0-0.534,0.057-0.735,0.167
	c-0.201,0.111-0.36,0.269-0.478,0.472v4.652h-1.424v-6.34H109.077z M123.778,177.776c0,0.926-0.216,1.671-0.647,2.235
	s-1.04,0.847-1.825,0.847c-0.395,0-0.737-0.079-1.028-0.24c-0.291-0.16-0.534-0.395-0.729-0.703l-0.141,0.82h-1.195v-9.141h1.424
	v3.521c0.195-0.27,0.43-0.477,0.703-0.62c0.273-0.146,0.592-0.217,0.955-0.217c0.793,0,1.405,0.308,1.837,0.925
	s0.647,1.434,0.647,2.449V177.776z M122.354,177.653c0-0.66-0.113-1.193-0.34-1.6s-0.586-0.609-1.078-0.609
	c-0.316,0-0.581,0.07-0.794,0.211s-0.382,0.336-0.507,0.586v2.66c0.121,0.254,0.289,0.45,0.504,0.589s0.484,0.208,0.809,0.208
	c0.492,0,0.85-0.173,1.072-0.519c0.223-0.347,0.334-0.813,0.334-1.403V177.653z M128.167,175.679l-0.609-0.023
	c-0.277,0-0.509,0.059-0.694,0.176s-0.329,0.283-0.431,0.498v4.406h-1.424v-6.34h1.301l0.094,0.92
	c0.16-0.324,0.366-0.578,0.618-0.762s0.542-0.274,0.87-0.274c0.086,0,0.166,0.006,0.24,0.02s0.143,0.03,0.205,0.05L128.167,175.679z
	 M130.681,172.843h-1.424v-1.248h1.424V172.843z M130.681,180.735h-1.424v-6.34h1.424V180.735z M136.089,180.735
	c-0.051-0.16-0.093-0.316-0.126-0.469s-0.056-0.305-0.067-0.457c-0.195,0.297-0.452,0.546-0.771,0.747s-0.675,0.302-1.069,0.302
	c-0.66,0-1.167-0.17-1.521-0.51s-0.53-0.807-0.53-1.4c0-0.613,0.242-1.091,0.727-1.433s1.166-0.513,2.045-0.513h1.107v-0.557
	c0-0.332-0.098-0.592-0.293-0.779s-0.475-0.281-0.838-0.281c-0.324,0-0.582,0.078-0.773,0.234s-0.287,0.357-0.287,0.604h-1.371
	l-0.006-0.035c-0.027-0.5,0.196-0.943,0.671-1.33s1.093-0.579,1.854-0.579c0.738,0,1.334,0.187,1.787,0.562s0.68,0.914,0.68,1.617
	v2.818c0,0.262,0.018,0.513,0.053,0.753c0.035,0.241,0.092,0.476,0.17,0.706H136.089z M134.343,179.716
	c0.359,0,0.683-0.09,0.97-0.27s0.478-0.384,0.571-0.615v-0.938h-1.131c-0.414,0-0.738,0.103-0.973,0.308s-0.352,0.446-0.352,0.724
	c0,0.242,0.079,0.435,0.237,0.577S134.05,179.716,134.343,179.716z"/>
<path id="FLWmarche_1_" d="M100.188,184.177l2.455,6.563h0.035l2.461-6.563h1.846v8.531h-1.424v-2.906l0.141-3.697l-0.035-0.006
	l-2.531,6.609h-0.955l-2.52-6.592l-0.035,0.006l0.141,3.68v2.906h-1.424v-8.531H100.188z M112.487,192.708
	c-0.051-0.16-0.093-0.316-0.126-0.469s-0.056-0.305-0.067-0.457c-0.195,0.297-0.452,0.546-0.771,0.747s-0.675,0.302-1.069,0.302
	c-0.66,0-1.167-0.17-1.521-0.51s-0.53-0.807-0.53-1.4c0-0.613,0.242-1.091,0.727-1.433s1.166-0.513,2.045-0.513h1.107v-0.557
	c0-0.332-0.098-0.592-0.293-0.779s-0.475-0.281-0.838-0.281c-0.324,0-0.582,0.078-0.773,0.234s-0.287,0.357-0.287,0.604h-1.371
	l-0.006-0.035c-0.027-0.5,0.196-0.943,0.671-1.33s1.093-0.58,1.854-0.58c0.738,0,1.334,0.188,1.787,0.563s0.68,0.914,0.68,1.617
	v2.818c0,0.262,0.018,0.513,0.053,0.753s0.092,0.476,0.17,0.706H112.487z M110.741,191.688c0.359,0,0.683-0.09,0.97-0.27
	s0.478-0.385,0.571-0.615v-0.938h-1.131c-0.414,0-0.738,0.104-0.973,0.308c-0.234,0.205-0.352,0.446-0.352,0.724
	c0,0.242,0.079,0.435,0.237,0.577S110.448,191.688,110.741,191.688z M118.358,187.651l-0.609-0.023
	c-0.277,0-0.509,0.059-0.694,0.176s-0.329,0.283-0.431,0.498v4.406H115.2v-6.34h1.301l0.094,0.92
	c0.16-0.324,0.366-0.578,0.618-0.762s0.542-0.275,0.87-0.275c0.086,0,0.166,0.007,0.24,0.021s0.143,0.03,0.205,0.05L118.358,187.651
	z M121.974,191.688c0.348,0,0.641-0.102,0.879-0.305c0.238-0.205,0.357-0.461,0.357-0.768h1.289l0.012,0.035
	c0.02,0.594-0.222,1.105-0.724,1.535s-1.106,0.645-1.813,0.645c-0.934,0-1.649-0.301-2.147-0.901
	c-0.498-0.603-0.747-1.364-0.747-2.286v-0.205c0-0.918,0.249-1.679,0.747-2.282c0.498-0.603,1.214-0.905,2.147-0.905
	c0.762,0,1.38,0.222,1.854,0.666c0.475,0.442,0.704,1.006,0.688,1.689l-0.012,0.035h-1.295c0-0.348-0.114-0.643-0.343-0.885
	s-0.526-0.363-0.894-0.363c-0.535,0-0.914,0.194-1.137,0.582c-0.223,0.389-0.334,0.875-0.334,1.461v0.204
	c0,0.597,0.111,1.088,0.334,1.472C121.06,191.497,121.438,191.688,121.974,191.688z M127.06,187.188
	c0.211-0.297,0.468-0.527,0.771-0.691s0.638-0.246,1.005-0.246c0.672,0,1.196,0.212,1.573,0.636s0.565,1.077,0.565,1.96v3.861
	h-1.424v-3.873c0-0.5-0.1-0.861-0.299-1.084s-0.498-0.334-0.896-0.334c-0.277,0-0.526,0.058-0.747,0.173s-0.403,0.274-0.548,0.478
	v4.641h-1.424v-9.141h1.424V187.188z M135.169,192.831c-0.898,0-1.614-0.294-2.147-0.881c-0.533-0.589-0.8-1.344-0.8-2.266v-0.234
	c0-0.922,0.265-1.687,0.794-2.294s1.192-0.909,1.989-0.905c0.855,0,1.511,0.259,1.966,0.776s0.683,1.212,0.683,2.083v0.838h-3.955
	l-0.012,0.029c0.023,0.502,0.171,0.913,0.442,1.232s0.647,0.479,1.128,0.479c0.383,0,0.711-0.047,0.984-0.141
	s0.537-0.229,0.791-0.404l0.457,0.934c-0.238,0.213-0.555,0.391-0.949,0.536S135.688,192.831,135.169,192.831z M135.005,187.394
	c-0.352,0-0.641,0.141-0.867,0.419c-0.227,0.279-0.367,0.634-0.422,1.063l0.012,0.029h2.514v-0.146c0-0.402-0.103-0.73-0.308-0.984
	S135.419,187.394,135.005,187.394z"/>
<path id="FLWlazio_1_" d="M111.397,208.788h3.92v1.143h-5.344v-8.531h1.424V208.788z M120.099,209.931
	c-0.051-0.16-0.093-0.316-0.126-0.469s-0.056-0.305-0.067-0.457c-0.195,0.297-0.452,0.546-0.771,0.747s-0.675,0.302-1.069,0.302
	c-0.66,0-1.167-0.17-1.521-0.51s-0.53-0.807-0.53-1.4c0-0.613,0.242-1.09,0.727-1.433c0.484-0.342,1.166-0.513,2.045-0.513h1.107
	v-0.557c0-0.332-0.098-0.592-0.293-0.779s-0.475-0.281-0.838-0.281c-0.324,0-0.582,0.078-0.773,0.234s-0.287,0.357-0.287,0.604
	h-1.371l-0.006-0.035c-0.027-0.5,0.196-0.943,0.671-1.33s1.093-0.58,1.854-0.58c0.738,0,1.334,0.188,1.787,0.563
	c0.453,0.376,0.68,0.914,0.68,1.617v2.818c0,0.262,0.018,0.513,0.053,0.753s0.092,0.476,0.17,0.706H120.099z M118.353,208.912
	c0.359,0,0.683-0.091,0.97-0.271s0.478-0.385,0.571-0.615v-0.938h-1.131c-0.414,0-0.738,0.103-0.973,0.308
	c-0.234,0.206-0.352,0.446-0.352,0.724c0,0.242,0.079,0.435,0.237,0.577S118.06,208.912,118.353,208.912z M124.323,208.788h3.387
	v1.143h-5.15v-0.937l3.199-4.261h-3.135v-1.143h4.934v0.898L124.323,208.788z M130.411,202.038h-1.424v-1.248h1.424V202.038z
	 M130.411,209.931h-1.424v-6.34h1.424V209.931z M131.741,206.702c0-0.941,0.258-1.715,0.773-2.32
	c0.523-0.605,1.232-0.908,2.127-0.908c0.91,0,1.623,0.303,2.139,0.908c0.52,0.602,0.779,1.375,0.779,2.32v0.123
	c0,0.954-0.26,1.73-0.779,2.332c-0.516,0.598-1.225,0.896-2.127,0.896c-0.906,0-1.619-0.301-2.139-0.902
	c-0.516-0.602-0.773-1.377-0.773-2.326V206.702z M133.165,206.822c0,0.616,0.121,1.12,0.363,1.51c0.238,0.386,0.613,0.58,1.125,0.58
	c0.496,0,0.867-0.194,1.113-0.58c0.25-0.39,0.375-0.894,0.375-1.51V206.7c0-0.605-0.125-1.103-0.375-1.492
	c-0.246-0.395-0.621-0.592-1.125-0.592c-0.496,0-0.867,0.197-1.113,0.592c-0.242,0.395-0.363,0.891-0.363,1.492V206.822z"/>
<path id="FLWabruzzo_1_" d="M99.263,224.505h-3.34l-0.68,1.993h-1.441l3.135-8.53h1.348l3.1,8.53h-1.447L99.263,224.505z
	 M96.333,223.315h2.525l-1.236-3.645h-0.035L96.333,223.315z M107.759,223.538c0,0.926-0.216,1.672-0.647,2.236
	s-1.04,0.846-1.825,0.846c-0.395,0-0.737-0.08-1.028-0.24s-0.534-0.395-0.729-0.703l-0.141,0.821h-1.195v-9.142h1.424v3.522
	c0.195-0.271,0.43-0.478,0.703-0.622c0.273-0.144,0.592-0.217,0.955-0.217c0.793,0,1.405,0.309,1.837,0.928
	c0.432,0.615,0.647,1.432,0.647,2.447V223.538z M106.335,223.415c0-0.66-0.113-1.193-0.34-1.6s-0.586-0.609-1.078-0.609
	c-0.316,0-0.581,0.07-0.794,0.211s-0.382,0.336-0.507,0.586v2.66c0.121,0.254,0.289,0.451,0.504,0.59s0.484,0.207,0.809,0.207
	c0.492,0,0.85-0.172,1.072-0.518s0.334-0.813,0.334-1.404V223.415z M112.147,221.44l-0.609-0.023c-0.277,0-0.509,0.059-0.694,0.176
	s-0.329,0.283-0.431,0.498v4.407h-1.424v-6.341h1.301l0.094,0.92c0.16-0.324,0.366-0.578,0.618-0.762s0.542-0.275,0.87-0.275
	c0.086,0,0.166,0.008,0.24,0.021s0.143,0.029,0.205,0.049L112.147,221.44z M117.093,225.571c-0.199,0.336-0.451,0.596-0.756,0.777
	s-0.656,0.271-1.055,0.271c-0.68,0-1.211-0.217-1.594-0.65s-0.574-1.107-0.574-2.02v-3.793h1.418v3.803
	c0,0.556,0.09,0.943,0.27,1.166s0.451,0.334,0.814,0.334c0.344,0,0.632-0.061,0.864-0.184s0.415-0.303,0.548-0.537v-4.582h1.424
	v6.341h-1.242L117.093,225.571z M121.452,225.354h3.387v1.144h-5.15v-0.937l3.199-4.262h-3.135v-1.143h4.934v0.898L121.452,225.354z
	 M127.534,225.354h3.387v1.144h-5.15v-0.937l3.199-4.262h-3.135v-1.143h4.934v0.898L127.534,225.354z M131.741,223.269
	c0-0.941,0.258-1.715,0.773-2.318c0.523-0.607,1.232-0.91,2.127-0.91c0.91,0,1.623,0.303,2.139,0.91
	c0.52,0.6,0.779,1.373,0.779,2.318v0.123c0,0.954-0.26,1.73-0.779,2.332c-0.516,0.598-1.225,0.896-2.127,0.896
	c-0.906,0-1.619-0.301-2.139-0.902c-0.516-0.601-0.773-1.377-0.773-2.326V223.269z M133.165,223.39c0,0.615,0.121,1.119,0.363,1.509
	c0.238,0.387,0.613,0.579,1.125,0.579c0.496,0,0.867-0.192,1.113-0.579c0.25-0.39,0.375-0.894,0.375-1.509v-0.123
	c0-0.604-0.125-1.103-0.375-1.492c-0.246-0.395-0.621-0.591-1.125-0.591c-0.496,0-0.867,0.196-1.113,0.591
	c-0.242,0.393-0.363,0.893-0.363,1.492V223.39z"/>
<path id="FLWmolise_1_" d="M104.706,228.791l2.455,6.563h0.035l2.461-6.563h1.846v8.531h-1.424v-2.905l0.141-3.698l-0.035-0.006
	l-2.531,6.609h-0.955l-2.52-6.592l-0.035,0.006l0.141,3.681v2.905h-1.424v-8.531H104.706z M112.927,234.094
	c0-0.941,0.258-1.715,0.773-2.32c0.523-0.606,1.232-0.908,2.127-0.908c0.91,0,1.623,0.302,2.139,0.908
	c0.52,0.602,0.779,1.375,0.779,2.32v0.124c0,0.952-0.26,1.729-0.779,2.331c-0.516,0.598-1.225,0.896-2.127,0.896
	c-0.906,0-1.619-0.301-2.139-0.903c-0.516-0.601-0.773-1.375-0.773-2.324V234.094z M114.351,234.214c0,0.616,0.121,1.119,0.363,1.51
	c0.238,0.387,0.613,0.579,1.125,0.579c0.496,0,0.867-0.192,1.113-0.579c0.25-0.391,0.375-0.894,0.375-1.51v-0.123
	c0-0.604-0.125-1.102-0.375-1.49c-0.246-0.396-0.621-0.593-1.125-0.593c-0.496,0-0.867,0.197-1.113,0.593
	c-0.242,0.393-0.363,0.89-0.363,1.49V234.214z M121.505,237.322h-1.424v-9.141h1.424V237.322z M124.616,229.43h-1.424v-1.248h1.424
	V229.43z M124.616,237.322h-1.424v-6.339h1.424V237.322z M129.772,235.601c0-0.22-0.094-0.4-0.281-0.546
	c-0.188-0.145-0.537-0.271-1.049-0.381c-0.758-0.16-1.331-0.388-1.72-0.683s-0.583-0.696-0.583-1.203
	c0-0.532,0.225-0.985,0.674-1.36c0.449-0.374,1.041-0.563,1.775-0.563c0.773,0,1.388,0.19,1.843,0.571s0.673,0.853,0.653,1.415
	l-0.012,0.035h-1.365c0-0.262-0.1-0.486-0.299-0.674s-0.473-0.281-0.82-0.281c-0.344,0-0.605,0.077-0.785,0.231
	s-0.27,0.343-0.27,0.565c0,0.224,0.085,0.399,0.255,0.53s0.515,0.247,1.034,0.349c0.797,0.164,1.388,0.396,1.772,0.694
	s0.577,0.706,0.577,1.222c0,0.57-0.235,1.033-0.706,1.389s-1.091,0.533-1.86,0.533c-0.824,0-1.475-0.21-1.951-0.633
	c-0.477-0.422-0.703-0.906-0.68-1.453l0.012-0.035h1.324c0.016,0.367,0.148,0.635,0.398,0.803s0.555,0.252,0.914,0.252
	c0.367,0,0.65-0.07,0.85-0.212C129.673,236.027,129.772,235.838,129.772,235.601z M135.169,237.445
	c-0.898,0-1.614-0.294-2.147-0.882s-0.8-1.342-0.8-2.265v-0.234c0-0.922,0.265-1.687,0.794-2.294s1.192-0.909,1.989-0.905
	c0.855,0,1.511,0.259,1.966,0.776s0.683,1.213,0.683,2.083v0.838h-3.955l-0.012,0.029c0.023,0.503,0.171,0.913,0.442,1.232
	s0.647,0.479,1.128,0.479c0.383,0,0.711-0.047,0.984-0.141s0.537-0.228,0.791-0.404l0.457,0.934
	c-0.238,0.212-0.555,0.392-0.949,0.536C136.146,237.373,135.688,237.445,135.169,237.445z M135.005,232.008
	c-0.352,0-0.641,0.14-0.867,0.419s-0.367,0.634-0.422,1.063l0.012,0.029h2.514v-0.146c0-0.402-0.103-0.73-0.308-0.984
	S135.419,232.008,135.005,232.008z"/>
<path id="FLWcampania_1_" d="M90.854,250.237l0.012,0.035c0.016,0.863-0.265,1.565-0.841,2.106s-1.356,0.812-2.341,0.812
	c-0.996,0-1.806-0.335-2.429-1.004c-0.623-0.671-0.935-1.527-0.935-2.57v-1.623c0-1.039,0.308-1.896,0.923-2.569
	c0.615-0.673,1.415-1.011,2.399-1.011c1.008,0,1.802,0.265,2.382,0.794s0.862,1.241,0.847,2.136l-0.012,0.035h-1.377
	c0-0.574-0.155-1.021-0.466-1.342s-0.769-0.48-1.374-0.48c-0.582,0-1.044,0.23-1.386,0.691c-0.342,0.46-0.513,1.038-0.513,1.732
	v1.634c0,0.702,0.175,1.283,0.524,1.744c0.35,0.46,0.821,0.69,1.415,0.69c0.59,0,1.037-0.157,1.342-0.473s0.457-0.762,0.457-1.338
	H90.854z M95.894,253.067c-0.051-0.16-0.093-0.316-0.126-0.469s-0.056-0.305-0.067-0.457c-0.195,0.297-0.452,0.546-0.771,0.747
	s-0.675,0.302-1.069,0.302c-0.66,0-1.167-0.17-1.521-0.51s-0.53-0.807-0.53-1.4c0-0.613,0.242-1.091,0.727-1.433
	s1.166-0.513,2.045-0.513h1.107v-0.556c0-0.333-0.098-0.593-0.293-0.78s-0.475-0.281-0.838-0.281c-0.324,0-0.582,0.078-0.773,0.234
	s-0.287,0.357-0.287,0.604h-1.371l-0.006-0.035c-0.027-0.5,0.196-0.943,0.671-1.33s1.093-0.58,1.854-0.58
	c0.738,0,1.334,0.188,1.787,0.563s0.68,0.914,0.68,1.617v2.818c0,0.262,0.018,0.513,0.053,0.753c0.035,0.241,0.092,0.476,0.17,0.706
	H95.894z M94.147,252.048c0.359,0,0.683-0.09,0.97-0.269c0.287-0.181,0.478-0.386,0.571-0.616v-0.938h-1.131
	c-0.414,0-0.738,0.103-0.973,0.309c-0.234,0.204-0.352,0.445-0.352,0.723c0,0.242,0.079,0.435,0.237,0.576
	C93.629,251.977,93.854,252.048,94.147,252.048z M99.907,246.728l0.076,0.826c0.207-0.301,0.467-0.533,0.779-0.697
	s0.674-0.246,1.084-0.246c0.414,0,0.77,0.094,1.066,0.281s0.52,0.469,0.668,0.844c0.195-0.352,0.453-0.627,0.773-0.826
	s0.695-0.299,1.125-0.299c0.637,0,1.14,0.218,1.509,0.653c0.369,0.437,0.554,1.097,0.554,1.983v3.82h-1.424v-3.826
	c0-0.539-0.093-0.918-0.278-1.137s-0.464-0.328-0.835-0.328c-0.305,0-0.563,0.082-0.773,0.246s-0.363,0.385-0.457,0.662
	c0,0.059,0.002,0.109,0.006,0.152s0.006,0.084,0.006,0.123v4.107h-1.424v-3.826c0-0.52-0.095-0.894-0.284-1.121
	c-0.189-0.229-0.468-0.344-0.835-0.344c-0.289,0-0.534,0.056-0.735,0.167s-0.36,0.269-0.478,0.472v4.652h-1.424v-6.34H99.907z
	 M114.597,250.108c0,0.922-0.217,1.666-0.65,2.232s-1.037,0.85-1.811,0.85c-0.359,0-0.678-0.064-0.955-0.193
	s-0.516-0.318-0.715-0.567v3.075h-1.424v-8.777h1.201l0.141,0.797c0.203-0.297,0.448-0.523,0.735-0.679
	c0.287-0.157,0.62-0.235,0.999-0.235c0.781,0,1.39,0.31,1.825,0.929s0.653,1.435,0.653,2.446V250.108z M113.179,249.982
	c0-0.647-0.122-1.177-0.366-1.589c-0.244-0.411-0.608-0.617-1.093-0.617c-0.297,0-0.549,0.063-0.756,0.191
	c-0.207,0.126-0.373,0.303-0.498,0.528v2.861c0.125,0.223,0.291,0.394,0.498,0.513s0.463,0.178,0.768,0.178
	c0.484,0,0.847-0.178,1.087-0.535s0.36-0.826,0.36-1.407V249.982z M119.653,253.067c-0.051-0.16-0.093-0.316-0.126-0.469
	s-0.056-0.305-0.067-0.457c-0.195,0.297-0.452,0.546-0.771,0.747s-0.675,0.302-1.069,0.302c-0.66,0-1.167-0.17-1.521-0.51
	s-0.53-0.807-0.53-1.4c0-0.613,0.242-1.091,0.727-1.433s1.166-0.513,2.045-0.513h1.107v-0.556c0-0.333-0.098-0.593-0.293-0.78
	s-0.475-0.281-0.838-0.281c-0.324,0-0.582,0.078-0.773,0.234s-0.287,0.357-0.287,0.604h-1.371l-0.006-0.035
	c-0.027-0.5,0.196-0.943,0.671-1.33s1.093-0.58,1.854-0.58c0.738,0,1.334,0.188,1.787,0.563s0.68,0.914,0.68,1.617v2.818
	c0,0.262,0.018,0.513,0.053,0.753c0.035,0.241,0.092,0.476,0.17,0.706H119.653z M117.907,252.048c0.359,0,0.683-0.09,0.97-0.269
	c0.287-0.181,0.478-0.386,0.571-0.616v-0.938h-1.131c-0.414,0-0.738,0.103-0.973,0.309c-0.234,0.204-0.352,0.445-0.352,0.723
	c0,0.242,0.079,0.435,0.237,0.576C117.389,251.977,117.614,252.048,117.907,252.048z M123.655,246.728l0.082,0.914
	c0.207-0.324,0.468-0.577,0.782-0.758c0.314-0.183,0.669-0.273,1.063-0.273c0.66,0,1.175,0.2,1.544,0.601s0.554,1.024,0.554,1.872
	v3.984h-1.424v-3.973c0-0.477-0.099-0.815-0.296-1.017s-0.497-0.302-0.899-0.302c-0.277,0-0.525,0.062-0.744,0.185
	c-0.219,0.122-0.398,0.292-0.539,0.507v4.6h-1.424v-6.34H123.655z M130.681,245.175h-1.424v-1.248h1.424V245.175z M130.681,253.067
	h-1.424v-6.34h1.424V253.067z M136.089,253.067c-0.051-0.16-0.093-0.316-0.126-0.469s-0.056-0.305-0.067-0.457
	c-0.195,0.297-0.452,0.546-0.771,0.747s-0.675,0.302-1.069,0.302c-0.66,0-1.167-0.17-1.521-0.51s-0.53-0.807-0.53-1.4
	c0-0.613,0.242-1.091,0.727-1.433s1.166-0.513,2.045-0.513h1.107v-0.556c0-0.333-0.098-0.593-0.293-0.78s-0.475-0.281-0.838-0.281
	c-0.324,0-0.582,0.078-0.773,0.234s-0.287,0.357-0.287,0.604h-1.371l-0.006-0.035c-0.027-0.5,0.196-0.943,0.671-1.33
	s1.093-0.58,1.854-0.58c0.738,0,1.334,0.188,1.787,0.563s0.68,0.914,0.68,1.617v2.818c0,0.262,0.018,0.513,0.053,0.753
	c0.035,0.241,0.092,0.476,0.17,0.706H136.089z M134.343,252.048c0.359,0,0.683-0.09,0.97-0.269c0.287-0.181,0.478-0.386,0.571-0.616
	v-0.938h-1.131c-0.414,0-0.738,0.103-0.973,0.309c-0.234,0.204-0.352,0.445-0.352,0.723c0,0.242,0.079,0.435,0.237,0.576
	C133.824,251.977,134.05,252.048,134.343,252.048z"/>
<path id="FLWpuglia_1_" d="M106.312,269.517v3.234h-1.424v-8.531h3.334c0.941,0,1.679,0.243,2.212,0.73
	c0.533,0.485,0.8,1.125,0.8,1.918c0,0.801-0.267,1.442-0.8,1.924c-0.533,0.483-1.271,0.725-2.212,0.725H106.312z M106.312,268.374
	h1.91c0.527,0,0.924-0.141,1.189-0.422s0.398-0.639,0.398-1.072s-0.133-0.795-0.398-1.084s-0.662-0.434-1.189-0.434h-1.91V268.374z
	 M116.407,271.825c-0.199,0.336-0.451,0.595-0.756,0.777c-0.305,0.182-0.656,0.271-1.055,0.271c-0.68,0-1.211-0.217-1.594-0.65
	s-0.574-1.107-0.574-2.021v-3.791h1.418v3.803c0,0.555,0.09,0.943,0.27,1.166s0.451,0.334,0.814,0.334
	c0.344,0,0.632-0.062,0.864-0.185s0.415-0.302,0.548-0.536v-4.582h1.424v6.34h-1.242L116.407,271.825z M118.997,269.669
	c0-1.008,0.221-1.822,0.662-2.443s1.055-0.932,1.84-0.932c0.379,0,0.712,0.081,0.999,0.243c0.287,0.163,0.53,0.396,0.729,0.7
	l0.141-0.826h1.184v6.34c0,0.816-0.252,1.447-0.756,1.893s-1.219,0.668-2.145,0.668c-0.309,0-0.642-0.044-0.999-0.132
	s-0.681-0.204-0.97-0.349l0.305-1.119c0.234,0.121,0.493,0.216,0.776,0.284s0.575,0.103,0.876,0.103c0.516,0,0.893-0.11,1.131-0.331
	s0.357-0.56,0.357-1.017v-0.65c-0.199,0.254-0.435,0.446-0.706,0.577s-0.583,0.196-0.935,0.196c-0.777,0-1.387-0.283-1.828-0.85
	s-0.662-1.311-0.662-2.232V269.669z M120.421,269.792c0,0.582,0.116,1.048,0.349,1.397s0.593,0.524,1.081,0.524
	c0.305,0,0.562-0.063,0.771-0.19c0.209-0.127,0.378-0.31,0.507-0.548v-2.777c-0.133-0.23-0.304-0.41-0.513-0.542
	c-0.209-0.131-0.46-0.196-0.753-0.196c-0.488,0-0.851,0.205-1.087,0.615s-0.354,0.941-0.354,1.594V269.792z M127.569,272.751h-1.424
	v-9.141h1.424V272.751z M130.681,264.858h-1.424v-1.248h1.424V264.858z M130.681,272.751h-1.424v-6.34h1.424V272.751z
	 M136.089,272.751c-0.051-0.16-0.093-0.316-0.126-0.469s-0.056-0.305-0.067-0.457c-0.195,0.297-0.452,0.546-0.771,0.747
	s-0.675,0.302-1.069,0.302c-0.66,0-1.167-0.17-1.521-0.51s-0.53-0.807-0.53-1.4c0-0.613,0.242-1.091,0.727-1.433
	s1.166-0.513,2.045-0.513h1.107v-0.557c0-0.332-0.098-0.592-0.293-0.779c-0.195-0.187-0.475-0.281-0.838-0.281
	c-0.324,0-0.582,0.078-0.773,0.234s-0.287,0.357-0.287,0.604h-1.371l-0.006-0.035c-0.027-0.5,0.196-0.943,0.671-1.33
	s1.093-0.58,1.854-0.58c0.738,0,1.334,0.188,1.787,0.563s0.68,0.914,0.68,1.617v2.818c0,0.262,0.018,0.513,0.053,0.753
	s0.092,0.476,0.17,0.706H136.089z M134.343,271.731c0.359,0,0.683-0.09,0.97-0.27s0.478-0.385,0.571-0.615v-0.938h-1.131
	c-0.414,0-0.738,0.103-0.973,0.309c-0.234,0.204-0.352,0.445-0.352,0.723c0,0.242,0.079,0.435,0.237,0.578
	C133.824,271.66,134.05,271.731,134.343,271.731z"/>
<path id="FLWbasilicata_1_" d="M85.669,285.545v-8.531h2.836c0.945,0,1.684,0.194,2.215,0.583s0.797,0.971,0.797,1.743
	c0,0.387-0.111,0.732-0.334,1.037s-0.531,0.531-0.926,0.68c0.508,0.113,0.898,0.357,1.172,0.732s0.41,0.812,0.41,1.307
	c0,0.801-0.262,1.409-0.785,1.825s-1.246,0.624-2.168,0.624H85.669z M87.093,280.605h1.57c0.441,0,0.79-0.104,1.046-0.313
	s0.384-0.504,0.384-0.888c0-0.422-0.135-0.735-0.404-0.94s-0.664-0.308-1.184-0.308h-1.412V280.605z M87.093,281.667v2.736h1.793
	c0.492,0,0.871-0.113,1.137-0.336c0.266-0.226,0.398-0.549,0.398-0.975c0-0.452-0.111-0.803-0.334-1.053
	c-0.223-0.249-0.57-0.373-1.043-0.373H87.093z M96.989,285.545c-0.051-0.159-0.093-0.316-0.126-0.469s-0.056-0.305-0.067-0.456
	c-0.195,0.297-0.452,0.545-0.771,0.746s-0.675,0.301-1.069,0.301c-0.66,0-1.167-0.169-1.521-0.509c-0.354-0.339-0.53-0.807-0.53-1.4
	c0-0.613,0.242-1.091,0.727-1.433s1.166-0.513,2.045-0.513h1.107v-0.557c0-0.332-0.098-0.592-0.293-0.779s-0.475-0.281-0.838-0.281
	c-0.324,0-0.582,0.078-0.773,0.234s-0.287,0.358-0.287,0.604h-1.371l-0.006-0.036c-0.027-0.5,0.196-0.943,0.671-1.331
	c0.475-0.386,1.093-0.579,1.854-0.579c0.738,0,1.334,0.188,1.787,0.563c0.453,0.374,0.68,0.913,0.68,1.616v2.818
	c0,0.262,0.018,0.513,0.053,0.753s0.092,0.476,0.17,0.706H96.989z M95.243,284.525c0.359,0,0.683-0.09,0.97-0.27
	s0.478-0.385,0.571-0.615v-0.937h-1.131c-0.414,0-0.738,0.102-0.973,0.307s-0.352,0.446-0.352,0.725
	c0,0.241,0.079,0.434,0.237,0.576S94.95,284.525,95.243,284.525z M103.265,283.822c0-0.219-0.094-0.4-0.281-0.545
	c-0.188-0.144-0.537-0.271-1.049-0.381c-0.758-0.16-1.331-0.388-1.72-0.683s-0.583-0.695-0.583-1.204
	c0-0.531,0.225-0.984,0.674-1.358c0.449-0.376,1.041-0.563,1.775-0.563c0.773,0,1.388,0.191,1.843,0.571
	c0.455,0.381,0.673,0.853,0.653,1.415l-0.012,0.035H103.2c0-0.262-0.1-0.486-0.299-0.674s-0.473-0.28-0.82-0.28
	c-0.344,0-0.605,0.076-0.785,0.23s-0.27,0.343-0.27,0.566c0,0.222,0.085,0.398,0.255,0.529s0.515,0.247,1.034,0.349
	c0.797,0.164,1.388,0.396,1.772,0.694s0.577,0.706,0.577,1.222c0,0.571-0.235,1.033-0.706,1.389s-1.091,0.532-1.86,0.532
	c-0.824,0-1.475-0.21-1.951-0.631c-0.477-0.423-0.703-0.907-0.68-1.454l0.012-0.035h1.324c0.016,0.367,0.148,0.635,0.398,0.804
	c0.25,0.168,0.555,0.252,0.914,0.252c0.367,0,0.65-0.071,0.85-0.212C103.165,284.251,103.265,284.061,103.265,283.822z
	 M107.46,277.652h-1.424v-1.248h1.424V277.652z M107.46,285.545h-1.424v-6.34h1.424V285.545z M110.571,285.545h-1.424v-9.141h1.424
	V285.545z M113.683,277.652h-1.424v-1.248h1.424V277.652z M113.683,285.545h-1.424v-6.34h1.424V285.545z M117.896,284.525
	c0.348,0,0.641-0.102,0.879-0.306s0.357-0.46,0.357-0.767h1.289l0.012,0.035c0.02,0.594-0.222,1.105-0.724,1.535
	s-1.106,0.644-1.813,0.644c-0.934,0-1.649-0.299-2.147-0.901c-0.498-0.602-0.747-1.362-0.747-2.285v-0.205
	c0-0.918,0.249-1.679,0.747-2.282s1.214-0.905,2.147-0.905c0.762,0,1.38,0.222,1.854,0.665s0.704,1.007,0.688,1.69l-0.012,0.035
	h-1.295c0-0.348-0.114-0.643-0.343-0.885s-0.526-0.363-0.894-0.363c-0.535,0-0.914,0.194-1.137,0.582
	c-0.223,0.389-0.334,0.875-0.334,1.46v0.205c0,0.597,0.111,1.088,0.334,1.473C116.981,284.333,117.36,284.525,117.896,284.525z
	 M125.39,285.545c-0.051-0.159-0.093-0.316-0.126-0.469s-0.056-0.305-0.067-0.456c-0.195,0.297-0.452,0.545-0.771,0.746
	s-0.675,0.301-1.069,0.301c-0.66,0-1.167-0.169-1.521-0.509c-0.354-0.339-0.53-0.807-0.53-1.4c0-0.613,0.242-1.091,0.727-1.433
	s1.166-0.513,2.045-0.513h1.107v-0.557c0-0.332-0.098-0.592-0.293-0.779s-0.475-0.281-0.838-0.281c-0.324,0-0.582,0.078-0.773,0.234
	s-0.287,0.358-0.287,0.604h-1.371l-0.006-0.036c-0.027-0.5,0.196-0.943,0.671-1.331c0.475-0.386,1.093-0.579,1.854-0.579
	c0.738,0,1.334,0.188,1.787,0.563c0.453,0.374,0.68,0.913,0.68,1.616v2.818c0,0.262,0.018,0.513,0.053,0.753s0.092,0.476,0.17,0.706
	H125.39z M123.644,284.525c0.359,0,0.683-0.09,0.97-0.27s0.478-0.385,0.571-0.615v-0.937h-1.131c-0.414,0-0.738,0.102-0.973,0.307
	s-0.352,0.446-0.352,0.725c0,0.241,0.079,0.434,0.237,0.576S123.351,284.525,123.644,284.525z M129.872,277.664v1.541h1.137v1.055
	h-1.137v3.504c0,0.262,0.057,0.448,0.17,0.56s0.264,0.167,0.451,0.167c0.078,0,0.154-0.007,0.229-0.021s0.145-0.031,0.211-0.056
	l0.152,1.043c-0.121,0.066-0.266,0.118-0.434,0.155s-0.342,0.055-0.521,0.055c-0.523,0-0.934-0.152-1.23-0.459
	s-0.445-0.788-0.445-1.444v-3.504h-0.967v-1.055h0.967v-1.541H129.872z M136.089,285.545c-0.051-0.159-0.093-0.316-0.126-0.469
	s-0.056-0.305-0.067-0.456c-0.195,0.297-0.452,0.545-0.771,0.746s-0.675,0.301-1.069,0.301c-0.66,0-1.167-0.169-1.521-0.509
	c-0.354-0.339-0.53-0.807-0.53-1.4c0-0.613,0.242-1.091,0.727-1.433s1.166-0.513,2.045-0.513h1.107v-0.557
	c0-0.332-0.098-0.592-0.293-0.779s-0.475-0.281-0.838-0.281c-0.324,0-0.582,0.078-0.773,0.234s-0.287,0.358-0.287,0.604h-1.371
	l-0.006-0.036c-0.027-0.5,0.196-0.943,0.671-1.331c0.475-0.386,1.093-0.579,1.854-0.579c0.738,0,1.334,0.188,1.787,0.563
	c0.453,0.374,0.68,0.913,0.68,1.616v2.818c0,0.262,0.018,0.513,0.053,0.753s0.092,0.476,0.17,0.706H136.089z M134.343,284.525
	c0.359,0,0.683-0.09,0.97-0.27s0.478-0.385,0.571-0.615v-0.937h-1.131c-0.414,0-0.738,0.102-0.973,0.307s-0.352,0.446-0.352,0.725
	c0,0.241,0.079,0.434,0.237,0.576S134.05,284.525,134.343,284.525z"/>
<path id="FLWcalabria_1_" d="M100.821,294.688l0.012,0.035c0.016,0.863-0.265,1.565-0.841,2.106s-1.356,0.812-2.341,0.812
	c-0.996,0-1.806-0.335-2.429-1.005s-0.935-1.526-0.935-2.568v-1.624c0-1.039,0.308-1.896,0.923-2.569s1.415-1.011,2.399-1.011
	c1.008,0,1.802,0.265,2.382,0.794s0.862,1.241,0.847,2.135l-0.012,0.036H99.45c0-0.574-0.155-1.021-0.466-1.341
	c-0.311-0.32-0.769-0.481-1.374-0.481c-0.582,0-1.044,0.23-1.386,0.691c-0.342,0.46-0.513,1.038-0.513,1.732v1.633
	c0,0.703,0.175,1.284,0.524,1.745s0.821,0.69,1.415,0.69c0.59,0,1.037-0.157,1.342-0.473s0.457-0.762,0.457-1.338H100.821z
	 M105.86,297.519c-0.051-0.161-0.093-0.317-0.126-0.47s-0.056-0.305-0.067-0.457c-0.195,0.297-0.452,0.546-0.771,0.747
	s-0.675,0.302-1.069,0.302c-0.66,0-1.167-0.17-1.521-0.51s-0.53-0.807-0.53-1.4c0-0.613,0.242-1.091,0.727-1.433
	s1.166-0.513,2.045-0.513h1.107v-0.557c0-0.332-0.098-0.591-0.293-0.778c-0.195-0.188-0.475-0.283-0.838-0.283
	c-0.324,0-0.582,0.079-0.773,0.236c-0.191,0.155-0.287,0.356-0.287,0.603h-1.371l-0.006-0.035c-0.027-0.5,0.196-0.943,0.671-1.33
	s1.093-0.58,1.854-0.58c0.738,0,1.334,0.188,1.787,0.563s0.68,0.914,0.68,1.617v2.818c0,0.262,0.018,0.513,0.053,0.753
	s0.092,0.477,0.17,0.707H105.86z M104.114,296.498c0.359,0,0.683-0.09,0.97-0.27s0.478-0.385,0.571-0.615v-0.938h-1.131
	c-0.414,0-0.738,0.104-0.973,0.308c-0.234,0.205-0.352,0.446-0.352,0.724c0,0.243,0.079,0.435,0.237,0.577
	S103.821,296.498,104.114,296.498z M110.091,297.519h-1.424v-9.142h1.424V297.519z M115.499,297.519
	c-0.051-0.161-0.093-0.317-0.126-0.47s-0.056-0.305-0.067-0.457c-0.195,0.297-0.452,0.546-0.771,0.747s-0.675,0.302-1.069,0.302
	c-0.66,0-1.167-0.17-1.521-0.51s-0.53-0.807-0.53-1.4c0-0.613,0.242-1.091,0.727-1.433s1.166-0.513,2.045-0.513h1.107v-0.557
	c0-0.332-0.098-0.591-0.293-0.778c-0.195-0.188-0.475-0.283-0.838-0.283c-0.324,0-0.582,0.079-0.773,0.236
	c-0.191,0.155-0.287,0.356-0.287,0.603h-1.371l-0.006-0.035c-0.027-0.5,0.196-0.943,0.671-1.33s1.093-0.58,1.854-0.58
	c0.738,0,1.334,0.188,1.787,0.563s0.68,0.914,0.68,1.617v2.818c0,0.262,0.018,0.513,0.053,0.753s0.092,0.477,0.17,0.707H115.499z
	 M113.753,296.498c0.359,0,0.683-0.09,0.97-0.27s0.478-0.385,0.571-0.615v-0.938h-1.131c-0.414,0-0.738,0.104-0.973,0.308
	c-0.234,0.205-0.352,0.446-0.352,0.724c0,0.243,0.079,0.435,0.237,0.577S113.46,296.498,113.753,296.498z M123.778,294.559
	c0,0.926-0.216,1.671-0.647,2.235s-1.04,0.847-1.825,0.847c-0.395,0-0.737-0.08-1.028-0.24s-0.534-0.395-0.729-0.703l-0.141,0.821
	h-1.195v-9.142h1.424v3.521c0.195-0.27,0.43-0.477,0.703-0.621c0.273-0.144,0.592-0.217,0.955-0.217
	c0.793,0,1.405,0.309,1.837,0.927c0.432,0.616,0.647,1.433,0.647,2.448V294.559z M122.354,294.436c0-0.66-0.113-1.193-0.34-1.6
	s-0.586-0.609-1.078-0.609c-0.316,0-0.581,0.07-0.794,0.212c-0.213,0.14-0.382,0.335-0.507,0.585v2.66
	c0.121,0.255,0.289,0.45,0.504,0.589s0.484,0.208,0.809,0.208c0.492,0,0.85-0.173,1.072-0.519s0.334-0.813,0.334-1.403V294.436z
	 M128.167,292.461l-0.609-0.022c-0.277,0-0.509,0.058-0.694,0.175s-0.329,0.283-0.431,0.498v4.407h-1.424v-6.341h1.301l0.094,0.92
	c0.16-0.324,0.366-0.578,0.618-0.762s0.542-0.275,0.87-0.275c0.086,0,0.166,0.007,0.24,0.021s0.143,0.03,0.205,0.05L128.167,292.461
	z M130.681,289.625h-1.424v-1.248h1.424V289.625z M130.681,297.519h-1.424v-6.341h1.424V297.519z M136.089,297.519
	c-0.051-0.161-0.093-0.317-0.126-0.47s-0.056-0.305-0.067-0.457c-0.195,0.297-0.452,0.546-0.771,0.747s-0.675,0.302-1.069,0.302
	c-0.66,0-1.167-0.17-1.521-0.51s-0.53-0.807-0.53-1.4c0-0.613,0.242-1.091,0.727-1.433s1.166-0.513,2.045-0.513h1.107v-0.557
	c0-0.332-0.098-0.591-0.293-0.778c-0.195-0.188-0.475-0.283-0.838-0.283c-0.324,0-0.582,0.079-0.773,0.236
	c-0.191,0.155-0.287,0.356-0.287,0.603h-1.371l-0.006-0.035c-0.027-0.5,0.196-0.943,0.671-1.33s1.093-0.58,1.854-0.58
	c0.738,0,1.334,0.188,1.787,0.563s0.68,0.914,0.68,1.617v2.818c0,0.262,0.018,0.513,0.053,0.753s0.092,0.477,0.17,0.707H136.089z
	 M134.343,296.498c0.359,0,0.683-0.09,0.97-0.27s0.478-0.385,0.571-0.615v-0.938h-1.131c-0.414,0-0.738,0.104-0.973,0.308
	c-0.234,0.205-0.352,0.446-0.352,0.724c0,0.243,0.079,0.435,0.237,0.577S134.05,296.498,134.343,296.498z"/>
<path id="FLWsicilia_1_" d="M110.788,312.542c0-0.353-0.132-0.643-0.396-0.868s-0.729-0.428-1.397-0.606
	c-0.953-0.25-1.687-0.58-2.2-0.993c-0.514-0.412-0.771-0.952-0.771-1.62c0-0.688,0.284-1.254,0.853-1.699s1.302-0.668,2.2-0.668
	c0.938,0,1.69,0.253,2.259,0.759s0.843,1.112,0.823,1.819l-0.012,0.035h-1.365c0-0.438-0.148-0.792-0.445-1.063
	c-0.297-0.272-0.721-0.408-1.271-0.408c-0.52,0-0.919,0.113-1.198,0.339s-0.419,0.519-0.419,0.877c0,0.323,0.151,0.593,0.454,0.807
	c0.303,0.216,0.804,0.417,1.503,0.608c0.918,0.246,1.615,0.586,2.092,1.02s0.715,0.986,0.715,1.658c0,0.711-0.284,1.276-0.853,1.697
	c-0.568,0.42-1.315,0.629-2.241,0.629c-0.891,0-1.672-0.237-2.344-0.712s-0.998-1.122-0.979-1.942l0.012-0.035h1.371
	c0,0.52,0.18,0.907,0.539,1.163s0.826,0.384,1.4,0.384c0.527,0,0.938-0.106,1.23-0.318S110.788,312.905,110.788,312.542z
	 M115.048,306.849h-1.424v-1.248h1.424V306.849z M115.048,314.741h-1.424v-6.34h1.424V314.741z M119.261,313.722
	c0.348,0,0.641-0.102,0.879-0.307c0.238-0.203,0.357-0.459,0.357-0.766h1.289l0.012,0.035c0.02,0.595-0.222,1.105-0.724,1.535
	s-1.106,0.645-1.813,0.645c-0.934,0-1.649-0.301-2.147-0.902s-0.747-1.363-0.747-2.285v-0.205c0-0.918,0.249-1.68,0.747-2.282
	c0.498-0.604,1.214-0.905,2.147-0.905c0.762,0,1.38,0.222,1.854,0.666c0.475,0.442,0.704,1.006,0.688,1.689l-0.012,0.035h-1.295
	c0-0.348-0.114-0.643-0.343-0.885s-0.526-0.363-0.894-0.363c-0.535,0-0.914,0.193-1.137,0.582c-0.223,0.388-0.334,0.875-0.334,1.461
	v0.204c0,0.597,0.111,1.087,0.334,1.472C118.347,313.529,118.726,313.722,119.261,313.722z M124.458,306.849h-1.424v-1.248h1.424
	V306.849z M124.458,314.741h-1.424v-6.34h1.424V314.741z M127.569,314.741h-1.424v-9.141h1.424V314.741z M130.681,306.849h-1.424
	v-1.248h1.424V306.849z M130.681,314.741h-1.424v-6.34h1.424V314.741z M136.089,314.741c-0.051-0.16-0.093-0.316-0.126-0.469
	s-0.056-0.305-0.067-0.457c-0.195,0.297-0.452,0.546-0.771,0.747s-0.675,0.302-1.069,0.302c-0.66,0-1.167-0.17-1.521-0.51
	s-0.53-0.807-0.53-1.4c0-0.613,0.242-1.091,0.727-1.433s1.166-0.513,2.045-0.513h1.107v-0.557c0-0.332-0.098-0.592-0.293-0.779
	s-0.475-0.281-0.838-0.281c-0.324,0-0.582,0.078-0.773,0.234s-0.287,0.357-0.287,0.604h-1.371l-0.006-0.035
	c-0.027-0.5,0.196-0.943,0.671-1.33s1.093-0.58,1.854-0.58c0.738,0,1.334,0.188,1.787,0.563s0.68,0.914,0.68,1.617v2.818
	c0,0.262,0.018,0.513,0.053,0.754c0.035,0.239,0.092,0.475,0.17,0.705H136.089z M134.343,313.722c0.359,0,0.683-0.09,0.97-0.27
	s0.478-0.385,0.571-0.615v-0.938h-1.131c-0.414,0-0.738,0.103-0.973,0.308s-0.352,0.446-0.352,0.724
	c0,0.242,0.079,0.435,0.237,0.577C133.824,313.651,134.05,313.722,134.343,313.722z"/>
<path id="FLWsardegna_1_" d="M92.108,328.718c0-0.354-0.132-0.644-0.396-0.869s-0.729-0.428-1.397-0.607
	c-0.953-0.25-1.687-0.58-2.2-0.992s-0.771-0.953-0.771-1.62c0-0.688,0.284-1.255,0.853-1.699c0.568-0.446,1.302-0.669,2.2-0.669
	c0.938,0,1.69,0.254,2.259,0.76s0.843,1.111,0.823,1.818l-0.012,0.035h-1.365c0-0.438-0.148-0.791-0.445-1.063
	s-0.721-0.408-1.271-0.408c-0.52,0-0.919,0.113-1.198,0.34s-0.419,0.518-0.419,0.877c0,0.323,0.151,0.593,0.454,0.807
	c0.303,0.215,0.804,0.417,1.503,0.607c0.918,0.247,1.615,0.586,2.092,1.02s0.715,0.986,0.715,1.659c0,0.71-0.284,1.276-0.853,1.696
	s-1.315,0.629-2.241,0.629c-0.891,0-1.672-0.236-2.344-0.711s-0.998-1.123-0.979-1.943l0.012-0.035h1.371
	c0,0.52,0.18,0.908,0.539,1.164s0.826,0.384,1.4,0.384c0.527,0,0.938-0.106,1.23-0.318S92.108,329.079,92.108,328.718z
	 M98.665,330.915c-0.051-0.16-0.093-0.314-0.126-0.469c-0.033-0.152-0.056-0.305-0.067-0.457c-0.195,0.297-0.452,0.547-0.771,0.748
	c-0.318,0.2-0.675,0.301-1.069,0.301c-0.66,0-1.167-0.17-1.521-0.509c-0.354-0.341-0.53-0.808-0.53-1.4
	c0-0.613,0.242-1.091,0.727-1.433s1.166-0.513,2.045-0.513h1.107v-0.558c0-0.332-0.098-0.592-0.293-0.778
	c-0.195-0.188-0.475-0.282-0.838-0.282c-0.324,0-0.582,0.078-0.773,0.234s-0.287,0.357-0.287,0.604h-1.371l-0.006-0.035
	c-0.027-0.5,0.196-0.943,0.671-1.33s1.093-0.58,1.854-0.58c0.738,0,1.334,0.188,1.787,0.563c0.453,0.376,0.68,0.914,0.68,1.617
	v2.818c0,0.262,0.018,0.514,0.053,0.754s0.092,0.475,0.17,0.705H98.665z M96.919,329.896c0.359,0,0.683-0.091,0.97-0.271
	s0.478-0.385,0.571-0.615v-0.938h-1.131c-0.414,0-0.738,0.104-0.973,0.309s-0.352,0.445-0.352,0.723
	c0,0.243,0.079,0.436,0.237,0.578S96.626,329.896,96.919,329.896z M104.536,325.858l-0.609-0.023c-0.277,0-0.509,0.059-0.694,0.176
	c-0.186,0.118-0.329,0.283-0.431,0.498v4.406h-1.424v-6.34h1.301l0.094,0.921c0.16-0.325,0.366-0.579,0.618-0.763
	s0.542-0.275,0.87-0.275c0.086,0,0.166,0.008,0.24,0.021s0.143,0.029,0.205,0.05L104.536,325.858z M105.269,327.834
	c0-1.013,0.217-1.827,0.65-2.446s1.043-0.93,1.828-0.93c0.344,0,0.651,0.07,0.923,0.209s0.507,0.336,0.706,0.594v-3.486h1.424v9.141
	h-1.195l-0.141-0.784c-0.203,0.296-0.447,0.522-0.732,0.677s-0.617,0.23-0.996,0.23c-0.777,0-1.383-0.283-1.816-0.85
	s-0.65-1.31-0.65-2.232V327.834z M106.692,327.956c0,0.586,0.112,1.053,0.337,1.4s0.581,0.522,1.069,0.522
	c0.301,0,0.556-0.065,0.765-0.194s0.38-0.313,0.513-0.551v-2.766c-0.133-0.234-0.305-0.416-0.516-0.547s-0.461-0.197-0.75-0.197
	c-0.484,0-0.842,0.205-1.072,0.613s-0.346,0.939-0.346,1.597V327.956z M115.048,331.038c-0.898,0-1.614-0.293-2.147-0.881
	s-0.8-1.344-0.8-2.266v-0.234c0-0.922,0.265-1.686,0.794-2.293s1.192-0.91,1.989-0.906c0.855,0,1.511,0.26,1.966,0.777
	s0.683,1.211,0.683,2.082v0.838h-3.955l-0.012,0.029c0.023,0.503,0.171,0.913,0.442,1.232s0.647,0.479,1.128,0.479
	c0.383,0,0.711-0.048,0.984-0.142s0.537-0.229,0.791-0.404l0.457,0.934c-0.238,0.213-0.555,0.392-0.949,0.537
	C116.024,330.966,115.567,331.038,115.048,331.038z M114.884,325.601c-0.352,0-0.641,0.141-0.867,0.42s-0.367,0.633-0.422,1.063
	l0.012,0.03h2.514v-0.146c0-0.404-0.103-0.732-0.308-0.986S115.298,325.601,114.884,325.601z M118.423,327.834
	c0-1.009,0.221-1.823,0.662-2.444s1.055-0.932,1.84-0.932c0.379,0,0.712,0.082,0.999,0.244s0.53,0.395,0.729,0.699l0.141-0.826
	h1.184v6.34c0,0.816-0.252,1.447-0.756,1.893s-1.219,0.668-2.145,0.668c-0.309,0-0.642-0.043-0.999-0.131s-0.681-0.205-0.97-0.349
	l0.305-1.12c0.234,0.122,0.493,0.217,0.776,0.285s0.575,0.103,0.876,0.103c0.516,0,0.893-0.11,1.131-0.331s0.357-0.561,0.357-1.018
	v-0.65c-0.199,0.254-0.435,0.447-0.706,0.578s-0.583,0.195-0.935,0.195c-0.777,0-1.387-0.283-1.828-0.85s-0.662-1.31-0.662-2.232
	V327.834z M119.847,327.956c0,0.582,0.116,1.049,0.349,1.398s0.593,0.524,1.081,0.524c0.305,0,0.562-0.063,0.771-0.191
	c0.209-0.126,0.378-0.309,0.507-0.548v-2.777c-0.133-0.23-0.304-0.41-0.513-0.541s-0.46-0.197-0.753-0.197
	c-0.488,0-0.851,0.206-1.087,0.615c-0.236,0.41-0.354,0.941-0.354,1.595V327.956z M126.767,324.575l0.082,0.914
	c0.207-0.322,0.468-0.576,0.782-0.758s0.669-0.273,1.063-0.273c0.66,0,1.175,0.201,1.544,0.602s0.554,1.023,0.554,1.872v3.983
	h-1.424v-3.973c0-0.475-0.099-0.814-0.296-1.016s-0.497-0.303-0.899-0.303c-0.277,0-0.525,0.063-0.744,0.186
	s-0.398,0.291-0.539,0.506v4.6h-1.424v-6.34H126.767z M136.089,330.915c-0.051-0.16-0.093-0.314-0.126-0.469
	c-0.033-0.152-0.056-0.305-0.067-0.457c-0.195,0.297-0.452,0.547-0.771,0.748c-0.318,0.2-0.675,0.301-1.069,0.301
	c-0.66,0-1.167-0.17-1.521-0.509c-0.354-0.341-0.53-0.808-0.53-1.4c0-0.613,0.242-1.091,0.727-1.433s1.166-0.513,2.045-0.513h1.107
	v-0.558c0-0.332-0.098-0.592-0.293-0.778c-0.195-0.188-0.475-0.282-0.838-0.282c-0.324,0-0.582,0.078-0.773,0.234
	s-0.287,0.357-0.287,0.604h-1.371l-0.006-0.035c-0.027-0.5,0.196-0.943,0.671-1.33s1.093-0.58,1.854-0.58
	c0.738,0,1.334,0.188,1.787,0.563c0.453,0.376,0.68,0.914,0.68,1.617v2.818c0,0.262,0.018,0.514,0.053,0.754s0.092,0.475,0.17,0.705
	H136.089z M134.343,329.896c0.359,0,0.683-0.091,0.97-0.271s0.478-0.385,0.571-0.615v-0.938h-1.131
	c-0.414,0-0.738,0.104-0.973,0.309s-0.352,0.445-0.352,0.723c0,0.243,0.079,0.436,0.237,0.578S134.05,329.896,134.343,329.896z"/>
</svg>
