<?xml version="1.0" encoding="utf-8"?>
<!-- Generator: Adobe Illustrator 16.0.0, SVG Export Plug-In . SVG Version: 6.00 Build 0)  -->
<!DOCTYPE svg PUBLIC "-//W3C//DTD SVG 1.1//EN" "http://www.w3.org/Graphics/SVG/1.1/DTD/svg11.dtd">
<svg version="1.1" id="Livello_1" xmlns="http://www.w3.org/2000/svg" xmlns:xlink="http://www.w3.org/1999/xlink" x="0px" y="0px"
	 width="512px" height="314.242px" viewBox="0 0 512 314.242" enable-background="new 0 0 512 314.242" xml:space="preserve">
<rect fill="#FFFFFF" width="512" height="314.242"/>
<g>
	<path d="M502,10v294.242H10V10H502 M526.5-6.378H-14.833v330.667H512L526.5,4.242V-6.378z"/>
</g>
<line fill="none" stroke="#000000" stroke-miterlimit="10" x1="0" y1="50" x2="505.078" y2="50"/>
<line fill="none" stroke="#000000" stroke-miterlimit="10" x1="170.333" y1="4.242" x2="170.333" y2="50"/>
<rect x="0.167" y="9.576" width="170.334" height="40.424"/>
<g>
	<path fill="#FFFFFF" d="M29.933,23.127h1.084c1.025,0,2.021-0.117,3.135-0.117c2.688,0,4.299,1.033,4.299,3.933
		c0,2.644-1.604,4.116-4.585,4.116c-0.586,0-0.901-0.007-1.135-0.015v3.23h-2.798V23.127z M33.866,29.06
		c1.047,0,1.853-0.571,1.853-2.131c0-1.208-0.601-2.007-1.912-1.97c-0.344,0.007-0.762,0.029-1.077,0.081v3.962
		C33.039,29.03,33.412,29.06,33.866,29.06z"/>
	<path fill="#FFFFFF" d="M40.128,23.127h0.959c0.784,0,1.758-0.117,3.354-0.117c1.97,0,4.153,0.74,4.153,3.538
		c0,1.714-0.688,2.71-1.772,3.208c0.894,0.71,1.311,2.41,2.065,3.713l0.461,0.806h-3.076c-0.125-0.154-0.19-0.308-0.403-0.791
		c-0.593-1.326-0.85-3.12-1.758-3.179c-0.315,0.022-0.703,0.029-1.201,0.029v3.94h-2.783L40.128,23.127L40.128,23.127z
		 M44.281,28.452c1.135,0,1.633-0.828,1.633-1.853c0-0.835-0.352-1.619-1.816-1.619c-0.41,0-0.842,0.037-1.187,0.132V28.4
		C43.205,28.437,43.915,28.459,44.281,28.452z"/>
	<path fill="#FFFFFF" d="M55.678,23.01c3.164-0.088,5.068,2.139,5.002,5.676c-0.073,3.955-2.168,5.647-5.222,5.706
		c-3.289,0.066-5.215-2.205-5.149-5.75C50.382,24.687,52.58,23.098,55.678,23.01z M57.809,28.605c0-2.087-0.696-3.501-2.183-3.501
		c-1.348,0-2.446,0.886-2.446,3.618c0,2.109,0.762,3.625,2.329,3.625C56.93,32.348,57.809,31.293,57.809,28.605z"/>
	<path fill="#FFFFFF" d="M64.555,25.28h-2.981v-2.153h8.767v2.153h-2.974v8.994h-2.813L64.555,25.28L64.555,25.28z"/>
	<path fill="#FFFFFF" d="M76.596,23.01c3.164-0.088,5.068,2.139,5.002,5.676c-0.073,3.955-2.168,5.647-5.222,5.706
		c-3.289,0.066-5.215-2.205-5.149-5.75C71.3,24.687,73.498,23.098,76.596,23.01z M78.727,28.605c0-2.087-0.696-3.501-2.183-3.501
		c-1.348,0-2.446,0.886-2.446,3.618c0,2.109,0.762,3.625,2.329,3.625C77.848,32.348,78.727,31.293,78.727,28.605z"/>
	<path fill="#FFFFFF" d="M88.615,23.01c1.545,0,2.241,0.308,2.915,0.447l-0.366,2.41c-0.315-0.212-0.981-0.645-2.322-0.645
		c-1.707,0-3.04,1.179-3.04,3.333c0,2.205,1.077,3.684,3.157,3.684c0.952,0,2.043-0.41,2.417-0.718l0.007,2.285
		c-0.579,0.242-1.436,0.586-2.739,0.586c-3.684,0-5.735-2.219-5.735-5.669C82.909,24.951,85.429,23.01,88.615,23.01z"/>
	<path fill="#FFFFFF" d="M97.902,23.01c3.164-0.088,5.068,2.139,5.002,5.676c-0.073,3.955-2.168,5.647-5.222,5.706
		c-3.289,0.066-5.215-2.205-5.149-5.75C92.606,24.687,94.804,23.098,97.902,23.01z M100.033,28.605c0-2.087-0.696-3.501-2.183-3.501
		c-1.348,0-2.446,0.886-2.446,3.618c0,2.109,0.762,3.625,2.329,3.625C99.154,32.348,100.033,31.293,100.033,28.605z"/>
	<path fill="#FFFFFF" d="M104.86,23.127h2.834v9.045h3.677v2.102h-6.511V23.127z"/>
	<path fill="#FFFFFF" d="M122.826,23.01c3.164-0.088,5.068,2.139,5.002,5.676c-0.073,3.955-2.168,5.647-5.222,5.706
		c-3.289,0.066-5.215-2.205-5.149-5.75C117.531,24.687,119.728,23.098,122.826,23.01z M124.958,28.605
		c0-2.087-0.696-3.501-2.183-3.501c-1.348,0-2.446,0.886-2.446,3.618c0,2.109,0.762,3.625,2.329,3.625
		C124.079,32.348,124.958,31.293,124.958,28.605z"/>
	<path fill="#FFFFFF" d="M129.784,23.127h6.958v2.08h-4.175v2.659h3.171v2.073h-3.171v4.336h-2.783V23.127z"/>
</g>
<g>
	<path d="M194.409,23.054h3.179l3.911,11.221h-2.959l-0.615-2.08h-3.889l-0.586,2.08h-2.922L194.409,23.054z M197.346,30.246
		l-1.033-3.494l-0.366-1.443l-0.374,1.443l-0.989,3.494H197.346z"/>
	<path d="M207.622,31.535c0.542,0.308,1.772,0.718,2.944,0.71c1.055,0,1.509-0.286,1.509-0.945c0-0.71-0.601-0.989-2.263-1.78
		c-1.421-0.674-2.615-1.663-2.615-3.457c0-2.029,1.619-3.054,3.977-3.054c1.67,0,2.739,0.403,3.142,0.637l-0.432,2.095
		c-0.447-0.352-1.494-0.71-2.468-0.71c-1.055,0-1.538,0.374-1.538,0.938c0,0.674,0.579,1.04,1.926,1.655
		c1.919,0.864,3.062,1.714,3.062,3.464c0,2-1.443,3.303-4.065,3.303c-1.597,0-3.091-0.417-3.523-0.688L207.622,31.535z"/>
	<path d="M221.655,23.01c1.545,0,2.241,0.308,2.915,0.447l-0.366,2.41c-0.315-0.212-0.981-0.645-2.322-0.645
		c-1.707,0-3.04,1.179-3.04,3.333c0,2.205,1.077,3.684,3.157,3.684c0.952,0,2.043-0.41,2.417-0.718l0.007,2.285
		c-0.579,0.242-1.436,0.586-2.739,0.586c-3.684,0-5.735-2.219-5.735-5.669C215.95,24.951,218.469,23.01,221.655,23.01z"/>
	<path d="M228.635,23.054h3.179l3.911,11.221h-2.959l-0.615-2.08h-3.889l-0.586,2.08h-2.922L228.635,23.054z M231.572,30.246
		l-1.033-3.494l-0.366-1.443l-0.374,1.443l-0.989,3.494H231.572z"/>
	<path d="M236.853,23.127h0.959c0.784,0,1.758-0.117,3.354-0.117c1.97,0,4.153,0.74,4.153,3.538c0,1.714-0.688,2.71-1.772,3.208
		c0.894,0.71,1.311,2.41,2.065,3.713l0.461,0.806h-3.076c-0.125-0.154-0.19-0.308-0.403-0.791c-0.593-1.326-0.85-3.12-1.758-3.179
		c-0.315,0.022-0.703,0.029-1.201,0.029v3.94h-2.783L236.853,23.127L236.853,23.127z M241.006,28.452
		c1.135,0,1.633-0.828,1.633-1.853c0-0.835-0.352-1.619-1.816-1.619c-0.41,0-0.842,0.037-1.188,0.132V28.4
		C239.929,28.437,240.64,28.459,241.006,28.452z"/>
	<path d="M247.708,23.127h2.813v11.147h-2.813V23.127z"/>
	<path d="M253.142,23.127h2.607l3.801,6.116l0.776,1.626l-0.301-2.834v-4.907h2.526v11.147h-2.806l-3.61-5.969l-0.813-1.685
		l0.344,2.834v4.819h-2.527V23.127H253.142z"/>
	<path d="M270.215,23.01c1.633,0,2.358,0.278,3.201,0.438l-0.074,2.329c-0.586-0.3-1.523-0.586-3.018-0.586
		c-1.934,0-3.031,1.267-3.031,3.369c0,2.161,0.893,3.75,2.563,3.75c0.777,0,1.254-0.088,1.611-0.234v-1.948l-1.589-0.117V28.02
		h4.138v5.625c-0.871,0.037-1.589,0.747-4.115,0.747c-3.325,0-5.457-2.08-5.457-5.632C264.443,24.636,266.992,23.01,270.215,23.01z"
		/>
	<path d="M281.1,23.127h1.084c1.024,0,2.021-0.117,3.135-0.117c2.688,0,4.3,1.033,4.3,3.933c0,2.644-1.604,4.116-4.586,4.116
		c-0.587,0-0.9-0.007-1.136-0.015v3.23H281.1V23.127z M285.031,29.06c1.048,0,1.854-0.571,1.854-2.131
		c0-1.208-0.601-2.007-1.912-1.97c-0.344,0.007-0.762,0.029-1.076,0.081v3.962C284.204,29.03,284.578,29.06,285.031,29.06z"/>
	<path d="M293.77,23.054h3.18l3.911,11.221h-2.96l-0.615-2.08h-3.889l-0.586,2.08h-2.924L293.77,23.054z M296.707,30.246
		l-1.033-3.494l-0.365-1.443l-0.375,1.443l-0.988,3.494H296.707z"/>
	<path d="M303.906,25.28h-2.98v-2.153h8.768v2.153h-2.975v8.994h-2.813V25.28z"/>
	<path d="M313.084,25.28h-2.981v-2.153h8.768v2.153h-2.973v8.994h-2.813V25.28L313.084,25.28z"/>
	<path d="M320.342,23.127h7.046v2.08h-4.283v2.358h3.303v2.029h-3.303v2.549h4.724v2.131h-7.485L320.342,23.127L320.342,23.127z"/>
	<path d="M329.644,23.127h0.961c0.782,0,1.758-0.117,3.354-0.117c1.971,0,4.153,0.74,4.153,3.538c0,1.714-0.688,2.71-1.772,3.208
		c0.895,0.71,1.312,2.41,2.065,3.713l0.462,0.806h-3.076c-0.125-0.154-0.191-0.308-0.403-0.791c-0.593-1.326-0.85-3.12-1.758-3.179
		c-0.314,0.022-0.703,0.029-1.201,0.029v3.94h-2.782V23.127H329.644z M333.797,28.452c1.135,0,1.633-0.828,1.633-1.853
		c0-0.835-0.352-1.619-1.815-1.619c-0.41,0-0.842,0.037-1.188,0.132V28.4C332.72,28.437,333.43,28.459,333.797,28.452z"/>
	<path d="M340.41,23.127h2.606l3.802,6.116l0.776,1.626l-0.301-2.834v-4.907h2.527v11.147h-2.807l-3.609-5.969l-0.813-1.685
		l0.346,2.834v4.819h-2.527V23.127L340.41,23.127z"/>
</g>
<g>
	<path d="M61.128,99.229h0.535l0.344,1.494c0.615,0.578,1.736,0.74,2.6,0.74c1.246,0,2.63-0.579,2.63-2.184
		c-0.007-1.348-1.421-2.058-2.878-2.768c-1.553-0.762-3.15-1.59-3.157-3.252c0-2.059,2.051-2.85,3.56-2.85
		c1.502,0,2.381,0.322,2.813,0.578v1.956h-0.498l-0.432-1.458c-0.426-0.373-1.201-0.512-1.979-0.505
		c-1.055,0-2.461,0.563-2.461,2.109C62.213,94.326,63.51,95,64.9,95.66c1.604,0.775,3.348,1.604,3.348,3.332
		c0,2.146-1.721,3.055-3.779,3.055c-1.457,0-2.922-0.374-3.34-0.631L61.128,99.229L61.128,99.229z"/>
	<path d="M73.776,93.442c1.685-0.029,2.775,1.106,2.82,3.047c0.014,0.491-0.029,0.872-0.074,1.188h-5.69v0.08
		c-0.036,2.439,1.318,3.538,2.952,3.538c0.938,0,1.977-0.286,2.387-0.563l0.228,0.505c-0.571,0.513-1.89,0.82-2.995,0.82
		c-2.359,0-3.648-1.677-3.648-4.248C69.755,95.303,71.433,93.479,73.776,93.442z M75.476,97.017c0.088-1.23-0.146-2.292-0.981-2.739
		c-0.271-0.146-0.601-0.227-0.996-0.227c-1.341,0-2.454,0.996-2.644,2.966H75.476L75.476,97.017z"/>
	<path d="M83.247,97.01v-0.646c0-1.641-0.82-2.08-2.16-2.08c-0.748,0-1.803,0.329-2.359,0.658l-0.212-0.52
		c0.732-0.594,2.22-0.887,2.937-0.887c1.553,0,2.857,0.535,2.857,2.682l-0.016,5.141h0.967v0.403
		c-0.285,0.132-0.762,0.241-1.267,0.241c-0.337,0-0.688-0.043-0.688-0.71V101c-0.542,0.615-1.34,1.04-2.637,1.04
		c-1.304,0-2.563-0.864-2.469-2.446C78.376,97.566,81.416,97.01,83.247,97.01z M81.204,101.33c1.055,0,1.765-0.549,2.035-0.775
		c0-0.703,0-1.92,0.008-2.952c-1.59,0-3.955,0.417-3.97,2.007C79.263,100.818,80.062,101.33,81.204,101.33z"/>
	<path d="M86.551,101.382l1.289-0.14V94.79l-1.077-0.388v-0.374l1.729-0.446l0.279,0.139v1.025c0.417-0.506,1.75-1.209,2.738-1.209
		c0.322,0,0.615,0.016,0.726,0.052v1.128c-0.271-0.103-0.571-0.197-1.165-0.197c-0.944,0.007-1.721,0.373-2.168,0.658v6.064
		l2.22,0.14v0.498h-4.57L86.551,101.382L86.551,101.382z"/>
	<path d="M97.28,93.465c0.806-0.029,1.736,0.109,2.117,0.365v1.568h-0.543l-0.3-0.938c-0.337-0.264-0.864-0.338-1.362-0.338
		c-1.516,0-2.842,1.158-2.856,3.311c-0.022,2.783,1.458,3.831,2.878,3.831c0.66,0,1.744-0.205,2.205-0.557l0.197,0.527
		c-0.57,0.505-1.713,0.798-2.819,0.798c-2.233,0-3.472-1.742-3.486-4.094C93.296,95.252,95.039,93.553,97.28,93.465z"/>
	<path d="M101.19,101.382l1.113-0.132V90.923l-1.252-0.176v-0.505l2.021-0.25l0.285,0.154l-0.007,3.457l-0.022,1.076
		c0.857-0.674,2.22-1.164,3.025-1.164c1.984,0,2.52,1.076,2.498,3.918v3.824l1.135,0.124v0.498l-3.406,0.007v-0.505l1.209-0.124
		v-3.398c0-2.52-0.285-3.523-1.904-3.523c-0.718,0-1.846,0.314-2.527,0.813v6.109l1.143,0.124v0.498h-3.311V101.382z"/>
	<path d="M120.204,97.01v-0.646c0-1.641-0.82-2.08-2.16-2.08c-0.748,0-1.803,0.329-2.359,0.658l-0.212-0.52
		c0.732-0.594,2.22-0.887,2.937-0.887c1.553,0,2.857,0.535,2.857,2.682l-0.016,5.141h0.967v0.403
		c-0.285,0.132-0.762,0.241-1.267,0.241c-0.337,0-0.688-0.043-0.688-0.71V101c-0.542,0.615-1.34,1.04-2.637,1.04
		c-1.304,0-2.563-0.864-2.469-2.446C115.333,97.566,118.373,97.01,120.204,97.01z M118.161,101.33c1.055,0,1.765-0.549,2.035-0.775
		c0-0.703,0-1.92,0.008-2.952c-1.59,0-3.955,0.417-3.97,2.007C116.22,100.818,117.019,101.33,118.161,101.33z"/>
	<path d="M123.735,101.382l1.047-0.132v-6.46l-1.076-0.388v-0.374l1.735-0.446l0.271,0.139v1.011
		c0.66-0.534,2.088-1.179,3.092-1.216c1.838-0.051,2.504,0.879,2.504,3.508v4.234l1.194,0.124v0.498h-3.376v-0.498l1.127-0.124
		v-4.102c0-2.08-0.446-2.879-1.918-2.828c-0.748,0.029-1.751,0.403-2.49,0.908v6.021l1.156,0.124v0.498h-3.266V101.382
		L123.735,101.382z"/>
	<path d="M133.739,97.918c0-2.615,1.875-4.482,4.197-4.482c0.871,0,1.348,0.205,1.655,0.322v-2.842l-1.501-0.176v-0.506L140.368,90
		l0.278,0.146v11.213h0.996v0.447c-0.315,0.139-0.938,0.242-1.341,0.242c-0.358,0-0.674-0.052-0.674-0.652v-0.213
		c-0.388,0.345-1.281,0.872-2.658,0.872C135.263,102.056,133.739,100.789,133.739,97.918z M138.215,101.206
		c0.703-0.14,1.136-0.439,1.377-0.667V94.68c-0.198-0.212-0.586-0.615-1.78-0.615c-1.436,0-2.98,1.063-3.018,3.604
		c-0.036,2.432,1.15,3.619,2.586,3.619C137.694,101.287,137.974,101.258,138.215,101.206z"/>
	<path d="M146.864,97.918c0-2.615,1.875-4.482,4.197-4.482c0.871,0,1.348,0.205,1.655,0.322v-2.842l-1.501-0.176v-0.506L153.493,90
		l0.278,0.146v11.213h0.996v0.447c-0.315,0.139-0.938,0.242-1.341,0.242c-0.358,0-0.674-0.052-0.674-0.652v-0.213
		c-0.388,0.345-1.281,0.872-2.658,0.872C148.388,102.056,146.864,100.789,146.864,97.918z M151.34,101.206
		c0.703-0.14,1.136-0.439,1.377-0.667V94.68c-0.198-0.212-0.586-0.615-1.78-0.615c-1.436,0-2.98,1.063-3.018,3.604
		c-0.036,2.432,1.15,3.619,2.586,3.619C150.819,101.287,151.099,101.258,151.34,101.206z"/>
	<path d="M160.02,93.442c2.563-0.029,3.626,2.015,3.61,4.212c-0.021,2.585-1.647,4.395-3.801,4.401
		c-2.688,0.007-3.721-2.146-3.691-4.431C156.175,95.039,157.962,93.465,160.02,93.442z M162.503,97.72
		c0-1.978-0.711-3.647-2.557-3.677c-1.691-0.029-2.681,1.311-2.681,3.516c0,2.059,0.762,3.816,2.614,3.859
		C161.572,101.455,162.503,100.137,162.503,97.72z"/>
	<path d="M165.256,94.402l-0.85-0.117v-0.602h3.091v0.602l-1.157,0.124l1.685,5.397l0.285,1.172l0.257-1.164l1.685-6.131h0.938
		l1.707,6.123l0.322,1.23l0.3-1.186l1.436-5.449l-1.003-0.117v-0.602h2.819v0.594l-0.944,0.139l-2.213,7.646h-1.003l-1.729-5.939
		l-0.228-1.172l-0.3,1.172l-1.655,5.939h-0.916L165.256,94.402z"/>
	<path d="M177.788,101.382l1.047-0.132v-6.46l-1.076-0.388v-0.374l1.735-0.446l0.271,0.139v1.011
		c0.66-0.534,2.088-1.179,3.092-1.216c1.838-0.051,2.504,0.879,2.504,3.508v4.234l1.194,0.124v0.498h-3.376v-0.498l1.127-0.124
		v-4.102c0-2.08-0.446-2.879-1.918-2.828c-0.748,0.029-1.751,0.403-2.49,0.908v6.021l1.156,0.124v0.498h-3.266V101.382
		L177.788,101.382z"/>
	<path d="M188.013,101.382l1.223-0.124V90.923l-1.193-0.176v-0.505l1.992-0.25l0.256,0.154v11.118l1.289,0.117v0.498h-3.566
		L188.013,101.382L188.013,101.382z"/>
	<path d="M196.765,93.442c2.563-0.029,3.625,2.015,3.611,4.212c-0.022,2.585-1.648,4.395-3.802,4.401
		c-2.688,0.007-3.721-2.146-3.691-4.431C192.919,95.039,194.706,93.465,196.765,93.442z M199.247,97.72
		c0-1.978-0.71-3.647-2.556-3.677c-1.692-0.029-2.681,1.311-2.681,3.516c0,2.059,0.762,3.816,2.615,3.859
		C198.317,101.455,199.247,100.137,199.247,97.72z"/>
	<path d="M206.997,97.01v-0.646c0-1.641-0.82-2.08-2.16-2.08c-0.748,0-1.803,0.329-2.359,0.658l-0.212-0.52
		c0.732-0.594,2.22-0.887,2.937-0.887c1.553,0,2.857,0.535,2.857,2.682l-0.016,5.141h0.967v0.403
		c-0.285,0.132-0.762,0.241-1.267,0.241c-0.337,0-0.688-0.043-0.688-0.71V101c-0.542,0.615-1.34,1.04-2.637,1.04
		c-1.304,0-2.563-0.864-2.469-2.446C202.126,97.566,205.166,97.01,206.997,97.01z M204.954,101.33c1.055,0,1.765-0.549,2.035-0.775
		c0-0.703,0-1.92,0.008-2.952c-1.59,0-3.955,0.417-3.97,2.007C203.013,100.818,203.812,101.33,204.954,101.33z"/>
	<path d="M210.308,97.918c0-2.615,1.875-4.482,4.197-4.482c0.871,0,1.348,0.205,1.655,0.322v-2.842l-1.501-0.176v-0.506L216.937,90
		l0.278,0.146v11.213h0.996v0.447c-0.315,0.139-0.938,0.242-1.341,0.242c-0.358,0-0.674-0.052-0.674-0.652v-0.213
		c-0.388,0.345-1.281,0.872-2.658,0.872C211.831,102.056,210.308,100.789,210.308,97.918z M214.783,101.206
		c0.703-0.14,1.136-0.439,1.377-0.667V94.68c-0.198-0.212-0.586-0.615-1.78-0.615c-1.436,0-2.98,1.063-3.018,3.604
		c-0.036,2.432,1.15,3.619,2.586,3.619C214.263,101.287,214.542,101.258,214.783,101.206z"/>
	<path d="M224.642,94.416h-1.172v-0.439c0.828-0.153,1.084-0.131,1.289-0.505c0.117-0.264,0.337-1.341,0.366-1.743h0.557v1.978
		h2.747v0.71h-2.747v4.41c0,1.97,0.117,2.453,0.967,2.453c0.696,0,1.429-0.314,1.67-0.477l0.183,0.521
		c-0.439,0.483-1.566,0.732-2.24,0.732c-1.063,0-1.619-0.557-1.619-2.044L224.642,94.416L224.642,94.416z"/>
	<path d="M229.923,101.382l1.113-0.132V90.923l-1.253-0.176v-0.505l2.021-0.25l0.286,0.154l-0.008,3.457l-0.021,1.076
		c0.856-0.674,2.219-1.164,3.024-1.164c1.985,0,2.52,1.076,2.497,3.918v3.824l1.136,0.124v0.498l-3.405,0.007v-0.505l1.208-0.124
		v-3.398c0-2.52-0.286-3.523-1.904-3.523c-0.718,0-1.846,0.314-2.526,0.813v6.109l1.143,0.124v0.498h-3.311V101.382L229.923,101.382
		z"/>
	<path d="M244.021,93.442c1.685-0.029,2.776,1.106,2.819,3.047c0.016,0.491-0.029,0.872-0.072,1.188h-5.691v0.08
		c-0.037,2.439,1.318,3.538,2.951,3.538c0.938,0,1.979-0.286,2.389-0.563l0.227,0.505c-0.571,0.513-1.89,0.82-2.996,0.82
		c-2.357,0-3.646-1.677-3.646-4.248C240.001,95.303,241.678,93.479,244.021,93.442z M245.721,97.017
		c0.088-1.23-0.146-2.292-0.981-2.739c-0.271-0.146-0.601-0.227-0.996-0.227c-1.34,0-2.453,0.996-2.645,2.966H245.721
		L245.721,97.017z"/>
	<path d="M252.333,101.382l1.494-0.124v-6.673h-1.654v-0.439l1.654-0.322v-0.769c0-2.184,1.627-3.494,2.916-3.494
		c0.593,0,0.856,0.051,1.047,0.125v0.944c-0.177-0.103-0.606-0.212-1.261-0.212c-0.819,0-1.64,0.344-1.64,2.227v1.179h2.395v0.762
		h-2.395v6.68l1.765,0.117v0.498h-4.321V101.382L252.333,101.382z"/>
	<path d="M258.618,101.382l1.209-0.117v-6.497l-1.056-0.365v-0.374l1.795-0.446l0.277,0.139v7.537l1.223,0.124v0.498h-3.448V101.382
		L258.618,101.382z M259.357,90.806c0-0.483,0.447-0.843,0.856-0.843c0.505,0,0.731,0.322,0.731,0.719
		c0,0.505-0.432,0.834-0.863,0.834C259.71,91.516,259.357,91.245,259.357,90.806z"/>
	<path d="M263.371,101.382l1.289-0.14V94.79l-1.077-0.388v-0.374l1.729-0.446l0.278,0.139v1.025c0.417-0.506,1.75-1.209,2.738-1.209
		c0.321,0,0.614,0.016,0.726,0.052v1.128c-0.271-0.103-0.57-0.197-1.164-0.197c-0.945,0.007-1.722,0.373-2.168,0.658v6.064
		l2.219,0.14v0.498h-4.569L263.371,101.382L263.371,101.382z"/>
	<path d="M270.525,99.836h0.521l0.233,0.996c0.498,0.418,1.113,0.572,1.773,0.602c1.193,0.043,2.123-0.41,2.123-1.502
		c0-1.047-1.179-1.392-2.27-1.875c-1.165-0.52-2.301-1.164-2.278-2.453c0.029-1.473,1.56-2.125,2.864-2.161
		c0.951-0.029,1.904,0.264,2.292,0.527v1.472h-0.498l-0.249-0.915c-0.314-0.293-0.85-0.505-1.494-0.505
		c-1.188-0.008-1.883,0.563-1.896,1.398c-0.016,0.952,0.944,1.318,2.059,1.838c1.084,0.484,2.482,0.982,2.482,2.439
		c0,1.545-1.334,2.358-3.112,2.358c-0.879,0-1.81-0.212-2.55-0.622V99.836L270.525,99.836z"/>
	<path d="M279.021,94.416h-1.172v-0.439c0.828-0.153,1.084-0.131,1.289-0.505c0.117-0.264,0.338-1.341,0.366-1.743h0.558v1.978
		h2.746v0.71h-2.746v4.41c0,1.97,0.117,2.453,0.967,2.453c0.695,0,1.429-0.314,1.67-0.477l0.183,0.521
		c-0.438,0.483-1.565,0.732-2.239,0.732c-1.063,0-1.619-0.557-1.619-2.044v-5.596H279.021z"/>
	<path d="M288.075,101.382l2.22-0.153v-7.303c-0.747,0.271-1.296,0.432-2.036,0.623l-0.108-0.564
		c0.886-0.271,2.496-1.076,2.842-1.362l0.388,0.11l-0.015,8.496l2.102,0.153v0.498h-5.391L288.075,101.382L288.075,101.382z"/>
	<path d="M298.997,92.71c2.849-0.029,3.793,2.028,3.771,4.606c-0.021,2.82-1.766,4.762-3.954,4.769
		c-2.792,0.007-3.876-2.329-3.847-4.834C295.005,94.409,296.895,92.732,298.997,92.71z M301.647,97.375
		c0-2.277-0.783-4.021-2.674-4.05c-1.963-0.029-2.878,1.479-2.878,3.882c0,2.197,0.834,4.227,2.726,4.263
		C300.791,101.506,301.647,99.873,301.647,97.375z"/>
	<path d="M308.716,92.71c2.85-0.029,3.793,2.028,3.771,4.606c-0.021,2.82-1.767,4.762-3.955,4.769
		c-2.791,0.007-3.875-2.329-3.847-4.834C304.724,94.409,306.613,92.732,308.716,92.71z M311.366,97.375
		c0-2.277-0.783-4.021-2.673-4.05c-1.964-0.029-2.878,1.479-2.878,3.882c0,2.197,0.834,4.227,2.725,4.263
		C310.51,101.506,311.366,99.873,311.366,97.375z"/>
	<path d="M318.053,101.382l1.289-0.14V94.79l-1.077-0.388v-0.374l1.729-0.446l0.279,0.139v1.025c0.417-0.506,1.75-1.209,2.737-1.209
		c0.322,0,0.615,0.016,0.727,0.052v1.128c-0.271-0.103-0.571-0.197-1.165-0.197c-0.944,0.007-1.722,0.373-2.168,0.658v6.064
		l2.22,0.14v0.498h-4.57L318.053,101.382L318.053,101.382z"/>
	<path d="M328.812,93.442c1.686-0.029,2.775,1.106,2.82,3.047c0.015,0.491-0.029,0.872-0.074,1.188h-5.689v0.08
		c-0.036,2.439,1.317,3.538,2.952,3.538c0.938,0,1.977-0.286,2.387-0.563l0.228,0.505c-0.57,0.513-1.89,0.82-2.994,0.82
		c-2.359,0-3.648-1.677-3.648-4.248C324.79,95.303,326.468,93.479,328.812,93.442z M330.511,97.017
		c0.088-1.23-0.146-2.292-0.98-2.739c-0.271-0.146-0.602-0.227-0.996-0.227c-1.341,0-2.454,0.996-2.645,2.966H330.511
		L330.511,97.017z"/>
	<path d="M333.595,99.836h0.521l0.233,0.996c0.498,0.418,1.113,0.572,1.773,0.602c1.193,0.043,2.123-0.41,2.123-1.502
		c0-1.047-1.179-1.392-2.271-1.875c-1.165-0.52-2.301-1.164-2.277-2.453c0.028-1.473,1.56-2.125,2.863-2.161
		c0.951-0.029,1.904,0.264,2.292,0.527v1.472h-0.497l-0.249-0.915c-0.314-0.293-0.851-0.505-1.494-0.505
		c-1.188-0.008-1.883,0.563-1.896,1.398c-0.016,0.952,0.944,1.318,2.059,1.838c1.084,0.484,2.482,0.982,2.482,2.439
		c0,1.545-1.334,2.358-3.113,2.358c-0.879,0-1.809-0.212-2.549-0.622V99.836L333.595,99.836z"/>
	<path d="M341.666,94.432l-0.755-0.146v-0.439l1.575-0.309l0.22,0.133v5.046c0,1.787,0.278,2.556,1.75,2.556
		c1.143,0,2.154-0.732,2.438-0.996v-5.771l-0.915-0.16v-0.469l1.751-0.33l0.212,0.125v7.689h0.924v0.447
		c-0.279,0.125-0.836,0.249-1.194,0.249c-0.433,0-0.674-0.176-0.674-0.557v-0.659c-0.952,0.783-1.956,1.193-2.959,1.193
		c-2.3,0-2.358-1.501-2.373-3.529V94.432L341.666,94.432z"/>
	<path d="M350.565,101.382l1.223-0.124V90.923l-1.193-0.176v-0.505l1.992-0.25l0.256,0.154v11.118l1.289,0.117v0.498h-3.565
		L350.565,101.382L350.565,101.382z"/>
	<path d="M356.666,94.416h-1.172v-0.439c0.827-0.153,1.084-0.131,1.289-0.505c0.117-0.264,0.337-1.341,0.366-1.743h0.557v1.978
		h2.746v0.71h-2.746v4.41c0,1.97,0.117,2.453,0.967,2.453c0.695,0,1.428-0.314,1.67-0.477l0.185,0.521
		c-0.439,0.483-1.568,0.732-2.242,0.732c-1.063,0-1.618-0.557-1.618-2.044L356.666,94.416L356.666,94.416z"/>
	<path d="M362.159,99.836h0.52l0.234,0.996c0.498,0.418,1.113,0.572,1.772,0.602c1.193,0.043,2.123-0.41,2.123-1.502
		c0-1.047-1.179-1.392-2.27-1.875c-1.165-0.52-2.301-1.164-2.278-2.453c0.029-1.473,1.561-2.125,2.864-2.161
		c0.951-0.029,1.904,0.264,2.292,0.527v1.472h-0.498l-0.249-0.915c-0.313-0.293-0.85-0.505-1.494-0.505
		c-1.187-0.008-1.883,0.563-1.896,1.398c-0.017,0.952,0.943,1.318,2.058,1.838c1.084,0.484,2.483,0.982,2.483,2.439
		c0,1.545-1.334,2.358-3.113,2.358c-0.879,0-1.809-0.212-2.549-0.622V99.836L362.159,99.836z"/>
	<path d="M373.364,101.382l1.494-0.124v-6.673h-1.654v-0.439l1.654-0.322v-0.769c0-2.184,1.627-3.494,2.916-3.494
		c0.593,0,0.855,0.051,1.047,0.125v0.944c-0.177-0.103-0.607-0.212-1.261-0.212c-0.819,0-1.641,0.344-1.641,2.227v1.179h2.396v0.762
		h-2.396v6.68l1.766,0.117v0.498h-4.321V101.382L373.364,101.382z"/>
	<path d="M383.268,93.442c2.563-0.029,3.626,2.015,3.61,4.212c-0.021,2.585-1.646,4.395-3.801,4.401
		c-2.688,0.007-3.721-2.146-3.691-4.431C379.423,95.039,381.21,93.465,383.268,93.442z M385.751,97.72
		c0-1.978-0.711-3.647-2.557-3.677c-1.691-0.029-2.682,1.311-2.682,3.516c0,2.059,0.763,3.816,2.614,3.859
		C384.82,101.455,385.751,100.137,385.751,97.72z"/>
	<path d="M388.416,101.382l1.289-0.14V94.79l-1.077-0.388v-0.374l1.729-0.446l0.278,0.139v1.025c0.417-0.506,1.75-1.209,2.738-1.209
		c0.322,0,0.615,0.016,0.726,0.052v1.128c-0.271-0.103-0.57-0.197-1.165-0.197c-0.943,0.007-1.721,0.373-2.168,0.658v6.064
		l2.221,0.14v0.498h-4.57L388.416,101.382L388.416,101.382z"/>
	<path d="M400.222,94.416h-1.172v-0.439c0.828-0.153,1.084-0.131,1.289-0.505c0.117-0.264,0.337-1.341,0.366-1.743h0.557v1.978
		h2.747v0.71h-2.747v4.41c0,1.97,0.117,2.453,0.968,2.453c0.695,0,1.429-0.314,1.67-0.477l0.183,0.521
		c-0.438,0.483-1.566,0.732-2.24,0.732c-1.063,0-1.619-0.557-1.619-2.044L400.222,94.416L400.222,94.416z"/>
	<path d="M405.503,101.382l1.113-0.132V90.923l-1.253-0.176v-0.505l2.021-0.25l0.286,0.154l-0.008,3.457l-0.021,1.076
		c0.856-0.674,2.22-1.164,3.024-1.164c1.985,0,2.52,1.076,2.497,3.918v3.824l1.136,0.124v0.498l-3.405,0.007v-0.505l1.208-0.124
		v-3.398c0-2.52-0.285-3.523-1.903-3.523c-0.718,0-1.847,0.314-2.526,0.813v6.109l1.144,0.124v0.498h-3.312V101.382L405.503,101.382
		z"/>
	<path d="M419.602,93.442c1.686-0.029,2.776,1.106,2.819,3.047c0.016,0.491-0.029,0.872-0.072,1.188h-5.69v0.08
		c-0.037,2.439,1.317,3.538,2.951,3.538c0.938,0,1.979-0.286,2.389-0.563l0.227,0.505c-0.57,0.513-1.89,0.82-2.995,0.82
		c-2.357,0-3.646-1.677-3.646-4.248C415.581,95.303,417.258,93.479,419.602,93.442z M421.301,97.017
		c0.088-1.23-0.146-2.292-0.98-2.739c-0.271-0.146-0.602-0.227-0.996-0.227c-1.34,0-2.453,0.996-2.646,2.966H421.301L421.301,97.017
		z"/>
	<path d="M60.762,115.902c0-2.512,1.794-4.467,4.277-4.467c0.651,0,1.296,0.131,1.735,0.358l0.631-0.234l0.271,0.11v11.279
		l1.069,0.131v0.543h-3.771v-0.543l1.647-0.139v-2.717l0.029-1.1c-0.381,0.338-1.23,0.96-2.666,0.96
		C62.849,120.085,60.762,119.463,60.762,115.902z M66.621,118.525v-5.875c-0.469-0.498-1.12-0.607-1.765-0.607
		c-1.502,0-3.011,1.15-3.047,3.691c-0.029,2.329,1.003,3.574,2.549,3.574C65.566,119.309,66.299,118.848,66.621,118.525z"/>
	<path d="M70.664,112.432l-0.755-0.146v-0.439l1.575-0.309l0.22,0.133v5.046c0,1.787,0.278,2.556,1.75,2.556
		c1.143,0,2.154-0.732,2.439-0.996v-5.771l-0.916-0.16v-0.469l1.751-0.33l0.212,0.125v7.689h0.924v0.447
		c-0.279,0.125-0.836,0.249-1.194,0.249c-0.433,0-0.674-0.176-0.674-0.557v-0.659c-0.952,0.783-1.956,1.193-2.959,1.193
		c-2.3,0-2.358-1.501-2.373-3.529V112.432z"/>
	<path d="M83.335,111.442c1.685-0.029,2.775,1.106,2.82,3.047c0.014,0.491-0.029,0.872-0.074,1.188h-5.69v0.08
		c-0.036,2.439,1.318,3.538,2.952,3.538c0.938,0,1.977-0.286,2.387-0.563l0.228,0.505c-0.571,0.513-1.89,0.82-2.995,0.82
		c-2.359,0-3.648-1.677-3.648-4.248C79.313,113.303,80.991,111.479,83.335,111.442z M85.034,115.017
		c0.088-1.23-0.146-2.292-0.981-2.739c-0.271-0.146-0.601-0.227-0.996-0.227c-1.341,0-2.454,0.996-2.644,2.966H85.034
		L85.034,115.017z"/>
	<path d="M87.723,119.382l1.289-0.14v-6.452l-1.077-0.388v-0.374l1.729-0.446l0.279,0.139v1.025c0.417-0.506,1.75-1.209,2.738-1.209
		c0.322,0,0.615,0.016,0.726,0.052v1.128c-0.271-0.103-0.571-0.197-1.165-0.197c-0.944,0.007-1.721,0.373-2.168,0.658v6.064
		l2.22,0.14v0.498h-4.57L87.723,119.382L87.723,119.382z"/>
	<path d="M95.391,122.736c0.71,0.015,1.81-0.469,2.52-2.674h-0.198l-3.083-7.668l-0.908-0.109v-0.602h3.296v0.602l-1.209,0.117
		l1.868,5.119l0.667,1.867l0.498-1.742l1.611-5.26l-1.201-0.102v-0.602h3.031v0.602l-0.908,0.102
		c-1.911,5.735-2.402,7.142-2.629,7.728c-0.77,1.963-1.509,3.164-2.725,3.464c-0.197,0.052-0.402,0.074-0.637,0.074
		c-0.198,0-0.498-0.045-0.579-0.11v-0.901C94.966,122.692,95.215,122.729,95.391,122.736z"/>
	<path d="M106.297,119.375l1.077-0.184l1.325-9.785l-0.967-0.139l0.073-0.594h1.699c0.703-0.008,1.626-0.117,2.352-0.117
		c2.93,0,4.108,1.838,4.145,4.556c0.059,3.874-2.307,6.973-5.749,6.885c-0.205-0.007-0.601-0.029-0.827-0.052
		c-0.33-0.029-1.106-0.065-1.517-0.065h-1.663L106.297,119.375z M108.56,119.104c0.572,0.109,1.517,0.197,2.021,0.197
		c2.908-0.16,4.271-3.127,4.234-6.094c-0.037-2.754-1.1-3.962-3.289-3.962c-0.498,0-1.216,0.073-1.655,0.14l-1.318,9.727
		L108.56,119.104z"/>
	<path d="M121.224,111.361c1.392,0,2.065,0.799,2.065,1.832c0,2.299-3.597,3.229-5.054,3.266c-0.103,1.121,0.256,2.747,1.772,2.747
		c0.791,0,1.655-0.345,2.497-1.187l0.279,0.498c-0.418,0.578-1.494,1.509-2.916,1.509c-2.109,0-2.9-1.692-2.855-3.347
		C117.085,113.903,118.821,111.361,121.224,111.361z M122.088,113.295c0-0.827-0.439-1.244-1.136-1.244
		c-1.618,0-2.533,2.188-2.688,3.75C119.847,115.749,122.088,114.848,122.088,113.295z"/>
	<path d="M128.73,111.361c1.392,0,2.065,0.799,2.065,1.832c0,2.299-3.596,3.229-5.054,3.266c-0.103,1.121,0.257,2.747,1.772,2.747
		c0.791,0,1.655-0.345,2.498-1.187l0.277,0.498c-0.417,0.578-1.494,1.509-2.914,1.509c-2.109,0-2.9-1.692-2.857-3.347
		C124.593,113.903,126.328,111.361,128.73,111.361z M129.595,113.295c0-0.827-0.439-1.244-1.135-1.244
		c-1.619,0-2.535,2.188-2.688,3.75C127.354,115.749,129.595,114.848,129.595,113.295z"/>
	<path d="M132.817,123.688h-1.105l1.509-11.257l-0.791-0.293l0.103-0.469l1.678-0.309l0.285,0.146l-0.154,1.121
		c0.491-0.63,1.318-1.268,2.337-1.268c1.692,0,2.49,1.341,2.49,3.172c0,2.285-1.67,5.493-4.636,5.493
		c-0.381,0-0.813-0.073-1.188-0.176L132.817,123.688z M134.708,119.309c2.152,0,3.259-2.71,3.259-4.695
		c0-1.574-0.586-2.409-1.472-2.409c-0.982,0-1.868,0.813-2.293,1.45l-0.732,5.317C133.807,119.221,134.261,119.309,134.708,119.309z
		"/>
	<path d="M144.69,109.414l-1.076-0.146l0.072-0.594h3.538l-0.065,0.594l-1.348,0.117l0.908,7.309l0.285,2.19l0.542-1.743l2.666-6.68
		l-0.11-1.069l-1.062-0.124l0.065-0.594h3.531l-0.125,0.594l-1.297,0.124l0.726,7.302l0.161,2.19l0.666-1.919l3.223-7.551
		l-1.149-0.146l0.065-0.594h3.135l-0.102,0.594l-0.975,0.146l-4.57,10.539h-1.18l-0.754-7.889l-3.143,7.889h-1.156L144.69,109.414z"
		/>
	<path d="M161.331,111.361c1.392,0,2.065,0.799,2.065,1.832c0,2.299-3.597,3.229-5.054,3.266c-0.103,1.121,0.256,2.747,1.772,2.747
		c0.791,0,1.655-0.345,2.497-1.187l0.279,0.498c-0.418,0.578-1.494,1.509-2.916,1.509c-2.109,0-2.9-1.692-2.855-3.347
		C157.192,113.903,158.929,111.361,161.331,111.361z M162.195,113.295c0-0.827-0.439-1.244-1.136-1.244
		c-1.618,0-2.533,2.188-2.688,3.75C159.954,115.749,162.195,114.848,162.195,113.295z"/>
	<path d="M166.172,108.776l-0.696-0.249l0.117-0.498l1.531-0.234l0.314,0.168l-0.629,4.827c0.469-0.674,1.361-1.429,2.468-1.429
		c1.692,0,2.49,1.341,2.49,3.172c0,2.264-1.677,5.493-4.644,5.493c-0.615,0-1.385-0.19-1.795-0.374l-0.586,0.264L166.172,108.776z
		 M167.308,119.309c2.219,0,3.259-2.805,3.259-4.695c0-1.516-0.534-2.409-1.479-2.409c-1.099,0-2.065,1.003-2.417,1.626
		l-0.659,5.098C166.348,119.213,166.831,119.309,167.308,119.309z"/>
	<path d="M180.893,111.442c2.563-0.029,3.626,2.015,3.61,4.212c-0.021,2.585-1.647,4.395-3.801,4.401
		c-2.688,0.007-3.721-2.146-3.691-4.431C177.048,113.039,178.835,111.465,180.893,111.442z M183.376,115.72
		c0-1.978-0.711-3.647-2.557-3.677c-1.691-0.029-2.681,1.311-2.681,3.516c0,2.059,0.762,3.816,2.614,3.859
		C182.445,119.455,183.376,118.137,183.376,115.72z"/>
	<path d="M186.269,119.382l1.047-0.132v-6.46l-1.076-0.388v-0.374l1.735-0.446l0.271,0.139v1.011
		c0.66-0.534,2.088-1.179,3.092-1.216c1.838-0.051,2.504,0.879,2.504,3.508v4.234l1.194,0.124v0.498h-3.376v-0.498l1.127-0.124
		v-4.102c0-2.08-0.446-2.879-1.918-2.828c-0.748,0.029-1.751,0.403-2.49,0.908v6.021l1.156,0.124v0.498h-3.266V119.382z"/>
	<path d="M202.41,119.389l1.487-0.183v-4.014l-3.597-6.021l-0.894-0.109v-0.557h3.369v0.563l-1.23,0.103l2.57,4.637l0.389,0.783
		l0.359-0.791l2.344-4.621l-1.253-0.117v-0.557h3.157v0.557l-0.989,0.16l-3.149,5.992v3.991l1.545,0.183v0.491h-4.108V119.389z"/>
	<path d="M213.865,111.442c2.563-0.029,3.626,2.015,3.61,4.212c-0.021,2.585-1.647,4.395-3.801,4.401
		c-2.688,0.007-3.721-2.146-3.691-4.431C210.021,113.039,211.808,111.465,213.865,111.442z M216.349,115.72
		c0-1.978-0.711-3.647-2.557-3.677c-1.691-0.029-2.681,1.311-2.681,3.516c0,2.059,0.762,3.816,2.614,3.859
		C215.418,119.455,216.349,118.137,216.349,115.72z"/>
	<path d="M219.805,112.432l-0.755-0.146v-0.439l1.575-0.309l0.22,0.133v5.046c0,1.787,0.278,2.556,1.75,2.556
		c1.143,0,2.154-0.732,2.439-0.996v-5.771l-0.916-0.16v-0.469l1.751-0.33l0.212,0.125v7.689h0.924v0.447
		c-0.279,0.125-0.836,0.249-1.194,0.249c-0.433,0-0.674-0.176-0.674-0.557v-0.659c-0.952,0.783-1.956,1.193-2.959,1.193
		c-2.3,0-2.358-1.501-2.373-3.529V112.432z"/>
	<path d="M229.692,112.416h-1.172v-0.439c0.828-0.153,1.084-0.131,1.289-0.505c0.117-0.264,0.337-1.341,0.366-1.743h0.557v1.978
		h2.747v0.71h-2.747v4.41c0,1.97,0.117,2.453,0.967,2.453c0.696,0,1.429-0.314,1.67-0.477l0.183,0.521
		c-0.439,0.483-1.566,0.732-2.24,0.732c-1.063,0-1.619-0.557-1.619-2.044L229.692,112.416L229.692,112.416z"/>
	<path d="M235.581,112.432l-0.754-0.146v-0.439l1.574-0.309l0.22,0.133v5.046c0,1.787,0.278,2.556,1.751,2.556
		c1.143,0,2.152-0.732,2.438-0.996v-5.771l-0.915-0.16v-0.469l1.75-0.33l0.213,0.125v7.689h0.922v0.447
		c-0.277,0.125-0.834,0.249-1.193,0.249c-0.432,0-0.674-0.176-0.674-0.557v-0.659c-0.952,0.783-1.955,1.193-2.959,1.193
		c-2.3,0-2.358-1.501-2.373-3.529V112.432L235.581,112.432z"/>
	<path d="M245.052,108.894l-1.253-0.183v-0.498l2.051-0.221l0.257,0.125v4.292c0.578-0.462,1.449-0.974,2.585-0.974
		c1.663,0,3.267,1.091,3.267,4.014c0,2.57-1.678,4.636-4.146,4.636c-1.377,0-2.556-0.358-2.761-0.571V108.894z M247.944,119.477
		c1.486,0,2.938-1.223,2.959-3.771c0.029-2.578-1.274-3.486-2.637-3.486c-0.842,0-1.691,0.352-2.16,0.799v5.881
		C246.26,119.309,247.103,119.477,247.944,119.477z"/>
	<path d="M257.51,111.442c1.686-0.029,2.776,1.106,2.819,3.047c0.017,0.491-0.029,0.872-0.072,1.188h-5.691v0.08
		c-0.037,2.439,1.318,3.538,2.952,3.538c0.938,0,1.979-0.286,2.389-0.563l0.227,0.505c-0.57,0.513-1.89,0.82-2.996,0.82
		c-2.356,0-3.646-1.677-3.646-4.248C253.489,113.303,255.166,111.479,257.51,111.442z M259.209,115.017
		c0.088-1.23-0.146-2.292-0.98-2.739c-0.271-0.146-0.602-0.227-0.996-0.227c-1.34,0-2.454,0.996-2.646,2.966H259.209
		L259.209,115.017z"/>
	<path d="M263.654,118.613c0.433,0.051,0.563,0.373,0.505,0.71c-0.052,0.439-0.476,0.674-0.843,0.63
		c-0.321-0.051-0.563-0.33-0.498-0.711C262.886,118.832,263.303,118.568,263.654,118.613z"/>
	<path d="M271.037,111.465c0.806-0.029,1.734,0.109,2.115,0.365v1.568h-0.541l-0.301-0.938c-0.336-0.264-0.863-0.338-1.361-0.338
		c-1.518,0-2.842,1.158-2.856,3.311c-0.021,2.783,1.457,3.831,2.88,3.831c0.657,0,1.741-0.205,2.203-0.557l0.198,0.527
		c-0.571,0.505-1.715,0.798-2.819,0.798c-2.234,0-3.473-1.742-3.486-4.094C267.053,113.252,268.796,111.553,271.037,111.465z"/>
	<path d="M278.633,111.442c2.563-0.029,3.626,2.015,3.61,4.212c-0.021,2.585-1.647,4.395-3.802,4.401
		c-2.688,0.007-3.721-2.146-3.69-4.431C274.788,113.039,276.575,111.465,278.633,111.442z M281.116,115.72
		c0-1.978-0.712-3.647-2.558-3.677c-1.69-0.029-2.681,1.311-2.681,3.516c0,2.059,0.763,3.816,2.614,3.859
		C280.186,119.455,281.116,118.137,281.116,115.72z"/>
	<path d="M284.021,119.389l1.041-0.139v-6.46l-1.076-0.388v-0.381l1.742-0.439l0.265,0.139v1.011
		c0.682-0.55,2.059-1.172,3.075-1.194c1.056-0.021,1.662,0.279,2,1.025c0.652-0.498,2.035-0.996,2.996-1.025
		c1.822-0.059,2.438,0.879,2.438,3.502v4.219l1.238,0.131v0.491h-3.34v-0.491l1.047-0.131v-4.036c0-2.007-0.277-2.93-1.883-2.886
		c-0.775,0.021-1.662,0.352-2.308,0.725c0.11,0.462,0.177,1.172,0.177,1.904v4.293l1.157,0.131v0.491h-3.333v-0.491l1.12-0.139
		v-4.168c0-1.947-0.256-2.783-1.81-2.738c-0.725,0.014-1.698,0.388-2.438,0.893v1.883c0,0.988-0.007,3.01-0.007,4.139l1.156,0.131
		v0.491h-3.26v-0.493H284.021z"/>
	<path d="M299.865,118.605l0.593-0.77c1.063,0.257,1.51,1.414,1.517,2.256c0.016,1.656-1.2,2.835-2.263,3.268l-0.257-0.322v-0.176
		c0.688-0.242,1.494-1.224,1.494-2.337c0-0.894-0.534-1.575-1.084-1.655V118.605L299.865,118.605z M299.865,113.311
		c0.064-0.41,0.482-0.674,0.835-0.631c0.432,0.052,0.563,0.374,0.506,0.711c-0.052,0.439-0.477,0.674-0.843,0.63
		C300.041,113.969,299.8,113.691,299.865,113.311z"/>
	<path d="M66.54,144.402c1.414,0,2.41,0.381,3.047,0.521l-0.109,2.021h-0.594l-0.277-1.318c-0.602-0.381-1.37-0.571-2.389-0.571
		c-2.292,0-4.46,1.838-4.46,5.127c0,2.85,1.56,5.324,4.453,5.295c1.187-0.007,2.132-0.358,2.563-0.813l0.322-1.238
		c0.146,0,0.352,0.008,0.498,0.008v1.984c-0.695,0.029-1.626,0.667-3.721,0.667c-3.025,0-5.236-2.308-5.236-5.56
		C60.63,146.798,63.413,144.402,66.54,144.402z"/>
	<path d="M71.331,155.382l1.223-0.124v-10.335l-1.193-0.176v-0.505l1.992-0.25l0.256,0.154v11.118l1.289,0.117v0.498h-3.566
		L71.331,155.382L71.331,155.382z"/>
	<path d="M80.215,147.442c1.685-0.029,2.776,1.106,2.819,3.047c0.016,0.491-0.029,0.872-0.072,1.188h-5.691v0.08
		c-0.037,2.439,1.318,3.538,2.951,3.538c0.938,0,1.979-0.286,2.389-0.563l0.227,0.505c-0.571,0.513-1.89,0.82-2.996,0.82
		c-2.357,0-3.646-1.677-3.646-4.248C76.194,149.303,77.871,147.479,80.215,147.442z M81.914,151.017
		c0.088-1.23-0.146-2.292-0.981-2.739c-0.271-0.146-0.601-0.227-0.996-0.227c-1.34,0-2.453,0.996-2.645,2.966H81.914z"/>
	<path d="M89.685,151.01v-0.646c0-1.641-0.82-2.08-2.16-2.08c-0.748,0-1.803,0.329-2.359,0.658l-0.212-0.52
		c0.732-0.594,2.22-0.887,2.937-0.887c1.553,0,2.857,0.535,2.857,2.682l-0.016,5.141h0.967v0.403
		c-0.285,0.132-0.762,0.241-1.267,0.241c-0.337,0-0.688-0.043-0.688-0.71V155c-0.542,0.615-1.34,1.04-2.637,1.04
		c-1.304,0-2.563-0.864-2.469-2.446C84.813,151.566,87.854,151.01,89.685,151.01z M87.642,155.33c1.055,0,1.765-0.549,2.035-0.775
		c0-0.703,0-1.92,0.008-2.952c-1.59,0-3.955,0.417-3.97,2.007C85.7,154.818,86.499,155.33,87.642,155.33z"/>
	<path d="M93.216,155.382l1.047-0.132v-6.46l-1.076-0.388v-0.374l1.735-0.446l0.271,0.139v1.011c0.66-0.534,2.088-1.179,3.092-1.216
		c1.838-0.051,2.504,0.879,2.504,3.508v4.234l1.194,0.124v0.498h-3.376v-0.498l1.127-0.124v-4.102c0-2.08-0.446-2.879-1.918-2.828
		c-0.748,0.029-1.751,0.403-2.49,0.908v6.021l1.156,0.124v0.498h-3.266V155.382z"/>
	<path d="M108.259,148.416h-1.172v-0.439c0.828-0.153,1.084-0.131,1.289-0.505c0.117-0.264,0.337-1.341,0.366-1.743h0.557v1.978
		h2.747v0.71h-2.747v4.41c0,1.97,0.117,2.453,0.967,2.453c0.696,0,1.429-0.314,1.67-0.477l0.183,0.521
		c-0.439,0.483-1.566,0.732-2.24,0.732c-1.063,0-1.619-0.557-1.619-2.044L108.259,148.416L108.259,148.416z"/>
	<path d="M113.54,155.382l1.113-0.132v-10.327l-1.253-0.176v-0.505l2.021-0.25l0.286,0.154l-0.008,3.457l-0.021,1.076
		c0.856-0.674,2.219-1.164,3.024-1.164c1.985,0,2.52,1.076,2.497,3.918v3.824l1.136,0.124v0.498l-3.405,0.007v-0.505l1.208-0.124
		v-3.398c0-2.52-0.286-3.523-1.904-3.523c-0.718,0-1.846,0.314-2.526,0.813v6.109l1.143,0.124v0.498h-3.311V155.382z"/>
	<path d="M127.639,147.442c1.685-0.029,2.776,1.106,2.819,3.047c0.016,0.491-0.029,0.872-0.072,1.188h-5.691v0.08
		c-0.037,2.439,1.318,3.538,2.951,3.538c0.938,0,1.979-0.286,2.389-0.563l0.227,0.505c-0.571,0.513-1.89,0.82-2.996,0.82
		c-2.357,0-3.646-1.677-3.646-4.248C123.618,149.303,125.295,147.479,127.639,147.442z M129.338,151.017
		c0.088-1.23-0.146-2.292-0.981-2.739c-0.271-0.146-0.601-0.227-0.996-0.227c-1.34,0-2.453,0.996-2.645,2.966H129.338z"/>
	<path d="M136.083,155.382l1.223-0.124v-10.335l-1.193-0.176v-0.505l1.992-0.25l0.256,0.154v11.118l1.289,0.117v0.498h-3.566
		L136.083,155.382L136.083,155.382z"/>
	<path d="M141.217,155.382l1.208-0.117v-6.497l-1.055-0.365v-0.374l1.795-0.446l0.278,0.139v7.537l1.224,0.124v0.498h-3.45V155.382z
		 M141.956,144.806c0-0.483,0.447-0.843,0.857-0.843c0.506,0,0.732,0.322,0.732,0.719c0,0.505-0.432,0.834-0.864,0.834
		C142.308,145.516,141.956,145.245,141.956,144.806z"/>
	<path d="M146.366,153.836h0.52l0.234,0.996c0.498,0.418,1.113,0.572,1.773,0.602c1.193,0.043,2.123-0.41,2.123-1.502
		c0-1.047-1.179-1.392-2.27-1.875c-1.165-0.52-2.301-1.164-2.278-2.453c0.029-1.473,1.56-2.125,2.864-2.161
		c0.951-0.029,1.904,0.264,2.292,0.527v1.472h-0.498l-0.249-0.915c-0.314-0.293-0.85-0.505-1.494-0.505
		c-1.187-0.008-1.883,0.563-1.896,1.398c-0.016,0.952,0.944,1.318,2.058,1.838c1.084,0.484,2.483,0.982,2.483,2.439
		c0,1.545-1.334,2.358-3.113,2.358c-0.879,0-1.809-0.212-2.549-0.622V153.836z"/>
	<path d="M154.862,148.416h-1.172v-0.439c0.828-0.153,1.084-0.131,1.289-0.505c0.117-0.264,0.337-1.341,0.366-1.743h0.557v1.978
		h2.747v0.71h-2.747v4.41c0,1.97,0.117,2.453,0.967,2.453c0.696,0,1.429-0.314,1.67-0.477l0.183,0.521
		c-0.439,0.483-1.566,0.732-2.24,0.732c-1.063,0-1.619-0.557-1.619-2.044L154.862,148.416L154.862,148.416z"/>
	<path d="M163.886,155.382l1.494-0.124v-6.673h-1.654v-0.439l1.654-0.322v-0.769c0-2.184,1.627-3.494,2.916-3.494
		c0.593,0,0.856,0.051,1.047,0.125v0.944c-0.176-0.103-0.607-0.212-1.26-0.212c-0.82,0-1.641,0.344-1.641,2.227v1.179h2.395v0.762
		h-2.395v6.68l1.766,0.117v0.498h-4.322V155.382z"/>
	<path d="M169.922,155.382l1.289-0.14v-6.452l-1.077-0.388v-0.374l1.729-0.446l0.279,0.139v1.025
		c0.417-0.506,1.75-1.209,2.738-1.209c0.322,0,0.615,0.016,0.726,0.052v1.128c-0.271-0.104-0.571-0.197-1.165-0.197
		c-0.944,0.007-1.721,0.373-2.168,0.658v6.064l2.22,0.14v0.498h-4.57L169.922,155.382L169.922,155.382z"/>
	<path d="M180.549,147.442c2.563-0.029,3.626,2.015,3.61,4.212c-0.021,2.585-1.647,4.395-3.801,4.401
		c-2.688,0.007-3.721-2.146-3.691-4.431C176.704,149.039,178.491,147.465,180.549,147.442z M183.032,151.72
		c0-1.978-0.711-3.647-2.557-3.677c-1.691-0.029-2.681,1.311-2.681,3.516c0,2.059,0.762,3.816,2.614,3.859
		C182.102,155.455,183.032,154.137,183.032,151.72z"/>
	<path d="M185.938,155.389l1.041-0.139v-6.46l-1.077-0.388v-0.381l1.743-0.439l0.264,0.139v1.011
		c0.682-0.55,2.059-1.172,3.076-1.194c1.055-0.021,1.662,0.279,2,1.025c0.651-0.498,2.035-0.996,2.995-1.025
		c1.823-0.059,2.438,0.879,2.438,3.502v4.219l1.238,0.131v0.491h-3.34v-0.491l1.047-0.131v-4.036c0-2.007-0.277-2.93-1.882-2.886
		c-0.776,0.021-1.663,0.352-2.308,0.725c0.11,0.462,0.176,1.172,0.176,1.904v4.293l1.158,0.131v0.491h-3.333v-0.491l1.12-0.139
		v-4.168c0-1.947-0.256-2.783-1.809-2.738c-0.725,0.014-1.699,0.388-2.439,0.893v1.883c0,0.988-0.007,3.01-0.007,4.139l1.157,0.131
		v0.491h-3.26v-0.493H185.938z"/>
	<path d="M204.917,155.382l1.047-0.132v-6.46l-1.076-0.388v-0.374l1.735-0.446l0.271,0.139v1.011
		c0.66-0.534,2.088-1.179,3.092-1.216c1.838-0.051,2.504,0.879,2.504,3.508v4.234l1.194,0.124v0.498h-3.376v-0.498l1.127-0.124
		v-4.102c0-2.08-0.446-2.879-1.918-2.828c-0.748,0.029-1.751,0.403-2.49,0.908v6.021l1.156,0.124v0.498h-3.266V155.382z"/>
	<path d="M218.781,147.442c2.563-0.029,3.626,2.015,3.61,4.212c-0.021,2.585-1.647,4.395-3.801,4.401
		c-2.688,0.007-3.721-2.146-3.691-4.431C214.937,149.039,216.724,147.465,218.781,147.442z M221.265,151.72
		c0-1.978-0.711-3.647-2.557-3.677c-1.691-0.029-2.681,1.311-2.681,3.516c0,2.059,0.762,3.816,2.614,3.859
		C220.334,155.455,221.265,154.137,221.265,151.72z"/>
	<path d="M225.146,148.416h-1.172v-0.439c0.828-0.153,1.084-0.131,1.289-0.505c0.117-0.264,0.337-1.341,0.366-1.743h0.557v1.978
		h2.747v0.71h-2.747v4.41c0,1.97,0.117,2.453,0.967,2.453c0.696,0,1.429-0.314,1.67-0.477l0.183,0.521
		c-0.439,0.483-1.566,0.732-2.24,0.732c-1.063,0-1.619-0.557-1.619-2.044L225.146,148.416L225.146,148.416z"/>
	<path d="M234.323,155.382l1.209-0.117v-6.497l-1.055-0.365v-0.374l1.794-0.446l0.278,0.139v7.537l1.223,0.124v0.498h-3.449V155.382
		z M235.063,144.806c0-0.483,0.446-0.843,0.856-0.843c0.505,0,0.732,0.322,0.732,0.719c0,0.505-0.433,0.834-0.864,0.834
		C235.415,145.516,235.063,145.245,235.063,144.806z"/>
	<path d="M239.304,155.382l1.047-0.132v-6.46l-1.076-0.388v-0.374l1.735-0.446l0.271,0.139v1.011
		c0.66-0.534,2.088-1.179,3.092-1.216c1.838-0.051,2.504,0.879,2.504,3.508v4.234l1.194,0.124v0.498h-3.376v-0.498l1.127-0.124
		v-4.102c0-2.08-0.446-2.879-1.918-2.828c-0.748,0.029-1.751,0.403-2.49,0.908v6.021l1.156,0.124v0.498h-3.266L239.304,155.382
		L239.304,155.382z"/>
	<path d="M249.483,155.382l1.113-0.132v-10.327l-1.252-0.176v-0.505l2.021-0.25l0.285,0.154l-0.007,3.457l-0.022,1.076
		c0.857-0.674,2.22-1.164,3.025-1.164c1.984,0,2.52,1.076,2.499,3.918v3.824l1.135,0.124v0.498l-3.406,0.007v-0.505l1.209-0.124
		v-3.398c0-2.52-0.285-3.523-1.904-3.523c-0.718,0-1.846,0.314-2.527,0.813v6.109l1.143,0.124v0.498h-3.311V155.382z"/>
	<path d="M263.583,147.442c1.685-0.029,2.774,1.106,2.819,3.047c0.015,0.491-0.028,0.872-0.073,1.188h-5.69v0.08
		c-0.035,2.439,1.318,3.538,2.952,3.538c0.938,0,1.978-0.286,2.388-0.563l0.228,0.505c-0.571,0.513-1.89,0.82-2.995,0.82
		c-2.359,0-3.648-1.677-3.648-4.248C259.563,149.303,261.239,147.479,263.583,147.442z M265.282,151.017
		c0.088-1.23-0.146-2.292-0.981-2.739c-0.271-0.146-0.601-0.227-0.996-0.227c-1.341,0-2.453,0.996-2.644,2.966H265.282z"/>
	<path d="M267.971,155.382l1.289-0.14v-6.452l-1.076-0.388v-0.374l1.729-0.446l0.279,0.139v1.025
		c0.416-0.506,1.75-1.209,2.738-1.209c0.321,0,0.614,0.016,0.726,0.052v1.128c-0.271-0.104-0.571-0.197-1.165-0.197
		c-0.944,0.007-1.721,0.373-2.168,0.658v6.064l2.22,0.14v0.498h-4.569v-0.498H267.971z"/>
	<path d="M278.729,147.442c1.686-0.029,2.775,1.106,2.82,3.047c0.014,0.491-0.029,0.872-0.074,1.188h-5.689v0.08
		c-0.036,2.439,1.318,3.538,2.951,3.538c0.938,0,1.978-0.286,2.388-0.563l0.228,0.505c-0.57,0.513-1.89,0.82-2.994,0.82
		c-2.359,0-3.648-1.677-3.648-4.248C274.708,149.303,276.386,147.479,278.729,147.442z M280.43,151.017
		c0.088-1.23-0.146-2.292-0.981-2.739c-0.271-0.146-0.601-0.227-0.996-0.227c-1.341,0-2.454,0.996-2.644,2.966H280.43z"/>
	<path d="M283.346,155.382l1.047-0.132v-6.46l-1.076-0.388v-0.374l1.734-0.446l0.271,0.139v1.011
		c0.66-0.534,2.088-1.179,3.092-1.216c1.838-0.051,2.504,0.879,2.504,3.508v4.234l1.193,0.124v0.498h-3.375v-0.498l1.127-0.124
		v-4.102c0-2.08-0.446-2.879-1.918-2.828c-0.748,0.029-1.752,0.403-2.49,0.908v6.021l1.156,0.124v0.498h-3.266V155.382
		L283.346,155.382z"/>
	<path d="M294.559,148.416h-1.172v-0.439c0.827-0.153,1.084-0.131,1.288-0.505c0.117-0.264,0.337-1.341,0.366-1.743h0.557v1.978
		h2.747v0.71h-2.747v4.41c0,1.97,0.117,2.453,0.967,2.453c0.697,0,1.43-0.314,1.671-0.477l0.183,0.521
		c-0.438,0.483-1.566,0.732-2.24,0.732c-1.063,0-1.619-0.557-1.619-2.044V148.416L294.559,148.416z"/>
	<path d="M303.522,148.395l-0.799-0.117v-0.594h3.063v0.594l-1.063,0.125l1.884,4.584l0.688,2l0.674-1.941l1.678-4.636l-1.048-0.124
		v-0.602h2.82v0.594l-0.856,0.139l-3.011,7.64h-0.762L303.522,148.395z"/>
	<path d="M312.437,155.382l1.21-0.117v-6.497l-1.056-0.365v-0.374l1.794-0.446l0.278,0.139v7.537l1.223,0.124v0.498h-3.448
		L312.437,155.382L312.437,155.382z M313.177,144.806c0-0.483,0.446-0.843,0.856-0.843c0.505,0,0.731,0.322,0.731,0.719
		c0,0.505-0.433,0.834-0.863,0.834C313.528,145.516,313.177,145.245,313.177,144.806z"/>
	<path d="M317.196,151.918c0-2.615,1.875-4.482,4.196-4.482c0.871,0,1.349,0.205,1.655,0.322v-2.842l-1.501-0.176v-0.506
		l2.277-0.234l0.277,0.146v11.213h0.996v0.447c-0.314,0.139-0.938,0.242-1.341,0.242c-0.357,0-0.674-0.052-0.674-0.652v-0.213
		c-0.388,0.345-1.281,0.872-2.658,0.872C318.72,156.056,317.196,154.789,317.196,151.918z M321.672,155.206
		c0.703-0.14,1.136-0.439,1.377-0.667v-5.859c-0.198-0.212-0.586-0.615-1.78-0.615c-1.436,0-2.979,1.063-3.018,3.604
		c-0.036,2.432,1.15,3.619,2.586,3.619C321.151,155.287,321.431,155.258,321.672,155.206z"/>
	<path d="M330.483,147.442c1.685-0.029,2.774,1.106,2.819,3.047c0.015,0.491-0.028,0.872-0.073,1.188h-5.69v0.08
		c-0.036,2.439,1.318,3.538,2.952,3.538c0.938,0,1.977-0.286,2.387-0.563l0.229,0.505c-0.571,0.513-1.891,0.82-2.995,0.82
		c-2.359,0-3.648-1.677-3.648-4.248C326.462,149.303,328.14,147.479,330.483,147.442z M332.183,151.017
		c0.089-1.23-0.146-2.292-0.98-2.739c-0.271-0.146-0.602-0.227-0.996-0.227c-1.341,0-2.454,0.996-2.645,2.966H332.183z"/>
	<path d="M338.738,147.442c2.563-0.029,3.626,2.015,3.609,4.212c-0.021,2.585-1.646,4.395-3.801,4.401
		c-2.688,0.007-3.721-2.146-3.69-4.431C334.894,149.039,336.681,147.465,338.738,147.442z M341.222,151.72
		c0-1.978-0.711-3.647-2.557-3.677c-1.691-0.029-2.681,1.311-2.681,3.516c0,2.059,0.762,3.816,2.613,3.859
		C340.291,155.455,341.222,154.137,341.222,151.72z"/>
	<path d="M344.282,153.836h0.52l0.234,0.996c0.498,0.418,1.113,0.572,1.772,0.602c1.193,0.043,2.123-0.41,2.123-1.502
		c0-1.047-1.179-1.392-2.27-1.875c-1.165-0.52-2.301-1.164-2.278-2.453c0.029-1.473,1.561-2.125,2.864-2.161
		c0.951-0.029,1.904,0.264,2.292,0.527v1.472h-0.498l-0.249-0.915c-0.313-0.293-0.85-0.505-1.494-0.505
		c-1.187-0.008-1.883,0.563-1.896,1.398c-0.017,0.952,0.943,1.318,2.058,1.838c1.084,0.484,2.483,0.982,2.483,2.439
		c0,1.545-1.334,2.358-3.113,2.358c-0.879,0-1.809-0.212-2.549-0.622V153.836L344.282,153.836z"/>
	<path d="M356.608,148.416h-1.173v-0.439c0.828-0.153,1.085-0.131,1.289-0.505c0.117-0.264,0.337-1.341,0.366-1.743h0.558v1.978
		h2.747v0.71h-2.747v4.41c0,1.97,0.116,2.453,0.967,2.453c0.696,0,1.429-0.314,1.67-0.477l0.183,0.521
		c-0.438,0.483-1.565,0.732-2.239,0.732c-1.063,0-1.619-0.557-1.619-2.044L356.608,148.416L356.608,148.416z"/>
	<path d="M365.573,147.442c2.563-0.029,3.625,2.015,3.61,4.212c-0.021,2.585-1.647,4.395-3.802,4.401
		c-2.688,0.007-3.721-2.146-3.69-4.431C361.728,149.039,363.515,147.465,365.573,147.442z M368.056,151.72
		c0-1.978-0.71-3.647-2.556-3.677c-1.692-0.029-2.681,1.311-2.681,3.516c0,2.059,0.762,3.816,2.614,3.859
		C367.126,155.455,368.056,154.137,368.056,151.72z"/>
	<path d="M375.974,155.587c-0.762-0.3-0.739-0.82-0.739-1.224c0-0.388,0.301-1.179,0.864-1.706c-0.776-0.433-1.274-1.194-1.274-2.3
		c0-2,1.647-2.944,3.34-2.98c0.784-0.016,1.51,0.153,2.059,0.534c0.213-0.198,0.615-0.329,1.297-0.329h0.871v0.856
		c-0.036,0-0.944,0-1.626-0.007c0.301,0.417,0.483,0.967,0.483,1.654c0,1.92-1.523,3.004-3.26,3.004
		c-0.563,0-1.084-0.088-1.537-0.271c-0.222,0.344-0.265,0.85-0.265,1.143c0,0.682,0.308,0.93,1.12,0.967
		c0.293,0.029,1.268,0.029,1.839,0.029c2.738,0,2.931,1.274,2.931,2.117c0,1.677-1.554,2.695-3.802,2.695
		c-1.84,0-3.567-0.521-3.567-2.133C374.706,156.693,375.461,155.902,375.974,155.587z M378.42,159.125
		c1.553,0,2.79-0.527,2.79-1.773c0-0.9-0.344-1.494-2.277-1.516l-1.244-0.008c-0.534,0-0.961-0.036-1.289-0.109
		c-0.338,0.314-0.659,0.776-0.659,1.567C375.739,158.773,377.241,159.125,378.42,159.125z M380.207,150.277
		c0-1.575-0.776-2.301-2.22-2.301c-1.127,0-2.123,0.602-2.123,2.197c0,1.318,0.725,2.301,2.313,2.301
		C379.438,152.475,380.207,151.756,380.207,150.277z"/>
	<path d="M387.362,147.442c1.685-0.029,2.774,1.106,2.819,3.047c0.015,0.491-0.028,0.872-0.073,1.188h-5.69v0.08
		c-0.036,2.439,1.318,3.538,2.952,3.538c0.938,0,1.977-0.286,2.387-0.563l0.229,0.505c-0.571,0.513-1.891,0.82-2.995,0.82
		c-2.359,0-3.648-1.677-3.648-4.248C383.341,149.303,385.019,147.479,387.362,147.442z M389.062,151.017
		c0.089-1.23-0.146-2.292-0.98-2.739c-0.271-0.146-0.601-0.227-0.996-0.227c-1.341,0-2.454,0.996-2.644,2.966H389.062z"/>
	<path d="M392.966,148.416h-1.172v-0.439c0.828-0.153,1.084-0.131,1.289-0.505c0.117-0.264,0.337-1.341,0.366-1.743h0.557v1.978
		h2.747v0.71h-2.747v4.41c0,1.97,0.117,2.453,0.967,2.453c0.696,0,1.43-0.314,1.671-0.477l0.183,0.521
		c-0.439,0.483-1.566,0.732-2.24,0.732c-1.063,0-1.619-0.557-1.619-2.044L392.966,148.416L392.966,148.416z"/>
	<path d="M406.978,151.01v-0.646c0-1.641-0.819-2.08-2.159-2.08c-0.748,0-1.804,0.329-2.359,0.658l-0.212-0.52
		c0.732-0.594,2.22-0.887,2.937-0.887c1.554,0,2.857,0.535,2.857,2.682l-0.016,5.141h0.967v0.403
		c-0.285,0.132-0.763,0.241-1.268,0.241c-0.337,0-0.688-0.043-0.688-0.71V155c-0.542,0.615-1.34,1.04-2.637,1.04
		c-1.305,0-2.563-0.864-2.47-2.446C402.106,151.566,405.146,151.01,406.978,151.01z M404.935,155.33
		c1.056,0,1.766-0.549,2.035-0.775c0-0.703,0-1.92,0.008-2.952c-1.59,0-3.954,0.417-3.97,2.007
		C402.993,154.818,403.792,155.33,404.935,155.33z"/>
	<path d="M414.339,155.382l1.223-0.124v-10.335l-1.192-0.176v-0.505l1.992-0.25l0.256,0.154v11.118l1.289,0.117v0.498h-3.566
		L414.339,155.382L414.339,155.382z"/>
	<path d="M419.473,155.382l1.208-0.117v-6.497l-1.055-0.365v-0.374l1.795-0.446l0.278,0.139v7.537l1.224,0.124v0.498h-3.45V155.382z
		 M420.212,144.806c0-0.483,0.447-0.843,0.857-0.843c0.506,0,0.731,0.322,0.731,0.719c0,0.505-0.432,0.834-0.864,0.834
		C420.563,145.516,420.212,145.245,420.212,144.806z"/>
	<path d="M424.622,153.836h0.52l0.234,0.996c0.498,0.418,1.113,0.572,1.773,0.602c1.192,0.043,2.123-0.41,2.123-1.502
		c0-1.047-1.18-1.392-2.271-1.875c-1.165-0.52-2.301-1.164-2.278-2.453c0.029-1.473,1.561-2.125,2.864-2.161
		c0.951-0.029,1.904,0.264,2.292,0.527v1.472h-0.498l-0.249-0.915c-0.313-0.293-0.85-0.505-1.494-0.505
		c-1.187-0.008-1.883,0.563-1.896,1.398c-0.016,0.952,0.943,1.318,2.058,1.838c1.084,0.484,2.483,0.982,2.483,2.439
		c0,1.545-1.334,2.358-3.113,2.358c-0.879,0-1.809-0.212-2.549-0.622V153.836L424.622,153.836z"/>
	<path d="M433.118,148.416h-1.172v-0.439c0.828-0.153,1.084-0.131,1.289-0.505c0.117-0.264,0.337-1.341,0.365-1.743h0.558v1.978
		h2.747v0.71h-2.747v4.41c0,1.97,0.117,2.453,0.967,2.453c0.696,0,1.429-0.314,1.67-0.477l0.183,0.521
		c-0.438,0.483-1.565,0.732-2.239,0.732c-1.063,0-1.619-0.557-1.619-2.044L433.118,148.416L433.118,148.416z"/>
	<path d="M64.644,165.441c2.563-0.028,3.625,2.016,3.611,4.213c-0.022,2.584-1.648,4.395-3.802,4.4
		c-2.688,0.008-3.721-2.146-3.691-4.431C60.798,167.039,62.585,165.465,64.644,165.441z M67.126,169.721
		c0-1.979-0.71-3.648-2.556-3.678c-1.692-0.029-2.681,1.311-2.681,3.516c0,2.06,0.762,3.816,2.615,3.859
		C66.196,173.455,67.126,172.137,67.126,169.721z"/>
	<path d="M69.888,173.382l1.494-0.124v-6.673h-1.654v-0.438l1.654-0.322v-0.77c0-2.184,1.627-3.494,2.916-3.494
		c0.593,0,0.856,0.051,1.047,0.125v0.944c-0.176-0.103-0.607-0.212-1.26-0.212c-0.82,0-1.641,0.344-1.641,2.227v1.18h2.395v0.762
		h-2.395v6.68l1.766,0.117v0.498h-4.322V173.382z"/>
	<path d="M82.354,168.079c-1.033-0.638-1.868-1.45-1.868-2.798c0-1.891,1.714-2.775,3.296-2.775c1.685,0,2.996,1.018,2.996,2.52
		c0,1.092-0.732,2.438-2.139,3.172c1.354,0.726,2.607,1.494,2.621,2.775c0.022,2.233-1.889,3.112-3.654,3.112
		c-1.707,0-3.684-0.894-3.684-2.937C79.923,169.961,80.86,168.76,82.354,168.079z M83.79,173.499c1.442,0,2.52-0.923,2.52-2.132
		c0-1.486-1.78-2.109-3.377-2.959c-1.018,0.402-1.984,1.393-1.984,2.49C80.948,172.334,82.024,173.499,83.79,173.499z
		 M85.862,165.391c0.044-1.377-0.85-2.328-2.168-2.328c-1.297,0-2.336,0.879-2.336,2.043c0,1.289,1.332,2.051,2.738,2.799
		l-0.117-0.065C84.845,167.617,85.841,166.461,85.862,165.391z"/>
	<path d="M93.056,164.71c2.849-0.028,3.793,2.028,3.771,4.606c-0.021,2.82-1.766,4.762-3.955,4.769
		c-2.791,0.007-3.875-2.329-3.846-4.834C89.063,166.409,90.953,164.732,93.056,164.71z M95.706,169.375
		c0-2.277-0.783-4.021-2.673-4.05c-1.963-0.029-2.878,1.479-2.878,3.882c0,2.197,0.834,4.227,2.725,4.264
		C94.85,173.506,95.706,171.873,95.706,169.375z"/>
	<path d="M102.429,166.395l-0.798-0.117v-0.594h3.062v0.594l-1.063,0.125l1.883,4.584l0.688,2l0.674-1.94l1.677-4.636l-1.047-0.124
		v-0.603h2.82v0.594l-0.857,0.14l-3.01,7.64h-0.762L102.429,166.395z"/>
	<path d="M111.343,173.382l1.209-0.116v-6.498l-1.055-0.365v-0.373l1.794-0.446l0.278,0.14v7.537l1.223,0.123v0.498h-3.449V173.382z
		 M112.083,162.807c0-0.484,0.446-0.844,0.856-0.844c0.505,0,0.732,0.322,0.732,0.719c0,0.506-0.433,0.834-0.864,0.834
		C112.435,163.516,112.083,163.245,112.083,162.807z"/>
	<path d="M116.103,169.918c0-2.615,1.875-4.482,4.197-4.482c0.871,0,1.348,0.205,1.655,0.322v-2.842l-1.501-0.176v-0.506
		l2.277-0.234l0.278,0.146v11.213h0.996v0.447c-0.315,0.139-0.938,0.241-1.341,0.241c-0.358,0-0.674-0.052-0.674-0.651v-0.213
		c-0.388,0.344-1.281,0.871-2.658,0.871C117.626,174.057,116.103,172.789,116.103,169.918z M120.578,173.206
		c0.703-0.14,1.136-0.438,1.377-0.667v-5.859c-0.198-0.211-0.586-0.615-1.78-0.615c-1.436,0-2.98,1.063-3.018,3.604
		c-0.036,2.433,1.15,3.619,2.586,3.619C120.058,173.287,120.337,173.258,120.578,173.206z"/>
	<path d="M129.39,165.441c1.685-0.028,2.775,1.106,2.82,3.047c0.014,0.492-0.029,0.873-0.074,1.188h-5.69v0.08
		c-0.036,2.439,1.318,3.538,2.952,3.538c0.938,0,1.977-0.286,2.387-0.563l0.228,0.506c-0.571,0.513-1.89,0.82-2.995,0.82
		c-2.359,0-3.648-1.678-3.648-4.248C125.368,167.303,127.046,165.479,129.39,165.441z M131.089,169.018
		c0.088-1.23-0.146-2.293-0.981-2.74c-0.271-0.146-0.601-0.227-0.996-0.227c-1.341,0-2.454,0.996-2.644,2.967H131.089z"/>
	<path d="M137.645,165.441c2.563-0.028,3.626,2.016,3.61,4.213c-0.021,2.584-1.647,4.395-3.801,4.4
		c-2.688,0.008-3.721-2.146-3.691-4.431C133.8,167.039,135.587,165.465,137.645,165.441z M140.128,169.721
		c0-1.979-0.711-3.648-2.557-3.678c-1.691-0.029-2.681,1.311-2.681,3.516c0,2.06,0.762,3.816,2.614,3.859
		C139.197,173.455,140.128,172.137,140.128,169.721z"/>
	<path d="M143.188,171.836h0.52l0.234,0.996c0.498,0.418,1.113,0.572,1.773,0.602c1.193,0.043,2.123-0.41,2.123-1.502
		c0-1.047-1.179-1.392-2.27-1.875c-1.165-0.52-2.301-1.164-2.278-2.453c0.029-1.473,1.56-2.125,2.864-2.16
		c0.951-0.029,1.904,0.264,2.292,0.527v1.471h-0.498l-0.249-0.914c-0.314-0.293-0.85-0.506-1.494-0.506
		c-1.187-0.008-1.883,0.563-1.896,1.398c-0.016,0.952,0.944,1.318,2.058,1.838c1.084,0.484,2.483,0.982,2.483,2.439
		c0,1.545-1.334,2.357-3.113,2.357c-0.879,0-1.809-0.211-2.549-0.621V171.836z"/>
	<path d="M151.392,172.605l0.594-0.771c1.062,0.257,1.508,1.414,1.516,2.256c0.015,1.656-1.201,2.835-2.264,3.269l-0.256-0.322
		v-0.176c0.688-0.242,1.494-1.225,1.494-2.338c0-0.894-0.535-1.574-1.084-1.654V172.605L151.392,172.605z M151.392,167.311
		c0.066-0.41,0.483-0.674,0.835-0.631c0.433,0.053,0.563,0.375,0.505,0.711c-0.051,0.439-0.476,0.674-0.842,0.631
		C151.567,167.969,151.325,167.691,151.392,167.311z"/>
	<path d="M66.511,198.41c1.766,0,2.711,0.365,3.281,0.49l-0.095,2h-0.608l-0.293-1.297c-0.3-0.234-1.23-0.563-2.614-0.549
		c-2.285,0.021-4.431,1.866-4.431,5.135c0,2.672,1.303,5.279,4.27,5.279c0.938,0,2.153-0.22,2.71-0.709v-3.406l-2.028-0.109v-0.551
		h4.108v0.551l-0.996,0.124v3.962c-0.645,0.052-2.314,0.755-4.087,0.755c-3.025,0-5.098-2.351-5.098-5.56
		C60.63,200.783,63.311,198.41,66.511,198.41z"/>
	<path d="M76.025,201.441c1.685-0.028,2.776,1.106,2.819,3.047c0.016,0.492-0.029,0.873-0.072,1.188h-5.691v0.08
		c-0.037,2.439,1.318,3.538,2.951,3.538c0.938,0,1.979-0.286,2.389-0.563l0.227,0.506c-0.571,0.513-1.89,0.82-2.996,0.82
		c-2.357,0-3.646-1.678-3.646-4.248C72.005,203.303,73.682,201.479,76.025,201.441z M77.725,205.018
		c0.088-1.23-0.146-2.293-0.981-2.74c-0.271-0.146-0.601-0.227-0.996-0.227c-1.34,0-2.453,0.996-2.645,2.967H77.725z"/>
	<path d="M80.64,209.382l1.047-0.132v-6.46l-1.076-0.388v-0.375l1.735-0.445l0.271,0.139v1.012c0.66-0.535,2.088-1.18,3.092-1.217
		c1.838-0.051,2.504,0.879,2.504,3.508v4.234l1.194,0.124v0.498H86.03v-0.498l1.127-0.124v-4.102c0-2.08-0.446-2.879-1.918-2.828
		c-0.748,0.029-1.751,0.402-2.49,0.908v6.021l1.156,0.124v0.498H80.64V209.382z"/>
	<path d="M94.636,201.441c1.685-0.028,2.775,1.106,2.82,3.047c0.014,0.492-0.029,0.873-0.074,1.188h-5.69v0.08
		c-0.036,2.439,1.318,3.538,2.952,3.538c0.938,0,1.977-0.286,2.387-0.563l0.228,0.506c-0.571,0.513-1.89,0.82-2.995,0.82
		c-2.359,0-3.648-1.678-3.648-4.248C90.614,203.303,92.292,201.479,94.636,201.441z M96.335,205.018
		c0.088-1.23-0.146-2.293-0.981-2.74c-0.271-0.146-0.601-0.227-0.996-0.227c-1.341,0-2.454,0.996-2.644,2.967H96.335z"/>
	<path d="M99.023,209.382l1.289-0.14v-6.452l-1.077-0.388v-0.375l1.729-0.445l0.279,0.139v1.025c0.417-0.506,1.75-1.209,2.738-1.209
		c0.322,0,0.615,0.016,0.726,0.052v1.128c-0.271-0.104-0.571-0.197-1.165-0.197c-0.944,0.008-1.721,0.373-2.168,0.658v6.064
		l2.22,0.14v0.498h-4.57L99.023,209.382L99.023,209.382z"/>
	<path d="M110.866,205.01v-0.645c0-1.641-0.82-2.08-2.16-2.08c-0.748,0-1.803,0.328-2.359,0.658l-0.212-0.521
		c0.732-0.594,2.22-0.887,2.937-0.887c1.553,0,2.857,0.534,2.857,2.683l-0.016,5.141h0.967v0.402
		c-0.285,0.133-0.762,0.241-1.267,0.241c-0.337,0-0.688-0.043-0.688-0.71V209c-0.542,0.615-1.34,1.04-2.637,1.04
		c-1.304,0-2.563-0.864-2.469-2.446C105.995,205.566,109.035,205.01,110.866,205.01z M108.823,209.33
		c1.055,0,1.765-0.549,2.035-0.775c0-0.703,0-1.92,0.008-2.951c-1.59,0-3.955,0.416-3.97,2.006
		C106.882,208.818,107.681,209.33,108.823,209.33z"/>
	<path d="M115.386,202.416h-1.172v-0.439c0.828-0.152,1.084-0.131,1.289-0.504c0.117-0.265,0.337-1.342,0.366-1.744h0.557v1.979
		h2.747v0.71h-2.747v4.41c0,1.97,0.117,2.452,0.967,2.452c0.696,0,1.429-0.313,1.67-0.477l0.183,0.521
		c-0.439,0.482-1.566,0.732-2.24,0.732c-1.063,0-1.619-0.558-1.619-2.045L115.386,202.416L115.386,202.416z"/>
	<path d="M124.482,201.441c1.685-0.028,2.776,1.106,2.819,3.047c0.016,0.492-0.029,0.873-0.072,1.188h-5.691v0.08
		c-0.037,2.439,1.318,3.538,2.951,3.538c0.938,0,1.979-0.286,2.389-0.563l0.227,0.506c-0.571,0.513-1.89,0.82-2.996,0.82
		c-2.357,0-3.646-1.678-3.646-4.248C120.462,203.303,122.139,201.479,124.482,201.441z M126.182,205.018
		c0.088-1.23-0.146-2.293-0.981-2.74c-0.271-0.146-0.601-0.227-0.996-0.227c-1.34,0-2.453,0.996-2.645,2.967H126.182z"/>
	<path d="M134.457,208.613c0.433,0.051,0.563,0.373,0.505,0.709c-0.051,0.439-0.476,0.675-0.842,0.631
		c-0.322-0.051-0.564-0.33-0.498-0.711C133.688,208.832,134.105,208.568,134.457,208.613z"/>
	<path d="M139.291,209.587c-0.762-0.3-0.739-0.819-0.739-1.224c0-0.389,0.3-1.18,0.863-1.707c-0.775-0.432-1.273-1.193-1.273-2.299
		c0-2,1.647-2.944,3.34-2.98c0.783-0.016,1.508,0.152,2.058,0.534c0.212-0.198,0.615-0.329,1.296-0.329h0.872v0.855
		c-0.036,0-0.944,0-1.626-0.006c0.301,0.416,0.483,0.967,0.483,1.653c0,1.92-1.523,3.004-3.259,3.004
		c-0.564,0-1.084-0.088-1.539-0.271c-0.219,0.344-0.264,0.85-0.264,1.143c0,0.682,0.309,0.93,1.121,0.967
		c0.293,0.029,1.268,0.029,1.838,0.029c2.74,0,2.93,1.273,2.93,2.117c0,1.677-1.553,2.695-3.801,2.695
		c-1.838,0-3.566-0.521-3.566-2.133C138.024,210.693,138.778,209.902,139.291,209.587z M141.737,213.125
		c1.553,0,2.791-0.527,2.791-1.773c0-0.899-0.345-1.494-2.278-1.516l-1.245-0.008c-0.535,0-0.959-0.036-1.289-0.109
		c-0.337,0.314-0.659,0.776-0.659,1.567C139.057,212.773,140.558,213.125,141.737,213.125z M143.524,204.277
		c0-1.575-0.776-2.301-2.219-2.301c-1.129,0-2.125,0.602-2.125,2.196c0,1.317,0.726,2.302,2.314,2.302
		C142.755,206.475,143.524,205.756,143.524,204.277z"/>
	<path d="M146.931,209.382l1.209-0.116v-6.498l-1.055-0.365v-0.373l1.794-0.446l0.278,0.14v7.537l1.223,0.123v0.498h-3.449V209.382
		L146.931,209.382z M147.671,198.807c0-0.484,0.446-0.844,0.856-0.844c0.505,0,0.732,0.322,0.732,0.719
		c0,0.506-0.433,0.834-0.864,0.834C148.022,199.516,147.671,199.245,147.671,198.807z"/>
	<path d="M151.778,209.382l1.494-0.124v-6.673h-1.654v-0.438l1.654-0.322v-0.77c0-2.184,1.627-3.494,2.916-3.494
		c0.593,0,0.856,0.051,1.047,0.125v0.944c-0.176-0.103-0.607-0.212-1.26-0.212c-0.82,0-1.641,0.344-1.641,2.227v1.18h2.395v0.762
		h-2.395v6.68l1.766,0.117v0.498h-4.322V209.382z"/>
	<path d="M165.512,201.441c2.563-0.028,3.626,2.016,3.61,4.213c-0.021,2.584-1.647,4.395-3.801,4.4
		c-2.688,0.008-3.721-2.146-3.691-4.431C161.667,203.039,163.454,201.465,165.512,201.441z M167.995,205.721
		c0-1.979-0.711-3.648-2.557-3.678c-1.691-0.029-2.681,1.311-2.681,3.516c0,2.06,0.762,3.816,2.614,3.859
		C167.064,209.455,167.995,208.137,167.995,205.721z"/>
	<path d="M170.755,209.382l1.494-0.124v-6.673h-1.654v-0.438l1.654-0.322v-0.77c0-2.184,1.627-3.494,2.916-3.494
		c0.593,0,0.856,0.051,1.047,0.125v0.944c-0.176-0.103-0.607-0.212-1.26-0.212c-0.82,0-1.641,0.344-1.641,2.227v1.18h2.395v0.762
		h-2.395v6.68l1.766,0.117v0.498h-4.322V209.382z"/>
	<path d="M184.62,201.441c1.685-0.028,2.775,1.106,2.82,3.047c0.014,0.492-0.029,0.873-0.074,1.188h-5.69v0.08
		c-0.036,2.439,1.318,3.538,2.952,3.538c0.938,0,1.977-0.286,2.387-0.563l0.228,0.506c-0.571,0.513-1.89,0.82-2.995,0.82
		c-2.359,0-3.648-1.678-3.648-4.248C180.599,203.303,182.276,201.479,184.62,201.441z M186.319,205.018
		c0.088-1.23-0.146-2.293-0.981-2.74c-0.271-0.146-0.601-0.227-0.996-0.227c-1.341,0-2.454,0.996-2.644,2.967H186.319z"/>
	<path d="M194.091,205.01v-0.645c0-1.641-0.82-2.08-2.16-2.08c-0.748,0-1.803,0.328-2.359,0.658l-0.212-0.521
		c0.732-0.594,2.22-0.887,2.937-0.887c1.553,0,2.857,0.534,2.857,2.683l-0.016,5.141h0.967v0.402
		c-0.285,0.133-0.762,0.241-1.267,0.241c-0.337,0-0.688-0.043-0.688-0.71V209c-0.542,0.615-1.34,1.04-2.637,1.04
		c-1.304,0-2.563-0.864-2.469-2.446C189.22,205.566,192.26,205.01,194.091,205.01z M192.048,209.33c1.055,0,1.765-0.549,2.035-0.775
		c0-0.703,0-1.92,0.008-2.951c-1.59,0-3.955,0.416-3.97,2.006C190.106,208.818,190.905,209.33,192.048,209.33z"/>
	<path d="M201.364,201.465c0.806-0.029,1.736,0.109,2.117,0.365v1.568h-0.543l-0.3-0.938c-0.337-0.265-0.864-0.338-1.362-0.338
		c-1.516,0-2.842,1.157-2.856,3.312c-0.022,2.782,1.458,3.83,2.878,3.83c0.66,0,1.744-0.205,2.205-0.557l0.197,0.527
		c-0.57,0.504-1.713,0.797-2.819,0.797c-2.233,0-3.472-1.741-3.486-4.094C197.38,203.252,199.123,201.553,201.364,201.465z"/>
	<path d="M205.274,209.382l1.113-0.132v-10.327l-1.252-0.176v-0.505l2.021-0.25l0.285,0.154l-0.007,3.457l-0.022,1.076
		c0.857-0.675,2.22-1.164,3.025-1.164c1.984,0,2.52,1.075,2.498,3.918v3.823l1.135,0.124v0.498l-3.406,0.008v-0.506l1.209-0.124
		v-3.397c0-2.521-0.285-3.523-1.904-3.523c-0.718,0-1.846,0.314-2.527,0.813v6.109l1.143,0.124v0.498h-3.311V209.382z"/>
	<path d="M219.241,202.395l-0.798-0.117v-0.594h3.062v0.594l-1.063,0.125l1.883,4.584l0.688,2l0.674-1.94l1.677-4.636l-1.047-0.124
		v-0.603h2.82v0.594l-0.857,0.14l-3.01,7.64h-0.762L219.241,202.395z"/>
	<path d="M228.155,209.382l1.209-0.116v-6.498l-1.055-0.365v-0.373l1.794-0.446l0.278,0.14v7.537l1.223,0.123v0.498h-3.449
		L228.155,209.382L228.155,209.382z M228.896,198.807c0-0.484,0.446-0.844,0.856-0.844c0.505,0,0.732,0.322,0.732,0.719
		c0,0.506-0.433,0.834-0.864,0.834C229.247,199.516,228.896,199.245,228.896,198.807z"/>
	<path d="M232.915,205.918c0-2.615,1.875-4.482,4.197-4.482c0.871,0,1.348,0.205,1.655,0.322v-2.842l-1.501-0.176v-0.506
		l2.277-0.234l0.278,0.146v11.213h0.996v0.447c-0.315,0.139-0.938,0.241-1.341,0.241c-0.358,0-0.674-0.052-0.674-0.651v-0.213
		c-0.388,0.344-1.281,0.871-2.658,0.871C234.438,210.057,232.915,208.789,232.915,205.918z M237.391,209.206
		c0.703-0.14,1.136-0.438,1.377-0.667v-5.859c-0.198-0.211-0.586-0.615-1.78-0.615c-1.436,0-2.98,1.063-3.018,3.604
		c-0.036,2.433,1.15,3.619,2.586,3.619C236.87,209.287,237.149,209.258,237.391,209.206z"/>
	<path d="M246.202,201.441c1.685-0.028,2.775,1.106,2.82,3.047c0.014,0.492-0.029,0.873-0.074,1.188h-5.69v0.08
		c-0.036,2.439,1.318,3.538,2.952,3.538c0.938,0,1.977-0.286,2.387-0.563l0.228,0.506c-0.571,0.513-1.89,0.82-2.995,0.82
		c-2.359,0-3.648-1.678-3.648-4.248C242.181,203.303,243.858,201.479,246.202,201.441z M247.901,205.018
		c0.088-1.23-0.146-2.293-0.981-2.74c-0.271-0.146-0.601-0.227-0.996-0.227c-1.341,0-2.454,0.996-2.644,2.967H247.901z"/>
	<path d="M254.457,201.441c2.563-0.028,3.626,2.016,3.609,4.213c-0.021,2.584-1.646,4.395-3.8,4.4
		c-2.688,0.008-3.721-2.146-3.691-4.431C250.612,203.039,252.399,201.465,254.457,201.441z M256.939,205.721
		c0-1.979-0.71-3.648-2.557-3.678c-1.691-0.029-2.681,1.311-2.681,3.516c0,2.06,0.762,3.816,2.614,3.859
		C256.01,209.455,256.939,208.137,256.939,205.721z"/>
	<path d="M264.65,202.416h-1.172v-0.439c0.828-0.152,1.084-0.131,1.289-0.504c0.117-0.265,0.338-1.342,0.366-1.744h0.558v1.979
		h2.746v0.71h-2.746v4.41c0,1.97,0.117,2.452,0.967,2.452c0.695,0,1.429-0.313,1.67-0.477l0.184,0.521
		c-0.439,0.482-1.566,0.732-2.24,0.732c-1.063,0-1.619-0.558-1.619-2.045v-5.596H264.65z"/>
	<path d="M274.832,205.01v-0.645c0-1.641-0.82-2.08-2.161-2.08c-0.746,0-1.801,0.328-2.356,0.658l-0.213-0.521
		c0.731-0.594,2.219-0.887,2.938-0.887c1.553,0,2.855,0.534,2.855,2.683l-0.015,5.141h0.968v0.402
		c-0.287,0.133-0.763,0.241-1.269,0.241c-0.337,0-0.688-0.043-0.688-0.71V209c-0.541,0.615-1.341,1.04-2.637,1.04
		c-1.304,0-2.563-0.864-2.468-2.446C269.962,205.566,273.001,205.01,274.832,205.01z M272.788,209.33
		c1.055,0,1.767-0.549,2.037-0.775c0-0.703,0-1.92,0.007-2.951c-1.589,0-3.955,0.416-3.971,2.006
		C270.848,208.818,271.646,209.33,272.788,209.33z"/>
	<path d="M278.245,209.382l1.187-0.124v-10.335l-1.289-0.176v-0.505l2.096-0.25l0.256,0.154v6.145l-0.029,1.635l3.721-3.627
		l-1.099-0.088v-0.6h3.216v0.593l-1.136,0.103l-2.726,2.607l3.289,4.344l1.076,0.131v0.491h-3.34v-0.491l1.084-0.139l-2.754-3.794
		l-1.341,1.26l0.037,1.729v0.813l1.135,0.124v0.498h-3.383V209.382L278.245,209.382z"/>
	<path d="M287.715,209.382l1.208-0.116v-6.498l-1.055-0.365v-0.373l1.795-0.446l0.278,0.14v7.537l1.224,0.123v0.498h-3.45V209.382
		L287.715,209.382z M288.454,198.807c0-0.484,0.446-0.844,0.856-0.844c0.506,0,0.732,0.322,0.732,0.719
		c0,0.506-0.432,0.834-0.863,0.834C288.807,199.516,288.454,199.245,288.454,198.807z"/>
	<path d="M292.695,209.382l1.048-0.132v-6.46l-1.076-0.388v-0.375l1.735-0.445l0.271,0.139v1.012c0.66-0.535,2.089-1.18,3.092-1.217
		c1.838-0.051,2.504,0.879,2.504,3.508v4.234l1.194,0.124v0.498h-3.376v-0.498l1.127-0.124v-4.102c0-2.08-0.446-2.879-1.918-2.828
		c-0.748,0.029-1.751,0.402-2.489,0.908v6.021l1.155,0.124v0.498h-3.266L292.695,209.382L292.695,209.382z"/>
	<path d="M304.114,209.587c-0.763-0.3-0.74-0.819-0.74-1.224c0-0.389,0.301-1.18,0.865-1.707c-0.777-0.432-1.275-1.193-1.275-2.299
		c0-2,1.648-2.944,3.34-2.98c0.784-0.016,1.511,0.152,2.06,0.534c0.213-0.198,0.614-0.329,1.297-0.329h0.871v0.855
		c-0.037,0-0.945,0-1.626-0.006c0.3,0.416,0.482,0.967,0.482,1.653c0,1.92-1.522,3.004-3.26,3.004c-0.563,0-1.084-0.088-1.537-0.271
		c-0.221,0.344-0.264,0.85-0.264,1.143c0,0.682,0.307,0.93,1.12,0.967c0.293,0.029,1.267,0.029,1.839,0.029
		c2.738,0,2.93,1.273,2.93,2.117c0,1.677-1.553,2.695-3.802,2.695c-1.839,0-3.567-0.521-3.567-2.133
		C302.847,210.693,303.602,209.902,304.114,209.587z M306.561,213.125c1.554,0,2.79-0.527,2.79-1.773
		c0-0.899-0.344-1.494-2.276-1.516l-1.245-0.008c-0.534,0-0.96-0.036-1.289-0.109c-0.337,0.314-0.659,0.776-0.659,1.567
		C303.88,212.773,305.382,213.125,306.561,213.125z M308.348,204.277c0-1.575-0.775-2.301-2.22-2.301
		c-1.127,0-2.123,0.602-2.123,2.196c0,1.317,0.726,2.302,2.314,2.302C307.579,206.475,308.348,205.756,308.348,204.277z"/>
	<path d="M315.458,209.382l2.22-0.153v-7.303c-0.747,0.271-1.296,0.432-2.036,0.623l-0.108-0.564
		c0.886-0.271,2.497-1.075,2.842-1.361l0.388,0.109l-0.015,8.496l2.102,0.153v0.498h-5.391L315.458,209.382L315.458,209.382z"/>
	<path d="M329.997,201.441c1.685-0.028,2.775,1.106,2.82,3.047c0.014,0.492-0.029,0.873-0.074,1.188h-5.69v0.08
		c-0.036,2.439,1.318,3.538,2.952,3.538c0.938,0,1.978-0.286,2.387-0.563l0.229,0.506c-0.571,0.513-1.891,0.82-2.995,0.82
		c-2.359,0-3.648-1.678-3.648-4.248C325.976,203.303,327.653,201.479,329.997,201.441z M331.696,205.018
		c0.088-1.23-0.146-2.293-0.981-2.74c-0.271-0.146-0.601-0.227-0.996-0.227c-1.341,0-2.454,0.996-2.644,2.967H331.696z"/>
	<path d="M334.421,202.395l-0.798-0.117v-0.594h3.062v0.594l-1.063,0.125l1.883,4.584l0.688,2l0.674-1.94l1.677-4.636l-1.047-0.124
		v-0.603h2.82v0.594l-0.857,0.14l-3.01,7.64h-0.762L334.421,202.395z"/>
	<path d="M347.085,201.441c1.685-0.028,2.775,1.106,2.82,3.047c0.014,0.492-0.029,0.873-0.074,1.188h-5.69v0.08
		c-0.036,2.439,1.318,3.538,2.952,3.538c0.938,0,1.978-0.286,2.387-0.563l0.229,0.506c-0.571,0.513-1.89,0.82-2.995,0.82
		c-2.359,0-3.647-1.678-3.647-4.248C343.063,203.303,344.741,201.479,347.085,201.441z M348.784,205.018
		c0.088-1.23-0.146-2.293-0.981-2.74c-0.271-0.146-0.601-0.227-0.996-0.227c-1.341,0-2.454,0.996-2.644,2.967H348.784z"/>
	<path d="M351.473,209.382l1.289-0.14v-6.452l-1.077-0.388v-0.375l1.729-0.445l0.279,0.139v1.025
		c0.417-0.506,1.75-1.209,2.737-1.209c0.322,0,0.615,0.016,0.727,0.052v1.128c-0.271-0.104-0.571-0.197-1.165-0.197
		c-0.944,0.008-1.722,0.373-2.168,0.658v6.064l2.22,0.14v0.498h-4.57L351.473,209.382L351.473,209.382z"/>
	<path d="M359.141,212.736c0.71,0.015,1.811-0.469,2.521-2.674h-0.198l-3.083-7.668l-0.908-0.109v-0.602h3.296v0.602l-1.209,0.117
		l1.868,5.119l0.667,1.867l0.498-1.742l1.611-5.26l-1.201-0.103v-0.603h3.031v0.603l-0.908,0.103
		c-1.911,5.734-2.402,7.141-2.629,7.727c-0.771,1.964-1.509,3.164-2.726,3.465c-0.196,0.052-0.401,0.074-0.637,0.074
		c-0.198,0-0.498-0.045-0.579-0.11v-0.901C358.716,212.691,358.965,212.729,359.141,212.736z"/>
	<path d="M375.613,208.1c0-2.672-2.329-3.023-4.71-2.146l-0.256-0.22l0.577-4.914h4.124l0.205-0.141h0.639l-0.279,1.049h-3.874
		l-0.534,3.588c2.453-1.105,5.229-0.234,5.229,2.652c0,2.079-2.277,4.488-5.236,4.481c-0.242,0-0.513-0.017-0.791-0.104l0.008-0.541
		C372.991,212.165,375.613,210.378,375.613,208.1z"/>
	<path d="M382.313,209.382l1.493-0.124v-6.673h-1.653v-0.438l1.653-0.322v-0.77c0-2.184,1.627-3.494,2.916-3.494
		c0.594,0,0.856,0.051,1.047,0.125v0.944c-0.176-0.103-0.606-0.212-1.26-0.212c-0.819,0-1.641,0.344-1.641,2.227v1.18h2.395v0.762
		h-2.395v6.68l1.766,0.117v0.498h-4.322L382.313,209.382L382.313,209.382z"/>
	<path d="M388.35,209.382l1.289-0.14v-6.452l-1.077-0.388v-0.375l1.729-0.445l0.279,0.139v1.025c0.417-0.506,1.75-1.209,2.737-1.209
		c0.322,0,0.615,0.016,0.727,0.052v1.128c-0.271-0.104-0.571-0.197-1.165-0.197c-0.944,0.008-1.721,0.373-2.168,0.658v6.064
		l2.22,0.14v0.498h-4.57L388.35,209.382L388.35,209.382z"/>
	<path d="M400.192,205.01v-0.645c0-1.641-0.82-2.08-2.16-2.08c-0.748,0-1.803,0.328-2.359,0.658l-0.212-0.521
		c0.732-0.594,2.22-0.887,2.937-0.887c1.554,0,2.857,0.534,2.857,2.683l-0.016,5.141h0.967v0.402
		c-0.285,0.133-0.762,0.241-1.268,0.241c-0.337,0-0.688-0.043-0.688-0.71V209c-0.542,0.615-1.34,1.04-2.637,1.04
		c-1.305,0-2.563-0.864-2.469-2.446C395.321,205.566,398.361,205.01,400.192,205.01z M398.149,209.33
		c1.055,0,1.765-0.549,2.034-0.775c0-0.703,0-1.92,0.009-2.951c-1.591,0-3.955,0.416-3.971,2.006
		C396.208,208.818,397.007,209.33,398.149,209.33z"/>
	<path d="M403.737,209.389l1.041-0.139v-6.46l-1.077-0.388v-0.381l1.743-0.439l0.264,0.139v1.012
		c0.682-0.551,2.059-1.172,3.076-1.194c1.055-0.021,1.662,0.278,2,1.024c0.65-0.498,2.035-0.996,2.995-1.024
		c1.822-0.06,2.438,0.879,2.438,3.502v4.22l1.238,0.131v0.49h-3.34v-0.49l1.047-0.131v-4.037c0-2.007-0.277-2.93-1.882-2.886
		c-0.776,0.021-1.663,0.353-2.309,0.726c0.11,0.461,0.176,1.172,0.176,1.903v4.294l1.158,0.131v0.49h-3.333v-0.49l1.12-0.14v-4.168
		c0-1.946-0.256-2.783-1.809-2.737c-0.726,0.014-1.699,0.387-2.439,0.893v1.883c0,0.988-0.007,3.01-0.007,4.139l1.157,0.131v0.491
		h-3.26v-0.493H403.737z"/>
	<path d="M422.656,201.441c1.685-0.028,2.775,1.106,2.818,3.047c0.017,0.492-0.028,0.873-0.071,1.188h-5.691v0.08
		c-0.037,2.439,1.318,3.538,2.951,3.538c0.938,0,1.979-0.286,2.389-0.563l0.228,0.506c-0.571,0.513-1.891,0.82-2.996,0.82
		c-2.357,0-3.646-1.678-3.646-4.248C418.636,203.303,420.313,201.479,422.656,201.441z M424.354,205.018
		c0.089-1.23-0.146-2.293-0.98-2.74c-0.271-0.146-0.601-0.227-0.996-0.227c-1.34,0-2.453,0.996-2.645,2.967H424.354z"/>
	<path d="M427.438,207.836h0.52l0.234,0.996c0.498,0.418,1.112,0.572,1.772,0.602c1.193,0.043,2.123-0.41,2.123-1.502
		c0-1.047-1.179-1.392-2.27-1.875c-1.165-0.52-2.302-1.164-2.278-2.453c0.029-1.473,1.56-2.125,2.864-2.16
		c0.95-0.029,1.903,0.264,2.292,0.527v1.471h-0.498l-0.249-0.914c-0.314-0.293-0.851-0.506-1.494-0.506
		c-1.188-0.008-1.883,0.563-1.896,1.398c-0.016,0.952,0.944,1.318,2.059,1.838c1.084,0.484,2.482,0.982,2.482,2.439
		c0,1.545-1.334,2.357-3.112,2.357c-0.879,0-1.81-0.211-2.549-0.621V207.836z"/>
	<path d="M61.992,220.416H60.82v-0.439c0.827-0.152,1.084-0.131,1.289-0.504c0.117-0.265,0.337-1.342,0.366-1.744h0.557v1.979h2.746
		v0.71h-2.746v4.41c0,1.97,0.117,2.452,0.967,2.452c0.695,0,1.428-0.313,1.67-0.477l0.184,0.521
		c-0.439,0.482-1.568,0.732-2.242,0.732c-1.062,0-1.618-0.558-1.618-2.045L61.992,220.416L61.992,220.416z"/>
	<path d="M70.957,219.441c2.563-0.028,3.626,2.016,3.61,4.213c-0.021,2.584-1.647,4.395-3.801,4.4
		c-2.688,0.008-3.721-2.146-3.691-4.431C67.112,221.039,68.899,219.465,70.957,219.441z M73.44,223.721
		c0-1.979-0.711-3.648-2.557-3.678c-1.691-0.029-2.681,1.311-2.681,3.516c0,2.06,0.762,3.816,2.614,3.859
		C72.51,227.455,73.44,226.137,73.44,223.721z"/>
	<path d="M81.356,227.587c-0.762-0.3-0.74-0.819-0.74-1.224c0-0.389,0.301-1.18,0.865-1.707c-0.777-0.432-1.275-1.193-1.275-2.299
		c0-2,1.648-2.944,3.34-2.98c0.784-0.016,1.51,0.152,2.059,0.534c0.213-0.198,0.615-0.329,1.297-0.329h0.871v0.855
		c-0.037,0-0.945,0-1.626-0.006c0.3,0.416,0.483,0.967,0.483,1.653c0,1.92-1.523,3.004-3.26,3.004c-0.563,0-1.084-0.088-1.537-0.271
		c-0.221,0.344-0.264,0.85-0.264,1.143c0,0.682,0.307,0.93,1.12,0.967c0.293,0.029,1.267,0.029,1.839,0.029
		c2.738,0,2.93,1.273,2.93,2.117c0,1.677-1.553,2.695-3.802,2.695c-1.839,0-3.567-0.521-3.567-2.133
		C80.089,228.693,80.844,227.902,81.356,227.587z M83.803,231.125c1.553,0,2.79-0.527,2.79-1.773c0-0.899-0.344-1.494-2.277-1.516
		l-1.245-0.008c-0.534,0-0.96-0.036-1.289-0.109c-0.337,0.314-0.659,0.776-0.659,1.567
		C81.122,230.773,82.624,231.125,83.803,231.125z M85.59,222.277c0-1.575-0.776-2.301-2.22-2.301c-1.127,0-2.123,0.602-2.123,2.196
		c0,1.317,0.725,2.302,2.314,2.302C84.821,224.475,85.59,223.756,85.59,222.277z"/>
	<path d="M92.745,219.441c1.685-0.028,2.775,1.106,2.82,3.047c0.014,0.492-0.029,0.873-0.074,1.188h-5.69v0.08
		c-0.036,2.439,1.318,3.538,2.952,3.538c0.938,0,1.977-0.286,2.387-0.563l0.228,0.506c-0.571,0.513-1.89,0.82-2.995,0.82
		c-2.359,0-3.648-1.678-3.648-4.248C88.724,221.303,90.401,219.479,92.745,219.441z M94.444,223.018
		c0.088-1.23-0.146-2.293-0.981-2.74c-0.271-0.146-0.601-0.227-0.996-0.227c-1.341,0-2.454,0.996-2.644,2.967H94.444z"/>
	<path d="M98.349,220.416h-1.172v-0.439c0.828-0.152,1.084-0.131,1.289-0.504c0.117-0.265,0.337-1.342,0.366-1.744h0.557v1.979
		h2.747v0.71h-2.747v4.41c0,1.97,0.117,2.452,0.967,2.452c0.696,0,1.429-0.313,1.67-0.477l0.183,0.521
		c-0.439,0.482-1.566,0.732-2.24,0.732c-1.063,0-1.619-0.558-1.619-2.045L98.349,220.416L98.349,220.416z"/>
	<path d="M112.36,223.01v-0.645c0-1.641-0.82-2.08-2.16-2.08c-0.748,0-1.803,0.328-2.359,0.658l-0.212-0.521
		c0.732-0.594,2.22-0.887,2.937-0.887c1.553,0,2.857,0.534,2.857,2.683l-0.016,5.141h0.967v0.402
		c-0.285,0.133-0.762,0.241-1.267,0.241c-0.337,0-0.688-0.043-0.688-0.71V227c-0.542,0.615-1.34,1.04-2.637,1.04
		c-1.304,0-2.563-0.864-2.469-2.446C107.489,223.566,110.529,223.01,112.36,223.01z M110.317,227.33
		c1.055,0,1.765-0.549,2.035-0.775c0-0.703,0-1.92,0.008-2.951c-1.59,0-3.955,0.416-3.97,2.006
		C108.376,226.818,109.175,227.33,110.317,227.33z"/>
	<path d="M119.722,227.382l1.223-0.124v-10.335l-1.193-0.176v-0.505l1.992-0.25l0.256,0.154v11.117l1.289,0.117v0.498h-3.566
		L119.722,227.382L119.722,227.382z"/>
	<path d="M128.474,219.441c2.563-0.028,3.625,2.016,3.611,4.213c-0.022,2.584-1.648,4.395-3.802,4.4
		c-2.688,0.008-3.721-2.146-3.691-4.431C124.628,221.039,126.415,219.465,128.474,219.441z M130.956,223.721
		c0-1.979-0.71-3.648-2.556-3.678c-1.692-0.029-2.681,1.311-2.681,3.516c0,2.06,0.762,3.816,2.615,3.859
		C130.026,227.455,130.956,226.137,130.956,223.721z"/>
	<path d="M137.49,219.441c2.563-0.028,3.626,2.016,3.61,4.213c-0.021,2.584-1.647,4.395-3.801,4.4
		c-2.688,0.008-3.721-2.146-3.691-4.431C133.646,221.039,135.433,219.465,137.49,219.441z M139.974,223.721
		c0-1.979-0.711-3.648-2.557-3.678c-1.691-0.029-2.681,1.311-2.681,3.516c0,2.06,0.762,3.816,2.614,3.859
		C139.043,227.455,139.974,226.137,139.974,223.721z"/>
	<path d="M144.931,229.784V231l1.686,0.132v0.491h-3.867v-0.491l1.127-0.146V220.79l-1.062-0.388v-0.375l1.722-0.445l0.277,0.146
		v0.819c0.527-0.521,1.523-1.106,2.74-1.106c1.641,0,3.223,1.106,3.223,4.08c0,2.526-1.678,4.541-4.146,4.541
		c-0.615,0-1.208-0.109-1.729-0.344L144.931,229.784z M146.704,227.455c1.523,0.008,2.995-1.135,3.018-3.816
		c0.021-2.445-1.194-3.464-2.601-3.464c-1.128,0-1.86,0.587-2.197,0.886l0.007,2.871v2.842
		C145.158,227.162,145.817,227.447,146.704,227.455z"/>
	<path d="M161.249,223.01v-0.645c0-1.641-0.82-2.08-2.16-2.08c-0.748,0-1.803,0.328-2.359,0.658l-0.212-0.521
		c0.732-0.594,2.22-0.887,2.937-0.887c1.553,0,2.857,0.534,2.857,2.683l-0.016,5.141h0.967v0.402
		c-0.285,0.133-0.762,0.241-1.267,0.241c-0.337,0-0.688-0.043-0.688-0.71V227c-0.542,0.615-1.34,1.04-2.637,1.04
		c-1.304,0-2.563-0.864-2.469-2.446C156.378,223.566,159.418,223.01,161.249,223.01z M159.206,227.33
		c1.055,0,1.765-0.549,2.035-0.775c0-0.703,0-1.92,0.008-2.951c-1.59,0-3.955,0.416-3.97,2.006
		C157.265,226.818,158.063,227.33,159.206,227.33z"/>
	<path d="M164.78,227.382l1.047-0.132v-6.46l-1.076-0.388v-0.375l1.735-0.445l0.271,0.139v1.012c0.66-0.535,2.088-1.18,3.092-1.217
		c1.838-0.051,2.504,0.879,2.504,3.508v4.234l1.194,0.124v0.498h-3.376v-0.498l1.127-0.124v-4.102c0-2.08-0.446-2.879-1.918-2.828
		c-0.748,0.029-1.751,0.402-2.49,0.908v6.021l1.156,0.124v0.498h-3.266V227.382L164.78,227.382z"/>
	<path d="M175.026,227.382l1.209-0.116v-6.498l-1.055-0.365v-0.373l1.794-0.446l0.278,0.14v7.537l1.223,0.123v0.498h-3.449V227.382z
		 M175.767,216.807c0-0.484,0.446-0.844,0.856-0.844c0.505,0,0.732,0.322,0.732,0.719c0,0.506-0.433,0.834-0.864,0.834
		C176.118,217.516,175.767,217.245,175.767,216.807z"/>
	<path d="M180.021,227.389l1.041-0.139v-6.46l-1.077-0.388v-0.381l1.743-0.439l0.264,0.139v1.012
		c0.682-0.551,2.059-1.172,3.076-1.194c1.055-0.021,1.662,0.278,2,1.024c0.651-0.498,2.035-0.996,2.995-1.024
		c1.823-0.06,2.438,0.879,2.438,3.502v4.22l1.238,0.131v0.49h-3.34v-0.49l1.047-0.131v-4.037c0-2.007-0.277-2.93-1.882-2.886
		c-0.776,0.021-1.663,0.353-2.308,0.726c0.11,0.461,0.176,1.172,0.176,1.903v4.294l1.158,0.131v0.49h-3.333v-0.49l1.12-0.14v-4.168
		c0-1.946-0.256-2.783-1.809-2.737c-0.725,0.014-1.699,0.387-2.439,0.893v1.883c0,0.988-0.007,3.01-0.007,4.139l1.157,0.131v0.491
		h-3.26v-0.493H180.021z"/>
	<path d="M200.023,223.01v-0.645c0-1.641-0.82-2.08-2.161-2.08c-0.746,0-1.801,0.328-2.357,0.658l-0.213-0.521
		c0.732-0.594,2.219-0.887,2.938-0.887c1.553,0,2.855,0.534,2.855,2.683l-0.014,5.141h0.967v0.402
		c-0.286,0.133-0.762,0.241-1.268,0.241c-0.337,0-0.688-0.043-0.688-0.71V227c-0.542,0.615-1.341,1.04-2.637,1.04
		c-1.304,0-2.563-0.864-2.468-2.446C195.153,223.566,198.192,223.01,200.023,223.01z M197.979,227.33
		c1.055,0,1.766-0.549,2.037-0.775c0-0.703,0-1.92,0.007-2.951c-1.589,0-3.955,0.416-3.97,2.006
		C196.039,226.818,196.837,227.33,197.979,227.33z"/>
	<path d="M204.542,220.416h-1.172v-0.439c0.828-0.152,1.084-0.131,1.289-0.504c0.117-0.265,0.337-1.342,0.366-1.744h0.557v1.979
		h2.747v0.71h-2.747v4.41c0,1.97,0.117,2.452,0.967,2.452c0.696,0,1.429-0.313,1.67-0.477l0.183,0.521
		c-0.439,0.482-1.566,0.732-2.24,0.732c-1.063,0-1.619-0.558-1.619-2.045L204.542,220.416L204.542,220.416z"/>
	<path d="M209.889,227.382l1.208-0.116v-6.498l-1.055-0.365v-0.373l1.795-0.446l0.278,0.14v7.537l1.224,0.123v0.498h-3.45V227.382z
		 M210.628,216.807c0-0.484,0.447-0.844,0.857-0.844c0.506,0,0.732,0.322,0.732,0.719c0,0.506-0.432,0.834-0.864,0.834
		C210.979,217.516,210.628,217.245,210.628,216.807z"/>
	<path d="M218.51,219.441c2.563-0.028,3.626,2.016,3.61,4.213c-0.021,2.584-1.647,4.395-3.801,4.4
		c-2.688,0.008-3.721-2.146-3.691-4.431C214.665,221.039,216.452,219.465,218.51,219.441z M220.993,223.721
		c0-1.979-0.711-3.648-2.557-3.678c-1.691-0.029-2.681,1.311-2.681,3.516c0,2.06,0.762,3.816,2.614,3.859
		C220.063,227.455,220.993,226.137,220.993,223.721z"/>
	<path d="M223.886,227.382l1.047-0.132v-6.46l-1.076-0.388v-0.375l1.735-0.445l0.271,0.139v1.012c0.66-0.535,2.088-1.18,3.092-1.217
		c1.838-0.051,2.504,0.879,2.504,3.508v4.234l1.194,0.124v0.498h-3.376v-0.498l1.127-0.124v-4.102c0-2.08-0.446-2.879-1.918-2.828
		c-0.748,0.029-1.751,0.402-2.49,0.908v6.021l1.156,0.124v0.498h-3.266V227.382z"/>
	<path d="M234.806,226.605l0.594-0.771c1.062,0.257,1.508,1.414,1.516,2.256c0.015,1.656-1.201,2.835-2.264,3.269l-0.256-0.322
		v-0.176c0.688-0.242,1.494-1.225,1.494-2.338c0-0.894-0.535-1.574-1.084-1.654V226.605L234.806,226.605z M234.806,221.311
		c0.066-0.41,0.483-0.674,0.835-0.631c0.433,0.053,0.563,0.375,0.505,0.711c-0.051,0.439-0.476,0.674-0.842,0.631
		C234.981,221.969,234.739,221.691,234.806,221.311z"/>
	<path d="M66.54,252.402c1.414,0,2.41,0.381,3.047,0.521l-0.109,2.021h-0.594l-0.277-1.317c-0.602-0.381-1.37-0.571-2.389-0.571
		c-2.292,0-4.46,1.838-4.46,5.127c0,2.85,1.56,5.324,4.453,5.295c1.187-0.006,2.132-0.357,2.563-0.813l0.322-1.238
		c0.146,0,0.352,0.008,0.498,0.008v1.984c-0.695,0.029-1.626,0.667-3.721,0.667c-3.025,0-5.236-2.308-5.236-5.56
		C60.63,254.798,63.413,252.402,66.54,252.402z"/>
	<path d="M71.104,263.382l1.289-0.14v-6.452l-1.077-0.388v-0.375l1.729-0.445l0.279,0.139v1.025c0.417-0.506,1.75-1.209,2.738-1.209
		c0.322,0,0.615,0.016,0.726,0.052v1.128c-0.271-0.104-0.571-0.197-1.165-0.197c-0.944,0.008-1.721,0.373-2.168,0.658v6.064
		l2.22,0.14v0.498h-4.57L71.104,263.382L71.104,263.382z"/>
	<path d="M81.862,255.441c1.685-0.028,2.775,1.106,2.82,3.047c0.014,0.492-0.029,0.873-0.074,1.188h-5.69v0.08
		c-0.036,2.439,1.318,3.538,2.952,3.538c0.938,0,1.977-0.286,2.387-0.563l0.228,0.506c-0.571,0.513-1.89,0.82-2.995,0.82
		c-2.359,0-3.648-1.678-3.648-4.248C77.841,257.303,79.519,255.479,81.862,255.441z M83.562,259.018
		c0.088-1.23-0.146-2.293-0.981-2.74c-0.271-0.146-0.601-0.227-0.996-0.227c-1.341,0-2.454,0.996-2.644,2.967H83.562z"/>
	<path d="M91.333,259.01v-0.645c0-1.641-0.82-2.08-2.16-2.08c-0.748,0-1.803,0.328-2.359,0.658l-0.212-0.521
		c0.732-0.594,2.22-0.887,2.937-0.887c1.553,0,2.857,0.534,2.857,2.683l-0.016,5.141h0.967v0.402
		c-0.285,0.133-0.762,0.241-1.267,0.241c-0.337,0-0.688-0.043-0.688-0.71V263c-0.542,0.615-1.34,1.04-2.637,1.04
		c-1.304,0-2.563-0.864-2.469-2.446C86.462,259.566,89.502,259.01,91.333,259.01z M89.29,263.33c1.055,0,1.765-0.549,2.035-0.775
		c0-0.703,0-1.92,0.008-2.951c-1.59,0-3.955,0.416-3.97,2.006C87.349,262.818,88.147,263.33,89.29,263.33z"/>
	<path d="M95.853,256.416h-1.172v-0.439c0.828-0.152,1.084-0.131,1.289-0.504c0.117-0.265,0.337-1.342,0.366-1.744h0.557v1.979
		h2.747v0.71h-2.747v4.41c0,1.97,0.117,2.452,0.967,2.452c0.696,0,1.429-0.313,1.67-0.477l0.183,0.521
		c-0.439,0.482-1.566,0.732-2.24,0.732c-1.063,0-1.619-0.558-1.619-2.045L95.853,256.416L95.853,256.416z"/>
	<path d="M104.949,255.441c1.685-0.028,2.776,1.106,2.819,3.047c0.016,0.492-0.029,0.873-0.072,1.188h-5.691v0.08
		c-0.037,2.439,1.318,3.538,2.951,3.538c0.938,0,1.979-0.286,2.389-0.563l0.227,0.506c-0.571,0.513-1.89,0.82-2.996,0.82
		c-2.357,0-3.646-1.678-3.646-4.248C100.929,257.303,102.605,255.479,104.949,255.441z M106.648,259.018
		c0.088-1.23-0.146-2.293-0.981-2.74c-0.271-0.146-0.601-0.227-0.996-0.227c-1.34,0-2.453,0.996-2.645,2.967H106.648z"/>
	<path d="M118.249,259.01v-0.645c0-1.641-0.82-2.08-2.16-2.08c-0.748,0-1.803,0.328-2.359,0.658l-0.212-0.521
		c0.732-0.594,2.22-0.887,2.937-0.887c1.553,0,2.857,0.534,2.857,2.683l-0.016,5.141h0.967v0.402
		c-0.285,0.133-0.762,0.241-1.267,0.241c-0.337,0-0.688-0.043-0.688-0.71V263c-0.542,0.615-1.34,1.04-2.637,1.04
		c-1.304,0-2.563-0.864-2.469-2.446C113.378,259.566,116.418,259.01,118.249,259.01z M116.206,263.33
		c1.055,0,1.765-0.549,2.035-0.775c0-0.703,0-1.92,0.008-2.951c-1.59,0-3.955,0.416-3.97,2.006
		C114.265,262.818,115.063,263.33,116.206,263.33z"/>
	<path d="M121.78,263.382l1.047-0.132v-6.46l-1.076-0.388v-0.375l1.735-0.445l0.271,0.139v1.012c0.66-0.535,2.088-1.18,3.092-1.217
		c1.838-0.051,2.504,0.879,2.504,3.508v4.234l1.194,0.124v0.498h-3.376v-0.498l1.127-0.124v-4.102c0-2.08-0.446-2.879-1.918-2.828
		c-0.748,0.029-1.751,0.402-2.49,0.908v6.021l1.156,0.124v0.498h-3.266L121.78,263.382L121.78,263.382z"/>
	<path d="M139.475,255.441c2.563-0.028,3.626,2.016,3.61,4.213c-0.021,2.584-1.647,4.395-3.801,4.4
		c-2.688,0.008-3.721-2.146-3.691-4.431C135.63,257.039,137.417,255.465,139.475,255.441z M141.958,259.721
		c0-1.979-0.711-3.648-2.557-3.678c-1.691-0.029-2.681,1.311-2.681,3.516c0,2.06,0.762,3.816,2.614,3.859
		C141.027,263.455,141.958,262.137,141.958,259.721z"/>
	<path d="M144.659,256.395l-0.798-0.117v-0.594h3.062v0.594l-1.063,0.125l1.883,4.584l0.688,2l0.674-1.94l1.677-4.636l-1.047-0.124
		v-0.603h2.82v0.594l-0.857,0.14l-3.01,7.64h-0.762L144.659,256.395z"/>
	<path d="M157.323,255.441c1.685-0.028,2.775,1.106,2.82,3.047c0.014,0.492-0.029,0.873-0.074,1.188h-5.69v0.08
		c-0.036,2.439,1.318,3.538,2.952,3.538c0.938,0,1.977-0.286,2.387-0.563l0.228,0.506c-0.571,0.513-1.89,0.82-2.995,0.82
		c-2.359,0-3.648-1.678-3.648-4.248C153.302,257.303,154.979,255.479,157.323,255.441z M159.022,259.018
		c0.088-1.23-0.146-2.293-0.981-2.74c-0.271-0.146-0.601-0.227-0.996-0.227c-1.341,0-2.454,0.996-2.644,2.967H159.022z"/>
	<path d="M161.711,263.382l1.289-0.14v-6.452l-1.077-0.388v-0.375l1.729-0.445l0.279,0.139v1.025
		c0.417-0.506,1.75-1.209,2.738-1.209c0.322,0,0.615,0.016,0.726,0.052v1.128c-0.271-0.104-0.571-0.197-1.165-0.197
		c-0.944,0.008-1.721,0.373-2.168,0.658v6.064l2.22,0.14v0.498h-4.57L161.711,263.382L161.711,263.382z"/>
	<path d="M173.554,259.01v-0.645c0-1.641-0.82-2.08-2.16-2.08c-0.748,0-1.803,0.328-2.359,0.658l-0.212-0.521
		c0.732-0.594,2.22-0.887,2.937-0.887c1.553,0,2.857,0.534,2.857,2.683l-0.016,5.141h0.967v0.402
		c-0.285,0.133-0.762,0.241-1.267,0.241c-0.337,0-0.688-0.043-0.688-0.71V263c-0.542,0.615-1.34,1.04-2.637,1.04
		c-1.304,0-2.563-0.864-2.469-2.446C168.683,259.566,171.723,259.01,173.554,259.01z M171.511,263.33
		c1.055,0,1.765-0.549,2.035-0.775c0-0.703,0-1.92,0.008-2.951c-1.59,0-3.955,0.416-3.97,2.006
		C169.569,262.818,170.368,263.33,171.511,263.33z"/>
	<path d="M177.085,263.382l1.223-0.124v-10.335l-1.193-0.176v-0.505l1.992-0.25l0.256,0.154v11.117l1.289,0.117v0.498h-3.566
		L177.085,263.382L177.085,263.382z"/>
	<path d="M182.196,263.382l1.224-0.124v-10.335l-1.194-0.176v-0.505l1.992-0.25l0.257,0.154v11.117l1.289,0.117v0.498h-3.567v-0.497
		H182.196z"/>
	<path d="M190.948,256.395l-0.798-0.117v-0.594h3.062v0.594l-1.063,0.125l1.883,4.584l0.688,2l0.674-1.94l1.677-4.636l-1.047-0.124
		v-0.603h2.82v0.594l-0.857,0.14l-3.01,7.64h-0.762L190.948,256.395z"/>
	<path d="M199.862,263.382l1.209-0.116v-6.498l-1.055-0.365v-0.373l1.794-0.446l0.278,0.14v7.537l1.223,0.123v0.498h-3.449V263.382z
		 M200.603,252.807c0-0.484,0.446-0.844,0.856-0.844c0.505,0,0.732,0.322,0.732,0.719c0,0.506-0.433,0.834-0.864,0.834
		C200.954,253.516,200.603,253.245,200.603,252.807z"/>
	<path d="M205.011,261.836h0.521l0.234,0.996c0.498,0.418,1.113,0.572,1.773,0.602c1.193,0.043,2.123-0.41,2.123-1.502
		c0-1.047-1.179-1.392-2.27-1.875c-1.165-0.52-2.301-1.164-2.278-2.453c0.029-1.473,1.56-2.125,2.864-2.16
		c0.951-0.029,1.904,0.264,2.292,0.527v1.471h-0.498l-0.249-0.914c-0.314-0.293-0.85-0.506-1.494-0.506
		c-1.187-0.008-1.883,0.563-1.896,1.398c-0.016,0.952,0.944,1.318,2.058,1.838c1.084,0.484,2.483,0.982,2.483,2.439
		c0,1.545-1.334,2.357-3.113,2.357c-0.879,0-1.809-0.212-2.549-0.621V261.836z"/>
	<path d="M213.082,256.432l-0.755-0.146v-0.438l1.575-0.31l0.22,0.133v5.046c0,1.787,0.278,2.557,1.75,2.557
		c1.143,0,2.154-0.732,2.439-0.996v-5.771l-0.916-0.16v-0.469l1.751-0.33l0.212,0.125v7.689h0.924v0.447
		c-0.279,0.125-0.836,0.248-1.194,0.248c-0.433,0-0.674-0.176-0.674-0.557v-0.659c-0.952,0.783-1.956,1.193-2.959,1.193
		c-2.3,0-2.358-1.501-2.373-3.529V256.432z"/>
	<path d="M226.837,259.01v-0.645c0-1.641-0.82-2.08-2.16-2.08c-0.748,0-1.803,0.328-2.359,0.658l-0.212-0.521
		c0.732-0.594,2.22-0.887,2.937-0.887c1.553,0,2.857,0.534,2.857,2.683l-0.016,5.141h0.967v0.402
		c-0.285,0.133-0.762,0.241-1.267,0.241c-0.337,0-0.688-0.043-0.688-0.71V263c-0.542,0.615-1.34,1.04-2.637,1.04
		c-1.304,0-2.563-0.864-2.469-2.446C221.966,259.566,225.006,259.01,226.837,259.01z M224.794,263.33
		c1.055,0,1.765-0.549,2.035-0.775c0-0.703,0-1.92,0.008-2.951c-1.59,0-3.955,0.416-3.97,2.006
		C222.853,262.818,223.651,263.33,224.794,263.33z"/>
	<path d="M230.368,263.382l1.223-0.124v-10.335l-1.193-0.176v-0.505l1.992-0.25l0.256,0.154v11.117l1.289,0.117v0.498h-3.566
		L230.368,263.382L230.368,263.382z"/>
	<path d="M235.502,263.382l1.208-0.116v-6.498l-1.055-0.365v-0.373l1.795-0.446l0.278,0.14v7.537l1.224,0.123v0.498h-3.45V263.382z
		 M236.241,252.807c0-0.484,0.447-0.844,0.857-0.844c0.506,0,0.732,0.322,0.732,0.719c0,0.506-0.432,0.834-0.864,0.834
		C236.593,253.516,236.241,253.245,236.241,252.807z"/>
	<path d="M240.688,262.62l4.232-5.647l0.631-0.762l-4.205,0.117l-0.352,1.393h-0.527l0.016-2.037h6.152l0.168,0.492l-4.688,6.217
		l-0.732,0.924l4.57-0.139l0.418-1.318c0.168,0,0.402,0.006,0.57,0.006l-0.124,2.016h-6.481l-0.213-0.513L240.688,262.62z"/>
	<path d="M253.234,259.01v-0.645c0-1.641-0.82-2.08-2.161-2.08c-0.746,0-1.801,0.328-2.357,0.658l-0.213-0.521
		c0.732-0.594,2.219-0.887,2.938-0.887c1.553,0,2.855,0.534,2.855,2.683l-0.014,5.141h0.967v0.402
		c-0.286,0.133-0.762,0.241-1.268,0.241c-0.337,0-0.688-0.043-0.688-0.71V263c-0.542,0.615-1.341,1.04-2.637,1.04
		c-1.304,0-2.563-0.864-2.468-2.446C248.364,259.566,251.403,259.01,253.234,259.01z M251.19,263.33
		c1.055,0,1.766-0.549,2.037-0.775c0-0.703,0-1.92,0.007-2.951c-1.589,0-3.955,0.416-3.97,2.006
		C249.25,262.818,250.048,263.33,251.19,263.33z"/>
	<path d="M257.753,256.416h-1.172v-0.439c0.828-0.152,1.084-0.131,1.289-0.504c0.116-0.265,0.337-1.342,0.366-1.744h0.557v1.979
		h2.747v0.71h-2.747v4.41c0,1.97,0.117,2.452,0.967,2.452c0.696,0,1.43-0.313,1.67-0.477l0.184,0.521
		c-0.439,0.482-1.566,0.732-2.24,0.732c-1.063,0-1.619-0.558-1.619-2.045L257.753,256.416L257.753,256.416z"/>
	<path d="M263.1,263.382l1.209-0.116v-6.498l-1.056-0.365v-0.373l1.795-0.446l0.278,0.14v7.537l1.224,0.123v0.498h-3.45V263.382
		L263.1,263.382z M263.839,252.807c0-0.484,0.447-0.844,0.856-0.844c0.507,0,0.732,0.322,0.732,0.719
		c0,0.506-0.432,0.834-0.863,0.834C264.189,253.516,263.839,253.245,263.839,252.807z"/>
	<path d="M271.721,255.441c2.563-0.028,3.627,2.016,3.61,4.213c-0.021,2.584-1.647,4.395-3.802,4.4
		c-2.688,0.008-3.721-2.146-3.69-4.431C267.876,257.039,269.663,255.465,271.721,255.441z M274.204,259.721
		c0-1.979-0.711-3.648-2.558-3.678c-1.69-0.029-2.681,1.311-2.681,3.516c0,2.06,0.763,3.816,2.614,3.859
		C273.273,263.455,274.204,262.137,274.204,259.721z"/>
	<path d="M277.098,263.382l1.047-0.132v-6.46l-1.076-0.388v-0.375l1.734-0.445l0.271,0.139v1.012c0.66-0.535,2.088-1.18,3.092-1.217
		c1.838-0.051,2.504,0.879,2.504,3.508v4.234l1.193,0.124v0.498h-3.375v-0.498l1.127-0.124v-4.102c0-2.08-0.446-2.879-1.918-2.828
		c-0.748,0.029-1.752,0.402-2.49,0.908v6.021l1.156,0.124v0.498h-3.266V263.382L277.098,263.382z"/>
	<path d="M294.791,255.441c2.563-0.028,3.626,2.016,3.61,4.213c-0.021,2.584-1.647,4.395-3.802,4.4
		c-2.688,0.008-3.721-2.146-3.69-4.431C290.945,257.039,292.732,255.465,294.791,255.441z M297.273,259.721
		c0-1.979-0.711-3.648-2.557-3.678c-1.691-0.029-2.681,1.311-2.681,3.516c0,2.06,0.762,3.816,2.614,3.859
		C296.344,263.455,297.273,262.137,297.273,259.721z"/>
	<path d="M300.034,263.382l1.494-0.124v-6.673h-1.654v-0.438l1.654-0.322v-0.77c0-2.184,1.627-3.494,2.916-3.494
		c0.593,0,0.855,0.051,1.047,0.125v0.944c-0.176-0.103-0.607-0.212-1.26-0.212c-0.82,0-1.642,0.344-1.642,2.227v1.18h2.396v0.762
		h-2.396v6.68l1.767,0.117v0.498h-4.322V263.382L300.034,263.382z"/>
	<path d="M311.658,262.613c0.433,0.051,0.563,0.373,0.505,0.709c-0.051,0.439-0.477,0.675-0.842,0.631
		c-0.322-0.051-0.564-0.33-0.498-0.711C310.89,262.832,311.307,262.568,311.658,262.613z"/>
	<path d="M316.492,263.587c-0.762-0.3-0.739-0.819-0.739-1.224c0-0.389,0.3-1.18,0.863-1.707c-0.775-0.432-1.273-1.193-1.273-2.299
		c0-2,1.647-2.944,3.34-2.98c0.783-0.016,1.509,0.152,2.059,0.534c0.212-0.198,0.615-0.329,1.296-0.329h0.872v0.855
		c-0.036,0-0.944,0-1.626-0.006c0.301,0.416,0.482,0.967,0.482,1.653c0,1.92-1.522,3.004-3.259,3.004
		c-0.563,0-1.084-0.088-1.539-0.271c-0.219,0.344-0.264,0.85-0.264,1.143c0,0.682,0.309,0.93,1.121,0.967
		c0.293,0.029,1.268,0.029,1.838,0.029c2.74,0,2.93,1.273,2.93,2.117c0,1.677-1.553,2.695-3.801,2.695
		c-1.838,0-3.566-0.521-3.566-2.133C315.226,264.693,315.979,263.902,316.492,263.587z M318.938,267.125
		c1.553,0,2.79-0.527,2.79-1.773c0-0.899-0.345-1.494-2.277-1.516l-1.245-0.008c-0.535,0-0.959-0.036-1.289-0.109
		c-0.337,0.314-0.659,0.776-0.659,1.567C316.258,266.773,317.759,267.125,318.938,267.125z M320.726,258.277
		c0-1.575-0.775-2.301-2.219-2.301c-1.129,0-2.125,0.602-2.125,2.196c0,1.317,0.727,2.302,2.314,2.302
		C319.956,260.475,320.726,259.756,320.726,258.277z"/>
	<path d="M324.132,263.382l1.209-0.116v-6.498l-1.055-0.365v-0.373l1.794-0.446l0.278,0.14v7.537l1.223,0.123v0.498h-3.449V263.382
		L324.132,263.382z M324.872,252.807c0-0.484,0.446-0.844,0.855-0.844c0.506,0,0.732,0.322,0.732,0.719
		c0,0.506-0.433,0.834-0.864,0.834C325.224,253.516,324.872,253.245,324.872,252.807z"/>
	<path d="M328.979,263.382l1.493-0.124v-6.673h-1.653v-0.438l1.653-0.322v-0.77c0-2.184,1.627-3.494,2.916-3.494
		c0.594,0,0.856,0.051,1.047,0.125v0.944c-0.176-0.103-0.606-0.212-1.26-0.212c-0.819,0-1.641,0.344-1.641,2.227v1.18h2.395v0.762
		h-2.395v6.68l1.766,0.117v0.498h-4.322L328.979,263.382L328.979,263.382z"/>
	<path d="M339.095,263.382l1.209-0.116v-6.498l-1.055-0.365v-0.373l1.794-0.446l0.278,0.14v7.537l1.223,0.123v0.498h-3.449V263.382
		L339.095,263.382z M339.835,252.807c0-0.484,0.446-0.844,0.856-0.844c0.505,0,0.731,0.322,0.731,0.719
		c0,0.506-0.433,0.834-0.864,0.834C340.187,253.516,339.835,253.245,339.835,252.807z"/>
	<path d="M344.089,263.389l1.041-0.139v-6.46l-1.077-0.388v-0.381l1.743-0.439l0.264,0.139v1.012
		c0.683-0.551,2.06-1.172,3.076-1.194c1.056-0.021,1.662,0.278,2,1.024c0.651-0.498,2.035-0.996,2.995-1.024
		c1.823-0.06,2.438,0.879,2.438,3.502v4.22l1.237,0.131v0.49h-3.34v-0.49l1.047-0.131v-4.037c0-2.007-0.276-2.93-1.882-2.886
		c-0.775,0.021-1.663,0.353-2.308,0.726c0.109,0.461,0.176,1.172,0.176,1.903v4.294l1.158,0.131v0.49h-3.333v-0.49l1.12-0.14v-4.168
		c0-1.946-0.257-2.782-1.81-2.737c-0.725,0.014-1.699,0.387-2.438,0.893v1.883c0,0.988-0.007,3.01-0.007,4.139l1.156,0.131v0.491
		h-3.26v-0.493H344.089z"/>
	<path d="M364.092,259.01v-0.645c0-1.641-0.819-2.08-2.161-2.08c-0.746,0-1.801,0.328-2.356,0.658l-0.213-0.521
		c0.731-0.594,2.219-0.887,2.938-0.887c1.553,0,2.855,0.534,2.855,2.683l-0.015,5.141h0.968v0.402
		c-0.286,0.133-0.763,0.241-1.269,0.241c-0.337,0-0.688-0.043-0.688-0.71V263c-0.542,0.615-1.342,1.04-2.638,1.04
		c-1.304,0-2.563-0.864-2.468-2.446C359.222,259.566,362.261,259.01,364.092,259.01z M362.048,263.33
		c1.055,0,1.767-0.549,2.037-0.775c0-0.703,0-1.92,0.007-2.951c-1.589,0-3.955,0.416-3.97,2.006
		C360.107,262.818,360.905,263.33,362.048,263.33z"/>
	<path d="M368.815,263.587c-0.763-0.3-0.74-0.819-0.74-1.224c0-0.389,0.301-1.18,0.865-1.707c-0.777-0.432-1.275-1.193-1.275-2.299
		c0-2,1.648-2.944,3.34-2.98c0.784-0.016,1.51,0.152,2.06,0.534c0.213-0.198,0.614-0.329,1.297-0.329h0.871v0.855
		c-0.037,0-0.945,0-1.626-0.006c0.3,0.416,0.482,0.967,0.482,1.653c0,1.92-1.522,3.004-3.26,3.004c-0.563,0-1.084-0.088-1.537-0.271
		c-0.221,0.344-0.264,0.85-0.264,1.143c0,0.682,0.307,0.93,1.12,0.967c0.293,0.029,1.267,0.029,1.839,0.029
		c2.737,0,2.93,1.273,2.93,2.117c0,1.677-1.553,2.695-3.802,2.695c-1.839,0-3.567-0.521-3.567-2.133
		C367.548,264.693,368.303,263.902,368.815,263.587z M371.262,267.125c1.554,0,2.79-0.527,2.79-1.773
		c0-0.899-0.344-1.494-2.276-1.516l-1.245-0.008c-0.534,0-0.96-0.036-1.289-0.109c-0.337,0.314-0.659,0.776-0.659,1.567
		C368.581,266.773,370.083,267.125,371.262,267.125z M373.049,258.277c0-1.575-0.775-2.301-2.22-2.301
		c-1.127,0-2.123,0.602-2.123,2.196c0,1.317,0.725,2.302,2.314,2.302C372.28,260.475,373.049,259.756,373.049,258.277z"/>
	<path d="M380.204,255.441c1.685-0.028,2.775,1.106,2.82,3.047c0.014,0.492-0.029,0.873-0.074,1.188h-5.69v0.08
		c-0.036,2.439,1.318,3.538,2.952,3.538c0.938,0,1.978-0.286,2.387-0.563l0.229,0.506c-0.571,0.513-1.891,0.82-2.995,0.82
		c-2.359,0-3.648-1.678-3.648-4.248C376.183,257.303,377.86,255.479,380.204,255.441z M381.903,259.018
		c0.088-1.23-0.146-2.293-0.981-2.74c-0.271-0.146-0.601-0.227-0.996-0.227c-1.341,0-2.454,0.996-2.644,2.967H381.903z"/>
	<path d="M384.987,261.836h0.52l0.234,0.996c0.498,0.418,1.113,0.572,1.772,0.602c1.193,0.043,2.123-0.41,2.123-1.502
		c0-1.047-1.179-1.392-2.27-1.875c-1.165-0.52-2.301-1.164-2.278-2.453c0.029-1.473,1.561-2.125,2.864-2.16
		c0.951-0.029,1.904,0.264,2.292,0.527v1.471h-0.498l-0.249-0.914c-0.314-0.293-0.85-0.506-1.494-0.506
		c-1.187-0.008-1.883,0.563-1.896,1.398c-0.017,0.952,0.943,1.318,2.058,1.838c1.084,0.484,2.483,0.982,2.483,2.439
		c0,1.545-1.334,2.357-3.113,2.357c-0.879,0-1.809-0.212-2.549-0.621V261.836L384.987,261.836z"/>
	<path d="M394.025,262.613c0.433,0.051,0.563,0.373,0.505,0.709c-0.051,0.439-0.477,0.675-0.842,0.631
		c-0.322-0.051-0.564-0.33-0.498-0.711C393.257,262.832,393.674,262.568,394.025,262.613z"/>
</g>
<rect x="50" y="90" fill="none" width="16.667" height="15.667"/>
<text transform="matrix(1 0 0 1 50 101.9395)" font-family="'Merriweather-Heavy'" font-size="15"></text>
<rect x="50" y="144.162" fill="none" width="26.667" height="15.667"/>
<text transform="matrix(1 0 0 1 50 156.1006)" font-family="'Merriweather-Heavy'" font-size="15"></text>
<rect x="50" y="198.242" fill="none" width="26.667" height="15.666"/>
<text transform="matrix(1 0 0 1 50 210.1797)" font-family="'Merriweather-Heavy'" font-size="15"></text>
<rect x="50" y="252.242" fill="none" width="26.667" height="15.666"/>
<text transform="matrix(1 0 0 1 50 264.1797)" font-family="'Merriweather-Heavy'" font-size="15"></text>
</svg>
