<?xml version="1.0" encoding="utf-8"?>
<!-- Generator: Adobe Illustrator 16.0.0, SVG Export Plug-In . SVG Version: 6.00 Build 0)  -->
<!DOCTYPE svg PUBLIC "-//W3C//DTD SVG 1.1//EN" "http://www.w3.org/Graphics/SVG/1.1/DTD/svg11.dtd">
<svg version="1.1" id="Layer_1" xmlns="http://www.w3.org/2000/svg" xmlns:xlink="http://www.w3.org/1999/xlink" x="0px" y="0px"
	 width="217px" height="221px" viewBox="0 0 217 221" enable-background="new 0 0 217 221" xml:space="preserve">
<g id="Layer_1_1_">
</g>
<g id="Layer_3">
	<g>
		<rect x="12.5" y="174" fill="#FFFFFF" width="96" height="28"/>
	</g>
	<g>
		<rect x="9.657" y="19.146" fill="none" width="196" height="50.554"/>
	</g>
	<g enable-background="new    ">
		<path fill="#FFFFFF" d="M56.344,32.271v-8.147c0-2.725,2.225-4.974,4.974-4.974c2.575,0,4.699,2.024,4.949,4.474
			c0.05,0.475-0.3,0.925-0.8,0.975c-0.475,0.05-0.924-0.3-0.975-0.8c-0.15-1.624-1.524-2.874-3.174-2.874
			c-1.75,0-3.199,1.449-3.199,3.199v8.147c0,1.75,1.45,3.199,3.199,3.199c1.65,0,3.024-1.249,3.174-2.874
			c0.05-0.5,0.5-0.85,0.975-0.8c0.5,0.05,0.85,0.5,0.8,0.975c-0.25,2.574-2.499,4.475-4.949,4.475
			C58.568,37.246,56.344,35.021,56.344,32.271z"/>
		<path fill="#FFFFFF" d="M68.918,32.271v-8.147c0-2.725,2.225-4.974,4.974-4.974c2.75,0,4.974,2.249,4.974,4.974v8.147
			c0,2.75-2.225,4.975-4.974,4.975C71.143,37.246,68.918,35.021,68.918,32.271z M70.693,24.124v8.147
			c0,1.75,1.425,3.199,3.199,3.199c1.75,0,3.199-1.449,3.199-3.199v-8.147c0-1.75-1.449-3.199-3.199-3.199
			C72.118,20.925,70.693,22.374,70.693,24.124z"/>
		<path fill="#FFFFFF" d="M94.291,36.346V23.824l-4.099,8.197c-0.15,0.325-0.45,0.5-0.8,0.5c-0.325,0-0.625-0.175-0.8-0.5
			l-4.074-8.197v12.521c0,0.5-0.4,0.9-0.899,0.9c-0.475,0-0.875-0.4-0.875-0.9V20.05c0.025-0.5,0.4-0.899,0.875-0.899
			c0.325,0,0.649,0.199,0.8,0.5l4.974,9.997l4.999-9.997c0.15-0.301,0.475-0.5,0.8-0.5c0.525,0,0.875,0.475,0.875,0.899v16.296
			c0,0.5-0.4,0.9-0.875,0.9C94.691,37.246,94.291,36.846,94.291,36.346z"/>
		<path fill="#FFFFFF" d="M100.318,36.346V20.2c0-0.5,0.4-0.9,0.875-0.9h4.074c2.625,0,4.749,2.149,4.749,4.774
			c0,2.599-2.124,4.748-4.749,4.748h-3.174v7.523c0,0.5-0.4,0.9-0.9,0.9C100.718,37.246,100.318,36.846,100.318,36.346z
			 M102.093,27.023h3.174c1.625,0,2.974-1.325,2.974-2.949c0-1.65-1.35-2.975-2.974-2.975h-3.174V27.023z"/>
		<path fill="#FFFFFF" d="M112.693,32.271V20.05c0-0.5,0.399-0.899,0.899-0.899c0.475,0,0.874,0.399,0.874,0.899v12.222
			c0,1.75,1.45,3.175,3.199,3.175c1.775,0,3.199-1.425,3.199-3.175V20.05c0-0.5,0.4-0.899,0.9-0.899
			c0.475,0,0.875,0.399,0.875,0.899v12.222c0,2.725-2.225,4.975-4.975,4.975C114.918,37.246,112.693,34.996,112.693,32.271z"/>
		<path fill="#FFFFFF" d="M134.616,19.3c0.5,0,0.899,0.4,0.899,0.875c0,0.5-0.399,0.899-0.899,0.899h-3.399v15.271
			c0,0.5-0.4,0.9-0.899,0.9c-0.476,0-0.875-0.4-0.875-0.9V21.074h-3.399c-0.5,0-0.899-0.399-0.899-0.899
			c0-0.475,0.399-0.875,0.899-0.875H134.616z"/>
		<path fill="#FFFFFF" d="M146.99,36.196c0,0.499-0.4,0.899-0.9,0.899h-7.197c-0.475,0-0.875-0.4-0.875-0.899V20.175
			c0-0.475,0.4-0.875,0.875-0.875h7.123c0.5,0,0.9,0.4,0.9,0.875c0,0.5-0.4,0.899-0.9,0.899h-6.224v5.549h5.499
			c0.5,0,0.899,0.4,0.899,0.9c0,0.475-0.399,0.874-0.899,0.874h-5.499v6.898h6.298C146.59,35.296,146.99,35.696,146.99,36.196z"/>
		<path fill="#FFFFFF" d="M158.815,37.246c-0.351,0-0.725-0.226-0.874-0.601l-2.625-8.072c0,0-0.2,0-3.674,0v7.798
			c0,0.475-0.4,0.875-0.9,0.875c-0.475,0-0.875-0.4-0.875-0.875V20.175c0-0.475,0.4-0.875,0.875-0.875h4.274
			c2.574,0,4.648,2.075,4.648,4.649c0,1.824-1.075,3.424-2.624,4.174l2.6,7.948C159.766,36.596,159.44,37.246,158.815,37.246z
			 M155.017,26.798c1.6,0,2.874-1.274,2.874-2.849c0-1.6-1.274-2.875-2.874-2.875h-3.374v5.724H155.017z"/>
	</g>
	<g enable-background="new    ">
		<path fill="#FFFFFF" d="M65.607,62.797c0-0.5,0.4-0.9,0.875-0.9c0.5,0,0.9,0.4,0.9,0.9c0,1.3,1.075,2.674,3.099,2.674
			c1.924,0,3.149-1.05,3.149-2.624c0-1.175-0.15-2.175-2.05-3.349c-2.274-1.325-2.799-1.625-3.324-1.975
			c-1.524-1.05-2.499-2.274-2.499-4.1c0-2.674,2.174-4.273,4.674-4.273c2.624,0,4.749,1.899,4.749,4.448c0,0.5-0.4,0.9-0.899,0.9
			c-0.5,0-0.9-0.4-0.9-0.9c0-1.324-1-2.674-2.949-2.674c-2,0-2.875,1.25-2.875,2.475c0,0.624,0,1.449,1.575,2.574
			c0.375,0.274,1.375,0.875,3.324,1.999c1.924,1.1,2.974,2.725,2.974,4.874c0,2.8-2.424,4.399-4.949,4.399
			C67.432,67.246,65.607,64.996,65.607,62.797z"/>
		<path fill="#FFFFFF" d="M78.432,62.271v-8.147c0-2.725,2.225-4.974,4.974-4.974c2.575,0,4.699,2.024,4.949,4.474
			c0.05,0.475-0.3,0.925-0.8,0.975c-0.475,0.05-0.925-0.3-0.975-0.8c-0.15-1.624-1.524-2.874-3.174-2.874
			c-1.75,0-3.199,1.449-3.199,3.199v8.147c0,1.75,1.45,3.199,3.199,3.199c1.65,0,3.024-1.249,3.174-2.874
			c0.05-0.5,0.5-0.85,0.975-0.8c0.5,0.05,0.85,0.5,0.8,0.975c-0.25,2.574-2.5,4.475-4.949,4.475
			C80.656,67.246,78.432,65.021,78.432,62.271z"/>
		<path fill="#FFFFFF" d="M98.729,66.196c0,0.499-0.4,0.899-0.9,0.899h-6.249c-0.5,0-0.899-0.4-0.899-0.899c0-0.5,0.4-0.9,0.899-0.9
			h2.25V51.1h-2.25c-0.5,0-0.899-0.4-0.899-0.899c0-0.5,0.4-0.9,0.899-0.9h6.249c0.5,0,0.9,0.4,0.9,0.9c0,0.499-0.4,0.899-0.9,0.899
			h-2.224v14.196h2.224C98.33,65.296,98.729,65.696,98.729,66.196z"/>
		<path fill="#FFFFFF" d="M111.254,66.196c0,0.499-0.4,0.899-0.899,0.899h-7.198c-0.475,0-0.875-0.4-0.875-0.899V50.175
			c0-0.475,0.4-0.875,0.875-0.875h7.123c0.5,0,0.9,0.4,0.9,0.875c0,0.5-0.4,0.899-0.9,0.899h-6.224v5.549h5.499
			c0.5,0,0.899,0.4,0.899,0.9c0,0.475-0.399,0.874-0.899,0.874h-5.499v6.898h6.299C110.854,65.296,111.254,65.696,111.254,66.196z"
			/>
		<path fill="#FFFFFF" d="M122.454,66.746l-6.548-12.972v12.571c0,0.5-0.4,0.9-0.9,0.9c-0.475,0-0.875-0.4-0.875-0.9V50.05
			c0-0.5,0.426-0.899,0.875-0.899c0.325,0,0.65,0.199,0.8,0.5l6.549,12.972V50.05c0-0.5,0.399-0.899,0.899-0.899
			s0.9,0.399,0.9,0.899v16.296c0,0.425-0.301,0.775-0.7,0.875c-0.075,0.025-0.125,0.025-0.2,0.025
			C122.93,67.246,122.604,67.07,122.454,66.746z"/>
		<path fill="#FFFFFF" d="M128.156,62.271v-8.147c0-2.725,2.225-4.974,4.974-4.974c2.575,0,4.699,2.024,4.949,4.474
			c0.05,0.475-0.3,0.925-0.8,0.975c-0.475,0.05-0.925-0.3-0.975-0.8c-0.15-1.624-1.525-2.874-3.175-2.874
			c-1.749,0-3.199,1.449-3.199,3.199v8.147c0,1.75,1.45,3.199,3.199,3.199c1.649,0,3.024-1.249,3.175-2.874
			c0.05-0.5,0.5-0.85,0.975-0.8c0.5,0.05,0.85,0.5,0.8,0.975c-0.25,2.574-2.499,4.475-4.949,4.475
			C130.381,67.246,128.156,65.021,128.156,62.271z"/>
		<path fill="#FFFFFF" d="M150.078,66.196c0,0.499-0.399,0.899-0.899,0.899h-7.198c-0.475,0-0.875-0.4-0.875-0.899V50.175
			c0-0.475,0.4-0.875,0.875-0.875h7.123c0.5,0,0.9,0.4,0.9,0.875c0,0.5-0.4,0.899-0.9,0.899h-6.223v5.549h5.498
			c0.5,0,0.9,0.4,0.9,0.9c0,0.475-0.4,0.874-0.9,0.874h-5.498v6.898h6.298C149.679,65.296,150.078,65.696,150.078,66.196z"/>
	</g>
	<g>
		<rect x="13.5" y="92" fill="#FFFFFF" width="188" height="39"/>
	</g>
	<g>
		<rect x="9.657" y="97.427" fill="none" width="196" height="31.106"/>
	</g>
	<g enable-background="new    ">
		<path fill="#78C4D3" d="M93.609,113.843v4.445c0,3.647-3.001,6.648-6.687,6.648c-3.647,0-6.649-3.001-6.649-6.648v-14.172
			c0-3.686,3.001-6.688,6.649-6.688c3.305,0,6.345,2.622,6.649,6.079c0.076,0.685-0.494,1.482-1.292,1.482
			c-0.722,0-1.33-0.532-1.406-1.254c-0.19-2.014-1.899-3.571-3.951-3.571c-2.166,0-3.952,1.747-3.952,3.951v4.597
			c1.064-0.949,2.394-1.52,3.952-1.52C90.607,107.193,93.609,110.157,93.609,113.843z M90.873,118.288v-4.445
			c0-2.204-1.748-3.951-3.951-3.951c-2.166,0-3.952,1.329-3.952,3.951v4.445c0,2.165,1.786,3.951,3.952,3.951
			C89.125,122.239,90.873,120.453,90.873,118.288z"/>
		<path fill="#78C4D3" d="M98.36,108.523v-4.445c0-3.647,3.002-6.649,6.687-6.649c3.647,0,6.65,3.002,6.65,6.649v14.172
			c0,3.686-3.002,6.687-6.65,6.687c-3.305,0-6.345-2.621-6.649-6.079c-0.076-0.684,0.494-1.481,1.292-1.481
			c0.722,0,1.33,0.532,1.406,1.254c0.19,2.014,1.9,3.571,3.951,3.571c2.166,0,3.952-1.748,3.952-3.951v-4.598
			c-1.064,0.95-2.394,1.521-3.952,1.521C101.362,115.173,98.36,112.209,98.36,108.523z M101.096,104.078v4.445
			c0,2.203,1.748,3.951,3.951,3.951c2.166,0,3.952-1.33,3.952-3.951v-4.445c0-2.166-1.786-3.951-3.952-3.951
			C102.844,100.127,101.096,101.912,101.096,104.078z"/>
	</g>
	<g enable-background="new    ">
		<path fill="#78C4D3" d="M127.959,115.607c-1.44,0-2.621-1.181-2.621-2.641c0-1.44,1.181-2.621,2.621-2.621
			s2.621,1.181,2.621,2.621C130.58,114.427,129.399,115.607,127.959,115.607z M127.959,114.167c0.66,0,1.2-0.54,1.2-1.2
			s-0.54-1.2-1.2-1.2s-1.2,0.54-1.2,1.2S127.299,114.167,127.959,114.167z M134.74,111.386l-6.602,13.043
			c-0.119,0.261-0.38,0.4-0.64,0.4c-0.479,0-0.9-0.521-0.64-1.04l6.602-13.043c0.119-0.26,0.379-0.4,0.64-0.4
			C134.58,110.346,135,110.866,134.74,111.386z M136.261,122.208c0,1.44-1.181,2.621-2.62,2.621c-1.44,0-2.621-1.181-2.621-2.621
			c0-1.46,1.181-2.62,2.621-2.62C135.08,119.588,136.261,120.748,136.261,122.208z M134.84,122.208c0-0.66-0.539-1.2-1.199-1.2
			s-1.201,0.54-1.201,1.2s0.541,1.201,1.201,1.201S134.84,122.868,134.84,122.208z"/>
	</g>
	<g>
		<rect x="13.581" y="154.605" fill="none" width="188.517" height="11.646"/>
	</g>
	<g enable-background="new    ">
		<path fill="#FFFFFF" d="M48.627,156.85h0.946l-1.21,5.545h-0.836L46.46,158.5l-1.067,3.895h-0.836l-1.21-5.545h0.946l0.759,4.104
			l0.946-3.554h0.924l0.946,3.554L48.627,156.85z"/>
		<path fill="#FFFFFF" d="M55.689,162.395h-0.924v-3.631c0-0.781-0.341-1.166-1.023-1.166c-0.473,0-0.88,0.221-1.232,0.671
			c-0.352,0.451-0.528,1.046-0.528,1.805v2.321h-0.924v-7.789h0.924v3.268c0.44-0.649,1.188-1.111,2.013-1.111
			c1.133,0,1.694,0.605,1.694,1.805V162.395z"/>
		<path fill="#FFFFFF" d="M57.371,159.622c0-0.792,0.253-1.463,0.748-2.024c0.495-0.561,1.155-0.836,1.98-0.836
			s1.485,0.275,1.98,0.836c0.495,0.562,0.748,1.232,0.748,2.024s-0.253,1.463-0.748,2.024c-0.495,0.561-1.155,0.836-1.98,0.836
			s-1.485-0.275-1.98-0.836C57.624,161.085,57.371,160.414,57.371,159.622z M58.317,159.622c0,0.562,0.165,1.034,0.484,1.431
			c0.319,0.396,0.759,0.594,1.298,0.594s0.979-0.198,1.298-0.594c0.319-0.396,0.484-0.869,0.484-1.431
			c0-0.561-0.165-1.034-0.484-1.43c-0.319-0.396-0.759-0.595-1.298-0.595s-0.979,0.198-1.298,0.595
			C58.482,158.588,58.317,159.062,58.317,159.622z"/>
		<path fill="#FFFFFF" d="M76.798,162.395h-0.924v-3.938c0-0.605-0.176-0.848-0.605-0.848c-0.572,0-0.979,0.716-0.979,2.179v2.607
			h-0.924v-3.938c0-0.605-0.176-0.848-0.605-0.848c-0.572,0-0.979,0.716-0.979,2.179v2.607h-0.924v-5.545h0.924v0.704
			c0.33-0.528,0.759-0.792,1.298-0.792c0.594,0,0.979,0.297,1.144,0.902c0.297-0.539,0.792-0.902,1.364-0.902
			c0.737,0,1.21,0.484,1.21,1.496V162.395z"/>
		<path fill="#FFFFFF" d="M82.925,162.395h-0.748l-0.132-0.781c-0.352,0.518-1.133,0.869-1.958,0.869
			c-0.979,0-1.716-0.594-1.716-1.684c0-1.198,0.935-1.814,2.508-1.814H82v-0.242c0-0.804-0.528-1.145-1.276-1.145
			c-0.627,0-1.133,0.385-1.31,0.946l-0.814-0.22c0.253-0.957,1.1-1.562,2.124-1.562c1.364,0,2.2,0.671,2.2,2.135V162.395z
			 M80.229,161.646c0.44,0,0.847-0.144,1.21-0.418c0.374-0.286,0.561-0.715,0.561-1.276v-0.176h-1.21
			c-0.935,0-1.474,0.396-1.474,1.022C79.316,161.327,79.668,161.646,80.229,161.646z"/>
		<path fill="#FFFFFF" d="M85.19,154.605h0.924v4.565l2.365-2.321h1.21l-2.585,2.541l2.838,3.004h-1.21l-2.618-2.783v2.783H85.19
			V154.605z"/>
		<path fill="#FFFFFF" d="M96.906,159.82h-4.334c0.055,1.1,0.726,1.826,1.705,1.826c0.792,0,1.386-0.363,1.782-1.101l0.737,0.386
			c-0.539,1.034-1.375,1.551-2.52,1.551c-0.792,0-1.43-0.275-1.925-0.814c-0.484-0.539-0.726-1.221-0.726-2.046
			c0-0.803,0.242-1.485,0.715-2.035c0.484-0.55,1.133-0.825,1.936-0.825c0.825,0,1.475,0.253,1.937,0.771
			c0.462,0.506,0.693,1.144,0.693,1.903V159.82z M92.637,158.984h3.29c-0.165-0.881-0.759-1.387-1.65-1.387
			C93.407,157.598,92.824,158.115,92.637,158.984z"/>
		<path fill="#FFFFFF" d="M106.497,161.69v2.948h-0.924v-7.789h0.924v0.737c0.341-0.474,0.979-0.825,1.694-0.825
			c1.596,0,2.541,1.133,2.541,2.86s-0.945,2.86-2.541,2.86C107.454,162.482,106.838,162.142,106.497,161.69z M109.787,159.622
			c0-0.605-0.154-1.089-0.451-1.463s-0.716-0.562-1.233-0.562s-0.935,0.188-1.232,0.562s-0.451,0.857-0.451,1.463
			s0.154,1.089,0.451,1.463s0.715,0.562,1.232,0.562s0.936-0.188,1.233-0.562S109.787,160.228,109.787,159.622z"/>
		<path fill="#FFFFFF" d="M116.475,158.61c-0.077-0.672-0.44-1.013-1.067-1.013c-0.517,0-0.968,0.242-1.331,0.737
			c-0.363,0.484-0.551,1.166-0.551,2.058v2.002h-0.924v-5.545h0.924v1.023c0.474-0.737,1.156-1.111,2.047-1.111
			c1.1,0,1.771,0.66,1.826,1.849H116.475z"/>
		<path fill="#FFFFFF" d="M118.751,159.622c0-0.792,0.253-1.463,0.748-2.024c0.495-0.561,1.155-0.836,1.98-0.836
			s1.485,0.275,1.979,0.836c0.496,0.562,0.748,1.232,0.748,2.024s-0.252,1.463-0.748,2.024c-0.494,0.561-1.154,0.836-1.979,0.836
			s-1.485-0.275-1.98-0.836C119.004,161.085,118.751,160.414,118.751,159.622z M119.697,159.622c0,0.562,0.165,1.034,0.484,1.431
			c0.318,0.396,0.759,0.594,1.298,0.594s0.979-0.198,1.298-0.594c0.319-0.396,0.484-0.869,0.484-1.431
			c0-0.561-0.165-1.034-0.484-1.43c-0.318-0.396-0.759-0.595-1.298-0.595s-0.979,0.198-1.298,0.595
			C119.862,158.588,119.697,159.062,119.697,159.622z"/>
		<path fill="#FFFFFF" d="M126.957,161.69v2.948h-0.924v-7.789h0.924v0.737c0.341-0.474,0.979-0.825,1.694-0.825
			c1.595,0,2.541,1.133,2.541,2.86s-0.946,2.86-2.541,2.86C127.914,162.482,127.298,162.142,126.957,161.69z M130.246,159.622
			c0-0.605-0.154-1.089-0.451-1.463s-0.715-0.562-1.232-0.562c-0.517,0-0.935,0.188-1.231,0.562s-0.451,0.857-0.451,1.463
			s0.154,1.089,0.451,1.463s0.715,0.562,1.231,0.562c0.518,0,0.936-0.188,1.232-0.562S130.246,160.228,130.246,159.622z"/>
		<path fill="#FFFFFF" d="M132.391,159.622c0-0.792,0.253-1.463,0.748-2.024c0.495-0.561,1.155-0.836,1.98-0.836
			s1.484,0.275,1.98,0.836c0.494,0.562,0.748,1.232,0.748,2.024s-0.254,1.463-0.748,2.024c-0.496,0.561-1.155,0.836-1.98,0.836
			s-1.485-0.275-1.98-0.836C132.644,161.085,132.391,160.414,132.391,159.622z M133.337,159.622c0,0.562,0.165,1.034,0.483,1.431
			c0.319,0.396,0.76,0.594,1.299,0.594s0.979-0.198,1.298-0.594c0.319-0.396,0.484-0.869,0.484-1.431
			c0-0.561-0.165-1.034-0.484-1.43c-0.319-0.396-0.759-0.595-1.298-0.595s-0.979,0.198-1.299,0.595
			C133.502,158.588,133.337,159.062,133.337,159.622z"/>
		<path fill="#FFFFFF" d="M143.941,157.961l-0.727,0.517c-0.318-0.583-0.77-0.88-1.33-0.88c-0.528,0-0.957,0.242-0.957,0.737
			c0,0.451,0.406,0.682,1.287,0.858c0.473,0.099,0.77,0.165,1.133,0.33c0.518,0.22,0.857,0.594,0.857,1.177
			c0,0.55-0.209,0.99-0.615,1.31c-0.407,0.318-0.914,0.473-1.519,0.473c-1.144,0-2.068-0.583-2.409-1.606l0.88-0.33
			c0.253,0.693,0.781,1.101,1.529,1.101c0.671,0,1.177-0.297,1.177-0.858c0-0.439-0.418-0.594-1.43-0.813
			c-1.133-0.231-1.793-0.628-1.793-1.606c0-0.484,0.187-0.869,0.55-1.166c0.362-0.298,0.813-0.44,1.343-0.44
			C142.83,156.762,143.502,157.158,143.941,157.961z"/>
		<path fill="#FFFFFF" d="M151.125,162.395h-0.748l-0.133-0.781c-0.352,0.518-1.133,0.869-1.958,0.869
			c-0.979,0-1.716-0.594-1.716-1.684c0-1.198,0.935-1.814,2.508-1.814h1.122v-0.242c0-0.804-0.528-1.145-1.276-1.145
			c-0.627,0-1.133,0.385-1.309,0.946l-0.814-0.22c0.253-0.957,1.1-1.562,2.123-1.562c1.365,0,2.201,0.671,2.201,2.135V162.395z
			 M148.43,161.646c0.439,0,0.847-0.144,1.209-0.418c0.375-0.286,0.562-0.715,0.562-1.276v-0.176h-1.21
			c-0.936,0-1.475,0.396-1.475,1.022C147.516,161.327,147.868,161.646,148.43,161.646z"/>
		<path fill="#FFFFFF" d="M154.38,155.529h-1.529v-0.836h2.453v5.611c0,0.891,0.386,1.342,1.167,1.342
			c0.715,0,1.144-0.451,1.287-1.342l0.836,0.165c-0.188,1.319-0.969,2.013-2.123,2.013c-1.287,0-2.091-0.803-2.091-2.178V155.529z"
			/>
		<path fill="#FFFFFF" d="M164.4,157.961l-0.726,0.517c-0.319-0.583-0.771-0.88-1.331-0.88c-0.527,0-0.957,0.242-0.957,0.737
			c0,0.451,0.406,0.682,1.287,0.858c0.473,0.099,0.77,0.165,1.133,0.33c0.518,0.22,0.858,0.594,0.858,1.177
			c0,0.55-0.209,0.99-0.616,1.31c-0.406,0.318-0.913,0.473-1.518,0.473c-1.145,0-2.068-0.583-2.41-1.606l0.881-0.33
			c0.252,0.693,0.781,1.101,1.529,1.101c0.67,0,1.177-0.297,1.177-0.858c0-0.439-0.418-0.594-1.431-0.813
			c-1.133-0.231-1.793-0.628-1.793-1.606c0-0.484,0.188-0.869,0.551-1.166c0.362-0.298,0.813-0.44,1.342-0.44
			C163.29,156.762,163.961,157.158,164.4,157.961z"/>
		<path fill="#FFFFFF" d="M168.592,157.169c0.341-0.341,0.912-0.341,1.254,0c0.341,0.341,0.341,0.913,0,1.254
			c-0.342,0.341-0.913,0.341-1.254,0C168.25,158.082,168.25,157.51,168.592,157.169z M168.592,160.932
			c0.341-0.342,0.912-0.342,1.254,0c0.341,0.341,0.341,0.913,0,1.254c-0.342,0.341-0.913,0.341-1.254,0
			C168.25,161.845,168.25,161.272,168.592,160.932z"/>
	</g>
	<g>
		<rect x="145.827" y="184.159" fill="none" width="46.944" height="22.175"/>
	</g>
	<g enable-background="new    ">
		<path fill="#FFFFFF" d="M183.408,184.261h1.056v8.396h-1.151l-3.514-6.477v6.477h-1.056v-8.396h1.151l3.514,6.477V184.261z"/>
		<path fill="#FFFFFF" d="M189.049,184.165c0.96,0,1.74,0.372,2.352,1.115c0.611,0.731,0.911,1.799,0.911,3.179
			c0,1.379-0.3,2.446-0.911,3.189c-0.611,0.732-1.392,1.104-2.352,1.104c-0.959,0-1.738-0.371-2.35-1.104
			c-0.612-0.743-0.912-1.811-0.912-3.189c0-1.38,0.3-2.447,0.912-3.179C187.311,184.537,188.09,184.165,189.049,184.165z
			 M189.049,185.172c-0.659,0-1.187,0.265-1.582,0.804c-0.396,0.528-0.588,1.355-0.588,2.483c0,1.127,0.191,1.954,0.588,2.494
			c0.396,0.527,0.923,0.792,1.582,0.792c0.66,0,1.188-0.265,1.584-0.792c0.396-0.54,0.588-1.367,0.588-2.494
			c0-1.128-0.192-1.955-0.588-2.483C190.236,185.437,189.709,185.172,189.049,185.172z"/>
	</g>
	<g>
		<path fill="#FFFFFF" d="M201.5,203h-189v-29h189V203z M13.5,202h187v-27h-187V202z"/>
	</g>
	<g>
		<rect x="21.412" y="185.127" fill="none" width="46.944" height="34.768"/>
	</g>
	<g enable-background="new    ">
		<path fill="#78C4D3" d="M24.603,190.312l-2.699-5.085h1.164l2.062,4.03l2.063-4.03h1.164l-2.699,5.085v3.311h-1.055V190.312z"/>
		<path fill="#78C4D3" d="M29.943,185.228h5.325v1.008h-4.27v2.41h3.67v1.008h-3.67v2.962h4.39v1.008h-5.445V185.228z"/>
		<path fill="#78C4D3" d="M41.797,187.398c-0.372-0.84-0.936-1.26-1.703-1.26c-0.923,0-1.511,0.48-1.511,1.296
			c0,0.407,0.156,0.707,0.456,0.888c0.312,0.18,0.803,0.359,1.487,0.539c0.611,0.156,0.935,0.252,1.379,0.492
			c0.66,0.336,0.972,0.815,1.007,1.691c0,1.774-1.091,2.674-2.782,2.674c-1.619,0-2.807-0.875-3.13-2.494l0.983-0.384
			c0.324,1.247,1.043,1.871,2.147,1.871c1.056,0,1.727-0.528,1.727-1.523c0-0.348-0.144-0.611-0.3-0.768
			c-0.084-0.084-0.216-0.156-0.408-0.228c-0.372-0.156-0.588-0.229-1.199-0.372c-0.588-0.145-0.876-0.228-1.355-0.468
			c-0.672-0.348-1.02-0.876-1.067-1.883c0-0.684,0.228-1.248,0.684-1.68c0.456-0.443,1.08-0.659,1.883-0.659
			c1.355,0,2.243,0.779,2.627,1.799L41.797,187.398z"/>
	</g>
	<g>
		<g>
			<path fill="#FFFFFF" d="M208.426,220.595h-200c-4.246,0-7.7-3.454-7.7-7.7v-205c0-4.246,3.455-7.7,7.7-7.7h200
				c4.246,0,7.7,3.455,7.7,7.7v205C216.126,217.141,212.672,220.595,208.426,220.595z M8.426,1.594c-3.474,0-6.3,2.826-6.3,6.3v205
				c0,3.474,2.826,6.3,6.3,6.3h200c3.474,0,6.3-2.826,6.3-6.3v-205c0-3.474-2.826-6.3-6.3-6.3H8.426z"/>
		</g>
	</g>
	<g>
		<path fill="#FFFFFF" d="M203,82.7H15c-0.387,0-0.7-0.313-0.7-0.7s0.313-0.7,0.7-0.7h188c0.387,0,0.7,0.313,0.7,0.7
			S203.387,82.7,203,82.7z"/>
	</g>
	<g>
		<path fill="#FFFFFF" d="M203,143.7H15c-0.387,0-0.7-0.313-0.7-0.7s0.313-0.7,0.7-0.7h188c0.387,0,0.7,0.313,0.7,0.7
			S203.387,143.7,203,143.7z"/>
	</g>
</g>
</svg>
