<?xml version="1.0" encoding="utf-8"?>
<!-- Generator: Adobe Illustrator 16.0.0, SVG Export Plug-In . SVG Version: 6.00 Build 0)  -->
<!DOCTYPE svg PUBLIC "-//W3C//DTD SVG 1.1//EN" "http://www.w3.org/Graphics/SVG/1.1/DTD/svg11.dtd">
<svg version="1.1" xmlns="http://www.w3.org/2000/svg" xmlns:xlink="http://www.w3.org/1999/xlink" x="0px" y="0px"
	 width="375.724px" height="394.517px" viewBox="0 0 375.724 394.517" enable-background="new 0 0 375.724 394.517"
	 xml:space="preserve">
<g id="Layer_1">
</g>
<g id="Layer_3">
	<g>
		<g>
			
				<line fill="none" stroke="#FFFFFF" stroke-width="3" stroke-linecap="round" stroke-linejoin="round" x1="279.16" y1="88.925" x2="281.66" y2="88.91"/>
			
				<path fill="none" stroke="#FFFFFF" stroke-width="3" stroke-linecap="round" stroke-linejoin="round" stroke-dasharray="5.019,5.019" d="
				M286.678,88.88l72.437-0.432c3.85-0.023,6.998,3.108,6.995,6.958l-0.215,285.511"/>
			
				<line fill="none" stroke="#FFFFFF" stroke-width="3" stroke-linecap="round" stroke-linejoin="round" x1="365.893" y1="383.427" x2="365.891" y2="385.927"/>
		</g>
	</g>
	<g>
		
			<path fill="none" stroke="#FFFFFF" stroke-width="3" stroke-linecap="round" stroke-linejoin="round" stroke-miterlimit="10" stroke-dasharray="5" d="
			M13.69,182.017c-2.206,0-4.466-1.9-4.466-4.106V48.659c0-2.206,2.26-3.642,4.466-3.642h29.733c2.206,0,3.801-2.173,3.801-4.379
			V29.78c0-2.206,2.014-3.763,4.22-3.763H62.3c2.206,0,3.924-2.052,3.924-4.258V10.901c0-2.206,1.891-3.884,4.097-3.884h72.609
			c2.206,0,4.294,1.678,4.294,3.884v10.857c0,2.206,1.521,4.258,3.728,4.258h10.855c2.206,0,4.417,1.557,4.417,3.763v10.858
			c0,2.206,1.398,4.379,3.604,4.379h86.363c2.206,0,4.032,1.436,4.032,3.642v10.858c0,2.206,1.783,4.5,3.989,4.5h10.855
			c2.206,0,4.155,1.315,4.155,3.521v53.736c0,2.206-1.949,3.743-4.155,3.743h-10.855c-2.206,0-3.989,2.072-3.989,4.278v29.736
			c0,2.206-1.826,3.985-4.032,3.985H145.829c-2.206,0-3.604-1.779-3.604-3.985v-10.857c0-2.206-2.211-4.157-4.417-4.157h-5.732
			c-2.206,0-3.851,1.951-3.851,4.157v10.857c0,2.206-1.965,3.985-4.171,3.985H56.567c-2.206,0-4.343,1.83-4.343,4.036v10.857
			c0,2.206-1.472,4.106-3.678,4.106H13.69z"/>
	</g>
</g>
</svg>
