<?xml version="1.0" encoding="utf-8"?>
<!-- Generator: Adobe Illustrator 16.0.0, SVG Export Plug-In . SVG Version: 6.00 Build 0)  -->
<!DOCTYPE svg PUBLIC "-//W3C//DTD SVG 1.1//EN" "http://www.w3.org/Graphics/SVG/1.1/DTD/svg11.dtd">
<svg version="1.1" xmlns="http://www.w3.org/2000/svg" xmlns:xlink="http://www.w3.org/1999/xlink" x="0px" y="0px"
	 width="313.224px" height="220px" viewBox="0 0 313.224 220" enable-background="new 0 0 313.224 220" xml:space="preserve">
<g id="Layer_1">
</g>
<g id="Layer_3">
	<g>
		
			<path fill="none" stroke="#FFFFFF" stroke-width="3" stroke-linecap="round" stroke-linejoin="round" stroke-miterlimit="10" stroke-dasharray="5" d="
			M66.733,67.017c-2.206,0-4.509-2.263-4.509-4.469V51.69c0-2.206-1.306-3.673-3.512-3.673h-48.61c-2.206,0-3.878-2.142-3.878-4.348
			V8.811c0-2.206,1.672-3.794,3.878-3.794h110.363c2.206,0,3.759,1.588,3.759,3.794v34.858c0,2.206-1.553,4.348-3.759,4.348H109.61
			c-2.206,0-4.386,1.467-4.386,3.673v10.858c0,2.206-1.429,4.469-3.635,4.469H66.733z"/>
	</g>
	<g>
		<g>
			
				<line fill="none" stroke="#FFFFFF" stroke-width="3" stroke-linecap="round" stroke-linejoin="round" x1="124.636" y1="30.078" x2="127.136" y2="30.074"/>
			
				<path fill="none" stroke="#FFFFFF" stroke-width="3" stroke-linecap="round" stroke-linejoin="round" stroke-dasharray="5.0367,5.0367" d="
				M132.173,30.064l165.942-0.297c3.85-0.007,6.992,3.137,6.982,6.987l-0.435,173.154"/>
			
				<line fill="none" stroke="#FFFFFF" stroke-width="3" stroke-linecap="round" stroke-linejoin="round" x1="304.656" y1="212.427" x2="304.65" y2="214.927"/>
		</g>
	</g>
</g>
</svg>
