<?xml version="1.0" encoding="utf-8"?>
<!-- Generator: Adobe Illustrator 16.0.0, SVG Export Plug-In . SVG Version: 6.00 Build 0)  -->
<!DOCTYPE svg PUBLIC "-//W3C//DTD SVG 1.1//EN" "http://www.w3.org/Graphics/SVG/1.1/DTD/svg11.dtd">
<svg version="1.1" id="Layer_1" xmlns="http://www.w3.org/2000/svg" xmlns:xlink="http://www.w3.org/1999/xlink" x="0px" y="0px"
	 width="217px" height="221px" viewBox="0 0 217 221" enable-background="new 0 0 217 221" xml:space="preserve">
<g id="Layer_1_1_">
</g>
<g id="Layer_3">
	<g>
		<rect x="146.204" y="180.127" fill="none" width="46.944" height="38.746"/>
	</g>
	<g enable-background="new    ">
		<path fill="#FFFFFF" d="M183.785,180.226h1.056v8.396h-1.151l-3.514-6.477v6.477h-1.056v-8.396h1.151l3.514,6.477V180.226z"/>
		<path fill="#FFFFFF" d="M189.426,180.13c0.96,0,1.74,0.372,2.352,1.115c0.611,0.731,0.911,1.799,0.911,3.179
			c0,1.379-0.3,2.446-0.911,3.189c-0.611,0.732-1.392,1.104-2.352,1.104c-0.959,0-1.738-0.371-2.35-1.104
			c-0.612-0.743-0.912-1.811-0.912-3.189c0-1.38,0.3-2.447,0.912-3.179C187.688,180.502,188.467,180.13,189.426,180.13z
			 M189.426,181.137c-0.659,0-1.187,0.265-1.582,0.804c-0.396,0.528-0.588,1.355-0.588,2.483c0,1.127,0.191,1.954,0.588,2.494
			c0.396,0.527,0.923,0.792,1.582,0.792c0.66,0,1.188-0.265,1.584-0.792c0.396-0.54,0.588-1.367,0.588-2.494
			c0-1.128-0.192-1.955-0.588-2.483C190.613,181.401,190.086,181.137,189.426,181.137z"/>
	</g>
	<g>
		<g>
			<path fill="#FFFFFF" d="M208.426,220.595h-200c-4.246,0-7.7-3.454-7.7-7.7v-205c0-4.246,3.455-7.7,7.7-7.7h200
				c4.246,0,7.7,3.455,7.7,7.7v205C216.126,217.141,212.672,220.595,208.426,220.595z M8.426,1.594c-3.474,0-6.3,2.826-6.3,6.3v205
				c0,3.474,2.826,6.3,6.3,6.3h200c3.474,0,6.3-2.826,6.3-6.3v-205c0-3.474-2.826-6.3-6.3-6.3H8.426z"/>
		</g>
	</g>
	<g>
		<rect x="10.576" y="32.113" fill="none" width="196" height="50.555"/>
	</g>
	<g enable-background="new    ">
		<path fill="#FFFFFF" d="M42.502,45.738c-0.05-0.5,0.3-0.925,0.8-0.975c0.475-0.05,0.925,0.3,0.975,0.8
			c0.15,1.625,1.525,2.874,3.174,2.874c1.774,0,3.199-1.449,3.199-3.199V34.066h-5.124c-0.5,0-0.9-0.4-0.9-0.899
			c0-0.5,0.4-0.9,0.9-0.9h6.023c0.475,0,0.875,0.4,0.875,0.9v12.071c0,2.75-2.224,4.975-4.974,4.975
			C44.876,50.213,42.752,48.163,42.502,45.738z"/>
		<path fill="#FFFFFF" d="M56.301,45.238v-8.147c0-2.725,2.225-4.974,4.974-4.974c2.75,0,4.974,2.249,4.974,4.974v8.147
			c0,2.75-2.225,4.975-4.974,4.975C58.526,50.213,56.301,47.988,56.301,45.238z M58.076,37.091v8.147
			c0,1.75,1.425,3.199,3.199,3.199c1.75,0,3.199-1.449,3.199-3.199v-8.147c0-1.75-1.449-3.199-3.199-3.199
			C59.5,33.892,58.076,35.341,58.076,37.091z"/>
		<path fill="#FFFFFF" d="M70.126,45.238V33.017c0-0.5,0.4-0.899,0.9-0.899c0.475,0,0.875,0.399,0.875,0.899v12.222
			c0,1.75,1.45,3.175,3.199,3.175c1.775,0,3.199-1.425,3.199-3.175V33.017c0-0.5,0.4-0.899,0.9-0.899
			c0.475,0,0.875,0.399,0.875,0.899v12.222c0,2.725-2.225,4.975-4.974,4.975C72.351,50.213,70.126,47.963,70.126,45.238z"/>
		<path fill="#FFFFFF" d="M93.273,50.213c-0.35,0-0.725-0.226-0.875-0.601l-2.625-8.072c0,0-0.2,0-3.674,0v7.798
			c0,0.475-0.4,0.875-0.899,0.875c-0.475,0-0.875-0.4-0.875-0.875V33.142c0-0.475,0.4-0.875,0.875-0.875h4.274
			c2.574,0,4.648,2.075,4.648,4.649c0,1.824-1.075,3.424-2.624,4.174l2.599,7.948C94.223,49.562,93.898,50.213,93.273,50.213z
			 M89.475,39.765c1.6,0,2.874-1.274,2.874-2.849c0-1.6-1.274-2.875-2.874-2.875H86.1v5.724H89.475z"/>
		<path fill="#FFFFFF" d="M105.749,49.713L99.2,36.741v12.571c0,0.5-0.4,0.9-0.9,0.9c-0.475,0-0.875-0.4-0.875-0.9V33.017
			c0-0.5,0.425-0.899,0.875-0.899c0.325,0,0.65,0.199,0.8,0.5l6.549,12.972V33.017c0-0.5,0.4-0.899,0.899-0.899
			c0.5,0,0.9,0.399,0.9,0.899v16.296c0,0.425-0.3,0.775-0.7,0.875c-0.075,0.025-0.125,0.025-0.2,0.025
			C106.224,50.213,105.899,50.037,105.749,49.713z"/>
		<path fill="#FFFFFF" d="M120.998,50.213c-0.375,0-0.699-0.25-0.824-0.65l-1.125-3.649H113.1l-1.124,3.649
			c-0.125,0.375-0.476,0.65-0.85,0.65c-0.524,0-1.05-0.551-0.851-1.15l4.924-16.32c0.125-0.375,0.476-0.625,0.875-0.625
			c0.375,0,0.725,0.25,0.85,0.625l4.949,16.32C121.998,49.588,121.623,50.213,120.998,50.213z M118.499,44.139l-2.425-8.072
			l-2.449,8.072H118.499z"/>
		<path fill="#FFFFFF" d="M133.748,49.013c0,0.5-0.4,0.899-0.9,0.899h-7.272c-0.5,0-0.899-0.399-0.899-0.899V33.017
			c0-0.5,0.399-0.899,0.899-0.899c0.499,0,0.874,0.399,0.874,0.899v15.097h6.398C133.348,48.113,133.748,48.513,133.748,49.013z"/>
		<path fill="#FFFFFF" d="M143.974,49.163c0,0.499-0.399,0.899-0.899,0.899h-6.249c-0.499,0-0.899-0.4-0.899-0.899
			c0-0.5,0.4-0.9,0.899-0.9h2.249V34.066h-2.249c-0.499,0-0.899-0.4-0.899-0.899c0-0.5,0.4-0.9,0.899-0.9h6.249
			c0.5,0,0.899,0.4,0.899,0.9c0,0.499-0.399,0.899-0.899,0.899h-2.225v14.196h2.225C143.574,48.263,143.974,48.663,143.974,49.163z"
			/>
		<path fill="#FFFFFF" d="M146.525,45.764c0-0.5,0.399-0.9,0.875-0.9c0.5,0,0.899,0.4,0.899,0.9c0,1.3,1.075,2.674,3.099,2.674
			c1.925,0,3.15-1.05,3.15-2.624c0-1.175-0.15-2.175-2.051-3.349c-2.273-1.325-2.799-1.625-3.324-1.975
			c-1.523-1.05-2.498-2.274-2.498-4.1c0-2.674,2.174-4.273,4.674-4.273c2.623,0,4.748,1.899,4.748,4.448c0,0.5-0.4,0.9-0.9,0.9
			c-0.499,0-0.898-0.4-0.898-0.9c0-1.324-1-2.674-2.949-2.674c-2,0-2.875,1.25-2.875,2.475c0,0.624,0,1.449,1.574,2.574
			c0.375,0.274,1.375,0.875,3.324,1.999c1.925,1.1,2.975,2.725,2.975,4.874c0,2.8-2.424,4.399-4.949,4.399
			C148.35,50.213,146.525,47.963,146.525,45.764z"/>
		<path fill="#FFFFFF" d="M171.146,49.312V36.791l-4.099,8.197c-0.149,0.325-0.45,0.5-0.8,0.5c-0.325,0-0.625-0.175-0.8-0.5
			l-4.074-8.197v12.521c0,0.5-0.399,0.9-0.899,0.9c-0.475,0-0.875-0.4-0.875-0.9V33.017c0.025-0.5,0.4-0.899,0.875-0.899
			c0.324,0,0.649,0.199,0.799,0.5l4.975,9.997l4.998-9.997c0.15-0.301,0.476-0.5,0.801-0.5c0.524,0,0.875,0.475,0.875,0.899v16.296
			c0,0.5-0.4,0.9-0.875,0.9C171.547,50.213,171.146,49.812,171.146,49.312z"/>
	</g>
	<g>
		<g>
			<path fill="none" stroke="#FFFFFF" stroke-width="0.5949" stroke-miterlimit="10" d="M78.113,172.947"/>
		</g>
	</g>
	<g>
		<path fill="#FFFFFF" d="M203,82.7H15c-0.387,0-0.7-0.313-0.7-0.7s0.313-0.7,0.7-0.7h188c0.387,0,0.7,0.313,0.7,0.7
			S203.387,82.7,203,82.7z"/>
	</g>
	<g>
		<path fill="#FFFFFF" d="M203,143.7H15c-0.387,0-0.7-0.313-0.7-0.7s0.313-0.7,0.7-0.7h188c0.387,0,0.7,0.313,0.7,0.7
			S203.387,143.7,203,143.7z"/>
	</g>
	<g>
		<rect x="15" y="93" fill="#FFFFFF" width="188" height="39"/>
	</g>
	<g>
		<rect x="10.576" y="98.394" fill="none" width="196" height="31.106"/>
	</g>
	<g enable-background="new    ">
		<path fill="#78C4D3" d="M91.471,125.676c-1.102,0-1.634-1.216-1.178-2.09l8.701-13.906c0.722-1.14,1.748-2.85,1.748-4.749
			c0-2.09-1.71-3.837-3.837-3.837c-2.166,0-3.952,1.785-3.952,3.989c0,0.722-0.608,1.33-1.368,1.33c-0.722,0-1.33-0.608-1.33-1.33
			c0-3.686,3.002-6.688,6.649-6.688c3.609,0,6.573,2.926,6.573,6.535c0,2.812-1.33,4.863-2.204,6.193l-7.371,11.816h8.511
			c0.76,0,1.33,0.607,1.33,1.367c0,0.761-0.57,1.368-1.33,1.368H91.471z"/>
	</g>
	<g enable-background="new    ">
		<path fill="#78C4D3" d="M119.854,116.574c-1.441,0-2.621-1.181-2.621-2.641c0-1.44,1.18-2.621,2.621-2.621
			c1.439,0,2.62,1.181,2.62,2.621C122.474,115.394,121.293,116.574,119.854,116.574z M119.854,115.134c0.66,0,1.199-0.54,1.199-1.2
			s-0.539-1.2-1.199-1.2s-1.201,0.54-1.201,1.2S119.193,115.134,119.854,115.134z M126.635,112.353l-6.602,13.043
			c-0.12,0.261-0.381,0.4-0.641,0.4c-0.479,0-0.9-0.521-0.64-1.04l6.602-13.043c0.12-0.26,0.38-0.4,0.64-0.4
			C126.475,111.312,126.895,111.833,126.635,112.353z M128.154,123.175c0,1.44-1.18,2.621-2.62,2.621s-2.62-1.181-2.62-2.621
			c0-1.46,1.18-2.62,2.62-2.62S128.154,121.715,128.154,123.175z M126.734,123.175c0-0.66-0.54-1.2-1.2-1.2s-1.2,0.54-1.2,1.2
			s0.54,1.201,1.2,1.201S126.734,123.835,126.734,123.175z"/>
	</g>
	<g>
		<g>
			<path fill="none" stroke="#FFFFFF" stroke-width="0.5949" stroke-miterlimit="10" d="M78.296,172.947"/>
		</g>
	</g>
	<g>
		<g>
			<path fill="none" stroke="#FFFFFF" stroke-width="0.5949" stroke-miterlimit="10" d="M78.296,172.947"/>
		</g>
	</g>
	<g>
		<rect x="14" y="175" fill="#FFFFFF" width="47" height="28"/>
	</g>
	<g>
		<g>
			<path fill="none" stroke="#FFFFFF" stroke-width="0.5949" stroke-miterlimit="10" d="M78.113,172.947"/>
		</g>
	</g>
	<g>
		<g>
			<path fill="none" stroke="#FFFFFF" stroke-width="0.5949" stroke-miterlimit="10" d="M78.296,172.947"/>
		</g>
	</g>
	<g>
		<g>
			<path fill="none" stroke="#FFFFFF" stroke-width="0.5949" stroke-miterlimit="10" d="M78.296,172.947"/>
		</g>
	</g>
	<g>
		<path fill="#FFFFFF" d="M203,204H14v-29h189V204z M15,203h187v-27H15V203z"/>
	</g>
	<g>
		<rect x="21.412" y="185.127" fill="none" width="46.944" height="38.746"/>
	</g>
	<g enable-background="new    ">
		<path fill="#78C4D3" d="M24.603,190.311l-2.699-5.085h1.164l2.062,4.03l2.063-4.03h1.164l-2.699,5.085v3.311h-1.055V190.311z"/>
		<path fill="#78C4D3" d="M29.943,185.226h5.325v1.008h-4.27v2.41h3.67v1.008h-3.67v2.962h4.39v1.008h-5.445V185.226z"/>
		<path fill="#78C4D3" d="M41.797,187.396c-0.372-0.84-0.936-1.26-1.703-1.26c-0.923,0-1.511,0.48-1.511,1.296
			c0,0.407,0.156,0.707,0.456,0.888c0.312,0.18,0.803,0.359,1.487,0.539c0.611,0.156,0.935,0.252,1.379,0.492
			c0.66,0.336,0.972,0.815,1.007,1.691c0,1.774-1.091,2.674-2.782,2.674c-1.619,0-2.807-0.875-3.13-2.494l0.983-0.384
			c0.324,1.247,1.043,1.871,2.147,1.871c1.056,0,1.727-0.528,1.727-1.523c0-0.348-0.144-0.611-0.3-0.768
			c-0.084-0.084-0.216-0.156-0.408-0.228c-0.372-0.156-0.588-0.229-1.199-0.372c-0.588-0.145-0.876-0.228-1.355-0.468
			c-0.672-0.348-1.02-0.876-1.067-1.883c0-0.684,0.228-1.248,0.684-1.68c0.456-0.443,1.08-0.659,1.883-0.659
			c1.355,0,2.243,0.779,2.627,1.799L41.797,187.396z"/>
	</g>
	<g>
		<rect x="14.5" y="155.572" fill="none" width="188.516" height="11.646"/>
	</g>
	<g enable-background="new    ">
		<path fill="#FFFFFF" d="M49.546,157.816h0.946l-1.21,5.545h-0.836l-1.067-3.895l-1.067,3.895h-0.836l-1.21-5.545h0.946
			l0.759,4.104l0.946-3.554h0.924l0.946,3.554L49.546,157.816z"/>
		<path fill="#FFFFFF" d="M56.608,163.361h-0.924v-3.631c0-0.781-0.341-1.166-1.023-1.166c-0.473,0-0.88,0.221-1.232,0.671
			c-0.352,0.451-0.528,1.046-0.528,1.805v2.321h-0.924v-7.789H52.9v3.268c0.44-0.649,1.188-1.111,2.013-1.111
			c1.133,0,1.694,0.605,1.694,1.805V163.361z"/>
		<path fill="#FFFFFF" d="M58.29,160.589c0-0.792,0.253-1.463,0.748-2.024c0.495-0.561,1.155-0.836,1.98-0.836
			s1.485,0.275,1.98,0.836c0.495,0.562,0.748,1.232,0.748,2.024s-0.253,1.463-0.748,2.024c-0.495,0.561-1.155,0.836-1.98,0.836
			s-1.485-0.275-1.98-0.836C58.543,162.052,58.29,161.381,58.29,160.589z M59.236,160.589c0,0.562,0.165,1.034,0.484,1.431
			c0.319,0.396,0.759,0.594,1.298,0.594s0.979-0.198,1.298-0.594c0.319-0.396,0.484-0.869,0.484-1.431
			c0-0.561-0.165-1.034-0.484-1.43c-0.319-0.396-0.759-0.595-1.298-0.595s-0.979,0.198-1.298,0.595
			C59.401,159.555,59.236,160.028,59.236,160.589z"/>
		<path fill="#FFFFFF" d="M77.717,163.361h-0.924v-3.938c0-0.605-0.176-0.848-0.605-0.848c-0.572,0-0.979,0.716-0.979,2.179v2.607
			h-0.924v-3.938c0-0.605-0.176-0.848-0.605-0.848c-0.572,0-0.979,0.716-0.979,2.179v2.607h-0.924v-5.545H72.7v0.704
			c0.33-0.528,0.759-0.792,1.298-0.792c0.594,0,0.979,0.297,1.144,0.902c0.297-0.539,0.792-0.902,1.364-0.902
			c0.737,0,1.21,0.484,1.21,1.496V163.361z"/>
		<path fill="#FFFFFF" d="M83.844,163.361h-0.748l-0.132-0.781c-0.352,0.518-1.133,0.869-1.958,0.869
			c-0.979,0-1.716-0.594-1.716-1.684c0-1.198,0.935-1.814,2.508-1.814h1.122v-0.242c0-0.804-0.528-1.145-1.276-1.145
			c-0.627,0-1.133,0.385-1.31,0.946l-0.814-0.22c0.253-0.957,1.1-1.562,2.124-1.562c1.364,0,2.2,0.671,2.2,2.135V163.361z
			 M81.148,162.613c0.44,0,0.847-0.144,1.21-0.418c0.374-0.286,0.561-0.715,0.561-1.276v-0.176h-1.21
			c-0.935,0-1.474,0.396-1.474,1.022C80.235,162.294,80.587,162.613,81.148,162.613z"/>
		<path fill="#FFFFFF" d="M86.109,155.572h0.924v4.565l2.365-2.321h1.21l-2.585,2.541l2.838,3.004h-1.21l-2.618-2.783v2.783h-0.924
			V155.572z"/>
		<path fill="#FFFFFF" d="M97.825,160.787H93.49c0.055,1.1,0.726,1.826,1.705,1.826c0.792,0,1.386-0.363,1.782-1.101l0.737,0.386
			c-0.539,1.034-1.375,1.551-2.52,1.551c-0.792,0-1.43-0.275-1.925-0.814c-0.484-0.539-0.726-1.221-0.726-2.046
			c0-0.803,0.242-1.485,0.715-2.035c0.484-0.55,1.133-0.825,1.936-0.825c0.825,0,1.475,0.253,1.937,0.771
			c0.462,0.506,0.693,1.144,0.693,1.903V160.787z M93.556,159.951h3.29c-0.165-0.881-0.759-1.387-1.65-1.387
			C94.326,158.564,93.743,159.082,93.556,159.951z"/>
		<path fill="#FFFFFF" d="M107.416,162.657v2.948h-0.924v-7.789h0.924v0.737c0.341-0.474,0.979-0.825,1.694-0.825
			c1.595,0,2.541,1.133,2.541,2.86s-0.946,2.86-2.541,2.86C108.373,163.449,107.757,163.108,107.416,162.657z M110.705,160.589
			c0-0.605-0.154-1.089-0.451-1.463s-0.715-0.562-1.232-0.562c-0.517,0-0.935,0.188-1.231,0.562s-0.451,0.857-0.451,1.463
			s0.154,1.089,0.451,1.463s0.715,0.562,1.231,0.562c0.518,0,0.936-0.188,1.232-0.562S110.705,161.194,110.705,160.589z"/>
		<path fill="#FFFFFF" d="M117.393,159.577c-0.076-0.672-0.439-1.013-1.066-1.013c-0.518,0-0.969,0.242-1.331,0.737
			c-0.363,0.484-0.55,1.166-0.55,2.058v2.002h-0.925v-5.545h0.925v1.023c0.473-0.737,1.154-1.111,2.046-1.111
			c1.101,0,1.771,0.66,1.826,1.849H117.393z"/>
		<path fill="#FFFFFF" d="M119.67,160.589c0-0.792,0.253-1.463,0.748-2.024c0.495-0.561,1.155-0.836,1.98-0.836
			s1.484,0.275,1.98,0.836c0.494,0.562,0.748,1.232,0.748,2.024s-0.254,1.463-0.748,2.024c-0.496,0.561-1.155,0.836-1.98,0.836
			s-1.485-0.275-1.98-0.836C119.923,162.052,119.67,161.381,119.67,160.589z M120.616,160.589c0,0.562,0.165,1.034,0.483,1.431
			c0.319,0.396,0.76,0.594,1.299,0.594s0.979-0.198,1.298-0.594c0.319-0.396,0.484-0.869,0.484-1.431
			c0-0.561-0.165-1.034-0.484-1.43c-0.319-0.396-0.759-0.595-1.298-0.595s-0.979,0.198-1.299,0.595
			C120.781,159.555,120.616,160.028,120.616,160.589z"/>
		<path fill="#FFFFFF" d="M127.876,162.657v2.948h-0.925v-7.789h0.925v0.737c0.341-0.474,0.979-0.825,1.694-0.825
			c1.596,0,2.541,1.133,2.541,2.86s-0.945,2.86-2.541,2.86C128.833,163.449,128.217,163.108,127.876,162.657z M131.166,160.589
			c0-0.605-0.154-1.089-0.451-1.463s-0.716-0.562-1.232-0.562c-0.518,0-0.936,0.188-1.232,0.562s-0.451,0.857-0.451,1.463
			s0.154,1.089,0.451,1.463s0.715,0.562,1.232,0.562c0.517,0,0.936-0.188,1.232-0.562S131.166,161.194,131.166,160.589z"/>
		<path fill="#FFFFFF" d="M133.31,160.589c0-0.792,0.253-1.463,0.748-2.024c0.495-0.561,1.155-0.836,1.98-0.836
			s1.485,0.275,1.979,0.836c0.496,0.562,0.748,1.232,0.748,2.024s-0.252,1.463-0.748,2.024c-0.494,0.561-1.154,0.836-1.979,0.836
			s-1.485-0.275-1.98-0.836C133.562,162.052,133.31,161.381,133.31,160.589z M134.256,160.589c0,0.562,0.165,1.034,0.484,1.431
			c0.318,0.396,0.759,0.594,1.298,0.594s0.979-0.198,1.298-0.594c0.319-0.396,0.484-0.869,0.484-1.431
			c0-0.561-0.165-1.034-0.484-1.43c-0.318-0.396-0.759-0.595-1.298-0.595s-0.979,0.198-1.298,0.595
			C134.421,159.555,134.256,160.028,134.256,160.589z"/>
		<path fill="#FFFFFF" d="M144.86,158.928l-0.726,0.517c-0.319-0.583-0.771-0.88-1.332-0.88c-0.527,0-0.957,0.242-0.957,0.737
			c0,0.451,0.407,0.682,1.287,0.858c0.474,0.099,0.771,0.165,1.134,0.33c0.517,0.22,0.858,0.594,0.858,1.177
			c0,0.55-0.209,0.99-0.617,1.31c-0.406,0.318-0.912,0.473-1.518,0.473c-1.145,0-2.068-0.583-2.409-1.606l0.88-0.33
			c0.253,0.693,0.781,1.101,1.529,1.101c0.671,0,1.178-0.297,1.178-0.858c0-0.439-0.418-0.594-1.431-0.813
			c-1.134-0.231-1.794-0.628-1.794-1.606c0-0.484,0.188-0.869,0.551-1.166c0.363-0.298,0.814-0.44,1.342-0.44
			C143.75,157.729,144.42,158.125,144.86,158.928z"/>
		<path fill="#FFFFFF" d="M152.043,163.361h-0.748l-0.132-0.781c-0.353,0.518-1.133,0.869-1.958,0.869
			c-0.979,0-1.717-0.594-1.717-1.684c0-1.198,0.936-1.814,2.509-1.814h1.122v-0.242c0-0.804-0.527-1.145-1.275-1.145
			c-0.628,0-1.134,0.385-1.311,0.946l-0.813-0.22c0.253-0.957,1.101-1.562,2.124-1.562c1.363,0,2.199,0.671,2.199,2.135V163.361z
			 M149.348,162.613c0.44,0,0.848-0.144,1.211-0.418c0.373-0.286,0.561-0.715,0.561-1.276v-0.176h-1.21
			c-0.935,0-1.474,0.396-1.474,1.022C148.436,162.294,148.787,162.613,149.348,162.613z"/>
		<path fill="#FFFFFF" d="M155.299,156.496h-1.529v-0.836h2.453v5.611c0,0.891,0.385,1.342,1.166,1.342
			c0.715,0,1.145-0.451,1.287-1.342l0.836,0.165c-0.187,1.319-0.967,2.013-2.123,2.013c-1.287,0-2.09-0.803-2.09-2.178V156.496z"/>
		<path fill="#FFFFFF" d="M165.32,158.928l-0.727,0.517c-0.318-0.583-0.77-0.88-1.331-0.88c-0.528,0-0.957,0.242-0.957,0.737
			c0,0.451,0.407,0.682,1.287,0.858c0.474,0.099,0.771,0.165,1.134,0.33c0.517,0.22,0.857,0.594,0.857,1.177
			c0,0.55-0.209,0.99-0.616,1.31c-0.407,0.318-0.913,0.473-1.519,0.473c-1.144,0-2.068-0.583-2.408-1.606l0.879-0.33
			c0.254,0.693,0.781,1.101,1.529,1.101c0.672,0,1.178-0.297,1.178-0.858c0-0.439-0.418-0.594-1.43-0.813
			c-1.134-0.231-1.794-0.628-1.794-1.606c0-0.484,0.187-0.869,0.55-1.166c0.363-0.298,0.814-0.44,1.343-0.44
			C164.209,157.729,164.88,158.125,165.32,158.928z"/>
		<path fill="#FFFFFF" d="M169.51,158.136c0.342-0.341,0.914-0.341,1.255,0s0.341,0.913,0,1.254s-0.913,0.341-1.255,0
			C169.17,159.049,169.17,158.477,169.51,158.136z M169.51,161.898c0.342-0.342,0.914-0.342,1.255,0
			c0.341,0.341,0.341,0.913,0,1.254s-0.913,0.341-1.255,0C169.17,162.812,169.17,162.239,169.51,161.898z"/>
	</g>
</g>
</svg>
