<?xml version="1.0" encoding="utf-8"?>
<!-- Generator: Adobe Illustrator 16.0.0, SVG Export Plug-In . SVG Version: 6.00 Build 0)  -->
<!DOCTYPE svg PUBLIC "-//W3C//DTD SVG 1.1//EN" "http://www.w3.org/Graphics/SVG/1.1/DTD/svg11.dtd">
<svg version="1.1" xmlns="http://www.w3.org/2000/svg" xmlns:xlink="http://www.w3.org/1999/xlink" x="0px" y="0px"
	 width="219.656px" height="220px" viewBox="0 0 219.656 220" enable-background="new 0 0 219.656 220" xml:space="preserve">
<g id="Layer_1">
</g>
<g id="Layer_3">
	<g>
		<g>
			
				<line fill="none" stroke="#FFFFFF" stroke-width="3" stroke-linecap="round" stroke-linejoin="round" x1="87.16" y1="23.402" x2="89.66" y2="23.396"/>
			
				<path fill="none" stroke="#FFFFFF" stroke-width="3" stroke-linecap="round" stroke-linejoin="round" stroke-dasharray="5.0126,5.0126" d="
				M94.673,23.382l108.442-0.292c3.85-0.011,6.995,3.131,6.988,6.981l-0.297,178.851"/>
			
				<line fill="none" stroke="#FFFFFF" stroke-width="3" stroke-linecap="round" stroke-linejoin="round" x1="209.802" y1="211.427" x2="209.798" y2="213.927"/>
		</g>
	</g>
	<g>
		
			<path fill="none" stroke="#FFFFFF" stroke-width="3" stroke-linecap="round" stroke-linejoin="round" stroke-miterlimit="10" stroke-dasharray="5" d="
			M8.488,66.017c-2.206,0-4.264-2.263-4.264-4.469V7.811c0-2.206,2.058-3.794,4.264-3.794h72.609c2.206,0,4.127,1.588,4.127,3.794
			v34.858c0,2.206-1.921,4.348-4.127,4.348H51.364c-2.206,0-4.14,1.467-4.14,3.673v10.858c0,2.206-1.675,4.469-3.881,4.469H8.488z"
			/>
	</g>
</g>
</svg>
