<?xml version="1.0" encoding="utf-8"?>
<!-- Generator: Adobe Illustrator 16.0.0, SVG Export Plug-In . SVG Version: 6.00 Build 0)  -->
<!DOCTYPE svg PUBLIC "-//W3C//DTD SVG 1.1//EN" "http://www.w3.org/Graphics/SVG/1.1/DTD/svg11.dtd">
<svg version="1.1" id="Layer_1" xmlns="http://www.w3.org/2000/svg" xmlns:xlink="http://www.w3.org/1999/xlink" x="0px" y="0px"
	 width="217px" height="221px" viewBox="0 0 217 221" enable-background="new 0 0 217 221" xml:space="preserve">
<g id="Layer_1_1_">
</g>
<g id="Layer_3">
	<g>
		<rect x="10.576" y="19.113" fill="none" width="196" height="50.555"/>
	</g>
	<g enable-background="new    ">
		<path fill="#FFFFFF" d="M48.362,36.163c0,0.499-0.4,0.899-0.9,0.899h-7.198c-0.475,0-0.875-0.4-0.875-0.899V20.142
			c0-0.475,0.4-0.875,0.875-0.875h7.124c0.5,0,0.9,0.4,0.9,0.875c0,0.5-0.4,0.899-0.9,0.899h-6.224v5.549h5.499
			c0.5,0,0.9,0.4,0.9,0.9c0,0.475-0.4,0.874-0.9,0.874h-5.499v6.898h6.298C47.962,35.263,48.362,35.663,48.362,36.163z"/>
		<path fill="#FFFFFF" d="M50.989,32.238v-8.147c0-2.725,2.225-4.974,4.974-4.974c2.575,0,4.699,2.024,4.949,4.474
			c0.05,0.475-0.3,0.925-0.8,0.975c-0.475,0.05-0.925-0.3-0.975-0.8c-0.15-1.624-1.524-2.874-3.174-2.874
			c-1.75,0-3.199,1.449-3.199,3.199v8.147c0,1.75,1.45,3.199,3.199,3.199c1.65,0,3.024-1.249,3.174-2.874
			c0.05-0.5,0.5-0.85,0.975-0.8c0.5,0.05,0.85,0.5,0.8,0.975c-0.25,2.574-2.5,4.475-4.949,4.475
			C53.214,37.213,50.989,34.988,50.989,32.238z"/>
		<path fill="#FFFFFF" d="M63.564,32.238v-8.147c0-2.725,2.225-4.974,4.974-4.974c2.75,0,4.974,2.249,4.974,4.974v8.147
			c0,2.75-2.225,4.975-4.974,4.975C65.789,37.213,63.564,34.988,63.564,32.238z M65.338,24.091v8.147
			c0,1.75,1.425,3.199,3.199,3.199c1.75,0,3.199-1.449,3.199-3.199v-8.147c0-1.75-1.449-3.199-3.199-3.199
			C66.763,20.892,65.338,22.341,65.338,24.091z"/>
		<path fill="#FFFFFF" d="M85.711,36.713l-6.548-12.972v12.571c0,0.5-0.4,0.9-0.899,0.9c-0.475,0-0.875-0.4-0.875-0.9V20.017
			c0-0.5,0.425-0.899,0.875-0.899c0.325,0,0.649,0.199,0.8,0.5l6.548,12.972V20.017c0-0.5,0.4-0.899,0.899-0.899
			c0.5,0,0.9,0.399,0.9,0.899v16.296c0,0.425-0.3,0.775-0.7,0.875c-0.075,0.025-0.125,0.025-0.2,0.025
			C86.187,37.213,85.861,37.037,85.711,36.713z"/>
		<path fill="#FFFFFF" d="M91.289,32.238v-8.147c0-2.725,2.225-4.974,4.974-4.974c2.75,0,4.974,2.249,4.974,4.974v8.147
			c0,2.75-2.225,4.975-4.974,4.975C93.514,37.213,91.289,34.988,91.289,32.238z M93.063,24.091v8.147
			c0,1.75,1.425,3.199,3.199,3.199c1.75,0,3.199-1.449,3.199-3.199v-8.147c0-1.75-1.449-3.199-3.199-3.199
			C94.488,20.892,93.063,22.341,93.063,24.091z"/>
		<path fill="#FFFFFF" d="M116.661,36.312V23.791l-4.099,8.197c-0.15,0.325-0.451,0.5-0.801,0.5c-0.324,0-0.625-0.175-0.799-0.5
			l-4.075-8.197v12.521c0,0.5-0.4,0.9-0.9,0.9c-0.475,0-0.875-0.4-0.875-0.9V20.017c0.025-0.5,0.4-0.899,0.875-0.899
			c0.325,0,0.65,0.199,0.8,0.5l4.974,9.997l4.999-9.997c0.149-0.301,0.476-0.5,0.8-0.5c0.525,0,0.875,0.475,0.875,0.899v16.296
			c0,0.5-0.4,0.9-0.875,0.9C117.061,37.213,116.661,36.812,116.661,36.312z"/>
		<path fill="#FFFFFF" d="M131.611,20.366l-4.225,9.348v6.599c0,0.5-0.375,0.9-0.874,0.9c-0.5,0-0.899-0.4-0.899-0.9v-6.599
			l-4.199-9.348c-0.25-0.55,0.125-1.249,0.799-1.249c0.351,0,0.676,0.199,0.826,0.524l3.474,7.724l3.474-7.724
			c0.15-0.325,0.45-0.524,0.801-0.524C131.387,19.117,131.887,19.742,131.611,20.366z"/>
		<path fill="#FFFFFF" d="M150.586,37.213c-0.375,0-0.7-0.25-0.825-0.65l-1.124-3.649h-5.949l-1.125,3.649
			c-0.125,0.375-0.475,0.65-0.85,0.65c-0.524,0-1.049-0.551-0.85-1.15l4.924-16.32c0.125-0.375,0.475-0.625,0.875-0.625
			c0.375,0,0.725,0.25,0.85,0.625l4.949,16.32C151.586,36.588,151.211,37.213,150.586,37.213z M148.086,31.139l-2.424-8.072
			l-2.449,8.072H148.086z"/>
		<path fill="#FFFFFF" d="M162.586,36.713l-6.549-12.972v12.571c0,0.5-0.399,0.9-0.899,0.9c-0.475,0-0.874-0.4-0.874-0.9V20.017
			c0-0.5,0.424-0.899,0.874-0.899c0.325,0,0.649,0.199,0.8,0.5l6.549,12.972V20.017c0-0.5,0.4-0.899,0.899-0.899
			c0.5,0,0.899,0.399,0.899,0.899v16.296c0,0.425-0.299,0.775-0.699,0.875c-0.075,0.025-0.125,0.025-0.2,0.025
			C163.061,37.213,162.736,37.037,162.586,36.713z"/>
		<path fill="#FFFFFF" d="M169.438,37.062c-0.5,0-0.899-0.4-0.899-0.899V20.142c0-0.475,0.399-0.875,0.899-0.875h3.725
			c2.749,0,4.974,2.225,4.974,4.974v7.823c0,2.75-2.225,4.999-4.974,4.999H169.438z M170.312,35.263h2.85
			c1.774,0,3.199-1.425,3.199-3.199V24.24c0-1.774-1.425-3.199-3.199-3.199h-2.85V35.263z"/>
	</g>
	<g enable-background="new    ">
		<path fill="#FFFFFF" d="M70.249,61.839c0,2.874-2.349,5.224-5.224,5.224h-3.949c-0.475,0-0.875-0.4-0.875-0.899V50.142
			c0-0.475,0.4-0.875,0.875-0.875h3.949c2.399,0,4.574,2,4.574,4.549c0,1.475-0.7,2.8-1.774,3.624
			C69.274,58.39,70.249,59.989,70.249,61.839z M61.976,51.041v5.599h3.049c1.55,0,2.799-1.274,2.799-2.824
			c0-1.499-1.25-2.774-2.799-2.774H61.976z M68.449,61.839c0-1.899-1.525-3.424-3.424-3.424h-3.049v6.848h3.049
			C66.924,65.263,68.449,63.738,68.449,61.839z"/>
		<path fill="#FFFFFF" d="M73.751,62.238V50.017c0-0.5,0.4-0.899,0.9-0.899c0.475,0,0.875,0.399,0.875,0.899v12.222
			c0,1.75,1.45,3.175,3.199,3.175c1.775,0,3.199-1.425,3.199-3.175V50.017c0-0.5,0.4-0.899,0.9-0.899
			c0.475,0,0.875,0.399,0.875,0.899v12.222c0,2.725-2.225,4.975-4.974,4.975C75.976,67.213,73.751,64.963,73.751,62.238z"/>
		<path fill="#FFFFFF" d="M86.951,62.764c0-0.5,0.4-0.9,0.875-0.9c0.5,0,0.9,0.4,0.9,0.9c0,1.3,1.075,2.674,3.099,2.674
			c1.924,0,3.149-1.05,3.149-2.624c0-1.175-0.15-2.175-2.05-3.349C90.65,58.14,90.125,57.84,89.6,57.49
			c-1.524-1.05-2.499-2.274-2.499-4.1c0-2.674,2.174-4.273,4.674-4.273c2.624,0,4.749,1.899,4.749,4.448c0,0.5-0.4,0.9-0.9,0.9
			c-0.5,0-0.899-0.4-0.899-0.9c0-1.324-1-2.674-2.949-2.674c-2,0-2.875,1.25-2.875,2.475c0,0.624,0,1.449,1.575,2.574
			c0.375,0.274,1.375,0.875,3.324,1.999c1.924,1.1,2.974,2.725,2.974,4.874c0,2.8-2.424,4.399-4.949,4.399
			C88.775,67.213,86.951,64.963,86.951,62.764z"/>
		<path fill="#FFFFFF" d="M107.374,66.163c0,0.499-0.4,0.899-0.9,0.899h-6.249c-0.5,0-0.899-0.4-0.899-0.899
			c0-0.5,0.4-0.9,0.899-0.9h2.25V51.066h-2.25c-0.5,0-0.899-0.4-0.899-0.899c0-0.5,0.4-0.9,0.899-0.9h6.249c0.5,0,0.9,0.4,0.9,0.9
			c0,0.499-0.4,0.899-0.9,0.899h-2.224v14.196h2.224C106.974,65.263,107.374,65.663,107.374,66.163z"/>
		<path fill="#FFFFFF" d="M119.248,66.713l-6.549-12.972v12.571c0,0.5-0.399,0.9-0.898,0.9c-0.476,0-0.875-0.4-0.875-0.9V50.017
			c0-0.5,0.424-0.899,0.875-0.899c0.324,0,0.648,0.199,0.799,0.5l6.549,12.972V50.017c0-0.5,0.4-0.899,0.899-0.899
			c0.5,0,0.899,0.399,0.899,0.899v16.296c0,0.425-0.299,0.775-0.699,0.875c-0.075,0.025-0.125,0.025-0.2,0.025
			C119.723,67.213,119.398,67.037,119.248,66.713z"/>
		<path fill="#FFFFFF" d="M134.173,66.163c0,0.499-0.399,0.899-0.899,0.899h-7.199c-0.475,0-0.874-0.4-0.874-0.899V50.142
			c0-0.475,0.399-0.875,0.874-0.875h7.124c0.5,0,0.899,0.4,0.899,0.875c0,0.5-0.399,0.899-0.899,0.899h-6.224v5.549h5.498
			c0.5,0,0.9,0.4,0.9,0.9c0,0.475-0.4,0.874-0.9,0.874h-5.498v6.898h6.299C133.773,65.263,134.173,65.663,134.173,66.163z"/>
		<path fill="#FFFFFF" d="M136.051,62.764c0-0.5,0.399-0.9,0.875-0.9c0.5,0,0.899,0.4,0.899,0.9c0,1.3,1.075,2.674,3.099,2.674
			c1.925,0,3.15-1.05,3.15-2.624c0-1.175-0.15-2.175-2.051-3.349c-2.273-1.325-2.799-1.625-3.324-1.975
			c-1.523-1.05-2.498-2.274-2.498-4.1c0-2.674,2.174-4.273,4.674-4.273c2.623,0,4.748,1.899,4.748,4.448c0,0.5-0.4,0.9-0.9,0.9
			c-0.499,0-0.898-0.4-0.898-0.9c0-1.324-1-2.674-2.949-2.674c-2,0-2.875,1.25-2.875,2.475c0,0.624,0,1.449,1.574,2.574
			c0.375,0.274,1.375,0.875,3.324,1.999c1.925,1.1,2.975,2.725,2.975,4.874c0,2.8-2.424,4.399-4.949,4.399
			C137.875,67.213,136.051,64.963,136.051,62.764z"/>
		<path fill="#FFFFFF" d="M148.125,62.764c0-0.5,0.4-0.9,0.875-0.9c0.5,0,0.9,0.4,0.9,0.9c0,1.3,1.074,2.674,3.099,2.674
			c1.925,0,3.149-1.05,3.149-2.624c0-1.175-0.15-2.175-2.05-3.349c-2.274-1.325-2.8-1.625-3.324-1.975
			c-1.524-1.05-2.499-2.274-2.499-4.1c0-2.674,2.174-4.273,4.674-4.273c2.624,0,4.748,1.899,4.748,4.448c0,0.5-0.399,0.9-0.898,0.9
			c-0.5,0-0.9-0.4-0.9-0.9c0-1.324-1-2.674-2.949-2.674c-2,0-2.875,1.25-2.875,2.475c0,0.624,0,1.449,1.575,2.574
			c0.375,0.274,1.374,0.875,3.324,1.999c1.925,1.1,2.974,2.725,2.974,4.874c0,2.8-2.424,4.399-4.948,4.399
			C149.949,67.213,148.125,64.963,148.125,62.764z"/>
	</g>
	<g>
		<g>
			<path fill="none" stroke="#FFFFFF" stroke-width="0.5949" stroke-miterlimit="10" d="M78.114,171.947"/>
		</g>
	</g>
	<g>
		<rect x="15" y="92" fill="#FFFFFF" width="188" height="39"/>
	</g>
	<g>
		<rect x="10.576" y="97.394" fill="none" width="196" height="31.106"/>
	</g>
	<g enable-background="new    ">
		<path fill="#78C4D3" d="M104.541,118.179c0,0.722-0.608,1.33-1.33,1.33h-2.166v4.027c0,0.76-0.608,1.367-1.368,1.367
			s-1.368-0.607-1.368-1.367v-4.027h-7.675c-0.912,0-1.596-0.912-1.253-1.824l6.953-19.377c0.19-0.57,0.722-0.912,1.254-0.912
			c0.912,0,1.558,0.912,1.292,1.824l-6.307,17.591h5.737v-3.001c0-0.76,0.608-1.368,1.368-1.368s1.368,0.608,1.368,1.368v3.001
			h2.166C103.933,116.811,104.541,117.419,104.541,118.179z"/>
	</g>
	<g enable-background="new    ">
		<path fill="#78C4D3" d="M119.854,115.574c-1.441,0-2.621-1.181-2.621-2.641c0-1.44,1.18-2.621,2.621-2.621
			c1.439,0,2.62,1.181,2.62,2.621C122.474,114.394,121.293,115.574,119.854,115.574z M119.854,114.134c0.66,0,1.199-0.54,1.199-1.2
			s-0.539-1.2-1.199-1.2s-1.201,0.54-1.201,1.2S119.193,114.134,119.854,114.134z M126.635,111.353l-6.602,13.043
			c-0.12,0.261-0.381,0.4-0.641,0.4c-0.479,0-0.9-0.521-0.64-1.04l6.602-13.043c0.12-0.26,0.38-0.4,0.64-0.4
			C126.475,110.312,126.895,110.833,126.635,111.353z M128.154,122.175c0,1.44-1.18,2.621-2.62,2.621s-2.62-1.181-2.62-2.621
			c0-1.46,1.18-2.62,2.62-2.62S128.154,120.715,128.154,122.175z M126.734,122.175c0-0.66-0.54-1.2-1.2-1.2s-1.2,0.54-1.2,1.2
			s0.54,1.201,1.2,1.201S126.734,122.835,126.734,122.175z"/>
	</g>
	<g>
		<g>
			<path fill="none" stroke="#FFFFFF" stroke-width="0.5949" stroke-miterlimit="10" d="M78.297,171.947"/>
		</g>
	</g>
	<g>
		<g>
			<path fill="none" stroke="#FFFFFF" stroke-width="0.5949" stroke-miterlimit="10" d="M78.297,171.947"/>
		</g>
	</g>
	<g>
		<rect x="14" y="174" fill="#FFFFFF" width="54" height="28"/>
	</g>
	<g>
		<g>
			<path fill="none" stroke="#FFFFFF" stroke-width="0.5949" stroke-miterlimit="10" d="M78.114,171.947"/>
		</g>
	</g>
	<g>
		<g>
			<path fill="none" stroke="#FFFFFF" stroke-width="0.5949" stroke-miterlimit="10" d="M78.297,171.947"/>
		</g>
	</g>
	<g>
		<g>
			<path fill="none" stroke="#FFFFFF" stroke-width="0.5949" stroke-miterlimit="10" d="M78.297,171.947"/>
		</g>
	</g>
	<g>
		<path fill="#FFFFFF" d="M203,203H14v-29h189V203z M15,202h187v-27H15V202z"/>
	</g>
	<g>
		<rect x="21.412" y="184.127" fill="none" width="46.945" height="38.746"/>
	</g>
	<g enable-background="new    ">
		<path fill="#78C4D3" d="M24.604,189.311l-2.699-5.085h1.164l2.062,4.03l2.063-4.03h1.164l-2.699,5.085v3.311h-1.055V189.311z"/>
		<path fill="#78C4D3" d="M29.944,184.226h5.325v1.008H31v2.41h3.67v1.008H31v2.962h4.39v1.008h-5.445V184.226z"/>
		<path fill="#78C4D3" d="M41.798,186.396c-0.372-0.84-0.936-1.26-1.703-1.26c-0.923,0-1.511,0.48-1.511,1.296
			c0,0.407,0.156,0.707,0.456,0.888c0.312,0.18,0.803,0.359,1.487,0.539c0.611,0.156,0.935,0.252,1.379,0.492
			c0.66,0.336,0.972,0.815,1.007,1.691c0,1.774-1.091,2.674-2.782,2.674c-1.619,0-2.807-0.875-3.13-2.494l0.983-0.384
			c0.324,1.247,1.043,1.871,2.147,1.871c1.056,0,1.727-0.528,1.727-1.523c0-0.348-0.144-0.611-0.3-0.768
			c-0.084-0.084-0.216-0.156-0.408-0.228c-0.372-0.156-0.588-0.229-1.199-0.372c-0.588-0.145-0.876-0.228-1.355-0.468
			c-0.672-0.348-1.02-0.876-1.067-1.883c0-0.684,0.228-1.248,0.684-1.68c0.456-0.443,1.08-0.659,1.883-0.659
			c1.355,0,2.243,0.779,2.627,1.799L41.798,186.396z"/>
	</g>
	<g>
		<rect x="146.747" y="184.127" fill="none" width="46.944" height="38.746"/>
	</g>
	<g enable-background="new    ">
		<path fill="#FFFFFF" d="M184.328,184.226h1.056v8.396h-1.151l-3.514-6.477v6.477h-1.056v-8.396h1.151l3.514,6.477V184.226z"/>
		<path fill="#FFFFFF" d="M189.969,184.13c0.96,0,1.74,0.372,2.352,1.115c0.611,0.731,0.911,1.799,0.911,3.179
			c0,1.379-0.3,2.446-0.911,3.189c-0.611,0.732-1.392,1.104-2.352,1.104c-0.959,0-1.738-0.371-2.35-1.104
			c-0.612-0.743-0.912-1.811-0.912-3.189c0-1.38,0.3-2.447,0.912-3.179C188.23,184.502,189.01,184.13,189.969,184.13z
			 M189.969,185.137c-0.659,0-1.187,0.265-1.582,0.804c-0.396,0.528-0.588,1.355-0.588,2.483c0,1.127,0.191,1.954,0.588,2.494
			c0.396,0.527,0.923,0.792,1.582,0.792c0.66,0,1.188-0.265,1.584-0.792c0.396-0.54,0.588-1.367,0.588-2.494
			c0-1.128-0.192-1.955-0.588-2.483C191.156,185.401,190.629,185.137,189.969,185.137z"/>
	</g>
	<g>
		<rect x="14.5" y="154.572" fill="none" width="188.518" height="11.646"/>
	</g>
	<g enable-background="new    ">
		<path fill="#FFFFFF" d="M49.547,156.816h0.946l-1.21,5.545h-0.836l-1.067-3.895l-1.067,3.895h-0.836l-1.21-5.545h0.946
			l0.759,4.104l0.946-3.554h0.924l0.946,3.554L49.547,156.816z"/>
		<path fill="#FFFFFF" d="M56.609,162.361h-0.924v-3.631c0-0.781-0.341-1.166-1.023-1.166c-0.473,0-0.88,0.221-1.232,0.671
			c-0.352,0.451-0.528,1.046-0.528,1.805v2.321h-0.924v-7.789h0.924v3.268c0.44-0.649,1.188-1.111,2.013-1.111
			c1.133,0,1.694,0.605,1.694,1.805V162.361z"/>
		<path fill="#FFFFFF" d="M58.291,159.589c0-0.792,0.253-1.463,0.748-2.024c0.495-0.561,1.155-0.836,1.98-0.836
			s1.485,0.275,1.98,0.836c0.495,0.562,0.748,1.232,0.748,2.024s-0.253,1.463-0.748,2.024c-0.495,0.561-1.155,0.836-1.98,0.836
			s-1.485-0.275-1.98-0.836C58.544,161.052,58.291,160.381,58.291,159.589z M59.237,159.589c0,0.562,0.165,1.034,0.484,1.431
			c0.319,0.396,0.759,0.594,1.298,0.594s0.979-0.198,1.298-0.594c0.319-0.396,0.484-0.869,0.484-1.431
			c0-0.561-0.165-1.034-0.484-1.43c-0.319-0.396-0.759-0.595-1.298-0.595s-0.979,0.198-1.298,0.595
			C59.402,158.555,59.237,159.028,59.237,159.589z"/>
		<path fill="#FFFFFF" d="M77.718,162.361h-0.924v-3.938c0-0.605-0.176-0.848-0.605-0.848c-0.572,0-0.979,0.716-0.979,2.179v2.607
			h-0.924v-3.938c0-0.605-0.176-0.848-0.605-0.848c-0.572,0-0.979,0.716-0.979,2.179v2.607h-0.924v-5.545h0.924v0.704
			c0.33-0.528,0.759-0.792,1.298-0.792c0.594,0,0.979,0.297,1.144,0.902c0.297-0.539,0.792-0.902,1.364-0.902
			c0.737,0,1.21,0.484,1.21,1.496V162.361z"/>
		<path fill="#FFFFFF" d="M83.845,162.361h-0.748l-0.132-0.781c-0.352,0.518-1.133,0.869-1.958,0.869
			c-0.979,0-1.716-0.594-1.716-1.684c0-1.198,0.935-1.814,2.508-1.814h1.122v-0.242c0-0.804-0.528-1.145-1.276-1.145
			c-0.627,0-1.133,0.385-1.31,0.946l-0.814-0.22c0.253-0.957,1.1-1.562,2.124-1.562c1.364,0,2.2,0.671,2.2,2.135V162.361z
			 M81.149,161.613c0.44,0,0.847-0.144,1.21-0.418c0.374-0.286,0.561-0.715,0.561-1.276v-0.176h-1.21
			c-0.935,0-1.474,0.396-1.474,1.022C80.236,161.294,80.588,161.613,81.149,161.613z"/>
		<path fill="#FFFFFF" d="M86.11,154.572h0.924v4.565l2.365-2.321h1.21l-2.585,2.541l2.838,3.004h-1.21l-2.618-2.783v2.783H86.11
			V154.572z"/>
		<path fill="#FFFFFF" d="M97.826,159.787h-4.334c0.055,1.1,0.726,1.826,1.705,1.826c0.792,0,1.386-0.363,1.782-1.101l0.737,0.386
			c-0.539,1.034-1.375,1.551-2.52,1.551c-0.792,0-1.43-0.275-1.925-0.814c-0.484-0.539-0.726-1.221-0.726-2.046
			c0-0.803,0.242-1.485,0.715-2.035c0.484-0.55,1.133-0.825,1.936-0.825c0.825,0,1.475,0.253,1.937,0.771
			c0.462,0.506,0.693,1.144,0.693,1.903V159.787z M93.557,158.951h3.29c-0.165-0.881-0.759-1.387-1.65-1.387
			C94.327,157.564,93.744,158.082,93.557,158.951z"/>
		<path fill="#FFFFFF" d="M107.417,161.657v2.948h-0.924v-7.789h0.924v0.737c0.341-0.474,0.979-0.825,1.694-0.825
			c1.596,0,2.541,1.133,2.541,2.86s-0.945,2.86-2.541,2.86C108.374,162.449,107.758,162.108,107.417,161.657z M110.707,159.589
			c0-0.605-0.154-1.089-0.451-1.463s-0.716-0.562-1.232-0.562c-0.518,0-0.936,0.188-1.232,0.562s-0.451,0.857-0.451,1.463
			s0.154,1.089,0.451,1.463s0.715,0.562,1.232,0.562c0.517,0,0.936-0.188,1.232-0.562S110.707,160.194,110.707,159.589z"/>
		<path fill="#FFFFFF" d="M117.395,158.577c-0.077-0.672-0.44-1.013-1.067-1.013c-0.517,0-0.968,0.242-1.331,0.737
			c-0.363,0.484-0.551,1.166-0.551,2.058v2.002h-0.924v-5.545h0.924v1.023c0.474-0.737,1.156-1.111,2.047-1.111
			c1.1,0,1.771,0.66,1.826,1.849H117.395z"/>
		<path fill="#FFFFFF" d="M119.671,159.589c0-0.792,0.253-1.463,0.748-2.024c0.495-0.561,1.155-0.836,1.98-0.836
			s1.485,0.275,1.979,0.836c0.496,0.562,0.748,1.232,0.748,2.024s-0.252,1.463-0.748,2.024c-0.494,0.561-1.154,0.836-1.979,0.836
			s-1.485-0.275-1.98-0.836C119.924,161.052,119.671,160.381,119.671,159.589z M120.617,159.589c0,0.562,0.165,1.034,0.484,1.431
			c0.318,0.396,0.759,0.594,1.298,0.594s0.979-0.198,1.298-0.594c0.319-0.396,0.484-0.869,0.484-1.431
			c0-0.561-0.165-1.034-0.484-1.43c-0.318-0.396-0.759-0.595-1.298-0.595s-0.979,0.198-1.298,0.595
			C120.782,158.555,120.617,159.028,120.617,159.589z"/>
		<path fill="#FFFFFF" d="M127.877,161.657v2.948h-0.924v-7.789h0.924v0.737c0.341-0.474,0.979-0.825,1.694-0.825
			c1.595,0,2.541,1.133,2.541,2.86s-0.946,2.86-2.541,2.86C128.834,162.449,128.218,162.108,127.877,161.657z M131.166,159.589
			c0-0.605-0.154-1.089-0.451-1.463s-0.715-0.562-1.232-0.562c-0.517,0-0.935,0.188-1.231,0.562s-0.451,0.857-0.451,1.463
			s0.154,1.089,0.451,1.463s0.715,0.562,1.231,0.562c0.518,0,0.936-0.188,1.232-0.562S131.166,160.194,131.166,159.589z"/>
		<path fill="#FFFFFF" d="M133.311,159.589c0-0.792,0.253-1.463,0.748-2.024c0.495-0.561,1.155-0.836,1.98-0.836
			s1.484,0.275,1.98,0.836c0.494,0.562,0.748,1.232,0.748,2.024s-0.254,1.463-0.748,2.024c-0.496,0.561-1.155,0.836-1.98,0.836
			s-1.485-0.275-1.98-0.836C133.563,161.052,133.311,160.381,133.311,159.589z M134.257,159.589c0,0.562,0.165,1.034,0.483,1.431
			c0.319,0.396,0.76,0.594,1.299,0.594s0.979-0.198,1.298-0.594c0.319-0.396,0.484-0.869,0.484-1.431
			c0-0.561-0.165-1.034-0.484-1.43c-0.319-0.396-0.759-0.595-1.298-0.595s-0.979,0.198-1.299,0.595
			C134.422,158.555,134.257,159.028,134.257,159.589z"/>
		<path fill="#FFFFFF" d="M144.861,157.928l-0.727,0.517c-0.318-0.583-0.77-0.88-1.33-0.88c-0.528,0-0.957,0.242-0.957,0.737
			c0,0.451,0.406,0.682,1.287,0.858c0.473,0.099,0.77,0.165,1.133,0.33c0.518,0.22,0.857,0.594,0.857,1.177
			c0,0.55-0.209,0.99-0.615,1.31c-0.407,0.318-0.914,0.473-1.519,0.473c-1.144,0-2.068-0.583-2.409-1.606l0.88-0.33
			c0.253,0.693,0.781,1.101,1.529,1.101c0.671,0,1.177-0.297,1.177-0.858c0-0.439-0.418-0.594-1.43-0.813
			c-1.133-0.231-1.793-0.628-1.793-1.606c0-0.484,0.187-0.869,0.55-1.166c0.362-0.298,0.813-0.44,1.343-0.44
			C143.75,156.729,144.422,157.125,144.861,157.928z"/>
		<path fill="#FFFFFF" d="M152.045,162.361h-0.748l-0.133-0.781c-0.352,0.518-1.133,0.869-1.958,0.869
			c-0.979,0-1.716-0.594-1.716-1.684c0-1.198,0.935-1.814,2.508-1.814h1.122v-0.242c0-0.804-0.528-1.145-1.276-1.145
			c-0.627,0-1.133,0.385-1.309,0.946l-0.814-0.22c0.253-0.957,1.1-1.562,2.123-1.562c1.365,0,2.201,0.671,2.201,2.135V162.361z
			 M149.35,161.613c0.439,0,0.847-0.144,1.209-0.418c0.375-0.286,0.562-0.715,0.562-1.276v-0.176h-1.21
			c-0.936,0-1.475,0.396-1.475,1.022C148.436,161.294,148.788,161.613,149.35,161.613z"/>
		<path fill="#FFFFFF" d="M155.3,155.496h-1.529v-0.836h2.453v5.611c0,0.891,0.386,1.342,1.167,1.342
			c0.715,0,1.144-0.451,1.287-1.342l0.836,0.165c-0.188,1.319-0.969,2.013-2.123,2.013c-1.287,0-2.091-0.803-2.091-2.178V155.496z"
			/>
		<path fill="#FFFFFF" d="M165.32,157.928l-0.726,0.517c-0.319-0.583-0.771-0.88-1.331-0.88c-0.527,0-0.957,0.242-0.957,0.737
			c0,0.451,0.406,0.682,1.287,0.858c0.473,0.099,0.77,0.165,1.133,0.33c0.518,0.22,0.858,0.594,0.858,1.177
			c0,0.55-0.209,0.99-0.616,1.31c-0.406,0.318-0.913,0.473-1.518,0.473c-1.145,0-2.068-0.583-2.41-1.606l0.881-0.33
			c0.252,0.693,0.781,1.101,1.529,1.101c0.67,0,1.177-0.297,1.177-0.858c0-0.439-0.418-0.594-1.431-0.813
			c-1.133-0.231-1.793-0.628-1.793-1.606c0-0.484,0.188-0.869,0.551-1.166c0.362-0.298,0.813-0.44,1.342-0.44
			C164.21,156.729,164.881,157.125,165.32,157.928z"/>
		<path fill="#FFFFFF" d="M169.512,157.136c0.341-0.341,0.912-0.341,1.254,0c0.341,0.341,0.341,0.913,0,1.254
			c-0.342,0.341-0.913,0.341-1.254,0C169.17,158.049,169.17,157.477,169.512,157.136z M169.512,160.898
			c0.341-0.342,0.912-0.342,1.254,0c0.341,0.341,0.341,0.913,0,1.254c-0.342,0.341-0.913,0.341-1.254,0
			C169.17,161.812,169.17,161.239,169.512,160.898z"/>
	</g>
	<g>
		<g>
			<path fill="#FFFFFF" d="M208.426,220.595h-200c-4.246,0-7.7-3.454-7.7-7.7v-205c0-4.246,3.455-7.7,7.7-7.7h200
				c4.246,0,7.7,3.455,7.7,7.7v205C216.126,217.141,212.672,220.595,208.426,220.595z M8.426,1.594c-3.474,0-6.3,2.826-6.3,6.3v205
				c0,3.474,2.826,6.3,6.3,6.3h200c3.474,0,6.3-2.826,6.3-6.3v-205c0-3.474-2.826-6.3-6.3-6.3H8.426z"/>
		</g>
	</g>
	<g>
		<path fill="#FFFFFF" d="M203,82.7H15c-0.387,0-0.7-0.313-0.7-0.7s0.313-0.7,0.7-0.7h188c0.387,0,0.7,0.313,0.7,0.7
			S203.387,82.7,203,82.7z"/>
	</g>
	<g>
		<path fill="#FFFFFF" d="M203,143.7H15c-0.387,0-0.7-0.313-0.7-0.7s0.313-0.7,0.7-0.7h188c0.387,0,0.7,0.313,0.7,0.7
			S203.387,143.7,203,143.7z"/>
	</g>
</g>
</svg>
