<?xml version="1.0" encoding="utf-8"?>
<!-- Generator: Adobe Illustrator 16.0.0, SVG Export Plug-In . SVG Version: 6.00 Build 0)  -->
<!DOCTYPE svg PUBLIC "-//W3C//DTD SVG 1.1//EN" "http://www.w3.org/Graphics/SVG/1.1/DTD/svg11.dtd">
<svg version="1.1" id="Layer_1" xmlns="http://www.w3.org/2000/svg" xmlns:xlink="http://www.w3.org/1999/xlink" x="0px" y="0px"
	 width="217px" height="221px" viewBox="0 0 217 221" enable-background="new 0 0 217 221" xml:space="preserve">
<g id="Layer_1_1_">
</g>
<g id="Layer_3">
	<g>
		<rect x="8.576" y="19.113" fill="none" width="196" height="50.555"/>
	</g>
	<g enable-background="new    ">
		<path fill="#FFFFFF" d="M44.137,36.163c0,0.499-0.4,0.899-0.9,0.899h-6.249c-0.5,0-0.899-0.4-0.899-0.899c0-0.5,0.4-0.9,0.899-0.9
			h2.25V21.066h-2.25c-0.5,0-0.899-0.4-0.899-0.899c0-0.5,0.4-0.9,0.899-0.9h6.249c0.5,0,0.9,0.4,0.9,0.9
			c0,0.499-0.4,0.899-0.9,0.899h-2.224v14.196h2.224C43.737,35.263,44.137,35.663,44.137,36.163z"/>
		<path fill="#FFFFFF" d="M56.012,36.713l-6.548-12.972v12.571c0,0.5-0.4,0.9-0.899,0.9c-0.475,0-0.875-0.4-0.875-0.9V20.017
			c0-0.5,0.425-0.899,0.875-0.899c0.325,0,0.649,0.199,0.8,0.5l6.548,12.972V20.017c0-0.5,0.4-0.899,0.899-0.899
			c0.5,0,0.9,0.399,0.9,0.899v16.296c0,0.425-0.3,0.775-0.7,0.875c-0.075,0.025-0.125,0.025-0.2,0.025
			C56.487,37.213,56.162,37.037,56.012,36.713z"/>
		<path fill="#FFFFFF" d="M63.738,21.066v5.674h5.999c0.5,0,0.9,0.399,0.9,0.899c0,0.475-0.4,0.875-0.9,0.875h-5.999v7.798
			c0,0.5-0.4,0.9-0.9,0.9c-0.475,0-0.875-0.4-0.875-0.9V20.167c0-0.5,0.4-0.9,0.875-0.9h7.673c0.475,0,0.875,0.4,0.875,0.9
			c0,0.499-0.4,0.899-0.875,0.899H63.738z"/>
		<path fill="#FFFFFF" d="M73.064,32.238v-8.147c0-2.725,2.225-4.974,4.974-4.974c2.75,0,4.974,2.249,4.974,4.974v8.147
			c0,2.75-2.225,4.975-4.974,4.975C75.289,37.213,73.064,34.988,73.064,32.238z M74.838,24.091v8.147
			c0,1.75,1.425,3.199,3.199,3.199c1.75,0,3.199-1.449,3.199-3.199v-8.147c0-1.75-1.449-3.199-3.199-3.199
			C76.263,20.892,74.838,22.341,74.838,24.091z"/>
		<path fill="#FFFFFF" d="M95.836,37.213c-0.35,0-0.725-0.226-0.875-0.601l-2.624-8.072c0,0-0.2,0-3.674,0v7.798
			c0,0.475-0.4,0.875-0.9,0.875c-0.475,0-0.875-0.4-0.875-0.875V20.142c0-0.475,0.4-0.875,0.875-0.875h4.274
			c2.574,0,4.648,2.075,4.648,4.649c0,1.824-1.075,3.424-2.624,4.174l2.599,7.948C96.786,36.562,96.461,37.213,95.836,37.213z
			 M92.038,26.765c1.6,0,2.874-1.274,2.874-2.849c0-1.6-1.274-2.875-2.874-2.875h-3.375v5.724H92.038z"/>
		<path fill="#FFFFFF" d="M111.535,36.312V23.791l-4.099,8.197c-0.15,0.325-0.45,0.5-0.8,0.5c-0.325,0-0.625-0.175-0.8-0.5
			l-4.074-8.197v12.521c0,0.5-0.4,0.9-0.9,0.9c-0.475,0-0.875-0.4-0.875-0.9V20.017c0.025-0.5,0.4-0.899,0.875-0.899
			c0.325,0,0.65,0.199,0.8,0.5l4.974,9.997l4.998-9.997c0.15-0.301,0.476-0.5,0.801-0.5c0.524,0,0.875,0.475,0.875,0.899v16.296
			c0,0.5-0.4,0.9-0.875,0.9C111.936,37.213,111.535,36.812,111.535,36.312z"/>
		<path fill="#FFFFFF" d="M126.861,37.213c-0.375,0-0.701-0.25-0.826-0.65l-1.124-3.649h-5.948l-1.125,3.649
			c-0.125,0.375-0.475,0.65-0.85,0.65c-0.525,0-1.05-0.551-0.85-1.15l4.924-16.32c0.125-0.375,0.475-0.625,0.875-0.625
			c0.375,0,0.725,0.25,0.85,0.625l4.948,16.32C127.86,36.588,127.485,37.213,126.861,37.213z M124.361,31.139l-2.424-8.072
			l-2.45,8.072H124.361z"/>
		<path fill="#FFFFFF" d="M137.137,19.267c0.5,0,0.899,0.4,0.899,0.875c0,0.5-0.399,0.899-0.899,0.899h-3.4v15.271
			c0,0.5-0.399,0.9-0.898,0.9c-0.476,0-0.875-0.4-0.875-0.9V21.041h-3.399c-0.5,0-0.899-0.399-0.899-0.899
			c0-0.475,0.399-0.875,0.899-0.875H137.137z"/>
		<path fill="#FFFFFF" d="M147.886,36.163c0,0.499-0.399,0.899-0.899,0.899h-6.249c-0.499,0-0.899-0.4-0.899-0.899
			c0-0.5,0.4-0.9,0.899-0.9h2.249V21.066h-2.249c-0.499,0-0.899-0.4-0.899-0.899c0-0.5,0.4-0.9,0.899-0.9h6.249
			c0.5,0,0.899,0.4,0.899,0.9c0,0.499-0.399,0.899-0.899,0.899h-2.225v14.196h2.225C147.486,35.263,147.886,35.663,147.886,36.163z"
			/>
		<path fill="#FFFFFF" d="M151.062,32.238v-8.147c0-2.725,2.225-4.974,4.974-4.974s4.974,2.249,4.974,4.974v8.147
			c0,2.75-2.225,4.975-4.974,4.975S151.062,34.988,151.062,32.238z M152.837,24.091v8.147c0,1.75,1.425,3.199,3.199,3.199
			c1.75,0,3.199-1.449,3.199-3.199v-8.147c0-1.75-1.449-3.199-3.199-3.199C154.262,20.892,152.837,22.341,152.837,24.091z"/>
		<path fill="#FFFFFF" d="M173.21,36.713l-6.548-12.972v12.571c0,0.5-0.4,0.9-0.9,0.9c-0.475,0-0.875-0.4-0.875-0.9V20.017
			c0-0.5,0.426-0.899,0.875-0.899c0.325,0,0.65,0.199,0.801,0.5l6.548,12.972V20.017c0-0.5,0.399-0.899,0.899-0.899
			s0.9,0.399,0.9,0.899v16.296c0,0.425-0.301,0.775-0.7,0.875c-0.075,0.025-0.125,0.025-0.2,0.025
			C173.686,37.213,173.359,37.037,173.21,36.713z"/>
	</g>
	<g enable-background="new    ">
		<path fill="#FFFFFF" d="M64.526,62.764c0-0.5,0.4-0.9,0.875-0.9c0.5,0,0.9,0.4,0.9,0.9c0,1.3,1.075,2.674,3.099,2.674
			c1.924,0,3.149-1.05,3.149-2.624c0-1.175-0.15-2.175-2.05-3.349c-2.274-1.325-2.799-1.625-3.324-1.975
			c-1.524-1.05-2.499-2.274-2.499-4.1c0-2.674,2.174-4.273,4.674-4.273c2.624,0,4.749,1.899,4.749,4.448c0,0.5-0.4,0.9-0.899,0.9
			c-0.5,0-0.9-0.4-0.9-0.9c0-1.324-1-2.674-2.949-2.674c-2,0-2.875,1.25-2.875,2.475c0,0.624,0,1.449,1.575,2.574
			c0.375,0.274,1.375,0.875,3.324,1.999c1.924,1.1,2.974,2.725,2.974,4.874c0,2.8-2.424,4.399-4.949,4.399
			C66.351,67.213,64.526,64.963,64.526,62.764z"/>
		<path fill="#FFFFFF" d="M77.351,62.238v-8.147c0-2.725,2.225-4.974,4.974-4.974c2.575,0,4.699,2.024,4.949,4.474
			c0.05,0.475-0.3,0.925-0.8,0.975c-0.475,0.05-0.925-0.3-0.975-0.8c-0.15-1.624-1.524-2.874-3.174-2.874
			c-1.75,0-3.199,1.449-3.199,3.199v8.147c0,1.75,1.45,3.199,3.199,3.199c1.65,0,3.024-1.249,3.174-2.874
			c0.05-0.5,0.5-0.85,0.975-0.8c0.5,0.05,0.85,0.5,0.8,0.975c-0.25,2.574-2.5,4.475-4.949,4.475
			C79.575,67.213,77.351,64.988,77.351,62.238z"/>
		<path fill="#FFFFFF" d="M97.648,66.163c0,0.499-0.4,0.899-0.9,0.899H90.5c-0.5,0-0.899-0.4-0.899-0.899c0-0.5,0.4-0.9,0.899-0.9
			h2.25V51.066H90.5c-0.5,0-0.899-0.4-0.899-0.899c0-0.5,0.4-0.9,0.899-0.9h6.249c0.5,0,0.9,0.4,0.9,0.9
			c0,0.499-0.4,0.899-0.9,0.899h-2.224v14.196h2.224C97.249,65.263,97.648,65.663,97.648,66.163z"/>
		<path fill="#FFFFFF" d="M110.173,66.163c0,0.499-0.399,0.899-0.899,0.899h-7.198c-0.475,0-0.875-0.4-0.875-0.899V50.142
			c0-0.475,0.4-0.875,0.875-0.875h7.123c0.5,0,0.899,0.4,0.899,0.875c0,0.5-0.399,0.899-0.899,0.899h-6.224v5.549h5.499
			c0.5,0,0.899,0.4,0.899,0.9c0,0.475-0.4,0.874-0.899,0.874h-5.499v6.898h6.299C109.773,65.263,110.173,65.663,110.173,66.163z"/>
		<path fill="#FFFFFF" d="M121.373,66.713l-6.549-12.972v12.571c0,0.5-0.399,0.9-0.899,0.9c-0.475,0-0.874-0.4-0.874-0.9V50.017
			c0-0.5,0.424-0.899,0.874-0.899c0.325,0,0.649,0.199,0.8,0.5l6.549,12.972V50.017c0-0.5,0.4-0.899,0.899-0.899
			c0.5,0,0.899,0.399,0.899,0.899v16.296c0,0.425-0.299,0.775-0.699,0.875c-0.075,0.025-0.125,0.025-0.2,0.025
			C121.848,67.213,121.523,67.037,121.373,66.713z"/>
		<path fill="#FFFFFF" d="M127.075,62.238v-8.147c0-2.725,2.225-4.974,4.974-4.974c2.574,0,4.699,2.024,4.949,4.474
			c0.05,0.475-0.301,0.925-0.8,0.975c-0.476,0.05-0.925-0.3-0.976-0.8c-0.149-1.624-1.523-2.874-3.174-2.874
			c-1.75,0-3.199,1.449-3.199,3.199v8.147c0,1.75,1.449,3.199,3.199,3.199c1.65,0,3.024-1.249,3.174-2.874
			c0.051-0.5,0.5-0.85,0.976-0.8c0.499,0.05,0.85,0.5,0.8,0.975c-0.25,2.574-2.5,4.475-4.949,4.475
			C129.3,67.213,127.075,64.988,127.075,62.238z"/>
		<path fill="#FFFFFF" d="M148.998,66.163c0,0.499-0.4,0.899-0.9,0.899h-7.198c-0.475,0-0.874-0.4-0.874-0.899V50.142
			c0-0.475,0.399-0.875,0.874-0.875h7.124c0.5,0,0.899,0.4,0.899,0.875c0,0.5-0.399,0.899-0.899,0.899h-6.225v5.549h5.499
			c0.5,0,0.899,0.4,0.899,0.9c0,0.475-0.399,0.874-0.899,0.874h-5.499v6.898h6.299C148.598,65.263,148.998,65.663,148.998,66.163z"
			/>
	</g>
	<g>
		<g>
			<path fill="none" stroke="#FFFFFF" stroke-width="0.5949" stroke-miterlimit="10" d="M76.113,171.947"/>
		</g>
	</g>
	<g>
		<rect x="13" y="92" fill="#FFFFFF" width="188" height="39"/>
	</g>
	<g>
		<rect x="8.576" y="97.394" fill="none" width="196" height="31.106"/>
	</g>
	<g enable-background="new    ">
		<path fill="#78C4D3" d="M92.643,123.308c0,0.761-0.608,1.368-1.368,1.368h-9.499c-0.76,0-1.368-0.607-1.368-1.368
			c0-0.722,0.608-1.329,1.368-1.329h3.571v-19.491l-2.735,3.268c-0.266,0.304-0.646,0.493-1.026,0.493
			c-1.064,0-1.786-1.329-1.064-2.241l5.129-6.117c0.266-0.304,0.646-0.494,1.026-0.494c0.722,0,1.368,0.608,1.368,1.368v23.215
			h3.229C92.035,121.979,92.643,122.586,92.643,123.308z"/>
		<path fill="#78C4D3" d="M107.349,100.359h-7.295v1.899c0,0.76-0.608,1.368-1.368,1.368c-0.76,0-1.368-0.608-1.368-1.368v-3.268
			c0-0.722,0.608-1.329,1.368-1.329h10.525c0.949,0,1.52,0.949,1.291,1.747l-7.94,24.545c-0.228,0.607-0.76,0.949-1.292,0.949
			c-0.95,0-1.558-0.987-1.292-1.785L107.349,100.359z"/>
	</g>
	<g enable-background="new    ">
		<path fill="#78C4D3" d="M126.879,115.574c-1.44,0-2.621-1.181-2.621-2.641c0-1.44,1.181-2.621,2.621-2.621
			s2.621,1.181,2.621,2.621C129.5,114.394,128.319,115.574,126.879,115.574z M126.879,114.134c0.66,0,1.2-0.54,1.2-1.2
			s-0.54-1.2-1.2-1.2s-1.2,0.54-1.2,1.2S126.219,114.134,126.879,114.134z M133.66,111.353l-6.602,13.043
			c-0.119,0.261-0.38,0.4-0.64,0.4c-0.479,0-0.9-0.521-0.64-1.04l6.602-13.043c0.119-0.26,0.379-0.4,0.64-0.4
			C133.5,110.312,133.92,110.833,133.66,111.353z M135.181,122.175c0,1.44-1.181,2.621-2.62,2.621c-1.44,0-2.621-1.181-2.621-2.621
			c0-1.46,1.181-2.62,2.621-2.62C134,119.555,135.181,120.715,135.181,122.175z M133.76,122.175c0-0.66-0.539-1.2-1.199-1.2
			s-1.201,0.54-1.201,1.2s0.541,1.201,1.201,1.201S133.76,122.835,133.76,122.175z"/>
	</g>
	<g>
		<g>
			<path fill="none" stroke="#FFFFFF" stroke-width="0.5949" stroke-miterlimit="10" d="M76.296,171.947"/>
		</g>
	</g>
	<g>
		<g>
			<path fill="none" stroke="#FFFFFF" stroke-width="0.5949" stroke-miterlimit="10" d="M76.296,171.947"/>
		</g>
	</g>
	<g>
		<rect x="13" y="174" fill="#FFFFFF" width="70" height="28"/>
	</g>
	<g>
		<g>
			<path fill="none" stroke="#FFFFFF" stroke-width="0.5949" stroke-miterlimit="10" d="M76.113,171.947"/>
		</g>
	</g>
	<g>
		<g>
			<path fill="none" stroke="#FFFFFF" stroke-width="0.5949" stroke-miterlimit="10" d="M76.296,171.947"/>
		</g>
	</g>
	<g>
		<g>
			<path fill="none" stroke="#FFFFFF" stroke-width="0.5949" stroke-miterlimit="10" d="M76.296,171.947"/>
		</g>
	</g>
	<g>
		<rect x="19.412" y="184.127" fill="none" width="46.944" height="38.746"/>
	</g>
	<g enable-background="new    ">
		<path fill="#78C4D3" d="M22.603,189.311l-2.699-5.085h1.164l2.062,4.03l2.063-4.03h1.164l-2.699,5.085v3.311h-1.055V189.311z"/>
		<path fill="#78C4D3" d="M27.943,184.226h5.325v1.008h-4.27v2.41h3.67v1.008h-3.67v2.962h4.39v1.008h-5.445V184.226z"/>
		<path fill="#78C4D3" d="M39.797,186.396c-0.372-0.84-0.936-1.26-1.703-1.26c-0.923,0-1.511,0.48-1.511,1.296
			c0,0.407,0.156,0.707,0.456,0.888c0.312,0.18,0.803,0.359,1.487,0.539c0.611,0.156,0.935,0.252,1.379,0.492
			c0.66,0.336,0.972,0.815,1.007,1.691c0,1.774-1.091,2.674-2.782,2.674c-1.619,0-2.807-0.875-3.13-2.494l0.983-0.384
			c0.324,1.247,1.043,1.871,2.147,1.871c1.056,0,1.727-0.528,1.727-1.523c0-0.348-0.144-0.611-0.3-0.768
			c-0.084-0.084-0.216-0.156-0.408-0.228c-0.372-0.156-0.588-0.229-1.199-0.372c-0.588-0.145-0.876-0.228-1.355-0.468
			c-0.672-0.348-1.02-0.876-1.067-1.883c0-0.684,0.228-1.248,0.684-1.68c0.456-0.443,1.08-0.659,1.883-0.659
			c1.355,0,2.243,0.779,2.627,1.799L39.797,186.396z"/>
	</g>
	<g>
		<rect x="144.746" y="184.127" fill="none" width="46.943" height="38.746"/>
	</g>
	<g enable-background="new    ">
		<path fill="#FFFFFF" d="M182.328,184.226h1.055v8.396h-1.151l-3.515-6.477v6.477h-1.055v-8.396h1.151l3.515,6.477V184.226z"/>
		<path fill="#FFFFFF" d="M187.969,184.13c0.959,0,1.738,0.372,2.351,1.115c0.611,0.731,0.911,1.799,0.911,3.179
			c0,1.379-0.3,2.446-0.911,3.189c-0.612,0.732-1.392,1.104-2.351,1.104c-0.96,0-1.739-0.371-2.352-1.104
			c-0.611-0.743-0.911-1.811-0.911-3.189c0-1.38,0.3-2.447,0.911-3.179C186.229,184.502,187.009,184.13,187.969,184.13z
			 M187.969,185.137c-0.66,0-1.188,0.265-1.584,0.804c-0.395,0.528-0.587,1.355-0.587,2.483c0,1.127,0.192,1.954,0.587,2.494
			c0.396,0.527,0.924,0.792,1.584,0.792c0.659,0,1.188-0.265,1.583-0.792c0.396-0.54,0.587-1.367,0.587-2.494
			c0-1.128-0.191-1.955-0.587-2.483C189.156,185.401,188.628,185.137,187.969,185.137z"/>
	</g>
	<g>
		<rect x="12.5" y="154.572" fill="none" width="188.516" height="11.646"/>
	</g>
	<g enable-background="new    ">
		<path fill="#FFFFFF" d="M47.546,156.816h0.946l-1.21,5.545h-0.836l-1.067-3.895l-1.067,3.895h-0.836l-1.21-5.545h0.946
			l0.759,4.104l0.946-3.554h0.924l0.946,3.554L47.546,156.816z"/>
		<path fill="#FFFFFF" d="M54.608,162.361h-0.924v-3.631c0-0.781-0.341-1.166-1.023-1.166c-0.473,0-0.88,0.221-1.232,0.671
			c-0.352,0.451-0.528,1.046-0.528,1.805v2.321h-0.924v-7.789H50.9v3.268c0.44-0.649,1.188-1.111,2.013-1.111
			c1.133,0,1.694,0.605,1.694,1.805V162.361z"/>
		<path fill="#FFFFFF" d="M56.29,159.589c0-0.792,0.253-1.463,0.748-2.024c0.495-0.561,1.155-0.836,1.98-0.836
			s1.485,0.275,1.98,0.836c0.495,0.562,0.748,1.232,0.748,2.024s-0.253,1.463-0.748,2.024c-0.495,0.561-1.155,0.836-1.98,0.836
			s-1.485-0.275-1.98-0.836C56.543,161.052,56.29,160.381,56.29,159.589z M57.236,159.589c0,0.562,0.165,1.034,0.484,1.431
			c0.319,0.396,0.759,0.594,1.298,0.594s0.979-0.198,1.298-0.594c0.319-0.396,0.484-0.869,0.484-1.431
			c0-0.561-0.165-1.034-0.484-1.43c-0.319-0.396-0.759-0.595-1.298-0.595s-0.979,0.198-1.298,0.595
			C57.401,158.555,57.236,159.028,57.236,159.589z"/>
		<path fill="#FFFFFF" d="M75.717,162.361h-0.924v-3.938c0-0.605-0.176-0.848-0.605-0.848c-0.572,0-0.979,0.716-0.979,2.179v2.607
			h-0.924v-3.938c0-0.605-0.176-0.848-0.605-0.848c-0.572,0-0.979,0.716-0.979,2.179v2.607h-0.924v-5.545H70.7v0.704
			c0.33-0.528,0.759-0.792,1.298-0.792c0.594,0,0.979,0.297,1.144,0.902c0.297-0.539,0.792-0.902,1.364-0.902
			c0.737,0,1.21,0.484,1.21,1.496V162.361z"/>
		<path fill="#FFFFFF" d="M81.844,162.361h-0.748l-0.132-0.781c-0.352,0.518-1.133,0.869-1.958,0.869
			c-0.979,0-1.716-0.594-1.716-1.684c0-1.198,0.935-1.814,2.508-1.814h1.122v-0.242c0-0.804-0.528-1.145-1.276-1.145
			c-0.627,0-1.133,0.385-1.31,0.946l-0.814-0.22c0.253-0.957,1.1-1.562,2.124-1.562c1.364,0,2.2,0.671,2.2,2.135V162.361z
			 M79.148,161.613c0.44,0,0.847-0.144,1.21-0.418c0.374-0.286,0.561-0.715,0.561-1.276v-0.176h-1.21
			c-0.935,0-1.474,0.396-1.474,1.022C78.235,161.294,78.587,161.613,79.148,161.613z"/>
		<path fill="#FFFFFF" d="M84.109,154.572h0.924v4.565l2.365-2.321h1.21l-2.585,2.541l2.838,3.004h-1.21l-2.618-2.783v2.783h-0.924
			V154.572z"/>
		<path fill="#FFFFFF" d="M95.825,159.787H91.49c0.055,1.1,0.726,1.826,1.705,1.826c0.792,0,1.386-0.363,1.782-1.101l0.737,0.386
			c-0.539,1.034-1.375,1.551-2.52,1.551c-0.792,0-1.43-0.275-1.925-0.814c-0.484-0.539-0.726-1.221-0.726-2.046
			c0-0.803,0.242-1.485,0.715-2.035c0.484-0.55,1.133-0.825,1.936-0.825c0.825,0,1.475,0.253,1.937,0.771
			c0.462,0.506,0.693,1.144,0.693,1.903V159.787z M91.556,158.951h3.29c-0.165-0.881-0.759-1.387-1.65-1.387
			C92.326,157.564,91.743,158.082,91.556,158.951z"/>
		<path fill="#FFFFFF" d="M105.416,161.657v2.948h-0.924v-7.789h0.924v0.737c0.341-0.474,0.979-0.825,1.694-0.825
			c1.595,0,2.541,1.133,2.541,2.86s-0.946,2.86-2.541,2.86C106.373,162.449,105.757,162.108,105.416,161.657z M108.706,159.589
			c0-0.605-0.154-1.089-0.451-1.463s-0.715-0.562-1.232-0.562s-0.935,0.188-1.232,0.562s-0.451,0.857-0.451,1.463
			s0.154,1.089,0.451,1.463s0.715,0.562,1.232,0.562s0.936-0.188,1.232-0.562S108.706,160.194,108.706,159.589z"/>
		<path fill="#FFFFFF" d="M115.393,158.577c-0.076-0.672-0.439-1.013-1.066-1.013c-0.518,0-0.969,0.242-1.331,0.737
			c-0.363,0.484-0.55,1.166-0.55,2.058v2.002h-0.925v-5.545h0.925v1.023c0.473-0.737,1.154-1.111,2.046-1.111
			c1.101,0,1.771,0.66,1.826,1.849H115.393z"/>
		<path fill="#FFFFFF" d="M117.67,159.589c0-0.792,0.253-1.463,0.748-2.024c0.495-0.561,1.155-0.836,1.98-0.836
			s1.484,0.275,1.98,0.836c0.494,0.562,0.748,1.232,0.748,2.024s-0.254,1.463-0.748,2.024c-0.496,0.561-1.155,0.836-1.98,0.836
			s-1.485-0.275-1.98-0.836C117.923,161.052,117.67,160.381,117.67,159.589z M118.616,159.589c0,0.562,0.165,1.034,0.483,1.431
			c0.319,0.396,0.76,0.594,1.299,0.594s0.979-0.198,1.298-0.594c0.319-0.396,0.484-0.869,0.484-1.431
			c0-0.561-0.165-1.034-0.484-1.43c-0.319-0.396-0.759-0.595-1.298-0.595s-0.979,0.198-1.299,0.595
			C118.781,158.555,118.616,159.028,118.616,159.589z"/>
		<path fill="#FFFFFF" d="M125.876,161.657v2.948h-0.925v-7.789h0.925v0.737c0.341-0.474,0.979-0.825,1.694-0.825
			c1.596,0,2.541,1.133,2.541,2.86s-0.945,2.86-2.541,2.86C126.833,162.449,126.217,162.108,125.876,161.657z M129.166,159.589
			c0-0.605-0.154-1.089-0.451-1.463s-0.716-0.562-1.232-0.562c-0.518,0-0.936,0.188-1.232,0.562s-0.451,0.857-0.451,1.463
			s0.154,1.089,0.451,1.463s0.715,0.562,1.232,0.562c0.517,0,0.936-0.188,1.232-0.562S129.166,160.194,129.166,159.589z"/>
		<path fill="#FFFFFF" d="M131.31,159.589c0-0.792,0.253-1.463,0.748-2.024c0.495-0.561,1.155-0.836,1.98-0.836
			s1.485,0.275,1.979,0.836c0.496,0.562,0.748,1.232,0.748,2.024s-0.252,1.463-0.748,2.024c-0.494,0.561-1.154,0.836-1.979,0.836
			s-1.485-0.275-1.98-0.836C131.562,161.052,131.31,160.381,131.31,159.589z M132.256,159.589c0,0.562,0.165,1.034,0.484,1.431
			c0.318,0.396,0.759,0.594,1.298,0.594s0.979-0.198,1.298-0.594c0.319-0.396,0.484-0.869,0.484-1.431
			c0-0.561-0.165-1.034-0.484-1.43c-0.318-0.396-0.759-0.595-1.298-0.595s-0.979,0.198-1.298,0.595
			C132.421,158.555,132.256,159.028,132.256,159.589z"/>
		<path fill="#FFFFFF" d="M142.86,157.928l-0.726,0.517c-0.319-0.583-0.771-0.88-1.332-0.88c-0.527,0-0.957,0.242-0.957,0.737
			c0,0.451,0.407,0.682,1.287,0.858c0.474,0.099,0.771,0.165,1.134,0.33c0.517,0.22,0.858,0.594,0.858,1.177
			c0,0.55-0.209,0.99-0.617,1.31c-0.406,0.318-0.912,0.473-1.518,0.473c-1.145,0-2.068-0.583-2.409-1.606l0.88-0.33
			c0.253,0.693,0.781,1.101,1.529,1.101c0.671,0,1.178-0.297,1.178-0.858c0-0.439-0.418-0.594-1.431-0.813
			c-1.134-0.231-1.794-0.628-1.794-1.606c0-0.484,0.188-0.869,0.551-1.166c0.363-0.298,0.814-0.44,1.342-0.44
			C141.75,156.729,142.42,157.125,142.86,157.928z"/>
		<path fill="#FFFFFF" d="M150.043,162.361h-0.748l-0.132-0.781c-0.353,0.518-1.133,0.869-1.958,0.869
			c-0.979,0-1.717-0.594-1.717-1.684c0-1.198,0.936-1.814,2.509-1.814h1.122v-0.242c0-0.804-0.527-1.145-1.275-1.145
			c-0.628,0-1.134,0.385-1.311,0.946l-0.813-0.22c0.253-0.957,1.101-1.562,2.124-1.562c1.363,0,2.199,0.671,2.199,2.135V162.361z
			 M147.348,161.613c0.44,0,0.848-0.144,1.211-0.418c0.373-0.286,0.561-0.715,0.561-1.276v-0.176h-1.21
			c-0.935,0-1.474,0.396-1.474,1.022C146.436,161.294,146.787,161.613,147.348,161.613z"/>
		<path fill="#FFFFFF" d="M153.299,155.496h-1.529v-0.836h2.453v5.611c0,0.891,0.385,1.342,1.166,1.342
			c0.715,0,1.145-0.451,1.287-1.342l0.836,0.165c-0.187,1.319-0.967,2.013-2.123,2.013c-1.287,0-2.09-0.803-2.09-2.178V155.496z"/>
		<path fill="#FFFFFF" d="M163.32,157.928l-0.727,0.517c-0.318-0.583-0.77-0.88-1.331-0.88c-0.528,0-0.957,0.242-0.957,0.737
			c0,0.451,0.407,0.682,1.287,0.858c0.474,0.099,0.771,0.165,1.134,0.33c0.517,0.22,0.857,0.594,0.857,1.177
			c0,0.55-0.209,0.99-0.616,1.31c-0.407,0.318-0.913,0.473-1.519,0.473c-1.144,0-2.068-0.583-2.408-1.606l0.879-0.33
			c0.254,0.693,0.781,1.101,1.529,1.101c0.672,0,1.178-0.297,1.178-0.858c0-0.439-0.418-0.594-1.43-0.813
			c-1.134-0.231-1.794-0.628-1.794-1.606c0-0.484,0.187-0.869,0.55-1.166c0.363-0.298,0.814-0.44,1.343-0.44
			C162.209,156.729,162.88,157.125,163.32,157.928z"/>
		<path fill="#FFFFFF" d="M167.51,157.136c0.342-0.341,0.914-0.341,1.255,0s0.341,0.913,0,1.254s-0.913,0.341-1.255,0
			C167.17,158.049,167.17,157.477,167.51,157.136z M167.51,160.898c0.342-0.342,0.914-0.342,1.255,0
			c0.341,0.341,0.341,0.913,0,1.254s-0.913,0.341-1.255,0C167.17,161.812,167.17,161.239,167.51,160.898z"/>
	</g>
	<g>
		<path fill="#FFFFFF" d="M201,203H12v-29h189V203z M13,202h187v-27H13V202z"/>
	</g>
	<g>
		<g>
			<path fill="#FFFFFF" d="M208.426,220.595h-200c-4.246,0-7.7-3.454-7.7-7.7v-205c0-4.246,3.455-7.7,7.7-7.7h200
				c4.246,0,7.7,3.455,7.7,7.7v205C216.126,217.141,212.672,220.595,208.426,220.595z M8.426,1.594c-3.474,0-6.3,2.826-6.3,6.3v205
				c0,3.474,2.826,6.3,6.3,6.3h200c3.474,0,6.3-2.826,6.3-6.3v-205c0-3.474-2.826-6.3-6.3-6.3H8.426z"/>
		</g>
	</g>
	<g>
		<path fill="#FFFFFF" d="M203,82.7H15c-0.387,0-0.7-0.313-0.7-0.7s0.313-0.7,0.7-0.7h188c0.387,0,0.7,0.313,0.7,0.7
			S203.387,82.7,203,82.7z"/>
	</g>
	<g>
		<path fill="#FFFFFF" d="M203,143.7H15c-0.387,0-0.7-0.313-0.7-0.7s0.313-0.7,0.7-0.7h188c0.387,0,0.7,0.313,0.7,0.7
			S203.387,143.7,203,143.7z"/>
	</g>
</g>
</svg>
