<?xml version="1.0" encoding="utf-8"?>
<!-- Generator: Adobe Illustrator 16.0.0, SVG Export Plug-In . SVG Version: 6.00 Build 0)  -->
<!DOCTYPE svg PUBLIC "-//W3C//DTD SVG 1.1//EN" "http://www.w3.org/Graphics/SVG/1.1/DTD/svg11.dtd">
<svg version="1.1" id="Layer_1" xmlns="http://www.w3.org/2000/svg" xmlns:xlink="http://www.w3.org/1999/xlink" x="0px" y="0px"
	 width="242px" height="90px" viewBox="0 0 242 90" enable-background="new 0 0 242 90" xml:space="preserve">
<g id="Layer_1_1_">
</g>
<g id="Layer_3">
	<g>
		<g>
			<path fill="#FFFFFF" d="M233.572,87.593H8.182c-4.416,0-8.009-3.593-8.009-8.009V9.309c0-4.416,3.593-8.009,8.009-8.009h225.39
				c4.416,0,8.01,3.593,8.01,8.009v70.275C241.581,84,237.987,87.593,233.572,87.593z M8.182,2.7c-3.644,0-6.609,2.965-6.609,6.609
				v70.275c0,3.644,2.965,6.608,6.609,6.608h225.39c3.644,0,6.608-2.965,6.608-6.608l0.001-70.275c0-3.644-2.965-6.609-6.609-6.609
				H8.182z"/>
		</g>
	</g>
	<g>
		<rect x="22.878" y="16.807" fill="none" width="196" height="22.666"/>
	</g>
	<g enable-background="new    ">
		<path fill="#FFFFFF" d="M49.214,33.856c0,0.499-0.4,0.899-0.9,0.899h-7.198c-0.475,0-0.875-0.4-0.875-0.899V17.835
			c0-0.475,0.4-0.875,0.875-0.875h7.124c0.5,0,0.9,0.4,0.9,0.875c0,0.5-0.4,0.899-0.9,0.899h-6.224v5.549h5.499
			c0.5,0,0.9,0.4,0.9,0.9c0,0.475-0.4,0.874-0.9,0.874h-5.499v6.898h6.298C48.814,32.956,49.214,33.356,49.214,33.856z"/>
		<path fill="#FFFFFF" d="M59.814,16.96c0.5,0,0.9,0.4,0.9,0.875c0,0.5-0.4,0.899-0.9,0.899h-3.399v15.271c0,0.5-0.4,0.9-0.899,0.9
			c-0.475,0-0.875-0.4-0.875-0.9V18.734h-3.399c-0.5,0-0.9-0.399-0.9-0.899c0-0.475,0.4-0.875,0.9-0.875H59.814z"/>
		<path fill="#FFFFFF" d="M73.113,17.71v16.296c0,0.5-0.4,0.9-0.9,0.9c-0.475,0-0.875-0.4-0.875-0.9v-7.948H64.99v7.948
			c0,0.5-0.4,0.9-0.875,0.9c-0.5,0-0.9-0.4-0.9-0.9V17.71c0-0.5,0.4-0.899,0.9-0.899c0.475,0,0.875,0.399,0.875,0.899v6.573h6.349
			V17.71c0-0.5,0.4-0.899,0.875-0.899C72.713,16.811,73.113,17.21,73.113,17.71z"/>
		<path fill="#FFFFFF" d="M84.714,33.856c0,0.499-0.4,0.899-0.9,0.899h-6.249c-0.5,0-0.899-0.4-0.899-0.899c0-0.5,0.4-0.9,0.899-0.9
			h2.25V18.76h-2.25c-0.5,0-0.899-0.4-0.899-0.899c0-0.5,0.4-0.9,0.899-0.9h6.249c0.5,0,0.9,0.4,0.9,0.9
			c0,0.499-0.4,0.899-0.9,0.899H81.59v14.196h2.224C84.314,32.956,84.714,33.356,84.714,33.856z"/>
		<path fill="#FFFFFF" d="M88.016,29.932v-8.147c0-2.725,2.225-4.974,4.974-4.974c2.575,0,4.699,2.024,4.949,4.474
			c0.05,0.475-0.3,0.925-0.8,0.975c-0.475,0.05-0.924-0.3-0.975-0.8c-0.15-1.624-1.524-2.874-3.174-2.874
			c-1.75,0-3.199,1.449-3.199,3.199v8.147c0,1.75,1.45,3.199,3.199,3.199c1.65,0,3.024-1.249,3.174-2.874
			c0.05-0.5,0.5-0.85,0.975-0.8c0.5,0.05,0.85,0.5,0.8,0.975c-0.25,2.574-2.499,4.475-4.949,4.475
			C90.24,34.906,88.016,32.682,88.016,29.932z"/>
		<path fill="#FFFFFF" d="M110.263,34.906c-0.375,0-0.7-0.25-0.825-0.65l-1.125-3.649h-5.949l-1.125,3.649
			c-0.125,0.375-0.475,0.65-0.85,0.65c-0.525,0-1.05-0.551-0.85-1.15l4.924-16.32c0.125-0.375,0.475-0.625,0.875-0.625
			c0.375,0,0.725,0.25,0.85,0.625l4.949,16.32C111.263,34.281,110.888,34.906,110.263,34.906z M107.764,28.832l-2.424-8.072
			l-2.45,8.072H107.764z"/>
		<path fill="#FFFFFF" d="M123.014,33.706c0,0.5-0.4,0.899-0.9,0.899h-7.273c-0.5,0-0.9-0.399-0.9-0.899V17.71
			c0-0.5,0.4-0.899,0.9-0.899c0.5,0,0.875,0.399,0.875,0.899v15.097h6.398C122.613,32.807,123.014,33.206,123.014,33.706z"/>
		<path fill="#FFFFFF" d="M139.938,33.856c0,0.499-0.399,0.899-0.899,0.899h-6.249c-0.499,0-0.898-0.4-0.898-0.899
			c0-0.5,0.399-0.9,0.898-0.9h2.25V18.76h-2.25c-0.499,0-0.898-0.4-0.898-0.899c0-0.5,0.399-0.9,0.898-0.9h6.249
			c0.5,0,0.899,0.4,0.899,0.9c0,0.499-0.399,0.899-0.899,0.899h-2.224v14.196h2.224C139.538,32.956,139.938,33.356,139.938,33.856z"
			/>
		<path fill="#FFFFFF" d="M142.49,30.457c0-0.5,0.399-0.9,0.875-0.9c0.5,0,0.899,0.4,0.899,0.9c0,1.3,1.075,2.674,3.099,2.674
			c1.925,0,3.15-1.05,3.15-2.624c0-1.175-0.15-2.175-2.051-3.349c-2.273-1.325-2.799-1.625-3.324-1.975
			c-1.523-1.05-2.498-2.274-2.498-4.1c0-2.674,2.174-4.273,4.674-4.273c2.623,0,4.748,1.899,4.748,4.448c0,0.5-0.4,0.9-0.9,0.9
			c-0.499,0-0.898-0.4-0.898-0.9c0-1.324-1-2.674-2.949-2.674c-2,0-2.875,1.25-2.875,2.475c0,0.624,0,1.449,1.574,2.574
			c0.375,0.274,1.375,0.875,3.324,1.999c1.925,1.1,2.975,2.725,2.975,4.874c0,2.8-2.424,4.399-4.949,4.399
			C144.314,34.906,142.49,32.656,142.49,30.457z"/>
		<path fill="#FFFFFF" d="M154.564,30.457c0-0.5,0.4-0.9,0.875-0.9c0.5,0,0.9,0.4,0.9,0.9c0,1.3,1.074,2.674,3.099,2.674
			c1.925,0,3.149-1.05,3.149-2.624c0-1.175-0.15-2.175-2.05-3.349c-2.274-1.325-2.8-1.625-3.324-1.975
			c-1.524-1.05-2.499-2.274-2.499-4.1c0-2.674,2.174-4.273,4.674-4.273c2.624,0,4.748,1.899,4.748,4.448c0,0.5-0.399,0.9-0.898,0.9
			c-0.5,0-0.9-0.4-0.9-0.9c0-1.324-1-2.674-2.949-2.674c-2,0-2.875,1.25-2.875,2.475c0,0.624,0,1.449,1.575,2.574
			c0.375,0.274,1.374,0.875,3.324,1.999c1.925,1.1,2.974,2.725,2.974,4.874c0,2.8-2.424,4.399-4.948,4.399
			C156.389,34.906,154.564,32.656,154.564,30.457z"/>
		<path fill="#FFFFFF" d="M167.639,29.932V17.71c0-0.5,0.4-0.899,0.9-0.899c0.475,0,0.875,0.399,0.875,0.899v12.222
			c0,1.75,1.449,3.175,3.199,3.175c1.774,0,3.199-1.425,3.199-3.175V17.71c0-0.5,0.399-0.899,0.899-0.899
			c0.476,0,0.875,0.399,0.875,0.899v12.222c0,2.725-2.225,4.975-4.974,4.975C169.863,34.906,167.639,32.656,167.639,29.932z"/>
		<path fill="#FFFFFF" d="M190.812,33.856c0,0.499-0.399,0.899-0.899,0.899h-7.199c-0.475,0-0.874-0.4-0.874-0.899V17.835
			c0-0.475,0.399-0.875,0.874-0.875h7.124c0.5,0,0.899,0.4,0.899,0.875c0,0.5-0.399,0.899-0.899,0.899h-6.224v5.549h5.498
			c0.5,0,0.9,0.4,0.9,0.9c0,0.475-0.4,0.874-0.9,0.874h-5.498v6.898h6.299C190.412,32.956,190.812,33.356,190.812,33.856z"/>
		<path fill="#FFFFFF" d="M192.689,30.457c0-0.5,0.399-0.9,0.875-0.9c0.5,0,0.899,0.4,0.899,0.9c0,1.3,1.075,2.674,3.099,2.674
			c1.925,0,3.15-1.05,3.15-2.624c0-1.175-0.15-2.175-2.051-3.349c-2.273-1.325-2.799-1.625-3.324-1.975
			c-1.523-1.05-2.498-2.274-2.498-4.1c0-2.674,2.174-4.273,4.674-4.273c2.623,0,4.748,1.899,4.748,4.448c0,0.5-0.4,0.9-0.9,0.9
			c-0.499,0-0.898-0.4-0.898-0.9c0-1.324-1-2.674-2.949-2.674c-2,0-2.875,1.25-2.875,2.475c0,0.624,0,1.449,1.574,2.574
			c0.375,0.274,1.375,0.875,3.324,1.999c1.925,1.1,2.975,2.725,2.975,4.874c0,2.8-2.424,4.399-4.949,4.399
			C194.514,34.906,192.689,32.656,192.689,30.457z"/>
	</g>
	<g>
		<rect x="27" y="46.3" fill="#FFFFFF" width="188" height="1.4"/>
	</g>
	<g>
		<g>
			<rect x="22.877" y="61.004" fill="none" width="196" height="18.111"/>
		</g>
		<g enable-background="new    ">
			<path fill="#FFFFFF" d="M71.208,62.016h-1.667v-0.911h2.674v6.117c0,0.971,0.42,1.463,1.271,1.463
				c0.779,0,1.247-0.492,1.403-1.463l0.911,0.18c-0.204,1.439-1.055,2.194-2.314,2.194c-1.403,0-2.279-0.875-2.279-2.374V62.016z"/>
			<path fill="#FFFFFF" d="M82.534,69.5h-0.815l-0.144-0.852c-0.384,0.563-1.235,0.947-2.135,0.947
				c-1.067,0-1.871-0.647-1.871-1.835c0-1.307,1.02-1.979,2.735-1.979h1.223v-0.264c0-0.876-0.576-1.248-1.391-1.248
				c-0.684,0-1.235,0.42-1.427,1.032l-0.888-0.24c0.276-1.044,1.2-1.703,2.315-1.703c1.487,0,2.398,0.731,2.398,2.327V69.5z
				 M79.595,68.685c0.48,0,0.924-0.156,1.319-0.456c0.408-0.312,0.612-0.779,0.612-1.391v-0.192h-1.319
				c-1.02,0-1.607,0.432-1.607,1.115C78.6,68.337,78.984,68.685,79.595,68.685z"/>
			<path fill="#FFFFFF" d="M89.374,65.374c-0.084-0.731-0.479-1.104-1.163-1.104c-0.564,0-1.056,0.265-1.451,0.804
				c-0.396,0.528-0.6,1.271-0.6,2.243V69.5h-1.007v-6.045h1.007v1.115c0.516-0.803,1.26-1.211,2.231-1.211
				c1.199,0,1.931,0.72,1.991,2.015H89.374z"/>
			<path fill="#FFFFFF" d="M93.42,63.911c0.408-0.372,0.923-0.552,1.535-0.552c0.432,0,0.828,0.108,1.188,0.312l1.259-0.647
				l0.456,0.828l-1.02,0.527c0.168,0.288,0.252,0.624,0.252,1.008c0,0.611-0.204,1.103-0.6,1.475s-0.912,0.552-1.535,0.552
				c-0.42,0-0.792-0.084-1.115-0.252c-0.372,0.145-0.552,0.348-0.552,0.624c0,0.336,0.288,0.504,0.852,0.504h1.571
				c1.295,0,2.027,0.575,2.027,1.667c0,0.707-0.276,1.223-0.828,1.571c-0.552,0.348-1.224,0.516-2.003,0.516
				c-1.763,0-2.794-0.696-2.794-1.991c0-0.54,0.204-0.972,0.624-1.295c-0.288-0.229-0.432-0.528-0.432-0.924
				c0-0.54,0.324-1.008,0.887-1.212c-0.252-0.335-0.372-0.743-0.372-1.234C92.82,64.774,93.024,64.283,93.42,63.911z M94.259,69.152
				c-0.251,0-0.456-0.012-0.624-0.048c-0.348,0.18-0.516,0.479-0.516,0.911c0,0.708,0.696,1.14,1.787,1.14
				c1.139,0,1.799-0.42,1.799-1.104c0-0.6-0.336-0.899-1.02-0.899H94.259z M93.804,65.387c0,0.359,0.108,0.647,0.324,0.852
				c0.228,0.203,0.504,0.312,0.828,0.312s0.6-0.096,0.815-0.3c0.228-0.204,0.336-0.492,0.336-0.863c0-0.372-0.108-0.648-0.336-0.852
				c-0.216-0.204-0.492-0.312-0.815-0.312s-0.6,0.108-0.828,0.312C93.912,64.738,93.804,65.026,93.804,65.387z"/>
			<path fill="#FFFFFF" d="M105.226,66.693H100.5c0.06,1.199,0.792,1.991,1.859,1.991c0.864,0,1.511-0.396,1.943-1.199l0.804,0.42
				c-0.587,1.127-1.499,1.69-2.747,1.69c-0.863,0-1.559-0.3-2.099-0.888c-0.528-0.587-0.792-1.331-0.792-2.23
				c0-0.875,0.264-1.619,0.779-2.219c0.528-0.6,1.235-0.899,2.111-0.899c0.899,0,1.607,0.275,2.111,0.84
				c0.504,0.552,0.756,1.247,0.756,2.074V66.693z M100.572,65.782h3.586c-0.18-0.96-0.828-1.512-1.799-1.512
				C101.412,64.271,100.776,64.835,100.572,65.782z"/>
			<path fill="#FFFFFF" d="M118.894,64.223v-3.214h1.007V69.5h-1.007v-0.804c-0.372,0.516-1.067,0.899-1.847,0.899
				c-1.739,0-2.771-1.235-2.771-3.118s1.032-3.118,2.771-3.118C117.851,63.359,118.522,63.731,118.894,64.223z M115.308,66.478
				c0,0.66,0.168,1.188,0.492,1.596c0.324,0.407,0.779,0.611,1.343,0.611c0.563,0,1.02-0.204,1.343-0.611
				c0.324-0.408,0.492-0.936,0.492-1.596c0-0.659-0.168-1.188-0.492-1.595c-0.324-0.408-0.78-0.612-1.343-0.612
				c-0.564,0-1.02,0.204-1.343,0.612C115.476,65.29,115.308,65.818,115.308,66.478z"/>
			<path fill="#FFFFFF" d="M122.424,64.343v-0.888h2.854v5.157h2.231V69.5h-5.326v-0.888h2.088v-4.27H122.424z M124.703,61.009
				c0.467,0,0.827,0.372,0.827,0.84s-0.36,0.815-0.827,0.815c-0.469,0-0.828-0.372-0.828-0.815
				C123.875,61.381,124.234,61.009,124.703,61.009z"/>
			<path fill="#FFFFFF" d="M134.218,64.667l-0.792,0.563c-0.348-0.636-0.84-0.96-1.451-0.96c-0.575,0-1.043,0.265-1.043,0.804
				c0,0.492,0.443,0.744,1.402,0.936c0.517,0.108,0.84,0.18,1.236,0.36c0.563,0.239,0.936,0.647,0.936,1.283
				c0,0.6-0.229,1.079-0.672,1.427s-0.996,0.516-1.655,0.516c-1.247,0-2.255-0.636-2.626-1.751l0.959-0.359
				c0.275,0.755,0.852,1.199,1.667,1.199c0.731,0,1.283-0.324,1.283-0.936c0-0.479-0.456-0.647-1.56-0.888
				c-1.234-0.252-1.955-0.684-1.955-1.751c0-0.527,0.205-0.947,0.601-1.271c0.396-0.323,0.888-0.479,1.463-0.479
				C133.006,63.359,133.738,63.791,134.218,64.667z"/>
			<path fill="#FFFFFF" d="M136.549,64.367v-0.912h1.607v-1.811l1.007-0.636v2.446h2.95v0.912h-2.95v3.094
				c0,0.815,0.348,1.224,1.044,1.224c0.539,0,1.031-0.24,1.486-0.72l0.372,0.852c-0.516,0.516-1.14,0.779-1.858,0.779
				c-1.332,0-2.051-0.707-2.051-2.099v-3.13H136.549z"/>
			<path fill="#FFFFFF" d="M149.493,69.5h-0.815l-0.145-0.852c-0.383,0.563-1.234,0.947-2.135,0.947
				c-1.066,0-1.871-0.647-1.871-1.835c0-1.307,1.02-1.979,2.735-1.979h1.224v-0.264c0-0.876-0.576-1.248-1.392-1.248
				c-0.684,0-1.235,0.42-1.427,1.032l-0.889-0.24c0.276-1.044,1.199-1.703,2.315-1.703c1.487,0,2.398,0.731,2.398,2.327V69.5z
				 M146.555,68.685c0.48,0,0.924-0.156,1.319-0.456c0.407-0.312,0.612-0.779,0.612-1.391v-0.192h-1.32
				c-1.02,0-1.606,0.432-1.606,1.115C145.56,68.337,145.943,68.685,146.555,68.685z"/>
			<path fill="#FFFFFF" d="M156.897,69.5h-1.008v-3.994c0-0.827-0.372-1.235-1.115-1.235c-0.491,0-0.911,0.252-1.259,0.768
				c-0.348,0.504-0.516,1.176-0.516,2.027V69.5h-1.008v-6.045H153v1.115c0.443-0.719,1.223-1.211,2.051-1.211
				c1.234,0,1.847,0.731,1.847,1.931V69.5z"/>
			<path fill="#FFFFFF" d="M164.589,67.929c-0.491,1.115-1.343,1.667-2.554,1.667c-0.889,0-1.596-0.3-2.111-0.911
				s-0.779-1.344-0.779-2.207s0.264-1.595,0.779-2.207c0.516-0.611,1.223-0.911,2.111-0.911c1.211,0,2.062,0.552,2.554,1.667
				l-0.876,0.36c-0.323-0.744-0.875-1.116-1.678-1.116c-1.164,0-1.859,0.912-1.859,2.207c0,1.296,0.695,2.207,1.859,2.207
				c0.803,0,1.354-0.372,1.678-1.115L164.589,67.929z"/>
			<path fill="#FFFFFF" d="M172.186,66.693h-4.727c0.061,1.199,0.792,1.991,1.859,1.991c0.863,0,1.512-0.396,1.943-1.199l0.803,0.42
				c-0.587,1.127-1.498,1.69-2.746,1.69c-0.863,0-1.559-0.3-2.099-0.888c-0.528-0.587-0.792-1.331-0.792-2.23
				c0-0.875,0.264-1.619,0.779-2.219c0.528-0.6,1.236-0.899,2.111-0.899c0.9,0,1.607,0.275,2.111,0.84
				c0.504,0.552,0.756,1.247,0.756,2.074V66.693z M167.531,65.782h3.586c-0.18-0.96-0.827-1.512-1.799-1.512
				C168.371,64.271,167.735,64.835,167.531,65.782z"/>
		</g>
	</g>
</g>
</svg>
