<?xml version="1.0" encoding="utf-8"?>
<!-- Generator: Adobe Illustrator 16.0.0, SVG Export Plug-In . SVG Version: 6.00 Build 0)  -->
<!DOCTYPE svg PUBLIC "-//W3C//DTD SVG 1.1//EN" "http://www.w3.org/Graphics/SVG/1.1/DTD/svg11.dtd">
<svg version="1.1" xmlns="http://www.w3.org/2000/svg" xmlns:xlink="http://www.w3.org/1999/xlink" x="0px" y="0px" width="612px"
	 height="745px" viewBox="0 0 612 745" enable-background="new 0 0 612 745" xml:space="preserve">
<g id="Layer_1">
</g>
<g id="Layer_3">
	<g>
		
			<path fill="none" stroke="#FFFFFF" stroke-width="3" stroke-linecap="round" stroke-linejoin="round" stroke-dasharray="5.5305,5.5305" d="
			M415.5,95.885c0,3.101-2.514,5.615-5.615,5.615h-85.77c-3.102,0-5.615-2.514-5.615-5.615v-84.77c0-3.101,2.514-5.615,5.615-5.615
			h85.77c3.102,0,5.615,2.514,5.615,5.615V95.885z"/>
	</g>
	<g>
		<g>
			
				<line fill="none" stroke="#FFFFFF" stroke-width="3" stroke-linecap="round" stroke-linejoin="round" x1="2.5" y1="741" x2="2.5" y2="739"/>
			
				<path fill="none" stroke="#FFFFFF" stroke-width="3" stroke-linecap="round" stroke-linejoin="round" stroke-dasharray="5.0241,5.0241" d="
				M2.466,733.236l0.027-265.715c0-3.85,3.167-7.021,7.017-7.021h63.869c3.85,0,7.121-2.869,7.121-6.719V53.979
				c0-3.85,3.029-7.479,6.879-7.479H257"/>
			
				<line fill="none" stroke="#FFFFFF" stroke-width="3" stroke-linecap="round" stroke-linejoin="round" x1="260" y1="46.5" x2="262" y2="46.5"/>
		</g>
	</g>
	<g>
		<g>
			
				<line fill="none" stroke="#FFFFFF" stroke-width="3" stroke-linecap="round" stroke-linejoin="round" x1="416" y1="54.5" x2="418" y2="54.5"/>
			
				<path fill="none" stroke="#FFFFFF" stroke-width="3" stroke-linecap="round" stroke-linejoin="round" stroke-dasharray="4.9882,4.9882" d="
				M423.336,54.747l125.957,0.049c3.85-0.001,7,3.194,7,7.044l-0.006,395.693c0,3.85,3.15,6.967,7,6.967h39.212
				c3.85,0,7.001,3.264,7.001,7.113V693"/>
			
				<line fill="none" stroke="#FFFFFF" stroke-width="3" stroke-linecap="round" stroke-linejoin="round" x1="609.5" y1="696" x2="609.5" y2="698"/>
		</g>
	</g>
	<g>
		
			<path fill="none" stroke="#FFFFFF" stroke-width="3" stroke-linecap="round" stroke-linejoin="round" stroke-dasharray="5.1135,5.1135" d="
			M297.5,54.185c0,1.831-1.484,3.315-3.315,3.315h-28.369c-1.831,0-3.315-1.484-3.315-3.315V5.815c0-1.831,1.484-3.315,3.315-3.315
			h28.369c1.831,0,3.315,1.484,3.315,3.315V54.185z"/>
	</g>
</g>
</svg>
