<?xml version="1.0" encoding="utf-8"?>
<!-- Generator: Adobe Illustrator 16.0.0, SVG Export Plug-In . SVG Version: 6.00 Build 0)  -->
<!DOCTYPE svg PUBLIC "-//W3C//DTD SVG 1.1//EN" "http://www.w3.org/Graphics/SVG/1.1/DTD/svg11.dtd">
<svg version="1.1" id="Layer_1" xmlns="http://www.w3.org/2000/svg" xmlns:xlink="http://www.w3.org/1999/xlink" x="0px" y="0px"
	 width="242px" height="129px" viewBox="0 0 242 129" enable-background="new 0 0 242 129" xml:space="preserve">
<g>
	<g>
		<path fill="#FFFFFF" d="M80.31,33.276V17.131c0-0.5,0.4-0.9,0.875-0.9h4.074c2.625,0,4.749,2.149,4.749,4.774
			c0,2.599-2.125,4.748-4.749,4.748h-3.174v7.523c0,0.5-0.4,0.9-0.899,0.9C80.709,34.177,80.31,33.776,80.31,33.276z M82.084,23.954
			h3.174c1.625,0,2.974-1.325,2.974-2.949c0-1.65-1.35-2.975-2.974-2.975h-3.174V23.954z"/>
		<path fill="#FFFFFF" d="M101.632,34.177c-0.35,0-0.725-0.226-0.875-0.601l-2.625-8.072c0,0-0.2,0-3.674,0v7.798
			c0,0.475-0.4,0.875-0.899,0.875c-0.475,0-0.875-0.4-0.875-0.875V17.105c0-0.475,0.4-0.875,0.875-0.875h4.274
			c2.574,0,4.648,2.075,4.648,4.649c0,1.824-1.075,3.424-2.624,4.174l2.599,7.948C102.582,33.526,102.257,34.177,101.632,34.177z
			 M97.833,23.729c1.6,0,2.874-1.274,2.874-2.849c0-1.6-1.274-2.875-2.874-2.875h-3.375v5.724H97.833z"/>
		<path fill="#FFFFFF" d="M113.132,33.127c0,0.5-0.4,0.899-0.9,0.899h-6.249c-0.5,0-0.899-0.399-0.899-0.899s0.4-0.9,0.899-0.9h2.25
			V18.03h-2.25c-0.5,0-0.899-0.399-0.899-0.899s0.4-0.9,0.899-0.9h6.249c0.5,0,0.9,0.4,0.9,0.9s-0.4,0.899-0.9,0.899h-2.224v14.196
			h2.224C112.732,32.227,113.132,32.627,113.132,33.127z"/>
		<path fill="#FFFFFF" d="M119.958,33.526l-4.499-16.296c-0.15-0.575,0.275-1.149,0.85-1.149c0.4,0,0.75,0.274,0.85,0.675
			l3.674,13.196l3.649-13.196c0.1-0.4,0.449-0.675,0.85-0.675c0.6,0,1.024,0.625,0.875,1.149l-4.524,16.296
			c-0.1,0.375-0.45,0.65-0.85,0.65S120.083,33.901,119.958,33.526z"/>
		<path fill="#FFFFFF" d="M137.657,34.177c-0.375,0-0.7-0.25-0.825-0.65l-1.125-3.649h-5.948l-1.124,3.649
			c-0.125,0.375-0.476,0.65-0.85,0.65c-0.525,0-1.051-0.55-0.851-1.15l4.924-16.32c0.125-0.375,0.476-0.625,0.875-0.625
			c0.375,0,0.725,0.25,0.85,0.625l4.948,16.32C138.656,33.552,138.281,34.177,137.657,34.177z M135.158,28.103l-2.425-8.073
			l-2.45,8.073H135.158z"/>
		<path fill="#FFFFFF" d="M141.084,29.202v-8.147c0-2.725,2.225-4.974,4.975-4.974c2.574,0,4.699,2.024,4.948,4.474
			c0.05,0.475-0.3,0.925-0.8,0.975c-0.475,0.05-0.924-0.3-0.975-0.8c-0.15-1.624-1.524-2.874-3.174-2.874
			c-1.75,0-3.199,1.449-3.199,3.199v8.147c0,1.75,1.449,3.199,3.199,3.199c1.649,0,3.023-1.249,3.174-2.874
			c0.051-0.5,0.5-0.85,0.975-0.8c0.5,0.05,0.85,0.5,0.8,0.975c-0.249,2.574-2.499,4.475-4.948,4.475
			C143.309,34.177,141.084,31.952,141.084,29.202z"/>
		<path fill="#FFFFFF" d="M162.957,17.33l-4.225,9.348v6.599c0,0.5-0.375,0.9-0.874,0.9c-0.5,0-0.899-0.4-0.899-0.9v-6.599
			l-4.199-9.348c-0.25-0.55,0.125-1.249,0.799-1.249c0.351,0,0.676,0.199,0.826,0.524l3.474,7.724l3.474-7.724
			c0.15-0.325,0.45-0.524,0.801-0.524C162.732,16.081,163.232,16.706,162.957,17.33z"/>
	</g>
	
		<line fill="none" stroke="#FFFFFF" stroke-linecap="round" stroke-miterlimit="10" x1="27.119" y1="44.478" x2="215.119" y2="44.478"/>
	
		<line fill="none" stroke="#FFFFFF" stroke-linecap="round" stroke-miterlimit="10" x1="27.119" y1="98.336" x2="215.119" y2="98.336"/>
	<g>
		<path fill="none" stroke="#FFFFFF" stroke-width="1.4" stroke-miterlimit="10" d="M241,120.584c0,4.02-3.289,7.309-7.309,7.309
			H8.301c-4.02,0-7.309-3.289-7.309-7.309V8.58c0-4.021,3.289-7.31,7.309-7.31h225.39c4.02,0,7.309,3.289,7.309,7.31V120.584z"/>
	</g>
	<rect x="165.903" y="92.024" fill="#FFFFFF" width="6.852" height="6.312"/>
	<rect x="185.237" y="92.024" fill="#FFFFFF" width="6.852" height="6.312"/>
	<rect x="204.571" y="92.024" fill="#FFFFFF" width="6.852" height="6.312"/>
	<rect x="30.57" y="85.714" fill="#FFFFFF" width="6.852" height="12.622"/>
	
		<line fill="none" stroke="#77C4D3" stroke-width="1.0186" stroke-miterlimit="10" x1="39.127" y1="92.024" x2="28.865" y2="92.024"/>
	<g>
		<g>
			<path fill="#FFFFFF" d="M27.606,106.992c0.012-0.023,0.06-0.18,0.659-1.594c0.06-0.168,0.204-0.277,0.372-0.277
				c0.276,0,0.492,0.301,0.372,0.6l-0.419,1.068c0.156,0.119,0.228,0.264,0.228,0.467c0,0.373-0.264,0.672-0.624,0.672
				c-0.372,0-0.647-0.299-0.647-0.672C27.546,107.172,27.57,107.076,27.606,106.992z"/>
			<path fill="#FFFFFF" d="M30.21,111.693v-4.473c0-1.152,0.947-2.1,2.111-2.1c1.151,0,2.099,0.947,2.099,2.1v4.473
				c0,1.164-0.947,2.111-2.099,2.111C31.157,113.805,30.21,112.857,30.21,111.693z M31.073,107.221v4.473
				c0,0.695,0.552,1.248,1.248,1.248c0.684,0,1.247-0.553,1.247-1.248v-4.473c0-0.684-0.563-1.248-1.247-1.248
				C31.625,105.973,31.073,106.537,31.073,107.221z"/>
			<path fill="#FFFFFF" d="M40.107,109.955v1.75c0,1.152-0.936,2.1-2.099,2.1c-1.163,0-2.099-0.947-2.099-2.1
				c0-0.238,0.192-0.432,0.42-0.432c0.24,0,0.432,0.193,0.432,0.432c0,0.684,0.563,1.248,1.247,1.248s1.248-0.564,1.248-1.248v-1.75
				c0-0.684-0.564-1.248-1.248-1.248c-0.6,0-1.079,0.336-1.211,0.961c-0.06,0.168-0.216,0.299-0.408,0.299
				c-0.24,0-0.432-0.191-0.432-0.432v-3.922c0-0.229,0.192-0.42,0.432-0.42h3.046c0.24,0,0.432,0.191,0.432,0.42
				c0,0.24-0.191,0.432-0.432,0.432h-2.626v2.242c0.324-0.264,0.731-0.432,1.199-0.432
				C39.172,107.855,40.107,108.791,40.107,109.955z"/>
		</g>
		<g>
			<path fill="#FFFFFF" d="M46.94,106.992c0.012-0.023,0.06-0.18,0.659-1.594c0.06-0.168,0.204-0.277,0.372-0.277
				c0.276,0,0.492,0.301,0.372,0.6l-0.419,1.068c0.156,0.119,0.228,0.264,0.228,0.467c0,0.373-0.264,0.672-0.624,0.672
				c-0.372,0-0.647-0.299-0.647-0.672C46.88,107.172,46.904,107.076,46.94,106.992z"/>
			<path fill="#FFFFFF" d="M49.543,111.693v-4.473c0-1.152,0.947-2.1,2.111-2.1c1.151,0,2.099,0.947,2.099,2.1v4.473
				c0,1.164-0.947,2.111-2.099,2.111C50.491,113.805,49.543,112.857,49.543,111.693z M50.407,107.221v4.473
				c0,0.695,0.552,1.248,1.248,1.248c0.684,0,1.247-0.553,1.247-1.248v-4.473c0-0.684-0.563-1.248-1.247-1.248
				C50.958,105.973,50.407,106.537,50.407,107.221z"/>
			<path fill="#FFFFFF" d="M59.441,110.303v1.402c0,1.152-0.948,2.1-2.111,2.1c-1.151,0-2.099-0.947-2.099-2.1v-4.473
				c0-1.164,0.948-2.111,2.099-2.111c1.043,0,2.003,0.828,2.099,1.92c0.024,0.215-0.156,0.467-0.408,0.467
				c-0.228,0-0.42-0.168-0.444-0.395c-0.06-0.637-0.6-1.129-1.247-1.129c-0.684,0-1.248,0.553-1.248,1.248v1.451
				c0.336-0.299,0.756-0.48,1.248-0.48C58.493,108.203,59.441,109.139,59.441,110.303z M58.577,111.705v-1.402
				c0-0.695-0.552-1.248-1.247-1.248c-0.684,0-1.248,0.42-1.248,1.248v1.402c0,0.684,0.564,1.248,1.248,1.248
				C58.025,112.953,58.577,112.389,58.577,111.705z"/>
		</g>
		<g>
			<path fill="#FFFFFF" d="M201.606,106.992c0.012-0.023,0.06-0.18,0.659-1.594c0.061-0.168,0.204-0.277,0.372-0.277
				c0.276,0,0.491,0.301,0.372,0.6l-0.42,1.068c0.156,0.119,0.228,0.264,0.228,0.467c0,0.373-0.264,0.672-0.624,0.672
				c-0.371,0-0.646-0.299-0.646-0.672C201.547,107.172,201.57,107.076,201.606,106.992z"/>
			<path fill="#FFFFFF" d="M208.443,113.301c0,0.24-0.191,0.432-0.432,0.432h-2.998c-0.24,0-0.432-0.191-0.432-0.432
				c0-0.227,0.191-0.42,0.432-0.42h1.127v-6.152l-0.863,1.031c-0.084,0.096-0.204,0.156-0.324,0.156
				c-0.336,0-0.563-0.42-0.336-0.707l1.619-1.932c0.084-0.096,0.204-0.156,0.324-0.156c0.229,0,0.432,0.193,0.432,0.432v7.328h1.02
				C208.252,112.881,208.443,113.074,208.443,113.301z"/>
			<path fill="#FFFFFF" d="M214.419,111.682c0,0.229-0.192,0.42-0.419,0.42h-0.684v1.271c0,0.24-0.192,0.432-0.433,0.432
				c-0.239,0-0.432-0.191-0.432-0.432v-1.271h-2.423c-0.287,0-0.504-0.287-0.396-0.576l2.194-6.115
				c0.061-0.18,0.229-0.289,0.396-0.289c0.287,0,0.491,0.289,0.408,0.576l-1.992,5.553h1.812v-0.947c0-0.24,0.192-0.432,0.432-0.432
				c0.24,0,0.433,0.191,0.433,0.432v0.947H214C214.227,111.25,214.419,111.441,214.419,111.682z"/>
		</g>
		<g>
			<path fill="#FFFFFF" d="M182.273,106.992c0.012-0.023,0.059-0.18,0.658-1.594c0.061-0.168,0.205-0.277,0.373-0.277
				c0.275,0,0.491,0.301,0.371,0.6l-0.42,1.068c0.156,0.119,0.229,0.264,0.229,0.467c0,0.373-0.264,0.672-0.624,0.672
				c-0.372,0-0.647-0.299-0.647-0.672C182.213,107.172,182.236,107.076,182.273,106.992z"/>
			<path fill="#FFFFFF" d="M189.109,113.301c0,0.24-0.191,0.432-0.432,0.432h-2.998c-0.24,0-0.432-0.191-0.432-0.432
				c0-0.227,0.191-0.42,0.432-0.42h1.127v-6.152l-0.863,1.031c-0.084,0.096-0.203,0.156-0.323,0.156
				c-0.336,0-0.563-0.42-0.336-0.707l1.619-1.932c0.084-0.096,0.204-0.156,0.323-0.156c0.229,0,0.432,0.193,0.432,0.432v7.328h1.02
				C188.918,112.881,189.109,113.074,189.109,113.301z"/>
			<path fill="#FFFFFF" d="M190.504,111.705c0-0.238,0.191-0.432,0.42-0.432c0.24,0,0.432,0.193,0.432,0.432
				c0,0.684,0.564,1.248,1.248,1.248s1.246-0.564,1.246-1.248v-1.139c0-0.695-0.516-1.248-1.199-1.248
				c-0.144,0-0.275,0.025-0.407,0.072c-0.18,0.061-0.372,0-0.491-0.143c-0.108-0.145-0.108-0.348,0-0.504l1.858-2.688h-2.063v0.6
				c0,0.24-0.191,0.432-0.432,0.432c-0.239,0-0.432-0.191-0.432-0.432v-1.031c0-0.227,0.192-0.42,0.432-0.42h3.311
				c0.336,0,0.552,0.385,0.359,0.66l-1.822,2.627c1.031,0.191,1.738,1.055,1.738,2.074v1.139c0,1.152-0.936,2.1-2.098,2.1
				C191.439,113.805,190.504,112.857,190.504,111.705z"/>
		</g>
		<g>
			<path fill="#FFFFFF" d="M162.939,106.992c0.012-0.023,0.061-0.18,0.66-1.594c0.06-0.168,0.203-0.277,0.371-0.277
				c0.276,0,0.492,0.301,0.372,0.6l-0.419,1.068c0.155,0.119,0.227,0.264,0.227,0.467c0,0.373-0.264,0.672-0.623,0.672
				c-0.371,0-0.647-0.299-0.647-0.672C162.88,107.172,162.904,107.076,162.939,106.992z"/>
			<path fill="#FFFFFF" d="M169.777,113.301c0,0.24-0.192,0.432-0.432,0.432h-2.998c-0.24,0-0.433-0.191-0.433-0.432
				c0-0.227,0.192-0.42,0.433-0.42h1.127v-6.152l-0.863,1.031c-0.084,0.096-0.205,0.156-0.324,0.156
				c-0.336,0-0.564-0.42-0.336-0.707l1.619-1.932c0.084-0.096,0.203-0.156,0.324-0.156c0.228,0,0.432,0.193,0.432,0.432v7.328h1.02
				C169.585,112.881,169.777,113.074,169.777,113.301z"/>
			<path fill="#FFFFFF" d="M171.627,113.732c-0.348,0-0.516-0.383-0.372-0.658l2.747-4.391c0.228-0.359,0.551-0.9,0.551-1.5
				c0-0.658-0.539-1.211-1.211-1.211c-0.684,0-1.247,0.564-1.247,1.26c0,0.229-0.192,0.42-0.432,0.42c-0.228,0-0.42-0.191-0.42-0.42
				c0-1.164,0.947-2.111,2.099-2.111c1.14,0,2.075,0.924,2.075,2.062c0,0.889-0.42,1.535-0.696,1.955l-2.326,3.73h2.687
				c0.239,0,0.42,0.191,0.42,0.432s-0.181,0.432-0.42,0.432H171.627z"/>
		</g>
		<g>
			<path fill="#FFFFFF" d="M143.606,106.992c0.012-0.023,0.06-0.18,0.659-1.594c0.061-0.168,0.204-0.277,0.372-0.277
				c0.276,0,0.491,0.301,0.372,0.6l-0.42,1.068c0.156,0.119,0.228,0.264,0.228,0.467c0,0.373-0.264,0.672-0.624,0.672
				c-0.371,0-0.646-0.299-0.646-0.672C143.547,107.172,143.57,107.076,143.606,106.992z"/>
			<path fill="#FFFFFF" d="M150.443,113.301c0,0.24-0.191,0.432-0.432,0.432h-2.998c-0.24,0-0.432-0.191-0.432-0.432
				c0-0.227,0.191-0.42,0.432-0.42h1.127v-6.152l-0.863,1.031c-0.084,0.096-0.204,0.156-0.324,0.156
				c-0.336,0-0.563-0.42-0.336-0.707l1.619-1.932c0.084-0.096,0.204-0.156,0.324-0.156c0.229,0,0.432,0.193,0.432,0.432v7.328h1.02
				C150.252,112.881,150.443,113.074,150.443,113.301z"/>
			<path fill="#FFFFFF" d="M156.143,113.301c0,0.24-0.191,0.432-0.432,0.432h-2.998c-0.24,0-0.432-0.191-0.432-0.432
				c0-0.227,0.191-0.42,0.432-0.42h1.127v-6.152l-0.863,1.031c-0.084,0.096-0.203,0.156-0.323,0.156
				c-0.336,0-0.563-0.42-0.336-0.707l1.619-1.932c0.084-0.096,0.204-0.156,0.323-0.156c0.229,0,0.432,0.193,0.432,0.432v7.328h1.02
				C155.951,112.881,156.143,113.074,156.143,113.301z"/>
		</g>
		<g>
			<path fill="#FFFFFF" d="M124.273,106.992c0.012-0.023,0.059-0.18,0.658-1.594c0.061-0.168,0.205-0.277,0.373-0.277
				c0.275,0,0.491,0.301,0.371,0.6l-0.42,1.068c0.156,0.119,0.229,0.264,0.229,0.467c0,0.373-0.264,0.672-0.624,0.672
				c-0.372,0-0.647-0.299-0.647-0.672C124.213,107.172,124.236,107.076,124.273,106.992z"/>
			<path fill="#FFFFFF" d="M131.109,113.301c0,0.24-0.191,0.432-0.432,0.432h-2.998c-0.24,0-0.432-0.191-0.432-0.432
				c0-0.227,0.191-0.42,0.432-0.42h1.127v-6.152l-0.863,1.031c-0.084,0.096-0.203,0.156-0.323,0.156
				c-0.336,0-0.563-0.42-0.336-0.707l1.619-1.932c0.084-0.096,0.204-0.156,0.323-0.156c0.229,0,0.432,0.193,0.432,0.432v7.328h1.02
				C130.918,112.881,131.109,113.074,131.109,113.301z"/>
			<path fill="#FFFFFF" d="M132.576,111.693v-4.473c0-1.152,0.947-2.1,2.111-2.1c1.15,0,2.098,0.947,2.098,2.1v4.473
				c0,1.164-0.947,2.111-2.098,2.111C133.523,113.805,132.576,112.857,132.576,111.693z M133.439,107.221v4.473
				c0,0.695,0.552,1.248,1.248,1.248c0.684,0,1.246-0.553,1.246-1.248v-4.473c0-0.684-0.562-1.248-1.246-1.248
				C133.991,105.973,133.439,106.537,133.439,107.221z"/>
		</g>
		<g>
			<path fill="#FFFFFF" d="M104.94,106.992c0.012-0.023,0.06-0.18,0.659-1.594c0.06-0.168,0.204-0.277,0.372-0.277
				c0.276,0,0.492,0.301,0.372,0.6l-0.419,1.068c0.156,0.119,0.228,0.264,0.228,0.467c0,0.373-0.264,0.672-0.624,0.672
				c-0.372,0-0.647-0.299-0.647-0.672C104.88,107.172,104.904,107.076,104.94,106.992z"/>
			<path fill="#FFFFFF" d="M107.543,111.693v-4.473c0-1.152,0.947-2.1,2.111-2.1c1.151,0,2.099,0.947,2.099,2.1v4.473
				c0,1.164-0.947,2.111-2.099,2.111C108.491,113.805,107.543,112.857,107.543,111.693z M108.407,107.221v4.473
				c0,0.695,0.552,1.248,1.248,1.248c0.684,0,1.247-0.553,1.247-1.248v-4.473c0-0.684-0.563-1.248-1.247-1.248
				C108.958,105.973,108.407,106.537,108.407,107.221z"/>
			<path fill="#FFFFFF" d="M113.243,108.623v-1.402c0-1.152,0.947-2.1,2.111-2.1c1.151,0,2.099,0.947,2.099,2.1v4.473
				c0,1.164-0.947,2.111-2.099,2.111c-1.043,0-2.003-0.828-2.099-1.918c-0.024-0.217,0.156-0.469,0.408-0.469
				c0.228,0,0.419,0.168,0.443,0.396c0.06,0.635,0.6,1.127,1.248,1.127c0.684,0,1.247-0.553,1.247-1.248v-1.451
				c-0.335,0.301-0.755,0.48-1.247,0.48C114.19,110.723,113.243,109.787,113.243,108.623z M114.106,107.221v1.402
				c0,0.695,0.552,1.248,1.248,1.248c0.684,0,1.247-0.42,1.247-1.248v-1.402c0-0.684-0.563-1.248-1.247-1.248
				C114.658,105.973,114.106,106.537,114.106,107.221z"/>
		</g>
		<g>
			<path fill="#FFFFFF" d="M85.606,106.992c0.012-0.023,0.06-0.18,0.659-1.594c0.06-0.168,0.204-0.277,0.372-0.277
				c0.276,0,0.492,0.301,0.372,0.6l-0.419,1.068c0.156,0.119,0.228,0.264,0.228,0.467c0,0.373-0.264,0.672-0.624,0.672
				c-0.372,0-0.647-0.299-0.647-0.672C85.546,107.172,85.57,107.076,85.606,106.992z"/>
			<path fill="#FFFFFF" d="M88.21,111.693v-4.473c0-1.152,0.947-2.1,2.111-2.1c1.151,0,2.099,0.947,2.099,2.1v4.473
				c0,1.164-0.947,2.111-2.099,2.111C89.157,113.805,88.21,112.857,88.21,111.693z M89.073,107.221v4.473
				c0,0.695,0.552,1.248,1.248,1.248c0.684,0,1.247-0.553,1.247-1.248v-4.473c0-0.684-0.563-1.248-1.247-1.248
				C89.625,105.973,89.073,106.537,89.073,107.221z"/>
			<path fill="#FFFFFF" d="M97.34,109.236c0.479,0.371,0.779,0.959,0.779,1.617v0.912c0,1.127-0.911,2.039-2.039,2.039h-0.12
				c-1.127,0-2.039-0.912-2.039-2.039v-0.912c0-0.658,0.312-1.246,0.792-1.617c-0.48-0.373-0.792-0.961-0.792-1.607v-0.408
				c0-1.127,0.912-2.039,2.039-2.039h0.12c1.127,0,2.039,0.912,2.039,2.039v0.408C98.119,108.275,97.819,108.863,97.34,109.236z
				 M96.081,108.803c0.66,0,1.187-0.527,1.187-1.174v-0.408c0-0.66-0.527-1.188-1.187-1.188h-0.12c-0.66,0-1.188,0.527-1.188,1.188
				v0.408c0,0.646,0.528,1.174,1.188,1.174H96.081z M96.081,109.668h-0.12c-0.66,0-1.188,0.527-1.188,1.186v0.912
				c0,0.648,0.528,1.188,1.188,1.188h0.12c0.66,0,1.187-0.539,1.187-1.188v-0.912C97.268,110.195,96.74,109.668,96.081,109.668z"/>
		</g>
		<g>
			<path fill="#FFFFFF" d="M66.273,106.992c0.012-0.023,0.06-0.18,0.659-1.594c0.06-0.168,0.204-0.277,0.372-0.277
				c0.276,0,0.492,0.301,0.372,0.6l-0.419,1.068c0.156,0.119,0.228,0.264,0.228,0.467c0,0.373-0.264,0.672-0.624,0.672
				c-0.372,0-0.647-0.299-0.647-0.672C66.213,107.172,66.237,107.076,66.273,106.992z"/>
			<path fill="#FFFFFF" d="M68.876,111.693v-4.473c0-1.152,0.947-2.1,2.111-2.1c1.151,0,2.099,0.947,2.099,2.1v4.473
				c0,1.164-0.947,2.111-2.099,2.111C69.824,113.805,68.876,112.857,68.876,111.693z M69.74,107.221v4.473
				c0,0.695,0.552,1.248,1.248,1.248c0.684,0,1.247-0.553,1.247-1.248v-4.473c0-0.684-0.563-1.248-1.247-1.248
				C70.292,105.973,69.74,106.537,69.74,107.221z"/>
			<path fill="#FFFFFF" d="M77.754,106.057h-2.303v0.6c0,0.24-0.192,0.432-0.432,0.432c-0.24,0-0.432-0.191-0.432-0.432v-1.031
				c0-0.227,0.192-0.42,0.432-0.42h3.322c0.3,0,0.479,0.301,0.408,0.553l-2.507,7.748c-0.072,0.191-0.24,0.299-0.408,0.299
				c-0.3,0-0.492-0.312-0.408-0.564L77.754,106.057z"/>
		</g>
	</g>
</g>
</svg>
