<?xml version="1.0" encoding="utf-8"?>
<!-- Generator: Adobe Illustrator 16.0.0, SVG Export Plug-In . SVG Version: 6.00 Build 0)  -->
<!DOCTYPE svg PUBLIC "-//W3C//DTD SVG 1.1//EN" "http://www.w3.org/Graphics/SVG/1.1/DTD/svg11.dtd">
<svg version="1.1" id="Layer_1" xmlns="http://www.w3.org/2000/svg" xmlns:xlink="http://www.w3.org/1999/xlink" x="0px" y="0px"
	 width="600.5px" height="257px" viewBox="0 0 600.5 257" enable-background="new 0 0 600.5 257" xml:space="preserve">
<g id="Layer_1_1_">
</g>
<g>
	<g>
		
			<line fill="none" stroke="#FFFFFF" stroke-width="1.5" stroke-linecap="round" stroke-linejoin="round" x1="112" y1="56" x2="110" y2="56"/>
		
			<path fill="none" stroke="#FFFFFF" stroke-width="1.5" stroke-linecap="round" stroke-linejoin="round" stroke-dasharray="4.9348,4.9348" d="
			M105,56H9.682c-3.85,0-7,3.049-7,6.899L2.736,250.4"/>
		
			<line fill="none" stroke="#FFFFFF" stroke-width="1.5" stroke-linecap="round" stroke-linejoin="round" x1="2.5" y1="252.5" x2="2.5" y2="255.5"/>
	</g>
</g>
<g>
	<g>
		
			<line fill="none" stroke="#FFFFFF" stroke-width="1.5" stroke-linecap="round" stroke-linejoin="round" x1="492" y1="56" x2="495" y2="56"/>
		
			<path fill="none" stroke="#FFFFFF" stroke-width="1.5" stroke-linecap="round" stroke-linejoin="round" stroke-dasharray="5.0723,5.0723" d="
			M500,56h93.02c3.85,0,7,3.049,7,6.899l0.146,187.433"/>
		
			<line fill="none" stroke="#FFFFFF" stroke-width="1.5" stroke-linecap="round" stroke-linejoin="round" x1="600.5" y1="252.5" x2="600.5" y2="255.5"/>
	</g>
</g>
<g>
	
		<path fill="none" stroke="#FFFFFF" stroke-width="1.5" stroke-linecap="round" stroke-linejoin="round" stroke-dasharray="4.9486,4.9486" d="
		M216.5,96.977c0,2.774-2.249,5.023-5.023,5.023h-92.953c-2.773,0-5.022-2.249-5.022-5.023V8.023c0-2.774,2.249-5.023,5.022-5.023
		h92.953c2.774,0,5.023,2.249,5.023,5.023V96.977z"/>
</g>
<g>
	
		<path fill="none" stroke="#FFFFFF" stroke-width="1.5" stroke-linecap="round" stroke-linejoin="round" stroke-dasharray="4.9396,4.9396" d="
		M491.5,73.977c0,2.774-2.249,5.023-5.023,5.023h-70.953c-2.773,0-5.022-2.249-5.022-5.023V8.023c0-2.774,2.249-5.023,5.022-5.023
		h70.953c2.773,0,5.023,2.249,5.023,5.023V73.977z"/>
</g>
</svg>
