<?xml version="1.0" encoding="utf-8"?>
<!-- Generator: Adobe Illustrator 16.0.0, SVG Export Plug-In . SVG Version: 6.00 Build 0)  -->
<!DOCTYPE svg PUBLIC "-//W3C//DTD SVG 1.1//EN" "http://www.w3.org/Graphics/SVG/1.1/DTD/svg11.dtd">
<svg version="1.1" id="Layer_1" xmlns="http://www.w3.org/2000/svg" xmlns:xlink="http://www.w3.org/1999/xlink" x="0px" y="0px"
	 width="242px" height="87px" viewBox="0 0 242 87" enable-background="new 0 0 242 87" xml:space="preserve">
<g>
	<g>
		<path fill="none" stroke="#FFFFFF" stroke-width="1.4" stroke-miterlimit="10" d="M241,81.277c0,2.538-2.077,4.615-4.615,4.615
			H5.608c-2.539,0-4.616-2.077-4.616-4.615V5.615C0.992,3.077,3.069,1,5.608,1h230.777C238.923,1,241,3.077,241,5.615V81.277z"/>
	</g>
	<line fill="none" stroke="#FFFFFF" stroke-linecap="round" stroke-miterlimit="10" x1="28" y1="52.5" x2="214" y2="52.5"/>
	<g>
		<rect x="28" y="12" fill="#FFFFFF" width="56" height="31"/>
		<g>
			<path fill="#77C4D3" d="M52.612,19.268h-5.376v1.4c0,0.56-0.448,1.008-1.008,1.008s-1.008-0.448-1.008-1.008V18.26
				c0-0.532,0.448-0.98,1.008-0.98h7.756c0.7,0,1.12,0.7,0.952,1.288l-5.852,18.088c-0.168,0.448-0.56,0.7-0.952,0.7
				c-0.7,0-1.148-0.728-0.952-1.316L52.612,19.268z"/>
			<path fill="#77C4D3" d="M60.105,28.995c-1.296,0-2.359-1.062-2.359-2.377c0-1.296,1.062-2.358,2.359-2.358
				s2.358,1.062,2.358,2.358C62.463,27.933,61.401,28.995,60.105,28.995z M60.105,27.698c0.594,0,1.08-0.485,1.08-1.08
				c0-0.594-0.486-1.08-1.08-1.08s-1.081,0.486-1.081,1.08C59.024,27.213,59.511,27.698,60.105,27.698z M66.208,25.196
				l-5.941,11.739c-0.108,0.234-0.342,0.36-0.576,0.36c-0.432,0-0.811-0.469-0.576-0.937l5.941-11.739
				c0.108-0.234,0.342-0.36,0.576-0.36C66.064,24.26,66.443,24.728,66.208,25.196z M67.577,34.937c0,1.297-1.062,2.359-2.359,2.359
				s-2.358-1.062-2.358-2.359c0-1.314,1.062-2.358,2.358-2.358S67.577,33.622,67.577,34.937z M66.299,34.937
				c0-0.594-0.486-1.08-1.081-1.08s-1.08,0.486-1.08,1.08c0,0.595,0.486,1.081,1.08,1.081S66.299,35.531,66.299,34.937z"/>
		</g>
	</g>
	<g>
		<path fill="#FFFFFF" d="M96.21,20.576c0-0.792,0.263-1.463,0.777-2.024c0.516-0.561,1.202-0.836,2.061-0.836
			s1.545,0.275,2.06,0.836c0.516,0.562,0.778,1.232,0.778,2.024s-0.263,1.463-0.778,2.024c-0.515,0.561-1.201,0.836-2.06,0.836
			s-1.545-0.275-2.061-0.836C96.473,22.039,96.21,21.368,96.21,20.576z M97.193,20.576c0,0.562,0.172,1.034,0.504,1.431
			c0.332,0.396,0.79,0.594,1.351,0.594s1.019-0.198,1.351-0.594c0.331-0.396,0.503-0.869,0.503-1.431
			c0-0.561-0.172-1.034-0.503-1.43c-0.332-0.396-0.79-0.595-1.351-0.595s-1.019,0.198-1.351,0.595
			C97.365,19.542,97.193,20.016,97.193,20.576z"/>
		<path fill="#FFFFFF" d="M108.568,23.349h-0.961v-3.663c0-0.76-0.354-1.134-1.064-1.134c-0.469,0-0.87,0.231-1.201,0.704
			c-0.332,0.462-0.492,1.078-0.492,1.859v2.233h-0.962v-5.545h0.962v1.023c0.423-0.66,1.167-1.111,1.957-1.111
			c1.179,0,1.762,0.671,1.762,1.771V23.349z"/>
		<path fill="#FFFFFF" d="M117.539,18.64v-0.836h1.534v-1.661l0.961-0.583v2.244h2.815v0.836h-2.815v2.839
			c0,0.748,0.332,1.122,0.996,1.122c0.515,0,0.983-0.22,1.419-0.66l0.354,0.781c-0.492,0.473-1.087,0.715-1.773,0.715
			c-1.271,0-1.957-0.649-1.957-1.925V18.64H117.539z"/>
		<path fill="#FFFFFF" d="M129.933,23.349h-0.961v-3.631c0-0.781-0.354-1.166-1.064-1.166c-0.492,0-0.915,0.22-1.282,0.671
			c-0.365,0.451-0.549,1.046-0.549,1.805v2.321h-0.961V15.56h0.961v3.268c0.458-0.649,1.236-1.111,2.095-1.111
			c1.179,0,1.762,0.605,1.762,1.805V23.349z"/>
		<path fill="#FFFFFF" d="M137.337,20.774h-4.51c0.058,1.1,0.756,1.826,1.774,1.826c0.824,0,1.441-0.363,1.854-1.101l0.767,0.386
			c-0.561,1.034-1.43,1.551-2.62,1.551c-0.824,0-1.488-0.275-2.003-0.814c-0.504-0.539-0.755-1.221-0.755-2.046
			c0-0.803,0.251-1.485,0.743-2.035c0.504-0.55,1.179-0.825,2.015-0.825c0.858,0,1.533,0.253,2.014,0.771
			c0.481,0.506,0.722,1.144,0.722,1.903V20.774z M132.896,19.938h3.422c-0.172-0.881-0.79-1.387-1.717-1.387
			C133.697,18.552,133.091,19.069,132.896,19.938z"/>
		<path fill="#FFFFFF" d="M145.918,18.64v-0.836h1.534v-1.661l0.961-0.583v2.244h2.815v0.836h-2.815v2.839
			c0,0.748,0.332,1.122,0.996,1.122c0.515,0,0.983-0.22,1.419-0.66l0.354,0.781c-0.492,0.473-1.087,0.715-1.773,0.715
			c-1.271,0-1.957-0.649-1.957-1.925V18.64H145.918z"/>
		<path fill="#FFFFFF" d="M152.968,20.576c0-0.792,0.263-1.463,0.777-2.024c0.516-0.561,1.202-0.836,2.061-0.836
			s1.545,0.275,2.06,0.836c0.516,0.562,0.778,1.232,0.778,2.024s-0.263,1.463-0.778,2.024c-0.515,0.561-1.201,0.836-2.06,0.836
			s-1.545-0.275-2.061-0.836C153.23,22.039,152.968,21.368,152.968,20.576z M153.951,20.576c0,0.562,0.172,1.034,0.504,1.431
			c0.332,0.396,0.79,0.594,1.351,0.594s1.019-0.198,1.351-0.594c0.331-0.396,0.503-0.869,0.503-1.431
			c0-0.561-0.172-1.034-0.503-1.43c-0.332-0.396-0.79-0.595-1.351-0.595s-1.019,0.198-1.351,0.595
			C154.123,19.542,153.951,20.016,153.951,20.576z"/>
		<path fill="#FFFFFF" d="M160.107,18.64v-0.836h1.534v-1.661l0.961-0.583v2.244h2.815v0.836h-2.815v2.839
			c0,0.748,0.332,1.122,0.996,1.122c0.515,0,0.983-0.22,1.419-0.66l0.354,0.781c-0.492,0.473-1.087,0.715-1.773,0.715
			c-1.271,0-1.957-0.649-1.957-1.925V18.64H160.107z"/>
		<path fill="#FFFFFF" d="M172.455,23.349h-0.778l-0.137-0.781c-0.366,0.518-1.179,0.869-2.037,0.869
			c-1.019,0-1.785-0.594-1.785-1.684c0-1.198,0.973-1.814,2.609-1.814h1.167v-0.242c0-0.804-0.55-1.145-1.327-1.145
			c-0.652,0-1.179,0.385-1.362,0.946l-0.847-0.22c0.263-0.957,1.145-1.562,2.209-1.562c1.419,0,2.288,0.671,2.288,2.135V23.349z
			 M169.651,22.601c0.458,0,0.882-0.144,1.259-0.418c0.39-0.286,0.584-0.715,0.584-1.276V20.73h-1.259
			c-0.973,0-1.533,0.396-1.533,1.022C168.702,22.281,169.068,22.601,169.651,22.601z"/>
		<path fill="#FFFFFF" d="M175.842,16.483h-1.59v-0.836h2.552v5.611c0,0.891,0.4,1.342,1.213,1.342c0.744,0,1.19-0.451,1.339-1.342
			l0.87,0.165c-0.194,1.319-1.007,2.013-2.209,2.013c-1.339,0-2.175-0.803-2.175-2.178V16.483z"/>
		<path fill="#FFFFFF" d="M188.441,20.576c0-0.792,0.263-1.463,0.777-2.024c0.516-0.561,1.202-0.836,2.061-0.836
			s1.545,0.275,2.06,0.836c0.516,0.562,0.778,1.232,0.778,2.024s-0.263,1.463-0.778,2.024c-0.515,0.561-1.201,0.836-2.06,0.836
			s-1.545-0.275-2.061-0.836C188.704,22.039,188.441,21.368,188.441,20.576z M189.425,20.576c0,0.562,0.172,1.034,0.504,1.431
			c0.332,0.396,0.79,0.594,1.351,0.594s1.019-0.198,1.351-0.594c0.331-0.396,0.503-0.869,0.503-1.431
			c0-0.561-0.172-1.034-0.503-1.43c-0.332-0.396-0.79-0.595-1.351-0.595s-1.019,0.198-1.351,0.595
			C189.597,19.542,189.425,20.016,189.425,20.576z"/>
		<path fill="#FFFFFF" d="M200.273,16.692c-0.32-0.197-0.629-0.297-0.927-0.297c-0.561,0-0.847,0.353-0.847,1.045v0.363h2.243v0.836
			H198.5v4.709h-0.962V18.64h-1.625v-0.836h1.625v-0.341c0-1.266,0.596-1.903,1.774-1.903c0.435,0,0.835,0.11,1.201,0.319
			L200.273,16.692z"/>
		<path fill="#FFFFFF" d="M101.508,38.349h-0.778l-0.137-0.781c-0.366,0.518-1.179,0.869-2.037,0.869
			c-1.019,0-1.785-0.594-1.785-1.684c0-1.198,0.973-1.814,2.609-1.814h1.167v-0.242c0-0.804-0.55-1.145-1.327-1.145
			c-0.652,0-1.179,0.385-1.362,0.946l-0.847-0.22c0.263-0.957,1.145-1.562,2.209-1.562c1.419,0,2.288,0.671,2.288,2.135V38.349z
			 M98.704,37.601c0.458,0,0.882-0.144,1.259-0.418c0.39-0.286,0.584-0.715,0.584-1.276V35.73h-1.259
			c-0.973,0-1.533,0.396-1.533,1.022C97.755,37.281,98.121,37.601,98.704,37.601z"/>
		<path fill="#FFFFFF" d="M108.809,36.907c-0.469,1.023-1.281,1.529-2.438,1.529c-0.847,0-1.521-0.275-2.014-0.836
			c-0.492-0.562-0.744-1.232-0.744-2.024s0.252-1.463,0.744-2.024c0.492-0.561,1.167-0.836,2.014-0.836
			c1.156,0,1.969,0.506,2.438,1.529l-0.835,0.33c-0.31-0.683-0.836-1.023-1.603-1.023c-1.11,0-1.773,0.836-1.773,2.024
			s0.663,2.024,1.773,2.024c0.767,0,1.293-0.341,1.603-1.023L108.809,36.907z"/>
		<path fill="#FFFFFF" d="M115.697,38.349h-0.778l-0.137-0.781c-0.366,0.518-1.179,0.869-2.037,0.869
			c-1.019,0-1.785-0.594-1.785-1.684c0-1.198,0.973-1.814,2.609-1.814h1.167v-0.242c0-0.804-0.55-1.145-1.327-1.145
			c-0.652,0-1.179,0.385-1.362,0.946l-0.847-0.22c0.263-0.957,1.145-1.562,2.209-1.562c1.419,0,2.288,0.671,2.288,2.135V38.349z
			 M112.894,37.601c0.458,0,0.882-0.144,1.259-0.418c0.39-0.286,0.584-0.715,0.584-1.276V35.73h-1.259
			c-0.973,0-1.533,0.396-1.533,1.022C111.944,37.281,112.311,37.601,112.894,37.601z"/>
		<path fill="#FFFFFF" d="M121.991,33.508V30.56h0.961v7.789h-0.961v-0.737c-0.354,0.474-1.019,0.825-1.763,0.825
			c-1.659,0-2.644-1.133-2.644-2.86s0.984-2.86,2.644-2.86C120.996,32.716,121.637,33.057,121.991,33.508z M118.569,35.576
			c0,0.605,0.16,1.089,0.47,1.463c0.309,0.374,0.743,0.562,1.281,0.562s0.973-0.188,1.282-0.562
			c0.309-0.374,0.469-0.857,0.469-1.463s-0.16-1.089-0.469-1.463c-0.31-0.374-0.744-0.562-1.282-0.562s-0.973,0.188-1.281,0.562
			C118.729,34.487,118.569,34.971,118.569,35.576z"/>
		<path fill="#FFFFFF" d="M130.242,35.774h-4.51c0.058,1.1,0.756,1.826,1.774,1.826c0.824,0,1.441-0.363,1.854-1.101l0.767,0.386
			c-0.561,1.034-1.43,1.551-2.62,1.551c-0.824,0-1.488-0.275-2.003-0.814c-0.504-0.539-0.755-1.221-0.755-2.046
			c0-0.803,0.251-1.485,0.743-2.035c0.504-0.55,1.179-0.825,2.015-0.825c0.858,0,1.533,0.253,2.014,0.771
			c0.481,0.506,0.722,1.144,0.722,1.903V35.774z M125.802,34.938h3.422c-0.172-0.881-0.79-1.387-1.717-1.387
			C126.603,33.552,125.996,34.069,125.802,34.938z"/>
		<path fill="#FFFFFF" d="M137.703,38.349h-0.962V34.41c0-0.605-0.183-0.848-0.629-0.848c-0.596,0-1.019,0.716-1.019,2.179v2.607
			h-0.962V34.41c0-0.605-0.183-0.848-0.629-0.848c-0.596,0-1.019,0.716-1.019,2.179v2.607h-0.961v-5.545h0.961v0.704
			c0.343-0.528,0.789-0.792,1.351-0.792c0.618,0,1.019,0.297,1.189,0.902c0.31-0.539,0.824-0.902,1.42-0.902
			c0.767,0,1.259,0.484,1.259,1.496V38.349z"/>
		<path fill="#FFFFFF" d="M139.545,33.618v-0.814h2.724v4.73h2.128v0.814h-5.081v-0.814h1.991v-3.916H139.545z M141.719,30.56
			c0.446,0,0.79,0.341,0.79,0.771c0,0.429-0.344,0.748-0.79,0.748s-0.789-0.342-0.789-0.748
			C140.93,30.9,141.272,30.56,141.719,30.56z"/>
		<path fill="#FFFFFF" d="M151.377,36.907c-0.469,1.023-1.281,1.529-2.438,1.529c-0.847,0-1.521-0.275-2.014-0.836
			c-0.492-0.562-0.744-1.232-0.744-2.024s0.252-1.463,0.744-2.024c0.492-0.561,1.167-0.836,2.014-0.836
			c1.156,0,1.969,0.506,2.438,1.529l-0.835,0.33c-0.31-0.683-0.836-1.023-1.603-1.023c-1.11,0-1.773,0.836-1.773,2.024
			s0.663,2.024,1.773,2.024c0.767,0,1.293-0.341,1.603-1.023L151.377,36.907z"/>
		<path fill="#FFFFFF" d="M164.983,33.915l-0.756,0.517c-0.332-0.583-0.801-0.88-1.385-0.88c-0.549,0-0.995,0.242-0.995,0.737
			c0,0.451,0.423,0.682,1.339,0.858c0.492,0.099,0.801,0.165,1.179,0.33c0.538,0.22,0.893,0.594,0.893,1.177
			c0,0.55-0.218,0.99-0.641,1.31c-0.424,0.318-0.95,0.473-1.58,0.473c-1.189,0-2.151-0.583-2.506-1.606l0.916-0.33
			c0.263,0.693,0.812,1.101,1.59,1.101c0.698,0,1.225-0.297,1.225-0.858c0-0.439-0.435-0.594-1.487-0.813
			c-1.179-0.231-1.865-0.628-1.865-1.606c0-0.484,0.194-0.869,0.572-1.166c0.377-0.298,0.847-0.44,1.396-0.44
			C163.827,32.716,164.525,33.112,164.983,33.915z"/>
		<path fill="#FFFFFF" d="M167.157,35.576c0-0.792,0.263-1.463,0.777-2.024c0.516-0.561,1.202-0.836,2.061-0.836
			s1.545,0.275,2.06,0.836c0.516,0.562,0.778,1.232,0.778,2.024s-0.263,1.463-0.778,2.024c-0.515,0.561-1.201,0.836-2.06,0.836
			s-1.545-0.275-2.061-0.836C167.42,37.039,167.157,36.368,167.157,35.576z M168.141,35.576c0,0.562,0.172,1.034,0.504,1.431
			c0.332,0.396,0.79,0.594,1.351,0.594s1.019-0.198,1.351-0.594c0.331-0.396,0.503-0.869,0.503-1.431
			c0-0.561-0.172-1.034-0.503-1.43c-0.332-0.396-0.79-0.595-1.351-0.595s-1.019,0.198-1.351,0.595
			C168.312,34.542,168.141,35.016,168.141,35.576z"/>
		<path fill="#FFFFFF" d="M175.842,31.483h-1.59v-0.836h2.552v5.611c0,0.891,0.4,1.342,1.213,1.342c0.744,0,1.19-0.451,1.339-1.342
			l0.87,0.165c-0.194,1.319-1.007,2.013-2.209,2.013c-1.339,0-2.175-0.803-2.175-2.178V31.483z"/>
		<path fill="#FFFFFF" d="M181.815,32.804h0.961v3.664c0,0.759,0.355,1.133,1.064,1.133c0.47,0,0.87-0.231,1.202-0.693
			c0.332-0.473,0.492-1.089,0.492-1.87v-2.233h0.961v5.545h-0.961v-1.023c-0.424,0.66-1.168,1.111-1.957,1.111
			c-1.179,0-1.763-0.671-1.763-1.771V32.804z"/>
		<path fill="#FFFFFF" d="M188.486,33.64v-0.836h1.534v-1.661l0.961-0.583v2.244h2.815v0.836h-2.815v2.839
			c0,0.748,0.332,1.122,0.996,1.122c0.515,0,0.983-0.22,1.419-0.66l0.354,0.781c-0.492,0.473-1.087,0.715-1.773,0.715
			c-1.271,0-1.957-0.649-1.957-1.925V33.64H188.486z"/>
		<path fill="#FFFFFF" d="M196.303,33.618v-0.814h2.724v4.73h2.128v0.814h-5.081v-0.814h1.991v-3.916H196.303z M198.477,30.56
			c0.446,0,0.79,0.341,0.79,0.771c0,0.429-0.344,0.748-0.79,0.748s-0.789-0.342-0.789-0.748
			C197.688,30.9,198.03,30.56,198.477,30.56z"/>
		<path fill="#FFFFFF" d="M202.631,35.576c0-0.792,0.263-1.463,0.777-2.024c0.516-0.561,1.202-0.836,2.061-0.836
			s1.545,0.275,2.06,0.836c0.516,0.562,0.778,1.232,0.778,2.024s-0.263,1.463-0.778,2.024c-0.515,0.561-1.201,0.836-2.06,0.836
			s-1.545-0.275-2.061-0.836C202.894,37.039,202.631,36.368,202.631,35.576z M203.614,35.576c0,0.562,0.172,1.034,0.504,1.431
			c0.332,0.396,0.79,0.594,1.351,0.594s1.019-0.198,1.351-0.594c0.331-0.396,0.503-0.869,0.503-1.431
			c0-0.561-0.172-1.034-0.503-1.43c-0.332-0.396-0.79-0.595-1.351-0.595s-1.019,0.198-1.351,0.595
			C203.786,34.542,203.614,35.016,203.614,35.576z"/>
		<path fill="#FFFFFF" d="M214.989,38.349h-0.961v-3.663c0-0.76-0.354-1.134-1.064-1.134c-0.47,0-0.87,0.231-1.202,0.704
			c-0.331,0.462-0.491,1.078-0.491,1.859v2.233h-0.962v-5.545h0.962v1.023c0.423-0.66,1.167-1.111,1.956-1.111
			c1.18,0,1.763,0.671,1.763,1.771V38.349z"/>
		<path fill="#FFFFFF" d="M221.741,33.915l-0.756,0.517c-0.332-0.583-0.801-0.88-1.385-0.88c-0.549,0-0.995,0.242-0.995,0.737
			c0,0.451,0.423,0.682,1.339,0.858c0.492,0.099,0.801,0.165,1.179,0.33c0.538,0.22,0.893,0.594,0.893,1.177
			c0,0.55-0.218,0.99-0.641,1.31c-0.424,0.318-0.95,0.473-1.58,0.473c-1.189,0-2.151-0.583-2.506-1.606l0.916-0.33
			c0.263,0.693,0.812,1.101,1.59,1.101c0.698,0,1.225-0.297,1.225-0.858c0-0.439-0.435-0.594-1.487-0.813
			c-1.179-0.231-1.865-0.628-1.865-1.606c0-0.484,0.194-0.869,0.572-1.166c0.377-0.298,0.847-0.44,1.396-0.44
			C220.585,32.716,221.283,33.112,221.741,33.915z"/>
	</g>
	<g>
		<rect x="25.5" y="62.5" fill="#E86C66" stroke="#FFFFFF" stroke-miterlimit="10" width="12" height="13"/>
		<rect x="44.5" y="62.5" fill="#E86C66" stroke="#FFFFFF" stroke-miterlimit="10" width="12" height="13"/>
		<rect x="64.5" y="62.5" fill="none" stroke="#FFFFFF" stroke-miterlimit="10" width="12" height="13"/>
		<rect x="83.5" y="62.5" fill="none" stroke="#FFFFFF" stroke-miterlimit="10" width="12" height="13"/>
		<rect x="102.5" y="62.5" fill="none" stroke="#FFFFFF" stroke-miterlimit="10" width="12" height="13"/>
		<rect x="122.5" y="62.5" fill="none" stroke="#FFFFFF" stroke-miterlimit="10" width="12" height="13"/>
		<rect x="141.5" y="62.5" fill="none" stroke="#FFFFFF" stroke-miterlimit="10" width="12" height="13"/>
		<rect x="160.5" y="62.5" fill="none" stroke="#FFFFFF" stroke-miterlimit="10" width="12" height="13"/>
		<rect x="180.5" y="62.5" fill="none" stroke="#FFFFFF" stroke-miterlimit="10" width="12" height="13"/>
		<rect x="199.5" y="62.5" fill="none" stroke="#FFFFFF" stroke-miterlimit="10" width="12" height="13"/>
	</g>
</g>
</svg>
