<?xml version="1.0" encoding="utf-8"?>
<!-- Generator: Adobe Illustrator 16.0.0, SVG Export Plug-In . SVG Version: 6.00 Build 0)  -->
<!DOCTYPE svg PUBLIC "-//W3C//DTD SVG 1.1//EN" "http://www.w3.org/Graphics/SVG/1.1/DTD/svg11.dtd">
<svg version="1.1" id="Layer_1" xmlns="http://www.w3.org/2000/svg" xmlns:xlink="http://www.w3.org/1999/xlink" x="0px" y="0px"
	 width="242px" height="90px" viewBox="0 0 242 90" enable-background="new 0 0 242 90" xml:space="preserve">
<g id="Layer_1_1_">
</g>
<g id="Layer_3">
	<g>
		<g>
			<path fill="#FFFFFF" d="M233.572,87.593H8.182c-4.416,0-8.009-3.593-8.009-8.009V9.309c0-4.416,3.593-8.009,8.009-8.009h225.39
				c4.416,0,8.01,3.593,8.01,8.009v70.275C241.581,84,237.987,87.593,233.572,87.593z M8.182,2.7c-3.644,0-6.609,2.965-6.609,6.609
				v70.275c0,3.644,2.965,6.608,6.609,6.608h225.39c3.644,0,6.608-2.965,6.608-6.608l0.001-70.275c0-3.644-2.965-6.609-6.609-6.609
				H8.182z"/>
		</g>
	</g>
	<g>
		<rect x="22.878" y="16.807" fill="none" width="196" height="22.666"/>
	</g>
	<g enable-background="new    ">
		<path fill="#FFFFFF" d="M34.477,16.96c0.5,0,0.9,0.4,0.9,0.875c0,0.5-0.4,0.899-0.9,0.899h-3.399v15.271c0,0.5-0.4,0.9-0.899,0.9
			c-0.475,0-0.875-0.4-0.875-0.9V18.734h-3.399c-0.5,0-0.9-0.399-0.9-0.899c0-0.475,0.4-0.875,0.9-0.875H34.477z"/>
		<path fill="#FFFFFF" d="M46.852,33.856c0,0.499-0.4,0.899-0.9,0.899h-7.198c-0.475,0-0.875-0.4-0.875-0.899V17.835
			c0-0.475,0.4-0.875,0.875-0.875h7.124c0.5,0,0.9,0.4,0.9,0.875c0,0.5-0.4,0.899-0.9,0.899h-6.224v5.549h5.499
			c0.5,0,0.9,0.4,0.9,0.9c0,0.475-0.4,0.874-0.9,0.874h-5.499v6.898h6.298C46.452,32.956,46.852,33.356,46.852,33.856z"/>
		<path fill="#FFFFFF" d="M49.479,29.932v-8.147c0-2.725,2.225-4.974,4.974-4.974c2.575,0,4.699,2.024,4.949,4.474
			c0.05,0.475-0.3,0.925-0.8,0.975c-0.475,0.05-0.924-0.3-0.975-0.8c-0.15-1.624-1.524-2.874-3.174-2.874
			c-1.75,0-3.199,1.449-3.199,3.199v8.147c0,1.75,1.45,3.199,3.199,3.199c1.65,0,3.024-1.249,3.174-2.874
			c0.05-0.5,0.5-0.85,0.975-0.8c0.5,0.05,0.85,0.5,0.8,0.975c-0.25,2.574-2.499,4.475-4.949,4.475
			C51.703,34.906,49.479,32.682,49.479,29.932z"/>
		<path fill="#FFFFFF" d="M72.326,17.71v16.296c0,0.5-0.4,0.9-0.9,0.9c-0.475,0-0.875-0.4-0.875-0.9v-7.948h-6.349v7.948
			c0,0.5-0.4,0.9-0.875,0.9c-0.5,0-0.9-0.4-0.9-0.9V17.71c0-0.5,0.4-0.899,0.9-0.899c0.475,0,0.875,0.399,0.875,0.899v6.573h6.349
			V17.71c0-0.5,0.4-0.899,0.875-0.899C71.926,16.811,72.326,17.21,72.326,17.71z"/>
		<path fill="#FFFFFF" d="M84.901,34.406l-6.548-12.972v12.571c0,0.5-0.4,0.9-0.899,0.9c-0.475,0-0.875-0.4-0.875-0.9V17.71
			c0-0.5,0.425-0.899,0.875-0.899c0.325,0,0.649,0.199,0.8,0.5l6.548,12.972V17.71c0-0.5,0.4-0.899,0.899-0.899
			c0.5,0,0.9,0.399,0.9,0.899v16.296c0,0.425-0.3,0.775-0.7,0.875c-0.075,0.025-0.125,0.025-0.2,0.025
			C85.376,34.906,85.051,34.73,84.901,34.406z"/>
		<path fill="#FFFFFF" d="M98.202,33.856c0,0.499-0.4,0.899-0.9,0.899h-6.249c-0.5,0-0.899-0.4-0.899-0.899c0-0.5,0.4-0.9,0.899-0.9
			h2.25V18.76h-2.25c-0.5,0-0.899-0.4-0.899-0.899c0-0.5,0.4-0.9,0.899-0.9h6.249c0.5,0,0.9,0.4,0.9,0.9
			c0,0.499-0.4,0.899-0.9,0.899h-2.224v14.196h2.224C97.802,32.956,98.202,33.356,98.202,33.856z"/>
		<path fill="#FFFFFF" d="M101.503,29.932v-8.147c0-2.725,2.225-4.974,4.974-4.974c2.575,0,4.699,2.024,4.949,4.474
			c0.05,0.475-0.3,0.925-0.8,0.975c-0.475,0.05-0.924-0.3-0.975-0.8c-0.15-1.624-1.524-2.874-3.174-2.874
			c-1.75,0-3.199,1.449-3.199,3.199v8.147c0,1.75,1.45,3.199,3.199,3.199c1.65,0,3.024-1.249,3.174-2.874
			c0.05-0.5,0.5-0.85,0.975-0.8c0.5,0.05,0.85,0.5,0.8,0.975c-0.25,2.574-2.499,4.475-4.949,4.475
			C103.728,34.906,101.503,32.682,101.503,29.932z"/>
		<path fill="#FFFFFF" d="M123.751,34.906c-0.375,0-0.7-0.25-0.825-0.65l-1.125-3.649h-5.948l-1.125,3.649
			c-0.125,0.375-0.475,0.65-0.85,0.65c-0.525,0-1.05-0.551-0.85-1.15l4.924-16.32c0.125-0.375,0.475-0.625,0.875-0.625
			c0.375,0,0.725,0.25,0.85,0.625l4.948,16.32C124.75,34.281,124.375,34.906,123.751,34.906z M121.251,28.832l-2.424-8.072
			l-2.45,8.072H121.251z"/>
		<path fill="#FFFFFF" d="M136.5,33.706c0,0.5-0.399,0.899-0.899,0.899h-7.272c-0.5,0-0.9-0.399-0.9-0.899V17.71
			c0-0.5,0.4-0.899,0.9-0.899c0.499,0,0.874,0.399,0.874,0.899v15.097h6.398C136.101,32.807,136.5,33.206,136.5,33.706z"/>
		<path fill="#FFFFFF" d="M153.426,33.856c0,0.499-0.4,0.899-0.9,0.899h-6.248c-0.5,0-0.899-0.4-0.899-0.899
			c0-0.5,0.399-0.9,0.899-0.9h2.25V18.76h-2.25c-0.5,0-0.899-0.4-0.899-0.899c0-0.5,0.399-0.9,0.899-0.9h6.248
			c0.5,0,0.9,0.4,0.9,0.9c0,0.499-0.4,0.899-0.9,0.899h-2.224v14.196h2.224C153.025,32.956,153.426,33.356,153.426,33.856z"/>
		<path fill="#FFFFFF" d="M155.978,30.457c0-0.5,0.399-0.9,0.875-0.9c0.5,0,0.899,0.4,0.899,0.9c0,1.3,1.075,2.674,3.1,2.674
			c1.924,0,3.149-1.05,3.149-2.624c0-1.175-0.149-2.175-2.05-3.349c-2.274-1.325-2.799-1.625-3.324-1.975
			c-1.524-1.05-2.499-2.274-2.499-4.1c0-2.674,2.175-4.273,4.674-4.273c2.624,0,4.749,1.899,4.749,4.448c0,0.5-0.4,0.9-0.9,0.9
			s-0.899-0.4-0.899-0.9c0-1.324-1-2.674-2.949-2.674c-1.999,0-2.874,1.25-2.874,2.475c0,0.624,0,1.449,1.574,2.574
			c0.375,0.274,1.375,0.875,3.324,1.999c1.924,1.1,2.975,2.725,2.975,4.874c0,2.8-2.425,4.399-4.949,4.399
			C157.803,34.906,155.978,32.656,155.978,30.457z"/>
		<path fill="#FFFFFF" d="M168.053,30.457c0-0.5,0.399-0.9,0.875-0.9c0.5,0,0.899,0.4,0.899,0.9c0,1.3,1.075,2.674,3.099,2.674
			c1.925,0,3.15-1.05,3.15-2.624c0-1.175-0.15-2.175-2.051-3.349c-2.273-1.325-2.799-1.625-3.324-1.975
			c-1.523-1.05-2.498-2.274-2.498-4.1c0-2.674,2.174-4.273,4.674-4.273c2.623,0,4.748,1.899,4.748,4.448c0,0.5-0.4,0.9-0.9,0.9
			c-0.499,0-0.898-0.4-0.898-0.9c0-1.324-1-2.674-2.949-2.674c-2,0-2.875,1.25-2.875,2.475c0,0.624,0,1.449,1.574,2.574
			c0.375,0.274,1.375,0.875,3.324,1.999c1.925,1.1,2.975,2.725,2.975,4.874c0,2.8-2.424,4.399-4.949,4.399
			C169.877,34.906,168.053,32.656,168.053,30.457z"/>
		<path fill="#FFFFFF" d="M181.127,29.932V17.71c0-0.5,0.399-0.899,0.899-0.899c0.475,0,0.874,0.399,0.874,0.899v12.222
			c0,1.75,1.45,3.175,3.199,3.175c1.775,0,3.199-1.425,3.199-3.175V17.71c0-0.5,0.4-0.899,0.9-0.899
			c0.475,0,0.875,0.399,0.875,0.899v12.222c0,2.725-2.225,4.975-4.975,4.975C183.352,34.906,181.127,32.656,181.127,29.932z"/>
		<path fill="#FFFFFF" d="M204.299,33.856c0,0.499-0.399,0.899-0.898,0.899h-7.199c-0.475,0-0.875-0.4-0.875-0.899V17.835
			c0-0.475,0.4-0.875,0.875-0.875h7.123c0.5,0,0.9,0.4,0.9,0.875c0,0.5-0.4,0.899-0.9,0.899h-6.223v5.549h5.498
			c0.5,0,0.9,0.4,0.9,0.9c0,0.475-0.4,0.874-0.9,0.874h-5.498v6.898h6.299C203.899,32.956,204.299,33.356,204.299,33.856z"/>
		<path fill="#FFFFFF" d="M206.176,30.457c0-0.5,0.4-0.9,0.875-0.9c0.5,0,0.9,0.4,0.9,0.9c0,1.3,1.074,2.674,3.1,2.674
			c1.924,0,3.148-1.05,3.148-2.624c0-1.175-0.15-2.175-2.049-3.349c-2.275-1.325-2.8-1.625-3.324-1.975
			c-1.525-1.05-2.5-2.274-2.5-4.1c0-2.674,2.175-4.273,4.674-4.273c2.625,0,4.749,1.899,4.749,4.448c0,0.5-0.399,0.9-0.899,0.9
			s-0.9-0.4-0.9-0.9c0-1.324-1-2.674-2.949-2.674c-1.999,0-2.874,1.25-2.874,2.475c0,0.624,0,1.449,1.575,2.574
			c0.375,0.274,1.374,0.875,3.324,1.999c1.924,1.1,2.974,2.725,2.974,4.874c0,2.8-2.425,4.399-4.948,4.399
			C208.001,34.906,206.176,32.656,206.176,30.457z"/>
	</g>
	<g>
		<g>
			<path fill="none" stroke="#FFFFFF" stroke-width="0.5949" stroke-miterlimit="10" d="M90.416,40.641"/>
		</g>
	</g>
	<g>
		<rect x="27" y="46.3" fill="#FFFFFF" width="188" height="1.4"/>
	</g>
	<g>
		<g>
			<rect x="22.877" y="61.004" fill="none" width="196" height="18.111"/>
		</g>
		<g enable-background="new    ">
			<path fill="#FFFFFF" d="M71.338,69.5H70.33v-3.994c0-0.827-0.372-1.235-1.115-1.235c-0.492,0-0.912,0.252-1.259,0.768
				c-0.348,0.504-0.516,1.176-0.516,2.027V69.5h-1.007v-6.045h1.007v1.115c0.444-0.719,1.223-1.211,2.051-1.211
				c1.235,0,1.847,0.731,1.847,1.931V69.5z"/>
			<path fill="#FFFFFF" d="M78.813,69.5h-0.815l-0.144-0.852c-0.384,0.563-1.235,0.947-2.135,0.947
				c-1.067,0-1.871-0.647-1.871-1.835c0-1.307,1.02-1.979,2.735-1.979h1.223v-0.264c0-0.876-0.576-1.248-1.391-1.248
				c-0.684,0-1.235,0.42-1.427,1.032l-0.888-0.24c0.276-1.044,1.2-1.703,2.315-1.703c1.487,0,2.398,0.731,2.398,2.327V69.5z
				 M75.875,68.685c0.48,0,0.924-0.156,1.319-0.456c0.408-0.312,0.612-0.779,0.612-1.391v-0.192h-1.319
				c-1.02,0-1.607,0.432-1.607,1.115C74.88,68.337,75.264,68.685,75.875,68.685z"/>
			<path fill="#FFFFFF" d="M85.654,65.374c-0.084-0.731-0.479-1.104-1.163-1.104c-0.564,0-1.056,0.265-1.451,0.804
				c-0.396,0.528-0.6,1.271-0.6,2.243V69.5h-1.007v-6.045h1.007v1.115c0.516-0.803,1.26-1.211,2.231-1.211
				c1.199,0,1.931,0.72,1.991,2.015H85.654z"/>
			<path fill="#FFFFFF" d="M93.094,65.374c-0.084-0.731-0.479-1.104-1.163-1.104c-0.564,0-1.056,0.265-1.451,0.804
				c-0.396,0.528-0.6,1.271-0.6,2.243V69.5h-1.007v-6.045h1.007v1.115c0.516-0.803,1.259-1.211,2.231-1.211
				c1.199,0,1.931,0.72,1.991,2.015H93.094z"/>
			<path fill="#FFFFFF" d="M95.581,66.478c0-0.863,0.276-1.595,0.815-2.207c0.54-0.611,1.259-0.911,2.159-0.911
				c0.9,0,1.619,0.3,2.159,0.911c0.54,0.612,0.815,1.344,0.815,2.207s-0.276,1.596-0.815,2.207c-0.54,0.611-1.259,0.911-2.159,0.911
				c-0.899,0-1.619-0.3-2.159-0.911S95.581,67.341,95.581,66.478z M96.612,66.478c0,0.611,0.18,1.128,0.528,1.56
				s0.828,0.647,1.415,0.647c0.588,0,1.067-0.216,1.416-0.647c0.348-0.432,0.528-0.948,0.528-1.56s-0.18-1.127-0.528-1.559
				c-0.348-0.433-0.828-0.648-1.416-0.648c-0.587,0-1.067,0.216-1.415,0.648C96.792,65.351,96.612,65.866,96.612,66.478z"/>
			<path fill="#FFFFFF" d="M108.357,63.455h1.032L108.07,69.5h-0.912l-1.164-4.246l-1.163,4.246h-0.912l-1.319-6.045h1.032
				l0.827,4.474l1.032-3.874h1.007l1.031,3.874L108.357,63.455z"/>
			<path fill="#FFFFFF" d="M122.613,64.223v-3.214h1.008V69.5h-1.008v-0.804c-0.371,0.516-1.066,0.899-1.847,0.899
				c-1.739,0-2.771-1.235-2.771-3.118s1.032-3.118,2.771-3.118C121.57,63.359,122.242,63.731,122.613,64.223z M119.028,66.478
				c0,0.66,0.168,1.188,0.492,1.596c0.324,0.407,0.779,0.611,1.343,0.611c0.563,0,1.02-0.204,1.343-0.611
				c0.323-0.408,0.491-0.936,0.491-1.596c0-0.659-0.168-1.188-0.491-1.595c-0.323-0.408-0.78-0.612-1.343-0.612
				c-0.564,0-1.02,0.204-1.343,0.612C119.196,65.29,119.028,65.818,119.028,66.478z"/>
			<path fill="#FFFFFF" d="M126.145,64.343v-0.888h2.854v5.157h2.23V69.5h-5.324v-0.888h2.086v-4.27H126.145z M128.422,61.009
				c0.469,0,0.828,0.372,0.828,0.84s-0.359,0.815-0.828,0.815c-0.467,0-0.826-0.372-0.826-0.815
				C127.596,61.381,127.955,61.009,128.422,61.009z"/>
			<path fill="#FFFFFF" d="M137.938,64.667l-0.791,0.563c-0.349-0.636-0.84-0.96-1.451-0.96c-0.576,0-1.044,0.265-1.044,0.804
				c0,0.492,0.443,0.744,1.403,0.936c0.516,0.108,0.84,0.18,1.234,0.36c0.564,0.239,0.936,0.647,0.936,1.283
				c0,0.6-0.227,1.079-0.671,1.427s-0.995,0.516-1.655,0.516c-1.247,0-2.255-0.636-2.627-1.751l0.96-0.359
				c0.276,0.755,0.852,1.199,1.667,1.199c0.731,0,1.283-0.324,1.283-0.936c0-0.479-0.455-0.647-1.559-0.888
				c-1.236-0.252-1.955-0.684-1.955-1.751c0-0.527,0.203-0.947,0.6-1.271c0.396-0.323,0.887-0.479,1.463-0.479
				C136.727,63.359,137.457,63.791,137.938,64.667z"/>
			<path fill="#FFFFFF" d="M140.268,64.367v-0.912h1.607v-1.811l1.008-0.636v2.446h2.95v0.912h-2.95v3.094
				c0,0.815,0.348,1.224,1.043,1.224c0.54,0,1.031-0.24,1.487-0.72l0.372,0.852c-0.516,0.516-1.14,0.779-1.859,0.779
				c-1.331,0-2.051-0.707-2.051-2.099v-3.13H140.268z"/>
			<path fill="#FFFFFF" d="M153.213,69.5h-0.815l-0.144-0.852c-0.385,0.563-1.236,0.947-2.135,0.947
				c-1.068,0-1.871-0.647-1.871-1.835c0-1.307,1.02-1.979,2.734-1.979h1.223v-0.264c0-0.876-0.575-1.248-1.391-1.248
				c-0.684,0-1.235,0.42-1.428,1.032l-0.887-0.24c0.275-1.044,1.199-1.703,2.314-1.703c1.487,0,2.398,0.731,2.398,2.327V69.5z
				 M150.274,68.685c0.479,0,0.924-0.156,1.319-0.456c0.408-0.312,0.611-0.779,0.611-1.391v-0.192h-1.318
				c-1.02,0-1.607,0.432-1.607,1.115C149.279,68.337,149.663,68.685,150.274,68.685z"/>
			<path fill="#FFFFFF" d="M160.617,69.5h-1.008v-3.994c0-0.827-0.371-1.235-1.115-1.235c-0.492,0-0.912,0.252-1.26,0.768
				c-0.348,0.504-0.516,1.176-0.516,2.027V69.5h-1.007v-6.045h1.007v1.115c0.444-0.719,1.224-1.211,2.051-1.211
				c1.236,0,1.848,0.731,1.848,1.931V69.5z"/>
			<path fill="#FFFFFF" d="M168.309,67.929c-0.492,1.115-1.344,1.667-2.555,1.667c-0.887,0-1.595-0.3-2.11-0.911
				c-0.517-0.611-0.78-1.344-0.78-2.207s0.264-1.595,0.78-2.207c0.516-0.611,1.224-0.911,2.11-0.911
				c1.211,0,2.062,0.552,2.555,1.667l-0.875,0.36c-0.324-0.744-0.876-1.116-1.68-1.116c-1.163,0-1.859,0.912-1.859,2.207
				c0,1.296,0.696,2.207,1.859,2.207c0.804,0,1.355-0.372,1.68-1.115L168.309,67.929z"/>
			<path fill="#FFFFFF" d="M175.904,66.693h-4.725c0.06,1.199,0.791,1.991,1.858,1.991c0.864,0,1.511-0.396,1.942-1.199l0.805,0.42
				c-0.588,1.127-1.5,1.69-2.747,1.69c-0.863,0-1.56-0.3-2.099-0.888c-0.527-0.587-0.791-1.331-0.791-2.23
				c0-0.875,0.264-1.619,0.779-2.219c0.527-0.6,1.234-0.899,2.11-0.899c0.899,0,1.607,0.275,2.11,0.84
				c0.504,0.552,0.756,1.247,0.756,2.074V66.693z M171.251,65.782h3.587c-0.181-0.96-0.828-1.512-1.8-1.512
				C172.091,64.271,171.455,64.835,171.251,65.782z"/>
		</g>
	</g>
</g>
</svg>
