<?xml version="1.0" encoding="utf-8"?>
<!-- Generator: Adobe Illustrator 16.0.0, SVG Export Plug-In . SVG Version: 6.00 Build 0)  -->
<!DOCTYPE svg PUBLIC "-//W3C//DTD SVG 1.1//EN" "http://www.w3.org/Graphics/SVG/1.1/DTD/svg11.dtd">
<svg version="1.1" id="Layer_1" xmlns="http://www.w3.org/2000/svg" xmlns:xlink="http://www.w3.org/1999/xlink" x="0px" y="0px"
	 width="621.667px" height="633px" viewBox="0 0 621.667 633" enable-background="new 0 0 621.667 633" xml:space="preserve">
<g id="Layer_1_1_">
</g>
<g>
	<g>
		
			<line fill="none" stroke="#FFFFFF" stroke-width="1.5" stroke-linecap="round" stroke-linejoin="round" x1="196" y1="54.5" x2="193" y2="54.5"/>
		
			<path fill="none" stroke="#FFFFFF" stroke-width="1.5" stroke-linecap="round" stroke-linejoin="round" stroke-dasharray="4.9838,4.9838" d="
			M188,54.5H8.686c-3.85,0-7,3.116-7,6.966l-0.24,564.31"/>
		
			<line fill="none" stroke="#FFFFFF" stroke-width="1.5" stroke-linecap="round" stroke-linejoin="round" x1="1.5" y1="628" x2="1.5" y2="631"/>
	</g>
</g>
<g>
	
		<path fill="none" stroke="#FFFFFF" stroke-width="1.5" stroke-linecap="round" stroke-linejoin="round" stroke-dasharray="5.0322,5.0322" d="
		M282.5,97.477c0,2.773-2.249,5.022-5.023,5.022h-76.953c-2.773,0-5.022-2.249-5.022-5.022V8.523c0-2.774,2.249-5.023,5.022-5.023
		h76.953c2.774,0,5.023,2.249,5.023,5.023V97.477z"/>
</g>
<g>
	<g>
		<g>
			
				<line fill="none" stroke="#FFFFFF" stroke-width="1.5" stroke-linecap="round" stroke-linejoin="round" x1="449" y1="54.5" x2="452" y2="54.5"/>
			
				<path fill="none" stroke="#FFFFFF" stroke-width="1.5" stroke-linecap="round" stroke-linejoin="round" stroke-dasharray="5.0132,5.0132" d="
				M457,54.5h154.016c3.85,0,7,3.116,7,6.966l0.086,564.295"/>
			
				<line fill="none" stroke="#FFFFFF" stroke-width="1.5" stroke-linecap="round" stroke-linejoin="round" x1="618.5" y1="628" x2="618.5" y2="631"/>
		</g>
	</g>
	<g>
		
			<path fill="none" stroke="#FFFFFF" stroke-width="1.5" stroke-linecap="round" stroke-linejoin="round" stroke-dasharray="5.0281,5.0281" d="
			M448.5,125.477c0,2.773-2.249,5.022-5.023,5.022h-93.953c-2.773,0-5.022-2.249-5.022-5.022V8.523c0-2.774,2.249-5.023,5.022-5.023
			h93.953c2.773,0,5.023,2.249,5.023,5.023V125.477z"/>
	</g>
</g>
</svg>
