<?xml version="1.0" encoding="utf-8"?>
<!-- Generator: Adobe Illustrator 16.0.0, SVG Export Plug-In . SVG Version: 6.00 Build 0)  -->
<!DOCTYPE svg PUBLIC "-//W3C//DTD SVG 1.1//EN" "http://www.w3.org/Graphics/SVG/1.1/DTD/svg11.dtd">
<svg version="1.1" xmlns="http://www.w3.org/2000/svg" xmlns:xlink="http://www.w3.org/1999/xlink" x="0px" y="0px" width="612px"
	 height="410px" viewBox="0 0 612 410" enable-background="new 0 0 612 410" xml:space="preserve">
<g id="Layer_1">
</g>
<g id="Layer_3">
	<g>
		
			<path fill="none" stroke="#FFFFFF" stroke-width="3" stroke-linecap="round" stroke-linejoin="round" stroke-dasharray="4.874,4.874" d="
			M242.5,49.226c0,1.256-1.018,2.274-2.274,2.274h-26.452c-1.256,0-2.274-1.018-2.274-2.274V4.774c0-1.256,1.018-2.274,2.274-2.274
			h26.452c1.256,0,2.274,1.018,2.274,2.274V49.226z"/>
	</g>
	<g>
		
			<path fill="none" stroke="#FFFFFF" stroke-width="3" stroke-linecap="round" stroke-linejoin="round" stroke-dasharray="4.9857,4.9857" d="
			M461.5,144.416c0,3.36-2.724,6.084-6.084,6.084h-84.832c-3.36,0-6.084-2.724-6.084-6.084V43.584c0-3.36,2.724-6.084,6.084-6.084
			h84.832c3.36,0,6.084,2.724,6.084,6.084V144.416z"/>
	</g>
	<g>
		<g>
			
				<line fill="none" stroke="#FFFFFF" stroke-width="3" stroke-linecap="round" stroke-linejoin="round" x1="2.5" y1="408" x2="2.5" y2="405"/>
			
				<path fill="none" stroke="#FFFFFF" stroke-width="3" stroke-linecap="round" stroke-linejoin="round" stroke-dasharray="5.0237,5.0237" d="
				M2.594,399.737L2.556,272.521c0-3.85,3.104-7.021,6.954-7.021h63.869c3.85,0,6.987-3.01,6.971-6.859L79.408,31.669
				c-0.016-3.85,3.121-7.169,6.971-7.169H206"/>
			
				<line fill="none" stroke="#FFFFFF" stroke-width="3" stroke-linecap="round" stroke-linejoin="round" x1="208" y1="24.5" x2="211" y2="24.5"/>
		</g>
	</g>
	<g>
		<g>
			
				<line fill="none" stroke="#FFFFFF" stroke-width="3" stroke-linecap="round" stroke-linejoin="round" x1="460.914" y1="91.29" x2="463.414" y2="91.279"/>
			
				<path fill="none" stroke="#FFFFFF" stroke-width="3" stroke-linecap="round" stroke-linejoin="round" stroke-dasharray="5.0602,5.0602" d="
				M468.475,91.138l80.818-0.282c3.85-0.017,7,3.15,7,7l-0.006,156.686c0,3.85,3.15,6.958,7,6.958H602.5c3.85,0,7,3.264,7,7.113V361
				"/>
			
				<line fill="none" stroke="#FFFFFF" stroke-width="3" stroke-linecap="round" stroke-linejoin="round" x1="609.5" y1="364" x2="609.5" y2="366"/>
		</g>
	</g>
</g>
</svg>
