<?xml version="1.0" encoding="utf-8"?>
<!-- Generator: Adobe Illustrator 16.0.0, SVG Export Plug-In . SVG Version: 6.00 Build 0)  -->
<!DOCTYPE svg PUBLIC "-//W3C//DTD SVG 1.1//EN" "http://www.w3.org/Graphics/SVG/1.1/DTD/svg11.dtd">
<svg version="1.1" xmlns="http://www.w3.org/2000/svg" xmlns:xlink="http://www.w3.org/1999/xlink" x="0px" y="0px" width="612px"
	 height="253px" viewBox="0 0 612 253" enable-background="new 0 0 612 253" xml:space="preserve">
<g id="Layer_1">
</g>
<g id="Layer_3">
	<g>
		
			<path fill="none" stroke="#FFFFFF" stroke-width="3" stroke-linecap="round" stroke-linejoin="round" stroke-dasharray="4.8637,4.8637" d="
			M215.5,71.302c0,0.938-0.76,1.698-1.698,1.698h-19.604c-0.938,0-1.698-0.76-1.698-1.698V37.698c0-0.938,0.76-1.698,1.698-1.698
			h19.604c0.938,0,1.698,0.76,1.698,1.698V71.302z"/>
	</g>
	<g>
		
			<path fill="none" stroke="#FFFFFF" stroke-width="3" stroke-linecap="round" stroke-linejoin="round" stroke-dasharray="5.0044,5.0044" d="
			M500.5,67.294c0,2.599-2.107,4.706-4.706,4.706h-87.588c-2.599,0-4.706-2.107-4.706-4.706V8.706c0-2.599,2.107-4.706,4.706-4.706
			h87.588c2.599,0,4.706,2.107,4.706,4.706V67.294z"/>
	</g>
	<g>
		<g>
			
				<line fill="none" stroke="#FFFFFF" stroke-width="3" stroke-linecap="round" stroke-linejoin="round" x1="2.5" y1="250.5" x2="2.5" y2="247.5"/>
			
				<path fill="none" stroke="#FFFFFF" stroke-width="3" stroke-linecap="round" stroke-linejoin="round" stroke-dasharray="5.0555,5.0555" d="
				M2.525,242.304L2.521,59.07C2.522,55.22,5.66,52,9.51,52H187"/>
			
				<line fill="none" stroke="#FFFFFF" stroke-width="3" stroke-linecap="round" stroke-linejoin="round" x1="189" y1="52" x2="192" y2="52"/>
		</g>
	</g>
	<g>
		<g>
			
				<line fill="none" stroke="#FFFFFF" stroke-width="3" stroke-linecap="round" stroke-linejoin="round" x1="500" y1="43" x2="502" y2="43"/>
			
				<path fill="none" stroke="#FFFFFF" stroke-width="3" stroke-linecap="round" stroke-linejoin="round" stroke-dasharray="5.0418,5.0418" d="
				M507,43h95.5c3.85,0,7,3.263,7,7.113V203.5"/>
			
				<line fill="none" stroke="#FFFFFF" stroke-width="3" stroke-linecap="round" stroke-linejoin="round" x1="609.5" y1="206.5" x2="609.5" y2="208.5"/>
		</g>
	</g>
</g>
</svg>
