<?xml version="1.0" encoding="utf-8"?>
<!-- Generator: Adobe Illustrator 16.0.0, SVG Export Plug-In . SVG Version: 6.00 Build 0)  -->
<!DOCTYPE svg PUBLIC "-//W3C//DTD SVG 1.1//EN" "http://www.w3.org/Graphics/SVG/1.1/DTD/svg11.dtd">
<svg version="1.1" xmlns="http://www.w3.org/2000/svg" xmlns:xlink="http://www.w3.org/1999/xlink" x="0px" y="0px" width="612px"
	 height="635px" viewBox="0 0 612 635" enable-background="new 0 0 612 635" xml:space="preserve">
<g id="Layer_1">
</g>
<g id="Layer_3">
	<g>
		
			<path fill="none" stroke="#FFFFFF" stroke-width="3" stroke-linecap="round" stroke-linejoin="round" stroke-dasharray="5.0116,5.0116" d="
			M251.5,68.032c0,1.363-1.105,2.468-2.468,2.468h-28.064c-1.363,0-2.468-1.105-2.468-2.468V18.968c0-1.363,1.105-2.468,2.468-2.468
			h28.064c1.363,0,2.468,1.105,2.468,2.468V68.032z"/>
	</g>
	<g>
		
			<path fill="none" stroke="#FFFFFF" stroke-width="3" stroke-linecap="round" stroke-linejoin="round" stroke-dasharray="4.969,4.969" d="
			M420.5,125.037c0,3.57-2.894,6.463-6.464,6.463h-84.072c-3.57,0-6.464-2.894-6.464-6.463V9.963c0-3.57,2.894-6.463,6.464-6.463
			h84.072c3.57,0,6.464,2.894,6.464,6.463V125.037z"/>
	</g>
	<g>
		<g>
			
				<line fill="none" stroke="#FFFFFF" stroke-width="3" stroke-linecap="round" stroke-linejoin="round" x1="3.5" y1="632" x2="3.5" y2="629"/>
			
				<path fill="none" stroke="#FFFFFF" stroke-width="3" stroke-linecap="round" stroke-linejoin="round" stroke-dasharray="4.9701,4.9701" d="
				M3.492,624.185l0.013-265.663c0-3.85,3.154-7.021,7.004-7.021h63.869c3.85,0,6.989-3.01,6.977-6.859L80.402,60.669
				c-0.013-3.85,3.126-7.169,6.977-7.169H214"/>
			
				<line fill="none" stroke="#FFFFFF" stroke-width="3" stroke-linecap="round" stroke-linejoin="round" x1="216" y1="53.5" x2="219" y2="53.5"/>
		</g>
	</g>
	<g>
		<g>
			
				<line fill="none" stroke="#FFFFFF" stroke-width="3" stroke-linecap="round" stroke-linejoin="round" x1="421.732" y1="66.29" x2="424.232" y2="66.283"/>
			
				<path fill="none" stroke="#FFFFFF" stroke-width="3" stroke-linecap="round" stroke-linejoin="round" stroke-dasharray="5.0292,5.0292" d="
				M429.262,66.14l121.031-0.296c3.85-0.012,7,3.161,7,7.011l-0.006,275.687c0,3.85,3.15,6.959,7,6.959h39.212
				c3.85,0,7.001,3.264,7.001,7.113V585"/>
			
				<line fill="none" stroke="#FFFFFF" stroke-width="3" stroke-linecap="round" stroke-linejoin="round" x1="610.5" y1="588" x2="610.5" y2="590"/>
		</g>
	</g>
</g>
</svg>
