<?xml version="1.0" encoding="utf-8"?>
<!-- Generator: Adobe Illustrator 16.0.0, SVG Export Plug-In . SVG Version: 6.00 Build 0)  -->
<!DOCTYPE svg PUBLIC "-//W3C//DTD SVG 1.1//EN" "http://www.w3.org/Graphics/SVG/1.1/DTD/svg11.dtd">
<svg version="1.1" id="Layer_1" xmlns="http://www.w3.org/2000/svg" xmlns:xlink="http://www.w3.org/1999/xlink" x="0px" y="0px"
	 width="621.834px" height="740px" viewBox="0 0 621.834 740" enable-background="new 0 0 621.834 740" xml:space="preserve">
<g id="Layer_1_1_">
</g>
<g>
	<g>
		
			<line fill="none" stroke="#FFFFFF" stroke-width="1.5" stroke-linecap="round" stroke-linejoin="round" x1="215" y1="43.5" x2="213" y2="43.5"/>
		
			<path fill="none" stroke="#FFFFFF" stroke-width="1.5" stroke-linecap="round" stroke-linejoin="round" stroke-dasharray="4.9803,4.9803" d="
			M208,43.5H8.686c-3.85,0-7,2.904-7,6.754l0.009,683.843"/>
		
			<line fill="none" stroke="#FFFFFF" stroke-width="1.5" stroke-linecap="round" stroke-linejoin="round" x1="1.5" y1="736" x2="1.5" y2="739"/>
	</g>
</g>
<g>
	
		<path fill="none" stroke="#FFFFFF" stroke-width="1.5" stroke-linecap="round" stroke-linejoin="round" stroke-dasharray="4.9585,4.9585" d="
		M282.5,68.477c0,2.773-2.249,5.022-5.023,5.022h-56.953c-2.773,0-5.022-2.249-5.022-5.022V22.523c0-2.774,2.249-5.023,5.022-5.023
		h56.953c2.774,0,5.023,2.249,5.023,5.023V68.477z"/>
</g>
<g>
	<g>
		<g>
			
				<line fill="none" stroke="#FFFFFF" stroke-width="1.5" stroke-linecap="round" stroke-linejoin="round" x1="449" y1="43.5" x2="452" y2="43.5"/>
			
				<path fill="none" stroke="#FFFFFF" stroke-width="1.5" stroke-linecap="round" stroke-linejoin="round" stroke-dasharray="5.008,5.008" d="
				M457,43.5h154.016c3.85,0,7,2.904,7,6.754l0.089,683.828"/>
			
				<line fill="none" stroke="#FFFFFF" stroke-width="1.5" stroke-linecap="round" stroke-linejoin="round" x1="618.5" y1="736" x2="618.5" y2="739"/>
		</g>
	</g>
	<g>
		
			<path fill="none" stroke="#FFFFFF" stroke-width="1.5" stroke-linecap="round" stroke-linejoin="round" stroke-dasharray="4.958,4.958" d="
			M448.5,95.477c0,2.773-2.249,5.022-5.023,5.022h-93.953c-2.773,0-5.022-2.249-5.022-5.022V6.523c0-2.774,2.249-5.023,5.022-5.023
			h93.953c2.773,0,5.023,2.249,5.023,5.023V95.477z"/>
	</g>
</g>
</svg>
