<?xml version="1.0" encoding="utf-8"?>
<!-- Generator: Adobe Illustrator 16.0.0, SVG Export Plug-In . SVG Version: 6.00 Build 0)  -->
<!DOCTYPE svg PUBLIC "-//W3C//DTD SVG 1.1//EN" "http://www.w3.org/Graphics/SVG/1.1/DTD/svg11.dtd">
<svg version="1.1" xmlns="http://www.w3.org/2000/svg" xmlns:xlink="http://www.w3.org/1999/xlink" x="0px" y="0px" width="612px"
	 height="145px" viewBox="0 0 612 145" enable-background="new 0 0 612 145" xml:space="preserve">
<g id="Layer_1">
</g>
<g id="Layer_3">
	<g>
		
			<path fill="none" stroke="#FFFFFF" stroke-width="3" stroke-linecap="round" stroke-linejoin="round" stroke-dasharray="5.115,5.115" d="
			M111.5,77.021c0,0.817-0.663,1.479-1.479,1.479H92.979c-0.817,0-1.479-0.662-1.479-1.479V46.979c0-0.817,0.663-1.479,1.479-1.479
			h17.041c0.817,0,1.479,0.663,1.479,1.479V77.021z"/>
	</g>
	<g>
		
			<path fill="none" stroke="#FFFFFF" stroke-width="3" stroke-linecap="round" stroke-linejoin="round" stroke-dasharray="4.9708,4.9708" d="
			M561.5,53.702c0,2.098-1.7,3.798-3.798,3.798h-70.404c-2.098,0-3.798-1.7-3.798-3.798V6.298c0-2.098,1.7-3.798,3.798-3.798h70.404
			c2.098,0,3.798,1.7,3.798,3.798V53.702z"/>
	</g>
	<g>
		<g>
			
				<line fill="none" stroke="#FFFFFF" stroke-width="3" stroke-linecap="round" stroke-linejoin="round" x1="2.5" y1="143" x2="2.5" y2="140"/>
			
				<path fill="none" stroke="#FFFFFF" stroke-width="3" stroke-linecap="round" stroke-linejoin="round" stroke-dasharray="4.8758,4.8758" d="
				M2.308,135.377L2.412,69.57c0-3.85,3.248-7.07,7.098-7.07H86"/>
			
				<line fill="none" stroke="#FFFFFF" stroke-width="3" stroke-linecap="round" stroke-linejoin="round" x1="89" y1="62.5" x2="91" y2="62.5"/>
		</g>
	</g>
	<g>
		<g>
			
				<line fill="none" stroke="#FFFFFF" stroke-width="3" stroke-linecap="round" stroke-linejoin="round" x1="561" y1="29.5" x2="564" y2="29.5"/>
			
				<path fill="none" stroke="#FFFFFF" stroke-width="3" stroke-linecap="round" stroke-linejoin="round" stroke-dasharray="4.8625,4.8625" d="
				M569,29.5h33.5c3.85,0,7,3.263,7,7.113V96"/>
			
				<line fill="none" stroke="#FFFFFF" stroke-width="3" stroke-linecap="round" stroke-linejoin="round" x1="609.5" y1="99" x2="609.5" y2="101"/>
		</g>
	</g>
</g>
</svg>
