<?xml version="1.0" encoding="utf-8"?>
<!-- Generator: Adobe Illustrator 16.0.0, SVG Export Plug-In . SVG Version: 6.00 Build 0)  -->
<!DOCTYPE svg PUBLIC "-//W3C//DTD SVG 1.1//EN" "http://www.w3.org/Graphics/SVG/1.1/DTD/svg11.dtd">
<svg version="1.1" id="Layer_1" xmlns="http://www.w3.org/2000/svg" xmlns:xlink="http://www.w3.org/1999/xlink" x="0px" y="0px"
	 width="245px" height="89px" viewBox="0 0 245 89" enable-background="new 0 0 245 89" xml:space="preserve">
<g id="Layer_1_1_">
</g>
<g id="Layer_3">
	<rect x="0.796" y="14.399" fill="none" width="239.815" height="25.547"/>
	<g enable-background="new    ">
		<path fill="#FFFFFF" d="M77.923,31.599V15.453c0-0.5,0.416-0.9,0.91-0.9h4.238c2.73,0,4.94,2.15,4.94,4.774
			c0,2.6-2.21,4.749-4.94,4.749h-3.302v7.523c0,0.5-0.416,0.9-0.936,0.9C78.339,32.499,77.923,32.099,77.923,31.599z M79.769,22.276
			h3.302c1.69,0,3.094-1.325,3.094-2.949c0-1.649-1.404-2.974-3.094-2.974h-3.302V22.276z"/>
		<path fill="#FFFFFF" d="M100.105,32.499c-0.364,0-0.754-0.225-0.91-0.6l-2.73-8.073c0,0-0.208,0-3.822,0v7.798
			c0,0.475-0.416,0.875-0.936,0.875c-0.494,0-0.91-0.4-0.91-0.875V15.428c0-0.475,0.416-0.875,0.91-0.875h4.446
			c2.678,0,4.836,2.075,4.836,4.649c0,1.825-1.118,3.424-2.73,4.174l2.704,7.948C101.093,31.849,100.755,32.499,100.105,32.499z
			 M96.153,22.051c1.664,0,2.99-1.275,2.99-2.85c0-1.6-1.326-2.874-2.99-2.874h-3.51v5.724H96.153z"/>
		<path fill="#FFFFFF" d="M112.068,31.449c0,0.5-0.416,0.9-0.936,0.9h-6.5c-0.52,0-0.936-0.4-0.936-0.9c0-0.5,0.416-0.9,0.936-0.9
			h2.34V16.353h-2.34c-0.52,0-0.936-0.4-0.936-0.9c0-0.5,0.416-0.9,0.936-0.9h6.5c0.52,0,0.936,0.4,0.936,0.9
			c0,0.5-0.416,0.9-0.936,0.9h-2.314v14.196h2.314C111.652,30.549,112.068,30.949,112.068,31.449z"/>
		<path fill="#FFFFFF" d="M119.169,31.849l-4.68-16.296c-0.156-0.575,0.286-1.15,0.884-1.15c0.416,0,0.78,0.275,0.884,0.675
			l3.822,13.197l3.795-13.197c0.104-0.4,0.469-0.675,0.885-0.675c0.624,0,1.066,0.625,0.91,1.15l-4.707,16.296
			c-0.104,0.375-0.468,0.65-0.884,0.65S119.299,32.224,119.169,31.849z"/>
		<path fill="#FFFFFF" d="M137.581,32.499c-0.39,0-0.728-0.25-0.858-0.65l-1.17-3.649h-6.188l-1.17,3.649
			c-0.131,0.375-0.494,0.65-0.885,0.65c-0.546,0-1.092-0.55-0.884-1.15l5.122-16.321c0.13-0.375,0.494-0.625,0.91-0.625
			c0.391,0,0.754,0.25,0.884,0.625l5.148,16.321C138.621,31.874,138.231,32.499,137.581,32.499z M134.98,26.425l-2.521-8.073
			l-2.548,8.073H134.98z"/>
		<path fill="#FFFFFF" d="M141.146,27.525v-8.148c0-2.725,2.314-4.974,5.175-4.974c2.678,0,4.888,2.025,5.147,4.474
			c0.053,0.475-0.312,0.925-0.832,0.975c-0.494,0.05-0.961-0.3-1.014-0.8c-0.156-1.625-1.586-2.874-3.302-2.874
			c-1.82,0-3.328,1.45-3.328,3.199v8.148c0,1.75,1.508,3.199,3.328,3.199c1.716,0,3.146-1.25,3.302-2.875
			c0.053-0.5,0.52-0.85,1.014-0.8c0.521,0.05,0.885,0.5,0.832,0.975c-0.26,2.574-2.6,4.474-5.147,4.474
			C143.461,32.499,141.146,30.274,141.146,27.525z"/>
		<path fill="#FFFFFF" d="M163.9,15.653L159.506,25v6.598c0,0.5-0.39,0.9-0.909,0.9c-0.521,0-0.937-0.4-0.937-0.9V25l-4.368-9.348
			c-0.26-0.55,0.13-1.25,0.832-1.25c0.364,0,0.702,0.2,0.858,0.525l3.614,7.723l3.614-7.723c0.156-0.325,0.468-0.525,0.832-0.525
			C163.666,14.403,164.187,15.028,163.9,15.653z"/>
	</g>
	<rect x="78.5" y="47.561" fill="none" width="165.119" height="39.332"/>
	<rect x="11" y="44" fill="#FFFFFF" width="56" height="31"/>
	<rect x="2.7" y="49.084" fill="none" width="74.355" height="31.109"/>
	<g enable-background="new    ">
		<path fill="#78C4D3" d="M27.447,69.188c-0.812,0-1.204-0.896-0.868-1.54l6.412-10.248c0.532-0.84,1.288-2.1,1.288-3.5
			c0-1.54-1.26-2.827-2.828-2.827c-1.596,0-2.912,1.315-2.912,2.939c0,0.531-0.448,0.98-1.008,0.98c-0.532,0-0.98-0.449-0.98-0.98
			c0-2.717,2.212-4.928,4.9-4.928c2.66,0,4.844,2.156,4.844,4.815c0,2.072-0.98,3.584-1.624,4.563l-5.432,8.709h6.272
			c0.56,0,0.98,0.447,0.98,1.008c0,0.56-0.42,1.008-0.98,1.008H27.447z"/>
	</g>
	<g enable-background="new    ">
		<path fill="#78C4D3" d="M44.449,60.317l-3.97-7.864v7.622c0,0.303-0.243,0.545-0.546,0.545c-0.288,0-0.53-0.242-0.53-0.545v-9.879
			c0-0.304,0.258-0.546,0.53-0.546c0.197,0,0.395,0.121,0.485,0.303l3.97,7.864v-7.621c0-0.304,0.242-0.546,0.545-0.546
			c0.304,0,0.546,0.242,0.546,0.546v9.879c0,0.258-0.182,0.47-0.425,0.53c-0.045,0.015-0.075,0.015-0.121,0.015
			C44.737,60.62,44.54,60.515,44.449,60.317z"/>
		<path fill="#78C4D3" d="M48.604,60.529c-0.304,0-0.546-0.242-0.546-0.545v-9.713c0-0.288,0.242-0.53,0.546-0.53h2.257
			c1.667,0,3.016,1.349,3.016,3.016v4.742c0,1.667-1.349,3.03-3.016,3.03H48.604z M49.135,59.438h1.727
			c1.076,0,1.939-0.863,1.939-1.939v-4.742c0-1.076-0.863-1.939-1.939-1.939h-1.727V59.438z"/>
	</g>
	<g>
		<path fill="none" stroke="#FFFFFF" stroke-width="1.4" stroke-miterlimit="10" d="M241,82.25c0,2.555-2.089,4.643-4.643,4.643
			H5.635c-2.554,0-4.643-2.088-4.643-4.643V5.643C0.992,3.089,3.081,1,5.635,1h230.723C238.911,1,241,3.089,241,5.643V82.25z"/>
	</g>
	<g>
		<path fill="#FFFFFF" d="M108.821,54.645v2.948h-0.961v-7.789h0.961v0.737c0.354-0.473,1.019-0.825,1.763-0.825
			c1.659,0,2.644,1.133,2.644,2.86s-0.984,2.86-2.644,2.86C109.817,55.437,109.175,55.096,108.821,54.645z M112.243,52.576
			c0-0.605-0.16-1.089-0.469-1.463c-0.31-0.374-0.744-0.562-1.282-0.562s-0.973,0.188-1.281,0.562
			c-0.31,0.374-0.47,0.857-0.47,1.463s0.16,1.089,0.47,1.463c0.309,0.374,0.743,0.562,1.281,0.562s0.973-0.188,1.282-0.562
			C112.083,53.665,112.243,53.182,112.243,52.576z"/>
		<path fill="#FFFFFF" d="M119.2,51.564c-0.08-0.672-0.457-1.013-1.109-1.013c-0.538,0-1.008,0.242-1.385,0.737
			c-0.378,0.484-0.572,1.166-0.572,2.058v2.002h-0.962v-5.545h0.962v1.023c0.492-0.737,1.201-1.111,2.128-1.111
			c1.145,0,1.843,0.66,1.9,1.849H119.2z"/>
		<path fill="#FFFFFF" d="M121.569,52.576c0-0.792,0.263-1.463,0.777-2.024c0.516-0.561,1.203-0.836,2.06-0.836
			c0.859,0,1.545,0.275,2.061,0.836c0.516,0.562,0.777,1.232,0.777,2.024s-0.262,1.463-0.777,2.024
			c-0.516,0.561-1.201,0.836-2.061,0.836c-0.857,0-1.544-0.275-2.06-0.836C121.832,54.039,121.569,53.368,121.569,52.576z
			 M122.552,52.576c0,0.562,0.172,1.034,0.504,1.431c0.332,0.396,0.789,0.594,1.35,0.594s1.02-0.198,1.352-0.594
			c0.33-0.396,0.502-0.869,0.502-1.431c0-0.561-0.172-1.034-0.502-1.43c-0.332-0.396-0.791-0.595-1.352-0.595
			s-1.018,0.198-1.35,0.595C122.724,51.542,122.552,52.016,122.552,52.576z"/>
		<path fill="#FFFFFF" d="M130.059,54.611v0.737h-0.961V47.56h0.961v2.948c0.355-0.451,0.996-0.792,1.764-0.792
			c1.658,0,2.643,1.133,2.643,2.86s-0.984,2.86-2.643,2.86C131.078,55.437,130.414,55.085,130.059,54.611z M133.48,52.576
			c0-0.605-0.16-1.089-0.469-1.463s-0.744-0.562-1.281-0.562c-0.539,0-0.973,0.188-1.281,0.562
			c-0.311,0.374-0.471,0.857-0.471,1.463s0.16,1.089,0.471,1.463c0.309,0.374,0.742,0.562,1.281,0.562
			c0.537,0,0.973-0.188,1.281-0.562S133.48,53.182,133.48,52.576z"/>
		<path fill="#FFFFFF" d="M137.348,48.483h-1.59v-0.836h2.553v5.611c0,0.891,0.4,1.342,1.213,1.342c0.744,0,1.189-0.451,1.338-1.342
			l0.871,0.165c-0.195,1.319-1.008,2.013-2.209,2.013c-1.34,0-2.176-0.803-2.176-2.178V48.483z"/>
		<path fill="#FFFFFF" d="M148.506,52.774h-4.51c0.059,1.1,0.756,1.826,1.775,1.826c0.824,0,1.441-0.363,1.854-1.101l0.766,0.386
			c-0.561,1.034-1.43,1.551-2.619,1.551c-0.824,0-1.488-0.275-2.004-0.814c-0.504-0.539-0.754-1.221-0.754-2.046
			c0-0.803,0.25-1.485,0.742-2.035c0.504-0.55,1.18-0.825,2.016-0.825c0.857,0,1.533,0.253,2.014,0.771
			c0.48,0.506,0.721,1.144,0.721,1.903V52.774z M144.066,51.938h3.422c-0.172-0.881-0.791-1.387-1.717-1.387
			C144.867,50.552,144.26,51.069,144.066,51.938z"/>
		<path fill="#FFFFFF" d="M155.967,55.349h-0.961V51.41c0-0.605-0.184-0.848-0.629-0.848c-0.596,0-1.02,0.716-1.02,2.179v2.607
			h-0.961V51.41c0-0.605-0.184-0.848-0.629-0.848c-0.596,0-1.02,0.716-1.02,2.179v2.607h-0.961v-5.545h0.961v0.704
			c0.344-0.528,0.789-0.792,1.352-0.792c0.617,0,1.018,0.297,1.189,0.902c0.309-0.539,0.824-0.902,1.42-0.902
			c0.766,0,1.258,0.484,1.258,1.496V55.349z"/>
		<path fill="#FFFFFF" d="M168.863,51.564c-0.08-0.672-0.457-1.013-1.109-1.013c-0.539,0-1.008,0.242-1.385,0.737
			c-0.379,0.484-0.572,1.166-0.572,2.058v2.002h-0.963v-5.545h0.963v1.023c0.492-0.737,1.201-1.111,2.127-1.111
			c1.145,0,1.844,0.66,1.9,1.849H168.863z"/>
		<path fill="#FFFFFF" d="M176.885,52.774h-4.51c0.059,1.1,0.756,1.826,1.775,1.826c0.824,0,1.441-0.363,1.854-1.101l0.766,0.386
			c-0.561,1.034-1.43,1.551-2.619,1.551c-0.824,0-1.488-0.275-2.004-0.814c-0.504-0.539-0.754-1.221-0.754-2.046
			c0-0.803,0.25-1.485,0.742-2.035c0.504-0.55,1.18-0.825,2.016-0.825c0.857,0,1.533,0.253,2.014,0.771
			c0.48,0.506,0.721,1.144,0.721,1.903V52.774z M172.445,51.938h3.422c-0.172-0.881-0.791-1.387-1.717-1.387
			C173.246,50.552,172.639,51.069,172.445,51.938z"/>
		<path fill="#FFFFFF" d="M179.916,48.483h-1.59v-0.836h2.553v5.611c0,0.891,0.4,1.342,1.213,1.342c0.744,0,1.189-0.451,1.338-1.342
			l0.871,0.165c-0.195,1.319-1.008,2.013-2.209,2.013c-1.34,0-2.176-0.803-2.176-2.178V48.483z"/>
		<path fill="#FFFFFF" d="M191.074,52.774h-4.51c0.059,1.1,0.756,1.826,1.775,1.826c0.824,0,1.441-0.363,1.854-1.101l0.766,0.386
			c-0.561,1.034-1.43,1.551-2.619,1.551c-0.824,0-1.488-0.275-2.004-0.814c-0.504-0.539-0.754-1.221-0.754-2.046
			c0-0.803,0.25-1.485,0.742-2.035c0.504-0.55,1.18-0.825,2.016-0.825c0.857,0,1.533,0.253,2.014,0.771
			c0.48,0.506,0.721,1.144,0.721,1.903V52.774z M186.635,51.938h3.422c-0.172-0.881-0.791-1.387-1.717-1.387
			C187.436,50.552,186.828,51.069,186.635,51.938z"/>
		<path fill="#FFFFFF" d="M197.207,49.804h1.043l-2.416,5.545h-0.961l-2.414-5.545h1.041l1.854,4.444L197.207,49.804z"/>
		<path fill="#FFFFFF" d="M204.908,55.349h-0.777l-0.137-0.781c-0.367,0.518-1.18,0.869-2.037,0.869
			c-1.02,0-1.785-0.594-1.785-1.684c0-1.198,0.973-1.814,2.609-1.814h1.166v-0.242c0-0.804-0.549-1.145-1.326-1.145
			c-0.652,0-1.18,0.385-1.363,0.946l-0.846-0.22c0.262-0.957,1.145-1.562,2.209-1.562c1.418,0,2.287,0.671,2.287,2.135V55.349z
			 M202.105,54.601c0.457,0,0.881-0.144,1.258-0.418c0.391-0.286,0.584-0.715,0.584-1.276V52.73h-1.258
			c-0.973,0-1.533,0.396-1.533,1.022C201.156,54.281,201.521,54.601,202.105,54.601z"/>
		<path fill="#FFFFFF" d="M211.969,55.349h-0.961v-3.663c0-0.76-0.354-1.134-1.064-1.134c-0.469,0-0.869,0.231-1.201,0.704
			c-0.332,0.462-0.492,1.078-0.492,1.859v2.233h-0.961v-5.545h0.961v1.023c0.424-0.66,1.168-1.111,1.957-1.111
			c1.18,0,1.762,0.671,1.762,1.771V55.349z"/>
		<path fill="#FFFFFF" d="M219.305,53.907c-0.469,1.023-1.281,1.529-2.438,1.529c-0.848,0-1.521-0.275-2.014-0.836
			c-0.492-0.562-0.744-1.232-0.744-2.024s0.252-1.463,0.744-2.024c0.492-0.561,1.166-0.836,2.014-0.836
			c1.156,0,1.969,0.506,2.438,1.529l-0.836,0.33c-0.309-0.683-0.836-1.023-1.602-1.023c-1.111,0-1.773,0.836-1.773,2.024
			s0.662,2.024,1.773,2.024c0.766,0,1.293-0.341,1.602-1.023L219.305,53.907z"/>
		<path fill="#FFFFFF" d="M226.549,52.774h-4.51c0.057,1.1,0.756,1.826,1.773,1.826c0.824,0,1.441-0.363,1.854-1.101l0.768,0.386
			c-0.561,1.034-1.43,1.551-2.621,1.551c-0.824,0-1.488-0.275-2.002-0.814c-0.504-0.539-0.756-1.221-0.756-2.046
			c0-0.803,0.252-1.485,0.744-2.035c0.504-0.55,1.178-0.825,2.014-0.825c0.859,0,1.533,0.253,2.014,0.771
			c0.482,0.506,0.723,1.144,0.723,1.903V52.774z M222.107,51.938h3.422c-0.172-0.881-0.789-1.387-1.717-1.387
			C222.908,50.552,222.303,51.069,222.107,51.938z"/>
		<path fill="#FFFFFF" d="M112.117,63.692c-0.32-0.197-0.629-0.297-0.927-0.297c-0.561,0-0.847,0.353-0.847,1.045v0.363h2.243v0.836
			h-2.243v4.709h-0.962V65.64h-1.625v-0.836h1.625v-0.341c0-1.266,0.596-1.903,1.774-1.903c0.435,0,0.835,0.11,1.201,0.319
			L112.117,63.692z"/>
		<path fill="#FFFFFF" d="M114.474,67.576c0-0.792,0.263-1.463,0.777-2.024c0.516-0.561,1.202-0.836,2.061-0.836
			s1.545,0.275,2.06,0.836c0.516,0.562,0.778,1.232,0.778,2.024s-0.263,1.463-0.778,2.024c-0.515,0.561-1.201,0.836-2.06,0.836
			s-1.545-0.275-2.061-0.836C114.737,69.039,114.474,68.368,114.474,67.576z M115.458,67.576c0,0.562,0.172,1.034,0.504,1.431
			c0.332,0.396,0.79,0.594,1.351,0.594s1.019-0.198,1.351-0.594c0.331-0.396,0.503-0.869,0.503-1.431
			c0-0.561-0.172-1.034-0.503-1.43c-0.332-0.396-0.79-0.595-1.351-0.595s-1.019,0.198-1.351,0.595
			C115.629,66.542,115.458,67.016,115.458,67.576z"/>
		<path fill="#FFFFFF" d="M126.295,66.564c-0.08-0.672-0.457-1.013-1.109-1.013c-0.539,0-1.008,0.242-1.385,0.737
			c-0.379,0.484-0.572,1.166-0.572,2.058v2.002h-0.962v-5.545h0.962v1.023c0.492-0.737,1.201-1.111,2.127-1.111
			c1.145,0,1.844,0.66,1.9,1.849H126.295z"/>
		<path fill="#FFFFFF" d="M135.803,65.64v-0.836h1.535v-1.661l0.961-0.583v2.244h2.814v0.836h-2.814v2.839
			c0,0.748,0.332,1.122,0.996,1.122c0.514,0,0.982-0.22,1.418-0.66l0.355,0.781c-0.492,0.473-1.088,0.715-1.773,0.715
			c-1.271,0-1.957-0.649-1.957-1.925V65.64H135.803z"/>
		<path fill="#FFFFFF" d="M148.197,70.349h-0.961v-3.631c0-0.781-0.355-1.166-1.064-1.166c-0.492,0-0.916,0.22-1.281,0.671
			c-0.367,0.451-0.551,1.046-0.551,1.805v2.321h-0.961V62.56h0.961v3.268c0.459-0.649,1.236-1.111,2.096-1.111
			c1.178,0,1.762,0.605,1.762,1.805V70.349z"/>
		<path fill="#FFFFFF" d="M155.602,67.774h-4.51c0.057,1.1,0.756,1.826,1.773,1.826c0.824,0,1.441-0.363,1.854-1.101l0.768,0.386
			c-0.561,1.034-1.43,1.551-2.621,1.551c-0.824,0-1.488-0.275-2.002-0.814c-0.504-0.539-0.756-1.221-0.756-2.046
			c0-0.803,0.252-1.485,0.744-2.035c0.504-0.55,1.178-0.825,2.014-0.825c0.859,0,1.533,0.253,2.014,0.771
			c0.482,0.506,0.723,1.144,0.723,1.903V67.774z M151.16,66.938h3.422c-0.172-0.881-0.789-1.387-1.717-1.387
			C151.961,65.552,151.355,66.069,151.16,66.938z"/>
		<path fill="#FFFFFF" d="M169.059,65.915l-0.756,0.517c-0.332-0.583-0.801-0.88-1.385-0.88c-0.549,0-0.996,0.242-0.996,0.737
			c0,0.451,0.424,0.682,1.34,0.858c0.492,0.099,0.801,0.165,1.178,0.33c0.539,0.22,0.893,0.594,0.893,1.177
			c0,0.55-0.217,0.99-0.641,1.31c-0.424,0.318-0.949,0.473-1.58,0.473c-1.189,0-2.15-0.583-2.506-1.606l0.916-0.33
			c0.264,0.693,0.812,1.101,1.59,1.101c0.699,0,1.225-0.297,1.225-0.858c0-0.439-0.434-0.594-1.486-0.813
			c-1.18-0.231-1.865-0.628-1.865-1.606c0-0.484,0.193-0.869,0.572-1.166c0.377-0.298,0.846-0.44,1.395-0.44
			C167.902,64.716,168.6,65.112,169.059,65.915z"/>
		<path fill="#FFFFFF" d="M171.232,67.576c0-0.792,0.262-1.463,0.777-2.024c0.516-0.561,1.201-0.836,2.061-0.836
			c0.857,0,1.545,0.275,2.059,0.836c0.516,0.562,0.779,1.232,0.779,2.024s-0.264,1.463-0.779,2.024
			c-0.514,0.561-1.201,0.836-2.059,0.836c-0.859,0-1.545-0.275-2.061-0.836C171.494,69.039,171.232,68.368,171.232,67.576z
			 M172.215,67.576c0,0.562,0.172,1.034,0.504,1.431c0.332,0.396,0.791,0.594,1.352,0.594s1.018-0.198,1.35-0.594
			c0.332-0.396,0.504-0.869,0.504-1.431c0-0.561-0.172-1.034-0.504-1.43c-0.332-0.396-0.789-0.595-1.35-0.595
			s-1.02,0.198-1.352,0.595C172.387,66.542,172.215,67.016,172.215,67.576z"/>
		<path fill="#FFFFFF" d="M183.83,68.907c-0.469,1.023-1.281,1.529-2.438,1.529c-0.846,0-1.521-0.275-2.014-0.836
			c-0.492-0.562-0.744-1.232-0.744-2.024s0.252-1.463,0.744-2.024c0.492-0.561,1.168-0.836,2.014-0.836
			c1.156,0,1.969,0.506,2.438,1.529l-0.834,0.33c-0.311-0.683-0.836-1.023-1.604-1.023c-1.109,0-1.773,0.836-1.773,2.024
			s0.664,2.024,1.773,2.024c0.768,0,1.293-0.341,1.604-1.023L183.83,68.907z"/>
		<path fill="#FFFFFF" d="M186.188,65.618v-0.814h2.725v4.73h2.127v0.814h-5.08v-0.814h1.99v-3.916H186.188z M188.361,62.56
			c0.447,0,0.791,0.341,0.791,0.771c0,0.429-0.344,0.748-0.791,0.748c-0.445,0-0.789-0.342-0.789-0.748
			C187.572,62.9,187.916,62.56,188.361,62.56z"/>
		<path fill="#FFFFFF" d="M198.17,67.774h-4.51c0.057,1.1,0.756,1.826,1.773,1.826c0.824,0,1.441-0.363,1.854-1.101l0.768,0.386
			c-0.561,1.034-1.43,1.551-2.621,1.551c-0.824,0-1.488-0.275-2.002-0.814c-0.504-0.539-0.756-1.221-0.756-2.046
			c0-0.803,0.252-1.485,0.744-2.035c0.504-0.55,1.178-0.825,2.014-0.825c0.859,0,1.533,0.253,2.014,0.771
			c0.482,0.506,0.723,1.144,0.723,1.903V67.774z M193.729,66.938h3.422c-0.172-0.881-0.789-1.387-1.717-1.387
			C194.529,65.552,193.924,66.069,193.729,66.938z"/>
		<path fill="#FFFFFF" d="M199.656,65.64v-0.836h1.533v-1.661l0.961-0.583v2.244h2.816v0.836h-2.816v2.839
			c0,0.748,0.332,1.122,0.996,1.122c0.516,0,0.984-0.22,1.42-0.66l0.354,0.781c-0.492,0.473-1.086,0.715-1.773,0.715
			c-1.27,0-1.957-0.649-1.957-1.925V65.64H199.656z"/>
		<path fill="#FFFFFF" d="M211.535,64.804h1.041l-3.422,7.789h-0.961l1.121-2.618l-2.494-5.171h1.074l1.936,4.06L211.535,64.804z"/>
	</g>
	<g>
		<path fill="#3399CC" d="M84.51,48.729c1.493,0,2.861,0.504,3.967,1.338c0.223,0.223,0.463,0.423,0.711,0.612
			c1.104,0.841,2.478,1.341,3.965,1.341h3.706v9.765h-3.706c-1.487,0-2.86-0.503-3.965-1.339c-0.221-0.224-0.462-0.424-0.711-0.615
			c-1.105-0.835-2.474-1.338-3.967-1.338h-3.703v-9.764H84.51z"/>
		
			<line fill="#FFFFFF" stroke="#231F20" stroke-width="0.7615" stroke-linecap="round" stroke-miterlimit="10" x1="80.807" y1="48.729" x2="80.807" y2="70.271"/>
	</g>
</g>
</svg>
