<?xml version="1.0" encoding="utf-8"?>
<!-- Generator: Adobe Illustrator 16.0.0, SVG Export Plug-In . SVG Version: 6.00 Build 0)  -->
<!DOCTYPE svg PUBLIC "-//W3C//DTD SVG 1.1//EN" "http://www.w3.org/Graphics/SVG/1.1/DTD/svg11.dtd">
<svg version="1.1" id="Layer_1" xmlns="http://www.w3.org/2000/svg" xmlns:xlink="http://www.w3.org/1999/xlink" x="0px" y="0px"
	 width="245px" height="89px" viewBox="0 0 245 89" enable-background="new 0 0 245 89" xml:space="preserve">
<g id="Layer_1_1_">
</g>
<g id="Layer_3">
	<rect x="0.796" y="14.399" fill="none" width="239.815" height="25.547"/>
	<g enable-background="new    ">
		<path fill="#FFFFFF" d="M40.655,27.525V15.303c0-0.5,0.416-0.9,0.936-0.9c0.494,0,0.91,0.4,0.91,0.9v12.222
			c0,1.75,1.508,3.174,3.328,3.174c1.846,0,3.328-1.425,3.328-3.174V15.303c0-0.5,0.416-0.9,0.936-0.9c0.494,0,0.91,0.4,0.91,0.9
			v12.222c0,2.724-2.314,4.974-5.174,4.974S40.655,30.249,40.655,27.525z"/>
		<path fill="#FFFFFF" d="M54.387,28.05c0-0.5,0.416-0.9,0.91-0.9c0.52,0,0.936,0.4,0.936,0.9c0,1.3,1.118,2.674,3.224,2.674
			c2.002,0,3.276-1.05,3.276-2.625c0-1.175-0.156-2.174-2.132-3.349c-2.366-1.325-2.912-1.625-3.458-1.975
			c-1.586-1.05-2.6-2.274-2.6-4.099c0-2.674,2.262-4.274,4.862-4.274c2.73,0,4.94,1.9,4.94,4.449c0,0.5-0.416,0.9-0.936,0.9
			s-0.936-0.4-0.936-0.9c0-1.325-1.04-2.674-3.068-2.674c-2.08,0-2.99,1.25-2.99,2.474c0,0.625,0,1.45,1.638,2.575
			c0.39,0.275,1.43,0.875,3.458,2c2.002,1.1,3.094,2.724,3.094,4.874c0,2.799-2.522,4.399-5.148,4.399
			C56.285,32.499,54.387,30.249,54.387,28.05z"/>
		<path fill="#FFFFFF" d="M77.323,31.449c0,0.5-0.416,0.9-0.936,0.9h-7.488c-0.494,0-0.91-0.4-0.91-0.9V15.428
			c0-0.475,0.416-0.875,0.91-0.875h7.41c0.52,0,0.936,0.4,0.936,0.875c0,0.5-0.416,0.9-0.936,0.9h-6.474v5.548h5.72
			c0.52,0,0.936,0.4,0.936,0.9c0,0.475-0.416,0.875-0.936,0.875h-5.72v6.898h6.552C76.907,30.549,77.323,30.949,77.323,31.449z"/>
		<path fill="#FFFFFF" d="M89.625,32.499c-0.364,0-0.754-0.225-0.91-0.6l-2.73-8.073c0,0-0.208,0-3.822,0v7.798
			c0,0.475-0.416,0.875-0.936,0.875c-0.494,0-0.91-0.4-0.91-0.875V15.428c0-0.475,0.416-0.875,0.91-0.875h4.446
			c2.678,0,4.836,2.075,4.836,4.649c0,1.825-1.118,3.424-2.73,4.174l2.704,7.948C90.612,31.849,90.274,32.499,89.625,32.499z
			 M85.672,22.051c1.664,0,2.99-1.275,2.99-2.85c0-1.6-1.326-2.874-2.99-2.874h-3.51v5.724H85.672z"/>
		<path fill="#FFFFFF" d="M100.654,27.525v-8.148c0-2.725,2.314-4.974,5.174-4.974c2.678,0,4.888,2.025,5.148,4.474
			c0.052,0.475-0.312,0.925-0.832,0.975c-0.494,0.05-0.962-0.3-1.014-0.8c-0.156-1.625-1.586-2.874-3.302-2.874
			c-1.82,0-3.328,1.45-3.328,3.199v8.148c0,1.75,1.508,3.199,3.328,3.199c1.716,0,3.146-1.25,3.302-2.875
			c0.052-0.5,0.52-0.85,1.014-0.8c0.52,0.05,0.884,0.5,0.832,0.975c-0.26,2.574-2.6,4.474-5.148,4.474
			C102.968,32.499,100.654,30.274,100.654,27.525z"/>
		<path fill="#FFFFFF" d="M123.459,31.449c0,0.5-0.416,0.9-0.936,0.9h-7.488c-0.494,0-0.91-0.4-0.91-0.9V15.428
			c0-0.475,0.416-0.875,0.91-0.875h7.41c0.52,0,0.936,0.4,0.936,0.875c0,0.5-0.416,0.9-0.936,0.9h-6.474v5.548h5.72
			c0.52,0,0.936,0.4,0.936,0.9c0,0.475-0.416,0.875-0.936,0.875h-5.72v6.898h6.552C123.043,30.549,123.459,30.949,123.459,31.449z"
			/>
		<path fill="#FFFFFF" d="M135.111,31.999l-6.812-12.972v12.572c0,0.5-0.416,0.9-0.936,0.9c-0.494,0-0.91-0.4-0.91-0.9V15.303
			c0-0.5,0.441-0.9,0.91-0.9c0.338,0,0.676,0.2,0.832,0.5l6.812,12.972V15.303c0-0.5,0.416-0.9,0.937-0.9
			c0.52,0,0.936,0.4,0.936,0.9v16.296c0,0.425-0.312,0.775-0.728,0.875c-0.078,0.025-0.13,0.025-0.208,0.025
			C135.605,32.499,135.268,32.324,135.111,31.999z"/>
		<path fill="#FFFFFF" d="M149.337,14.553c0.521,0,0.937,0.4,0.937,0.875c0,0.5-0.416,0.9-0.937,0.9h-3.536v15.271
			c0,0.5-0.416,0.9-0.936,0.9c-0.494,0-0.91-0.4-0.91-0.9V16.328h-3.536c-0.521,0-0.937-0.4-0.937-0.9
			c0-0.475,0.416-0.875,0.937-0.875H149.337z"/>
		<path fill="#FFFFFF" d="M162.211,31.449c0,0.5-0.416,0.9-0.937,0.9h-7.488c-0.494,0-0.91-0.4-0.91-0.9V15.428
			c0-0.475,0.416-0.875,0.91-0.875h7.41c0.521,0,0.937,0.4,0.937,0.875c0,0.5-0.416,0.9-0.937,0.9h-6.474v5.548h5.72
			c0.521,0,0.937,0.4,0.937,0.9c0,0.475-0.416,0.875-0.937,0.875h-5.72v6.898h6.552C161.795,30.549,162.211,30.949,162.211,31.449z"
			/>
		<path fill="#FFFFFF" d="M174.512,32.499c-0.363,0-0.754-0.225-0.91-0.6l-2.729-8.073c0,0-0.208,0-3.822,0v7.798
			c0,0.475-0.416,0.875-0.937,0.875c-0.494,0-0.91-0.4-0.91-0.875V15.428c0-0.475,0.416-0.875,0.91-0.875h4.447
			c2.678,0,4.836,2.075,4.836,4.649c0,1.825-1.118,3.424-2.73,4.174l2.704,7.948C175.5,31.849,175.162,32.499,174.512,32.499z
			 M170.561,22.051c1.664,0,2.989-1.275,2.989-2.85c0-1.6-1.325-2.874-2.989-2.874h-3.511v5.724H170.561z"/>
		<path fill="#FFFFFF" d="M188.166,31.449c0,0.5-0.416,0.9-0.937,0.9h-7.488c-0.494,0-0.91-0.4-0.91-0.9V15.428
			c0-0.475,0.416-0.875,0.91-0.875h7.41c0.521,0,0.937,0.4,0.937,0.875c0,0.5-0.416,0.9-0.937,0.9h-6.474v5.548h5.72
			c0.521,0,0.937,0.4,0.937,0.9c0,0.475-0.416,0.875-0.937,0.875h-5.72v6.898h6.552C187.75,30.549,188.166,30.949,188.166,31.449z"
			/>
		<path fill="#FFFFFF" d="M192.095,32.349c-0.521,0-0.937-0.4-0.937-0.9V15.428c0-0.475,0.416-0.875,0.937-0.875h3.874
			c2.86,0,5.174,2.225,5.174,4.974v7.823c0,2.75-2.313,4.999-5.174,4.999H192.095z M193.005,30.549h2.964
			c1.846,0,3.328-1.424,3.328-3.199v-7.823c0-1.775-1.482-3.199-3.328-3.199h-2.964V30.549z"/>
	</g>
	<rect x="78.5" y="47.561" fill="none" width="165.119" height="39.332"/>
	<rect x="11" y="44" fill="#FFFFFF" width="56" height="31"/>
	<rect x="2.7" y="49.084" fill="none" width="74.355" height="31.109"/>
	<g enable-background="new    ">
		<path fill="#78C4D3" d="M26.74,64.455c0-0.56,0.448-1.008,0.98-1.008c0.56,0,1.008,0.448,1.008,1.008
			c0,1.597,1.316,2.912,2.912,2.912c1.596,0,2.912-1.315,2.912-2.912v-2.66c0-1.623-1.204-2.911-2.8-2.911
			c-0.336,0-0.644,0.056-0.952,0.168c-0.42,0.14-0.868,0-1.148-0.337c-0.252-0.336-0.252-0.812,0-1.176l4.34-6.271h-4.816v1.4
			c0,0.56-0.448,1.008-1.008,1.008s-1.008-0.448-1.008-1.008V50.26c0-0.532,0.448-0.98,1.008-0.98h7.728
			c0.784,0,1.288,0.896,0.84,1.54l-4.256,6.132c2.408,0.448,4.06,2.465,4.06,4.844v2.66c0,2.688-2.184,4.9-4.9,4.9
			C28.924,69.355,26.74,67.144,26.74,64.455z"/>
	</g>
	<g enable-background="new    ">
		<path fill="#78C4D3" d="M45.185,60.62c-0.213,0-0.439-0.136-0.53-0.363l-1.592-4.895c0,0-0.121,0-2.227,0v4.728
			c0,0.288-0.243,0.53-0.546,0.53c-0.288,0-0.53-0.242-0.53-0.53v-9.818c0-0.288,0.242-0.53,0.53-0.53h2.591
			c1.561,0,2.818,1.258,2.818,2.818c0,1.106-0.651,2.076-1.591,2.53l1.576,4.818C45.76,60.227,45.563,60.62,45.185,60.62z
			 M42.881,54.287c0.97,0,1.743-0.772,1.743-1.728c0-0.97-0.773-1.742-1.743-1.742h-2.045v3.47H42.881z"/>
		<path fill="#78C4D3" d="M48.248,60.529c-0.304,0-0.546-0.242-0.546-0.545v-9.713c0-0.288,0.242-0.53,0.546-0.53h2.257
			c1.667,0,3.016,1.349,3.016,3.016v4.742c0,1.667-1.349,3.03-3.016,3.03H48.248z M48.778,59.438h1.727
			c1.076,0,1.939-0.863,1.939-1.939v-4.742c0-1.076-0.863-1.939-1.939-1.939h-1.727V59.438z"/>
	</g>
	<g>
		<path fill="none" stroke="#FFFFFF" stroke-width="1.4" stroke-miterlimit="10" d="M241,82.25c0,2.555-2.089,4.643-4.643,4.643
			H5.635c-2.554,0-4.643-2.088-4.643-4.643V5.643C0.992,3.089,3.081,1,5.635,1h230.723C238.911,1,241,3.089,241,5.643V82.25z"/>
	</g>
	<g>
		<path fill="#FFFFFF" d="M108.821,54.645v2.948h-0.961v-7.789h0.961v0.737c0.354-0.473,1.019-0.825,1.763-0.825
			c1.659,0,2.644,1.133,2.644,2.86s-0.984,2.86-2.644,2.86C109.817,55.437,109.175,55.096,108.821,54.645z M112.243,52.576
			c0-0.605-0.16-1.089-0.469-1.463c-0.31-0.374-0.744-0.562-1.282-0.562s-0.973,0.188-1.281,0.562
			c-0.31,0.374-0.47,0.857-0.47,1.463s0.16,1.089,0.47,1.463c0.309,0.374,0.743,0.562,1.281,0.562s0.973-0.188,1.282-0.562
			C112.083,53.665,112.243,53.182,112.243,52.576z"/>
		<path fill="#FFFFFF" d="M119.2,51.564c-0.08-0.672-0.457-1.013-1.109-1.013c-0.538,0-1.008,0.242-1.385,0.737
			c-0.378,0.484-0.572,1.166-0.572,2.058v2.002h-0.962v-5.545h0.962v1.023c0.492-0.737,1.201-1.111,2.128-1.111
			c1.145,0,1.843,0.66,1.9,1.849H119.2z"/>
		<path fill="#FFFFFF" d="M121.569,52.576c0-0.792,0.263-1.463,0.777-2.024c0.516-0.561,1.203-0.836,2.06-0.836
			c0.859,0,1.545,0.275,2.061,0.836c0.516,0.562,0.777,1.232,0.777,2.024s-0.262,1.463-0.777,2.024
			c-0.516,0.561-1.201,0.836-2.061,0.836c-0.857,0-1.544-0.275-2.06-0.836C121.832,54.039,121.569,53.368,121.569,52.576z
			 M122.552,52.576c0,0.562,0.172,1.034,0.504,1.431c0.332,0.396,0.789,0.594,1.35,0.594s1.02-0.198,1.352-0.594
			c0.33-0.396,0.502-0.869,0.502-1.431c0-0.561-0.172-1.034-0.502-1.43c-0.332-0.396-0.791-0.595-1.352-0.595
			s-1.018,0.198-1.35,0.595C122.724,51.542,122.552,52.016,122.552,52.576z"/>
		<path fill="#FFFFFF" d="M130.059,54.611v0.737h-0.961V47.56h0.961v2.948c0.355-0.451,0.996-0.792,1.764-0.792
			c1.658,0,2.643,1.133,2.643,2.86s-0.984,2.86-2.643,2.86C131.078,55.437,130.414,55.085,130.059,54.611z M133.48,52.576
			c0-0.605-0.16-1.089-0.469-1.463s-0.744-0.562-1.281-0.562c-0.539,0-0.973,0.188-1.281,0.562
			c-0.311,0.374-0.471,0.857-0.471,1.463s0.16,1.089,0.471,1.463c0.309,0.374,0.742,0.562,1.281,0.562
			c0.537,0,0.973-0.188,1.281-0.562S133.48,53.182,133.48,52.576z"/>
		<path fill="#FFFFFF" d="M137.348,48.483h-1.59v-0.836h2.553v5.611c0,0.891,0.4,1.342,1.213,1.342c0.744,0,1.189-0.451,1.338-1.342
			l0.871,0.165c-0.195,1.319-1.008,2.013-2.209,2.013c-1.34,0-2.176-0.803-2.176-2.178V48.483z"/>
		<path fill="#FFFFFF" d="M148.506,52.774h-4.51c0.059,1.1,0.756,1.826,1.775,1.826c0.824,0,1.441-0.363,1.854-1.101l0.766,0.386
			c-0.561,1.034-1.43,1.551-2.619,1.551c-0.824,0-1.488-0.275-2.004-0.814c-0.504-0.539-0.754-1.221-0.754-2.046
			c0-0.803,0.25-1.485,0.742-2.035c0.504-0.55,1.18-0.825,2.016-0.825c0.857,0,1.533,0.253,2.014,0.771
			c0.48,0.506,0.721,1.144,0.721,1.903V52.774z M144.066,51.938h3.422c-0.172-0.881-0.791-1.387-1.717-1.387
			C144.867,50.552,144.26,51.069,144.066,51.938z"/>
		<path fill="#FFFFFF" d="M155.967,55.349h-0.961V51.41c0-0.605-0.184-0.848-0.629-0.848c-0.596,0-1.02,0.716-1.02,2.179v2.607
			h-0.961V51.41c0-0.605-0.184-0.848-0.629-0.848c-0.596,0-1.02,0.716-1.02,2.179v2.607h-0.961v-5.545h0.961v0.704
			c0.344-0.528,0.789-0.792,1.352-0.792c0.617,0,1.018,0.297,1.189,0.902c0.309-0.539,0.824-0.902,1.42-0.902
			c0.766,0,1.258,0.484,1.258,1.496V55.349z"/>
		<path fill="#FFFFFF" d="M168.863,51.564c-0.08-0.672-0.457-1.013-1.109-1.013c-0.539,0-1.008,0.242-1.385,0.737
			c-0.379,0.484-0.572,1.166-0.572,2.058v2.002h-0.963v-5.545h0.963v1.023c0.492-0.737,1.201-1.111,2.127-1.111
			c1.145,0,1.844,0.66,1.9,1.849H168.863z"/>
		<path fill="#FFFFFF" d="M176.885,52.774h-4.51c0.059,1.1,0.756,1.826,1.775,1.826c0.824,0,1.441-0.363,1.854-1.101l0.766,0.386
			c-0.561,1.034-1.43,1.551-2.619,1.551c-0.824,0-1.488-0.275-2.004-0.814c-0.504-0.539-0.754-1.221-0.754-2.046
			c0-0.803,0.25-1.485,0.742-2.035c0.504-0.55,1.18-0.825,2.016-0.825c0.857,0,1.533,0.253,2.014,0.771
			c0.48,0.506,0.721,1.144,0.721,1.903V52.774z M172.445,51.938h3.422c-0.172-0.881-0.791-1.387-1.717-1.387
			C173.246,50.552,172.639,51.069,172.445,51.938z"/>
		<path fill="#FFFFFF" d="M179.916,48.483h-1.59v-0.836h2.553v5.611c0,0.891,0.4,1.342,1.213,1.342c0.744,0,1.189-0.451,1.338-1.342
			l0.871,0.165c-0.195,1.319-1.008,2.013-2.209,2.013c-1.34,0-2.176-0.803-2.176-2.178V48.483z"/>
		<path fill="#FFFFFF" d="M191.074,52.774h-4.51c0.059,1.1,0.756,1.826,1.775,1.826c0.824,0,1.441-0.363,1.854-1.101l0.766,0.386
			c-0.561,1.034-1.43,1.551-2.619,1.551c-0.824,0-1.488-0.275-2.004-0.814c-0.504-0.539-0.754-1.221-0.754-2.046
			c0-0.803,0.25-1.485,0.742-2.035c0.504-0.55,1.18-0.825,2.016-0.825c0.857,0,1.533,0.253,2.014,0.771
			c0.48,0.506,0.721,1.144,0.721,1.903V52.774z M186.635,51.938h3.422c-0.172-0.881-0.791-1.387-1.717-1.387
			C187.436,50.552,186.828,51.069,186.635,51.938z"/>
		<path fill="#FFFFFF" d="M197.207,49.804h1.043l-2.416,5.545h-0.961l-2.414-5.545h1.041l1.854,4.444L197.207,49.804z"/>
		<path fill="#FFFFFF" d="M204.908,55.349h-0.777l-0.137-0.781c-0.367,0.518-1.18,0.869-2.037,0.869
			c-1.02,0-1.785-0.594-1.785-1.684c0-1.198,0.973-1.814,2.609-1.814h1.166v-0.242c0-0.804-0.549-1.145-1.326-1.145
			c-0.652,0-1.18,0.385-1.363,0.946l-0.846-0.22c0.262-0.957,1.145-1.562,2.209-1.562c1.418,0,2.287,0.671,2.287,2.135V55.349z
			 M202.105,54.601c0.457,0,0.881-0.144,1.258-0.418c0.391-0.286,0.584-0.715,0.584-1.276V52.73h-1.258
			c-0.973,0-1.533,0.396-1.533,1.022C201.156,54.281,201.521,54.601,202.105,54.601z"/>
		<path fill="#FFFFFF" d="M211.969,55.349h-0.961v-3.663c0-0.76-0.354-1.134-1.064-1.134c-0.469,0-0.869,0.231-1.201,0.704
			c-0.332,0.462-0.492,1.078-0.492,1.859v2.233h-0.961v-5.545h0.961v1.023c0.424-0.66,1.168-1.111,1.957-1.111
			c1.18,0,1.762,0.671,1.762,1.771V55.349z"/>
		<path fill="#FFFFFF" d="M219.305,53.907c-0.469,1.023-1.281,1.529-2.438,1.529c-0.848,0-1.521-0.275-2.014-0.836
			c-0.492-0.562-0.744-1.232-0.744-2.024s0.252-1.463,0.744-2.024c0.492-0.561,1.166-0.836,2.014-0.836
			c1.156,0,1.969,0.506,2.438,1.529l-0.836,0.33c-0.309-0.683-0.836-1.023-1.602-1.023c-1.111,0-1.773,0.836-1.773,2.024
			s0.662,2.024,1.773,2.024c0.766,0,1.293-0.341,1.602-1.023L219.305,53.907z"/>
		<path fill="#FFFFFF" d="M226.549,52.774h-4.51c0.057,1.1,0.756,1.826,1.773,1.826c0.824,0,1.441-0.363,1.854-1.101l0.768,0.386
			c-0.561,1.034-1.43,1.551-2.621,1.551c-0.824,0-1.488-0.275-2.002-0.814c-0.504-0.539-0.756-1.221-0.756-2.046
			c0-0.803,0.252-1.485,0.744-2.035c0.504-0.55,1.178-0.825,2.014-0.825c0.859,0,1.533,0.253,2.014,0.771
			c0.482,0.506,0.723,1.144,0.723,1.903V52.774z M222.107,51.938h3.422c-0.172-0.881-0.789-1.387-1.717-1.387
			C222.908,50.552,222.303,51.069,222.107,51.938z"/>
		<path fill="#FFFFFF" d="M112.117,63.692c-0.32-0.197-0.629-0.297-0.927-0.297c-0.561,0-0.847,0.353-0.847,1.045v0.363h2.243v0.836
			h-2.243v4.709h-0.962V65.64h-1.625v-0.836h1.625v-0.341c0-1.266,0.596-1.903,1.774-1.903c0.435,0,0.835,0.11,1.201,0.319
			L112.117,63.692z"/>
		<path fill="#FFFFFF" d="M114.474,67.576c0-0.792,0.263-1.463,0.777-2.024c0.516-0.561,1.202-0.836,2.061-0.836
			s1.545,0.275,2.06,0.836c0.516,0.562,0.778,1.232,0.778,2.024s-0.263,1.463-0.778,2.024c-0.515,0.561-1.201,0.836-2.06,0.836
			s-1.545-0.275-2.061-0.836C114.737,69.039,114.474,68.368,114.474,67.576z M115.458,67.576c0,0.562,0.172,1.034,0.504,1.431
			c0.332,0.396,0.79,0.594,1.351,0.594s1.019-0.198,1.351-0.594c0.331-0.396,0.503-0.869,0.503-1.431
			c0-0.561-0.172-1.034-0.503-1.43c-0.332-0.396-0.79-0.595-1.351-0.595s-1.019,0.198-1.351,0.595
			C115.629,66.542,115.458,67.016,115.458,67.576z"/>
		<path fill="#FFFFFF" d="M126.295,66.564c-0.08-0.672-0.457-1.013-1.109-1.013c-0.539,0-1.008,0.242-1.385,0.737
			c-0.379,0.484-0.572,1.166-0.572,2.058v2.002h-0.962v-5.545h0.962v1.023c0.492-0.737,1.201-1.111,2.127-1.111
			c1.145,0,1.844,0.66,1.9,1.849H126.295z"/>
		<path fill="#FFFFFF" d="M135.803,65.64v-0.836h1.535v-1.661l0.961-0.583v2.244h2.814v0.836h-2.814v2.839
			c0,0.748,0.332,1.122,0.996,1.122c0.514,0,0.982-0.22,1.418-0.66l0.355,0.781c-0.492,0.473-1.088,0.715-1.773,0.715
			c-1.271,0-1.957-0.649-1.957-1.925V65.64H135.803z"/>
		<path fill="#FFFFFF" d="M148.197,70.349h-0.961v-3.631c0-0.781-0.355-1.166-1.064-1.166c-0.492,0-0.916,0.22-1.281,0.671
			c-0.367,0.451-0.551,1.046-0.551,1.805v2.321h-0.961V62.56h0.961v3.268c0.459-0.649,1.236-1.111,2.096-1.111
			c1.178,0,1.762,0.605,1.762,1.805V70.349z"/>
		<path fill="#FFFFFF" d="M155.602,67.774h-4.51c0.057,1.1,0.756,1.826,1.773,1.826c0.824,0,1.441-0.363,1.854-1.101l0.768,0.386
			c-0.561,1.034-1.43,1.551-2.621,1.551c-0.824,0-1.488-0.275-2.002-0.814c-0.504-0.539-0.756-1.221-0.756-2.046
			c0-0.803,0.252-1.485,0.744-2.035c0.504-0.55,1.178-0.825,2.014-0.825c0.859,0,1.533,0.253,2.014,0.771
			c0.482,0.506,0.723,1.144,0.723,1.903V67.774z M151.16,66.938h3.422c-0.172-0.881-0.789-1.387-1.717-1.387
			C151.961,65.552,151.355,66.069,151.16,66.938z"/>
		<path fill="#FFFFFF" d="M169.059,65.915l-0.756,0.517c-0.332-0.583-0.801-0.88-1.385-0.88c-0.549,0-0.996,0.242-0.996,0.737
			c0,0.451,0.424,0.682,1.34,0.858c0.492,0.099,0.801,0.165,1.178,0.33c0.539,0.22,0.893,0.594,0.893,1.177
			c0,0.55-0.217,0.99-0.641,1.31c-0.424,0.318-0.949,0.473-1.58,0.473c-1.189,0-2.15-0.583-2.506-1.606l0.916-0.33
			c0.264,0.693,0.812,1.101,1.59,1.101c0.699,0,1.225-0.297,1.225-0.858c0-0.439-0.434-0.594-1.486-0.813
			c-1.18-0.231-1.865-0.628-1.865-1.606c0-0.484,0.193-0.869,0.572-1.166c0.377-0.298,0.846-0.44,1.395-0.44
			C167.902,64.716,168.6,65.112,169.059,65.915z"/>
		<path fill="#FFFFFF" d="M171.232,67.576c0-0.792,0.262-1.463,0.777-2.024c0.516-0.561,1.201-0.836,2.061-0.836
			c0.857,0,1.545,0.275,2.059,0.836c0.516,0.562,0.779,1.232,0.779,2.024s-0.264,1.463-0.779,2.024
			c-0.514,0.561-1.201,0.836-2.059,0.836c-0.859,0-1.545-0.275-2.061-0.836C171.494,69.039,171.232,68.368,171.232,67.576z
			 M172.215,67.576c0,0.562,0.172,1.034,0.504,1.431c0.332,0.396,0.791,0.594,1.352,0.594s1.018-0.198,1.35-0.594
			c0.332-0.396,0.504-0.869,0.504-1.431c0-0.561-0.172-1.034-0.504-1.43c-0.332-0.396-0.789-0.595-1.35-0.595
			s-1.02,0.198-1.352,0.595C172.387,66.542,172.215,67.016,172.215,67.576z"/>
		<path fill="#FFFFFF" d="M183.83,68.907c-0.469,1.023-1.281,1.529-2.438,1.529c-0.846,0-1.521-0.275-2.014-0.836
			c-0.492-0.562-0.744-1.232-0.744-2.024s0.252-1.463,0.744-2.024c0.492-0.561,1.168-0.836,2.014-0.836
			c1.156,0,1.969,0.506,2.438,1.529l-0.834,0.33c-0.311-0.683-0.836-1.023-1.604-1.023c-1.109,0-1.773,0.836-1.773,2.024
			s0.664,2.024,1.773,2.024c0.768,0,1.293-0.341,1.604-1.023L183.83,68.907z"/>
		<path fill="#FFFFFF" d="M186.188,65.618v-0.814h2.725v4.73h2.127v0.814h-5.08v-0.814h1.99v-3.916H186.188z M188.361,62.56
			c0.447,0,0.791,0.341,0.791,0.771c0,0.429-0.344,0.748-0.791,0.748c-0.445,0-0.789-0.342-0.789-0.748
			C187.572,62.9,187.916,62.56,188.361,62.56z"/>
		<path fill="#FFFFFF" d="M198.17,67.774h-4.51c0.057,1.1,0.756,1.826,1.773,1.826c0.824,0,1.441-0.363,1.854-1.101l0.768,0.386
			c-0.561,1.034-1.43,1.551-2.621,1.551c-0.824,0-1.488-0.275-2.002-0.814c-0.504-0.539-0.756-1.221-0.756-2.046
			c0-0.803,0.252-1.485,0.744-2.035c0.504-0.55,1.178-0.825,2.014-0.825c0.859,0,1.533,0.253,2.014,0.771
			c0.482,0.506,0.723,1.144,0.723,1.903V67.774z M193.729,66.938h3.422c-0.172-0.881-0.789-1.387-1.717-1.387
			C194.529,65.552,193.924,66.069,193.729,66.938z"/>
		<path fill="#FFFFFF" d="M199.656,65.64v-0.836h1.533v-1.661l0.961-0.583v2.244h2.816v0.836h-2.816v2.839
			c0,0.748,0.332,1.122,0.996,1.122c0.516,0,0.984-0.22,1.42-0.66l0.354,0.781c-0.492,0.473-1.086,0.715-1.773,0.715
			c-1.27,0-1.957-0.649-1.957-1.925V65.64H199.656z"/>
		<path fill="#FFFFFF" d="M211.535,64.804h1.041l-3.422,7.789h-0.961l1.121-2.618l-2.494-5.171h1.074l1.936,4.06L211.535,64.804z"/>
	</g>
	<g>
		<path fill="#3399CC" d="M84.51,48.729c1.493,0,2.861,0.504,3.967,1.338c0.223,0.223,0.463,0.423,0.711,0.612
			c1.104,0.841,2.478,1.341,3.965,1.341h3.706v9.765h-3.706c-1.487,0-2.86-0.503-3.965-1.339c-0.221-0.224-0.462-0.424-0.711-0.615
			c-1.105-0.835-2.474-1.338-3.967-1.338h-3.703v-9.764H84.51z"/>
		
			<line fill="#FFFFFF" stroke="#231F20" stroke-width="0.7615" stroke-linecap="round" stroke-miterlimit="10" x1="80.807" y1="48.729" x2="80.807" y2="70.271"/>
	</g>
</g>
</svg>
