<?xml version="1.0" encoding="utf-8"?>
<!-- Generator: Adobe Illustrator 16.0.0, SVG Export Plug-In . SVG Version: 6.00 Build 0)  -->
<!DOCTYPE svg PUBLIC "-//W3C//DTD SVG 1.1//EN" "http://www.w3.org/Graphics/SVG/1.1/DTD/svg11.dtd">
<svg version="1.1" id="Layer_1" xmlns="http://www.w3.org/2000/svg" xmlns:xlink="http://www.w3.org/1999/xlink" x="0px" y="0px"
	 width="610.5px" height="505px" viewBox="0 0 610.5 505" enable-background="new 0 0 610.5 505" xml:space="preserve">
<g id="Layer_1_1_">
</g>
<g>
	<g>
		
			<line fill="none" stroke="#FFFFFF" stroke-width="1.5" stroke-linecap="round" stroke-linejoin="round" x1="197" y1="43.5" x2="194" y2="43.5"/>
		
			<path fill="none" stroke="#FFFFFF" stroke-width="1.5" stroke-linecap="round" stroke-linejoin="round" stroke-dasharray="4.9957,4.9957" d="
			M189,43.5H9.686c-3.85,0-7,3.152-7,7.002L2.452,496.716"/>
		
			<line fill="none" stroke="#FFFFFF" stroke-width="1.5" stroke-linecap="round" stroke-linejoin="round" x1="2.5" y1="499" x2="2.5" y2="502"/>
	</g>
</g>
<g>
	<g>
		
			<line fill="none" stroke="#FFFFFF" stroke-width="1.5" stroke-linecap="round" stroke-linejoin="round" x1="430" y1="43.5" x2="433" y2="43.5"/>
		
			<path fill="none" stroke="#FFFFFF" stroke-width="1.5" stroke-linecap="round" stroke-linejoin="round" stroke-dasharray="5.0379,5.0379" d="
			M438,43.5h165.015c3.85,0,7,3.152,7,7.002l0.009,446.192"/>
		
			<line fill="none" stroke="#FFFFFF" stroke-width="1.5" stroke-linecap="round" stroke-linejoin="round" x1="610.5" y1="499" x2="610.5" y2="502"/>
	</g>
</g>
<g>
	
		<path fill="none" stroke="#FFFFFF" stroke-width="1.5" stroke-linecap="round" stroke-linejoin="round" stroke-dasharray="5.069,5.069" d="
		M272.5,72.477c0,2.773-2.249,5.022-5.023,5.022h-65.953c-2.773,0-5.022-2.249-5.022-5.022V12.523c0-2.774,2.249-5.023,5.022-5.023
		h65.953c2.774,0,5.023,2.249,5.023,5.023V72.477z"/>
</g>
<g>
	
		<path fill="none" stroke="#FFFFFF" stroke-width="1.5" stroke-linecap="round" stroke-linejoin="round" stroke-dasharray="4.9914,4.9914" d="
		M429.5,100.477c0,2.773-2.249,5.022-5.023,5.022h-70.953c-2.773,0-5.022-2.249-5.022-5.022V7.523c0-2.774,2.249-5.023,5.022-5.023
		h70.953c2.773,0,5.023,2.249,5.023,5.023V100.477z"/>
</g>
</svg>
