<?xml version="1.0" encoding="utf-8"?>
<!-- Generator: Adobe Illustrator 16.0.0, SVG Export Plug-In . SVG Version: 6.00 Build 0)  -->
<!DOCTYPE svg PUBLIC "-//W3C//DTD SVG 1.1//EN" "http://www.w3.org/Graphics/SVG/1.1/DTD/svg11.dtd">
<svg version="1.1" id="Layer_1" xmlns="http://www.w3.org/2000/svg" xmlns:xlink="http://www.w3.org/1999/xlink" x="0px" y="0px"
	 width="242px" height="129px" viewBox="0 0 242 129" enable-background="new 0 0 242 129" xml:space="preserve">
<g>
	<g>
		<path fill="#FFFFFF" d="M47.547,18.03v5.674h5.999c0.5,0,0.9,0.399,0.9,0.899c0,0.475-0.4,0.875-0.9,0.875h-5.999v7.798
			c0,0.5-0.4,0.9-0.899,0.9c-0.475,0-0.875-0.4-0.875-0.9V17.131c0-0.5,0.4-0.9,0.875-0.9h7.673c0.475,0,0.875,0.4,0.875,0.9
			s-0.4,0.899-0.875,0.899H47.547z"/>
		<path fill="#FFFFFF" d="M64.92,33.127c0,0.5-0.4,0.899-0.9,0.899h-6.249c-0.5,0-0.899-0.399-0.899-0.899s0.4-0.9,0.899-0.9h2.25
			V18.03h-2.25c-0.5,0-0.899-0.399-0.899-0.899s0.4-0.9,0.899-0.9h6.249c0.5,0,0.9,0.4,0.9,0.9s-0.4,0.899-0.9,0.899h-2.224v14.196
			h2.224C64.521,32.227,64.92,32.627,64.92,33.127z"/>
		<path fill="#FFFFFF" d="M77.545,32.977c0,0.5-0.4,0.899-0.9,0.899h-7.273c-0.5,0-0.9-0.399-0.9-0.899V16.98
			c0-0.5,0.4-0.899,0.9-0.899c0.5,0,0.875,0.399,0.875,0.899v15.097h6.398C77.145,32.077,77.545,32.477,77.545,32.977z"/>
		<path fill="#FFFFFF" d="M86.77,16.23c0.5,0,0.9,0.4,0.9,0.875c0,0.5-0.4,0.899-0.9,0.899h-3.399v15.271c0,0.5-0.4,0.9-0.899,0.9
			c-0.475,0-0.875-0.4-0.875-0.9V18.005h-3.399c-0.5,0-0.9-0.399-0.9-0.899c0-0.475,0.4-0.875,0.9-0.875H86.77z"/>
		<path fill="#FFFFFF" d="M99.145,33.127c0,0.5-0.4,0.899-0.899,0.899h-7.198c-0.475,0-0.875-0.399-0.875-0.899V17.105
			c0-0.475,0.4-0.875,0.875-0.875h7.123c0.5,0,0.9,0.4,0.9,0.875c0,0.5-0.4,0.899-0.9,0.899h-6.224v5.549h5.499
			c0.5,0,0.899,0.4,0.899,0.9c0,0.475-0.4,0.874-0.899,0.874h-5.499v6.898h6.299C98.745,32.227,99.145,32.627,99.145,33.127z"/>
		<path fill="#FFFFFF" d="M110.97,34.177c-0.35,0-0.725-0.226-0.875-0.601l-2.624-8.072c0,0-0.2,0-3.674,0v7.798
			c0,0.475-0.4,0.875-0.9,0.875c-0.475,0-0.875-0.4-0.875-0.875V17.105c0-0.475,0.4-0.875,0.875-0.875h4.274
			c2.574,0,4.648,2.075,4.648,4.649c0,1.824-1.075,3.424-2.624,4.174l2.599,7.948C111.919,33.526,111.595,34.177,110.97,34.177z
			 M107.171,23.729c1.6,0,2.874-1.274,2.874-2.849c0-1.6-1.274-2.875-2.874-2.875h-3.375v5.724H107.171z"/>
		<path fill="#FFFFFF" d="M131.869,28.803c0,2.874-2.35,5.224-5.225,5.224h-3.948c-0.476,0-0.875-0.399-0.875-0.899V17.105
			c0-0.475,0.399-0.875,0.875-0.875h3.948c2.4,0,4.574,2,4.574,4.549c0,1.475-0.699,2.8-1.774,3.624
			C130.895,25.354,131.869,26.953,131.869,28.803z M123.596,18.005v5.599h3.049c1.551,0,2.8-1.274,2.8-2.824
			c0-1.499-1.249-2.774-2.8-2.774H123.596z M130.069,28.803c0-1.899-1.524-3.424-3.425-3.424h-3.049v6.848h3.049
			C128.545,32.227,130.069,30.702,130.069,28.803z"/>
		<path fill="#FFFFFF" d="M135.371,29.202V16.98c0-0.5,0.4-0.899,0.9-0.899c0.475,0,0.874,0.399,0.874,0.899v12.222
			c0,1.75,1.45,3.175,3.199,3.175c1.774,0,3.199-1.425,3.199-3.175V16.98c0-0.5,0.399-0.899,0.899-0.899
			c0.476,0,0.875,0.399,0.875,0.899v12.222c0,2.725-2.225,4.975-4.974,4.975S135.371,31.927,135.371,29.202z"/>
		<path fill="#FFFFFF" d="M159.618,28.803c0,2.874-2.349,5.224-5.224,5.224h-3.949c-0.475,0-0.875-0.399-0.875-0.899V17.105
			c0-0.475,0.4-0.875,0.875-0.875h3.949c2.399,0,4.574,2,4.574,4.549c0,1.475-0.7,2.8-1.775,3.624
			C158.644,25.354,159.618,26.953,159.618,28.803z M151.346,18.005v5.599h3.049c1.55,0,2.799-1.274,2.799-2.824
			c0-1.499-1.249-2.774-2.799-2.774H151.346z M157.818,28.803c0-1.899-1.524-3.424-3.424-3.424h-3.049v6.848h3.049
			C156.294,32.227,157.818,30.702,157.818,28.803z"/>
		<path fill="#FFFFFF" d="M173.168,28.803c0,2.874-2.35,5.224-5.224,5.224h-3.949c-0.475,0-0.874-0.399-0.874-0.899V17.105
			c0-0.475,0.399-0.875,0.874-0.875h3.949c2.399,0,4.573,2,4.573,4.549c0,1.475-0.699,2.8-1.773,3.624
			C172.193,25.354,173.168,26.953,173.168,28.803z M164.895,18.005v5.599h3.05c1.55,0,2.8-1.274,2.8-2.824
			c0-1.499-1.25-2.774-2.8-2.774H164.895z M171.369,28.803c0-1.899-1.525-3.424-3.425-3.424h-3.05v6.848h3.05
			C169.844,32.227,171.369,30.702,171.369,28.803z"/>
		<path fill="#FFFFFF" d="M185.743,32.977c0,0.5-0.399,0.899-0.899,0.899h-7.273c-0.5,0-0.9-0.399-0.9-0.899V16.98
			c0-0.5,0.4-0.899,0.9-0.899s0.875,0.399,0.875,0.899v15.097h6.398C185.344,32.077,185.743,32.477,185.743,32.977z"/>
		<path fill="#FFFFFF" d="M197.593,33.127c0,0.5-0.399,0.899-0.899,0.899h-7.198c-0.476,0-0.875-0.399-0.875-0.899V17.105
			c0-0.475,0.399-0.875,0.875-0.875h7.123c0.5,0,0.899,0.4,0.899,0.875c0,0.5-0.399,0.899-0.899,0.899h-6.224v5.549h5.499
			c0.499,0,0.899,0.4,0.899,0.9c0,0.475-0.4,0.874-0.899,0.874h-5.499v6.898h6.299C197.193,32.227,197.593,32.627,197.593,33.127z"
			/>
	</g>
	
		<line fill="none" stroke="#FFFFFF" stroke-linecap="round" stroke-miterlimit="10" x1="27.119" y1="44.478" x2="215.119" y2="44.478"/>
	
		<line fill="none" stroke="#FFFFFF" stroke-linecap="round" stroke-miterlimit="10" x1="27.119" y1="98.336" x2="215.119" y2="98.336"/>
	<g>
		<path fill="none" stroke="#FFFFFF" stroke-width="1.4" stroke-miterlimit="10" d="M241,120.584c0,4.02-3.289,7.309-7.309,7.309
			H8.301c-4.02,0-7.309-3.289-7.309-7.309V8.58c0-4.021,3.289-7.31,7.309-7.31h225.39c4.02,0,7.309,3.289,7.309,7.31V120.584z"/>
	</g>
	<rect x="165.903" y="85.714" fill="#FFFFFF" width="6.852" height="12.622"/>
	
		<line fill="none" stroke="#77C4D3" stroke-width="1.0186" stroke-miterlimit="10" x1="174.46" y1="92.024" x2="164.198" y2="92.024"/>
	<rect x="185.237" y="66.779" fill="#FFFFFF" width="6.852" height="31.557"/>
	
		<line fill="none" stroke="#77C4D3" stroke-width="1.0186" stroke-miterlimit="10" x1="193.794" y1="92.024" x2="183.532" y2="92.024"/>
	
		<line fill="none" stroke="#77C4D3" stroke-width="1.0186" stroke-miterlimit="10" x1="193.794" y1="85.714" x2="183.532" y2="85.714"/>
	
		<line fill="none" stroke="#77C4D3" stroke-width="1.0186" stroke-miterlimit="10" x1="193.794" y1="79.402" x2="183.532" y2="79.402"/>
	
		<line fill="none" stroke="#77C4D3" stroke-width="1.0186" stroke-miterlimit="10" x1="193.794" y1="73.091" x2="183.532" y2="73.091"/>
	<rect x="204.571" y="85.714" fill="#FFFFFF" width="6.852" height="12.622"/>
	
		<line fill="none" stroke="#77C4D3" stroke-width="1.0186" stroke-miterlimit="10" x1="213.128" y1="92.024" x2="202.866" y2="92.024"/>
	<rect x="127.235" y="85.714" fill="#FFFFFF" width="6.852" height="12.622"/>
	
		<line fill="none" stroke="#77C4D3" stroke-width="1.0186" stroke-miterlimit="10" x1="135.792" y1="92.024" x2="125.53" y2="92.024"/>
	<rect x="146.568" y="79.402" fill="#FFFFFF" width="6.852" height="18.934"/>
	
		<line fill="none" stroke="#77C4D3" stroke-width="1.0186" stroke-miterlimit="10" x1="155.125" y1="92.024" x2="144.863" y2="92.024"/>
	
		<line fill="none" stroke="#77C4D3" stroke-width="1.0186" stroke-miterlimit="10" x1="155.125" y1="85.714" x2="144.863" y2="85.714"/>
	<g>
		<g>
			<path fill="#FFFFFF" d="M27.606,106.992c0.012-0.023,0.06-0.18,0.659-1.594c0.06-0.168,0.204-0.277,0.372-0.277
				c0.276,0,0.492,0.301,0.372,0.6l-0.419,1.068c0.156,0.119,0.228,0.264,0.228,0.467c0,0.373-0.264,0.672-0.624,0.672
				c-0.372,0-0.647-0.299-0.647-0.672C27.546,107.172,27.57,107.076,27.606,106.992z"/>
			<path fill="#FFFFFF" d="M30.21,111.693v-4.473c0-1.152,0.947-2.1,2.111-2.1c1.151,0,2.099,0.947,2.099,2.1v4.473
				c0,1.164-0.947,2.111-2.099,2.111C31.157,113.805,30.21,112.857,30.21,111.693z M31.073,107.221v4.473
				c0,0.695,0.552,1.248,1.248,1.248c0.684,0,1.247-0.553,1.247-1.248v-4.473c0-0.684-0.563-1.248-1.247-1.248
				C31.625,105.973,31.073,106.537,31.073,107.221z"/>
			<path fill="#FFFFFF" d="M40.107,109.955v1.75c0,1.152-0.936,2.1-2.099,2.1c-1.163,0-2.099-0.947-2.099-2.1
				c0-0.238,0.192-0.432,0.42-0.432c0.24,0,0.432,0.193,0.432,0.432c0,0.684,0.563,1.248,1.247,1.248s1.248-0.564,1.248-1.248v-1.75
				c0-0.684-0.564-1.248-1.248-1.248c-0.6,0-1.079,0.336-1.211,0.961c-0.06,0.168-0.216,0.299-0.408,0.299
				c-0.24,0-0.432-0.191-0.432-0.432v-3.922c0-0.229,0.192-0.42,0.432-0.42h3.046c0.24,0,0.432,0.191,0.432,0.42
				c0,0.24-0.191,0.432-0.432,0.432h-2.626v2.242c0.324-0.264,0.731-0.432,1.199-0.432
				C39.172,107.855,40.107,108.791,40.107,109.955z"/>
		</g>
		<g>
			<path fill="#FFFFFF" d="M46.94,106.992c0.012-0.023,0.06-0.18,0.659-1.594c0.06-0.168,0.204-0.277,0.372-0.277
				c0.276,0,0.492,0.301,0.372,0.6l-0.419,1.068c0.156,0.119,0.228,0.264,0.228,0.467c0,0.373-0.264,0.672-0.624,0.672
				c-0.372,0-0.647-0.299-0.647-0.672C46.88,107.172,46.904,107.076,46.94,106.992z"/>
			<path fill="#FFFFFF" d="M49.543,111.693v-4.473c0-1.152,0.947-2.1,2.111-2.1c1.151,0,2.099,0.947,2.099,2.1v4.473
				c0,1.164-0.947,2.111-2.099,2.111C50.491,113.805,49.543,112.857,49.543,111.693z M50.407,107.221v4.473
				c0,0.695,0.552,1.248,1.248,1.248c0.684,0,1.247-0.553,1.247-1.248v-4.473c0-0.684-0.563-1.248-1.247-1.248
				C50.958,105.973,50.407,106.537,50.407,107.221z"/>
			<path fill="#FFFFFF" d="M59.441,110.303v1.402c0,1.152-0.948,2.1-2.111,2.1c-1.151,0-2.099-0.947-2.099-2.1v-4.473
				c0-1.164,0.948-2.111,2.099-2.111c1.043,0,2.003,0.828,2.099,1.92c0.024,0.215-0.156,0.467-0.408,0.467
				c-0.228,0-0.42-0.168-0.444-0.395c-0.06-0.637-0.6-1.129-1.247-1.129c-0.684,0-1.248,0.553-1.248,1.248v1.451
				c0.336-0.299,0.756-0.48,1.248-0.48C58.493,108.203,59.441,109.139,59.441,110.303z M58.577,111.705v-1.402
				c0-0.695-0.552-1.248-1.247-1.248c-0.684,0-1.248,0.42-1.248,1.248v1.402c0,0.684,0.564,1.248,1.248,1.248
				C58.025,112.953,58.577,112.389,58.577,111.705z"/>
		</g>
		<g>
			<path fill="#FFFFFF" d="M201.606,106.992c0.012-0.023,0.06-0.18,0.659-1.594c0.061-0.168,0.204-0.277,0.372-0.277
				c0.276,0,0.491,0.301,0.372,0.6l-0.42,1.068c0.156,0.119,0.228,0.264,0.228,0.467c0,0.373-0.264,0.672-0.624,0.672
				c-0.371,0-0.646-0.299-0.646-0.672C201.547,107.172,201.57,107.076,201.606,106.992z"/>
			<path fill="#FFFFFF" d="M208.443,113.301c0,0.24-0.191,0.432-0.432,0.432h-2.998c-0.24,0-0.432-0.191-0.432-0.432
				c0-0.227,0.191-0.42,0.432-0.42h1.127v-6.152l-0.863,1.031c-0.084,0.096-0.204,0.156-0.324,0.156
				c-0.336,0-0.563-0.42-0.336-0.707l1.619-1.932c0.084-0.096,0.204-0.156,0.324-0.156c0.229,0,0.432,0.193,0.432,0.432v7.328h1.02
				C208.252,112.881,208.443,113.074,208.443,113.301z"/>
			<path fill="#FFFFFF" d="M214.419,111.682c0,0.229-0.192,0.42-0.419,0.42h-0.684v1.271c0,0.24-0.192,0.432-0.433,0.432
				c-0.239,0-0.432-0.191-0.432-0.432v-1.271h-2.423c-0.287,0-0.504-0.287-0.396-0.576l2.194-6.115
				c0.061-0.18,0.229-0.289,0.396-0.289c0.287,0,0.491,0.289,0.408,0.576l-1.992,5.553h1.812v-0.947c0-0.24,0.192-0.432,0.432-0.432
				c0.24,0,0.433,0.191,0.433,0.432v0.947H214C214.227,111.25,214.419,111.441,214.419,111.682z"/>
		</g>
		<g>
			<path fill="#FFFFFF" d="M182.273,106.992c0.012-0.023,0.059-0.18,0.658-1.594c0.061-0.168,0.205-0.277,0.373-0.277
				c0.275,0,0.491,0.301,0.371,0.6l-0.42,1.068c0.156,0.119,0.229,0.264,0.229,0.467c0,0.373-0.264,0.672-0.624,0.672
				c-0.372,0-0.647-0.299-0.647-0.672C182.213,107.172,182.236,107.076,182.273,106.992z"/>
			<path fill="#FFFFFF" d="M189.109,113.301c0,0.24-0.191,0.432-0.432,0.432h-2.998c-0.24,0-0.432-0.191-0.432-0.432
				c0-0.227,0.191-0.42,0.432-0.42h1.127v-6.152l-0.863,1.031c-0.084,0.096-0.203,0.156-0.323,0.156
				c-0.336,0-0.563-0.42-0.336-0.707l1.619-1.932c0.084-0.096,0.204-0.156,0.323-0.156c0.229,0,0.432,0.193,0.432,0.432v7.328h1.02
				C188.918,112.881,189.109,113.074,189.109,113.301z"/>
			<path fill="#FFFFFF" d="M190.504,111.705c0-0.238,0.191-0.432,0.42-0.432c0.24,0,0.432,0.193,0.432,0.432
				c0,0.684,0.564,1.248,1.248,1.248s1.246-0.564,1.246-1.248v-1.139c0-0.695-0.516-1.248-1.199-1.248
				c-0.144,0-0.275,0.025-0.407,0.072c-0.18,0.061-0.372,0-0.491-0.143c-0.108-0.145-0.108-0.348,0-0.504l1.858-2.688h-2.063v0.6
				c0,0.24-0.191,0.432-0.432,0.432c-0.239,0-0.432-0.191-0.432-0.432v-1.031c0-0.227,0.192-0.42,0.432-0.42h3.311
				c0.336,0,0.552,0.385,0.359,0.66l-1.822,2.627c1.031,0.191,1.738,1.055,1.738,2.074v1.139c0,1.152-0.936,2.1-2.098,2.1
				C191.439,113.805,190.504,112.857,190.504,111.705z"/>
		</g>
		<g>
			<path fill="#FFFFFF" d="M162.939,106.992c0.012-0.023,0.061-0.18,0.66-1.594c0.06-0.168,0.203-0.277,0.371-0.277
				c0.276,0,0.492,0.301,0.372,0.6l-0.419,1.068c0.155,0.119,0.227,0.264,0.227,0.467c0,0.373-0.264,0.672-0.623,0.672
				c-0.371,0-0.647-0.299-0.647-0.672C162.88,107.172,162.904,107.076,162.939,106.992z"/>
			<path fill="#FFFFFF" d="M169.777,113.301c0,0.24-0.192,0.432-0.432,0.432h-2.998c-0.24,0-0.433-0.191-0.433-0.432
				c0-0.227,0.192-0.42,0.433-0.42h1.127v-6.152l-0.863,1.031c-0.084,0.096-0.205,0.156-0.324,0.156
				c-0.336,0-0.564-0.42-0.336-0.707l1.619-1.932c0.084-0.096,0.203-0.156,0.324-0.156c0.228,0,0.432,0.193,0.432,0.432v7.328h1.02
				C169.585,112.881,169.777,113.074,169.777,113.301z"/>
			<path fill="#FFFFFF" d="M171.627,113.732c-0.348,0-0.516-0.383-0.372-0.658l2.747-4.391c0.228-0.359,0.551-0.9,0.551-1.5
				c0-0.658-0.539-1.211-1.211-1.211c-0.684,0-1.247,0.564-1.247,1.26c0,0.229-0.192,0.42-0.432,0.42c-0.228,0-0.42-0.191-0.42-0.42
				c0-1.164,0.947-2.111,2.099-2.111c1.14,0,2.075,0.924,2.075,2.062c0,0.889-0.42,1.535-0.696,1.955l-2.326,3.73h2.687
				c0.239,0,0.42,0.191,0.42,0.432s-0.181,0.432-0.42,0.432H171.627z"/>
		</g>
		<g>
			<path fill="#FFFFFF" d="M143.606,106.992c0.012-0.023,0.06-0.18,0.659-1.594c0.061-0.168,0.204-0.277,0.372-0.277
				c0.276,0,0.491,0.301,0.372,0.6l-0.42,1.068c0.156,0.119,0.228,0.264,0.228,0.467c0,0.373-0.264,0.672-0.624,0.672
				c-0.371,0-0.646-0.299-0.646-0.672C143.547,107.172,143.57,107.076,143.606,106.992z"/>
			<path fill="#FFFFFF" d="M150.443,113.301c0,0.24-0.191,0.432-0.432,0.432h-2.998c-0.24,0-0.432-0.191-0.432-0.432
				c0-0.227,0.191-0.42,0.432-0.42h1.127v-6.152l-0.863,1.031c-0.084,0.096-0.204,0.156-0.324,0.156
				c-0.336,0-0.563-0.42-0.336-0.707l1.619-1.932c0.084-0.096,0.204-0.156,0.324-0.156c0.229,0,0.432,0.193,0.432,0.432v7.328h1.02
				C150.252,112.881,150.443,113.074,150.443,113.301z"/>
			<path fill="#FFFFFF" d="M156.143,113.301c0,0.24-0.191,0.432-0.432,0.432h-2.998c-0.24,0-0.432-0.191-0.432-0.432
				c0-0.227,0.191-0.42,0.432-0.42h1.127v-6.152l-0.863,1.031c-0.084,0.096-0.203,0.156-0.323,0.156
				c-0.336,0-0.563-0.42-0.336-0.707l1.619-1.932c0.084-0.096,0.204-0.156,0.323-0.156c0.229,0,0.432,0.193,0.432,0.432v7.328h1.02
				C155.951,112.881,156.143,113.074,156.143,113.301z"/>
		</g>
		<g>
			<path fill="#FFFFFF" d="M124.273,106.992c0.012-0.023,0.059-0.18,0.658-1.594c0.061-0.168,0.205-0.277,0.373-0.277
				c0.275,0,0.491,0.301,0.371,0.6l-0.42,1.068c0.156,0.119,0.229,0.264,0.229,0.467c0,0.373-0.264,0.672-0.624,0.672
				c-0.372,0-0.647-0.299-0.647-0.672C124.213,107.172,124.236,107.076,124.273,106.992z"/>
			<path fill="#FFFFFF" d="M131.109,113.301c0,0.24-0.191,0.432-0.432,0.432h-2.998c-0.24,0-0.432-0.191-0.432-0.432
				c0-0.227,0.191-0.42,0.432-0.42h1.127v-6.152l-0.863,1.031c-0.084,0.096-0.203,0.156-0.323,0.156
				c-0.336,0-0.563-0.42-0.336-0.707l1.619-1.932c0.084-0.096,0.204-0.156,0.323-0.156c0.229,0,0.432,0.193,0.432,0.432v7.328h1.02
				C130.918,112.881,131.109,113.074,131.109,113.301z"/>
			<path fill="#FFFFFF" d="M132.576,111.693v-4.473c0-1.152,0.947-2.1,2.111-2.1c1.15,0,2.098,0.947,2.098,2.1v4.473
				c0,1.164-0.947,2.111-2.098,2.111C133.523,113.805,132.576,112.857,132.576,111.693z M133.439,107.221v4.473
				c0,0.695,0.552,1.248,1.248,1.248c0.684,0,1.246-0.553,1.246-1.248v-4.473c0-0.684-0.562-1.248-1.246-1.248
				C133.991,105.973,133.439,106.537,133.439,107.221z"/>
		</g>
		<g>
			<path fill="#FFFFFF" d="M104.94,106.992c0.012-0.023,0.06-0.18,0.659-1.594c0.06-0.168,0.204-0.277,0.372-0.277
				c0.276,0,0.492,0.301,0.372,0.6l-0.419,1.068c0.156,0.119,0.228,0.264,0.228,0.467c0,0.373-0.264,0.672-0.624,0.672
				c-0.372,0-0.647-0.299-0.647-0.672C104.88,107.172,104.904,107.076,104.94,106.992z"/>
			<path fill="#FFFFFF" d="M107.543,111.693v-4.473c0-1.152,0.947-2.1,2.111-2.1c1.151,0,2.099,0.947,2.099,2.1v4.473
				c0,1.164-0.947,2.111-2.099,2.111C108.491,113.805,107.543,112.857,107.543,111.693z M108.407,107.221v4.473
				c0,0.695,0.552,1.248,1.248,1.248c0.684,0,1.247-0.553,1.247-1.248v-4.473c0-0.684-0.563-1.248-1.247-1.248
				C108.958,105.973,108.407,106.537,108.407,107.221z"/>
			<path fill="#FFFFFF" d="M113.243,108.623v-1.402c0-1.152,0.947-2.1,2.111-2.1c1.151,0,2.099,0.947,2.099,2.1v4.473
				c0,1.164-0.947,2.111-2.099,2.111c-1.043,0-2.003-0.828-2.099-1.918c-0.024-0.217,0.156-0.469,0.408-0.469
				c0.228,0,0.419,0.168,0.443,0.396c0.06,0.635,0.6,1.127,1.248,1.127c0.684,0,1.247-0.553,1.247-1.248v-1.451
				c-0.335,0.301-0.755,0.48-1.247,0.48C114.19,110.723,113.243,109.787,113.243,108.623z M114.106,107.221v1.402
				c0,0.695,0.552,1.248,1.248,1.248c0.684,0,1.247-0.42,1.247-1.248v-1.402c0-0.684-0.563-1.248-1.247-1.248
				C114.658,105.973,114.106,106.537,114.106,107.221z"/>
		</g>
		<g>
			<path fill="#FFFFFF" d="M85.606,106.992c0.012-0.023,0.06-0.18,0.659-1.594c0.06-0.168,0.204-0.277,0.372-0.277
				c0.276,0,0.492,0.301,0.372,0.6l-0.419,1.068c0.156,0.119,0.228,0.264,0.228,0.467c0,0.373-0.264,0.672-0.624,0.672
				c-0.372,0-0.647-0.299-0.647-0.672C85.546,107.172,85.57,107.076,85.606,106.992z"/>
			<path fill="#FFFFFF" d="M88.21,111.693v-4.473c0-1.152,0.947-2.1,2.111-2.1c1.151,0,2.099,0.947,2.099,2.1v4.473
				c0,1.164-0.947,2.111-2.099,2.111C89.157,113.805,88.21,112.857,88.21,111.693z M89.073,107.221v4.473
				c0,0.695,0.552,1.248,1.248,1.248c0.684,0,1.247-0.553,1.247-1.248v-4.473c0-0.684-0.563-1.248-1.247-1.248
				C89.625,105.973,89.073,106.537,89.073,107.221z"/>
			<path fill="#FFFFFF" d="M97.34,109.236c0.479,0.371,0.779,0.959,0.779,1.617v0.912c0,1.127-0.911,2.039-2.039,2.039h-0.12
				c-1.127,0-2.039-0.912-2.039-2.039v-0.912c0-0.658,0.312-1.246,0.792-1.617c-0.48-0.373-0.792-0.961-0.792-1.607v-0.408
				c0-1.127,0.912-2.039,2.039-2.039h0.12c1.127,0,2.039,0.912,2.039,2.039v0.408C98.119,108.275,97.819,108.863,97.34,109.236z
				 M96.081,108.803c0.66,0,1.187-0.527,1.187-1.174v-0.408c0-0.66-0.527-1.188-1.187-1.188h-0.12c-0.66,0-1.188,0.527-1.188,1.188
				v0.408c0,0.646,0.528,1.174,1.188,1.174H96.081z M96.081,109.668h-0.12c-0.66,0-1.188,0.527-1.188,1.186v0.912
				c0,0.648,0.528,1.188,1.188,1.188h0.12c0.66,0,1.187-0.539,1.187-1.188v-0.912C97.268,110.195,96.74,109.668,96.081,109.668z"/>
		</g>
		<g>
			<path fill="#FFFFFF" d="M66.273,106.992c0.012-0.023,0.06-0.18,0.659-1.594c0.06-0.168,0.204-0.277,0.372-0.277
				c0.276,0,0.492,0.301,0.372,0.6l-0.419,1.068c0.156,0.119,0.228,0.264,0.228,0.467c0,0.373-0.264,0.672-0.624,0.672
				c-0.372,0-0.647-0.299-0.647-0.672C66.213,107.172,66.237,107.076,66.273,106.992z"/>
			<path fill="#FFFFFF" d="M68.876,111.693v-4.473c0-1.152,0.947-2.1,2.111-2.1c1.151,0,2.099,0.947,2.099,2.1v4.473
				c0,1.164-0.947,2.111-2.099,2.111C69.824,113.805,68.876,112.857,68.876,111.693z M69.74,107.221v4.473
				c0,0.695,0.552,1.248,1.248,1.248c0.684,0,1.247-0.553,1.247-1.248v-4.473c0-0.684-0.563-1.248-1.247-1.248
				C70.292,105.973,69.74,106.537,69.74,107.221z"/>
			<path fill="#FFFFFF" d="M77.754,106.057h-2.303v0.6c0,0.24-0.192,0.432-0.432,0.432c-0.24,0-0.432-0.191-0.432-0.432v-1.031
				c0-0.227,0.192-0.42,0.432-0.42h3.322c0.3,0,0.479,0.301,0.408,0.553l-2.507,7.748c-0.072,0.191-0.24,0.299-0.408,0.299
				c-0.3,0-0.492-0.312-0.408-0.564L77.754,106.057z"/>
		</g>
	</g>
</g>
</svg>
