<?xml version="1.0" encoding="utf-8"?>
<!-- Generator: Adobe Illustrator 16.0.0, SVG Export Plug-In . SVG Version: 6.00 Build 0)  -->
<!DOCTYPE svg PUBLIC "-//W3C//DTD SVG 1.1//EN" "http://www.w3.org/Graphics/SVG/1.1/DTD/svg11.dtd">
<svg version="1.1" id="Layer_1" xmlns="http://www.w3.org/2000/svg" xmlns:xlink="http://www.w3.org/1999/xlink" x="0px" y="0px"
	 width="603.5px" height="414px" viewBox="-8 0 603.5 414" enable-background="new -8 0 603.5 414" xml:space="preserve">
<g id="Layer_1_1_">
</g>
<g>
	<g>
		
			<line fill="none" stroke="#FFFFFF" stroke-width="1.5" stroke-linecap="round" stroke-linejoin="round" x1="125" y1="88.5" x2="123" y2="88.5"/>
		
			<path fill="none" stroke="#FFFFFF" stroke-width="1.5" stroke-linecap="round" stroke-linejoin="round" stroke-dasharray="4.9998,4.9998" d="
			M118,88.5H3.682c-3.85,0-7,2.975-7,6.824l0.184,312.658"/>
		
			<line fill="none" stroke="#FFFFFF" stroke-width="1.5" stroke-linecap="round" stroke-linejoin="round" x1="-3.5" y1="410" x2="-3.5" y2="413"/>
	</g>
</g>
<g>
	<g>
		
			<line fill="none" stroke="#FFFFFF" stroke-width="1.5" stroke-linecap="round" stroke-linejoin="round" x1="465" y1="88.5" x2="468" y2="88.5"/>
		
			<path fill="none" stroke="#FFFFFF" stroke-width="1.5" stroke-linecap="round" stroke-linejoin="round" stroke-dasharray="5.0123,5.0123" d="
			M473,88.5h115.019c3.85,0,7,2.975,7,6.824l0.019,312.652"/>
		
			<line fill="none" stroke="#FFFFFF" stroke-width="1.5" stroke-linecap="round" stroke-linejoin="round" x1="595.5" y1="410" x2="595.5" y2="413"/>
	</g>
</g>
<g>
	
		<path fill="none" stroke="#FFFFFF" stroke-width="1.5" stroke-linecap="round" stroke-linejoin="round" stroke-dasharray="4.9655,4.9655" d="
		M252.5,142.477c0,2.773-2.249,5.022-5.023,5.022H130.523c-2.773,0-5.022-2.249-5.022-5.022V7.523c0-2.774,2.249-5.023,5.022-5.023
		h116.953c2.774,0,5.023,2.249,5.023,5.023L252.5,142.477L252.5,142.477z"/>
</g>
<g>
	
		<path fill="none" stroke="#FFFFFF" stroke-width="1.5" stroke-linecap="round" stroke-linejoin="round" stroke-dasharray="4.9635,4.9635" d="
		M465.5,149.477c0,2.773-2.249,5.022-5.023,5.022H356.523c-2.773,0-5.022-2.249-5.022-5.022V46.523c0-2.774,2.249-5.023,5.022-5.023
		h103.953c2.774,0,5.022,2.249,5.022,5.023v102.954H465.5z"/>
</g>
</svg>
