<?xml version="1.0" encoding="utf-8"?>
<!-- Generator: Adobe Illustrator 16.0.0, SVG Export Plug-In . SVG Version: 6.00 Build 0)  -->
<!DOCTYPE svg PUBLIC "-//W3C//DTD SVG 1.1//EN" "http://www.w3.org/Graphics/SVG/1.1/DTD/svg11.dtd">
<svg version="1.1" xmlns="http://www.w3.org/2000/svg" xmlns:xlink="http://www.w3.org/1999/xlink" x="0px" y="0px" width="608px"
	 height="730px" viewBox="0 0 608 730" enable-background="new 0 0 608 730" xml:space="preserve">
<g id="Layer_1">
</g>
<g id="Layer_3">
	<g>
		<g>
			
				<line fill="none" stroke="#FFFFFF" stroke-width="4" stroke-linecap="round" stroke-linejoin="round" x1="574.5" y1="498" x2="577.5" y2="498"/>
			
				<path fill="none" stroke="#FFFFFF" stroke-width="4" stroke-linecap="round" stroke-linejoin="round" stroke-dasharray="4.9022,4.9022" d="
				M581.5,498h14.993c3.85,0,7.014,3.137,7.031,6.986l0.755,217.083"/>
			
				<line fill="none" stroke="#FFFFFF" stroke-width="4" stroke-linecap="round" stroke-linejoin="round" x1="604.492" y1="724.5" x2="604.503" y2="727"/>
		</g>
	</g>
	<g>
		<g>
			
				<line fill="none" stroke="#FFFFFF" stroke-width="4" stroke-linecap="round" stroke-linejoin="round" x1="177.5" y1="144" x2="175.5" y2="144"/>
			
				<path fill="none" stroke="#FFFFFF" stroke-width="4" stroke-linecap="round" stroke-linejoin="round" stroke-dasharray="5.0268,5.0268" d="
				M169.5,144H10.516c-3.85,0-7,3.136-7,6.986L3.281,722.007"/>
			
				<line fill="none" stroke="#FFFFFF" stroke-width="4" stroke-linecap="round" stroke-linejoin="round" x1="3.5" y1="725" x2="3.5" y2="727"/>
		</g>
	</g>
	<g>
		<g>
			
				<line fill="none" stroke="#FFFFFF" stroke-width="4" stroke-linecap="round" stroke-linejoin="round" x1="200.5" y1="4" x2="197.5" y2="4"/>
			
				<path fill="none" stroke="#FFFFFF" stroke-width="4" stroke-linecap="round" stroke-linejoin="round" stroke-dasharray="4.9289,4.9289" d="
				M193.5,4h-8.984c-3.85,0-7,3.136-7,6.986l0.01,281.172c0,3.85,3.15,6.842,7,6.842H195.5"/>
			
				<line fill="none" stroke="#FFFFFF" stroke-width="4" stroke-linecap="round" stroke-linejoin="round" x1="197.5" y1="299" x2="200.5" y2="299"/>
		</g>
	</g>
	<g>
		<g>
			
				<line fill="none" stroke="#FFFFFF" stroke-width="4" stroke-linecap="round" stroke-linejoin="round" x1="551.5" y1="652" x2="554.5" y2="652"/>
			
				<path fill="none" stroke="#FFFFFF" stroke-width="4" stroke-linecap="round" stroke-linejoin="round" stroke-dasharray="4.9289,4.9289" d="
				M558.5,652h9.001c3.85,0,7-2.999,7-6.849l-0.01-281.241c0-3.85-3.15-6.911-7-6.911H556.5"/>
			
				<line fill="none" stroke="#FFFFFF" stroke-width="4" stroke-linecap="round" stroke-linejoin="round" x1="554.5" y1="357" x2="551.5" y2="357"/>
		</g>
	</g>
</g>
</svg>
