<?xml version="1.0" encoding="utf-8"?>
<!-- Generator: Adobe Illustrator 16.0.0, SVG Export Plug-In . SVG Version: 6.00 Build 0)  -->
<!DOCTYPE svg PUBLIC "-//W3C//DTD SVG 1.1//EN" "http://www.w3.org/Graphics/SVG/1.1/DTD/svg11.dtd">
<svg version="1.1" id="Layer_1" xmlns="http://www.w3.org/2000/svg" xmlns:xlink="http://www.w3.org/1999/xlink" x="0px" y="0px"
	 width="610.5px" height="143px" viewBox="-7.25 0 610.5 143" enable-background="new -7.25 0 610.5 143" xml:space="preserve">
<g id="Layer_1_1_">
</g>
<g>
	<g>
		
			<line fill="none" stroke="#FFFFFF" stroke-width="1.5" stroke-linecap="round" stroke-linejoin="round" x1="45" y1="59.5" x2="42" y2="59.5"/>
		
			<path fill="none" stroke="#FFFFFF" stroke-width="1.5" stroke-linecap="round" stroke-linejoin="round" stroke-dasharray="4.8886,4.8886" d="
			M37,59.5H2.678c-3.85,0-7,3.123-7,6.973l-0.132,69.341"/>
		
			<line fill="none" stroke="#FFFFFF" stroke-width="1.5" stroke-linecap="round" stroke-linejoin="round" x1="-4.5" y1="138" x2="-4.5" y2="141"/>
	</g>
</g>
<g>
	<g>
		
			<line fill="none" stroke="#FFFFFF" stroke-width="1.5" stroke-linecap="round" stroke-linejoin="round" x1="552" y1="30.5" x2="554" y2="30.5"/>
		
			<path fill="none" stroke="#FFFFFF" stroke-width="1.5" stroke-linecap="round" stroke-linejoin="round" stroke-dasharray="4.8592,4.8592" d="
			M559,30.5h34.021c3.85,0,7,3.017,7,6.867l-0.099,98.619"/>
		
			<line fill="none" stroke="#FFFFFF" stroke-width="1.5" stroke-linecap="round" stroke-linejoin="round" x1="600.5" y1="138" x2="600.5" y2="141"/>
	</g>
</g>
<g>
	
		<path fill="none" stroke="#FFFFFF" stroke-width="1.5" stroke-linecap="round" stroke-linejoin="round" stroke-dasharray="5.0492,5.0492" d="
		M143.5,103.477c0,2.774-2.249,5.023-5.023,5.023H51.523c-2.772,0-5.021-2.249-5.021-5.023V14.523c0-2.774,2.249-5.023,5.021-5.023
		h86.953c2.774,0,5.023,2.249,5.023,5.023L143.5,103.477L143.5,103.477z"/>
</g>
<g>
	
		<path fill="none" stroke="#FFFFFF" stroke-width="1.5" stroke-linecap="round" stroke-linejoin="round" stroke-dasharray="4.9196,4.9196" d="
		M550.5,46.477c0,2.774-2.25,5.023-5.023,5.023h-42.953c-2.773,0-5.023-2.249-5.023-5.023V6.523c0-2.774,2.25-5.023,5.023-5.023
		h42.953c2.773,0,5.023,2.249,5.023,5.023V46.477z"/>
</g>
</svg>
