<?xml version="1.0" encoding="utf-8"?>
<!-- Generator: Adobe Illustrator 16.0.0, SVG Export Plug-In . SVG Version: 6.00 Build 0)  -->
<!DOCTYPE svg PUBLIC "-//W3C//DTD SVG 1.1//EN" "http://www.w3.org/Graphics/SVG/1.1/DTD/svg11.dtd">
<svg version="1.1" xmlns="http://www.w3.org/2000/svg" xmlns:xlink="http://www.w3.org/1999/xlink" x="0px" y="0px" width="612px"
	 height="520px" viewBox="0 0 612 520" enable-background="new 0 0 612 520" xml:space="preserve">
<g id="Layer_1">
</g>
<g id="Layer_3">
	<g>
		
			<path fill="none" stroke="#FFFFFF" stroke-width="3" stroke-linecap="round" stroke-linejoin="round" stroke-dasharray="4.9257,4.9257" d="
			M274.5,47.542c0,1.081-0.876,1.958-1.958,1.958h-20.085c-1.081,0-1.958-0.876-1.958-1.958V5.458c0-1.081,0.876-1.958,1.958-1.958
			h20.085c1.081,0,1.958,0.876,1.958,1.958V47.542z"/>
	</g>
	<g>
		
			<path fill="none" stroke="#FFFFFF" stroke-width="3" stroke-linecap="round" stroke-linejoin="round" stroke-dasharray="5.0381,5.0381" d="
			M407.5,112.032c0,2.468-2.001,4.468-4.469,4.468h-58.062c-2.468,0-4.469-2-4.469-4.468V32.968c0-2.468,2.001-4.468,4.469-4.468
			h58.062c2.468,0,4.469,2,4.469,4.468V112.032z"/>
	</g>
	<g>
		<g>
			
				<line fill="none" stroke="#FFFFFF" stroke-width="3" stroke-linecap="round" stroke-linejoin="round" x1="2.5" y1="517" x2="2.5" y2="514"/>
			
				<path fill="none" stroke="#FFFFFF" stroke-width="3" stroke-linecap="round" stroke-linejoin="round" stroke-dasharray="5.0223,5.0223" d="
				M2.54,509.132l-0.01-164.61c0-3.85,3.13-7.021,6.98-7.021h63.869c3.85,0,6.99-3.01,6.978-6.859L79.401,30.669
				c-0.012-3.85,3.127-7.169,6.978-7.169H246"/>
			
				<line fill="none" stroke="#FFFFFF" stroke-width="3" stroke-linecap="round" stroke-linejoin="round" x1="248" y1="23.5" x2="251" y2="23.5"/>
		</g>
	</g>
	<g>
		<g>
			
				<line fill="none" stroke="#FFFFFF" stroke-width="3" stroke-linecap="round" stroke-linejoin="round" x1="407.018" y1="74.339" x2="409.518" y2="74.314"/>
			
				<path fill="none" stroke="#FFFFFF" stroke-width="3" stroke-linecap="round" stroke-linejoin="round" stroke-dasharray="4.9644,4.9644" d="
				M414.481,74.122l134.812-1.239c3.851-0.037,7,3.118,7,6.968l-0.006,153.688c0,3.85,3.15,6.961,7,6.961H602.5
				c3.85,0,7,3.263,7,7.113V470"/>
			
				<line fill="none" stroke="#FFFFFF" stroke-width="3" stroke-linecap="round" stroke-linejoin="round" x1="609.5" y1="473" x2="609.5" y2="475"/>
		</g>
	</g>
</g>
</svg>
