<?xml version="1.0" encoding="utf-8"?>
<!-- Generator: Adobe Illustrator 16.0.0, SVG Export Plug-In . SVG Version: 6.00 Build 0)  -->
<!DOCTYPE svg PUBLIC "-//W3C//DTD SVG 1.1//EN" "http://www.w3.org/Graphics/SVG/1.1/DTD/svg11.dtd">
<svg version="1.1" id="Livello_1" xmlns="http://www.w3.org/2000/svg" xmlns:xlink="http://www.w3.org/1999/xlink" x="0px" y="0px"
	 width="246px" height="152px" viewBox="0 0 246 152" enable-background="new 0 0 246 152" xml:space="preserve">
<g>
	<path fill="#9E9E9E" d="M230.925,57.262c-2.206,0-4.011-1.805-4.011-4.01V42.394c0-2.206-1.805-4.011-4.011-4.011h-10.855
		c-2.206,0-5.815,0-8.021,0H193.17c-2.205,0-5.814,0-8.021,0h-10.855c-2.206,0-5.815,0-8.021,0h-10.855c-2.206,0-5.815,0-8.021,0
		H136.54c-2.206,0-4.011-1.805-4.011-4.011V23.515c0-2.206-1.805-4.011-4.011-4.011h-10.855c-2.206,0-4.011-1.805-4.011-4.011V4.636
		c0-2.206-1.805-4.011-4.011-4.011H98.785c-2.205,0-5.814,0-8.021,0H79.909c-2.206,0-5.815,0-8.022,0H61.032
		c-2.206,0-4.011,1.805-4.011,4.011v10.857c0,2.206-1.805,4.011-4.011,4.011H42.155c-2.206,0-4.011,1.805-4.011,4.011v10.857
		c0,2.206-1.805,4.011-4.011,4.011H23.278c-2.206,0-5.815,0-8.021,0H4.4c-2.205,0-4.01,1.805-4.01,4.011v10.858
		c0,2.205,0,5.814,0,8.021V72.13c0,2.206,0,5.815,0,8.021v10.857c0,2.206,0,5.815,0,8.021v10.857c0,2.206,0,5.815,0,8.021v10.857
		c0,2.206,0,5.815,0,8.021v10.857c0,2.206,1.805,4.011,4.01,4.011h10.856c2.206,0,4.011-1.805,4.011-4.011v-10.857
		c0-2.206,1.805-4.011,4.011-4.011h10.855c2.206,0,5.815,0,8.021,0h10.855c2.206,0,5.815,0,8.021,0h10.854c2.207,0,5.816,0,8.022,0
		h10.855c2.206,0,4.011-1.805,4.011-4.011v-10.857c0-2.206,1.805-4.011,4.01-4.011h10.856c2.206,0,5.815,0,8.021,0h10.855
		c2.206,0,4.011,1.805,4.011,4.011v10.857c0,2.206,1.805,4.011,4.011,4.011h10.855c2.206,0,5.815,0,8.021,0h10.855
		c2.206,0,5.815,0,8.021,0h10.855c2.206,0,5.815,0,8.021,0h10.856c2.206,0,5.815,0,8.021,0h10.855c2.206,0,4.011-1.805,4.011-4.011
		v-10.857c0-2.206,0-5.815,0-8.021V99.03c0-2.206,1.805-4.011,4.011-4.011h10.855c2.206,0,4.011-1.805,4.011-4.011V80.151
		c0-2.206,0-5.815,0-8.021V61.272c0-2.206-1.805-4.011-4.011-4.011H230.925z"/>
</g>
</svg>
