<?xml version="1.0" encoding="utf-8"?>
<!-- Generator: Adobe Illustrator 16.0.0, SVG Export Plug-In . SVG Version: 6.00 Build 0)  -->
<!DOCTYPE svg PUBLIC "-//W3C//DTD SVG 1.1//EN" "http://www.w3.org/Graphics/SVG/1.1/DTD/svg11.dtd">
<svg version="1.1" id="Livello_1" xmlns="http://www.w3.org/2000/svg" xmlns:xlink="http://www.w3.org/1999/xlink" x="0px" y="0px"
	 width="170px" height="38px" viewBox="0 0 170 38" enable-background="new 0 0 170 38" xml:space="preserve">
<g>
	<path fill="#AEAEAF" d="M155.294-0.223c-2.206,0-5.815,0-8.021,0h-10.855c-2.206,0-5.815,0-8.021,0H117.54
		c-2.206,0-4.011,1.805-4.011,4.011v10.857c0,2.206-1.805,4.011-4.011,4.011H98.663c-2.206,0-4.011-1.805-4.011-4.011V3.788
		c0-2.206-1.805-4.011-4.011-4.011H79.785c-2.205,0-5.814,0-8.021,0H60.909c-2.206,0-5.815,0-8.022,0H42.032
		c-2.206,0-5.815,0-8.021,0H23.155c-2.206,0-5.815,0-8.021,0H4.278c-2.206,0-4.011,1.805-4.011,4.011v10.857
		c0,2.206,0,5.815,0,8.022v10.856c0,2.206,1.805,4.011,4.011,4.011h10.855c2.206,0,5.815,0,8.021,0h10.855c2.206,0,5.815,0,8.021,0
		h10.854c2.207,0,5.816,0,8.022,0h10.855c2.206,0,5.815,0,8.021,0h10.856c2.206,0,5.815,0,8.021,0h10.855c2.206,0,5.815,0,8.021,0
		h10.855c2.206,0,5.815,0,8.021,0h10.855c2.206,0,5.815,0,8.021,0h10.855c2.206,0,4.011-1.805,4.011-4.011V22.668
		c0-2.207,0-5.816,0-8.022V3.788c0-2.206-1.805-4.011-4.011-4.011H155.294z"/>
</g>
</svg>
