<?xml version="1.0" encoding="utf-8"?>
<!-- Generator: Adobe Illustrator 16.0.0, SVG Export Plug-In . SVG Version: 6.00 Build 0)  -->
<!DOCTYPE svg PUBLIC "-//W3C//DTD SVG 1.1//EN" "http://www.w3.org/Graphics/SVG/1.1/DTD/svg11.dtd">
<svg version="1.1" xmlns="http://www.w3.org/2000/svg" xmlns:xlink="http://www.w3.org/1999/xlink" x="0px" y="0px" width="439px"
	 height="338px" viewBox="0 0 439 338" enable-background="new 0 0 439 338" xml:space="preserve">
<g id="Layer_1">
</g>
<g id="Layer_3">
	<g>
		<g>
			
				<line fill="none" stroke="#FFFFFF" stroke-width="3" stroke-linecap="round" stroke-linejoin="round" x1="91" y1="59" x2="88" y2="59"/>
			
				<path fill="none" stroke="#FFFFFF" stroke-width="3" stroke-linecap="round" stroke-linejoin="round" stroke-dasharray="5.0286,5.0286" d="
				M83,59H9.686c-3.85,0-7,3.194-7,7.044L2.633,331.137"/>
			
				<line fill="none" stroke="#FFFFFF" stroke-width="3" stroke-linecap="round" stroke-linejoin="round" x1="2.5" y1="333.5" x2="2.5" y2="336.5"/>
		</g>
	</g>
	<g>
		<g>
			
				<line fill="none" stroke="#FFFFFF" stroke-width="3" stroke-linecap="round" stroke-linejoin="round" x1="350" y1="64" x2="352" y2="64"/>
			
				<path fill="none" stroke="#FFFFFF" stroke-width="3" stroke-linecap="round" stroke-linejoin="round" stroke-dasharray="5.0637,5.0637" d="
				M358,64h71.016c3.85,0,7,3.386,7,7.236l0.229,259.257"/>
			
				<line fill="none" stroke="#FFFFFF" stroke-width="3" stroke-linecap="round" stroke-linejoin="round" x1="436.5" y1="333.5" x2="436.5" y2="335.5"/>
		</g>
	</g>
	<g>
		
			<path fill="none" stroke="#FFFFFF" stroke-width="3" stroke-linecap="round" stroke-linejoin="round" stroke-dasharray="4.9935,4.9935" d="
			M187.5,103.977c0,2.774-2.249,5.023-5.023,5.023H95.523c-2.774,0-5.023-2.249-5.023-5.023V22.023c0-2.774,2.249-5.023,5.023-5.023
			h86.953c2.774,0,5.023,2.249,5.023,5.023V103.977z"/>
	</g>
	<g>
		
			<path fill="none" stroke="#FFFFFF" stroke-width="3" stroke-linecap="round" stroke-linejoin="round" stroke-dasharray="5.0175,5.0175" d="
			M350.5,125.109c0,1.597-1.295,2.891-2.892,2.891H214.392c-1.597,0-2.892-1.294-2.892-2.891V5.891c0-1.597,1.294-2.891,2.892-2.891
			h133.217c1.597,0,2.892,1.294,2.892,2.891V125.109z"/>
	</g>
</g>
</svg>
