<?xml version="1.0" encoding="utf-8"?>
<!-- Generator: Adobe Illustrator 16.0.0, SVG Export Plug-In . SVG Version: 6.00 Build 0)  -->
<!DOCTYPE svg PUBLIC "-//W3C//DTD SVG 1.1//EN" "http://www.w3.org/Graphics/SVG/1.1/DTD/svg11.dtd">
<svg version="1.1" xmlns="http://www.w3.org/2000/svg" xmlns:xlink="http://www.w3.org/1999/xlink" x="0px" y="0px" width="623px"
	 height="340px" viewBox="0 0 623 340" enable-background="new 0 0 623 340" xml:space="preserve">
<g id="Layer_1">
</g>
<g id="Layer_3">
	<g>
		<g>
			<g>
				
					<line fill="none" stroke="#FFFFFF" stroke-width="3" stroke-linecap="round" stroke-linejoin="round" x1="92" y1="128" x2="92" y2="131"/>
				
					<line fill="none" stroke="#FFFFFF" stroke-width="3" stroke-linecap="round" stroke-linejoin="round" stroke-dasharray="4.9716,4.9716" x1="92.185" y1="135.638" x2="92.176" y2="332.015"/>
				
					<line fill="none" stroke="#FFFFFF" stroke-width="3" stroke-linecap="round" stroke-linejoin="round" x1="92" y1="335" x2="92" y2="337"/>
			</g>
		</g>
		<g>
			<g>
				
					<line fill="none" stroke="#FFFFFF" stroke-width="3" stroke-linecap="round" stroke-linejoin="round" x1="553.5" y1="53.5" x2="551.5" y2="53.5"/>
				
					<path fill="none" stroke="#FFFFFF" stroke-width="3" stroke-linecap="round" stroke-linejoin="round" stroke-dasharray="4.9724,4.9724" d="
					M546.5,53.5h-13.984c-3.85,0-7,3.386-7,7.236l0.079,270.923"/>
				
					<line fill="none" stroke="#FFFFFF" stroke-width="3" stroke-linecap="round" stroke-linejoin="round" x1="526" y1="335" x2="526" y2="337"/>
			</g>
		</g>
		<g>
			
				<path fill="none" stroke="#FFFFFF" stroke-width="3" stroke-linecap="round" stroke-linejoin="round" stroke-dasharray="4.9741,4.9741" d="
				M123,121.477c0,2.774-2.249,5.023-5.023,5.023H9.023C6.249,126.5,4,124.251,4,121.477V12.523C4,9.749,6.249,7.5,9.023,7.5
				h108.953c2.774,0,5.023,2.249,5.023,5.023V121.477z"/>
		</g>
		<g>
			
				<path fill="none" stroke="#FFFFFF" stroke-width="3" stroke-linecap="round" stroke-linejoin="round" stroke-dasharray="5.0178,5.0178" d="
				M620,57.609c0,1.597-1.295,2.891-2.892,2.891h-60.217c-1.597,0-2.892-1.294-2.892-2.891V6.391c0-1.597,1.295-2.891,2.892-2.891
				h60.217c1.597,0,2.892,1.294,2.892,2.891V57.609z"/>
		</g>
	</g>
</g>
</svg>
