<?xml version="1.0" encoding="utf-8"?>
<!-- Generator: Adobe Illustrator 16.0.0, SVG Export Plug-In . SVG Version: 6.00 Build 0)  -->
<svg version="1.2" baseProfile="tiny" id="Layer_1" xmlns="http://www.w3.org/2000/svg" xmlns:xlink="http://www.w3.org/1999/xlink"
	 x="0px" y="0px" width="242px" height="207px" viewBox="0 0 242 207" xml:space="preserve">
<g>
	<path fill="none" stroke="#FFFFFF" stroke-width="1.4" stroke-miterlimit="10" d="M241.004,199.137c0,4.021-3.289,7.31-7.31,7.31
		H8.305c-4.02,0-7.309-3.289-7.309-7.31V7.863c0-4.02,3.289-7.309,7.309-7.309h225.389c4.021,0,7.31,3.289,7.31,7.309V199.137z"/>
	<g>
		<path fill="#FFFFFF" d="M80.126,29.01c0-0.5,0.4-0.9,0.875-0.9c0.5,0,0.9,0.4,0.9,0.9c0,1.3,1.075,2.674,3.099,2.674
			c1.924,0,3.149-1.05,3.149-2.624c0-1.175-0.15-2.175-2.05-3.349c-2.274-1.325-2.799-1.625-3.324-1.975
			c-1.524-1.05-2.499-2.274-2.499-4.1c0-2.674,2.174-4.273,4.674-4.273c2.624,0,4.749,1.899,4.749,4.448c0,0.5-0.4,0.9-0.9,0.9
			c-0.5,0-0.899-0.4-0.899-0.9c0-1.324-1-2.674-2.949-2.674c-2,0-2.875,1.25-2.875,2.475c0,0.624,0,1.449,1.575,2.574
			c0.375,0.274,1.375,0.875,3.324,1.999c1.924,1.1,2.974,2.725,2.974,4.874c0,2.8-2.424,4.399-4.949,4.399
			C81.951,33.459,80.126,31.209,80.126,29.01z"/>
		<path fill="#FFFFFF" d="M92.826,28.484v-8.147c0-2.725,2.225-4.974,4.974-4.974c2.75,0,4.974,2.249,4.974,4.974v8.147
			c0,2.75-2.225,4.975-4.974,4.975C95.05,33.459,92.826,31.234,92.826,28.484z M94.6,20.337v8.147c0,1.75,1.425,3.199,3.199,3.199
			c1.75,0,3.199-1.449,3.199-3.199v-8.147c0-1.75-1.449-3.199-3.199-3.199C96.025,17.138,94.6,18.587,94.6,20.337z"/>
		<path fill="#FFFFFF" d="M106.4,28.484v-8.147c0-2.725,2.225-4.974,4.974-4.974c2.575,0,4.699,2.024,4.949,4.474
			c0.05,0.475-0.3,0.925-0.8,0.975c-0.475,0.05-0.925-0.3-0.975-0.8c-0.15-1.624-1.524-2.874-3.174-2.874
			c-1.75,0-3.199,1.449-3.199,3.199v8.147c0,1.75,1.45,3.199,3.199,3.199c1.65,0,3.024-1.249,3.174-2.874
			c0.05-0.5,0.5-0.85,0.975-0.8c0.5,0.05,0.85,0.5,0.8,0.975c-0.25,2.574-2.5,4.475-4.949,4.475
			C108.625,33.459,106.4,31.234,106.4,28.484z"/>
		<path fill="#FFFFFF" d="M126.698,32.409c0,0.499-0.399,0.899-0.899,0.899h-6.249c-0.5,0-0.899-0.4-0.899-0.899
			c0-0.5,0.4-0.9,0.899-0.9h2.25V17.312h-2.25c-0.5,0-0.899-0.4-0.899-0.899c0-0.5,0.4-0.9,0.899-0.9h6.249
			c0.5,0,0.899,0.4,0.899,0.9c0,0.499-0.399,0.899-0.899,0.899h-2.225v14.196h2.225C126.299,31.509,126.698,31.909,126.698,32.409z"
			/>
		<path fill="#FFFFFF" d="M139.223,32.409c0,0.499-0.4,0.899-0.899,0.899h-7.198c-0.475,0-0.875-0.4-0.875-0.899V16.388
			c0-0.475,0.4-0.875,0.875-0.875h7.123c0.5,0,0.9,0.4,0.9,0.875c0,0.5-0.4,0.899-0.9,0.899h-6.224v5.549h5.499
			c0.5,0,0.899,0.4,0.899,0.9c0,0.475-0.399,0.874-0.899,0.874h-5.499v6.898h6.299C138.822,31.509,139.223,31.909,139.223,32.409z"
			/>
		<path fill="#FFFFFF" d="M149.823,15.513c0.5,0,0.899,0.4,0.899,0.875c0,0.5-0.399,0.899-0.899,0.899h-3.399v15.271
			c0,0.5-0.4,0.9-0.899,0.9c-0.476,0-0.875-0.4-0.875-0.9V17.287h-3.399c-0.5,0-0.899-0.399-0.899-0.899
			c0-0.475,0.399-0.875,0.899-0.875H149.823z"/>
		<path fill="#FFFFFF" d="M162.148,16.612l-4.225,9.348v6.599c0,0.5-0.375,0.9-0.875,0.9s-0.899-0.4-0.899-0.9V25.96l-4.199-9.348
			c-0.25-0.55,0.125-1.249,0.8-1.249c0.35,0,0.675,0.199,0.825,0.524l3.474,7.724l3.475-7.724c0.15-0.325,0.449-0.524,0.8-0.524
			C161.923,15.363,162.423,15.988,162.148,16.612z"/>
	</g>
	<path fill="none" stroke="#FFFFFF" stroke-width="0.5949" stroke-miterlimit="10" d="M90.539,159.194"/>
	<line fill="none" stroke="#FFFFFF" stroke-width="1.4" stroke-miterlimit="10" x1="27.123" y1="45.554" x2="215.123" y2="45.554"/>
	
		<line fill="none" stroke="#FFFFFF" stroke-width="1.4" stroke-miterlimit="10" x1="27.123" y1="156.554" x2="215.123" y2="156.554"/>
	<rect x="27" y="82" fill="#FFFFFF" width="188" height="39"/>
	<g>
		<path fill="#77C4D3" d="M107.251,112.661c0,0.7-0.56,1.26-1.26,1.26H97.24c-0.7,0-1.26-0.56-1.26-1.26
			c0-0.665,0.56-1.226,1.26-1.226h3.29V93.479l-2.52,3.011c-0.245,0.28-0.595,0.455-0.945,0.455c-0.98,0-1.645-1.226-0.98-2.065
			l4.726-5.636c0.245-0.28,0.595-0.455,0.945-0.455c0.665,0,1.26,0.561,1.26,1.261v21.387h2.976
			C106.691,111.436,107.251,111.996,107.251,112.661z"/>
		<path fill="#77C4D3" d="M120.795,91.519h-6.721v1.75c0,0.7-0.56,1.261-1.26,1.261s-1.26-0.561-1.26-1.261v-3.01
			c0-0.665,0.56-1.226,1.26-1.226h9.696c0.875,0,1.399,0.875,1.19,1.61l-7.316,22.612c-0.21,0.56-0.7,0.875-1.19,0.875
			c-0.875,0-1.435-0.91-1.19-1.646L120.795,91.519z"/>
		<path fill="#77C4D3" d="M139.878,104.819c-1.44,0-2.62-1.181-2.62-2.641c0-1.44,1.18-2.621,2.62-2.621s2.62,1.181,2.62,2.621
			C142.498,103.639,141.318,104.819,139.878,104.819z M139.878,103.379c0.66,0,1.2-0.54,1.2-1.2s-0.54-1.2-1.2-1.2
			s-1.2,0.54-1.2,1.2S139.218,103.379,139.878,103.379z M146.66,100.598l-6.602,13.043c-0.121,0.261-0.381,0.4-0.641,0.4
			c-0.48,0-0.9-0.521-0.641-1.04l6.602-13.043c0.12-0.26,0.381-0.4,0.641-0.4C146.5,99.558,146.92,100.078,146.66,100.598z
			 M148.18,111.42c0,1.44-1.18,2.621-2.621,2.621c-1.439,0-2.62-1.181-2.62-2.621c0-1.46,1.181-2.62,2.62-2.62
			C147,108.8,148.18,109.96,148.18,111.42z M146.76,111.42c0-0.66-0.541-1.2-1.201-1.2s-1.199,0.54-1.199,1.2
			s0.539,1.201,1.199,1.201S146.76,112.08,146.76,111.42z"/>
	</g>
	<path fill="none" stroke="#FFFFFF" stroke-miterlimit="10" d="M121.794,178.46"/>
	<path fill="none" stroke="#FFFFFF" stroke-miterlimit="10" d="M121.794,170.827"/>
	<path fill="none" stroke="#FFFFFF" stroke-miterlimit="10" d="M121.794,170.827l0.001,7.633h-3.817v3.818h-3.817v7.633h11.451
		v3.816h11.451v-7.633h3.816v-11.451h-3.816v-3.816H121.794z"/>
	<path fill="none" stroke="#FFFFFF" stroke-miterlimit="10" d="M171.768,180.403c-0.631,0-1.146-0.516-1.146-1.146v-5.203
		c0-0.631-0.516-1.146-1.146-1.146h-5.202c-0.631,0-1.146,0.516-1.146,1.146v1.455c0,0.631-0.516,1.146-1.146,1.146h-8.951
		c-0.631,0-1.146,0.516-1.146,1.146v8.951c0,0.631,0.516,1.146,1.146,1.146h1.455c0.631,0,1.146,0.516,1.146,1.146v1.455
		c0,0.631,0.516,1.146,1.146,1.146h5.204c0.631,0,1.146-0.516,1.146-1.146v-1.455c0-0.631,0.516-1.146,1.146-1.146h8.949
		c0.631,0,1.146-0.516,1.146-1.146v-5.203c0-0.631-0.516-1.146-1.146-1.146H171.768z"/>
	<path fill="#FFFFFF" d="M193.713,176.554c-0.631,0-1.146-0.516-1.146-1.146v-1.525c0-0.631-0.516-1.146-1.146-1.146h-9.158
		c-0.631,0-1.146,0.516-1.146,1.146v5.342c0,0.631,0.516,1.146,1.146,1.146h1.523c0.631,0,1.146,0.516,1.146,1.146v5.34
		c0,0.631,0.516,1.146,1.146,1.146h1.523c0.631,0,1.146,0.516,1.146,1.146v1.523c0,0.631,0.516,1.146,1.146,1.146h5.341
		c0.631,0,1.146-0.516,1.146-1.146v-5.34c0-0.631,0.516-1.146,1.146-1.146h1.523c0.631,0,1.146-0.516,1.146-1.146v-5.34
		c0-0.631-0.516-1.146-1.146-1.146H193.713z"/>
	<line fill="#FFFFFF" stroke="#FFFFFF" stroke-miterlimit="10" x1="75.233" y1="188.003" x2="75.234" y2="188.003"/>
	<polygon fill="none" stroke="#FFFFFF" stroke-miterlimit="10" points="82.867,191.819 82.867,172.735 75.233,172.735 
		75.233,176.552 71.417,176.552 71.417,180.368 71.416,180.368 67.6,180.368 67.6,188.003 71.457,188.003 71.457,191.821 	"/>
	<path fill="none" stroke="#FFFFFF" stroke-miterlimit="10" d="M56.662,184.948c0,0.631-0.516,1.146-1.146,1.146h-9.157
		c-0.63,0-1.146-0.516-1.146-1.146v-1.523c0-0.631-0.516-1.146-1.146-1.146h-1.523c-0.63,0-1.146-0.516-1.146-1.146v-1.523
		c0-0.631,0.516-1.146,1.146-1.146h12.974c0.63,0,1.146,0.516,1.146,1.146V184.948z"/>
	<path fill="none" stroke="#FFFFFF" stroke-miterlimit="10" d="M91.319,177.71c0-0.631,0.516-1.147,1.146-1.149l1.524-0.004
		c0.63-0.002,1.663-0.003,2.293-0.003h9.157c0.63,0,1.146,0.516,1.146,1.146v5.34c0,0.631-0.516,1.146-1.146,1.146h-1.524
		c-0.63,0-1.146,0.516-1.146,1.146v1.523c0,0.631-0.516,1.146-1.146,1.146h-5.318c-0.63,0-1.146-0.516-1.146-1.146v-5.332
		c0-0.631-0.516-1.146-1.146-1.146h-1.546c-0.63,0-1.146-0.516-1.146-1.146V177.71z"/>
	<g>
		<path fill="#FFFFFF" d="M63.891,60.568h-1.667v-0.911h2.674v6.117c0,0.971,0.42,1.463,1.271,1.463
			c0.779,0,1.247-0.492,1.403-1.463l0.911,0.18c-0.204,1.439-1.055,2.194-2.314,2.194c-1.403,0-2.279-0.875-2.279-2.374V60.568z"/>
		<path fill="#FFFFFF" d="M75.589,65.246h-4.726c0.06,1.199,0.792,1.991,1.859,1.991c0.864,0,1.511-0.396,1.943-1.199l0.804,0.42
			c-0.587,1.127-1.499,1.69-2.747,1.69c-0.863,0-1.559-0.3-2.099-0.888c-0.528-0.587-0.792-1.331-0.792-2.23
			c0-0.875,0.264-1.619,0.779-2.219c0.528-0.6,1.235-0.899,2.111-0.899c0.9,0,1.607,0.275,2.111,0.84
			c0.504,0.552,0.756,1.247,0.756,2.074V65.246z M70.936,64.335h3.586c-0.18-0.96-0.828-1.512-1.799-1.512
			C71.775,62.823,71.139,63.388,70.936,64.335z"/>
		<path fill="#FFFFFF" d="M82.021,62.008h1.091l-2.531,6.045h-1.007l-2.531-6.045h1.091l1.943,4.846L82.021,62.008z"/>
		<path fill="#FFFFFF" d="M90.469,65.246h-4.726c0.06,1.199,0.792,1.991,1.859,1.991c0.864,0,1.511-0.396,1.943-1.199l0.804,0.42
			c-0.587,1.127-1.499,1.69-2.747,1.69c-0.863,0-1.559-0.3-2.099-0.888c-0.528-0.587-0.792-1.331-0.792-2.23
			c0-0.875,0.264-1.619,0.779-2.219c0.528-0.6,1.235-0.899,2.111-0.899c0.9,0,1.607,0.275,2.111,0.84
			c0.504,0.552,0.756,1.247,0.756,2.074V65.246z M85.815,64.335h3.586c-0.18-0.96-0.828-1.512-1.799-1.512
			C86.655,62.823,86.019,63.388,85.815,64.335z"/>
		<path fill="#FFFFFF" d="M93.651,60.568h-1.667v-0.911h2.674v6.117c0,0.971,0.42,1.463,1.271,1.463
			c0.779,0,1.247-0.492,1.403-1.463l0.911,0.18c-0.204,1.439-1.055,2.194-2.314,2.194c-1.403,0-2.279-0.875-2.279-2.374V60.568z"/>
		<path fill="#FFFFFF" d="M106.864,65.03c0-0.863,0.276-1.595,0.815-2.207c0.54-0.611,1.259-0.911,2.159-0.911
			c0.9,0,1.619,0.3,2.159,0.911c0.54,0.612,0.815,1.344,0.815,2.207s-0.276,1.596-0.815,2.207c-0.54,0.611-1.259,0.911-2.159,0.911
			c-0.899,0-1.619-0.3-2.159-0.911S106.864,65.894,106.864,65.03z M107.895,65.03c0,0.611,0.18,1.128,0.528,1.56
			s0.828,0.647,1.415,0.647c0.588,0,1.067-0.216,1.416-0.647c0.348-0.432,0.528-0.948,0.528-1.56s-0.18-1.127-0.528-1.559
			c-0.348-0.433-0.828-0.648-1.416-0.648c-0.587,0-1.067,0.216-1.415,0.648C108.075,63.903,107.895,64.419,107.895,65.03z"/>
		<path fill="#FFFFFF" d="M119.269,60.797c-0.336-0.216-0.66-0.324-0.972-0.324c-0.587,0-0.887,0.384-0.887,1.14v0.396h2.351v0.912
			h-2.351v5.133h-1.008V62.92h-1.703v-0.912h1.703v-0.371c0-1.38,0.624-2.075,1.859-2.075c0.456,0,0.875,0.12,1.259,0.348
			L119.269,60.797z"/>
		<path fill="#FFFFFF" d="M134.952,66.481c-0.491,1.115-1.343,1.667-2.554,1.667c-0.889,0-1.596-0.3-2.111-0.911
			s-0.779-1.344-0.779-2.207s0.264-1.595,0.779-2.207c0.516-0.611,1.223-0.911,2.111-0.911c1.211,0,2.062,0.552,2.554,1.667
			l-0.876,0.36c-0.323-0.744-0.875-1.116-1.678-1.116c-1.164,0-1.859,0.912-1.859,2.207c0,1.296,0.695,2.207,1.859,2.207
			c0.803,0,1.354-0.372,1.678-1.115L134.952,66.481z"/>
		<path fill="#FFFFFF" d="M136.623,65.03c0-0.863,0.276-1.595,0.816-2.207c0.539-0.611,1.259-0.911,2.158-0.911
			c0.9,0,1.619,0.3,2.159,0.911c0.54,0.612,0.815,1.344,0.815,2.207s-0.275,1.596-0.815,2.207s-1.259,0.911-2.159,0.911
			c-0.899,0-1.619-0.3-2.158-0.911C136.899,66.626,136.623,65.894,136.623,65.03z M137.654,65.03c0,0.611,0.181,1.128,0.528,1.56
			s0.827,0.647,1.415,0.647s1.067-0.216,1.416-0.647c0.348-0.432,0.527-0.948,0.527-1.56s-0.18-1.127-0.527-1.559
			c-0.349-0.433-0.828-0.648-1.416-0.648s-1.067,0.216-1.415,0.648C137.835,63.903,137.654,64.419,137.654,65.03z"/>
		<path fill="#FFFFFF" d="M149.58,68.053h-1.008v-3.994c0-0.827-0.371-1.235-1.115-1.235c-0.491,0-0.911,0.252-1.259,0.768
			c-0.348,0.504-0.516,1.176-0.516,2.027v2.435h-1.007v-6.045h1.007v1.115c0.444-0.719,1.224-1.211,2.051-1.211
			c1.235,0,1.847,0.731,1.847,1.931V68.053z"/>
		<path fill="#FFFFFF" d="M157.271,66.481c-0.491,1.115-1.343,1.667-2.554,1.667c-0.888,0-1.595-0.3-2.11-0.911
			c-0.517-0.611-0.78-1.344-0.78-2.207s0.264-1.595,0.78-2.207c0.516-0.611,1.223-0.911,2.11-0.911c1.211,0,2.062,0.552,2.554,1.667
			l-0.875,0.36c-0.324-0.744-0.875-1.116-1.679-1.116c-1.163,0-1.859,0.912-1.859,2.207c0,1.296,0.696,2.207,1.859,2.207
			c0.804,0,1.354-0.372,1.679-1.115L157.271,66.481z"/>
		<path fill="#FFFFFF" d="M164.868,65.246h-4.726c0.061,1.199,0.791,1.991,1.859,1.991c0.863,0,1.511-0.396,1.942-1.199l0.804,0.42
			c-0.588,1.127-1.499,1.69-2.746,1.69c-0.863,0-1.56-0.3-2.1-0.888c-0.527-0.587-0.791-1.331-0.791-2.23
			c0-0.875,0.264-1.619,0.779-2.219c0.527-0.6,1.235-0.899,2.111-0.899c0.899,0,1.607,0.275,2.11,0.84
			c0.504,0.552,0.756,1.247,0.756,2.074V65.246z M160.215,64.335h3.586c-0.18-0.96-0.828-1.512-1.799-1.512
			C161.055,62.823,160.418,63.388,160.215,64.335z"/>
		<path fill="#FFFFFF" d="M171.336,63.927c-0.084-0.731-0.479-1.104-1.162-1.104c-0.564,0-1.057,0.265-1.451,0.804
			c-0.396,0.528-0.601,1.271-0.601,2.243v2.183h-1.007v-6.045h1.007v1.115c0.517-0.803,1.26-1.211,2.231-1.211
			c1.199,0,1.931,0.72,1.99,2.015H171.336z"/>
		<path fill="#FFFFFF" d="M179.34,68.053h-1.008v-3.994c0-0.827-0.371-1.235-1.115-1.235c-0.491,0-0.911,0.252-1.259,0.768
			c-0.348,0.504-0.516,1.176-0.516,2.027v2.435h-1.007v-6.045h1.007v1.115c0.444-0.719,1.224-1.211,2.051-1.211
			c1.235,0,1.847,0.731,1.847,1.931V68.053z"/>
	</g>
	<g>
		<path fill="#FFFFFF" d="M51.064,139.701c0-0.863,0.276-1.595,0.815-2.207c0.54-0.611,1.259-0.911,2.159-0.911
			c0.9,0,1.619,0.3,2.159,0.911c0.54,0.612,0.815,1.344,0.815,2.207s-0.276,1.596-0.815,2.207c-0.54,0.611-1.259,0.911-2.159,0.911
			c-0.899,0-1.619-0.3-2.159-0.911S51.064,140.564,51.064,139.701z M52.095,139.701c0,0.611,0.18,1.128,0.528,1.56
			s0.828,0.647,1.415,0.647c0.588,0,1.067-0.216,1.416-0.647c0.348-0.432,0.528-0.948,0.528-1.56s-0.18-1.127-0.528-1.559
			c-0.348-0.433-0.828-0.648-1.416-0.648c-0.587,0-1.067,0.216-1.415,0.648C52.275,138.574,52.095,139.09,52.095,139.701z"/>
		<path fill="#FFFFFF" d="M63.469,135.468c-0.336-0.216-0.66-0.324-0.972-0.324c-0.587,0-0.887,0.384-0.887,1.14v0.396h2.351v0.912
			H61.61v5.133h-1.008v-5.133h-1.703v-0.912h1.703v-0.371c0-1.38,0.624-2.075,1.859-2.075c0.456,0,0.875,0.12,1.259,0.348
			L63.469,135.468z"/>
		<path fill="#FFFFFF" d="M78.937,142.724h-0.815l-0.144-0.852c-0.384,0.563-1.235,0.947-2.135,0.947
			c-1.067,0-1.871-0.647-1.871-1.835c0-1.307,1.02-1.979,2.735-1.979h1.223v-0.264c0-0.876-0.576-1.248-1.391-1.248
			c-0.684,0-1.235,0.42-1.427,1.032l-0.888-0.24c0.276-1.044,1.2-1.703,2.315-1.703c1.487,0,2.398,0.731,2.398,2.327V142.724z
			 M75.998,141.908c0.48,0,0.924-0.156,1.319-0.456c0.408-0.312,0.612-0.779,0.612-1.391v-0.192H76.61
			c-1.02,0-1.607,0.432-1.607,1.115C75.003,141.561,75.387,141.908,75.998,141.908z"/>
		<path fill="#FFFFFF" d="M82.491,135.239h-1.667v-0.911h2.674v6.117c0,0.971,0.42,1.463,1.271,1.463
			c0.779,0,1.247-0.492,1.403-1.463l0.911,0.18c-0.204,1.439-1.055,2.194-2.314,2.194c-1.403,0-2.279-0.875-2.279-2.374V135.239z"/>
		<path fill="#FFFFFF" d="M89.931,135.239h-1.667v-0.911h2.674v6.117c0,0.971,0.42,1.463,1.271,1.463
			c0.78,0,1.247-0.492,1.403-1.463l0.912,0.18c-0.204,1.439-1.056,2.194-2.315,2.194c-1.403,0-2.279-0.875-2.279-2.374V135.239z"/>
		<path fill="#FFFFFF" d="M103.191,137.591v-0.912h1.607v-1.811l1.007-0.636v2.446h2.95v0.912h-2.95v3.094
			c0,0.815,0.348,1.224,1.043,1.224c0.54,0,1.031-0.24,1.487-0.72l0.372,0.852c-0.516,0.516-1.14,0.779-1.859,0.779
			c-1.332,0-2.051-0.707-2.051-2.099v-3.13H103.191z"/>
		<path fill="#FFFFFF" d="M116.185,142.724h-1.008v-3.958c0-0.852-0.372-1.271-1.115-1.271c-0.516,0-0.959,0.24-1.343,0.732
			c-0.384,0.491-0.576,1.139-0.576,1.967v2.53h-1.007v-8.491h1.007v3.562c0.479-0.707,1.295-1.211,2.195-1.211
			c1.235,0,1.847,0.659,1.847,1.967V142.724z"/>
		<path fill="#FFFFFF" d="M123.948,139.917h-4.726c0.06,1.199,0.792,1.991,1.859,1.991c0.864,0,1.511-0.396,1.943-1.199l0.804,0.42
			c-0.588,1.127-1.499,1.69-2.747,1.69c-0.863,0-1.559-0.3-2.099-0.888c-0.528-0.587-0.792-1.331-0.792-2.23
			c0-0.875,0.264-1.619,0.779-2.219c0.528-0.6,1.235-0.899,2.111-0.899c0.9,0,1.608,0.275,2.111,0.84
			c0.504,0.552,0.756,1.247,0.756,2.074V139.917z M119.295,139.006h3.586c-0.18-0.96-0.828-1.512-1.799-1.512
			C120.134,137.494,119.499,138.059,119.295,139.006z"/>
		<path fill="#FFFFFF" d="M134.414,141.956v3.214h-1.007v-8.491h1.007v0.804c0.372-0.516,1.068-0.899,1.848-0.899
			c1.738,0,2.77,1.235,2.77,3.118s-1.031,3.118-2.77,3.118C135.458,142.819,134.786,142.448,134.414,141.956z M138,139.701
			c0-0.659-0.168-1.188-0.491-1.595c-0.323-0.408-0.78-0.612-1.343-0.612c-0.564,0-1.02,0.204-1.344,0.612
			c-0.324,0.407-0.492,0.936-0.492,1.595c0,0.66,0.168,1.188,0.492,1.596c0.324,0.407,0.779,0.611,1.344,0.611
			c0.562,0,1.02-0.204,1.343-0.611C137.832,140.889,138,140.361,138,139.701z"/>
		<path fill="#FFFFFF" d="M145.297,138.598c-0.084-0.731-0.48-1.104-1.164-1.104c-0.563,0-1.055,0.265-1.451,0.804
			c-0.396,0.528-0.6,1.271-0.6,2.243v2.183h-1.008v-6.045h1.008v1.115c0.516-0.803,1.26-1.211,2.23-1.211
			c1.199,0,1.932,0.72,1.991,2.015H145.297z"/>
		<path fill="#FFFFFF" d="M147.783,139.701c0-0.863,0.275-1.595,0.815-2.207c0.54-0.611,1.259-0.911,2.159-0.911
			c0.899,0,1.619,0.3,2.158,0.911c0.54,0.612,0.816,1.344,0.816,2.207s-0.276,1.596-0.816,2.207
			c-0.539,0.611-1.259,0.911-2.158,0.911c-0.9,0-1.619-0.3-2.159-0.911S147.783,140.564,147.783,139.701z M148.814,139.701
			c0,0.611,0.18,1.128,0.527,1.56s0.828,0.647,1.416,0.647s1.066-0.216,1.415-0.647c0.348-0.432,0.527-0.948,0.527-1.56
			s-0.18-1.127-0.527-1.559c-0.349-0.433-0.827-0.648-1.415-0.648s-1.068,0.216-1.416,0.648
			C148.994,138.574,148.814,139.09,148.814,139.701z"/>
		<path fill="#FFFFFF" d="M156.687,141.92v0.804h-1.008v-8.491h1.008v3.214c0.372-0.491,1.043-0.863,1.847-0.863
			c1.739,0,2.771,1.235,2.771,3.118s-1.031,3.118-2.771,3.118C157.754,142.819,157.059,142.436,156.687,141.92z M160.272,139.701
			c0-0.659-0.168-1.188-0.491-1.595c-0.324-0.408-0.78-0.612-1.344-0.612c-0.564,0-1.02,0.204-1.344,0.612
			c-0.324,0.407-0.491,0.936-0.491,1.595c0,0.66,0.167,1.188,0.491,1.596c0.324,0.407,0.779,0.611,1.344,0.611
			c0.563,0,1.02-0.204,1.344-0.611C160.104,140.889,160.272,140.361,160.272,139.701z"/>
		<path fill="#FFFFFF" d="M164.33,135.239h-1.667v-0.911h2.675v6.117c0,0.971,0.42,1.463,1.271,1.463
			c0.779,0,1.246-0.492,1.402-1.463l0.912,0.18c-0.204,1.439-1.056,2.194-2.314,2.194c-1.404,0-2.279-0.875-2.279-2.374V135.239z"/>
		<path fill="#FFFFFF" d="M176.027,139.917h-4.725c0.06,1.199,0.791,1.991,1.858,1.991c0.864,0,1.511-0.396,1.942-1.199l0.805,0.42
			c-0.588,1.127-1.5,1.69-2.747,1.69c-0.863,0-1.56-0.3-2.099-0.888c-0.527-0.587-0.791-1.331-0.791-2.23
			c0-0.875,0.264-1.619,0.779-2.219c0.527-0.6,1.234-0.899,2.11-0.899c0.899,0,1.607,0.275,2.11,0.84
			c0.504,0.552,0.756,1.247,0.756,2.074V139.917z M171.374,139.006h3.587c-0.181-0.96-0.828-1.512-1.8-1.512
			C172.214,137.494,171.578,138.059,171.374,139.006z"/>
		<path fill="#FFFFFF" d="M183.852,142.724h-1.008v-4.294c0-0.659-0.191-0.923-0.659-0.923c-0.624,0-1.067,0.779-1.067,2.374v2.843
			h-1.008v-4.294c0-0.659-0.191-0.923-0.66-0.923c-0.623,0-1.066,0.779-1.066,2.374v2.843h-1.008v-6.045h1.008v0.768
			c0.359-0.575,0.827-0.863,1.415-0.863c0.647,0,1.067,0.324,1.247,0.983c0.324-0.588,0.863-0.983,1.487-0.983
			c0.804,0,1.319,0.527,1.319,1.631V142.724z"/>
		<path fill="#FFFFFF" d="M190.141,137.891l-0.792,0.563c-0.349-0.636-0.84-0.96-1.451-0.96c-0.575,0-1.044,0.265-1.044,0.804
			c0,0.492,0.443,0.744,1.403,0.936c0.517,0.108,0.84,0.18,1.235,0.36c0.564,0.239,0.936,0.647,0.936,1.283
			c0,0.6-0.228,1.079-0.672,1.427c-0.443,0.348-0.995,0.516-1.654,0.516c-1.248,0-2.256-0.636-2.627-1.751l0.959-0.359
			c0.276,0.755,0.852,1.199,1.668,1.199c0.73,0,1.283-0.324,1.283-0.936c0-0.479-0.456-0.647-1.56-0.888
			c-1.235-0.252-1.955-0.684-1.955-1.751c0-0.527,0.204-0.947,0.601-1.271c0.395-0.323,0.887-0.479,1.463-0.479
			C188.929,136.583,189.66,137.015,190.141,137.891z"/>
	</g>
</g>
</svg>
