<?xml version="1.0" encoding="utf-8"?>
<!-- Generator: Adobe Illustrator 16.0.0, SVG Export Plug-In . SVG Version: 6.00 Build 0)  -->
<!DOCTYPE svg PUBLIC "-//W3C//DTD SVG 1.1//EN" "http://www.w3.org/Graphics/SVG/1.1/DTD/svg11.dtd">
<svg version="1.1" xmlns="http://www.w3.org/2000/svg" xmlns:xlink="http://www.w3.org/1999/xlink" x="0px" y="0px" width="469px"
	 height="342px" viewBox="0 0 469 342" enable-background="new 0 0 469 342" xml:space="preserve">
<g id="Layer_1">
</g>
<g id="Layer_3">
	<g>
		<g>
			<g>
				
					<line fill="none" stroke="#FFFFFF" stroke-width="3" stroke-linecap="round" stroke-linejoin="round" x1="447.5" y1="92.5" x2="447.5" y2="94.5"/>
				
					<line fill="none" stroke="#FFFFFF" stroke-width="3" stroke-linecap="round" stroke-linejoin="round" stroke-dasharray="4.9463,4.9463" x1="447.016" y1="99.576" x2="447.025" y2="334.526"/>
				
					<line fill="none" stroke="#FFFFFF" stroke-width="3" stroke-linecap="round" stroke-linejoin="round" x1="447.5" y1="337.5" x2="447.5" y2="339.5"/>
			</g>
		</g>
		<g>
			<g>
				
					<line fill="none" stroke="#FFFFFF" stroke-width="3" stroke-linecap="round" stroke-linejoin="round" x1="13.5" y1="130.5" x2="13.5" y2="133.5"/>
				
					<line fill="none" stroke="#FFFFFF" stroke-width="3" stroke-linecap="round" stroke-linejoin="round" stroke-dasharray="4.9716,4.9716" x1="13.685" y1="138.138" x2="13.676" y2="334.515"/>
				
					<line fill="none" stroke="#FFFFFF" stroke-width="3" stroke-linecap="round" stroke-linejoin="round" x1="13.5" y1="337.5" x2="13.5" y2="339.5"/>
			</g>
		</g>
		<g>
			
				<path fill="none" stroke="#FFFFFF" stroke-width="3" stroke-linecap="round" stroke-linejoin="round" stroke-dasharray="5.0054,5.0054" d="
				M132.5,122.977c0,2.774-2.249,5.023-5.023,5.023H7.523c-2.774,0-5.023-2.249-5.023-5.023V8.023C2.5,5.249,4.749,3,7.523,3
				h119.953c2.774,0,5.023,2.249,5.023,5.023V122.977z"/>
		</g>
		<g>
			
				<path fill="none" stroke="#FFFFFF" stroke-width="3" stroke-linecap="round" stroke-linejoin="round" stroke-dasharray="5.0133,5.0133" d="
				M464.5,89.109c0,1.597-1.295,2.891-2.892,2.891h-92.217c-1.597,0-2.892-1.294-2.892-2.891V10.891
				c0-1.597,1.295-2.891,2.892-2.891h92.217c1.597,0,2.892,1.294,2.892,2.891V89.109z"/>
		</g>
	</g>
</g>
</svg>
