<?xml version="1.0" encoding="utf-8"?>
<!-- Generator: Adobe Illustrator 16.0.0, SVG Export Plug-In . SVG Version: 6.00 Build 0)  -->
<!DOCTYPE svg PUBLIC "-//W3C//DTD SVG 1.1//EN" "http://www.w3.org/Graphics/SVG/1.1/DTD/svg11.dtd">
<svg version="1.1" xmlns="http://www.w3.org/2000/svg" xmlns:xlink="http://www.w3.org/1999/xlink" x="0px" y="0px" width="440px"
	 height="372px" viewBox="0 0 440 372" enable-background="new 0 0 440 372" xml:space="preserve">
<g id="Layer_1">
</g>
<g id="Layer_3">
	<g>
		<g>
			
				<line fill="none" stroke="#FFFFFF" stroke-width="3" stroke-linecap="round" stroke-linejoin="round" x1="18" y1="92.5" x2="16" y2="92.5"/>
			
				<path fill="none" stroke="#FFFFFF" stroke-width="3" stroke-linecap="round" stroke-linejoin="round" stroke-dasharray="4.983,4.983" d="
				M11,92.5h-0.314c-3.85,0-7,3.194-7,7.044L3.75,364.943"/>
			
				<line fill="none" stroke="#FFFFFF" stroke-width="3" stroke-linecap="round" stroke-linejoin="round" x1="3.5" y1="368" x2="3.5" y2="370"/>
		</g>
	</g>
	<g>
		<g>
			
				<line fill="none" stroke="#FFFFFF" stroke-width="3" stroke-linecap="round" stroke-linejoin="round" x1="428" y1="97.5" x2="430" y2="97.5"/>
			
				<path fill="none" stroke="#FFFFFF" stroke-width="3" stroke-linecap="round" stroke-linejoin="round" stroke-dasharray="4.9757,4.9757" d="
				M435.094,99.248c1.16,1.27,1.922,3.366,1.922,5.725l0.01,260.038"/>
			
				<line fill="none" stroke="#FFFFFF" stroke-width="3" stroke-linecap="round" stroke-linejoin="round" x1="437.5" y1="368" x2="437.5" y2="370"/>
		</g>
	</g>
	<g>
		
			<path fill="none" stroke="#FFFFFF" stroke-width="3" stroke-linecap="round" stroke-linejoin="round" stroke-dasharray="5.0152,5.0152" d="
			M176.5,170.477c0,2.774-2.249,5.023-5.023,5.023H23.523c-2.774,0-5.023-2.249-5.023-5.023V8.523c0-2.774,2.249-5.023,5.023-5.023
			h147.953c2.774,0,5.023,2.249,5.023,5.023V170.477z"/>
	</g>
	<g>
		
			<path fill="none" stroke="#FFFFFF" stroke-width="3" stroke-linecap="round" stroke-linejoin="round" stroke-dasharray="4.9919,4.9919" d="
			M428.5,186.608c0,1.597-1.295,2.892-2.892,2.892H292.392c-1.597,0-2.892-1.295-2.892-2.892V54.392
			c0-1.597,1.295-2.892,2.892-2.892h133.217c1.597,0,2.892,1.294,2.892,2.892V186.608z"/>
	</g>
</g>
</svg>
