<?xml version="1.0" encoding="utf-8"?>
<!-- Generator: Adobe Illustrator 16.0.0, SVG Export Plug-In . SVG Version: 6.00 Build 0)  -->
<!DOCTYPE svg PUBLIC "-//W3C//DTD SVG 1.1//EN" "http://www.w3.org/Graphics/SVG/1.1/DTD/svg11.dtd">
<svg version="1.1" xmlns="http://www.w3.org/2000/svg" xmlns:xlink="http://www.w3.org/1999/xlink" x="0px" y="0px" width="440px"
	 height="342px" viewBox="0 0 440 342" enable-background="new 0 0 440 342" xml:space="preserve">
<g id="Layer_1">
</g>
<g id="Layer_3">
	<g>
		<g>
			
				<line fill="none" stroke="#FFFFFF" stroke-width="3" stroke-linecap="round" stroke-linejoin="round" x1="91.5" y1="63.5" x2="88.5" y2="63.5"/>
			
				<path fill="none" stroke="#FFFFFF" stroke-width="3" stroke-linecap="round" stroke-linejoin="round" stroke-dasharray="5.0326,5.0326" d="
				M83.5,63.5H10.186c-3.85,0-7,3.194-7,7.044l-0.05,265.374"/>
			
				<line fill="none" stroke="#FFFFFF" stroke-width="3" stroke-linecap="round" stroke-linejoin="round" x1="3" y1="339" x2="3" y2="341"/>
		</g>
	</g>
	<g>
		<g>
			
				<line fill="none" stroke="#FFFFFF" stroke-width="3" stroke-linecap="round" stroke-linejoin="round" x1="350.5" y1="68.5" x2="352.5" y2="68.5"/>
			
				<path fill="none" stroke="#FFFFFF" stroke-width="3" stroke-linecap="round" stroke-linejoin="round" stroke-dasharray="4.9298,4.9298" d="
				M357.5,68.5h72.016c3.85,0,7,3.386,7,7.236l-0.205,259.944"/>
			
				<line fill="none" stroke="#FFFFFF" stroke-width="3" stroke-linecap="round" stroke-linejoin="round" x1="437" y1="339" x2="437" y2="341"/>
		</g>
	</g>
	<g>
		
			<path fill="none" stroke="#FFFFFF" stroke-width="3" stroke-linecap="round" stroke-linejoin="round" stroke-dasharray="4.9366,4.9366" d="
			M188,96.477c0,2.774-2.249,5.023-5.023,5.023H96.023c-2.774,0-5.023-2.249-5.023-5.023V6.523C91,3.749,93.249,1.5,96.023,1.5
			h86.953c2.774,0,5.023,2.249,5.023,5.023V96.477z"/>
	</g>
	<g>
		
			<path fill="none" stroke="#FFFFFF" stroke-width="3" stroke-linecap="round" stroke-linejoin="round" stroke-dasharray="5.0372,5.0372" d="
			M350,129.609c0,1.597-1.295,2.891-2.892,2.891h-98.217c-1.597,0-2.892-1.294-2.892-2.891V10.391c0-1.597,1.295-2.891,2.892-2.891
			h98.217c1.597,0,2.892,1.294,2.892,2.891V129.609z"/>
	</g>
</g>
</svg>
