<?xml version="1.0" encoding="utf-8"?>
<!-- Generator: Adobe Illustrator 16.0.0, SVG Export Plug-In . SVG Version: 6.00 Build 0)  -->
<!DOCTYPE svg PUBLIC "-//W3C//DTD SVG 1.1//EN" "http://www.w3.org/Graphics/SVG/1.1/DTD/svg11.dtd">
<svg version="1.1" id="Layer_1" xmlns="http://www.w3.org/2000/svg" xmlns:xlink="http://www.w3.org/1999/xlink" x="0px" y="0px"
	 width="583.929px" height="743.889px" viewBox="0 0 583.929 743.889" enable-background="new 0 0 583.929 743.889"
	 xml:space="preserve">
<line fill="none" stroke="#868787" stroke-width="0.5" stroke-miterlimit="10" x1="204.848" y1="177.741" x2="412.827" y2="177.741"/>
<line fill="none" stroke="#868787" stroke-width="0.5" stroke-miterlimit="10" x1="160.432" y1="255.546" x2="480" y2="255.546"/>
<line fill="none" stroke="#868787" stroke-width="0.5" stroke-miterlimit="10" x1="135.7" y1="333.353" x2="490.341" y2="333.353"/>
<line fill="none" stroke="#868787" stroke-width="0.5" stroke-miterlimit="10" x1="145.579" y1="411.16" x2="494.344" y2="411.16"/>
<g>
	<rect x="123.093" y="489.637" fill="#868787" width="376.229" height="0.5"/>
</g>
<g>
	<rect x="101.123" y="566.52" fill="#868787" width="388.569" height="0.5"/>
</g>
<g>
	<rect x="115.817" y="644.324" fill="#868787" width="388.435" height="0.5"/>
</g>
<g>
	<rect x="111.006" y="721.221" fill="#868787" width="397.942" height="0.5"/>
</g>
<line fill="none" stroke="#1A171B" stroke-miterlimit="10" x1="292.367" y1="99.555" x2="292.367" y2="721.471"/>
<line fill="none" stroke="#868787" stroke-width="0.5" stroke-miterlimit="10" x1="3.597" y1="721.471" x2="3.597" y2="99.548"/>
<line fill="none" stroke="#868787" stroke-width="0.5" stroke-miterlimit="10" x1="51.725" y1="721.471" x2="51.725" y2="99.548"/>
<line fill="none" stroke="#868787" stroke-width="0.5" stroke-miterlimit="10" x1="99.853" y1="721.471" x2="99.853" y2="99.548"/>
<line fill="none" stroke="#868787" stroke-width="0.5" stroke-miterlimit="10" x1="147.982" y1="721.471" x2="147.982" y2="99.548"/>
<line fill="none" stroke="#868787" stroke-width="0.5" stroke-miterlimit="10" x1="196.11" y1="721.471" x2="196.11" y2="99.548"/>
<line fill="none" stroke="#868787" stroke-width="0.5" stroke-miterlimit="10" x1="244.239" y1="721.471" x2="244.239" y2="99.548"/>
<line fill="none" stroke="#868787" stroke-width="0.5" stroke-miterlimit="10" x1="340.496" y1="721.471" x2="340.496" y2="99.548"/>
<line fill="none" stroke="#868787" stroke-width="0.5" stroke-miterlimit="10" x1="479.958" y1="721.471" x2="479.958" y2="99.548"/>
<line fill="none" stroke="#868787" stroke-width="0.5" stroke-miterlimit="10" x1="436.752" y1="721.471" x2="436.752" y2="99.548"/>
<path fill="none" stroke="#868787" stroke-width="0.5" stroke-miterlimit="10" d="M484.88,99.548"/>
<path fill="none" stroke="#868787" stroke-width="0.5" stroke-miterlimit="10" d="M484.88,721.471"/>
<line fill="none" stroke="#868787" stroke-width="0.5" stroke-miterlimit="10" x1="533.008" y1="721.471" x2="533.008" y2="99.548"/>
<line fill="none" stroke="#868787" stroke-width="0.5" stroke-miterlimit="10" x1="581.137" y1="721.471" x2="581.137" y2="99.548"/>
<polyline fill="none" stroke="#EE811E" stroke-width="2" stroke-miterlimit="10" points="111.006,721.463 115.942,644.574 
	101.123,566.77 123.093,488.965 145.579,411.16 135.7,333.353 158.055,255.546 204.848,177.741 "/>
<polyline fill="none" stroke="#009F94" stroke-width="2" stroke-miterlimit="10" points="242.992,99.555 219.664,177.741 
	166.931,255.546 145.224,333.353 160.572,411.16 136.014,488.965 115.942,566.77 130.761,644.574 140.637,721.463 "/>
<polyline fill="none" stroke="#EE811E" stroke-width="2" stroke-miterlimit="10" points="408.048,177.741 480,255.546 
	489.856,333.353 494.508,410.51 499.322,489.887 489.882,566.77 504.251,644.574 508.949,721.463 "/>
<polyline fill="none" stroke="#009F94" stroke-width="2" stroke-miterlimit="10" points="403.064,99.936 412.827,177.741 
	444.509,255.546 465.629,333.353 470.443,411.16 480.073,489.887 480.059,566.77 489.692,644.574 484.88,721.463 "/>
<g>
	<path fill="#1B181C" d="M390.001,35.166v7.083c0,1.172-0.358,2.087-1.076,2.747s-1.641,0.989-2.769,0.989
		c-1.113,0-2.022-0.331-2.729-0.993c-0.706-0.661-1.058-1.576-1.058-2.743v-7.083h0.879v7.083c0,0.918,0.271,1.647,0.816,2.186
		c0.544,0.54,1.241,0.81,2.091,0.81c0.869,0,1.582-0.269,2.139-0.806s0.835-1.267,0.835-2.19v-7.083H390.001z"/>
	<path fill="#1B181C" d="M398.585,43.237c0-0.547-0.217-0.999-0.651-1.355s-1.172-0.691-2.212-1.003
		c-1.138-0.313-2.003-0.702-2.597-1.168c-0.593-0.466-0.89-1.1-0.89-1.901c0-0.815,0.332-1.485,0.996-2.01s1.512-0.788,2.541-0.788
		c1.084,0,1.956,0.296,2.615,0.89c0.659,0.593,0.979,1.346,0.959,2.259l-0.014,0.044h-0.82c0-0.703-0.256-1.287-0.766-1.75
		c-0.511-0.464-1.168-0.696-1.975-0.696c-0.83,0-1.48,0.197-1.951,0.589c-0.472,0.394-0.707,0.875-0.707,1.447
		c0,0.542,0.213,0.988,0.641,1.336c0.428,0.35,1.181,0.675,2.26,0.978c1.123,0.327,1.98,0.73,2.57,1.208
		c0.592,0.479,0.887,1.113,0.887,1.904c0,0.83-0.346,1.498-1.036,2.003c-0.691,0.506-1.562,0.758-2.611,0.758
		s-1.966-0.267-2.747-0.802c-0.781-0.534-1.159-1.314-1.135-2.34l0.015-0.044h0.813c0,0.825,0.31,1.439,0.93,1.842
		c0.62,0.403,1.328,0.604,2.124,0.604c0.815,0,1.479-0.187,1.992-0.561C398.33,44.311,398.585,43.828,398.585,43.237z"/>
	<path fill="#1B181C" d="M407.287,40.667h-4.782v4.424h5.53v0.74h-6.409V35.166h6.372v0.747h-5.493v4.006h4.782V40.667z"/>
	<path fill="#1B181C" d="M410.751,41.011v4.819h-0.879V35.173h3.553c1.143,0,2.019,0.25,2.629,0.75
		c0.61,0.501,0.916,1.232,0.916,2.194c0,0.566-0.163,1.073-0.488,1.52c-0.324,0.446-0.784,0.772-1.38,0.978
		c0.659,0.166,1.134,0.463,1.425,0.89c0.29,0.428,0.436,0.963,0.436,1.608v1.003c0,0.332,0.039,0.63,0.117,0.894
		s0.207,0.479,0.389,0.645v0.176h-0.895c-0.18-0.176-0.307-0.422-0.381-0.74c-0.072-0.317-0.109-0.647-0.109-0.989v-0.974
		c0-0.654-0.211-1.17-0.633-1.549c-0.424-0.378-1.013-0.567-1.77-0.567H410.751z M410.751,40.264h2.57
		c0.963,0,1.666-0.194,2.109-0.582c0.445-0.389,0.667-0.912,0.667-1.571c0-0.703-0.222-1.244-0.663-1.622s-1.111-0.568-2.01-0.568
		h-2.674V40.264z"/>
	<path fill="#1B181C" d="M425.693,43.237c0-0.547-0.217-0.999-0.652-1.355c-0.434-0.356-1.172-0.691-2.211-1.003
		c-1.139-0.313-2.004-0.702-2.598-1.168c-0.592-0.466-0.889-1.1-0.889-1.901c0-0.815,0.332-1.485,0.996-2.01
		s1.511-0.788,2.541-0.788c1.084,0,1.955,0.296,2.615,0.89c0.658,0.593,0.979,1.346,0.959,2.259l-0.015,0.044h-0.82
		c0-0.703-0.255-1.287-0.765-1.75c-0.512-0.464-1.169-0.696-1.975-0.696c-0.83,0-1.48,0.197-1.951,0.589
		c-0.473,0.394-0.707,0.875-0.707,1.447c0,0.542,0.213,0.988,0.641,1.336c0.427,0.35,1.18,0.675,2.26,0.978
		c1.123,0.327,1.979,0.73,2.57,1.208s0.887,1.113,0.887,1.904c0,0.83-0.346,1.498-1.037,2.003c-0.691,0.506-1.561,0.758-2.611,0.758
		c-1.049,0-1.965-0.267-2.746-0.802c-0.781-0.534-1.16-1.314-1.135-2.34l0.014-0.044h0.813c0,0.825,0.31,1.439,0.931,1.842
		c0.619,0.403,1.328,0.604,2.123,0.604c0.816,0,1.48-0.187,1.992-0.561C425.437,44.311,425.693,43.828,425.693,43.237z"/>
	<path fill="#1B181C" d="M437.96,42.856h-4.68l-1.076,2.974h-0.908l3.918-10.664h0.828l3.889,10.664h-0.908L437.96,42.856z
		 M433.559,42.073h4.116l-2.021-5.654h-0.044L433.559,42.073z"/>
	<path fill="#1B181C" d="M446.707,44.556h0.043l3.971-9.39h1.068V45.83h-0.879v-8.958l-0.043-0.007l-3.824,8.965h-0.629
		l-3.912-9.185l-0.043,0.007v9.177h-0.879V35.166h1.172L446.707,44.556z"/>
	<path fill="#1B181C" d="M462.335,41.37c0,1.377-0.377,2.49-1.131,3.34s-1.767,1.274-3.036,1.274c-1.25,0-2.247-0.425-2.991-1.274
		c-0.746-0.85-1.117-1.963-1.117-3.34v-1.736c0-1.372,0.371-2.485,1.113-3.34s1.738-1.282,2.988-1.282
		c1.27,0,2.282,0.427,3.039,1.282s1.135,1.968,1.135,3.34V41.37z M461.464,39.619c0-1.152-0.292-2.08-0.875-2.783
		c-0.584-0.703-1.393-1.055-2.428-1.055c-1.016,0-1.807,0.352-2.373,1.055s-0.85,1.631-0.85,2.783v1.75
		c0,1.162,0.283,2.095,0.854,2.798c0.568,0.703,1.36,1.055,2.376,1.055c1.04,0,1.849-0.35,2.429-1.051
		c0.578-0.7,0.867-1.634,0.867-2.801V39.619z"/>
	<path fill="#1B181C" d="M472.099,35.166v7.083c0,1.172-0.359,2.087-1.076,2.747c-0.719,0.659-1.641,0.989-2.77,0.989
		c-1.113,0-2.022-0.331-2.729-0.993c-0.705-0.661-1.058-1.576-1.058-2.743v-7.083h0.879v7.083c0,0.918,0.272,1.647,0.817,2.186
		c0.543,0.54,1.24,0.81,2.09,0.81c0.869,0,1.582-0.269,2.139-0.806s0.836-1.267,0.836-2.19v-7.083H472.099z"/>
	<path fill="#1B181C" d="M482.529,45.83h-0.879l-6.057-9.126l-0.045,0.007v9.119h-0.879V35.166h0.879l6.058,9.104l0.044-0.007
		v-9.097h0.879V45.83z"/>
	<path fill="#1B181C" d="M492.292,35.913h-3.633v9.917h-0.872v-9.917h-3.757v-0.747h8.262V35.913z"/>
	<path fill="#1B181C" d="M505.476,41.37c0,1.377-0.377,2.49-1.133,3.34c-0.754,0.85-1.766,1.274-3.035,1.274
		c-1.25,0-2.248-0.425-2.992-1.274s-1.117-1.963-1.117-3.34v-1.736c0-1.372,0.371-2.485,1.113-3.34s1.738-1.282,2.988-1.282
		c1.27,0,2.283,0.427,3.04,1.282s1.136,1.968,1.136,3.34V41.37z M504.604,39.619c0-1.152-0.292-2.08-0.876-2.783
		c-0.583-0.703-1.393-1.055-2.428-1.055c-1.016,0-1.807,0.352-2.373,1.055s-0.85,1.631-0.85,2.783v1.75
		c0,1.162,0.285,2.095,0.854,2.798s1.361,1.055,2.377,1.055c1.04,0,1.85-0.35,2.428-1.051c0.578-0.7,0.868-1.634,0.868-2.801V39.619
		z"/>
	<path fill="#1B181C" d="M513.525,40.835h-4.9v4.995h-0.879V35.166h6.526v0.747h-5.647v4.167h4.9V40.835z"/>
	<path fill="#1B181C" d="M527.778,42.402h0.044l1.414-7.236h2.204l-2.49,10.664h-1.985l-1.963-7.024h-0.043l-1.956,7.024h-1.985
		l-2.49-10.664h2.205l1.421,7.229h0.044l1.919-7.229h1.729L527.778,42.402z"/>
	<path fill="#1B181C" d="M541.203,41.458c0,1.313-0.412,2.396-1.237,3.249s-1.899,1.278-3.223,1.278
		c-1.318,0-2.388-0.427-3.208-1.282s-1.23-1.936-1.23-3.245v-1.919c0-1.304,0.408-2.384,1.227-3.241
		c0.818-0.857,1.884-1.286,3.197-1.286c1.323,0,2.4,0.428,3.23,1.286c0.83,0.856,1.244,1.937,1.244,3.241V41.458z M539.072,39.524
		c0-0.83-0.207-1.511-0.623-2.043c-0.414-0.532-0.988-0.798-1.721-0.798c-0.723,0-1.285,0.266-1.688,0.798
		c-0.404,0.532-0.605,1.213-0.605,2.043v1.934c0,0.845,0.203,1.533,0.608,2.065s0.972,0.798,1.699,0.798
		c0.732,0,1.304-0.266,1.714-0.798s0.615-1.221,0.615-2.065V39.524z"/>
	<path fill="#1B181C" d="M545.034,41.567v4.263h-2.139V35.166h3.691c1.216,0,2.167,0.277,2.853,0.831
		c0.686,0.555,1.029,1.327,1.029,2.318c0,0.547-0.146,1.02-0.436,1.417c-0.291,0.398-0.715,0.719-1.271,0.963
		c0.631,0.186,1.083,0.496,1.359,0.93c0.275,0.435,0.414,0.972,0.414,1.611v0.784c0,0.298,0.04,0.609,0.12,0.934
		c0.081,0.325,0.219,0.565,0.414,0.721v0.154h-2.204c-0.195-0.156-0.322-0.415-0.378-0.776s-0.084-0.71-0.084-1.047v-0.754
		c0-0.532-0.146-0.946-0.436-1.241c-0.291-0.295-0.702-0.443-1.234-0.443H545.034z M545.034,39.919h1.517
		c0.6,0,1.047-0.127,1.34-0.381s0.439-0.63,0.439-1.128c0-0.488-0.148-0.876-0.443-1.165s-0.729-0.432-1.3-0.432h-1.553V39.919z"/>
	<path fill="#1B181C" d="M554.591,41.567v4.263h-2.139V35.166h3.691c1.217,0,2.167,0.277,2.854,0.831
		c0.686,0.555,1.029,1.327,1.029,2.318c0,0.547-0.146,1.02-0.436,1.417c-0.291,0.398-0.715,0.719-1.271,0.963
		c0.63,0.186,1.082,0.496,1.359,0.93c0.275,0.435,0.413,0.972,0.413,1.611v0.784c0,0.298,0.04,0.609,0.12,0.934
		c0.082,0.325,0.219,0.565,0.414,0.721v0.154h-2.204c-0.195-0.156-0.321-0.415-0.378-0.776c-0.056-0.361-0.084-0.71-0.084-1.047
		v-0.754c0-0.532-0.145-0.946-0.436-1.241s-0.701-0.443-1.234-0.443H554.591z M554.591,39.919h1.517
		c0.601,0,1.048-0.127,1.341-0.381s0.439-0.63,0.439-1.128c0-0.488-0.148-0.876-0.443-1.165c-0.296-0.288-0.729-0.432-1.301-0.432
		h-1.553V39.919z"/>
	<path fill="#1B181C" d="M564.296,45.83h-2.139V35.166h2.139V45.83z"/>
	<path fill="#1B181C" d="M572.507,41.143h-3.955v3.047h4.701v1.641h-6.84V35.166h6.826v1.648h-4.688v2.681h3.955V41.143z"/>
	<path fill="#1B181C" d="M580.314,43.047c0-0.41-0.143-0.74-0.428-0.989c-0.286-0.249-0.787-0.483-1.506-0.703
		c-1.23-0.371-2.164-0.808-2.801-1.311c-0.638-0.503-0.956-1.189-0.956-2.058c0-0.874,0.358-1.588,1.077-2.142
		c0.717-0.554,1.633-0.832,2.746-0.832c1.182,0,2.133,0.298,2.853,0.894s1.068,1.377,1.044,2.344l-0.015,0.044h-2.073
		c0-0.532-0.16-0.941-0.482-1.227c-0.322-0.285-0.774-0.428-1.355-0.428c-0.527,0-0.936,0.127-1.223,0.381
		c-0.289,0.254-0.433,0.579-0.433,0.974c0,0.361,0.156,0.658,0.469,0.89c0.313,0.232,0.853,0.478,1.618,0.736
		c1.172,0.332,2.066,0.766,2.682,1.3c0.615,0.535,0.922,1.239,0.922,2.113c0,0.913-0.355,1.633-1.068,2.161
		s-1.656,0.791-2.828,0.791c-1.146,0-2.133-0.286-2.955-0.857s-1.222-1.423-1.197-2.556l0.015-0.044h2.073
		c0,0.63,0.186,1.094,0.557,1.392s0.873,0.447,1.508,0.447c0.572,0,1.008-0.12,1.308-0.359
		C580.165,43.767,580.314,43.447,580.314,43.047z"/>
</g>
<g>
	<path fill="#1B181C" d="M8.855,35.167v7.083c0,1.172-0.359,2.087-1.077,2.747s-1.641,0.989-2.769,0.989
		c-1.113,0-2.023-0.331-2.729-0.993c-0.706-0.661-1.058-1.576-1.058-2.743v-7.083h0.879v7.083c0,0.918,0.272,1.647,0.817,2.186
		c0.544,0.54,1.241,0.81,2.091,0.81c0.869,0,1.582-0.269,2.139-0.806s0.835-1.267,0.835-2.19v-7.083H8.855z"/>
	<path fill="#1B181C" d="M17.439,43.238c0-0.547-0.217-0.999-0.652-1.355s-1.172-0.691-2.212-1.003
		c-1.138-0.313-2.003-0.702-2.597-1.168c-0.593-0.466-0.89-1.1-0.89-1.901c0-0.815,0.332-1.485,0.996-2.01s1.511-0.788,2.542-0.788
		c1.084,0,1.956,0.296,2.615,0.89c0.659,0.593,0.979,1.346,0.959,2.259l-0.015,0.044h-0.82c0-0.703-0.255-1.287-0.765-1.75
		c-0.511-0.464-1.168-0.696-1.974-0.696c-0.83,0-1.481,0.197-1.952,0.589c-0.472,0.394-0.707,0.875-0.707,1.447
		c0,0.542,0.213,0.988,0.641,1.336c0.427,0.35,1.181,0.675,2.26,0.978c1.123,0.327,1.98,0.73,2.571,1.208s0.886,1.113,0.886,1.904
		c0,0.83-0.346,1.498-1.036,2.003c-0.691,0.506-1.562,0.758-2.611,0.758s-1.965-0.267-2.747-0.802
		c-0.781-0.534-1.16-1.314-1.135-2.34l0.015-0.044h0.813c0,0.825,0.31,1.439,0.93,1.842c0.62,0.403,1.328,0.604,2.124,0.604
		c0.815,0,1.479-0.187,1.992-0.561C17.183,44.312,17.439,43.829,17.439,43.238z"/>
	<path fill="#1B181C" d="M26.14,40.667h-4.783v4.424h5.53v0.74h-6.409V35.167h6.372v0.747h-5.493v4.006h4.783V40.667z"/>
	<path fill="#1B181C" d="M29.604,41.012v4.819h-0.879V35.174h3.552c1.143,0,2.019,0.25,2.629,0.75
		c0.61,0.501,0.916,1.232,0.916,2.194c0,0.566-0.163,1.073-0.487,1.52c-0.325,0.446-0.785,0.772-1.38,0.978
		c0.659,0.166,1.134,0.463,1.424,0.89c0.291,0.428,0.436,0.963,0.436,1.608v1.003c0,0.332,0.039,0.63,0.117,0.894
		s0.208,0.479,0.388,0.645v0.176h-0.894c-0.181-0.176-0.308-0.422-0.381-0.74s-0.11-0.647-0.11-0.989v-0.974
		c0-0.654-0.211-1.17-0.633-1.549c-0.423-0.378-1.012-0.567-1.769-0.567H29.604z M29.604,40.265h2.571
		c0.962,0,1.665-0.194,2.109-0.582c0.444-0.389,0.667-0.912,0.667-1.571c0-0.703-0.221-1.244-0.663-1.622
		c-0.442-0.378-1.112-0.568-2.011-0.568h-2.673V40.265z"/>
	<path fill="#1B181C" d="M44.546,43.238c0-0.547-0.217-0.999-0.652-1.355s-1.172-0.691-2.212-1.003
		c-1.138-0.313-2.003-0.702-2.597-1.168c-0.593-0.466-0.89-1.1-0.89-1.901c0-0.815,0.332-1.485,0.996-2.01s1.511-0.788,2.542-0.788
		c1.084,0,1.956,0.296,2.615,0.89c0.659,0.593,0.979,1.346,0.959,2.259l-0.015,0.044h-0.82c0-0.703-0.255-1.287-0.765-1.75
		c-0.511-0.464-1.168-0.696-1.974-0.696c-0.83,0-1.481,0.197-1.952,0.589c-0.472,0.394-0.707,0.875-0.707,1.447
		c0,0.542,0.213,0.988,0.641,1.336c0.427,0.35,1.181,0.675,2.26,0.978c1.123,0.327,1.98,0.73,2.571,1.208s0.886,1.113,0.886,1.904
		c0,0.83-0.346,1.498-1.036,2.003c-0.691,0.506-1.562,0.758-2.611,0.758s-1.965-0.267-2.747-0.802
		c-0.781-0.534-1.16-1.314-1.135-2.34l0.015-0.044h0.813c0,0.825,0.31,1.439,0.93,1.842c0.62,0.403,1.328,0.604,2.124,0.604
		c0.815,0,1.479-0.187,1.992-0.561C44.29,44.312,44.546,43.829,44.546,43.238z"/>
	<path fill="#1B181C" d="M56.814,42.857h-4.68l-1.077,2.974h-0.908l3.918-10.664h0.828l3.889,10.664h-0.908L56.814,42.857z
		 M52.412,42.074h4.116l-2.021-5.654h-0.044L52.412,42.074z"/>
	<path fill="#1B181C" d="M65.559,44.557h0.044l3.97-9.39h1.069v10.664h-0.879v-8.958l-0.044-0.007l-3.823,8.965h-0.63l-3.911-9.185
		l-0.044,0.007v9.177h-0.879V35.167h1.172L65.559,44.557z"/>
	<path fill="#1B181C" d="M81.189,41.371c0,1.377-0.377,2.49-1.132,3.34c-0.754,0.85-1.766,1.274-3.036,1.274
		c-1.25,0-2.248-0.425-2.992-1.274c-0.745-0.85-1.117-1.963-1.117-3.34v-1.736c0-1.372,0.371-2.485,1.113-3.34
		s1.738-1.282,2.988-1.282c1.27,0,2.283,0.427,3.04,1.282s1.135,1.968,1.135,3.34V41.371z M80.317,39.62
		c0-1.152-0.292-2.08-0.875-2.783s-1.393-1.055-2.428-1.055c-1.016,0-1.807,0.352-2.373,1.055s-0.85,1.631-0.85,2.783v1.75
		c0,1.162,0.284,2.095,0.854,2.798c0.568,0.703,1.361,1.055,2.376,1.055c1.04,0,1.849-0.35,2.428-1.051
		c0.578-0.7,0.868-1.634,0.868-2.801V39.62z"/>
	<path fill="#1B181C" d="M90.952,35.167v7.083c0,1.172-0.359,2.087-1.077,2.747s-1.641,0.989-2.769,0.989
		c-1.113,0-2.023-0.331-2.729-0.993c-0.706-0.661-1.058-1.576-1.058-2.743v-7.083h0.879v7.083c0,0.918,0.272,1.647,0.817,2.186
		c0.544,0.54,1.241,0.81,2.091,0.81c0.869,0,1.582-0.269,2.139-0.806s0.835-1.267,0.835-2.19v-7.083H90.952z"/>
	<path fill="#1B181C" d="M101.382,45.831h-0.879l-6.057-9.126l-0.044,0.007v9.119h-0.879V35.167h0.879l6.057,9.104l0.044-0.007
		v-9.097h0.879V45.831z"/>
	<path fill="#1B181C" d="M111.145,35.914h-3.633v9.917h-0.872v-9.917h-3.757v-0.747h8.262V35.914z"/>
	<path fill="#1B181C" d="M124.329,41.371c0,1.377-0.377,2.49-1.132,3.34c-0.754,0.85-1.766,1.274-3.036,1.274
		c-1.25,0-2.248-0.425-2.992-1.274c-0.745-0.85-1.117-1.963-1.117-3.34v-1.736c0-1.372,0.371-2.485,1.113-3.34
		s1.738-1.282,2.988-1.282c1.27,0,2.283,0.427,3.04,1.282s1.135,1.968,1.135,3.34V41.371z M123.457,39.62
		c0-1.152-0.292-2.08-0.875-2.783s-1.393-1.055-2.428-1.055c-1.016,0-1.807,0.352-2.373,1.055s-0.85,1.631-0.85,2.783v1.75
		c0,1.162,0.284,2.095,0.854,2.798c0.568,0.703,1.361,1.055,2.376,1.055c1.04,0,1.849-0.35,2.428-1.051
		c0.578-0.7,0.868-1.634,0.868-2.801V39.62z"/>
	<path fill="#1B181C" d="M132.378,40.836h-4.9v4.995h-0.879V35.167h6.526v0.747h-5.647v4.167h4.9V40.836z"/>
	<path fill="#1B181C" d="M143.687,43.048c0-0.41-0.143-0.74-0.428-0.989c-0.286-0.249-0.788-0.483-1.505-0.703
		c-1.23-0.371-2.165-0.808-2.801-1.311c-0.638-0.503-0.956-1.189-0.956-2.058c0-0.874,0.359-1.588,1.077-2.142
		s1.633-0.832,2.747-0.832c1.182,0,2.132,0.298,2.853,0.894s1.068,1.377,1.044,2.344l-0.015,0.044h-2.073
		c0-0.532-0.161-0.941-0.483-1.227c-0.322-0.285-0.774-0.428-1.355-0.428c-0.527,0-0.935,0.127-1.223,0.381
		s-0.432,0.579-0.432,0.974c0,0.361,0.156,0.658,0.469,0.89c0.313,0.232,0.852,0.478,1.619,0.736c1.172,0.332,2.065,0.766,2.681,1.3
		c0.615,0.535,0.923,1.239,0.923,2.113c0,0.913-0.356,1.633-1.069,2.161s-1.655,0.791-2.827,0.791c-1.147,0-2.133-0.286-2.956-0.857
		s-1.222-1.423-1.197-2.556l0.015-0.044h2.073c0,0.63,0.186,1.094,0.557,1.392s0.874,0.447,1.509,0.447
		c0.571,0,1.007-0.12,1.307-0.359C143.537,43.768,143.687,43.448,143.687,43.048z"/>
	<path fill="#1B181C" d="M150.322,41.378h-0.784v4.453H147.4V35.167h2.139v4.358h0.601l2.922-4.358h2.644l-3.691,4.958l3.977,5.706
		h-2.725L150.322,41.378z"/>
	<path fill="#1B181C" d="M159.243,45.831h-2.139V35.167h2.139V45.831z"/>
	<path fill="#1B181C" d="M163.499,44.19h4.775v1.641h-6.914V35.167h2.139V44.19z"/>
	<path fill="#1B181C" d="M171.833,44.19h4.775v1.641h-6.914V35.167h2.139V44.19z"/>
	<path fill="#1B181C" d="M183.589,43.048c0-0.41-0.143-0.74-0.428-0.989c-0.286-0.249-0.788-0.483-1.505-0.703
		c-1.23-0.371-2.165-0.808-2.801-1.311c-0.638-0.503-0.956-1.189-0.956-2.058c0-0.874,0.359-1.588,1.077-2.142
		s1.633-0.832,2.747-0.832c1.182,0,2.132,0.298,2.853,0.894s1.068,1.377,1.044,2.344l-0.015,0.044h-2.073
		c0-0.532-0.161-0.941-0.483-1.227c-0.322-0.285-0.774-0.428-1.355-0.428c-0.527,0-0.935,0.127-1.223,0.381
		s-0.432,0.579-0.432,0.974c0,0.361,0.156,0.658,0.469,0.89c0.313,0.232,0.852,0.478,1.619,0.736c1.172,0.332,2.065,0.766,2.681,1.3
		c0.615,0.535,0.923,1.239,0.923,2.113c0,0.913-0.356,1.633-1.069,2.161s-1.655,0.791-2.827,0.791c-1.147,0-2.133-0.286-2.956-0.857
		s-1.222-1.423-1.197-2.556l0.015-0.044h2.073c0,0.63,0.186,1.094,0.557,1.392s0.874,0.447,1.509,0.447
		c0.571,0,1.007-0.12,1.307-0.359C183.439,43.768,183.589,43.448,183.589,43.048z"/>
</g>
<g>
	<path fill="#1B181C" d="M246.805,41.501c0,0.649-0.089,1.248-0.268,1.794s-0.433,1.023-0.765,1.428l1.699,1.663l-0.608,0.586
		l-1.721-1.648c-0.342,0.259-0.724,0.456-1.146,0.589c-0.423,0.134-0.875,0.202-1.359,0.202c-1.25,0-2.248-0.425-2.992-1.274
		c-0.745-0.85-1.117-1.963-1.117-3.34v-1.736c0-1.372,0.371-2.485,1.113-3.34s1.738-1.282,2.988-1.282
		c1.27,0,2.283,0.427,3.04,1.282s1.135,1.968,1.135,3.34V41.501z M245.933,39.751c0-1.152-0.292-2.08-0.875-2.783
		s-1.393-1.055-2.428-1.055c-1.016,0-1.807,0.352-2.373,1.055s-0.85,1.631-0.85,2.783v1.75c0,1.162,0.284,2.095,0.854,2.798
		c0.568,0.703,1.361,1.055,2.376,1.055c1.04,0,1.849-0.35,2.428-1.051c0.578-0.7,0.868-1.634,0.868-2.801V39.751z"/>
	<path fill="#1B181C" d="M256.678,35.298v7.083c0,1.172-0.359,2.087-1.077,2.747s-1.641,0.989-2.769,0.989
		c-1.113,0-2.023-0.331-2.729-0.993c-0.706-0.661-1.058-1.576-1.058-2.743v-7.083h0.879v7.083c0,0.918,0.272,1.647,0.817,2.186
		c0.544,0.54,1.241,0.81,2.091,0.81c0.869,0,1.582-0.269,2.139-0.806s0.835-1.267,0.835-2.19v-7.083H256.678z"/>
	<path fill="#1B181C" d="M264.668,42.988h-4.68l-1.077,2.974h-0.908l3.918-10.664h0.828l3.889,10.664h-0.908L264.668,42.988z
		 M260.267,42.205h4.116l-2.021-5.654h-0.044L260.267,42.205z"/>
	<path fill="#1B181C" d="M269.166,45.222h5.508v0.74h-6.387V35.298h0.879V45.222z"/>
	<path fill="#1B181C" d="M277.654,45.962h-0.879V35.298h0.879V45.962z"/>
	<path fill="#1B181C" d="M286.385,40.967h-4.9v4.995h-0.879V35.298h6.526v0.747h-5.647v4.167h4.9V40.967z"/>
	<path fill="#1B181C" d="M289.974,45.962h-0.879V35.298h0.879V45.962z"/>
	<path fill="#1B181C" d="M300.271,42.629l0.016,0.044c0.02,1.045-0.322,1.88-1.025,2.505s-1.627,0.938-2.77,0.938
		c-1.186,0-2.143-0.428-2.871-1.286c-0.728-0.856-1.091-1.966-1.091-3.329v-1.736c0-1.357,0.364-2.467,1.091-3.329
		c0.728-0.861,1.685-1.292,2.871-1.292c1.158,0,2.084,0.305,2.78,0.916c0.695,0.61,1.034,1.45,1.015,2.52l-0.016,0.044h-0.82
		c0-0.859-0.262-1.529-0.787-2.011c-0.525-0.48-1.248-0.721-2.172-0.721c-0.932,0-1.681,0.361-2.244,1.084
		c-0.564,0.723-0.846,1.648-0.846,2.776v1.75c0,1.143,0.282,2.074,0.846,2.794c0.563,0.72,1.312,1.08,2.244,1.08
		c0.924,0,1.646-0.234,2.172-0.703s0.787-1.15,0.787-2.043H300.271z"/>
	<path fill="#1B181C" d="M308.123,42.988h-4.68l-1.076,2.974h-0.908l3.918-10.664h0.828l3.889,10.664h-0.908L308.123,42.988z
		 M303.721,42.205h4.116l-2.021-5.654h-0.044L303.721,42.205z"/>
	<path fill="#1B181C" d="M318.047,36.045h-3.633v9.917h-0.872v-9.917h-3.757v-0.747h8.262V36.045z"/>
	<path fill="#1B181C" d="M320.867,45.962h-0.879V35.298h0.879V45.962z"/>
	<path fill="#1B181C" d="M331.641,41.501c0,1.377-0.377,2.49-1.132,3.34c-0.754,0.85-1.766,1.274-3.035,1.274
		c-1.25,0-2.248-0.425-2.992-1.274c-0.745-0.85-1.117-1.963-1.117-3.34v-1.736c0-1.372,0.371-2.485,1.113-3.34
		s1.738-1.282,2.988-1.282c1.27,0,2.283,0.427,3.039,1.282c0.758,0.854,1.136,1.968,1.136,3.34V41.501z M330.769,39.751
		c0-1.152-0.291-2.08-0.875-2.783s-1.393-1.055-2.428-1.055c-1.016,0-1.807,0.352-2.373,1.055s-0.85,1.631-0.85,2.783v1.75
		c0,1.162,0.284,2.095,0.854,2.798c0.568,0.703,1.361,1.055,2.377,1.055c1.039,0,1.849-0.35,2.428-1.051
		c0.578-0.7,0.867-1.634,0.867-2.801V39.751z"/>
	<path fill="#1B181C" d="M341.771,45.962h-0.879l-6.058-9.126l-0.044,0.007v9.119h-0.879V35.298h0.879l6.057,9.104l0.045-0.007
		v-9.097h0.879V45.962z"/>
</g>
<path fill="#EE811E" d="M493.54,451.898"/>
<path fill="#EE811E" d="M493.417,451.182"/>
<g id="middleschool2"><rect x="252.775" y="338.353" fill="#1A171B" width="78.629" height="13"/></g>
<g id="middleschool">
	<path fill="#FFFFFF" d="M256.389,342.971l0.076,0.826c0.207-0.301,0.467-0.533,0.779-0.697s0.674-0.246,1.084-0.246
		c0.414,0,0.77,0.094,1.066,0.281s0.52,0.469,0.668,0.844c0.195-0.352,0.453-0.627,0.773-0.826s0.695-0.299,1.125-0.299
		c0.637,0,1.14,0.222,1.509,0.665s0.554,1.114,0.554,2.013v3.779H262.6v-3.785c0-0.555-0.093-0.944-0.278-1.169
		s-0.464-0.337-0.835-0.337c-0.305,0-0.563,0.082-0.773,0.246s-0.363,0.385-0.457,0.662c0,0.059,0.002,0.109,0.006,0.152
		s0.006,0.084,0.006,0.123v4.107h-1.424v-3.785c0-0.535-0.095-0.92-0.284-1.154s-0.468-0.352-0.835-0.352
		c-0.289,0-0.534,0.056-0.735,0.167s-0.36,0.269-0.478,0.472v4.652h-1.424v-6.34H256.389z"/>
	<path fill="#FFFFFF" d="M267.042,341.418h-1.424v-1.248h1.424V341.418z M267.042,349.311h-1.424v-6.34h1.424V349.311z"/>
	<path fill="#FFFFFF" d="M268.372,346.229c0-1.012,0.217-1.827,0.65-2.446s1.043-0.929,1.828-0.929c0.344,0,0.651,0.069,0.923,0.208
		s0.507,0.337,0.706,0.595v-3.486h1.424v9.141h-1.154l-0.17-0.803c-0.203,0.301-0.449,0.53-0.738,0.688s-0.623,0.237-1.002,0.237
		c-0.777,0-1.383-0.283-1.816-0.85s-0.65-1.311-0.65-2.232V346.229z M269.795,346.352c0,0.586,0.112,1.053,0.337,1.4
		s0.581,0.521,1.069,0.521c0.301,0,0.556-0.064,0.765-0.193s0.38-0.313,0.513-0.551v-2.766c-0.133-0.234-0.305-0.417-0.516-0.548
		s-0.461-0.196-0.75-0.196c-0.484,0-0.842,0.204-1.072,0.612s-0.346,0.94-0.346,1.597V346.352z"/>
	<path fill="#FFFFFF" d="M275.168,346.229c0-1.012,0.217-1.827,0.65-2.446s1.043-0.929,1.828-0.929c0.344,0,0.651,0.069,0.923,0.208
		s0.507,0.337,0.706,0.595v-3.486h1.424v9.141h-1.154l-0.17-0.803c-0.203,0.301-0.449,0.53-0.738,0.688s-0.623,0.237-1.002,0.237
		c-0.777,0-1.383-0.283-1.816-0.85s-0.65-1.311-0.65-2.232V346.229z M276.592,346.352c0,0.586,0.112,1.053,0.337,1.4
		s0.581,0.521,1.069,0.521c0.301,0,0.556-0.064,0.765-0.193s0.38-0.313,0.513-0.551v-2.766c-0.133-0.234-0.305-0.417-0.516-0.548
		s-0.461-0.196-0.75-0.196c-0.484,0-0.842,0.204-1.072,0.612s-0.346,0.94-0.346,1.597V346.352z"/>
	<path fill="#FFFFFF" d="M283.747,349.311h-1.424v-9.141h1.424V349.311z"/>
	<path fill="#FFFFFF" d="M288.03,349.434c-0.926,0-1.649-0.292-2.171-0.876s-0.782-1.341-0.782-2.271v-0.234
		c0-0.93,0.261-1.696,0.782-2.3s1.194-0.903,2.019-0.899c0.852,0,1.496,0.263,1.934,0.788s0.656,1.228,0.656,2.106v0.768h-3.92
		l-0.012,0.029c0.016,0.52,0.152,0.941,0.41,1.266s0.646,0.486,1.166,0.486c0.387,0,0.722-0.047,1.005-0.141
		s0.546-0.229,0.788-0.404l0.463,0.932c-0.242,0.211-0.563,0.389-0.961,0.533S288.549,349.434,288.03,349.434z M287.877,343.996
		c-0.371,0-0.668,0.134-0.891,0.401s-0.361,0.616-0.416,1.046l0.012,0.029h2.479v-0.111c0-0.406-0.095-0.735-0.284-0.987
		S288.288,343.996,287.877,343.996z"/>
	<path fill="#FFFFFF" d="M298.172,347.576c0-0.219-0.093-0.399-0.278-0.542s-0.536-0.271-1.052-0.384
		c-0.746-0.152-1.316-0.377-1.711-0.674s-0.592-0.695-0.592-1.195c0-0.531,0.225-0.985,0.674-1.362s1.041-0.565,1.775-0.565
		c0.758,0,1.368,0.194,1.831,0.583s0.685,0.856,0.665,1.403l-0.012,0.035h-1.365c0-0.258-0.102-0.481-0.305-0.671
		s-0.475-0.284-0.814-0.284c-0.344,0-0.605,0.078-0.785,0.234s-0.27,0.348-0.27,0.574c0,0.215,0.084,0.387,0.252,0.516
		s0.514,0.244,1.037,0.346c0.777,0.156,1.363,0.386,1.758,0.688s0.592,0.708,0.592,1.216c0,0.57-0.235,1.036-0.706,1.397
		s-1.091,0.542-1.86,0.542c-0.824,0-1.475-0.211-1.951-0.633s-0.703-0.906-0.68-1.453l0.012-0.035h1.324
		c0.016,0.367,0.148,0.635,0.398,0.803s0.555,0.252,0.914,0.252c0.363,0,0.646-0.072,0.847-0.217S298.172,347.814,298.172,347.576z"
		/>
	<path fill="#FFFFFF" d="M303.434,348.297c0.324,0,0.599-0.102,0.823-0.305s0.337-0.461,0.337-0.773h1.289l0.012,0.035
		c0.016,0.594-0.22,1.105-0.706,1.535s-1.071,0.645-1.755,0.645c-0.914,0-1.619-0.302-2.115-0.905s-0.744-1.364-0.744-2.282v-0.205
		c0-0.914,0.248-1.674,0.744-2.279s1.199-0.908,2.109-0.908c0.738,0,1.338,0.222,1.799,0.665s0.684,1.007,0.668,1.69l-0.012,0.035
		h-1.289c0-0.348-0.107-0.643-0.322-0.885s-0.496-0.363-0.844-0.363c-0.508,0-0.873,0.196-1.096,0.589s-0.334,0.878-0.334,1.456
		v0.205c0,0.59,0.11,1.079,0.331,1.468S302.918,348.297,303.434,348.297z"/>
	<path fill="#FFFFFF" d="M308.497,343.791c0.211-0.297,0.468-0.527,0.771-0.691s0.638-0.246,1.005-0.246
		c0.672,0,1.196,0.212,1.573,0.636s0.565,1.077,0.565,1.96v3.861h-1.424v-3.873c0-0.496-0.097-0.856-0.29-1.081
		s-0.481-0.337-0.864-0.337c-0.305,0-0.568,0.054-0.791,0.161s-0.404,0.257-0.545,0.448v4.682h-1.424v-9.141h1.424V343.791z"/>
	<path fill="#FFFFFF" d="M313.624,346.082c0-0.945,0.259-1.72,0.776-2.323s1.226-0.905,2.124-0.905c0.91,0,1.624,0.302,2.142,0.905
		s0.776,1.378,0.776,2.323v0.123c0,0.953-0.259,1.729-0.776,2.329s-1.228,0.899-2.13,0.899c-0.906,0-1.618-0.301-2.136-0.902
		s-0.776-1.377-0.776-2.326V346.082z M315.047,346.205c0,0.621,0.121,1.125,0.363,1.512s0.617,0.58,1.125,0.58
		c0.496,0,0.868-0.194,1.116-0.583s0.372-0.892,0.372-1.509v-0.123c0-0.605-0.124-1.104-0.372-1.497s-0.624-0.589-1.128-0.589
		c-0.496,0-0.866,0.196-1.11,0.589s-0.366,0.892-0.366,1.497V346.205z"/>
	<path fill="#FFFFFF" d="M320.42,346.082c0-0.945,0.259-1.72,0.776-2.323s1.226-0.905,2.124-0.905c0.91,0,1.624,0.302,2.142,0.905
		s0.776,1.378,0.776,2.323v0.123c0,0.953-0.259,1.729-0.776,2.329s-1.228,0.899-2.13,0.899c-0.906,0-1.618-0.301-2.136-0.902
		s-0.776-1.377-0.776-2.326V346.082z M321.844,346.205c0,0.621,0.121,1.125,0.363,1.512s0.617,0.58,1.125,0.58
		c0.496,0,0.868-0.194,1.116-0.583s0.372-0.892,0.372-1.509v-0.123c0-0.605-0.124-1.104-0.372-1.497s-0.624-0.589-1.128-0.589
		c-0.496,0-0.866,0.196-1.11,0.589s-0.366,0.892-0.366,1.497V346.205z"/>
	<path fill="#FFFFFF" d="M328.999,349.311h-1.424v-9.141h1.424V349.311z"/>
</g>
<g id="tyears2"><rect x="239.178" y="416.16" fill="#1A171B" width="106.377" height="13"/></g>
<g id="tyears">
	<path fill="#FFFFFF" d="M243.497,421.266c0.461,0,0.793-0.115,0.996-0.346s0.305-0.553,0.305-0.967
		c0-0.371-0.109-0.673-0.328-0.905s-0.535-0.349-0.949-0.349c-0.383,0-0.701,0.114-0.955,0.343s-0.381,0.515-0.381,0.858h-1.365
		l-0.012-0.035c-0.023-0.652,0.226-1.2,0.747-1.644s1.177-0.665,1.966-0.665c0.832,0,1.489,0.204,1.972,0.612
		s0.724,1.003,0.724,1.784c0,0.391-0.106,0.749-0.319,1.075s-0.509,0.581-0.888,0.765c0.434,0.172,0.766,0.431,0.996,0.776
		s0.346,0.763,0.346,1.251c0,0.785-0.264,1.4-0.791,1.846s-1.207,0.668-2.039,0.668c-0.75,0-1.408-0.212-1.975-0.636
		s-0.84-1.003-0.82-1.737l0.012-0.035h1.371c0,0.359,0.132,0.661,0.396,0.905s0.603,0.366,1.017,0.366
		c0.43,0,0.771-0.128,1.025-0.384s0.381-0.585,0.381-0.987c0-0.484-0.118-0.846-0.354-1.084s-0.595-0.357-1.075-0.357h-0.949v-1.119
		H243.497z"/>
	<path fill="#FFFFFF" d="M252.76,423.668l0.141,0.633h0.035l1.389-4.43h1.559l-2.625,7.301c-0.168,0.441-0.404,0.818-0.709,1.131
		s-0.736,0.469-1.295,0.469c-0.117,0-0.243-0.012-0.378-0.035s-0.265-0.051-0.39-0.082l0.158-1.102
		c0.051,0.004,0.123,0.01,0.217,0.018s0.164,0.012,0.211,0.012c0.258,0,0.464-0.088,0.618-0.264s0.28-0.379,0.378-0.609l0.234-0.574
		L250,419.871h1.553L252.76,423.668z"/>
	<path fill="#FFFFFF" d="M259.352,426.334c-0.926,0-1.649-0.292-2.171-0.876s-0.782-1.341-0.782-2.271v-0.234
		c0-0.93,0.261-1.696,0.782-2.3s1.194-0.903,2.019-0.899c0.852,0,1.496,0.263,1.934,0.788s0.656,1.228,0.656,2.106v0.768h-3.92
		l-0.012,0.029c0.016,0.52,0.152,0.941,0.41,1.266s0.646,0.486,1.166,0.486c0.387,0,0.722-0.047,1.005-0.141
		s0.546-0.229,0.788-0.404l0.463,0.932c-0.242,0.211-0.563,0.389-0.961,0.533S259.872,426.334,259.352,426.334z M259.2,420.896
		c-0.371,0-0.668,0.134-0.891,0.401s-0.361,0.616-0.416,1.046l0.012,0.029h2.479v-0.111c0-0.406-0.095-0.735-0.284-0.987
		S259.61,420.896,259.2,420.896z"/>
	<path fill="#FFFFFF" d="M266.764,426.211c-0.051-0.16-0.093-0.316-0.126-0.469s-0.056-0.305-0.067-0.457
		c-0.191,0.297-0.447,0.546-0.768,0.747s-0.678,0.302-1.072,0.302c-0.66,0-1.167-0.17-1.521-0.51s-0.53-0.807-0.53-1.4
		c0-0.613,0.242-1.091,0.727-1.433s1.166-0.513,2.045-0.513h1.107v-0.557c0-0.332-0.097-0.592-0.29-0.779s-0.474-0.281-0.841-0.281
		c-0.324,0-0.582,0.077-0.773,0.231s-0.287,0.354-0.287,0.601l-1.371,0.006l-0.006-0.035c-0.027-0.5,0.196-0.943,0.671-1.33
		s1.093-0.58,1.854-0.58c0.738,0,1.334,0.188,1.787,0.563s0.68,0.914,0.68,1.617v2.818c0,0.262,0.018,0.513,0.053,0.753
		s0.092,0.476,0.17,0.706H266.764z M265.024,425.191c0.355,0,0.677-0.09,0.964-0.27s0.478-0.385,0.571-0.615v-0.938h-1.131
		c-0.414,0-0.738,0.103-0.973,0.308s-0.352,0.446-0.352,0.724c0,0.242,0.079,0.435,0.237,0.577S264.727,425.191,265.024,425.191z"/>
	<path fill="#FFFFFF" d="M272.629,421.154l-0.609-0.023c-0.277,0-0.509,0.059-0.694,0.176s-0.329,0.283-0.431,0.498v4.406h-1.424
		v-6.34h1.301l0.094,0.92c0.16-0.324,0.366-0.578,0.618-0.762s0.542-0.275,0.87-0.275c0.086,0,0.166,0.007,0.24,0.021
		s0.143,0.03,0.205,0.05L272.629,421.154z"/>
	<path fill="#FFFFFF" d="M277.247,424.477c0-0.219-0.093-0.399-0.278-0.542s-0.536-0.271-1.052-0.384
		c-0.746-0.152-1.316-0.377-1.711-0.674s-0.592-0.695-0.592-1.195c0-0.531,0.225-0.985,0.674-1.362s1.041-0.565,1.775-0.565
		c0.758,0,1.368,0.194,1.831,0.583s0.685,0.856,0.665,1.403l-0.012,0.035h-1.365c0-0.258-0.102-0.481-0.305-0.671
		s-0.475-0.284-0.814-0.284c-0.344,0-0.605,0.078-0.785,0.234s-0.27,0.348-0.27,0.574c0,0.215,0.084,0.387,0.252,0.516
		s0.514,0.244,1.037,0.346c0.777,0.156,1.363,0.386,1.758,0.688s0.592,0.708,0.592,1.216c0,0.57-0.235,1.036-0.706,1.397
		s-1.091,0.542-1.86,0.542c-0.824,0-1.475-0.211-1.951-0.633s-0.703-0.906-0.68-1.453l0.012-0.035h1.324
		c0.016,0.367,0.148,0.635,0.398,0.803s0.555,0.252,0.914,0.252c0.363,0,0.646-0.072,0.847-0.217S277.247,424.715,277.247,424.477z"
		/>
	<path fill="#FFFFFF" d="M284.319,420.691c0.211-0.297,0.468-0.527,0.771-0.691s0.638-0.246,1.005-0.246
		c0.672,0,1.196,0.212,1.573,0.636s0.565,1.077,0.565,1.96v3.861h-1.424v-3.873c0-0.496-0.097-0.856-0.29-1.081
		s-0.481-0.337-0.864-0.337c-0.305,0-0.568,0.054-0.791,0.161s-0.404,0.257-0.545,0.448v4.682h-1.424v-9.141h1.424V420.691z"/>
	<path fill="#FFFFFF" d="M291.227,418.318h-1.424v-1.248h1.424V418.318z M291.227,426.211h-1.424v-6.34h1.424V426.211z"/>
	<path fill="#FFFFFF" d="M292.598,423.129c0-1.012,0.217-1.827,0.65-2.446s1.043-0.929,1.828-0.929c0.379,0,0.712,0.081,0.999,0.243
		s0.53,0.396,0.729,0.7l0.141-0.826h1.184v6.34c0,0.816-0.252,1.447-0.756,1.893s-1.219,0.668-2.145,0.668
		c-0.309,0-0.642-0.044-0.999-0.132s-0.681-0.204-0.97-0.349l0.229-1.119c0.242,0.121,0.513,0.216,0.812,0.284
		s0.604,0.103,0.917,0.103c0.516,0,0.893-0.11,1.131-0.331s0.357-0.56,0.357-1.017v-0.65c-0.199,0.254-0.435,0.446-0.706,0.577
		s-0.583,0.196-0.935,0.196c-0.777,0-1.383-0.283-1.816-0.85s-0.65-1.311-0.65-2.232V423.129z M294.016,423.252
		c0,0.586,0.113,1.053,0.34,1.4s0.584,0.521,1.072,0.521c0.305,0,0.562-0.063,0.771-0.19s0.378-0.31,0.507-0.548v-2.777
		c-0.133-0.23-0.304-0.411-0.513-0.542s-0.46-0.196-0.753-0.196c-0.488,0-0.848,0.204-1.078,0.612s-0.346,0.94-0.346,1.597V423.252z
		"/>
	<path fill="#FFFFFF" d="M301.024,420.691c0.211-0.297,0.468-0.527,0.771-0.691s0.638-0.246,1.005-0.246
		c0.672,0,1.196,0.212,1.573,0.636s0.565,1.077,0.565,1.96v3.861h-1.424v-3.873c0-0.496-0.097-0.856-0.29-1.081
		s-0.481-0.337-0.864-0.337c-0.305,0-0.568,0.054-0.791,0.161s-0.404,0.257-0.545,0.448v4.682H299.6v-9.141h1.424V420.691z"/>
	<path fill="#FFFFFF" d="M312.965,424.477c0-0.219-0.093-0.399-0.278-0.542s-0.536-0.271-1.052-0.384
		c-0.746-0.152-1.316-0.377-1.711-0.674s-0.592-0.695-0.592-1.195c0-0.531,0.225-0.985,0.674-1.362s1.041-0.565,1.775-0.565
		c0.758,0,1.368,0.194,1.831,0.583s0.685,0.856,0.665,1.403l-0.012,0.035h-1.365c0-0.258-0.102-0.481-0.305-0.671
		s-0.475-0.284-0.814-0.284c-0.344,0-0.605,0.078-0.785,0.234s-0.27,0.348-0.27,0.574c0,0.215,0.084,0.387,0.252,0.516
		s0.514,0.244,1.037,0.346c0.777,0.156,1.363,0.386,1.758,0.688s0.592,0.708,0.592,1.216c0,0.57-0.235,1.036-0.706,1.397
		s-1.091,0.542-1.86,0.542c-0.824,0-1.475-0.211-1.951-0.633s-0.703-0.906-0.68-1.453l0.012-0.035h1.324
		c0.016,0.367,0.148,0.635,0.398,0.803s0.555,0.252,0.914,0.252c0.363,0,0.646-0.072,0.847-0.217S312.965,424.715,312.965,424.477z"
		/>
	<path fill="#FFFFFF" d="M318.227,425.197c0.324,0,0.599-0.102,0.823-0.305s0.337-0.461,0.337-0.773h1.289l0.012,0.035
		c0.016,0.594-0.22,1.105-0.706,1.535s-1.071,0.645-1.755,0.645c-0.914,0-1.619-0.302-2.115-0.905s-0.744-1.364-0.744-2.282v-0.205
		c0-0.914,0.248-1.674,0.744-2.279s1.199-0.908,2.109-0.908c0.738,0,1.338,0.222,1.799,0.665s0.684,1.007,0.668,1.69l-0.012,0.035
		h-1.289c0-0.348-0.107-0.643-0.322-0.885s-0.496-0.363-0.844-0.363c-0.508,0-0.873,0.196-1.096,0.589s-0.334,0.878-0.334,1.456
		v0.205c0,0.59,0.11,1.079,0.331,1.468S317.711,425.197,318.227,425.197z"/>
	<path fill="#FFFFFF" d="M323.29,420.691c0.211-0.297,0.468-0.527,0.771-0.691s0.638-0.246,1.005-0.246
		c0.672,0,1.196,0.212,1.573,0.636s0.565,1.077,0.565,1.96v3.861h-1.424v-3.873c0-0.496-0.097-0.856-0.29-1.081
		s-0.481-0.337-0.864-0.337c-0.305,0-0.568,0.054-0.791,0.161s-0.404,0.257-0.545,0.448v4.682h-1.424v-9.141h1.424V420.691z"/>
	<path fill="#FFFFFF" d="M328.417,422.982c0-0.945,0.259-1.72,0.776-2.323s1.226-0.905,2.124-0.905c0.91,0,1.624,0.302,2.142,0.905
		s0.776,1.378,0.776,2.323v0.123c0,0.953-0.259,1.729-0.776,2.329s-1.228,0.899-2.13,0.899c-0.906,0-1.618-0.301-2.136-0.902
		s-0.776-1.377-0.776-2.326V422.982z M329.84,423.105c0,0.621,0.121,1.125,0.363,1.512s0.617,0.58,1.125,0.58
		c0.496,0,0.868-0.194,1.116-0.583s0.372-0.892,0.372-1.509v-0.123c0-0.605-0.124-1.104-0.372-1.497s-0.624-0.589-1.128-0.589
		c-0.496,0-0.866,0.196-1.11,0.589s-0.366,0.892-0.366,1.497V423.105z"/>
	<path fill="#FFFFFF" d="M335.213,422.982c0-0.945,0.259-1.72,0.776-2.323s1.226-0.905,2.124-0.905c0.91,0,1.624,0.302,2.142,0.905
		s0.776,1.378,0.776,2.323v0.123c0,0.953-0.259,1.729-0.776,2.329s-1.228,0.899-2.13,0.899c-0.906,0-1.618-0.301-2.136-0.902
		s-0.776-1.377-0.776-2.326V422.982z M336.637,423.105c0,0.621,0.121,1.125,0.363,1.512s0.617,0.58,1.125,0.58
		c0.496,0,0.868-0.194,1.116-0.583s0.372-0.892,0.372-1.509v-0.123c0-0.605-0.124-1.104-0.372-1.497s-0.624-0.589-1.128-0.589
		c-0.496,0-0.866,0.196-1.11,0.589s-0.366,0.892-0.366,1.497V423.105z"/>
	<path fill="#FFFFFF" d="M343.792,426.211h-1.424v-9.141h1.424V426.211z"/>
</g>
<g id="phd2">
	<rect x="279.382" y="726.471" fill="#1A171B" width="25.833" height="13"/>
</g>
<g id="phd">
	<path fill="#FFFFFF" d="M283.234,733.912v3.234h-1.424v-8.531h3.27c0.941,0,1.679,0.244,2.212,0.73s0.8,1.125,0.8,1.918
		c0,0.801-0.267,1.443-0.8,1.926s-1.271,0.723-2.212,0.723H283.234z M283.234,732.77h1.846c0.527,0,0.924-0.141,1.189-0.422
		s0.398-0.639,0.398-1.072s-0.133-0.795-0.398-1.084s-0.662-0.434-1.189-0.434h-1.846V732.77z"/>
	<path fill="#FFFFFF" d="M290.71,731.627c0.211-0.297,0.468-0.527,0.771-0.691s0.638-0.246,1.005-0.246
		c0.672,0,1.196,0.213,1.573,0.637s0.565,1.076,0.565,1.959v3.861h-1.424v-3.873c0-0.496-0.097-0.855-0.29-1.08
		s-0.481-0.338-0.864-0.338c-0.305,0-0.568,0.055-0.791,0.162s-0.404,0.256-0.545,0.447v4.682h-1.424v-9.141h1.424V731.627z"/>
	<path fill="#FFFFFF" d="M296.248,737.146v-8.531h2.818c1.082,0,1.962,0.338,2.64,1.014s1.017,1.545,1.017,2.607v1.295
		c0,1.066-0.339,1.936-1.017,2.607s-1.558,1.008-2.64,1.008H296.248z M297.671,729.758v6.252h1.395c0.684,0,1.227-0.23,1.629-0.693
		s0.604-1.059,0.604-1.785v-1.307c0-0.719-0.201-1.309-0.604-1.771s-0.945-0.695-1.629-0.695H297.671z"/>
</g>
<g id="master2">
	<rect x="251.866" y="649.574" fill="#1A171B" width="81.002" height="13"/>
</g>
<g id="master">
	<path fill="#FFFFFF" d="M255.917,653.242l0.076,0.826c0.207-0.301,0.467-0.533,0.779-0.697s0.674-0.246,1.084-0.246
		c0.414,0,0.77,0.094,1.066,0.281s0.52,0.469,0.668,0.844c0.195-0.352,0.453-0.627,0.773-0.826s0.695-0.299,1.125-0.299
		c0.637,0,1.14,0.223,1.509,0.666s0.554,1.113,0.554,2.012v3.779h-1.424v-3.785c0-0.555-0.093-0.943-0.278-1.168
		s-0.464-0.338-0.835-0.338c-0.305,0-0.563,0.082-0.773,0.246s-0.363,0.385-0.457,0.662c0,0.059,0.002,0.109,0.006,0.152
		s0.006,0.084,0.006,0.123v4.107h-1.424v-3.785c0-0.535-0.095-0.92-0.284-1.154s-0.468-0.352-0.835-0.352
		c-0.289,0-0.534,0.057-0.735,0.168s-0.36,0.268-0.478,0.471v4.652h-1.424v-6.34H255.917z"/>
	<path fill="#FFFFFF" d="M268.873,659.582c-0.051-0.16-0.093-0.316-0.126-0.469s-0.056-0.305-0.067-0.457
		c-0.191,0.297-0.447,0.547-0.768,0.748s-0.678,0.301-1.072,0.301c-0.66,0-1.167-0.17-1.521-0.51s-0.53-0.807-0.53-1.4
		c0-0.613,0.242-1.09,0.727-1.432s1.166-0.514,2.045-0.514h1.107v-0.557c0-0.332-0.097-0.592-0.29-0.779s-0.474-0.281-0.841-0.281
		c-0.324,0-0.582,0.078-0.773,0.232s-0.287,0.354-0.287,0.6l-1.371,0.006l-0.006-0.035c-0.027-0.5,0.196-0.943,0.671-1.33
		s1.093-0.58,1.854-0.58c0.738,0,1.334,0.188,1.787,0.563s0.68,0.914,0.68,1.617v2.818c0,0.262,0.018,0.514,0.053,0.754
		s0.092,0.475,0.17,0.705H268.873z M267.132,658.563c0.355,0,0.677-0.09,0.964-0.27s0.478-0.385,0.571-0.615v-0.938h-1.131
		c-0.414,0-0.738,0.104-0.973,0.309s-0.352,0.445-0.352,0.723c0,0.242,0.079,0.436,0.237,0.578S266.835,658.563,267.132,658.563z"/>
	<path fill="#FFFFFF" d="M275.142,657.848c0-0.219-0.093-0.398-0.278-0.541s-0.536-0.271-1.052-0.385
		c-0.746-0.152-1.316-0.377-1.711-0.674s-0.592-0.695-0.592-1.195c0-0.531,0.225-0.984,0.674-1.361s1.041-0.566,1.775-0.566
		c0.758,0,1.368,0.195,1.831,0.584s0.685,0.855,0.665,1.402l-0.012,0.035h-1.365c0-0.258-0.102-0.48-0.305-0.67
		s-0.475-0.285-0.814-0.285c-0.344,0-0.605,0.078-0.785,0.234s-0.27,0.348-0.27,0.574c0,0.215,0.084,0.387,0.252,0.516
		s0.514,0.244,1.037,0.346c0.777,0.156,1.363,0.387,1.758,0.689s0.592,0.707,0.592,1.215c0,0.57-0.235,1.037-0.706,1.398
		s-1.091,0.541-1.86,0.541c-0.824,0-1.475-0.211-1.951-0.633s-0.703-0.906-0.68-1.453l0.012-0.035h1.324
		c0.016,0.367,0.148,0.635,0.398,0.803s0.555,0.252,0.914,0.252c0.363,0,0.646-0.072,0.847-0.217S275.142,658.086,275.142,657.848z"
		/>
	<path fill="#FFFFFF" d="M279.642,651.701v1.541h1.137v1.055h-1.137v3.504c0,0.262,0.057,0.449,0.17,0.561s0.264,0.166,0.451,0.166
		c0.078,0,0.154-0.006,0.229-0.02s0.145-0.033,0.211-0.057l0.152,1.043c-0.121,0.066-0.265,0.119-0.431,0.156
		s-0.339,0.055-0.519,0.055c-0.523,0-0.935-0.152-1.233-0.459s-0.448-0.789-0.448-1.445v-3.504h-0.967v-1.055h0.967v-1.541H279.642z
		"/>
	<path fill="#FFFFFF" d="M284.617,659.705c-0.926,0-1.649-0.291-2.171-0.875s-0.782-1.342-0.782-2.271v-0.234
		c0-0.93,0.261-1.695,0.782-2.299s1.194-0.904,2.019-0.9c0.852,0,1.496,0.264,1.934,0.789s0.656,1.227,0.656,2.105v0.768h-3.92
		l-0.012,0.029c0.016,0.52,0.152,0.941,0.41,1.266s0.646,0.486,1.166,0.486c0.387,0,0.722-0.047,1.005-0.141
		s0.546-0.229,0.788-0.404l0.463,0.932c-0.242,0.211-0.563,0.389-0.961,0.533S285.136,659.705,284.617,659.705z M284.464,654.268
		c-0.371,0-0.668,0.135-0.891,0.402s-0.361,0.615-0.416,1.045l0.012,0.029h2.479v-0.111c0-0.406-0.095-0.734-0.284-0.986
		S284.875,654.268,284.464,654.268z"/>
	<path fill="#FFFFFF" d="M291.367,654.525l-0.609-0.023c-0.277,0-0.509,0.059-0.694,0.176s-0.329,0.283-0.431,0.498v4.406h-1.424
		v-6.34h1.301l0.094,0.92c0.16-0.324,0.366-0.578,0.618-0.762s0.542-0.275,0.87-0.275c0.086,0,0.166,0.008,0.24,0.021
		s0.143,0.029,0.205,0.049L291.367,654.525z"/>
	<path fill="#FFFFFF" d="M295.146,656.5c0-1.012,0.217-1.826,0.65-2.445s1.043-0.93,1.828-0.93c0.344,0,0.651,0.07,0.923,0.209
		s0.507,0.336,0.706,0.594v-3.486h1.424v9.141h-1.154l-0.17-0.803c-0.203,0.301-0.449,0.531-0.738,0.689s-0.623,0.236-1.002,0.236
		c-0.777,0-1.383-0.283-1.816-0.85s-0.65-1.311-0.65-2.232V656.5z M296.57,656.623c0,0.586,0.112,1.053,0.337,1.4
		s0.581,0.521,1.069,0.521c0.301,0,0.556-0.064,0.765-0.193s0.38-0.313,0.513-0.551v-2.766c-0.133-0.234-0.305-0.416-0.516-0.547
		s-0.461-0.197-0.75-0.197c-0.484,0-0.842,0.205-1.072,0.613s-0.346,0.939-0.346,1.596V656.623z"/>
	<path fill="#FFFFFF" d="M304.896,659.705c-0.926,0-1.649-0.291-2.171-0.875s-0.782-1.342-0.782-2.271v-0.234
		c0-0.93,0.261-1.695,0.782-2.299s1.194-0.904,2.019-0.9c0.852,0,1.496,0.264,1.934,0.789s0.656,1.227,0.656,2.105v0.768h-3.92
		l-0.012,0.029c0.016,0.52,0.152,0.941,0.41,1.266s0.646,0.486,1.166,0.486c0.387,0,0.722-0.047,1.005-0.141
		s0.546-0.229,0.788-0.404l0.463,0.932c-0.242,0.211-0.563,0.389-0.961,0.533S305.416,659.705,304.896,659.705z M304.744,654.268
		c-0.371,0-0.668,0.135-0.891,0.402s-0.361,0.615-0.416,1.045l0.012,0.029h2.479v-0.111c0-0.406-0.095-0.734-0.284-0.986
		S305.154,654.268,304.744,654.268z"/>
	<path fill="#FFFFFF" d="M308.265,656.5c0-1.012,0.217-1.826,0.65-2.445s1.043-0.93,1.828-0.93c0.379,0,0.712,0.082,0.999,0.244
		s0.53,0.395,0.729,0.699l0.141-0.826h1.184v6.34c0,0.816-0.252,1.447-0.756,1.893s-1.219,0.668-2.145,0.668
		c-0.309,0-0.642-0.043-0.999-0.131s-0.681-0.205-0.97-0.35l0.229-1.119c0.242,0.121,0.513,0.217,0.812,0.285
		s0.604,0.102,0.917,0.102c0.516,0,0.893-0.109,1.131-0.33s0.357-0.561,0.357-1.018v-0.65c-0.199,0.254-0.435,0.447-0.706,0.578
		s-0.583,0.195-0.935,0.195c-0.777,0-1.383-0.283-1.816-0.85s-0.65-1.311-0.65-2.232V656.5z M309.683,656.623
		c0,0.586,0.113,1.053,0.34,1.4s0.584,0.521,1.072,0.521c0.305,0,0.562-0.063,0.771-0.189s0.378-0.311,0.507-0.549v-2.777
		c-0.133-0.23-0.304-0.41-0.513-0.541s-0.46-0.197-0.753-0.197c-0.488,0-0.848,0.205-1.078,0.613s-0.346,0.939-0.346,1.596V656.623z
		"/>
	<path fill="#FFFFFF" d="M318.443,654.525l-0.609-0.023c-0.277,0-0.509,0.059-0.694,0.176s-0.329,0.283-0.431,0.498v4.406h-1.424
		v-6.34h1.301l0.094,0.92c0.16-0.324,0.366-0.578,0.618-0.762s0.542-0.275,0.87-0.275c0.086,0,0.166,0.008,0.24,0.021
		s0.143,0.029,0.205,0.049L318.443,654.525z"/>
	<path fill="#FFFFFF" d="M322.076,659.705c-0.926,0-1.649-0.291-2.171-0.875s-0.782-1.342-0.782-2.271v-0.234
		c0-0.93,0.261-1.695,0.782-2.299s1.194-0.904,2.019-0.9c0.852,0,1.496,0.264,1.934,0.789s0.656,1.227,0.656,2.105v0.768h-3.92
		l-0.012,0.029c0.016,0.52,0.152,0.941,0.41,1.266s0.646,0.486,1.166,0.486c0.387,0,0.722-0.047,1.005-0.141
		s0.546-0.229,0.788-0.404l0.463,0.932c-0.242,0.211-0.563,0.389-0.961,0.533S322.595,659.705,322.076,659.705z M321.923,654.268
		c-0.371,0-0.668,0.135-0.891,0.402s-0.361,0.615-0.416,1.045l0.012,0.029h2.479v-0.111c0-0.406-0.095-0.734-0.284-0.986
		S322.333,654.268,321.923,654.268z"/>
	<path fill="#FFFFFF" d="M328.357,659.705c-0.926,0-1.649-0.291-2.171-0.875s-0.782-1.342-0.782-2.271v-0.234
		c0-0.93,0.261-1.695,0.782-2.299s1.194-0.904,2.019-0.9c0.852,0,1.496,0.264,1.934,0.789s0.656,1.227,0.656,2.105v0.768h-3.92
		l-0.012,0.029c0.016,0.52,0.152,0.941,0.41,1.266s0.646,0.486,1.166,0.486c0.387,0,0.722-0.047,1.005-0.141
		s0.546-0.229,0.788-0.404l0.463,0.932c-0.242,0.211-0.563,0.389-0.961,0.533S328.876,659.705,328.357,659.705z M328.205,654.268
		c-0.371,0-0.668,0.135-0.891,0.402s-0.361,0.615-0.416,1.045l0.012,0.029h2.479v-0.111c0-0.406-0.095-0.734-0.284-0.986
		S328.615,654.268,328.205,654.268z"/>
</g>
<g id="bachelor2"><rect x="242.936" y="571.77" fill="#1A171B" width="98.861" height="13"/></g>
<g id="bachelor">
	<path fill="#FFFFFF" d="M251.236,578.842c0,0.926-0.216,1.672-0.647,2.236s-1.04,0.846-1.825,0.846
		c-0.398,0-0.744-0.082-1.037-0.246s-0.537-0.402-0.732-0.715l-0.17,0.838h-1.154v-9.141h1.424v3.521
		c0.195-0.27,0.43-0.477,0.703-0.621s0.592-0.217,0.955-0.217c0.793,0,1.405,0.309,1.837,0.926s0.647,1.434,0.647,2.449V578.842z
		 M249.812,578.719c0-0.66-0.113-1.193-0.34-1.6s-0.586-0.609-1.078-0.609c-0.316,0-0.581,0.07-0.794,0.211
		s-0.382,0.336-0.507,0.586v2.66c0.121,0.254,0.289,0.451,0.504,0.59s0.484,0.207,0.809,0.207c0.492,0,0.85-0.172,1.072-0.518
		s0.334-0.814,0.334-1.404V578.719z"/>
	<path fill="#FFFFFF" d="M256.287,581.801c-0.051-0.16-0.093-0.316-0.126-0.469s-0.056-0.305-0.067-0.457
		c-0.191,0.297-0.447,0.547-0.768,0.748s-0.678,0.301-1.072,0.301c-0.66,0-1.167-0.17-1.521-0.51s-0.53-0.807-0.53-1.4
		c0-0.613,0.242-1.09,0.727-1.432s1.166-0.514,2.045-0.514h1.107v-0.557c0-0.332-0.097-0.592-0.29-0.779s-0.474-0.281-0.841-0.281
		c-0.324,0-0.582,0.078-0.773,0.232s-0.287,0.354-0.287,0.6l-1.371,0.006l-0.006-0.035c-0.027-0.5,0.196-0.943,0.671-1.33
		s1.093-0.58,1.854-0.58c0.738,0,1.334,0.188,1.787,0.563s0.68,0.914,0.68,1.617v2.818c0,0.262,0.018,0.514,0.053,0.754
		s0.092,0.475,0.17,0.705H256.287z M254.546,580.781c0.355,0,0.677-0.09,0.964-0.27s0.478-0.385,0.571-0.615v-0.938h-1.131
		c-0.414,0-0.738,0.104-0.973,0.309s-0.352,0.445-0.352,0.723c0,0.242,0.079,0.436,0.237,0.578S254.25,580.781,254.546,580.781z"/>
	<path fill="#FFFFFF" d="M261.578,580.787c0.324,0,0.599-0.102,0.823-0.305s0.337-0.461,0.337-0.773h1.289l0.012,0.035
		c0.016,0.594-0.22,1.105-0.706,1.535s-1.071,0.645-1.755,0.645c-0.914,0-1.619-0.301-2.115-0.904s-0.744-1.365-0.744-2.283v-0.205
		c0-0.914,0.248-1.674,0.744-2.279s1.199-0.908,2.109-0.908c0.738,0,1.338,0.223,1.799,0.666s0.684,1.006,0.668,1.689l-0.012,0.035
		h-1.289c0-0.348-0.107-0.643-0.322-0.885s-0.496-0.363-0.844-0.363c-0.508,0-0.873,0.197-1.096,0.59s-0.334,0.877-0.334,1.455
		v0.205c0,0.59,0.11,1.08,0.331,1.469S261.062,580.787,261.578,580.787z"/>
	<path fill="#FFFFFF" d="M266.64,576.281c0.211-0.297,0.468-0.527,0.771-0.691s0.638-0.246,1.005-0.246
		c0.672,0,1.196,0.213,1.573,0.637s0.565,1.076,0.565,1.959v3.861h-1.424v-3.873c0-0.496-0.097-0.855-0.29-1.08
		s-0.481-0.338-0.864-0.338c-0.305,0-0.568,0.055-0.791,0.162s-0.404,0.256-0.545,0.447v4.682h-1.424v-9.141h1.424V576.281z"/>
	<path fill="#FFFFFF" d="M274.72,581.924c-0.926,0-1.649-0.291-2.171-0.875s-0.782-1.342-0.782-2.271v-0.234
		c0-0.93,0.261-1.695,0.782-2.299s1.194-0.904,2.019-0.9c0.852,0,1.496,0.264,1.934,0.789s0.656,1.227,0.656,2.105v0.768h-3.92
		l-0.012,0.029c0.016,0.52,0.152,0.941,0.41,1.266s0.646,0.486,1.166,0.486c0.387,0,0.722-0.047,1.005-0.141
		s0.546-0.229,0.788-0.404l0.463,0.932c-0.242,0.211-0.563,0.389-0.961,0.533S275.24,581.924,274.72,581.924z M274.568,576.486
		c-0.371,0-0.668,0.135-0.891,0.402s-0.361,0.615-0.416,1.045l0.012,0.029h2.479v-0.111c0-0.406-0.095-0.734-0.284-0.986
		S274.978,576.486,274.568,576.486z"/>
	<path fill="#FFFFFF" d="M279.83,581.801h-1.424v-9.141h1.424V581.801z"/>
	<path fill="#FFFFFF" d="M281.16,578.572c0-0.945,0.259-1.719,0.776-2.322s1.226-0.906,2.124-0.906c0.91,0,1.624,0.303,2.142,0.906
		s0.776,1.377,0.776,2.322v0.123c0,0.953-0.259,1.73-0.776,2.33s-1.228,0.898-2.13,0.898c-0.906,0-1.618-0.301-2.136-0.902
		s-0.776-1.377-0.776-2.326V578.572z M282.583,578.695c0,0.621,0.121,1.125,0.363,1.512s0.617,0.58,1.125,0.58
		c0.496,0,0.868-0.193,1.116-0.582s0.372-0.893,0.372-1.51v-0.123c0-0.605-0.124-1.104-0.372-1.496s-0.624-0.59-1.128-0.59
		c-0.496,0-0.866,0.197-1.11,0.59s-0.366,0.891-0.366,1.496V578.695z"/>
	<path fill="#FFFFFF" d="M291.378,576.744l-0.609-0.023c-0.277,0-0.509,0.059-0.694,0.176s-0.329,0.283-0.431,0.498v4.406h-1.424
		v-6.34h1.301l0.094,0.92c0.16-0.324,0.366-0.578,0.618-0.762s0.542-0.275,0.87-0.275c0.086,0,0.166,0.008,0.24,0.021
		s0.143,0.029,0.205,0.049L291.378,576.744z"/>
	<path fill="#FFFFFF" d="M294.009,574.611l-0.598,1.846h-0.697v-3.188h1.295V574.611z"/>
	<path fill="#FFFFFF" d="M298.691,580.066c0-0.219-0.093-0.398-0.278-0.541s-0.536-0.271-1.052-0.385
		c-0.746-0.152-1.316-0.377-1.711-0.674s-0.592-0.695-0.592-1.195c0-0.531,0.225-0.984,0.674-1.361s1.041-0.566,1.775-0.566
		c0.758,0,1.368,0.195,1.831,0.584s0.685,0.855,0.665,1.402l-0.012,0.035h-1.365c0-0.258-0.102-0.48-0.305-0.67
		s-0.475-0.285-0.814-0.285c-0.344,0-0.605,0.078-0.785,0.234s-0.27,0.348-0.27,0.574c0,0.215,0.084,0.387,0.252,0.516
		s0.514,0.244,1.037,0.346c0.777,0.156,1.363,0.387,1.758,0.689s0.592,0.707,0.592,1.215c0,0.57-0.235,1.037-0.706,1.398
		s-1.091,0.541-1.86,0.541c-0.824,0-1.475-0.211-1.951-0.633s-0.703-0.906-0.68-1.453l0.012-0.035h1.324
		c0.016,0.367,0.148,0.635,0.398,0.803s0.555,0.252,0.914,0.252c0.363,0,0.646-0.072,0.847-0.217S298.691,580.305,298.691,580.066z"
		/>
	<path fill="#FFFFFF" d="M304.093,578.719c0-1.012,0.217-1.826,0.65-2.445s1.043-0.93,1.828-0.93c0.344,0,0.651,0.07,0.923,0.209
		s0.507,0.336,0.706,0.594v-3.486h1.424v9.141h-1.154l-0.17-0.803c-0.203,0.301-0.449,0.531-0.738,0.689s-0.623,0.236-1.002,0.236
		c-0.777,0-1.383-0.283-1.816-0.85s-0.65-1.311-0.65-2.232V578.719z M305.517,578.842c0,0.586,0.112,1.053,0.337,1.4
		s0.581,0.521,1.069,0.521c0.301,0,0.556-0.064,0.765-0.193s0.38-0.313,0.513-0.551v-2.766c-0.133-0.234-0.305-0.416-0.516-0.547
		s-0.461-0.197-0.75-0.197c-0.484,0-0.842,0.205-1.072,0.613s-0.346,0.939-0.346,1.596V578.842z"/>
	<path fill="#FFFFFF" d="M313.843,581.924c-0.926,0-1.649-0.291-2.171-0.875s-0.782-1.342-0.782-2.271v-0.234
		c0-0.93,0.261-1.695,0.782-2.299s1.194-0.904,2.019-0.9c0.852,0,1.496,0.264,1.934,0.789s0.656,1.227,0.656,2.105v0.768h-3.92
		l-0.012,0.029c0.016,0.52,0.152,0.941,0.41,1.266s0.646,0.486,1.166,0.486c0.387,0,0.722-0.047,1.005-0.141
		s0.546-0.229,0.788-0.404l0.463,0.932c-0.242,0.211-0.563,0.389-0.961,0.533S314.363,581.924,313.843,581.924z M313.691,576.486
		c-0.371,0-0.668,0.135-0.891,0.402s-0.361,0.615-0.416,1.045l0.012,0.029h2.479v-0.111c0-0.406-0.095-0.734-0.284-0.986
		S314.101,576.486,313.691,576.486z"/>
	<path fill="#FFFFFF" d="M317.212,578.719c0-1.012,0.217-1.826,0.65-2.445s1.043-0.93,1.828-0.93c0.379,0,0.712,0.082,0.999,0.244
		s0.53,0.395,0.729,0.699l0.141-0.826h1.184v6.34c0,0.816-0.252,1.447-0.756,1.893s-1.219,0.668-2.145,0.668
		c-0.309,0-0.642-0.043-0.999-0.131s-0.681-0.205-0.97-0.35l0.229-1.119c0.242,0.121,0.513,0.217,0.812,0.285
		s0.604,0.102,0.917,0.102c0.516,0,0.893-0.109,1.131-0.33s0.357-0.561,0.357-1.018v-0.65c-0.199,0.254-0.435,0.447-0.706,0.578
		s-0.583,0.195-0.935,0.195c-0.777,0-1.383-0.283-1.816-0.85s-0.65-1.311-0.65-2.232V578.719z M318.63,578.842
		c0,0.586,0.113,1.053,0.34,1.4s0.584,0.521,1.072,0.521c0.305,0,0.562-0.063,0.771-0.189s0.378-0.311,0.507-0.549v-2.777
		c-0.133-0.23-0.304-0.41-0.513-0.541s-0.46-0.197-0.753-0.197c-0.488,0-0.848,0.205-1.078,0.613s-0.346,0.939-0.346,1.596V578.842z
		"/>
	<path fill="#FFFFFF" d="M327.39,576.744l-0.609-0.023c-0.277,0-0.509,0.059-0.694,0.176s-0.329,0.283-0.431,0.498v4.406h-1.424
		v-6.34h1.301l0.094,0.92c0.16-0.324,0.366-0.578,0.618-0.762s0.542-0.275,0.87-0.275c0.086,0,0.166,0.008,0.24,0.021
		s0.143,0.029,0.205,0.049L327.39,576.744z"/>
	<path fill="#FFFFFF" d="M331.023,581.924c-0.926,0-1.649-0.291-2.171-0.875s-0.782-1.342-0.782-2.271v-0.234
		c0-0.93,0.261-1.695,0.782-2.299s1.194-0.904,2.019-0.9c0.852,0,1.496,0.264,1.934,0.789s0.656,1.227,0.656,2.105v0.768h-3.92
		l-0.012,0.029c0.016,0.52,0.152,0.941,0.41,1.266s0.646,0.486,1.166,0.486c0.387,0,0.722-0.047,1.005-0.141
		s0.546-0.229,0.788-0.404l0.463,0.932c-0.242,0.211-0.563,0.389-0.961,0.533S331.542,581.924,331.023,581.924z M330.871,576.486
		c-0.371,0-0.668,0.135-0.891,0.402s-0.361,0.615-0.416,1.045l0.012,0.029h2.479v-0.111c0-0.406-0.095-0.734-0.284-0.986
		S331.281,576.486,330.871,576.486z"/>
	<path fill="#FFFFFF" d="M337.304,581.924c-0.926,0-1.649-0.291-2.171-0.875s-0.782-1.342-0.782-2.271v-0.234
		c0-0.93,0.261-1.695,0.782-2.299s1.194-0.904,2.019-0.9c0.852,0,1.496,0.264,1.934,0.789s0.656,1.227,0.656,2.105v0.768h-3.92
		l-0.012,0.029c0.016,0.52,0.152,0.941,0.41,1.266s0.646,0.486,1.166,0.486c0.387,0,0.722-0.047,1.005-0.141
		s0.546-0.229,0.788-0.404l0.463,0.932c-0.242,0.211-0.563,0.389-0.961,0.533S337.824,581.924,337.304,581.924z M337.152,576.486
		c-0.371,0-0.668,0.135-0.891,0.402s-0.361,0.615-0.416,1.045l0.012,0.029h2.479v-0.111c0-0.406-0.095-0.734-0.284-0.986
		S337.562,576.486,337.152,576.486z"/>
</g>
<g id="illiterate2"><rect x="268.624" y="104.555" fill="#1A171B" width="46.932" height="13"/></g>
<g id="illiterate">
	<path fill="#FFFFFF" d="M272.542,107.454h-1.424v-1.248h1.424V107.454z M272.542,115.346h-1.424v-6.34h1.424V115.346z"/>
	<path fill="#FFFFFF" d="M275.653,115.346h-1.424v-9.141h1.424V115.346z"/>
	<path fill="#FFFFFF" d="M278.764,115.346h-1.424v-9.141h1.424V115.346z"/>
	<path fill="#FFFFFF" d="M281.875,107.454h-1.424v-1.248h1.424V107.454z M281.875,115.346h-1.424v-6.34h1.424V115.346z"/>
	<path fill="#FFFFFF" d="M285.292,107.465v1.541h1.137v1.055h-1.137v3.504c0,0.262,0.057,0.448,0.17,0.56s0.264,0.167,0.451,0.167
		c0.078,0,0.154-0.007,0.229-0.021s0.145-0.032,0.211-0.056l0.152,1.043c-0.121,0.066-0.265,0.118-0.431,0.155
		s-0.339,0.056-0.519,0.056c-0.523,0-0.935-0.153-1.233-0.46s-0.448-0.788-0.448-1.444v-3.504h-0.967v-1.055h0.967v-1.541H285.292z"
		/>
	<path fill="#FFFFFF" d="M290.266,115.469c-0.926,0-1.649-0.292-2.171-0.876s-0.782-1.341-0.782-2.271v-0.234
		c0-0.93,0.261-1.696,0.782-2.3s1.194-0.903,2.019-0.899c0.852,0,1.496,0.263,1.934,0.788s0.656,1.228,0.656,2.106v0.768h-3.92
		l-0.012,0.029c0.016,0.52,0.152,0.941,0.41,1.266s0.646,0.486,1.166,0.486c0.387,0,0.722-0.047,1.005-0.141
		s0.546-0.229,0.788-0.404l0.463,0.932c-0.242,0.211-0.563,0.389-0.961,0.533S290.786,115.469,290.266,115.469z M290.114,110.032
		c-0.371,0-0.668,0.134-0.891,0.401s-0.361,0.616-0.416,1.046l0.012,0.029h2.479v-0.111c0-0.406-0.095-0.735-0.284-0.987
		S290.524,110.032,290.114,110.032z"/>
	<path fill="#FFFFFF" d="M297.016,110.29l-0.609-0.023c-0.277,0-0.509,0.059-0.694,0.176s-0.329,0.283-0.431,0.498v4.406h-1.424
		v-6.34h1.301l0.094,0.92c0.16-0.324,0.366-0.578,0.618-0.762s0.542-0.275,0.87-0.275c0.086,0,0.166,0.007,0.24,0.021
		s0.143,0.03,0.205,0.05L297.016,110.29z"/>
	<path fill="#FFFFFF" d="M301.891,115.346c-0.051-0.16-0.093-0.316-0.126-0.469s-0.056-0.305-0.067-0.457
		c-0.191,0.297-0.447,0.546-0.768,0.747s-0.678,0.302-1.072,0.302c-0.66,0-1.167-0.17-1.521-0.51s-0.53-0.807-0.53-1.4
		c0-0.613,0.242-1.091,0.727-1.433s1.166-0.513,2.045-0.513h1.107v-0.557c0-0.332-0.097-0.592-0.29-0.779s-0.474-0.281-0.841-0.281
		c-0.324,0-0.582,0.077-0.773,0.231s-0.287,0.354-0.287,0.601l-1.371,0.006l-0.006-0.035c-0.027-0.5,0.196-0.943,0.671-1.33
		s1.093-0.58,1.854-0.58c0.738,0,1.334,0.188,1.787,0.563s0.68,0.914,0.68,1.617v2.818c0,0.262,0.018,0.513,0.053,0.753
		s0.092,0.476,0.17,0.706H301.891z M300.151,114.327c0.355,0,0.677-0.09,0.964-0.27s0.478-0.385,0.571-0.615v-0.938h-1.131
		c-0.414,0-0.738,0.103-0.973,0.308s-0.352,0.446-0.352,0.724c0,0.242,0.079,0.435,0.237,0.577S299.854,114.327,300.151,114.327z"/>
	<path fill="#FFFFFF" d="M306.42,107.465v1.541h1.137v1.055h-1.137v3.504c0,0.262,0.057,0.448,0.17,0.56s0.264,0.167,0.451,0.167
		c0.078,0,0.154-0.007,0.229-0.021s0.145-0.032,0.211-0.056l0.152,1.043c-0.121,0.066-0.265,0.118-0.431,0.155
		s-0.339,0.056-0.519,0.056c-0.523,0-0.935-0.153-1.233-0.46s-0.448-0.788-0.448-1.444v-3.504h-0.967v-1.055h0.967v-1.541H306.42z"
		/>
	<path fill="#FFFFFF" d="M311.395,115.469c-0.926,0-1.649-0.292-2.171-0.876s-0.782-1.341-0.782-2.271v-0.234
		c0-0.93,0.261-1.696,0.782-2.3s1.194-0.903,2.019-0.899c0.852,0,1.496,0.263,1.934,0.788s0.656,1.228,0.656,2.106v0.768h-3.92
		l-0.012,0.029c0.016,0.52,0.152,0.941,0.41,1.266s0.646,0.486,1.166,0.486c0.387,0,0.722-0.047,1.005-0.141
		s0.546-0.229,0.788-0.404l0.463,0.932c-0.242,0.211-0.563,0.389-0.961,0.533S311.915,115.469,311.395,115.469z M311.243,110.032
		c-0.371,0-0.668,0.134-0.891,0.401s-0.361,0.616-0.416,1.046l0.012,0.029h2.479v-0.111c0-0.406-0.095-0.735-0.284-0.987
		S311.653,110.032,311.243,110.032z"/>
</g>
<g id="canwrite2"><rect x="265.875" y="182.091" fill="#1A171B" width="52.846" height="13"/></g>
<g id="canwrite">
	<path fill="#FFFFFF" d="M271.183,191.173c0.324,0,0.599-0.102,0.823-0.305s0.337-0.461,0.337-0.773h1.289l0.012,0.035
		c0.016,0.594-0.22,1.105-0.706,1.535s-1.071,0.645-1.755,0.645c-0.914,0-1.619-0.302-2.115-0.905s-0.744-1.364-0.744-2.282v-0.205
		c0-0.914,0.248-1.674,0.744-2.279s1.199-0.908,2.109-0.908c0.738,0,1.338,0.222,1.799,0.665s0.684,1.007,0.668,1.69l-0.012,0.035
		h-1.289c0-0.348-0.107-0.643-0.322-0.885s-0.496-0.363-0.844-0.363c-0.508,0-0.873,0.196-1.096,0.589s-0.334,0.878-0.334,1.456
		v0.205c0,0.59,0.11,1.079,0.331,1.468S270.667,191.173,271.183,191.173z"/>
	<path fill="#FFFFFF" d="M278.66,192.187c-0.051-0.16-0.093-0.316-0.126-0.469s-0.056-0.305-0.067-0.457
		c-0.191,0.297-0.447,0.546-0.768,0.747s-0.678,0.302-1.072,0.302c-0.66,0-1.167-0.17-1.521-0.51s-0.53-0.807-0.53-1.4
		c0-0.613,0.242-1.091,0.727-1.433s1.166-0.513,2.045-0.513h1.107v-0.557c0-0.332-0.097-0.592-0.29-0.779s-0.474-0.281-0.841-0.281
		c-0.324,0-0.582,0.077-0.773,0.231s-0.287,0.354-0.287,0.601l-1.371,0.006l-0.006-0.035c-0.027-0.5,0.196-0.943,0.671-1.33
		s1.093-0.58,1.854-0.58c0.738,0,1.334,0.188,1.787,0.563s0.68,0.914,0.68,1.617v2.818c0,0.262,0.018,0.513,0.053,0.753
		s0.092,0.476,0.17,0.706H278.66z M276.919,191.167c0.355,0,0.677-0.09,0.964-0.27s0.478-0.385,0.571-0.615v-0.938h-1.131
		c-0.414,0-0.738,0.103-0.973,0.308S276,190.099,276,190.376c0,0.242,0.079,0.435,0.237,0.577S276.623,191.167,276.919,191.167z"/>
	<path fill="#FFFFFF" d="M282.656,185.847l0.082,0.914c0.207-0.324,0.468-0.577,0.782-0.759s0.669-0.272,1.063-0.272
		c0.66,0,1.175,0.203,1.544,0.609s0.554,1.041,0.554,1.904v3.943h-1.424v-3.932c0-0.492-0.096-0.842-0.287-1.049
		s-0.48-0.311-0.867-0.311c-0.305,0-0.568,0.058-0.791,0.173s-0.4,0.274-0.533,0.478v4.641h-1.424v-6.34H282.656z"/>
	<path fill="#FFFFFF" d="M296.736,190.306h0.035l0.926-4.459h1.424l-1.734,6.34h-1.166l-1.342-4.195h-0.035l-1.324,4.195h-1.166
		l-1.734-6.34h1.424l0.949,4.4h0.035l1.324-4.4h1.037L296.736,190.306z"/>
	<path fill="#FFFFFF" d="M303.275,187.13l-0.609-0.023c-0.277,0-0.509,0.059-0.694,0.176s-0.329,0.283-0.431,0.498v4.406h-1.424
		v-6.34h1.301l0.094,0.92c0.16-0.324,0.366-0.578,0.618-0.762s0.542-0.275,0.87-0.275c0.086,0,0.166,0.007,0.24,0.021
		s0.143,0.03,0.205,0.05L303.275,187.13z"/>
	<path fill="#FFFFFF" d="M305.847,184.294h-1.424v-1.248h1.424V184.294z M305.847,192.187h-1.424v-6.34h1.424V192.187z"/>
	<path fill="#FFFFFF" d="M309.263,184.306v1.541h1.137v1.055h-1.137v3.504c0,0.262,0.057,0.448,0.17,0.56s0.264,0.167,0.451,0.167
		c0.078,0,0.154-0.007,0.229-0.021s0.145-0.032,0.211-0.056l0.152,1.043c-0.121,0.066-0.265,0.118-0.431,0.155
		s-0.339,0.056-0.519,0.056c-0.523,0-0.935-0.153-1.233-0.46s-0.448-0.788-0.448-1.444v-3.504h-0.967v-1.055h0.967v-1.541H309.263z"
		/>
	<path fill="#FFFFFF" d="M314.238,192.31c-0.926,0-1.649-0.292-2.171-0.876s-0.782-1.341-0.782-2.271v-0.234
		c0-0.93,0.261-1.696,0.782-2.3s1.194-0.903,2.019-0.899c0.852,0,1.496,0.263,1.934,0.788s0.656,1.228,0.656,2.106v0.768h-3.92
		l-0.012,0.029c0.016,0.52,0.152,0.941,0.41,1.266s0.646,0.486,1.166,0.486c0.387,0,0.722-0.047,1.005-0.141
		s0.546-0.229,0.788-0.404l0.463,0.932c-0.242,0.211-0.563,0.389-0.961,0.533S314.757,192.31,314.238,192.31z M314.085,186.873
		c-0.371,0-0.668,0.134-0.891,0.401s-0.361,0.616-0.416,1.046l0.012,0.029h2.479v-0.111c0-0.406-0.095-0.735-0.284-0.987
		S314.496,186.873,314.085,186.873z"/>
</g>
<g id="primaryschool2"><rect x="250.292" y="260.546" fill="#1A171B" width="83.594" height="13"/></g>
<g id="primaryschool">
	<path fill="#FFFFFF" d="M258.393,267.475c0,0.922-0.217,1.666-0.65,2.232s-1.037,0.85-1.811,0.85c-0.359,0-0.678-0.064-0.955-0.193
		s-0.516-0.318-0.715-0.568v3.076h-1.424v-8.777h1.201l0.141,0.797c0.203-0.297,0.448-0.523,0.735-0.68s0.62-0.234,0.999-0.234
		c0.781,0,1.39,0.31,1.825,0.929s0.653,1.435,0.653,2.446V267.475z M256.975,267.352c0-0.648-0.122-1.179-0.366-1.591
		s-0.608-0.618-1.093-0.618c-0.297,0-0.549,0.063-0.756,0.19s-0.373,0.304-0.498,0.53v2.865c0.125,0.223,0.291,0.394,0.498,0.513
		s0.463,0.179,0.768,0.179c0.484,0,0.847-0.179,1.087-0.536s0.36-0.827,0.36-1.409V267.352z"/>
	<path fill="#FFFFFF" d="M262.793,265.377l-0.609-0.023c-0.277,0-0.509,0.059-0.694,0.176s-0.329,0.283-0.431,0.498v4.406h-1.424
		v-6.34h1.301l0.094,0.92c0.16-0.324,0.366-0.578,0.618-0.762s0.542-0.275,0.87-0.275c0.086,0,0.166,0.007,0.24,0.021
		s0.143,0.03,0.205,0.05L262.793,265.377z"/>
	<path fill="#FFFFFF" d="M265.366,262.541h-1.424v-1.248h1.424V262.541z M265.366,270.434h-1.424v-6.34h1.424V270.434z"/>
	<path fill="#FFFFFF" d="M268.26,264.094l0.076,0.826c0.207-0.301,0.467-0.533,0.779-0.697s0.674-0.246,1.084-0.246
		c0.414,0,0.77,0.094,1.066,0.281s0.52,0.469,0.668,0.844c0.195-0.352,0.453-0.627,0.773-0.826s0.695-0.299,1.125-0.299
		c0.637,0,1.14,0.222,1.509,0.665s0.554,1.114,0.554,2.013v3.779h-1.424v-3.785c0-0.555-0.093-0.944-0.278-1.169
		s-0.464-0.337-0.835-0.337c-0.305,0-0.563,0.082-0.773,0.246s-0.363,0.385-0.457,0.662c0,0.059,0.002,0.109,0.006,0.152
		s0.006,0.084,0.006,0.123v4.107h-1.424v-3.785c0-0.535-0.095-0.92-0.284-1.154s-0.468-0.352-0.835-0.352
		c-0.289,0-0.534,0.056-0.735,0.167s-0.36,0.269-0.478,0.472v4.652h-1.424v-6.34H268.26z"/>
	<path fill="#FFFFFF" d="M281.215,270.434c-0.051-0.16-0.093-0.316-0.126-0.469s-0.056-0.305-0.067-0.457
		c-0.191,0.297-0.447,0.546-0.768,0.747s-0.678,0.302-1.072,0.302c-0.66,0-1.167-0.17-1.521-0.51s-0.53-0.807-0.53-1.4
		c0-0.613,0.242-1.091,0.727-1.433s1.166-0.513,2.045-0.513h1.107v-0.557c0-0.332-0.097-0.592-0.29-0.779s-0.474-0.281-0.841-0.281
		c-0.324,0-0.582,0.077-0.773,0.231s-0.287,0.354-0.287,0.601l-1.371,0.006l-0.006-0.035c-0.027-0.5,0.196-0.943,0.671-1.33
		s1.093-0.58,1.854-0.58c0.738,0,1.334,0.188,1.787,0.563s0.68,0.914,0.68,1.617v2.818c0,0.262,0.018,0.513,0.053,0.753
		s0.092,0.476,0.17,0.706H281.215z M279.475,269.414c0.355,0,0.677-0.09,0.964-0.27s0.478-0.385,0.571-0.615v-0.938h-1.131
		c-0.414,0-0.738,0.103-0.973,0.308s-0.352,0.446-0.352,0.724c0,0.242,0.079,0.435,0.237,0.577S279.178,269.414,279.475,269.414z"/>
	<path fill="#FFFFFF" d="M287.081,265.377l-0.609-0.023c-0.277,0-0.509,0.059-0.694,0.176s-0.329,0.283-0.431,0.498v4.406h-1.424
		v-6.34h1.301l0.094,0.92c0.16-0.324,0.366-0.578,0.618-0.762s0.542-0.275,0.87-0.275c0.086,0,0.166,0.007,0.24,0.021
		s0.143,0.03,0.205,0.05L287.081,265.377z"/>
	<path fill="#FFFFFF" d="M290.344,267.891l0.141,0.633h0.035l1.389-4.43h1.559l-2.625,7.301c-0.168,0.441-0.404,0.818-0.709,1.131
		s-0.736,0.469-1.295,0.469c-0.117,0-0.243-0.012-0.378-0.035s-0.265-0.051-0.39-0.082l0.158-1.102
		c0.051,0.004,0.123,0.01,0.217,0.018s0.164,0.012,0.211,0.012c0.258,0,0.464-0.088,0.618-0.264s0.28-0.379,0.378-0.609l0.234-0.574
		l-2.303-6.264h1.553L290.344,267.891z"/>
	<path fill="#FFFFFF" d="M300.874,268.699c0-0.219-0.093-0.399-0.278-0.542s-0.536-0.271-1.052-0.384
		c-0.746-0.152-1.316-0.377-1.711-0.674s-0.592-0.695-0.592-1.195c0-0.531,0.225-0.985,0.674-1.362s1.041-0.565,1.775-0.565
		c0.758,0,1.368,0.194,1.831,0.583s0.685,0.856,0.665,1.403l-0.012,0.035h-1.365c0-0.258-0.102-0.481-0.305-0.671
		s-0.475-0.284-0.814-0.284c-0.344,0-0.605,0.078-0.785,0.234s-0.27,0.348-0.27,0.574c0,0.215,0.084,0.387,0.252,0.516
		s0.514,0.244,1.037,0.346c0.777,0.156,1.363,0.386,1.758,0.688s0.592,0.708,0.592,1.216c0,0.57-0.235,1.036-0.706,1.397
		s-1.091,0.542-1.86,0.542c-0.824,0-1.475-0.211-1.951-0.633s-0.703-0.906-0.68-1.453l0.012-0.035h1.324
		c0.016,0.367,0.148,0.635,0.398,0.803s0.555,0.252,0.914,0.252c0.363,0,0.646-0.072,0.847-0.217S300.874,268.938,300.874,268.699z"
		/>
	<path fill="#FFFFFF" d="M306.135,269.42c0.324,0,0.599-0.102,0.823-0.305s0.337-0.461,0.337-0.773h1.289l0.012,0.035
		c0.016,0.594-0.22,1.105-0.706,1.535s-1.071,0.645-1.755,0.645c-0.914,0-1.619-0.302-2.115-0.905s-0.744-1.364-0.744-2.282v-0.205
		c0-0.914,0.248-1.674,0.744-2.279s1.199-0.908,2.109-0.908c0.738,0,1.338,0.222,1.799,0.665s0.684,1.007,0.668,1.69l-0.012,0.035
		h-1.289c0-0.348-0.107-0.643-0.322-0.885s-0.496-0.363-0.844-0.363c-0.508,0-0.873,0.196-1.096,0.589s-0.334,0.878-0.334,1.456
		v0.205c0,0.59,0.11,1.079,0.331,1.468S305.62,269.42,306.135,269.42z"/>
	<path fill="#FFFFFF" d="M311.198,264.914c0.211-0.297,0.468-0.527,0.771-0.691s0.638-0.246,1.005-0.246
		c0.672,0,1.196,0.212,1.573,0.636s0.565,1.077,0.565,1.96v3.861h-1.424v-3.873c0-0.496-0.097-0.856-0.29-1.081
		s-0.481-0.337-0.864-0.337c-0.305,0-0.568,0.054-0.791,0.161s-0.404,0.257-0.545,0.448v4.682h-1.424v-9.141h1.424V264.914z"/>
	<path fill="#FFFFFF" d="M316.325,267.205c0-0.945,0.259-1.72,0.776-2.323s1.226-0.905,2.124-0.905c0.91,0,1.624,0.302,2.142,0.905
		s0.776,1.378,0.776,2.323v0.123c0,0.953-0.259,1.729-0.776,2.329s-1.228,0.899-2.13,0.899c-0.906,0-1.618-0.301-2.136-0.902
		s-0.776-1.377-0.776-2.326V267.205z M317.749,267.328c0,0.621,0.121,1.125,0.363,1.512s0.617,0.58,1.125,0.58
		c0.496,0,0.868-0.194,1.116-0.583s0.372-0.892,0.372-1.509v-0.123c0-0.605-0.124-1.104-0.372-1.497s-0.624-0.589-1.128-0.589
		c-0.496,0-0.866,0.196-1.11,0.589s-0.366,0.892-0.366,1.497V267.328z"/>
	<path fill="#FFFFFF" d="M323.122,267.205c0-0.945,0.259-1.72,0.776-2.323s1.226-0.905,2.124-0.905c0.91,0,1.624,0.302,2.142,0.905
		s0.776,1.378,0.776,2.323v0.123c0,0.953-0.259,1.729-0.776,2.329s-1.228,0.899-2.13,0.899c-0.906,0-1.618-0.301-2.136-0.902
		s-0.776-1.377-0.776-2.326V267.205z M324.545,267.328c0,0.621,0.121,1.125,0.363,1.512s0.617,0.58,1.125,0.58
		c0.496,0,0.868-0.194,1.116-0.583s0.372-0.892,0.372-1.509v-0.123c0-0.605-0.124-1.104-0.372-1.497s-0.624-0.589-1.128-0.589
		c-0.496,0-0.866,0.196-1.11,0.589s-0.366,0.892-0.366,1.497V267.328z"/>
	<path fill="#FFFFFF" d="M331.7,270.434h-1.424v-9.141h1.424V270.434z"/>
</g>
<g id="fyears2">
	<rect x="239.178" y="493.965" fill="#1A171B" width="106.377" height="13"/>
</g>
<g id="fyears">
	<path fill="#FFFFFF" d="M241.024,500.243l0.492-4.758h4.5v1.23H242.7l-0.258,2.174c0.168-0.121,0.368-0.223,0.601-0.305
		s0.489-0.125,0.771-0.129c0.793-0.008,1.41,0.24,1.852,0.744s0.662,1.201,0.662,2.092c0,0.844-0.232,1.529-0.697,2.057
		s-1.16,0.791-2.086,0.791c-0.75,0-1.384-0.202-1.901-0.606s-0.767-0.981-0.747-1.731l0.012-0.029l1.336-0.041
		c0,0.398,0.12,0.71,0.36,0.935s0.554,0.337,0.94,0.337c0.445,0,0.783-0.15,1.014-0.451s0.346-0.717,0.346-1.248
		c0-0.512-0.119-0.923-0.357-1.233s-0.578-0.466-1.02-0.466c-0.391,0-0.681,0.063-0.87,0.188s-0.327,0.309-0.413,0.551
		L241.024,500.243z"/>
	<path fill="#FFFFFF" d="M252.76,501.474l0.141,0.633h0.035l1.389-4.43h1.559l-2.625,7.301c-0.168,0.441-0.404,0.818-0.709,1.131
		s-0.736,0.469-1.295,0.469c-0.117,0-0.243-0.012-0.378-0.035s-0.265-0.051-0.39-0.082l0.158-1.102
		c0.051,0.004,0.123,0.01,0.217,0.018s0.164,0.012,0.211,0.012c0.258,0,0.464-0.088,0.618-0.264s0.28-0.379,0.378-0.609l0.234-0.574
		L250,497.677h1.553L252.76,501.474z"/>
	<path fill="#FFFFFF" d="M259.352,504.14c-0.926,0-1.649-0.292-2.171-0.876s-0.782-1.341-0.782-2.271v-0.234
		c0-0.93,0.261-1.696,0.782-2.3s1.194-0.903,2.019-0.899c0.852,0,1.496,0.263,1.934,0.788s0.656,1.228,0.656,2.106v0.768h-3.92
		l-0.012,0.029c0.016,0.52,0.152,0.941,0.41,1.266s0.646,0.486,1.166,0.486c0.387,0,0.722-0.047,1.005-0.141
		s0.546-0.229,0.788-0.404l0.463,0.932c-0.242,0.211-0.563,0.389-0.961,0.533S259.872,504.14,259.352,504.14z M259.2,498.702
		c-0.371,0-0.668,0.134-0.891,0.401s-0.361,0.616-0.416,1.046l0.012,0.029h2.479v-0.111c0-0.406-0.095-0.735-0.284-0.987
		S259.61,498.702,259.2,498.702z"/>
	<path fill="#FFFFFF" d="M266.764,504.017c-0.051-0.16-0.093-0.316-0.126-0.469s-0.056-0.305-0.067-0.457
		c-0.191,0.297-0.447,0.546-0.768,0.747s-0.678,0.302-1.072,0.302c-0.66,0-1.167-0.17-1.521-0.51s-0.53-0.807-0.53-1.4
		c0-0.613,0.242-1.091,0.727-1.433s1.166-0.513,2.045-0.513h1.107v-0.557c0-0.332-0.097-0.592-0.29-0.779s-0.474-0.281-0.841-0.281
		c-0.324,0-0.582,0.077-0.773,0.231s-0.287,0.354-0.287,0.601l-1.371,0.006l-0.006-0.035c-0.027-0.5,0.196-0.943,0.671-1.33
		s1.093-0.58,1.854-0.58c0.738,0,1.334,0.188,1.787,0.563s0.68,0.914,0.68,1.617v2.818c0,0.262,0.018,0.513,0.053,0.753
		s0.092,0.476,0.17,0.706H266.764z M265.024,502.997c0.355,0,0.677-0.09,0.964-0.27s0.478-0.385,0.571-0.615v-0.938h-1.131
		c-0.414,0-0.738,0.103-0.973,0.308s-0.352,0.446-0.352,0.724c0,0.242,0.079,0.435,0.237,0.577S264.727,502.997,265.024,502.997z"/>
	<path fill="#FFFFFF" d="M272.629,498.96l-0.609-0.023c-0.277,0-0.509,0.059-0.694,0.176s-0.329,0.283-0.431,0.498v4.406h-1.424
		v-6.34h1.301l0.094,0.92c0.16-0.324,0.366-0.578,0.618-0.762s0.542-0.275,0.87-0.275c0.086,0,0.166,0.007,0.24,0.021
		s0.143,0.03,0.205,0.05L272.629,498.96z"/>
	<path fill="#FFFFFF" d="M277.247,502.282c0-0.219-0.093-0.399-0.278-0.542s-0.536-0.271-1.052-0.384
		c-0.746-0.152-1.316-0.377-1.711-0.674s-0.592-0.695-0.592-1.195c0-0.531,0.225-0.985,0.674-1.362s1.041-0.565,1.775-0.565
		c0.758,0,1.368,0.194,1.831,0.583s0.685,0.856,0.665,1.403l-0.012,0.035h-1.365c0-0.258-0.102-0.481-0.305-0.671
		s-0.475-0.284-0.814-0.284c-0.344,0-0.605,0.078-0.785,0.234s-0.27,0.348-0.27,0.574c0,0.215,0.084,0.387,0.252,0.516
		s0.514,0.244,1.037,0.346c0.777,0.156,1.363,0.386,1.758,0.688s0.592,0.708,0.592,1.216c0,0.57-0.235,1.036-0.706,1.397
		s-1.091,0.542-1.86,0.542c-0.824,0-1.475-0.211-1.951-0.633s-0.703-0.906-0.68-1.453l0.012-0.035h1.324
		c0.016,0.367,0.148,0.635,0.398,0.803s0.555,0.252,0.914,0.252c0.363,0,0.646-0.072,0.847-0.217S277.247,502.521,277.247,502.282z"
		/>
	<path fill="#FFFFFF" d="M284.319,498.497c0.211-0.297,0.468-0.527,0.771-0.691s0.638-0.246,1.005-0.246
		c0.672,0,1.196,0.212,1.573,0.636s0.565,1.077,0.565,1.96v3.861h-1.424v-3.873c0-0.496-0.097-0.856-0.29-1.081
		s-0.481-0.337-0.864-0.337c-0.305,0-0.568,0.054-0.791,0.161s-0.404,0.257-0.545,0.448v4.682h-1.424v-9.141h1.424V498.497z"/>
	<path fill="#FFFFFF" d="M291.227,496.124h-1.424v-1.248h1.424V496.124z M291.227,504.017h-1.424v-6.34h1.424V504.017z"/>
	<path fill="#FFFFFF" d="M292.598,500.935c0-1.012,0.217-1.827,0.65-2.446s1.043-0.929,1.828-0.929c0.379,0,0.712,0.081,0.999,0.243
		s0.53,0.396,0.729,0.7l0.141-0.826h1.184v6.34c0,0.816-0.252,1.447-0.756,1.893s-1.219,0.668-2.145,0.668
		c-0.309,0-0.642-0.044-0.999-0.132s-0.681-0.204-0.97-0.349l0.229-1.119c0.242,0.121,0.513,0.216,0.812,0.284
		s0.604,0.103,0.917,0.103c0.516,0,0.893-0.11,1.131-0.331s0.357-0.56,0.357-1.017v-0.65c-0.199,0.254-0.435,0.446-0.706,0.577
		s-0.583,0.196-0.935,0.196c-0.777,0-1.383-0.283-1.816-0.85s-0.65-1.311-0.65-2.232V500.935z M294.016,501.058
		c0,0.586,0.113,1.053,0.34,1.4s0.584,0.521,1.072,0.521c0.305,0,0.562-0.063,0.771-0.19s0.378-0.31,0.507-0.548v-2.777
		c-0.133-0.23-0.304-0.411-0.513-0.542s-0.46-0.196-0.753-0.196c-0.488,0-0.848,0.204-1.078,0.612s-0.346,0.94-0.346,1.597V501.058z
		"/>
	<path fill="#FFFFFF" d="M301.024,498.497c0.211-0.297,0.468-0.527,0.771-0.691s0.638-0.246,1.005-0.246
		c0.672,0,1.196,0.212,1.573,0.636s0.565,1.077,0.565,1.96v3.861h-1.424v-3.873c0-0.496-0.097-0.856-0.29-1.081
		s-0.481-0.337-0.864-0.337c-0.305,0-0.568,0.054-0.791,0.161s-0.404,0.257-0.545,0.448v4.682H299.6v-9.141h1.424V498.497z"/>
	<path fill="#FFFFFF" d="M312.965,502.282c0-0.219-0.093-0.399-0.278-0.542s-0.536-0.271-1.052-0.384
		c-0.746-0.152-1.316-0.377-1.711-0.674s-0.592-0.695-0.592-1.195c0-0.531,0.225-0.985,0.674-1.362s1.041-0.565,1.775-0.565
		c0.758,0,1.368,0.194,1.831,0.583s0.685,0.856,0.665,1.403l-0.012,0.035h-1.365c0-0.258-0.102-0.481-0.305-0.671
		s-0.475-0.284-0.814-0.284c-0.344,0-0.605,0.078-0.785,0.234s-0.27,0.348-0.27,0.574c0,0.215,0.084,0.387,0.252,0.516
		s0.514,0.244,1.037,0.346c0.777,0.156,1.363,0.386,1.758,0.688s0.592,0.708,0.592,1.216c0,0.57-0.235,1.036-0.706,1.397
		s-1.091,0.542-1.86,0.542c-0.824,0-1.475-0.211-1.951-0.633s-0.703-0.906-0.68-1.453l0.012-0.035h1.324
		c0.016,0.367,0.148,0.635,0.398,0.803s0.555,0.252,0.914,0.252c0.363,0,0.646-0.072,0.847-0.217S312.965,502.521,312.965,502.282z"
		/>
	<path fill="#FFFFFF" d="M318.227,503.003c0.324,0,0.599-0.102,0.823-0.305s0.337-0.461,0.337-0.773h1.289l0.012,0.035
		c0.016,0.594-0.22,1.105-0.706,1.535s-1.071,0.645-1.755,0.645c-0.914,0-1.619-0.302-2.115-0.905s-0.744-1.364-0.744-2.282v-0.205
		c0-0.914,0.248-1.674,0.744-2.279s1.199-0.908,2.109-0.908c0.738,0,1.338,0.222,1.799,0.665s0.684,1.007,0.668,1.69l-0.012,0.035
		h-1.289c0-0.348-0.107-0.643-0.322-0.885s-0.496-0.363-0.844-0.363c-0.508,0-0.873,0.196-1.096,0.589s-0.334,0.878-0.334,1.456
		v0.205c0,0.59,0.11,1.079,0.331,1.468S317.711,503.003,318.227,503.003z"/>
	<path fill="#FFFFFF" d="M323.29,498.497c0.211-0.297,0.468-0.527,0.771-0.691s0.638-0.246,1.005-0.246
		c0.672,0,1.196,0.212,1.573,0.636s0.565,1.077,0.565,1.96v3.861h-1.424v-3.873c0-0.496-0.097-0.856-0.29-1.081
		s-0.481-0.337-0.864-0.337c-0.305,0-0.568,0.054-0.791,0.161s-0.404,0.257-0.545,0.448v4.682h-1.424v-9.141h1.424V498.497z"/>
	<path fill="#FFFFFF" d="M328.417,500.788c0-0.945,0.259-1.72,0.776-2.323s1.226-0.905,2.124-0.905c0.91,0,1.624,0.302,2.142,0.905
		s0.776,1.378,0.776,2.323v0.123c0,0.953-0.259,1.729-0.776,2.329s-1.228,0.899-2.13,0.899c-0.906,0-1.618-0.301-2.136-0.902
		s-0.776-1.377-0.776-2.326V500.788z M329.84,500.911c0,0.621,0.121,1.125,0.363,1.512s0.617,0.58,1.125,0.58
		c0.496,0,0.868-0.194,1.116-0.583s0.372-0.892,0.372-1.509v-0.123c0-0.605-0.124-1.104-0.372-1.497s-0.624-0.589-1.128-0.589
		c-0.496,0-0.866,0.196-1.11,0.589s-0.366,0.892-0.366,1.497V500.911z"/>
	<path fill="#FFFFFF" d="M335.213,500.788c0-0.945,0.259-1.72,0.776-2.323s1.226-0.905,2.124-0.905c0.91,0,1.624,0.302,2.142,0.905
		s0.776,1.378,0.776,2.323v0.123c0,0.953-0.259,1.729-0.776,2.329s-1.228,0.899-2.13,0.899c-0.906,0-1.618-0.301-2.136-0.902
		s-0.776-1.377-0.776-2.326V500.788z M336.637,500.911c0,0.621,0.121,1.125,0.363,1.512s0.617,0.58,1.125,0.58
		c0.496,0,0.868-0.194,1.116-0.583s0.372-0.892,0.372-1.509v-0.123c0-0.605-0.124-1.104-0.372-1.497s-0.624-0.589-1.128-0.589
		c-0.496,0-0.866,0.196-1.11,0.589s-0.366,0.892-0.366,1.497V500.911z"/>
	<path fill="#FFFFFF" d="M343.792,504.017h-1.424v-9.141h1.424V504.017z"/>
</g>
<line fill="none" stroke="#1A171B" stroke-miterlimit="10" x1="3.597" y1="99.555" x2="581.137" y2="99.555"/>
<path fill="#1B181C" d="M295.58,86.468c0,1-0.262,1.785-0.788,2.355s-1.222,0.855-2.089,0.855c-0.875,0-1.576-0.285-2.104-0.855
	s-0.791-1.355-0.791-2.355v-2.35c0-0.996,0.263-1.781,0.788-2.355s1.224-0.861,2.095-0.861c0.867,0,1.565,0.287,2.095,0.861
	s0.793,1.359,0.793,2.355V86.468z M293.875,83.943c0-0.547-0.104-0.971-0.313-1.271s-0.499-0.451-0.87-0.451
	c-0.375,0-0.665,0.15-0.87,0.451s-0.308,0.725-0.308,1.271v2.689c0,0.559,0.104,0.987,0.311,1.286s0.5,0.448,0.879,0.448
	c0.371,0,0.659-0.149,0.864-0.448s0.308-0.728,0.308-1.286V83.943z"/>
<path fill="#1B181C" d="M245.173,89.556h-0.703v-7.928l-2.021,0.246v-0.563l2.725-0.41V89.556z"/>
<path fill="#1B181C" d="M341.287,89.556h-0.703v-7.928l-2.021,0.246v-0.563l2.725-0.41V89.556z"/>
<path fill="#1B181C" d="M391.57,89.556h-5.191v-0.539l2.807-3.275c0.5-0.59,0.846-1.073,1.037-1.45s0.287-0.749,0.287-1.116
	c0-0.52-0.139-0.929-0.418-1.228s-0.693-0.448-1.24-0.448c-0.609,0-1.078,0.181-1.406,0.542s-0.492,0.823-0.492,1.386h-0.656
	l-0.012-0.035c-0.02-0.695,0.205-1.284,0.674-1.767s1.1-0.724,1.893-0.724c0.73,0,1.307,0.205,1.729,0.615s0.633,0.965,0.633,1.664
	c0,0.461-0.139,0.922-0.416,1.383s-0.686,1.02-1.225,1.676l-2.309,2.695l0.012,0.029h4.295V89.556z"/>
<path fill="#1B181C" d="M199.342,89.556h-5.191v-0.539l2.807-3.275c0.5-0.59,0.846-1.073,1.037-1.45s0.287-0.749,0.287-1.116
	c0-0.52-0.14-0.929-0.419-1.228s-0.692-0.448-1.239-0.448c-0.609,0-1.078,0.181-1.406,0.542s-0.492,0.823-0.492,1.386h-0.656
	l-0.012-0.035c-0.02-0.695,0.205-1.284,0.674-1.767s1.1-0.724,1.893-0.724c0.73,0,1.307,0.205,1.729,0.615s0.633,0.965,0.633,1.664
	c0,0.461-0.139,0.922-0.416,1.383s-0.686,1.02-1.225,1.676l-2.309,2.695l0.012,0.029h4.295V89.556z"/>
<path fill="#1B181C" d="M148.426,84.88c0.621,0,1.092-0.154,1.412-0.463s0.48-0.707,0.48-1.195c0-0.508-0.148-0.922-0.445-1.242
	s-0.736-0.48-1.318-0.48c-0.547,0-1,0.163-1.359,0.489s-0.539,0.749-0.539,1.269H146l-0.012-0.035
	c-0.02-0.664,0.217-1.217,0.709-1.658s1.111-0.662,1.857-0.662c0.758,0,1.358,0.205,1.802,0.615s0.665,0.986,0.665,1.729
	c0,0.422-0.122,0.805-0.366,1.148s-0.579,0.6-1.005,0.768c0.492,0.156,0.87,0.412,1.134,0.768s0.396,0.793,0.396,1.313
	c0,0.762-0.24,1.358-0.721,1.79s-1.105,0.647-1.875,0.647c-0.723,0-1.362-0.214-1.919-0.642s-0.825-1.015-0.806-1.761l0.012-0.035
	h0.656c0,0.527,0.193,0.967,0.58,1.318s0.879,0.527,1.477,0.527c0.594,0,1.059-0.164,1.395-0.492s0.504-0.771,0.504-1.33
	c0-0.602-0.179-1.05-0.536-1.345s-0.864-0.442-1.521-0.442h-0.785V84.88H148.426z"/>
<path fill="#1B181C" d="M436.768,84.88c0.621,0,1.092-0.154,1.412-0.463s0.48-0.707,0.48-1.195c0-0.508-0.148-0.922-0.445-1.242
	s-0.736-0.48-1.318-0.48c-0.547,0-1,0.163-1.359,0.489s-0.539,0.749-0.539,1.269h-0.656l-0.012-0.035
	c-0.02-0.664,0.217-1.217,0.709-1.658s1.111-0.662,1.857-0.662c0.758,0,1.358,0.205,1.802,0.615s0.665,0.986,0.665,1.729
	c0,0.422-0.122,0.805-0.366,1.148s-0.579,0.6-1.005,0.768c0.492,0.156,0.87,0.412,1.134,0.768s0.396,0.793,0.396,1.313
	c0,0.762-0.24,1.358-0.721,1.79s-1.105,0.647-1.875,0.647c-0.723,0-1.362-0.214-1.919-0.642s-0.825-1.015-0.806-1.761l0.012-0.035
	h0.656c0,0.527,0.193,0.967,0.58,1.318s0.879,0.527,1.477,0.527c0.594,0,1.059-0.164,1.395-0.492s0.504-0.771,0.504-1.33
	c0-0.602-0.179-1.05-0.536-1.345s-0.864-0.442-1.521-0.442h-0.785V84.88H436.768z"/>
<path fill="#1B181C" d="M102.18,86.808h1.336V87.4h-1.336v2.156h-0.697V87.4h-3.92v-0.398l3.85-5.977h0.768V86.808z M98.395,86.808
	h3.088v-4.863l-0.035-0.012l-0.299,0.639L98.395,86.808z"/>
<path fill="#1B181C" d="M486.636,86.808h1.336V87.4h-1.336v2.156h-0.697V87.4h-3.92v-0.398l3.85-5.977h0.768V86.808z
	 M482.851,86.808h3.088v-4.863l-0.035-0.012l-0.299,0.639L482.851,86.808z"/>
<path fill="#1B181C" d="M50.179,85.718l0.469-4.693h4.148v0.65h-3.545l-0.316,3.07c0.215-0.191,0.452-0.342,0.712-0.451
	s0.608-0.17,1.046-0.182c0.73-0.012,1.317,0.229,1.761,0.721s0.665,1.16,0.665,2.004c0,0.863-0.217,1.553-0.65,2.068
	s-1.084,0.773-1.951,0.773c-0.703,0-1.289-0.196-1.758-0.589s-0.693-0.974-0.674-1.743l0.012-0.035h0.633
	c0,0.574,0.162,1.014,0.486,1.318s0.758,0.457,1.301,0.457c0.637,0,1.112-0.191,1.427-0.574s0.472-0.938,0.472-1.664
	c0-0.637-0.157-1.143-0.472-1.518s-0.757-0.563-1.327-0.563c-0.543,0-0.958,0.087-1.245,0.261s-0.495,0.437-0.624,0.788
	L50.179,85.718z"/>
<path fill="#1B181C" d="M530.75,85.718l0.469-4.693h4.148v0.65h-3.545l-0.316,3.07c0.215-0.191,0.452-0.342,0.712-0.451
	s0.608-0.17,1.046-0.182c0.73-0.012,1.317,0.229,1.761,0.721s0.665,1.16,0.665,2.004c0,0.863-0.217,1.553-0.65,2.068
	s-1.084,0.773-1.951,0.773c-0.703,0-1.289-0.196-1.758-0.589s-0.693-0.974-0.674-1.743l0.012-0.035h0.633
	c0,0.574,0.162,1.014,0.486,1.318s0.758,0.457,1.301,0.457c0.637,0,1.112-0.191,1.427-0.574s0.472-0.938,0.472-1.664
	c0-0.637-0.157-1.143-0.472-1.518s-0.757-0.563-1.327-0.563c-0.543,0-0.958,0.087-1.245,0.261s-0.495,0.437-0.624,0.788
	L530.75,85.718z"/>
<path fill="#1B181C" d="M3.861,80.902c0.316,0,0.632,0.033,0.946,0.1s0.587,0.162,0.817,0.287l-0.182,0.574
	c-0.234-0.121-0.474-0.212-0.718-0.272S4.193,81.5,3.861,81.5c-0.598,0-1.091,0.238-1.479,0.715s-0.583,1.096-0.583,1.857v1.172
	c0.234-0.328,0.537-0.591,0.908-0.788s0.781-0.296,1.23-0.296c0.754,0,1.342,0.246,1.764,0.738s0.633,1.158,0.633,1.998
	c0,0.832-0.237,1.504-0.712,2.016s-1.099,0.768-1.872,0.768c-0.766,0-1.398-0.291-1.898-0.873s-0.75-1.369-0.75-2.361v-2.309
	c0-0.945,0.265-1.721,0.794-2.326S3.08,80.902,3.861,80.902z M3.744,84.734c-0.461,0-0.868,0.124-1.222,0.372
	s-0.595,0.563-0.724,0.946v0.445c0,0.785,0.184,1.413,0.551,1.884s0.834,0.706,1.4,0.706c0.578,0,1.036-0.207,1.374-0.621
	s0.507-0.938,0.507-1.57c0-0.688-0.159-1.22-0.478-1.597S4.365,84.734,3.744,84.734z"/>
<path fill="#1B181C" d="M581.379,80.902c0.316,0,0.632,0.033,0.946,0.1s0.587,0.162,0.817,0.287l-0.182,0.574
	c-0.234-0.121-0.474-0.212-0.718-0.272s-0.532-0.091-0.864-0.091c-0.598,0-1.091,0.238-1.479,0.715s-0.583,1.096-0.583,1.857v1.172
	c0.234-0.328,0.537-0.591,0.908-0.788s0.781-0.296,1.23-0.296c0.754,0,1.342,0.246,1.764,0.738s0.633,1.158,0.633,1.998
	c0,0.832-0.237,1.504-0.712,2.016s-1.099,0.768-1.872,0.768c-0.766,0-1.398-0.291-1.898-0.873s-0.75-1.369-0.75-2.361v-2.309
	c0-0.945,0.265-1.721,0.794-2.326S580.598,80.902,581.379,80.902z M581.262,84.734c-0.461,0-0.868,0.124-1.222,0.372
	s-0.595,0.563-0.724,0.946v0.445c0,0.785,0.184,1.413,0.551,1.884s0.834,0.706,1.4,0.706c0.578,0,1.036-0.207,1.374-0.621
	s0.507-0.938,0.507-1.57c0-0.688-0.159-1.22-0.478-1.597S581.883,84.734,581.262,84.734z"/>
<line fill="none" stroke="#1A171B" stroke-miterlimit="10" x1="3.597" y1="94.426" x2="3.597" y2="104.426"/>
<line fill="none" stroke="#1A171B" stroke-miterlimit="10" x1="51.726" y1="94.555" x2="51.726" y2="104.555"/>
<line fill="none" stroke="#1A171B" stroke-miterlimit="10" x1="99.854" y1="94.555" x2="99.854" y2="104.555"/>
<line fill="none" stroke="#1A171B" stroke-miterlimit="10" x1="147.982" y1="94.555" x2="147.982" y2="104.555"/>
<line fill="none" stroke="#1A171B" stroke-miterlimit="10" x1="196.111" y1="94.555" x2="196.111" y2="104.555"/>
<line fill="none" stroke="#1A171B" stroke-miterlimit="10" x1="340.496" y1="93.899" x2="340.496" y2="103.899"/>
<line fill="none" stroke="#1A171B" stroke-miterlimit="10" x1="292.368" y1="93.899" x2="292.368" y2="103.899"/>
<line fill="none" stroke="#1A171B" stroke-miterlimit="10" x1="244.239" y1="94.555" x2="244.239" y2="104.555"/>
<line fill="none" stroke="#1A171B" stroke-miterlimit="10" x1="388.624" y1="94.555" x2="388.624" y2="104.555"/>
<line fill="none" stroke="#1A171B" stroke-miterlimit="10" x1="436.752" y1="94.555" x2="436.752" y2="104.555"/>
<line fill="none" stroke="#1A171B" stroke-miterlimit="10" x1="484.88" y1="94.555" x2="484.88" y2="104.555"/>
<line fill="none" stroke="#1A171B" stroke-miterlimit="10" x1="533.009" y1="94.555" x2="533.009" y2="104.555"/>
<line fill="none" stroke="#1A171B" stroke-miterlimit="10" x1="581.137" y1="94.555" x2="581.137" y2="104.555"/>
<g>
	<rect x="291.7" y="50.961" fill="#1A171B" width="1" height="24.928"/>
</g>
<circle fill="#EE811E" cx="204.848" cy="177.741" r="3.42"/>
<circle fill="#EE811E" cx="158.055" cy="255.546" r="3.42"/>
<circle fill="#EE811E" cx="135.7" cy="333.353" r="3.42"/>
<circle fill="#EE811E" cx="145.579" cy="411.16" r="3.42"/>
<circle fill="#EE811E" cx="123.093" cy="489.887" r="3.42"/>
<circle fill="#EE811E" cx="100.999" cy="566.768" r="3.42"/>
<circle fill="#EE811E" cx="115.692" cy="644.572" r="3.42"/>
<circle fill="#EE811E" cx="111.006" cy="721.463" r="3.42"/>
<circle fill="#009F94" cx="412.691" cy="177.741" r="3.42"/>
<circle fill="#009F94" cx="444.57" cy="255.546" r="3.42"/>
<circle fill="#EE811E" cx="489.692" cy="333.353" r="3.42"/>
<circle fill="#009F94" cx="465.629" cy="333.353" r="3.42"/>
<circle fill="#009F94" cx="219.43" cy="177.741" r="3.42"/>
<circle fill="#009F94" cx="166.931" cy="255.546" r="3.42"/>
<circle fill="#009F94" cx="145.224" cy="333.353" r="3.42"/>
<circle fill="#009F94" cx="160.475" cy="411.16" r="3.42"/>
<circle fill="#009F94" cx="135.85" cy="489.887" r="3.42"/>
<circle fill="#009F94" cx="115.942" cy="566.77" r="3.42"/>
<circle fill="#009F94" cx="130.442" cy="644.574" r="3.42"/>
<circle fill="#009F94" cx="140.318" cy="721.463" r="3.42"/>
<circle fill="#EE811E" cx="407.877" cy="177.741" r="3.42"/>
<circle fill="#EE811E" cx="480.237" cy="255.546" r="3.42"/>
<circle fill="#009F94" cx="470.443" cy="411.16" r="3.42"/>
<circle fill="#009F94" cx="480.073" cy="489.887" r="3.42"/>
<circle fill="#009F94" cx="480.073" cy="566.77" r="3.42"/>
<circle fill="#EE811E" cx="494.344" cy="411.16" r="3.42"/>
<circle fill="#EE811E" cx="499.322" cy="489.887" r="3.42"/>
<circle fill="#EE811E" cx="489.692" cy="566.77" r="3.42"/>
<circle fill="#EE811E" cx="504.135" cy="644.574" r="3.42"/>
<circle fill="#009F94" cx="489.692" cy="644.574" r="3.42"/>
<circle fill="#EE811E" cx="508.949" cy="721.463" r="3.42"/>
<circle fill="#009F94" cx="484.88" cy="721.463" r="3.42"/>
<path fill="#009F94" d="M489.692,329.933"/>
<g id="Illiterate">
	<g>
		<path fill="#1B181C" d="M313.277,19.26h-0.586v-3.271h-4.039v3.271h-0.586v-7.109h0.586v3.34h4.039v-3.34h0.586V19.26z"/>
		<path fill="#1B181C" d="M320.308,16.287c0,0.918-0.252,1.66-0.755,2.227s-1.178,0.85-2.024,0.85c-0.833,0-1.498-0.283-1.994-0.85
			s-0.744-1.309-0.744-2.227v-1.157c0-0.915,0.247-1.657,0.742-2.227c0.494-0.57,1.158-0.854,1.992-0.854
			c0.846,0,1.521,0.285,2.025,0.854c0.505,0.57,0.758,1.312,0.758,2.227V16.287z M319.726,15.12c0-0.768-0.193-1.387-0.583-1.855
			s-0.929-0.703-1.618-0.703c-0.678,0-1.205,0.234-1.582,0.703c-0.378,0.469-0.566,1.087-0.566,1.855v1.167
			c0,0.775,0.189,1.396,0.568,1.865s0.907,0.703,1.584,0.703c0.693,0,1.233-0.233,1.619-0.701s0.578-1.09,0.578-1.868V15.12z"/>
		<path fill="#1B181C" d="M323.716,18.015l0.141,0.498h0.029l0.143-0.498l2.139-5.864h0.629l-2.646,7.109h-0.557l-2.646-7.109h0.635
			L323.716,18.015z"/>
		<path fill="#1B181C" d="M331.621,15.818h-3.188v2.949h3.686v0.493h-4.271v-7.109h4.248v0.498h-3.662v2.671h3.188V15.818z"/>
		<path fill="#1B181C" d="M333.931,16.047v3.213h-0.586v-7.104h2.367c0.762,0,1.347,0.167,1.754,0.5
			c0.406,0.333,0.609,0.821,0.609,1.462c0,0.377-0.107,0.715-0.324,1.013s-0.523,0.515-0.92,0.652
			c0.439,0.111,0.756,0.309,0.949,0.593s0.291,0.642,0.291,1.072v0.669c0,0.221,0.025,0.42,0.078,0.596
			c0.052,0.176,0.138,0.319,0.258,0.43v0.117h-0.596c-0.12-0.117-0.205-0.282-0.254-0.493s-0.072-0.431-0.072-0.659v-0.649
			c0-0.436-0.141-0.78-0.423-1.033s-0.675-0.378-1.179-0.378H333.931z M333.931,15.549h1.713c0.642,0,1.11-0.129,1.406-0.388
			c0.297-0.259,0.445-0.608,0.445-1.047c0-0.469-0.148-0.829-0.442-1.082s-0.741-0.378-1.341-0.378h-1.781V15.549z"/>
		<path fill="#1B181C" d="M347.529,16.287c0,0.918-0.251,1.66-0.754,2.227s-1.178,0.85-2.023,0.85c-0.834,0-1.498-0.283-1.995-0.85
			s-0.745-1.309-0.745-2.227v-1.157c0-0.915,0.248-1.657,0.742-2.227c0.495-0.57,1.159-0.854,1.992-0.854
			c0.847,0,1.522,0.285,2.027,0.854c0.504,0.57,0.756,1.312,0.756,2.227V16.287z M346.949,15.12c0-0.768-0.195-1.387-0.584-1.855
			s-0.929-0.703-1.619-0.703c-0.677,0-1.204,0.234-1.582,0.703c-0.377,0.469-0.566,1.087-0.566,1.855v1.167
			c0,0.775,0.189,1.396,0.569,1.865s0.907,0.703,1.585,0.703c0.693,0,1.232-0.233,1.618-0.701s0.579-1.09,0.579-1.868V15.12z"/>
		<path fill="#1B181C" d="M350.937,18.015l0.143,0.498h0.029l0.141-0.498l2.139-5.864h0.631l-2.646,7.109h-0.557l-2.646-7.109h0.635
			L350.937,18.015z"/>
		<path fill="#1B181C" d="M358.843,15.818h-3.189v2.949h3.688v0.493h-4.273v-7.109h4.248v0.498h-3.662v2.671h3.189V15.818z"/>
		<path fill="#1B181C" d="M361.152,16.047v3.213h-0.586v-7.104h2.369c0.762,0,1.346,0.167,1.752,0.5
			c0.407,0.333,0.611,0.821,0.611,1.462c0,0.377-0.109,0.715-0.325,1.013s-0.523,0.515-0.921,0.652
			c0.439,0.111,0.756,0.309,0.95,0.593s0.29,0.642,0.29,1.072v0.669c0,0.221,0.026,0.42,0.078,0.596
			c0.053,0.176,0.139,0.319,0.26,0.43v0.117h-0.596c-0.121-0.117-0.205-0.282-0.254-0.493s-0.074-0.431-0.074-0.659v-0.649
			c0-0.436-0.141-0.78-0.422-1.033s-0.675-0.378-1.18-0.378H361.152z M361.152,15.549h1.715c0.641,0,1.109-0.129,1.406-0.388
			c0.296-0.259,0.443-0.608,0.443-1.047c0-0.469-0.146-0.829-0.441-1.082s-0.741-0.378-1.34-0.378h-1.783V15.549z"/>
		<path fill="#1B181C" d="M374.371,12.649h-2.422v6.611h-0.582v-6.611h-2.504v-0.498h5.508V12.649z"/>
		<path fill="#1B181C" d="M380.722,19.26h-0.586v-3.271h-4.037v3.271h-0.586v-7.109h0.586v3.34h4.037v-3.34h0.586V19.26z"/>
		<path fill="#1B181C" d="M386.314,15.818h-3.189v2.949h3.688v0.493h-4.273v-7.109h4.248v0.498h-3.662v2.671h3.189V15.818z"/>
		<path fill="#1B181C" d="M395.699,16.287c0,0.433-0.061,0.832-0.179,1.196s-0.289,0.682-0.511,0.952l1.133,1.108l-0.404,0.391
			l-1.148-1.099c-0.228,0.172-0.482,0.304-0.764,0.393s-0.584,0.134-0.906,0.134c-0.833,0-1.498-0.283-1.994-0.85
			s-0.744-1.309-0.744-2.227v-1.157c0-0.915,0.247-1.657,0.742-2.227c0.494-0.57,1.158-0.854,1.992-0.854
			c0.846,0,1.521,0.285,2.025,0.854c0.505,0.57,0.758,1.312,0.758,2.227V16.287z M395.117,15.12c0-0.768-0.193-1.387-0.583-1.855
			s-0.929-0.703-1.618-0.703c-0.678,0-1.205,0.234-1.582,0.703c-0.378,0.469-0.566,1.087-0.566,1.855v1.167
			c0,0.775,0.189,1.396,0.568,1.865s0.907,0.703,1.584,0.703c0.693,0,1.233-0.233,1.619-0.701s0.578-1.09,0.578-1.868V15.12z"/>
		<path fill="#1B181C" d="M402.281,12.151v4.722c0,0.781-0.24,1.392-0.719,1.831s-1.094,0.659-1.846,0.659
			c-0.742,0-1.348-0.221-1.818-0.662s-0.705-1.051-0.705-1.829v-4.722h0.586v4.722c0,0.612,0.182,1.098,0.544,1.458
			s0.827,0.54,1.394,0.54c0.58,0,1.055-0.179,1.426-0.537s0.557-0.845,0.557-1.46v-4.722H402.281z"/>
		<path fill="#1B181C" d="M407.607,17.278h-3.119l-0.719,1.982h-0.605l2.613-7.109h0.551l2.594,7.109h-0.605L407.607,17.278z
			 M404.673,16.755h2.744l-1.348-3.77h-0.029L404.673,16.755z"/>
		<path fill="#1B181C" d="M410.605,18.767h3.672v0.493h-4.258v-7.109h0.586V18.767z"/>
		<path fill="#1B181C" d="M416.265,19.26h-0.586v-7.109h0.586V19.26z"/>
		<path fill="#1B181C" d="M422.085,15.93h-3.268v3.33h-0.586v-7.109h4.352v0.498h-3.766v2.778h3.268V15.93z"/>
		<path fill="#1B181C" d="M424.478,19.26h-0.586v-7.109h0.586V19.26z"/>
		<path fill="#1B181C" d="M431.343,17.039l0.01,0.029c0.013,0.697-0.215,1.253-0.684,1.67s-1.084,0.625-1.846,0.625
			c-0.791,0-1.43-0.286-1.914-0.857c-0.485-0.571-0.729-1.311-0.729-2.219v-1.157c0-0.905,0.243-1.645,0.729-2.219
			c0.484-0.575,1.123-0.862,1.914-0.862c0.771,0,1.389,0.204,1.853,0.61s0.689,0.967,0.677,1.68l-0.01,0.029h-0.547
			c0-0.573-0.176-1.02-0.525-1.34s-0.832-0.481-1.447-0.481c-0.622,0-1.121,0.241-1.497,0.723s-0.563,1.099-0.563,1.851v1.167
			c0,0.762,0.188,1.383,0.563,1.863s0.875,0.72,1.497,0.72c0.615,0,1.098-0.156,1.447-0.469s0.525-0.767,0.525-1.362H431.343z"/>
		<path fill="#1B181C" d="M436.578,17.278h-3.121l-0.717,1.982h-0.605l2.611-7.109h0.553l2.592,7.109h-0.605L436.578,17.278z
			 M433.642,16.755h2.744l-1.348-3.77h-0.029L433.642,16.755z"/>
		<path fill="#1B181C" d="M443.193,12.649h-2.422v6.611h-0.58v-6.611h-2.506v-0.498h5.508V12.649z"/>
		<path fill="#1B181C" d="M445.074,19.26h-0.586v-7.109h0.586V19.26z"/>
		<path fill="#1B181C" d="M452.255,16.287c0,0.918-0.251,1.66-0.754,2.227s-1.178,0.85-2.023,0.85c-0.834,0-1.498-0.283-1.995-0.85
			s-0.745-1.309-0.745-2.227v-1.157c0-0.915,0.248-1.657,0.742-2.227c0.495-0.57,1.159-0.854,1.992-0.854
			c0.847,0,1.522,0.285,2.027,0.854c0.504,0.57,0.756,1.312,0.756,2.227V16.287z M451.675,15.12c0-0.768-0.195-1.387-0.584-1.855
			s-0.929-0.703-1.619-0.703c-0.677,0-1.204,0.234-1.582,0.703c-0.377,0.469-0.566,1.087-0.566,1.855v1.167
			c0,0.775,0.189,1.396,0.569,1.865s0.907,0.703,1.585,0.703c0.693,0,1.232-0.233,1.618-0.701s0.579-1.09,0.579-1.868V15.12z"/>
		<path fill="#1B181C" d="M459.009,19.26h-0.586l-4.039-6.084l-0.029,0.005v6.079h-0.586v-7.109h0.586l4.039,6.069l0.029-0.005
			v-6.064h0.586V19.26z"/>
		<path fill="#1B181C" d="M464.833,17.532c0-0.365-0.145-0.666-0.434-0.903c-0.29-0.238-0.781-0.46-1.475-0.669
			c-0.759-0.208-1.336-0.468-1.731-0.779s-0.593-0.733-0.593-1.267c0-0.543,0.221-0.99,0.664-1.34
			c0.442-0.35,1.007-0.525,1.693-0.525c0.723,0,1.305,0.198,1.744,0.593s0.652,0.897,0.639,1.506l-0.01,0.029h-0.547
			c0-0.469-0.17-0.858-0.51-1.167s-0.779-0.464-1.316-0.464c-0.553,0-0.986,0.131-1.301,0.393s-0.471,0.583-0.471,0.964
			c0,0.361,0.143,0.658,0.427,0.891s0.787,0.45,1.507,0.652c0.748,0.218,1.319,0.487,1.713,0.806
			c0.395,0.319,0.592,0.742,0.592,1.27c0,0.553-0.23,0.999-0.691,1.335s-1.041,0.505-1.74,0.505c-0.7,0-1.311-0.178-1.832-0.535
			c-0.521-0.356-0.772-0.876-0.756-1.56l0.01-0.029h0.541c0,0.55,0.207,0.959,0.621,1.228c0.413,0.269,0.885,0.403,1.416,0.403
			c0.543,0,0.986-0.125,1.328-0.374S464.833,17.926,464.833,17.532z"/>
		<path fill="#1B181C" d="M473.144,15.93h-3.266v3.33h-0.586v-7.109h4.35v0.498h-3.764v2.778h3.266V15.93z"/>
		<path fill="#1B181C" d="M480.015,16.287c0,0.918-0.252,1.66-0.755,2.227s-1.178,0.85-2.024,0.85c-0.833,0-1.498-0.283-1.994-0.85
			s-0.744-1.309-0.744-2.227v-1.157c0-0.915,0.247-1.657,0.742-2.227c0.494-0.57,1.158-0.854,1.992-0.854
			c0.846,0,1.521,0.285,2.025,0.854c0.505,0.57,0.758,1.312,0.758,2.227V16.287z M479.433,15.12c0-0.768-0.193-1.387-0.583-1.855
			s-0.929-0.703-1.618-0.703c-0.678,0-1.205,0.234-1.582,0.703c-0.378,0.469-0.566,1.087-0.566,1.855v1.167
			c0,0.775,0.189,1.396,0.568,1.865s0.907,0.703,1.584,0.703c0.693,0,1.233-0.233,1.619-0.701s0.578-1.09,0.578-1.868V15.12z"/>
		<path fill="#1B181C" d="M482.099,16.047v3.213h-0.586v-7.104h2.369c0.762,0,1.346,0.167,1.752,0.5
			c0.407,0.333,0.611,0.821,0.611,1.462c0,0.377-0.109,0.715-0.325,1.013s-0.523,0.515-0.921,0.652
			c0.439,0.111,0.756,0.309,0.95,0.593s0.29,0.642,0.29,1.072v0.669c0,0.221,0.026,0.42,0.078,0.596
			c0.053,0.176,0.139,0.319,0.26,0.43v0.117h-0.596c-0.121-0.117-0.205-0.282-0.254-0.493s-0.074-0.431-0.074-0.659v-0.649
			c0-0.436-0.141-0.78-0.422-1.033s-0.675-0.378-1.18-0.378H482.099z M482.099,15.549h1.715c0.641,0,1.109-0.129,1.406-0.388
			c0.296-0.259,0.443-0.608,0.443-1.047c0-0.469-0.146-0.829-0.441-1.082s-0.741-0.378-1.34-0.378h-1.783V15.549z"/>
		<path fill="#1B181C" d="M493.902,18.411h0.029l2.646-6.26h0.713v7.109h-0.586v-5.972l-0.029-0.005l-2.549,5.977h-0.42
			l-2.607-6.123l-0.029,0.005v6.118h-0.586v-7.109h0.781L493.902,18.411z"/>
		<path fill="#1B181C" d="M504.322,16.287c0,0.918-0.252,1.66-0.755,2.227s-1.178,0.85-2.024,0.85c-0.833,0-1.498-0.283-1.994-0.85
			s-0.744-1.309-0.744-2.227v-1.157c0-0.915,0.247-1.657,0.742-2.227c0.494-0.57,1.158-0.854,1.992-0.854
			c0.846,0,1.521,0.285,2.025,0.854c0.505,0.57,0.758,1.312,0.758,2.227V16.287z M503.74,15.12c0-0.768-0.193-1.387-0.583-1.855
			s-0.929-0.703-1.618-0.703c-0.678,0-1.205,0.234-1.582,0.703c-0.378,0.469-0.566,1.087-0.566,1.855v1.167
			c0,0.775,0.189,1.396,0.568,1.865s0.907,0.703,1.584,0.703c0.693,0,1.233-0.233,1.619-0.701s0.578-1.09,0.578-1.868V15.12z"/>
		<path fill="#1B181C" d="M506.406,16.047v3.213h-0.586v-7.104h2.369c0.762,0,1.346,0.167,1.752,0.5
			c0.407,0.333,0.611,0.821,0.611,1.462c0,0.377-0.109,0.715-0.325,1.013s-0.523,0.515-0.921,0.652
			c0.439,0.111,0.756,0.309,0.95,0.593s0.29,0.642,0.29,1.072v0.669c0,0.221,0.026,0.42,0.078,0.596
			c0.053,0.176,0.139,0.319,0.26,0.43v0.117h-0.596c-0.121-0.117-0.205-0.282-0.254-0.493s-0.074-0.431-0.074-0.659v-0.649
			c0-0.436-0.141-0.78-0.422-1.033s-0.675-0.378-1.18-0.378H506.406z M506.406,15.549h1.715c0.641,0,1.109-0.129,1.406-0.388
			c0.296-0.259,0.443-0.608,0.443-1.047c0-0.469-0.146-0.829-0.441-1.082s-0.741-0.378-1.34-0.378h-1.783V15.549z"/>
		<path fill="#1B181C" d="M516.132,15.818h-3.188v2.949h3.686v0.493h-4.271v-7.109h4.248v0.498h-3.662v2.671h3.188V15.818z"/>
		<path fill="#1B181C" d="M521.041,19.26h-0.586v-7.109h0.586V19.26z"/>
		<path fill="#1B181C" d="M528.248,19.26h-0.586l-4.039-6.084l-0.029,0.005v6.079h-0.586v-7.109h0.586l4.039,6.069l0.029-0.005
			v-6.064h0.586V19.26z"/>
		<path fill="#1B181C" d="M533.916,15.93h-3.266v3.33h-0.586v-7.109h4.35v0.498h-3.764v2.778h3.266V15.93z"/>
		<path fill="#1B181C" d="M540.787,16.287c0,0.918-0.252,1.66-0.755,2.227s-1.178,0.85-2.024,0.85c-0.833,0-1.498-0.283-1.994-0.85
			s-0.744-1.309-0.744-2.227v-1.157c0-0.915,0.247-1.657,0.742-2.227c0.494-0.57,1.158-0.854,1.992-0.854
			c0.846,0,1.521,0.285,2.025,0.854c0.505,0.57,0.758,1.312,0.758,2.227V16.287z M540.205,15.12c0-0.768-0.193-1.387-0.583-1.855
			s-0.929-0.703-1.618-0.703c-0.678,0-1.205,0.234-1.582,0.703c-0.378,0.469-0.566,1.087-0.566,1.855v1.167
			c0,0.775,0.189,1.396,0.568,1.865s0.907,0.703,1.584,0.703c0.693,0,1.233-0.233,1.619-0.701s0.578-1.09,0.578-1.868V15.12z"/>
		<path fill="#1B181C" d="M542.871,16.047v3.213h-0.586v-7.104h2.369c0.762,0,1.346,0.167,1.752,0.5
			c0.407,0.333,0.611,0.821,0.611,1.462c0,0.377-0.109,0.715-0.325,1.013s-0.523,0.515-0.921,0.652
			c0.439,0.111,0.756,0.309,0.95,0.593s0.29,0.642,0.29,1.072v0.669c0,0.221,0.026,0.42,0.078,0.596
			c0.053,0.176,0.139,0.319,0.26,0.43v0.117h-0.596c-0.121-0.117-0.205-0.282-0.254-0.493s-0.074-0.431-0.074-0.659v-0.649
			c0-0.436-0.141-0.78-0.422-1.033s-0.675-0.378-1.18-0.378H542.871z M542.871,15.549h1.715c0.641,0,1.109-0.129,1.406-0.388
			c0.296-0.259,0.443-0.608,0.443-1.047c0-0.469-0.146-0.829-0.441-1.082s-0.741-0.378-1.34-0.378h-1.783V15.549z"/>
		<path fill="#1B181C" d="M552.242,18.411h0.029l2.646-6.26h0.713v7.109h-0.586v-5.972l-0.029-0.005l-2.549,5.977h-0.42
			l-2.607-6.123l-0.029,0.005v6.118h-0.586v-7.109h0.781L552.242,18.411z"/>
		<path fill="#1B181C" d="M561.255,17.278h-3.121l-0.717,1.982h-0.605l2.611-7.109h0.553l2.592,7.109h-0.605L561.255,17.278z
			 M558.32,16.755h2.744l-1.348-3.77h-0.029L558.32,16.755z"/>
		<path fill="#1B181C" d="M567.871,12.649h-2.422v6.611h-0.58v-6.611h-2.506v-0.498h5.508V12.649z"/>
		<path fill="#1B181C" d="M569.751,19.26h-0.586v-7.109h0.586V19.26z"/>
		<path fill="#1B181C" d="M576.933,16.287c0,0.918-0.251,1.66-0.754,2.227s-1.178,0.85-2.023,0.85c-0.834,0-1.498-0.283-1.995-0.85
			s-0.745-1.309-0.745-2.227v-1.157c0-0.915,0.248-1.657,0.742-2.227c0.495-0.57,1.159-0.854,1.992-0.854
			c0.847,0,1.522,0.285,2.027,0.854c0.504,0.57,0.756,1.312,0.756,2.227V16.287z M576.353,15.12c0-0.768-0.195-1.387-0.584-1.855
			s-0.929-0.703-1.619-0.703c-0.677,0-1.204,0.234-1.582,0.703c-0.377,0.469-0.566,1.087-0.566,1.855v1.167
			c0,0.775,0.189,1.396,0.569,1.865s0.907,0.703,1.585,0.703c0.693,0,1.232-0.233,1.618-0.701s0.579-1.09,0.579-1.868V15.12z"/>
		<path fill="#1B181C" d="M583.687,19.26h-0.586l-4.039-6.084l-0.029,0.005v6.079h-0.586v-7.109h0.586l4.039,6.069l0.029-0.005
			v-6.064h0.586V19.26z"/>
	</g>
	<g>
		<polygon fill="#EE811E" points="295.798,20.021 295.82,9.894 303.318,16.697 300.125,17.297 301.609,20.653 299.869,21.41 
			298.39,18.064 		"/>
	</g>
</g>
</svg>
