<?xml version="1.0" encoding="utf-8"?>
<!-- Generator: Adobe Illustrator 18.1.0, SVG Export Plug-In . SVG Version: 6.00 Build 0)  -->
<svg version="1.1" xmlns="http://www.w3.org/2000/svg" xmlns:xlink="http://www.w3.org/1999/xlink" x="0px" y="0px"
	 viewBox="0 0 682.5 768" enable-background="new 0 0 682.5 768" xml:space="preserve">
<g id="_x31__1_">
	<path fill="none" stroke="#141411" stroke-miterlimit="10" d="M96.5,67.4c0,2.6-2.1,4.6-4.6,4.6c-2.6,0-4.6-2.1-4.6-4.6
		c0-2.6,2.1-4.6,4.6-4.6C94.4,62.8,96.5,64.8,96.5,67.4z"/>
	<path fill="none" stroke="#141411" stroke-miterlimit="10" d="M70.5,67.4c0,2.6-2.1,4.6-4.6,4.6c-2.6,0-4.6-2.1-4.6-4.6
		c0-2.6,2.1-4.6,4.6-4.6C68.4,62.8,70.5,64.8,70.5,67.4z"/>
	<circle fill="none" stroke="#141411" stroke-miterlimit="10" cx="117.7" cy="67.4" r="4.6"/>
	<circle fill="none" stroke="#141411" stroke-miterlimit="10" cx="143.6" cy="67.4" r="4.6"/>
	<circle fill="none" stroke="#141411" stroke-miterlimit="10" cx="143.6" cy="43.2" r="4.6"/>
	<circle fill="none" stroke="#141411" stroke-miterlimit="10" cx="273.1" cy="67.4" r="4.6"/>
	<circle fill="none" stroke="#141411" stroke-miterlimit="10" cx="324.9" cy="67.4" r="4.6"/>
	<circle fill="none" stroke="#141411" stroke-miterlimit="10" cx="350.8" cy="67.4" r="4.6"/>
	<circle fill="none" stroke="#141411" stroke-miterlimit="10" cx="350.8" cy="39.5" r="4.6"/>
	<circle fill="none" stroke="#141411" stroke-miterlimit="10" cx="273.1" cy="39.5" r="4.6"/>
	<circle fill="none" stroke="#141411" stroke-miterlimit="10" cx="324.9" cy="39.5" r="4.6"/>
	<circle fill="none" stroke="#141411" stroke-miterlimit="10" cx="65.9" cy="93.1" r="4.6"/>
	<circle fill="none" stroke="#141411" stroke-miterlimit="10" cx="91.7" cy="93.1" r="4.6"/>
	<circle fill="none" stroke="#141411" stroke-miterlimit="10" cx="117.6" cy="93.1" r="4.6"/>
	<circle fill="none" stroke="#141411" stroke-miterlimit="10" cx="143.5" cy="93.1" r="4.6"/>
	<circle fill="none" stroke="#141411" stroke-miterlimit="10" cx="169.4" cy="93.1" r="4.6"/>
	<circle fill="none" stroke="#141411" stroke-miterlimit="10" cx="169.4" cy="67.4" r="4.6"/>
	<circle fill="none" stroke="#141411" stroke-miterlimit="10" cx="169.4" cy="44.1" r="4.6"/>
	<circle fill="none" stroke="#141411" stroke-miterlimit="10" cx="272.9" cy="93.1" r="4.6"/>
	<circle fill="none" stroke="#141411" stroke-miterlimit="10" cx="324.7" cy="93.1" r="4.6"/>
	<circle fill="none" stroke="#141411" stroke-miterlimit="10" cx="350.6" cy="93.1" r="4.6"/>
	<circle fill="none" stroke="#141411" stroke-miterlimit="10" cx="65.9" cy="118.6" r="4.6"/>
	<circle fill="none" stroke="#141411" stroke-miterlimit="10" cx="143.5" cy="118.6" r="4.6"/>
	<circle fill="none" stroke="#141411" stroke-miterlimit="10" cx="169.4" cy="118.6" r="4.6"/>
	<circle fill="none" stroke="#141411" stroke-miterlimit="10" cx="272.9" cy="118.6" r="4.6"/>
	<circle fill="none" stroke="#141411" stroke-miterlimit="10" cx="324.7" cy="118.6" r="4.6"/>
	<circle fill="none" stroke="#141411" stroke-miterlimit="10" cx="65.9" cy="144.1" r="4.6"/>
	<circle fill="none" stroke="#141411" stroke-miterlimit="10" cx="143.5" cy="144.1" r="4.6"/>
	<circle fill="none" stroke="#141411" stroke-miterlimit="10" cx="169.4" cy="144.1" r="4.6"/>
	<circle fill="none" stroke="#141411" stroke-miterlimit="10" cx="272.9" cy="144.1" r="4.6"/>
	<circle fill="none" stroke="#141411" stroke-miterlimit="10" cx="324.7" cy="144.1" r="4.6"/>
	<circle fill="none" stroke="#141411" stroke-miterlimit="10" cx="65.9" cy="169.6" r="4.6"/>
	<circle fill="none" stroke="#141411" stroke-miterlimit="10" cx="272.9" cy="169.6" r="4.6"/>
	<circle fill="none" stroke="#141411" stroke-miterlimit="10" cx="272.9" cy="195.1" r="4.6"/>
	<circle fill="none" stroke="#141411" stroke-miterlimit="10" cx="272.9" cy="220.7" r="4.6"/>
</g>
<g id="_x32_">
	<circle fill="none" stroke="#141411" stroke-miterlimit="10" cx="221.3" cy="67.4" r="4.6"/>
	<circle fill="none" stroke="#141411" stroke-miterlimit="10" cx="247.2" cy="67.4" r="4.6"/>
	<circle fill="none" stroke="#141411" stroke-miterlimit="10" cx="299" cy="67.4" r="4.6"/>
	<circle fill="none" stroke="#141411" stroke-miterlimit="10" cx="376.7" cy="67.4" r="4.6"/>
	<circle fill="none" stroke="#141411" stroke-miterlimit="10" cx="376.7" cy="39.5" r="4.6"/>
	<circle fill="none" stroke="#141411" stroke-miterlimit="10" cx="402.6" cy="67.4" r="4.6"/>
	<circle fill="none" stroke="#141411" stroke-miterlimit="10" cx="299" cy="39.5" r="4.6"/>
	<circle fill="none" stroke="#141411" stroke-miterlimit="10" cx="299" cy="14.5" r="4.6"/>
	<circle fill="none" stroke="#141411" stroke-miterlimit="10" cx="195.3" cy="93.1" r="4.6"/>
	<circle fill="none" stroke="#141411" stroke-miterlimit="10" cx="195.3" cy="67.4" r="4.6"/>
	<circle fill="none" stroke="#141411" stroke-miterlimit="10" cx="247.2" cy="44.1" r="4.6"/>
	<circle fill="none" stroke="#141411" stroke-miterlimit="10" cx="221.2" cy="93.1" r="4.6"/>
	<circle fill="none" stroke="#141411" stroke-miterlimit="10" cx="247" cy="93.1" r="4.6"/>
	<circle fill="none" stroke="#141411" stroke-miterlimit="10" cx="298.8" cy="93.1" r="4.6"/>
	<circle fill="none" stroke="#141411" stroke-miterlimit="10" cx="376.5" cy="93.1" r="4.6"/>
	<circle fill="none" stroke="#141411" stroke-miterlimit="10" cx="402.4" cy="93.1" r="4.6"/>
	<circle fill="none" stroke="#141411" stroke-miterlimit="10" cx="428.2" cy="93.1" r="4.6"/>
	<circle fill="none" stroke="#141411" stroke-miterlimit="10" cx="91.7" cy="118.6" r="4.6"/>
	<circle fill="none" stroke="#141411" stroke-miterlimit="10" cx="117.6" cy="118.6" r="4.6"/>
	<circle fill="none" stroke="#141411" stroke-miterlimit="10" cx="195.3" cy="118.6" r="4.6"/>
	<circle fill="none" stroke="#141411" stroke-miterlimit="10" cx="221.2" cy="118.6" r="4.6"/>
	<circle fill="none" stroke="#141411" stroke-miterlimit="10" cx="247" cy="118.6" r="4.6"/>
	<circle fill="none" stroke="#141411" stroke-miterlimit="10" cx="298.8" cy="118.6" r="4.6"/>
	<circle fill="none" stroke="#141411" stroke-miterlimit="10" cx="350.6" cy="118.6" r="4.6"/>
	<circle fill="none" stroke="#141411" stroke-miterlimit="10" cx="402.4" cy="118.6" r="4.6"/>
	<circle fill="none" stroke="#141411" stroke-miterlimit="10" cx="14.1" cy="144.1" r="4.6"/>
	<circle fill="none" stroke="#141411" stroke-miterlimit="10" cx="40" cy="144.1" r="4.6"/>
	<circle fill="none" stroke="#141411" stroke-miterlimit="10" cx="91.7" cy="144.1" r="4.6"/>
	<circle fill="none" stroke="#141411" stroke-miterlimit="10" cx="117.6" cy="144.1" r="4.6"/>
	<circle fill="none" stroke="#141411" stroke-miterlimit="10" cx="221.2" cy="144.1" r="4.6"/>
	<circle fill="none" stroke="#141411" stroke-miterlimit="10" cx="40" cy="169.6" r="4.6"/>
	<circle fill="none" stroke="#141411" stroke-miterlimit="10" cx="91.7" cy="169.6" r="4.6"/>
	<circle fill="none" stroke="#141411" stroke-miterlimit="10" cx="221.2" cy="169.6" r="4.6"/>
	<circle fill="none" stroke="#141411" stroke-miterlimit="10" cx="40" cy="195.1" r="4.6"/>
	<circle fill="none" stroke="#141411" stroke-miterlimit="10" cx="91.7" cy="195.1" r="4.6"/>
	<circle fill="none" stroke="#141411" stroke-miterlimit="10" cx="221.2" cy="195.1" r="4.6"/>
	<circle fill="none" stroke="#141411" stroke-miterlimit="10" cx="40" cy="220.7" r="4.6"/>
</g>
<g id="_x33_">
	<circle fill="none" stroke="#141411" stroke-miterlimit="10" cx="324.7" cy="297.2" r="4.6"/>
	<circle fill="none" stroke="#141411" stroke-miterlimit="10" cx="376.7" cy="271.7" r="4.6"/>
	<circle fill="none" stroke="#141411" stroke-miterlimit="10" cx="376.7" cy="297.2" r="4.6"/>
	<circle fill="none" stroke="#141411" stroke-miterlimit="10" cx="402.6" cy="271.7" r="4.6"/>
	<circle fill="none" stroke="#141411" stroke-miterlimit="10" cx="402.6" cy="297.2" r="4.6"/>
	<circle fill="none" stroke="#141411" stroke-miterlimit="10" cx="428.2" cy="297.2" r="4.6"/>
	<circle fill="none" stroke="#141411" stroke-miterlimit="10" cx="324.7" cy="322.7" r="4.6"/>
	<circle fill="none" stroke="#141411" stroke-miterlimit="10" cx="376.5" cy="322.7" r="4.6"/>
	<circle fill="none" stroke="#141411" stroke-miterlimit="10" cx="428.2" cy="322.7" r="4.6"/>
	<circle fill="none" stroke="#141411" stroke-miterlimit="10" cx="376.5" cy="348.3" r="4.6"/>
	<circle fill="none" stroke="#141411" stroke-miterlimit="10" cx="376.5" cy="118.6" r="4.6"/>
	<circle fill="none" stroke="#141411" stroke-miterlimit="10" cx="428.2" cy="118.6" r="4.6"/>
	<circle fill="none" stroke="#141411" stroke-miterlimit="10" cx="195.3" cy="144.1" r="4.6"/>
	<circle fill="none" stroke="#141411" stroke-miterlimit="10" cx="247" cy="144.1" r="4.6"/>
	<circle fill="none" stroke="#141411" stroke-miterlimit="10" cx="298.8" cy="144.1" r="4.6"/>
	<circle fill="none" stroke="#141411" stroke-miterlimit="10" cx="350.6" cy="144.1" r="4.6"/>
	<circle fill="none" stroke="#141411" stroke-miterlimit="10" cx="117.6" cy="169.6" r="4.6"/>
	<circle fill="none" stroke="#141411" stroke-miterlimit="10" cx="143.5" cy="169.6" r="4.6"/>
	<circle fill="none" stroke="#141411" stroke-miterlimit="10" cx="169.4" cy="169.6" r="4.6"/>
	<circle fill="none" stroke="#141411" stroke-miterlimit="10" cx="195.3" cy="169.6" r="4.6"/>
	<circle fill="none" stroke="#141411" stroke-miterlimit="10" cx="247" cy="169.6" r="4.6"/>
	<circle fill="none" stroke="#141411" stroke-miterlimit="10" cx="298.8" cy="169.6" r="4.6"/>
	<circle fill="none" stroke="#141411" stroke-miterlimit="10" cx="324.7" cy="169.6" r="4.6"/>
	<circle fill="none" stroke="#141411" stroke-miterlimit="10" cx="65.9" cy="195.1" r="4.6"/>
	<circle fill="none" stroke="#141411" stroke-miterlimit="10" cx="117.6" cy="195.1" r="4.6"/>
	<circle fill="none" stroke="#141411" stroke-miterlimit="10" cx="143.5" cy="195.1" r="4.6"/>
	<circle fill="none" stroke="#141411" stroke-miterlimit="10" cx="169.4" cy="195.1" r="4.6"/>
	<circle fill="none" stroke="#141411" stroke-miterlimit="10" cx="247" cy="195.1" r="4.6"/>
	<circle fill="none" stroke="#141411" stroke-miterlimit="10" cx="298.8" cy="195.1" r="4.6"/>
	<circle fill="none" stroke="#141411" stroke-miterlimit="10" cx="324.7" cy="195.1" r="4.6"/>
	<circle fill="none" stroke="#141411" stroke-miterlimit="10" cx="350.6" cy="195.1" r="4.6"/>
	<circle fill="none" stroke="#141411" stroke-miterlimit="10" cx="65.9" cy="220.7" r="4.6"/>
	<circle fill="none" stroke="#141411" stroke-miterlimit="10" cx="143.5" cy="220.7" r="4.6"/>
	<circle fill="none" stroke="#141411" stroke-miterlimit="10" cx="247" cy="220.7" r="4.6"/>
	<circle fill="none" stroke="#141411" stroke-miterlimit="10" cx="298.8" cy="220.7" r="4.6"/>
	<circle fill="none" stroke="#141411" stroke-miterlimit="10" cx="324.7" cy="220.7" r="4.6"/>
	<circle fill="none" stroke="#141411" stroke-miterlimit="10" cx="65.9" cy="246.2" r="4.6"/>
	<circle fill="none" stroke="#141411" stroke-miterlimit="10" cx="298.8" cy="246.2" r="4.6"/>
	<circle fill="none" stroke="#141411" stroke-miterlimit="10" cx="324.7" cy="246.2" r="4.6"/>
	<circle fill="none" stroke="#141411" stroke-miterlimit="10" cx="350.8" cy="220.7" r="4.6"/>
	<circle fill="none" stroke="#141411" stroke-miterlimit="10" cx="350.8" cy="246.2" r="4.6"/>
	<circle fill="none" stroke="#141411" stroke-miterlimit="10" cx="376.5" cy="246.2" r="4.6"/>
	<circle fill="none" stroke="#141411" stroke-miterlimit="10" cx="298.8" cy="271.7" r="4.6"/>
	<circle fill="none" stroke="#141411" stroke-miterlimit="10" cx="324.7" cy="271.7" r="4.6"/>
</g>
<g id="_x34_">
	<circle fill="none" stroke="#141411" stroke-miterlimit="10" cx="350.6" cy="271.7" r="4.6"/>
	<circle fill="none" stroke="#141411" stroke-miterlimit="10" cx="272.9" cy="297.2" r="4.6"/>
	<circle fill="none" stroke="#141411" stroke-miterlimit="10" cx="298.8" cy="297.2" r="4.6"/>
	<circle fill="none" stroke="#141411" stroke-miterlimit="10" cx="350.6" cy="297.2" r="4.6"/>
	<circle fill="none" stroke="#141411" stroke-miterlimit="10" cx="272.9" cy="322.7" r="4.6"/>
	<circle fill="none" stroke="#141411" stroke-miterlimit="10" cx="298.8" cy="322.7" r="4.6"/>
	<circle fill="none" stroke="#141411" stroke-miterlimit="10" cx="402.4" cy="322.7" r="4.6"/>
	<circle fill="none" stroke="#141411" stroke-miterlimit="10" cx="272.9" cy="348.3" r="4.6"/>
	<circle fill="none" stroke="#141411" stroke-miterlimit="10" cx="402.4" cy="348.3" r="4.6"/>
	<circle fill="none" stroke="#141411" stroke-miterlimit="10" cx="428.2" cy="348.3" r="4.6"/>
	<circle fill="none" stroke="#141411" stroke-miterlimit="10" cx="272.9" cy="373.8" r="4.6"/>
	<circle fill="none" stroke="#141411" stroke-miterlimit="10" cx="376.5" cy="373.8" r="4.6"/>
	<circle fill="none" stroke="#141411" stroke-miterlimit="10" cx="402.4" cy="373.8" r="4.6"/>
	<circle fill="none" stroke="#141411" stroke-miterlimit="10" cx="428.2" cy="373.8" r="4.6"/>
	<circle fill="none" stroke="#141411" stroke-miterlimit="10" cx="454.1" cy="373.8" r="4.6"/>
	<circle fill="none" stroke="#141411" stroke-miterlimit="10" cx="376.5" cy="399.3" r="4.6"/>
	<circle fill="none" stroke="#141411" stroke-miterlimit="10" cx="402.4" cy="399.3" r="4.6"/>
	<circle fill="none" stroke="#141411" stroke-miterlimit="10" cx="428.2" cy="399.3" r="4.6"/>
	<circle fill="none" stroke="#141411" stroke-miterlimit="10" cx="454.1" cy="399.3" r="4.6"/>
	<circle fill="none" stroke="#141411" stroke-miterlimit="10" cx="376.5" cy="424.8" r="4.6"/>
	<circle fill="none" stroke="#141411" stroke-miterlimit="10" cx="428.2" cy="424.8" r="4.6"/>
	<circle fill="none" stroke="#141411" stroke-miterlimit="10" cx="454.1" cy="424.8" r="4.6"/>
	<circle fill="none" stroke="#141411" stroke-miterlimit="10" cx="480" cy="424.8" r="4.6"/>
	<circle fill="none" stroke="#141411" stroke-miterlimit="10" cx="505.9" cy="424.8" r="4.6"/>
	<circle fill="none" stroke="#141411" stroke-miterlimit="10" cx="531.8" cy="424.8" r="4.6"/>
	<circle fill="none" stroke="#141411" stroke-miterlimit="10" cx="195.3" cy="195.1" r="4.6"/>
	<circle fill="none" stroke="#141411" stroke-miterlimit="10" cx="91.7" cy="220.7" r="4.6"/>
	<circle fill="none" stroke="#141411" stroke-miterlimit="10" cx="117.6" cy="220.7" r="4.6"/>
	<circle fill="none" stroke="#141411" stroke-miterlimit="10" cx="169.4" cy="220.7" r="4.6"/>
	<circle fill="none" stroke="#141411" stroke-miterlimit="10" cx="195.3" cy="220.7" r="4.6"/>
	<circle fill="none" stroke="#141411" stroke-miterlimit="10" cx="221.2" cy="220.7" r="4.6"/>
	<circle fill="none" stroke="#141411" stroke-miterlimit="10" cx="195.3" cy="246.2" r="4.6"/>
	<circle fill="none" stroke="#141411" stroke-miterlimit="10" cx="221.2" cy="246.2" r="4.6"/>
	<circle fill="none" stroke="#141411" stroke-miterlimit="10" cx="247" cy="246.2" r="4.6"/>
	<circle fill="none" stroke="#141411" stroke-miterlimit="10" cx="272.9" cy="246.2" r="4.6"/>
	<circle fill="none" stroke="#141411" stroke-miterlimit="10" cx="247" cy="271.7" r="4.6"/>
	<circle fill="none" stroke="#141411" stroke-miterlimit="10" cx="272.9" cy="271.7" r="4.6"/>
	<circle fill="none" stroke="#141411" stroke-miterlimit="10" cx="428.2" cy="450.3" r="4.6"/>
	<circle fill="none" stroke="#141411" stroke-miterlimit="10" cx="480" cy="450.3" r="4.6"/>
	<circle fill="none" stroke="#141411" stroke-miterlimit="10" cx="505.9" cy="450.3" r="4.6"/>
	<circle fill="none" stroke="#141411" stroke-miterlimit="10" cx="531.8" cy="450.3" r="4.6"/>
	<circle fill="none" stroke="#141411" stroke-miterlimit="10" cx="557.7" cy="424.8" r="4.6"/>
	<circle fill="none" stroke="#141411" stroke-miterlimit="10" cx="557.7" cy="450.3" r="4.6"/>
	<circle fill="none" stroke="#141411" stroke-miterlimit="10" cx="428.2" cy="475.9" r="4.6"/>
	<circle fill="none" stroke="#141411" stroke-miterlimit="10" cx="480" cy="475.9" r="4.6"/>
	<circle fill="none" stroke="#141411" stroke-miterlimit="10" cx="531.8" cy="475.9" r="4.6"/>
	<circle fill="none" stroke="#141411" stroke-miterlimit="10" cx="480" cy="501.4" r="4.6"/>
	<circle fill="none" stroke="#141411" stroke-miterlimit="10" cx="531.8" cy="501.4" r="4.6"/>
	<circle fill="none" stroke="#141411" stroke-miterlimit="10" cx="583.6" cy="501.4" r="4.6"/>
	<circle fill="none" stroke="#141411" stroke-miterlimit="10" cx="609.4" cy="501.4" r="4.6"/>
	<circle fill="none" stroke="#141411" stroke-miterlimit="10" cx="531.8" cy="526.9" r="4.6"/>
	<circle fill="none" stroke="#141411" stroke-miterlimit="10" cx="583.6" cy="526.9" r="4.6"/>
	<circle fill="none" stroke="#141411" stroke-miterlimit="10" cx="635.3" cy="526.9" r="4.6"/>
	<circle fill="none" stroke="#141411" stroke-miterlimit="10" cx="531.8" cy="552.4" r="4.6"/>
	<circle fill="none" stroke="#141411" stroke-miterlimit="10" cx="635.3" cy="552.4" r="4.6"/>
</g>
<g id="_x35_">
	<circle fill="none" stroke="#141411" stroke-miterlimit="10" cx="247" cy="297.2" r="4.6"/>
	<circle fill="none" stroke="#141411" stroke-miterlimit="10" cx="247" cy="322.7" r="4.6"/>
	<circle fill="none" stroke="#141411" stroke-miterlimit="10" cx="350.6" cy="322.7" r="4.6"/>
	<circle fill="none" stroke="#141411" stroke-miterlimit="10" cx="324.7" cy="348.3" r="4.6"/>
	<circle fill="none" stroke="#141411" stroke-miterlimit="10" cx="350.6" cy="348.3" r="4.6"/>
	<circle fill="none" stroke="#141411" stroke-miterlimit="10" cx="324.7" cy="373.8" r="4.6"/>
	<circle fill="none" stroke="#141411" stroke-miterlimit="10" cx="350.6" cy="373.8" r="4.6"/>
	<circle fill="none" stroke="#141411" stroke-miterlimit="10" cx="350.6" cy="399.3" r="4.6"/>
	<circle fill="none" stroke="#141411" stroke-miterlimit="10" cx="350.6" cy="424.8" r="4.6"/>
	<circle fill="none" stroke="#141411" stroke-miterlimit="10" cx="402.4" cy="424.8" r="4.6"/>
	<circle fill="none" stroke="#141411" stroke-miterlimit="10" cx="454.1" cy="450.3" r="4.6"/>
	<circle fill="none" stroke="#141411" stroke-miterlimit="10" cx="454.1" cy="475.9" r="4.6"/>
	<circle fill="none" stroke="#141411" stroke-miterlimit="10" cx="505.9" cy="475.9" r="4.6"/>
	<circle fill="none" stroke="#141411" stroke-miterlimit="10" cx="169.4" cy="501.4" r="4.6"/>
	<circle fill="none" stroke="#141411" stroke-miterlimit="10" cx="195.3" cy="501.4" r="4.6"/>
	<circle fill="none" stroke="#141411" stroke-miterlimit="10" cx="454.1" cy="501.4" r="4.6"/>
	<circle fill="none" stroke="#141411" stroke-miterlimit="10" cx="557.7" cy="501.4" r="4.6"/>
	<circle fill="none" stroke="#141411" stroke-miterlimit="10" cx="169.4" cy="526.9" r="4.6"/>
	<circle fill="none" stroke="#141411" stroke-miterlimit="10" cx="195.3" cy="526.9" r="4.6"/>
	<circle fill="none" stroke="#141411" stroke-miterlimit="10" cx="454.1" cy="526.9" r="4.6"/>
	<circle fill="none" stroke="#141411" stroke-miterlimit="10" cx="557.7" cy="526.9" r="4.6"/>
	<circle fill="none" stroke="#141411" stroke-miterlimit="10" cx="609.4" cy="526.9" r="4.6"/>
	<circle fill="none" stroke="#141411" stroke-miterlimit="10" cx="169.4" cy="552.4" r="4.6"/>
	<circle fill="none" stroke="#141411" stroke-miterlimit="10" cx="557.7" cy="552.4" r="4.6"/>
	<circle fill="none" stroke="#141411" stroke-miterlimit="10" cx="583.6" cy="552.4" r="4.6"/>
	<circle fill="none" stroke="#141411" stroke-miterlimit="10" cx="169.4" cy="577.9" r="4.6"/>
	<circle fill="none" stroke="#141411" stroke-miterlimit="10" cx="531.8" cy="577.9" r="4.6"/>
	<circle fill="none" stroke="#141411" stroke-miterlimit="10" cx="557.7" cy="577.9" r="4.6"/>
	<circle fill="none" stroke="#141411" stroke-miterlimit="10" cx="583.6" cy="577.9" r="4.6"/>
	<circle fill="none" stroke="#141411" stroke-miterlimit="10" cx="531.8" cy="603.5" r="4.6"/>
	<circle fill="none" stroke="#141411" stroke-miterlimit="10" cx="557.7" cy="603.5" r="4.6"/>
	<circle fill="none" stroke="#141411" stroke-miterlimit="10" cx="531.8" cy="629" r="4.6"/>
	<circle fill="none" stroke="#141411" stroke-miterlimit="10" cx="531.8" cy="654.5" r="4.6"/>
	<circle fill="none" stroke="#141411" stroke-miterlimit="10" cx="350.6" cy="680" r="4.6"/>
	<circle fill="none" stroke="#141411" stroke-miterlimit="10" cx="402.4" cy="680" r="4.6"/>
	<circle fill="none" stroke="#141411" stroke-miterlimit="10" cx="350.6" cy="705.5" r="4.6"/>
	<circle fill="none" stroke="#141411" stroke-miterlimit="10" cx="402.4" cy="705.5" r="4.6"/>
	<circle fill="none" stroke="#141411" stroke-miterlimit="10" cx="661.2" cy="552.4" r="4.6"/>
	<circle fill="none" stroke="#141411" stroke-miterlimit="10" cx="661.2" cy="577.9" r="4.6"/>
</g>
<g id="_x36_">
	<circle fill="none" stroke="#141411" stroke-miterlimit="10" cx="298.8" cy="348.3" r="4.6"/>
	<circle fill="none" stroke="#141411" stroke-miterlimit="10" cx="298.8" cy="373.8" r="4.6"/>
	<circle fill="none" stroke="#141411" stroke-miterlimit="10" cx="298.8" cy="399.3" r="4.6"/>
	<circle fill="none" stroke="#141411" stroke-miterlimit="10" cx="402.4" cy="450.3" r="4.6"/>
	<circle fill="none" stroke="#141411" stroke-miterlimit="10" cx="505.9" cy="501.4" r="4.6"/>
	<circle fill="none" stroke="#141411" stroke-miterlimit="10" cx="143.5" cy="526.9" r="4.6"/>
	<circle fill="none" stroke="#141411" stroke-miterlimit="10" cx="480" cy="526.9" r="4.6"/>
	<circle fill="none" stroke="#141411" stroke-miterlimit="10" cx="505.9" cy="526.9" r="4.6"/>
	<circle fill="none" stroke="#141411" stroke-miterlimit="10" cx="143.5" cy="552.4" r="4.6"/>
	<circle fill="none" stroke="#141411" stroke-miterlimit="10" cx="195.3" cy="552.4" r="4.6"/>
	<circle fill="none" stroke="#141411" stroke-miterlimit="10" cx="505.9" cy="552.4" r="4.6"/>
	<circle fill="none" stroke="#141411" stroke-miterlimit="10" cx="195.3" cy="577.9" r="4.6"/>
	<circle fill="none" stroke="#141411" stroke-miterlimit="10" cx="557.7" cy="629" r="4.6"/>
	<circle fill="none" stroke="#141411" stroke-miterlimit="10" cx="557.7" cy="654.5" r="4.6"/>
	<circle fill="none" stroke="#141411" stroke-miterlimit="10" cx="376.5" cy="680" r="4.6"/>
	<circle fill="none" stroke="#141411" stroke-miterlimit="10" cx="428.2" cy="680" r="4.6"/>
	<circle fill="none" stroke="#141411" stroke-miterlimit="10" cx="454.1" cy="680" r="4.6"/>
	<circle fill="none" stroke="#141411" stroke-miterlimit="10" cx="480" cy="680" r="4.6"/>
	<circle fill="none" stroke="#141411" stroke-miterlimit="10" cx="376.5" cy="705.5" r="4.6"/>
	<circle fill="none" stroke="#141411" stroke-miterlimit="10" cx="454.1" cy="705.5" r="4.6"/>
	<circle fill="none" stroke="#141411" stroke-miterlimit="10" cx="454.1" cy="731.1" r="4.6"/>
	<circle fill="none" stroke="#141411" stroke-miterlimit="10" cx="635.3" cy="577.9" r="4.6"/>
</g>
<g id="_x37_">
	<circle fill="none" stroke="#141411" stroke-miterlimit="10" cx="324.7" cy="399.3" r="4.6"/>
	<circle fill="none" stroke="#141411" stroke-miterlimit="10" cx="428.2" cy="501.4" r="4.6"/>
	<circle fill="none" stroke="#141411" stroke-miterlimit="10" cx="143.5" cy="577.9" r="4.6"/>
	<circle fill="none" stroke="#141411" stroke-miterlimit="10" cx="143.5" cy="603.5" r="4.6"/>
	<circle fill="none" stroke="#141411" stroke-miterlimit="10" cx="169.4" cy="603.5" r="4.6"/>
	<circle fill="none" stroke="#141411" stroke-miterlimit="10" cx="583.6" cy="603.5" r="4.6"/>
	<circle fill="none" stroke="#141411" stroke-miterlimit="10" cx="531.8" cy="680" r="4.6"/>
	<circle fill="none" stroke="#141411" stroke-miterlimit="10" cx="376.5" cy="731.1" r="4.6"/>
	<circle fill="none" stroke="#141411" stroke-miterlimit="10" cx="428.2" cy="705.5" r="4.6"/>
	<circle fill="none" stroke="#141411" stroke-miterlimit="10" cx="402.4" cy="731.1" r="4.6"/>
	<circle fill="none" stroke="#141411" stroke-miterlimit="10" cx="428.2" cy="731.1" r="4.6"/>
	<circle fill="none" stroke="#141411" stroke-miterlimit="10" cx="454.1" cy="754.9" r="4.6"/>
	<circle fill="none" stroke="#141411" stroke-miterlimit="10" cx="480" cy="754.9" r="4.6"/>
</g>
</svg>
