<?xml version="1.0" encoding="utf-8"?>
<!-- Generator: Adobe Illustrator 16.0.0, SVG Export Plug-In . SVG Version: 6.00 Build 0)  -->
<!DOCTYPE svg PUBLIC "-//W3C//DTD SVG 1.1//EN" "http://www.w3.org/Graphics/SVG/1.1/DTD/svg11.dtd">
<svg version="1.1" id="Layer_1" xmlns="http://www.w3.org/2000/svg" xmlns:xlink="http://www.w3.org/1999/xlink" x="0px" y="0px"
	 width="1280px" height="694.466px" viewBox="0 57.607 1280 694.466" enable-background="new 0 57.607 1280 694.466"
	 xml:space="preserve" >
<rect x="-1" y="51.608" fill="#333333" width="1280" height="707.964"/>
<text transform="matrix(1 0 0 1 443.25 150.6787)" fill="#FFFFFF" font-family="'Karla', sans-serif" font-size="22.5318">.Stellar Wind</text>
<text transform="matrix(1 0 0 1 443.25 183.0684)" fill="#FFFFFF" font-family="'Karla', sans-serif" font-size="22.5318">.TEMPEST</text>
<text transform="matrix(1 0 0 1 443.25 215.458)" fill="#FFFFFF" font-family="'Karla', sans-serif" font-size="22.5318">.TURBINE</text>
<text transform="matrix(1 0 0 1 443.25 247.8467)" fill="#FFFFFF" font-family="'Karla', sans-serif" font-size="22.5318">.TURBULENCE</text>
<text transform="matrix(1 0 0 1 72.9692 533.8916)" fill="#FFFFFF" font-family="'Karla', sans-serif" font-size="22.5318">.MUSCULAR</text>
<text transform="matrix(1 0 0 1 71.6172 566.2812)" fill="#FFFFFF" font-family="'Karla', sans-serif" font-size="22.5318">.CARNIVORE</text>
<text transform="matrix(1 0 0 1 865.2637 599.5898)" fill="#FFFFFF" font-family="'Karla', sans-serif" font-size="22.5318">.CLEAN IT project</text>
<text transform="matrix(1 0 0 1 1041.2939 423.5605)" fill="#FFFFFF" font-family="'Karla', sans-serif" font-size="22.5318">.COLLABORATIVE</text>
<text transform="matrix(1 0 0 1 1041.2939 455.9502)" fill="#FFFFFF" font-family="'Karla', sans-serif" font-size="22.5318">.ADVISE</text>
<text transform="matrix(1 0 0 1 206.2891 338.6807)" fill="#FFFFFF" font-family="'Karla', sans-serif" font-size="22.5318">.MALINTENT</text>
<text transform="matrix(1 0 0 1 206.2891 371.0703)" fill="#FFFFFF" font-family="'Karla', sans-serif" font-size="22.5318">.Federal Trojan Horse</text>
<text transform="matrix(1 0 0 1 471.4146 533.8916)" fill="#FFFFFF" font-family="'Karla', sans-serif" font-size="22.5318">.MATRIX</text>
<g>
	<text transform="matrix(1 0 0 1 651.292 532.7217)" fill="#FFFFFF" font-family="'Karla', sans-serif" font-size="22.5318">.SHAMROCK</text>
</g>
<text transform="matrix(1 0 0 1 775.8457 248.2891)" fill="#FFFFFF" font-family="'Karla', sans-serif" font-size="22.5318">.DISHFIRE</text>
<text transform="matrix(1 0 0 1 775.8457 280.6787)" fill="#FFFFFF" font-family="'Karla', sans-serif" font-size="22.5318">.ONYX</text>
<text transform="matrix(1 0 0 1 775.8457 313.0684)" fill="#FFFFFF" font-family="'Karla', sans-serif" font-size="22.5318">.MYSTIC</text>
<g>
	<text transform="matrix(1 0 0 1 1041.2939 281.0176)" fill="#FFFFFF" font-family="'Karla', sans-serif" font-size="22.5318">.PRISM</text>
	<text transform="matrix(1 0 0 1 1041.2939 313.4072)" fill="#FFFFFF" font-family="'Karla', sans-serif" font-size="22.5318">.Magic Lantern</text>
</g>
<g>
	<text transform="matrix(1 0 0 1 831.5459 532.7217)" fill="#FFFFFF" font-family="'Karla', sans-serif" font-size="22.5318">.ECHELON</text>
	<text transform="matrix(1 0 0 1 831.5459 565.1113)" fill="#FFFFFF" font-family="'Karla', sans-serif" font-size="22.5318">.TEMPORA</text>
</g>
<text transform="matrix(1 0 0 1 651.293 599.5898)" fill="#FFFFFF" font-family="'Karla', sans-serif" font-size="22.5318">.MINARET</text>
<g>
	<text transform="matrix(1 0 0 1 532.9995 564.3818)" fill="#FFFFFF" font-family="'Karla', sans-serif" font-size="22.5318">.Squeaky Dolphin</text>
</g>
<g>
	<text transform="matrix(1 0 0 1 623.1274 102.249)" fill="#FFFFFF" font-family="'Karla', sans-serif" font-size="22.5318">.Room 641A</text>
	<text transform="matrix(1 0 0 1 623.1274 134.6387)" fill="#FFFFFF" font-family="'Karla', sans-serif" font-size="22.5318">.A-space</text>
</g>
<text transform="matrix(1 0 0 1 651.292 423.5615)" fill="#FFFFFF" font-family="'Karla', sans-serif" font-size="22.5318">.Trailblazer project</text>
<text transform="matrix(1 0 0 1 651.292 455.9512)" fill="#FFFFFF" font-family="'Karla', sans-serif" font-size="22.5318">.BULLRUN</text>
<text transform="matrix(1 0 0 1 374.478 423.5605)" fill="#FFFFFF" font-family="'Karla', sans-serif" font-size="22.5318">.TRAP WIRE</text>
<text transform="matrix(1 0 0 1 374.478 455.9502)" fill="#FFFFFF" font-family="'Karla', sans-serif" font-size="22.5318">.Thin Thread</text>
<rect x="58.5" y="498.5" fill="none" stroke="#00A1AF" stroke-miterlimit="10" width="147" height="91"/>
<rect x="192.5" y="303.5" fill="none" stroke="#00A1AF" stroke-miterlimit="10" width="238" height="127"/>
<rect x="417.5" y="114.5" fill="none" stroke="#5B6378" stroke-miterlimit="10" width="304" height="160"/>
<rect x="436.5" y="71.5" fill="none" stroke="#88445D" stroke-miterlimit="10" width="321" height="88"/>
<rect x="288.5" y="348.5" fill="none" stroke="#447286" stroke-miterlimit="10" width="223" height="125"/>
<rect x="634.5" y="398.5" fill="none" stroke="#88445D" stroke-miterlimit="10" width="222" height="74"/>
<rect x="753.5" y="218.5" fill="none" stroke="#9F344F" stroke-miterlimit="10" width="140" height="114"/>
<rect x="1023.5" y="248.5" fill="none" stroke="#CC1534" stroke-miterlimit="10" width="183" height="83"/>
<rect x="1023.5" y="395.5" fill="none" stroke="#CC1534" stroke-miterlimit="10" width="197" height="75"/>
<text transform="matrix(1 0 0 1 91.5176 729.8369)" fill="#FFFFFF" font-family="'Karla', sans-serif" font-size="19.7153">negative</text>
<text transform="matrix(1 0 0 1 1075.874 729.8369)" fill="#FFFFFF" font-family="'Karla', sans-serif" font-size="19.7153">positive</text>
<rect x="82.5" y="704.5" fill="none" stroke="#00A1AF" stroke-miterlimit="10" width="98" height="38"/>
<rect x="1064.5" y="704.5" fill="none" stroke="#CC1534" stroke-miterlimit="10" width="93" height="38"/>
<polygon fill="#00A1AF" points="125.962,696 131.654,686.142 137.345,696 "/>
<polygon fill="#CC1534" points="1106.095,697 1111.785,687.143 1117.477,697 "/>
</svg>
