<?xml version="1.0" encoding="utf-8"?>
<!-- Generator: Adobe Illustrator 16.0.0, SVG Export Plug-In . SVG Version: 6.00 Build 0)  -->
<!DOCTYPE svg PUBLIC "-//W3C//DTD SVG 1.1//EN" "http://www.w3.org/Graphics/SVG/1.1/DTD/svg11.dtd">
<svg version="1.1" id="Livello_1" xmlns="http://www.w3.org/2000/svg" xmlns:xlink="http://www.w3.org/1999/xlink" x="0px" y="0px"
	 width="1280px" height="707.39px" viewBox="0 0 1280 707.39" enable-background="new 0 0 1280 707.39" xml:space="preserve">
<g id="Livello_3">
	<g>
		<polygon fill="#542E63" points="801.777,559.189 595.311,232.551 429.384,535.787 		"/>
	</g>
	<g>
		<polygon fill="#9BA705" points="595.311,415.234 565.299,457.318 797.745,556.863 		"/>
	</g>
</g>
<g>
	<path fill="#82A01C" d="M616.681,125.029c0,3.221-2.617,5.832-5.836,5.832c-3.22,0-5.833-2.611-5.833-5.832
		c0-3.222,2.613-5.834,5.833-5.834C614.064,119.197,616.681,121.808,616.681,125.029z"/>
</g>
<g>
	<path fill="#542E63" d="M616.681,147.029c0,3.221-2.617,5.832-5.836,5.832c-3.22,0-5.833-2.611-5.833-5.832
		c0-3.222,2.613-5.834,5.833-5.834C614.064,141.197,616.681,143.808,616.681,147.029z"/>
</g>
<g>
	<rect x="632.316" y="119.125" fill="none" width="18.021" height="14.884"/>
</g>
<g enable-background="new    ">
	<g>
		<path d="M624.51,123.783c0.611-0.1,1.197-0.151,1.754-0.151c1.146,0,2.062,0.273,2.741,0.827c0.681,0.551,1.021,1.34,1.021,2.375
			c0,1.123-0.379,2.049-1.142,2.775c-0.808,0.761-1.821,1.141-3.048,1.141c-1.213,0-2.186-0.307-2.912-0.92
			c-0.762-0.634-1.152-1.507-1.175-2.622h2.062c0,0.58,0.191,1.005,0.579,1.277c0.386,0.271,0.881,0.408,1.481,0.408
			c0.602,0,1.1-0.197,1.489-0.587c0.393-0.391,0.587-0.882,0.587-1.472c0-1.124-0.76-1.686-2.28-1.686h-3.371l0.51-5.687h6.625v1.84
			h-4.685L624.51,123.783z"/>
	</g>
	<g>
		<path d="M635.949,121.06c-1.234,0-1.958,0.472-2.161,1.413h-2.112c0.115-1.09,0.56-1.912,1.329-2.469
			c0.727-0.508,1.68-0.767,2.859-0.767c1.215,0,2.203,0.285,2.963,0.853c0.796,0.58,1.191,1.323,1.191,2.229
			c0,0.568-0.151,1.059-0.46,1.473c-0.307,0.415-0.76,0.725-1.361,0.927c0.671,0.227,1.207,0.565,1.608,1.013
			c0.402,0.448,0.604,0.963,0.604,1.541c0,0.579-0.104,1.072-0.314,1.48c-0.211,0.41-0.51,0.761-0.895,1.056
			c-0.817,0.625-1.879,0.938-3.186,0.938c-1.25,0-2.299-0.317-3.149-0.953c-0.954-0.692-1.432-1.612-1.432-2.759h2.146
			c0.035,0.58,0.271,1.035,0.707,1.362c0.438,0.329,1.01,0.495,1.71,0.495c0.704,0,1.252-0.155,1.644-0.468
			c0.393-0.312,0.587-0.71,0.587-1.191c0-0.485-0.179-0.86-0.534-1.134c-0.357-0.271-0.923-0.408-1.695-0.408h-1.463v-1.583h1.26
			c0.646,0,1.152-0.142,1.517-0.417c0.362-0.278,0.546-0.644,0.546-1.098c0-0.453-0.156-0.823-0.469-1.107
			C637.078,121.203,636.598,121.06,635.949,121.06z"/>
	</g>
</g>
<g>
	<rect x="657.689" y="130.896" fill="none" width="23.708" height="17.554"/>
</g>
<g enable-background="new    ">
	<g>
		<path d="M629.632,141.162v7.264h1.998v1.787h-1.998v2.544h-2.065v-2.544h-5.814v-1.573l5.867-7.476L629.632,141.162
			L629.632,141.162z M624.224,148.637h3.447v-4.385L624.224,148.637z"/>
	</g>
	<g>
		<path d="M632.619,142.151c0.883-0.129,1.661-0.442,2.332-0.936h1.572v11.54h-2.087v-9.048c-0.6,0.293-1.206,0.442-1.817,0.442
			V142.151L632.619,142.151z"/>
	</g>
	<g>
		<path d="M643.365,151.077c1.79,0,2.687-1.473,2.687-4.418c0-0.32-0.024-0.667-0.073-1.043c-0.151,0.919-0.532,1.613-1.146,2.086
			c-0.542,0.41-1.231,0.619-2.067,0.619c-1.072,0-1.947-0.339-2.625-1.016c-0.68-0.678-1.017-1.547-1.017-2.606
			c0-1.085,0.384-1.962,1.146-2.633c0.768-0.671,1.764-1.009,2.986-1.009c1.393,0,2.552,0.53,3.481,1.59
			c0.941,1.084,1.413,2.481,1.413,4.19c0,2.958-0.883,4.871-2.648,5.742c-0.591,0.283-1.229,0.424-1.919,0.424
			c-0.689,0-1.289-0.087-1.803-0.264c-0.513-0.177-0.957-0.425-1.335-0.743c-0.803-0.672-1.201-1.551-1.201-2.633h2.173
			c0.024,0.529,0.216,0.948,0.575,1.255C642.354,150.922,642.81,151.077,643.365,151.077z M643.274,142.962
			c-0.563,0-1.039,0.163-1.422,0.486c-0.383,0.325-0.574,0.771-0.574,1.343c0,0.572,0.19,1.016,0.574,1.333
			c0.383,0.318,0.857,0.478,1.422,0.478c0.556,0,1.025-0.166,1.413-0.495c0.392-0.354,0.584-0.796,0.584-1.327
			c0-0.541-0.192-0.983-0.584-1.324C644.31,143.13,643.843,142.962,643.274,142.962z"/>
	</g>
</g>
<g>
	<rect x="163.167" y="118.306" fill="#FFFFFF" width="174.764" height="24.96"/>
</g>
<g enable-background="new    ">
	<path fill="#1A171B" d="M196.635,122.506c1.759,0,3.168,0.53,4.229,1.59c1.059,1.059,1.588,2.479,1.588,4.256
		c0,1.777-0.529,3.198-1.588,4.256c-1.059,1.061-2.47,1.59-4.229,1.59h-3.44v-11.693h3.44V122.506z M194.662,132.916h1.971
		c1.301,0,2.336-0.431,3.104-1.292c0.768-0.861,1.153-1.955,1.153-3.282c0-1.325-0.388-2.415-1.163-3.262
		c-0.774-0.849-1.807-1.273-3.096-1.273h-1.971v9.108H194.662z"/>
	<path fill="#1A171B" d="M208.569,133.214c1.227,0,1.927-0.54,2.102-1.617h1.506c-0.136,0.891-0.529,1.583-1.18,2.073
		c-0.65,0.49-1.459,0.734-2.427,0.734c-1.19,0-2.155-0.425-2.899-1.273c-0.744-0.85-1.115-1.981-1.115-3.393
		c0-1.413,0.374-2.541,1.124-3.383c0.75-0.843,1.748-1.264,2.993-1.264s2.174,0.483,2.79,1.449c0.613,0.966,0.826,2.144,0.641,3.533
		h-6.079c0,0.917,0.224,1.672,0.67,2.259C207.136,132.919,207.764,133.214,208.569,133.214z M209.647,126.484
		c-0.286-0.149-0.633-0.223-1.041-0.223c-0.757,0-1.354,0.258-1.795,0.771c-0.44,0.514-0.696,1.157-0.771,1.924h4.741
		C210.781,127.716,210.403,126.893,209.647,126.484z"/>
	<path fill="#1A171B" d="M218.144,133.214c1.226,0,1.926-0.54,2.1-1.617h1.506c-0.136,0.891-0.53,1.583-1.18,2.073
		c-0.651,0.49-1.459,0.734-2.426,0.734c-1.191,0-2.157-0.425-2.901-1.273c-0.744-0.85-1.115-1.981-1.115-3.393
		c0-1.413,0.375-2.541,1.124-3.383c0.75-0.843,1.748-1.264,2.993-1.264c1.246,0,2.174,0.483,2.789,1.449
		c0.613,0.966,0.827,2.144,0.641,3.533h-6.079c0,0.917,0.224,1.672,0.671,2.259C216.711,132.919,217.337,133.214,218.144,133.214z
		 M219.221,126.484c-0.286-0.149-0.633-0.223-1.042-0.223c-0.756,0-1.353,0.258-1.793,0.771c-0.441,0.514-0.697,1.157-0.773,1.924
		h4.741C220.354,127.716,219.977,126.893,219.221,126.484z"/>
	<path fill="#1A171B" d="M226.026,126.67c0.583-1.054,1.454-1.58,2.61-1.58c1.158,0,2.126,0.428,2.901,1.282
		c0.774,0.855,1.162,1.982,1.162,3.383c0,1.401-0.391,2.526-1.172,3.375c-0.783,0.849-1.741,1.273-2.881,1.273
		c-1.142,0-1.983-0.428-2.529-1.283v5.446h-1.469v-13.254h1.208L226.026,126.67z M228.572,133.103c0.694,0,1.305-0.298,1.832-0.894
		c0.525-0.595,0.79-1.41,0.79-2.445c0-1.033-0.25-1.854-0.754-2.463c-0.5-0.606-1.113-0.91-1.831-0.91
		c-0.719,0-1.308,0.226-1.766,0.678s-0.7,1.063-0.726,1.833v1.691c0,0.781,0.235,1.395,0.707,1.841
		C227.294,132.879,227.877,133.103,228.572,133.103z"/>
	<path fill="#1A171B" d="M240.135,122.506l2.846,9.722l2.881-8.513h0.986l2.864,8.513l3.271-9.722h1.617l-4.129,11.693h-1.543
		l-2.546-7.491l-2.641,7.491h-1.543l-3.701-11.693H240.135z"/>
	<path fill="#1A171B" d="M259.208,133.214c1.227,0,1.927-0.54,2.102-1.617h1.506c-0.136,0.891-0.53,1.583-1.18,2.073
		c-0.65,0.49-1.459,0.734-2.428,0.734c-1.189,0-2.155-0.425-2.899-1.273c-0.744-0.85-1.116-1.981-1.116-3.393
		c0-1.413,0.374-2.541,1.124-3.383c0.75-0.843,1.748-1.264,2.993-1.264s2.174,0.483,2.789,1.449
		c0.614,0.966,0.827,2.144,0.641,3.533h-6.079c0,0.917,0.224,1.672,0.67,2.259C257.778,132.919,258.404,133.214,259.208,133.214z
		 M260.288,126.484c-0.286-0.149-0.633-0.223-1.042-0.223c-0.756,0-1.353,0.258-1.795,0.771c-0.44,0.514-0.696,1.157-0.771,1.924
		h4.741C261.422,127.716,261.045,126.893,260.288,126.484z"/>
	<path fill="#1A171B" d="M267.184,126.632c0.594-1.028,1.462-1.543,2.604-1.543c1.14,0,2.086,0.425,2.844,1.273
		c0.756,0.849,1.133,1.969,1.133,3.365s-0.384,2.522-1.151,3.383c-0.769,0.862-1.704,1.293-2.807,1.293
		c-0.594,0-1.13-0.148-1.607-0.446c-0.479-0.297-0.853-0.737-1.125-1.32l-0.334,1.561h-1.023v-12.66h1.469v5.095H267.184z
		 M269.694,126.39c-0.707,0-1.295,0.226-1.766,0.677c-0.471,0.453-0.718,1.083-0.744,1.888v1.45c0,0.817,0.245,1.472,0.734,1.962
		c0.488,0.491,1.081,0.734,1.775,0.734c0.695,0,1.294-0.309,1.803-0.921c0.508-0.613,0.762-1.428,0.762-2.444
		c0-1.015-0.252-1.828-0.754-2.435C271.004,126.695,270.401,126.39,269.694,126.39z"/>
</g>
<g>
	<circle fill="#542E63" cx="173.73" cy="128.869" r="10.563"/>
</g>
<g>
	<rect x="163.167" y="143.265" fill="#FFFFFF" width="174.764" height="24.961"/>
</g>
<g enable-background="new    ">
	<path fill="#1A171B" d="M191.448,150.148h9.091v1.264h-3.811v10.429h-1.469v-10.429h-3.812V150.148L191.448,150.148z"/>
	<path fill="#1A171B" d="M204.255,152.732c1.239,0,2.241,0.403,3.002,1.207c0.762,0.806,1.145,1.959,1.145,3.458
		c0,1.489-0.382,2.634-1.145,3.439c-0.762,0.806-1.763,1.208-3.002,1.208s-2.239-0.402-3.002-1.208
		c-0.762-0.806-1.144-1.952-1.144-3.439c0-1.499,0.382-2.651,1.144-3.458C202.016,153.135,203.016,152.732,204.255,152.732z
		 M206.914,157.389c0-1.061-0.223-1.89-0.668-2.493c-0.447-0.601-1.1-0.901-1.962-0.901c-0.861,0-1.523,0.301-1.979,0.901
		c-0.459,0.603-0.689,1.432-0.689,2.493c0,1.059,0.217,1.89,0.65,2.492c0.434,0.601,1.081,0.902,1.942,0.902
		c0.861,0,1.526-0.301,1.998-0.902C206.678,159.279,206.914,158.448,206.914,157.389z"/>
	<path fill="#1A171B" d="M214.833,154.2c-1.401,0-2.125,1.103-2.174,3.31v4.331h-1.469v-8.905h1.469v1.711
		c0.447-1.239,1.232-1.859,2.36-1.859c0.359,0,0.7,0.056,1.023,0.168l-0.074,1.432C215.595,154.262,215.219,154.2,214.833,154.2z"/>
</g>
<g>
	<circle fill="#9BA705" cx="173.73" cy="156.511" r="10.563"/>
</g>
<g enable-background="new    ">
	<path d="M512.508,119.125h2.664l3.834,11.682h-2.25l-0.811-2.52h-4.338l-0.828,2.52h-2.25L512.508,119.125z M512.148,126.684h3.276
		l-1.62-5.021L512.148,126.684z"/>
	<path d="M521.436,119.125l2.844,9.018l2.88-9.018h2.232l-4.014,11.682h-2.232l-3.96-11.682H521.436z"/>
	<path d="M531.406,119.125h7.524v1.836h-5.4v3.078h5.059v1.836h-5.059v3.078h5.4v1.854h-7.524V119.125z"/>
	<path d="M550.65,122.707c0,0.827-0.233,1.536-0.702,2.124c-0.468,0.588-1.14,0.996-2.016,1.224l3.132,4.752h-2.771l-2.574-4.554
		h-1.62v4.554h-2.124v-11.682h4.32c1.38,0,2.454,0.33,3.222,0.989C550.272,120.75,550.65,121.615,550.65,122.707z M546.096,124.831
		c0.78,0,1.368-0.178,1.764-0.531c0.396-0.353,0.594-0.822,0.594-1.404s-0.18-1.05-0.54-1.404c-0.359-0.354-0.899-0.53-1.619-0.53
		h-2.196v3.87L546.096,124.831L546.096,124.831z"/>
	<path d="M556.266,119.125h2.664l3.834,11.682h-2.25l-0.811-2.52h-4.338l-0.828,2.52h-2.25L556.266,119.125z M555.906,126.684h3.276
		l-1.62-5.021L555.906,126.684z"/>
	<path d="M571.996,128.953c-0.504,1.403-1.47,2.105-2.897,2.105c-1.464,0-2.67-0.552-3.618-1.656
		c-0.984-1.14-1.476-2.598-1.476-4.374c0-1.872,0.527-3.372,1.584-4.5c1.02-1.092,2.333-1.638,3.941-1.638
		c1.092,0,2.007,0.237,2.745,0.711c0.738,0.475,1.316,1.222,1.737,2.241l-2.178,0.504c-0.637-1.02-1.44-1.53-2.412-1.53
		c-0.889,0-1.626,0.378-2.214,1.134c-0.612,0.769-0.918,1.795-0.918,3.078c0,1.213,0.275,2.196,0.827,2.952
		c0.54,0.744,1.261,1.116,2.16,1.116c0.769,0,1.397-0.246,1.891-0.738c0.504-0.504,0.756-1.193,0.756-2.069v-0.072l-2.628-0.054
		v-1.368h4.662v6.012h-1.729L571.996,128.953z"/>
	<path d="M577,119.125h7.524v1.836h-5.4v3.078h5.059v1.836h-5.059v3.078h5.4v1.854H577V119.125z"/>
</g>
<g enable-background="new    ">
	<path d="M492.654,140.49c0.72,0,1.344,0.087,1.872,0.261c0.528,0.175,0.983,0.417,1.368,0.729c0.756,0.611,1.248,1.47,1.476,2.574
		l-2.268,0.413c-0.192-0.611-0.489-1.106-0.891-1.484c-0.402-0.378-0.903-0.567-1.503-0.567c-0.816,0-1.477,0.342-1.98,1.026
		c-0.54,0.744-0.81,1.772-0.81,3.087c0,1.313,0.239,2.34,0.72,3.078c0.479,0.738,1.134,1.106,1.962,1.106s1.452-0.2,1.872-0.603
		c0.42-0.402,0.63-0.921,0.63-1.557h2.286c0,1.308-0.417,2.318-1.251,3.032c-0.834,0.715-1.978,1.071-3.429,1.071
		c-1.549,0-2.778-0.54-3.69-1.62c-0.924-1.104-1.386-2.604-1.386-4.5c0-1.92,0.474-3.42,1.422-4.5
		C489.965,141.005,491.165,140.49,492.654,140.49z"/>
	<path d="M504.353,140.49c0.78,0,1.494,0.129,2.142,0.387c0.648,0.259,1.206,0.64,1.675,1.144c0.983,1.056,1.476,2.567,1.476,4.536
		c0,1.979-0.492,3.51-1.476,4.59c-0.937,1.008-2.215,1.512-3.834,1.512c-1.608,0-2.881-0.516-3.816-1.548
		c-0.984-1.068-1.476-2.586-1.476-4.554c0-1.992,0.491-3.517,1.476-4.572C501.443,140.988,502.721,140.49,504.353,140.49z
		 M507.448,146.583c0-1.338-0.278-2.369-0.837-3.096c-0.558-0.726-1.311-1.089-2.259-1.089s-1.704,0.363-2.268,1.089
		c-0.564,0.727-0.847,1.758-0.847,3.096c0,1.339,0.282,2.364,0.847,3.078c0.563,0.714,1.319,1.071,2.268,1.071
		s1.701-0.357,2.259-1.071C507.17,148.947,507.448,147.921,507.448,146.583z"/>
	<path d="M515.206,140.724l3.204,6.947l3.204-6.947h2.935v11.682h-2.143v-8.874l-3.312,7.596h-1.387l-3.42-7.848v9.126h-2.124
		v-11.682H515.206z"/>
	<path d="M530.939,140.724l3.204,6.947l3.204-6.947h2.934v11.682h-2.142v-8.874l-3.313,7.596h-1.386l-3.42-7.848v9.126h-2.124
		v-11.682H530.939z"/>
	<path d="M543.611,140.724h7.524v1.836h-5.4v3.078h5.059v1.836h-5.059v3.078h5.4v1.854h-7.524V140.724z"/>
	<path d="M556.463,140.724l5.147,8.279v-8.279h2.124v11.682h-2.16l-5.31-8.568v8.568h-2.124v-11.682H556.463z"/>
	<path d="M565.517,140.724h9.36v1.836h-3.618v9.846h-2.124v-9.846h-3.618V140.724z"/>
	<path d="M582.797,143.946c-0.192-1.02-0.912-1.53-2.16-1.53c-0.612,0-1.089,0.123-1.432,0.369
		c-0.342,0.246-0.513,0.543-0.513,0.891c0,0.349,0.111,0.621,0.333,0.819c0.222,0.198,0.567,0.381,1.035,0.549l2.538,0.99
		c0.864,0.336,1.53,0.759,1.998,1.27c0.468,0.51,0.702,1.148,0.702,1.917c0,1.056-0.396,1.893-1.188,2.511
		c-0.792,0.618-1.92,0.927-3.384,0.927c-1.296,0-2.346-0.317-3.15-0.954c-0.899-0.695-1.374-1.68-1.422-2.952h2.106
		c0,0.961,0.498,1.566,1.494,1.818c0.3,0.084,0.695,0.126,1.188,0.126s0.948-0.123,1.368-0.369s0.63-0.576,0.63-0.99
		s-0.114-0.731-0.342-0.954c-0.229-0.222-0.6-0.429-1.116-0.62l-2.322-0.918c-0.899-0.349-1.59-0.757-2.069-1.225
		c-0.48-0.468-0.721-1.116-0.721-1.944c0-0.972,0.378-1.739,1.135-2.304c0.768-0.588,1.809-0.882,3.123-0.882
		c1.313,0,2.327,0.303,3.042,0.909c0.714,0.605,1.125,1.455,1.232,2.547h-2.105V143.946z"/>
</g>
<g>
	<rect x="594.512" y="119.195" width="1" height="33.666"/>
</g>
<g>
	<g>
		<path fill="#82A01C" d="M1029.149,569.666c0,3.221-2.617,5.832-5.836,5.832c-3.222,0-5.833-2.611-5.833-5.832
			c0-3.223,2.611-5.836,5.833-5.836C1026.531,563.832,1029.149,566.443,1029.149,569.666z"/>
	</g>
	<g>
		<path fill="#542E63" d="M1029.149,591.666c0,3.221-2.617,5.832-5.836,5.832c-3.222,0-5.833-2.611-5.833-5.832
			c0-3.223,2.611-5.836,5.833-5.836C1026.531,585.832,1029.149,588.443,1029.149,591.666z"/>
	</g>
	<g>
		<rect x="1044.784" y="563.759" fill="none" width="18.021" height="14.883"/>
	</g>
	<g enable-background="new    ">
		<path d="M924.977,563.759h2.664l3.834,11.682h-2.25l-0.812-2.52h-4.338l-0.828,2.52h-2.25L924.977,563.759z M924.616,571.32h3.275
			l-1.62-5.021L924.616,571.32z"/>
		<path d="M933.904,563.759l2.844,9.018l2.882-9.018h2.23l-4.015,11.682h-2.231l-3.96-11.682H933.904z"/>
		<path d="M943.875,563.759h7.524v1.836H946v3.078h5.059v1.836H946v3.078h5.399v1.854h-7.523L943.875,563.759L943.875,563.759z"/>
		<path d="M963.118,567.341c0,0.826-0.233,1.535-0.702,2.123c-0.468,0.588-1.141,0.996-2.017,1.225l3.133,4.752h-2.771l-2.574-4.555
			h-1.62v4.555h-2.124v-11.682h4.32c1.38,0,2.454,0.33,3.222,0.988C962.74,565.384,963.118,566.25,963.118,567.341z
			 M958.564,569.464c0.779,0,1.368-0.178,1.764-0.531c0.396-0.354,0.595-0.82,0.595-1.402s-0.181-1.051-0.539-1.404
			c-0.36-0.354-0.9-0.531-1.62-0.531h-2.196v3.871h1.997V569.464z"/>
		<path d="M968.734,563.759h2.664l3.834,11.682h-2.25l-0.811-2.52h-4.339l-0.827,2.52h-2.25L968.734,563.759z M968.375,571.32h3.274
			l-1.62-5.021L968.375,571.32z"/>
		<path d="M984.466,573.587c-0.504,1.402-1.471,2.105-2.897,2.105c-1.465,0-2.67-0.553-3.619-1.656
			c-0.982-1.141-1.475-2.6-1.475-4.375c0-1.871,0.527-3.371,1.584-4.5c1.02-1.092,2.333-1.639,3.941-1.639
			c1.092,0,2.007,0.238,2.744,0.713s1.316,1.221,1.737,2.24l-2.179,0.504c-0.637-1.02-1.44-1.529-2.411-1.529
			c-0.889,0-1.627,0.377-2.215,1.133c-0.611,0.77-0.918,1.795-0.918,3.078c0,1.213,0.274,2.195,0.827,2.953
			c0.54,0.744,1.261,1.115,2.16,1.115c0.769,0,1.397-0.246,1.891-0.738c0.505-0.504,0.757-1.193,0.757-2.068v-0.072l-2.629-0.055
			v-1.367h4.662v6.012h-1.729L984.466,573.587z"/>
		<path d="M989.47,563.759h7.523v1.836h-5.399v3.078h5.059v1.836h-5.059v3.078h5.399v1.854h-7.523V563.759z"/>
	</g>
	<g enable-background="new    ">
		<path d="M880.59,585.361h2.664l3.834,11.682h-2.25l-0.812-2.521h-4.338l-0.828,2.521h-2.25L880.59,585.361z M880.229,592.919
			h3.276l-1.621-5.021L880.229,592.919z"/>
		<path d="M896.313,586.324c0.737,0.641,1.106,1.559,1.106,2.754c0,1.193-0.369,2.111-1.106,2.754
			c-0.738,0.641-1.768,0.963-3.088,0.963h-1.979v4.248h-2.142v-11.682h4.121C894.545,585.361,895.573,585.681,896.313,586.324z
			 M893.225,590.941c0.66,0,1.158-0.176,1.494-0.523s0.504-0.795,0.504-1.34c0-0.547-0.168-0.996-0.504-1.352
			c-0.336-0.354-0.834-0.529-1.494-0.529h-1.979v3.744H893.225z"/>
		<path d="M906.77,586.324c0.738,0.641,1.107,1.559,1.107,2.754c0,1.193-0.369,2.111-1.107,2.754
			c-0.738,0.641-1.767,0.963-3.086,0.963h-1.98v4.248h-2.143v-11.682h4.123C905.003,585.361,906.031,585.681,906.77,586.324z
			 M903.684,590.941c0.659,0,1.157-0.176,1.493-0.523s0.505-0.795,0.505-1.34c0-0.547-0.169-0.996-0.505-1.352
			c-0.336-0.354-0.834-0.529-1.493-0.529h-1.98v3.744H903.684z"/>
		<path d="M918.748,588.943c0,0.826-0.232,1.535-0.701,2.123s-1.142,0.996-2.017,1.225l3.132,4.752h-2.771l-2.574-4.555h-1.619
			v4.555h-2.125v-11.682h4.32c1.381,0,2.454,0.33,3.223,0.988C918.37,586.986,918.748,587.849,918.748,588.943z M914.195,591.066
			c0.779,0,1.367-0.178,1.765-0.531c0.396-0.354,0.594-0.822,0.594-1.404s-0.181-1.049-0.54-1.404
			c-0.36-0.354-0.899-0.529-1.62-0.529h-2.195v3.871h1.997V591.066z"/>
		<path d="M921.646,585.361h7.524v1.836h-5.4v3.078h5.058v1.836h-5.058v3.076h5.4v1.855h-7.524V585.361z"/>
		<path d="M936.406,585.125c0.722,0,1.345,0.088,1.873,0.262c0.527,0.174,0.982,0.416,1.367,0.729
			c0.756,0.611,1.248,1.471,1.477,2.574l-2.269,0.412c-0.192-0.609-0.489-1.105-0.892-1.482c-0.401-0.379-0.902-0.568-1.503-0.568
			c-0.815,0-1.477,0.342-1.979,1.027c-0.54,0.744-0.811,1.771-0.811,3.086c0,1.313,0.239,2.34,0.721,3.078
			c0.48,0.738,1.134,1.105,1.962,1.105s1.452-0.199,1.872-0.602c0.42-0.404,0.63-0.922,0.63-1.559h2.286
			c0,1.309-0.417,2.318-1.251,3.033c-0.835,0.715-1.979,1.07-3.429,1.07c-1.55,0-2.778-0.539-3.69-1.619
			c-0.925-1.105-1.386-2.605-1.386-4.5c0-1.92,0.474-3.42,1.422-4.5C933.719,585.64,934.918,585.125,936.406,585.125z"/>
		<path d="M943.625,585.361h2.122v11.682h-2.122V585.361z"/>
		<path d="M951.797,585.361h2.664l3.834,11.682h-2.25l-0.812-2.521h-4.338l-0.828,2.521h-2.25L951.797,585.361z M951.437,592.919
			h3.276l-1.621-5.021L951.437,592.919z"/>
		<path d="M957.988,585.361h9.359v1.836h-3.617v9.846h-2.124v-9.846h-3.618V585.361z"/>
		<path d="M969.13,585.361h2.124v11.682h-2.124V585.361z"/>
		<path d="M979.084,585.125c0.778,0,1.493,0.129,2.142,0.387c0.646,0.26,1.206,0.641,1.675,1.145
			c0.983,1.057,1.477,2.566,1.477,4.537c0,1.979-0.492,3.51-1.477,4.59c-0.937,1.008-2.215,1.512-3.834,1.512
			c-1.609,0-2.881-0.516-3.815-1.549c-0.984-1.068-1.478-2.586-1.478-4.553c0-1.992,0.492-3.518,1.478-4.572
			C976.174,585.625,977.45,585.125,979.084,585.125z M982.18,591.218c0-1.338-0.279-2.369-0.837-3.096
			c-0.559-0.727-1.313-1.09-2.259-1.09c-0.948,0-1.704,0.363-2.269,1.09c-0.563,0.727-0.847,1.758-0.847,3.096
			s0.282,2.363,0.847,3.078c0.563,0.713,1.319,1.07,2.269,1.07c0.946,0,1.7-0.357,2.259-1.07
			C981.901,593.582,982.18,592.556,982.18,591.218z"/>
		<path d="M989.182,585.361l5.147,8.277v-8.277h2.123v11.682h-2.159l-5.31-8.568v8.568h-2.125v-11.682H989.182z"/>
	</g>
	<g enable-background="new    ">
		<path d="M1038.379,573.732c1.823,0,2.735-1.5,2.735-4.5c0-0.324-0.022-0.68-0.071-1.064c-0.156,0.938-0.547,1.646-1.171,2.125
			c-0.552,0.42-1.254,0.631-2.104,0.631c-1.092,0-1.983-0.346-2.674-1.035c-0.689-0.689-1.034-1.574-1.034-2.654
			c0-1.105,0.39-1.998,1.17-2.684c0.78-0.684,1.794-1.025,3.042-1.025c1.416,0,2.598,0.541,3.546,1.619
			c0.96,1.105,1.44,2.527,1.44,4.268c0,3.012-0.9,4.961-2.7,5.85c-0.601,0.289-1.251,0.434-1.953,0.434s-1.313-0.092-1.836-0.271
			s-0.976-0.432-1.358-0.756c-0.815-0.684-1.225-1.578-1.225-2.682h2.214c0.024,0.539,0.219,0.965,0.585,1.277
			S1037.815,573.732,1038.379,573.732z M1038.288,565.468c-0.575,0-1.059,0.166-1.448,0.496c-0.391,0.33-0.584,0.785-0.584,1.367
			s0.193,1.035,0.584,1.359c0.391,0.322,0.873,0.484,1.448,0.484c0.564,0,1.046-0.168,1.44-0.504
			c0.396-0.359,0.594-0.811,0.594-1.35c0-0.553-0.198-1.002-0.594-1.352C1039.346,565.636,1038.865,565.468,1038.288,565.468z"/>
		<path d="M1052.509,563.632v7.398h2.034v1.816h-2.034v2.592h-2.106v-2.592h-5.922v-1.602l5.978-7.613H1052.509L1052.509,563.632z
			 M1047,571.248h3.511v-4.465L1047,571.248z"/>
		<path d="M1058.359,563.525c0.324,0,0.635,0.057,0.937,0.172c0.3,0.113,0.563,0.285,0.792,0.512
			c0.49,0.469,0.736,1.146,0.736,2.035c0,0.875-0.245,1.561-0.736,2.051c-0.456,0.457-1.038,0.686-1.746,0.686
			c-0.686,0-1.254-0.229-1.71-0.686c-0.492-0.49-0.738-1.176-0.738-2.051c0-0.889,0.246-1.566,0.738-2.035
			C1057.1,563.753,1057.675,563.525,1058.359,563.525z M1064.623,563.759h2.143l-7.902,11.682h-2.16L1064.623,563.759z
			 M1059.223,566.244c0-0.912-0.294-1.369-0.882-1.369c-0.575,0-0.864,0.457-0.864,1.369c0,0.924,0.289,1.387,0.864,1.387
			C1058.929,567.628,1059.223,567.167,1059.223,566.244z M1065.109,570.22c0.685,0,1.26,0.229,1.729,0.686
			c0.49,0.467,0.736,1.145,0.736,2.033s-0.245,1.578-0.736,2.07c-0.456,0.455-1.032,0.684-1.729,0.684
			c-0.697,0-1.271-0.229-1.729-0.684c-0.492-0.492-0.738-1.184-0.738-2.07s0.246-1.566,0.738-2.033
			C1063.85,570.449,1064.425,570.22,1065.109,570.22z M1065.109,571.572c-0.576,0-0.864,0.459-0.864,1.377s0.288,1.377,0.864,1.377
			c0.252,0,0.461-0.105,0.629-0.314c0.168-0.211,0.252-0.564,0.252-1.063c0-0.5-0.084-0.854-0.252-1.063
			C1065.57,571.675,1065.361,571.572,1065.109,571.572z"/>
	</g>
	<g enable-background="new    ">
		<path d="M1038.379,595.332c1.823,0,2.735-1.5,2.735-4.5c0-0.324-0.022-0.678-0.071-1.063c-0.156,0.938-0.547,1.645-1.171,2.123
			c-0.552,0.422-1.254,0.633-2.104,0.633c-1.092,0-1.983-0.348-2.674-1.035c-0.689-0.691-1.034-1.576-1.034-2.656
			c0-1.104,0.39-1.998,1.17-2.682c0.78-0.686,1.794-1.025,3.042-1.025c1.416,0,2.598,0.539,3.546,1.619
			c0.96,1.104,1.44,2.525,1.44,4.266c0,3.014-0.9,4.963-2.7,5.852c-0.601,0.289-1.251,0.432-1.953,0.432s-1.313-0.09-1.836-0.27
			c-0.522-0.182-0.976-0.434-1.358-0.758c-0.815-0.684-1.225-1.576-1.225-2.682h2.214c0.024,0.541,0.219,0.967,0.585,1.279
			C1037.351,595.175,1037.815,595.332,1038.379,595.332z M1038.288,587.07c-0.575,0-1.059,0.166-1.448,0.496
			c-0.391,0.328-0.584,0.785-0.584,1.365c0,0.584,0.193,1.035,0.584,1.359s0.873,0.486,1.448,0.486c0.564,0,1.046-0.168,1.44-0.504
			c0.396-0.359,0.594-0.811,0.594-1.352c0-0.551-0.198-1.002-0.594-1.35C1039.346,587.238,1038.865,587.07,1038.288,587.07z"/>
		<path d="M1051.734,588.564c-0.06-0.469-0.228-0.838-0.504-1.107c-0.275-0.271-0.656-0.404-1.143-0.404
			c-0.487,0-0.912,0.105-1.277,0.314c-0.367,0.211-0.682,0.514-0.945,0.91c-0.527,0.814-0.793,1.92-0.793,3.311
			c0,0.518,0.02,0.906,0.056,1.17c0.132-1.031,0.521-1.787,1.17-2.268c0.563-0.408,1.266-0.611,2.104-0.611
			c1.08,0,1.976,0.348,2.684,1.043c0.696,0.672,1.044,1.563,1.044,2.664c0,1.105-0.392,1.998-1.17,2.682
			c-0.78,0.686-1.801,1.027-3.062,1.027c-1.464,0-2.658-0.553-3.582-1.656s-1.385-2.514-1.385-4.229
			c0-1.992,0.461-3.547,1.385-4.662c0.9-1.08,2.125-1.621,3.672-1.621c1.177,0,2.125,0.314,2.845,0.936
			c0.731,0.639,1.122,1.473,1.171,2.504h-2.27V588.564z M1049.898,591.625c-0.576,0-1.059,0.17-1.448,0.512
			c-0.389,0.342-0.585,0.795-0.585,1.359s0.195,1.012,0.585,1.342c0.391,0.33,0.87,0.494,1.44,0.494
			c0.568,0,1.053-0.164,1.448-0.494c0.395-0.33,0.595-0.777,0.595-1.342s-0.205-1.025-0.613-1.385
			C1050.948,591.787,1050.475,591.625,1049.898,591.625z"/>
		<path d="M1058.574,585.125c0.324,0,0.637,0.057,0.938,0.172c0.299,0.113,0.563,0.285,0.791,0.512
			c0.492,0.471,0.738,1.146,0.738,2.035c0,0.875-0.246,1.561-0.738,2.051c-0.455,0.457-1.037,0.686-1.746,0.686
			c-0.684,0-1.254-0.229-1.709-0.686c-0.492-0.49-0.738-1.176-0.738-2.051c0-0.889,0.246-1.564,0.738-2.035
			C1057.315,585.353,1057.891,585.125,1058.574,585.125z M1064.84,585.361h2.142l-7.902,11.682h-2.159L1064.84,585.361z
			 M1059.439,587.843c0-0.912-0.295-1.369-0.883-1.369c-0.575,0-0.863,0.457-0.863,1.369c0,0.924,0.288,1.387,0.863,1.387
			C1059.145,589.23,1059.439,588.767,1059.439,587.843z M1065.324,591.822c0.686,0,1.262,0.229,1.729,0.684
			c0.492,0.469,0.738,1.146,0.738,2.035c0,0.887-0.246,1.578-0.738,2.07c-0.455,0.455-1.031,0.684-1.729,0.684
			s-1.271-0.229-1.728-0.684c-0.492-0.492-0.738-1.184-0.738-2.07s0.246-1.566,0.738-2.035
			C1064.065,592.048,1064.641,591.822,1065.324,591.822z M1065.324,593.171c-0.576,0-0.863,0.459-0.863,1.377
			s0.287,1.377,0.863,1.377c0.252,0,0.462-0.104,0.63-0.314c0.168-0.209,0.252-0.564,0.252-1.063c0-0.5-0.084-0.852-0.252-1.063
			C1065.786,593.277,1065.576,593.171,1065.324,593.171z"/>
	</g>
	<g>
		<rect x="1006.98" y="563.83" width="1" height="33.668"/>
	</g>
</g>
<g>
	<g>
		<path fill="#82A01C" d="M275.405,569.666c0,3.221-2.616,5.832-5.836,5.832c-3.221,0-5.833-2.611-5.833-5.832
			c0-3.223,2.612-5.836,5.833-5.836C272.788,563.832,275.405,566.443,275.405,569.666z"/>
	</g>
	<g>
		<path fill="#542E63" d="M275.405,591.666c0,3.221-2.616,5.832-5.836,5.832c-3.221,0-5.833-2.611-5.833-5.832
			c0-3.223,2.612-5.836,5.833-5.836C272.788,585.832,275.405,588.443,275.405,591.666z"/>
	</g>
	<g>
		<rect x="291.041" y="563.759" fill="none" width="18.021" height="14.883"/>
	</g>
	<g enable-background="new    ">
		<path d="M171.232,563.759h2.664l3.834,11.682h-2.25l-0.81-2.52h-4.338l-0.828,2.52h-2.25L171.232,563.759z M170.872,571.32h3.275
			l-1.62-5.021L170.872,571.32z"/>
		<path d="M180.16,563.759l2.844,9.018l2.88-9.018h2.232l-4.015,11.682h-2.231l-3.96-11.682H180.16z"/>
		<path d="M190.131,563.759h7.523v1.836h-5.399v3.078h5.058v1.836h-5.058v3.078h5.399v1.854h-7.523V563.759z"/>
		<path d="M209.374,567.341c0,0.826-0.234,1.535-0.702,2.123s-1.14,0.996-2.017,1.225l3.133,4.752h-2.772l-2.574-4.555h-1.62v4.555
			h-2.124v-11.682h4.32c1.38,0,2.454,0.33,3.223,0.988C208.996,565.384,209.374,566.25,209.374,567.341z M204.82,569.464
			c0.78,0,1.368-0.178,1.765-0.531c0.396-0.352,0.594-0.82,0.594-1.402s-0.18-1.051-0.54-1.404s-0.9-0.531-1.62-0.531h-2.196v3.871
			h1.998V569.464z"/>
		<path d="M214.99,563.759h2.663l3.834,11.682h-2.25l-0.81-2.52h-4.338l-0.828,2.52h-2.25L214.99,563.759z M214.63,571.32h3.275
			l-1.619-5.021L214.63,571.32z"/>
		<path d="M230.721,573.587c-0.504,1.402-1.47,2.105-2.898,2.105c-1.464,0-2.67-0.553-3.617-1.656
			c-0.984-1.141-1.477-2.6-1.477-4.375c0-1.871,0.528-3.371,1.584-4.5c1.021-1.092,2.333-1.639,3.942-1.639
			c1.092,0,2.007,0.238,2.745,0.713c0.737,0.475,1.315,1.221,1.736,2.24l-2.178,0.504c-0.636-1.02-1.439-1.529-2.412-1.529
			c-0.888,0-1.626,0.377-2.214,1.133c-0.612,0.77-0.918,1.795-0.918,3.078c0,1.213,0.276,2.195,0.828,2.953
			c0.54,0.744,1.26,1.115,2.16,1.115c0.768,0,1.396-0.246,1.89-0.738c0.504-0.504,0.756-1.193,0.756-2.068v-0.072l-2.628-0.055
			v-1.367h4.662v6.012h-1.728L230.721,573.587z"/>
		<path d="M235.725,563.759h7.524v1.836h-5.4v3.078h5.059v1.836h-5.059v3.078h5.4v1.854h-7.524V563.759z"/>
	</g>
	<g enable-background="new    ">
		<path d="M191.987,585.361l2.845,9.018l2.88-9.018h2.231l-4.014,11.682h-2.232l-3.96-11.682H191.987z"/>
		<path d="M201.977,585.361h2.124v11.682h-2.124V585.361z"/>
		<path d="M207.43,585.361h7.524v1.836h-5.4v3.078h5.058v1.836h-5.058v3.076h5.4v1.855h-7.524V585.361z"/>
		<path d="M219.058,585.361l2.574,8.873l2.502-8.102h1.44l2.646,8.137l2.736-8.908h2.394l-4.014,11.682h-2.232l-2.195-6.588
			l-2.179,6.588h-2.231l-3.816-11.682H219.058z"/>
		<path d="M241.522,588.582c-0.191-1.02-0.912-1.529-2.16-1.529c-0.611,0-1.089,0.123-1.431,0.369s-0.513,0.543-0.513,0.891
			c0,0.35,0.11,0.621,0.333,0.818c0.222,0.199,0.566,0.381,1.035,0.549l2.538,0.99c0.863,0.336,1.529,0.76,1.997,1.27
			c0.469,0.512,0.702,1.148,0.702,1.918c0,1.057-0.396,1.893-1.188,2.512c-0.792,0.617-1.92,0.926-3.384,0.926
			c-1.297,0-2.347-0.316-3.15-0.953c-0.9-0.695-1.374-1.68-1.422-2.953h2.105c0,0.961,0.498,1.566,1.494,1.818
			c0.3,0.084,0.696,0.127,1.188,0.127s0.948-0.123,1.368-0.369s0.63-0.576,0.63-0.99s-0.114-0.73-0.342-0.955
			c-0.229-0.221-0.601-0.428-1.116-0.619l-2.322-0.918c-0.9-0.35-1.59-0.758-2.07-1.225c-0.479-0.469-0.72-1.117-0.72-1.945
			c0-0.971,0.378-1.738,1.134-2.303c0.769-0.588,1.81-0.883,3.123-0.883c1.314,0,2.328,0.303,3.042,0.91
			c0.714,0.604,1.125,1.455,1.233,2.547h-2.106V588.582z"/>
	</g>
	<g enable-background="new    ">
		<path d="M282.564,573.498h6.679v1.943h-8.803v-1.998c0-1.404,0.498-2.424,1.494-3.061c0.335-0.217,0.727-0.408,1.17-0.576
			l2.395-0.918c0.527-0.203,0.915-0.459,1.161-0.766c0.245-0.305,0.368-0.688,0.368-1.143s-0.161-0.838-0.485-1.143
			c-0.324-0.307-0.786-0.459-1.386-0.459c-0.601,0-1.096,0.143-1.485,0.432c-0.39,0.287-0.615,0.715-0.675,1.277h-2.358
			c0.024-1.141,0.462-2.033,1.314-2.682c0.779-0.588,1.83-0.883,3.149-0.883c1.212,0,2.214,0.324,3.006,0.973
			c0.805,0.672,1.206,1.494,1.206,2.467c0,0.971-0.243,1.748-0.729,2.33c-0.486,0.582-1.239,1.07-2.259,1.467l-2.431,0.938
			c-0.468,0.18-0.807,0.381-1.017,0.604c-0.21,0.221-0.315,0.506-0.315,0.854V573.498L282.564,573.498z"/>
		<path d="M295.938,563.525c0.721,0,1.377,0.123,1.972,0.369c0.594,0.246,1.101,0.621,1.521,1.125
			c0.912,1.068,1.368,2.598,1.368,4.59s-0.456,3.521-1.368,4.59c-0.84,0.996-1.998,1.494-3.474,1.494
			c-1.488,0-2.658-0.498-3.511-1.494c-0.899-1.043-1.35-2.574-1.35-4.59s0.45-3.545,1.35-4.59
			C293.298,564.023,294.462,563.525,295.938,563.525z M297.91,566.521c-0.463-0.713-1.116-1.07-1.963-1.07
			c-0.846,0-1.5,0.357-1.962,1.07c-0.462,0.715-0.692,1.744-0.692,3.088s0.23,2.367,0.692,3.068
			c0.462,0.703,1.116,1.053,1.962,1.053c0.847,0,1.5-0.35,1.963-1.053c0.461-0.701,0.692-1.725,0.692-3.068
			S298.371,567.236,297.91,566.521z"/>
		<path d="M302.49,575.207c-0.275-0.264-0.413-0.6-0.413-1.008c0-0.406,0.138-0.75,0.413-1.025c0.276-0.275,0.631-0.414,1.063-0.414
			s0.792,0.139,1.08,0.414s0.432,0.619,0.432,1.025c0,0.408-0.144,0.744-0.432,1.008c-0.288,0.266-0.648,0.396-1.08,0.396
			S302.766,575.47,302.49,575.207z"/>
		<path d="M310.788,573.732c1.823,0,2.735-1.5,2.735-4.5c0-0.324-0.023-0.68-0.071-1.064c-0.156,0.938-0.547,1.646-1.171,2.125
			c-0.552,0.42-1.254,0.631-2.105,0.631c-1.092,0-1.983-0.346-2.673-1.035c-0.69-0.689-1.035-1.574-1.035-2.654
			c0-1.105,0.39-1.998,1.17-2.684c0.78-0.684,1.794-1.025,3.042-1.025c1.416,0,2.598,0.541,3.546,1.619
			c0.96,1.105,1.44,2.527,1.44,4.268c0,3.012-0.9,4.961-2.7,5.85c-0.601,0.289-1.251,0.434-1.953,0.434s-1.314-0.092-1.836-0.271
			c-0.522-0.18-0.975-0.432-1.359-0.756c-0.815-0.684-1.224-1.578-1.224-2.682h2.214c0.024,0.539,0.219,0.965,0.585,1.277
			S310.224,573.732,310.788,573.732z M310.698,565.468c-0.575,0-1.059,0.166-1.448,0.496c-0.391,0.33-0.585,0.785-0.585,1.367
			s0.194,1.035,0.585,1.359c0.39,0.322,0.873,0.484,1.448,0.484c0.564,0,1.045-0.168,1.44-0.504c0.396-0.359,0.594-0.811,0.594-1.35
			c0-0.553-0.197-1.002-0.594-1.352C311.754,565.636,311.274,565.468,310.698,565.468z"/>
		<path d="M321.768,573.732c1.824,0,2.736-1.5,2.736-4.5c0-0.324-0.024-0.68-0.072-1.064c-0.156,0.938-0.546,1.646-1.17,2.125
			c-0.552,0.42-1.254,0.631-2.106,0.631c-1.092,0-1.982-0.346-2.673-1.035c-0.689-0.689-1.035-1.574-1.035-2.654
			c0-1.105,0.391-1.998,1.171-2.684c0.779-0.684,1.794-1.025,3.042-1.025c1.416,0,2.598,0.541,3.546,1.619
			c0.96,1.105,1.439,2.527,1.439,4.268c0,3.012-0.899,4.961-2.7,5.85c-0.6,0.289-1.251,0.434-1.952,0.434
			c-0.702,0-1.314-0.092-1.837-0.271c-0.521-0.18-0.975-0.432-1.358-0.756c-0.816-0.684-1.225-1.578-1.225-2.682h2.215
			c0.023,0.539,0.219,0.965,0.585,1.277C320.739,573.576,321.204,573.732,321.768,573.732z M321.678,565.468
			c-0.576,0-1.059,0.166-1.449,0.496c-0.39,0.33-0.585,0.785-0.585,1.367s0.195,1.035,0.585,1.359
			c0.391,0.322,0.873,0.484,1.449,0.484c0.564,0,1.044-0.168,1.44-0.504c0.396-0.359,0.594-0.811,0.594-1.35
			c0-0.553-0.198-1.002-0.594-1.352C322.733,565.636,322.253,565.468,321.678,565.468z"/>
		<path d="M335.897,563.632v7.398h2.034v1.816h-2.034v2.592h-2.105v-2.592h-5.922v-1.602l5.976-7.613H335.897L335.897,563.632z
			 M330.39,571.248h3.51v-4.465L330.39,571.248z"/>
	</g>
	<g enable-background="new    ">
		<path d="M280.116,586.242c0.899-0.131,1.691-0.449,2.376-0.953h1.602v11.754h-2.124v-9.217c-0.612,0.301-1.23,0.451-1.854,0.451
			V586.242z"/>
		<path d="M286.542,586.242c0.899-0.131,1.691-0.449,2.376-0.953h1.602v11.754h-2.124v-9.217c-0.611,0.301-1.229,0.451-1.854,0.451
			V586.242z"/>
		<path d="M299.862,588.564c-0.06-0.469-0.228-0.838-0.504-1.107c-0.275-0.271-0.656-0.404-1.143-0.404s-0.912,0.105-1.278,0.314
			c-0.366,0.211-0.681,0.514-0.944,0.91c-0.528,0.814-0.792,1.92-0.792,3.311c0,0.518,0.018,0.906,0.054,1.17
			c0.132-1.031,0.521-1.787,1.17-2.268c0.563-0.408,1.266-0.611,2.105-0.611c1.08,0,1.975,0.348,2.683,1.043
			c0.696,0.672,1.044,1.563,1.044,2.664c0,1.105-0.391,1.998-1.17,2.682c-0.78,0.686-1.8,1.027-3.061,1.027
			c-1.464,0-2.657-0.553-3.582-1.656c-0.924-1.104-1.386-2.514-1.386-4.229c0-1.992,0.461-3.547,1.386-4.662
			c0.9-1.08,2.124-1.621,3.672-1.621c1.177,0,2.124,0.314,2.845,0.936c0.731,0.639,1.122,1.473,1.17,2.504h-2.269V588.564z
			 M298.026,591.625c-0.575,0-1.059,0.17-1.448,0.512c-0.391,0.342-0.585,0.795-0.585,1.359s0.194,1.012,0.585,1.342
			c0.39,0.33,0.869,0.494,1.439,0.494s1.053-0.164,1.449-0.494c0.396-0.33,0.594-0.777,0.594-1.342s-0.204-1.025-0.612-1.385
			C299.076,591.787,298.602,591.625,298.026,591.625z"/>
		<path d="M303.984,596.806c-0.275-0.264-0.414-0.6-0.414-1.008c0-0.406,0.139-0.75,0.414-1.023c0.276-0.277,0.63-0.414,1.063-0.414
			c0.432,0,0.792,0.137,1.08,0.414c0.288,0.273,0.432,0.617,0.432,1.023c0,0.408-0.144,0.744-0.432,1.008
			c-0.288,0.266-0.648,0.396-1.08,0.396C304.614,597.205,304.26,597.072,303.984,596.806z"/>
		<path d="M312.696,585.125c0.721,0,1.378,0.123,1.972,0.369s1.101,0.621,1.521,1.125c0.912,1.068,1.368,2.598,1.368,4.59
			s-0.456,3.523-1.368,4.59c-0.84,0.996-1.998,1.494-3.474,1.494c-1.488,0-2.658-0.498-3.51-1.494
			c-0.9-1.043-1.351-2.574-1.351-4.59s0.45-3.545,1.351-4.59C310.056,585.625,311.22,585.125,312.696,585.125z M314.667,588.123
			c-0.462-0.713-1.116-1.07-1.962-1.07c-0.847,0-1.5,0.357-1.962,1.07c-0.463,0.715-0.693,1.744-0.693,3.088s0.23,2.367,0.693,3.068
			c0.462,0.701,1.115,1.053,1.962,1.053c0.846,0,1.5-0.352,1.962-1.053c0.461-0.701,0.692-1.727,0.692-3.068
			C315.36,589.867,315.128,588.835,314.667,588.123z"/>
		<path d="M327.042,585.361v2.031l-4.986,9.648h-2.862l5.347-9.629h-5.706v-2.053h8.208V585.361z"/>
		<path d="M332.928,587.05c-1.308,0-2.07,0.498-2.286,1.494h-2.231c0.119-1.152,0.588-2.02,1.403-2.609
			c0.769-0.539,1.775-0.811,3.024-0.811c1.284,0,2.328,0.301,3.132,0.9c0.84,0.611,1.26,1.396,1.26,2.357
			c0,0.602-0.162,1.119-0.485,1.559c-0.324,0.438-0.805,0.764-1.44,0.979c0.708,0.24,1.275,0.598,1.701,1.072
			c0.426,0.473,0.639,1.016,0.639,1.629c0,0.611-0.11,1.133-0.333,1.564c-0.222,0.434-0.537,0.805-0.945,1.115
			c-0.863,0.66-1.985,0.99-3.365,0.99c-1.32,0-2.431-0.336-3.33-1.008c-1.008-0.732-1.512-1.703-1.512-2.916h2.268
			c0.036,0.611,0.285,1.092,0.747,1.439c0.462,0.35,1.063,0.521,1.809,0.521c0.744,0,1.323-0.164,1.737-0.494s0.621-0.75,0.621-1.26
			c0-0.512-0.189-0.91-0.567-1.197c-0.378-0.289-0.975-0.432-1.791-0.432h-1.548v-1.676h1.332c0.685,0,1.218-0.146,1.603-0.439
			c0.384-0.295,0.575-0.682,0.575-1.162c0-0.479-0.165-0.869-0.494-1.17C334.119,587.199,333.612,587.05,332.928,587.05z"/>
	</g>
	<g>
		<rect x="253.236" y="563.83" width="1" height="33.668"/>
	</g>
</g>
<g id="Livello_2">
	<g>
		<rect x="594.811" y="192.449" width="1" height="247.541"/>
	</g>
	<g>
		<rect x="578.711" y="501.364" transform="matrix(-0.866 -0.5 0.5 -0.866 1059.9034 1287.7335)" width="247.535" height="0.999"/>
	</g>
	<g>
		
			<rect x="487.616" y="378.076" transform="matrix(-0.5003 -0.8658 0.8658 -0.5003 297.8341 1175.5568)" width="0.999" height="247.528"/>
	</g>
	<g>
		<path d="M595.311,687.779c-33.451,0-65.902-6.553-96.451-19.473c-29.506-12.48-56.006-30.348-78.762-53.104
			s-40.623-49.256-53.103-78.764c-12.921-30.549-19.474-62.998-19.474-96.449s6.551-65.902,19.474-96.451
			c12.479-29.507,30.347-56.006,53.103-78.763c22.756-22.756,49.256-40.623,78.762-53.104c30.549-12.921,63-19.473,96.451-19.473
			c33.452,0,65.902,6.552,96.451,19.473c29.507,12.48,56.006,30.347,78.763,53.104c22.756,22.756,40.622,49.256,53.103,78.763
			c12.921,30.548,19.473,63,19.473,96.453c0,33.449-6.552,65.9-19.472,96.447c-12.48,29.508-30.348,56.008-53.104,78.764
			c-22.756,22.758-49.256,40.625-78.762,53.104C661.213,681.226,628.762,687.779,595.311,687.779z M595.311,192.699
			c-136.355,0-247.289,110.934-247.289,247.291c0,136.355,110.933,247.289,247.289,247.289
			c136.355,0,247.288-110.934,247.288-247.289C842.599,303.633,731.666,192.699,595.311,192.699z"/>
	</g>
	<g>
		<path d="M595.311,638.271c-52.962,0-102.755-20.625-140.206-58.076s-58.076-87.242-58.076-140.205s20.625-102.755,58.076-140.207
			s87.243-58.076,140.206-58.076c52.964,0,102.757,20.625,140.207,58.076c37.449,37.45,58.074,87.244,58.074,140.207
			s-20.625,102.756-58.074,140.205C698.066,617.646,648.273,638.271,595.311,638.271z M595.311,242.207
			c-109.057,0-197.782,88.725-197.782,197.783c0,109.057,88.726,197.781,197.782,197.781s197.781-88.725,197.781-197.781
			C793.092,330.932,704.366,242.207,595.311,242.207z"/>
	</g>
	<g>
		<path d="M595.31,588.763c-39.738,0-77.099-15.477-105.198-43.574c-28.1-28.102-43.575-65.459-43.575-105.199
			c0-39.738,15.476-77.1,43.575-105.199c28.1-28.099,65.459-43.574,105.198-43.574s77.1,15.476,105.199,43.574
			c28.099,28.099,43.573,65.458,43.573,105.199s-15.476,77.1-43.573,105.199C672.408,573.289,635.048,588.763,595.31,588.763z
			 M595.31,291.717c-81.758,0-148.272,66.515-148.272,148.273s66.516,148.273,148.272,148.273s148.272-66.516,148.272-148.273
			C743.582,358.234,677.067,291.717,595.31,291.717z"/>
	</g>
	<g>
		<path d="M595.31,539.255c-54.735,0-99.266-44.531-99.266-99.266c0-54.736,44.529-99.267,99.266-99.267
			s99.267,44.531,99.267,99.267C694.576,494.724,650.045,539.255,595.31,539.255z M595.31,341.224
			c-54.459,0-98.766,44.307-98.766,98.766c0,54.461,44.306,98.766,98.766,98.766s98.767-44.305,98.767-98.766
			C694.076,385.531,649.77,341.224,595.31,341.224z"/>
	</g>
	<g>
		<path d="M595.31,489.777c-27.452,0-49.785-22.334-49.785-49.787c0-27.451,22.333-49.785,49.785-49.785
			s49.786,22.334,49.786,49.785C645.096,467.443,622.762,489.777,595.31,489.777z M595.31,390.705
			c-27.176,0-49.285,22.109-49.285,49.285c0,27.178,22.109,49.287,49.285,49.287s49.286-22.109,49.286-49.287
			C644.596,412.814,622.486,390.705,595.31,390.705z"/>
	</g>
	<g enable-background="new    ">
		<path fill="#FFFFFF" d="M583.69,374.455c0.75-0.109,1.41-0.375,1.98-0.795h1.335v9.795h-1.771v-7.68
			c-0.51,0.25-1.025,0.375-1.545,0.375V374.455z"/>
		<path fill="#FFFFFF" d="M593.155,373.525c0.601,0,1.147,0.104,1.643,0.309s0.917,0.516,1.268,0.938
			c0.76,0.891,1.141,2.164,1.141,3.824s-0.381,2.936-1.141,3.824c-0.7,0.83-1.665,1.246-2.895,1.246
			c-1.24,0-2.216-0.416-2.926-1.246c-0.75-0.869-1.125-2.145-1.125-3.824s0.375-2.955,1.125-3.824
			C590.954,373.941,591.925,373.525,593.155,373.525z M594.797,376.023c-0.386-0.596-0.931-0.895-1.636-0.895
			s-1.25,0.299-1.635,0.895c-0.385,0.594-0.577,1.451-0.577,2.57c0,1.121,0.192,1.975,0.577,2.559
			c0.385,0.586,0.93,0.879,1.635,0.879s1.25-0.293,1.636-0.879c0.385-0.584,0.578-1.438,0.578-2.559
			C595.375,377.474,595.183,376.617,594.797,376.023z"/>
		<path fill="#FFFFFF" d="M602.65,373.525c0.601,0,1.147,0.104,1.643,0.309c0.494,0.205,0.917,0.516,1.268,0.938
			c0.76,0.891,1.14,2.164,1.14,3.824s-0.38,2.936-1.14,3.824c-0.7,0.83-1.665,1.246-2.896,1.246c-1.239,0-2.215-0.416-2.925-1.246
			c-0.75-0.869-1.125-2.145-1.125-3.824s0.375-2.955,1.125-3.824C600.449,373.941,601.419,373.525,602.65,373.525z M604.291,376.023
			c-0.385-0.596-0.93-0.895-1.635-0.895s-1.25,0.299-1.635,0.895c-0.385,0.594-0.577,1.451-0.577,2.57
			c0,1.121,0.192,1.975,0.577,2.559c0.385,0.586,0.93,0.879,1.635,0.879s1.25-0.293,1.635-0.879
			c0.386-0.584,0.578-1.438,0.578-2.559C604.869,377.474,604.677,376.617,604.291,376.023z"/>
	</g>
	<g enable-background="new    ">
		<path d="M586.345,176.524c0.54-0.09,1.055-0.135,1.545-0.135c1.01,0,1.814,0.242,2.415,0.728c0.6,0.484,0.899,1.183,0.899,2.092
			c0,0.99-0.335,1.806-1.005,2.445c-0.71,0.67-1.604,1.005-2.685,1.005c-1.07,0-1.925-0.27-2.565-0.81
			c-0.67-0.561-1.015-1.33-1.035-2.311h1.815c0,0.51,0.17,0.885,0.51,1.125c0.34,0.24,0.775,0.36,1.306,0.36
			c0.529,0,0.968-0.173,1.313-0.518c0.345-0.345,0.518-0.777,0.518-1.298c0-0.99-0.67-1.484-2.01-1.484h-2.97l0.45-5.011h5.835v1.62
			h-4.125L586.345,176.524z"/>
		<path d="M596.53,172.519c0.601,0,1.147,0.103,1.643,0.308s0.917,0.517,1.268,0.938c0.76,0.89,1.141,2.165,1.141,3.824
			c0,1.66-0.381,2.936-1.141,3.825c-0.7,0.83-1.665,1.245-2.895,1.245c-1.24,0-2.216-0.415-2.926-1.245
			c-0.75-0.87-1.125-2.145-1.125-3.825c0-1.68,0.375-2.955,1.125-3.824C594.329,172.934,595.3,172.519,596.53,172.519z
			 M598.172,175.016c-0.386-0.595-0.931-0.893-1.636-0.893s-1.25,0.298-1.635,0.893c-0.385,0.595-0.577,1.453-0.577,2.572
			c0,1.12,0.192,1.973,0.577,2.558s0.93,0.878,1.635,0.878s1.25-0.293,1.636-0.878c0.385-0.585,0.578-1.438,0.578-2.558
			C598.75,176.469,598.558,175.611,598.172,175.016z"/>
		<path d="M606.025,172.519c0.601,0,1.147,0.103,1.643,0.308c0.494,0.205,0.917,0.517,1.268,0.938c0.76,0.89,1.14,2.165,1.14,3.824
			c0,1.66-0.38,2.936-1.14,3.825c-0.7,0.83-1.665,1.245-2.896,1.245c-1.239,0-2.215-0.415-2.925-1.245
			c-0.75-0.87-1.125-2.145-1.125-3.825c0-1.68,0.375-2.955,1.125-3.824C603.824,172.934,604.794,172.519,606.025,172.519z
			 M607.666,175.016c-0.385-0.595-0.93-0.893-1.635-0.893s-1.25,0.298-1.635,0.893c-0.385,0.595-0.577,1.453-0.577,2.572
			c0,1.12,0.192,1.973,0.577,2.558s0.93,0.878,1.635,0.878s1.25-0.293,1.635-0.878c0.386-0.585,0.578-1.438,0.578-2.558
			C608.244,176.469,608.052,175.611,607.666,175.016z"/>
	</g>
	<g enable-background="new    ">
		<path d="M792.638,574.892c0.75-0.109,1.41-0.375,1.979-0.795h1.336v9.795h-1.771v-7.68c-0.51,0.25-1.024,0.375-1.545,0.375
			L792.638,574.892L792.638,574.892z"/>
		<path d="M802.104,573.962c0.6,0,1.146,0.104,1.642,0.307c0.496,0.205,0.917,0.518,1.269,0.939c0.76,0.889,1.14,2.164,1.14,3.824
			c0,1.658-0.38,2.936-1.14,3.824c-0.7,0.83-1.665,1.244-2.896,1.244c-1.238,0-2.215-0.414-2.924-1.244
			c-0.75-0.869-1.125-2.145-1.125-3.824c0-1.682,0.375-2.955,1.125-3.824C799.902,574.376,800.872,573.962,802.104,573.962z
			 M803.744,576.458c-0.385-0.594-0.93-0.893-1.635-0.893s-1.25,0.299-1.636,0.893c-0.385,0.596-0.576,1.453-0.576,2.572
			c0,1.121,0.191,1.973,0.576,2.559c0.386,0.584,0.931,0.877,1.636,0.877s1.25-0.293,1.635-0.877
			c0.387-0.586,0.577-1.438,0.577-2.559C804.322,577.914,804.131,577.054,803.744,576.458z"/>
		<path d="M811.598,573.962c0.6,0,1.146,0.104,1.643,0.307c0.494,0.205,0.917,0.518,1.269,0.939c0.76,0.889,1.14,2.164,1.14,3.824
			c0,1.658-0.38,2.936-1.14,3.824c-0.701,0.83-1.666,1.244-2.896,1.244c-1.239,0-2.215-0.414-2.925-1.244
			c-0.75-0.869-1.125-2.145-1.125-3.824c0-1.682,0.375-2.955,1.125-3.824C809.397,574.376,810.366,573.962,811.598,573.962z
			 M813.24,576.458c-0.385-0.594-0.93-0.893-1.635-0.893s-1.25,0.299-1.636,0.893c-0.385,0.596-0.577,1.453-0.577,2.572
			c0,1.121,0.192,1.973,0.577,2.559c0.386,0.584,0.931,0.877,1.636,0.877s1.25-0.293,1.635-0.877
			c0.386-0.586,0.577-1.438,0.577-2.559C813.817,577.914,813.625,577.054,813.24,576.458z"/>
		<path d="M819.322,573.962c0.271,0,0.53,0.047,0.78,0.143s0.47,0.236,0.66,0.428c0.409,0.391,0.614,0.955,0.614,1.693
			c0,0.73-0.205,1.301-0.614,1.711c-0.38,0.381-0.865,0.57-1.455,0.57c-0.57,0-1.045-0.189-1.425-0.57
			c-0.41-0.41-0.615-0.979-0.615-1.711c0-0.738,0.205-1.305,0.615-1.693C818.272,574.152,818.752,573.962,819.322,573.962z
			 M824.543,574.158h1.784l-6.586,9.734h-1.8L824.543,574.158z M820.043,576.226c0-0.76-0.246-1.139-0.735-1.139
			c-0.479,0-0.72,0.379-0.72,1.139c0,0.771,0.239,1.156,0.72,1.156C819.797,577.382,820.043,576.998,820.043,576.226z
			 M824.947,579.542c0.57,0,1.052,0.189,1.44,0.568c0.409,0.391,0.614,0.955,0.614,1.695s-0.205,1.314-0.614,1.725
			c-0.38,0.381-0.86,0.57-1.44,0.57s-1.06-0.189-1.438-0.57c-0.41-0.408-0.615-0.984-0.615-1.725s0.205-1.305,0.615-1.695
			C823.897,579.732,824.377,579.542,824.947,579.542z M824.947,580.667c-0.479,0-0.72,0.381-0.72,1.146s0.24,1.146,0.72,1.146
			c0.211,0,0.386-0.088,0.525-0.262c0.14-0.176,0.21-0.471,0.21-0.887c0-0.414-0.07-0.709-0.21-0.885
			C825.331,580.753,825.157,580.667,824.947,580.667z"/>
	</g>
	<g enable-background="new    ">
		<path d="M353.417,574.892c0.75-0.109,1.41-0.375,1.979-0.795h1.335v9.795h-1.77v-7.68c-0.51,0.25-1.025,0.375-1.545,0.375V574.892
			z"/>
		<path d="M361.427,577.966c0.54-0.09,1.055-0.135,1.545-0.135c1.01,0,1.815,0.242,2.415,0.729c0.6,0.484,0.9,1.184,0.9,2.092
			c0,0.99-0.335,1.807-1.005,2.445c-0.711,0.67-1.605,1.004-2.686,1.004c-1.07,0-1.925-0.27-2.564-0.809
			c-0.671-0.561-1.016-1.33-1.035-2.311h1.814c0,0.51,0.17,0.885,0.51,1.125c0.341,0.238,0.775,0.359,1.306,0.359
			s0.968-0.174,1.313-0.518c0.346-0.346,0.519-0.777,0.519-1.299c0-0.99-0.67-1.484-2.011-1.484h-2.97l0.45-5.01h5.835v1.619h-4.125
			L361.427,577.966z"/>
		<path d="M371.612,573.962c0.601,0,1.147,0.104,1.643,0.307c0.495,0.205,0.917,0.518,1.268,0.939
			c0.761,0.889,1.141,2.164,1.141,3.824c0,1.658-0.38,2.936-1.141,3.824c-0.7,0.83-1.665,1.244-2.895,1.244
			c-1.24,0-2.215-0.414-2.925-1.244c-0.75-0.869-1.125-2.145-1.125-3.824c0-1.682,0.375-2.955,1.125-3.824
			C369.412,574.376,370.381,573.962,371.612,573.962z M373.254,576.458c-0.385-0.594-0.93-0.893-1.635-0.893
			s-1.25,0.299-1.636,0.893c-0.385,0.596-0.577,1.453-0.577,2.572c0,1.121,0.192,1.973,0.577,2.559
			c0.386,0.584,0.931,0.877,1.636,0.877s1.25-0.293,1.635-0.877c0.385-0.586,0.578-1.438,0.578-2.559
			C373.832,577.914,373.639,577.054,373.254,576.458z"/>
		<path d="M377.072,583.697c-0.229-0.221-0.345-0.5-0.345-0.84s0.115-0.625,0.345-0.854c0.23-0.23,0.525-0.346,0.886-0.346
			c0.359,0,0.66,0.113,0.899,0.346c0.24,0.229,0.36,0.514,0.36,0.854s-0.12,0.619-0.36,0.84c-0.239,0.221-0.54,0.33-0.899,0.33
			C377.597,584.027,377.302,583.917,377.072,583.697z"/>
		<path d="M384.332,573.962c0.6,0,1.146,0.104,1.642,0.307c0.495,0.205,0.917,0.518,1.269,0.939c0.76,0.889,1.14,2.164,1.14,3.824
			c0,1.658-0.38,2.936-1.14,3.824c-0.7,0.83-1.665,1.244-2.896,1.244c-1.24,0-2.215-0.414-2.925-1.244
			c-0.75-0.869-1.125-2.145-1.125-3.824c0-1.682,0.375-2.955,1.125-3.824C382.132,574.376,383.102,573.962,384.332,573.962z
			 M385.974,576.458c-0.385-0.594-0.93-0.893-1.635-0.893s-1.25,0.299-1.635,0.893c-0.386,0.596-0.577,1.453-0.577,2.572
			c0,1.121,0.191,1.973,0.577,2.559c0.385,0.584,0.93,0.877,1.635,0.877s1.25-0.293,1.635-0.877
			c0.385-0.586,0.578-1.438,0.578-2.559C386.552,577.914,386.359,577.054,385.974,576.458z"/>
		<path d="M393.827,573.962c0.6,0,1.146,0.104,1.642,0.307c0.495,0.205,0.917,0.518,1.268,0.939
			c0.761,0.889,1.141,2.164,1.141,3.824c0,1.658-0.38,2.936-1.141,3.824c-0.699,0.83-1.665,1.244-2.895,1.244
			c-1.24,0-2.215-0.414-2.925-1.244c-0.75-0.869-1.125-2.145-1.125-3.824c0-1.682,0.375-2.955,1.125-3.824
			C391.626,574.376,392.596,573.962,393.827,573.962z M395.469,576.458c-0.385-0.594-0.93-0.893-1.635-0.893
			s-1.25,0.299-1.636,0.893c-0.385,0.596-0.576,1.453-0.576,2.572c0,1.121,0.191,1.973,0.576,2.559
			c0.386,0.584,0.931,0.877,1.636,0.877s1.25-0.293,1.635-0.877c0.385-0.586,0.578-1.438,0.578-2.559
			C396.046,577.914,395.854,577.054,395.469,576.458z"/>
		<path d="M403.322,573.962c0.601,0,1.147,0.104,1.643,0.307c0.495,0.205,0.917,0.518,1.268,0.939
			c0.761,0.889,1.141,2.164,1.141,3.824c0,1.658-0.38,2.936-1.141,3.824c-0.7,0.83-1.665,1.244-2.895,1.244
			c-1.24,0-2.215-0.414-2.925-1.244c-0.75-0.869-1.125-2.145-1.125-3.824c0-1.682,0.375-2.955,1.125-3.824
			C401.122,574.376,402.091,573.962,403.322,573.962z M404.964,576.458c-0.385-0.594-0.93-0.893-1.635-0.893
			s-1.25,0.299-1.636,0.893c-0.385,0.596-0.576,1.453-0.576,2.572c0,1.121,0.191,1.973,0.576,2.559
			c0.386,0.584,0.931,0.877,1.636,0.877s1.25-0.293,1.635-0.877c0.385-0.586,0.578-1.438,0.578-2.559
			C405.542,577.914,405.349,577.054,404.964,576.458z"/>
	</g>
	<g>
		<g>
			<g>
				<path d="M624.46,481.996v-1.916c0-1.254,0.458-2.184,1.359-2.76c0.292-0.189,0.636-0.357,1.021-0.504l1.995-0.766
					c0.396-0.152,0.686-0.342,0.861-0.561c0.17-0.211,0.252-0.475,0.252-0.795c0-0.314-0.106-0.564-0.327-0.771
					c-0.22-0.209-0.551-0.313-0.982-0.313c-0.442,0-0.811,0.104-1.09,0.311c-0.269,0.197-0.419,0.49-0.462,0.891l-0.023,0.225
					h-2.445l0.006-0.256c0.021-1.025,0.423-1.844,1.193-2.43c0.691-0.521,1.626-0.785,2.775-0.785c1.063,0,1.96,0.291,2.663,0.865
					c0.729,0.609,1.097,1.365,1.097,2.248c0,0.867-0.224,1.574-0.666,2.105c-0.43,0.514-1.098,0.949-1.983,1.295l-2.025,0.779
					c-0.354,0.137-0.607,0.283-0.755,0.439c-0.131,0.141-0.195,0.314-0.195,0.539v0.035h5.565v2.121h-7.834V481.996z"/>
			</g>
			<g>
				<path fill="#9BA705" d="M628.595,471.816c1.011,0,1.845,0.27,2.505,0.809c0.67,0.561,1.006,1.246,1.006,2.055
					c0,0.814-0.203,1.459-0.607,1.943s-1.032,0.893-1.882,1.223l-2.024,0.779c-0.391,0.15-0.672,0.318-0.848,0.504
					c-0.175,0.184-0.264,0.422-0.264,0.711v0.285h5.565v1.621h-7.335v-1.666c0-1.17,0.414-2.02,1.244-2.549
					c0.28-0.182,0.604-0.34,0.976-0.48l1.995-0.766c0.438-0.17,0.762-0.383,0.967-0.639c0.205-0.254,0.309-0.57,0.309-0.951
					s-0.136-0.697-0.404-0.953c-0.271-0.254-0.655-0.381-1.155-0.381s-0.913,0.119-1.238,0.357c-0.324,0.24-0.512,0.598-0.563,1.066
					h-1.966c0.021-0.951,0.386-1.695,1.096-2.236C626.619,472.06,627.494,471.816,628.595,471.816 M628.595,471.316
					c-1.206,0-2.189,0.279-2.927,0.834c-0.836,0.637-1.271,1.518-1.294,2.625l-0.011,0.51h0.511h1.966h0.448l0.048-0.445
					c0.036-0.334,0.151-0.561,0.363-0.717c0.238-0.176,0.546-0.262,0.939-0.262c0.366,0,0.64,0.082,0.813,0.244
					c0.169,0.16,0.249,0.35,0.249,0.59c0,0.266-0.063,0.475-0.198,0.641c-0.147,0.184-0.402,0.346-0.757,0.482l-1.994,0.766
					c-0.399,0.15-0.759,0.328-1.065,0.525c-0.979,0.625-1.475,1.625-1.475,2.971v1.666v0.5h0.5h7.335h0.5v-0.5v-1.621v-0.5h-0.5
					h-5.033c0.024-0.072,0.063-0.119,0.093-0.152c0.084-0.09,0.268-0.227,0.665-0.381l2.025-0.779
					c0.927-0.357,1.629-0.818,2.086-1.365c0.479-0.576,0.724-1.338,0.724-2.268c0-0.961-0.396-1.777-1.184-2.438
					C630.668,471.625,629.719,471.316,628.595,471.316L628.595,471.316z"/>
			</g>
		</g>
		<g>
			<g>
				<path d="M637.64,482.205c-1.312,0-2.357-0.447-3.114-1.332c-0.786-0.912-1.186-2.254-1.186-3.988
					c0-1.73,0.398-3.076,1.187-3.984c0.756-0.887,1.799-1.332,3.101-1.332c0.63,0,1.215,0.107,1.737,0.324
					c0.53,0.223,0.989,0.563,1.364,1.012c0.795,0.93,1.197,2.27,1.197,3.98c0,1.715-0.402,3.059-1.199,3.988
					C639.979,481.755,638.94,482.205,637.64,482.205z M637.632,473.669c-0.62,0-1.086,0.254-1.425,0.777
					c-0.356,0.551-0.537,1.371-0.537,2.438s0.18,1.879,0.535,2.42c0.34,0.516,0.807,0.766,1.427,0.766s1.087-0.25,1.427-0.766
					c0.355-0.541,0.536-1.354,0.536-2.42s-0.181-1.887-0.538-2.438C638.718,473.923,638.252,473.669,637.632,473.669z"/>
			</g>
			<g>
				<path fill="#9BA705" d="M637.625,471.816c0.6,0,1.146,0.102,1.642,0.307s0.917,0.518,1.269,0.938
					c0.761,0.893,1.141,2.166,1.141,3.824c0,1.66-0.38,2.939-1.141,3.826c-0.7,0.83-1.666,1.244-2.896,1.244
					c-1.239,0-2.215-0.414-2.925-1.244c-0.75-0.871-1.125-2.145-1.125-3.826c0-1.68,0.375-2.955,1.125-3.824
					C635.425,472.23,636.395,471.816,637.625,471.816 M637.632,480.32c0.705,0,1.25-0.293,1.635-0.877
					c0.386-0.586,0.578-1.439,0.578-2.559c0-1.121-0.191-1.979-0.578-2.572c-0.385-0.596-0.93-0.893-1.635-0.893
					s-1.25,0.297-1.636,0.893c-0.385,0.596-0.576,1.453-0.576,2.572s0.191,1.973,0.576,2.559
					C636.382,480.027,636.927,480.32,637.632,480.32 M637.625,471.316c-1.378,0-2.484,0.477-3.29,1.42
					c-0.826,0.957-1.245,2.354-1.245,4.148c0,1.793,0.419,3.191,1.246,4.15c0.805,0.939,1.917,1.42,3.304,1.42
					c1.378,0,2.48-0.48,3.276-1.424c0.834-0.979,1.259-2.371,1.259-4.146c0-1.773-0.425-3.17-1.261-4.148
					c-0.396-0.477-0.888-0.84-1.457-1.074C638.905,471.431,638.288,471.316,637.625,471.316L637.625,471.316z M637.632,479.82
					c-0.538,0-0.925-0.207-1.219-0.652c-0.327-0.5-0.494-1.268-0.494-2.283c0-1.014,0.167-1.791,0.497-2.301
					c0.293-0.453,0.68-0.664,1.215-0.664s0.922,0.211,1.215,0.664c0.33,0.51,0.498,1.285,0.498,2.301
					c0,1.02-0.167,1.783-0.495,2.283C638.557,479.613,638.17,479.82,637.632,479.82L637.632,479.82z"/>
			</g>
		</g>
		<g>
			<g>
				<path d="M650.975,482.205c-0.646,0-1.188-0.217-1.615-0.645c-0.457-0.455-0.688-1.096-0.688-1.9
					c0-0.809,0.232-1.438,0.691-1.875c0.436-0.424,0.979-0.641,1.611-0.641c0.637,0,1.18,0.217,1.615,0.643
					c0.457,0.436,0.689,1.064,0.689,1.873c0,0.807-0.23,1.445-0.688,1.9C652.164,481.988,651.62,482.205,650.975,482.205z
					 M650.975,478.769c-0.129,0-0.47,0-0.47,0.898c0,0.896,0.341,0.896,0.47,0.896c0.136,0,0.236-0.055,0.331-0.172
					c0.069-0.088,0.153-0.283,0.153-0.729c0-0.441-0.085-0.641-0.154-0.73C651.212,478.822,651.109,478.769,650.975,478.769z
					 M643.497,481.996l6.939-10.236h2.389l-6.924,10.236H643.497z M645.335,476.611c-0.637,0-1.176-0.219-1.603-0.645
					c-0.457-0.457-0.688-1.092-0.688-1.887c0-0.811,0.232-1.439,0.691-1.877c0.436-0.422,0.979-0.641,1.611-0.641
					c0.302,0,0.595,0.057,0.87,0.158c0.278,0.107,0.531,0.271,0.747,0.484c0.455,0.434,0.688,1.064,0.688,1.871
					c0,0.795-0.23,1.43-0.688,1.887C646.539,476.392,645.99,476.611,645.335,476.611z M645.335,473.191c-0.13,0-0.471,0-0.471,0.889
					c0,0.906,0.341,0.906,0.471,0.906c0.133,0,0.484,0,0.484-0.906C645.82,473.191,645.468,473.191,645.335,473.191z"/>
			</g>
			<g>
				<path fill="#9BA705" d="M645.35,471.816c0.271,0,0.53,0.047,0.78,0.143c0.25,0.094,0.47,0.236,0.659,0.426
					c0.409,0.395,0.614,0.955,0.614,1.695c0,0.73-0.205,1.301-0.614,1.711c-0.38,0.379-0.864,0.57-1.455,0.57
					c-0.569,0-1.045-0.191-1.425-0.57c-0.409-0.41-0.614-0.98-0.614-1.711c0-0.74,0.205-1.305,0.614-1.695
					C644.3,472.003,644.779,471.816,645.35,471.816 M645.335,475.236c0.488,0,0.734-0.387,0.734-1.156
					c0-0.76-0.246-1.139-0.734-1.139c-0.479,0-0.721,0.379-0.721,1.139C644.615,474.849,644.855,475.236,645.335,475.236
					 M652.355,472.009l-6.587,9.734h-1.8l6.602-9.734H652.355 M650.975,477.394c0.57,0,1.052,0.189,1.439,0.57
					c0.41,0.391,0.615,0.955,0.615,1.695s-0.205,1.313-0.615,1.725c-0.38,0.379-0.859,0.57-1.439,0.57s-1.061-0.191-1.438-0.57
					c-0.409-0.41-0.614-0.984-0.614-1.725c0-0.742,0.205-1.309,0.614-1.695C649.925,477.583,650.404,477.394,650.975,477.394
					 M650.975,480.816c0.211,0,0.386-0.09,0.525-0.264c0.14-0.176,0.21-0.471,0.21-0.885c0-0.416-0.07-0.711-0.21-0.887
					c-0.142-0.174-0.314-0.264-0.525-0.264c-0.479,0-0.72,0.385-0.72,1.146C650.255,480.431,650.494,480.816,650.975,480.816
					 M645.35,471.316c-0.703,0-1.305,0.238-1.788,0.711c-0.508,0.482-0.767,1.176-0.767,2.053c0,0.865,0.256,1.559,0.762,2.063
					c0.477,0.479,1.074,0.721,1.777,0.721c0.726,0,1.334-0.242,1.81-0.721c0.022-0.02,0.047-0.047,0.068-0.068l-3.656,5.393
					l-0.528,0.781h0.942h1.8h0.267l0.147-0.221l2.479-3.666c-0.161,0.373-0.243,0.807-0.243,1.301c0,0.875,0.257,1.574,0.762,2.078
					c0.477,0.477,1.079,0.717,1.793,0.717c0.716,0,1.318-0.24,1.794-0.717c0.506-0.504,0.763-1.203,0.763-2.078
					c0-0.877-0.259-1.57-0.771-2.061c-0.479-0.467-1.082-0.707-1.785-0.707c-0.701,0-1.305,0.24-1.787,0.713
					c-0.015,0.014-0.026,0.023-0.04,0.037l3.622-5.354l0.527-0.781h-0.94h-1.785h-0.266l-0.148,0.223l-2.541,3.746
					c0.191-0.396,0.289-0.863,0.289-1.395c0-0.879-0.259-1.57-0.77-2.059c-0.232-0.23-0.516-0.412-0.829-0.531
					C646.004,471.375,645.682,471.316,645.35,471.316L645.35,471.316z M645.335,474.736c-0.183,0-0.221-0.357-0.221-0.656
					c0-0.424,0.074-0.639,0.221-0.639c0.06,0,0.234,0,0.234,0.639C645.57,474.736,645.394,474.736,645.335,474.736L645.335,474.736z
					 M650.975,480.316c-0.146,0-0.22-0.219-0.22-0.648c0-0.428,0.073-0.645,0.22-0.645c0.044,0,0.08,0.006,0.137,0.072
					c0.016,0.021,0.101,0.146,0.101,0.572c0,0.436-0.091,0.561-0.102,0.572C651.054,480.308,651.017,480.316,650.975,480.316
					L650.975,480.316z"/>
			</g>
		</g>
	</g>
	<g enable-background="new    ">
		<path fill="#FFFFFF" d="M531.695,473.542c-1.09,0-1.725,0.416-1.905,1.246h-1.859c0.1-0.961,0.49-1.686,1.17-2.176
			c0.64-0.449,1.479-0.674,2.52-0.674c1.07,0,1.94,0.25,2.61,0.75c0.7,0.51,1.05,1.164,1.05,1.965c0,0.5-0.135,0.932-0.405,1.297
			c-0.27,0.365-0.67,0.637-1.199,0.816c0.59,0.201,1.062,0.498,1.417,0.895c0.354,0.395,0.531,0.846,0.531,1.355
			c0,0.512-0.092,0.945-0.276,1.307c-0.186,0.359-0.448,0.67-0.788,0.93c-0.72,0.551-1.655,0.824-2.805,0.824
			c-1.101,0-2.025-0.279-2.775-0.84c-0.84-0.609-1.26-1.42-1.26-2.43h1.89c0.03,0.51,0.238,0.908,0.623,1.199
			c0.385,0.289,0.888,0.436,1.508,0.436s1.104-0.139,1.447-0.412c0.345-0.275,0.518-0.625,0.518-1.051s-0.157-0.758-0.473-0.996
			c-0.315-0.24-0.813-0.361-1.492-0.361h-1.29v-1.395h1.11c0.569,0,1.015-0.123,1.335-0.367s0.479-0.568,0.479-0.969
			c0-0.398-0.138-0.725-0.413-0.975C532.687,473.667,532.265,473.542,531.695,473.542z"/>
		<path fill="#FFFFFF" d="M541.13,471.939c0.6,0,1.146,0.104,1.642,0.309s0.917,0.516,1.268,0.938
			c0.761,0.891,1.141,2.164,1.141,3.824s-0.38,2.936-1.141,3.824c-0.699,0.83-1.664,1.246-2.895,1.246
			c-1.24,0-2.215-0.416-2.925-1.246c-0.75-0.869-1.125-2.145-1.125-3.824s0.375-2.955,1.125-3.824
			C538.93,472.353,539.9,471.939,541.13,471.939z M542.772,474.435c-0.385-0.594-0.93-0.893-1.635-0.893s-1.25,0.299-1.635,0.893
			c-0.386,0.596-0.577,1.453-0.577,2.572c0,1.121,0.191,1.975,0.577,2.559c0.385,0.586,0.93,0.879,1.635,0.879
			s1.25-0.293,1.635-0.879c0.385-0.584,0.578-1.438,0.578-2.559C543.35,475.888,543.157,475.031,542.772,474.435z"/>
		<path fill="#FFFFFF" d="M546.59,481.673c-0.23-0.221-0.346-0.5-0.346-0.84s0.115-0.625,0.346-0.855
			c0.229-0.229,0.524-0.346,0.885-0.346s0.66,0.115,0.9,0.346c0.239,0.23,0.359,0.516,0.359,0.855c0,0.338-0.12,0.619-0.359,0.84
			c-0.24,0.219-0.54,0.33-0.9,0.33S546.82,481.892,546.59,481.673z"/>
		<path fill="#FFFFFF" d="M553.85,471.939c0.6,0,1.146,0.104,1.642,0.309s0.917,0.516,1.269,0.938c0.76,0.891,1.14,2.164,1.14,3.824
			s-0.38,2.936-1.14,3.824c-0.7,0.83-1.665,1.246-2.896,1.246c-1.239,0-2.215-0.416-2.925-1.246
			c-0.75-0.869-1.125-2.145-1.125-3.824s0.375-2.955,1.125-3.824C551.65,472.353,552.619,471.939,553.85,471.939z M555.491,474.435
			c-0.385-0.594-0.93-0.893-1.635-0.893s-1.25,0.299-1.635,0.893c-0.385,0.596-0.577,1.453-0.577,2.572
			c0,1.121,0.192,1.975,0.577,2.559c0.385,0.586,0.93,0.879,1.635,0.879s1.25-0.293,1.635-0.879
			c0.386-0.584,0.578-1.438,0.578-2.559C556.07,475.888,555.877,475.031,555.491,474.435z"/>
		<path fill="#FFFFFF" d="M563.345,471.939c0.6,0,1.146,0.104,1.642,0.309s0.917,0.516,1.269,0.938
			c0.76,0.891,1.14,2.164,1.14,3.824s-0.38,2.936-1.14,3.824c-0.7,0.83-1.665,1.246-2.896,1.246c-1.24,0-2.215-0.416-2.925-1.246
			c-0.75-0.869-1.125-2.145-1.125-3.824s0.375-2.955,1.125-3.824C561.145,472.353,562.115,471.939,563.345,471.939z
			 M564.987,474.435c-0.385-0.594-0.93-0.893-1.635-0.893s-1.25,0.299-1.635,0.893c-0.386,0.596-0.577,1.453-0.577,2.572
			c0,1.121,0.191,1.975,0.577,2.559c0.385,0.586,0.93,0.879,1.635,0.879s1.25-0.293,1.635-0.879
			c0.385-0.584,0.578-1.438,0.578-2.559C565.565,475.888,565.372,475.031,564.987,474.435z"/>
		<path fill="#FFFFFF" d="M572.84,471.939c0.6,0,1.146,0.104,1.642,0.309s0.917,0.516,1.269,0.938c0.76,0.891,1.14,2.164,1.14,3.824
			s-0.38,2.936-1.14,3.824c-0.7,0.83-1.665,1.246-2.896,1.246c-1.24,0-2.215-0.416-2.925-1.246c-0.75-0.869-1.125-2.145-1.125-3.824
			s0.375-2.955,1.125-3.824C570.64,472.353,571.609,471.939,572.84,471.939z M574.482,474.435c-0.385-0.594-0.93-0.893-1.635-0.893
			s-1.25,0.299-1.635,0.893c-0.386,0.596-0.577,1.453-0.577,2.572c0,1.121,0.191,1.975,0.577,2.559
			c0.385,0.586,0.93,0.879,1.635,0.879s1.25-0.293,1.635-0.879c0.385-0.584,0.578-1.438,0.578-2.559
			C575.06,475.888,574.866,475.031,574.482,474.435z"/>
	</g>
	<g>
		<circle fill="#FFFFFF" cx="595.31" cy="390.453" r="2.477"/>
	</g>
	<g>
		<circle cx="595.31" cy="192.449" r="2.476"/>
	</g>
	<g>
		<circle cx="809.688" cy="563.759" r="2.477"/>
	</g>
	<g>
		<circle cx="380.936" cy="563.759" r="2.477"/>
	</g>
	<g>
		<circle fill="#FFFFFF" cx="552.382" cy="464.749" r="2.476"/>
	</g>
	<g>
		<circle cx="638.227" cy="464.749" r="2.476"/>
	</g>
</g>
</svg>
