<?xml version="1.0" encoding="utf-8"?>
<!-- Generator: Adobe Illustrator 18.1.1, SVG Export Plug-In . SVG Version: 6.00 Build 0)  -->
<svg version="1.1" id="Layer_1" xmlns="http://www.w3.org/2000/svg" xmlns:xlink="http://www.w3.org/1999/xlink" x="0px" y="0px"
	 viewBox="928.7 987.8 1411 3116.3" enable-background="new 928.7 987.8 1411 3116.3" xml:space="preserve">
<g>
	<rect x="1177.1" y="1882" fill="#FFFFFF" width="859" height="172.8"/>
	<rect x="1430.6" y="1142.8" fill="#FFFFFF" width="401.7" height="221.3"/>
	<line fill="none" stroke="#248BFF" stroke-width="3" stroke-miterlimit="10" x1="1554.7" y1="3732.3" x2="1531.2" y2="3732.3"/>
	<line fill="none" stroke="#248BFF" stroke-width="3" stroke-miterlimit="10" x1="1554.7" y1="3379.1" x2="1422.9" y2="3379.1"/>
	<line fill="none" stroke="#248BFF" stroke-width="3" stroke-miterlimit="10" x1="1554.7" y1="3204.8" x2="1535.9" y2="3204.8"/>
	<line fill="none" stroke="#248BFF" stroke-width="3" stroke-miterlimit="10" x1="1554.7" y1="3025.9" x2="1512.4" y2="3025.9"/>
	<line fill="none" stroke="#248BFF" stroke-width="3" stroke-miterlimit="10" x1="1554.7" y1="2851.6" x2="1488.8" y2="2851.6"/>
	<line fill="none" stroke="#248BFF" stroke-width="3" stroke-miterlimit="10" x1="1554.7" y1="2677.4" x2="1488.8" y2="2677.4"/>
	<line fill="none" stroke="#248BFF" stroke-width="3" stroke-miterlimit="10" x1="1554.7" y1="2498.4" x2="1465.3" y2="2498.4"/>
	<line fill="none" stroke="#248BFF" stroke-width="3" stroke-miterlimit="10" x1="1554.7" y1="2324.2" x2="1352.2" y2="2324.2"/>
	<line fill="none" stroke="#248BFF" stroke-width="3" stroke-miterlimit="10" x1="1554.7" y1="2145.3" x2="1399.3" y2="2145.3"/>
	<line fill="none" stroke="#248BFF" stroke-width="3" stroke-miterlimit="10" x1="1554.7" y1="1966.3" x2="1258.1" y2="1966.3"/>
	<line fill="none" stroke="#248BFF" stroke-width="3" stroke-miterlimit="10" x1="1554.7" y1="1792.1" x2="1300.4" y2="1792.1"/>
	<line fill="none" stroke="#248BFF" stroke-width="3" stroke-miterlimit="10" x1="1554.7" y1="1622.5" x2="1211" y2="1622.5"/>
	<line fill="none" stroke="#F85F55" stroke-width="3" stroke-miterlimit="10" x1="1799.6" y1="3558" x2="1705.4" y2="3558"/>
	<line fill="none" stroke="#F85F55" stroke-width="3" stroke-miterlimit="10" x1="1752.5" y1="3379.1" x2="1705.4" y2="3379.1"/>
	<line fill="none" stroke="#F85F55" stroke-width="3" stroke-miterlimit="10" x1="1752.5" y1="3204.8" x2="1705.4" y2="3204.8"/>
	<line fill="none" stroke="#F85F55" stroke-width="3" stroke-miterlimit="10" x1="1729" y1="3025.9" x2="1705.4" y2="3025.9"/>
	<line fill="none" stroke="#F85F55" stroke-width="3" stroke-miterlimit="10" x1="1865.5" y1="2851.6" x2="1705.4" y2="2851.6"/>
	<line fill="none" stroke="#F85F55" stroke-width="3" stroke-miterlimit="10" x1="1752.5" y1="2677.4" x2="1705.4" y2="2677.4"/>
	<line fill="none" stroke="#F85F55" stroke-width="3" stroke-miterlimit="10" x1="1865.5" y1="2498.4" x2="1705.4" y2="2498.4"/>
	<line fill="none" stroke="#F85F55" stroke-width="3" stroke-miterlimit="10" x1="1978.6" y1="2324.2" x2="1705.4" y2="2324.2"/>
	<line fill="none" stroke="#F85F55" stroke-width="3" stroke-miterlimit="10" x1="1889.1" y1="2145.3" x2="1705.4" y2="2145.3"/>
	<line fill="none" stroke="#F85F55" stroke-width="3" stroke-miterlimit="10" x1="1955" y1="1966.3" x2="1705.4" y2="1966.3"/>
	<line fill="none" stroke="#F85F55" stroke-width="3" stroke-miterlimit="10" x1="2091.6" y1="1792.1" x2="1705.4" y2="1792.1"/>
	<line fill="none" stroke="#F85F55" stroke-width="3" stroke-miterlimit="10" x1="2091.6" y1="1622.5" x2="1705.4" y2="1622.5"/>
	<text transform="matrix(1 0 0 1 1521.0085 1288.3602)" fill="#C8DACC" font-family="'CircularStd-Black'" font-size="99.9807">2012</text>
	<line fill="none" stroke="#FFFFFF" stroke-width="2" stroke-miterlimit="10" x1="1630.1" y1="4028.9" x2="1630.1" y2="1325.9"/>
</g>
</svg>
