<?xml version="1.0" encoding="utf-8"?>
<!-- Generator: Adobe Illustrator 16.0.0, SVG Export Plug-In . SVG Version: 6.00 Build 0)  -->
<!DOCTYPE svg PUBLIC "-//W3C//DTD SVG 1.1//EN" "http://www.w3.org/Graphics/SVG/1.1/DTD/svg11.dtd">
<svg version="1.1" id="Layer_1" xmlns="http://www.w3.org/2000/svg" xmlns:xlink="http://www.w3.org/1999/xlink" x="0px" y="0px"
	 width="1280px" height="522.588px" viewBox="0 0 1280 522.588" enable-background="new 0 0 1280 522.588" xml:space="preserve">
<rect y="-7.104" fill="#333333" width="1280" height="530"/>
<g>
	<rect x="429.393" y="268.23" fill="none" stroke="#CC1534" stroke-miterlimit="10" width="48.418" height="13.593"/>
	<rect x="429.393" y="295.647" fill="none" stroke="#CC1534" stroke-miterlimit="10" width="48.418" height="13.591"/>
	<rect x="429.393" y="323.062" fill="none" stroke="#CC1534" stroke-miterlimit="10" width="48.418" height="13.591"/>
	<text transform="matrix(1 0 0 1 1060.6309 58.5176)"><tspan x="0" y="0" fill="#FFFFFF" font-family="'Karla', sans-serif" font-size="14.8652">AGAINST</tspan><tspan x="0" y="17.838" fill="#FFFFFF" font-family="'Karla', sans-serif" font-size="14.8652">SURVEILLANCE</tspan></text>
	<text transform="matrix(1 0 0 1 722.3809 58.5176)" fill="#FFFFFF" font-family="'Karla', sans-serif" font-size="14.8652">NO POSITION</text>
	<g>
		<text transform="matrix(1 0 0 1 150.8853 58.5176)"><tspan x="0" y="0" fill="#FFFFFF" font-family="'Karla', sans-serif" font-size="14.8652">SURVEILLANCE</tspan><tspan x="0" y="17.838" fill="#FFFFFF" font-family="'Karla', sans-serif" font-size="14.8652">IS NECESSARY</tspan></text>
	</g>
	<text transform="matrix(1 0 0 1 429.3916 58.5176)"><tspan x="0" y="0" fill="#FFFFFF" font-family="'Karla', sans-serif" font-size="14.8652">SURVEILLANCE</tspan><tspan x="0" y="17.838" fill="#FFFFFF" font-family="'Karla', sans-serif" font-size="14.8652">PRACTICIES ARE ILLEGAL</tspan></text>
	<text transform="matrix(1 0 0 1 54.3135 113.3354)" fill="#FFFFFF" font-family="'Karla', sans-serif" font-size="12.7416">SURVEILLANCE</text>
	<text transform="matrix(1 0 0 1 91.6968 140.9419)" fill="#FFFFFF" font-family="'Karla', sans-serif" font-size="12.7416">PRIVACY</text>
	<text transform="matrix(1 0 0 1 104.5146 168.5483)" fill="#FFFFFF" font-family="'Karla', sans-serif" font-size="12.7416">RIGHT</text>
	<text transform="matrix(1 0 0 1 38.437 196.1548)" fill="#FFFFFF" font-family="'Karla', sans-serif" font-size="12.7416">4TH AMENDMENT</text>
	<text transform="matrix(1 0 0 1 41.6738 223.7627)" fill="#FFFFFF" font-family="'Karla', sans-serif" font-size="12.7416">CONSTITUTIONAL</text>
	<text transform="matrix(1 0 0 1 58.5947 251.3691)" fill="#FFFFFF" font-family="'Karla', sans-serif" font-size="12.7416">DISCLOSURES</text>
	<text transform="matrix(1 0 0 1 41.1265 278.9766)" fill="#FFFFFF" font-family="'Karla', sans-serif" font-size="12.7416">CLOUD SERVICES</text>
	<text transform="matrix(1 0 0 1 115.2549 306.582)" fill="#FFFFFF" font-family="'Karla', sans-serif" font-size="12.7416">NSA</text>
	<text transform="matrix(1 0 0 1 82.6499 334.1895)" fill="#FFFFFF" font-family="'Karla', sans-serif" font-size="12.7416">WARRANT</text>
	<text transform="matrix(1 0 0 1 83.2495 361.7969)" fill="#FFFFFF" font-family="'Karla', sans-serif" font-size="12.7416">SECURITY</text>
	<rect x="150.886" y="103.737" fill="none" stroke="#CC1534" stroke-miterlimit="10" width="101.933" height="13.59"/>
	<rect x="150.886" y="131.152" fill="none" stroke="#CC1534" stroke-miterlimit="10" width="101.933" height="13.592"/>
	<rect x="150.886" y="158.568" fill="none" stroke="#CC1534" stroke-miterlimit="10" width="68.041" height="13.591"/>
	<rect x="150.886" y="185.984" fill="none" stroke="#00A1AF" stroke-miterlimit="10" width="68.041" height="13.59"/>
	<rect x="150.886" y="213.4" fill="none" stroke="#CC1534" stroke-miterlimit="10" width="68.041" height="13.59"/>
	<rect x="150.886" y="240.815" fill="none" stroke="#00A1AF" stroke-miterlimit="10" width="50.967" height="13.591"/>
	<rect x="150.886" y="268.23" fill="none" stroke="#00A1AF" stroke-miterlimit="10" width="50.967" height="13.593"/>
	<rect x="150.886" y="295.647" fill="none" stroke="#CC1534" stroke-miterlimit="10" width="50.967" height="13.591"/>
	<rect x="150.886" y="323.062" fill="none" stroke="#00A1AF" stroke-miterlimit="10" width="50.967" height="13.591"/>
	<rect x="150.886" y="350.478" fill="none" stroke="#00A1AF" stroke-miterlimit="10" width="33.129" height="13.59"/>
	<rect x="429.393" y="103.737" fill="none" stroke="#CC1534" stroke-miterlimit="10" width="127.416" height="13.59"/>
	<rect x="429.393" y="131.152" fill="none" stroke="#CC1534" stroke-miterlimit="10" width="112.125" height="13.592"/>
	<rect x="429.393" y="158.568" fill="none" stroke="#CC1534" stroke-miterlimit="10" width="112.125" height="13.591"/>
	<rect x="429.393" y="185.984" fill="none" stroke="#00A1AF" stroke-miterlimit="10" width="112.125" height="13.59"/>
	<rect x="429.393" y="213.4" fill="none" stroke="#CC1534" stroke-miterlimit="10" width="112.125" height="13.59"/>
	<rect x="429.393" y="240.815" fill="none" stroke="#00A1AF" stroke-miterlimit="10" width="63.708" height="13.591"/>
	<rect x="429.393" y="268.23" fill="none" stroke="#00A1AF" stroke-miterlimit="10" width="48.418" height="13.593"/>
	<rect x="429.393" y="295.647" fill="none" stroke="#00A1AF" stroke-miterlimit="10" width="48.418" height="13.591"/>
	<rect x="429.393" y="323.062" fill="none" stroke="#00A1AF" stroke-miterlimit="10" width="48.418" height="13.591"/>
	<rect x="429.393" y="350.478" fill="none" stroke="#CC1534" stroke-miterlimit="10" width="48.418" height="13.59"/>
	
		<rect x="150.886" y="425.799" opacity="0.4" fill="none" stroke="#D8D2C4" stroke-miterlimit="10" width="16.123" height="13.592"/>
	<rect x="287.572" y="425.799" fill="none" stroke="#CC1534" stroke-miterlimit="10" width="16.124" height="13.592"/>
	<rect x="287.572" y="448.357" fill="none" stroke="#00A1AF" stroke-miterlimit="10" width="16.124" height="13.591"/>
	<text transform="matrix(1 0 0 1 371.6367 113.3354)" fill="#FFFFFF" font-family="'Karla', sans-serif" font-size="12.7416">PRIVACY</text>
	<text transform="matrix(1 0 0 1 334.2534 141.1431)" fill="#FFFFFF" font-family="'Karla', sans-serif" font-size="12.7416">SURVEILLANCE</text>
	<text transform="matrix(1 0 0 1 384.4546 168.7505)" fill="#FFFFFF" font-family="'Karla', sans-serif" font-size="12.7416">RIGHT</text>
	<text transform="matrix(1 0 0 1 318.3774 196.1548)" fill="#FFFFFF" font-family="'Karla', sans-serif" font-size="12.7416">4TH AMENDMENT</text>
	<text transform="matrix(1 0 0 1 346.5869 223.7627)" fill="#FFFFFF" font-family="'Karla', sans-serif" font-size="12.7416">DEMOCRACY</text>
	<text transform="matrix(1 0 0 1 362.6919 251.3691)" fill="#FFFFFF" font-family="'Karla', sans-serif" font-size="12.7416">FREEDOM</text>
	<text transform="matrix(1 0 0 1 341.9868 278.9766)" fill="#FFFFFF" font-family="'Karla', sans-serif" font-size="12.7416">EXPECTATION</text>
	<text transform="matrix(1 0 0 1 360.2969 306.582)" fill="#FFFFFF" font-family="'Karla', sans-serif" font-size="12.7416">VIOLATION</text>
	<text transform="matrix(1 0 0 1 362.5898 334.1895)" fill="#FFFFFF" font-family="'Karla', sans-serif" font-size="12.7416">WARRANT</text>
	<text transform="matrix(1 0 0 1 395.1948 361.7969)" fill="#FFFFFF" font-family="'Karla', sans-serif" font-size="12.7416">NSA</text>
	<text transform="matrix(1 0 0 1 172.1465 436.8818)" fill="#FFFFFF" font-family="'Karla', sans-serif" font-size="12.7416">frequence: 1</text>
	<text transform="matrix(1 0 0 1 310.3711 436.8818)" fill="#FFFFFF" font-family="'Karla', sans-serif" font-size="12.7416">generic words about the topic</text>
	<text transform="matrix(1 0 0 1 310.3711 458.291)" fill="#FFFFFF" font-family="'Karla', sans-serif" font-size="12.7416">words giving the orientation</text>
	<text transform="matrix(1 0 0 1 172.1465 457.7529)"><tspan x="0" y="0" fill="#FFFFFF" font-family="'Karla', sans-serif" font-size="12.7416">common</tspan><tspan x="0" y="15.29" fill="#FFFFFF" font-family="'Karla', sans-serif" font-size="12.7416">keywords</tspan></text>
	<rect x="722.383" y="103.737" fill="none" stroke="#CC1534" stroke-miterlimit="10" width="127.414" height="13.59"/>
	<rect x="722.383" y="131.152" fill="none" stroke="#CC1534" stroke-miterlimit="10" width="112.125" height="13.592"/>
	<rect x="722.383" y="158.568" fill="none" stroke="#CC1534" stroke-miterlimit="10" width="112.125" height="13.591"/>
	<rect x="722.383" y="185.984" fill="none" stroke="#00A1AF" stroke-miterlimit="10" width="112.125" height="13.59"/>
	<rect x="722.383" y="213.4" fill="none" stroke="#CC1534" stroke-miterlimit="10" width="112.125" height="13.59"/>
	<rect x="722.383" y="240.815" fill="none" stroke="#CC1534" stroke-miterlimit="10" width="63.707" height="13.591"/>
	<rect x="722.383" y="268.23" fill="none" stroke="#00A1AF" stroke-miterlimit="10" width="48.418" height="13.593"/>
	<rect x="722.383" y="323.062" fill="none" stroke="#00A1AF" stroke-miterlimit="10" width="48.418" height="13.591"/>
	<rect x="722.383" y="350.478" fill="none" stroke="#CC1534" stroke-miterlimit="10" width="48.418" height="13.59"/>
	<text transform="matrix(1 0 0 1 665.5449 113.3354)" fill="#FFFFFF" font-family="'Karla', sans-serif" font-size="12.7416">PRIVACY</text>
	<text transform="matrix(1 0 0 1 678.3633 141.1431)" fill="#FFFFFF" font-family="'Karla', sans-serif" font-size="12.7416">RIGHT</text>
	<text transform="matrix(1 0 0 1 628.1626 168.7505)" fill="#FFFFFF" font-family="'Karla', sans-serif" font-size="12.7416">SURVEILLANCE</text>
	<text transform="matrix(1 0 0 1 623.9067 196.1548)" fill="#FFFFFF" font-family="'Karla', sans-serif" font-size="12.7416">HUMAN RIGHTS</text>
	<text transform="matrix(1 0 0 1 688.5312 223.7627)" fill="#FFFFFF" font-family="'Karla', sans-serif" font-size="12.7416">LAW</text>
	<text transform="matrix(1 0 0 1 684.4277 251.3691)" fill="#FFFFFF" font-family="'Karla', sans-serif" font-size="12.7416">DATA</text>
	<text transform="matrix(1 0 0 1 656.5508 278.9766)" fill="#FFFFFF" font-family="'Karla', sans-serif" font-size="12.7416">DISTRUST</text>
	<text transform="matrix(1 0 0 1 681.5625 306.582)" fill="#FFFFFF" font-family="'Karla', sans-serif" font-size="12.7416">ECHR</text>
	<text transform="matrix(1 0 0 1 642.0127 334.1895)" fill="#FFFFFF" font-family="'Karla', sans-serif" font-size="12.7416">RESISTANCE</text>
	<text transform="matrix(1 0 0 1 632.5708 361.7969)" fill="#FFFFFF" font-family="'Karla', sans-serif" font-size="12.7416">GOVERNMENT</text>
	<rect x="1060.633" y="103.737" fill="none" stroke="#CC1534" stroke-miterlimit="10" width="180.93" height="13.59"/>
	<rect x="1060.633" y="131.152" fill="none" stroke="#CC1534" stroke-miterlimit="10" width="145.252" height="13.592"/>
	<rect x="1060.633" y="158.568" fill="none" stroke="#00A1AF" stroke-miterlimit="10" width="145.252" height="13.591"/>
	<rect x="1060.633" y="185.984" fill="none" stroke="#CC1534" stroke-miterlimit="10" width="107.027" height="13.59"/>
	<rect x="1060.633" y="213.4" fill="none" stroke="#00A1AF" stroke-miterlimit="10" width="71.352" height="13.59"/>
	<rect x="1060.633" y="240.815" fill="none" stroke="#00A1AF" stroke-miterlimit="10" width="71.352" height="13.59"/>
	<rect x="1060.633" y="268.23" fill="none" stroke="#00A1AF" stroke-miterlimit="10" width="71.352" height="13.593"/>
	<rect x="1060.633" y="295.647" fill="none" stroke="#00A1AF" stroke-miterlimit="10" width="71.352" height="13.591"/>
	<rect x="1060.633" y="323.062" fill="none" stroke="#00A1AF" stroke-miterlimit="10" width="71.352" height="13.591"/>
	<rect x="1060.633" y="350.478" fill="none" stroke="#CC1534" stroke-miterlimit="10" width="71.352" height="13.59"/>
	<text transform="matrix(1 0 0 1 1002.4688 113.3354)" fill="#FFFFFF" font-family="'Karla', sans-serif" font-size="12.7416">PRIVACY</text>
	<text transform="matrix(1 0 0 1 1015.2871 140.9419)" fill="#FFFFFF" font-family="'Karla', sans-serif" font-size="12.7416">RIGHT</text>
	<text transform="matrix(1 0 0 1 910.9727 168.5483)" fill="#FFFFFF" font-family="'Karla', sans-serif" font-size="12.7416">FOUNDAMENTAL RIGHTS</text>
	<text transform="matrix(1 0 0 1 977.4199 196.1548)" fill="#FFFFFF" font-family="'Karla', sans-serif" font-size="12.7416">DEMOCRACY</text>
	<text transform="matrix(1 0 0 1 972.8965 223.7627)" fill="#FFFFFF" font-family="'Karla', sans-serif" font-size="12.7416">LARGE-SCALE</text>
	<text transform="matrix(1 0 0 1 1014.6641 251.5703)" fill="#FFFFFF" font-family="'Karla', sans-serif" font-size="12.7416">THEFT</text>
	<text transform="matrix(1 0 0 1 993.4238 278.9766)" fill="#FFFFFF" font-family="'Karla', sans-serif" font-size="12.7416">WARRANT</text>
	<text transform="matrix(1 0 0 1 1004.585 306.582)" fill="#FFFFFF" font-family="'Karla', sans-serif" font-size="12.7416">TERROR</text>
	<text transform="matrix(1 0 0 1 1003.2617 334.1895)" fill="#FFFFFF" font-family="'Karla', sans-serif" font-size="12.7416">ORWELL</text>
	<text transform="matrix(1 0 0 1 1004.0371 361.7969)" fill="#FFFFFF" font-family="'Karla', sans-serif" font-size="12.7416">EUROPE</text>
	<line opacity="0.4" fill="none" stroke="#D8D2C4" stroke-miterlimit="10" x1="254.634" y1="137.204" x2="365.76" y2="111.333"/>
	<circle opacity="0.4" fill="#D8D2C4" cx="252.818" cy="137.947" r="1.964"/>
	<circle opacity="0.4" fill="#D8D2C4" cx="218.927" cy="165.364" r="1.964"/>
	<circle opacity="0.4" fill="#D8D2C4" cx="380.619" cy="165.364" r="1.963"/>
	<circle opacity="0.4" fill="#D8D2C4" cx="541.519" cy="165.364" r="1.964"/>
	<circle opacity="0.4" fill="#D8D2C4" cx="218.927" cy="192.779" r="1.964"/>
	<circle opacity="0.4" fill="#D8D2C4" cx="201.852" cy="329.857" r="1.964"/>
	<path opacity="0.4" fill="#D8D2C4" d="M152.85,455.152c0,1.086-0.879,1.965-1.964,1.965c-1.084,0-1.965-0.879-1.965-1.965
		c0-1.082,0.881-1.962,1.965-1.962C151.971,453.19,152.85,454.07,152.85,455.152z"/>
	<circle opacity="0.4" fill="#D8D2C4" cx="357.171" cy="329.857" r="1.964"/>
	<circle opacity="0.4" fill="#D8D2C4" cx="477.81" cy="329.857" r="1.964"/>
	<circle opacity="0.4" fill="#D8D2C4" cx="541.519" cy="220.196" r="1.964"/>
	<circle opacity="0.4" fill="#D8D2C4" cx="989.221" cy="275.027" r="1.963"/>
	<circle opacity="0.4" fill="#D8D2C4" cx="312.161" cy="192.779" r="1.964"/>
	<circle opacity="0.4" fill="#D8D2C4" cx="556.808" cy="110.532" r="1.964"/>
	<circle opacity="0.4" fill="#D8D2C4" cx="541.519" cy="137.947" r="1.964"/>
	<circle opacity="0.4" fill="#D8D2C4" cx="673.161" cy="137.947" r="1.964"/>
	<circle opacity="0.4" fill="#D8D2C4" cx="834.509" cy="137.947" r="1.964"/>
	<circle opacity="0.4" fill="#D8D2C4" cx="1010.942" cy="137.947" r="1.964"/>
	<circle opacity="0.4" fill="#D8D2C4" cx="659.356" cy="110.532" r="1.964"/>
	<circle opacity="0.4" fill="#D8D2C4" cx="622.44" cy="165.364" r="1.964"/>
	<circle opacity="0.4" fill="#D8D2C4" cx="367.724" cy="110.532" r="1.964"/>
	<line opacity="0.4" fill="none" stroke="#D8D2C4" stroke-miterlimit="10" x1="327.443" y1="137.369" x2="254.781" y2="111.333"/>
	<circle opacity="0.4" fill="#D8D2C4" cx="329.315" cy="137.947" r="1.963"/>
	<circle opacity="0.4" fill="#D8D2C4" cx="252.817" cy="110.532" r="1.964"/>
	<line opacity="0.4" fill="none" stroke="#D8D2C4" stroke-miterlimit="10" x1="558.772" y1="110.532" x2="657.461" y2="110.532"/>
	<line opacity="0.4" fill="none" stroke="#D8D2C4" stroke-miterlimit="10" x1="543.36" y1="138.615" x2="620.477" y2="164.688"/>
	<circle opacity="0.4" fill="#D8D2C4" cx="849.847" cy="110.532" r="1.964"/>
	<circle opacity="0.4" fill="#D8D2C4" cx="997.876" cy="110.532" r="1.964"/>
	<line opacity="0.4" fill="none" stroke="#D8D2C4" stroke-miterlimit="10" x1="851.811" y1="110.532" x2="995.912" y2="110.532"/>
	<line opacity="0.4" fill="none" stroke="#D8D2C4" stroke-miterlimit="10" x1="220.891" y1="165.364" x2="378.655" y2="165.364"/>
	<line opacity="0.4" fill="none" stroke="#D8D2C4" stroke-miterlimit="10" x1="220.891" y1="192.779" x2="310.196" y2="192.779"/>
	<line opacity="0.4" fill="none" stroke="#D8D2C4" stroke-miterlimit="10" x1="543.36" y1="164.707" x2="671.318" y2="138.615"/>
	<line opacity="0.4" fill="none" stroke="#D8D2C4" stroke-miterlimit="10" x1="836.473" y1="137.947" x2="1008.979" y2="137.947"/>
	<line opacity="0.4" fill="none" stroke="#D8D2C4" stroke-miterlimit="10" x1="203.815" y1="329.857" x2="355.207" y2="329.857"/>
	<line opacity="0.4" fill="none" stroke="#D8D2C4" stroke-miterlimit="10" x1="150.886" y1="455.152" x2="167.45" y2="455.152"/>
	<line opacity="0.4" fill="none" stroke="#D8D2C4" stroke-miterlimit="10" x1="479.774" y1="329.857" x2="987.258" y2="275.027"/>
	<circle opacity="0.4" fill="#D8D2C4" cx="972.321" cy="192.779" r="1.964"/>
	<line opacity="0.4" fill="none" stroke="#D8D2C4" stroke-miterlimit="10" x1="543.482" y1="220.196" x2="970.357" y2="192.779"/>
	<rect x="722.383" y="295.647" fill="none" stroke="#CC1534" stroke-miterlimit="10" width="48.418" height="13.591"/>
</g>
</svg>
