<?xml version="1.0" encoding="utf-8"?>
<!-- Generator: Adobe Illustrator 16.0.0, SVG Export Plug-In . SVG Version: 6.00 Build 0)  -->
<!DOCTYPE svg PUBLIC "-//W3C//DTD SVG 1.1//EN" "http://www.w3.org/Graphics/SVG/1.1/DTD/svg11.dtd">
<svg version="1.1" id="Layer_1" xmlns="http://www.w3.org/2000/svg" xmlns:xlink="http://www.w3.org/1999/xlink" x="0px" y="0px"
	 width="1280px" height="265.487px" viewBox="0 0 1280 265.487" enable-background="new 0 0 1280 265.487" xml:space="preserve">
<rect fill="#333333" width="1280" height="265.487"/>
<g>
	<path fill="#FFFFFF" d="M10.395,140.546c-0.286-0.996-0.077-1.846,0.628-2.551c0.706-0.705,1.554-1.033,2.545-0.984
		c0.992,0.049,1.914,0.5,2.767,1.352c0.853,0.854,1.299,1.775,1.341,2.766c0.041,0.992-0.285,1.836-0.979,2.529
		s-1.467,0.947-2.319,0.758l3.314,3.314l-0.894,0.895l-8.067-8.066l0.735-0.736L10.395,140.546z M15.86,142.91
		c0.422-0.422,0.612-0.973,0.571-1.656c-0.041-0.682-0.377-1.338-1.007-1.969c-0.629-0.629-1.282-0.977-1.957-1.041
		c-0.676-0.064-1.231,0.123-1.669,0.561s-0.659,0.934-0.662,1.488s0.22,1.072,0.673,1.555l1.03,1.031
		c0.475,0.475,0.991,0.703,1.55,0.689C14.948,143.552,15.438,143.333,15.86,142.91z"/>
	<path fill="#FFFFFF" d="M18.417,132.39c-0.853,0.852-0.623,1.963,0.69,3.338l2.636,2.635l-0.894,0.895l-5.419-5.42l0.894-0.895
		l1.041,1.041c-0.482-1.025-0.38-1.881,0.306-2.568c0.219-0.217,0.46-0.391,0.724-0.52l0.826,0.916
		C18.919,131.962,18.65,132.156,18.417,132.39z"/>
	<path fill="#FFFFFF" d="M21.574,127.445c0.754-0.754,1.608-1.117,2.562-1.092c0.954,0.027,1.888,0.496,2.8,1.408
		c0.905,0.906,1.371,1.836,1.397,2.789c0.026,0.955-0.337,1.809-1.091,2.562c-0.754,0.756-1.609,1.119-2.563,1.092
		c-0.954-0.025-1.883-0.492-2.789-1.396c-0.913-0.912-1.382-1.846-1.408-2.801C20.455,129.054,20.819,128.201,21.574,127.445z
		 M26.025,128.662c-0.645-0.645-1.286-1.014-1.922-1.109c-0.638-0.094-1.219,0.121-1.743,0.645
		c-0.524,0.525-0.743,1.109-0.656,1.756c0.086,0.643,0.453,1.289,1.098,1.934c0.645,0.645,1.282,1.018,1.911,1.119
		c0.63,0.102,1.207-0.109,1.731-0.633s0.747-1.113,0.667-1.766C27.032,129.955,26.67,129.306,26.025,128.662z"/>
	<path fill="#FFFFFF" d="M29.182,120.628c0.117-0.645,0.5-1.291,1.148-1.939c0.649-0.648,1.291-1.02,1.929-1.115
		c0.637-0.094,1.171,0.059,1.601,0.459l-0.871,0.871c-0.559-0.422-1.218-0.252-1.98,0.51c-0.37,0.369-0.572,0.736-0.606,1.102
		c-0.034,0.367,0.046,0.646,0.238,0.838c0.192,0.193,0.43,0.279,0.713,0.26c0.283-0.018,0.64-0.145,1.07-0.379l1.448-0.723
		c0.603-0.318,1.139-0.488,1.606-0.51c0.468-0.023,0.896,0.16,1.285,0.549c0.388,0.389,0.539,0.939,0.452,1.65
		c-0.086,0.715-0.488,1.428-1.205,2.145c-0.717,0.717-1.435,1.115-2.155,1.193c-0.72,0.08-1.344-0.121-1.873-0.605l0.86-0.859
		c0.354,0.324,0.747,0.441,1.177,0.352s0.84-0.332,1.233-0.725c0.392-0.393,0.633-0.799,0.724-1.223
		c0.091-0.422,0.021-0.748-0.209-0.979c-0.23-0.229-0.481-0.328-0.752-0.299c-0.272,0.029-0.623,0.17-1.052,0.418l-1.403,0.701
		c-1.222,0.664-2.184,0.645-2.885-0.057C29.229,121.82,29.065,121.275,29.182,120.628z"/>
	<path fill="#FFFFFF" d="M42.594,115.363c0.415,1.154,0.207,2.145-0.623,2.975c-0.611,0.611-1.272,0.934-1.985,0.967
		c-0.712,0.035-1.423-0.303-2.132-1.012l-3.439-3.439l0.894-0.893l3.371,3.371c0.913,0.912,1.792,0.945,2.637,0.102
		c0.49-0.49,0.7-1.076,0.628-1.76c-0.072-0.682-0.394-1.324-0.967-1.928l-2.727-2.729l0.894-0.893l5.419,5.418l-0.894,0.895
		L42.594,115.363z"/>
	<path fill="#FFFFFF" d="M44.404,106.402c-0.852,0.853-0.622,1.965,0.691,3.338l2.636,2.637l-0.894,0.893l-5.419-5.419l0.894-0.894
		l1.041,1.041c-0.482-1.026-0.38-1.883,0.306-2.568c0.218-0.219,0.46-0.393,0.724-0.521l0.826,0.918
		C44.906,105.976,44.638,106.168,44.404,106.402z"/>
	<path fill="#FFFFFF" d="M45.818,103.472l6.098,2.839l-2.829-6.109l1.007-1.007l3.259,7.558l-0.984,0.984l-7.558-3.259
		L45.818,103.472z"/>
	<path fill="#FFFFFF" d="M58.117,100.791c0.747-0.746,0.845-1.5,0.294-2.264l0.916-0.916c0.461,0.627,0.642,1.287,0.543,1.98
		c-0.098,0.693-0.441,1.335-1.03,1.924c-0.724,0.723-1.571,1.053-2.54,0.99c-0.969-0.064-1.884-0.527-2.744-1.387
		s-1.318-1.774-1.375-2.744c-0.057-0.969,0.294-1.832,1.052-2.59c0.758-0.758,1.618-1.029,2.58-0.814
		c0.961,0.215,1.809,0.801,2.54,1.759l-3.699,3.7c0.558,0.557,1.152,0.881,1.781,0.967
		C57.066,101.482,57.626,101.281,58.117,100.791z M54.677,96.039c-0.264,0.084-0.521,0.249-0.77,0.498
		c-0.46,0.46-0.667,0.98-0.622,1.561c0.045,0.581,0.279,1.129,0.702,1.641l2.885-2.885C56.118,96.099,55.386,95.828,54.677,96.039z"
		/>
	<path fill="#FFFFFF" d="M56.487,90.246c-0.181,0.182-0.374,0.271-0.577,0.271c-0.204,0-0.391-0.084-0.56-0.254
		c-0.17-0.17-0.254-0.356-0.255-0.561c0-0.203,0.091-0.396,0.271-0.576c0.181-0.182,0.377-0.275,0.588-0.283
		c0.211-0.008,0.401,0.073,0.571,0.243c0.17,0.169,0.25,0.36,0.244,0.571C56.763,89.869,56.668,90.064,56.487,90.246z
		 M57.313,91.955l0.894-0.895l5.419,5.42l-0.894,0.894L57.313,91.955z"/>
	<path fill="#FFFFFF" d="M58.354,86.341l0.894-0.893l7.705,7.705l-0.894,0.893L58.354,86.341z"/>
	<path fill="#FFFFFF" d="M61.522,83.174l0.894-0.894l7.705,7.705l-0.894,0.894L61.522,83.174z"/>
	<path fill="#FFFFFF" d="M72.236,80.855c-0.49-0.49-0.943-0.738-1.358-0.746c-0.415-0.008-0.816,0.182-1.205,0.57
		s-0.624,0.78-0.707,1.172c-0.083,0.393,0.042,0.754,0.374,1.086l-0.984,0.984c-0.829-0.83-0.897-1.787-0.203-2.873
		c0.211-0.332,0.475-0.656,0.792-0.974c0.671-0.671,1.365-1.025,2.081-1.063c0.717-0.037,1.422,0.291,2.116,0.984l3.484,3.484
		l-0.769,0.77l-0.996-0.814c0.354,1.018,0.098,1.961-0.77,2.828c-0.581,0.581-1.208,0.885-1.883,0.911s-1.253-0.202-1.736-0.685
		s-0.667-1.055-0.549-1.715c0.117-0.659,0.466-1.279,1.046-1.861c0.581-0.58,1.233-1.037,1.958-1.368L72.236,80.855z M73.493,82.111
		c-0.687,0.385-1.23,0.777-1.629,1.178c-0.4,0.398-0.652,0.795-0.758,1.188c-0.105,0.393-0.004,0.742,0.305,1.052
		c0.679,0.679,1.403,0.634,2.173-0.136c0.437-0.438,0.656-0.969,0.656-1.596C74.239,83.171,73.99,82.609,73.493,82.111z"/>
	<path fill="#FFFFFF" d="M75.223,76.149c-0.43-1.139-0.215-2.138,0.645-2.998c0.641-0.641,1.352-0.93,2.132-0.866
		c0.781,0.064,1.537,0.462,2.269,1.193l3.179,3.18l-0.882,0.882l-3.18-3.179c-0.521-0.521-1.035-0.79-1.544-0.809
		c-0.509-0.019-0.99,0.198-1.442,0.651s-0.634,1.003-0.543,1.652c0.09,0.648,0.456,1.308,1.097,1.979l2.659,2.659l-0.894,0.894
		l-5.408-5.408l0.769-0.77L75.223,76.149z"/>
	<path fill="#FFFFFF" d="M81.813,67.206c0.637-0.637,1.308-0.981,2.014-1.029c0.705-0.049,1.359,0.114,1.962,0.492l-0.825,0.984
		c-0.415-0.219-0.82-0.307-1.216-0.266s-0.726,0.194-0.99,0.458c-0.482,0.482-0.692,1.054-0.628,1.713s0.408,1.301,1.03,1.923
		c0.622,0.622,1.267,0.977,1.935,1.063c0.667,0.087,1.218-0.086,1.651-0.521c0.434-0.434,0.659-0.857,0.673-1.273
		c0.016-0.415-0.162-0.807-0.532-1.176l0.917-0.917c0.581,0.581,0.848,1.252,0.803,2.014c-0.045,0.762-0.392,1.467-1.041,2.116
		c-0.687,0.687-1.53,1.009-2.529,0.968c-1-0.042-1.931-0.494-2.795-1.358c-0.863-0.863-1.31-1.786-1.34-2.766
		C80.873,68.652,81.176,67.843,81.813,67.206z"/>
	<path fill="#FFFFFF" d="M92.646,66.261c0.747-0.747,0.845-1.501,0.294-2.263l0.917-0.917c0.46,0.626,0.641,1.287,0.543,1.98
		c-0.098,0.694-0.442,1.335-1.03,1.923c-0.724,0.724-1.57,1.054-2.54,0.99c-0.969-0.064-1.884-0.526-2.744-1.386
		c-0.859-0.86-1.318-1.774-1.375-2.744s0.294-1.833,1.052-2.591c0.758-0.758,1.618-1.029,2.58-0.814
		c0.962,0.215,1.809,0.802,2.54,1.76l-3.7,3.699c0.558,0.558,1.152,0.881,1.782,0.967C91.595,66.953,92.156,66.751,92.646,66.261z
		 M89.207,61.509c-0.264,0.083-0.521,0.249-0.77,0.498c-0.46,0.46-0.667,0.981-0.623,1.562s0.279,1.128,0.702,1.641l2.885-2.885
		C90.648,61.57,89.916,61.298,89.207,61.509z"/>
</g>
<rect x="6" y="227.988" fill="none" width="163.113" height="15.215"/>
<text transform="matrix(1 0 0 1 6 238.8843)" fill="#999999" font-family="'Karla-Regular'" font-size="16">in favour of</text>
<g>
	<path fill="#FFFFFF" d="M220.929,140.697c0.117-0.645,0.5-1.291,1.149-1.939c0.648-0.648,1.291-1.021,1.929-1.115
		c0.638-0.094,1.171,0.059,1.601,0.459l-0.871,0.871c-0.558-0.422-1.218-0.254-1.98,0.51c-0.37,0.369-0.571,0.736-0.606,1.102
		c-0.034,0.365,0.046,0.645,0.238,0.838c0.192,0.191,0.43,0.279,0.713,0.26s0.64-0.145,1.07-0.379l1.448-0.725
		c0.603-0.316,1.139-0.486,1.606-0.51c0.468-0.021,0.896,0.162,1.285,0.551c0.388,0.387,0.539,0.938,0.452,1.65
		c-0.086,0.713-0.488,1.428-1.205,2.145c-0.717,0.717-1.435,1.113-2.155,1.193s-1.344-0.123-1.873-0.605l0.86-0.859
		c0.354,0.324,0.747,0.441,1.177,0.352c0.43-0.092,0.841-0.334,1.233-0.725c0.392-0.393,0.634-0.801,0.724-1.223
		c0.091-0.422,0.021-0.748-0.209-0.979s-0.481-0.33-0.752-0.299c-0.272,0.029-0.623,0.168-1.052,0.418l-1.403,0.701
		c-1.222,0.664-2.183,0.645-2.885-0.057C220.976,141.886,220.812,141.341,220.929,140.697z"/>
	<path fill="#FFFFFF" d="M234.342,135.431c0.415,1.154,0.207,2.145-0.623,2.975c-0.611,0.611-1.272,0.934-1.985,0.967
		c-0.712,0.035-1.423-0.303-2.132-1.012l-3.439-3.439l0.894-0.895l3.371,3.371c0.913,0.914,1.792,0.947,2.637,0.104
		c0.49-0.49,0.7-1.078,0.628-1.76s-0.394-1.326-0.967-1.93l-2.727-2.727l0.894-0.893l5.419,5.418l-0.894,0.895L234.342,135.431z"/>
	<path fill="#FFFFFF" d="M236.151,126.47c-0.853,0.852-0.623,1.965,0.69,3.338l2.636,2.637l-0.894,0.893l-5.419-5.42l0.894-0.893
		l1.041,1.041c-0.482-1.027-0.38-1.883,0.306-2.568c0.219-0.219,0.46-0.393,0.724-0.521l0.826,0.918
		C236.653,126.044,236.385,126.236,236.151,126.47z"/>
	<path fill="#FFFFFF" d="M237.565,123.539l6.099,2.84l-2.829-6.109l1.007-1.006l3.259,7.557l-0.984,0.984l-7.558-3.258
		L237.565,123.539z"/>
	<path fill="#FFFFFF" d="M249.864,120.859c0.747-0.746,0.845-1.502,0.294-2.264l0.916-0.916c0.461,0.627,0.642,1.287,0.544,1.98
		c-0.098,0.693-0.442,1.334-1.03,1.922c-0.724,0.725-1.57,1.055-2.54,0.99c-0.969-0.062-1.884-0.525-2.744-1.385
		s-1.318-1.775-1.375-2.744c-0.057-0.969,0.294-1.832,1.052-2.592c0.758-0.758,1.618-1.027,2.58-0.814
		c0.961,0.217,1.809,0.803,2.54,1.76l-3.7,3.699c0.558,0.559,1.152,0.881,1.782,0.967
		C248.813,121.55,249.374,121.349,249.864,120.859z M246.425,116.107c-0.264,0.084-0.521,0.248-0.77,0.498
		c-0.46,0.459-0.667,0.98-0.622,1.561s0.279,1.129,0.702,1.641l2.885-2.885C247.865,116.167,247.133,115.896,246.425,116.107z"/>
	<path fill="#FFFFFF" d="M248.234,110.314c-0.181,0.182-0.374,0.271-0.577,0.271c-0.204,0-0.39-0.084-0.56-0.254
		s-0.254-0.357-0.254-0.561s0.09-0.396,0.271-0.576c0.182-0.182,0.377-0.275,0.588-0.283c0.211-0.008,0.402,0.072,0.572,0.242
		c0.169,0.17,0.25,0.361,0.243,0.572C248.51,109.937,248.416,110.132,248.234,110.314z M249.061,112.023l0.894-0.895l5.419,5.42
		l-0.894,0.893L249.061,112.023z"/>
	<path fill="#FFFFFF" d="M250.102,106.41l0.894-0.893l7.705,7.705l-0.894,0.893L250.102,106.41z"/>
	<path fill="#FFFFFF" d="M253.269,103.242l0.894-0.893l7.705,7.705l-0.894,0.893L253.269,103.242z"/>
	<path fill="#FFFFFF" d="M263.983,100.923c-0.49-0.49-0.943-0.738-1.358-0.746c-0.414-0.008-0.816,0.182-1.205,0.57
		s-0.624,0.779-0.707,1.172c-0.083,0.391,0.042,0.754,0.374,1.086l-0.984,0.984c-0.829-0.83-0.897-1.787-0.203-2.875
		c0.211-0.33,0.475-0.654,0.792-0.973c0.671-0.67,1.365-1.025,2.081-1.062c0.717-0.037,1.422,0.291,2.116,0.984l3.484,3.484
		l-0.769,0.77l-0.996-0.814c0.354,1.018,0.098,1.961-0.769,2.828c-0.581,0.58-1.209,0.885-1.884,0.91
		c-0.675,0.027-1.253-0.201-1.736-0.684c-0.482-0.482-0.667-1.055-0.549-1.715s0.466-1.281,1.046-1.861
		c0.581-0.58,1.233-1.037,1.958-1.369L263.983,100.923z M265.24,102.179c-0.687,0.385-1.23,0.777-1.629,1.176
		c-0.4,0.4-0.652,0.797-0.758,1.189c-0.105,0.393-0.004,0.742,0.305,1.051c0.679,0.68,1.403,0.635,2.173-0.135
		c0.437-0.438,0.656-0.969,0.656-1.596C265.986,103.24,265.737,102.677,265.24,102.179z"/>
	<path fill="#FFFFFF" d="M266.97,96.216c-0.43-1.139-0.215-2.137,0.645-2.998c0.641-0.641,1.352-0.93,2.132-0.865
		c0.781,0.064,1.537,0.463,2.269,1.193l3.179,3.18l-0.882,0.883l-3.179-3.18c-0.521-0.521-1.035-0.789-1.544-0.809
		c-0.509-0.02-0.99,0.197-1.442,0.65s-0.634,1.004-0.543,1.652c0.09,0.648,0.456,1.309,1.097,1.98l2.659,2.658l-0.894,0.893
		l-5.408-5.408l0.769-0.77L266.97,96.216z"/>
	<path fill="#FFFFFF" d="M273.561,87.273c0.637-0.637,1.308-0.98,2.014-1.029c0.705-0.049,1.359,0.115,1.962,0.492l-0.826,0.984
		c-0.415-0.219-0.82-0.307-1.216-0.266c-0.396,0.041-0.726,0.193-0.99,0.459c-0.483,0.482-0.692,1.053-0.628,1.713
		c0.064,0.66,0.408,1.301,1.03,1.924c0.622,0.621,1.267,0.977,1.935,1.062c0.667,0.088,1.218-0.086,1.652-0.52
		c0.434-0.434,0.658-0.857,0.673-1.273c0.015-0.414-0.163-0.807-0.532-1.176l0.916-0.916c0.581,0.58,0.849,1.252,0.804,2.014
		c-0.045,0.762-0.393,1.467-1.041,2.115c-0.687,0.686-1.53,1.008-2.528,0.967c-1-0.041-1.931-0.494-2.795-1.357
		c-0.863-0.863-1.311-1.785-1.34-2.766C272.62,88.72,272.923,87.912,273.561,87.273z"/>
	<path fill="#FFFFFF" d="M284.393,86.33c0.747-0.747,0.845-1.501,0.294-2.264l0.917-0.916c0.46,0.626,0.642,1.286,0.543,1.979
		c-0.098,0.694-0.442,1.335-1.03,1.924c-0.724,0.724-1.571,1.054-2.54,0.989c-0.969-0.064-1.884-0.525-2.744-1.385
		c-0.859-0.859-1.318-1.775-1.375-2.744s0.294-1.832,1.053-2.591c0.758-0.758,1.617-1.029,2.579-0.814s1.809,0.802,2.54,1.759
		l-3.7,3.7c0.558,0.558,1.152,0.88,1.782,0.967C283.343,87.021,283.903,86.82,284.393,86.33z M280.954,81.578
		c-0.264,0.083-0.521,0.248-0.77,0.498c-0.46,0.459-0.667,0.98-0.622,1.561c0.044,0.58,0.279,1.128,0.701,1.641l2.885-2.885
		C282.395,81.638,281.663,81.367,280.954,81.578z"/>
	<path fill="#FFFFFF" d="M285.457,73.092c-0.181,0.181-0.374,0.271-0.577,0.271c-0.204,0-0.391-0.084-0.561-0.254
		s-0.254-0.356-0.254-0.56c0-0.203,0.09-0.396,0.271-0.577c0.181-0.181,0.377-0.275,0.588-0.283
		c0.211-0.007,0.401,0.074,0.571,0.244c0.17,0.169,0.25,0.36,0.243,0.571C285.731,72.715,285.638,72.911,285.457,73.092z
		 M286.282,74.801l0.894-0.894l5.419,5.419l-0.894,0.895L286.282,74.801z"/>
	<path fill="#FFFFFF" d="M290.168,71.457c0.117-0.645,0.5-1.292,1.149-1.94c0.648-0.649,1.291-1.021,1.929-1.114
		c0.638-0.095,1.171,0.058,1.601,0.458l-0.871,0.871c-0.558-0.422-1.218-0.252-1.98,0.509c-0.37,0.37-0.571,0.737-0.605,1.103
		c-0.034,0.365,0.045,0.645,0.237,0.837c0.193,0.192,0.43,0.279,0.713,0.26c0.283-0.019,0.64-0.145,1.07-0.379l1.448-0.724
		c0.603-0.317,1.139-0.487,1.606-0.509c0.468-0.022,0.896,0.16,1.285,0.549c0.388,0.388,0.539,0.938,0.452,1.651
		c-0.086,0.713-0.488,1.427-1.205,2.144c-0.717,0.717-1.435,1.115-2.155,1.194c-0.72,0.08-1.344-0.123-1.872-0.605l0.859-0.86
		c0.354,0.324,0.747,0.441,1.177,0.351c0.43-0.09,0.841-0.332,1.233-0.725c0.392-0.392,0.634-0.799,0.725-1.222
		c0.09-0.422,0.021-0.748-0.209-0.978s-0.481-0.33-0.752-0.3c-0.272,0.03-0.623,0.169-1.052,0.418l-1.403,0.702
		c-1.222,0.664-2.183,0.645-2.885-0.057C290.216,72.647,290.052,72.102,290.168,71.457z"/>
	<path fill="#FFFFFF" d="M300.165,63.023c-0.43-1.139-0.215-2.138,0.645-2.998c0.641-0.641,1.352-0.93,2.132-0.866
		c0.781,0.064,1.538,0.462,2.269,1.194l3.179,3.179l-0.882,0.882l-3.179-3.179c-0.521-0.521-1.035-0.79-1.544-0.809
		c-0.509-0.019-0.99,0.198-1.442,0.651s-0.634,1.003-0.543,1.652c0.09,0.648,0.456,1.308,1.097,1.979l2.659,2.659l-0.894,0.894
		l-5.408-5.408l0.769-0.77L300.165,63.023z"/>
	<path fill="#FFFFFF" d="M311.761,58.962c0.747-0.747,0.845-1.501,0.294-2.264l0.917-0.916c0.46,0.626,0.641,1.287,0.543,1.979
		c-0.098,0.694-0.442,1.335-1.03,1.924c-0.724,0.724-1.57,1.054-2.54,0.99c-0.969-0.064-1.884-0.526-2.744-1.386
		c-0.859-0.859-1.318-1.774-1.375-2.744c-0.057-0.969,0.294-1.833,1.053-2.591c0.758-0.758,1.617-1.029,2.579-0.814
		s1.809,0.802,2.54,1.759l-3.7,3.7c0.558,0.558,1.152,0.881,1.782,0.967C310.71,59.653,311.271,59.452,311.761,58.962z
		 M308.322,54.21c-0.264,0.083-0.521,0.249-0.77,0.498c-0.46,0.46-0.667,0.981-0.623,1.561c0.045,0.581,0.279,1.128,0.702,1.641
		l2.885-2.885C309.763,54.271,309.03,53.999,308.322,54.21z"/>
	<path fill="#FFFFFF" d="M312.581,48.253c0.637-0.638,1.308-0.981,2.014-1.029c0.705-0.049,1.359,0.114,1.962,0.492l-0.825,0.984
		c-0.415-0.219-0.82-0.307-1.216-0.266c-0.396,0.042-0.726,0.194-0.99,0.458c-0.482,0.483-0.692,1.054-0.628,1.714
		c0.064,0.66,0.407,1.301,1.03,1.923c0.622,0.622,1.267,0.977,1.935,1.064c0.667,0.086,1.218-0.087,1.651-0.521
		c0.434-0.434,0.659-0.857,0.673-1.272c0.016-0.415-0.162-0.807-0.532-1.177l0.917-0.916c0.581,0.581,0.848,1.252,0.803,2.014
		c-0.045,0.762-0.393,1.467-1.041,2.116c-0.686,0.686-1.529,1.009-2.528,0.968c-1-0.042-1.931-0.494-2.795-1.358
		c-0.863-0.863-1.31-1.786-1.34-2.766C311.64,49.7,311.943,48.891,312.581,48.253z"/>
	<path fill="#FFFFFF" d="M323.414,47.309c0.747-0.747,0.845-1.501,0.294-2.263l0.916-0.917c0.46,0.626,0.642,1.287,0.543,1.98
		c-0.098,0.694-0.441,1.335-1.03,1.923c-0.724,0.724-1.571,1.054-2.54,0.99c-0.969-0.064-1.884-0.526-2.743-1.386
		c-0.86-0.86-1.318-1.774-1.375-2.744c-0.057-0.969,0.294-1.833,1.052-2.591c0.758-0.758,1.618-1.029,2.58-0.814
		c0.961,0.215,1.809,0.802,2.54,1.76l-3.699,3.699c0.558,0.558,1.152,0.881,1.781,0.967C322.363,48,322.924,47.799,323.414,47.309z
		 M319.975,42.557c-0.264,0.083-0.521,0.249-0.77,0.498c-0.46,0.46-0.667,0.981-0.622,1.562c0.045,0.581,0.279,1.128,0.702,1.641
		l2.885-2.885C321.416,42.617,320.683,42.345,319.975,42.557z"/>
	<path fill="#FFFFFF" d="M323.114,38.512c0.117-0.645,0.5-1.292,1.149-1.94c0.649-0.648,1.291-1.02,1.929-1.114
		c0.637-0.095,1.17,0.058,1.601,0.458l-0.871,0.871c-0.558-0.422-1.218-0.253-1.98,0.509c-0.37,0.37-0.571,0.737-0.605,1.103
		c-0.034,0.366,0.045,0.645,0.237,0.837c0.193,0.193,0.43,0.28,0.713,0.261c0.283-0.019,0.64-0.145,1.07-0.379l1.448-0.724
		c0.603-0.317,1.139-0.487,1.606-0.509c0.468-0.022,0.896,0.16,1.285,0.549c0.388,0.388,0.539,0.939,0.452,1.652
		c-0.086,0.713-0.488,1.427-1.205,2.144c-0.717,0.717-1.435,1.115-2.155,1.194c-0.72,0.08-1.344-0.123-1.872-0.605l0.859-0.86
		c0.354,0.324,0.747,0.441,1.177,0.351c0.43-0.09,0.841-0.333,1.233-0.725c0.393-0.392,0.634-0.799,0.725-1.222
		c0.09-0.422,0.021-0.749-0.209-0.979c-0.23-0.229-0.481-0.33-0.752-0.3c-0.272,0.03-0.623,0.169-1.053,0.418l-1.403,0.702
		c-1.222,0.664-2.184,0.645-2.885-0.057C323.161,39.702,322.998,39.157,323.114,38.512z"/>
	<path fill="#FFFFFF" d="M329.065,32.561c0.117-0.645,0.5-1.292,1.149-1.94c0.648-0.649,1.291-1.021,1.929-1.114
		c0.638-0.095,1.171,0.058,1.601,0.458l-0.871,0.871c-0.558-0.422-1.218-0.252-1.98,0.509c-0.37,0.37-0.571,0.737-0.606,1.103
		c-0.034,0.366,0.046,0.645,0.238,0.837c0.193,0.192,0.43,0.28,0.713,0.261s0.64-0.145,1.07-0.379l1.448-0.724
		c0.603-0.317,1.139-0.487,1.606-0.51c0.468-0.022,0.896,0.161,1.285,0.549c0.388,0.388,0.539,0.938,0.452,1.651
		c-0.086,0.713-0.488,1.427-1.205,2.144c-0.717,0.717-1.435,1.115-2.155,1.194c-0.72,0.08-1.344-0.122-1.873-0.605l0.86-0.86
		c0.354,0.324,0.747,0.441,1.177,0.351c0.43-0.091,0.841-0.333,1.233-0.725c0.392-0.392,0.634-0.799,0.724-1.221
		c0.091-0.422,0.021-0.749-0.209-0.979s-0.481-0.33-0.752-0.3c-0.272,0.03-0.623,0.17-1.052,0.418l-1.403,0.702
		c-1.222,0.664-2.184,0.645-2.885-0.057C329.112,33.75,328.949,33.206,329.065,32.561z"/>
	<path fill="#FFFFFF" d="M339.717,25.19c-0.49-0.49-0.943-0.739-1.358-0.747c-0.415-0.007-0.817,0.183-1.205,0.571
		c-0.389,0.389-0.624,0.779-0.707,1.171c-0.083,0.392,0.042,0.755,0.374,1.086l-0.984,0.984c-0.83-0.83-0.897-1.788-0.204-2.874
		c0.211-0.332,0.475-0.656,0.792-0.973c0.671-0.671,1.365-1.025,2.082-1.063c0.717-0.037,1.422,0.291,2.116,0.984l3.484,3.484
		l-0.77,0.77l-0.996-0.814c0.355,1.018,0.098,1.961-0.769,2.828c-0.581,0.581-1.209,0.884-1.883,0.911
		c-0.675,0.026-1.254-0.202-1.736-0.685c-0.483-0.483-0.667-1.055-0.549-1.714c0.117-0.66,0.466-1.28,1.046-1.861
		c0.581-0.581,1.233-1.037,1.957-1.369L339.717,25.19z M340.973,26.446c-0.687,0.384-1.23,0.777-1.629,1.176
		c-0.4,0.4-0.652,0.796-0.758,1.188c-0.105,0.393-0.004,0.743,0.305,1.052c0.679,0.679,1.403,0.634,2.172-0.136
		c0.438-0.437,0.656-0.969,0.656-1.595C341.72,27.506,341.47,26.943,340.973,26.446z"/>
	<path fill="#FFFFFF" d="M343.767,18.854c-0.853,0.853-0.622,1.965,0.69,3.338l2.636,2.636l-0.894,0.894l-5.419-5.419l0.894-0.894
		l1.041,1.041c-0.482-1.026-0.38-1.882,0.306-2.568c0.219-0.219,0.46-0.393,0.724-0.521l0.827,0.917
		C344.269,18.428,344.001,18.621,343.767,18.854z"/>
	<path fill="#FFFFFF" d="M351.008,24.059c0.656-0.083,1.188-0.328,1.595-0.735c0.302-0.301,0.411-0.713,0.329-1.233
		c-0.061-0.377-0.25-0.853-0.566-1.426l-0.396-0.713l-7.626-3.19l0.996-0.996l5.952,2.67l-3.033-5.589l0.905-0.905l4.458,8.508
		c0.377,0.725,0.572,1.375,0.583,1.952c0.011,0.577-0.2,1.082-0.633,1.516c-0.434,0.434-1.017,0.752-1.748,0.956L351.008,24.059z"/>
</g>
<g>
	<path fill="#FFFFFF" d="M559.736,140.385c-0.43-1.139-0.215-2.139,0.645-2.998c0.641-0.641,1.352-0.93,2.132-0.865
		c0.781,0.064,1.538,0.463,2.269,1.193l3.179,3.18l-0.883,0.883l-3.179-3.18c-0.521-0.521-1.035-0.789-1.544-0.809
		s-0.99,0.197-1.442,0.65s-0.634,1.002-0.543,1.652c0.09,0.648,0.456,1.307,1.097,1.979l2.659,2.66l-0.894,0.893l-5.409-5.408
		l0.77-0.77L559.736,140.385z"/>
	<path fill="#FFFFFF" d="M566.468,131.301c0.754-0.754,1.608-1.119,2.562-1.092c0.954,0.025,1.888,0.496,2.8,1.408
		c0.905,0.904,1.371,1.834,1.397,2.789c0.026,0.953-0.337,1.809-1.091,2.562c-0.755,0.754-1.609,1.117-2.563,1.092
		c-0.954-0.027-1.883-0.492-2.789-1.398c-0.913-0.912-1.382-1.846-1.408-2.799C565.35,132.909,565.714,132.055,566.468,131.301z
		 M570.919,132.516c-0.645-0.645-1.286-1.014-1.923-1.107c-0.638-0.094-1.218,0.121-1.742,0.645
		c-0.524,0.523-0.743,1.109-0.656,1.754c0.086,0.645,0.452,1.289,1.098,1.934c0.645,0.645,1.282,1.02,1.911,1.121
		c0.63,0.102,1.207-0.109,1.731-0.635c0.524-0.523,0.747-1.111,0.667-1.764C571.927,133.811,571.564,133.163,570.919,132.516z"/>
	<path fill="#FFFFFF" d="M575.19,124.5c-0.286-0.994-0.077-1.845,0.628-2.551c0.706-0.705,1.554-1.033,2.545-0.984
		c0.992,0.05,1.914,0.5,2.766,1.353c0.853,0.853,1.299,1.774,1.341,2.767s-0.285,1.834-0.979,2.527
		c-0.694,0.695-1.467,0.947-2.319,0.76l3.314,3.314l-0.894,0.893l-8.067-8.066l0.735-0.734L575.19,124.5z M580.655,126.866
		c0.422-0.422,0.612-0.975,0.571-1.656c-0.041-0.684-0.376-1.34-1.007-1.971c-0.629-0.629-1.282-0.976-1.957-1.039
		c-0.675-0.064-1.231,0.122-1.669,0.56c-0.438,0.438-0.658,0.933-0.662,1.487s0.22,1.072,0.673,1.557l1.029,1.029
		c0.475,0.475,0.991,0.705,1.55,0.689C579.742,127.508,580.232,127.288,580.655,126.866z"/>
	<path fill="#FFFFFF" d="M582.058,115.711c0.754-0.755,1.608-1.119,2.562-1.092c0.954,0.025,1.888,0.496,2.8,1.408
		c0.905,0.904,1.371,1.834,1.397,2.788s-0.337,1.809-1.091,2.563c-0.755,0.754-1.609,1.117-2.563,1.091s-1.884-0.491-2.789-1.397
		c-0.912-0.912-1.381-1.846-1.408-2.799C580.939,117.319,581.304,116.465,582.058,115.711z M586.509,116.927
		c-0.645-0.646-1.286-1.015-1.923-1.108c-0.638-0.095-1.218,0.12-1.742,0.645c-0.524,0.524-0.743,1.109-0.656,1.754
		c0.086,0.645,0.452,1.289,1.098,1.934c0.645,0.646,1.282,1.02,1.911,1.121c0.63,0.102,1.207-0.109,1.731-0.635
		c0.524-0.523,0.747-1.111,0.667-1.765C587.517,118.221,587.154,117.573,586.509,116.927z"/>
	<path fill="#FFFFFF" d="M586.973,111.586c0.117-0.645,0.5-1.291,1.149-1.939c0.648-0.648,1.291-1.021,1.929-1.114
		c0.637-0.095,1.171,0.058,1.601,0.458l-0.871,0.871c-0.558-0.422-1.218-0.252-1.98,0.51c-0.37,0.369-0.572,0.736-0.606,1.103
		s0.046,0.646,0.238,0.837c0.193,0.192,0.43,0.279,0.713,0.261s0.64-0.146,1.07-0.38l1.448-0.724
		c0.603-0.317,1.139-0.487,1.606-0.509c0.468-0.023,0.896,0.16,1.285,0.549c0.388,0.389,0.539,0.938,0.452,1.651
		c-0.086,0.714-0.488,1.427-1.205,2.144c-0.717,0.717-1.435,1.115-2.155,1.193c-0.72,0.08-1.344-0.122-1.873-0.604l0.86-0.86
		c0.354,0.324,0.747,0.441,1.177,0.352c0.43-0.091,0.841-0.332,1.233-0.725s0.633-0.799,0.724-1.222
		c0.091-0.422,0.021-0.749-0.209-0.979s-0.481-0.33-0.752-0.3c-0.272,0.029-0.623,0.169-1.052,0.418l-1.403,0.701
		c-1.222,0.664-2.184,0.646-2.885-0.057C587.021,112.777,586.857,112.233,586.973,111.586z"/>
	<path fill="#FFFFFF" d="M591.595,103.889c-0.181,0.18-0.374,0.271-0.577,0.271c-0.204,0-0.391-0.085-0.561-0.255
		s-0.254-0.355-0.254-0.56c0-0.203,0.09-0.396,0.271-0.577c0.181-0.181,0.377-0.275,0.588-0.283
		c0.211-0.006,0.401,0.074,0.571,0.244s0.25,0.359,0.243,0.571C591.87,103.511,591.776,103.708,591.595,103.889z M592.42,105.596
		l0.894-0.893l5.419,5.418l-0.894,0.895L592.42,105.596z"/>
	<path fill="#FFFFFF" d="M603.836,104.704c-0.348,0.949-0.875,1.605-1.584,1.968c-0.505,0.265-1.03,0.282-1.573,0.056
		c-0.271-0.104-0.539-0.289-0.804-0.554l-3.326-3.326l-0.871,0.871L595,103.04l0.871-0.871l-1.505-1.505l0.883-0.882l1.504,1.504
		l1.697-1.697l0.679,0.68l-1.697,1.697l3.315,3.314c0.55,0.551,1.083,0.569,1.595,0.057c0.279-0.279,0.524-0.66,0.735-1.143
		L603.836,104.704z"/>
	<path fill="#FFFFFF" d="M599.231,96.252c-0.181,0.18-0.374,0.271-0.576,0.271c-0.204-0.001-0.391-0.086-0.561-0.256
		c-0.17-0.169-0.254-0.355-0.254-0.56c0-0.203,0.09-0.396,0.271-0.577c0.181-0.181,0.377-0.275,0.588-0.283
		c0.211-0.006,0.401,0.074,0.571,0.244s0.25,0.359,0.243,0.571C599.506,95.875,599.413,96.071,599.231,96.252z M600.057,97.96
		l0.894-0.894l5.419,5.419l-0.894,0.894L600.057,97.96z"/>
	<path fill="#FFFFFF" d="M605.206,92.563c0.754-0.754,1.608-1.117,2.562-1.092c0.954,0.027,1.888,0.496,2.8,1.408
		c0.905,0.906,1.371,1.836,1.397,2.789c0.026,0.955-0.337,1.809-1.091,2.562c-0.755,0.755-1.609,1.119-2.563,1.092
		c-0.954-0.025-1.884-0.491-2.789-1.396c-0.912-0.912-1.382-1.846-1.408-2.801C604.087,94.172,604.451,93.318,605.206,92.563z
		 M609.657,93.78c-0.645-0.645-1.286-1.015-1.923-1.109c-0.638-0.094-1.218,0.121-1.742,0.646c-0.524,0.524-0.743,1.108-0.656,1.754
		c0.086,0.644,0.452,1.289,1.097,1.935c0.645,0.645,1.283,1.018,1.912,1.119c0.63,0.102,1.207-0.109,1.731-0.633
		c0.524-0.524,0.747-1.113,0.667-1.766C610.664,95.073,610.302,94.424,609.657,93.78z"/>
	<path fill="#FFFFFF" d="M611.473,88.649c-0.431-1.139-0.215-2.139,0.645-2.998c0.641-0.641,1.353-0.93,2.132-0.865
		c0.781,0.064,1.538,0.462,2.269,1.193l3.179,3.18l-0.882,0.882l-3.179-3.179c-0.521-0.521-1.035-0.79-1.544-0.81
		c-0.509-0.019-0.99,0.198-1.442,0.651c-0.453,0.452-0.635,1.002-0.543,1.652c0.09,0.648,0.456,1.307,1.097,1.979l2.659,2.659
		l-0.894,0.894l-5.408-5.408l0.769-0.77L611.473,88.649z"/>
</g>
<g>
	<path fill="#FFFFFF" d="M871.341,127.147c0.117-0.645,0.5-1.291,1.148-1.939c0.649-0.649,1.291-1.021,1.93-1.115
		c0.637-0.095,1.17,0.059,1.601,0.459l-0.871,0.87c-0.559-0.422-1.219-0.252-1.98,0.51c-0.369,0.37-0.571,0.737-0.605,1.103
		c-0.034,0.366,0.046,0.646,0.237,0.838c0.193,0.192,0.431,0.279,0.714,0.26c0.282-0.019,0.64-0.145,1.068-0.378l1.448-0.725
		c0.604-0.317,1.139-0.487,1.606-0.51s0.896,0.16,1.285,0.549c0.388,0.389,0.538,0.939,0.451,1.652
		c-0.086,0.713-0.488,1.427-1.205,2.144s-1.435,1.114-2.154,1.193c-0.721,0.08-1.345-0.122-1.872-0.604l0.859-0.86
		c0.354,0.324,0.746,0.441,1.177,0.351c0.43-0.09,0.84-0.332,1.232-0.724c0.393-0.393,0.634-0.8,0.726-1.223
		c0.089-0.421,0.02-0.748-0.211-0.978c-0.229-0.23-0.48-0.33-0.752-0.301c-0.271,0.03-0.622,0.169-1.052,0.419l-1.403,0.701
		c-1.223,0.664-2.184,0.646-2.885-0.057C871.388,128.337,871.225,127.792,871.341,127.147z"/>
	<path fill="#FFFFFF" d="M884.753,121.881c0.416,1.153,0.207,2.145-0.622,2.975c-0.61,0.61-1.272,0.934-1.985,0.967
		c-0.713,0.035-1.424-0.302-2.133-1.012l-3.439-3.439l0.894-0.894l3.371,3.371c0.913,0.913,1.792,0.947,2.638,0.102
		c0.49-0.49,0.699-1.076,0.627-1.759c-0.071-0.682-0.395-1.325-0.967-1.929l-2.728-2.727l0.895-0.895l5.419,5.42l-0.894,0.894
		L884.753,121.881z"/>
	<path fill="#FFFFFF" d="M886.563,112.92c-0.854,0.853-0.622,1.965,0.69,3.338l2.636,2.636l-0.894,0.894l-5.419-5.419l0.893-0.894
		l1.041,1.04c-0.482-1.025-0.381-1.882,0.306-2.567c0.22-0.219,0.46-0.393,0.724-0.521l0.826,0.918
		C887.065,112.495,886.797,112.686,886.563,112.92z"/>
	<path fill="#FFFFFF" d="M887.978,109.99l6.098,2.84l-2.828-6.109l1.007-1.007l3.259,7.557l-0.984,0.985l-7.558-3.259
		L887.978,109.99z"/>
	<path fill="#FFFFFF" d="M900.275,107.309c0.747-0.746,0.846-1.501,0.294-2.263l0.917-0.917c0.461,0.626,0.641,1.287,0.543,1.979
		c-0.098,0.694-0.441,1.336-1.03,1.924c-0.724,0.725-1.57,1.055-2.539,0.99s-1.884-0.526-2.744-1.386
		c-0.859-0.859-1.317-1.774-1.374-2.744c-0.057-0.969,0.294-1.833,1.053-2.591c0.758-0.758,1.617-1.029,2.579-0.814
		s1.809,0.802,2.54,1.76l-3.7,3.7c0.558,0.558,1.152,0.88,1.781,0.966C899.226,108,899.785,107.799,900.275,107.309z
		 M896.837,102.557c-0.265,0.083-0.521,0.249-0.77,0.498c-0.46,0.459-0.668,0.98-0.622,1.561c0.044,0.581,0.278,1.129,0.701,1.641
		l2.885-2.885C898.277,102.618,897.546,102.345,896.837,102.557z"/>
	<path fill="#FFFFFF" d="M898.646,96.765c-0.182,0.181-0.373,0.271-0.577,0.271c-0.203,0-0.39-0.085-0.56-0.254
		c-0.17-0.17-0.254-0.356-0.255-0.561c0.001-0.204,0.09-0.396,0.271-0.576c0.182-0.182,0.378-0.276,0.589-0.284
		c0.211-0.007,0.401,0.074,0.571,0.244c0.17,0.169,0.25,0.359,0.243,0.57C898.922,96.387,898.828,96.583,898.646,96.765z
		 M899.473,98.472l0.894-0.894l5.419,5.42l-0.894,0.894L899.473,98.472z"/>
	<path fill="#FFFFFF" d="M900.514,92.861l0.894-0.894l7.705,7.704l-0.894,0.894L900.514,92.861z"/>
	<path fill="#FFFFFF" d="M903.681,89.693l0.894-0.894l7.705,7.705l-0.894,0.894L903.681,89.693z"/>
	<path fill="#FFFFFF" d="M914.396,87.374c-0.49-0.49-0.943-0.739-1.358-0.747c-0.414-0.007-0.815,0.183-1.204,0.571
		c-0.39,0.389-0.624,0.78-0.707,1.172s0.042,0.754,0.373,1.086l-0.984,0.983c-0.829-0.829-0.897-1.787-0.203-2.873
		c0.211-0.331,0.475-0.656,0.792-0.973c0.671-0.671,1.365-1.025,2.081-1.063c0.717-0.037,1.423,0.29,2.116,0.984l3.484,3.484
		l-0.769,0.769l-0.997-0.813c0.355,1.018,0.099,1.961-0.769,2.828c-0.581,0.581-1.209,0.884-1.884,0.911
		c-0.675,0.025-1.254-0.202-1.736-0.685s-0.666-1.055-0.549-1.715c0.116-0.659,0.465-1.28,1.046-1.861
		c0.581-0.58,1.233-1.037,1.958-1.369L914.396,87.374z M915.652,88.629c-0.688,0.385-1.23,0.777-1.63,1.177
		c-0.4,0.399-0.652,0.796-0.759,1.188c-0.105,0.394-0.004,0.743,0.306,1.053c0.679,0.679,1.403,0.634,2.173-0.136
		c0.437-0.437,0.655-0.969,0.656-1.596C916.397,89.69,916.149,89.126,915.652,88.629z"/>
	<path fill="#FFFFFF" d="M917.383,82.667c-0.431-1.139-0.216-2.138,0.645-2.998c0.641-0.642,1.353-0.93,2.132-0.865
		c0.781,0.063,1.538,0.462,2.269,1.193l3.18,3.179l-0.883,0.883l-3.179-3.18c-0.521-0.521-1.034-0.79-1.545-0.809
		c-0.508-0.02-0.989,0.198-1.441,0.65c-0.453,0.452-0.635,1.003-0.543,1.652c0.09,0.648,0.455,1.309,1.097,1.98l2.658,2.658
		l-0.894,0.894l-5.408-5.408l0.77-0.77L917.383,82.667z"/>
	<path fill="#FFFFFF" d="M923.973,73.724c0.637-0.637,1.308-0.98,2.014-1.029c0.705-0.049,1.359,0.114,1.963,0.492l-0.825,0.984
		c-0.415-0.219-0.82-0.307-1.217-0.266c-0.396,0.042-0.726,0.194-0.99,0.459c-0.482,0.482-0.692,1.054-0.628,1.713
		c0.064,0.66,0.407,1.3,1.029,1.923c0.622,0.622,1.268,0.977,1.935,1.063c0.668,0.087,1.218-0.087,1.652-0.521
		c0.434-0.434,0.658-0.856,0.673-1.271c0.016-0.415-0.162-0.807-0.531-1.177l0.916-0.915c0.58,0.58,0.849,1.252,0.804,2.013
		c-0.045,0.762-0.393,1.466-1.042,2.115c-0.686,0.687-1.529,1.009-2.527,0.968c-0.999-0.042-1.932-0.494-2.796-1.357
		c-0.863-0.863-1.31-1.787-1.339-2.766C923.031,75.171,923.335,74.362,923.973,73.724z"/>
	<path fill="#FFFFFF" d="M934.806,72.78c0.746-0.747,0.845-1.501,0.293-2.263l0.917-0.917c0.461,0.626,0.641,1.287,0.544,1.98
		c-0.099,0.694-0.442,1.335-1.03,1.924c-0.725,0.725-1.571,1.055-2.54,0.99s-1.884-0.526-2.743-1.386
		c-0.86-0.859-1.318-1.774-1.375-2.744c-0.057-0.969,0.295-1.833,1.053-2.591c0.758-0.757,1.617-1.029,2.579-0.814
		s1.809,0.802,2.54,1.759l-3.7,3.7c0.559,0.558,1.152,0.88,1.782,0.967C933.755,73.471,934.315,73.271,934.806,72.78z
		 M931.366,68.028c-0.265,0.083-0.521,0.25-0.77,0.498c-0.46,0.46-0.668,0.981-0.622,1.561c0.045,0.581,0.278,1.128,0.701,1.641
		l2.885-2.885C932.807,68.089,932.075,67.816,931.366,68.028z"/>
	<path fill="#FFFFFF" d="M938.312,61.308c-0.286-0.995-0.076-1.846,0.629-2.551s1.554-1.033,2.545-0.985
		c0.992,0.049,1.914,0.5,2.767,1.352c0.853,0.853,1.3,1.775,1.341,2.767c0.041,0.992-0.285,1.834-0.979,2.528
		c-0.694,0.695-1.468,0.947-2.319,0.759l3.314,3.315l-0.894,0.894l-8.066-8.067l0.735-0.736L938.312,61.308z M943.776,63.672
		c0.423-0.422,0.613-0.974,0.572-1.657c-0.042-0.682-0.377-1.338-1.008-1.969c-0.629-0.629-1.281-0.977-1.957-1.04
		c-0.675-0.064-1.231,0.123-1.669,0.56c-0.437,0.438-0.658,0.933-0.661,1.488c-0.004,0.554,0.22,1.072,0.673,1.556l1.029,1.029
		c0.476,0.475,0.991,0.705,1.551,0.69C942.864,64.314,943.354,64.095,943.776,63.672z"/>
	<path fill="#FFFFFF" d="M946.334,53.15c-0.854,0.853-0.623,1.965,0.689,3.339l2.636,2.636l-0.894,0.894l-5.419-5.419l0.894-0.894
		l1.04,1.041c-0.481-1.026-0.379-1.882,0.307-2.569c0.219-0.218,0.46-0.392,0.724-0.52l0.826,0.917
		C946.836,52.724,946.567,52.917,946.334,53.15z"/>
	<path fill="#FFFFFF" d="M952.929,48.841c-0.49-0.49-0.942-0.74-1.357-0.747c-0.414-0.007-0.816,0.183-1.205,0.571
		c-0.389,0.389-0.623,0.78-0.707,1.171c-0.083,0.392,0.042,0.754,0.374,1.086l-0.985,0.985c-0.829-0.83-0.896-1.788-0.203-2.874
		c0.212-0.332,0.476-0.656,0.793-0.973c0.671-0.671,1.365-1.025,2.081-1.063c0.717-0.037,1.422,0.291,2.115,0.985l3.484,3.484
		l-0.769,0.77l-0.996-0.815c0.354,1.019,0.098,1.961-0.77,2.828c-0.58,0.581-1.209,0.885-1.884,0.912
		c-0.675,0.026-1.253-0.202-1.735-0.685c-0.483-0.482-0.667-1.054-0.55-1.714c0.117-0.66,0.466-1.281,1.047-1.861
		c0.58-0.581,1.233-1.038,1.957-1.369L952.929,48.841z M954.186,50.097c-0.687,0.384-1.229,0.776-1.63,1.176
		c-0.399,0.399-0.652,0.796-0.758,1.188c-0.104,0.392-0.004,0.743,0.306,1.052c0.679,0.679,1.402,0.634,2.172-0.135
		c0.438-0.438,0.656-0.969,0.656-1.595C954.933,51.156,954.683,50.594,954.186,50.097z"/>
	<path fill="#FFFFFF" d="M955.685,42.013c0.637-0.637,1.308-0.98,2.014-1.029c0.705-0.049,1.359,0.114,1.963,0.491l-0.826,0.985
		c-0.415-0.219-0.819-0.307-1.216-0.266c-0.396,0.042-0.727,0.195-0.99,0.459c-0.482,0.482-0.692,1.054-0.628,1.714
		c0.063,0.659,0.407,1.3,1.03,1.922c0.622,0.622,1.267,0.977,1.934,1.064s1.218-0.086,1.652-0.521
		c0.434-0.434,0.657-0.857,0.673-1.273c0.016-0.415-0.162-0.807-0.531-1.176l0.916-0.917c0.581,0.581,0.849,1.252,0.804,2.014
		c-0.046,0.762-0.393,1.467-1.041,2.116c-0.687,0.687-1.53,1.009-2.529,0.968c-0.999-0.042-1.931-0.495-2.795-1.358
		c-0.862-0.863-1.311-1.786-1.34-2.766C954.743,43.459,955.047,42.65,955.685,42.013z"/>
	<path fill="#FFFFFF" d="M967.921,40.547c-0.349,0.95-0.876,1.606-1.584,1.968c-0.506,0.265-1.03,0.283-1.573,0.057
		c-0.271-0.105-0.539-0.29-0.804-0.555l-3.326-3.326l-0.871,0.871l-0.679-0.679l0.871-0.871l-1.505-1.505l0.883-0.882l1.505,1.504
		l1.696-1.697l0.679,0.679l-1.696,1.696l3.315,3.315c0.55,0.55,1.082,0.57,1.595,0.057c0.279-0.279,0.524-0.66,0.735-1.143
		L967.921,40.547z"/>
	<path fill="#FFFFFF" d="M963.314,32.097c-0.181,0.181-0.373,0.271-0.576,0.271c-0.204-0.001-0.391-0.085-0.561-0.255
		s-0.254-0.356-0.255-0.56c0.001-0.204,0.091-0.396,0.271-0.577c0.182-0.182,0.378-0.275,0.589-0.284
		c0.212-0.007,0.401,0.074,0.571,0.244s0.251,0.36,0.244,0.571C963.59,31.719,963.496,31.915,963.314,32.097z M964.142,33.804
		l0.894-0.894l5.419,5.419l-0.894,0.894L964.142,33.804z"/>
	<path fill="#FFFFFF" d="M969.147,28.549c0.638-0.637,1.309-0.981,2.015-1.029c0.705-0.049,1.358,0.114,1.962,0.492l-0.825,0.984
		c-0.415-0.219-0.82-0.307-1.217-0.266c-0.396,0.041-0.726,0.194-0.99,0.458c-0.482,0.482-0.691,1.054-0.627,1.713
		c0.063,0.66,0.406,1.302,1.028,1.924c0.622,0.623,1.268,0.977,1.936,1.063c0.667,0.086,1.218-0.087,1.651-0.521
		s0.659-0.858,0.673-1.273c0.016-0.414-0.162-0.807-0.531-1.176l0.916-0.917c0.581,0.581,0.849,1.252,0.804,2.014
		s-0.393,1.467-1.041,2.115c-0.687,0.687-1.529,1.009-2.528,0.967c-1-0.042-1.931-0.494-2.795-1.357
		c-0.863-0.863-1.31-1.787-1.34-2.766C968.207,29.995,968.51,29.187,969.147,28.549z"/>
	<path fill="#FFFFFF" d="M972.525,22.886c-0.182,0.181-0.375,0.272-0.577,0.271c-0.204,0-0.391-0.084-0.561-0.254
		c-0.17-0.169-0.254-0.356-0.254-0.561c-0.001-0.202,0.09-0.396,0.271-0.577c0.181-0.181,0.377-0.275,0.587-0.282
		c0.212-0.007,0.402,0.073,0.572,0.243c0.17,0.169,0.25,0.36,0.243,0.572C972.8,22.509,972.706,22.706,972.525,22.886z
		 M973.351,24.595l0.894-0.894l5.42,5.419l-0.895,0.894L973.351,24.595z"/>
	<path fill="#FFFFFF" d="M983.363,24.222c0.747-0.747,0.846-1.501,0.294-2.263l0.917-0.917c0.461,0.626,0.641,1.287,0.543,1.979
		c-0.098,0.695-0.441,1.335-1.03,1.924c-0.724,0.725-1.57,1.055-2.539,0.99c-0.969-0.064-1.884-0.526-2.744-1.386
		c-0.859-0.86-1.318-1.774-1.374-2.744c-0.058-0.969,0.294-1.833,1.053-2.591c0.758-0.758,1.617-1.029,2.579-0.814
		s1.809,0.802,2.54,1.76l-3.7,3.7c0.558,0.558,1.152,0.88,1.781,0.967C982.313,24.913,982.873,24.712,983.363,24.222z
		 M979.925,19.47c-0.265,0.083-0.521,0.249-0.77,0.498c-0.46,0.46-0.668,0.981-0.623,1.562c0.045,0.581,0.279,1.128,0.702,1.641
		l2.885-2.885C981.365,19.53,980.633,19.258,979.925,19.47z"/>
	<path fill="#FFFFFF" d="M983.063,15.424c0.117-0.644,0.5-1.291,1.148-1.939c0.649-0.649,1.292-1.021,1.93-1.115
		c0.638-0.095,1.171,0.059,1.601,0.458l-0.871,0.871c-0.559-0.422-1.219-0.252-1.98,0.51c-0.369,0.37-0.57,0.737-0.605,1.103
		c-0.034,0.366,0.046,0.645,0.238,0.837c0.192,0.192,0.43,0.279,0.713,0.26c0.282-0.019,0.64-0.145,1.069-0.378l1.447-0.725
		c0.604-0.317,1.139-0.487,1.606-0.509c0.469-0.022,0.896,0.16,1.285,0.549c0.388,0.388,0.539,0.939,0.452,1.652
		c-0.087,0.713-0.488,1.427-1.205,2.144s-1.436,1.114-2.155,1.193c-0.721,0.08-1.344-0.123-1.872-0.605l0.859-0.86
		c0.354,0.324,0.746,0.441,1.177,0.351c0.431-0.091,0.841-0.333,1.232-0.725c0.393-0.392,0.634-0.8,0.726-1.222
		c0.09-0.421,0.02-0.748-0.21-0.978c-0.23-0.23-0.48-0.33-0.752-0.3c-0.272,0.03-0.622,0.169-1.053,0.418l-1.403,0.702
		c-1.222,0.664-2.184,0.645-2.885-0.057C983.111,16.615,982.947,16.07,983.063,15.424z"/>
	<path fill="#FFFFFF" d="M889.618,139.303c-0.49-0.49-0.943-0.739-1.358-0.747c-0.414-0.007-0.816,0.183-1.205,0.571
		s-0.623,0.779-0.707,1.171c-0.083,0.393,0.042,0.755,0.374,1.087l-0.984,0.983c-0.829-0.829-0.897-1.787-0.204-2.873
		c0.212-0.331,0.476-0.656,0.792-0.973c0.672-0.672,1.365-1.025,2.082-1.063c0.717-0.037,1.422,0.29,2.116,0.983l3.484,3.484
		l-0.77,0.77l-0.996-0.814c0.354,1.019,0.098,1.962-0.77,2.829c-0.58,0.58-1.208,0.884-1.883,0.91
		c-0.676,0.026-1.254-0.201-1.736-0.684c-0.483-0.483-0.667-1.055-0.55-1.715c0.117-0.659,0.466-1.28,1.047-1.861
		c0.58-0.58,1.233-1.037,1.957-1.369L889.618,139.303z M890.874,140.559c-0.687,0.385-1.23,0.777-1.63,1.177
		s-0.651,0.795-0.758,1.188c-0.105,0.393-0.004,0.743,0.306,1.053c0.679,0.679,1.402,0.634,2.173-0.137
		c0.437-0.437,0.655-0.969,0.656-1.595C891.62,141.62,891.371,141.056,890.874,140.559z"/>
	<path fill="#FFFFFF" d="M893.668,132.967c-0.853,0.853-0.623,1.965,0.69,3.339l2.636,2.636l-0.894,0.894l-5.42-5.419l0.894-0.895
		l1.041,1.041c-0.482-1.026-0.38-1.882,0.307-2.568c0.218-0.219,0.459-0.392,0.723-0.521l0.827,0.917
		C894.17,132.542,893.901,132.734,893.668,132.967z"/>
	<path fill="#FFFFFF" d="M901.689,133.047c0.747-0.747,0.845-1.501,0.294-2.264l0.916-0.916c0.46,0.627,0.642,1.286,0.543,1.98
		c-0.097,0.693-0.441,1.335-1.029,1.923c-0.724,0.724-1.57,1.054-2.54,0.99c-0.969-0.064-1.884-0.526-2.743-1.386
		s-1.317-1.774-1.375-2.743c-0.057-0.97,0.294-1.833,1.053-2.591c0.758-0.759,1.617-1.03,2.579-0.815
		c0.962,0.216,1.809,0.802,2.54,1.76l-3.699,3.699c0.559,0.558,1.152,0.881,1.781,0.967
		C900.639,133.74,901.199,133.538,901.689,133.047z M898.25,128.295c-0.264,0.083-0.521,0.248-0.77,0.498
		c-0.461,0.46-0.667,0.98-0.622,1.561c0.045,0.581,0.279,1.128,0.701,1.641l2.886-2.885
		C899.691,128.356,898.958,128.084,898.25,128.295z"/>
	<path fill="#FFFFFF" d="M902.752,119.811c-0.181,0.181-0.373,0.271-0.576,0.271c-0.204,0-0.391-0.085-0.561-0.255
		c-0.17-0.169-0.254-0.355-0.255-0.56c0.001-0.204,0.091-0.396,0.271-0.576c0.182-0.182,0.378-0.276,0.589-0.284
		c0.212-0.007,0.401,0.074,0.571,0.244c0.17,0.169,0.251,0.359,0.244,0.57C903.027,119.433,902.934,119.629,902.752,119.811z
		 M903.579,121.518l0.894-0.894l5.419,5.42l-0.894,0.894L903.579,121.518z"/>
	<path fill="#FFFFFF" d="M904.619,115.907l0.894-0.895l7.705,7.705l-0.894,0.894L904.619,115.907z"/>
	<path fill="#FFFFFF" d="M907.787,112.739l0.894-0.894l7.705,7.705l-0.894,0.894L907.787,112.739z"/>
	<path fill="#FFFFFF" d="M919.927,114.81c0.747-0.747,0.846-1.502,0.294-2.264l0.917-0.917c0.461,0.627,0.641,1.287,0.543,1.98
		c-0.098,0.694-0.441,1.335-1.03,1.924c-0.724,0.724-1.57,1.054-2.539,0.99c-0.969-0.064-1.884-0.526-2.744-1.387
		c-0.859-0.859-1.318-1.773-1.374-2.744c-0.058-0.969,0.294-1.832,1.053-2.591c0.757-0.757,1.617-1.028,2.579-0.813
		s1.809,0.802,2.54,1.759l-3.7,3.7c0.558,0.558,1.152,0.881,1.781,0.967C918.877,115.5,919.437,115.3,919.927,114.81z
		 M916.488,110.057c-0.265,0.084-0.521,0.25-0.771,0.498c-0.459,0.46-0.667,0.981-0.622,1.562c0.045,0.581,0.279,1.128,0.702,1.641
		l2.885-2.885C917.929,110.119,917.196,109.846,916.488,110.057z"/>
	<path fill="#FFFFFF" d="M924.543,111.052c-0.671,0.235-1.233,0.125-1.686-0.327c-0.233-0.233-0.352-0.527-0.351-0.883
		c0-0.354,0.103-0.693,0.306-1.019c-0.77,0.046-1.448-0.226-2.037-0.813c-0.588-0.589-0.854-1.272-0.798-2.054
		c0.057-0.78,0.372-1.458,0.945-2.031s1.195-0.925,1.866-1.052c-0.347-0.453-0.507-0.934-0.48-1.443
		c0.026-0.508,0.259-0.981,0.695-1.419l0.804,0.962c-0.663,0.663-0.731,1.289-0.204,1.878c0.589,0.06,1.109,0.316,1.562,0.77
		c0.581,0.58,0.849,1.267,0.804,2.059c-0.046,0.792-0.382,1.501-1.007,2.126c-0.431,0.431-0.897,0.725-1.403,0.883
		c-0.121,0.182-0.187,0.387-0.197,0.617c-0.012,0.23,0.077,0.439,0.266,0.628c0.399,0.399,0.932,0.268,1.595-0.396l2.104-2.104
		c0.506-0.506,1.013-0.798,1.521-0.877c0.51-0.08,0.956,0.073,1.342,0.458c0.572,0.572,0.785,1.363,0.639,2.371
		c-0.147,1.006-0.662,1.95-1.545,2.833s-1.74,1.413-2.573,1.59s-1.499,0.017-1.997-0.481c-0.324-0.324-0.492-0.684-0.503-1.08
		C924.198,111.851,924.31,111.454,924.543,111.052z M925.562,112.411c0.287,0.287,0.689,0.377,1.211,0.271
		c0.52-0.105,1.099-0.478,1.736-1.114c0.637-0.638,1.031-1.307,1.182-2.009c0.15-0.701,0.041-1.237-0.328-1.606
		c-0.173-0.173-0.385-0.261-0.633-0.261c-0.249,0-0.502,0.129-0.759,0.386l-2.183,2.184c-0.37,0.399-0.571,0.786-0.606,1.159
		C925.148,111.794,925.274,112.124,925.562,112.411z M924.288,104.486c-0.389-0.389-0.822-0.589-1.301-0.6
		c-0.479-0.012-0.924,0.188-1.335,0.6s-0.61,0.855-0.6,1.335c0.011,0.479,0.213,0.914,0.605,1.307s0.833,0.596,1.323,0.61
		c0.491,0.016,0.939-0.181,1.347-0.588s0.6-0.855,0.576-1.347C924.882,105.313,924.677,104.875,924.288,104.486z"/>
	<path fill="#FFFFFF" d="M930.72,98.201c-0.49-0.49-0.942-0.739-1.357-0.747c-0.414-0.007-0.816,0.184-1.205,0.571
		c-0.389,0.389-0.623,0.779-0.707,1.171c-0.083,0.393,0.042,0.755,0.374,1.086l-0.985,0.985c-0.829-0.829-0.896-1.788-0.203-2.874
		c0.212-0.332,0.476-0.656,0.793-0.973c0.671-0.672,1.365-1.025,2.081-1.063c0.717-0.038,1.422,0.29,2.115,0.984l3.484,3.484
		l-0.769,0.77l-0.996-0.815c0.354,1.019,0.098,1.961-0.77,2.829c-0.58,0.58-1.209,0.884-1.884,0.911
		c-0.674,0.025-1.253-0.202-1.735-0.685c-0.483-0.483-0.667-1.055-0.55-1.714c0.117-0.66,0.466-1.281,1.047-1.862
		s1.233-1.037,1.957-1.368L930.72,98.201z M931.977,99.458c-0.687,0.384-1.229,0.775-1.63,1.176
		c-0.399,0.399-0.652,0.796-0.758,1.188c-0.104,0.393-0.004,0.743,0.306,1.053c0.679,0.679,1.402,0.634,2.172-0.136
		c0.438-0.438,0.656-0.97,0.656-1.595C932.724,100.516,932.474,99.955,931.977,99.458z"/>
	<path fill="#FFFFFF" d="M929.51,91.016l0.894-0.894l7.705,7.705l-0.894,0.894L929.51,91.016z"/>
</g>
<g>
	<path fill="#FFFFFF" d="M1167.292,139.303c-0.49-0.49-0.943-0.74-1.357-0.747c-0.415-0.007-0.817,0.183-1.205,0.57
		c-0.389,0.39-0.624,0.78-0.707,1.172s0.042,0.755,0.373,1.086l-0.984,0.984c-0.829-0.829-0.897-1.787-0.203-2.874
		c0.211-0.331,0.475-0.655,0.792-0.973c0.671-0.671,1.365-1.025,2.081-1.063c0.717-0.037,1.422,0.291,2.116,0.984l3.484,3.484
		l-0.77,0.77l-0.995-0.814c0.354,1.019,0.098,1.961-0.77,2.828c-0.581,0.581-1.209,0.885-1.884,0.911s-1.254-0.202-1.736-0.685
		s-0.666-1.055-0.55-1.714c0.117-0.66,0.467-1.281,1.047-1.861c0.581-0.581,1.233-1.037,1.957-1.369L1167.292,139.303z
		 M1168.548,140.559c-0.687,0.384-1.229,0.776-1.629,1.176c-0.4,0.4-0.652,0.796-0.758,1.188c-0.105,0.393-0.005,0.743,0.305,1.053
		c0.679,0.679,1.403,0.634,2.173-0.136c0.438-0.438,0.655-0.969,0.655-1.595C1169.295,141.619,1169.045,141.056,1168.548,140.559z"
		/>
	<path fill="#FFFFFF" d="M1173.843,139.426c-0.671,0.235-1.234,0.125-1.687-0.327c-0.233-0.233-0.351-0.527-0.35-0.883
		c0-0.354,0.102-0.693,0.305-1.019c-0.769,0.046-1.447-0.226-2.036-0.813c-0.588-0.589-0.854-1.272-0.798-2.054
		c0.057-0.78,0.372-1.458,0.945-2.031s1.195-0.925,1.866-1.052c-0.347-0.453-0.507-0.934-0.48-1.443
		c0.026-0.508,0.258-0.981,0.695-1.419l0.804,0.962c-0.664,0.663-0.732,1.29-0.204,1.878c0.589,0.061,1.108,0.316,1.562,0.77
		c0.581,0.58,0.849,1.267,0.804,2.059c-0.046,0.792-0.382,1.501-1.007,2.126c-0.431,0.431-0.897,0.725-1.403,0.883
		c-0.121,0.182-0.187,0.387-0.197,0.617c-0.012,0.23,0.077,0.439,0.266,0.628c0.399,0.4,0.932,0.268,1.594-0.396l2.105-2.104
		c0.505-0.506,1.013-0.798,1.521-0.877c0.509-0.08,0.956,0.073,1.341,0.458c0.573,0.572,0.786,1.363,0.64,2.371
		c-0.147,1.006-0.663,1.95-1.545,2.833c-0.883,0.883-1.74,1.413-2.573,1.59s-1.499,0.017-1.997-0.48
		c-0.324-0.325-0.492-0.685-0.504-1.081C1173.497,140.225,1173.608,139.828,1173.843,139.426z M1174.861,140.785
		c0.286,0.287,0.689,0.377,1.211,0.271c0.52-0.105,1.099-0.478,1.735-1.114c0.638-0.638,1.032-1.307,1.183-2.008
		c0.15-0.702,0.041-1.238-0.328-1.607c-0.173-0.173-0.385-0.26-0.634-0.26c-0.248,0-0.501,0.128-0.758,0.385l-2.184,2.184
		c-0.369,0.399-0.57,0.786-0.605,1.159C1174.448,140.168,1174.574,140.498,1174.861,140.785z M1173.587,132.86
		c-0.388-0.389-0.821-0.589-1.301-0.6c-0.479-0.012-0.923,0.188-1.334,0.6s-0.611,0.855-0.6,1.335
		c0.011,0.479,0.213,0.915,0.605,1.307c0.392,0.393,0.833,0.596,1.323,0.61c0.491,0.016,0.938-0.181,1.347-0.588
		c0.407-0.407,0.6-0.855,0.576-1.346C1174.182,133.688,1173.977,133.249,1173.587,132.86z"/>
	<path fill="#FFFFFF" d="M1180.02,126.575c-0.49-0.49-0.942-0.739-1.357-0.747c-0.414-0.007-0.817,0.184-1.205,0.571
		c-0.389,0.389-0.623,0.779-0.707,1.171c-0.083,0.393,0.042,0.755,0.374,1.087l-0.985,0.984c-0.829-0.829-0.896-1.788-0.203-2.874
		c0.212-0.332,0.476-0.656,0.792-0.973c0.672-0.672,1.365-1.025,2.082-1.063s1.422,0.29,2.115,0.984l3.484,3.484l-0.77,0.77
		l-0.995-0.815c0.354,1.019,0.098,1.962-0.77,2.829c-0.581,0.58-1.209,0.885-1.884,0.911c-0.675,0.025-1.253-0.202-1.736-0.685
		c-0.482-0.483-0.666-1.055-0.549-1.714c0.117-0.66,0.466-1.281,1.047-1.862c0.58-0.58,1.232-1.037,1.957-1.368L1180.02,126.575z
		 M1181.275,127.832c-0.687,0.384-1.229,0.775-1.629,1.176c-0.399,0.399-0.652,0.796-0.758,1.188
		c-0.105,0.393-0.004,0.743,0.306,1.053c0.679,0.679,1.402,0.634,2.172-0.136c0.438-0.438,0.656-0.97,0.656-1.595
		C1182.022,128.89,1181.772,128.329,1181.275,127.832z"/>
	<path fill="#FFFFFF" d="M1180.325,119.912c-0.182,0.181-0.373,0.271-0.577,0.271c-0.203-0.001-0.39-0.085-0.56-0.255
		s-0.254-0.356-0.255-0.561c0.001-0.203,0.091-0.396,0.271-0.576c0.182-0.182,0.378-0.275,0.589-0.284
		c0.211-0.007,0.401,0.074,0.571,0.244s0.25,0.359,0.243,0.571C1180.601,119.534,1180.507,119.73,1180.325,119.912z
		 M1181.151,121.619l0.894-0.894l5.419,5.42l-0.894,0.894L1181.151,121.619z"/>
	<path fill="#FFFFFF" d="M1186.39,118.486c-0.43-1.139-0.215-2.139,0.646-2.999c0.641-0.641,1.352-0.929,2.132-0.865
		c0.781,0.063,1.537,0.462,2.269,1.193l3.179,3.18l-0.882,0.882l-3.18-3.179c-0.521-0.521-1.034-0.79-1.544-0.809
		c-0.509-0.02-0.99,0.198-1.442,0.65s-0.634,1.003-0.543,1.651s0.455,1.309,1.097,1.98l2.658,2.659l-0.893,0.894l-5.408-5.408
		l0.769-0.77L1186.39,118.486z"/>
	<path fill="#FFFFFF" d="M1191.859,111.454c0.117-0.645,0.5-1.291,1.148-1.939c0.649-0.649,1.291-1.021,1.93-1.114
		c0.638-0.095,1.171,0.058,1.601,0.457l-0.871,0.872c-0.558-0.423-1.218-0.253-1.979,0.509c-0.37,0.37-0.571,0.737-0.606,1.104
		c-0.034,0.365,0.046,0.645,0.237,0.837c0.193,0.192,0.431,0.279,0.714,0.26c0.282-0.019,0.639-0.145,1.069-0.379l1.448-0.725
		c0.603-0.316,1.138-0.485,1.606-0.509c0.467-0.021,0.896,0.16,1.284,0.549c0.388,0.389,0.538,0.939,0.452,1.651
		c-0.087,0.714-0.489,1.428-1.205,2.145c-0.717,0.717-1.435,1.114-2.155,1.193c-0.72,0.08-1.344-0.123-1.873-0.604l0.861-0.86
		c0.354,0.323,0.746,0.441,1.176,0.351c0.43-0.09,0.841-0.332,1.233-0.725c0.392-0.392,0.633-0.799,0.724-1.222
		c0.091-0.422,0.021-0.748-0.209-0.979c-0.229-0.229-0.48-0.33-0.752-0.3c-0.272,0.031-0.623,0.17-1.053,0.419l-1.403,0.702
		c-1.222,0.663-2.184,0.645-2.885-0.057C1191.906,112.644,1191.743,112.099,1191.859,111.454z"/>
	<path fill="#FFFFFF" d="M1205.34,107.953c-0.348,0.95-0.875,1.606-1.584,1.968c-0.505,0.266-1.03,0.283-1.573,0.057
		c-0.271-0.104-0.538-0.29-0.803-0.555l-3.326-3.326l-0.871,0.872l-0.68-0.679l0.872-0.872l-1.505-1.505l0.883-0.882l1.504,1.505
		l1.697-1.697l0.679,0.679l-1.696,1.697l3.314,3.315c0.551,0.55,1.082,0.569,1.596,0.057c0.279-0.279,0.523-0.66,0.735-1.144
		L1205.34,107.953z"/>
	<path fill="#FFFFFF" d="M1204.756,98.557c0.117-0.645,0.501-1.292,1.149-1.94s1.29-1.02,1.929-1.114
		c0.637-0.094,1.171,0.059,1.601,0.459l-0.871,0.871c-0.558-0.423-1.217-0.254-1.979,0.509c-0.37,0.369-0.572,0.737-0.605,1.103
		c-0.034,0.365,0.045,0.646,0.237,0.837c0.192,0.192,0.43,0.28,0.713,0.262c0.283-0.02,0.639-0.146,1.07-0.38l1.447-0.724
		c0.603-0.317,1.139-0.487,1.605-0.51c0.469-0.022,0.896,0.161,1.285,0.55c0.388,0.388,0.539,0.938,0.452,1.65
		c-0.087,0.714-0.488,1.428-1.204,2.144c-0.717,0.717-1.436,1.114-2.156,1.194c-0.72,0.079-1.344-0.122-1.872-0.605l0.86-0.859
		c0.354,0.324,0.746,0.44,1.176,0.351c0.431-0.09,0.842-0.333,1.233-0.725c0.393-0.393,0.634-0.799,0.724-1.222
		c0.092-0.422,0.021-0.749-0.208-0.979c-0.23-0.23-0.481-0.329-0.753-0.3c-0.271,0.03-0.623,0.17-1.053,0.418l-1.402,0.702
		c-1.222,0.663-2.184,0.645-2.886-0.057C1204.804,99.748,1204.64,99.203,1204.756,98.557z"/>
	<path fill="#FFFFFF" d="M1218.17,93.291c0.414,1.155,0.206,2.146-0.624,2.976c-0.61,0.61-1.271,0.934-1.985,0.968
		c-0.712,0.033-1.423-0.304-2.132-1.013l-3.439-3.44l0.894-0.894l3.371,3.371c0.913,0.913,1.792,0.947,2.637,0.103
		c0.489-0.489,0.699-1.077,0.628-1.759c-0.071-0.684-0.394-1.326-0.967-1.93l-2.727-2.727l0.893-0.894l5.42,5.419l-0.894,0.895
		L1218.17,93.291z"/>
	<path fill="#FFFFFF" d="M1219.979,84.331c-0.852,0.852-0.622,1.965,0.69,3.338l2.636,2.636l-0.894,0.894l-5.419-5.42l0.894-0.893
		l1.041,1.04c-0.483-1.025-0.381-1.882,0.306-2.567c0.218-0.219,0.46-0.393,0.724-0.521l0.826,0.916
		C1220.48,83.905,1220.212,84.096,1219.979,84.331z"/>
	<path fill="#FFFFFF" d="M1221.393,81.399l6.1,2.84l-2.829-6.108l1.007-1.007l3.258,7.558l-0.983,0.983l-7.559-3.258
		L1221.393,81.399z"/>
	<path fill="#FFFFFF" d="M1233.691,78.719c0.747-0.747,0.845-1.501,0.294-2.263l0.916-0.916c0.461,0.626,0.643,1.286,0.543,1.98
		c-0.097,0.693-0.441,1.334-1.029,1.923c-0.724,0.724-1.57,1.054-2.54,0.989c-0.969-0.063-1.884-0.525-2.743-1.385
		c-0.859-0.86-1.317-1.774-1.375-2.744c-0.057-0.969,0.294-1.833,1.053-2.591c0.758-0.758,1.617-1.029,2.58-0.814
		c0.961,0.215,1.808,0.802,2.539,1.759l-3.699,3.699c0.559,0.558,1.152,0.881,1.782,0.966
		C1232.641,79.411,1233.201,79.209,1233.691,78.719z M1230.252,73.968c-0.264,0.083-0.521,0.248-0.77,0.497
		c-0.46,0.461-0.667,0.981-0.622,1.562s0.279,1.127,0.701,1.64l2.886-2.884C1231.693,74.028,1230.96,73.757,1230.252,73.968z"/>
	<path fill="#FFFFFF" d="M1232.062,68.174c-0.181,0.181-0.374,0.272-0.577,0.271c-0.204,0-0.391-0.084-0.561-0.254
		s-0.254-0.356-0.254-0.561c-0.001-0.202,0.091-0.396,0.271-0.577c0.181-0.181,0.377-0.275,0.588-0.282
		c0.211-0.007,0.401,0.073,0.571,0.243c0.17,0.17,0.25,0.361,0.243,0.572C1232.337,67.797,1232.243,67.993,1232.062,68.174z
		 M1232.888,69.883l0.895-0.894l5.419,5.419l-0.895,0.895L1232.888,69.883z"/>
	<path fill="#FFFFFF" d="M1233.929,64.271l0.894-0.894l7.705,7.705l-0.894,0.894L1233.929,64.271z"/>
	<path fill="#FFFFFF" d="M1237.097,61.103l0.895-0.894l7.704,7.705l-0.894,0.894L1237.097,61.103z"/>
	<path fill="#FFFFFF" d="M1247.811,58.784c-0.49-0.49-0.942-0.739-1.357-0.747c-0.414-0.007-0.817,0.183-1.205,0.571
		c-0.389,0.389-0.623,0.779-0.707,1.171c-0.083,0.393,0.042,0.755,0.374,1.086l-0.985,0.985c-0.829-0.83-0.896-1.788-0.203-2.874
		c0.212-0.332,0.476-0.656,0.792-0.973c0.672-0.671,1.365-1.025,2.082-1.063c0.717-0.037,1.422,0.291,2.115,0.985l3.484,3.484
		l-0.769,0.769l-0.996-0.814c0.354,1.019,0.098,1.961-0.77,2.828c-0.581,0.581-1.209,0.885-1.884,0.912
		c-0.675,0.025-1.253-0.202-1.736-0.685c-0.482-0.482-0.666-1.054-0.549-1.714c0.117-0.66,0.466-1.281,1.047-1.862
		c0.58-0.581,1.233-1.037,1.957-1.369L1247.811,58.784z M1249.067,60.041c-0.687,0.384-1.229,0.776-1.63,1.176
		c-0.399,0.4-0.652,0.796-0.758,1.188c-0.104,0.392-0.004,0.743,0.306,1.052c0.679,0.679,1.402,0.634,2.172-0.135
		c0.438-0.438,0.656-0.97,0.656-1.595C1249.813,61.1,1249.564,60.538,1249.067,60.041z"/>
	<path fill="#FFFFFF" d="M1250.798,54.078c-0.43-1.139-0.215-2.139,0.646-2.998c0.641-0.641,1.352-0.93,2.132-0.866
		c0.78,0.065,1.537,0.463,2.269,1.194l3.179,3.18l-0.882,0.882l-3.18-3.179c-0.521-0.521-1.035-0.79-1.544-0.81
		c-0.51-0.018-0.989,0.198-1.442,0.651s-0.635,1.003-0.543,1.652c0.09,0.648,0.456,1.307,1.098,1.979l2.658,2.659l-0.894,0.894
		l-5.408-5.408l0.77-0.77L1250.798,54.078z"/>
	<path fill="#FFFFFF" d="M1257.388,45.135c0.639-0.638,1.309-0.981,2.015-1.03c0.705-0.049,1.359,0.114,1.962,0.492l-0.825,0.985
		c-0.415-0.219-0.82-0.308-1.217-0.266c-0.396,0.041-0.726,0.194-0.989,0.458c-0.483,0.483-0.691,1.054-0.628,1.714
		s0.407,1.301,1.029,1.923c0.622,0.622,1.267,0.977,1.935,1.063c0.667,0.087,1.218-0.086,1.651-0.52
		c0.434-0.434,0.659-0.857,0.674-1.273c0.016-0.415-0.163-0.807-0.532-1.176l0.917-0.917c0.581,0.581,0.848,1.253,0.803,2.014
		c-0.045,0.763-0.393,1.468-1.04,2.115c-0.687,0.687-1.53,1.009-2.529,0.968c-1-0.042-1.931-0.495-2.794-1.358
		c-0.863-0.863-1.312-1.786-1.341-2.766C1256.447,46.581,1256.751,45.771,1257.388,45.135z"/>
	<path fill="#FFFFFF" d="M1268.221,44.19c0.747-0.747,0.845-1.5,0.294-2.264l0.916-0.916c0.461,0.626,0.643,1.286,0.543,1.979
		c-0.097,0.694-0.44,1.335-1.029,1.923c-0.724,0.724-1.57,1.054-2.539,0.99c-0.97-0.064-1.885-0.526-2.744-1.386
		s-1.317-1.775-1.375-2.744c-0.057-0.969,0.295-1.833,1.053-2.591s1.618-1.03,2.58-0.815c0.961,0.215,1.809,0.802,2.539,1.76
		l-3.699,3.699c0.559,0.558,1.152,0.881,1.782,0.967C1267.17,44.882,1267.73,44.68,1268.221,44.19z M1264.781,39.438
		c-0.264,0.083-0.52,0.248-0.77,0.497c-0.46,0.461-0.667,0.98-0.622,1.562c0.045,0.581,0.28,1.127,0.702,1.641l2.885-2.885
		C1266.223,39.499,1265.49,39.227,1264.781,39.438z"/>
</g>
<rect x="1201.061" y="227.988" fill="none" width="65.185" height="19.254"/>
<text transform="matrix(1 0 0 1 1201.0605 238.8843)" fill="#999999" font-family="'Karla-Regular'" font-size="16">against</text>
<rect x="1077.684" y="166.026" fill="#00A1AF" width="186.375" height="13.811">
<title>against surveillance
8</title>
</rect>
<rect x="425.35" y="166.026" fill="#71536B" width="279.574" height="13.811">
<title>neutral
12</title>
</rect>
<rect x="6" y="166.026" fill="#CC1534" width="23.294" height="13.811">
<title>pro-surveillance
1</title>
</rect>
<rect x="29.294" y="166.026" fill="#9F344F" width="396.055" height="13.811">
<title>surveillance is necessary but
17</title>
</rect>
<rect x="704.924" y="166.026" fill="#447286" width="372.76" height="13.811">
<title>surveillance practicies are illegal
16</title>
</rect>
<rect x="30" y="165.908" fill="#333333" width="4" height="14"/>
<rect x="423" y="165.908" fill="#333333" width="4" height="14"/>
<rect x="703" y="165.908" fill="#333333" width="4" height="14"/>
<rect x="1076" y="165.908" fill="#333333" width="4" height="14"/>
<polygon fill="#CC1534" points="26.38,166.408 17.707,174.186 9.034,166.408 17.707,158.629 "/>
<polygon fill="#9F344F" points="235.997,166.408 227.324,174.186 218.651,166.408 227.324,158.629 "/>
<polygon fill="#71536B" points="573.835,166.408 565.163,174.186 556.49,166.408 565.163,158.629 "/>
<polygon fill="#447286" points="900.525,166.408 891.852,174.186 883.18,166.408 891.852,158.629 "/>
<polygon fill="#00A1AF" points="1179.27,166.408 1170.598,174.186 1161.925,166.408 1170.598,158.629 "/>
<line fill="none" stroke="#999999" stroke-miterlimit="10" x1="103" y1="235.908" x2="1179" y2="235.908"/>
<polyline fill="none" stroke="#999999" stroke-miterlimit="10" points="1171.924,231.323 1179.951,235.958 1171.924,240.592 "/>
</svg>
