<?xml version="1.0" encoding="utf-8"?>
<!-- Generator: Adobe Illustrator 16.0.0, SVG Export Plug-In . SVG Version: 6.00 Build 0)  -->
<!DOCTYPE svg PUBLIC "-//W3C//DTD SVG 1.1//EN" "http://www.w3.org/Graphics/SVG/1.1/DTD/svg11.dtd">
<svg version="1.1" id="Livello_1" xmlns="http://www.w3.org/2000/svg" xmlns:xlink="http://www.w3.org/1999/xlink" x="0px" y="0px"
	 width="1024px" height="595.281px" viewBox="0 0 1024 595.281" enable-background="new 0 0 1024 595.281" xml:space="preserve">
<g>
	<g>
		<g>
			<defs>
				<rect id="SVGID_1_" x="270.555" y="56.195" width="482.891" height="482.891"/>
			</defs>
			<clipPath id="SVGID_2_">
				<use xlink:href="#SVGID_1_"  overflow="visible"/>
			</clipPath>
			<g clip-path="url(#SVGID_2_)">
				<path d="M512,539.085c-64.492,0-125.125-25.114-170.728-70.718c-45.603-45.603-70.717-106.235-70.717-170.728
					s25.115-125.125,70.717-170.728C386.875,81.31,447.508,56.195,512,56.195s125.125,25.115,170.728,70.718
					c45.604,45.603,70.718,106.235,70.718,170.728s-25.114,125.125-70.718,170.728C637.125,513.971,576.492,539.085,512,539.085z
					 M512,57.195c-132.582,0-240.445,107.863-240.445,240.445S379.418,538.085,512,538.085
					c132.582,0,240.445-107.863,240.445-240.445S644.582,57.195,512,57.195z"/>
			</g>
		</g>
		<g>
			<defs>
				<rect id="SVGID_3_" x="270.555" y="56.195" width="482.891" height="482.891"/>
			</defs>
			<clipPath id="SVGID_4_">
				<use xlink:href="#SVGID_3_"  overflow="visible"/>
			</clipPath>
			<g clip-path="url(#SVGID_4_)">
				<path d="M512,467.718c-93.782,0-170.079-76.297-170.079-170.078c0-93.782,76.297-170.079,170.079-170.079
					c93.782,0,170.079,76.297,170.079,170.079C682.079,391.421,605.782,467.718,512,467.718z M512,128.561
					c-93.23,0-169.079,75.849-169.079,169.079S418.77,466.718,512,466.718s169.079-75.848,169.079-169.078
					S605.23,128.561,512,128.561z"/>
			</g>
		</g>
		<g>
			<defs>
				<rect id="SVGID_5_" x="270.555" y="56.195" width="482.891" height="482.891"/>
			</defs>
			<clipPath id="SVGID_6_">
				<use xlink:href="#SVGID_5_"  overflow="visible"/>
			</clipPath>
			<g clip-path="url(#SVGID_6_)">
				<path d="M512,393.546c-52.883,0-95.906-43.023-95.906-95.906s43.023-95.906,95.906-95.906s95.906,43.023,95.906,95.906
					S564.883,393.546,512,393.546z M512,202.734c-52.332,0-94.906,42.575-94.906,94.906c0,52.331,42.575,94.906,94.906,94.906
					c52.331,0,94.906-42.575,94.906-94.906C606.906,245.309,564.331,202.734,512,202.734z"/>
			</g>
		</g>
	</g>
	<g enable-background="new    ">
		<path d="M483.574,85.161l-1.86-0.278V82.89h8.584v1.978l-2.183,0.293l3.926,14.209c0.22,0.894,0.425,1.802,0.659,2.695
			l0.674-2.622l2.915-11.807l-0.688-2.49l-2.095-0.264V82.89h8.818v1.978l-2.446,0.308l3.413,14.312l0.601,2.651l0.688-2.886
			l3.501-14.092l-2.344-0.278V82.89h7.925v1.992l-2.183,0.249l-6.167,20.771h-3.853l-3.721-13.169l-3.647,13.154h-3.706
			L483.574,85.161z"/>
		<path d="M523.667,88.779c4.189-0.044,6.211,2.402,6.357,6.108c0.044,1.216-0.088,2.124-0.19,2.886h-10.503
			c0,0.059,0.015,0.103,0.015,0.146c0.22,4.014,2.373,5.566,5.083,5.566c1.465,0,3.281-0.322,4.526-0.938l0.674,1.582
			c-1.333,1.143-4.102,1.934-6.665,1.89c-5.054-0.059-7.896-3.179-7.896-8.32C515.068,92.69,518.408,88.823,523.667,88.779z
			 M525.864,95.693c0.132-1.67,0.19-3.765-1.128-4.644c-0.41-0.278-0.952-0.439-1.655-0.439c-2.314,0-3.457,2.256-3.706,5.083
			H525.864z"/>
		<path d="M533.892,84.838l-2.124-0.688v-1.714l5.566-0.63l0.718,0.249v7.998c0.967-0.688,2.373-1.289,4.248-1.289
			c3.472,0,6.87,2.168,6.87,8.013c0,4.878-3.516,9.272-8.833,9.272c-2.944,0-6.021-0.762-6.445-1.187V84.838z M540.791,104.174
			c2.036,0,4.087-1.685,4.204-6.855c0.103-4.395-2.227-6.211-4.336-6.211c-1.216,0-2.08,0.352-2.607,0.63v11.235
			C538.33,103.603,539.268,104.174,540.791,104.174z"/>
	</g>
	<g enable-background="new    ">
		<path d="M466.996,283.759c1.729,0,2.52,1.084,2.52,2.402c0,1.685-1.494,2.739-2.959,2.739c-1.245,0-2.476-0.85-2.476-2.329
			C464.081,284.975,465.633,283.759,466.996,283.759z"/>
		<path d="M482.083,271.645c5.112-0.059,7.954,3.193,7.939,8.335c-0.029,5.742-3.882,8.877-8.335,8.892
			c-5.859,0.015-8.115-4.028-8.057-8.701C473.705,274.487,477.704,271.704,482.083,271.645z M485.599,280.17
			c0-3.281-0.835-6.621-3.662-6.65c-2.988-0.029-3.882,2.915-3.882,6.357c0,3.062,0.952,7.046,3.779,7.075
			C484.823,286.982,485.599,283.876,485.599,280.17z"/>
		<path d="M492.953,286.85l1.904-0.337v-10.635l-2.036-1.289v-1.436l4.761-1.421l0.908,0.293v2.124
			c1.45-1.333,3.896-2.388,6.035-2.417c3.691-0.044,4.834,2.227,4.834,6.724v8.042l2.183,0.352v1.67h-8.481v-1.67l2.139-0.381
			v-7.412c0-3.325-0.483-4.541-3.164-4.482c-0.732,0.029-2.095,0.381-3.018,1.04v10.869l1.963,0.366v1.67h-8.027V286.85z"/>
		<path d="M513.666,286.85l2.197-0.381v-10.342l-1.934-1.655V273.3l5.053-1.567l0.982,0.337v14.429l2.227,0.352v1.67h-8.525V286.85z
			 M514.881,266.459c0-1.597,1.568-2.798,2.988-2.798c1.744,0,2.506,1.069,2.506,2.358c0,1.685-1.48,2.769-2.975,2.769
			C516.111,268.789,514.881,267.91,514.881,266.459z"/>
		<path d="M532.563,271.645c5.111-0.059,7.953,3.193,7.939,8.335c-0.029,5.742-3.883,8.877-8.336,8.892
			c-5.859,0.015-8.115-4.028-8.057-8.701C524.184,274.487,528.182,271.704,532.563,271.645z M536.078,280.17
			c0-3.281-0.836-6.621-3.662-6.65c-2.988-0.029-3.883,2.915-3.883,6.357c0,3.062,0.953,7.046,3.779,7.075
			C535.301,286.982,536.078,283.876,536.078,280.17z"/>
		<path d="M543.432,286.85l1.904-0.337v-10.635l-2.037-1.289v-1.436l4.762-1.421l0.908,0.293v2.124
			c1.449-1.333,3.896-2.388,6.035-2.417c3.691-0.044,4.834,2.227,4.834,6.724v8.042l2.182,0.352v1.67h-8.48v-1.67l2.139-0.381
			v-7.412c0-3.325-0.484-4.541-3.164-4.482c-0.732,0.029-2.096,0.381-3.018,1.04v10.869l1.963,0.366v1.67h-8.027V286.85z"/>
	</g>
	<g enable-background="new    ">
		<path d="M445.975,309.643l-1.597-0.352v-2.153h7.471v2.153l-1.685,0.381l2.139,7.705l0.63,2.695l0.469-2.446l2.783-10.488h3.516
			l2.71,10.488l0.63,2.563l0.571-2.505l1.89-8.013l-1.875-0.381v-2.153h6.694v2.139l-1.948,0.425l-4.028,14.033h-3.882l-2.651-9.097
			l-0.615-2.725l-0.557,2.725l-2.417,9.097h-3.721L445.975,309.643z"/>
		<path d="M480.208,306.669c4.189-0.044,6.211,2.402,6.357,6.108c0.044,1.216-0.088,2.124-0.19,2.886h-10.503
			c0,0.059,0.015,0.103,0.015,0.146c0.22,4.014,2.373,5.566,5.083,5.566c1.465,0,3.281-0.322,4.526-0.938l0.674,1.582
			c-1.333,1.143-4.102,1.934-6.665,1.89c-5.054-0.059-7.896-3.179-7.896-8.32C471.609,310.581,474.949,306.713,480.208,306.669z
			 M482.405,313.583c0.132-1.67,0.19-3.765-1.128-4.644c-0.41-0.278-0.952-0.439-1.655-0.439c-2.314,0-3.457,2.256-3.706,5.083
			H482.405z"/>
		<path d="M490.433,302.729l-2.124-0.688v-1.714l5.566-0.63l0.718,0.249v7.998c0.967-0.688,2.373-1.289,4.248-1.289
			c3.472,0,6.87,2.168,6.87,8.013c0,4.878-3.516,9.272-8.833,9.272c-2.944,0-6.021-0.762-6.445-1.187V302.729z M497.332,322.065
			c2.036,0,4.087-1.685,4.204-6.855c0.103-4.395-2.227-6.211-4.336-6.211c-1.216,0-2.08,0.352-2.607,0.63v11.235
			C494.871,321.494,495.809,322.065,497.332,322.065z"/>
		<path d="M508.846,318.959h1.934l0.776,1.685c0.703,0.645,1.523,1.362,2.944,1.436c1.934,0.088,3.135-0.732,3.135-2.241
			c-0.015-1.362-1.934-2.08-3.97-3.032c-2.563-1.201-4.966-2.695-4.922-5.566c0.059-3.281,3.809-4.497,6.519-4.57
			c2.095-0.059,4.219,0.439,5.273,0.908v3.633h-1.992l-0.747-1.743c-0.527-0.586-1.274-1.099-2.329-1.113
			c-1.421,0-2.622,0.542-2.637,1.831c-0.029,1.494,1.509,2.314,3.267,3.164c2.534,1.157,5.508,2.271,5.508,5.376
			c0,3.618-3.267,5.156-7.207,5.156c-1.831,0-4.014-0.41-5.552-1.289V318.959z"/>
		<path d="M524.065,321.86l2.197-0.381v-10.342l-1.934-1.655v-1.172l5.054-1.567l0.981,0.337v14.429l2.227,0.352v1.67h-8.525V321.86
			z M525.281,301.469c0-1.597,1.567-2.798,2.988-2.798c1.743,0,2.505,1.069,2.505,2.358c0,1.685-1.479,2.769-2.974,2.769
			C526.512,303.798,525.281,302.919,525.281,301.469z"/>
		<path d="M536.429,309.423h-2.227v-1.421c1.348-0.278,2.095-0.425,2.651-1.187c0.483-0.601,1.084-2.183,1.479-3.589h2.021v3.911
			h4.966v2.285h-4.834v6.226c0,4.922,0.293,5.654,1.758,5.654c0.879,0,2.227-0.278,2.739-0.601l0.63,1.509
			c-0.908,0.967-3.267,1.67-5.332,1.67c-2.842,0-3.853-1.479-3.853-4.878V309.423z"/>
		<path d="M556.233,306.669c4.189-0.044,6.211,2.402,6.357,6.108c0.044,1.216-0.088,2.124-0.19,2.886h-10.503
			c0,0.059,0.015,0.103,0.015,0.146c0.22,4.014,2.373,5.566,5.083,5.566c1.465,0,3.281-0.322,4.526-0.938l0.674,1.582
			c-1.333,1.143-4.102,1.934-6.665,1.89c-5.054-0.059-7.896-3.179-7.896-8.32C547.635,310.581,550.975,306.713,556.233,306.669z
			 M558.431,313.583c0.132-1.67,0.19-3.765-1.128-4.644c-0.41-0.278-0.952-0.439-1.655-0.439c-2.314,0-3.457,2.256-3.706,5.083
			H558.431z"/>
		<path d="M565.828,318.959h1.934l0.776,1.685c0.703,0.645,1.523,1.362,2.944,1.436c1.934,0.088,3.135-0.732,3.135-2.241
			c-0.015-1.362-1.934-2.08-3.97-3.032c-2.563-1.201-4.966-2.695-4.922-5.566c0.059-3.281,3.809-4.497,6.519-4.57
			c2.095-0.059,4.219,0.439,5.273,0.908v3.633h-1.992l-0.747-1.743c-0.527-0.586-1.274-1.099-2.329-1.113
			c-1.421,0-2.622,0.542-2.637,1.831c-0.029,1.494,1.509,2.314,3.267,3.164c2.534,1.157,5.508,2.271,5.508,5.376
			c0,3.618-3.267,5.156-7.207,5.156c-1.831,0-4.014-0.41-5.552-1.289V318.959z"/>
	</g>
	<g enable-background="new    ">
		<path d="M435.915,180.44l2.271-0.527v-18.252l-2.212-0.293v-1.978h4.395c1.846,0,3.428-0.205,5.303-0.205
			c7.837-0.015,11.235,4.365,11.235,10.942c0,7.676-4.937,12.231-11.689,12.158c-1.45-0.015-3.311-0.161-4.79-0.161
			c-1.494,0-3.018,0.015-4.512,0.015V180.44z M446.125,180.264c3.516-0.205,6.372-3.501,6.372-9.214
			c0-6.636-2.666-9.844-7.412-9.829c-1.187,0.015-2.051,0.146-2.681,0.366v18.223C443.342,180.22,444.587,180.367,446.125,180.264z"
			/>
		<path d="M467.863,165.279c4.189-0.044,6.211,2.402,6.357,6.108c0.044,1.216-0.088,2.124-0.19,2.886h-10.503
			c0,0.059,0.015,0.103,0.015,0.146c0.22,4.014,2.373,5.566,5.083,5.566c1.465,0,3.281-0.322,4.526-0.938l0.674,1.582
			c-1.333,1.143-4.102,1.934-6.665,1.89c-5.054-0.059-7.896-3.179-7.896-8.32C459.265,169.19,462.604,165.323,467.863,165.279z
			 M470.061,172.193c0.132-1.67,0.19-3.765-1.128-4.644c-0.41-0.278-0.952-0.439-1.655-0.439c-2.314,0-3.457,2.256-3.706,5.083
			H470.061z"/>
		<path d="M485.412,165.279c4.189-0.044,6.211,2.402,6.357,6.108c0.044,1.216-0.088,2.124-0.19,2.886h-10.503
			c0,0.059,0.015,0.103,0.015,0.146c0.22,4.014,2.373,5.566,5.083,5.566c1.465,0,3.281-0.322,4.526-0.938l0.674,1.582
			c-1.333,1.143-4.102,1.934-6.665,1.89c-5.054-0.059-7.896-3.179-7.896-8.32C476.813,169.19,480.153,165.323,485.412,165.279z
			 M487.609,172.193c0.132-1.67,0.19-3.765-1.128-4.644c-0.41-0.278-0.952-0.439-1.655-0.439c-2.314,0-3.457,2.256-3.706,5.083
			H487.609z"/>
		<path d="M496.398,187.559v-18.062l-2.036-1.289v-1.436l4.761-1.421l0.879,0.293v1.802c0.469-0.659,2.271-2.168,4.922-2.168
			c3.398,0,6.548,2.065,6.548,8.145c0,4.937-3.706,9.067-8.804,9.067c-0.864,0-1.714-0.176-2.285-0.308l0.146,3.076v2.3l3.018,0.381
			v1.685h-9.141v-1.685L496.398,187.559z M503.342,180.367c1.802,0,3.999-1.509,4.028-6.313c0.029-5.054-2.271-6.445-4.146-6.445
			c-1.362,0-2.271,0.806-2.71,1.23l0.015,5.537v4.849C500.896,179.942,502.053,180.367,503.342,180.367z"/>
		<path d="M522.707,161.661l-1.86-0.278v-1.992h8.584v1.978l-2.183,0.293l3.926,14.209c0.22,0.894,0.425,1.802,0.659,2.695
			l0.674-2.622l2.915-11.807l-0.688-2.49l-2.095-0.264v-1.992h8.818v1.978l-2.446,0.308l3.413,14.312l0.601,2.651l0.688-2.886
			l3.501-14.092l-2.344-0.278v-1.992h7.925v1.992l-2.183,0.249l-6.167,20.771h-3.853l-3.721-13.169l-3.647,13.154h-3.706
			L522.707,161.661z"/>
		<path d="M562.8,165.279c4.189-0.044,6.211,2.402,6.357,6.108c0.044,1.216-0.088,2.124-0.19,2.886h-10.503
			c0,0.059,0.015,0.103,0.015,0.146c0.22,4.014,2.373,5.566,5.083,5.566c1.465,0,3.281-0.322,4.526-0.938l0.674,1.582
			c-1.333,1.143-4.102,1.934-6.665,1.89c-5.054-0.059-7.896-3.179-7.896-8.32C554.201,169.19,557.541,165.323,562.8,165.279z
			 M564.997,172.193c0.132-1.67,0.19-3.765-1.128-4.644c-0.41-0.278-0.952-0.439-1.655-0.439c-2.314,0-3.457,2.256-3.706,5.083
			H564.997z"/>
		<path d="M573.024,161.338l-2.124-0.688v-1.714l5.566-0.63l0.718,0.249v7.998c0.967-0.688,2.373-1.289,4.248-1.289
			c3.472,0,6.87,2.168,6.87,8.013c0,4.878-3.516,9.272-8.833,9.272c-2.944,0-6.021-0.762-6.445-1.187V161.338z M579.924,180.674
			c2.036,0,4.087-1.685,4.204-6.855c0.103-4.395-2.227-6.211-4.336-6.211c-1.216,0-2.08,0.352-2.607,0.63v11.235
			C577.463,180.103,578.4,180.674,579.924,180.674z"/>
	</g>
</g>
</svg>
