<?xml version="1.0" encoding="utf-8"?>
<!-- Generator: Adobe Illustrator 16.0.0, SVG Export Plug-In . SVG Version: 6.00 Build 0)  -->
<!DOCTYPE svg PUBLIC "-//W3C//DTD SVG 1.1//EN" "http://www.w3.org/Graphics/SVG/1.1/DTD/svg11.dtd">
<svg version="1.1" id="Livello_1" xmlns="http://www.w3.org/2000/svg" xmlns:xlink="http://www.w3.org/1999/xlink" x="0px" y="0px"
	 width="159px" height="133px" viewBox="0 0 159 133" enable-background="new 0 0 159 133" xml:space="preserve">
<g display="none">
	<g display="inline">
		<path fill="#98D0D9" d="M43.753,81.79c5.5,0,10,4.5,10,10v4.651c0,5.5,4.5,10,10,10h6.428c5.5,0,10.001,4.5,10.002,10l0.002,6.431
			c0.001,5.5,4.502,10,10.002,10h59.289c5.5,0,10-4.5,10-10v-59.29c0-5.5-4.5-10-10-10h-6.432c-5.5,0-10-4.5-10-10v-6.431
			c0-5.5-4.5-10-10-10h-6.43c-5.5,0-10-4.5-10-10v-6.431c0-5.5-4.5-10-10-10H37.319c-5.5,0-10,4.5-10,10v8.208c0,5.5-4.5,10-10,10
			h-6.432c-5.5,0-10,4.5-10,10V71.79c0,5.5,4.5,10,10,10H43.753z"/>
	</g>
</g>
<g display="none">
	<g display="inline">
		<path fill="none" stroke="#FFFFFF" stroke-miterlimit="10" d="M52.632,74.235c3.12,0,5.672,2.553,5.672,5.672v7.535
			c0,3.119,2.552,5.672,5.672,5.672h7.533c3.12,0,5.672,2.553,5.673,5.672l0.002,7.535c0,3.119,2.553,5.672,5.673,5.672h45.293
			c3.119,0,5.672-2.553,5.672-5.672V61.029c0-3.12-2.553-5.672-5.672-5.672h-7.537c-3.119,0-5.672-2.552-5.672-5.672V42.15
			c0-3.12-2.553-5.672-5.672-5.672h-7.535c-3.119,0-5.672-2.552-5.672-5.672v-7.535c0-3.12-2.553-5.672-5.672-5.672H45.095
			c-3.12,0-5.672,2.552-5.672,5.672v7.535c0,3.12-2.552,5.672-5.672,5.672h-7.535c-3.12,0-5.672,2.552-5.672,5.672v26.413
			c0,3.119,2.552,5.672,5.672,5.672H52.632z"/>
	</g>
</g>
<g display="none">
	<g display="inline">
		<path fill="none" stroke="#FFFFFF" stroke-miterlimit="10" d="M52.632,66.133c3.12,0,5.672,2.553,5.672,5.672v7.536
			c0,3.119,2.552,5.672,5.672,5.672h7.533c3.12,0,5.672,2.553,5.673,5.672l0.002,7.534c0,3.119,2.553,5.672,5.673,5.672h45.293
			c3.119,0,5.672-2.553,5.672-5.672V52.928c0-3.12-2.553-5.672-5.672-5.672h-7.537c-3.119,0-5.672-2.552-5.672-5.672v-7.537
			c0-3.12-2.553-5.672-5.672-5.672h-7.535c-3.119,0-5.672-2.552-5.672-5.672v-7.534c0-3.12-2.553-5.672-5.672-5.672H45.095
			c-3.12,0-5.672,2.552-5.672,5.672v7.534c0,3.12-2.552,5.672-5.672,5.672h-7.535c-3.12,0-5.672,2.552-5.672,5.672v26.414
			c0,3.12,2.552,5.672,5.672,5.672H52.632z"/>
	</g>
</g>
<g>
	<linearGradient id="SVGID_1_" gradientUnits="userSpaceOnUse" x1="83.6123" y1="16.0361" x2="105.6709" y2="16.0361">
		<stop  offset="0" style="stop-color:#D2BAA8"/>
		<stop  offset="1" style="stop-color:#D7C0AE"/>
	</linearGradient>
	<path fill="url(#SVGID_1_)" d="M83.612,5.981v20.109h22.059C105.671,14.984,95.794,5.981,83.612,5.981z"/>
	<path fill="#1E1E1C" d="M87.468,22.576V9.871c6.896,1.37,12.434,6.418,13.938,12.705H87.468z"/>
	<linearGradient id="SVGID_2_" gradientUnits="userSpaceOnUse" x1="61.5557" y1="16.0361" x2="83.6123" y2="16.0361">
		<stop  offset="0" style="stop-color:#E6D0BD"/>
		<stop  offset="1" style="stop-color:#ECD6C2"/>
	</linearGradient>
	<path fill="url(#SVGID_2_)" d="M61.556,26.091h22.057V5.981C71.431,5.981,61.556,14.984,61.556,26.091z"/>
	<rect x="61.556" y="25.11" fill="#FFFFFF" width="44.115" height="22.325"/>
	<path fill="#1E1E1C" d="M83.612,39.623c-1.543,0-2.793,1.252-2.793,2.796v5.017h5.588v-5.017
		C86.407,40.875,85.155,39.623,83.612,39.623z"/>
	<path fill="#6E6F72" d="M93.985,20.365c-1.4,0-2.537-1.155-2.537-2.579c0-1.425,1.137-2.58,2.537-2.58l3.029-0.331v5.77
		L93.985,20.365z"/>
	<path fill="#595A5C" d="M97.548,20.695c-1.582,0-2.861-1.303-2.861-2.909c0-1.608,1.279-2.911,2.861-2.911h1.795v5.82H97.548z"/>
	<path fill="#6E6F72" d="M101.063,21.45c-1.988,0-3.602-1.641-3.602-3.664s1.613-3.665,3.602-3.665l3.432-0.507v8.343L101.063,21.45
		z"/>
	<ellipse fill="#595A5C" cx="104.495" cy="17.786" rx="4.1" ry="4.171"/>
	<ellipse fill="#1E1E1C" cx="104.496" cy="17.786" rx="2.86" ry="2.909"/>
	<rect x="64.872" y="30.233" fill="#1E1E1C" width="7.529" height="4.381"/>
	<rect x="75.024" y="30.233" fill="#1E1E1C" width="7.527" height="4.381"/>
	<rect x="85.175" y="30.233" fill="#1E1E1C" width="7.529" height="4.381"/>
	<rect x="95.327" y="30.233" fill="#1E1E1C" width="7.527" height="4.381"/>
	<rect x="87.468" y="22.236" fill="#1E1E1C" width="13.938" height="2.874"/>
	<linearGradient id="SVGID_3_" gradientUnits="userSpaceOnUse" x1="83.8818" y1="47.4355" x2="83.8818" y2="68.5923">
		<stop  offset="0" style="stop-color:#414142"/>
		<stop  offset="1" style="stop-color:#E7EAE4;stop-opacity:0"/>
	</linearGradient>
	<rect x="61.556" y="47.436" opacity="0.1" fill="url(#SVGID_3_)" width="44.652" height="21.156"/>
</g>
<g>
	<g opacity="0.1">
		<linearGradient id="SVGID_4_" gradientUnits="userSpaceOnUse" x1="50.1553" y1="35.4971" x2="50.1553" y2="46.3276">
			<stop  offset="0" style="stop-color:#414142"/>
			<stop  offset="1" style="stop-color:#E7EAE4;stop-opacity:0"/>
		</linearGradient>
		<line fill="url(#SVGID_4_)" x1="50.155" y1="35.497" x2="50.155" y2="46.328"/>
		<linearGradient id="SVGID_5_" gradientUnits="userSpaceOnUse" x1="50.1543" y1="34.9316" x2="50.1543" y2="46.894">
			<stop  offset="0" style="stop-color:#414142"/>
			<stop  offset="1" style="stop-color:#E7EAE4;stop-opacity:0"/>
		</linearGradient>
		<path fill="url(#SVGID_5_)" d="M50.155,46.894c-0.266,0-0.48-0.253-0.48-0.566V35.497c0-0.313,0.215-0.565,0.48-0.565
			c0.264,0,0.479,0.253,0.479,0.565v10.831C50.634,46.641,50.419,46.894,50.155,46.894z"/>
	</g>
	<linearGradient id="SVGID_6_" gradientUnits="userSpaceOnUse" x1="42.9053" y1="25.208" x2="57.4033" y2="25.208">
		<stop  offset="0" style="stop-color:#D2BAA8"/>
		<stop  offset="1" style="stop-color:#D7C0AE"/>
	</linearGradient>
	<circle fill="url(#SVGID_6_)" cx="50.154" cy="25.208" r="7.249"/>
	
		<line fill="none" stroke="#010202" stroke-width="0.8" stroke-linecap="round" stroke-miterlimit="10" x1="50.155" y1="36.081" x2="50.155" y2="22.965"/>
	
		<line fill="none" stroke="#010202" stroke-width="0.8" stroke-linecap="round" stroke-miterlimit="10" x1="50.155" y1="28.401" x2="47.681" y2="25.928"/>
	
		<line fill="none" stroke="#010202" stroke-width="0.8" stroke-linecap="round" stroke-miterlimit="10" x1="50.155" y1="28.401" x2="52.628" y2="25.928"/>
</g>
<g>
	<g opacity="0.1">
		<linearGradient id="SVGID_7_" gradientUnits="userSpaceOnUse" x1="116.9639" y1="91.6367" x2="116.9639" y2="102.4678">
			<stop  offset="0" style="stop-color:#414142"/>
			<stop  offset="1" style="stop-color:#E7EAE4;stop-opacity:0"/>
		</linearGradient>
		<line fill="url(#SVGID_7_)" x1="116.964" y1="91.637" x2="116.964" y2="102.468"/>
		<linearGradient id="SVGID_8_" gradientUnits="userSpaceOnUse" x1="116.9648" y1="91.0713" x2="116.9648" y2="103.0342">
			<stop  offset="0" style="stop-color:#414142"/>
			<stop  offset="1" style="stop-color:#E7EAE4;stop-opacity:0"/>
		</linearGradient>
		<path fill="url(#SVGID_8_)" d="M116.964,103.034c-0.264,0-0.479-0.253-0.479-0.566V91.637c0-0.313,0.215-0.565,0.479-0.565
			c0.266,0,0.48,0.253,0.48,0.565v10.831C117.444,102.781,117.229,103.034,116.964,103.034z"/>
	</g>
	<g>
		<circle fill="#FFFFFF" cx="116.964" cy="80.974" r="7.25"/>
		<circle fill="#FFFFFF" cx="116.964" cy="73.102" r="7.25"/>
		<linearGradient id="SVGID_9_" gradientUnits="userSpaceOnUse" x1="116.3643" y1="80.543" x2="117.5635" y2="80.543">
			<stop  offset="0" style="stop-color:#D2BAA8"/>
			<stop  offset="1" style="stop-color:#D7C0AE"/>
		</linearGradient>
		
			<line fill="none" stroke="url(#SVGID_9_)" stroke-width="1.2" stroke-linecap="round" stroke-miterlimit="10" x1="116.964" y1="91.847" x2="116.964" y2="69.238"/>
		<linearGradient id="SVGID_10_" gradientUnits="userSpaceOnUse" x1="114.0889" y1="82.9297" x2="117.3643" y2="82.9297">
			<stop  offset="0" style="stop-color:#D2BAA8"/>
			<stop  offset="1" style="stop-color:#D7C0AE"/>
		</linearGradient>
		
			<line fill="none" stroke="url(#SVGID_10_)" stroke-width="0.8" stroke-linecap="round" stroke-miterlimit="10" x1="116.964" y1="84.166" x2="114.489" y2="81.692"/>
		<linearGradient id="SVGID_11_" gradientUnits="userSpaceOnUse" x1="116.5635" y1="82.9297" x2="119.8369" y2="82.9297">
			<stop  offset="0" style="stop-color:#D2BAA8"/>
			<stop  offset="1" style="stop-color:#D7C0AE"/>
		</linearGradient>
		
			<line fill="none" stroke="url(#SVGID_11_)" stroke-width="0.8" stroke-linecap="round" stroke-miterlimit="10" x1="116.964" y1="84.166" x2="119.437" y2="81.692"/>
		<linearGradient id="SVGID_12_" gradientUnits="userSpaceOnUse" x1="114.0889" y1="74.3379" x2="117.3643" y2="74.3379">
			<stop  offset="0" style="stop-color:#D2BAA8"/>
			<stop  offset="1" style="stop-color:#D7C0AE"/>
		</linearGradient>
		
			<line fill="none" stroke="url(#SVGID_12_)" stroke-width="0.8" stroke-linecap="round" stroke-miterlimit="10" x1="116.964" y1="75.574" x2="114.489" y2="73.102"/>
		<linearGradient id="SVGID_13_" gradientUnits="userSpaceOnUse" x1="116.5635" y1="74.3379" x2="119.8369" y2="74.3379">
			<stop  offset="0" style="stop-color:#D2BAA8"/>
			<stop  offset="1" style="stop-color:#D7C0AE"/>
		</linearGradient>
		
			<line fill="none" stroke="url(#SVGID_13_)" stroke-width="0.8" stroke-linecap="round" stroke-miterlimit="10" x1="116.964" y1="75.574" x2="119.437" y2="73.102"/>
	</g>
</g>
<g>
	<g opacity="0.15">
		<linearGradient id="SVGID_14_" gradientUnits="userSpaceOnUse" x1="124.5928" y1="52.5537" x2="124.5928" y2="61.1445">
			<stop  offset="0" style="stop-color:#414142"/>
			<stop  offset="1" style="stop-color:#E7EAE4;stop-opacity:0"/>
		</linearGradient>
		<line fill="url(#SVGID_14_)" x1="124.593" y1="52.554" x2="124.593" y2="61.145"/>
		<linearGradient id="SVGID_15_" gradientUnits="userSpaceOnUse" x1="124.5947" y1="52.1045" x2="124.5947" y2="61.5947">
			<stop  offset="0" style="stop-color:#414142"/>
			<stop  offset="1" style="stop-color:#E7EAE4;stop-opacity:0"/>
		</linearGradient>
		<path fill="url(#SVGID_15_)" d="M124.593,61.595c-0.209,0-0.379-0.202-0.379-0.45v-8.591c0-0.247,0.17-0.449,0.379-0.449
			c0.213,0,0.383,0.202,0.383,0.449v8.591C124.976,61.393,124.806,61.595,124.593,61.595z"/>
	</g>
	<path fill="#E84C3D" d="M127.618,35.03c1.219,0,2.338,0.41,3.242,1.094c0.18,0.182,0.375,0.346,0.58,0.5
		c0.902,0.685,2.021,1.095,3.24,1.095h3.023v7.975h-3.023c-1.219,0-2.338-0.409-3.24-1.093c-0.182-0.183-0.377-0.347-0.58-0.502
		c-0.904-0.683-2.023-1.094-3.242-1.094h-3.025V35.03H127.618z"/>
	
		<line fill="#B6B6B2" stroke="#231F20" stroke-width="0.7615" stroke-linecap="round" stroke-miterlimit="10" x1="124.593" y1="35.03" x2="124.593" y2="52.627"/>
</g>
<g>
	<path fill="none" stroke="#CDCCCB" stroke-width="6" stroke-miterlimit="10" d="M83.612,47.436c0,0,0,2.371,0,5.27
		s-2.7,5.27-6,5.27H44.526c-3.3,0-6-2.7-6-6V44.48c0-3.3-2.7-6-6-6H20.544"/>
</g>
<g>
	<g>
		<path fill="none" stroke="#FFFFFF" stroke-miterlimit="10" d="M83.612,47.436c0,0,0,0.571,0,1.495"/>
		<path fill="none" stroke="#FFFFFF" stroke-miterlimit="10" stroke-dasharray="3.0549,3.0549" d="M83.612,51.983
			c0,0.236,0,0.477,0,0.722c0,2.898-2.7,5.27-6,5.27H44.526c-3.3,0-6-2.7-6-6V44.48c0-3.3-2.7-6-6-6h-8.948"/>
		<line fill="none" stroke="#FFFFFF" stroke-miterlimit="10" x1="22.044" y1="38.48" x2="20.544" y2="38.48"/>
	</g>
</g>
<g>
	<g opacity="0.1">
		<linearGradient id="SVGID_16_" gradientUnits="userSpaceOnUse" x1="104.4951" y1="91.293" x2="104.4951" y2="102.123">
			<stop  offset="0" style="stop-color:#414142"/>
			<stop  offset="1" style="stop-color:#E7EAE4;stop-opacity:0"/>
		</linearGradient>
		<line fill="url(#SVGID_16_)" x1="104.495" y1="91.293" x2="104.495" y2="102.123"/>
		<linearGradient id="SVGID_17_" gradientUnits="userSpaceOnUse" x1="104.4941" y1="90.7266" x2="104.4941" y2="102.6895">
			<stop  offset="0" style="stop-color:#414142"/>
			<stop  offset="1" style="stop-color:#E7EAE4;stop-opacity:0"/>
		</linearGradient>
		<path fill="url(#SVGID_17_)" d="M104.495,102.689c-0.266,0-0.48-0.254-0.48-0.566v-10.83c0-0.313,0.215-0.566,0.48-0.566
			c0.264,0,0.479,0.254,0.479,0.566v10.83C104.974,102.436,104.759,102.689,104.495,102.689z"/>
	</g>
	<linearGradient id="SVGID_18_" gradientUnits="userSpaceOnUse" x1="97.2471" y1="81.0039" x2="111.7432" y2="81.0039">
		<stop  offset="0" style="stop-color:#D2BAA8"/>
		<stop  offset="1" style="stop-color:#D7C0AE"/>
	</linearGradient>
	<circle fill="url(#SVGID_18_)" cx="104.495" cy="81.004" r="7.248"/>
	
		<line fill="none" stroke="#010202" stroke-width="0.8" stroke-linecap="round" stroke-miterlimit="10" x1="104.495" y1="91.876" x2="104.495" y2="78.76"/>
	
		<line fill="none" stroke="#010202" stroke-width="0.8" stroke-linecap="round" stroke-miterlimit="10" x1="104.495" y1="84.196" x2="102.021" y2="81.723"/>
	
		<line fill="none" stroke="#010202" stroke-width="0.8" stroke-linecap="round" stroke-miterlimit="10" x1="104.495" y1="84.196" x2="106.968" y2="81.723"/>
</g>
<g>
	<g opacity="0.1">
		<linearGradient id="SVGID_19_" gradientUnits="userSpaceOnUse" x1="75.6025" y1="76.3086" x2="75.6025" y2="87.1387">
			<stop  offset="0" style="stop-color:#414142"/>
			<stop  offset="1" style="stop-color:#E7EAE4;stop-opacity:0"/>
		</linearGradient>
		<line fill="url(#SVGID_19_)" x1="75.603" y1="76.309" x2="75.603" y2="87.139"/>
		<linearGradient id="SVGID_20_" gradientUnits="userSpaceOnUse" x1="75.6025" y1="75.7422" x2="75.6025" y2="87.7051">
			<stop  offset="0" style="stop-color:#414142"/>
			<stop  offset="1" style="stop-color:#E7EAE4;stop-opacity:0"/>
		</linearGradient>
		<path fill="url(#SVGID_20_)" d="M75.603,87.705c-0.264,0-0.479-0.254-0.479-0.566v-10.83c0-0.313,0.215-0.566,0.479-0.566
			c0.266,0,0.479,0.254,0.479,0.566v10.83C76.081,87.451,75.868,87.705,75.603,87.705z"/>
	</g>
	<g>
		<circle fill="#FFFFFF" cx="75.603" cy="66.019" r="7.248"/>
		<linearGradient id="SVGID_21_" gradientUnits="userSpaceOnUse" x1="75.0024" y1="70.334" x2="76.2026" y2="70.334">
			<stop  offset="0" style="stop-color:#D2BAA8"/>
			<stop  offset="1" style="stop-color:#D7C0AE"/>
		</linearGradient>
		
			<line fill="none" stroke="url(#SVGID_21_)" stroke-width="1.2" stroke-linecap="round" stroke-miterlimit="10" x1="75.603" y1="76.892" x2="75.603" y2="63.776"/>
		<linearGradient id="SVGID_22_" gradientUnits="userSpaceOnUse" x1="72.73" y1="67.9756" x2="76.0024" y2="67.9756">
			<stop  offset="0" style="stop-color:#D2BAA8"/>
			<stop  offset="1" style="stop-color:#D7C0AE"/>
		</linearGradient>
		
			<line fill="none" stroke="url(#SVGID_22_)" stroke-width="0.8" stroke-linecap="round" stroke-miterlimit="10" x1="75.603" y1="69.212" x2="73.13" y2="66.739"/>
		<linearGradient id="SVGID_23_" gradientUnits="userSpaceOnUse" x1="75.2026" y1="67.9756" x2="78.4771" y2="67.9756">
			<stop  offset="0" style="stop-color:#D2BAA8"/>
			<stop  offset="1" style="stop-color:#D7C0AE"/>
		</linearGradient>
		
			<line fill="none" stroke="url(#SVGID_23_)" stroke-width="0.8" stroke-linecap="round" stroke-miterlimit="10" x1="75.603" y1="69.212" x2="78.077" y2="66.739"/>
	</g>
</g>
</svg>
