<?xml version="1.0" encoding="utf-8"?>
<!-- Generator: Adobe Illustrator 16.0.0, SVG Export Plug-In . SVG Version: 6.00 Build 0)  -->
<!DOCTYPE svg PUBLIC "-//W3C//DTD SVG 1.1//EN" "http://www.w3.org/Graphics/SVG/1.1/DTD/svg11.dtd">
<svg version="1.1" id="Livello_1" xmlns="http://www.w3.org/2000/svg" xmlns:xlink="http://www.w3.org/1999/xlink" x="0px" y="0px"
	 width="110px" height="138px" viewBox="0 0 110 138" enable-background="new 0 0 110 138" xml:space="preserve">
<g>
	<g>
		<g>
			<line fill="#98D0D9" x1="57.259" y1="113.508" x2="57.261" y2="113.508"/>
		</g>
		<g>
			<path fill="#98D0D9" d="M100.12,137.938c5.5-0.001,10-4.501,10-10.001l0.002-117.703c0-5.5-4.5-10-10-10H64.295
				c-5.5,0-10,4.5-10,10v8.982c0,5.5-4.5,10-10,10h-3.464c-5.5,0-10,4.5-10,10v11.432c0,5.5-4.5,10-10,10H10.399
				c-5.5,0-10,4.5-10,10v32.861c0,5.5,4.5,9.999,10,9.998h4.711c5.5,0,10,4.5,10,10v4.436c0,5.5,4.5,10,10,9.999L100.12,137.938z"/>
		</g>
	</g>
</g>
<g display="none">
	<g display="inline">
		<g>
			<linearGradient id="SVGID_1_" gradientUnits="userSpaceOnUse" x1="57.2588" y1="102.1816" x2="57.2607" y2="102.1816">
				<stop  offset="0" style="stop-color:#939599"/>
				<stop  offset="1" style="stop-color:#A0A2A5"/>
			</linearGradient>
			<line fill="url(#SVGID_1_)" x1="57.259" y1="102.182" x2="57.261" y2="102.182"/>
		</g>
		<g>
			<linearGradient id="SVGID_2_" gradientUnits="userSpaceOnUse" x1="19.5029" y1="73.8633" x2="95.0186" y2="73.8633">
				<stop  offset="0" style="stop-color:#939599"/>
				<stop  offset="1" style="stop-color:#A0A2A5"/>
			</linearGradient>
			<path fill="url(#SVGID_2_)" d="M89.345,121.059c3.119,0,5.672-2.553,5.672-5.672l0.002-83.05c0-3.12-2.553-5.672-5.672-5.672
				H62.931c-3.119,0-5.672,2.552-5.672,5.672v7.535c0,3.12-2.552,5.672-5.672,5.672h-7.533c-3.12,0-5.672,2.552-5.672,5.672v7.536
				c0,3.12,0,5.672-0.001,5.672s-2.553,0-5.673,0h-7.533c-3.12,0-5.672,2.552-5.672,5.672v26.416c0,3.119,2.552,5.672,5.672,5.671
				h7.734c3.12-0.001,5.672,2.552,5.672,5.671v7.537c0,3.119,2.552,5.672,5.672,5.672L89.345,121.059z"/>
		</g>
	</g>
</g>
<g display="none">
	<g display="inline">
		<g>
			<linearGradient id="SVGID_3_" gradientUnits="userSpaceOnUse" x1="57.2588" y1="94.0781" x2="57.2607" y2="94.0781">
				<stop  offset="0" style="stop-color:#F0F0F0"/>
				<stop  offset="1" style="stop-color:#E8E8E8"/>
			</linearGradient>
			<line fill="url(#SVGID_3_)" x1="57.259" y1="94.078" x2="57.261" y2="94.078"/>
		</g>
		<g>
			<linearGradient id="SVGID_4_" gradientUnits="userSpaceOnUse" x1="19.5029" y1="65.7607" x2="95.0186" y2="65.7607">
				<stop  offset="0" style="stop-color:#F0F0F0"/>
				<stop  offset="1" style="stop-color:#E8E8E8"/>
			</linearGradient>
			<path fill="url(#SVGID_4_)" d="M89.345,112.957c3.12,0,5.672-2.553,5.672-5.672l0.002-83.051c0-3.12-2.552-5.672-5.672-5.672
				H62.931c-3.12,0-5.672,2.552-5.672,5.672v7.535c0,3.12-2.552,5.672-5.672,5.672h-7.533c-3.12,0-5.672,2.552-5.672,5.672v7.536
				c0,3.12,0,5.672,0,5.672c-0.001,0-2.554,0-5.673,0h-7.533c-3.12,0-5.672,2.552-5.672,5.672v26.415
				c0,3.119,2.552,5.672,5.672,5.67h7.734c3.12,0,5.672,2.553,5.672,5.672v7.539c0,3.119,2.552,5.672,5.672,5.67L89.345,112.957z"/>
		</g>
	</g>
</g>
<g display="none">
	<path display="inline" fill="none" stroke="#CDCCCB" stroke-width="6" stroke-miterlimit="10" d="M19.503,69.395h52.242
		c3.3,0,6-2.7,6-6V42.873c0-3.3,2.7-6,6-6h11.273"/>
</g>
<g display="none">
	<path display="inline" fill="none" stroke="#FFFFFF" stroke-miterlimit="10" stroke-dasharray="3" d="M19.503,69.395h52.242
		c3.3,0,6-2.7,6-6V42.873c0-3.3,2.7-6,6-6h11.273"/>
</g>
<g display="none">
	<path display="inline" fill="none" stroke="#CDCCCB" stroke-width="6" stroke-miterlimit="10" d="M95.019,101.01H84.651
		c-3.3,0-6-2.699-6-6v-6.082c0-3.299-2.7-6-6-6H62.452c-3.3,0-6,2.701-6,6v24.031"/>
</g>
<g display="none">
	<g display="inline">
		<line fill="none" stroke="#FFFFFF" stroke-miterlimit="10" x1="95.019" y1="101.01" x2="93.519" y2="101.01"/>
		<path fill="none" stroke="#FFFFFF" stroke-miterlimit="10" stroke-dasharray="3.0358,3.0358" d="M90.482,101.01h-5.831
			c-3.3,0-6-2.699-6-6v-6.082c0-3.299-2.7-6-6-6H62.452c-3.3,0-6,2.701-6,6v21.014"/>
		<line fill="none" stroke="#FFFFFF" stroke-miterlimit="10" x1="56.452" y1="111.459" x2="56.452" y2="112.959"/>
	</g>
</g>
<g display="none">
	<g display="inline" opacity="0.1">
		<linearGradient id="SVGID_5_" gradientUnits="userSpaceOnUse" x1="70.7236" y1="37.1533" x2="70.7236" y2="47.9844">
			<stop  offset="0" style="stop-color:#414142"/>
			<stop  offset="1" style="stop-color:#E7EAE4;stop-opacity:0"/>
		</linearGradient>
		<line fill="url(#SVGID_5_)" x1="70.724" y1="37.153" x2="70.724" y2="47.984"/>
		<linearGradient id="SVGID_6_" gradientUnits="userSpaceOnUse" x1="70.7227" y1="36.5879" x2="70.7227" y2="48.5508">
			<stop  offset="0" style="stop-color:#414142"/>
			<stop  offset="1" style="stop-color:#E7EAE4;stop-opacity:0"/>
		</linearGradient>
		<path fill="url(#SVGID_6_)" d="M70.724,48.551c-0.266,0-0.48-0.254-0.48-0.566V37.153c0-0.313,0.215-0.565,0.48-0.565
			c0.264,0,0.479,0.253,0.479,0.565v10.831C71.202,48.297,70.987,48.551,70.724,48.551z"/>
	</g>
	<linearGradient id="SVGID_7_" gradientUnits="userSpaceOnUse" x1="63.4736" y1="26.4902" x2="77.9717" y2="26.4902">
		<stop  offset="0" style="stop-color:#D2BAA8"/>
		<stop  offset="1" style="stop-color:#D7C0AE"/>
	</linearGradient>
	<circle display="inline" fill="url(#SVGID_7_)" cx="70.723" cy="26.49" r="7.249"/>
	<linearGradient id="SVGID_8_" gradientUnits="userSpaceOnUse" x1="63.4736" y1="18.6172" x2="77.9717" y2="18.6172">
		<stop  offset="0" style="stop-color:#D2BAA8"/>
		<stop  offset="1" style="stop-color:#D7C0AE"/>
	</linearGradient>
	<circle display="inline" fill="url(#SVGID_8_)" cx="70.723" cy="18.617" r="7.249"/>
	
		<line display="inline" fill="none" stroke="#010202" stroke-width="0.8" stroke-linecap="round" stroke-miterlimit="10" x1="70.722" y1="37.363" x2="70.722" y2="14.754"/>
	
		<line display="inline" fill="none" stroke="#010202" stroke-width="0.8" stroke-linecap="round" stroke-miterlimit="10" x1="70.722" y1="29.682" x2="68.249" y2="27.209"/>
	
		<line display="inline" fill="none" stroke="#010202" stroke-width="0.8" stroke-linecap="round" stroke-miterlimit="10" x1="70.722" y1="29.682" x2="73.196" y2="27.209"/>
	
		<line display="inline" fill="none" stroke="#010202" stroke-width="0.8" stroke-linecap="round" stroke-miterlimit="10" x1="70.722" y1="21.091" x2="68.249" y2="18.617"/>
	
		<line display="inline" fill="none" stroke="#010202" stroke-width="0.8" stroke-linecap="round" stroke-miterlimit="10" x1="70.722" y1="21.091" x2="73.196" y2="18.617"/>
</g>
<g display="none">
	<g display="inline" opacity="0.1">
		<linearGradient id="SVGID_9_" gradientUnits="userSpaceOnUse" x1="68.249" y1="97.3984" x2="68.249" y2="108.2285">
			<stop  offset="0" style="stop-color:#414142"/>
			<stop  offset="1" style="stop-color:#E7EAE4;stop-opacity:0"/>
		</linearGradient>
		<line fill="url(#SVGID_9_)" x1="68.249" y1="97.398" x2="68.249" y2="108.229"/>
		<linearGradient id="SVGID_10_" gradientUnits="userSpaceOnUse" x1="68.248" y1="96.832" x2="68.248" y2="108.7949">
			<stop  offset="0" style="stop-color:#414142"/>
			<stop  offset="1" style="stop-color:#E7EAE4;stop-opacity:0"/>
		</linearGradient>
		<path fill="url(#SVGID_10_)" d="M68.249,108.795c-0.266,0-0.48-0.254-0.48-0.566v-10.83c0-0.313,0.215-0.566,0.48-0.566
			c0.264,0,0.479,0.254,0.479,0.566v10.83C68.728,108.541,68.513,108.795,68.249,108.795z"/>
	</g>
	<g display="inline">
		<circle fill="#FFFFFF" cx="68.248" cy="86.734" r="7.249"/>
		<circle fill="#FFFFFF" cx="68.248" cy="78.861" r="7.249"/>
		<linearGradient id="SVGID_11_" gradientUnits="userSpaceOnUse" x1="67.6475" y1="86.3027" x2="68.8467" y2="86.3027">
			<stop  offset="0" style="stop-color:#D2BAA8"/>
			<stop  offset="1" style="stop-color:#D7C0AE"/>
		</linearGradient>
		
			<line fill="none" stroke="url(#SVGID_11_)" stroke-width="1.2" stroke-linecap="round" stroke-miterlimit="10" x1="68.247" y1="97.607" x2="68.247" y2="74.998"/>
		<linearGradient id="SVGID_12_" gradientUnits="userSpaceOnUse" x1="65.374" y1="88.6904" x2="68.6475" y2="88.6904">
			<stop  offset="0" style="stop-color:#D2BAA8"/>
			<stop  offset="1" style="stop-color:#D7C0AE"/>
		</linearGradient>
		
			<line fill="none" stroke="url(#SVGID_12_)" stroke-width="0.8" stroke-linecap="round" stroke-miterlimit="10" x1="68.247" y1="89.928" x2="65.774" y2="87.453"/>
		<linearGradient id="SVGID_13_" gradientUnits="userSpaceOnUse" x1="67.8467" y1="88.6904" x2="71.1221" y2="88.6904">
			<stop  offset="0" style="stop-color:#D2BAA8"/>
			<stop  offset="1" style="stop-color:#D7C0AE"/>
		</linearGradient>
		
			<line fill="none" stroke="url(#SVGID_13_)" stroke-width="0.8" stroke-linecap="round" stroke-miterlimit="10" x1="68.247" y1="89.928" x2="70.722" y2="87.453"/>
		<linearGradient id="SVGID_14_" gradientUnits="userSpaceOnUse" x1="65.374" y1="80.0986" x2="68.6475" y2="80.0986">
			<stop  offset="0" style="stop-color:#D2BAA8"/>
			<stop  offset="1" style="stop-color:#D7C0AE"/>
		</linearGradient>
		
			<line fill="none" stroke="url(#SVGID_14_)" stroke-width="0.8" stroke-linecap="round" stroke-miterlimit="10" x1="68.247" y1="81.336" x2="65.774" y2="78.861"/>
		<linearGradient id="SVGID_15_" gradientUnits="userSpaceOnUse" x1="67.8467" y1="80.0986" x2="71.1221" y2="80.0986">
			<stop  offset="0" style="stop-color:#D2BAA8"/>
			<stop  offset="1" style="stop-color:#D7C0AE"/>
		</linearGradient>
		
			<line fill="none" stroke="url(#SVGID_15_)" stroke-width="0.8" stroke-linecap="round" stroke-miterlimit="10" x1="68.247" y1="81.336" x2="70.722" y2="78.861"/>
	</g>
</g>
<g display="none">
	<linearGradient id="SVGID_16_" gradientUnits="userSpaceOnUse" x1="58.2559" y1="61.0029" x2="58.2559" y2="70.3354">
		<stop  offset="0" style="stop-color:#414142"/>
		<stop  offset="1" style="stop-color:#E7EAE4;stop-opacity:0"/>
	</linearGradient>
	<rect x="51.193" y="61.003" display="inline" opacity="0.1" fill="url(#SVGID_16_)" width="14.125" height="9.332"/>
	<g display="inline">
		<linearGradient id="SVGID_17_" gradientUnits="userSpaceOnUse" x1="51.1929" y1="56.0732" x2="65.3184" y2="56.0732">
			<stop  offset="0" style="stop-color:#929497"/>
			<stop  offset="1" style="stop-color:#A0A1A5"/>
		</linearGradient>
		<path fill="url(#SVGID_17_)" d="M60.246,51.146h-2.98v5.071h-6.073V61h14.125v-4.782C65.318,53.418,63.047,51.146,60.246,51.146z"
			/>
		<circle fill="#1A1A1A" cx="52.942" cy="61" r="1.749"/>
		<circle fill="#1A1A1A" cx="63.569" cy="61" r="1.749"/>
		<path fill="#1A1A1A" d="M63.334,56.218c0-1.702-1.387-3.087-3.088-3.087H59.25v3.087H63.334z"/>
		<linearGradient id="SVGID_18_" gradientUnits="userSpaceOnUse" x1="65.666" y1="57.313" x2="70.0352" y2="57.313">
			<stop  offset="0" style="stop-color:#CFB9A7"/>
			<stop  offset="1" style="stop-color:#D6C0AE"/>
		</linearGradient>
		<rect x="65.666" y="55.374" fill="url(#SVGID_18_)" width="4.369" height="3.878"/>
		<linearGradient id="SVGID_19_" gradientUnits="userSpaceOnUse" x1="51.1929" y1="55.9419" x2="57.2656" y2="55.9419">
			<stop  offset="0" style="stop-color:#CFB9A7"/>
			<stop  offset="1" style="stop-color:#D6C0AE"/>
		</linearGradient>
		<rect x="51.193" y="54.674" fill="url(#SVGID_19_)" width="6.073" height="2.536"/>
		<polyline fill="none" stroke="#1A1A1A" stroke-width="0.6797" stroke-linecap="round" stroke-miterlimit="10" points="
			65.666,51.146 65.666,59.252 70.805,59.252 		"/>
	</g>
</g>
<g display="none">
	
		<linearGradient id="SVGID_20_" gradientUnits="userSpaceOnUse" x1="-3758.9185" y1="49.4287" x2="-3758.9185" y2="59.5059" gradientTransform="matrix(-1 0 0 1 -3710.0273 0)">
		<stop  offset="0" style="stop-color:#414142"/>
		<stop  offset="1" style="stop-color:#E7EAE4;stop-opacity:0"/>
	</linearGradient>
	<rect x="44.267" y="49.429" display="inline" opacity="0.1" fill="url(#SVGID_20_)" width="9.249" height="10.077"/>
	<g display="inline">
		
			<linearGradient id="SVGID_21_" gradientUnits="userSpaceOnUse" x1="-3764.3223" y1="47.9282" x2="-3753.521" y2="47.9282" gradientTransform="matrix(-1 0 0 1 -3710.0273 0)">
			<stop  offset="0" style="stop-color:#929497"/>
			<stop  offset="1" style="stop-color:#A0A1A5"/>
		</linearGradient>
		<polygon fill="url(#SVGID_21_)" points="44.472,50.342 53.317,50.342 54.295,45.515 43.494,45.515 		"/>
		<circle fill="#1A1A1A" cx="52.112" cy="50.831" r="1.404"/>
		<circle fill="#1A1A1A" cx="45.676" cy="50.831" r="1.409"/>
		<path fill="#1A1A1A" d="M44.267,45.515c0.317-2.288,2.263-4.058,4.639-4.058c2.377,0,4.321,1.77,4.639,4.058H44.267z"/>
		
			<line fill="#B6B5B2" stroke="#231F20" stroke-width="0.6354" stroke-linecap="round" stroke-miterlimit="10" x1="55.512" y1="46.951" x2="53.001" y2="46.951"/>
	</g>
</g>
<g display="none">
	<g display="inline" opacity="0.15">
		<linearGradient id="SVGID_22_" gradientUnits="userSpaceOnUse" x1="87.1914" y1="27.5469" x2="87.1914" y2="36.1377">
			<stop  offset="0" style="stop-color:#414142"/>
			<stop  offset="1" style="stop-color:#E7EAE4;stop-opacity:0"/>
		</linearGradient>
		<line fill="url(#SVGID_22_)" x1="87.191" y1="27.547" x2="87.191" y2="36.138"/>
		<linearGradient id="SVGID_23_" gradientUnits="userSpaceOnUse" x1="87.1914" y1="27.0977" x2="87.1914" y2="36.5879">
			<stop  offset="0" style="stop-color:#414142"/>
			<stop  offset="1" style="stop-color:#E7EAE4;stop-opacity:0"/>
		</linearGradient>
		<path fill="url(#SVGID_23_)" d="M87.191,36.588c-0.209,0-0.381-0.202-0.381-0.45v-8.591c0-0.247,0.172-0.449,0.381-0.449
			c0.211,0,0.381,0.202,0.381,0.449v8.591C87.572,36.386,87.402,36.588,87.191,36.588z"/>
	</g>
	<path display="inline" fill="#3399CC" d="M90.217,10.023c1.219,0,2.338,0.41,3.24,1.094c0.182,0.182,0.377,0.346,0.58,0.5
		c0.902,0.685,2.023,1.095,3.24,1.095h3.025v7.975h-3.025c-1.217,0-2.338-0.409-3.24-1.093c-0.18-0.183-0.375-0.347-0.58-0.502
		c-0.902-0.683-2.021-1.094-3.24-1.094h-3.025v-7.975H90.217z"/>
	
		<line display="inline" fill="#B6B6B2" stroke="#231F20" stroke-width="0.7615" stroke-linecap="round" stroke-miterlimit="10" x1="87.191" y1="10.023" x2="87.191" y2="27.62"/>
</g>
</svg>
