<?xml version="1.0" encoding="utf-8"?>
<!-- Generator: Adobe Illustrator 16.0.0, SVG Export Plug-In . SVG Version: 6.00 Build 0)  -->
<!DOCTYPE svg PUBLIC "-//W3C//DTD SVG 1.1//EN" "http://www.w3.org/Graphics/SVG/1.1/DTD/svg11.dtd">
<svg version="1.1" id="Livello_1" xmlns="http://www.w3.org/2000/svg" xmlns:xlink="http://www.w3.org/1999/xlink" x="0px" y="0px"
	 width="366px" height="307px" viewBox="0 0 366 307" enable-background="new 0 0 366 307" xml:space="preserve">
<g>
	<g display="none">
		<path display="inline" fill="#98D0D9" d="M331.853,181.175c4.243-0.001,7.714-3.472,7.714-7.715v-35.922
			c0-4.243,3.471-7.714,7.714-7.714h10.248c4.243,0,7.714-3.471,7.714-7.714V86.19c0-4.243-3.471-7.714-7.714-7.714H347.28
			c-4.243,0-7.714-3.471-7.714-7.714v-10.25c0-4.243-3.471-7.714-7.714-7.714l-74.938-0.002c-4.243,0-7.714-3.471-7.714-7.714
			V34.837c0-4.243-3.471-7.714-7.714-7.714h-16.246c-4.243,0-7.714-3.471-7.714-7.714V9.161c0-4.243-3.471-7.714-7.714-7.714
			h-93.602c-4.243,0-7.714,3.471-7.714,7.714v10.248c0,4.243-3.471,7.714-7.714,7.714H90.536c-4.243,0-7.714,3.471-7.714,7.714
			v10.246c0,4.243-3.471,7.714-7.714,7.714H39.19c-4.243,0-7.714,3.471-7.714,7.714v12.826c0,4.243-3.471,7.714-7.714,7.714H8.472
			c-4.243,0-7.714,3.471-7.714,7.714v43.697c0,4.243,3.471,7.714,7.714,7.714h15.291c4.243,0,7.714,3.471,7.714,7.714v51.246
			c0,4.243,3.471,7.714,7.714,7.714h21.248c4.243,0,7.714,3.471,7.714,7.714v10.248c0,4.243,3.471,7.714,7.714,7.714h9.896
			c4.243,0,7.714,3.471,7.714,7.714v10.246c0,4.243,3.471,7.714,7.714,7.715l25.252,0.002c4.243,0.001,7.714,3.472,7.714,7.715
			v10.25c0,4.243,3.471,7.714,7.714,7.714h10.246c4.243,0,7.714,3.471,7.714,7.714v7.244c0,4.243,3.471,7.714,7.714,7.714h45.924
			c4.243,0,7.714-3.471,7.714-7.714v-8.645c0-4.243,3.471-7.714,7.714-7.714h45.996c4.243,0,7.714-3.471,7.714-7.714v-9.783
			c0-4.243,3.471-7.714,7.714-7.714l42.994-0.002c4.243,0,7.714-3.471,7.714-7.714v-27.779c0-4.243-3.471-7.714-7.714-7.714h-14.785
			c-4.243,0-7.714-3.471-7.714-7.714v-17.455c0-4.243,3.471-7.714,7.714-7.715L331.853,181.175z"/>
	</g>
	<g>
		<g>
			<linearGradient id="SVGID_1_" gradientUnits="userSpaceOnUse" x1="67.6523" y1="158.501" x2="313.0684" y2="158.501">
				<stop  offset="0" style="stop-color:#939599"/>
				<stop  offset="1" style="stop-color:#A0A2A5"/>
			</linearGradient>
			<path fill="url(#SVGID_1_)" d="M199.787,239.004c0-3.119,2.553-5.672,5.672-5.672h7.193c3.119,0,5.672,2.553,5.672,5.672v7.193
				c0,3.119,2.553,5.672,5.672,5.672h7.195c3.119,0,5.672-2.553,5.672-5.672v-7.193c0-3.119,2.553-5.672,5.672-5.672l25.732-0.002
				c3.119,0,5.672-2.553,5.672-5.672v-7.191c0-3.119-2.553-5.672-5.672-5.672h-7.195c-3.119,0-5.672,0-5.672-0.001s0-2.554,0-5.673
				v-7.191c0-3.119,0-5.673,0-5.674s0-2.555,0-5.674v-7.529c0-3.119,2.553-5.672,5.672-5.672l27.443-0.002
				c3.119,0,5.672-2.553,5.672-5.672v-26.414c0-3.12,2.553-5.672,5.672-5.672h7.537c3.119,0,5.672-2.552,5.672-5.672v-26.412
				c0-3.12-2.553-5.672-5.672-5.672h-7.537c-3.119,0-5.672-2.552-5.672-5.672v-7.537c0-3.12-2.553-5.672-5.672-5.672h-83.041
				c-3.119,0-5.672-2.552-5.672-5.672v-7.535c0-3.12-2.553-5.672-5.672-5.672h-7.535c-3.12,0-5.672-2.552-5.672-5.672v-7.535
				c0-3.12-2.552-5.672-5.672-5.672h-45.295c-3.12,0-5.672,2.552-5.672,5.672v7.535c0,3.12-2.552,5.672-5.672,5.672h-7.535
				c-3.12,0-5.672,2.552-5.672,5.672v7.535c0,3.12-2.552,5.672-5.672,5.672h-26.41c-3.12,0-5.672,2.552-5.672,5.672v101.93
				c0,3.119,2.552,5.672,5.672,5.672h7.533c3.12,0,5.672,0,5.673,0s0.001,2.553,0.001,5.672v7.535c0,3.119,2.552,5.672,5.672,5.672
				h26.395c3.12,0,5.672,2.553,5.672,5.672v7.535c0,3.119,2.552,5.672,5.672,5.673h7.537c3.12,0.001,5.672,2.554,5.672,5.673v7.537
				c0,3.119,2.552,5.672,5.672,5.672h7.535c3.12,0,5.672,2.553,5.672,5.672v7.533c0,3.119,2.552,5.672,5.672,5.672h26.414
				c3.119,0,5.672-2.553,5.672-5.672V239.004z M199.787,196.26H186.58c-3.12,0-5.672-2.553-5.672-5.672v-7.537
				c0-3.119-2.552-5.672-5.672-5.672h-7.52c-3.12,0-5.672-2.553-5.672-5.672v-7.535c0-3.119,2.552-5.672,5.672-5.672h26.408
				c3.119,0,5.672,2.553,5.672,5.672v26.41c0,3.119-0.002,5.672-0.005,5.672s-0.005,0-0.005,0"/>
		</g>
	</g>
	<g>
		<g>
			<linearGradient id="SVGID_2_" gradientUnits="userSpaceOnUse" x1="67.6523" y1="148.501" x2="313.0684" y2="148.501">
				<stop  offset="0" style="stop-color:#F0F0F0"/>
				<stop  offset="1" style="stop-color:#E8E8E8"/>
			</linearGradient>
			<path fill="url(#SVGID_2_)" d="M199.787,229.004c0-3.119,2.553-5.672,5.672-5.672h7.193c3.119,0,5.672,2.553,5.672,5.672v7.193
				c0,3.119,2.553,5.672,5.672,5.672h7.195c3.119,0,5.672-2.553,5.672-5.672v-7.193c0-3.119,2.553-5.672,5.672-5.672l25.732-0.002
				c3.119,0,5.672-2.553,5.672-5.672v-7.191c0-3.119-2.553-5.672-5.672-5.673h-7.195c-3.119-0.001-5.672-2.554-5.672-5.673v-26.068
				c0-3.119,2.553-5.672,5.672-5.672l27.443-0.002c3.119,0,5.672-2.553,5.672-5.672v-26.414c0-3.12,2.553-5.672,5.672-5.672h7.537
				c3.119,0,5.672-2.552,5.672-5.672V97.537c0-3.12-2.553-5.672-5.672-5.672h-7.537c-3.119,0-5.672-2.552-5.672-5.672v-7.537
				c0-3.12-2.553-5.672-5.672-5.672h-83.041c-3.119,0-5.672-2.552-5.672-5.672v-7.535c0-3.12-2.553-5.672-5.672-5.672h-7.535
				c-3.12,0-5.672-2.552-5.672-5.672v-7.535c0-3.12-2.552-5.672-5.672-5.672h-45.295c-3.12,0-5.672,2.552-5.672,5.672v7.535
				c0,3.12-2.552,5.672-5.672,5.672h-7.535c-3.12,0-5.672,2.552-5.672,5.672v7.535c0,3.12-2.552,5.672-5.672,5.672h-26.41
				c-3.12,0-5.672,2.552-5.672,5.672v101.93c0,3.119,2.552,5.672,5.672,5.672h7.533c3.12,0,5.672,2.553,5.672,5.672l0.001,7.535
				c0,3.119,2.553,5.672,5.672,5.672h26.395c3.12,0,5.672,2.553,5.672,5.672v7.535c0,3.119,2.552,5.672,5.672,5.673h7.537
				c3.12,0.001,5.672,2.554,5.672,5.673v7.537c0,3.119,2.552,5.672,5.672,5.672h7.535c3.12,0,5.672,2.553,5.672,5.672v7.533
				c0,3.119,2.552,5.672,5.672,5.672h26.414c3.119,0,5.672-2.553,5.672-5.672V229.004z M199.789,180.588
				c-0.001,3.119-2.555,5.672-5.674,5.672h-7.535c-3.12,0-5.672-2.553-5.672-5.672v-7.537c0-3.119-2.552-5.672-5.672-5.672h-7.52
				c-3.12,0-5.672-2.553-5.672-5.672v-7.535c0-3.12,2.552-5.672,5.672-5.672h26.408c3.119,0,5.671,2.552,5.67,5.672L199.789,180.588
				z"/>
		</g>
	</g>
</g>
</svg>
