<?xml version="1.0" encoding="utf-8"?>
<!-- Generator: Adobe Illustrator 16.0.0, SVG Export Plug-In . SVG Version: 6.00 Build 0)  -->
<!DOCTYPE svg PUBLIC "-//W3C//DTD SVG 1.1//EN" "http://www.w3.org/Graphics/SVG/1.1/DTD/svg11.dtd">
<svg version="1.1" id="Livello_1" xmlns="http://www.w3.org/2000/svg" xmlns:xlink="http://www.w3.org/1999/xlink" x="0px" y="0px"
	 width="58px" height="38px" viewBox="0 0 58 38" enable-background="new 0 0 58 38" xml:space="preserve">
<g>
	<path fill="#CFCFCF" d="M42.171,0.121c-2.206,0-5.815,0-8.021,0H23.294c-2.206,0-5.815,0-8.021,0H4.417
		c-2.206,0-4.011,1.805-4.011,4.011v10.857c0,2.206,0,5.815,0,8.021v10.857c0,2.206,1.805,4.011,4.011,4.011h10.855
		c2.206,0,4.011-1.805,4.011-4.011V23.011c0-2.206,1.805-4.011,4.011-4.011h10.855c2.206,0,5.815,0,8.021,0h10.855
		c2.206,0,4.011-1.805,4.011-4.011V4.132c0-2.206-1.805-4.011-4.011-4.011H42.171z"/>
</g>
</svg>
