<?xml version="1.0" encoding="utf-8"?>
<!-- Generator: Adobe Illustrator 16.0.0, SVG Export Plug-In . SVG Version: 6.00 Build 0)  -->
<!DOCTYPE svg PUBLIC "-//W3C//DTD SVG 1.1//EN" "http://www.w3.org/Graphics/SVG/1.1/DTD/svg11.dtd">
<svg version="1.1" id="Livello_1" xmlns="http://www.w3.org/2000/svg" xmlns:xlink="http://www.w3.org/1999/xlink" x="0px" y="0px"
	 width="156px" height="130px" viewBox="0 0 156 130" enable-background="new 0 0 156 130" xml:space="preserve">
<g>
	<path fill="#98D0D9" d="M139.929,51.975c-5.5,0-10-4.5-10-10V10.066c0-5.5-4.5-10-10-10L88.022,0.068c-5.5,0-10,4.5-10,10v5.951
		c0,5.5,0,10,0,10c0,0.002-4.5,0.002-10,0.002H10.165c-5.5,0-10,4.5-10,10v57.859c0,5.5,4.5,10,10,10h5.953c5.5,0,10,0,10,0
		c0.001,0,0.001,0,0,0c0,0-0.001,4.5-0.001,10v5.951c0,5.5,4.5,10,10,10h31.908c5.5,0,10-4.5,10-10v-5.951c0-5.5,4.5-10,10-10
		h57.854c5.5,0,10-4.5,10-10V61.975c0-5.5-4.5-10-10-10H139.929z"/>
</g>
<g display="none">
	<linearGradient id="SVGID_1_" gradientUnits="userSpaceOnUse" x1="22.4092" y1="64.9492" x2="133.6357" y2="64.9492">
		<stop  offset="0" style="stop-color:#939599"/>
		<stop  offset="1" style="stop-color:#A0A2A5"/>
	</linearGradient>
	<path display="inline" fill="url(#SVGID_1_)" d="M120.771,55.682c-3.119,0-5.672-2.552-5.672-5.672V24.275
		c0-3.12-2.553-5.672-5.672-5.671l-25.732,0.001c-3.119,0-5.672,2.553-5.672,5.672v7.193c0,3.12,0,5.672,0,5.673
		s-2.552,0.001-5.672,0.001h-44.27c-3.12,0-5.672,2.552-5.672,5.672v44.27c0,3.119,2.552,5.672,5.672,5.672h7.195
		c3.12,0,5.672,2.553,5.672,5.672v7.193c0,3.119,2.552,5.672,5.672,5.672h25.732c3.12,0,5.672-2.553,5.672-5.672V98.43
		c0-3.119,2.553-5.672,5.672-5.672h44.268c3.119,0,5.672-2.553,5.672-5.672V61.354c0-3.12-2.553-5.672-5.672-5.672H120.771z"/>
</g>
<g display="none">
	<linearGradient id="SVGID_2_" gradientUnits="userSpaceOnUse" x1="22.4092" y1="55.9492" x2="133.6357" y2="55.9492">
		<stop  offset="0" style="stop-color:#F0F0F0"/>
		<stop  offset="1" style="stop-color:#E8E8E8"/>
	</linearGradient>
	<path display="inline" fill="url(#SVGID_2_)" d="M120.771,46.682c-3.12,0-5.672-2.553-5.672-5.672V15.275
		c0-3.119-2.552-5.672-5.672-5.672L83.694,9.605c-3.12,0-5.672,2.553-5.672,5.672v7.195c0,3.119-2.552,5.672-5.672,5.672h-44.27
		c-3.12,0-5.672,2.553-5.672,5.672v44.27c0,3.119,2.552,5.672,5.672,5.672h7.195c3.12,0,5.672,2.553,5.672,5.672v7.193
		c0,3.119,2.552,5.672,5.672,5.672h25.732c3.12,0,5.672-2.553,5.672-5.672V89.43c0-3.119,2.552-5.672,5.672-5.672h44.268
		c3.12,0,5.672-2.553,5.672-5.672V52.354c0-3.119-2.552-5.672-5.672-5.672H120.771z"/>
</g>
<g display="none">
	<g display="inline" opacity="0.15">
		<linearGradient id="SVGID_3_" gradientUnits="userSpaceOnUse" x1="106.9658" y1="19.6875" x2="106.9658" y2="28.2773">
			<stop  offset="0" style="stop-color:#414142"/>
			<stop  offset="1" style="stop-color:#E7EAE4;stop-opacity:0"/>
		</linearGradient>
		<line fill="url(#SVGID_3_)" x1="106.966" y1="19.688" x2="106.966" y2="28.277"/>
		<linearGradient id="SVGID_4_" gradientUnits="userSpaceOnUse" x1="106.9678" y1="19.2383" x2="106.9678" y2="28.7285">
			<stop  offset="0" style="stop-color:#414142"/>
			<stop  offset="1" style="stop-color:#E7EAE4;stop-opacity:0"/>
		</linearGradient>
		<path fill="url(#SVGID_4_)" d="M106.966,28.729c-0.209,0-0.379-0.203-0.379-0.451v-8.59c0-0.248,0.17-0.449,0.379-0.449
			c0.211,0,0.383,0.201,0.383,0.449v8.59C107.349,28.525,107.177,28.729,106.966,28.729z"/>
	</g>
	<path display="inline" fill="#3399CC" d="M109.991,2.164c1.219,0,2.338,0.41,3.24,1.094c0.182,0.182,0.377,0.346,0.582,0.5
		c0.9,0.684,2.021,1.094,3.24,1.094h3.023v7.975h-3.023c-1.219,0-2.34-0.408-3.24-1.092c-0.182-0.184-0.377-0.348-0.582-0.502
		c-0.902-0.684-2.021-1.094-3.24-1.094h-3.025V2.164H109.991z"/>
	
		<line display="inline" fill="#B6B6B2" stroke="#231F20" stroke-width="0.7615" stroke-linecap="round" stroke-miterlimit="10" x1="106.966" y1="2.164" x2="106.966" y2="19.76"/>
</g>
<g display="none">
	<g display="inline">
		<linearGradient id="SVGID_5_" gradientUnits="userSpaceOnUse" x1="36.4385" y1="55.8281" x2="103.5869" y2="55.8281">
			<stop  offset="0" style="stop-color:#EEF1EC"/>
			<stop  offset="1" style="stop-color:#E7EAE4"/>
		</linearGradient>
		<rect x="36.438" y="44.699" fill="url(#SVGID_5_)" width="67.148" height="22.258"/>
		<g>
			<rect x="38.888" y="47.938" fill="none" width="62.496" height="16.662"/>
			<linearGradient id="SVGID_6_" gradientUnits="userSpaceOnUse" x1="32.9248" y1="43.6982" x2="107.3428" y2="43.6982">
				<stop  offset="0" style="stop-color:#D2BAA8"/>
				<stop  offset="1" style="stop-color:#D7C0AE"/>
			</linearGradient>
			<path fill="url(#SVGID_6_)" d="M101.382,39.461H38.888c-3.289,0-5.963,2.676-5.963,5.963v2.512c0-3.287,2.674-5.961,5.963-5.961
				h62.494c3.287,0,5.961,2.674,5.961,5.961v-2.512C107.343,42.137,104.669,39.461,101.382,39.461z"/>
			<path fill="#88CFDF" d="M101.382,41.975H38.888c-3.289,0-5.963,2.674-5.963,5.961V64.6c0,3.287,2.674,5.963,5.963,5.963h62.494
				c3.287,0,5.961-2.676,5.961-5.963V47.936C107.343,44.648,104.669,41.975,101.382,41.975z M38.888,47.938l62.492-0.002
				l0.004,16.664H38.888V47.938z"/>
			<g>
				<g>
					<linearGradient id="SVGID_7_" gradientUnits="userSpaceOnUse" x1="51.4717" y1="9.9229" x2="59.1631" y2="9.9229">
						<stop  offset="0" style="stop-color:#E6D0BD"/>
						<stop  offset="1" style="stop-color:#ECD6C2"/>
					</linearGradient>
					<polygon fill="url(#SVGID_7_)" points="51.472,12.516 51.472,7.33 59.163,9.922 					"/>
					<linearGradient id="SVGID_8_" gradientUnits="userSpaceOnUse" x1="88.6201" y1="9.9229" x2="96.3096" y2="9.9229">
						<stop  offset="0" style="stop-color:#E6D0BD"/>
						<stop  offset="1" style="stop-color:#ECD6C2"/>
					</linearGradient>
					<polygon fill="url(#SVGID_8_)" points="88.62,12.516 88.62,7.33 96.31,9.922 					"/>
					
						<line fill="none" stroke="#0D0D0D" stroke-width="1.0569" stroke-linecap="round" stroke-linejoin="round" stroke-miterlimit="10" x1="51.472" y1="7.33" x2="51.472" y2="20.361"/>
					
						<line fill="none" stroke="#0D0D0D" stroke-width="1.0569" stroke-linecap="round" stroke-linejoin="round" stroke-miterlimit="10" x1="88.62" y1="7.33" x2="88.62" y2="20.361"/>
					<polygon fill="#FFFFFF" points="93.505,17.082 93.505,20.207 91.942,20.207 90.378,20.207 90.378,17.082 87.249,17.082 
						87.249,20.207 84.12,20.207 84.12,17.082 80.993,17.082 80.993,29.428 77.866,29.428 77.866,26.42 74.737,26.42 74.737,29.428 
						71.61,29.428 71.61,26.42 68.481,26.42 68.481,29.428 65.354,29.428 65.354,26.42 62.226,26.42 62.226,29.428 59.274,29.428 
						59.274,17.082 56.147,17.082 56.147,20.207 54.583,20.207 53.019,20.207 53.019,17.082 49.89,17.082 49.89,20.207 
						46.763,20.207 46.763,17.082 43.636,17.082 43.636,57.139 96.634,57.139 96.634,17.082 					"/>
					<path fill="#0D0D0D" d="M70.136,41.699c-2.922,0-5.287,2.539-5.287,5.67v9.77h10.572v-9.77
						C75.421,44.238,73.054,41.699,70.136,41.699z"/>
					<g>
						<path fill="#0D0D0D" d="M48.327,27.154c-0.744,0-1.35,0.602-1.35,1.348v6.049h2.697v-6.049
							C49.675,27.756,49.071,27.154,48.327,27.154z"/>
						<path fill="#0D0D0D" d="M54.622,27.154c-0.746,0-1.35,0.602-1.35,1.348v6.049h2.697v-6.049
							C55.97,27.756,55.366,27.154,54.622,27.154z"/>
					</g>
					<path fill="#0D0D0D" d="M91.767,27.154c0.744,0,1.348,0.602,1.348,1.348v6.049h-2.695v-6.049
						C90.419,27.756,91.022,27.154,91.767,27.154z"/>
					<path fill="#0D0D0D" d="M85.474,27.154c0.744,0,1.346,0.602,1.346,1.348v6.049h-2.693v-6.049
						C84.126,27.756,84.729,27.154,85.474,27.154z"/>
				</g>
			</g>
		</g>
		<linearGradient id="SVGID_9_" gradientUnits="userSpaceOnUse" x1="70.1353" y1="61.9688" x2="70.1353" y2="64.5996">
			<stop  offset="0" style="stop-color:#D2BAA8"/>
			<stop  offset="1" style="stop-color:#D7C0AE"/>
		</linearGradient>
		<rect x="38.888" y="61.969" fill="url(#SVGID_9_)" width="62.496" height="2.631"/>
	</g>
	<linearGradient id="SVGID_10_" gradientUnits="userSpaceOnUse" x1="70.1343" y1="57.1387" x2="70.1343" y2="73.3032">
		<stop  offset="0" style="stop-color:#414142"/>
		<stop  offset="1" style="stop-color:#E7EAE4;stop-opacity:0"/>
	</linearGradient>
	<rect x="43.636" y="57.139" display="inline" opacity="0.1" fill="url(#SVGID_10_)" width="52.998" height="16.164"/>
</g>
<g display="none">
	<g display="inline" opacity="0.1">
		<linearGradient id="SVGID_11_" gradientUnits="userSpaceOnUse" x1="52.6201" y1="92.7813" x2="52.6201" y2="103.6113">
			<stop  offset="0" style="stop-color:#414142"/>
			<stop  offset="1" style="stop-color:#E7EAE4;stop-opacity:0"/>
		</linearGradient>
		<line fill="url(#SVGID_11_)" x1="52.62" y1="92.781" x2="52.62" y2="103.611"/>
		<linearGradient id="SVGID_12_" gradientUnits="userSpaceOnUse" x1="52.6201" y1="92.2168" x2="52.6201" y2="104.1777">
			<stop  offset="0" style="stop-color:#414142"/>
			<stop  offset="1" style="stop-color:#E7EAE4;stop-opacity:0"/>
		</linearGradient>
		<path fill="url(#SVGID_12_)" d="M52.62,104.178c-0.264,0-0.479-0.252-0.479-0.566v-10.83c0-0.313,0.215-0.564,0.479-0.564
			c0.266,0,0.479,0.252,0.479,0.564v10.83C53.099,103.926,52.886,104.178,52.62,104.178z"/>
	</g>
	<linearGradient id="SVGID_13_" gradientUnits="userSpaceOnUse" x1="45.3721" y1="82.4932" x2="59.8682" y2="82.4932">
		<stop  offset="0" style="stop-color:#D2BAA8"/>
		<stop  offset="1" style="stop-color:#D7C0AE"/>
	</linearGradient>
	<circle display="inline" fill="url(#SVGID_13_)" cx="52.62" cy="82.492" r="7.248"/>
	
		<line display="inline" fill="none" stroke="#010202" stroke-width="0.8" stroke-linecap="round" stroke-miterlimit="10" x1="52.62" y1="93.365" x2="52.62" y2="80.25"/>
	
		<line display="inline" fill="none" stroke="#010202" stroke-width="0.8" stroke-linecap="round" stroke-miterlimit="10" x1="52.62" y1="85.686" x2="50.147" y2="83.213"/>
	
		<line display="inline" fill="none" stroke="#010202" stroke-width="0.8" stroke-linecap="round" stroke-miterlimit="10" x1="52.62" y1="85.686" x2="55.095" y2="83.213"/>
</g>
<g display="none">
	<g display="inline" opacity="0.1">
		<linearGradient id="SVGID_14_" gradientUnits="userSpaceOnUse" x1="65.6025" y1="93.248" x2="65.6025" y2="104.0781">
			<stop  offset="0" style="stop-color:#414142"/>
			<stop  offset="1" style="stop-color:#E7EAE4;stop-opacity:0"/>
		</linearGradient>
		<line fill="url(#SVGID_14_)" x1="65.603" y1="93.248" x2="65.603" y2="104.078"/>
		<linearGradient id="SVGID_15_" gradientUnits="userSpaceOnUse" x1="65.6016" y1="92.6816" x2="65.6016" y2="104.6445">
			<stop  offset="0" style="stop-color:#414142"/>
			<stop  offset="1" style="stop-color:#E7EAE4;stop-opacity:0"/>
		</linearGradient>
		<path fill="url(#SVGID_15_)" d="M65.603,104.645c-0.266,0-0.48-0.254-0.48-0.566v-10.83c0-0.313,0.215-0.566,0.48-0.566
			c0.264,0,0.479,0.254,0.479,0.566v10.83C66.081,104.391,65.866,104.645,65.603,104.645z"/>
	</g>
	<g display="inline">
		<circle fill="#FFFFFF" cx="65.601" cy="82.088" r="7.248"/>
		<linearGradient id="SVGID_16_" gradientUnits="userSpaceOnUse" x1="65.0005" y1="86.4033" x2="66.2007" y2="86.4033">
			<stop  offset="0" style="stop-color:#D2BAA8"/>
			<stop  offset="1" style="stop-color:#D7C0AE"/>
		</linearGradient>
		
			<line fill="none" stroke="url(#SVGID_16_)" stroke-width="1.2" stroke-linecap="round" stroke-miterlimit="10" x1="65.601" y1="92.961" x2="65.601" y2="79.846"/>
		<linearGradient id="SVGID_17_" gradientUnits="userSpaceOnUse" x1="62.728" y1="84.0449" x2="66.0005" y2="84.0449">
			<stop  offset="0" style="stop-color:#D2BAA8"/>
			<stop  offset="1" style="stop-color:#D7C0AE"/>
		</linearGradient>
		
			<line fill="none" stroke="url(#SVGID_17_)" stroke-width="0.8" stroke-linecap="round" stroke-miterlimit="10" x1="65.601" y1="85.281" x2="63.128" y2="82.809"/>
		<linearGradient id="SVGID_18_" gradientUnits="userSpaceOnUse" x1="65.2007" y1="84.0449" x2="68.4751" y2="84.0449">
			<stop  offset="0" style="stop-color:#D2BAA8"/>
			<stop  offset="1" style="stop-color:#D7C0AE"/>
		</linearGradient>
		
			<line fill="none" stroke="url(#SVGID_18_)" stroke-width="0.8" stroke-linecap="round" stroke-miterlimit="10" x1="65.601" y1="85.281" x2="68.075" y2="82.809"/>
	</g>
</g>
<g display="none">
	<g display="inline" opacity="0.1">
		<linearGradient id="SVGID_19_" gradientUnits="userSpaceOnUse" x1="120.0771" y1="69.1621" x2="120.0771" y2="79.9941">
			<stop  offset="0" style="stop-color:#414142"/>
			<stop  offset="1" style="stop-color:#E7EAE4;stop-opacity:0"/>
		</linearGradient>
		<line fill="url(#SVGID_19_)" x1="120.077" y1="69.162" x2="120.077" y2="79.994"/>
		<linearGradient id="SVGID_20_" gradientUnits="userSpaceOnUse" x1="120.0762" y1="68.5977" x2="120.0762" y2="80.5605">
			<stop  offset="0" style="stop-color:#414142"/>
			<stop  offset="1" style="stop-color:#E7EAE4;stop-opacity:0"/>
		</linearGradient>
		<path fill="url(#SVGID_20_)" d="M120.077,80.561c-0.266,0-0.48-0.254-0.48-0.566V69.162c0-0.313,0.215-0.564,0.48-0.564
			s0.479,0.252,0.479,0.564v10.832C120.556,80.307,120.343,80.561,120.077,80.561z"/>
	</g>
	<g display="inline">
		<circle fill="#FFFFFF" cx="120.076" cy="58.5" r="7.249"/>
		<circle fill="#FFFFFF" cx="120.076" cy="50.627" r="7.249"/>
		<linearGradient id="SVGID_21_" gradientUnits="userSpaceOnUse" x1="119.4775" y1="58.0684" x2="120.6768" y2="58.0684">
			<stop  offset="0" style="stop-color:#D2BAA8"/>
			<stop  offset="1" style="stop-color:#D7C0AE"/>
		</linearGradient>
		
			<line fill="none" stroke="url(#SVGID_21_)" stroke-width="1.2" stroke-linecap="round" stroke-miterlimit="10" x1="120.077" y1="69.373" x2="120.077" y2="46.764"/>
		<linearGradient id="SVGID_22_" gradientUnits="userSpaceOnUse" x1="117.2021" y1="60.4551" x2="120.4775" y2="60.4551">
			<stop  offset="0" style="stop-color:#D2BAA8"/>
			<stop  offset="1" style="stop-color:#D7C0AE"/>
		</linearGradient>
		
			<line fill="none" stroke="url(#SVGID_22_)" stroke-width="0.8" stroke-linecap="round" stroke-miterlimit="10" x1="120.077" y1="61.691" x2="117.603" y2="59.219"/>
		<linearGradient id="SVGID_23_" gradientUnits="userSpaceOnUse" x1="119.6768" y1="60.4551" x2="122.9502" y2="60.4551">
			<stop  offset="0" style="stop-color:#D2BAA8"/>
			<stop  offset="1" style="stop-color:#D7C0AE"/>
		</linearGradient>
		
			<line fill="none" stroke="url(#SVGID_23_)" stroke-width="0.8" stroke-linecap="round" stroke-miterlimit="10" x1="120.077" y1="61.691" x2="122.55" y2="59.219"/>
		<linearGradient id="SVGID_24_" gradientUnits="userSpaceOnUse" x1="117.2021" y1="51.8633" x2="120.4775" y2="51.8633">
			<stop  offset="0" style="stop-color:#D2BAA8"/>
			<stop  offset="1" style="stop-color:#D7C0AE"/>
		</linearGradient>
		
			<line fill="none" stroke="url(#SVGID_24_)" stroke-width="0.8" stroke-linecap="round" stroke-miterlimit="10" x1="120.077" y1="53.1" x2="117.603" y2="50.627"/>
		<linearGradient id="SVGID_25_" gradientUnits="userSpaceOnUse" x1="119.6768" y1="51.8633" x2="122.9502" y2="51.8633">
			<stop  offset="0" style="stop-color:#D2BAA8"/>
			<stop  offset="1" style="stop-color:#D7C0AE"/>
		</linearGradient>
		
			<line fill="none" stroke="url(#SVGID_25_)" stroke-width="0.8" stroke-linecap="round" stroke-miterlimit="10" x1="120.077" y1="53.1" x2="122.55" y2="50.627"/>
	</g>
</g>
</svg>
