<?xml version="1.0" encoding="utf-8"?>
<!-- Generator: Adobe Illustrator 16.0.0, SVG Export Plug-In . SVG Version: 6.00 Build 0)  -->
<!DOCTYPE svg PUBLIC "-//W3C//DTD SVG 1.1//EN" "http://www.w3.org/Graphics/SVG/1.1/DTD/svg11.dtd">
<svg version="1.1" id="Livello_1" xmlns="http://www.w3.org/2000/svg" xmlns:xlink="http://www.w3.org/1999/xlink" x="0px" y="0px"
	 width="186px" height="155px" viewBox="0 0 186 155" enable-background="new 0 0 186 155" xml:space="preserve">
<g display="none">
	<g display="inline">
		<g>
			<path fill="#98D0D9" d="M54.072,53.855"/>
		</g>
		<g>
			<path fill="#98D0D9" d="M54.072,0.996"/>
		</g>
		<g>
			<path fill="#98D0D9" d="M60.072,0.996c-5.5,0-10,4.5-9.999,10l0.004,32.859c0,5.5-4.499,10-9.999,10h-2.434c-5.5,0-10,4.5-10,10
				v6.432c0,5.5-4.5,10-10,10h-6.43c-5.5,0-10,4.5-10,10v32.859c0,5.5,4.5,10,10,10h49.291c5.5,0,10,4.5,10,10v2.43
				c0,5.5,4.5,10,10,10l69.289,0.004c5.5,0,10-4.5,10-10l0.002-28.861c0-5.5,4.5-10.001,10-10.002h6.428
				c5.5-0.001,10-4.502,10-10.002V29.873c0-5.5-4.5-10-10-10h-9.428c-5.5,0-10-4.248-10-9.439s-4.5-9.439-10-9.439L60.072,0.996z"/>
		</g>
	</g>
</g>
<g display="none">
	<g display="inline">
		<g>
			<linearGradient id="SVGID_1_" gradientUnits="userSpaceOnUse" x1="65.4004" y1="61.4063" x2="65.4004" y2="61.4063">
				<stop  offset="0" style="stop-color:#939599"/>
				<stop  offset="1" style="stop-color:#A0A2A5"/>
			</linearGradient>
			<path fill="url(#SVGID_1_)" d="M65.4,61.406"/>
		</g>
		<g>
			<linearGradient id="SVGID_2_" gradientUnits="userSpaceOnUse" x1="65.4004" y1="23.6504" x2="65.4004" y2="23.6504">
				<stop  offset="0" style="stop-color:#939599"/>
				<stop  offset="1" style="stop-color:#A0A2A5"/>
			</linearGradient>
			<path fill="url(#SVGID_2_)" d="M65.4,23.65"/>
		</g>
		<g>
			<linearGradient id="SVGID_3_" gradientUnits="userSpaceOnUse" x1="27.6445" y1="80.2871" x2="159.7949" y2="80.2871">
				<stop  offset="0" style="stop-color:#939599"/>
				<stop  offset="1" style="stop-color:#A0A2A5"/>
			</linearGradient>
			<path fill="url(#SVGID_3_)" d="M71.072,23.65c-3.12,0-5.671,2.552-5.671,5.672l0.003,26.414c0,3.12-2.552,5.672-5.671,5.672
				h-7.537c-3.12,0-5.672,2.552-5.672,5.672v7.535c0,3.12-2.552,5.672-5.672,5.672h-7.535c-3.12,0-5.672,2.553-5.672,5.672v26.414
				c0,3.119,2.552,5.672,5.672,5.672h45.293c3.12,0,5.672,2.553,5.672,5.672v7.533c0,3.119,2.552,5.672,5.672,5.672l45.291,0.002
				c3.119,0,5.672-2.553,5.672-5.672l0.002-26.414c0-3.119,2.553-5.672,5.672-5.673h7.533c3.119-0.001,5.672-2.554,5.672-5.673
				V48.201c0-3.12-2.553-5.672-5.672-5.672h-7.533c-3.119,0-5.672-2.552-5.672-5.672v-7.535c0-3.12-2.553-5.672-5.672-5.672H71.072z
				"/>
		</g>
	</g>
</g>
<g display="none">
	<g display="inline">
		<g>
			<linearGradient id="SVGID_4_" gradientUnits="userSpaceOnUse" x1="65.4004" y1="53.3047" x2="65.4004" y2="53.3047">
				<stop  offset="0" style="stop-color:#F0F0F0"/>
				<stop  offset="1" style="stop-color:#E8E8E8"/>
			</linearGradient>
			<path fill="url(#SVGID_4_)" d="M65.4,53.305"/>
		</g>
		<g>
			<linearGradient id="SVGID_5_" gradientUnits="userSpaceOnUse" x1="65.4004" y1="15.5488" x2="65.4004" y2="15.5488">
				<stop  offset="0" style="stop-color:#F0F0F0"/>
				<stop  offset="1" style="stop-color:#E8E8E8"/>
			</linearGradient>
			<path fill="url(#SVGID_5_)" d="M65.4,15.549"/>
		</g>
		<g>
			<linearGradient id="SVGID_6_" gradientUnits="userSpaceOnUse" x1="27.6445" y1="72.1846" x2="159.7949" y2="72.1846">
				<stop  offset="0" style="stop-color:#F0F0F0"/>
				<stop  offset="1" style="stop-color:#E8E8E8"/>
			</linearGradient>
			<path fill="url(#SVGID_6_)" d="M71.072,15.549c-3.12,0-5.671,2.552-5.671,5.672l0.003,26.414c0,3.12-2.552,5.672-5.671,5.672
				h-7.537c-3.12,0-5.672,2.552-5.672,5.672v7.535c0,3.12-2.552,5.672-5.672,5.672h-7.535c-3.12,0-5.672,2.552-5.672,5.672v26.412
				c0,3.119,2.552,5.672,5.672,5.672h45.293c3.12,0,5.672,2.553,5.672,5.672v7.535c0,3.119,2.552,5.672,5.672,5.672l45.291,0.002
				c3.119,0,5.672-2.553,5.672-5.672l0.002-26.416c0-3.119,2.553-5.672,5.672-5.672h7.533c3.119,0,5.672-2.553,5.672-5.672V40.096
				c0-3.12-2.553-5.672-5.672-5.672h-7.533c-3.119,0-5.672-2.552-5.672-5.672v-7.533c0-3.12-2.553-5.672-5.672-5.672L71.072,15.549z
				"/>
		</g>
	</g>
</g>
<g>
	<path fill="none" stroke="#CDCCCB" stroke-width="6" stroke-miterlimit="10" d="M46.369,109.941V86.918c0-3.3,2.7-6,6-6h15
		c3.3,0,6-2.7,6-6V58.9c0-3.3,2.7-6,6-6h56c3.3,0,6,2.7,6,6v11.771c0,3.3,2.7,6,6,6h12.426"/>
</g>
<g>
	<path fill="none" stroke="#CDCCCB" stroke-width="6" stroke-miterlimit="10" d="M119.717,128.822v-16.104c0-3.299,2.7-6,6-6h15.201
		"/>
</g>
<g>
	<g>
		<line fill="none" stroke="#FFFFFF" stroke-miterlimit="10" x1="46.369" y1="109.941" x2="46.369" y2="108.441"/>
		<path fill="none" stroke="#FFFFFF" stroke-miterlimit="10" stroke-dasharray="3.0214,3.0214" d="M46.369,105.42V86.918
			c0-3.3,2.7-6,6-6h15c3.3,0,6-2.7,6-6V58.9c0-3.3,2.7-6,6-6h56c3.3,0,6,2.7,6,6v11.771c0,3.3,2.7,6,6,6h9.415"/>
		<line fill="none" stroke="#FFFFFF" stroke-miterlimit="10" x1="158.295" y1="76.672" x2="159.795" y2="76.672"/>
	</g>
</g>
<g>
	<path fill="none" stroke="#FFFFFF" stroke-miterlimit="10" stroke-dasharray="3" d="M119.717,128.822v-16.104c0-3.299,2.7-6,6-6
		h15.201"/>
</g>
<g>
	<g opacity="0.1">
		<linearGradient id="SVGID_7_" gradientUnits="userSpaceOnUse" x1="73.4258" y1="97.752" x2="73.4258" y2="108.582">
			<stop  offset="0" style="stop-color:#414142"/>
			<stop  offset="1" style="stop-color:#E7EAE4;stop-opacity:0"/>
		</linearGradient>
		<line fill="url(#SVGID_7_)" x1="73.426" y1="97.752" x2="73.426" y2="108.582"/>
		<linearGradient id="SVGID_8_" gradientUnits="userSpaceOnUse" x1="73.4258" y1="97.1875" x2="73.4258" y2="109.1484">
			<stop  offset="0" style="stop-color:#414142"/>
			<stop  offset="1" style="stop-color:#E7EAE4;stop-opacity:0"/>
		</linearGradient>
		<path fill="url(#SVGID_8_)" d="M73.426,109.148c-0.264,0-0.479-0.252-0.479-0.566v-10.83c0-0.313,0.215-0.564,0.479-0.564
			c0.266,0,0.479,0.252,0.479,0.564v10.83C73.904,108.896,73.691,109.148,73.426,109.148z"/>
	</g>
	<g>
		<circle fill="#FFFFFF" cx="73.426" cy="86.594" r="7.248"/>
		<linearGradient id="SVGID_9_" gradientUnits="userSpaceOnUse" x1="72.8257" y1="90.9092" x2="74.0259" y2="90.9092">
			<stop  offset="0" style="stop-color:#D2BAA8"/>
			<stop  offset="1" style="stop-color:#D7C0AE"/>
		</linearGradient>
		
			<line fill="none" stroke="url(#SVGID_9_)" stroke-width="1.2" stroke-linecap="round" stroke-miterlimit="10" x1="73.426" y1="97.467" x2="73.426" y2="84.352"/>
		<linearGradient id="SVGID_10_" gradientUnits="userSpaceOnUse" x1="70.5513" y1="88.5498" x2="73.8257" y2="88.5498">
			<stop  offset="0" style="stop-color:#D2BAA8"/>
			<stop  offset="1" style="stop-color:#D7C0AE"/>
		</linearGradient>
		
			<line fill="none" stroke="url(#SVGID_10_)" stroke-width="0.8" stroke-linecap="round" stroke-miterlimit="10" x1="73.426" y1="89.787" x2="70.951" y2="87.313"/>
		<linearGradient id="SVGID_11_" gradientUnits="userSpaceOnUse" x1="73.0259" y1="88.5498" x2="76.2983" y2="88.5498">
			<stop  offset="0" style="stop-color:#D2BAA8"/>
			<stop  offset="1" style="stop-color:#D7C0AE"/>
		</linearGradient>
		
			<line fill="none" stroke="url(#SVGID_11_)" stroke-width="0.8" stroke-linecap="round" stroke-miterlimit="10" x1="73.426" y1="89.787" x2="75.898" y2="87.313"/>
	</g>
</g>
<g>
	<g opacity="0.1">
		<linearGradient id="SVGID_12_" gradientUnits="userSpaceOnUse" x1="78.9004" y1="38.582" x2="78.9004" y2="49.4141">
			<stop  offset="0" style="stop-color:#414142"/>
			<stop  offset="1" style="stop-color:#E7EAE4;stop-opacity:0"/>
		</linearGradient>
		<line fill="url(#SVGID_12_)" x1="78.9" y1="38.582" x2="78.9" y2="49.414"/>
		<linearGradient id="SVGID_13_" gradientUnits="userSpaceOnUse" x1="78.8994" y1="38.0176" x2="78.8994" y2="49.9805">
			<stop  offset="0" style="stop-color:#414142"/>
			<stop  offset="1" style="stop-color:#E7EAE4;stop-opacity:0"/>
		</linearGradient>
		<path fill="url(#SVGID_13_)" d="M78.9,49.98c-0.266,0-0.48-0.254-0.48-0.566V38.582c0-0.313,0.215-0.564,0.48-0.564
			c0.264,0,0.479,0.252,0.479,0.564v10.832C79.379,49.727,79.164,49.98,78.9,49.98z"/>
	</g>
	<g>
		<circle fill="#FFFFFF" cx="78.899" cy="27.92" r="7.249"/>
		<circle fill="#FFFFFF" cx="78.899" cy="20.047" r="7.249"/>
		<linearGradient id="SVGID_14_" gradientUnits="userSpaceOnUse" x1="78.2983" y1="27.4883" x2="79.4985" y2="27.4883">
			<stop  offset="0" style="stop-color:#D2BAA8"/>
			<stop  offset="1" style="stop-color:#D7C0AE"/>
		</linearGradient>
		
			<line fill="none" stroke="url(#SVGID_14_)" stroke-width="1.2" stroke-linecap="round" stroke-miterlimit="10" x1="78.898" y1="38.793" x2="78.898" y2="16.184"/>
		<linearGradient id="SVGID_15_" gradientUnits="userSpaceOnUse" x1="76.0259" y1="29.875" x2="79.2983" y2="29.875">
			<stop  offset="0" style="stop-color:#D2BAA8"/>
			<stop  offset="1" style="stop-color:#D7C0AE"/>
		</linearGradient>
		
			<line fill="none" stroke="url(#SVGID_15_)" stroke-width="0.8" stroke-linecap="round" stroke-miterlimit="10" x1="78.898" y1="31.111" x2="76.426" y2="28.639"/>
		<linearGradient id="SVGID_16_" gradientUnits="userSpaceOnUse" x1="78.4985" y1="29.875" x2="81.7729" y2="29.875">
			<stop  offset="0" style="stop-color:#D2BAA8"/>
			<stop  offset="1" style="stop-color:#D7C0AE"/>
		</linearGradient>
		
			<line fill="none" stroke="url(#SVGID_16_)" stroke-width="0.8" stroke-linecap="round" stroke-miterlimit="10" x1="78.898" y1="31.111" x2="81.373" y2="28.639"/>
		<linearGradient id="SVGID_17_" gradientUnits="userSpaceOnUse" x1="76.0259" y1="21.2832" x2="79.2983" y2="21.2832">
			<stop  offset="0" style="stop-color:#D2BAA8"/>
			<stop  offset="1" style="stop-color:#D7C0AE"/>
		</linearGradient>
		
			<line fill="none" stroke="url(#SVGID_17_)" stroke-width="0.8" stroke-linecap="round" stroke-miterlimit="10" x1="78.898" y1="22.52" x2="76.426" y2="20.047"/>
		<linearGradient id="SVGID_18_" gradientUnits="userSpaceOnUse" x1="78.4985" y1="21.2832" x2="81.7729" y2="21.2832">
			<stop  offset="0" style="stop-color:#D2BAA8"/>
			<stop  offset="1" style="stop-color:#D7C0AE"/>
		</linearGradient>
		
			<line fill="none" stroke="url(#SVGID_18_)" stroke-width="0.8" stroke-linecap="round" stroke-miterlimit="10" x1="78.898" y1="22.52" x2="81.373" y2="20.047"/>
	</g>
</g>
<g>
	<g opacity="0.1">
		<linearGradient id="SVGID_19_" gradientUnits="userSpaceOnUse" x1="60.4004" y1="97.2871" x2="60.4004" y2="108.1172">
			<stop  offset="0" style="stop-color:#414142"/>
			<stop  offset="1" style="stop-color:#E7EAE4;stop-opacity:0"/>
		</linearGradient>
		<line fill="url(#SVGID_19_)" x1="60.4" y1="97.287" x2="60.4" y2="108.117"/>
		<linearGradient id="SVGID_20_" gradientUnits="userSpaceOnUse" x1="60.4014" y1="96.7227" x2="60.4014" y2="108.6836">
			<stop  offset="0" style="stop-color:#414142"/>
			<stop  offset="1" style="stop-color:#E7EAE4;stop-opacity:0"/>
		</linearGradient>
		<path fill="url(#SVGID_20_)" d="M60.4,108.684c-0.264,0-0.479-0.252-0.479-0.566v-10.83c0-0.313,0.215-0.564,0.479-0.564
			c0.266,0,0.48,0.252,0.48,0.564v10.83C60.881,108.432,60.666,108.684,60.4,108.684z"/>
	</g>
	<linearGradient id="SVGID_21_" gradientUnits="userSpaceOnUse" x1="53.1523" y1="86.999" x2="67.6504" y2="86.999">
		<stop  offset="0" style="stop-color:#D2BAA8"/>
		<stop  offset="1" style="stop-color:#D7C0AE"/>
	</linearGradient>
	<circle fill="url(#SVGID_21_)" cx="60.401" cy="86.998" r="7.249"/>
	
		<line fill="none" stroke="#010202" stroke-width="0.8" stroke-linecap="round" stroke-miterlimit="10" x1="60.4" y1="97.871" x2="60.4" y2="84.756"/>
	
		<line fill="none" stroke="#010202" stroke-width="0.8" stroke-linecap="round" stroke-miterlimit="10" x1="60.4" y1="90.191" x2="57.928" y2="87.719"/>
	
		<line fill="none" stroke="#010202" stroke-width="0.8" stroke-linecap="round" stroke-miterlimit="10" x1="60.4" y1="90.191" x2="62.875" y2="87.719"/>
</g>
<g>
	<g opacity="0.1">
		<linearGradient id="SVGID_22_" gradientUnits="userSpaceOnUse" x1="91.7207" y1="39.4766" x2="91.7207" y2="50.3066">
			<stop  offset="0" style="stop-color:#414142"/>
			<stop  offset="1" style="stop-color:#E7EAE4;stop-opacity:0"/>
		</linearGradient>
		<line fill="url(#SVGID_22_)" x1="91.721" y1="39.477" x2="91.721" y2="50.307"/>
		<linearGradient id="SVGID_23_" gradientUnits="userSpaceOnUse" x1="91.7207" y1="38.9102" x2="91.7207" y2="50.873">
			<stop  offset="0" style="stop-color:#414142"/>
			<stop  offset="1" style="stop-color:#E7EAE4;stop-opacity:0"/>
		</linearGradient>
		<path fill="url(#SVGID_23_)" d="M91.721,50.873c-0.264,0-0.479-0.254-0.479-0.566v-10.83c0-0.313,0.215-0.566,0.479-0.566
			c0.266,0,0.479,0.254,0.479,0.566v10.83C92.199,50.619,91.986,50.873,91.721,50.873z"/>
	</g>
	<linearGradient id="SVGID_24_" gradientUnits="userSpaceOnUse" x1="84.4727" y1="29.1875" x2="98.9688" y2="29.1875">
		<stop  offset="0" style="stop-color:#D2BAA8"/>
		<stop  offset="1" style="stop-color:#D7C0AE"/>
	</linearGradient>
	<circle fill="url(#SVGID_24_)" cx="91.721" cy="29.188" r="7.248"/>
	
		<line fill="none" stroke="#010202" stroke-width="0.8" stroke-linecap="round" stroke-miterlimit="10" x1="91.721" y1="40.061" x2="91.721" y2="26.943"/>
	
		<line fill="none" stroke="#010202" stroke-width="0.8" stroke-linecap="round" stroke-miterlimit="10" x1="91.721" y1="32.381" x2="89.248" y2="29.906"/>
	
		<line fill="none" stroke="#010202" stroke-width="0.8" stroke-linecap="round" stroke-miterlimit="10" x1="91.721" y1="32.381" x2="94.195" y2="29.906"/>
</g>
<g>
	<g opacity="0.15">
		<linearGradient id="SVGID_25_" gradientUnits="userSpaceOnUse" x1="150.4297" y1="42.582" x2="150.4297" y2="51.1719">
			<stop  offset="0" style="stop-color:#414142"/>
			<stop  offset="1" style="stop-color:#E7EAE4;stop-opacity:0"/>
		</linearGradient>
		<line fill="url(#SVGID_25_)" x1="150.43" y1="42.582" x2="150.43" y2="51.172"/>
		<linearGradient id="SVGID_26_" gradientUnits="userSpaceOnUse" x1="150.4316" y1="42.1328" x2="150.4316" y2="51.623">
			<stop  offset="0" style="stop-color:#414142"/>
			<stop  offset="1" style="stop-color:#E7EAE4;stop-opacity:0"/>
		</linearGradient>
		<path fill="url(#SVGID_26_)" d="M150.43,51.623c-0.209,0-0.379-0.203-0.379-0.451v-8.59c0-0.248,0.17-0.449,0.379-0.449
			c0.211,0,0.383,0.201,0.383,0.449v8.59C150.813,51.42,150.641,51.623,150.43,51.623z"/>
	</g>
	<path fill="#3399CC" d="M153.455,25.059c1.219,0,2.338,0.41,3.24,1.094c0.182,0.182,0.377,0.346,0.582,0.5
		c0.9,0.684,2.021,1.094,3.24,1.094h3.023v7.975h-3.023c-1.219,0-2.34-0.408-3.24-1.092c-0.182-0.184-0.377-0.348-0.582-0.502
		c-0.902-0.684-2.021-1.094-3.24-1.094h-3.025v-7.975H153.455z"/>
	
		<line fill="#B6B6B2" stroke="#231F20" stroke-width="0.7615" stroke-linecap="round" stroke-miterlimit="10" x1="150.43" y1="25.059" x2="150.43" y2="42.654"/>
</g>
<g>
	<linearGradient id="SVGID_27_" gradientUnits="userSpaceOnUse" x1="85.1484" y1="77.2808" x2="131.873" y2="77.2808">
		<stop  offset="0" style="stop-color:#F0F0F0"/>
		<stop  offset="1" style="stop-color:#E8E8E8"/>
	</linearGradient>
	<rect x="85.148" y="56.368" fill="url(#SVGID_27_)" width="46.725" height="41.825"/>
	<linearGradient id="SVGID_28_" gradientUnits="userSpaceOnUse" x1="108.5107" y1="85.0254" x2="108.5107" y2="95.1943">
		<stop  offset="0" style="stop-color:#414142"/>
		<stop  offset="1" style="stop-color:#E7EAE4;stop-opacity:0"/>
	</linearGradient>
	<rect x="91.206" y="85.025" opacity="0.1" fill="url(#SVGID_28_)" width="34.608" height="10.169"/>
	<rect x="85.148" y="53.801" fill="#545454" width="46.725" height="9.668"/>
	<linearGradient id="SVGID_29_" gradientUnits="userSpaceOnUse" x1="85.1484" y1="60.1348" x2="131.873" y2="60.1348">
		<stop  offset="0" style="stop-color:#D2BAA8"/>
		<stop  offset="1" style="stop-color:#D7C0AE"/>
	</linearGradient>
	<rect x="85.148" y="55.301" fill="url(#SVGID_29_)" width="46.725" height="9.668"/>
	<linearGradient id="SVGID_30_" gradientUnits="userSpaceOnUse" x1="91.2061" y1="68.4009" x2="125.8145" y2="68.4009">
		<stop  offset="0" style="stop-color:#E6D0BD"/>
		<stop  offset="1" style="stop-color:#ECD6C2"/>
	</linearGradient>
	<rect x="91.206" y="51.776" fill="url(#SVGID_30_)" width="34.608" height="33.249"/>
	<path fill="#1E1E1C" d="M108.51,77.651c-1.457,0-2.639,1.182-2.639,2.639v4.735h5.277V80.29
		C111.148,78.833,109.967,77.651,108.51,77.651z"/>
	<rect x="94.77" y="75.029" fill="#0D0D0D" width="1.328" height="5.244"/>
	<rect x="96.639" y="75.029" fill="#0D0D0D" width="1.328" height="5.244"/>
	<rect x="98.509" y="75.029" fill="#0D0D0D" width="1.328" height="5.244"/>
	<rect x="100.378" y="75.029" fill="#0D0D0D" width="1.328" height="5.244"/>
	<rect x="94.77" y="65.778" fill="#0D0D0D" width="1.328" height="5.244"/>
	<rect x="96.639" y="65.778" fill="#0D0D0D" width="1.328" height="5.244"/>
	<rect x="98.509" y="65.778" fill="#0D0D0D" width="1.328" height="5.244"/>
	<rect x="100.378" y="65.778" fill="#0D0D0D" width="1.328" height="5.244"/>
	<rect x="115.47" y="65.778" fill="#0D0D0D" width="1.328" height="5.244"/>
	<rect x="117.339" y="65.778" fill="#0D0D0D" width="1.328" height="5.244"/>
	<rect x="119.209" y="65.778" fill="#0D0D0D" width="1.328" height="5.244"/>
	<rect x="121.078" y="65.778" fill="#0D0D0D" width="1.328" height="5.244"/>
	<rect x="105.042" y="65.778" fill="#0D0D0D" width="1.328" height="5.244"/>
	<rect x="106.911" y="65.778" fill="#0D0D0D" width="1.328" height="5.244"/>
	<rect x="108.781" y="65.778" fill="#0D0D0D" width="1.328" height="5.244"/>
	<rect x="110.65" y="65.778" fill="#0D0D0D" width="1.328" height="5.244"/>
	<rect x="115.47" y="75.029" fill="#0D0D0D" width="1.328" height="5.244"/>
	<rect x="117.339" y="75.029" fill="#0D0D0D" width="1.328" height="5.244"/>
	<rect x="119.209" y="75.029" fill="#0D0D0D" width="1.328" height="5.244"/>
	<rect x="121.078" y="75.029" fill="#0D0D0D" width="1.328" height="5.244"/>
	<rect x="85.148" y="87.025" fill="#545454" width="46.725" height="9.668"/>
	<linearGradient id="SVGID_31_" gradientUnits="userSpaceOnUse" x1="85.1484" y1="93.3594" x2="131.873" y2="93.3594">
		<stop  offset="0" style="stop-color:#E6D0BD"/>
		<stop  offset="1" style="stop-color:#ECD6C2"/>
	</linearGradient>
	<rect x="85.148" y="88.525" fill="url(#SVGID_31_)" width="46.725" height="9.668"/>
	<linearGradient id="SVGID_32_" gradientUnits="userSpaceOnUse" x1="108.5107" y1="98.1934" x2="108.5107" y2="107.8613">
		<stop  offset="0" style="stop-color:#414142"/>
		<stop  offset="1" style="stop-color:#E7EAE4;stop-opacity:0"/>
	</linearGradient>
	<rect x="85.148" y="98.193" opacity="0.1" fill="url(#SVGID_32_)" width="46.725" height="9.668"/>
	<rect x="130.373" y="53.801" fill="#545454" width="1.5" height="34.725"/>
	<rect x="85.148" y="53.801" fill="#545454" width="1.5" height="34.725"/>
	<linearGradient id="SVGID_33_" gradientUnits="userSpaceOnUse" x1="98.2383" y1="71.0225" x2="98.2383" y2="72.2734">
		<stop  offset="0" style="stop-color:#D2BAA8"/>
		<stop  offset="1" style="stop-color:#D7C0AE"/>
	</linearGradient>
	<rect x="94.77" y="71.022" fill="url(#SVGID_33_)" width="6.937" height="1.251"/>
	<linearGradient id="SVGID_34_" gradientUnits="userSpaceOnUse" x1="108.5107" y1="71.0225" x2="108.5107" y2="72.2734">
		<stop  offset="0" style="stop-color:#D2BAA8"/>
		<stop  offset="1" style="stop-color:#D7C0AE"/>
	</linearGradient>
	<rect x="105.043" y="71.022" fill="url(#SVGID_34_)" width="6.936" height="1.251"/>
	<linearGradient id="SVGID_35_" gradientUnits="userSpaceOnUse" x1="118.9375" y1="71.0225" x2="118.9375" y2="72.2734">
		<stop  offset="0" style="stop-color:#D2BAA8"/>
		<stop  offset="1" style="stop-color:#D7C0AE"/>
	</linearGradient>
	<rect x="115.47" y="71.022" fill="url(#SVGID_35_)" width="6.937" height="1.251"/>
	<linearGradient id="SVGID_36_" gradientUnits="userSpaceOnUse" x1="118.9375" y1="80.2734" x2="118.9375" y2="81.5244">
		<stop  offset="0" style="stop-color:#D2BAA8"/>
		<stop  offset="1" style="stop-color:#D7C0AE"/>
	</linearGradient>
	<rect x="115.47" y="80.273" fill="url(#SVGID_36_)" width="6.937" height="1.251"/>
	<linearGradient id="SVGID_37_" gradientUnits="userSpaceOnUse" x1="98.2383" y1="80.2734" x2="98.2383" y2="81.5244">
		<stop  offset="0" style="stop-color:#D2BAA8"/>
		<stop  offset="1" style="stop-color:#D7C0AE"/>
	</linearGradient>
	<rect x="94.77" y="80.273" fill="url(#SVGID_37_)" width="6.937" height="1.251"/>
	<rect x="91.206" y="38.932" fill="#545454" width="34.608" height="23.095"/>
	<linearGradient id="SVGID_38_" gradientUnits="userSpaceOnUse" x1="94.334" y1="49.8018" x2="122.6875" y2="49.8018">
		<stop  offset="0" style="stop-color:#929497"/>
		<stop  offset="1" style="stop-color:#A0A1A5"/>
	</linearGradient>
	<rect x="94.334" y="41.026" fill="url(#SVGID_38_)" width="28.354" height="17.551"/>
</g>
<g>
	<g opacity="0.1">
		<linearGradient id="SVGID_39_" gradientUnits="userSpaceOnUse" x1="100.9707" y1="119.293" x2="100.9707" y2="130.123">
			<stop  offset="0" style="stop-color:#414142"/>
			<stop  offset="1" style="stop-color:#E7EAE4;stop-opacity:0"/>
		</linearGradient>
		<line fill="url(#SVGID_39_)" x1="100.971" y1="119.293" x2="100.971" y2="130.123"/>
		<linearGradient id="SVGID_40_" gradientUnits="userSpaceOnUse" x1="100.9697" y1="118.7285" x2="100.9697" y2="130.6895">
			<stop  offset="0" style="stop-color:#414142"/>
			<stop  offset="1" style="stop-color:#E7EAE4;stop-opacity:0"/>
		</linearGradient>
		<path fill="url(#SVGID_40_)" d="M100.971,130.689c-0.266,0-0.48-0.252-0.48-0.566v-10.83c0-0.313,0.215-0.564,0.48-0.564
			c0.264,0,0.479,0.252,0.479,0.564v10.83C101.449,130.438,101.234,130.689,100.971,130.689z"/>
	</g>
	<g>
		<circle fill="#FFFFFF" cx="100.969" cy="108.135" r="7.248"/>
		<linearGradient id="SVGID_41_" gradientUnits="userSpaceOnUse" x1="100.3691" y1="112.4502" x2="101.5684" y2="112.4502">
			<stop  offset="0" style="stop-color:#D2BAA8"/>
			<stop  offset="1" style="stop-color:#D7C0AE"/>
		</linearGradient>
		
			<line fill="none" stroke="url(#SVGID_41_)" stroke-width="1.2" stroke-linecap="round" stroke-miterlimit="10" x1="100.969" y1="119.008" x2="100.969" y2="105.893"/>
		<linearGradient id="SVGID_42_" gradientUnits="userSpaceOnUse" x1="98.0957" y1="110.0908" x2="101.3691" y2="110.0908">
			<stop  offset="0" style="stop-color:#D2BAA8"/>
			<stop  offset="1" style="stop-color:#D7C0AE"/>
		</linearGradient>
		
			<line fill="none" stroke="url(#SVGID_42_)" stroke-width="0.8" stroke-linecap="round" stroke-miterlimit="10" x1="100.969" y1="111.328" x2="98.496" y2="108.854"/>
		<linearGradient id="SVGID_43_" gradientUnits="userSpaceOnUse" x1="100.5684" y1="110.0908" x2="103.8438" y2="110.0908">
			<stop  offset="0" style="stop-color:#D2BAA8"/>
			<stop  offset="1" style="stop-color:#D7C0AE"/>
		</linearGradient>
		
			<line fill="none" stroke="url(#SVGID_43_)" stroke-width="0.8" stroke-linecap="round" stroke-miterlimit="10" x1="100.969" y1="111.328" x2="103.443" y2="108.854"/>
	</g>
</g>
</svg>
