<?xml version="1.0" encoding="utf-8"?>
<!-- Generator: Adobe Illustrator 16.0.0, SVG Export Plug-In . SVG Version: 6.00 Build 0)  -->
<!DOCTYPE svg PUBLIC "-//W3C//DTD SVG 1.1//EN" "http://www.w3.org/Graphics/SVG/1.1/DTD/svg11.dtd">
<svg version="1.1" id="Livello_1" xmlns="http://www.w3.org/2000/svg" xmlns:xlink="http://www.w3.org/1999/xlink" x="0px" y="0px"
	 width="108px" height="63px" viewBox="0 0 108 63" enable-background="new 0 0 108 63" xml:space="preserve">
<g display="none">
	<path display="inline" fill="#98D0D9" d="M108.038,52.79c0,5.5-4.5,10-10,10H34.749c-5.5,0-10-4.5-10-10v-6.431c0-5.5-4.5-10-10-10
		h-4.43c-5.5,0-10-4.5-10-10v-6.431c0-5.5,4.5-10,10-10h87.719c5.5,0,10,4.5,10,10V52.79z"/>
</g>
<g display="none">
	<path display="inline" fill="none" stroke="#FFFFFF" stroke-miterlimit="10" d="M94.935,49.566c0,3.119-2.553,5.672-5.672,5.672
		H43.972c-3.12,0-5.672-2.553-5.672-5.672v-7.535c0-3.119-2.552-5.672-5.672-5.672h-7.535c-3.12,0-5.672-2.553-5.672-5.672v-7.535
		c0-3.12,2.552-5.672,5.672-5.672h64.17c3.119,0,5.672,2.552,5.672,5.672V49.566z"/>
</g>
<g display="none">
	<path display="inline" fill="none" stroke="#FFFFFF" stroke-miterlimit="10" d="M94.935,41.465c0,3.119-2.553,5.672-5.672,5.672
		H43.972c-3.12,0-5.672-2.553-5.672-5.672v-7.536c0-3.12-2.552-5.672-5.672-5.672h-7.535c-3.12,0-5.672-2.552-5.672-5.672v-7.534
		c0-3.12,2.552-5.672,5.672-5.672h64.17c3.119,0,5.672,2.552,5.672,5.672V41.465z"/>
</g>
<g>
	<path fill="none" stroke="#CDCCCB" stroke-width="6" stroke-miterlimit="10" d="M94.935,19.48H57.952c-3.3,0-5.986,2.7-5.97,6
		l0.11,21.656"/>
</g>
<g>
	<g>
		<line fill="none" stroke="#FFFFFF" stroke-miterlimit="10" x1="94.935" y1="19.48" x2="93.435" y2="19.48"/>
		<path fill="none" stroke="#FFFFFF" stroke-miterlimit="10" stroke-dasharray="3.0966,3.0966" d="M90.338,19.48H57.952
			c-3.3,0-5.986,2.7-5.97,6l0.095,18.607"/>
		<line fill="none" stroke="#FFFFFF" stroke-miterlimit="10" x1="52.085" y1="45.637" x2="52.093" y2="47.137"/>
	</g>
</g>
<g>
	<g opacity="0.15">
		<linearGradient id="SVGID_1_" gradientUnits="userSpaceOnUse" x1="42.6104" y1="18.1025" x2="42.6104" y2="26.6934">
			<stop  offset="0" style="stop-color:#414142"/>
			<stop  offset="1" style="stop-color:#E7EAE4;stop-opacity:0"/>
		</linearGradient>
		<line fill="url(#SVGID_1_)" x1="42.61" y1="18.103" x2="42.61" y2="26.693"/>
		<linearGradient id="SVGID_2_" gradientUnits="userSpaceOnUse" x1="42.6123" y1="17.6533" x2="42.6123" y2="27.1436">
			<stop  offset="0" style="stop-color:#414142"/>
			<stop  offset="1" style="stop-color:#E7EAE4;stop-opacity:0"/>
		</linearGradient>
		<path fill="url(#SVGID_2_)" d="M42.61,27.144c-0.209,0-0.379-0.202-0.379-0.45v-8.591c0-0.247,0.17-0.449,0.379-0.449
			c0.211,0,0.383,0.202,0.383,0.449v8.591C42.993,26.941,42.821,27.144,42.61,27.144z"/>
	</g>
	<path fill="#3399CC" d="M45.636,0.579c1.219,0,2.338,0.41,3.24,1.094c0.182,0.182,0.377,0.346,0.582,0.5
		c0.9,0.685,2.021,1.095,3.24,1.095h3.023v7.975h-3.023c-1.219,0-2.34-0.409-3.24-1.093c-0.182-0.183-0.377-0.347-0.582-0.502
		c-0.902-0.683-2.021-1.094-3.24-1.094H42.61V0.579H45.636z"/>
	
		<line fill="#B6B6B2" stroke="#231F20" stroke-width="0.7615" stroke-linecap="round" stroke-miterlimit="10" x1="42.61" y1="0.579" x2="42.61" y2="18.176"/>
</g>
<g>
	
		<line fill="#B6B5B2" stroke="#231F20" stroke-width="0.5884" stroke-linecap="round" stroke-miterlimit="10" x1="26.608" y1="22.973" x2="30.688" y2="19.811"/>
	
		<line fill="#B6B5B2" stroke="#231F20" stroke-width="0.5884" stroke-linecap="round" stroke-miterlimit="10" x1="34.768" y1="22.973" x2="30.688" y2="19.811"/>
	
		<line fill="#B6B5B2" stroke="#231F20" stroke-width="0.6519" stroke-linecap="round" stroke-miterlimit="10" x1="30.688" y1="14.347" x2="30.688" y2="24.935"/>
	<g>
		
			<linearGradient id="SVGID_3_" gradientUnits="userSpaceOnUse" x1="-36.3042" y1="-71.9072" x2="-28.3208" y2="-71.9072" gradientTransform="matrix(0.9116 0.3759 -0.733 1.7774 10.4731 155.5762)">
			<stop  offset="0" style="stop-color:#929497"/>
			<stop  offset="1" style="stop-color:#A0A1A5"/>
		</linearGradient>
		<polygon fill="url(#SVGID_3_)" points="36.87,18.323 29.582,15.351 30.583,12.92 37.871,15.896 		"/>
		<linearGradient id="SVGID_4_" gradientUnits="userSpaceOnUse" x1="23.5054" y1="13.3936" x2="31.77" y2="13.3936">
			<stop  offset="0" style="stop-color:#929497"/>
			<stop  offset="1" style="stop-color:#A0A1A5"/>
		</linearGradient>
		<path fill="url(#SVGID_4_)" d="M31.77,12.756l-5.449-2.205l-0.001,0.002c-0.251-0.114-0.523-0.183-0.815-0.183
			c-1.105,0-1.999,0.895-1.999,1.999c0,0.89,0.593,1.618,1.396,1.877l5.358,2.169L31.77,12.756z"/>
		<circle fill="#1E1D1B" cx="25.484" cy="12.354" r="1.444"/>
	</g>
</g>
</svg>
