<?xml version="1.0" encoding="utf-8"?>
<!-- Generator: Adobe Illustrator 16.0.0, SVG Export Plug-In . SVG Version: 6.00 Build 0)  -->
<!DOCTYPE svg PUBLIC "-//W3C//DTD SVG 1.1//EN" "http://www.w3.org/Graphics/SVG/1.1/DTD/svg11.dtd">
<svg version="1.1" id="Livello_1" xmlns="http://www.w3.org/2000/svg" xmlns:xlink="http://www.w3.org/1999/xlink" x="0px" y="0px"
	 width="106px" height="133px" viewBox="0 0 106 133" enable-background="new 0 0 106 133" xml:space="preserve">
<g display="none">
	<g display="inline">
		<g>
			<path fill="#98D0D9" d="M26.76,9.984c0-5.5,4.501-10,10.001-10h32.857c5.5,0,10,4.5,10,10v6.432c0,5.5,4.5,10,10,10h6.432
				c5.5,0,10,4.5,10,10v85.723c0,5.5-4.5,10-10,10H59.187c-5.5,0-10-4.5-10-10v-3.43c0-5.5-4.5-10-10-10h-6.428c-5.5,0-10-4.5-10-10
				v-1.87c0-5.5-4.5-10-10-10.001h-2.434c-5.5-0.001-10-4.501-10-10.001V62.844c0-5.5,4.5-10,10-10h6.432c5.5,0,10-4.5,10.001-10
				L26.76,9.984z"/>
		</g>
	</g>
</g>
<g display="none">
	<g display="inline">
		<g>
			<linearGradient id="SVGID_1_" gradientUnits="userSpaceOnUse" x1="15.4287" y1="66.0615" x2="90.9463" y2="66.0615">
				<stop  offset="0" style="stop-color:#939599"/>
				<stop  offset="1" style="stop-color:#A0A2A5"/>
			</linearGradient>
			<path fill="url(#SVGID_1_)" d="M34.311,24.535c0-3.12,2.553-5.672,5.672-5.672h26.41c3.119,0,5.672,2.552,5.672,5.672v7.535
				c0,3.12,2.553,5.672,5.672,5.672h7.537c3.119,0,5.672,2.552,5.672,5.672v64.174c0,3.119-2.553,5.672-5.672,5.672H58.858
				c-3.119,0-5.672-2.553-5.672-5.672v-7.535c0-3.119-2.552-5.672-5.672-5.672h-7.533c-3.12,0-5.672-2.553-5.672-5.672v-7.535
				c0-3.119-2.552-5.672-5.672-5.673h-7.537c-3.12-0.001-5.672-2.554-5.672-5.673v-7.535c0-3.12,2.552-5.672,5.672-5.672h7.535
				c3.12,0,5.672-2.552,5.672-5.672L34.311,24.535z"/>
		</g>
	</g>
</g>
<g display="none">
	<g display="inline">
		<g>
			<linearGradient id="SVGID_2_" gradientUnits="userSpaceOnUse" x1="15.4287" y1="57.9678" x2="90.9463" y2="57.9678">
				<stop  offset="0" style="stop-color:#F0F0F0"/>
				<stop  offset="1" style="stop-color:#E8E8E8"/>
			</linearGradient>
			<path fill="url(#SVGID_2_)" d="M34.311,16.441c0-3.121,2.553-5.672,5.672-5.672h26.41c3.12,0,5.672,2.551,5.672,5.672v7.535
				c0,3.119,2.552,5.672,5.672,5.672h7.537c3.12,0,5.672,2.553,5.672,5.672v64.174c0,3.119-2.552,5.672-5.672,5.672H58.858
				c-3.12,0-5.672-2.553-5.672-5.672v-7.535c0-3.119-2.552-5.672-5.672-5.672h-7.533c-3.12,0-5.672-2.553-5.672-5.672V73.08
				c0-3.121-2.552-5.672-5.672-5.674h-7.537c-3.12,0-5.672-2.553-5.672-5.672v-7.535c0-3.121,2.552-5.672,5.672-5.672h7.535
				c3.12,0,5.672-2.553,5.672-5.672L34.311,16.441z"/>
		</g>
	</g>
</g>
<path fill="none" stroke="#231F20" stroke-width="0.7615" stroke-linecap="round" stroke-miterlimit="10" d="M60.985,54.063h3.631
	c2.756,0,5,2.242,5,5v17.736"/>
<path fill="none" stroke="#231F20" stroke-width="0.7615" stroke-linecap="round" stroke-miterlimit="10" d="M60.985,56.063h3.631
	c1.648,0,3,1.35,3,3v17.736"/>
<path fill="none" stroke="#231F20" stroke-width="0.695" stroke-miterlimit="10" d="M45.388,56.063H28.63c-2.758,0-5-2.244-5-5
	v-2.535"/>
<polygon fill="#1E1E1C" points="41.243,22.322 41.243,24.732 37.776,23.527 "/>
<polygon fill="#1E1E1C" points="33.774,57.268 33.774,54.857 37.241,56.063 "/>
<polygon fill="#1E1E1C" points="68.411,67.947 70.821,67.947 69.616,71.414 "/>
<polygon fill="#1E1E1C" points="68.821,63.59 66.411,63.59 67.616,60.123 "/>
<g>
	<g>
		<g>
			<polygon fill="#FFFFFF" points="72.866,80.955 65.067,84.93 65.067,93.969 80.665,93.969 80.665,84.93 			"/>
			<linearGradient id="SVGID_3_" gradientUnits="userSpaceOnUse" x1="72.8662" y1="79.0215" x2="80.665" y2="79.0215">
				<stop  offset="0" style="stop-color:#D2BAA8"/>
				<stop  offset="1" style="stop-color:#D7C0AE"/>
			</linearGradient>
			<polygon fill="url(#SVGID_3_)" points="72.866,73.113 72.866,80.955 80.665,84.93 80.665,77.088 			"/>
			<linearGradient id="SVGID_4_" gradientUnits="userSpaceOnUse" x1="65.0674" y1="79.0215" x2="72.8662" y2="79.0215">
				<stop  offset="0" style="stop-color:#E6D0BD"/>
				<stop  offset="1" style="stop-color:#ECD6C2"/>
			</linearGradient>
			<polygon fill="url(#SVGID_4_)" points="65.067,77.088 65.067,84.93 72.866,80.955 72.866,73.113 			"/>
			<path fill="#1E1E1C" d="M72.866,88.203c-1.139,0-2.063,0.924-2.063,2.063v3.703h4.125v-3.703
				C74.929,89.127,74.005,88.203,72.866,88.203z"/>
		</g>
		
			<line fill="#B6B6B2" stroke="#231F20" stroke-width="0.7615" stroke-linecap="round" stroke-miterlimit="10" x1="76.767" y1="69.68" x2="76.767" y2="78.479"/>
		
			<line fill="#B6B6B2" stroke="#231F20" stroke-width="0.7615" stroke-linecap="round" stroke-miterlimit="10" x1="72.866" y1="69.68" x2="80.665" y2="69.68"/>
		
			<line fill="#B6B6B2" stroke="#231F20" stroke-width="0.7615" stroke-linecap="round" stroke-miterlimit="10" x1="74.601" y1="72.068" x2="78.931" y2="72.068"/>
	</g>
	<linearGradient id="SVGID_5_" gradientUnits="userSpaceOnUse" x1="72.8662" y1="93.9688" x2="72.8662" y2="106.3164">
		<stop  offset="0" style="stop-color:#414142"/>
		<stop  offset="1" style="stop-color:#E7EAE4;stop-opacity:0"/>
	</linearGradient>
	<rect x="65.067" y="93.969" opacity="0.1" fill="url(#SVGID_5_)" width="15.598" height="12.348"/>
</g>
<g>
	<g>
		<g>
			<polygon fill="#FFFFFF" points="53.187,45.93 45.388,49.904 45.388,58.943 60.985,58.943 60.985,49.904 			"/>
			<linearGradient id="SVGID_6_" gradientUnits="userSpaceOnUse" x1="53.1865" y1="43.9961" x2="60.9854" y2="43.9961">
				<stop  offset="0" style="stop-color:#D2BAA8"/>
				<stop  offset="1" style="stop-color:#D7C0AE"/>
			</linearGradient>
			<polygon fill="url(#SVGID_6_)" points="53.187,38.088 53.187,45.93 60.985,49.904 60.985,42.063 			"/>
			<linearGradient id="SVGID_7_" gradientUnits="userSpaceOnUse" x1="45.3877" y1="43.9961" x2="53.1865" y2="43.9961">
				<stop  offset="0" style="stop-color:#E6D0BD"/>
				<stop  offset="1" style="stop-color:#ECD6C2"/>
			</linearGradient>
			<polygon fill="url(#SVGID_7_)" points="45.388,42.063 45.388,49.904 53.187,45.93 53.187,38.088 			"/>
			<path fill="#1E1E1C" d="M53.187,53.18c-1.139,0-2.063,0.924-2.063,2.063v3.701h4.125v-3.701
				C55.249,54.104,54.325,53.18,53.187,53.18z"/>
		</g>
		
			<line fill="#B6B6B2" stroke="#231F20" stroke-width="0.7615" stroke-linecap="round" stroke-miterlimit="10" x1="57.087" y1="34.656" x2="57.087" y2="43.455"/>
		
			<line fill="#B6B6B2" stroke="#231F20" stroke-width="0.7615" stroke-linecap="round" stroke-miterlimit="10" x1="53.187" y1="34.656" x2="60.985" y2="34.656"/>
		
			<line fill="#B6B6B2" stroke="#231F20" stroke-width="0.7615" stroke-linecap="round" stroke-miterlimit="10" x1="54.921" y1="37.043" x2="59.251" y2="37.043"/>
	</g>
	<linearGradient id="SVGID_8_" gradientUnits="userSpaceOnUse" x1="53.186" y1="58.9434" x2="53.186" y2="71.2935">
		<stop  offset="0" style="stop-color:#414142"/>
		<stop  offset="1" style="stop-color:#E7EAE4;stop-opacity:0"/>
	</linearGradient>
	<rect x="45.388" y="58.943" opacity="0.1" fill="url(#SVGID_8_)" width="15.598" height="12.35"/>
</g>
<g>
	<g>
		<g>
			<polygon fill="#FFFFFF" points="53.187,15.098 45.388,19.072 45.388,28.111 60.985,28.111 60.985,19.072 			"/>
			<linearGradient id="SVGID_9_" gradientUnits="userSpaceOnUse" x1="53.1865" y1="13.1641" x2="60.9854" y2="13.1641">
				<stop  offset="0" style="stop-color:#D2BAA8"/>
				<stop  offset="1" style="stop-color:#D7C0AE"/>
			</linearGradient>
			<polygon fill="url(#SVGID_9_)" points="53.187,7.256 53.187,15.098 60.985,19.072 60.985,11.23 			"/>
			<linearGradient id="SVGID_10_" gradientUnits="userSpaceOnUse" x1="45.3877" y1="13.1641" x2="53.1865" y2="13.1641">
				<stop  offset="0" style="stop-color:#E6D0BD"/>
				<stop  offset="1" style="stop-color:#ECD6C2"/>
			</linearGradient>
			<polygon fill="url(#SVGID_10_)" points="45.388,11.23 45.388,19.072 53.187,15.098 53.187,7.256 			"/>
			<path fill="#1E1E1C" d="M53.187,22.346c-1.139,0-2.063,0.924-2.063,2.063v3.703h4.125v-3.703
				C55.249,23.27,54.325,22.346,53.187,22.346z"/>
		</g>
		
			<line fill="#B6B6B2" stroke="#231F20" stroke-width="0.7615" stroke-linecap="round" stroke-miterlimit="10" x1="57.087" y1="3.822" x2="57.087" y2="12.621"/>
		
			<line fill="#B6B6B2" stroke="#231F20" stroke-width="0.7615" stroke-linecap="round" stroke-miterlimit="10" x1="53.187" y1="3.822" x2="60.985" y2="3.822"/>
		
			<line fill="#B6B6B2" stroke="#231F20" stroke-width="0.7615" stroke-linecap="round" stroke-miterlimit="10" x1="54.921" y1="6.211" x2="59.251" y2="6.211"/>
	</g>
	<linearGradient id="SVGID_11_" gradientUnits="userSpaceOnUse" x1="53.186" y1="28.1113" x2="53.186" y2="40.459">
		<stop  offset="0" style="stop-color:#414142"/>
		<stop  offset="1" style="stop-color:#E7EAE4;stop-opacity:0"/>
	</linearGradient>
	<rect x="45.388" y="28.111" opacity="0.1" fill="url(#SVGID_11_)" width="15.598" height="12.348"/>
</g>
<line fill="none" stroke="#231F20" stroke-width="0.695" stroke-miterlimit="10" x1="45.388" y1="23.527" x2="34.308" y2="23.527"/>
<line fill="none" stroke="#231F20" stroke-width="0.695" stroke-miterlimit="10" x1="34.312" y1="25.527" x2="45.388" y2="25.527"/>
<path fill="none" stroke="#231F20" stroke-width="0.695" stroke-miterlimit="10" d="M45.388,54.063H28.63c-1.656,0-3-1.344-3-3
	V48.59"/>
<g>
	<g opacity="0.15">
		<linearGradient id="SVGID_12_" gradientUnits="userSpaceOnUse" x1="82.0811" y1="53.832" x2="82.0811" y2="62.4219">
			<stop  offset="0" style="stop-color:#414142"/>
			<stop  offset="1" style="stop-color:#E7EAE4;stop-opacity:0"/>
		</linearGradient>
		<line fill="url(#SVGID_12_)" x1="82.081" y1="53.832" x2="82.081" y2="62.422"/>
		<linearGradient id="SVGID_13_" gradientUnits="userSpaceOnUse" x1="82.0811" y1="53.3828" x2="82.0811" y2="62.873">
			<stop  offset="0" style="stop-color:#414142"/>
			<stop  offset="1" style="stop-color:#E7EAE4;stop-opacity:0"/>
		</linearGradient>
		<path fill="url(#SVGID_13_)" d="M82.081,62.873c-0.209,0-0.381-0.203-0.381-0.451v-8.59c0-0.248,0.172-0.449,0.381-0.449
			c0.211,0,0.381,0.201,0.381,0.449v8.59C82.462,62.67,82.292,62.873,82.081,62.873z"/>
	</g>
	<path fill="#E84C3D" d="M85.106,36.309c1.219,0,2.338,0.41,3.24,1.094c0.182,0.182,0.377,0.346,0.58,0.5
		c0.902,0.684,2.023,1.094,3.242,1.094h3.023v7.975h-3.023c-1.219,0-2.34-0.408-3.242-1.092c-0.18-0.184-0.375-0.348-0.58-0.502
		c-0.902-0.684-2.021-1.094-3.24-1.094h-3.025v-7.975H85.106z"/>
	
		<line fill="#B6B6B2" stroke="#231F20" stroke-width="0.7615" stroke-linecap="round" stroke-miterlimit="10" x1="82.081" y1="36.309" x2="82.081" y2="53.904"/>
</g>
</svg>
