<?xml version="1.0" encoding="utf-8"?>
<!-- Generator: Adobe Illustrator 16.0.0, SVG Export Plug-In . SVG Version: 6.00 Build 0)  -->
<!DOCTYPE svg PUBLIC "-//W3C//DTD SVG 1.1//EN" "http://www.w3.org/Graphics/SVG/1.1/DTD/svg11.dtd">
<svg version="1.1" id="Livello_1" xmlns="http://www.w3.org/2000/svg" xmlns:xlink="http://www.w3.org/1999/xlink" x="0px" y="0px"
	 width="95px" height="38px" viewBox="0 0 95 38" enable-background="new 0 0 95 38" xml:space="preserve">
<g>
	<path fill="#BFBEBE" d="M79.54,0.535c-2.206,0-5.815,0-8.021,0H60.663c-2.206,0-5.815,0-8.021,0H41.785c-2.205,0-5.814,0-8.021,0
		H22.909c-2.206,0-5.815,0-8.022,0H4.032c-2.206,0-4.011,1.805-4.011,4.011v10.857c0,2.206,1.805,4.011,4.011,4.011h10.854
		c2.207,0,5.816,0,8.022,0h10.855c2.206,0,5.815,0,8.021,0h10.856c2.206,0,4.011,1.805,4.011,4.011v10.857
		c0,2.206,1.805,4.011,4.011,4.011h10.855c2.206,0,4.011-1.805,4.011-4.011V23.425c0-2.206,1.805-4.011,4.011-4.011h10.855
		c2.206,0,4.011-1.805,4.011-4.011V4.546c0-2.206-1.805-4.011-4.011-4.011H79.54z"/>
</g>
</svg>
