<?xml version="1.0" encoding="utf-8"?>
<!-- Generator: Adobe Illustrator 16.0.0, SVG Export Plug-In . SVG Version: 6.00 Build 0)  -->
<!DOCTYPE svg PUBLIC "-//W3C//DTD SVG 1.1//EN" "http://www.w3.org/Graphics/SVG/1.1/DTD/svg11.dtd">
<svg version="1.1" id="Livello_1" xmlns="http://www.w3.org/2000/svg" xmlns:xlink="http://www.w3.org/1999/xlink" x="0px" y="0px"
	 width="133px" height="186px" viewBox="0 0 133 186" enable-background="new 0 0 133 186" xml:space="preserve">
<g display="none">
	<path display="inline" fill="#98D0D9" d="M116.927,54.098c-5.5,0-10-4.5-10-10v-6.433c0-5.5-4.5-10-10-10H64.067
		c-5.5,0-10-4.5-10-10v-6.431c0-5.5-4.5-10-10-10H11.206c-5.5,0-10,4.5-10,10v138.584c0,5.5,4.5,10,10,10h6.432c5.5,0,10,4.5,10,10
		v6.43c0,5.5,4.5,10,10,10h59.289c5.5,0,10-4.5,10-10v-32.857c0-5.5,4.5-10,10-10h6.432c5.5,0,10-4.5,10-10V64.098
		c0-5.5-4.5-10-10-10H116.927z"/>
</g>
<g>
	<path fill="none" stroke="#FFFFFF" stroke-miterlimit="10" d="M101.271,65.424c-3.119,0-5.672-2.552-5.672-5.672v-7.536
		c0-3.12-2.553-5.672-5.672-5.672H63.515c-3.12,0-5.672-2.552-5.672-5.672v-7.535c0-3.12-2.552-5.672-5.672-5.672H25.757
		c-3.12,0-5.672,2.552-5.672,5.672v101.931c0,3.119,2.552,5.672,5.672,5.672h7.533c3.12,0,5.672,0,5.673,0s0.001,2.553,0.001,5.672
		v7.533c0,3.119,2.552,5.672,5.672,5.672h45.291c3.119,0,5.672-2.553,5.672-5.672v-26.41c0-3.119,2.553-5.672,5.672-5.672h7.537
		c3.119,0,5.672-2.553,5.672-5.672V71.096c0-3.12-2.553-5.672-5.672-5.672H101.271z"/>
</g>
<g>
	<path fill="none" stroke="#FFFFFF" stroke-miterlimit="10" d="M101.271,57.321c-3.119,0-5.672-2.552-5.672-5.672v-7.536
		c0-3.12-2.553-5.672-5.672-5.672H63.515c-3.12,0-5.672-2.552-5.672-5.672v-7.535c0-3.12-2.552-5.672-5.672-5.672H25.757
		c-3.12,0-5.672,2.552-5.672,5.672v101.93c0,3.119,2.552,5.672,5.672,5.672h7.533c3.12,0,5.672,0,5.673,0s0.001,2.553,0.001,5.672
		v7.535c0,3.119,2.552,5.672,5.672,5.672h45.291c3.119,0,5.672-2.553,5.672-5.672v-26.41c0-3.119,2.553-5.672,5.672-5.672h7.537
		c3.119,0,5.672-2.553,5.672-5.672V62.993c0-3.12-2.553-5.672-5.672-5.672H101.271z"/>
</g>
<g display="none">
	<g display="inline" opacity="0.1">
		<linearGradient id="SVGID_1_" gradientUnits="userSpaceOnUse" x1="56.8252" y1="137.0488" x2="56.8252" y2="147.8789">
			<stop  offset="0" style="stop-color:#414142"/>
			<stop  offset="1" style="stop-color:#E7EAE4;stop-opacity:0"/>
		</linearGradient>
		<line fill="url(#SVGID_1_)" x1="56.825" y1="137.049" x2="56.825" y2="147.879"/>
		<linearGradient id="SVGID_2_" gradientUnits="userSpaceOnUse" x1="56.8242" y1="136.4824" x2="56.8242" y2="148.4453">
			<stop  offset="0" style="stop-color:#414142"/>
			<stop  offset="1" style="stop-color:#E7EAE4;stop-opacity:0"/>
		</linearGradient>
		<path fill="url(#SVGID_2_)" d="M56.825,148.445c-0.266,0-0.48-0.254-0.48-0.566v-10.83c0-0.313,0.215-0.566,0.48-0.566
			c0.264,0,0.479,0.254,0.479,0.566v10.83C57.304,148.191,57.089,148.445,56.825,148.445z"/>
	</g>
	<linearGradient id="SVGID_3_" gradientUnits="userSpaceOnUse" x1="49.5752" y1="126.3848" x2="64.0732" y2="126.3848">
		<stop  offset="0" style="stop-color:#D2BAA8"/>
		<stop  offset="1" style="stop-color:#D7C0AE"/>
	</linearGradient>
	<circle display="inline" fill="url(#SVGID_3_)" cx="56.824" cy="126.385" r="7.249"/>
	<linearGradient id="SVGID_4_" gradientUnits="userSpaceOnUse" x1="49.5752" y1="118.5127" x2="64.0732" y2="118.5127">
		<stop  offset="0" style="stop-color:#D2BAA8"/>
		<stop  offset="1" style="stop-color:#D7C0AE"/>
	</linearGradient>
	<circle display="inline" fill="url(#SVGID_4_)" cx="56.824" cy="118.512" r="7.249"/>
	
		<line display="inline" fill="none" stroke="#010202" stroke-width="0.8" stroke-linecap="round" stroke-miterlimit="10" x1="56.823" y1="137.258" x2="56.823" y2="114.648"/>
	
		<line display="inline" fill="none" stroke="#010202" stroke-width="0.8" stroke-linecap="round" stroke-miterlimit="10" x1="56.823" y1="129.578" x2="54.351" y2="127.104"/>
	
		<line display="inline" fill="none" stroke="#010202" stroke-width="0.8" stroke-linecap="round" stroke-miterlimit="10" x1="56.823" y1="129.578" x2="59.298" y2="127.104"/>
	
		<line display="inline" fill="none" stroke="#010202" stroke-width="0.8" stroke-linecap="round" stroke-miterlimit="10" x1="56.823" y1="120.986" x2="54.351" y2="118.512"/>
	
		<line display="inline" fill="none" stroke="#010202" stroke-width="0.8" stroke-linecap="round" stroke-miterlimit="10" x1="56.823" y1="120.986" x2="59.298" y2="118.512"/>
</g>
<g display="none">
	<linearGradient id="SVGID_5_" gradientUnits="userSpaceOnUse" x1="27.1162" y1="58.5854" x2="77.2451" y2="58.5854">
		<stop  offset="0" style="stop-color:#D2BAA8"/>
		<stop  offset="1" style="stop-color:#D7C0AE"/>
	</linearGradient>
	<polygon display="inline" fill="url(#SVGID_5_)" points="60.546,56.68 60.546,45.576 60.536,45.584 60.536,45.576 43.837,56.68 
		43.837,45.576 43.825,45.584 43.825,45.576 27.128,56.68 27.116,71.595 27.128,71.595 43.825,71.595 43.837,71.595 60.536,71.595 
		60.546,71.595 77.245,71.595 77.245,45.576 	"/>
	<polygon display="inline" fill="#FFFFFF" points="60.546,65.56 60.546,54.454 60.536,54.462 60.536,54.454 43.837,65.56 
		43.837,54.454 43.825,54.462 43.825,54.454 27.128,65.56 27.116,91.16 27.128,91.16 43.825,91.16 43.837,91.16 60.536,91.16 
		60.546,91.16 77.245,91.16 77.245,54.454 	"/>
	<rect x="77.245" y="69.36" display="inline" fill="#FFFFFF" width="30.201" height="21.844"/>
	<rect x="77.245" y="60.483" display="inline" fill="#1E1E1C" width="30.201" height="8.877"/>
	<rect x="34.067" y="72.78" display="inline" fill="#1E1E1C" width="3.703" height="8.407"/>
	<rect x="42.544" y="72.78" display="inline" fill="#1E1E1C" width="3.703" height="8.407"/>
	<rect x="51.021" y="72.78" display="inline" fill="#1E1E1C" width="3.703" height="8.407"/>
	<rect x="59.497" y="72.78" display="inline" fill="#1E1E1C" width="3.703" height="8.407"/>
	<rect x="67.972" y="72.78" display="inline" fill="#1E1E1C" width="3.705" height="8.407"/>
	<rect x="89.21" y="79.761" display="inline" fill="#1E1E1C" width="6.27" height="11.398"/>
	<linearGradient id="SVGID_6_" gradientUnits="userSpaceOnUse" x1="83.7451" y1="57.2539" x2="88.749" y2="57.2539">
		<stop  offset="0" style="stop-color:#D2BAA8"/>
		<stop  offset="1" style="stop-color:#D7C0AE"/>
	</linearGradient>
	<rect x="83.745" y="49.586" display="inline" fill="url(#SVGID_6_)" width="5.004" height="15.336"/>
	<linearGradient id="SVGID_7_" gradientUnits="userSpaceOnUse" x1="96.4229" y1="53.167" x2="101.4287" y2="53.167">
		<stop  offset="0" style="stop-color:#D2BAA8"/>
		<stop  offset="1" style="stop-color:#D7C0AE"/>
	</linearGradient>
	<rect x="96.423" y="41.412" display="inline" fill="url(#SVGID_7_)" width="5.006" height="23.51"/>
	<circle display="inline" fill="#1E1E1C" cx="98.926" cy="41.412" r="2.503"/>
	<circle display="inline" fill="#1E1E1C" cx="86.247" cy="49.586" r="2.502"/>
	<linearGradient id="SVGID_8_" gradientUnits="userSpaceOnUse" x1="83.7451" y1="58.5854" x2="88.749" y2="58.5854">
		<stop  offset="0" style="stop-color:#E6D0BD"/>
		<stop  offset="1" style="stop-color:#ECD6C2"/>
	</linearGradient>
	<rect x="83.745" y="57.689" display="inline" fill="url(#SVGID_8_)" width="5.004" height="1.792"/>
	<linearGradient id="SVGID_9_" gradientUnits="userSpaceOnUse" x1="96.4229" y1="58.5854" x2="101.4287" y2="58.5854">
		<stop  offset="0" style="stop-color:#E6D0BD"/>
		<stop  offset="1" style="stop-color:#ECD6C2"/>
	</linearGradient>
	<rect x="96.423" y="57.689" display="inline" fill="url(#SVGID_9_)" width="5.006" height="1.792"/>
	<linearGradient id="SVGID_10_" gradientUnits="userSpaceOnUse" x1="96.4229" y1="50.4814" x2="101.4287" y2="50.4814">
		<stop  offset="0" style="stop-color:#E6D0BD"/>
		<stop  offset="1" style="stop-color:#ECD6C2"/>
	</linearGradient>
	<rect x="96.423" y="49.586" display="inline" fill="url(#SVGID_10_)" width="5.006" height="1.791"/>
	<path display="inline" fill="#FFFFFF" d="M98.388,32.252c0,0-2.389-6.55-9.27-3.813c-6.879,2.735-5.85,0.447-9.137-3.649
		c-3.287-4.096-10.375-10.788-20.953-7.041c-10.576,3.748-9.197,11.194-6.965,14.548c1.873,2.813,8.773,4.597,13.279,1.433
		c5.111-3.588,6.652-3.21,9.65-0.071c3,3.137,8.053,3.955,11.064,2.617C89.067,34.936,92.569,28.131,98.388,32.252z"/>
	<linearGradient id="SVGID_11_" gradientUnits="userSpaceOnUse" x1="67.2813" y1="91.1597" x2="67.2813" y2="106.188">
		<stop  offset="0" style="stop-color:#414142"/>
		<stop  offset="1" style="stop-color:#E7EAE4;stop-opacity:0"/>
	</linearGradient>
	<rect x="27.116" y="91.16" display="inline" opacity="0.1" fill="url(#SVGID_11_)" width="80.33" height="15.028"/>
</g>
<g display="none">
	<path display="inline" fill="none" stroke="#CDCCCB" stroke-width="6" stroke-miterlimit="10" d="M20.083,37.873h16.461
		c3.3,0,6-2.7,6-6V19.563"/>
</g>
<g display="none">
	<path display="inline" fill="none" stroke="#CDCCCB" stroke-width="6" stroke-miterlimit="10" d="M20.083,102.01h66.262
		c3.3,0,6-2.432,6-5.402c0-2.972,0-5.403,0-5.403"/>
</g>
<g display="none">
	<path display="inline" fill="none" stroke="#FFFFFF" stroke-miterlimit="10" stroke-dasharray="3" d="M20.083,37.873h16.461
		c3.3,0,6-2.7,6-6V19.563"/>
</g>
<g display="none">
	<g display="inline" opacity="0.15">
		<linearGradient id="SVGID_12_" gradientUnits="userSpaceOnUse" x1="74.6279" y1="144.9824" x2="74.6279" y2="153.5742">
			<stop  offset="0" style="stop-color:#414142"/>
			<stop  offset="1" style="stop-color:#E7EAE4;stop-opacity:0"/>
		</linearGradient>
		<line fill="url(#SVGID_12_)" x1="74.628" y1="144.982" x2="74.628" y2="153.574"/>
		<linearGradient id="SVGID_13_" gradientUnits="userSpaceOnUse" x1="74.6279" y1="144.5332" x2="74.6279" y2="154.0234">
			<stop  offset="0" style="stop-color:#414142"/>
			<stop  offset="1" style="stop-color:#E7EAE4;stop-opacity:0"/>
		</linearGradient>
		<path fill="url(#SVGID_13_)" d="M74.628,154.023c-0.209,0-0.381-0.201-0.381-0.449v-8.592c0-0.246,0.172-0.449,0.381-0.449
			c0.211,0,0.381,0.203,0.381,0.449v8.592C75.009,153.822,74.839,154.023,74.628,154.023z"/>
	</g>
	<path display="inline" fill="#E84C3D" d="M77.653,127.459c1.219,0,2.338,0.41,3.24,1.094c0.18,0.182,0.377,0.346,0.58,0.5
		c0.902,0.686,2.023,1.096,3.24,1.096h3.025v7.975h-3.025c-1.217,0-2.338-0.41-3.24-1.094c-0.18-0.182-0.375-0.346-0.58-0.502
		c-0.902-0.682-2.021-1.094-3.24-1.094h-3.025v-7.975H77.653z"/>
	
		<line display="inline" fill="#B6B6B2" stroke="#231F20" stroke-width="0.7615" stroke-linecap="round" stroke-miterlimit="10" x1="74.628" y1="127.459" x2="74.628" y2="145.057"/>
</g>
<g display="none">
	<g display="inline">
		<line fill="none" stroke="#FFFFFF" stroke-miterlimit="10" x1="20.083" y1="102.01" x2="21.583" y2="102.01"/>
		<path fill="none" stroke="#FFFFFF" stroke-miterlimit="10" stroke-dasharray="3.1043,3.1043" d="M24.688,102.01h61.657
			c3.3,0,6-2.432,6-5.402c0-0.843,0-1.642,0-2.354"/>
		<path fill="none" stroke="#FFFFFF" stroke-miterlimit="10" d="M92.345,92.703c0-0.927,0-1.499,0-1.499"/>
	</g>
</g>
</svg>
