<?xml version="1.0" encoding="utf-8"?>
<!-- Generator: Adobe Illustrator 16.0.0, SVG Export Plug-In . SVG Version: 6.00 Build 0)  -->
<!DOCTYPE svg PUBLIC "-//W3C//DTD SVG 1.1//EN" "http://www.w3.org/Graphics/SVG/1.1/DTD/svg11.dtd">
<svg version="1.1" id="Livello_1" xmlns="http://www.w3.org/2000/svg" xmlns:xlink="http://www.w3.org/1999/xlink" x="0px" y="0px"
	 width="159px" height="159px" viewBox="0 0 159 159" enable-background="new 0 0 159 159" xml:space="preserve">
<g>
	<g>
		<g>
			<path fill="#98D0D9" d="M26.846,0.873"/>
		</g>
		<g>
			<path fill="#98D0D9" d="M122.566,0.877c5.5,0,10,4.5,10,10v6.428c0,5.5,4.5,10,10,10H149c5.5,0,10,4.5,10,10v32.859
				c0,5.5-4.5,10-10,10.001h-6.434c-5.5,0.001-10,4.501-10,10.001v32.859c0,5.5-4.5,10-10,10l-32.855,0.002c-5.5,0-10,4.5-10,10
				v6.428c0,5.5-4.5,10-10,10l-59.293,0.004c-5.5,0-10-4.5-10-10V90.164c0-5.5,4.5-10,10-10h6.428c5.5,0,10-4.5,10-10V10.873
				c0-5.5,4.5-10,10-10L122.566,0.877z"/>
		</g>
	</g>
</g>
<g display="none">
	<g display="inline">
		<g>
			<linearGradient id="SVGID_1_" gradientUnits="userSpaceOnUse" x1="41.9497" y1="23.5293" x2="41.9497" y2="23.5293">
				<stop  offset="0" style="stop-color:#939599"/>
				<stop  offset="1" style="stop-color:#A0A2A5"/>
			</linearGradient>
			<path fill="url(#SVGID_1_)" d="M41.95,23.529"/>
		</g>
		<g>
			<linearGradient id="SVGID_2_" gradientUnits="userSpaceOnUse" x1="23.0728" y1="80.166" x2="136.3457" y2="80.166">
				<stop  offset="0" style="stop-color:#939599"/>
				<stop  offset="1" style="stop-color:#A0A2A5"/>
			</linearGradient>
			<path fill="url(#SVGID_2_)" d="M111.793,23.531c3.119,0,5.672,2.552,5.672,5.672v7.533c0,3.12,2.553,5.672,5.672,5.672h7.537
				c3.119,0,5.672,2.552,5.672,5.672v26.412c0,3.12-2.553,5.672-5.672,5.673h-7.537c-3.119,0.001-5.672,2.554-5.672,5.673v26.412
				c0,3.119-2.553,5.672-5.672,5.672l-26.41,0.002c-3.119,0-5.672,2.553-5.672,5.672v7.533c0,3.119-2.552,5.672-5.672,5.672
				l-45.294,0.002c-3.12,0-5.672-2.553-5.672-5.672V85.836c0-3.119,2.552-5.672,5.672-5.672h7.533c3.12,0,5.672-2.552,5.672-5.672
				V29.201c0-3.12,2.552-5.672,5.672-5.672L111.793,23.531z"/>
		</g>
	</g>
</g>
<g display="none">
	<g display="inline">
		<g>
			<linearGradient id="SVGID_3_" gradientUnits="userSpaceOnUse" x1="41.9497" y1="15.4238" x2="41.9497" y2="15.4238">
				<stop  offset="0" style="stop-color:#F0F0F0"/>
				<stop  offset="1" style="stop-color:#E8E8E8"/>
			</linearGradient>
			<path fill="url(#SVGID_3_)" d="M41.95,15.424"/>
		</g>
		<g>
			<linearGradient id="SVGID_4_" gradientUnits="userSpaceOnUse" x1="23.0728" y1="72.0625" x2="136.3457" y2="72.0625">
				<stop  offset="0" style="stop-color:#F0F0F0"/>
				<stop  offset="1" style="stop-color:#E8E8E8"/>
			</linearGradient>
			<path fill="url(#SVGID_4_)" d="M111.793,15.426c3.12,0,5.672,2.553,5.672,5.672v7.537c0,3.119,2.553,5.672,5.672,5.672h7.537
				c3.12,0,5.672,2.553,5.672,5.672v26.412c0,3.119-2.552,5.672-5.672,5.672h-7.537c-3.119,0-5.672,2.553-5.672,5.672v26.414
				c0,3.119-2.552,5.672-5.672,5.672l-26.41,0.002c-3.119,0-5.672,2.553-5.672,5.672v7.533c0,3.119-2.552,5.672-5.671,5.672
				l-45.295,0.002c-3.12,0-5.672-2.553-5.672-5.672V77.734c0-3.119,2.552-5.672,5.672-5.672h7.533c3.12,0,5.672-2.553,5.672-5.672
				V21.096c0-3.119,2.552-5.672,5.672-5.672L111.793,15.426z"/>
		</g>
	</g>
</g>
<g display="none">
	<g display="inline" opacity="0.1">
		<linearGradient id="SVGID_5_" gradientUnits="userSpaceOnUse" x1="88.6699" y1="44.9121" x2="88.6699" y2="55.7422">
			<stop  offset="0" style="stop-color:#414142"/>
			<stop  offset="1" style="stop-color:#E7EAE4;stop-opacity:0"/>
		</linearGradient>
		<line fill="url(#SVGID_5_)" x1="88.67" y1="44.912" x2="88.67" y2="55.742"/>
		<linearGradient id="SVGID_6_" gradientUnits="userSpaceOnUse" x1="88.6689" y1="44.3457" x2="88.6689" y2="56.3086">
			<stop  offset="0" style="stop-color:#414142"/>
			<stop  offset="1" style="stop-color:#E7EAE4;stop-opacity:0"/>
		</linearGradient>
		<path fill="url(#SVGID_6_)" d="M88.67,56.309c-0.266,0-0.48-0.254-0.48-0.566v-10.83c0-0.313,0.215-0.566,0.48-0.566
			c0.264,0,0.479,0.254,0.479,0.566v10.83C89.148,56.055,88.934,56.309,88.67,56.309z"/>
	</g>
	<g display="inline">
		<circle fill="#FFFFFF" cx="88.668" cy="33.752" r="7.248"/>
		<linearGradient id="SVGID_7_" gradientUnits="userSpaceOnUse" x1="88.0684" y1="38.0674" x2="89.2676" y2="38.0674">
			<stop  offset="0" style="stop-color:#D2BAA8"/>
			<stop  offset="1" style="stop-color:#D7C0AE"/>
		</linearGradient>
		
			<line fill="none" stroke="url(#SVGID_7_)" stroke-width="1.2" stroke-linecap="round" stroke-miterlimit="10" x1="88.668" y1="44.625" x2="88.668" y2="31.51"/>
		<linearGradient id="SVGID_8_" gradientUnits="userSpaceOnUse" x1="85.7949" y1="35.709" x2="89.0684" y2="35.709">
			<stop  offset="0" style="stop-color:#D2BAA8"/>
			<stop  offset="1" style="stop-color:#D7C0AE"/>
		</linearGradient>
		
			<line fill="none" stroke="url(#SVGID_8_)" stroke-width="0.8" stroke-linecap="round" stroke-miterlimit="10" x1="88.668" y1="36.945" x2="86.195" y2="34.473"/>
		<linearGradient id="SVGID_9_" gradientUnits="userSpaceOnUse" x1="88.2676" y1="35.709" x2="91.543" y2="35.709">
			<stop  offset="0" style="stop-color:#D2BAA8"/>
			<stop  offset="1" style="stop-color:#D7C0AE"/>
		</linearGradient>
		
			<line fill="none" stroke="url(#SVGID_9_)" stroke-width="0.8" stroke-linecap="round" stroke-miterlimit="10" x1="88.668" y1="36.945" x2="91.143" y2="34.473"/>
	</g>
</g>
<g display="none">
	<path display="inline" fill="none" stroke="#CDCCCB" stroke-width="6" stroke-miterlimit="10" d="M23.073,87.719h76.453
		c3.301,0,6-2.7,6-6V54.992c0-3.3,2.701-6,6-6h24.82"/>
</g>
<g display="none">
	<path display="inline" fill="none" stroke="#CDCCCB" stroke-width="6" stroke-miterlimit="10" d="M41.95,57.672h25.359
		c3.3,0,6-2.7,6-6V15.43"/>
</g>
<g display="none">
	<path display="inline" fill="none" stroke="#FFFFFF" stroke-miterlimit="10" stroke-dasharray="3" d="M41.95,57.672h25.359
		c3.3,0,6-2.7,6-6V15.43"/>
</g>
<g display="none">
	<g display="inline" opacity="0.1">
		<linearGradient id="SVGID_10_" gradientUnits="userSpaceOnUse" x1="103.166" y1="43.9805" x2="103.166" y2="54.8125">
			<stop  offset="0" style="stop-color:#414142"/>
			<stop  offset="1" style="stop-color:#E7EAE4;stop-opacity:0"/>
		</linearGradient>
		<line fill="url(#SVGID_10_)" x1="103.166" y1="43.98" x2="103.166" y2="54.813"/>
		<linearGradient id="SVGID_11_" gradientUnits="userSpaceOnUse" x1="103.165" y1="43.416" x2="103.165" y2="55.3789">
			<stop  offset="0" style="stop-color:#414142"/>
			<stop  offset="1" style="stop-color:#E7EAE4;stop-opacity:0"/>
		</linearGradient>
		<path fill="url(#SVGID_11_)" d="M103.166,55.379c-0.266,0-0.48-0.254-0.48-0.566V43.98c0-0.313,0.215-0.564,0.48-0.564
			s0.479,0.252,0.479,0.564v10.832C103.645,55.125,103.432,55.379,103.166,55.379z"/>
	</g>
	<linearGradient id="SVGID_12_" gradientUnits="userSpaceOnUse" x1="95.916" y1="33.3184" x2="110.416" y2="33.3184">
		<stop  offset="0" style="stop-color:#D2BAA8"/>
		<stop  offset="1" style="stop-color:#D7C0AE"/>
	</linearGradient>
	<circle display="inline" fill="url(#SVGID_12_)" cx="103.166" cy="33.318" r="7.25"/>
	<linearGradient id="SVGID_13_" gradientUnits="userSpaceOnUse" x1="95.916" y1="25.4453" x2="110.416" y2="25.4453">
		<stop  offset="0" style="stop-color:#D2BAA8"/>
		<stop  offset="1" style="stop-color:#D7C0AE"/>
	</linearGradient>
	<circle display="inline" fill="url(#SVGID_13_)" cx="103.166" cy="25.445" r="7.25"/>
	
		<line display="inline" fill="none" stroke="#010202" stroke-width="0.8" stroke-linecap="round" stroke-miterlimit="10" x1="103.166" y1="44.191" x2="103.166" y2="21.582"/>
	
		<line display="inline" fill="none" stroke="#010202" stroke-width="0.8" stroke-linecap="round" stroke-miterlimit="10" x1="103.166" y1="36.51" x2="100.691" y2="34.037"/>
	
		<line display="inline" fill="none" stroke="#010202" stroke-width="0.8" stroke-linecap="round" stroke-miterlimit="10" x1="103.166" y1="36.51" x2="105.639" y2="34.037"/>
	
		<line display="inline" fill="none" stroke="#010202" stroke-width="0.8" stroke-linecap="round" stroke-miterlimit="10" x1="103.166" y1="27.918" x2="100.691" y2="25.445"/>
	
		<line display="inline" fill="none" stroke="#010202" stroke-width="0.8" stroke-linecap="round" stroke-miterlimit="10" x1="103.166" y1="27.918" x2="105.639" y2="25.445"/>
</g>
<g display="none">
	<path display="inline" fill="none" stroke="#FFFFFF" stroke-miterlimit="10" stroke-dasharray="3" d="M23.073,87.719h76.453
		c3.301,0,6-2.7,6-6V54.992c0-3.3,2.701-6,6-6h24.82"/>
</g>
<g display="none">
	<g display="inline" opacity="0.1">
		<linearGradient id="SVGID_14_" gradientUnits="userSpaceOnUse" x1="40.6782" y1="112.1035" x2="40.6782" y2="122.9336">
			<stop  offset="0" style="stop-color:#414142"/>
			<stop  offset="1" style="stop-color:#E7EAE4;stop-opacity:0"/>
		</linearGradient>
		<line fill="url(#SVGID_14_)" x1="40.678" y1="112.104" x2="40.678" y2="122.934"/>
		<linearGradient id="SVGID_15_" gradientUnits="userSpaceOnUse" x1="40.6772" y1="111.5371" x2="40.6772" y2="123.5">
			<stop  offset="0" style="stop-color:#414142"/>
			<stop  offset="1" style="stop-color:#E7EAE4;stop-opacity:0"/>
		</linearGradient>
		<path fill="url(#SVGID_15_)" d="M40.678,123.5c-0.266,0-0.48-0.254-0.48-0.566v-10.83c0-0.313,0.215-0.566,0.48-0.566
			s0.479,0.254,0.479,0.566v10.83C41.157,123.246,40.944,123.5,40.678,123.5z"/>
	</g>
	<g display="inline">
		<circle fill="#FFFFFF" cx="40.677" cy="100.943" r="7.249"/>
		<linearGradient id="SVGID_16_" gradientUnits="userSpaceOnUse" x1="40.0781" y1="105.2588" x2="41.2783" y2="105.2588">
			<stop  offset="0" style="stop-color:#D2BAA8"/>
			<stop  offset="1" style="stop-color:#D7C0AE"/>
		</linearGradient>
		
			<line fill="none" stroke="url(#SVGID_16_)" stroke-width="1.2" stroke-linecap="round" stroke-miterlimit="10" x1="40.678" y1="111.816" x2="40.678" y2="98.701"/>
		<linearGradient id="SVGID_17_" gradientUnits="userSpaceOnUse" x1="37.8037" y1="102.9004" x2="41.0781" y2="102.9004">
			<stop  offset="0" style="stop-color:#D2BAA8"/>
			<stop  offset="1" style="stop-color:#D7C0AE"/>
		</linearGradient>
		
			<line fill="none" stroke="url(#SVGID_17_)" stroke-width="0.8" stroke-linecap="round" stroke-miterlimit="10" x1="40.678" y1="104.137" x2="38.204" y2="101.664"/>
		<linearGradient id="SVGID_18_" gradientUnits="userSpaceOnUse" x1="40.2783" y1="102.9004" x2="43.5508" y2="102.9004">
			<stop  offset="0" style="stop-color:#D2BAA8"/>
			<stop  offset="1" style="stop-color:#D7C0AE"/>
		</linearGradient>
		
			<line fill="none" stroke="url(#SVGID_18_)" stroke-width="0.8" stroke-linecap="round" stroke-miterlimit="10" x1="40.678" y1="104.137" x2="43.151" y2="101.664"/>
	</g>
</g>
<g display="none">
	<g display="inline" opacity="0.1">
		<linearGradient id="SVGID_19_" gradientUnits="userSpaceOnUse" x1="89.6699" y1="71.8457" x2="89.6699" y2="82.6763">
			<stop  offset="0" style="stop-color:#414142"/>
			<stop  offset="1" style="stop-color:#E7EAE4;stop-opacity:0"/>
		</linearGradient>
		<line fill="url(#SVGID_19_)" x1="89.67" y1="71.846" x2="89.67" y2="82.676"/>
		<linearGradient id="SVGID_20_" gradientUnits="userSpaceOnUse" x1="89.6689" y1="71.2793" x2="89.6689" y2="83.2427">
			<stop  offset="0" style="stop-color:#414142"/>
			<stop  offset="1" style="stop-color:#E7EAE4;stop-opacity:0"/>
		</linearGradient>
		<path fill="url(#SVGID_20_)" d="M89.67,83.242c-0.266,0-0.48-0.254-0.48-0.566v-10.83c0-0.313,0.215-0.566,0.48-0.566
			c0.264,0,0.479,0.254,0.479,0.566v10.83C90.148,82.988,89.934,83.242,89.67,83.242z"/>
	</g>
	<linearGradient id="SVGID_21_" gradientUnits="userSpaceOnUse" x1="82.4199" y1="61.5566" x2="96.918" y2="61.5566">
		<stop  offset="0" style="stop-color:#D2BAA8"/>
		<stop  offset="1" style="stop-color:#D7C0AE"/>
	</linearGradient>
	<circle display="inline" fill="url(#SVGID_21_)" cx="89.669" cy="61.557" r="7.249"/>
	
		<line display="inline" fill="none" stroke="#010202" stroke-width="0.8" stroke-linecap="round" stroke-miterlimit="10" x1="89.67" y1="72.43" x2="89.67" y2="59.313"/>
	
		<line display="inline" fill="none" stroke="#010202" stroke-width="0.8" stroke-linecap="round" stroke-miterlimit="10" x1="89.67" y1="64.75" x2="87.195" y2="62.275"/>
	
		<line display="inline" fill="none" stroke="#010202" stroke-width="0.8" stroke-linecap="round" stroke-miterlimit="10" x1="89.67" y1="64.75" x2="92.143" y2="62.275"/>
</g>
<g display="none">
	<g display="inline" opacity="0.1">
		<linearGradient id="SVGID_22_" gradientUnits="userSpaceOnUse" x1="62.8325" y1="111.6992" x2="62.8325" y2="122.5293">
			<stop  offset="0" style="stop-color:#414142"/>
			<stop  offset="1" style="stop-color:#E7EAE4;stop-opacity:0"/>
		</linearGradient>
		<line fill="url(#SVGID_22_)" x1="62.833" y1="111.699" x2="62.833" y2="122.529"/>
		<linearGradient id="SVGID_23_" gradientUnits="userSpaceOnUse" x1="62.8325" y1="111.1328" x2="62.8325" y2="123.0957">
			<stop  offset="0" style="stop-color:#414142"/>
			<stop  offset="1" style="stop-color:#E7EAE4;stop-opacity:0"/>
		</linearGradient>
		<path fill="url(#SVGID_23_)" d="M62.833,123.096c-0.266,0-0.48-0.252-0.48-0.566v-10.83c0-0.313,0.215-0.566,0.48-0.566
			s0.48,0.254,0.48,0.566v10.83C63.313,122.844,63.098,123.096,62.833,123.096z"/>
	</g>
	<g display="inline">
		<circle fill="#FFFFFF" cx="62.833" cy="101.035" r="7.25"/>
		<circle fill="#FFFFFF" cx="62.833" cy="93.164" r="7.25"/>
		<linearGradient id="SVGID_24_" gradientUnits="userSpaceOnUse" x1="62.2305" y1="100.6045" x2="63.4307" y2="100.6045">
			<stop  offset="0" style="stop-color:#D2BAA8"/>
			<stop  offset="1" style="stop-color:#D7C0AE"/>
		</linearGradient>
		
			<line fill="none" stroke="url(#SVGID_24_)" stroke-width="1.2" stroke-linecap="round" stroke-miterlimit="10" x1="62.831" y1="111.908" x2="62.831" y2="89.301"/>
		<linearGradient id="SVGID_25_" gradientUnits="userSpaceOnUse" x1="59.958" y1="102.9912" x2="63.2305" y2="102.9912">
			<stop  offset="0" style="stop-color:#D2BAA8"/>
			<stop  offset="1" style="stop-color:#D7C0AE"/>
		</linearGradient>
		
			<line fill="none" stroke="url(#SVGID_25_)" stroke-width="0.8" stroke-linecap="round" stroke-miterlimit="10" x1="62.831" y1="104.229" x2="60.358" y2="101.754"/>
		<linearGradient id="SVGID_26_" gradientUnits="userSpaceOnUse" x1="62.4307" y1="102.9912" x2="65.7051" y2="102.9912">
			<stop  offset="0" style="stop-color:#D2BAA8"/>
			<stop  offset="1" style="stop-color:#D7C0AE"/>
		</linearGradient>
		
			<line fill="none" stroke="url(#SVGID_26_)" stroke-width="0.8" stroke-linecap="round" stroke-miterlimit="10" x1="62.831" y1="104.229" x2="65.305" y2="101.754"/>
		<linearGradient id="SVGID_27_" gradientUnits="userSpaceOnUse" x1="59.958" y1="94.4004" x2="63.2305" y2="94.4004">
			<stop  offset="0" style="stop-color:#D2BAA8"/>
			<stop  offset="1" style="stop-color:#D7C0AE"/>
		</linearGradient>
		
			<line fill="none" stroke="url(#SVGID_27_)" stroke-width="0.8" stroke-linecap="round" stroke-miterlimit="10" x1="62.831" y1="95.637" x2="60.358" y2="93.164"/>
		<linearGradient id="SVGID_28_" gradientUnits="userSpaceOnUse" x1="62.4307" y1="94.4004" x2="65.7051" y2="94.4004">
			<stop  offset="0" style="stop-color:#D2BAA8"/>
			<stop  offset="1" style="stop-color:#D7C0AE"/>
		</linearGradient>
		
			<line fill="none" stroke="url(#SVGID_28_)" stroke-width="0.8" stroke-linecap="round" stroke-miterlimit="10" x1="62.831" y1="95.637" x2="65.305" y2="93.164"/>
	</g>
</g>
<g display="none">
	<g display="inline" opacity="0.15">
		<linearGradient id="SVGID_29_" gradientUnits="userSpaceOnUse" x1="108.1563" y1="101.9434" x2="108.1563" y2="110.5332">
			<stop  offset="0" style="stop-color:#414142"/>
			<stop  offset="1" style="stop-color:#E7EAE4;stop-opacity:0"/>
		</linearGradient>
		<line fill="url(#SVGID_29_)" x1="108.156" y1="101.943" x2="108.156" y2="110.533"/>
		<linearGradient id="SVGID_30_" gradientUnits="userSpaceOnUse" x1="108.1582" y1="101.4941" x2="108.1582" y2="110.9844">
			<stop  offset="0" style="stop-color:#414142"/>
			<stop  offset="1" style="stop-color:#E7EAE4;stop-opacity:0"/>
		</linearGradient>
		<path fill="url(#SVGID_30_)" d="M108.156,110.984c-0.209,0-0.379-0.203-0.379-0.451v-8.59c0-0.248,0.17-0.449,0.379-0.449
			c0.211,0,0.383,0.201,0.383,0.449v8.59C108.539,110.781,108.367,110.984,108.156,110.984z"/>
	</g>
	<path display="inline" fill="#E84C3D" d="M111.182,84.42c1.219,0,2.338,0.41,3.24,1.094c0.182,0.182,0.377,0.346,0.582,0.5
		c0.9,0.684,2.021,1.094,3.24,1.094h3.023v7.975h-3.023c-1.219,0-2.34-0.408-3.24-1.092c-0.182-0.184-0.377-0.348-0.582-0.502
		c-0.902-0.684-2.021-1.094-3.24-1.094h-3.025V84.42H111.182z"/>
	
		<line display="inline" fill="#B6B6B2" stroke="#231F20" stroke-width="0.7615" stroke-linecap="round" stroke-miterlimit="10" x1="108.156" y1="84.42" x2="108.156" y2="102.016"/>
</g>
<g display="none">
	<linearGradient id="SVGID_31_" gradientUnits="userSpaceOnUse" x1="56.6099" y1="51.2471" x2="56.6099" y2="74.6094">
		<stop  offset="0" style="stop-color:#E6D0BD"/>
		<stop  offset="1" style="stop-color:#ECD6C2"/>
	</linearGradient>
	<rect x="49.166" y="51.247" display="inline" fill="url(#SVGID_31_)" width="14.889" height="23.362"/>
	<linearGradient id="SVGID_32_" gradientUnits="userSpaceOnUse" x1="56.6099" y1="74.6094" x2="56.6099" y2="85.4839">
		<stop  offset="0" style="stop-color:#414142"/>
		<stop  offset="1" style="stop-color:#E7EAE4;stop-opacity:0"/>
	</linearGradient>
	<rect x="49.166" y="74.609" display="inline" opacity="0.1" fill="url(#SVGID_32_)" width="14.889" height="10.874"/>
	<linearGradient id="SVGID_33_" gradientUnits="userSpaceOnUse" x1="56.6294" y1="49.1689" x2="56.6294" y2="53.3242">
		<stop  offset="0" style="stop-color:#939599"/>
		<stop  offset="1" style="stop-color:#A0A2A5"/>
	</linearGradient>
	<polygon display="inline" fill="url(#SVGID_33_)" points="64.055,49.169 62.332,50.895 50.927,50.895 49.204,49.169 47.127,51.248 
		49.166,53.285 49.166,53.324 64.055,53.324 66.131,51.248 	"/>
	<linearGradient id="SVGID_34_" gradientUnits="userSpaceOnUse" x1="56.6099" y1="41.6504" x2="56.6099" y2="51.2471">
		<stop  offset="0" style="stop-color:#E6D0BD"/>
		<stop  offset="1" style="stop-color:#ECD6C2"/>
	</linearGradient>
	<rect x="47.128" y="41.65" display="inline" fill="url(#SVGID_34_)" width="18.964" height="9.597"/>
	<linearGradient id="SVGID_35_" gradientUnits="userSpaceOnUse" x1="56.6099" y1="29.4141" x2="56.6099" y2="41.6504">
		<stop  offset="0" style="stop-color:#929497"/>
		<stop  offset="1" style="stop-color:#A0A1A5"/>
	</linearGradient>
	<rect x="47.128" y="29.414" display="inline" fill="url(#SVGID_35_)" width="18.964" height="12.236"/>
	<linearGradient id="SVGID_36_" gradientUnits="userSpaceOnUse" x1="49.1655" y1="34.8496" x2="64.0547" y2="34.8496">
		<stop  offset="0" style="stop-color:#D2BAA8"/>
		<stop  offset="1" style="stop-color:#D7C0AE"/>
	</linearGradient>
	<rect x="49.166" y="30.402" display="inline" fill="url(#SVGID_36_)" width="14.889" height="8.895"/>
	<rect x="50.106" y="43.854" display="inline" fill="#0D0D0D" width="2.351" height="5.19"/>
	<rect x="60.763" y="43.854" display="inline" fill="#0D0D0D" width="2.351" height="5.19"/>
	<rect x="57.211" y="43.854" display="inline" fill="#0D0D0D" width="2.351" height="5.19"/>
	<rect x="53.659" y="43.854" display="inline" fill="#0D0D0D" width="2.351" height="5.19"/>
</g>
</svg>
