<?xml version="1.0" encoding="utf-8"?>
<!-- Generator: Adobe Illustrator 16.0.0, SVG Export Plug-In . SVG Version: 6.00 Build 0)  -->
<!DOCTYPE svg PUBLIC "-//W3C//DTD SVG 1.1//EN" "http://www.w3.org/Graphics/SVG/1.1/DTD/svg11.dtd">
<svg version="1.1" id="Livello_1" xmlns="http://www.w3.org/2000/svg" xmlns:xlink="http://www.w3.org/1999/xlink" x="0px" y="0px"
	 width="133px" height="133px" viewBox="0 0 133 133" enable-background="new 0 0 133 133" xml:space="preserve">
<g display="none">
	<path display="inline" fill="#98D0D9" d="M89.291,27.176c-5.5,0-10-4.5-10-10v-6.432c0-5.5-4.5-10-10-10H10c-5.5,0-10,4.5-10,10
		v32.861c0,5.5,4.5,10,10,10h6.43c5.5,0,10,4.5,10,10v32.857c0,5.5,4.5,10,10,10h6.43c5.5,0,10,4.5,10,10v6.432c0,5.5,4.5,10,10,10
		h32.861c5.5,0,10-4.5,10-10V90.035c0-5.5,4.5-10,10-10h6.43c5.5,0,10-4.5,10-10V37.176c0-5.5-4.5-10-10-10H89.291z"/>
</g>
<g>
	<path fill="none" stroke="#FFFFFF" stroke-miterlimit="10" d="M81.188,38.502c-3.119,0-5.672-2.552-5.672-5.672v-7.535
		c0-3.12-2.553-5.672-5.672-5.672H24.551c-3.12,0-5.672,2.552-5.672,5.672v26.414c0,3.12,2.552,5.672,5.672,5.672h7.535
		c3.12,0,5.672,2.552,5.672,5.672v26.412c0,3.119,2.552,5.672,5.672,5.672h7.533c3.12,0,5.672,2.553,5.672,5.672v7.535
		c0,3.119,2.552,5.672,5.672,5.672h26.414c3.119,0,5.672-2.553,5.672-5.672V81.932c0-3.119,2.553-5.672,5.672-5.672h7.535
		c3.119,0,5.672-2.553,5.672-5.672V44.174c0-3.12-2.553-5.672-5.672-5.672H81.188z"/>
</g>
<g>
	<path fill="none" stroke="#FFFFFF" stroke-miterlimit="10" d="M81.188,30.4c-3.119,0-5.672-2.552-5.672-5.672v-7.537
		c0-3.12-2.553-5.672-5.672-5.672H24.551c-3.12,0-5.672,2.552-5.672,5.672v26.416c0,3.12,2.552,5.672,5.672,5.672h7.535
		c3.12,0,5.672,2.552,5.672,5.672v26.41c0,3.119,2.552,5.672,5.672,5.672h7.533c3.12,0,5.672,2.553,5.672,5.672v7.537
		c0,3.119,2.552,5.672,5.672,5.672h26.414c3.119,0,5.672-2.553,5.672-5.672V73.828c0-3.119,2.553-5.672,5.672-5.672h7.535
		c3.119,0,5.672-2.552,5.672-5.672V36.072c0-3.12-2.553-5.672-5.672-5.672H81.188z"/>
</g>
<g display="none">
	<g display="inline" opacity="0.1">
		<linearGradient id="SVGID_1_" gradientUnits="userSpaceOnUse" x1="49.1953" y1="40.2305" x2="49.1953" y2="51.0605">
			<stop  offset="0" style="stop-color:#414142"/>
			<stop  offset="1" style="stop-color:#E7EAE4;stop-opacity:0"/>
		</linearGradient>
		<line fill="url(#SVGID_1_)" x1="49.195" y1="40.23" x2="49.195" y2="51.061"/>
		<linearGradient id="SVGID_2_" gradientUnits="userSpaceOnUse" x1="49.1953" y1="39.6641" x2="49.1953" y2="51.627">
			<stop  offset="0" style="stop-color:#414142"/>
			<stop  offset="1" style="stop-color:#E7EAE4;stop-opacity:0"/>
		</linearGradient>
		<path fill="url(#SVGID_2_)" d="M49.195,51.627c-0.264,0-0.479-0.254-0.479-0.566V40.23c0-0.313,0.215-0.566,0.479-0.566
			c0.266,0,0.479,0.254,0.479,0.566v10.83C49.674,51.373,49.461,51.627,49.195,51.627z"/>
	</g>
	<linearGradient id="SVGID_3_" gradientUnits="userSpaceOnUse" x1="41.9473" y1="29.9414" x2="56.4434" y2="29.9414">
		<stop  offset="0" style="stop-color:#D2BAA8"/>
		<stop  offset="1" style="stop-color:#D7C0AE"/>
	</linearGradient>
	<circle display="inline" fill="url(#SVGID_3_)" cx="49.195" cy="29.941" r="7.248"/>
	
		<line display="inline" fill="none" stroke="#010202" stroke-width="0.8" stroke-linecap="round" stroke-miterlimit="10" x1="49.195" y1="40.814" x2="49.195" y2="27.697"/>
	
		<line display="inline" fill="none" stroke="#010202" stroke-width="0.8" stroke-linecap="round" stroke-miterlimit="10" x1="49.195" y1="33.135" x2="46.723" y2="30.66"/>
	
		<line display="inline" fill="none" stroke="#010202" stroke-width="0.8" stroke-linecap="round" stroke-miterlimit="10" x1="49.195" y1="33.135" x2="51.67" y2="30.66"/>
</g>
<g display="none">
	<g display="inline" opacity="0.1">
		<linearGradient id="SVGID_4_" gradientUnits="userSpaceOnUse" x1="100.1387" y1="56.1309" x2="100.1387" y2="66.9609">
			<stop  offset="0" style="stop-color:#414142"/>
			<stop  offset="1" style="stop-color:#E7EAE4;stop-opacity:0"/>
		</linearGradient>
		<line fill="url(#SVGID_4_)" x1="100.139" y1="56.131" x2="100.139" y2="66.961"/>
		<linearGradient id="SVGID_5_" gradientUnits="userSpaceOnUse" x1="100.1377" y1="55.5645" x2="100.1377" y2="67.5278">
			<stop  offset="0" style="stop-color:#414142"/>
			<stop  offset="1" style="stop-color:#E7EAE4;stop-opacity:0"/>
		</linearGradient>
		<path fill="url(#SVGID_5_)" d="M100.139,67.527c-0.266,0-0.48-0.254-0.48-0.566v-10.83c0-0.313,0.215-0.566,0.48-0.566
			c0.264,0,0.479,0.254,0.479,0.566v10.83C100.617,67.273,100.402,67.527,100.139,67.527z"/>
	</g>
	<linearGradient id="SVGID_6_" gradientUnits="userSpaceOnUse" x1="92.8906" y1="45.8418" x2="107.3867" y2="45.8418">
		<stop  offset="0" style="stop-color:#D2BAA8"/>
		<stop  offset="1" style="stop-color:#D7C0AE"/>
	</linearGradient>
	<circle display="inline" fill="url(#SVGID_6_)" cx="100.139" cy="45.842" r="7.248"/>
	
		<line display="inline" fill="none" stroke="#010202" stroke-width="0.8" stroke-linecap="round" stroke-miterlimit="10" x1="100.139" y1="56.715" x2="100.139" y2="43.598"/>
	
		<line display="inline" fill="none" stroke="#010202" stroke-width="0.8" stroke-linecap="round" stroke-miterlimit="10" x1="100.139" y1="49.035" x2="97.664" y2="46.561"/>
	
		<line display="inline" fill="none" stroke="#010202" stroke-width="0.8" stroke-linecap="round" stroke-miterlimit="10" x1="100.139" y1="49.035" x2="102.611" y2="46.561"/>
</g>
<g display="none">
	<g display="inline" opacity="0.15">
		<linearGradient id="SVGID_7_" gradientUnits="userSpaceOnUse" x1="87.0273" y1="97.627" x2="87.0273" y2="106.2188">
			<stop  offset="0" style="stop-color:#414142"/>
			<stop  offset="1" style="stop-color:#E7EAE4;stop-opacity:0"/>
		</linearGradient>
		<line fill="url(#SVGID_7_)" x1="87.027" y1="97.627" x2="87.027" y2="106.219"/>
		<linearGradient id="SVGID_8_" gradientUnits="userSpaceOnUse" x1="87.0273" y1="97.1777" x2="87.0273" y2="106.668">
			<stop  offset="0" style="stop-color:#414142"/>
			<stop  offset="1" style="stop-color:#E7EAE4;stop-opacity:0"/>
		</linearGradient>
		<path fill="url(#SVGID_8_)" d="M87.027,106.668c-0.209,0-0.381-0.201-0.381-0.449v-8.592c0-0.246,0.172-0.449,0.381-0.449
			c0.211,0,0.381,0.203,0.381,0.449v8.592C87.408,106.467,87.238,106.668,87.027,106.668z"/>
	</g>
	<path display="inline" fill="#3399CC" d="M90.053,80.104c1.219,0,2.338,0.41,3.24,1.094c0.182,0.182,0.377,0.346,0.58,0.5
		c0.902,0.686,2.023,1.096,3.24,1.096h3.025v7.975h-3.025c-1.217,0-2.338-0.41-3.24-1.094c-0.18-0.182-0.375-0.346-0.58-0.502
		c-0.902-0.682-2.021-1.094-3.24-1.094h-3.025v-7.975H90.053z"/>
	
		<line display="inline" fill="#B6B6B2" stroke="#231F20" stroke-width="0.7615" stroke-linecap="round" stroke-miterlimit="10" x1="87.027" y1="80.104" x2="87.027" y2="97.701"/>
</g>
<g display="none">
	<g display="inline" opacity="0.1">
		<linearGradient id="SVGID_9_" gradientUnits="userSpaceOnUse" x1="35.1289" y1="39.0918" x2="35.1289" y2="49.9219">
			<stop  offset="0" style="stop-color:#414142"/>
			<stop  offset="1" style="stop-color:#E7EAE4;stop-opacity:0"/>
		</linearGradient>
		<line fill="url(#SVGID_9_)" x1="35.129" y1="39.092" x2="35.129" y2="49.922"/>
		<linearGradient id="SVGID_10_" gradientUnits="userSpaceOnUse" x1="35.1299" y1="38.5254" x2="35.1299" y2="50.4883">
			<stop  offset="0" style="stop-color:#414142"/>
			<stop  offset="1" style="stop-color:#E7EAE4;stop-opacity:0"/>
		</linearGradient>
		<path fill="url(#SVGID_10_)" d="M35.129,50.488c-0.264,0-0.479-0.252-0.479-0.566v-10.83c0-0.313,0.215-0.566,0.479-0.566
			c0.266,0,0.48,0.254,0.48,0.566v10.83C35.609,50.236,35.395,50.488,35.129,50.488z"/>
	</g>
	<g display="inline">
		<circle fill="#FFFFFF" cx="35.13" cy="28.428" r="7.249"/>
		<circle fill="#FFFFFF" cx="35.13" cy="20.557" r="7.249"/>
		<linearGradient id="SVGID_11_" gradientUnits="userSpaceOnUse" x1="34.5288" y1="27.9971" x2="35.729" y2="27.9971">
			<stop  offset="0" style="stop-color:#D2BAA8"/>
			<stop  offset="1" style="stop-color:#D7C0AE"/>
		</linearGradient>
		
			<line fill="none" stroke="url(#SVGID_11_)" stroke-width="1.2" stroke-linecap="round" stroke-miterlimit="10" x1="35.129" y1="39.301" x2="35.129" y2="16.693"/>
		<linearGradient id="SVGID_12_" gradientUnits="userSpaceOnUse" x1="32.2563" y1="30.3838" x2="35.5288" y2="30.3838">
			<stop  offset="0" style="stop-color:#D2BAA8"/>
			<stop  offset="1" style="stop-color:#D7C0AE"/>
		</linearGradient>
		
			<line fill="none" stroke="url(#SVGID_12_)" stroke-width="0.8" stroke-linecap="round" stroke-miterlimit="10" x1="35.129" y1="31.621" x2="32.656" y2="29.146"/>
		<linearGradient id="SVGID_13_" gradientUnits="userSpaceOnUse" x1="34.729" y1="30.3838" x2="38.0015" y2="30.3838">
			<stop  offset="0" style="stop-color:#D2BAA8"/>
			<stop  offset="1" style="stop-color:#D7C0AE"/>
		</linearGradient>
		
			<line fill="none" stroke="url(#SVGID_13_)" stroke-width="0.8" stroke-linecap="round" stroke-miterlimit="10" x1="35.129" y1="31.621" x2="37.602" y2="29.146"/>
		<linearGradient id="SVGID_14_" gradientUnits="userSpaceOnUse" x1="32.2563" y1="21.793" x2="35.5288" y2="21.793">
			<stop  offset="0" style="stop-color:#D2BAA8"/>
			<stop  offset="1" style="stop-color:#D7C0AE"/>
		</linearGradient>
		
			<line fill="none" stroke="url(#SVGID_14_)" stroke-width="0.8" stroke-linecap="round" stroke-miterlimit="10" x1="35.129" y1="23.029" x2="32.656" y2="20.557"/>
		<linearGradient id="SVGID_15_" gradientUnits="userSpaceOnUse" x1="34.729" y1="21.793" x2="38.0015" y2="21.793">
			<stop  offset="0" style="stop-color:#D2BAA8"/>
			<stop  offset="1" style="stop-color:#D7C0AE"/>
		</linearGradient>
		
			<line fill="none" stroke="url(#SVGID_15_)" stroke-width="0.8" stroke-linecap="round" stroke-miterlimit="10" x1="35.129" y1="23.029" x2="37.602" y2="20.557"/>
	</g>
</g>
<g display="none">
	<g display="inline">
		<path fill="#FFFFFF" d="M76.597,18.396l-0.688-1.292c-0.865-1.469-2.456-2.461-4.283-2.461c-1.824,0-3.42,0.992-4.282,2.461
			l-0.687,1.292v0.836l0.02,0.002c-0.01,0.127-0.02,0.251-0.02,0.383c0,2.202,1.436,4.069,3.421,4.721v2.323h3.22V24.29
			c1.922-0.686,3.299-2.518,3.299-4.673c0-0.132-0.01-0.256-0.02-0.383l0.02-0.002V18.396z"/>
		<circle fill="#FFFFFF" cx="71.627" cy="18.613" r="4.97"/>
		<path fill="#333034" d="M65.559,30.097l-5.316,14.62c2.19,2.281,6.465,3.827,11.383,3.827c4.893,0,9.15-1.531,11.354-3.795
			l-5.283-14.652"/>
		<rect x="62.25" y="52.004" fill="#333034" width="18.742" height="8.004"/>
		<polygon fill="#FFFFFF" points="69.335,56.265 64.583,56.265 66.122,54.166 66.066,44.955 69.335,44.955 		"/>
		<polygon fill="#FFFFFF" points="73.921,56.265 78.671,56.265 77.134,54.166 77.151,44.955 73.921,44.955 		"/>
		<linearGradient id="SVGID_16_" gradientUnits="userSpaceOnUse" x1="65.3604" y1="31.6553" x2="77.8955" y2="31.6553">
			<stop  offset="0" style="stop-color:#E6D0BD"/>
			<stop  offset="1" style="stop-color:#EBD5C2"/>
		</linearGradient>
		<circle fill="url(#SVGID_16_)" cx="71.628" cy="31.654" r="6.268"/>
		<linearGradient id="SVGID_17_" gradientUnits="userSpaceOnUse" x1="65.3604" y1="38.6802" x2="77.8955" y2="38.6802">
			<stop  offset="0" style="stop-color:#E6D0BD"/>
			<stop  offset="1" style="stop-color:#EBD5C2"/>
		</linearGradient>
		<polygon fill="url(#SVGID_17_)" points="77.151,44.955 66.066,44.955 65.36,32.405 77.896,32.405 		"/>
		
			<line fill="none" stroke="#333034" stroke-width="0.6215" stroke-linecap="round" stroke-miterlimit="10" x1="71.64" y1="21.961" x2="71.64" y2="19.267"/>
		<linearGradient id="SVGID_18_" gradientUnits="userSpaceOnUse" x1="62.25" y1="67.0742" x2="80.9922" y2="67.0742">
			<stop  offset="0" style="stop-color:#CFB9A7"/>
			<stop  offset="1" style="stop-color:#D6C0AE"/>
		</linearGradient>
		<rect x="62.25" y="60.008" fill="url(#SVGID_18_)" width="18.742" height="14.133"/>
	</g>
	<linearGradient id="SVGID_19_" gradientUnits="userSpaceOnUse" x1="71.6211" y1="74.1406" x2="71.6211" y2="94.4746">
		<stop  offset="0" style="stop-color:#434244"/>
		<stop  offset="1" style="stop-color:#E6E9E3;stop-opacity:0"/>
	</linearGradient>
	<rect x="62.25" y="74.141" display="inline" opacity="0.1" fill="url(#SVGID_19_)" width="18.742" height="20.334"/>
</g>
</svg>
