<?xml version="1.0" encoding="utf-8"?>
<!-- Generator: Adobe Illustrator 17.0.2, SVG Export Plug-In . SVG Version: 6.00 Build 0)  -->
<!DOCTYPE svg PUBLIC "-//W3C//DTD SVG 1.1//EN" "http://www.w3.org/Graphics/SVG/1.1/DTD/svg11.dtd">
<svg version="1.1" xmlns="http://www.w3.org/2000/svg" xmlns:xlink="http://www.w3.org/1999/xlink" x="0px" y="0px"
	 width="902.345px" height="1921.447px" viewBox="0 0 902.345 1921.447" enable-background="new 0 0 902.345 1921.447"
	 xml:space="preserve">
<g id="Livello_1" display="none" opacity="0.2">
	
		<image display="inline" overflow="visible" width="438" height="470" xlink:href="../../../../../../Desktop/stock-vector-forget-me-blue-flower-isolated-107619575.jpg"  transform="matrix(1.6574 0 0 1.6574 98.4567 53.1888)">
	</image>
</g>
<g id="Livello_2" display="none">
	<polyline display="inline" fill="none" stroke="#F6F6F5" stroke-width="2" stroke-miterlimit="10" points="410.662,356.076 
		398.05,280.399 404.356,239.408 339.716,167.41 229.88,142.185 147.897,181.074 109.534,264.633 127.402,358.703 178.378,406.527 	
		"/>
	<polyline display="inline" fill="none" stroke="#F6F6F5" stroke-width="2" stroke-miterlimit="10" points="339.716,167.41 
		414.867,230.474 421.699,283.553 451.654,350.82 	"/>
	<polyline display="inline" fill="none" stroke="#F6F6F5" stroke-width="2" stroke-miterlimit="10" points="489.251,376.458 
		541.613,359.243 626.554,344.447 692.059,243.837 683.336,131.48 621.74,64.851 530.537,53.189 446.095,98.332 395.685,214.377 	
		"/>
	<polyline display="inline" fill="none" stroke="#F6F6F5" stroke-miterlimit="10" points="692.059,243.837 638.219,351.811 
		574.628,369.214 506.507,406.527 	"/>
	<circle display="inline" fill="#336DB4" cx="148.923" cy="181.992" r="5.365"/>
	<circle display="inline" fill="#336DB4" cx="109.534" cy="264.48" r="3.219"/>
	<circle display="inline" fill="#336DB4" cx="178.448" cy="406.527" r="3.219"/>
	<circle display="inline" fill="#336DB4" cx="339.716" cy="167.41" r="5.365"/>
	<circle display="inline" fill="#336DB4" cx="621.647" cy="66.742" r="5.365"/>
	<circle display="inline" fill="#336DB4" cx="682.514" cy="131.055" r="3.219"/>
	<circle display="inline" fill="#336DB4" cx="692.059" cy="243.837" r="5.365"/>
	<circle display="inline" fill="#336DB4" cx="626.194" cy="343.613" r="1.931"/>
	<circle display="inline" fill="#336DB4" cx="539.121" cy="359.285" r="3.219"/>
	<circle display="inline" fill="#336DB4" cx="490.098" cy="374.31" r="5.365"/>
	<circle display="inline" fill="#336DB4" cx="638.285" cy="351.265" r="3.219"/>
	<circle display="inline" fill="#336DB4" cx="576.19" cy="368.945" r="1.931"/>
	<circle display="inline" fill="#336DB4" cx="403.68" cy="238.473" r="1.931"/>
	<circle display="inline" fill="#336DB4" cx="398.316" cy="282.258" r="3.219"/>
	<circle display="inline" fill="#336DB4" cx="421.392" cy="283.975" r="1.931"/>
	<circle display="inline" fill="#336DB4" cx="416.027" cy="231.433" r="1.931"/>
	<circle display="inline" fill="#336DB4" cx="395.685" cy="214.823" r="5.365"/>
	<circle display="inline" fill="#336DB4" cx="451.654" cy="350.82" r="5.365"/>
	<circle display="inline" fill="#336DB4" cx="410.662" cy="356.185" r="5.365"/>
	<circle display="inline" fill="#336DB4" cx="229.682" cy="142.185" r="3.219"/>
	<circle display="inline" fill="#336DB4" cx="446.289" cy="98.249" r="3.219"/>
	<circle display="inline" fill="#336DB4" cx="530.537" cy="53.189" r="3.219"/>
	<circle display="inline" fill="#336DB4" cx="127.048" cy="359.285" r="1.931"/>
	
		<image display="inline" overflow="visible" width="2160" height="1394" xlink:href="../../../../../../Desktop/Schermata 2014-12-21 alle 18.27.28.png"  transform="matrix(0.1272 0 0 0.1272 -239.5402 85.2865)">
	</image>
	<polyline display="inline" fill="none" stroke="#F6F6F5" stroke-width="2" stroke-miterlimit="10" points="410.662,356.076 
		398.05,280.399 404.356,239.408 339.716,167.41 229.88,142.185 147.897,181.074 109.534,264.633 127.402,358.703 178.378,406.527 	
		"/>
	<polyline display="inline" fill="none" stroke="#F6F6F5" stroke-width="2" stroke-miterlimit="10" points="339.716,167.41 
		414.867,230.474 421.699,283.553 451.654,350.82 	"/>
	<polyline display="inline" fill="none" stroke="#F6F6F5" stroke-width="2" stroke-miterlimit="10" points="489.251,376.458 
		541.613,359.243 626.554,344.447 692.059,243.837 683.336,131.48 621.74,64.851 530.537,53.189 446.095,98.332 395.685,214.377 	
		"/>
	<polyline display="inline" fill="none" stroke="#F6F6F5" stroke-miterlimit="10" points="692.059,243.837 638.219,351.811 
		574.628,369.214 506.507,406.527 	"/>
	<circle display="inline" fill="#336DB4" cx="148.923" cy="181.992" r="5.365"/>
	<circle display="inline" fill="#336DB4" cx="109.534" cy="264.48" r="3.219"/>
	<circle display="inline" fill="#336DB4" cx="178.448" cy="406.527" r="3.219"/>
	<circle display="inline" fill="#336DB4" cx="339.716" cy="167.41" r="5.365"/>
	<circle display="inline" fill="#336DB4" cx="621.647" cy="66.742" r="5.365"/>
	<circle display="inline" fill="#336DB4" cx="682.514" cy="131.055" r="3.219"/>
	<circle display="inline" fill="#336DB4" cx="692.059" cy="243.837" r="5.365"/>
	<circle display="inline" fill="#336DB4" cx="626.194" cy="343.613" r="1.931"/>
	<circle display="inline" fill="#336DB4" cx="539.121" cy="359.285" r="3.219"/>
	<circle display="inline" fill="#336DB4" cx="490.098" cy="374.31" r="5.365"/>
	<circle display="inline" fill="#336DB4" cx="638.285" cy="351.265" r="3.219"/>
	<circle display="inline" fill="#336DB4" cx="576.19" cy="368.945" r="1.931"/>
	<circle display="inline" fill="#336DB4" cx="403.68" cy="238.473" r="1.931"/>
	<circle display="inline" fill="#336DB4" cx="398.316" cy="282.258" r="3.219"/>
	<circle display="inline" fill="#336DB4" cx="421.392" cy="283.975" r="1.931"/>
	<circle display="inline" fill="#336DB4" cx="416.027" cy="231.433" r="1.931"/>
	<circle display="inline" fill="#336DB4" cx="395.685" cy="214.823" r="5.365"/>
	<circle display="inline" fill="#336DB4" cx="451.654" cy="350.82" r="5.365"/>
	<circle display="inline" fill="#336DB4" cx="410.662" cy="356.185" r="5.365"/>
	<circle display="inline" fill="#336DB4" cx="229.682" cy="142.185" r="3.219"/>
	<circle display="inline" fill="#336DB4" cx="446.289" cy="98.249" r="3.219"/>
	<circle display="inline" fill="#336DB4" cx="530.537" cy="53.189" r="3.219"/>
	<circle display="inline" fill="#336DB4" cx="127.048" cy="359.285" r="1.931"/>
	
		<image display="inline" overflow="visible" width="2160" height="1394" xlink:href="../../../../../../Desktop/Schermata 2014-12-21 alle 18.27.28.png"  transform="matrix(0.1272 0 0 0.1272 -239.5402 85.2865)">
	</image>
</g>
<g id="Livello_3" display="none">
	
		<image overflow="visible" width="3840" height="2400" xlink:href="../../../../../../Desktop/Schermata 2014-12-21 alle 18.42.18.png"  transform="matrix(0.2369 0 0 0.2369 -73.0323 26.4415)">
	</image>
	<path display="inline" fill="none" stroke="#F6F6F5" stroke-width="2" stroke-miterlimit="10" d="M112.753,264.48
		c0,0,100.431,3.219,68.914,142.046"/>
	<path display="inline" fill="none" stroke="#F6F6F5" stroke-width="2" stroke-miterlimit="10" d="M127.048,359.285
		C361.479,280.01,339.716,167.41,339.716,167.41"/>
	<path display="inline" fill="none" stroke="#F6F6F5" stroke-width="2" stroke-miterlimit="10" d="M148.923,181.992
		c0,0,176.553,30.235,246.174,100.266"/>
	<path display="inline" fill="none" stroke="#F6F6F5" stroke-width="2" stroke-miterlimit="10" d="M109.534,264.633
		c0,0,101.504,128.291,301.129,91.442"/>
	<path display="inline" fill="none" stroke="#F6F6F5" stroke-width="2" stroke-miterlimit="10" d="M398.316,282.258
		c-212.862-99.161-288.782-17.624-288.782-17.624"/>
	<path display="inline" fill="none" stroke="#F6F6F5" stroke-width="2" stroke-miterlimit="10" d="M148.923,181.992
		c0,0,158.068,7.792,190.793-14.582"/>
	<path display="inline" fill="none" stroke="#F6F6F5" stroke-width="2" stroke-miterlimit="10" d="M128.979,359.285
		c0,0,82.059,33.64,281.683-3.209"/>
	<path display="inline" fill="none" stroke="#F6F6F5" stroke-width="2" stroke-miterlimit="10" d="M148.923,181.992
		c0,0,49.768,137.115,249.392,100.266"/>
	<path display="inline" fill="none" stroke="#F6F6F5" stroke-width="2" stroke-miterlimit="10" d="M229.682,142.185
		c0,0,40.139,57.613,173.999,98.219"/>
	<path display="inline" fill="none" stroke="#F6F6F5" stroke-width="2" stroke-miterlimit="10" d="M400.707,208.634
		c0,0,91.728,72.053,291.352,35.204"/>
	<path display="inline" fill="none" stroke="#F6F6F5" stroke-width="2" stroke-miterlimit="10" d="M692.059,243.837
		c0,0-35.155-124.875-245.77-145.588"/>
	<path display="inline" fill="none" stroke="#F6F6F5" stroke-width="2" stroke-miterlimit="10" d="M679.296,131.054
		c0,0-148.758,42.861-140.175,228.23"/>
	<path display="inline" fill="none" stroke="#F6F6F5" stroke-width="2" stroke-miterlimit="10" d="M530.537,53.189
		c0,0,126.367,24.133,161.522,190.649"/>
	<path display="inline" fill="none" stroke="#F6F6F5" stroke-width="2" stroke-miterlimit="10" d="M446.289,98.249
		c0,0-21.65,282.213,177.974,245.364"/>
	<path display="inline" fill="none" stroke="#F6F6F5" stroke-width="2" stroke-miterlimit="10" d="M527.318,53.189
		c0,0,48.872,41.841,94.329,18.918"/>
	<path display="inline" fill="none" stroke="#F6F6F5" stroke-width="2" stroke-miterlimit="10" d="M527.318,56.408
		c0,0,88.964,173.094,96.945,287.206"/>
	<path display="inline" fill="none" stroke="#F6F6F5" stroke-width="2" stroke-miterlimit="10" d="M401.05,208.924
		c0,0,81.84-44.24,281.465-81.089"/>
	<path display="inline" fill="none" stroke="#F6F6F5" stroke-width="2" stroke-miterlimit="10" d="M421.392,285.907
		c0,0,78.132,35.826,67.859,90.551"/>
	<path display="inline" opacity="0.3" fill="none" stroke="#336DB4" stroke-width="2" stroke-miterlimit="10" d="M339.716,167.41
		c0,0,71.776,36.841,75.151,63.064c3.375,26.222-7.566,36.156,6.832,53.079c14.398,16.923,29.955,67.268,29.955,67.268"/>
	<path display="inline" opacity="0.3" fill="none" stroke="#336DB4" stroke-width="2" stroke-miterlimit="10" d="M692.059,243.837
		c0,0-40.219,108.482-53.841,107.973c-13.622-0.509-35.1,14.591-63.591,17.403s-68.121,37.313-68.121,37.313"/>
	<path display="inline" opacity="0.3" fill="none" stroke="#336DB4" stroke-width="2" stroke-miterlimit="10" d="M410.662,356.076
		c-21.938-25.993-18.091-54.796-12.613-75.676s7.562-31.197,6.306-40.991c-2.334-18.205-34.696-47.65-64.64-71.998
		S229.88,142.185,229.88,142.185s-65.226,20.647-81.983,38.889s-35.298,42.783-38.364,83.559
		c-3.066,40.777,17.868,94.07,17.868,94.07s20.741,33.471,50.976,47.823"/>
	<path display="inline" opacity="0.3" fill="none" stroke="#336DB4" stroke-width="2" stroke-miterlimit="10" d="M489.251,376.458
		l52.362-17.215c0,0,71.6-3.392,84.941-14.796c13.341-11.404,56.975-66.946,65.505-100.61s-8.723-112.357-8.723-112.357
		s-29.911-54.968-61.596-66.63s-91.203-11.662-91.203-11.662s-55.199,12.255-84.442,45.143
		c-29.243,32.888-48.203,67.076-45.045,110.592"/>
	<circle display="inline" fill="#336DB4" cx="148.923" cy="181.992" r="5.365"/>
	<circle display="inline" fill="#336DB4" cx="109.534" cy="264.48" r="3.219"/>
	<circle display="inline" fill="#336DB4" cx="178.448" cy="406.527" r="3.219"/>
	<circle display="inline" fill="#336DB4" cx="339.716" cy="167.41" r="5.365"/>
	<circle display="inline" fill="#336DB4" cx="621.647" cy="66.742" r="5.365"/>
	<circle display="inline" fill="#336DB4" cx="682.514" cy="131.055" r="3.219"/>
	<circle display="inline" fill="#336DB4" cx="692.059" cy="243.837" r="5.365"/>
	<circle display="inline" fill="#336DB4" cx="626.194" cy="343.613" r="1.931"/>
	<circle display="inline" fill="#336DB4" cx="539.121" cy="359.285" r="3.219"/>
	<circle display="inline" fill="#336DB4" cx="490.098" cy="374.31" r="5.365"/>
	<circle display="inline" fill="#336DB4" cx="638.285" cy="351.265" r="3.219"/>
	<circle display="inline" fill="#336DB4" cx="576.19" cy="368.945" r="1.931"/>
	<circle display="inline" fill="#336DB4" cx="403.68" cy="238.473" r="1.931"/>
	<circle display="inline" fill="#336DB4" cx="398.316" cy="282.258" r="3.219"/>
	<circle display="inline" fill="#336DB4" cx="421.392" cy="283.975" r="1.931"/>
	<circle display="inline" fill="#336DB4" cx="416.027" cy="231.433" r="1.931"/>
	<circle display="inline" fill="#336DB4" cx="451.654" cy="350.82" r="5.365"/>
	<circle display="inline" fill="#336DB4" cx="410.662" cy="356.185" r="5.365"/>
	<circle display="inline" fill="#336DB4" cx="229.682" cy="142.185" r="3.219"/>
	<circle display="inline" fill="#336DB4" cx="446.289" cy="98.249" r="3.219"/>
	<circle display="inline" fill="#336DB4" cx="530.537" cy="53.189" r="3.219"/>
	<circle display="inline" fill="#336DB4" cx="127.048" cy="359.285" r="1.931"/>
	
		<image display="inline" overflow="visible" width="2160" height="1394" xlink:href="../../../../../../Desktop/Schermata 2014-12-21 alle 18.27.28.png"  transform="matrix(0.1272 0 0 0.1272 -239.5402 85.2865)">
	</image>
	<circle display="inline" fill="#336DB4" cx="148.923" cy="181.992" r="5.365"/>
	<circle display="inline" fill="#336DB4" cx="109.534" cy="264.48" r="3.219"/>
	<circle display="inline" fill="#336DB4" cx="178.448" cy="406.527" r="3.219"/>
	<circle display="inline" fill="#336DB4" cx="339.716" cy="167.41" r="5.365"/>
	<circle display="inline" fill="#336DB4" cx="621.647" cy="66.742" r="5.365"/>
	<circle display="inline" fill="#336DB4" cx="682.514" cy="131.055" r="3.219"/>
	<circle display="inline" fill="#336DB4" cx="692.059" cy="243.837" r="5.365"/>
	<circle display="inline" fill="#336DB4" cx="626.194" cy="343.613" r="1.931"/>
	<circle display="inline" fill="#336DB4" cx="539.121" cy="359.285" r="3.219"/>
	<circle display="inline" fill="#336DB4" cx="490.098" cy="374.31" r="5.365"/>
	<circle display="inline" fill="#336DB4" cx="638.285" cy="351.265" r="3.219"/>
	<circle display="inline" fill="#336DB4" cx="576.19" cy="368.945" r="1.931"/>
	<circle display="inline" fill="#336DB4" cx="403.68" cy="238.473" r="1.931"/>
	<circle display="inline" fill="#336DB4" cx="398.316" cy="282.258" r="3.219"/>
	<circle display="inline" fill="#336DB4" cx="421.392" cy="283.975" r="1.931"/>
	<circle display="inline" fill="#336DB4" cx="416.027" cy="231.433" r="1.931"/>
	<circle display="inline" fill="#336DB4" cx="400.707" cy="209.459" r="5.365"/>
	<circle display="inline" fill="#336DB4" cx="451.654" cy="350.82" r="5.365"/>
	<circle display="inline" fill="#336DB4" cx="410.662" cy="356.185" r="5.365"/>
	<circle display="inline" fill="#336DB4" cx="229.682" cy="142.185" r="3.219"/>
	<circle display="inline" fill="#336DB4" cx="446.289" cy="98.249" r="3.219"/>
	<circle display="inline" fill="#336DB4" cx="530.537" cy="53.189" r="3.219"/>
	<circle display="inline" fill="#336DB4" cx="127.048" cy="359.285" r="1.931"/>
	
		<image display="inline" overflow="visible" width="2160" height="1394" xlink:href="../../../../../../Desktop/Schermata 2014-12-21 alle 18.27.28.png"  transform="matrix(0.1272 0 0 0.1272 -239.5402 85.2865)">
	</image>
</g>
<g id="Livello_4">
</g>
<g id="Livello_5">
	<g>
		<g>
			<g>
				<polyline fill="none" stroke="#E4AD2A" stroke-miterlimit="10" points="522.624,242.529 531.185,205.508 488.508,177.672 				
					"/>
				<polyline fill="none" stroke="#E4AD2A" stroke-miterlimit="10" points="536.788,211.03 522.957,244.145 542.303,214.55 				"/>
				<line fill="none" stroke="#E4AD2A" stroke-miterlimit="10" x1="491.16" y1="165.063" x2="523.759" y2="195.496"/>
				<polyline fill="none" stroke="#E4AD2A" stroke-miterlimit="10" points="512.676,235.576 546.922,216.548 534.959,249.971 
					541.2,215.776 				"/>
				<polyline fill="none" stroke="#E4AD2A" stroke-miterlimit="10" points="550.453,217.136 547.706,253.125 568.435,215.994 
					616.344,221.747 616.186,221.86 591.472,189.922 621.853,209.787 590.233,198.79 				"/>
				<polyline fill="none" stroke="#E4AD2A" stroke-miterlimit="10" points="568.763,152.374 607.648,136.11 580.286,159.206 				"/>
				<polyline fill="none" stroke="#E4AD2A" stroke-miterlimit="10" points="615.567,145.835 577.552,156.99 573.477,116.247 
					557.615,150.492 				"/>
				<line fill="none" stroke="#E4AD2A" stroke-miterlimit="10" x1="547.661" y1="115.64" x2="565.486" y2="148.693"/>
				<line fill="none" stroke="#E4AD2A" stroke-miterlimit="10" x1="531.185" y1="205.508" x2="547.706" y2="253.125"/>
				<polyline fill="none" stroke="#E4AD2A" stroke-miterlimit="10" points="572.996,150.492 523.759,123.798 537.669,156.99 
					547.661,115.64 549.771,150.492 560.627,114.58 				"/>
				<polyline fill="none" stroke="#E4AD2A" stroke-miterlimit="10" points="552.09,150.492 534.847,118.808 546.468,152.377 				"/>
				<line fill="none" stroke="#E4AD2A" stroke-miterlimit="10" x1="589.553" y1="173.109" x2="615.567" y2="145.835"/>
				<polyline fill="none" stroke="#E4AD2A" stroke-miterlimit="10" points="488.508,190.352 525.013,175.22 496.168,152.63 
					537.669,156.99 491.16,164.591 523.888,187.238 496.168,152.925 537.669,156.99 488.508,190.87 525.824,198.79 512.4,236.348 
					568.435,215.994 597.829,240.288 585.691,205.508 616.186,221.523 590.233,198.79 				"/>
				<line fill="none" stroke="#E4AD2A" stroke-miterlimit="10" x1="528.901" y1="166.418" x2="496.168" y2="152.925"/>
				<polyline fill="none" stroke="#E4AD2A" stroke-miterlimit="10" points="607.801,136.084 591.472,178.981 621.853,209.787 				
					"/>
				<polyline fill="none" stroke="#E4AD2A" stroke-miterlimit="10" points="578.443,211.03 597.676,240.288 591.472,180.632 
					607.571,232 591.472,178.981 621.847,157.717 585.691,165.422 621.847,157.717 565.047,150.492 573.322,116.581 				"/>
				<circle fill="none" stroke="#E4AD2A" stroke-width="3" stroke-miterlimit="10" cx="557.615" cy="184.416" r="33.856"/>
			</g>
		</g>
		<circle fill="#BEBDBC" cx="557.615" cy="184.416" r="29.037"/>
		
			<line fill="none" stroke="#6BB7DD" stroke-width="0.5" stroke-miterlimit="10" x1="382.756" y1="150.485" x2="335.013" y2="180.208"/>
		
			<line fill="none" stroke="#6BB7DD" stroke-width="0.75" stroke-miterlimit="10" x1="548.755" y1="68.151" x2="534.488" y2="118.934"/>
		
			<line fill="none" stroke="#6BB7DD" stroke-width="0.25" stroke-miterlimit="10" x1="547.661" y1="116.247" x2="556.61" y2="97.364"/>
		
			<line fill="none" stroke="#6BB7DD" stroke-width="0.25" stroke-miterlimit="10" x1="515.121" y1="68.151" x2="528.901" y2="15.718"/>
		<polyline fill="none" stroke="#6BB7DD" stroke-width="0.75" stroke-miterlimit="10" points="547.661,115.64 510.338,42.226 
			557.615,98.562 519.976,93.581 541.638,46.009 510.338,42.226 		"/>
		<polyline fill="none" stroke="#336DB4" stroke-miterlimit="10" points="356.106,152.401 307.731,-79.473 496.856,150.396 
			219.095,77.262 438.47,-59.359 231.447,27.713 		"/>
		<polyline fill="none" stroke="#336DB4" stroke-miterlimit="10" points="291.028,171.046 511.387,252.992 282.626,433.131 
			492.085,301.278 234.975,255.319 385.404,434.518 		"/>
		<polyline fill="none" stroke="#336DB4" stroke-miterlimit="10" points="588.335,246.186 501.364,477.957 470.884,380.854 
			764.566,450.706 643.574,281.919 666.524,554.577 		"/>
		<polyline fill="none" stroke="#336DB4" stroke-miterlimit="10" points="510.338,-25.876 828.192,-98.189 693.93,75.917 
			807.274,-0.436 748.729,-140.966 638.583,100.107 		"/>
		<polyline fill="none" stroke="#336DB4" stroke-miterlimit="10" points="627.766,197.457 934.597,189.121 719.527,298.137 
			903.938,257.975 701.811,278.894 764.189,72.746 		"/>
		<polyline fill="none" stroke="#6BB7DD" stroke-width="0.25" stroke-miterlimit="10" points="528.901,15.718 510.338,5.241 
			548.755,68.151 		"/>
		<polyline fill="none" stroke="#6BB7DD" stroke-width="0.25" stroke-miterlimit="10" points="534.847,118.808 557.615,98.562 
			515.121,68.151 542.303,47.371 510.338,5.914 518.629,-8.062 510.473,42.95 548.755,68.151 547.661,115.64 510.338,-25.876 		"/>
		
			<line fill="none" stroke="#6BB7DD" stroke-width="0.75" stroke-miterlimit="10" x1="389.905" y1="191.622" x2="496.168" y2="152.63"/>
		
			<line fill="none" stroke="#6BB7DD" stroke-width="0.5" stroke-miterlimit="10" x1="491.16" y1="164.591" x2="450.493" y2="195.218"/>
		<polyline fill="none" stroke="#6BB7DD" stroke-width="0.25" stroke-miterlimit="10" points="491.16,164.591 356.033,154.259 
			451.833,196.023 434.391,156.126 366.923,188.053 356.033,154.259 		"/>
		<polyline fill="none" stroke="#6BB7DD" stroke-width="0.75" stroke-miterlimit="10" points="335.013,180.208 330.548,160.294 
			389.905,191.622 		"/>
		<polyline fill="none" stroke="#6BB7DD" stroke-width="0.75" stroke-miterlimit="10" points="496.168,152.63 451.833,196.023 
			382.756,150.485 368.372,188.498 329.867,160.294 309.919,173.779 356.77,154.28 389.905,191.622 491.16,164.591 291.029,168.374 
					"/>
		<polyline fill="none" stroke="#336DB4" stroke-width="0.25" stroke-miterlimit="10" points="508.446,-22.603 434.391,156.126 
			438.174,-60.879 291.029,168.374 249.289,-48.72 356.697,156.138 355.693,-101.386 401.063,152.377 510.338,42.226 
			249.289,-48.72 		"/>
		<polyline fill="none" stroke="#336DB4" stroke-width="0.5" stroke-miterlimit="10" points="219.095,74.614 512.312,131.713 
			308.027,-77.992 219.095,74.614 355.693,-101.386 503.062,141.494 438.47,-59.359 382.756,149.619 513.229,68.151 231.151,25.844 
					"/>
		
			<line fill="none" stroke="#6BB7DD" stroke-width="0.25" stroke-miterlimit="10" x1="499.709" y1="280.899" x2="534.959" y2="249.971"/>
		
			<line fill="none" stroke="#6BB7DD" stroke-width="0.25" stroke-miterlimit="10" x1="522.957" y1="244.145" x2="511.387" y2="252.992"/>
		
			<line fill="none" stroke="#6BB7DD" stroke-width="0.25" stroke-miterlimit="10" x1="526.3" y1="301.494" x2="483.299" y2="334.509"/>
		<polyline fill="none" stroke="#6BB7DD" stroke-width="0.25" stroke-miterlimit="10" points="522.957,244.145 514.207,324.919 
			511.325,251.43 538.033,278.416 491.778,302.762 514.207,324.919 		"/>
		<polyline fill="none" stroke="#6BB7DD" stroke-width="0.75" stroke-miterlimit="10" points="483.299,334.509 491.56,354.16 
			499.709,280.899 		"/>
		<polyline fill="none" stroke="#6BB7DD" stroke-width="0.75" stroke-miterlimit="10" points="534.959,249.971 511.325,251.43 
			526.3,301.494 492.085,301.278 491.972,353.627 476.859,359.6 514.543,324.264 499.709,280.899 547.706,253.125 472.506,378.76 		
			"/>
		
			<line fill="none" stroke="#6BB7DD" stroke-width="0.75" stroke-miterlimit="10" x1="700.901" y1="280.552" x2="597.829" y2="240.441"/>
		
			<line fill="none" stroke="#6BB7DD" stroke-width="0.75" stroke-miterlimit="10" x1="607.693" y1="232.063" x2="655.202" y2="240.609"/>
		<polyline fill="none" stroke="#6BB7DD" stroke-width="0.75" stroke-miterlimit="10" points="607.571,232 704.801,330.832 
			654.636,239.152 643.995,281.375 716.885,297.446 704.801,330.832 		"/>
		<polyline fill="none" stroke="#6BB7DD" stroke-width="0.25" stroke-miterlimit="10" points="737.309,323.188 728.645,341.666 
			700.901,280.552 		"/>
		<polyline fill="none" stroke="#6BB7DD" stroke-width="0.25" stroke-miterlimit="10" points="597.829,240.441 654.636,239.152 
			681.364,317.452 716.012,296.207 729.183,342.083 753.212,343.637 704.232,330.364 700.901,280.552 607.571,232 764.837,359.477 
					"/>
		<polyline fill="none" stroke="#336DB4" stroke-width="0.25" stroke-miterlimit="10" points="472.506,378.76 643.995,281.375 
			576.695,535.583 764.837,359.477 664.902,556.67 705.427,328.94 513.241,522.047 668.048,304.746 514.207,324.919 664.902,556.67 
					"/>
		<polyline fill="none" stroke="#336DB4" stroke-width="0.5" stroke-miterlimit="10" points="766.188,448.612 560.979,253.519 
			501.364,477.957 766.188,448.612 513.241,522.047 574.164,251.679 577.393,534.2 680.833,318.137 527.795,302.652 
			764.296,424.126 		"/>
		<polyline fill="none" stroke="#336DB4" stroke-width="0.25" stroke-miterlimit="10" points="389.905,191.622 512.4,236.348 
			240.701,349.992 472.469,378.521 291.239,171.226 484.178,333.986 209.41,293.153 511.387,252.992 335.013,180.208 
			282.482,430.487 		"/>
		<polyline fill="none" stroke="#336DB4" stroke-width="0.5" stroke-miterlimit="10" points="430.471,436.355 491.16,203.184 
			234.975,255.319 430.471,436.355 209.41,293.153 450.493,195.218 242.203,349.614 491.778,302.762 291.029,168.374 
			385.404,434.518 		"/>
		<polyline fill="none" stroke="#336DB4" stroke-width="0.5" stroke-miterlimit="10" points="717.589,67.001 528.901,15.718 
			747.392,-142.421 510.338,-25.876 794.072,44.632 597.591,127.252 679.544,-178.623 572.779,116.247 805.68,0.582 
			679.544,-178.623 		"/>
		<polyline fill="none" stroke="#336DB4" stroke-width="0.25" stroke-miterlimit="10" points="571.049,-155.217 586.591,120.633 
			637.743,98.323 571.049,-155.217 828.192,-98.189 560.264,97.364 622.303,-166.566 542.303,47.371 795.264,47.231 
			621.286,-168.161 		"/>
		
			<line fill="none" stroke="#6BB7DD" stroke-width="0.25" stroke-miterlimit="10" x1="695.524" y1="74.899" x2="621.847" y2="157.717"/>
		
			<line fill="none" stroke="#6BB7DD" stroke-width="0.25" stroke-miterlimit="10" x1="615.567" y1="145.835" x2="640.158" y2="100.097"/>
		<polyline fill="none" stroke="#6BB7DD" stroke-width="0.75" stroke-miterlimit="10" points="615.567,145.835 743.522,87.434 
			638.583,100.107 673.259,122.116 717.589,67.001 743.522,87.434 		"/>
		<polyline fill="none" stroke="#6BB7DD" stroke-width="0.25" stroke-miterlimit="10" points="749.618,58.212 763.172,71.151 
			695.524,74.899 		"/>
		<polyline fill="none" stroke="#6BB7DD" stroke-width="0.25" stroke-miterlimit="10" points="621.847,157.717 638.583,100.107 
			721.686,102.583 716.092,67.334 763.774,70.838 774.931,51.496 742.86,87.757 695.524,74.899 615.567,145.835 794.259,46.865 		
			"/>
		<polyline fill="none" stroke="#336DB4" stroke-width="0.25" stroke-miterlimit="10" points="654.919,239.88 673.259,122.116 
			810.409,339.812 794.259,46.865 935.874,191.115 742.028,86.324 700.901,280.552 704.568,109.59 654.919,239.88 935.874,191.115 
					"/>
		<polyline fill="none" stroke="#336DB4" stroke-width="0.5" stroke-miterlimit="10" points="877.096,73.677 621.853,209.94 
			904.125,258.266 877.096,73.677 717.206,296.863 877.096,313.247 625.717,171.136 809.415,338.804 722.104,103.235 
			626.979,184.348 904.125,258.266 764.837,359.477 853.724,67.567 		"/>
		<circle fill="#336DB4" cx="510.338" cy="42.226" r="2.648"/>
		<circle fill="#336DB4" cx="519.976" cy="93.581" r="2.648"/>
		<circle fill="#336DB4" cx="557.615" cy="97.364" r="2.648"/>
		<circle fill="#336DB4" cx="219.095" cy="74.614" r="2.648"/>
		<circle fill="#336DB4" cx="291.028" cy="168.398" r="2.648"/>
		<circle fill="#336DB4" cx="542.303" cy="46.009" r="2.648"/>
		<circle fill="#5D5957" cx="548.755" cy="68.151" r="1.892"/>
		<circle fill="#5D5957" cx="528.901" cy="15.718" r="1.892"/>
		<circle fill="#5D5957" cx="510.338" cy="5.914" r="1.892"/>
		<circle fill="#5D5957" cx="515.121" cy="68.151" r="1.892"/>
		<circle fill="#336DB4" cx="382.756" cy="149.619" r="2.648"/>
		<circle fill="#336DB4" cx="434.391" cy="155.438" r="2.648"/>
		<circle fill="#336DB4" cx="451.163" cy="195.62" r="2.648"/>
		<circle fill="#336DB4" cx="367.027" cy="188.711" r="2.648"/>
		<circle fill="#5D5957" cx="389.905" cy="191.622" r="1.892"/>
		<circle fill="#5D5957" cx="335.013" cy="180.208" r="1.892"/>
		<circle fill="#5D5957" cx="356.401" cy="154.269" r="1.892"/>
		<circle fill="#5D5957" cx="401.063" cy="152.377" r="1.892"/>
		<circle fill="#5D5957" cx="231.151" cy="25.844" r="1.892"/>
		<circle fill="#5D5957" cx="309.919" cy="173.779" r="1.892"/>
		<circle fill="#336DB4" cx="514.207" cy="324.919" r="2.648"/>
		<circle fill="#336DB4" cx="538.033" cy="278.416" r="2.648"/>
		<circle fill="#336DB4" cx="510.592" cy="252.377" r="2.648"/>
		<circle fill="#336DB4" cx="472.506" cy="378.76" r="2.648"/>
		<circle fill="#336DB4" cx="766.188" cy="448.612" r="2.648"/>
		<circle fill="#336DB4" cx="764.852" cy="359.459" r="2.648"/>
		<circle fill="#336DB4" cx="664.902" cy="556.67" r="2.648"/>
		<circle fill="#336DB4" cx="513.241" cy="522.047" r="2.648"/>
		<circle fill="#336DB4" cx="491.251" cy="302.354" r="2.648"/>
		<circle fill="#5D5957" cx="499.709" cy="280.899" r="1.892"/>
		<circle fill="#5D5957" cx="483.299" cy="334.509" r="1.892"/>
		<circle fill="#5D5957" cx="491.972" cy="353.627" r="1.892"/>
		<circle fill="#5D5957" cx="526.3" cy="301.494" r="1.892"/>
		<circle fill="#5D5957" cx="476.859" cy="359.6" r="1.892"/>
		<circle fill="#336DB4" cx="680.833" cy="318.137" r="2.648"/>
		<circle fill="#336DB4" cx="643.574" cy="281.919" r="2.648"/>
		<circle fill="#336DB4" cx="654.919" cy="239.88" r="2.648"/>
		<circle fill="#336DB4" cx="717.206" cy="296.863" r="2.648"/>
		<circle fill="#5D5957" cx="700.901" cy="280.552" r="1.892"/>
		<circle fill="#5D5957" cx="737.309" cy="323.188" r="1.892"/>
		<circle fill="#5D5957" cx="704.517" cy="330.598" r="1.892"/>
		<circle fill="#5D5957" cx="668.049" cy="304.746" r="1.892"/>
		<circle fill="#5D5957" cx="576.482" cy="535.858" r="1.892"/>
		<circle fill="#5D5957" cx="501.601" cy="477.651" r="1.892"/>
		<circle fill="#5D5957" cx="764.296" cy="424.126" r="1.892"/>
		<circle fill="#5D5957" cx="753.212" cy="343.637" r="1.892"/>
		<circle fill="#336DB4" cx="291.095" cy="168.582" r="2.648"/>
		<circle fill="#336DB4" cx="430.471" cy="436.355" r="2.648"/>
		<circle fill="#336DB4" cx="282.482" cy="430.487" r="2.648"/>
		<circle fill="#336DB4" cx="209.41" cy="293.153" r="2.648"/>
		<circle fill="#5D5957" cx="240.354" cy="350.01" r="1.892"/>
		<circle fill="#5D5957" cx="235.361" cy="255.298" r="1.892"/>
		<circle fill="#5D5957" cx="385.404" cy="434.518" r="1.892"/>
		<circle fill="#336DB4" cx="795.13" cy="47.06" r="2.648"/>
		<circle fill="#336DB4" cx="876.261" cy="73.043" r="2.648"/>
		<circle fill="#336DB4" cx="904.125" cy="257.946" r="2.648"/>
		<circle fill="#336DB4" cx="743.522" cy="86.963" r="2.648"/>
		<circle fill="#336DB4" cx="673.523" cy="122.16" r="2.648"/>
		<circle fill="#336DB4" cx="638.189" cy="99.642" r="2.648"/>
		<circle fill="#336DB4" cx="716.689" cy="67.567" r="2.648"/>
		<circle fill="#5D5957" cx="805.68" cy="0.582" r="1.892"/>
		<circle fill="#5D5957" cx="775.513" cy="50.915" r="1.892"/>
		<circle fill="#5D5957" cx="749.618" cy="58.212" r="1.892"/>
		<circle fill="#5D5957" cx="763.172" cy="71.151" r="1.892"/>
		<circle fill="#5D5957" cx="853.428" cy="67.567" r="1.892"/>
		<circle fill="#5D5957" cx="878.91" cy="313.001" r="1.892"/>
		<circle fill="#5D5957" cx="810.409" cy="339.812" r="1.892"/>
		<circle fill="#5D5957" cx="721.083" cy="102.896" r="1.892"/>
		<circle fill="#5D5957" cx="703.629" cy="109.689" r="1.892"/>
		<circle fill="#5D5957" cx="695.524" cy="74.899" r="1.892"/>
		<path fill="#5D5957" d="M558.896,253.327c-0.06-1.141,0.82-2.11,1.96-2.16l0,0c1.14-0.051,2.11,0.83,2.16,1.96l0,0
			c0.05,1.14-0.83,2.109-1.96,2.16l0,0c-0.04,0.01-0.07,0.01-0.1,0.01l0,0C559.856,255.297,558.946,254.427,558.896,253.327z
			 M547.496,254.656c-1.13-0.159-1.92-1.199-1.76-2.329l0,0c0.17-1.131,1.21-1.921,2.34-1.761l0,0c1.13,0.17,1.91,1.21,1.75,2.34
			l0,0c-0.14,1.03-1.03,1.771-2.04,1.771l0,0C547.696,254.677,547.596,254.677,547.496,254.656z M571.996,251.846
			c-0.27-1.11,0.41-2.22,1.521-2.49l0,0c1.109-0.27,2.229,0.41,2.489,1.521l0,0c0.271,1.109-0.409,2.22-1.52,2.489l0,0l0,0l0,0
			c-0.16,0.04-0.32,0.061-0.48,0.061l0,0C573.066,253.427,572.226,252.787,571.996,251.846z M534.296,251.476
			c-1.08-0.37-1.65-1.55-1.28-2.62l0,0c0.37-1.08,1.55-1.66,2.63-1.279l0,0c1.07,0.369,1.65,1.539,1.27,2.619l0,0
			c-0.29,0.86-1.09,1.391-1.95,1.391l0,0C534.746,251.587,534.516,251.556,534.296,251.476z M584.585,247.906
			c-0.479-1.04-0.02-2.27,1.011-2.739l0,0c1.04-0.48,2.26-0.021,2.739,1.02l0,0c0.48,1.03,0.021,2.26-1.02,2.73l0,0
			c-0.28,0.13-0.57,0.189-0.86,0.189l0,0C585.675,249.106,584.925,248.656,584.585,247.906z M521.946,245.837c0,0,0,0-0.01,0l0,0
			c-0.98-0.57-1.32-1.83-0.75-2.82l0,0c0.57-0.99,1.83-1.32,2.82-0.75l0,0c0.99,0.57,1.33,1.83,0.76,2.82l0,0
			c-0.39,0.66-1.08,1.029-1.79,1.029l0,0C522.626,246.116,522.266,246.026,521.946,245.837z M596.186,241.636
			c-0.66-0.93-0.44-2.22,0.479-2.88l0,0c0.931-0.66,2.221-0.44,2.88,0.479l0,0c0.67,0.931,0.45,2.221-0.479,2.88l0,0l0,0l0,0
			c-0.36,0.261-0.78,0.391-1.19,0.391l0,0C597.226,242.507,596.596,242.196,596.186,241.636z M510.886,237.967L510.886,237.967
			L510.886,237.967c-0.87-0.75-0.96-2.05-0.21-2.92l0,0c0.74-0.86,2.05-0.95,2.91-0.21l0,0c0.86,0.75,0.96,2.05,0.21,2.92l0,0
			c-0.41,0.47-0.98,0.71-1.56,0.71l0,0C511.756,238.467,511.276,238.297,510.886,237.967z M606.406,233.287
			c-0.83-0.78-0.86-2.091-0.07-2.921v0.011c0.79-0.83,2.09-0.86,2.92-0.07l0,0c0.82,0.78,0.851,2.09,0.07,2.92l0,0
			c-0.41,0.42-0.95,0.63-1.5,0.63l0,0C607.316,233.856,606.806,233.667,606.406,233.287z M501.506,228.146
			c-0.71-0.89-0.55-2.189,0.34-2.899l0,0c0.89-0.71,2.19-0.551,2.9,0.34v0.01c0.7,0.89,0.55,2.19-0.34,2.89l0,0
			c-0.38,0.301-0.83,0.45-1.28,0.45l0,0C502.516,228.936,501.916,228.667,501.506,228.146z M614.866,223.167
			c-0.96-0.61-1.24-1.891-0.62-2.851l0,0c0.62-0.96,1.9-1.239,2.86-0.62l0,0c0.95,0.62,1.229,1.9,0.609,2.86l0,0
			c-0.39,0.61-1.06,0.94-1.729,0.94l0,0C615.596,223.497,615.215,223.396,614.866,223.167z M494.146,216.736L494.146,216.736
			L494.146,216.736c-0.53-1.01-0.13-2.26,0.88-2.779l0,0c1.02-0.53,2.26-0.13,2.78,0.88v0.01c0.53,1.01,0.13,2.25-0.88,2.78l0,0
			c-0.3,0.149-0.63,0.229-0.95,0.229l0,0C495.236,217.856,494.516,217.446,494.146,216.736z M621.266,211.636
			c-1.061-0.43-1.57-1.63-1.15-2.69l0,0c0.42-1.05,1.62-1.569,2.68-1.14l0,0c1.061,0.42,1.58,1.62,1.15,2.68l0,0
			c-0.32,0.811-1.1,1.301-1.92,1.301l0,0C621.776,211.787,621.516,211.736,621.266,211.636z M489.086,204.136
			c-0.32-1.09,0.3-2.24,1.4-2.56l0,0c1.09-0.32,2.24,0.3,2.56,1.399l0,0c0.32,1.09-0.3,2.24-1.4,2.561l0,0
			c-0.19,0.06-0.39,0.079-0.58,0.079l0,0C490.166,205.616,489.346,205.037,489.086,204.136z M625.356,199.096
			c-1.13-0.22-1.86-1.3-1.65-2.42l0,0c0.22-1.12,1.3-1.85,2.42-1.64l0,0c1.12,0.22,1.851,1.3,1.641,2.42l0,0l0,0l0,0
			c-0.19,0.989-1.061,1.68-2.03,1.68l0,0C625.616,199.136,625.486,199.116,625.356,199.096z M486.516,190.806L486.516,190.806
			L486.516,190.806c-0.11-1.13,0.72-2.14,1.86-2.25l0,0c1.13-0.11,2.14,0.72,2.25,1.86l0,0c0.1,1.13-0.73,2.14-1.86,2.25l0,0
			c-0.07,0.01-0.13,0.01-0.2,0.01l0,0C487.516,192.677,486.616,191.876,486.516,190.806z M624.915,183.947L624.915,183.947
			c0-0.02,0-0.03,0-0.05l0,0c0-0.03,0-0.07,0-0.1l0,0c-0.01-1.14,0.92-2.07,2.061-2.07l0,0c1.14,0,2.06,0.92,2.069,2.06l0,0
			c0,0.03,0,0.05,0,0.08l0,0c0,0.03,0,0.05,0,0.08l0,0c0,1.14-0.93,2.06-2.069,2.06l0,0
			C625.835,186.007,624.915,185.087,624.915,183.947z M488.366,179.487c-1.14-0.11-1.97-1.11-1.87-2.25l0,0l0,0l0,0
			c0.11-1.13,1.11-1.97,2.25-1.86l0,0c1.13,0.1,1.97,1.11,1.86,2.24l0,0c-0.1,1.07-1,1.88-2.05,1.88l0,0
			C488.496,179.496,488.426,179.487,488.366,179.487z M623.686,171.067c-0.221-1.13,0.51-2.21,1.63-2.42l0,0
			c1.12-0.22,2.2,0.51,2.42,1.63l0,0l0,0l0,0c0.22,1.12-0.51,2.2-1.63,2.42l0,0c-0.141,0.02-0.271,0.04-0.4,0.04l0,0
			C624.736,172.737,623.875,172.047,623.686,171.067z M490.446,166.467c-1.1-0.33-1.73-1.47-1.41-2.56l0,0l0,0l0,0
			c0.32-1.1,1.47-1.73,2.56-1.41l0,0c1.1,0.32,1.73,1.47,1.41,2.56l0,0c-0.27,0.9-1.09,1.49-1.99,1.49l0,0
			C490.826,166.547,490.636,166.516,490.446,166.467z M620.056,158.797c-0.42-1.06,0.09-2.26,1.149-2.69l0,0
			c1.05-0.42,2.26,0.09,2.681,1.15l0,0c0.43,1.06-0.08,2.26-1.141,2.68l0,0c-0.25,0.11-0.51,0.15-0.77,0.15l0,0
			C621.156,160.087,620.386,159.607,620.056,158.797z M494.966,154.067c-1.02-0.52-1.42-1.76-0.9-2.78l0,0
			c0.53-1.01,1.77-1.41,2.79-0.89l0,0c1.01,0.52,1.41,1.77,0.89,2.78l0,0c-0.37,0.71-1.09,1.12-1.84,1.12l0,0
			C495.586,154.297,495.266,154.226,494.966,154.067z M614.165,147.447c-0.62-0.96-0.34-2.24,0.61-2.86l0,0
			c0.96-0.62,2.24-0.34,2.86,0.62l0,0c0.619,0.95,0.34,2.23-0.61,2.85l0,0c-0.351,0.23-0.74,0.33-1.12,0.33l0,0
			C615.226,148.386,614.566,148.056,614.165,147.447z M501.756,142.766c-0.9-0.71-1.05-2.01-0.35-2.9l0,0c0.71-0.9,2-1.06,2.9-0.35
			l0,0c0.9,0.7,1.05,2,0.35,2.9l0,0c-0.41,0.52-1.02,0.79-1.63,0.79l0,0C502.586,143.206,502.136,143.056,501.756,142.766z
			 M606.236,137.406c-0.79-0.82-0.76-2.13,0.06-2.92l0,0c0.82-0.79,2.13-0.76,2.92,0.07l0,0l0,0l0,0c0.79,0.82,0.761,2.13-0.06,2.92
			l0,0c-0.4,0.38-0.92,0.57-1.43,0.57l0,0C607.175,138.047,606.636,137.837,606.236,137.406z M510.566,132.936
			c-0.75-0.86-0.66-2.16,0.2-2.91l0,0c0.86-0.75,2.16-0.66,2.91,0.2l0,0c0.75,0.86,0.66,2.17-0.2,2.92l0,0
			c-0.39,0.34-0.88,0.5-1.36,0.5l0,0C511.546,133.646,510.966,133.406,510.566,132.936z M596.545,129.047
			c-0.92-0.66-1.14-1.95-0.479-2.88l0,0c0.66-0.93,1.95-1.15,2.87-0.49l0,0c0.93,0.66,1.149,1.95,0.489,2.88l0,0
			c-0.399,0.57-1.039,0.87-1.68,0.87l0,0C597.326,129.427,596.915,129.297,596.545,129.047z M521.056,124.947
			c-0.57-0.98-0.24-2.25,0.75-2.82l0,0c0.98-0.57,2.25-0.24,2.82,0.75l0,0c0.57,0.99,0.24,2.25-0.75,2.82l0,0
			c-0.32,0.19-0.68,0.28-1.03,0.28l0,0C522.136,125.976,521.435,125.607,521.056,124.947z M585.465,122.656L585.465,122.656
			c-1.04-0.47-1.5-1.69-1.029-2.73l0,0c0.479-1.04,1.7-1.5,2.739-1.03l0,0c1.03,0.48,1.49,1.7,1.021,2.74l0,0
			c-0.34,0.76-1.09,1.21-1.88,1.21l0,0C586.036,122.846,585.746,122.786,585.465,122.656z M532.876,119.087
			c-0.38-1.07,0.19-2.25,1.27-2.62l0,0c1.07-0.38,2.25,0.19,2.63,1.27l0,0c0.37,1.07-0.2,2.25-1.28,2.63l0,0
			c-0.22,0.07-0.45,0.11-0.67,0.11l0,0C533.966,120.476,533.166,119.947,532.876,119.087z M573.375,118.496L573.375,118.496
			c-1.12-0.26-1.8-1.38-1.529-2.49l0,0c0.26-1.11,1.38-1.79,2.489-1.52l0,0l0,0l0,0c1.11,0.26,1.79,1.38,1.521,2.49l0,0
			c-0.22,0.94-1.07,1.58-2,1.58l0,0C573.696,118.556,573.536,118.536,573.375,118.496z M545.586,115.587
			c-0.16-1.13,0.62-2.17,1.75-2.34l0,0c1.13-0.16,2.17,0.62,2.34,1.75l0,0c0.16,1.13-0.62,2.18-1.75,2.34l0,0
			c-0.1,0.01-0.2,0.02-0.3,0.02l0,0C546.616,117.357,545.736,116.616,545.586,115.587z M560.706,116.717
			c-1.14-0.05-2.02-1.02-1.97-2.16l0,0c0.05-1.14,1.02-2.02,2.16-1.97l0,0c1.14,0.05,2.02,1.02,1.97,2.16l0,0
			c-0.05,1.1-0.97,1.97-2.06,1.97l0,0C560.766,116.717,560.736,116.717,560.706,116.717z"/>
	</g>
	<g>
		<g>
			<g>
				<polyline fill="none" stroke="#E4AD2A" stroke-miterlimit="10" points="197.261,1065.336 205.822,1028.315 163.145,1000.479 
									"/>
				<polyline fill="none" stroke="#E4AD2A" stroke-miterlimit="10" points="211.425,1033.837 197.594,1066.952 216.94,1037.357 				
					"/>
				<line fill="none" stroke="#E4AD2A" stroke-miterlimit="10" x1="165.796" y1="987.869" x2="198.396" y2="1018.303"/>
				<polyline fill="none" stroke="#E4AD2A" stroke-miterlimit="10" points="187.312,1058.383 221.559,1039.354 209.596,1072.778 
					215.837,1038.583 				"/>
				<polyline fill="none" stroke="#E4AD2A" stroke-miterlimit="10" points="225.089,1039.943 222.343,1075.932 243.072,1038.801 
					290.981,1044.554 290.823,1044.667 266.108,1012.729 296.49,1032.594 264.87,1021.597 				"/>
				<polyline fill="none" stroke="#E4AD2A" stroke-miterlimit="10" points="243.4,975.181 282.285,958.916 254.923,982.013 				"/>
				<polyline fill="none" stroke="#E4AD2A" stroke-miterlimit="10" points="290.204,968.642 252.189,979.797 248.114,939.054 
					232.252,973.299 				"/>
				<line fill="none" stroke="#E4AD2A" stroke-miterlimit="10" x1="222.297" y1="938.447" x2="240.123" y2="971.5"/>
				<line fill="none" stroke="#E4AD2A" stroke-miterlimit="10" x1="205.822" y1="1028.315" x2="222.343" y2="1075.932"/>
				<polyline fill="none" stroke="#E4AD2A" stroke-miterlimit="10" points="247.633,973.299 198.396,946.605 212.306,979.797 
					222.297,938.447 224.408,973.299 235.264,937.387 				"/>
				<polyline fill="none" stroke="#E4AD2A" stroke-miterlimit="10" points="226.727,973.299 209.484,941.615 221.104,975.184 				
					"/>
				<line fill="none" stroke="#E4AD2A" stroke-miterlimit="10" x1="264.19" y1="995.916" x2="290.204" y2="968.642"/>
				<polyline fill="none" stroke="#E4AD2A" stroke-miterlimit="10" points="163.145,1013.158 199.65,998.027 170.805,975.437 
					212.306,979.797 165.796,987.398 198.525,1010.045 170.805,975.732 212.306,979.797 163.145,1013.677 200.46,1021.597 
					187.037,1059.154 243.072,1038.801 272.466,1063.095 260.328,1028.315 290.823,1044.33 264.87,1021.597 				"/>
				<line fill="none" stroke="#E4AD2A" stroke-miterlimit="10" x1="203.538" y1="989.225" x2="170.805" y2="975.732"/>
				<polyline fill="none" stroke="#E4AD2A" stroke-miterlimit="10" points="282.438,958.891 266.108,1001.788 296.49,1032.594 				
					"/>
				<polyline fill="none" stroke="#E4AD2A" stroke-miterlimit="10" points="253.08,1033.837 272.313,1063.095 266.108,1003.439 
					282.208,1054.806 266.108,1001.788 296.484,980.524 260.328,988.228 296.484,980.524 239.684,973.299 247.959,939.388 				"/>
				<circle fill="none" stroke="#E4AD2A" stroke-width="3" stroke-miterlimit="10" cx="232.252" cy="1007.223" r="33.856"/>
			</g>
		</g>
		<circle fill="#BEBDBC" cx="232.252" cy="1007.223" r="29.037"/>
		
			<line fill="none" stroke="#6BB7DD" stroke-width="0.5" stroke-miterlimit="10" x1="57.392" y1="973.292" x2="9.65" y2="1003.015"/>
		
			<line fill="none" stroke="#6BB7DD" stroke-width="0.75" stroke-miterlimit="10" x1="223.391" y1="890.958" x2="209.125" y2="941.741"/>
		
			<line fill="none" stroke="#6BB7DD" stroke-width="0.25" stroke-miterlimit="10" x1="222.297" y1="939.054" x2="231.247" y2="920.171"/>
		
			<line fill="none" stroke="#6BB7DD" stroke-width="0.25" stroke-miterlimit="10" x1="189.758" y1="890.958" x2="203.538" y2="838.525"/>
		<polyline fill="none" stroke="#6BB7DD" stroke-width="0.75" stroke-miterlimit="10" points="222.297,938.447 184.974,865.033 
			232.252,921.369 194.613,916.388 216.274,868.816 184.974,865.033 		"/>
		<polyline fill="none" stroke="#336DB4" stroke-miterlimit="10" points="30.742,975.208 -17.632,743.333 171.493,973.203 
			-106.269,900.069 113.107,763.448 -93.916,850.519 		"/>
		<polyline fill="none" stroke="#336DB4" stroke-miterlimit="10" points="-34.335,993.853 186.023,1075.799 -42.737,1255.938 
			166.722,1124.085 -90.388,1078.126 60.041,1257.325 		"/>
		<polyline fill="none" stroke="#336DB4" stroke-miterlimit="10" points="262.972,1068.993 176.001,1300.764 145.521,1203.661 
			439.203,1273.513 318.211,1104.726 341.161,1377.383 		"/>
		<polyline fill="none" stroke="#336DB4" stroke-miterlimit="10" points="184.974,796.931 502.829,724.618 368.567,898.724 
			481.911,822.371 423.365,681.841 313.22,922.914 		"/>
		<polyline fill="none" stroke="#336DB4" stroke-miterlimit="10" points="302.403,1020.264 609.234,1011.928 394.164,1120.944 
			578.575,1080.782 376.448,1101.701 438.826,895.553 		"/>
		<polyline fill="none" stroke="#6BB7DD" stroke-width="0.25" stroke-miterlimit="10" points="203.538,838.525 184.974,828.048 
			223.391,890.958 		"/>
		<polyline fill="none" stroke="#6BB7DD" stroke-width="0.25" stroke-miterlimit="10" points="209.484,941.615 232.252,921.369 
			189.758,890.958 216.94,870.178 184.974,828.721 193.265,814.744 185.11,865.757 223.391,890.958 222.297,938.447 
			184.974,796.931 		"/>
		
			<line fill="none" stroke="#6BB7DD" stroke-width="0.75" stroke-miterlimit="10" x1="64.542" y1="1014.429" x2="170.805" y2="975.437"/>
		
			<line fill="none" stroke="#6BB7DD" stroke-width="0.5" stroke-miterlimit="10" x1="165.796" y1="987.398" x2="125.13" y2="1018.024"/>
		<polyline fill="none" stroke="#6BB7DD" stroke-width="0.25" stroke-miterlimit="10" points="165.796,987.398 30.67,977.066 
			126.47,1018.83 109.027,978.933 41.56,1010.86 30.67,977.066 		"/>
		<polyline fill="none" stroke="#6BB7DD" stroke-width="0.75" stroke-miterlimit="10" points="9.65,1003.015 5.185,983.101 
			64.542,1014.429 		"/>
		<polyline fill="none" stroke="#6BB7DD" stroke-width="0.75" stroke-miterlimit="10" points="170.805,975.437 126.47,1018.83 
			57.392,973.292 43.009,1011.305 4.504,983.101 -15.444,996.586 31.406,977.087 64.542,1014.429 165.796,987.398 -34.334,991.181 
					"/>
		<polyline fill="none" stroke="#336DB4" stroke-width="0.25" stroke-miterlimit="10" points="183.083,800.204 109.027,978.933 
			112.811,761.928 -34.334,991.181 -76.074,774.086 31.334,978.945 30.33,721.421 75.7,975.184 184.974,865.033 -76.074,774.086 		
			"/>
		<polyline fill="none" stroke="#336DB4" stroke-width="0.5" stroke-miterlimit="10" points="-106.269,897.421 186.949,954.52 
			-17.336,744.815 -106.269,897.421 30.33,721.421 177.698,964.301 113.107,763.448 57.392,972.426 187.866,890.958 
			-94.212,848.651 		"/>
		
			<line fill="none" stroke="#6BB7DD" stroke-width="0.25" stroke-miterlimit="10" x1="174.346" y1="1103.706" x2="209.596" y2="1072.778"/>
		
			<line fill="none" stroke="#6BB7DD" stroke-width="0.25" stroke-miterlimit="10" x1="197.594" y1="1066.952" x2="186.023" y2="1075.799"/>
		
			<line fill="none" stroke="#6BB7DD" stroke-width="0.25" stroke-miterlimit="10" x1="200.937" y1="1124.301" x2="157.936" y2="1157.316"/>
		<polyline fill="none" stroke="#6BB7DD" stroke-width="0.25" stroke-miterlimit="10" points="197.594,1066.952 188.843,1147.726 
			185.962,1074.237 212.67,1101.223 166.414,1125.569 188.843,1147.726 		"/>
		<polyline fill="none" stroke="#6BB7DD" stroke-width="0.75" stroke-miterlimit="10" points="157.936,1157.316 166.196,1176.966 
			174.346,1103.706 		"/>
		<polyline fill="none" stroke="#6BB7DD" stroke-width="0.75" stroke-miterlimit="10" points="209.596,1072.778 185.962,1074.237 
			200.937,1124.301 166.722,1124.085 166.609,1176.434 151.495,1182.407 189.179,1147.071 174.346,1103.706 222.343,1075.932 
			147.143,1201.567 		"/>
		
			<line fill="none" stroke="#6BB7DD" stroke-width="0.75" stroke-miterlimit="10" x1="375.538" y1="1103.359" x2="272.466" y2="1063.248"/>
		
			<line fill="none" stroke="#6BB7DD" stroke-width="0.75" stroke-miterlimit="10" x1="282.329" y1="1054.87" x2="329.839" y2="1063.416"/>
		<polyline fill="none" stroke="#6BB7DD" stroke-width="0.75" stroke-miterlimit="10" points="282.208,1054.806 379.438,1153.639 
			329.272,1061.959 318.632,1104.182 391.522,1120.253 379.438,1153.639 		"/>
		<polyline fill="none" stroke="#6BB7DD" stroke-width="0.25" stroke-miterlimit="10" points="411.946,1145.995 403.282,1164.473 
			375.538,1103.359 		"/>
		<polyline fill="none" stroke="#6BB7DD" stroke-width="0.25" stroke-miterlimit="10" points="272.466,1063.248 329.272,1061.959 
			356.001,1140.259 390.649,1119.014 403.82,1164.89 427.849,1166.443 378.869,1153.171 375.538,1103.359 282.208,1054.806 
			439.474,1182.284 		"/>
		<polyline fill="none" stroke="#336DB4" stroke-width="0.25" stroke-miterlimit="10" points="147.143,1201.567 318.632,1104.182 
			251.332,1358.39 439.474,1182.284 339.539,1379.477 380.064,1151.747 187.877,1344.854 342.685,1127.553 188.843,1147.726 
			339.539,1379.477 		"/>
		<polyline fill="none" stroke="#336DB4" stroke-width="0.5" stroke-miterlimit="10" points="440.824,1271.419 235.616,1076.326 
			176.001,1300.764 440.824,1271.419 187.877,1344.854 248.801,1074.486 252.029,1357.007 355.47,1140.944 202.432,1125.459 
			438.932,1246.933 		"/>
		<polyline fill="none" stroke="#336DB4" stroke-width="0.25" stroke-miterlimit="10" points="64.542,1014.429 187.037,1059.154 
			-84.662,1172.798 147.106,1201.328 -34.125,994.033 158.815,1156.792 -115.953,1115.96 186.023,1075.799 9.65,1003.015 
			-42.882,1253.294 		"/>
		<polyline fill="none" stroke="#336DB4" stroke-width="0.5" stroke-miterlimit="10" points="105.108,1259.162 165.796,1025.991 
			-90.388,1078.126 105.108,1259.162 -115.953,1115.96 125.13,1018.024 -83.16,1172.42 166.414,1125.569 -34.334,991.181 
			60.041,1257.325 		"/>
		<polyline fill="none" stroke="#336DB4" stroke-width="0.5" stroke-miterlimit="10" points="392.226,889.808 203.538,838.525 
			422.029,680.386 184.974,796.931 468.709,867.439 272.228,950.059 354.181,644.184 247.416,939.054 480.316,823.389 
			354.181,644.184 		"/>
		<polyline fill="none" stroke="#336DB4" stroke-width="0.25" stroke-miterlimit="10" points="245.686,667.59 261.228,943.44 
			312.38,921.13 245.686,667.59 502.829,724.618 234.901,920.171 296.94,656.241 216.94,870.178 469.901,870.038 295.922,654.646 		
			"/>
		
			<line fill="none" stroke="#6BB7DD" stroke-width="0.25" stroke-miterlimit="10" x1="370.161" y1="897.706" x2="296.484" y2="980.524"/>
		
			<line fill="none" stroke="#6BB7DD" stroke-width="0.25" stroke-miterlimit="10" x1="290.204" y1="968.642" x2="314.795" y2="922.904"/>
		<polyline fill="none" stroke="#6BB7DD" stroke-width="0.75" stroke-miterlimit="10" points="290.204,968.642 418.158,910.24 
			313.22,922.914 347.896,944.923 392.226,889.808 418.158,910.24 		"/>
		<polyline fill="none" stroke="#6BB7DD" stroke-width="0.25" stroke-miterlimit="10" points="424.255,881.019 437.809,893.958 
			370.161,897.706 		"/>
		<polyline fill="none" stroke="#6BB7DD" stroke-width="0.25" stroke-miterlimit="10" points="296.484,980.524 313.22,922.914 
			396.323,925.389 390.729,890.141 438.411,893.645 449.568,874.303 417.496,910.564 370.161,897.706 290.204,968.642 
			468.895,869.672 		"/>
		<polyline fill="none" stroke="#336DB4" stroke-width="0.25" stroke-miterlimit="10" points="329.556,1062.687 347.896,944.923 
			485.046,1162.619 468.895,869.672 610.51,1013.922 416.665,909.131 375.538,1103.359 379.205,932.397 329.556,1062.687 
			610.51,1013.922 		"/>
		<polyline fill="none" stroke="#336DB4" stroke-width="0.5" stroke-miterlimit="10" points="551.733,896.484 296.49,1032.747 
			578.761,1081.073 551.733,896.484 391.843,1119.669 551.733,1136.054 300.354,993.943 484.051,1161.611 396.741,926.042 
			301.616,1007.155 578.761,1081.073 439.474,1182.284 528.361,890.374 		"/>
		<circle fill="#336DB4" cx="184.974" cy="865.033" r="2.648"/>
		<circle fill="#336DB4" cx="194.613" cy="916.388" r="2.648"/>
		<circle fill="#336DB4" cx="232.252" cy="920.171" r="2.648"/>
		<circle fill="#336DB4" cx="184.974" cy="796.931" r="2.648"/>
		<circle fill="#336DB4" cx="30.33" cy="721.421" r="2.648"/>
		<circle fill="#336DB4" cx="216.94" cy="868.816" r="2.648"/>
		<circle fill="#5D5957" cx="223.391" cy="890.958" r="1.892"/>
		<circle fill="#5D5957" cx="203.538" cy="838.525" r="1.892"/>
		<circle fill="#5D5957" cx="184.974" cy="828.721" r="1.892"/>
		<circle fill="#5D5957" cx="189.758" cy="890.958" r="1.892"/>
		<circle fill="#5D5957" cx="193.265" cy="814.744" r="1.892"/>
		<circle fill="#336DB4" cx="57.392" cy="972.426" r="2.648"/>
		<circle fill="#336DB4" cx="109.027" cy="978.245" r="2.648"/>
		<circle fill="#336DB4" cx="125.8" cy="1018.427" r="2.648"/>
		<circle fill="#336DB4" cx="41.664" cy="1011.518" r="2.648"/>
		<circle fill="#5D5957" cx="64.542" cy="1014.429" r="1.892"/>
		<circle fill="#5D5957" cx="9.65" cy="1003.015" r="1.892"/>
		<circle fill="#5D5957" cx="31.038" cy="977.076" r="1.892"/>
		<circle fill="#5D5957" cx="75.7" cy="975.184" r="1.892"/>
		<circle fill="#5D5957" cx="112.811" cy="761.579" r="1.892"/>
		<circle fill="#336DB4" cx="188.843" cy="1147.726" r="2.648"/>
		<circle fill="#336DB4" cx="212.67" cy="1101.223" r="2.648"/>
		<circle fill="#336DB4" cx="185.229" cy="1075.184" r="2.648"/>
		<circle fill="#336DB4" cx="147.143" cy="1201.567" r="2.648"/>
		<circle fill="#336DB4" cx="440.824" cy="1271.419" r="2.648"/>
		<circle fill="#336DB4" cx="439.488" cy="1182.265" r="2.648"/>
		<circle fill="#336DB4" cx="339.539" cy="1379.477" r="2.648"/>
		<circle fill="#336DB4" cx="187.877" cy="1344.854" r="2.648"/>
		<circle fill="#336DB4" cx="165.888" cy="1125.161" r="2.648"/>
		<circle fill="#5D5957" cx="174.346" cy="1103.706" r="1.892"/>
		<circle fill="#5D5957" cx="157.936" cy="1157.316" r="1.892"/>
		<circle fill="#5D5957" cx="166.609" cy="1176.434" r="1.892"/>
		<circle fill="#5D5957" cx="200.937" cy="1124.301" r="1.892"/>
		<circle fill="#5D5957" cx="151.495" cy="1182.407" r="1.892"/>
		<circle fill="#336DB4" cx="355.47" cy="1140.944" r="2.648"/>
		<circle fill="#336DB4" cx="318.211" cy="1104.726" r="2.648"/>
		<circle fill="#336DB4" cx="329.556" cy="1062.687" r="2.648"/>
		<circle fill="#336DB4" cx="391.842" cy="1119.669" r="2.648"/>
		<circle fill="#5D5957" cx="375.538" cy="1103.359" r="1.892"/>
		<circle fill="#5D5957" cx="411.946" cy="1145.995" r="1.892"/>
		<circle fill="#5D5957" cx="379.153" cy="1153.405" r="1.892"/>
		<circle fill="#5D5957" cx="342.685" cy="1127.553" r="1.892"/>
		<circle fill="#5D5957" cx="251.119" cy="1358.665" r="1.892"/>
		<circle fill="#5D5957" cx="176.238" cy="1300.458" r="1.892"/>
		<circle fill="#5D5957" cx="438.932" cy="1246.933" r="1.892"/>
		<circle fill="#5D5957" cx="427.849" cy="1166.443" r="1.892"/>
		<circle fill="#336DB4" cx="105.108" cy="1259.162" r="2.648"/>
		<circle fill="#5D5957" cx="60.041" cy="1257.325" r="1.892"/>
		<circle fill="#336DB4" cx="469.767" cy="869.866" r="2.648"/>
		<circle fill="#336DB4" cx="550.898" cy="895.85" r="2.648"/>
		<circle fill="#336DB4" cx="609.234" cy="1012.729" r="2.648"/>
		<circle fill="#336DB4" cx="578.761" cy="1080.753" r="2.648"/>
		<circle fill="#336DB4" cx="418.158" cy="909.77" r="2.648"/>
		<circle fill="#336DB4" cx="348.159" cy="944.967" r="2.648"/>
		<circle fill="#336DB4" cx="312.826" cy="922.449" r="2.648"/>
		<circle fill="#336DB4" cx="391.326" cy="890.374" r="2.648"/>
		<circle fill="#336DB4" cx="245.686" cy="667.59" r="2.648"/>
		<circle fill="#336DB4" cx="354.181" cy="644.184" r="2.648"/>
		<circle fill="#336DB4" cx="502.829" cy="724.618" r="2.648"/>
		<circle fill="#5D5957" cx="422.348" cy="680.246" r="1.892"/>
		<circle fill="#5D5957" cx="480.316" cy="823.389" r="1.892"/>
		<circle fill="#5D5957" cx="450.15" cy="873.722" r="1.892"/>
		<circle fill="#5D5957" cx="424.255" cy="881.019" r="1.892"/>
		<circle fill="#5D5957" cx="437.809" cy="893.958" r="1.892"/>
		<circle fill="#5D5957" cx="528.065" cy="890.374" r="1.892"/>
		<circle fill="#5D5957" cx="553.547" cy="1135.808" r="1.892"/>
		<circle fill="#5D5957" cx="485.046" cy="1162.619" r="1.892"/>
		<circle fill="#5D5957" cx="395.72" cy="925.703" r="1.892"/>
		<circle fill="#5D5957" cx="378.266" cy="932.496" r="1.892"/>
		<circle fill="#5D5957" cx="370.161" cy="897.706" r="1.892"/>
		<circle fill="#5D5957" cx="297.1" cy="655.954" r="1.892"/>
		<path fill="#5D5957" d="M233.533,1076.134c-0.06-1.141,0.82-2.11,1.96-2.16l0,0c1.14-0.051,2.11,0.83,2.16,1.96l0,0
			c0.05,1.14-0.83,2.109-1.96,2.16l0,0c-0.04,0.01-0.07,0.01-0.1,0.01l0,0C234.493,1078.104,233.583,1077.233,233.533,1076.134z
			 M222.132,1077.463c-1.13-0.159-1.92-1.199-1.76-2.329l0,0c0.17-1.131,1.21-1.921,2.34-1.761l0,0c1.13,0.17,1.91,1.21,1.75,2.34
			l0,0c-0.14,1.03-1.03,1.771-2.04,1.771l0,0C222.333,1077.483,222.232,1077.483,222.132,1077.463z M246.632,1074.653
			c-0.27-1.11,0.41-2.22,1.521-2.49l0,0c1.109-0.27,2.229,0.41,2.489,1.521l0,0c0.271,1.109-0.409,2.22-1.52,2.489l0,0l0,0l0,0
			c-0.16,0.04-0.32,0.061-0.48,0.061l0,0C247.703,1076.233,246.863,1075.594,246.632,1074.653z M208.933,1074.283
			c-1.08-0.37-1.65-1.55-1.28-2.62l0,0c0.37-1.08,1.55-1.66,2.63-1.279l0,0c1.07,0.369,1.65,1.539,1.27,2.619l0,0
			c-0.29,0.86-1.09,1.391-1.95,1.391l0,0C209.382,1074.394,209.152,1074.363,208.933,1074.283z M259.222,1070.713
			c-0.479-1.04-0.02-2.27,1.011-2.739l0,0c1.04-0.48,2.26-0.021,2.739,1.02l0,0c0.48,1.03,0.021,2.26-1.02,2.73l0,0
			c-0.28,0.13-0.57,0.189-0.86,0.189l0,0C260.312,1071.913,259.562,1071.463,259.222,1070.713z M196.583,1068.644c0,0,0,0-0.01,0
			l0,0c-0.98-0.57-1.32-1.83-0.75-2.82l0,0c0.57-0.99,1.83-1.32,2.82-0.75l0,0c0.99,0.57,1.33,1.83,0.76,2.82l0,0
			c-0.39,0.66-1.08,1.029-1.79,1.029l0,0C197.263,1068.923,196.902,1068.833,196.583,1068.644z M270.823,1064.443
			c-0.66-0.93-0.44-2.22,0.479-2.88l0,0c0.931-0.66,2.221-0.44,2.88,0.479l0,0c0.67,0.931,0.45,2.221-0.479,2.88l0,0l0,0l0,0
			c-0.36,0.261-0.78,0.391-1.19,0.391l0,0C271.863,1065.313,271.233,1065.003,270.823,1064.443z M185.522,1060.773L185.522,1060.773
			L185.522,1060.773c-0.87-0.75-0.96-2.05-0.21-2.92l0,0c0.74-0.86,2.05-0.95,2.91-0.21l0,0c0.86,0.75,0.96,2.05,0.21,2.92l0,0
			c-0.41,0.47-0.98,0.71-1.56,0.71l0,0C186.393,1061.273,185.913,1061.104,185.522,1060.773z M281.042,1056.094
			c-0.83-0.78-0.86-2.091-0.07-2.921v0.011c0.79-0.83,2.09-0.86,2.92-0.07l0,0c0.82,0.78,0.851,2.09,0.07,2.92l0,0
			c-0.41,0.42-0.95,0.63-1.5,0.63l0,0C281.953,1056.663,281.443,1056.474,281.042,1056.094z M176.143,1050.953
			c-0.71-0.89-0.55-2.189,0.34-2.899l0,0c0.89-0.71,2.19-0.551,2.9,0.34v0.01c0.7,0.89,0.55,2.19-0.34,2.89l0,0
			c-0.38,0.301-0.83,0.45-1.28,0.45l0,0C177.152,1051.743,176.553,1051.474,176.143,1050.953z M289.502,1045.974
			c-0.96-0.61-1.24-1.891-0.62-2.851l0,0c0.62-0.96,1.9-1.239,2.86-0.62l0,0c0.95,0.62,1.229,1.9,0.609,2.86l0,0
			c-0.39,0.61-1.06,0.94-1.729,0.94l0,0C290.233,1046.304,289.852,1046.203,289.502,1045.974z M168.783,1039.543L168.783,1039.543
			L168.783,1039.543c-0.53-1.01-0.13-2.26,0.88-2.779l0,0c1.02-0.53,2.26-0.13,2.78,0.88v0.01c0.53,1.01,0.13,2.25-0.88,2.78l0,0
			c-0.3,0.149-0.63,0.229-0.95,0.229l0,0C169.873,1040.663,169.152,1040.253,168.783,1039.543z M295.903,1034.443
			c-1.061-0.43-1.57-1.63-1.15-2.69l0,0c0.42-1.05,1.62-1.569,2.68-1.14l0,0c1.061,0.42,1.58,1.62,1.15,2.68l0,0
			c-0.32,0.811-1.1,1.301-1.92,1.301l0,0C296.413,1034.594,296.153,1034.543,295.903,1034.443z M163.723,1026.943
			c-0.32-1.09,0.3-2.24,1.4-2.56l0,0c1.09-0.32,2.24,0.3,2.56,1.399l0,0c0.32,1.09-0.3,2.24-1.4,2.561l0,0
			c-0.19,0.06-0.39,0.079-0.58,0.079l0,0C164.803,1028.423,163.982,1027.844,163.723,1026.943z M299.993,1021.903
			c-1.13-0.22-1.86-1.3-1.65-2.42l0,0c0.22-1.12,1.3-1.85,2.42-1.64l0,0c1.12,0.22,1.851,1.3,1.641,2.42l0,0l0,0l0,0
			c-0.19,0.989-1.061,1.68-2.03,1.68l0,0C300.252,1021.943,300.123,1021.923,299.993,1021.903z M161.152,1013.613L161.152,1013.613
			L161.152,1013.613c-0.11-1.13,0.72-2.14,1.86-2.25l0,0c1.13-0.11,2.14,0.72,2.25,1.86l0,0c0.1,1.13-0.73,2.14-1.86,2.25l0,0
			c-0.07,0.01-0.13,0.01-0.2,0.01l0,0C162.152,1015.483,161.252,1014.683,161.152,1013.613z M299.552,1006.753L299.552,1006.753
			c0-0.02,0-0.03,0-0.05l0,0c0-0.03,0-0.07,0-0.1l0,0c-0.01-1.14,0.92-2.07,2.061-2.07l0,0c1.14,0,2.06,0.92,2.069,2.06l0,0
			c0,0.03,0,0.05,0,0.08l0,0c0,0.03,0,0.05,0,0.08l0,0c0,1.14-0.93,2.06-2.069,2.06l0,0
			C300.472,1008.813,299.552,1007.894,299.552,1006.753z M163.002,1002.293c-1.14-0.11-1.97-1.11-1.87-2.25l0,0l0,0l0,0
			c0.11-1.13,1.11-1.97,2.25-1.86l0,0c1.13,0.1,1.97,1.11,1.86,2.24l0,0c-0.1,1.07-1,1.88-2.05,1.88l0,0
			C163.132,1002.303,163.062,1002.293,163.002,1002.293z M298.323,993.874c-0.221-1.13,0.51-2.21,1.63-2.42l0,0
			c1.12-0.22,2.2,0.51,2.42,1.63l0,0l0,0l0,0c0.22,1.12-0.51,2.2-1.63,2.42l0,0c-0.141,0.02-0.271,0.04-0.4,0.04l0,0
			C299.373,995.543,298.512,994.854,298.323,993.874z M165.083,989.273c-1.1-0.33-1.73-1.47-1.41-2.56l0,0l0,0l0,0
			c0.32-1.1,1.47-1.73,2.56-1.41l0,0c1.1,0.32,1.73,1.47,1.41,2.56l0,0c-0.27,0.9-1.09,1.49-1.99,1.49l0,0
			C165.462,989.354,165.272,989.323,165.083,989.273z M294.693,981.604c-0.42-1.06,0.09-2.26,1.149-2.69l0,0
			c1.05-0.42,2.26,0.09,2.681,1.15l0,0c0.43,1.06-0.08,2.26-1.141,2.68l0,0c-0.25,0.11-0.51,0.15-0.77,0.15l0,0
			C295.792,982.894,295.023,982.414,294.693,981.604z M169.603,976.874c-1.02-0.52-1.42-1.76-0.9-2.78l0,0
			c0.53-1.01,1.77-1.41,2.79-0.89l0,0c1.01,0.52,1.41,1.77,0.89,2.78l0,0c-0.37,0.71-1.09,1.12-1.84,1.12l0,0
			C170.223,977.104,169.902,977.033,169.603,976.874z M288.802,970.253c-0.62-0.96-0.34-2.24,0.61-2.86l0,0
			c0.96-0.62,2.24-0.34,2.86,0.62l0,0c0.619,0.95,0.34,2.23-0.61,2.85l0,0c-0.351,0.23-0.74,0.33-1.12,0.33l0,0
			C289.863,971.193,289.203,970.863,288.802,970.253z M176.393,965.573c-0.9-0.71-1.05-2.01-0.35-2.9l0,0c0.71-0.9,2-1.06,2.9-0.35
			l0,0c0.9,0.7,1.05,2,0.35,2.9l0,0c-0.41,0.52-1.02,0.79-1.63,0.79l0,0C177.223,966.013,176.772,965.863,176.393,965.573z
			 M280.873,960.213c-0.79-0.82-0.76-2.13,0.06-2.92l0,0c0.82-0.79,2.13-0.76,2.92,0.07l0,0l0,0l0,0c0.79,0.82,0.761,2.13-0.06,2.92
			l0,0c-0.4,0.38-0.92,0.57-1.43,0.57l0,0C281.812,960.854,281.273,960.644,280.873,960.213z M185.203,955.743
			c-0.75-0.86-0.66-2.16,0.2-2.91l0,0c0.86-0.75,2.16-0.66,2.91,0.2l0,0c0.75,0.86,0.66,2.17-0.2,2.92l0,0
			c-0.39,0.34-0.88,0.5-1.36,0.5l0,0C186.183,956.453,185.603,956.213,185.203,955.743z M271.182,951.854
			c-0.92-0.66-1.14-1.95-0.479-2.88l0,0c0.66-0.93,1.95-1.15,2.87-0.49l0,0c0.93,0.66,1.149,1.95,0.489,2.88l0,0
			c-0.399,0.57-1.039,0.87-1.68,0.87l0,0C271.962,952.233,271.552,952.104,271.182,951.854z M195.692,947.753
			c-0.57-0.98-0.24-2.25,0.75-2.82l0,0c0.98-0.57,2.25-0.24,2.82,0.75l0,0c0.57,0.99,0.24,2.25-0.75,2.82l0,0
			c-0.32,0.19-0.68,0.28-1.03,0.28l0,0C196.772,948.783,196.072,948.414,195.692,947.753z M260.102,945.463L260.102,945.463
			c-1.04-0.47-1.5-1.69-1.029-2.73l0,0c0.479-1.04,1.7-1.5,2.739-1.03l0,0c1.03,0.48,1.49,1.7,1.021,2.74l0,0
			c-0.34,0.76-1.09,1.21-1.88,1.21l0,0C260.672,945.653,260.382,945.593,260.102,945.463z M207.513,941.894
			c-0.38-1.07,0.19-2.25,1.27-2.62l0,0c1.07-0.38,2.25,0.19,2.63,1.27l0,0c0.37,1.07-0.2,2.25-1.28,2.63l0,0
			c-0.22,0.07-0.45,0.11-0.67,0.11l0,0C208.603,943.283,207.803,942.753,207.513,941.894z M248.012,941.303L248.012,941.303
			c-1.12-0.26-1.8-1.38-1.529-2.49l0,0c0.26-1.11,1.38-1.79,2.489-1.52l0,0l0,0l0,0c1.11,0.26,1.79,1.38,1.521,2.49l0,0
			c-0.22,0.94-1.07,1.58-2,1.58l0,0C248.333,941.363,248.172,941.343,248.012,941.303z M220.223,938.394
			c-0.16-1.13,0.62-2.17,1.75-2.34l0,0c1.13-0.16,2.17,0.62,2.34,1.75l0,0c0.16,1.13-0.62,2.18-1.75,2.34l0,0
			c-0.1,0.01-0.2,0.02-0.3,0.02l0,0C221.252,940.164,220.373,939.423,220.223,938.394z M235.342,939.523
			c-1.14-0.05-2.02-1.02-1.97-2.16l0,0c0.05-1.14,1.02-2.02,2.16-1.97l0,0c1.14,0.05,2.02,1.02,1.97,2.16l0,0
			c-0.05,1.1-0.97,1.97-2.06,1.97l0,0C235.402,939.523,235.373,939.523,235.342,939.523z"/>
	</g>
	<g>
		<g>
			<g>
				<polyline fill="none" stroke="#E4AD2A" stroke-miterlimit="10" points="632.814,1780.809 641.375,1743.787 598.698,1715.951 
									"/>
				<polyline fill="none" stroke="#E4AD2A" stroke-miterlimit="10" points="646.978,1749.309 633.147,1782.424 652.493,1752.83 				
					"/>
				<line fill="none" stroke="#E4AD2A" stroke-miterlimit="10" x1="601.349" y1="1703.342" x2="633.949" y2="1733.775"/>
				<polyline fill="none" stroke="#E4AD2A" stroke-miterlimit="10" points="622.865,1773.855 657.112,1754.827 645.149,1788.25 
					651.39,1754.055 				"/>
				<polyline fill="none" stroke="#E4AD2A" stroke-miterlimit="10" points="660.642,1755.415 657.896,1791.404 678.625,1754.273 
					726.534,1760.027 726.376,1760.139 701.661,1728.201 732.043,1748.066 700.423,1737.069 				"/>
				<polyline fill="none" stroke="#E4AD2A" stroke-miterlimit="10" points="678.953,1690.653 717.838,1674.389 690.476,1697.485 
									"/>
				<polyline fill="none" stroke="#E4AD2A" stroke-miterlimit="10" points="725.757,1684.114 687.742,1695.27 683.667,1654.526 
					667.805,1688.771 				"/>
				<line fill="none" stroke="#E4AD2A" stroke-miterlimit="10" x1="657.85" y1="1653.919" x2="675.676" y2="1686.972"/>
				<line fill="none" stroke="#E4AD2A" stroke-miterlimit="10" x1="641.375" y1="1743.787" x2="657.896" y2="1791.404"/>
				<polyline fill="none" stroke="#E4AD2A" stroke-miterlimit="10" points="683.186,1688.771 633.949,1662.078 647.859,1695.27 
					657.85,1653.919 659.961,1688.771 670.817,1652.859 				"/>
				<polyline fill="none" stroke="#E4AD2A" stroke-miterlimit="10" points="662.28,1688.771 645.037,1657.087 656.658,1690.657 				
					"/>
				<line fill="none" stroke="#E4AD2A" stroke-miterlimit="10" x1="699.743" y1="1711.388" x2="725.757" y2="1684.114"/>
				<polyline fill="none" stroke="#E4AD2A" stroke-miterlimit="10" points="598.698,1728.631 635.203,1713.499 606.358,1690.91 
					647.859,1695.27 601.349,1702.87 634.078,1725.518 606.358,1691.204 647.859,1695.27 598.698,1729.149 636.014,1737.069 
					622.59,1774.627 678.625,1754.273 708.019,1778.567 695.881,1743.787 726.376,1759.803 700.423,1737.069 				"/>
				<line fill="none" stroke="#E4AD2A" stroke-miterlimit="10" x1="639.091" y1="1704.697" x2="606.358" y2="1691.204"/>
				<polyline fill="none" stroke="#E4AD2A" stroke-miterlimit="10" points="717.991,1674.363 701.661,1717.26 732.043,1748.066 				
					"/>
				<polyline fill="none" stroke="#E4AD2A" stroke-miterlimit="10" points="688.633,1749.309 707.866,1778.567 701.661,1718.911 
					717.761,1770.279 701.661,1717.26 732.037,1695.997 695.881,1703.701 732.037,1695.997 675.237,1688.771 683.512,1654.861 				
					"/>
				<circle fill="none" stroke="#E4AD2A" stroke-width="3" stroke-miterlimit="10" cx="667.805" cy="1722.696" r="33.856"/>
			</g>
		</g>
		<circle fill="#BEBDBC" cx="667.805" cy="1722.696" r="29.037"/>
		
			<line fill="none" stroke="#6BB7DD" stroke-width="0.5" stroke-miterlimit="10" x1="492.945" y1="1688.765" x2="445.203" y2="1718.487"/>
		
			<line fill="none" stroke="#6BB7DD" stroke-width="0.75" stroke-miterlimit="10" x1="658.944" y1="1606.43" x2="644.678" y2="1657.213"/>
		
			<line fill="none" stroke="#6BB7DD" stroke-width="0.25" stroke-miterlimit="10" x1="657.85" y1="1654.526" x2="666.8" y2="1635.644"/>
		
			<line fill="none" stroke="#6BB7DD" stroke-width="0.25" stroke-miterlimit="10" x1="625.311" y1="1606.43" x2="639.091" y2="1553.998"/>
		<polyline fill="none" stroke="#6BB7DD" stroke-width="0.75" stroke-miterlimit="10" points="657.85,1653.919 620.527,1580.505 
			667.805,1636.841 630.166,1631.86 651.827,1584.289 620.527,1580.505 		"/>
		<polyline fill="none" stroke="#336DB4" stroke-miterlimit="10" points="466.296,1690.68 417.921,1458.806 607.046,1688.676 
			329.284,1615.542 548.66,1478.92 341.637,1565.992 		"/>
		<polyline fill="none" stroke="#336DB4" stroke-miterlimit="10" points="401.218,1709.325 621.576,1791.272 392.816,1971.411 
			602.275,1839.557 345.165,1793.599 495.594,1972.798 		"/>
		<polyline fill="none" stroke="#336DB4" stroke-miterlimit="10" points="698.525,1784.466 611.554,2016.236 581.074,1919.134 
			874.756,1988.985 753.764,1820.198 776.714,2092.856 		"/>
		<polyline fill="none" stroke="#336DB4" stroke-miterlimit="10" points="620.527,1512.404 938.382,1440.09 804.12,1614.196 
			917.464,1537.844 858.918,1397.314 748.773,1638.387 		"/>
		<polyline fill="none" stroke="#336DB4" stroke-miterlimit="10" points="737.956,1735.736 1044.787,1727.4 829.717,1836.416 
			1014.128,1796.254 812.001,1817.173 874.379,1611.026 		"/>
		<polyline fill="none" stroke="#6BB7DD" stroke-width="0.25" stroke-miterlimit="10" points="639.091,1553.998 620.527,1543.52 
			658.944,1606.43 		"/>
		<polyline fill="none" stroke="#6BB7DD" stroke-width="0.25" stroke-miterlimit="10" points="645.037,1657.087 667.805,1636.841 
			625.311,1606.43 652.493,1585.65 620.527,1544.194 628.818,1530.217 620.663,1581.229 658.944,1606.43 657.85,1653.919 
			620.527,1512.404 		"/>
		
			<line fill="none" stroke="#6BB7DD" stroke-width="0.75" stroke-miterlimit="10" x1="500.095" y1="1729.901" x2="606.358" y2="1690.91"/>
		
			<line fill="none" stroke="#6BB7DD" stroke-width="0.5" stroke-miterlimit="10" x1="601.349" y1="1702.87" x2="560.683" y2="1733.497"/>
		<polyline fill="none" stroke="#6BB7DD" stroke-width="0.25" stroke-miterlimit="10" points="601.349,1702.87 466.223,1692.538 
			562.023,1734.302 544.58,1694.406 477.113,1726.333 466.223,1692.538 		"/>
		<polyline fill="none" stroke="#6BB7DD" stroke-width="0.75" stroke-miterlimit="10" points="445.203,1718.487 440.738,1698.573 
			500.095,1729.901 		"/>
		<polyline fill="none" stroke="#6BB7DD" stroke-width="0.75" stroke-miterlimit="10" points="606.358,1690.91 562.023,1734.302 
			492.945,1688.765 478.562,1726.777 440.057,1698.573 420.109,1712.058 466.959,1692.559 500.095,1729.901 601.349,1702.87 
			401.219,1706.654 		"/>
		<polyline fill="none" stroke="#336DB4" stroke-width="0.25" stroke-miterlimit="10" points="618.636,1515.677 544.58,1694.406 
			548.364,1477.4 401.219,1706.654 359.479,1489.559 466.887,1694.417 465.883,1436.893 511.253,1690.657 620.527,1580.505 
			359.479,1489.559 		"/>
		<polyline fill="none" stroke="#336DB4" stroke-width="0.5" stroke-miterlimit="10" points="329.284,1612.893 622.502,1669.993 
			418.217,1460.288 329.284,1612.893 465.883,1436.893 613.251,1679.774 548.66,1478.92 492.945,1687.898 623.419,1606.43 
			341.341,1564.123 		"/>
		
			<line fill="none" stroke="#6BB7DD" stroke-width="0.25" stroke-miterlimit="10" x1="609.899" y1="1819.178" x2="645.149" y2="1788.25"/>
		
			<line fill="none" stroke="#6BB7DD" stroke-width="0.25" stroke-miterlimit="10" x1="633.147" y1="1782.424" x2="621.576" y2="1791.272"/>
		
			<line fill="none" stroke="#6BB7DD" stroke-width="0.25" stroke-miterlimit="10" x1="636.49" y1="1839.773" x2="593.489" y2="1872.789"/>
		<polyline fill="none" stroke="#6BB7DD" stroke-width="0.25" stroke-miterlimit="10" points="633.147,1782.424 624.396,1863.199 
			621.515,1789.709 648.223,1816.695 601.967,1841.041 624.396,1863.199 		"/>
		<polyline fill="none" stroke="#6BB7DD" stroke-width="0.75" stroke-miterlimit="10" points="593.489,1872.789 601.749,1892.439 
			609.899,1819.178 		"/>
		<polyline fill="none" stroke="#6BB7DD" stroke-width="0.75" stroke-miterlimit="10" points="645.149,1788.25 621.515,1789.709 
			636.49,1839.773 602.275,1839.557 602.162,1891.907 587.048,1897.88 624.732,1862.543 609.899,1819.178 657.896,1791.404 
			582.696,1917.04 		"/>
		
			<line fill="none" stroke="#6BB7DD" stroke-width="0.75" stroke-miterlimit="10" x1="811.091" y1="1818.831" x2="708.019" y2="1778.72"/>
		
			<line fill="none" stroke="#6BB7DD" stroke-width="0.75" stroke-miterlimit="10" x1="717.882" y1="1770.342" x2="765.392" y2="1778.888"/>
		<polyline fill="none" stroke="#6BB7DD" stroke-width="0.75" stroke-miterlimit="10" points="717.761,1770.279 814.991,1869.111 
			764.825,1777.431 754.185,1819.654 827.075,1835.725 814.991,1869.111 		"/>
		<polyline fill="none" stroke="#6BB7DD" stroke-width="0.25" stroke-miterlimit="10" points="847.499,1861.467 838.835,1879.946 
			811.091,1818.831 		"/>
		<polyline fill="none" stroke="#6BB7DD" stroke-width="0.25" stroke-miterlimit="10" points="708.019,1778.72 764.825,1777.431 
			791.554,1855.732 826.202,1834.486 839.373,1880.362 863.402,1881.916 814.422,1868.644 811.091,1818.831 717.761,1770.279 
			875.027,1897.756 		"/>
		<polyline fill="none" stroke="#336DB4" stroke-width="0.25" stroke-miterlimit="10" points="582.696,1917.04 754.185,1819.654 
			686.885,2073.863 875.027,1897.756 775.092,2094.95 815.617,1867.219 623.43,2060.326 778.238,1843.026 624.396,1863.199 
			775.092,2094.95 		"/>
		<polyline fill="none" stroke="#336DB4" stroke-width="0.5" stroke-miterlimit="10" points="876.378,1986.891 671.169,1791.798 
			611.554,2016.236 876.378,1986.891 623.43,2060.326 684.354,1789.958 687.582,2072.479 791.023,1856.417 637.985,1840.932 
			874.485,1962.405 		"/>
		<polyline fill="none" stroke="#336DB4" stroke-width="0.25" stroke-miterlimit="10" points="500.095,1729.901 622.59,1774.627 
			350.891,1888.271 582.659,1916.8 401.428,1709.506 594.368,1872.265 319.6,1831.432 621.576,1791.272 445.203,1718.487 
			392.672,1968.766 		"/>
		<polyline fill="none" stroke="#336DB4" stroke-width="0.5" stroke-miterlimit="10" points="540.661,1974.635 601.349,1741.464 
			345.165,1793.599 540.661,1974.635 319.6,1831.432 560.683,1733.497 352.393,1887.893 601.967,1841.041 401.219,1706.654 
			495.594,1972.798 		"/>
		<polyline fill="none" stroke="#336DB4" stroke-width="0.5" stroke-miterlimit="10" points="827.779,1605.281 639.091,1553.998 
			857.582,1395.858 620.527,1512.404 904.262,1582.911 707.781,1665.531 789.734,1359.656 682.969,1654.526 915.869,1538.861 
			789.734,1359.656 		"/>
		<polyline fill="none" stroke="#336DB4" stroke-width="0.25" stroke-miterlimit="10" points="681.239,1383.062 696.781,1658.912 
			747.933,1636.602 681.239,1383.062 938.382,1440.09 670.454,1635.644 732.493,1371.713 652.493,1585.65 905.454,1585.511 
			731.475,1370.119 		"/>
		
			<line fill="none" stroke="#6BB7DD" stroke-width="0.25" stroke-miterlimit="10" x1="805.714" y1="1613.178" x2="732.037" y2="1695.997"/>
		
			<line fill="none" stroke="#6BB7DD" stroke-width="0.25" stroke-miterlimit="10" x1="725.757" y1="1684.114" x2="750.348" y2="1638.376"/>
		<polyline fill="none" stroke="#6BB7DD" stroke-width="0.75" stroke-miterlimit="10" points="725.757,1684.114 853.711,1625.713 
			748.773,1638.387 783.449,1660.396 827.779,1605.281 853.711,1625.713 		"/>
		<polyline fill="none" stroke="#6BB7DD" stroke-width="0.25" stroke-miterlimit="10" points="859.808,1596.492 873.362,1609.431 
			805.714,1613.178 		"/>
		<polyline fill="none" stroke="#6BB7DD" stroke-width="0.25" stroke-miterlimit="10" points="732.037,1695.997 748.773,1638.387 
			831.876,1640.862 826.282,1605.613 873.964,1609.117 885.121,1589.775 853.049,1626.036 805.714,1613.178 725.757,1684.114 
			904.448,1585.145 		"/>
		<polyline fill="none" stroke="#336DB4" stroke-width="0.25" stroke-miterlimit="10" points="765.109,1778.16 783.449,1660.396 
			920.599,1878.092 904.448,1585.145 1046.063,1729.394 852.218,1624.604 811.091,1818.831 814.758,1647.869 765.109,1778.16 
			1046.063,1729.394 		"/>
		<polyline fill="none" stroke="#336DB4" stroke-width="0.5" stroke-miterlimit="10" points="987.286,1611.957 732.043,1748.219 
			1014.314,1796.545 987.286,1611.957 827.396,1835.142 987.286,1851.526 735.907,1709.415 919.604,1877.083 832.294,1641.514 
			737.169,1722.627 1014.314,1796.545 875.027,1897.756 963.914,1605.846 		"/>
		<circle fill="#336DB4" cx="620.527" cy="1580.505" r="2.648"/>
		<circle fill="#336DB4" cx="630.166" cy="1631.86" r="2.648"/>
		<circle fill="#336DB4" cx="667.805" cy="1635.644" r="2.648"/>
		<circle fill="#336DB4" cx="620.527" cy="1512.404" r="2.648"/>
		<circle fill="#336DB4" cx="329.284" cy="1612.893" r="2.648"/>
		<circle fill="#336DB4" cx="401.218" cy="1706.677" r="2.648"/>
		<circle fill="#336DB4" cx="359.479" cy="1489.559" r="2.648"/>
		<circle fill="#336DB4" cx="465.883" cy="1436.893" r="2.648"/>
		<circle fill="#336DB4" cx="652.493" cy="1584.289" r="2.648"/>
		<circle fill="#5D5957" cx="658.944" cy="1606.43" r="1.892"/>
		<circle fill="#5D5957" cx="639.091" cy="1553.998" r="1.892"/>
		<circle fill="#5D5957" cx="620.527" cy="1544.194" r="1.892"/>
		<circle fill="#5D5957" cx="625.311" cy="1606.43" r="1.892"/>
		<circle fill="#5D5957" cx="628.818" cy="1530.217" r="1.892"/>
		<circle fill="#336DB4" cx="492.945" cy="1687.898" r="2.648"/>
		<circle fill="#336DB4" cx="544.58" cy="1693.717" r="2.648"/>
		<circle fill="#336DB4" cx="561.353" cy="1733.9" r="2.648"/>
		<circle fill="#336DB4" cx="477.217" cy="1726.99" r="2.648"/>
		<circle fill="#5D5957" cx="500.095" cy="1729.901" r="1.892"/>
		<circle fill="#5D5957" cx="445.203" cy="1718.487" r="1.892"/>
		<circle fill="#5D5957" cx="466.591" cy="1692.549" r="1.892"/>
		<circle fill="#5D5957" cx="511.253" cy="1690.656" r="1.892"/>
		<circle fill="#5D5957" cx="548.364" cy="1477.052" r="1.892"/>
		<circle fill="#5D5957" cx="418.217" cy="1460.674" r="1.892"/>
		<circle fill="#5D5957" cx="341.341" cy="1564.123" r="1.892"/>
		<circle fill="#5D5957" cx="420.109" cy="1712.058" r="1.892"/>
		<circle fill="#336DB4" cx="624.397" cy="1863.199" r="2.648"/>
		<circle fill="#336DB4" cx="648.223" cy="1816.695" r="2.648"/>
		<circle fill="#336DB4" cx="620.782" cy="1790.656" r="2.648"/>
		<circle fill="#336DB4" cx="582.696" cy="1917.04" r="2.648"/>
		<circle fill="#336DB4" cx="875.042" cy="1897.738" r="2.648"/>
		<circle fill="#336DB4" cx="601.441" cy="1840.634" r="2.648"/>
		<circle fill="#5D5957" cx="609.899" cy="1819.178" r="1.892"/>
		<circle fill="#5D5957" cx="593.489" cy="1872.789" r="1.892"/>
		<circle fill="#5D5957" cx="602.162" cy="1891.907" r="1.892"/>
		<circle fill="#5D5957" cx="636.49" cy="1839.773" r="1.892"/>
		<circle fill="#5D5957" cx="587.048" cy="1897.88" r="1.892"/>
		<circle fill="#336DB4" cx="791.023" cy="1856.417" r="2.648"/>
		<circle fill="#336DB4" cx="753.764" cy="1820.198" r="2.648"/>
		<circle fill="#336DB4" cx="765.109" cy="1778.16" r="2.648"/>
		<circle fill="#336DB4" cx="827.396" cy="1835.142" r="2.648"/>
		<circle fill="#5D5957" cx="811.091" cy="1818.831" r="1.892"/>
		<circle fill="#5D5957" cx="847.499" cy="1861.467" r="1.892"/>
		<circle fill="#5D5957" cx="814.706" cy="1868.878" r="1.892"/>
		<circle fill="#5D5957" cx="778.238" cy="1843.026" r="1.892"/>
		<circle fill="#5D5957" cx="863.402" cy="1881.916" r="1.892"/>
		<circle fill="#336DB4" cx="401.284" cy="1706.861" r="2.648"/>
		<circle fill="#336DB4" cx="319.6" cy="1831.432" r="2.648"/>
		<circle fill="#5D5957" cx="350.544" cy="1888.29" r="1.892"/>
		<circle fill="#5D5957" cx="345.551" cy="1793.578" r="1.892"/>
		<circle fill="#336DB4" cx="853.711" cy="1625.243" r="2.648"/>
		<circle fill="#336DB4" cx="783.712" cy="1660.439" r="2.648"/>
		<circle fill="#336DB4" cx="748.379" cy="1637.922" r="2.648"/>
		<circle fill="#336DB4" cx="826.879" cy="1605.846" r="2.648"/>
		<circle fill="#336DB4" cx="681.239" cy="1383.062" r="2.648"/>
		<circle fill="#336DB4" cx="789.734" cy="1359.656" r="2.648"/>
		<circle fill="#5D5957" cx="857.901" cy="1395.719" r="1.892"/>
		<circle fill="#5D5957" cx="885.703" cy="1589.195" r="1.892"/>
		<circle fill="#5D5957" cx="859.808" cy="1596.492" r="1.892"/>
		<circle fill="#5D5957" cx="873.362" cy="1609.431" r="1.892"/>
		<circle fill="#5D5957" cx="831.273" cy="1641.175" r="1.892"/>
		<circle fill="#5D5957" cx="813.819" cy="1647.969" r="1.892"/>
		<circle fill="#5D5957" cx="805.714" cy="1613.178" r="1.892"/>
		<circle fill="#5D5957" cx="732.653" cy="1371.427" r="1.892"/>
		<path fill="#5D5957" d="M669.086,1791.606c-0.06-1.141,0.82-2.11,1.96-2.16l0,0c1.14-0.051,2.11,0.83,2.16,1.96l0,0
			c0.05,1.14-0.83,2.109-1.96,2.16l0,0c-0.04,0.01-0.07,0.01-0.1,0.01l0,0C670.046,1793.576,669.136,1792.706,669.086,1791.606z
			 M657.685,1792.935c-1.13-0.159-1.92-1.199-1.76-2.329l0,0c0.17-1.131,1.21-1.921,2.34-1.761l0,0c1.13,0.17,1.91,1.21,1.75,2.34
			l0,0c-0.14,1.03-1.03,1.771-2.04,1.771l0,0C657.886,1792.956,657.785,1792.956,657.685,1792.935z M682.185,1790.126
			c-0.27-1.11,0.41-2.22,1.521-2.49l0,0c1.109-0.27,2.229,0.41,2.489,1.521l0,0c0.271,1.109-0.409,2.22-1.52,2.489l0,0l0,0l0,0
			c-0.16,0.04-0.32,0.061-0.48,0.061l0,0C683.256,1791.706,682.416,1791.066,682.185,1790.126z M644.486,1789.756
			c-1.08-0.37-1.65-1.55-1.28-2.62l0,0c0.37-1.08,1.55-1.66,2.63-1.279l0,0c1.07,0.369,1.65,1.539,1.27,2.619l0,0
			c-0.29,0.86-1.09,1.391-1.95,1.391l0,0C644.935,1789.866,644.705,1789.836,644.486,1789.756z M694.775,1786.185
			c-0.479-1.04-0.02-2.27,1.011-2.739l0,0c1.04-0.48,2.26-0.021,2.739,1.02l0,0c0.48,1.03,0.021,2.26-1.02,2.73l0,0
			c-0.28,0.13-0.57,0.189-0.86,0.189l0,0C695.865,1787.385,695.115,1786.935,694.775,1786.185z M632.136,1784.116c0,0,0,0-0.01,0
			l0,0c-0.98-0.57-1.32-1.83-0.75-2.82l0,0c0.57-0.99,1.83-1.32,2.82-0.75l0,0c0.99,0.57,1.33,1.83,0.76,2.82l0,0
			c-0.39,0.66-1.08,1.029-1.79,1.029l0,0C632.816,1784.395,632.455,1784.305,632.136,1784.116z M706.376,1779.916
			c-0.66-0.93-0.44-2.22,0.479-2.88l0,0c0.931-0.66,2.221-0.44,2.88,0.479l0,0c0.67,0.931,0.45,2.221-0.479,2.88l0,0l0,0l0,0
			c-0.36,0.261-0.78,0.391-1.19,0.391l0,0C707.416,1780.786,706.786,1780.475,706.376,1779.916z M621.076,1776.246L621.076,1776.246
			L621.076,1776.246c-0.87-0.75-0.96-2.05-0.21-2.92l0,0c0.74-0.86,2.05-0.95,2.91-0.21l0,0c0.86,0.75,0.96,2.05,0.21,2.92l0,0
			c-0.41,0.47-0.98,0.71-1.56,0.71l0,0C621.946,1776.746,621.466,1776.576,621.076,1776.246z M716.596,1771.566
			c-0.83-0.78-0.86-2.091-0.07-2.921v0.011c0.79-0.83,2.09-0.86,2.92-0.07l0,0c0.82,0.78,0.851,2.09,0.07,2.92l0,0
			c-0.41,0.42-0.95,0.63-1.5,0.63l0,0C717.506,1772.135,716.996,1771.946,716.596,1771.566z M611.696,1766.426
			c-0.71-0.89-0.55-2.189,0.34-2.899l0,0c0.89-0.71,2.19-0.551,2.9,0.34v0.01c0.7,0.89,0.55,2.19-0.34,2.89l0,0
			c-0.38,0.301-0.83,0.45-1.28,0.45l0,0C612.705,1767.216,612.106,1766.946,611.696,1766.426z M725.055,1761.446
			c-0.96-0.61-1.24-1.891-0.62-2.851l0,0c0.62-0.96,1.9-1.239,2.86-0.62l0,0c0.95,0.62,1.229,1.9,0.609,2.86l0,0
			c-0.39,0.61-1.06,0.94-1.729,0.94l0,0C725.786,1761.776,725.405,1761.676,725.055,1761.446z M604.336,1755.015L604.336,1755.015
			L604.336,1755.015c-0.53-1.01-0.13-2.26,0.88-2.779l0,0c1.02-0.53,2.26-0.13,2.78,0.88v0.01c0.53,1.01,0.13,2.25-0.88,2.78l0,0
			c-0.3,0.149-0.63,0.229-0.95,0.229l0,0C605.426,1756.135,604.705,1755.725,604.336,1755.015z M731.456,1749.916
			c-1.061-0.43-1.57-1.63-1.15-2.69l0,0c0.42-1.05,1.62-1.569,2.68-1.14l0,0c1.061,0.42,1.58,1.62,1.15,2.68l0,0
			c-0.32,0.811-1.1,1.301-1.92,1.301l0,0C731.966,1750.066,731.706,1750.015,731.456,1749.916z M599.276,1742.416
			c-0.32-1.09,0.3-2.24,1.4-2.56l0,0c1.09-0.32,2.24,0.3,2.56,1.399l0,0c0.32,1.09-0.3,2.24-1.4,2.561l0,0
			c-0.19,0.06-0.39,0.079-0.58,0.079l0,0C600.356,1743.895,599.535,1743.316,599.276,1742.416z M735.546,1737.376
			c-1.13-0.22-1.86-1.3-1.65-2.42l0,0c0.22-1.12,1.3-1.85,2.42-1.64l0,0c1.12,0.22,1.851,1.3,1.641,2.42l0,0l0,0l0,0
			c-0.19,0.989-1.061,1.68-2.03,1.68l0,0C735.805,1737.416,735.676,1737.395,735.546,1737.376z M596.705,1729.086L596.705,1729.086
			L596.705,1729.086c-0.11-1.13,0.72-2.14,1.86-2.25l0,0c1.13-0.11,2.14,0.72,2.25,1.86l0,0c0.1,1.13-0.73,2.14-1.86,2.25l0,0
			c-0.07,0.01-0.13,0.01-0.2,0.01l0,0C597.705,1730.956,596.805,1730.156,596.705,1729.086z M735.105,1722.226L735.105,1722.226
			c0-0.02,0-0.03,0-0.05l0,0c0-0.03,0-0.07,0-0.1l0,0c-0.01-1.14,0.92-2.07,2.061-2.07l0,0c1.14,0,2.06,0.92,2.069,2.06l0,0
			c0,0.03,0,0.05,0,0.08l0,0c0,0.03,0,0.05,0,0.08l0,0c0,1.14-0.93,2.06-2.069,2.06l0,0
			C736.025,1724.286,735.105,1723.366,735.105,1722.226z M598.555,1717.766c-1.14-0.11-1.97-1.11-1.87-2.25l0,0l0,0l0,0
			c0.11-1.13,1.11-1.97,2.25-1.86l0,0c1.13,0.1,1.97,1.11,1.86,2.24l0,0c-0.1,1.07-1,1.88-2.05,1.88l0,0
			C598.685,1717.776,598.616,1717.766,598.555,1717.766z M733.876,1709.346c-0.221-1.13,0.51-2.21,1.63-2.42l0,0
			c1.12-0.22,2.2,0.51,2.42,1.63l0,0l0,0l0,0c0.22,1.12-0.51,2.2-1.63,2.42l0,0c-0.141,0.02-0.271,0.04-0.4,0.04l0,0
			C734.926,1711.016,734.065,1710.326,733.876,1709.346z M600.636,1704.746c-1.1-0.33-1.73-1.47-1.41-2.56l0,0l0,0l0,0
			c0.32-1.1,1.47-1.73,2.56-1.41l0,0c1.1,0.32,1.73,1.47,1.41,2.56l0,0c-0.27,0.9-1.09,1.49-1.99,1.49l0,0
			C601.015,1704.826,600.826,1704.796,600.636,1704.746z M730.246,1697.076c-0.42-1.06,0.09-2.26,1.149-2.69l0,0
			c1.05-0.42,2.26,0.09,2.681,1.15l0,0c0.43,1.06-0.08,2.26-1.141,2.68l0,0c-0.25,0.11-0.51,0.15-0.77,0.15l0,0
			C731.346,1698.366,730.576,1697.886,730.246,1697.076z M605.156,1692.346c-1.02-0.52-1.42-1.76-0.9-2.78l0,0
			c0.53-1.01,1.77-1.41,2.79-0.89l0,0c1.01,0.52,1.41,1.77,0.89,2.78l0,0c-0.37,0.71-1.09,1.12-1.84,1.12l0,0
			C605.776,1692.576,605.455,1692.506,605.156,1692.346z M724.355,1685.726c-0.62-0.96-0.34-2.24,0.61-2.86l0,0
			c0.96-0.62,2.24-0.34,2.86,0.62l0,0c0.619,0.95,0.34,2.23-0.61,2.85l0,0c-0.351,0.23-0.74,0.33-1.12,0.33l0,0
			C725.416,1686.666,724.756,1686.336,724.355,1685.726z M611.946,1681.046c-0.9-0.71-1.05-2.01-0.35-2.9l0,0
			c0.71-0.9,2-1.06,2.9-0.35l0,0c0.9,0.7,1.05,2,0.35,2.9l0,0c-0.41,0.52-1.02,0.79-1.63,0.79l0,0
			C612.776,1681.486,612.326,1681.336,611.946,1681.046z M716.426,1675.686c-0.79-0.82-0.76-2.13,0.06-2.92l0,0
			c0.82-0.79,2.13-0.76,2.92,0.07l0,0l0,0l0,0c0.79,0.82,0.761,2.13-0.06,2.92l0,0c-0.4,0.38-0.92,0.57-1.43,0.57l0,0
			C717.365,1676.326,716.826,1676.116,716.426,1675.686z M620.756,1671.216c-0.75-0.86-0.66-2.16,0.2-2.91l0,0
			c0.86-0.75,2.16-0.66,2.91,0.2l0,0c0.75,0.86,0.66,2.17-0.2,2.92l0,0c-0.39,0.34-0.88,0.5-1.36,0.5l0,0
			C621.736,1671.926,621.156,1671.686,620.756,1671.216z M706.735,1667.326c-0.92-0.66-1.14-1.95-0.479-2.88l0,0
			c0.66-0.93,1.95-1.15,2.87-0.49l0,0c0.93,0.66,1.149,1.95,0.489,2.88l0,0c-0.399,0.57-1.039,0.87-1.68,0.87l0,0
			C707.515,1667.706,707.105,1667.576,706.735,1667.326z M631.245,1663.226c-0.57-0.98-0.24-2.25,0.75-2.82l0,0
			c0.98-0.57,2.25-0.24,2.82,0.75l0,0c0.57,0.99,0.24,2.25-0.75,2.82l0,0c-0.32,0.19-0.68,0.28-1.03,0.28l0,0
			C632.326,1664.256,631.625,1663.886,631.245,1663.226z M695.655,1660.936L695.655,1660.936c-1.04-0.47-1.5-1.69-1.029-2.73l0,0
			c0.479-1.04,1.7-1.5,2.739-1.03l0,0c1.03,0.48,1.49,1.7,1.021,2.74l0,0c-0.34,0.76-1.09,1.21-1.88,1.21l0,0
			C696.225,1661.126,695.935,1661.066,695.655,1660.936z M643.066,1657.366c-0.38-1.07,0.19-2.25,1.27-2.62l0,0
			c1.07-0.38,2.25,0.19,2.63,1.27l0,0c0.37,1.07-0.2,2.25-1.28,2.63l0,0c-0.22,0.07-0.45,0.11-0.67,0.11l0,0
			C644.156,1658.756,643.356,1658.226,643.066,1657.366z M683.565,1656.776L683.565,1656.776c-1.12-0.26-1.8-1.38-1.529-2.49l0,0
			c0.26-1.11,1.38-1.79,2.489-1.52l0,0l0,0l0,0c1.11,0.26,1.79,1.38,1.521,2.49l0,0c-0.22,0.94-1.07,1.58-2,1.58l0,0
			C683.886,1656.836,683.725,1656.816,683.565,1656.776z M655.776,1653.866c-0.16-1.13,0.62-2.17,1.75-2.34l0,0
			c1.13-0.16,2.17,0.62,2.34,1.75l0,0c0.16,1.13-0.62,2.18-1.75,2.34l0,0c-0.1,0.01-0.2,0.02-0.3,0.02l0,0
			C656.805,1655.636,655.926,1654.896,655.776,1653.866z M670.895,1654.996c-1.14-0.05-2.02-1.02-1.97-2.16l0,0
			c0.05-1.14,1.02-2.02,2.16-1.97l0,0c1.14,0.05,2.02,1.02,1.97,2.16l0,0c-0.05,1.1-0.97,1.97-2.06,1.97l0,0
			C670.955,1654.996,670.926,1654.996,670.895,1654.996z"/>
	</g>
</g>
<g id="Livello_6" display="none">
	
		<circle display="inline" fill="none" stroke="#5D5957" stroke-width="1.5" stroke-linecap="round" stroke-linejoin="round" stroke-miterlimit="10" cx="446.137" cy="424.74" r="69.364"/>
	
		<polyline display="inline" fill="none" stroke="#336DB4" stroke-linecap="round" stroke-linejoin="round" stroke-miterlimit="10" points="
		461.844,356.639 446.137,338.954 430.825,286.402 398.859,214.516 398.859,282.618 408.498,333.973 411.401,364.284 	"/>
	
		<polyline display="inline" fill="none" stroke="#336DB4" stroke-linecap="round" stroke-linejoin="round" stroke-miterlimit="10" points="
		398.859,214.516 243.188,139.006 137.517,192.012 107.616,313.992 179.309,408.79 	"/>
	
		<polyline display="inline" fill="none" stroke="#336DB4" stroke-linecap="round" stroke-linejoin="round" stroke-miterlimit="10" points="
		377.03,431.262 339.685,436.013 255.548,429.103 179.55,408.766 271.277,390.011 322.912,396.518 384.69,393.022 	"/>
	
		<polyline display="inline" fill="none" stroke="#336DB4" stroke-linecap="round" stroke-linejoin="round" stroke-miterlimit="10" points="
		400.922,476.74 399.847,491.822 379.773,542.747 361.027,619.153 402.728,565.312 426.555,518.808 436.228,493.517 	"/>
	
		<polyline display="inline" fill="none" stroke="#336DB4" stroke-linecap="round" stroke-linejoin="round" stroke-miterlimit="10" points="
		361.027,619.153 402.574,763.068 553.864,796.974 654.088,689.806 653.564,599.998 	"/>
	
		<polyline display="inline" fill="none" stroke="#336DB4" stroke-linecap="round" stroke-linejoin="round" stroke-miterlimit="10" points="
		510.502,450.332 543.44,480.273 605.727,537.255 653.359,599.869 569.355,558.53 532.517,521.767 486.351,480.833 	"/>
	
		<polyline display="inline" fill="none" stroke="#336DB4" stroke-linecap="round" stroke-linejoin="round" stroke-miterlimit="10" points="
		179.616,408.974 97.988,534.571 171.359,671.154 317.98,676.803 361.027,619.153 	"/>
	
		<polyline display="inline" fill="none" stroke="#336DB4" stroke-linecap="round" stroke-linejoin="round" stroke-miterlimit="10" points="
		683.652,287.452 716.303,141.261 567.637,61.635 460.501,84.77 398.859,214.516 	"/>
	
		<polyline display="inline" fill="none" stroke="#336DB4" stroke-width="0.9427" stroke-linecap="round" stroke-linejoin="round" stroke-miterlimit="10" points="
		653.359,599.869 766.527,553.166 824.492,431.116 766.107,314.833 682.982,287.129 	"/>
	
		<polyline display="inline" fill="none" stroke="#336DB4" stroke-width="0.9427" stroke-linecap="round" stroke-linejoin="round" stroke-miterlimit="10" points="
		496.323,376.476 527.892,340.494 605.702,306.947 682.78,287.258 610.625,343.627 561.78,362.509 510.369,398.11 	"/>
</g>
</svg>
