<?xml version="1.0" encoding="utf-8"?>
<!-- Generator: Adobe Illustrator 15.0.0, SVG Export Plug-In . SVG Version: 6.00 Build 0)  -->
<!DOCTYPE svg PUBLIC "-//W3C//DTD SVG 1.1//EN" "http://www.w3.org/Graphics/SVG/1.1/DTD/svg11.dtd">
<svg version="1.1" id="Layer_1" xmlns="http://www.w3.org/2000/svg" xmlns:xlink="http://www.w3.org/1999/xlink" x="0px" y="0px"
	 width="143.312px" height="375.305px" viewBox="0 0 143.312 375.305" enable-background="new 0 0 143.312 375.305"
	 xml:space="preserve">
<rect x="0" y="39.098" fill="#34AF81" width="23" height="23"/>
<g opacity="0.7">
	<path fill="#444444" d="M1.326,3.774l1.989,6.799L5.33,4.619h0.688l2.003,5.953l2.287-6.799h1.132l-2.887,8.178H7.475l-1.78-5.239
		l-1.847,5.239H2.769L0.182,3.774H1.326z"/>
	<path fill="#444444" d="M14.664,11.262c0.858,0,1.349-0.377,1.469-1.131h1.055c-0.097,0.624-0.371,1.106-0.826,1.449
		s-1.021,0.514-1.696,0.514c-0.832,0-1.508-0.297-2.027-0.891c-0.521-0.594-0.779-1.385-0.779-2.373s0.262-1.776,0.786-2.366
		c0.523-0.59,1.222-0.884,2.093-0.884s1.521,0.338,1.95,1.014c0.429,0.676,0.578,1.5,0.448,2.47h-4.252
		c0,0.643,0.156,1.168,0.469,1.58C13.663,11.056,14.101,11.262,14.664,11.262z M15.418,6.556C15.219,6.452,14.976,6.4,14.69,6.4
		c-0.529,0-0.947,0.181-1.255,0.539c-0.309,0.36-0.487,0.81-0.539,1.347h3.313C16.211,7.418,15.946,6.842,15.418,6.556z"/>
	<path fill="#444444" d="M20.241,6.66c0.416-0.72,1.022-1.079,1.82-1.079c0.797,0,1.46,0.297,1.988,0.891s0.793,1.378,0.793,2.353
		c0,0.976-0.27,1.765-0.807,2.366c-0.537,0.604-1.19,0.904-1.963,0.904c-0.416,0-0.791-0.104-1.124-0.312
		c-0.334-0.208-0.597-0.516-0.787-0.923l-0.232,1.093h-0.716V3.098h1.026L20.241,6.66L20.241,6.66z M21.996,6.49
		c-0.494,0-0.905,0.158-1.233,0.476c-0.33,0.315-0.504,0.756-0.521,1.319v1.014c0,0.572,0.171,1.029,0.514,1.372
		c0.343,0.342,0.757,0.513,1.241,0.513c0.485,0,0.906-0.214,1.262-0.644c0.354-0.43,0.532-0.999,0.532-1.709
		s-0.175-1.278-0.525-1.703C22.913,6.703,22.49,6.49,21.996,6.49z"/>
	<path fill="#444444" d="M27.138,6.036c0.438-0.304,1.028-0.455,1.773-0.455s1.328,0.155,1.749,0.468
		c0.42,0.312,0.639,0.707,0.656,1.183h-1.001c-0.078-0.562-0.555-0.845-1.431-0.845c-0.425,0-0.753,0.095-0.981,0.286
		C27.675,6.863,27.56,7.069,27.56,7.29c0,0.221,0.086,0.407,0.26,0.559c0.173,0.152,0.45,0.284,0.832,0.396L29.9,8.662
		c0.528,0.165,0.934,0.375,1.215,0.63c0.282,0.256,0.423,0.606,0.423,1.053s-0.229,0.85-0.688,1.209
		c-0.46,0.36-1.103,0.54-1.926,0.54c-0.822,0-1.465-0.184-1.924-0.553c-0.459-0.368-0.702-0.844-0.728-1.423h0.987
		c0.018,0.39,0.176,0.683,0.475,0.877c0.299,0.193,0.674,0.292,1.125,0.292c0.45,0,0.823-0.096,1.118-0.286
		c0.294-0.19,0.44-0.418,0.44-0.683s-0.087-0.466-0.26-0.604c-0.174-0.139-0.455-0.26-0.845-0.364l-1.209-0.403
		c-1.084-0.32-1.625-0.884-1.625-1.689C26.481,6.747,26.7,6.339,27.138,6.036z"/>
	<path fill="#444444" d="M34.216,4.268c-0.208,0-0.369-0.059-0.486-0.175c-0.117-0.117-0.176-0.273-0.176-0.468
		c0-0.195,0.059-0.352,0.176-0.469c0.117-0.116,0.278-0.176,0.486-0.176s0.375,0.06,0.501,0.176
		c0.125,0.117,0.188,0.273,0.188,0.469c0,0.194-0.063,0.351-0.188,0.468C34.591,4.209,34.424,4.268,34.216,4.268z M33.709,5.724
		h1.027v6.228h-1.027V5.724z"/>
	<path fill="#444444" d="M40.781,11.769c-0.746,0.347-1.426,0.42-2.041,0.221c-0.442-0.139-0.755-0.429-0.937-0.87
		c-0.097-0.217-0.144-0.478-0.144-0.78V6.517h-1v-0.78h1.001V4.008h1.014v1.729h1.95v0.78h-1.95v3.81
		c0,0.633,0.296,0.948,0.885,0.948c0.319,0,0.681-0.078,1.079-0.233L40.781,11.769z"/>
	<path fill="#444444" d="M44.563,11.262c0.857,0,1.348-0.377,1.469-1.131h1.054c-0.096,0.624-0.371,1.106-0.825,1.449
		c-0.455,0.343-1.021,0.514-1.696,0.514c-0.832,0-1.508-0.297-2.028-0.891c-0.52-0.594-0.779-1.385-0.779-2.373
		s0.263-1.776,0.786-2.366c0.524-0.59,1.223-0.884,2.094-0.884c0.87,0,1.521,0.338,1.949,1.014c0.43,0.676,0.578,1.5,0.448,2.47
		h-4.251c0,0.643,0.156,1.168,0.468,1.58S44,11.262,44.563,11.262z M45.317,6.556C45.118,6.452,44.875,6.4,44.59,6.4
		c-0.528,0-0.946,0.181-1.255,0.539c-0.308,0.36-0.486,0.81-0.539,1.347h3.314C46.11,7.418,45.846,6.842,45.317,6.556z"/>
	<path fill="#444444" d="M54.281,5.581c0.732,0,1.314,0.188,1.748,0.564s0.715,0.849,0.846,1.411l-1.04,0.091
		C55.722,7.284,55.54,7,55.288,6.796C55.037,6.592,54.76,6.49,54.456,6.49c-0.555,0-1.003,0.208-1.345,0.624
		c-0.343,0.416-0.514,0.981-0.514,1.696s0.167,1.29,0.5,1.723c0.334,0.435,0.75,0.65,1.248,0.65c0.499,0,0.87-0.115,1.117-0.344
		c0.247-0.229,0.371-0.558,0.371-0.981h1.054c0,0.667-0.232,1.207-0.695,1.618c-0.464,0.412-1.068,0.618-1.813,0.618
		c-0.789,0-1.459-0.299-2.009-0.897c-0.551-0.598-0.825-1.393-0.825-2.386c0-0.992,0.272-1.779,0.818-2.358
		C52.909,5.872,53.549,5.581,54.281,5.581z"/>
	<path fill="#444444" d="M62.751,7.921c0-0.563-0.117-0.966-0.352-1.209c-0.233-0.243-0.574-0.364-1.021-0.364
		c-0.446,0-0.806,0.089-1.078,0.267c-0.272,0.179-0.409,0.457-0.409,0.839h-1.13c0-0.953,0.512-1.542,1.533-1.769
		c0.312-0.069,0.649-0.104,1.015-0.104c0.771,0,1.374,0.194,1.808,0.585c0.433,0.39,0.649,0.983,0.649,1.78v4.005h-0.885
		l-0.104-1.04c-0.381,0.788-1.07,1.183-2.066,1.183c-0.668,0-1.202-0.188-1.604-0.559c-0.403-0.372-0.606-0.838-0.606-1.392
		s0.224-0.988,0.669-1.3c0.446-0.312,1.004-0.468,1.671-0.468s1.306,0.112,1.911,0.338V7.921z M62.751,9.364
		c-0.614-0.173-1.152-0.26-1.611-0.26s-0.832,0.083-1.118,0.247c-0.286,0.165-0.43,0.425-0.43,0.78c0,0.78,0.442,1.17,1.326,1.17
		c0.502,0,0.935-0.18,1.293-0.54C62.571,10.402,62.751,9.936,62.751,9.364z"/>
	<path fill="#444444" d="M69.434,11.769c-0.746,0.347-1.427,0.42-2.041,0.221c-0.442-0.139-0.755-0.429-0.938-0.87
		c-0.096-0.217-0.143-0.478-0.143-0.78V6.517h-1.001v-0.78h1.001V4.008h1.014v1.729h1.95v0.78h-1.95v3.81
		c0,0.633,0.295,0.948,0.884,0.948c0.32,0,0.682-0.078,1.079-0.233L69.434,11.769z"/>
	<path fill="#444444" d="M73.216,11.262c0.858,0,1.349-0.377,1.47-1.131h1.054c-0.096,0.624-0.371,1.106-0.826,1.449
		s-1.021,0.514-1.696,0.514c-0.831,0-1.508-0.297-2.027-0.891C70.669,10.61,70.41,9.819,70.41,8.83s0.262-1.776,0.786-2.366
		s1.222-0.884,2.093-0.884s1.521,0.338,1.95,1.014s0.578,1.5,0.448,2.47h-4.251c0,0.643,0.155,1.168,0.468,1.58
		C72.215,11.056,72.652,11.262,73.216,11.262z M73.97,6.556C73.771,6.452,73.527,6.4,73.242,6.4c-0.529,0-0.947,0.181-1.255,0.539
		c-0.308,0.36-0.487,0.81-0.539,1.347h3.314C74.763,7.418,74.498,6.842,73.97,6.556z"/>
	<path fill="#444444" d="M78.026,11.756c-0.521-0.251-0.78-0.637-0.78-1.157c0-0.269,0.103-0.505,0.307-0.708
		c0.202-0.204,0.456-0.34,0.761-0.41c-0.469-0.416-0.702-0.962-0.702-1.638s0.24-1.222,0.722-1.638
		c0.48-0.416,1.051-0.624,1.709-0.624s1.219,0.155,1.678,0.468c0.061-0.459,0.244-0.828,0.553-1.105
		c0.308-0.276,0.713-0.416,1.216-0.416l-0.091,1.015c-0.764,0-1.162,0.32-1.196,0.962c0.303,0.373,0.455,0.818,0.455,1.339
		c0,0.667-0.24,1.215-0.722,1.645s-1.081,0.645-1.802,0.645c-0.493,0-0.932-0.101-1.312-0.299c-0.174,0.035-0.33,0.114-0.468,0.24
		c-0.141,0.125-0.208,0.298-0.208,0.514c0,0.459,0.381,0.688,1.144,0.688h2.418c0.581,0,1.04,0.123,1.378,0.37
		s0.507,0.592,0.507,1.034c0,0.659-0.33,1.235-0.993,1.729c-0.663,0.493-1.502,0.74-2.517,0.74c-1.014,0-1.812-0.188-2.392-0.565
		c-0.581-0.377-0.871-0.853-0.871-1.423c0-0.373,0.11-0.677,0.331-0.91C77.369,12.016,77.662,11.851,78.026,11.756z M77.831,13.121
		c0,0.328,0.181,0.612,0.54,0.852c0.359,0.238,0.905,0.357,1.638,0.357c0.733,0,1.344-0.158,1.833-0.476
		c0.489-0.315,0.734-0.687,0.734-1.11c0-0.199-0.071-0.371-0.215-0.515c-0.143-0.143-0.361-0.214-0.656-0.214h-2.509
		c-0.442,0.017-0.78,0.124-1.015,0.318C77.948,12.529,77.831,12.791,77.831,13.121z M81.653,7.836c0-0.446-0.135-0.812-0.403-1.092
		c-0.269-0.281-0.639-0.423-1.11-0.423c-0.473,0-0.844,0.142-1.111,0.423c-0.27,0.281-0.403,0.647-0.403,1.099
		s0.138,0.821,0.409,1.111c0.273,0.291,0.645,0.436,1.112,0.436s0.836-0.146,1.104-0.442C81.518,8.653,81.653,8.282,81.653,7.836z"
		/>
	<path fill="#444444" d="M87.347,5.581c0.866,0,1.565,0.281,2.1,0.845c0.534,0.562,0.8,1.369,0.8,2.418
		c0,1.04-0.267,1.842-0.8,2.405c-0.533,0.562-1.232,0.845-2.1,0.845c-0.866,0-1.566-0.282-2.101-0.845
		c-0.533-0.563-0.799-1.365-0.799-2.405c0-1.049,0.266-1.854,0.799-2.418C85.78,5.862,86.48,5.581,87.347,5.581z M89.206,8.837
		c0-0.741-0.156-1.322-0.468-1.742c-0.312-0.42-0.77-0.63-1.372-0.63c-0.602,0-1.062,0.21-1.385,0.63
		c-0.32,0.42-0.48,1.001-0.48,1.742s0.151,1.32,0.455,1.742c0.303,0.42,0.756,0.63,1.358,0.63c0.602,0,1.067-0.21,1.396-0.63
		S89.206,9.578,89.206,8.837z"/>
	<path fill="#444444" d="M94.743,6.608c-0.979,0-1.486,0.771-1.521,2.314v3.029h-1.027V5.724h1.027V6.92
		c0.312-0.867,0.861-1.3,1.649-1.3c0.252,0,0.49,0.039,0.716,0.116l-0.053,1.001C95.276,6.651,95.012,6.608,94.743,6.608z"/>
	<path fill="#444444" d="M97.733,4.268c-0.208,0-0.37-0.059-0.487-0.175C97.129,3.976,97.07,3.82,97.07,3.625
		c0-0.195,0.059-0.352,0.176-0.469c0.117-0.116,0.279-0.176,0.487-0.176s0.375,0.06,0.501,0.176
		c0.125,0.117,0.188,0.273,0.188,0.469c0,0.194-0.062,0.351-0.188,0.468C98.108,4.209,97.941,4.268,97.733,4.268z M97.227,5.724
		h1.026v6.228h-1.026V5.724z"/>
	<path fill="#444444" d="M100.425,11.119l3.652-4.551h-3.652V5.737h4.811v0.832l-3.602,4.551h3.602v0.832h-4.811V11.119z"/>
	<path fill="#444444" d="M111.071,7.921c0-0.563-0.117-0.966-0.352-1.209c-0.233-0.243-0.574-0.364-1.021-0.364
		s-0.806,0.089-1.078,0.267c-0.272,0.179-0.41,0.457-0.41,0.839h-1.131c0-0.953,0.512-1.542,1.534-1.769
		c0.312-0.069,0.649-0.104,1.014-0.104c0.771,0,1.374,0.194,1.809,0.585c0.433,0.39,0.648,0.983,0.648,1.78v4.005H111.2l-0.104-1.04
		c-0.382,0.788-1.07,1.183-2.066,1.183c-0.668,0-1.202-0.188-1.605-0.559c-0.402-0.372-0.604-0.837-0.604-1.392
		c0-0.554,0.223-0.988,0.669-1.3c0.446-0.312,1.004-0.468,1.671-0.468s1.305,0.112,1.911,0.338L111.071,7.921L111.071,7.921z
		 M111.071,9.364c-0.615-0.173-1.153-0.26-1.612-0.26s-0.832,0.083-1.118,0.247c-0.285,0.165-0.429,0.425-0.429,0.78
		c0,0.78,0.442,1.17,1.326,1.17c0.502,0,0.934-0.18,1.293-0.54C110.892,10.402,111.071,9.936,111.071,9.364z"/>
	<path fill="#444444" d="M117.754,11.769c-0.746,0.347-1.426,0.42-2.041,0.221c-0.441-0.139-0.755-0.429-0.937-0.87
		c-0.096-0.217-0.144-0.478-0.144-0.78V6.517h-1.001v-0.78h1.001V4.008h1.015v1.729h1.95v0.78h-1.95v3.81
		c0,0.633,0.295,0.948,0.884,0.948c0.32,0,0.681-0.078,1.079-0.233L117.754,11.769z"/>
	<path fill="#444444" d="M119.963,4.268c-0.208,0-0.37-0.059-0.486-0.175c-0.117-0.117-0.177-0.273-0.177-0.468
		c0-0.195,0.06-0.352,0.177-0.469c0.116-0.116,0.278-0.176,0.486-0.176s0.375,0.06,0.501,0.176c0.125,0.117,0.188,0.273,0.188,0.469
		c0,0.194-0.063,0.351-0.188,0.468C120.338,4.209,120.171,4.268,119.963,4.268z M119.456,5.724h1.027v6.228h-1.027V5.724z"/>
	<path fill="#444444" d="M125.514,5.581c0.866,0,1.565,0.281,2.1,0.845c0.534,0.562,0.8,1.369,0.8,2.418
		c0,1.04-0.267,1.842-0.8,2.405c-0.533,0.562-1.232,0.845-2.1,0.845c-0.866,0-1.566-0.282-2.101-0.845
		c-0.533-0.563-0.799-1.365-0.799-2.405c0-1.049,0.266-1.854,0.799-2.418C123.947,5.862,124.647,5.581,125.514,5.581z
		 M127.373,8.837c0-0.741-0.156-1.322-0.468-1.742s-0.77-0.63-1.372-0.63c-0.602,0-1.062,0.21-1.385,0.63
		c-0.32,0.42-0.48,1.001-0.48,1.742s0.151,1.32,0.455,1.742c0.303,0.42,0.756,0.63,1.358,0.63c0.602,0,1.067-0.21,1.396-0.63
		S127.373,9.578,127.373,8.837z"/>
	<path fill="#444444" d="M131.363,6.933c0.407-0.901,1.105-1.352,2.093-1.352c0.737,0,1.312,0.242,1.724,0.728
		s0.617,1.148,0.617,1.989v3.653h-1.015V8.298c0-0.599-0.141-1.049-0.422-1.353c-0.282-0.303-0.683-0.455-1.203-0.455
		c-0.52,0-0.94,0.213-1.261,0.638s-0.489,1.014-0.507,1.768v3.056h-1.027V5.737h0.884L131.363,6.933z"/>
</g>
<g opacity="0.7">
	<path fill="#444444" d="M37.64,46.542l3.433,5.52v-5.52h1.416v7.788h-1.44l-3.54-5.712v5.712h-1.416v-7.788H37.64z"/>
	<path fill="#444444" d="M49.237,50.082c0.101,0.336,0.15,0.644,0.15,0.924s-0.018,0.532-0.049,0.756H45.57
		c0.017,0.472,0.132,0.856,0.349,1.152s0.544,0.443,0.983,0.443c0.584,0,0.932-0.256,1.044-0.768h1.429
		c-0.097,0.584-0.363,1.044-0.805,1.38c-0.456,0.352-1.012,0.528-1.668,0.528c-0.769,0-1.412-0.28-1.932-0.841
		c-0.536-0.584-0.805-1.331-0.805-2.243c0-0.937,0.269-1.688,0.805-2.257c0.512-0.544,1.155-0.815,1.932-0.815
		c0.809,0,1.437,0.284,1.884,0.852C48.987,49.449,49.138,49.746,49.237,50.082z M46.915,49.47c-0.398,0-0.712,0.13-0.936,0.39
		c-0.225,0.261-0.356,0.595-0.396,1.002h2.483c0-0.632-0.2-1.056-0.601-1.271C47.315,49.51,47.132,49.47,46.915,49.47z"/>
	<path fill="#444444" d="M51.596,48.498l1.176,4.164l1.116-3.841h1.283l1.116,3.853l1.188-4.176h1.416l-1.92,5.832H55.58
		l-1.08-3.492l-1.056,3.492H52.04l-1.933-5.832H51.596z"/>
	<path fill="#444444" d="M60.968,52.554c0.017,0.552,0.421,0.828,1.213,0.828c0.304,0,0.554-0.066,0.75-0.198
		c0.195-0.132,0.294-0.286,0.294-0.462s-0.062-0.312-0.181-0.408c-0.12-0.096-0.309-0.184-0.563-0.264l-1.271-0.456
		c-0.943-0.328-1.416-0.864-1.416-1.608c0-0.496,0.223-0.894,0.666-1.193c0.443-0.301,1.039-0.45,1.787-0.45
		s1.324,0.164,1.729,0.492c0.403,0.328,0.613,0.739,0.63,1.235h-1.332c-0.017-0.191-0.108-0.344-0.276-0.456
		c-0.168-0.111-0.407-0.168-0.72-0.168s-0.554,0.062-0.727,0.187c-0.172,0.125-0.258,0.266-0.258,0.426
		c0,0.28,0.235,0.488,0.708,0.624l1.38,0.516c0.456,0.152,0.807,0.347,1.051,0.582c0.243,0.236,0.365,0.542,0.365,0.918
		c0,0.48-0.229,0.896-0.685,1.248c-0.472,0.368-1.096,0.553-1.872,0.553c-0.775,0-1.399-0.17-1.872-0.511
		c-0.472-0.34-0.712-0.817-0.72-1.434H60.968z"/>
	<path fill="#444444" d="M70.328,52.554c0.017,0.552,0.42,0.828,1.212,0.828c0.305,0,0.555-0.066,0.75-0.198
		c0.196-0.132,0.294-0.286,0.294-0.462s-0.061-0.312-0.18-0.408c-0.12-0.096-0.309-0.184-0.564-0.264l-1.271-0.456
		c-0.944-0.328-1.416-0.864-1.416-1.608c0-0.496,0.222-0.894,0.666-1.193c0.443-0.301,1.039-0.45,1.787-0.45
		s1.324,0.164,1.729,0.492s0.614,0.739,0.63,1.235h-1.332c-0.016-0.191-0.107-0.344-0.275-0.456
		c-0.168-0.111-0.407-0.168-0.72-0.168s-0.555,0.062-0.727,0.187c-0.172,0.125-0.258,0.266-0.258,0.426
		c0,0.28,0.235,0.488,0.708,0.624l1.38,0.516c0.456,0.152,0.806,0.347,1.05,0.582c0.244,0.236,0.366,0.542,0.366,0.918
		c0,0.48-0.229,0.896-0.685,1.248C73,54.313,72.376,54.498,71.6,54.498s-1.399-0.17-1.872-0.511
		c-0.473-0.34-0.712-0.817-0.721-1.434H70.328z"/>
	<path fill="#444444" d="M75.812,46.614c0-0.256,0.075-0.458,0.228-0.605c0.153-0.148,0.368-0.222,0.648-0.222
		c0.271,0,0.484,0.073,0.642,0.222c0.157,0.147,0.234,0.35,0.234,0.605c0,0.257-0.078,0.458-0.234,0.606s-0.37,0.222-0.642,0.222
		c-0.28,0-0.496-0.073-0.648-0.222C75.888,47.072,75.812,46.87,75.812,46.614z M75.98,48.485h1.416v5.845H75.98V48.485z"/>
	<path fill="#444444" d="M83.084,54.186c-0.527,0.208-0.943,0.312-1.248,0.312s-0.569-0.036-0.798-0.108s-0.431-0.18-0.605-0.324
		c-0.368-0.328-0.553-0.779-0.553-1.355v-3.265h-0.815v-0.947h0.815v-1.536h1.416v1.536h1.584v0.947h-1.584v3.217
		c0,0.479,0.229,0.72,0.685,0.72c0.231,0,0.532-0.063,0.899-0.192L83.084,54.186z"/>
	<path fill="#444444" d="M89.054,50.082c0.101,0.336,0.149,0.644,0.149,0.924s-0.017,0.532-0.048,0.756h-3.769
		c0.017,0.472,0.132,0.856,0.349,1.152c0.216,0.296,0.544,0.443,0.983,0.443c0.584,0,0.932-0.256,1.044-0.768h1.429
		c-0.097,0.584-0.364,1.044-0.805,1.38c-0.456,0.352-1.013,0.528-1.668,0.528c-0.769,0-1.412-0.28-1.933-0.841
		c-0.536-0.584-0.804-1.331-0.804-2.243c0-0.937,0.268-1.688,0.804-2.257c0.512-0.544,1.156-0.815,1.933-0.815
		c0.809,0,1.437,0.284,1.884,0.852C88.804,49.449,88.954,49.746,89.054,50.082z M86.731,49.47c-0.399,0-0.712,0.13-0.937,0.39
		c-0.224,0.261-0.355,0.595-0.396,1.002h2.482c0-0.632-0.199-1.056-0.6-1.271C87.132,49.51,86.948,49.47,86.731,49.47z"/>
	<path fill="#444444" d="M91.688,52.554c0.016,0.552,0.42,0.828,1.212,0.828c0.304,0,0.554-0.066,0.75-0.198
		s0.294-0.286,0.294-0.462s-0.062-0.312-0.18-0.408c-0.12-0.096-0.31-0.184-0.564-0.264l-1.271-0.456
		c-0.944-0.328-1.416-0.864-1.416-1.608c0-0.496,0.222-0.894,0.666-1.193c0.442-0.301,1.038-0.45,1.786-0.45
		s1.324,0.164,1.729,0.492c0.404,0.328,0.614,0.739,0.63,1.235h-1.332c-0.016-0.191-0.108-0.344-0.276-0.456
		c-0.168-0.111-0.406-0.168-0.72-0.168c-0.312,0-0.554,0.062-0.726,0.187c-0.172,0.125-0.258,0.266-0.258,0.426
		c0,0.28,0.234,0.488,0.708,0.624l1.38,0.516c0.456,0.152,0.806,0.347,1.05,0.582c0.244,0.236,0.366,0.542,0.366,0.918
		c0,0.48-0.229,0.896-0.686,1.248c-0.472,0.368-1.096,0.553-1.872,0.553c-0.774,0-1.398-0.17-1.872-0.511
		c-0.472-0.34-0.712-0.817-0.72-1.434H91.688z"/>
</g>
<rect x="0" y="73.348" fill="#34AF81" width="23" height="23"/>
<g opacity="0.7">
	<path fill="#444444" d="M37.532,80.333h3.204v1.235h-4.62v-7.788h1.416V80.333z"/>
	<path fill="#444444" d="M43.964,78.161c0.465,0,1,0.075,1.607,0.228v-0.576c0-0.408-0.082-0.71-0.245-0.906
		c-0.164-0.195-0.433-0.294-0.805-0.294s-0.658,0.074-0.857,0.223c-0.2,0.147-0.301,0.357-0.301,0.63h-1.548
		c0-0.664,0.233-1.145,0.702-1.44c0.468-0.296,1.122-0.443,1.962-0.443c1.2,0,1.977,0.42,2.328,1.26
		c0.12,0.288,0.18,0.628,0.18,1.02v3.708h-1.235l-0.107-0.779c-0.376,0.632-0.952,0.947-1.729,0.947
		c-0.752,0-1.336-0.184-1.752-0.552c-0.385-0.352-0.576-0.798-0.576-1.338s0.212-0.956,0.637-1.248
		C42.647,78.307,43.228,78.161,43.964,78.161z M45.571,79.289c-0.472-0.128-0.911-0.192-1.319-0.192
		c-0.769,0-1.151,0.256-1.151,0.768c0,0.217,0.088,0.402,0.264,0.559c0.177,0.156,0.458,0.233,0.847,0.233s0.708-0.13,0.96-0.39
		C45.422,80.007,45.556,79.681,45.571,79.289z"/>
	<path fill="#444444" d="M52.712,73.781l1.896,6.013l1.92-6.013h1.488l-2.677,7.788h-1.487l-2.641-7.788H52.712z"/>
	<path fill="#444444" d="M60.8,78.161c0.465,0,1,0.075,1.607,0.228v-0.576c0-0.408-0.082-0.71-0.245-0.906
		c-0.164-0.195-0.433-0.294-0.805-0.294s-0.658,0.074-0.857,0.223c-0.2,0.147-0.301,0.357-0.301,0.63h-1.548
		c0-0.664,0.234-1.145,0.702-1.44s1.122-0.443,1.962-0.443c1.2,0,1.977,0.42,2.328,1.26c0.12,0.288,0.18,0.628,0.18,1.02v3.708
		h-1.235l-0.107-0.779c-0.376,0.632-0.952,0.947-1.729,0.947c-0.752,0-1.336-0.184-1.752-0.552
		c-0.385-0.352-0.576-0.798-0.576-1.338s0.213-0.956,0.637-1.248C59.483,78.307,60.063,78.161,60.8,78.161z M62.407,79.289
		c-0.472-0.128-0.911-0.192-1.319-0.192c-0.769,0-1.151,0.256-1.151,0.768c0,0.217,0.088,0.402,0.264,0.559
		c0.177,0.156,0.458,0.233,0.847,0.233s0.708-0.13,0.96-0.39C62.258,80.007,62.392,79.681,62.407,79.289z"/>
	<path fill="#444444" d="M67.279,76.745c0.384-0.776,1-1.164,1.849-1.164c0.721,0,1.263,0.235,1.626,0.708
		c0.363,0.472,0.546,1.096,0.546,1.872v3.407h-1.416v-3.407c0-0.433-0.104-0.759-0.312-0.979s-0.5-0.33-0.876-0.33
		s-0.698,0.168-0.966,0.504c-0.27,0.336-0.41,0.84-0.426,1.513v2.699h-1.416v-5.832h1.234L67.279,76.745z"/>
	<path fill="#444444" d="M73.867,79.181c-0.473-0.4-0.708-0.9-0.708-1.5c0-0.632,0.248-1.144,0.744-1.536
		c0.479-0.376,1.029-0.563,1.649-0.563c0.619,0,1.139,0.115,1.555,0.348c0.048-0.456,0.243-0.824,0.588-1.104
		c0.336-0.279,0.73-0.42,1.188-0.42l-0.07,1.356c-0.688,0-1.045,0.228-1.068,0.684c0.296,0.368,0.444,0.744,0.444,1.128
		c0,0.385-0.068,0.706-0.204,0.967c-0.137,0.26-0.32,0.478-0.553,0.653c-0.479,0.385-1.063,0.576-1.752,0.576
		c-0.393,0-0.748-0.06-1.067-0.18c-0.32,0.096-0.48,0.288-0.48,0.576c0,0.359,0.305,0.54,0.912,0.54H77
		c1.328,0,1.992,0.464,1.992,1.392c0,0.312-0.078,0.618-0.234,0.918c-0.155,0.3-0.382,0.566-0.678,0.798
		c-0.656,0.512-1.479,0.769-2.472,0.769c-0.96,0-1.74-0.196-2.341-0.588c-0.561-0.377-0.84-0.837-0.84-1.381
		c0-0.359,0.109-0.646,0.329-0.857c0.221-0.212,0.511-0.347,0.87-0.402c-0.472-0.288-0.708-0.644-0.708-1.067
		c0-0.28,0.088-0.515,0.265-0.702C73.359,79.395,73.587,79.261,73.867,79.181z M74.947,81.701c-0.752,0.031-1.128,0.315-1.128,0.852
		c0,0.271,0.157,0.49,0.474,0.654s0.69,0.246,1.122,0.246c0.433,0,0.771-0.036,1.015-0.108c0.243-0.072,0.449-0.168,0.617-0.288
		c0.36-0.24,0.54-0.528,0.54-0.864c0-0.144-0.05-0.262-0.148-0.354c-0.102-0.092-0.246-0.138-0.438-0.138H74.947z M76.783,77.663
		c0-0.324-0.09-0.589-0.271-0.792c-0.181-0.204-0.454-0.307-0.821-0.307c-0.368,0-0.648,0.103-0.841,0.307
		c-0.191,0.203-0.287,0.468-0.287,0.792c0,0.323,0.096,0.59,0.287,0.798s0.473,0.312,0.841,0.312c0.367,0,0.642-0.104,0.821-0.312
		C76.693,78.253,76.783,77.987,76.783,77.663z"/>
	<path fill="#444444" d="M84.223,80.513c-0.368,0.776-0.96,1.164-1.776,1.164c-1.032,0-1.712-0.404-2.04-1.212
		c-0.12-0.28-0.18-0.62-0.18-1.021v-3.72h1.416v3.576c0,0.384,0.092,0.67,0.275,0.858c0.185,0.188,0.409,0.281,0.679,0.281
		c0.268,0,0.493-0.038,0.678-0.113c0.184-0.076,0.344-0.19,0.479-0.343c0.296-0.344,0.451-0.804,0.469-1.38v-2.88h1.416v5.844
		h-1.416V80.513L84.223,80.513z"/>
	<path fill="#444444" d="M89.791,78.161c0.464,0,1,0.075,1.607,0.228v-0.576c0-0.408-0.082-0.71-0.245-0.906
		c-0.164-0.195-0.433-0.294-0.805-0.294s-0.658,0.074-0.857,0.223c-0.2,0.147-0.301,0.357-0.301,0.63h-1.548
		c0-0.664,0.233-1.145,0.702-1.44c0.468-0.296,1.121-0.443,1.962-0.443c1.199,0,1.977,0.42,2.327,1.26
		c0.12,0.288,0.181,0.628,0.181,1.02v3.708h-1.235l-0.107-0.779c-0.376,0.632-0.952,0.947-1.729,0.947
		c-0.752,0-1.336-0.184-1.752-0.552c-0.385-0.352-0.576-0.798-0.576-1.338s0.212-0.956,0.637-1.248
		C88.475,78.307,89.055,78.161,89.791,78.161z M91.398,79.289c-0.473-0.128-0.911-0.192-1.319-0.192
		c-0.769,0-1.151,0.256-1.151,0.768c0,0.217,0.088,0.402,0.264,0.559c0.177,0.156,0.458,0.233,0.847,0.233
		c0.388,0,0.708-0.13,0.96-0.39C91.249,80.007,91.383,79.681,91.398,79.289z"/>
	<path fill="#444444" d="M96.295,76.889c0.353-0.84,0.88-1.26,1.584-1.26c0.137,0,0.309,0.027,0.517,0.084l-0.023,1.416
		c-0.225-0.048-0.443-0.072-0.66-0.072c-0.943,0-1.416,0.652-1.416,1.956v2.556H94.88v-5.844h1.416L96.295,76.889L96.295,76.889z"/>
	<path fill="#444444" d="M103.675,80.669c-0.359,0.712-0.911,1.067-1.655,1.067s-1.367-0.283-1.872-0.852
		c-0.521-0.592-0.779-1.344-0.779-2.256s0.248-1.652,0.744-2.22c0.487-0.553,1.096-0.828,1.823-0.828
		c0.729,0,1.275,0.292,1.645,0.876v-3.12h1.428v8.231h-1.163L103.675,80.669z M102.199,76.853c-0.4,0-0.734,0.162-1.002,0.486
		c-0.269,0.324-0.402,0.758-0.402,1.302s0.137,0.982,0.408,1.314s0.615,0.498,1.032,0.498c0.344,0,0.651-0.137,0.924-0.408
		c0.279-0.28,0.42-0.632,0.42-1.057v-0.756c-0.017-0.416-0.156-0.756-0.42-1.02C102.919,76.973,102.599,76.853,102.199,76.853z"/>
	<path fill="#444444" d="M107.191,73.853c0-0.256,0.075-0.458,0.228-0.605c0.153-0.148,0.368-0.223,0.648-0.223
		c0.271,0,0.485,0.074,0.642,0.223c0.157,0.147,0.234,0.35,0.234,0.605s-0.078,0.458-0.234,0.606
		c-0.155,0.147-0.37,0.222-0.642,0.222c-0.28,0-0.496-0.074-0.648-0.222C107.267,74.311,107.191,74.109,107.191,73.853z
		 M107.359,75.725h1.416v5.844h-1.416V75.725z"/>
	<path fill="#444444" d="M113.095,78.161c0.464,0,1,0.075,1.606,0.228v-0.576c0-0.408-0.082-0.71-0.245-0.906
		c-0.164-0.195-0.433-0.294-0.805-0.294s-0.658,0.074-0.857,0.223c-0.199,0.147-0.301,0.357-0.301,0.63h-1.548
		c0-0.664,0.234-1.145,0.702-1.44s1.122-0.443,1.962-0.443c1.2,0,1.977,0.42,2.328,1.26c0.12,0.288,0.18,0.628,0.18,1.02v3.708
		h-1.235l-0.107-0.779c-0.376,0.632-0.952,0.947-1.729,0.947c-0.752,0-1.336-0.184-1.752-0.552
		c-0.385-0.352-0.575-0.798-0.575-1.338s0.212-0.956,0.636-1.248C111.778,78.307,112.358,78.161,113.095,78.161z M114.702,79.289
		c-0.472-0.128-0.911-0.192-1.319-0.192c-0.769,0-1.151,0.256-1.151,0.768c0,0.217,0.088,0.402,0.264,0.559
		c0.177,0.156,0.458,0.233,0.847,0.233s0.708-0.13,0.961-0.39C114.553,80.007,114.687,79.681,114.702,79.289z"/>
	<path fill="#444444" d="M38.036,92.561c0.464,0,1,0.076,1.607,0.229v-0.576c0-0.408-0.082-0.71-0.245-0.906
		c-0.164-0.196-0.434-0.294-0.806-0.294c-0.371,0-0.657,0.074-0.856,0.222c-0.2,0.148-0.301,0.358-0.301,0.63h-1.548
		c0-0.663,0.233-1.144,0.701-1.439c0.469-0.296,1.122-0.444,1.962-0.444c1.2,0,1.978,0.42,2.328,1.26
		c0.12,0.288,0.181,0.629,0.181,1.021v3.708h-1.235l-0.108-0.78c-0.376,0.632-0.951,0.948-1.728,0.948
		c-0.752,0-1.336-0.184-1.752-0.552c-0.385-0.353-0.576-0.798-0.576-1.338s0.212-0.956,0.636-1.248
		C36.72,92.707,37.3,92.561,38.036,92.561z M39.644,93.689c-0.473-0.128-0.911-0.191-1.319-0.191c-0.769,0-1.152,0.256-1.152,0.768
		c0,0.216,0.089,0.402,0.265,0.558c0.177,0.156,0.458,0.234,0.847,0.234c0.388,0,0.708-0.13,0.96-0.39
		C39.494,94.406,39.628,94.081,39.644,93.689z"/>
	<path fill="#444444" d="M44.54,91.289c0.353-0.841,0.88-1.261,1.584-1.261c0.137,0,0.309,0.028,0.517,0.084l-0.023,1.416
		c-0.225-0.048-0.444-0.071-0.66-0.071c-0.943,0-1.416,0.651-1.416,1.956v2.556h-1.416v-5.844h1.416L44.54,91.289L44.54,91.289z"/>
	<path fill="#444444" d="M51.404,95.825c-0.528,0.208-0.944,0.312-1.248,0.312c-0.305,0-0.57-0.036-0.798-0.108
		c-0.229-0.071-0.431-0.18-0.606-0.323c-0.368-0.328-0.552-0.78-0.552-1.356v-3.264h-0.816v-0.948H48.2v-1.536h1.416v1.536H51.2
		v0.948h-1.584v3.216c0,0.479,0.229,0.72,0.684,0.72c0.232,0,0.532-0.062,0.9-0.191L51.404,95.825z"/>
	<path fill="#444444" d="M52.809,88.253c0-0.256,0.074-0.458,0.228-0.606c0.153-0.147,0.368-0.222,0.648-0.222
		c0.271,0,0.484,0.074,0.642,0.222c0.157,0.148,0.234,0.351,0.234,0.606s-0.078,0.458-0.234,0.605
		c-0.156,0.148-0.37,0.223-0.642,0.223c-0.28,0-0.496-0.074-0.648-0.223C52.885,88.711,52.809,88.509,52.809,88.253z M52.977,90.125
		h1.416v5.844h-1.416V90.125z"/>
	<path fill="#444444" d="M59.012,89.981c0.367,0,0.697,0.062,0.989,0.187s0.538,0.286,0.738,0.485
		c0.399,0.385,0.636,0.868,0.708,1.452l-1.429,0.036c-0.063-0.256-0.183-0.468-0.354-0.636s-0.37-0.252-0.594-0.252
		c-0.225,0-0.417,0.034-0.576,0.102c-0.16,0.068-0.301,0.174-0.42,0.318c-0.271,0.336-0.408,0.8-0.408,1.392
		s0.128,1.038,0.384,1.338c0.257,0.301,0.565,0.45,0.931,0.45s0.628-0.085,0.792-0.258c0.164-0.172,0.246-0.406,0.246-0.702h1.429
		c0,0.64-0.213,1.172-0.637,1.596c-0.433,0.433-1.036,0.648-1.812,0.648c-0.769,0-1.412-0.28-1.933-0.84
		c-0.552-0.601-0.827-1.349-0.827-2.244c0-0.944,0.275-1.7,0.827-2.268C57.588,90.249,58.235,89.981,59.012,89.981z"/>
	<path fill="#444444" d="M63.152,87.737h1.416v8.232h-1.416V87.737z"/>
	<path fill="#444444" d="M71.317,91.721c0.101,0.336,0.149,0.644,0.149,0.924s-0.017,0.532-0.048,0.756H67.65
		c0.017,0.473,0.132,0.856,0.349,1.152c0.216,0.296,0.544,0.444,0.983,0.444c0.584,0,0.932-0.256,1.044-0.769h1.429
		c-0.097,0.584-0.364,1.044-0.805,1.38c-0.456,0.353-1.012,0.528-1.668,0.528c-0.769,0-1.412-0.28-1.933-0.84
		c-0.535-0.584-0.804-1.332-0.804-2.244c0-0.937,0.269-1.688,0.804-2.256c0.513-0.544,1.156-0.816,1.933-0.816
		c0.809,0,1.437,0.284,1.884,0.853C71.067,91.089,71.219,91.385,71.317,91.721z M68.995,91.109c-0.398,0-0.712,0.13-0.936,0.391
		c-0.225,0.26-0.356,0.594-0.396,1.002h2.483c0-0.632-0.2-1.057-0.601-1.272C69.396,91.149,69.212,91.109,68.995,91.109z"/>
	<path fill="#444444" d="M73.952,94.193c0.017,0.553,0.42,0.828,1.212,0.828c0.305,0,0.555-0.065,0.75-0.198
		c0.196-0.132,0.294-0.285,0.294-0.462c0-0.176-0.061-0.312-0.18-0.407c-0.12-0.097-0.309-0.185-0.564-0.265l-1.271-0.456
		c-0.944-0.328-1.416-0.863-1.416-1.607c0-0.496,0.222-0.895,0.666-1.194c0.443-0.3,1.039-0.45,1.787-0.45s1.324,0.164,1.729,0.492
		s0.614,0.74,0.63,1.236h-1.332c-0.016-0.192-0.107-0.345-0.275-0.456c-0.168-0.112-0.407-0.168-0.72-0.168
		s-0.555,0.062-0.727,0.186c-0.172,0.125-0.258,0.267-0.258,0.426c0,0.28,0.235,0.488,0.708,0.624l1.38,0.517
		c0.456,0.151,0.806,0.346,1.05,0.582c0.244,0.235,0.366,0.542,0.366,0.918c0,0.479-0.229,0.896-0.685,1.248
		c-0.473,0.368-1.097,0.552-1.872,0.552s-1.399-0.17-1.872-0.51s-0.712-0.818-0.721-1.435H73.952z"/>
</g>
<rect x="0" y="107.557" fill="#00628B" width="23" height="23"/>
<g opacity="0.7">
	<path fill="#444444" d="M37.916,115h1.776l2.556,7.788h-1.5l-0.54-1.681h-2.892l-0.553,1.681h-1.5L37.916,115z M37.676,120.04
		h2.186l-1.08-3.349L37.676,120.04z"/>
	<path fill="#444444" d="M45.848,116.8c0.367,0,0.697,0.062,0.989,0.186s0.538,0.286,0.738,0.486
		c0.399,0.384,0.636,0.868,0.708,1.452l-1.429,0.036c-0.063-0.256-0.183-0.468-0.354-0.637c-0.172-0.168-0.37-0.252-0.594-0.252
		c-0.225,0-0.417,0.034-0.576,0.103c-0.16,0.068-0.301,0.174-0.42,0.318c-0.271,0.336-0.408,0.8-0.408,1.392
		s0.128,1.038,0.385,1.338c0.256,0.3,0.564,0.45,0.93,0.45s0.628-0.085,0.792-0.258c0.164-0.172,0.246-0.406,0.246-0.702h1.429
		c0,0.64-0.213,1.172-0.637,1.596c-0.433,0.432-1.036,0.648-1.812,0.648c-0.769,0-1.412-0.28-1.933-0.841
		c-0.552-0.6-0.827-1.348-0.827-2.243c0-0.944,0.275-1.7,0.827-2.269C44.424,117.068,45.071,116.8,45.848,116.8z"/>
	<path fill="#444444" d="M51.908,119.38c0.464,0,1,0.076,1.607,0.228v-0.576c0-0.407-0.082-0.71-0.245-0.905
		c-0.164-0.196-0.434-0.294-0.806-0.294s-0.657,0.073-0.856,0.222c-0.2,0.148-0.301,0.358-0.301,0.63H49.76
		c0-0.664,0.233-1.144,0.701-1.439c0.469-0.297,1.122-0.444,1.962-0.444c1.2,0,1.978,0.42,2.328,1.26
		c0.12,0.288,0.181,0.628,0.181,1.021v3.708h-1.235l-0.108-0.78c-0.376,0.632-0.951,0.948-1.728,0.948
		c-0.752,0-1.336-0.185-1.752-0.553c-0.385-0.352-0.576-0.798-0.576-1.338s0.212-0.956,0.636-1.248
		C50.592,119.526,51.172,119.38,51.908,119.38z M53.516,120.508c-0.473-0.128-0.911-0.192-1.319-0.192
		c-0.769,0-1.152,0.256-1.152,0.769c0,0.216,0.088,0.401,0.265,0.558s0.458,0.234,0.847,0.234c0.388,0,0.708-0.13,0.96-0.391
		C53.366,121.226,53.5,120.9,53.516,120.508z"/>
	<path fill="#444444" d="M60.8,121.888c-0.359,0.712-0.911,1.068-1.655,1.068s-1.367-0.284-1.872-0.853
		c-0.521-0.592-0.779-1.344-0.779-2.256s0.248-1.652,0.744-2.22c0.487-0.552,1.096-0.828,1.823-0.828
		c0.729,0,1.275,0.292,1.645,0.876v-3.12h1.428v8.232h-1.163L60.8,121.888z M59.324,118.072c-0.4,0-0.734,0.162-1.002,0.486
		c-0.269,0.324-0.402,0.758-0.402,1.302s0.137,0.982,0.408,1.314s0.615,0.498,1.032,0.498c0.344,0,0.651-0.136,0.924-0.408
		c0.279-0.28,0.42-0.632,0.42-1.056v-0.756c-0.017-0.416-0.156-0.757-0.42-1.021C60.044,118.192,59.724,118.072,59.324,118.072z"/>
	<path fill="#444444" d="M68.882,118.54c0.102,0.336,0.15,0.644,0.15,0.924s-0.017,0.532-0.048,0.756h-3.77
		c0.018,0.472,0.133,0.856,0.35,1.152c0.216,0.296,0.544,0.443,0.982,0.443c0.584,0,0.933-0.256,1.044-0.768h1.43
		c-0.098,0.584-0.364,1.044-0.806,1.38c-0.456,0.352-1.012,0.528-1.668,0.528c-0.768,0-1.411-0.28-1.932-0.84
		c-0.536-0.585-0.804-1.332-0.804-2.244c0-0.937,0.268-1.688,0.804-2.256c0.512-0.545,1.156-0.816,1.932-0.816
		c0.81,0,1.438,0.284,1.885,0.852C68.632,117.908,68.782,118.204,68.882,118.54z M66.56,117.928c-0.399,0-0.712,0.13-0.937,0.39
		c-0.224,0.261-0.355,0.595-0.396,1.002h2.482c0-0.632-0.199-1.056-0.6-1.271C66.96,117.968,66.776,117.928,66.56,117.928z"/>
	<path fill="#444444" d="M75.908,118.06c0.376-0.84,1.036-1.26,1.98-1.26c0.694,0,1.234,0.236,1.619,0.708
		c0.367,0.448,0.553,1.072,0.553,1.872v3.408h-1.429v-3.408c0-0.433-0.104-0.758-0.312-0.979c-0.208-0.22-0.5-0.33-0.876-0.33
		s-0.684,0.164-0.924,0.492s-0.368,0.824-0.384,1.488v2.736H74.72v-3.408c0-0.433-0.104-0.758-0.312-0.979
		c-0.208-0.22-0.5-0.33-0.876-0.33s-0.698,0.168-0.966,0.505c-0.27,0.336-0.41,0.84-0.426,1.512v2.7h-1.416v-5.832h1.234
		l0.156,1.008c0.384-0.776,1-1.164,1.849-1.164c0.487,0,0.895,0.112,1.219,0.336C75.506,117.36,75.748,117.668,75.908,118.06z"/>
	<path fill="#444444" d="M82.064,115.072c0-0.256,0.075-0.458,0.228-0.605c0.153-0.148,0.368-0.222,0.648-0.222
		c0.271,0,0.484,0.073,0.642,0.222c0.157,0.147,0.234,0.35,0.234,0.605c0,0.257-0.078,0.458-0.234,0.606s-0.37,0.222-0.642,0.222
		c-0.28,0-0.496-0.073-0.648-0.222C82.14,115.53,82.064,115.328,82.064,115.072z M82.232,116.944h1.416v5.845h-1.416V116.944z"/>
	<path fill="#444444" d="M88.268,116.8c0.368,0,0.697,0.062,0.989,0.186s0.538,0.286,0.738,0.486
		c0.399,0.384,0.636,0.868,0.708,1.452l-1.429,0.036c-0.063-0.256-0.183-0.468-0.354-0.637c-0.172-0.168-0.37-0.252-0.594-0.252
		c-0.225,0-0.417,0.034-0.576,0.103c-0.16,0.068-0.301,0.174-0.42,0.318c-0.271,0.336-0.408,0.8-0.408,1.392
		s0.128,1.038,0.385,1.338c0.256,0.3,0.564,0.45,0.93,0.45s0.628-0.085,0.792-0.258c0.164-0.172,0.246-0.406,0.246-0.702h1.429
		c0,0.64-0.213,1.172-0.637,1.596c-0.432,0.432-1.036,0.648-1.812,0.648c-0.769,0-1.411-0.28-1.933-0.841
		c-0.552-0.6-0.827-1.348-0.827-2.243c0-0.944,0.275-1.7,0.827-2.269C86.844,117.068,87.491,116.8,88.268,116.8z"/>
	<path fill="#444444" d="M93.2,121.012c0.016,0.552,0.42,0.828,1.212,0.828c0.304,0,0.554-0.066,0.75-0.198s0.294-0.286,0.294-0.462
		s-0.061-0.312-0.18-0.408c-0.12-0.096-0.31-0.184-0.564-0.264l-1.271-0.456c-0.944-0.328-1.416-0.864-1.416-1.608
		c0-0.496,0.222-0.894,0.666-1.193c0.442-0.3,1.039-0.45,1.787-0.45s1.324,0.164,1.729,0.492s0.614,0.739,0.63,1.235h-1.332
		c-0.016-0.191-0.107-0.344-0.275-0.456c-0.168-0.111-0.407-0.168-0.721-0.168c-0.312,0-0.554,0.062-0.726,0.187
		c-0.172,0.125-0.258,0.266-0.258,0.426c0,0.28,0.234,0.488,0.708,0.624l1.38,0.516c0.456,0.152,0.806,0.347,1.05,0.582
		c0.244,0.236,0.366,0.542,0.366,0.918c0,0.48-0.229,0.896-0.685,1.248c-0.473,0.368-1.097,0.553-1.872,0.553
		s-1.399-0.17-1.872-0.511c-0.473-0.34-0.712-0.817-0.721-1.434H93.2z"/>
</g>
<rect x="0" y="141.807" fill="#E63C5B" width="23" height="23"/>
<g opacity="0.7">
	<path fill="#444444" d="M39.104,141.844c0.521,0,0.996,0.086,1.429,0.258c0.432,0.172,0.804,0.426,1.116,0.762
		c0.655,0.704,0.982,1.713,0.982,3.024c0,1.32-0.327,2.34-0.982,3.06c-0.624,0.673-1.478,1.009-2.558,1.009
		c-1.071,0-1.92-0.345-2.544-1.032c-0.655-0.712-0.982-1.725-0.982-3.036c0-1.328,0.327-2.344,0.982-3.048
		C37.164,142.176,38.016,141.844,39.104,141.844z M41.168,145.906c0-0.892-0.186-1.579-0.558-2.063s-0.874-0.726-1.507-0.726
		c-0.632,0-1.137,0.241-1.513,0.726s-0.562,1.172-0.562,2.063c0,0.893,0.188,1.576,0.562,2.053c0.376,0.476,0.881,0.714,1.513,0.714
		c0.633,0,1.135-0.238,1.507-0.714C40.982,147.482,41.168,146.798,41.168,145.906z"/>
	<path fill="#444444" d="M45.704,144.963c0.384-0.776,1-1.164,1.85-1.164c0.72,0,1.262,0.236,1.626,0.708
		c0.362,0.472,0.546,1.096,0.546,1.872v3.408h-1.416v-3.408c0-0.433-0.104-0.758-0.312-0.979c-0.208-0.22-0.5-0.33-0.876-0.33
		s-0.698,0.168-0.966,0.504c-0.269,0.337-0.41,0.841-0.426,1.513v2.7h-1.416v-5.832h1.234L45.704,144.963z"/>
	<path fill="#444444" d="M51.788,141.556h1.416v8.232h-1.416V141.556z"/>
	<path fill="#444444" d="M55.388,142.072c0-0.256,0.074-0.458,0.228-0.605c0.153-0.148,0.368-0.222,0.648-0.222
		c0.271,0,0.484,0.073,0.642,0.222c0.157,0.147,0.234,0.35,0.234,0.605c0,0.257-0.078,0.458-0.234,0.606s-0.37,0.222-0.642,0.222
		c-0.28,0-0.496-0.073-0.648-0.222S55.388,142.328,55.388,142.072z M55.556,143.943h1.416v5.845h-1.416V143.943z"/>
	<path fill="#444444" d="M60.763,144.963c0.384-0.776,1-1.164,1.849-1.164c0.72,0,1.262,0.236,1.626,0.708
		c0.363,0.472,0.546,1.096,0.546,1.872v3.408h-1.416v-3.408c0-0.433-0.104-0.758-0.312-0.979c-0.208-0.22-0.5-0.33-0.876-0.33
		s-0.698,0.168-0.967,0.504c-0.269,0.337-0.409,0.841-0.426,1.513v2.7h-1.416v-5.832h1.235L60.763,144.963z"/>
	<path fill="#444444" d="M71.364,145.54c0.101,0.336,0.15,0.644,0.15,0.924s-0.018,0.532-0.049,0.756h-3.769
		c0.017,0.472,0.132,0.856,0.349,1.152s0.544,0.443,0.983,0.443c0.584,0,0.932-0.256,1.044-0.768h1.429
		c-0.097,0.584-0.363,1.044-0.805,1.38c-0.456,0.352-1.012,0.528-1.668,0.528c-0.768,0-1.412-0.28-1.932-0.841
		c-0.536-0.584-0.805-1.331-0.805-2.243c0-0.937,0.269-1.688,0.805-2.257c0.512-0.544,1.155-0.815,1.932-0.815
		c0.809,0,1.437,0.284,1.884,0.852C71.114,144.908,71.265,145.204,71.364,145.54z M69.042,144.928c-0.398,0-0.712,0.13-0.936,0.39
		c-0.225,0.261-0.356,0.595-0.396,1.002h2.483c0-0.632-0.2-1.056-0.6-1.271C69.442,144.968,69.259,144.928,69.042,144.928z"/>
	<path fill="#444444" d="M76.243,141.556h1.416v8.232h-1.416V141.556z"/>
	<path fill="#444444" d="M81.811,146.379c0.464,0,1,0.076,1.606,0.228v-0.576c0-0.407-0.082-0.71-0.245-0.905
		c-0.164-0.196-0.433-0.294-0.805-0.294s-0.658,0.073-0.856,0.222c-0.2,0.148-0.302,0.358-0.302,0.63h-1.548
		c0-0.664,0.234-1.144,0.702-1.439c0.468-0.297,1.122-0.444,1.962-0.444c1.2,0,1.978,0.42,2.328,1.26
		c0.12,0.288,0.18,0.628,0.18,1.021v3.708h-1.234l-0.108-0.78c-0.376,0.632-0.952,0.948-1.728,0.948
		c-0.752,0-1.336-0.185-1.752-0.553c-0.386-0.352-0.576-0.798-0.576-1.338s0.212-0.956,0.636-1.248
		C80.494,146.526,81.074,146.379,81.811,146.379z M83.418,147.508c-0.472-0.128-0.911-0.192-1.318-0.192
		c-0.77,0-1.152,0.256-1.152,0.769c0,0.216,0.088,0.401,0.264,0.558c0.178,0.156,0.458,0.234,0.848,0.234
		c0.388,0,0.708-0.13,0.96-0.391C83.269,148.226,83.402,147.9,83.418,147.508z"/>
	<path fill="#444444" d="M87.414,143.956l1.176,4.164l1.116-3.841h1.284l1.116,3.853l1.188-4.176h1.416l-1.92,5.832h-1.392
		l-1.08-3.492l-1.056,3.492h-1.404l-1.934-5.832H87.414z"/>
	<path fill="#444444" d="M96.786,148.012c0.017,0.552,0.42,0.828,1.212,0.828c0.305,0,0.555-0.066,0.75-0.198
		c0.196-0.132,0.294-0.286,0.294-0.462s-0.061-0.312-0.18-0.408c-0.12-0.096-0.309-0.184-0.564-0.264l-1.271-0.456
		c-0.944-0.328-1.416-0.864-1.416-1.608c0-0.496,0.222-0.894,0.666-1.193c0.443-0.301,1.039-0.45,1.787-0.45
		s1.324,0.164,1.729,0.492s0.614,0.739,0.63,1.235H99.09c-0.016-0.191-0.107-0.344-0.275-0.456c-0.168-0.111-0.407-0.168-0.72-0.168
		s-0.555,0.062-0.727,0.187c-0.172,0.125-0.258,0.266-0.258,0.426c0,0.28,0.235,0.488,0.708,0.624l1.38,0.516
		c0.456,0.152,0.806,0.347,1.05,0.582c0.244,0.236,0.366,0.542,0.366,0.918c0,0.48-0.229,0.896-0.685,1.248
		c-0.473,0.368-1.097,0.553-1.872,0.553s-1.399-0.17-1.872-0.511c-0.473-0.34-0.712-0.817-0.721-1.434H96.786z"/>
	<path fill="#444444" d="M38.036,160.779c0.464,0,1,0.076,1.607,0.229v-0.576c0-0.408-0.082-0.71-0.245-0.906
		c-0.164-0.195-0.434-0.294-0.806-0.294c-0.371,0-0.657,0.074-0.856,0.223c-0.2,0.147-0.301,0.357-0.301,0.63h-1.548
		c0-0.664,0.233-1.145,0.701-1.44c0.469-0.296,1.122-0.444,1.962-0.444c1.2,0,1.978,0.421,2.328,1.261
		c0.12,0.288,0.181,0.628,0.181,1.02v3.708h-1.235l-0.108-0.78c-0.376,0.633-0.951,0.948-1.728,0.948
		c-0.752,0-1.336-0.184-1.752-0.552c-0.385-0.352-0.576-0.798-0.576-1.338s0.212-0.956,0.636-1.248
		C36.72,160.926,37.3,160.779,38.036,160.779z M39.644,161.908c-0.473-0.129-0.911-0.192-1.319-0.192
		c-0.769,0-1.152,0.256-1.152,0.768c0,0.217,0.089,0.402,0.265,0.559c0.177,0.155,0.458,0.233,0.847,0.233
		c0.388,0,0.708-0.13,0.96-0.39C39.494,162.625,39.628,162.3,39.644,161.908z"/>
	<path fill="#444444" d="M44.516,159.363c0.384-0.775,1-1.164,1.849-1.164c0.72,0,1.262,0.236,1.626,0.708
		c0.363,0.473,0.546,1.097,0.546,1.872v3.408H47.12v-3.408c0-0.432-0.104-0.758-0.312-0.978s-0.5-0.33-0.876-0.33
		s-0.698,0.168-0.967,0.504s-0.409,0.84-0.426,1.512v2.7h-1.416v-5.832h1.235L44.516,159.363z"/>
	<path fill="#444444" d="M54.403,163.288c-0.36,0.712-0.912,1.067-1.656,1.067s-1.367-0.284-1.872-0.852
		c-0.52-0.592-0.778-1.344-0.778-2.256s0.248-1.652,0.743-2.221c0.487-0.552,1.097-0.828,1.823-0.828
		c0.729,0,1.276,0.293,1.646,0.877v-3.12h1.428v8.231h-1.164L54.403,163.288z M52.928,159.472c-0.4,0-0.734,0.162-1.003,0.486
		c-0.269,0.323-0.401,0.758-0.401,1.302s0.136,0.982,0.408,1.313c0.271,0.332,0.614,0.498,1.031,0.498
		c0.345,0,0.651-0.136,0.925-0.407c0.278-0.28,0.42-0.633,0.42-1.057v-0.756c-0.018-0.416-0.156-0.756-0.42-1.02
		C53.647,159.591,53.327,159.472,52.928,159.472z"/>
	<path fill="#444444" d="M62.42,159.507c0.353-0.84,0.88-1.26,1.584-1.26c0.137,0,0.309,0.027,0.517,0.084l-0.023,1.416
		c-0.225-0.049-0.443-0.072-0.66-0.072c-0.943,0-1.416,0.652-1.416,1.956v2.556h-1.416v-5.844h1.416L62.42,159.507L62.42,159.507z"
		/>
	<path fill="#444444" d="M65.948,156.472c0-0.256,0.075-0.458,0.228-0.606c0.153-0.147,0.368-0.222,0.648-0.222
		c0.271,0,0.485,0.074,0.642,0.222c0.157,0.148,0.234,0.351,0.234,0.606s-0.078,0.458-0.234,0.606
		c-0.155,0.147-0.369,0.222-0.642,0.222c-0.28,0-0.496-0.074-0.648-0.222C66.024,156.93,65.948,156.728,65.948,156.472z
		 M66.116,158.343h1.416v5.844h-1.416V158.343z"/>
	<path fill="#444444" d="M70.436,161.799c-0.474-0.4-0.708-0.9-0.708-1.5c0-0.632,0.248-1.145,0.744-1.536
		c0.479-0.376,1.028-0.564,1.648-0.564s1.14,0.116,1.555,0.349c0.049-0.456,0.243-0.824,0.589-1.104
		c0.336-0.279,0.73-0.42,1.188-0.42l-0.071,1.356c-0.688,0-1.045,0.228-1.067,0.684c0.296,0.368,0.443,0.744,0.443,1.128
		c0,0.385-0.067,0.706-0.203,0.967c-0.138,0.26-0.32,0.478-0.554,0.653c-0.479,0.384-1.062,0.576-1.752,0.576
		c-0.392,0-0.748-0.06-1.066-0.18c-0.32,0.096-0.48,0.288-0.48,0.576c0,0.359,0.304,0.54,0.912,0.54h1.956
		c1.328,0,1.992,0.464,1.992,1.392c0,0.312-0.078,0.618-0.234,0.918s-0.382,0.566-0.678,0.798c-0.656,0.512-1.48,0.769-2.472,0.769
		c-0.961,0-1.74-0.196-2.342-0.589c-0.56-0.376-0.84-0.836-0.84-1.38c0-0.359,0.11-0.646,0.33-0.857s0.51-0.347,0.87-0.402
		c-0.472-0.288-0.708-0.644-0.708-1.068c0-0.279,0.088-0.514,0.264-0.701C69.928,162.014,70.155,161.879,70.436,161.799z
		 M71.516,164.319c-0.752,0.032-1.128,0.316-1.128,0.853c0,0.271,0.156,0.49,0.474,0.654c0.316,0.163,0.69,0.245,1.122,0.245
		s0.77-0.035,1.014-0.107s0.45-0.168,0.618-0.288c0.36-0.24,0.54-0.528,0.54-0.864c0-0.144-0.05-0.262-0.149-0.354
		c-0.101-0.093-0.245-0.139-0.438-0.139H71.516L71.516,164.319z M73.352,160.281c0-0.323-0.09-0.588-0.271-0.792
		c-0.18-0.203-0.454-0.306-0.82-0.306c-0.368,0-0.648,0.103-0.842,0.306c-0.19,0.204-0.287,0.469-0.287,0.792
		c0,0.324,0.097,0.591,0.287,0.799c0.192,0.208,0.474,0.312,0.842,0.312c0.366,0,0.642-0.104,0.82-0.312
		C73.262,160.872,73.352,160.605,73.352,160.281z"/>
	<path fill="#444444" d="M78.331,159.304c0.399-0.736,0.983-1.104,1.752-1.104s1.334,0.235,1.698,0.707
		c0.363,0.473,0.546,1.097,0.546,1.872v3.408h-1.416v-3.408c0-0.432-0.104-0.758-0.312-0.978s-0.5-0.33-0.876-0.33
		s-0.698,0.168-0.967,0.504s-0.409,0.84-0.426,1.512v2.7h-1.416v-8.231h1.416V159.304z"/>
	<path fill="#444444" d="M87.679,164.043c-0.528,0.208-0.944,0.312-1.248,0.312c-0.306,0-0.57-0.036-0.799-0.107
		c-0.229-0.072-0.431-0.181-0.605-0.324c-0.368-0.328-0.552-0.78-0.552-1.356v-3.264h-0.816v-0.948h0.816v-1.536h1.416v1.536h1.584
		v0.948h-1.584v3.216c0,0.48,0.228,0.72,0.684,0.72c0.232,0,0.532-0.062,0.9-0.191L87.679,164.043z"/>
	<path fill="#444444" d="M89.923,162.412c0.017,0.552,0.42,0.827,1.213,0.827c0.304,0,0.554-0.065,0.75-0.197
		c0.195-0.132,0.294-0.286,0.294-0.462c0-0.177-0.062-0.312-0.181-0.408c-0.12-0.096-0.309-0.185-0.563-0.265l-1.271-0.455
		c-0.943-0.328-1.416-0.864-1.416-1.608c0-0.496,0.223-0.894,0.666-1.194c0.443-0.3,1.039-0.449,1.787-0.449
		s1.324,0.163,1.729,0.491c0.403,0.328,0.613,0.74,0.63,1.236h-1.332c-0.017-0.192-0.108-0.344-0.276-0.456s-0.407-0.168-0.72-0.168
		s-0.554,0.062-0.727,0.186c-0.172,0.125-0.258,0.267-0.258,0.427c0,0.279,0.235,0.487,0.708,0.624l1.38,0.516
		c0.456,0.152,0.807,0.346,1.051,0.582c0.243,0.236,0.365,0.542,0.365,0.918c0,0.48-0.229,0.896-0.685,1.248
		c-0.472,0.368-1.096,0.552-1.872,0.552c-0.775,0-1.399-0.17-1.872-0.51c-0.472-0.34-0.712-0.818-0.72-1.434H89.923z"/>
</g>
<rect x="0" y="176.057" fill="#EFB551" width="23" height="23"/>
<rect x="0" y="211.057" fill="#7ABAE1" width="23" height="23"/>
<g opacity="0.7">
	<path fill="#444444" d="M36.116,175.133h1.416v7.788h-1.416V175.133z"/>
	<path fill="#444444" d="M41.155,178.097c0.384-0.776,1-1.164,1.849-1.164c0.721,0,1.263,0.236,1.626,0.708s0.546,1.096,0.546,1.872
		v3.408H43.76v-3.408c0-0.432-0.104-0.758-0.312-0.978c-0.208-0.221-0.5-0.33-0.876-0.33s-0.698,0.168-0.966,0.504
		c-0.27,0.336-0.41,0.84-0.426,1.512v2.7h-1.416v-5.832h1.234L41.155,178.097z"/>
	<path fill="#444444" d="M46.604,177.089h0.862v-0.685c0-0.6,0.177-1.06,0.528-1.38c0.319-0.288,0.736-0.432,1.248-0.432
		c0.328,0,0.731,0.048,1.212,0.144l-0.275,1.093c-0.225-0.08-0.427-0.12-0.605-0.12c-0.181,0-0.338,0.05-0.475,0.149
		c-0.137,0.101-0.203,0.286-0.203,0.559v0.672h1.066v0.948h-1.066v4.884h-1.43v-4.884h-0.862V177.089z"/>
	<path fill="#444444" d="M53.923,176.933c0.393,0,0.761,0.062,1.104,0.187s0.641,0.313,0.889,0.569
		c0.552,0.561,0.827,1.336,0.827,2.328c0,0.977-0.275,1.744-0.827,2.304c-0.496,0.513-1.16,0.769-1.992,0.769
		s-1.504-0.256-2.017-0.769c-0.552-0.552-0.827-1.319-0.827-2.304c0-1,0.275-1.775,0.827-2.328
		C52.411,177.185,53.083,176.933,53.923,176.933z M55.326,180.005c0-0.616-0.119-1.078-0.359-1.386
		c-0.239-0.309-0.573-0.463-1.002-0.463s-0.777,0.154-1.05,0.463c-0.271,0.308-0.408,0.77-0.408,1.386s0.122,1.078,0.366,1.386
		c0.243,0.308,0.577,0.462,1.002,0.462c0.424,0,0.771-0.154,1.044-0.462C55.19,181.083,55.326,180.621,55.326,180.005z"/>
	<path fill="#444444" d="M59.839,178.24c0.353-0.84,0.881-1.26,1.584-1.26c0.137,0,0.309,0.028,0.517,0.084l-0.023,1.416
		c-0.225-0.048-0.443-0.071-0.66-0.071c-0.943,0-1.416,0.651-1.416,1.955v2.557h-1.416v-5.844h1.416L59.839,178.24L59.839,178.24z"
		/>
	<path fill="#444444" d="M68.599,178.193c0.376-0.84,1.036-1.26,1.979-1.26c0.695,0,1.235,0.236,1.62,0.708
		c0.367,0.448,0.552,1.072,0.552,1.872v3.408h-1.428v-3.408c0-0.432-0.104-0.758-0.312-0.978c-0.208-0.221-0.5-0.33-0.876-0.33
		c-0.377,0-0.685,0.164-0.925,0.491c-0.239,0.328-0.367,0.824-0.384,1.488v2.736h-1.416v-3.408c0-0.432-0.104-0.758-0.312-0.978
		c-0.208-0.221-0.5-0.33-0.876-0.33s-0.698,0.168-0.967,0.504s-0.409,0.84-0.426,1.512v2.7h-1.416v-5.832h1.235l0.156,1.008
		c0.384-0.776,1-1.164,1.849-1.164c0.487,0,0.894,0.112,1.218,0.336C68.197,177.493,68.438,177.801,68.599,178.193z"/>
	<path fill="#444444" d="M76.723,179.513c0.464,0,1,0.076,1.606,0.228v-0.575c0-0.408-0.082-0.71-0.245-0.906
		c-0.164-0.196-0.433-0.294-0.805-0.294s-0.658,0.074-0.857,0.222c-0.199,0.148-0.301,0.358-0.301,0.63h-1.548
		c0-0.664,0.234-1.144,0.702-1.439s1.122-0.444,1.962-0.444c1.2,0,1.977,0.42,2.328,1.26c0.12,0.288,0.18,0.628,0.18,1.021v3.708
		h-1.234l-0.108-0.78c-0.376,0.632-0.952,0.948-1.729,0.948c-0.752,0-1.336-0.185-1.752-0.552c-0.385-0.353-0.575-0.799-0.575-1.339
		c0-0.539,0.212-0.955,0.636-1.247C75.406,179.659,75.986,179.513,76.723,179.513z M78.33,180.641
		c-0.472-0.128-0.911-0.192-1.318-0.192c-0.77,0-1.152,0.257-1.152,0.769c0,0.216,0.088,0.402,0.264,0.558
		c0.177,0.156,0.458,0.234,0.848,0.234c0.388,0,0.708-0.13,0.96-0.39C78.181,181.359,78.314,181.033,78.33,180.641z"/>
	<path fill="#444444" d="M85.099,182.777c-0.528,0.208-0.944,0.312-1.248,0.312c-0.306,0-0.57-0.036-0.798-0.108
		c-0.229-0.071-0.432-0.18-0.606-0.324c-0.368-0.327-0.552-0.779-0.552-1.355v-3.264h-0.816v-0.948h0.816v-1.536h1.416v1.536h1.584
		v0.948h-1.584v3.216c0,0.479,0.228,0.72,0.684,0.72c0.232,0,0.532-0.062,0.9-0.192L85.099,182.777z"/>
	<path fill="#444444" d="M86.503,175.205c0-0.257,0.075-0.458,0.229-0.606c0.152-0.147,0.368-0.222,0.647-0.222
		c0.271,0,0.485,0.074,0.643,0.222c0.157,0.148,0.233,0.35,0.233,0.606c0,0.256-0.077,0.458-0.233,0.605
		c-0.156,0.148-0.37,0.223-0.643,0.223c-0.279,0-0.496-0.074-0.647-0.223C86.579,175.663,86.503,175.461,86.503,175.205z
		 M86.671,177.077h1.416v5.844h-1.416V177.077z"/>
	<path fill="#444444" d="M92.706,176.933c0.368,0,0.698,0.062,0.99,0.187s0.538,0.285,0.738,0.485
		c0.398,0.384,0.636,0.868,0.708,1.452l-1.43,0.036c-0.062-0.256-0.182-0.468-0.354-0.636s-0.37-0.252-0.594-0.252
		c-0.226,0-0.417,0.033-0.576,0.102c-0.16,0.068-0.301,0.174-0.42,0.318c-0.272,0.336-0.408,0.8-0.408,1.392
		s0.128,1.038,0.384,1.338s0.565,0.45,0.93,0.45c0.365,0,0.629-0.085,0.792-0.258c0.164-0.172,0.246-0.406,0.246-0.702h1.43
		c0,0.64-0.213,1.172-0.638,1.596c-0.432,0.433-1.035,0.648-1.812,0.648c-0.77,0-1.412-0.28-1.933-0.84
		c-0.553-0.601-0.827-1.349-0.827-2.244c0-0.944,0.274-1.7,0.827-2.269C91.282,177.201,91.93,176.933,92.706,176.933z"/>
	<path fill="#444444" d="M97.639,181.145c0.016,0.552,0.42,0.828,1.212,0.828c0.304,0,0.554-0.066,0.75-0.198
		c0.195-0.132,0.294-0.286,0.294-0.462s-0.062-0.312-0.181-0.408c-0.119-0.096-0.309-0.184-0.563-0.264l-1.271-0.456
		c-0.943-0.328-1.416-0.864-1.416-1.607c0-0.496,0.223-0.895,0.666-1.194s1.039-0.45,1.787-0.45s1.324,0.164,1.729,0.492
		c0.403,0.328,0.613,0.74,0.63,1.236h-1.332c-0.016-0.192-0.108-0.345-0.276-0.456c-0.168-0.112-0.406-0.168-0.72-0.168
		c-0.312,0-0.554,0.062-0.726,0.186c-0.173,0.125-0.259,0.266-0.259,0.426c0,0.28,0.235,0.488,0.708,0.624l1.38,0.517
		c0.456,0.151,0.807,0.346,1.051,0.582c0.244,0.235,0.365,0.542,0.365,0.918c0,0.479-0.229,0.896-0.685,1.248
		c-0.472,0.367-1.096,0.552-1.872,0.552c-0.774,0-1.398-0.17-1.872-0.51c-0.472-0.341-0.712-0.818-0.72-1.435H97.639z"/>
	<path fill="#444444" d="M38.036,193.913c0.464,0,1,0.075,1.607,0.228v-0.576c0-0.408-0.082-0.71-0.245-0.905
		c-0.164-0.196-0.434-0.295-0.806-0.295c-0.371,0-0.657,0.074-0.856,0.223c-0.2,0.147-0.301,0.357-0.301,0.63h-1.548
		c0-0.664,0.233-1.145,0.701-1.44c0.469-0.296,1.122-0.443,1.962-0.443c1.2,0,1.978,0.42,2.328,1.26
		c0.12,0.288,0.181,0.628,0.181,1.02v3.708h-1.235l-0.108-0.779c-0.376,0.632-0.951,0.947-1.728,0.947
		c-0.752,0-1.336-0.184-1.752-0.552c-0.385-0.352-0.576-0.798-0.576-1.338s0.212-0.956,0.636-1.248
		C36.72,194.059,37.3,193.913,38.036,193.913z M39.644,195.041c-0.473-0.128-0.911-0.192-1.319-0.192
		c-0.769,0-1.152,0.256-1.152,0.769c0,0.216,0.089,0.401,0.265,0.558c0.177,0.156,0.458,0.234,0.847,0.234
		c0.388,0,0.708-0.131,0.96-0.391C39.494,195.759,39.628,195.433,39.644,195.041z"/>
	<path fill="#444444" d="M44.516,192.497c0.384-0.776,1-1.164,1.849-1.164c0.72,0,1.262,0.235,1.626,0.708
		c0.363,0.472,0.546,1.096,0.546,1.872v3.407H47.12v-3.407c0-0.433-0.104-0.759-0.312-0.979s-0.5-0.33-0.876-0.33
		s-0.698,0.168-0.967,0.504s-0.409,0.84-0.426,1.513v2.699h-1.416v-5.832h1.235L44.516,192.497z"/>
	<path fill="#444444" d="M54.403,196.421c-0.36,0.712-0.912,1.067-1.656,1.067s-1.367-0.283-1.872-0.852
		c-0.52-0.592-0.778-1.344-0.778-2.256s0.248-1.652,0.743-2.22c0.487-0.553,1.097-0.828,1.823-0.828
		c0.729,0,1.276,0.292,1.646,0.876v-3.12h1.428v8.231h-1.164L54.403,196.421z M52.928,192.605c-0.4,0-0.734,0.162-1.003,0.486
		s-0.401,0.758-0.401,1.302s0.136,0.982,0.408,1.314c0.271,0.332,0.614,0.498,1.031,0.498c0.345,0,0.651-0.137,0.925-0.408
		c0.278-0.28,0.42-0.632,0.42-1.057v-0.756c-0.018-0.416-0.156-0.756-0.42-1.02C53.647,192.725,53.327,192.605,52.928,192.605z"/>
	<path fill="#444444" d="M64.808,196.421c-0.36,0.712-0.912,1.067-1.656,1.067s-1.367-0.283-1.872-0.852
		c-0.52-0.592-0.779-1.344-0.779-2.256s0.248-1.652,0.744-2.22c0.487-0.553,1.096-0.828,1.823-0.828
		c0.729,0,1.276,0.292,1.645,0.876v-3.12h1.429v8.231h-1.164L64.808,196.421z M63.332,192.605c-0.399,0-0.733,0.162-1.002,0.486
		s-0.401,0.758-0.401,1.302s0.136,0.982,0.407,1.314s0.615,0.498,1.032,0.498c0.344,0,0.651-0.137,0.924-0.408
		c0.279-0.28,0.42-0.632,0.42-1.057v-0.756c-0.017-0.416-0.155-0.756-0.42-1.02C64.052,192.725,63.731,192.605,63.332,192.605z"/>
	<path fill="#444444" d="M68.324,189.605c0-0.256,0.075-0.458,0.229-0.605c0.152-0.148,0.367-0.223,0.647-0.223
		c0.271,0,0.485,0.074,0.642,0.223c0.157,0.147,0.234,0.35,0.234,0.605s-0.078,0.458-0.234,0.606
		c-0.155,0.147-0.369,0.222-0.642,0.222c-0.28,0-0.496-0.074-0.647-0.222C68.4,190.063,68.324,189.861,68.324,189.605z
		 M68.492,191.477h1.416v5.844h-1.416V191.477z"/>
	<path fill="#444444" d="M72.812,194.933c-0.474-0.399-0.708-0.899-0.708-1.5c0-0.632,0.248-1.144,0.744-1.536
		c0.479-0.376,1.028-0.563,1.648-0.563s1.14,0.115,1.556,0.348c0.048-0.456,0.242-0.824,0.588-1.104
		c0.336-0.28,0.73-0.421,1.188-0.421l-0.071,1.356c-0.688,0-1.045,0.229-1.067,0.684c0.296,0.368,0.443,0.744,0.443,1.129
		c0,0.384-0.067,0.705-0.203,0.966c-0.138,0.26-0.32,0.478-0.554,0.653c-0.479,0.385-1.062,0.576-1.752,0.576
		c-0.392,0-0.748-0.06-1.066-0.18c-0.32,0.096-0.48,0.288-0.48,0.576c0,0.359,0.304,0.54,0.912,0.54h1.956
		c1.328,0,1.992,0.464,1.992,1.392c0,0.312-0.078,0.618-0.234,0.918s-0.382,0.566-0.678,0.798c-0.656,0.513-1.48,0.769-2.472,0.769
		c-0.961,0-1.74-0.196-2.342-0.588c-0.56-0.376-0.84-0.836-0.84-1.38c0-0.36,0.11-0.646,0.33-0.858s0.51-0.346,0.87-0.402
		c-0.472-0.288-0.708-0.644-0.708-1.067c0-0.28,0.088-0.515,0.264-0.702C72.304,195.147,72.531,195.013,72.812,194.933z
		 M73.892,197.453c-0.752,0.031-1.128,0.315-1.128,0.852c0,0.272,0.156,0.49,0.474,0.654c0.316,0.164,0.69,0.246,1.122,0.246
		s0.77-0.036,1.014-0.108s0.45-0.168,0.618-0.288c0.36-0.24,0.54-0.528,0.54-0.864c0-0.144-0.05-0.262-0.149-0.354
		c-0.101-0.092-0.245-0.138-0.438-0.138H73.892z M75.728,193.415c0-0.324-0.09-0.588-0.271-0.792
		c-0.18-0.204-0.454-0.307-0.82-0.307c-0.368,0-0.648,0.103-0.842,0.307c-0.19,0.204-0.287,0.468-0.287,0.792
		c0,0.323,0.097,0.59,0.287,0.798c0.192,0.208,0.474,0.312,0.842,0.312c0.366,0,0.642-0.104,0.82-0.312
		C75.638,194.005,75.728,193.739,75.728,193.415z"/>
	<path fill="#444444" d="M79.243,189.605c0-0.256,0.075-0.458,0.229-0.605c0.152-0.148,0.367-0.223,0.647-0.223
		c0.271,0,0.485,0.074,0.643,0.223c0.156,0.147,0.233,0.35,0.233,0.605s-0.078,0.458-0.233,0.606
		c-0.156,0.147-0.37,0.222-0.643,0.222c-0.28,0-0.496-0.074-0.647-0.222C79.319,190.063,79.243,189.861,79.243,189.605z
		 M79.411,191.477h1.416v5.844h-1.416V191.477z"/>
	<path fill="#444444" d="M86.515,197.177c-0.528,0.208-0.944,0.312-1.248,0.312c-0.306,0-0.57-0.035-0.798-0.107
		c-0.229-0.072-0.432-0.18-0.606-0.324c-0.368-0.328-0.552-0.78-0.552-1.355v-3.265h-0.816v-0.948h0.816v-1.535h1.416v1.535h1.584
		v0.948h-1.584v3.216c0,0.48,0.228,0.721,0.684,0.721c0.232,0,0.532-0.063,0.9-0.192L86.515,197.177z"/>
	<path fill="#444444" d="M89.887,193.913c0.464,0,1,0.075,1.606,0.228v-0.576c0-0.408-0.082-0.71-0.245-0.905
		c-0.164-0.196-0.433-0.295-0.805-0.295s-0.658,0.074-0.857,0.223c-0.199,0.147-0.301,0.357-0.301,0.63h-1.548
		c0-0.664,0.234-1.145,0.702-1.44s1.122-0.443,1.962-0.443c1.2,0,1.977,0.42,2.328,1.26c0.12,0.288,0.18,0.628,0.18,1.02v3.708
		h-1.235l-0.107-0.779c-0.376,0.632-0.952,0.947-1.729,0.947c-0.752,0-1.336-0.184-1.752-0.552
		c-0.385-0.352-0.575-0.798-0.575-1.338s0.212-0.956,0.636-1.248C88.57,194.059,89.15,193.913,89.887,193.913z M91.494,195.041
		c-0.472-0.128-0.911-0.192-1.319-0.192c-0.769,0-1.151,0.256-1.151,0.769c0,0.216,0.088,0.401,0.264,0.558
		c0.177,0.156,0.458,0.234,0.847,0.234s0.708-0.131,0.961-0.391C91.345,195.759,91.479,195.433,91.494,195.041z"/>
	<path fill="#444444" d="M94.975,189.089h1.416v8.231h-1.416V189.089z"/>
	<path fill="#444444" d="M104.946,197.177c-0.528,0.208-0.944,0.312-1.248,0.312c-0.305,0-0.57-0.035-0.798-0.107
		c-0.229-0.072-0.431-0.18-0.606-0.324c-0.368-0.328-0.552-0.78-0.552-1.355v-3.265h-0.816v-0.948h0.816v-1.535h1.416v1.535h1.584
		v0.948h-1.584v3.216c0,0.48,0.229,0.721,0.684,0.721c0.232,0,0.532-0.063,0.9-0.192L104.946,197.177z"/>
	<path fill="#444444" d="M107.814,192.437c0.398-0.735,0.982-1.104,1.752-1.104c0.768,0,1.334,0.235,1.698,0.708
		c0.362,0.472,0.546,1.096,0.546,1.872v3.407h-1.416v-3.407c0-0.433-0.104-0.759-0.312-0.979s-0.5-0.33-0.876-0.33
		s-0.698,0.168-0.966,0.504c-0.269,0.336-0.41,0.84-0.426,1.513v2.699h-1.416v-8.231h1.416V192.437z"/>
	<path fill="#444444" d="M118.392,193.073c0.101,0.337,0.149,0.645,0.149,0.925c0,0.279-0.017,0.531-0.048,0.756h-3.769
		c0.017,0.472,0.132,0.855,0.349,1.151c0.216,0.297,0.544,0.444,0.983,0.444c0.584,0,0.932-0.256,1.044-0.768h1.429
		c-0.097,0.584-0.364,1.044-0.805,1.38c-0.456,0.352-1.013,0.527-1.668,0.527c-0.769,0-1.412-0.279-1.933-0.84
		c-0.536-0.584-0.804-1.332-0.804-2.244c0-0.936,0.268-1.688,0.804-2.256c0.513-0.544,1.156-0.815,1.933-0.815
		c0.809,0,1.437,0.284,1.884,0.852C118.142,192.441,118.292,192.737,118.392,193.073z M116.069,192.461
		c-0.399,0-0.712,0.13-0.937,0.39c-0.224,0.26-0.355,0.594-0.396,1.002h2.483c0-0.632-0.2-1.056-0.601-1.271
		C116.47,192.501,116.286,192.461,116.069,192.461z"/>
	<path fill="#444444" d="M125.418,192.593c0.376-0.84,1.036-1.26,1.98-1.26c0.695,0,1.234,0.235,1.62,0.708
		c0.367,0.447,0.552,1.071,0.552,1.872v3.407h-1.428v-3.407c0-0.433-0.104-0.759-0.312-0.979s-0.5-0.33-0.876-0.33
		s-0.684,0.164-0.924,0.492s-0.368,0.824-0.384,1.488v2.735h-1.416v-3.407c0-0.433-0.104-0.759-0.312-0.979s-0.5-0.33-0.876-0.33
		s-0.697,0.168-0.966,0.504s-0.41,0.84-0.426,1.513v2.699h-1.416v-5.832h1.235l0.155,1.009c0.384-0.776,1-1.164,1.85-1.164
		c0.486,0,0.894,0.111,1.218,0.336C125.016,191.893,125.258,192.201,125.418,192.593z"/>
	<path fill="#444444" d="M136.14,193.073c0.101,0.337,0.149,0.645,0.149,0.925c0,0.279-0.017,0.531-0.048,0.756h-3.769
		c0.017,0.472,0.132,0.855,0.349,1.151c0.216,0.297,0.544,0.444,0.983,0.444c0.584,0,0.932-0.256,1.044-0.768h1.429
		c-0.097,0.584-0.364,1.044-0.805,1.38c-0.456,0.352-1.013,0.527-1.668,0.527c-0.769,0-1.412-0.279-1.933-0.84
		c-0.536-0.584-0.804-1.332-0.804-2.244c0-0.936,0.268-1.688,0.804-2.256c0.513-0.544,1.156-0.815,1.933-0.815
		c0.809,0,1.437,0.284,1.884,0.852C135.89,192.441,136.04,192.737,136.14,193.073z M133.817,192.461c-0.399,0-0.712,0.13-0.937,0.39
		c-0.224,0.26-0.355,0.594-0.396,1.002h2.483c0-0.632-0.2-1.056-0.601-1.271C134.219,192.501,134.034,192.461,133.817,192.461z"/>
	<path fill="#444444" d="M138.774,195.545c0.016,0.552,0.42,0.828,1.212,0.828c0.304,0,0.554-0.066,0.75-0.198
		s0.294-0.286,0.294-0.462s-0.061-0.312-0.18-0.408c-0.12-0.096-0.31-0.184-0.564-0.264l-1.271-0.456
		c-0.944-0.328-1.416-0.864-1.416-1.608c0-0.496,0.222-0.894,0.666-1.194c0.442-0.3,1.039-0.449,1.787-0.449
		s1.323,0.164,1.729,0.492c0.404,0.327,0.614,0.739,0.63,1.235h-1.332c-0.016-0.191-0.107-0.344-0.275-0.456
		c-0.168-0.111-0.407-0.168-0.721-0.168c-0.312,0-0.554,0.062-0.726,0.187c-0.172,0.125-0.258,0.266-0.258,0.426
		c0,0.28,0.234,0.488,0.708,0.624l1.38,0.516c0.456,0.152,0.806,0.347,1.05,0.582c0.244,0.236,0.366,0.542,0.366,0.918
		c0,0.48-0.229,0.896-0.686,1.248c-0.472,0.368-1.096,0.552-1.872,0.552c-0.774,0-1.398-0.17-1.871-0.51s-0.713-0.817-0.721-1.434
		H138.774z"/>
</g>
<g opacity="0.7">
	<path fill="#444444" d="M40.892,217.646c-0.336,0.937-0.979,1.404-1.933,1.404c-0.977,0-1.779-0.368-2.412-1.104
		c-0.655-0.76-0.982-1.731-0.982-2.916c0-1.248,0.352-2.248,1.056-3c0.68-0.728,1.557-1.092,2.628-1.092
		c0.729,0,1.338,0.158,1.83,0.475c0.492,0.315,0.878,0.813,1.158,1.493l-1.452,0.337c-0.424-0.681-0.96-1.021-1.607-1.021
		c-0.593,0-1.085,0.252-1.477,0.756c-0.408,0.512-0.612,1.196-0.612,2.052c0,0.809,0.185,1.465,0.553,1.969
		c0.359,0.496,0.841,0.744,1.439,0.744c0.512,0,0.933-0.164,1.26-0.492c0.337-0.336,0.505-0.796,0.505-1.38v-0.049l-1.753-0.035
		v-0.912H42.2v4.008h-1.152L40.892,217.646z"/>
	<path fill="#444444" d="M48.758,214.634c0.102,0.336,0.15,0.644,0.15,0.924s-0.017,0.532-0.048,0.756h-3.77
		c0.018,0.473,0.133,0.856,0.35,1.152c0.216,0.296,0.544,0.444,0.982,0.444c0.584,0,0.933-0.257,1.044-0.769h1.43
		c-0.098,0.584-0.364,1.044-0.806,1.38c-0.455,0.353-1.012,0.528-1.668,0.528c-0.768,0-1.411-0.28-1.932-0.84
		c-0.536-0.584-0.804-1.332-0.804-2.244c0-0.937,0.268-1.688,0.804-2.256c0.512-0.544,1.156-0.816,1.932-0.816
		c0.81,0,1.438,0.284,1.885,0.853C48.508,214.002,48.658,214.298,48.758,214.634z M46.436,214.022c-0.399,0-0.712,0.13-0.937,0.391
		c-0.224,0.26-0.355,0.594-0.396,1.002h2.482c0-0.633-0.199-1.057-0.6-1.272C46.836,214.062,46.652,214.022,46.436,214.022z"/>
	<path fill="#444444" d="M51.992,214.058c0.384-0.776,1-1.164,1.849-1.164c0.721,0,1.263,0.236,1.626,0.708s0.547,1.096,0.547,1.872
		v3.408h-1.416v-3.408c0-0.432-0.104-0.758-0.312-0.978c-0.208-0.221-0.5-0.33-0.876-0.33s-0.698,0.168-0.966,0.504
		c-0.27,0.336-0.41,0.84-0.426,1.512v2.7h-1.416v-5.832h1.234L51.992,214.058z"/>
	<path fill="#444444" d="M62.594,214.634c0.101,0.336,0.149,0.644,0.149,0.924s-0.017,0.532-0.048,0.756h-3.769
		c0.017,0.473,0.132,0.856,0.349,1.152c0.216,0.296,0.544,0.444,0.982,0.444c0.585,0,0.933-0.257,1.045-0.769h1.429
		c-0.097,0.584-0.364,1.044-0.805,1.38c-0.456,0.353-1.013,0.528-1.669,0.528c-0.768,0-1.411-0.28-1.932-0.84
		c-0.536-0.584-0.804-1.332-0.804-2.244c0-0.937,0.268-1.688,0.804-2.256c0.512-0.544,1.156-0.816,1.932-0.816
		c0.81,0,1.438,0.284,1.885,0.853C62.344,214.002,62.494,214.298,62.594,214.634z M60.271,214.022c-0.399,0-0.712,0.13-0.937,0.391
		c-0.224,0.26-0.355,0.594-0.396,1.002h2.482c0-0.633-0.199-1.057-0.6-1.272C60.672,214.062,60.488,214.022,60.271,214.022z"/>
	<path fill="#444444" d="M65.853,214.202c0.352-0.841,0.88-1.261,1.584-1.261c0.136,0,0.308,0.028,0.516,0.084l-0.022,1.416
		c-0.226-0.048-0.444-0.071-0.66-0.071c-0.944,0-1.416,0.651-1.416,1.956v2.556h-1.416v-5.844h1.416L65.853,214.202L65.853,214.202z
		"/>
	<path fill="#444444" d="M71.349,215.474c0.464,0,1,0.076,1.606,0.229v-0.576c0-0.408-0.082-0.71-0.245-0.906
		c-0.164-0.196-0.433-0.294-0.805-0.294s-0.658,0.074-0.857,0.222c-0.199,0.148-0.301,0.358-0.301,0.63H69.2
		c0-0.664,0.234-1.144,0.702-1.439s1.122-0.444,1.962-0.444c1.2,0,1.977,0.42,2.328,1.26c0.12,0.288,0.18,0.628,0.18,1.021v3.708
		h-1.234l-0.108-0.78c-0.376,0.632-0.952,0.948-1.729,0.948c-0.752,0-1.336-0.185-1.752-0.552c-0.385-0.353-0.575-0.799-0.575-1.338
		c0-0.54,0.212-0.956,0.636-1.248C70.032,215.621,70.612,215.474,71.349,215.474z M72.956,216.603
		c-0.472-0.128-0.911-0.191-1.318-0.191c-0.77,0-1.152,0.256-1.152,0.768c0,0.216,0.088,0.402,0.264,0.558
		c0.177,0.156,0.458,0.234,0.848,0.234c0.388,0,0.708-0.13,0.96-0.39C72.807,217.32,72.94,216.995,72.956,216.603z"/>
	<path fill="#444444" d="M76.437,210.65h1.416v8.232h-1.416V210.65z"/>
	<path fill="#444444" d="M37.412,228.242c0.368-0.633,0.928-0.948,1.68-0.948c0.721,0,1.337,0.271,1.85,0.815
		c0.544,0.576,0.814,1.328,0.814,2.256c0,0.937-0.274,1.692-0.827,2.269c-0.513,0.544-1.124,0.816-1.837,0.816
		c-0.712,0-1.23-0.213-1.56-0.637v3.312h-1.416v-8.676h1.164L37.412,228.242z M38.84,232.166c0.168,0,0.343-0.036,0.522-0.108
		s0.342-0.184,0.485-0.336c0.319-0.336,0.479-0.786,0.479-1.35c0-0.564-0.138-1.007-0.414-1.326c-0.275-0.32-0.612-0.48-1.008-0.48
		c-0.396,0-0.721,0.114-0.973,0.342c-0.252,0.229-0.387,0.555-0.401,0.979v1.044c0,0.376,0.132,0.68,0.396,0.912
		C38.176,232.058,38.48,232.166,38.84,232.166z"/>
	<path fill="#444444" d="M47.954,229.034c0.102,0.336,0.15,0.644,0.15,0.924c0,0.279-0.018,0.531-0.048,0.756h-3.77
		c0.018,0.472,0.132,0.855,0.35,1.151c0.216,0.297,0.544,0.444,0.982,0.444c0.584,0,0.932-0.256,1.044-0.768h1.429
		c-0.097,0.584-0.363,1.044-0.805,1.38c-0.456,0.352-1.012,0.527-1.668,0.527c-0.768,0-1.412-0.279-1.932-0.84
		c-0.536-0.584-0.805-1.332-0.805-2.244c0-0.936,0.269-1.688,0.805-2.256c0.512-0.544,1.155-0.815,1.932-0.815
		c0.81,0,1.438,0.284,1.884,0.852C47.704,228.402,47.854,228.698,47.954,229.034z M45.632,228.422c-0.398,0-0.712,0.13-0.936,0.39
		s-0.356,0.594-0.396,1.002h2.483c0-0.632-0.2-1.056-0.6-1.271C46.032,228.462,45.849,228.422,45.632,228.422z"/>
	<path fill="#444444" d="M51.213,228.602c0.353-0.84,0.881-1.26,1.584-1.26c0.137,0,0.309,0.028,0.517,0.084l-0.023,1.416
		c-0.225-0.048-0.443-0.072-0.66-0.072c-0.943,0-1.416,0.652-1.416,1.956v2.556h-1.416v-5.844h1.416L51.213,228.602L51.213,228.602z
		"/>
	<path fill="#444444" d="M55.581,231.506c0.017,0.552,0.42,0.828,1.212,0.828c0.305,0,0.555-0.066,0.75-0.198
		c0.196-0.132,0.294-0.286,0.294-0.462s-0.061-0.312-0.18-0.408c-0.12-0.096-0.309-0.184-0.563-0.264l-1.271-0.456
		c-0.944-0.328-1.416-0.864-1.416-1.608c0-0.496,0.222-0.894,0.666-1.193c0.443-0.301,1.039-0.45,1.787-0.45
		s1.324,0.164,1.729,0.492c0.404,0.327,0.614,0.739,0.631,1.235h-1.332c-0.017-0.191-0.108-0.344-0.276-0.456
		c-0.168-0.111-0.407-0.168-0.72-0.168s-0.555,0.062-0.727,0.187c-0.172,0.125-0.258,0.266-0.258,0.426
		c0,0.28,0.235,0.488,0.708,0.624l1.38,0.516c0.456,0.152,0.806,0.347,1.05,0.582c0.244,0.236,0.366,0.542,0.366,0.918
		c0,0.48-0.229,0.896-0.685,1.248c-0.473,0.368-1.097,0.553-1.872,0.553s-1.399-0.171-1.872-0.511s-0.712-0.817-0.72-1.434H55.581z"
		/>
	<path fill="#444444" d="M63.405,227.294c0.392,0,0.76,0.062,1.104,0.186c0.345,0.124,0.642,0.314,0.89,0.57
		c0.552,0.56,0.827,1.336,0.827,2.328c0,0.976-0.275,1.744-0.827,2.304c-0.496,0.512-1.16,0.769-1.992,0.769
		s-1.504-0.257-2.017-0.769c-0.553-0.552-0.827-1.32-0.827-2.304c0-1,0.274-1.776,0.827-2.328
		C61.894,227.546,62.565,227.294,63.405,227.294z M64.809,230.365c0-0.615-0.119-1.077-0.359-1.386
		c-0.24-0.308-0.574-0.462-1.002-0.462c-0.429,0-0.778,0.154-1.05,0.462c-0.272,0.309-0.408,0.771-0.408,1.386
		c0,0.616,0.122,1.078,0.366,1.387c0.243,0.308,0.577,0.462,1.002,0.462c0.424,0,0.771-0.154,1.044-0.462
		C64.673,231.444,64.809,230.982,64.809,230.365z"/>
	<path fill="#444444" d="M69.297,228.458c0.385-0.776,1-1.164,1.85-1.164c0.72,0,1.262,0.235,1.626,0.708
		c0.363,0.472,0.546,1.096,0.546,1.872v3.407h-1.416v-3.407c0-0.433-0.104-0.759-0.312-0.979s-0.5-0.33-0.876-0.33
		s-0.697,0.168-0.966,0.504s-0.41,0.841-0.426,1.513v2.699h-1.416v-5.832h1.235L69.297,228.458z"/>
	<path fill="#444444" d="M77.301,229.874c0.465,0,1,0.076,1.607,0.228v-0.576c0-0.407-0.082-0.71-0.245-0.905
		c-0.164-0.196-0.433-0.294-0.805-0.294s-0.658,0.073-0.857,0.222c-0.2,0.147-0.301,0.357-0.301,0.63h-1.548
		c0-0.664,0.234-1.144,0.702-1.44c0.468-0.296,1.122-0.443,1.962-0.443c1.2,0,1.977,0.42,2.328,1.26
		c0.12,0.288,0.18,0.628,0.18,1.02v3.708h-1.235l-0.107-0.779c-0.376,0.632-0.952,0.947-1.729,0.947
		c-0.752,0-1.336-0.184-1.752-0.552c-0.385-0.352-0.576-0.798-0.576-1.338s0.213-0.956,0.637-1.248
		C75.984,230.021,76.564,229.874,77.301,229.874z M78.908,231.002c-0.472-0.128-0.911-0.192-1.319-0.192
		c-0.769,0-1.151,0.256-1.151,0.769c0,0.216,0.088,0.401,0.264,0.558c0.177,0.156,0.458,0.234,0.847,0.234s0.708-0.131,0.96-0.391
		C78.759,231.72,78.893,231.395,78.908,231.002z"/>
	<path fill="#444444" d="M82.389,225.05h1.416v8.231h-1.416V225.05z"/>
	<path fill="#444444" d="M93.974,228.134c0.491,0.56,0.737,1.296,0.737,2.208s-0.26,1.664-0.779,2.256
		c-0.504,0.568-1.133,0.853-1.885,0.853c-0.358,0-0.688-0.097-0.989-0.288c-0.301-0.192-0.538-0.488-0.714-0.889l-0.349,1.008
		h-0.924v-8.231h1.416v3.132c0.367-0.592,0.918-0.888,1.649-0.888C92.87,227.294,93.482,227.573,93.974,228.134z M90.488,230.006
		v0.768c0.016,0.408,0.164,0.744,0.443,1.008c0.265,0.257,0.586,0.385,0.967,0.385c0.38,0,0.705-0.166,0.978-0.498
		c0.271-0.332,0.408-0.771,0.408-1.314s-0.134-0.978-0.402-1.302c-0.268-0.324-0.602-0.486-1.002-0.486
		c-0.399,0-0.73,0.132-0.996,0.396C90.62,229.226,90.488,229.573,90.488,230.006z"/>
	<path fill="#444444" d="M96.44,225.05h1.416v8.231H96.44V225.05z"/>
	<path fill="#444444" d="M102.38,227.294c0.393,0,0.761,0.062,1.104,0.186s0.641,0.314,0.889,0.57
		c0.552,0.56,0.827,1.336,0.827,2.328c0,0.976-0.275,1.744-0.827,2.304c-0.496,0.512-1.16,0.769-1.992,0.769
		s-1.504-0.257-2.017-0.769c-0.552-0.552-0.827-1.32-0.827-2.304c0-1,0.275-1.776,0.827-2.328
		C100.868,227.546,101.54,227.294,102.38,227.294z M103.783,230.365c0-0.615-0.119-1.077-0.359-1.386
		c-0.239-0.308-0.573-0.462-1.002-0.462s-0.777,0.154-1.05,0.462c-0.271,0.309-0.408,0.771-0.408,1.386
		c0,0.616,0.122,1.078,0.366,1.387c0.243,0.308,0.577,0.462,1.002,0.462c0.424,0,0.771-0.154,1.044-0.462
		C103.647,231.444,103.783,230.982,103.783,230.365z"/>
	<path fill="#444444" d="M107.384,230.894c-0.473-0.399-0.708-0.899-0.708-1.5c0-0.632,0.248-1.144,0.744-1.536
		c0.479-0.376,1.029-0.563,1.649-0.563s1.139,0.116,1.555,0.348c0.048-0.456,0.243-0.824,0.588-1.104
		c0.336-0.28,0.731-0.42,1.188-0.42l-0.071,1.355c-0.688,0-1.045,0.229-1.067,0.685c0.296,0.367,0.443,0.743,0.443,1.128
		c0,0.384-0.067,0.706-0.204,0.966s-0.319,0.478-0.553,0.653c-0.479,0.385-1.062,0.576-1.752,0.576c-0.392,0-0.748-0.06-1.067-0.18
		c-0.319,0.096-0.479,0.288-0.479,0.576c0,0.359,0.304,0.54,0.912,0.54h1.956c1.328,0,1.991,0.464,1.991,1.392
		c0,0.312-0.077,0.618-0.233,0.918s-0.382,0.566-0.678,0.798c-0.656,0.513-1.48,0.769-2.473,0.769c-0.96,0-1.739-0.196-2.341-0.588
		c-0.56-0.376-0.84-0.836-0.84-1.38c0-0.36,0.11-0.646,0.33-0.858s0.51-0.346,0.87-0.402c-0.473-0.288-0.708-0.644-0.708-1.067
		c0-0.28,0.088-0.515,0.264-0.702C106.876,231.108,107.104,230.974,107.384,230.894z M108.464,233.414
		c-0.752,0.031-1.128,0.315-1.128,0.852c0,0.272,0.157,0.49,0.475,0.654c0.315,0.164,0.689,0.246,1.122,0.246
		c0.432,0,0.77-0.036,1.014-0.108s0.45-0.168,0.618-0.288c0.359-0.24,0.54-0.527,0.54-0.864c0-0.144-0.05-0.262-0.149-0.354
		c-0.101-0.092-0.246-0.138-0.438-0.138H108.464z M110.3,229.376c0-0.324-0.09-0.588-0.271-0.792
		c-0.18-0.204-0.454-0.307-0.821-0.307c-0.368,0-0.647,0.103-0.841,0.307c-0.191,0.204-0.287,0.468-0.287,0.792
		s0.096,0.59,0.287,0.798c0.192,0.208,0.473,0.312,0.841,0.312c0.367,0,0.643-0.104,0.821-0.312
		C110.21,229.966,110.3,229.7,110.3,229.376z"/>
</g>
<rect x="0" y="246.307" fill="#F2A2B9" stroke="#D3D3D3" stroke-width="0.25" stroke-miterlimit="10" width="23" height="23"/>
<g opacity="0.7">
	<path fill="#444444" d="M40.208,255.398c-0.128-0.68-0.607-1.02-1.439-1.02c-0.407,0-0.727,0.083-0.953,0.246
		c-0.229,0.164-0.343,0.361-0.343,0.594c0,0.231,0.073,0.414,0.223,0.546c0.146,0.132,0.378,0.254,0.688,0.366l1.692,0.66
		c0.576,0.224,1.021,0.506,1.332,0.846c0.312,0.34,0.468,0.766,0.468,1.278c0,0.704-0.264,1.262-0.792,1.674
		c-0.527,0.412-1.279,0.618-2.256,0.618c-0.864,0-1.563-0.212-2.101-0.637c-0.601-0.464-0.916-1.119-0.947-1.968h1.403
		c0,0.641,0.332,1.044,0.996,1.212c0.199,0.057,0.464,0.084,0.792,0.084c0.327,0,0.632-0.082,0.911-0.246
		c0.28-0.163,0.421-0.384,0.421-0.659c0-0.276-0.076-0.488-0.229-0.637c-0.152-0.147-0.4-0.286-0.744-0.414l-1.548-0.611
		c-0.601-0.232-1.061-0.504-1.38-0.816c-0.32-0.312-0.48-0.744-0.48-1.296c0-0.648,0.252-1.16,0.757-1.536
		c0.512-0.392,1.206-0.588,2.082-0.588s1.552,0.202,2.027,0.606c0.477,0.403,0.75,0.97,0.822,1.697H40.208L40.208,255.398z"/>
	<path fill="#444444" d="M46.064,255.05c0.392,0,0.76,0.062,1.104,0.186c0.345,0.124,0.642,0.314,0.89,0.57
		c0.552,0.561,0.826,1.336,0.826,2.328c0,0.976-0.274,1.744-0.826,2.304c-0.496,0.512-1.16,0.769-1.992,0.769
		s-1.504-0.257-2.018-0.769c-0.552-0.552-0.826-1.319-0.826-2.304c0-1,0.274-1.776,0.826-2.328
		C44.553,255.302,45.225,255.05,46.064,255.05z M47.468,258.122c0-0.616-0.118-1.078-0.358-1.387
		c-0.24-0.308-0.574-0.462-1.002-0.462c-0.429,0-0.778,0.154-1.05,0.462c-0.272,0.309-0.408,0.771-0.408,1.387
		c0,0.615,0.122,1.078,0.366,1.386c0.242,0.308,0.576,0.462,1.002,0.462c0.424,0,0.771-0.154,1.044-0.462
		C47.332,259.2,47.468,258.738,47.468,258.122z"/>
	<path fill="#444444" d="M52.784,255.05c0.368,0,0.698,0.062,0.99,0.186s0.538,0.286,0.738,0.486
		c0.398,0.384,0.636,0.868,0.708,1.452l-1.43,0.036c-0.062-0.256-0.182-0.468-0.354-0.636c-0.172-0.169-0.37-0.253-0.595-0.253
		s-0.417,0.034-0.575,0.103c-0.16,0.068-0.302,0.174-0.42,0.318c-0.272,0.336-0.408,0.8-0.408,1.392s0.128,1.038,0.384,1.338
		s0.565,0.45,0.93,0.45c0.365,0,0.628-0.085,0.792-0.258c0.164-0.172,0.246-0.406,0.246-0.702h1.43c0,0.64-0.214,1.172-0.638,1.596
		c-0.432,0.433-1.036,0.648-1.812,0.648c-0.77,0-1.412-0.28-1.934-0.84c-0.552-0.601-0.826-1.349-0.826-2.244
		c0-0.944,0.274-1.7,0.826-2.269C51.36,255.318,52.008,255.05,52.784,255.05z"/>
	<path fill="#444444" d="M56.877,253.322c0-0.256,0.075-0.458,0.229-0.605c0.152-0.148,0.368-0.222,0.647-0.222
		c0.271,0,0.485,0.073,0.643,0.222c0.157,0.147,0.233,0.35,0.233,0.605c0,0.257-0.078,0.458-0.233,0.606
		c-0.156,0.148-0.37,0.222-0.643,0.222c-0.279,0-0.496-0.073-0.647-0.222C56.953,253.78,56.877,253.578,56.877,253.322z
		 M57.045,255.194h1.416v5.845h-1.416V255.194z"/>
	<path fill="#444444" d="M62.78,257.63c0.464,0,1,0.076,1.607,0.228v-0.576c0-0.407-0.082-0.71-0.245-0.905
		c-0.164-0.196-0.434-0.294-0.806-0.294s-0.657,0.073-0.856,0.222c-0.2,0.148-0.301,0.358-0.301,0.63h-1.549
		c0-0.664,0.234-1.144,0.702-1.439c0.468-0.297,1.122-0.444,1.962-0.444c1.2,0,1.978,0.42,2.328,1.26
		c0.12,0.288,0.181,0.628,0.181,1.021v3.708h-1.235l-0.108-0.78c-0.376,0.632-0.952,0.948-1.728,0.948
		c-0.752,0-1.336-0.185-1.752-0.553c-0.385-0.352-0.576-0.798-0.576-1.338s0.212-0.956,0.636-1.248S62.044,257.63,62.78,257.63z
		 M64.388,258.758c-0.473-0.128-0.911-0.192-1.319-0.192c-0.77,0-1.152,0.256-1.152,0.769c0,0.216,0.088,0.401,0.265,0.558
		s0.458,0.234,0.847,0.234c0.388,0,0.708-0.13,0.96-0.391C64.238,259.476,64.372,259.15,64.388,258.758z"/>
	<path fill="#444444" d="M67.868,252.806h1.416v8.232h-1.416V252.806z"/>
</g>
<rect x="0" y="282.807" fill="#953C6C" width="23" height="23"/>
<g opacity="0.7">
	<path fill="#444444" d="M40.886,290.392c0.491,0.428,0.737,1.04,0.737,1.836s-0.246,1.408-0.737,1.836
		c-0.492,0.429-1.179,0.643-2.059,0.643h-1.32v2.832H36.08v-7.788h2.748C39.708,289.75,40.394,289.964,40.886,290.392z
		 M38.828,293.47c0.439,0,0.771-0.116,0.996-0.348c0.224-0.232,0.336-0.53,0.336-0.895s-0.112-0.664-0.336-0.899
		c-0.225-0.236-0.557-0.354-0.996-0.354h-1.32v2.496H38.828z"/>
	<path fill="#444444" d="M46.964,296.482c-0.367,0.776-0.96,1.164-1.775,1.164c-1.032,0-1.712-0.403-2.04-1.212
		c-0.12-0.28-0.181-0.62-0.181-1.02v-3.721h1.416v3.576c0,0.384,0.093,0.67,0.276,0.858c0.185,0.188,0.409,0.282,0.678,0.282
		s0.494-0.038,0.679-0.114c0.184-0.076,0.344-0.19,0.479-0.342c0.296-0.345,0.451-0.805,0.468-1.381v-2.88h1.416v5.845h-1.416
		V296.482z"/>
	<path fill="#444444" d="M55.514,292.39c0.491,0.561,0.737,1.296,0.737,2.208s-0.26,1.664-0.779,2.256
		c-0.505,0.568-1.133,0.853-1.885,0.853c-0.358,0-0.688-0.097-0.989-0.288c-0.301-0.192-0.538-0.488-0.715-0.889l-0.348,1.009
		h-0.924v-8.232h1.416v3.132c0.367-0.592,0.918-0.888,1.649-0.888C54.41,291.55,55.022,291.83,55.514,292.39z M52.028,294.262v0.768
		c0.016,0.408,0.164,0.744,0.443,1.009c0.265,0.256,0.586,0.384,0.967,0.384c0.38,0,0.705-0.166,0.978-0.498
		c0.271-0.332,0.408-0.771,0.408-1.314s-0.134-0.978-0.402-1.302c-0.268-0.324-0.602-0.486-1.002-0.486
		c-0.399,0-0.73,0.133-0.996,0.396C52.16,293.482,52.028,293.83,52.028,294.262z"/>
	<path fill="#444444" d="M57.98,289.306h1.416v8.232H57.98V289.306z"/>
	<path fill="#444444" d="M61.58,289.822c0-0.256,0.075-0.458,0.229-0.605c0.152-0.148,0.367-0.222,0.647-0.222
		c0.271,0,0.485,0.073,0.643,0.222c0.156,0.147,0.233,0.35,0.233,0.605c0,0.257-0.078,0.458-0.233,0.606
		c-0.156,0.147-0.37,0.222-0.643,0.222c-0.28,0-0.496-0.074-0.647-0.222C61.656,290.28,61.58,290.078,61.58,289.822z
		 M61.748,291.694h1.416v5.845h-1.416V291.694z"/>
	<path fill="#444444" d="M67.783,291.55c0.368,0,0.698,0.062,0.99,0.186s0.538,0.286,0.738,0.486
		c0.398,0.384,0.636,0.868,0.708,1.452l-1.43,0.036c-0.062-0.256-0.182-0.468-0.354-0.637c-0.172-0.168-0.37-0.252-0.595-0.252
		s-0.417,0.034-0.575,0.103c-0.16,0.067-0.302,0.174-0.42,0.317c-0.272,0.337-0.408,0.801-0.408,1.393s0.128,1.038,0.384,1.338
		s0.565,0.45,0.93,0.45c0.365,0,0.628-0.085,0.792-0.258c0.164-0.172,0.246-0.406,0.246-0.702h1.43c0,0.64-0.214,1.172-0.638,1.596
		c-0.432,0.432-1.036,0.648-1.812,0.648c-0.77,0-1.412-0.28-1.934-0.84c-0.552-0.601-0.826-1.349-0.826-2.244
		c0-0.944,0.274-1.7,0.826-2.269C66.359,291.818,67.007,291.55,67.783,291.55z"/>
	<path fill="#444444" d="M74.912,289.822c0-0.256,0.075-0.458,0.229-0.605c0.152-0.148,0.367-0.222,0.647-0.222
		c0.271,0,0.485,0.073,0.643,0.222c0.156,0.147,0.233,0.35,0.233,0.605c0,0.257-0.078,0.458-0.233,0.606
		c-0.156,0.147-0.37,0.222-0.643,0.222c-0.28,0-0.496-0.074-0.647-0.222C74.988,290.28,74.912,290.078,74.912,289.822z
		 M75.08,291.694h1.416v5.845H75.08V291.694z"/>
	<path fill="#444444" d="M80.287,292.714c0.384-0.776,1-1.164,1.85-1.164c0.72,0,1.262,0.236,1.626,0.708
		c0.362,0.472,0.546,1.096,0.546,1.872v3.408h-1.416v-3.408c0-0.433-0.104-0.758-0.312-0.979c-0.208-0.22-0.5-0.33-0.876-0.33
		s-0.698,0.168-0.966,0.505c-0.269,0.336-0.41,0.84-0.426,1.512v2.7h-1.416v-5.832h1.234L80.287,292.714z"/>
	<path fill="#444444" d="M87.163,295.762c0.017,0.552,0.42,0.828,1.212,0.828c0.305,0,0.555-0.066,0.75-0.198
		c0.196-0.132,0.294-0.286,0.294-0.462s-0.061-0.312-0.18-0.408c-0.12-0.096-0.309-0.184-0.564-0.264l-1.271-0.456
		c-0.944-0.328-1.416-0.864-1.416-1.608c0-0.496,0.222-0.894,0.666-1.193c0.443-0.3,1.039-0.45,1.787-0.45s1.324,0.164,1.729,0.492
		s0.614,0.739,0.63,1.235h-1.332c-0.016-0.191-0.107-0.344-0.275-0.456c-0.168-0.111-0.407-0.168-0.72-0.168
		s-0.555,0.062-0.727,0.187c-0.172,0.125-0.258,0.266-0.258,0.426c0,0.28,0.235,0.488,0.708,0.624l1.38,0.516
		c0.456,0.152,0.806,0.347,1.05,0.582c0.244,0.236,0.366,0.542,0.366,0.918c0,0.48-0.229,0.896-0.685,1.248
		c-0.473,0.368-1.097,0.553-1.872,0.553s-1.399-0.17-1.872-0.511c-0.473-0.34-0.712-0.817-0.721-1.434H87.163z"/>
	<path fill="#444444" d="M95.983,297.394c-0.528,0.208-0.944,0.312-1.248,0.312c-0.305,0-0.57-0.036-0.798-0.108
		c-0.229-0.072-0.432-0.18-0.606-0.324c-0.368-0.328-0.552-0.779-0.552-1.355v-3.265h-0.816v-0.947h0.816v-1.536h1.416v1.536h1.584
		v0.947h-1.584v3.217c0,0.479,0.228,0.72,0.684,0.72c0.232,0,0.532-0.063,0.9-0.192L95.983,297.394z"/>
	<path fill="#444444" d="M97.388,289.822c0-0.256,0.074-0.458,0.228-0.605c0.153-0.148,0.368-0.222,0.648-0.222
		c0.271,0,0.484,0.073,0.642,0.222c0.157,0.147,0.234,0.35,0.234,0.605c0,0.257-0.078,0.458-0.234,0.606
		c-0.156,0.147-0.37,0.222-0.642,0.222c-0.28,0-0.496-0.074-0.648-0.222C97.464,290.28,97.388,290.078,97.388,289.822z
		 M97.556,291.694h1.416v5.845h-1.416V291.694z"/>
	<path fill="#444444" d="M104.659,297.394c-0.528,0.208-0.944,0.312-1.248,0.312c-0.305,0-0.57-0.036-0.798-0.108
		c-0.229-0.072-0.431-0.18-0.606-0.324c-0.367-0.328-0.552-0.779-0.552-1.355v-3.265h-0.815v-0.947h0.815v-1.536h1.416v1.536h1.584
		v0.947h-1.584v3.217c0,0.479,0.229,0.72,0.685,0.72c0.231,0,0.531-0.063,0.899-0.192L104.659,297.394z"/>
	<path fill="#444444" d="M109.987,296.482c-0.368,0.776-0.96,1.164-1.776,1.164c-1.031,0-1.712-0.403-2.04-1.212
		c-0.12-0.28-0.18-0.62-0.18-1.02v-3.721h1.416v3.576c0,0.384,0.092,0.67,0.276,0.858c0.184,0.188,0.408,0.282,0.678,0.282
		c0.268,0,0.494-0.038,0.678-0.114c0.185-0.076,0.344-0.19,0.48-0.342c0.296-0.345,0.451-0.805,0.468-1.381v-2.88h1.416v5.845
		h-1.416V296.482z"/>
	<path fill="#444444" d="M116.924,297.394c-0.527,0.208-0.943,0.312-1.248,0.312s-0.569-0.036-0.798-0.108s-0.431-0.18-0.605-0.324
		c-0.368-0.328-0.552-0.779-0.552-1.355v-3.265h-0.816v-0.947h0.816v-1.536h1.416v1.536h1.584v0.947h-1.584v3.217
		c0,0.479,0.228,0.72,0.684,0.72c0.232,0,0.532-0.063,0.9-0.192L116.924,297.394z"/>
	<path fill="#444444" d="M118.328,289.822c0-0.256,0.075-0.458,0.229-0.605c0.152-0.148,0.367-0.222,0.647-0.222
		c0.271,0,0.485,0.073,0.643,0.222c0.156,0.147,0.233,0.35,0.233,0.605c0,0.257-0.078,0.458-0.233,0.606
		c-0.156,0.147-0.37,0.222-0.643,0.222c-0.28,0-0.496-0.074-0.647-0.222C118.404,290.28,118.328,290.078,118.328,289.822z
		 M118.496,291.694h1.416v5.845h-1.416V291.694z"/>
	<path fill="#444444" d="M124.604,291.55c0.392,0,0.76,0.062,1.104,0.186c0.345,0.124,0.642,0.314,0.89,0.57
		c0.552,0.56,0.826,1.336,0.826,2.328c0,0.976-0.274,1.744-0.826,2.304c-0.496,0.512-1.16,0.769-1.992,0.769
		s-1.504-0.257-2.018-0.769c-0.552-0.552-0.826-1.319-0.826-2.304c0-1,0.274-1.776,0.826-2.328
		C123.092,291.802,123.764,291.55,124.604,291.55z M126.007,294.622c0-0.616-0.118-1.078-0.358-1.387
		c-0.24-0.308-0.574-0.462-1.002-0.462c-0.43,0-0.778,0.154-1.05,0.462c-0.272,0.309-0.408,0.771-0.408,1.387
		c0,0.615,0.122,1.078,0.366,1.386c0.242,0.308,0.576,0.462,1.002,0.462c0.424,0,0.771-0.154,1.044-0.462
		C125.871,295.7,126.007,295.238,126.007,294.622z"/>
	<path fill="#444444" d="M130.495,292.714c0.384-0.776,1-1.164,1.85-1.164c0.72,0,1.262,0.236,1.626,0.708
		c0.362,0.472,0.546,1.096,0.546,1.872v3.408H133.1v-3.408c0-0.433-0.104-0.758-0.312-0.979c-0.208-0.22-0.5-0.33-0.876-0.33
		s-0.698,0.168-0.966,0.505c-0.269,0.336-0.41,0.84-0.426,1.512v2.7h-1.416v-5.832h1.234L130.495,292.714z"/>
	<path fill="#444444" d="M137.371,295.762c0.017,0.552,0.42,0.828,1.212,0.828c0.305,0,0.555-0.066,0.75-0.198
		c0.196-0.132,0.294-0.286,0.294-0.462s-0.061-0.312-0.18-0.408c-0.12-0.096-0.309-0.184-0.564-0.264l-1.271-0.456
		c-0.944-0.328-1.416-0.864-1.416-1.608c0-0.496,0.222-0.894,0.666-1.193c0.443-0.3,1.039-0.45,1.787-0.45s1.324,0.164,1.729,0.492
		s0.614,0.739,0.631,1.235h-1.332c-0.017-0.191-0.108-0.344-0.276-0.456c-0.168-0.111-0.407-0.168-0.72-0.168
		s-0.555,0.062-0.727,0.187c-0.172,0.125-0.258,0.266-0.258,0.426c0,0.28,0.235,0.488,0.708,0.624l1.38,0.516
		c0.456,0.152,0.806,0.347,1.05,0.582c0.244,0.236,0.366,0.542,0.366,0.918c0,0.48-0.229,0.896-0.685,1.248
		c-0.473,0.368-1.097,0.553-1.872,0.553s-1.399-0.17-1.872-0.511c-0.472-0.34-0.712-0.817-0.72-1.434H137.371z"/>
</g>
<line opacity="0.7" fill="none" stroke="#444444" stroke-miterlimit="10" x1="0" y1="24.098" x2="141" y2="24.098"/>
<rect x="0" y="317.557" fill="#F6F4F3" width="23" height="23"/>
<g opacity="0.7">
	<path fill="#444444" d="M36.824,324.5l1.716,5.916l1.668-5.4h0.96l1.765,5.424l1.823-5.939h1.597l-2.677,7.788h-1.486l-1.465-4.393
		l-1.451,4.393h-1.488L35.24,324.5H36.824z"/>
	<path fill="#444444" d="M47.66,324.572c0-0.256,0.075-0.458,0.229-0.605c0.152-0.148,0.367-0.222,0.647-0.222
		c0.271,0,0.485,0.073,0.643,0.222c0.156,0.147,0.233,0.35,0.233,0.605c0,0.257-0.078,0.458-0.233,0.606
		c-0.156,0.147-0.37,0.222-0.643,0.222c-0.28,0-0.496-0.074-0.647-0.222C47.736,325.03,47.66,324.828,47.66,324.572z
		 M47.828,326.444h1.416v5.845h-1.416V326.444z"/>
	<path fill="#444444" d="M53.707,329.444l-0.646,0.54v2.305h-1.416v-8.232h1.416v4.452l2.304-2.052h1.92l-2.58,2.159l2.726,3.673
		H55.7L53.707,329.444z"/>
	<path fill="#444444" d="M58.496,324.572c0-0.256,0.075-0.458,0.229-0.605c0.152-0.148,0.367-0.222,0.647-0.222
		c0.271,0,0.485,0.073,0.643,0.222c0.156,0.147,0.233,0.35,0.233,0.605c0,0.257-0.078,0.458-0.233,0.606
		c-0.156,0.147-0.37,0.222-0.643,0.222c-0.28,0-0.496-0.074-0.647-0.222C58.572,325.03,58.496,324.828,58.496,324.572z
		 M58.664,326.444h1.416v5.845h-1.416V326.444z"/>
	<path fill="#444444" d="M63.775,327.248c0.368-0.633,0.928-0.948,1.68-0.948c0.72,0,1.336,0.271,1.85,0.815
		c0.544,0.576,0.814,1.328,0.814,2.257c0,0.936-0.274,1.691-0.828,2.268c-0.512,0.544-1.124,0.816-1.836,0.816
		s-1.23-0.212-1.56-0.637v3.312h-1.416v-8.676h1.164L63.775,327.248z M65.203,331.172c0.168,0,0.342-0.036,0.522-0.108
		c0.18-0.071,0.342-0.184,0.484-0.336c0.32-0.336,0.48-0.786,0.48-1.35c0-0.564-0.138-1.006-0.414-1.326s-0.612-0.48-1.008-0.48
		c-0.396,0-0.722,0.114-0.974,0.343c-0.252,0.228-0.386,0.554-0.4,0.978v1.044c0,0.376,0.132,0.68,0.396,0.912
		C64.539,331.064,64.844,331.172,65.203,331.172z"/>
	<path fill="#444444" d="M74.317,328.04c0.101,0.336,0.149,0.644,0.149,0.924s-0.017,0.532-0.048,0.756H70.65
		c0.017,0.472,0.132,0.856,0.349,1.152c0.216,0.296,0.544,0.443,0.983,0.443c0.584,0,0.932-0.256,1.044-0.768h1.429
		c-0.097,0.584-0.364,1.044-0.805,1.38c-0.456,0.352-1.012,0.528-1.668,0.528c-0.769,0-1.412-0.28-1.933-0.84
		c-0.535-0.584-0.804-1.332-0.804-2.244c0-0.937,0.269-1.688,0.804-2.256c0.513-0.545,1.156-0.816,1.933-0.816
		c0.809,0,1.437,0.284,1.884,0.852C74.067,327.407,74.219,327.704,74.317,328.04z M71.995,327.428c-0.398,0-0.712,0.13-0.936,0.39
		c-0.225,0.261-0.356,0.595-0.396,1.002h2.483c0-0.632-0.2-1.056-0.601-1.271C72.396,327.468,72.212,327.428,71.995,327.428z"/>
	<path fill="#444444" d="M79.964,331.388c-0.359,0.712-0.911,1.068-1.655,1.068s-1.367-0.284-1.872-0.853
		c-0.521-0.592-0.779-1.344-0.779-2.256s0.248-1.652,0.744-2.22c0.487-0.552,1.096-0.828,1.823-0.828
		c0.729,0,1.275,0.292,1.645,0.876v-3.12h1.428v8.232h-1.164L79.964,331.388z M78.488,327.572c-0.4,0-0.734,0.162-1.002,0.486
		c-0.27,0.324-0.402,0.758-0.402,1.302s0.137,0.982,0.408,1.314s0.615,0.498,1.032,0.498c0.344,0,0.65-0.136,0.924-0.408
		c0.279-0.28,0.42-0.632,0.42-1.056v-0.756c-0.017-0.416-0.156-0.757-0.42-1.021C79.208,327.692,78.888,327.572,78.488,327.572z"/>
	<path fill="#444444" d="M83.48,324.572c0-0.256,0.075-0.458,0.228-0.605c0.153-0.148,0.368-0.222,0.648-0.222
		c0.271,0,0.484,0.073,0.642,0.222c0.157,0.147,0.234,0.35,0.234,0.605c0,0.257-0.078,0.458-0.234,0.606
		c-0.156,0.147-0.37,0.222-0.642,0.222c-0.28,0-0.496-0.074-0.648-0.222C83.556,325.03,83.48,324.828,83.48,324.572z
		 M83.648,326.444h1.416v5.845h-1.416V326.444z"/>
	<path fill="#444444" d="M89.384,328.88c0.465,0,1,0.076,1.607,0.228v-0.576c0-0.407-0.082-0.71-0.245-0.905
		c-0.164-0.196-0.433-0.294-0.805-0.294s-0.658,0.073-0.857,0.222c-0.2,0.148-0.301,0.358-0.301,0.63h-1.548
		c0-0.664,0.234-1.144,0.702-1.439c0.468-0.297,1.122-0.444,1.962-0.444c1.2,0,1.977,0.42,2.328,1.26
		c0.12,0.288,0.18,0.628,0.18,1.021v3.708h-1.235l-0.107-0.78c-0.376,0.632-0.952,0.948-1.729,0.948
		c-0.752,0-1.336-0.185-1.752-0.553c-0.385-0.352-0.576-0.798-0.576-1.338s0.213-0.956,0.637-1.248
		C88.067,329.026,88.647,328.88,89.384,328.88z M90.991,330.008c-0.472-0.128-0.911-0.192-1.319-0.192
		c-0.769,0-1.151,0.256-1.151,0.769c0,0.216,0.088,0.401,0.264,0.558c0.177,0.156,0.458,0.234,0.847,0.234s0.708-0.13,0.96-0.391
		C90.842,330.726,90.976,330.4,90.991,330.008z"/>
</g>
<rect x="0" y="352.307" fill="#F6F4F3" width="23" height="22.998"/>
<g opacity="0.7">
	<path fill="#444444" d="M37.64,352.77l3.433,5.521v-5.521h1.416v7.788h-1.44l-3.54-5.712v5.712h-1.416v-7.788H37.64z"/>
	<path fill="#444444" d="M47.012,354.57c0.392,0,0.76,0.062,1.104,0.187s0.641,0.313,0.889,0.57c0.553,0.56,0.827,1.336,0.827,2.327
		c0,0.977-0.274,1.744-0.827,2.305c-0.496,0.512-1.159,0.768-1.991,0.768s-1.505-0.256-2.018-0.768
		c-0.552-0.553-0.827-1.32-0.827-2.305c0-1,0.275-1.775,0.827-2.327C45.5,354.822,46.172,354.57,47.012,354.57z M48.415,357.642
		c0-0.616-0.119-1.078-0.358-1.386c-0.24-0.309-0.574-0.462-1.002-0.462c-0.43,0-0.778,0.153-1.051,0.462
		c-0.271,0.308-0.407,0.77-0.407,1.386s0.122,1.078,0.365,1.386c0.243,0.309,0.577,0.462,1.002,0.462s0.771-0.153,1.044-0.462
		C48.279,358.72,48.415,358.258,48.415,357.642z"/>
	<path fill="#444444" d="M54.8,360.414c-0.527,0.208-0.943,0.312-1.247,0.312c-0.306,0-0.57-0.036-0.799-0.107
		c-0.229-0.072-0.431-0.181-0.605-0.324c-0.368-0.328-0.552-0.78-0.552-1.356v-3.264H50.78v-0.948h0.816v-1.536h1.416v1.536h1.584
		v0.948h-1.584v3.216c0,0.48,0.228,0.72,0.684,0.72c0.232,0,0.532-0.062,0.9-0.191L54.8,360.414z"/>
	<path fill="#444444" d="M60.704,355.878c0.353-0.84,0.88-1.26,1.584-1.26c0.136,0,0.309,0.027,0.517,0.084l-0.023,1.416
		c-0.225-0.049-0.444-0.072-0.66-0.072c-0.943,0-1.416,0.651-1.416,1.956v2.556h-1.416v-5.844h1.416L60.704,355.878L60.704,355.878z
		"/>
	<path fill="#444444" d="M68.798,356.31c0.102,0.336,0.15,0.645,0.15,0.924c0,0.28-0.017,0.532-0.048,0.756h-3.77
		c0.018,0.473,0.133,0.856,0.35,1.152c0.216,0.296,0.544,0.444,0.982,0.444c0.584,0,0.933-0.256,1.044-0.769h1.43
		c-0.098,0.584-0.364,1.044-0.806,1.38c-0.456,0.353-1.012,0.528-1.668,0.528c-0.768,0-1.412-0.28-1.932-0.84
		c-0.536-0.584-0.804-1.332-0.804-2.244c0-0.936,0.268-1.688,0.804-2.256c0.512-0.544,1.156-0.816,1.932-0.816
		c0.81,0,1.438,0.284,1.885,0.853C68.548,355.678,68.698,355.974,68.798,356.31z M66.476,355.698c-0.399,0-0.712,0.131-0.937,0.391
		c-0.224,0.26-0.355,0.594-0.396,1.002h2.482c0-0.632-0.199-1.056-0.6-1.272C66.876,355.738,66.692,355.698,66.476,355.698z"/>
	<path fill="#444444" d="M70.641,352.326h1.416v8.231h-1.416V352.326z"/>
	<path fill="#444444" d="M76.208,357.15c0.464,0,1,0.076,1.607,0.229v-0.576c0-0.408-0.082-0.71-0.245-0.906
		c-0.164-0.196-0.433-0.294-0.805-0.294s-0.658,0.074-0.857,0.222c-0.2,0.148-0.301,0.358-0.301,0.631H74.06
		c0-0.664,0.233-1.145,0.702-1.44c0.468-0.296,1.121-0.444,1.962-0.444c1.199,0,1.977,0.42,2.328,1.261
		c0.119,0.288,0.18,0.628,0.18,1.02v3.708h-1.235l-0.107-0.78c-0.376,0.633-0.952,0.948-1.729,0.948
		c-0.752,0-1.336-0.184-1.752-0.552c-0.385-0.353-0.576-0.798-0.576-1.338s0.212-0.956,0.637-1.248
		C74.892,357.296,75.472,357.15,76.208,357.15z M77.815,358.278c-0.472-0.128-0.911-0.191-1.319-0.191
		c-0.769,0-1.151,0.256-1.151,0.768c0,0.216,0.088,0.402,0.264,0.559c0.177,0.155,0.458,0.233,0.847,0.233s0.708-0.13,0.96-0.39
		C77.666,358.996,77.8,358.67,77.815,358.278z"/>
	<path fill="#444444" d="M84.584,360.414c-0.527,0.208-0.943,0.312-1.248,0.312s-0.569-0.036-0.798-0.107
		c-0.229-0.072-0.431-0.181-0.605-0.324c-0.368-0.328-0.553-0.78-0.553-1.356v-3.264h-0.815v-0.948h0.815v-1.536h1.416v1.536h1.584
		v0.948h-1.584v3.216c0,0.48,0.229,0.72,0.685,0.72c0.231,0,0.532-0.062,0.899-0.191L84.584,360.414z"/>
	<path fill="#444444" d="M90.554,356.31c0.101,0.336,0.149,0.645,0.149,0.924c0,0.28-0.017,0.532-0.048,0.756h-3.769
		c0.017,0.473,0.132,0.856,0.349,1.152c0.216,0.296,0.544,0.444,0.983,0.444c0.584,0,0.932-0.256,1.044-0.769h1.429
		c-0.097,0.584-0.364,1.044-0.805,1.38c-0.456,0.353-1.013,0.528-1.668,0.528c-0.769,0-1.412-0.28-1.933-0.84
		c-0.536-0.584-0.804-1.332-0.804-2.244c0-0.936,0.268-1.688,0.804-2.256c0.512-0.544,1.156-0.816,1.933-0.816
		c0.809,0,1.437,0.284,1.884,0.853C90.304,355.678,90.454,355.974,90.554,356.31z M88.231,355.698c-0.399,0-0.712,0.131-0.937,0.391
		c-0.224,0.26-0.355,0.594-0.396,1.002h2.482c0-0.632-0.199-1.056-0.6-1.272C88.632,355.738,88.448,355.698,88.231,355.698z"/>
	<path fill="#444444" d="M96.2,359.657c-0.36,0.713-0.912,1.068-1.656,1.068s-1.366-0.284-1.872-0.852
		c-0.52-0.593-0.778-1.345-0.778-2.256c0-0.912,0.248-1.652,0.744-2.221c0.486-0.552,1.096-0.828,1.822-0.828
		c0.729,0,1.276,0.292,1.646,0.876v-3.119h1.428v8.231h-1.164L96.2,359.657z M94.725,355.842c-0.4,0-0.734,0.162-1.002,0.486
		c-0.27,0.323-0.402,0.758-0.402,1.302s0.136,0.981,0.408,1.313c0.271,0.332,0.615,0.498,1.032,0.498
		c0.344,0,0.65-0.136,0.924-0.407c0.278-0.28,0.42-0.633,0.42-1.057v-0.756c-0.018-0.416-0.156-0.756-0.42-1.02
		C95.444,355.962,95.124,355.842,94.725,355.842z"/>
	<path fill="#444444" d="M102.368,351.618h1.452l-3.096,9.911h-1.44L102.368,351.618z"/>
	<path fill="#444444" d="M41.018,369.81c0.492,0.561,0.737,1.296,0.737,2.208s-0.26,1.664-0.779,2.256
		c-0.504,0.568-1.132,0.853-1.885,0.853c-0.358,0-0.688-0.097-0.989-0.288c-0.3-0.192-0.538-0.488-0.714-0.888l-0.349,1.008h-0.924
		v-8.232h1.416v3.132c0.367-0.592,0.918-0.888,1.649-0.888C39.914,368.97,40.526,369.25,41.018,369.81z M37.532,371.682v0.769
		c0.016,0.407,0.164,0.743,0.443,1.008c0.265,0.256,0.586,0.384,0.967,0.384c0.38,0,0.705-0.166,0.978-0.498
		c0.271-0.332,0.408-0.77,0.408-1.314c0-0.544-0.134-0.978-0.402-1.302c-0.268-0.324-0.602-0.485-1.002-0.485
		c-0.399,0-0.73,0.132-0.995,0.396S37.532,371.25,37.532,371.682z"/>
	<path fill="#444444" d="M44.9,370.278c0.352-0.84,0.88-1.26,1.584-1.26c0.136,0,0.308,0.028,0.516,0.084l-0.022,1.416
		c-0.226-0.048-0.444-0.072-0.66-0.072c-0.944,0-1.416,0.652-1.416,1.956v2.557h-1.416v-5.845H44.9V370.278z"/>
	<path fill="#444444" d="M50.769,368.97c0.392,0,0.76,0.062,1.104,0.186s0.642,0.314,0.89,0.57c0.552,0.561,0.826,1.336,0.826,2.328
		c0,0.976-0.274,1.744-0.826,2.304c-0.496,0.513-1.16,0.769-1.992,0.769s-1.504-0.256-2.018-0.769
		c-0.552-0.552-0.827-1.319-0.827-2.304c0-1,0.275-1.776,0.827-2.328C49.257,369.222,49.929,368.97,50.769,368.97z M52.172,372.042
		c0-0.616-0.118-1.078-0.358-1.387c-0.24-0.308-0.574-0.462-1.002-0.462c-0.43,0-0.778,0.154-1.05,0.462
		c-0.272,0.309-0.408,0.771-0.408,1.387c0,0.615,0.122,1.078,0.366,1.386c0.242,0.308,0.576,0.462,1.002,0.462
		c0.424,0,0.771-0.154,1.044-0.462C52.036,373.12,52.172,372.657,52.172,372.042z"/>
	<path fill="#444444" d="M57.332,372.114l-0.646,0.54v2.305h-1.416v-8.232h1.416v4.452l2.304-2.052h1.92l-2.58,2.16l2.726,3.672
		h-1.729L57.332,372.114z"/>
	<path fill="#444444" d="M66.687,370.71c0.101,0.336,0.149,0.644,0.149,0.924s-0.017,0.532-0.048,0.756H63.02
		c0.017,0.472,0.132,0.856,0.349,1.152c0.216,0.296,0.544,0.443,0.983,0.443c0.584,0,0.932-0.256,1.044-0.768h1.429
		c-0.097,0.584-0.364,1.044-0.805,1.38c-0.456,0.353-1.013,0.528-1.668,0.528c-0.769,0-1.412-0.28-1.933-0.84
		c-0.536-0.584-0.804-1.332-0.804-2.244c0-0.937,0.268-1.688,0.804-2.256c0.513-0.544,1.156-0.816,1.933-0.816
		c0.809,0,1.437,0.284,1.884,0.852C66.437,370.078,66.587,370.374,66.687,370.71z M64.364,370.098c-0.399,0-0.712,0.13-0.936,0.39
		c-0.225,0.261-0.356,0.595-0.396,1.002h2.483c0-0.632-0.2-1.056-0.601-1.271C64.765,370.138,64.581,370.098,64.364,370.098z"/>
	<path fill="#444444" d="M69.921,370.134c0.385-0.776,1-1.164,1.85-1.164c0.72,0,1.262,0.236,1.626,0.708
		c0.362,0.472,0.546,1.096,0.546,1.872v3.408h-1.416v-3.408c0-0.432-0.104-0.758-0.312-0.979c-0.208-0.22-0.5-0.329-0.876-0.329
		s-0.697,0.168-0.966,0.504s-0.41,0.84-0.426,1.512v2.7H68.53v-5.832h1.235L69.921,370.134z"/>
	<path fill="#444444" d="M79.041,366.726h1.416v8.232h-1.416V366.726z"/>
	<path fill="#444444" d="M82.641,367.242c0-0.257,0.074-0.458,0.228-0.606s0.368-0.222,0.648-0.222c0.271,0,0.484,0.073,0.642,0.222
		s0.234,0.35,0.234,0.606c0,0.256-0.078,0.458-0.234,0.605c-0.156,0.148-0.37,0.222-0.642,0.222c-0.28,0-0.496-0.073-0.648-0.222
		C82.717,367.7,82.641,367.498,82.641,367.242z M82.809,369.114h1.416v5.845h-1.416V369.114z"/>
	<path fill="#444444" d="M88.016,370.134c0.384-0.776,1-1.164,1.849-1.164c0.72,0,1.262,0.236,1.626,0.708
		c0.363,0.472,0.546,1.096,0.546,1.872v3.408H90.62v-3.408c0-0.432-0.104-0.758-0.312-0.979c-0.208-0.22-0.5-0.329-0.876-0.329
		s-0.698,0.168-0.967,0.504s-0.409,0.84-0.426,1.512v2.7h-1.416v-5.832h1.235L88.016,370.134z"/>
	<path fill="#444444" d="M96.163,372.114l-0.646,0.54v2.305H94.1v-8.232h1.416v4.452l2.304-2.052h1.92l-2.58,2.16l2.726,3.672
		h-1.729L96.163,372.114z"/>
</g>
<g>
	<line fill="none" stroke="#1D1D1B" stroke-miterlimit="10" x1="0" y1="352.307" x2="23" y2="375.305"/>
	<line fill="none" stroke="#1D1D1B" stroke-miterlimit="10" x1="23" y1="352.307" x2="0" y2="375.305"/>
</g>
<rect x="7.502" y="325.053" transform="matrix(-0.707 -0.7072 0.7072 -0.707 -213.0621 569.843)" fill="#1D1D1B" width="7.998" height="8.001"/>
<circle fill="#1D1D1B" cx="11.5" cy="84.848" r="3.25"/>
</svg>
