<?xml version="1.0" encoding="utf-8"?>
<!-- Generator: Adobe Illustrator 17.0.2, SVG Export Plug-In . SVG Version: 6.00 Build 0)  -->
<!DOCTYPE svg PUBLIC "-//W3C//DTD SVG 1.1//EN" "http://www.w3.org/Graphics/SVG/1.1/DTD/svg11.dtd">
<svg version="1.1" id="Layer_1" xmlns="http://www.w3.org/2000/svg" xmlns:xlink="http://www.w3.org/1999/xlink" x="0px" y="0px"
	 width="160.48px" height="212.086px" viewBox="0 0 160.48 212.086" enable-background="new 0 0 160.48 212.086"
	 xml:space="preserve">
<rect x="137.48" y="38.461" fill="#00628B" width="23" height="23"/>
<rect x="47.48" y="2.461" fill="none" width="112" height="16.5"/>
<g enable-background="new    ">
	<path fill="#444444" d="M51.168,3.138l2.197,3.757l2.249-3.757h1.209l-2.938,4.823v3.354h-1.04V7.961l-2.899-4.823H51.168z"/>
	<path fill="#444444" d="M59.566,10.625c0.858,0,1.348-0.377,1.469-1.131h1.053c-0.095,0.624-0.371,1.107-0.826,1.45
		c-0.455,0.342-1.021,0.513-1.696,0.513c-0.832,0-1.508-0.296-2.028-0.89s-0.78-1.385-0.78-2.373s0.262-1.776,0.787-2.366
		c0.524-0.589,1.222-0.884,2.093-0.884c0.871,0,1.521,0.338,1.95,1.014c0.429,0.677,0.579,1.5,0.449,2.471h-4.251
		c0,0.642,0.156,1.168,0.468,1.579C58.565,10.42,59.003,10.625,59.566,10.625z M60.32,5.92c-0.199-0.104-0.442-0.156-0.728-0.156
		c-0.529,0-0.947,0.18-1.254,0.539c-0.308,0.36-0.487,0.809-0.54,1.346h3.315C61.113,6.782,60.849,6.205,60.32,5.92z"/>
	<path fill="#444444" d="M67.965,7.284c0-0.563-0.117-0.966-0.351-1.209c-0.234-0.242-0.574-0.363-1.021-0.363
		s-0.806,0.089-1.079,0.266c-0.273,0.178-0.41,0.458-0.41,0.839h-1.131c0-0.953,0.511-1.543,1.534-1.768
		c0.312-0.069,0.65-0.104,1.014-0.104c0.771,0,1.374,0.195,1.807,0.585c0.434,0.391,0.65,0.984,0.65,1.781v4.004h-0.884l-0.104-1.04
		c-0.381,0.789-1.07,1.183-2.067,1.183c-0.667,0-1.203-0.186-1.605-0.559c-0.403-0.372-0.604-0.836-0.604-1.391
		s0.223-0.988,0.669-1.301c0.446-0.312,1.003-0.468,1.67-0.468s1.304,0.113,1.911,0.338V7.284z M67.965,8.728
		c-0.616-0.174-1.153-0.26-1.612-0.26s-0.832,0.082-1.118,0.247c-0.286,0.164-0.429,0.425-0.429,0.779c0,0.78,0.442,1.17,1.326,1.17
		c0.502,0,0.934-0.18,1.293-0.539C67.785,9.766,67.965,9.3,67.965,8.728z"/>
	<path fill="#444444" d="M73.932,5.972c-0.979,0-1.487,0.771-1.521,2.313v3.029h-1.027V5.088h1.027v1.195
		c0.312-0.866,0.862-1.3,1.651-1.3c0.251,0,0.49,0.039,0.715,0.117l-0.052,1.001C74.464,6.015,74.2,5.972,73.932,5.972z"/>
	<path fill="#444444" d="M81.679,4.944c0.867,0,1.567,0.282,2.1,0.845c0.533,0.563,0.8,1.37,0.8,2.418c0,1.04-0.267,1.842-0.8,2.405
		c-0.533,0.563-1.233,0.845-2.1,0.845s-1.566-0.281-2.099-0.845c-0.533-0.563-0.8-1.365-0.8-2.405c0-1.048,0.267-1.854,0.8-2.418
		C80.113,5.227,80.812,4.944,81.679,4.944z M83.539,8.201c0-0.741-0.156-1.321-0.468-1.742c-0.312-0.42-0.769-0.631-1.372-0.631
		s-1.064,0.211-1.384,0.631c-0.321,0.421-0.481,1.001-0.481,1.742s0.151,1.321,0.455,1.742c0.303,0.42,0.756,0.63,1.358,0.63
		c0.602,0,1.068-0.21,1.397-0.63C83.374,9.522,83.539,8.942,83.539,8.201z"/>
	<path fill="#444444" d="M89.557,3.332c-0.286-0.112-0.512-0.169-0.676-0.169c-0.303,0-0.542,0.074-0.715,0.222
		s-0.26,0.407-0.26,0.779v0.937h1.287v0.702h-1.287v5.512h-1.014V5.803h-1.027V5.101h1.027V4.151c0-0.615,0.169-1.068,0.507-1.358
		s0.728-0.436,1.17-0.436c0.442,0,0.832,0.057,1.17,0.169L89.557,3.332z"/>
	<path fill="#444444" d="M95.056,6.05c0.407-0.737,1.016-1.105,1.827-1.105c0.81,0,1.486,0.299,2.028,0.897
		c0.542,0.598,0.812,1.387,0.812,2.365c0,0.979-0.273,1.767-0.819,2.36s-1.218,0.89-2.015,0.89s-1.387-0.299-1.768-0.896v3.809
		h-1.027V5.101h0.845L95.056,6.05z M96.837,10.548c0.485,0,0.912-0.208,1.28-0.624s0.553-0.986,0.553-1.71s-0.176-1.298-0.527-1.723
		c-0.351-0.424-0.778-0.637-1.28-0.637c-0.503,0-0.915,0.158-1.235,0.475c-0.321,0.316-0.49,0.743-0.507,1.28v1.183
		c0,0.547,0.165,0.976,0.494,1.287C95.944,10.392,96.351,10.548,96.837,10.548z"/>
	<path fill="#444444" d="M106.041,10.079c-0.425,0.901-1.114,1.353-2.067,1.353c-0.702,0-1.268-0.195-1.697-0.585
		c-0.429-0.391-0.644-0.992-0.644-1.808V5.088h1.027v3.874c0,1.048,0.485,1.572,1.456,1.572c0.563,0,1.021-0.216,1.372-0.649
		s0.535-0.988,0.553-1.664V5.088h1.027v6.227h-1.027V10.079z"/>
	<path fill="#444444" d="M110.72,6.023c0.416-0.72,1.022-1.079,1.82-1.079c0.797,0,1.46,0.297,1.989,0.891
		c0.528,0.594,0.793,1.378,0.793,2.353c0,0.976-0.269,1.765-0.806,2.366c-0.538,0.603-1.192,0.903-1.964,0.903
		c-0.416,0-0.791-0.104-1.124-0.312c-0.334-0.208-0.596-0.516-0.786-0.923l-0.234,1.092h-0.715V2.462h1.026V6.023z M112.476,5.855
		c-0.494,0-0.906,0.158-1.235,0.475s-0.503,0.756-0.521,1.319v1.014c0,0.572,0.172,1.029,0.514,1.372
		c0.343,0.342,0.756,0.514,1.242,0.514c0.484,0,0.905-0.215,1.261-0.644c0.355-0.43,0.533-0.999,0.533-1.71
		c0-0.71-0.176-1.278-0.527-1.703C113.392,6.067,112.969,5.855,112.476,5.855z"/>
	<path fill="#444444" d="M117.286,2.462h1.026v8.853h-1.026V2.462z"/>
	<path fill="#444444" d="M121.498,3.632c-0.208,0-0.37-0.059-0.487-0.176s-0.176-0.273-0.176-0.468c0-0.195,0.059-0.352,0.176-0.469
		c0.117-0.116,0.279-0.175,0.487-0.175s0.375,0.059,0.501,0.175c0.125,0.117,0.188,0.273,0.188,0.469
		c0,0.194-0.063,0.351-0.188,0.468C121.873,3.573,121.706,3.632,121.498,3.632z M120.991,5.088h1.026v6.227h-1.026V5.088z"/>
	<path fill="#444444" d="M126.886,4.944c0.731,0,1.314,0.188,1.748,0.565s0.715,0.848,0.845,1.411l-1.04,0.091
		c-0.112-0.364-0.294-0.648-0.546-0.852c-0.251-0.204-0.528-0.306-0.832-0.306c-0.555,0-1.003,0.208-1.346,0.624
		c-0.342,0.416-0.513,0.981-0.513,1.696s0.166,1.289,0.5,1.723s0.75,0.65,1.248,0.65s0.871-0.115,1.118-0.345s0.37-0.557,0.37-0.981
		h1.054c0,0.667-0.232,1.207-0.696,1.618c-0.463,0.412-1.067,0.617-1.813,0.617c-0.788,0-1.458-0.299-2.008-0.896
		c-0.551-0.598-0.826-1.394-0.826-2.386s0.273-1.778,0.819-2.359C125.514,5.235,126.153,4.944,126.886,4.944z"/>
	<path fill="#444444" d="M135.356,7.284c0-0.563-0.117-0.966-0.352-1.209c-0.233-0.242-0.574-0.363-1.021-0.363
		s-0.806,0.089-1.079,0.266c-0.272,0.178-0.409,0.458-0.409,0.839h-1.131c0-0.953,0.511-1.543,1.534-1.768
		c0.312-0.069,0.649-0.104,1.014-0.104c0.771,0,1.373,0.195,1.807,0.585c0.434,0.391,0.65,0.984,0.65,1.781v4.004h-0.884
		l-0.104-1.04c-0.381,0.789-1.07,1.183-2.066,1.183c-0.668,0-1.203-0.186-1.605-0.559c-0.403-0.372-0.604-0.836-0.604-1.391
		s0.223-0.988,0.669-1.301c0.446-0.312,1.003-0.468,1.671-0.468c0.667,0,1.304,0.113,1.911,0.338V7.284z M135.356,8.728
		c-0.616-0.174-1.153-0.26-1.612-0.26c-0.46,0-0.832,0.082-1.118,0.247c-0.286,0.164-0.429,0.425-0.429,0.779
		c0,0.78,0.441,1.17,1.326,1.17c0.502,0,0.934-0.18,1.293-0.539S135.356,9.3,135.356,8.728z"/>
	<path fill="#444444" d="M142.038,11.133c-0.746,0.346-1.426,0.42-2.041,0.221c-0.442-0.139-0.754-0.429-0.937-0.871
		c-0.095-0.217-0.143-0.477-0.143-0.78V5.881h-1.001v-0.78h1.001V3.371h1.014v1.729h1.95v0.78h-1.95v3.809
		c0,0.633,0.295,0.949,0.884,0.949c0.321,0,0.681-0.078,1.079-0.234L142.038,11.133z"/>
	<path fill="#444444" d="M144.247,3.632c-0.208,0-0.37-0.059-0.487-0.176s-0.175-0.273-0.175-0.468c0-0.195,0.058-0.352,0.175-0.469
		c0.117-0.116,0.279-0.175,0.487-0.175s0.375,0.059,0.501,0.175c0.126,0.117,0.188,0.273,0.188,0.469
		c0,0.194-0.062,0.351-0.188,0.468S144.455,3.632,144.247,3.632z M143.74,5.088h1.027v6.227h-1.027V5.088z"/>
	<path fill="#444444" d="M149.798,4.944c0.866,0,1.566,0.282,2.1,0.845c0.533,0.563,0.8,1.37,0.8,2.418
		c0,1.04-0.267,1.842-0.8,2.405s-1.233,0.845-2.1,0.845c-0.867,0-1.566-0.281-2.1-0.845s-0.8-1.365-0.8-2.405
		c0-1.048,0.267-1.854,0.8-2.418C148.232,5.227,148.931,4.944,149.798,4.944z M151.658,8.201c0-0.741-0.156-1.321-0.469-1.742
		c-0.312-0.42-0.769-0.631-1.371-0.631s-1.064,0.211-1.385,0.631c-0.32,0.421-0.48,1.001-0.48,1.742s0.151,1.321,0.455,1.742
		c0.303,0.42,0.756,0.63,1.358,0.63c0.602,0,1.067-0.21,1.397-0.63C151.493,9.522,151.658,8.942,151.658,8.201z"/>
	<path fill="#444444" d="M155.648,6.297c0.407-0.901,1.104-1.353,2.093-1.353c0.736,0,1.311,0.243,1.723,0.729
		c0.411,0.485,0.617,1.148,0.617,1.988v3.653h-1.014V7.661c0-0.598-0.141-1.048-0.423-1.352c-0.281-0.304-0.682-0.455-1.202-0.455
		c-0.52,0-0.94,0.213-1.261,0.637c-0.321,0.425-0.49,1.015-0.507,1.769v3.055h-1.027V5.101h0.884L155.648,6.297z"/>
</g>
<rect x="97.823" y="39.586" fill="none" width="27.157" height="16.5"/>
<g opacity="0.7" enable-background="new    ">
	<path fill="#444444" d="M100.838,46.522h4.451v1.296h-5.867v-1.332c0-0.936,0.331-1.616,0.995-2.04
		c0.225-0.144,0.484-0.271,0.78-0.384l1.596-0.612c0.353-0.136,0.61-0.306,0.774-0.51s0.246-0.458,0.246-0.762
		c0-0.305-0.108-0.559-0.324-0.763s-0.523-0.306-0.924-0.306s-0.73,0.096-0.99,0.288s-0.41,0.476-0.45,0.852h-1.571
		c0.016-0.76,0.308-1.355,0.876-1.788c0.52-0.392,1.22-0.588,2.1-0.588c0.808,0,1.477,0.217,2.004,0.648
		c0.536,0.448,0.805,0.996,0.805,1.644c0,0.648-0.162,1.166-0.486,1.555c-0.324,0.388-0.826,0.714-1.506,0.978l-1.62,0.624
		c-0.312,0.12-0.538,0.254-0.678,0.402c-0.141,0.147-0.21,0.338-0.21,0.569V46.522z"/>
	<path fill="#444444" d="M109.753,39.874c0.48,0,0.918,0.082,1.314,0.246c0.396,0.164,0.733,0.414,1.014,0.75
		c0.608,0.712,0.912,1.732,0.912,3.061s-0.304,2.348-0.912,3.06c-0.56,0.664-1.332,0.996-2.315,0.996
		c-0.992,0-1.772-0.332-2.341-0.996c-0.6-0.696-0.899-1.716-0.899-3.06c0-1.345,0.3-2.364,0.899-3.061
		C107.993,40.206,108.769,39.874,109.753,39.874z M111.067,41.872c-0.309-0.476-0.744-0.714-1.309-0.714
		c-0.563,0-1,0.238-1.308,0.714c-0.308,0.477-0.462,1.162-0.462,2.059c0,0.896,0.154,1.578,0.462,2.046s0.744,0.702,1.308,0.702
		c0.564,0,1-0.234,1.309-0.702c0.308-0.468,0.462-1.15,0.462-2.046C111.529,43.034,111.375,42.348,111.067,41.872z"/>
	<path fill="#444444" d="M114.061,40.618c0.6-0.088,1.128-0.3,1.584-0.636h1.067v7.836h-1.415v-6.144
		c-0.408,0.199-0.82,0.3-1.236,0.3V40.618z"/>
	<path fill="#444444" d="M123.457,39.946v4.932h1.356v1.213h-1.356v1.728h-1.404V46.09h-3.947v-1.068l3.983-5.076H123.457z
		 M119.785,45.022h2.34v-2.977L119.785,45.022z"/>
</g>
<rect x="137.48" y="72.711" opacity="0.7" fill="#00628B" enable-background="new    " width="23" height="23"/>
<rect x="95.735" y="73.836" fill="none" width="29.245" height="16.5"/>
<g opacity="0.7" enable-background="new    ">
	<path fill="#444444" d="M100.513,80.772h4.451v1.296h-5.867v-1.332c0-0.936,0.331-1.616,0.995-2.04
		c0.225-0.144,0.484-0.271,0.78-0.384l1.596-0.612c0.353-0.136,0.61-0.306,0.774-0.51s0.246-0.458,0.246-0.762
		c0-0.305-0.108-0.559-0.324-0.763s-0.523-0.306-0.924-0.306s-0.73,0.096-0.99,0.288s-0.41,0.476-0.45,0.852h-1.571
		c0.016-0.76,0.308-1.355,0.876-1.788c0.52-0.392,1.22-0.588,2.1-0.588c0.808,0,1.477,0.217,2.004,0.648
		c0.536,0.448,0.805,0.996,0.805,1.644c0,0.648-0.162,1.166-0.486,1.555c-0.324,0.388-0.826,0.714-1.506,0.978l-1.62,0.624
		c-0.312,0.12-0.538,0.254-0.678,0.402c-0.141,0.147-0.21,0.338-0.21,0.569V80.772z"/>
	<path fill="#444444" d="M109.428,74.124c0.48,0,0.918,0.082,1.314,0.246c0.396,0.164,0.733,0.414,1.014,0.75
		c0.608,0.712,0.912,1.732,0.912,3.061s-0.304,2.348-0.912,3.06c-0.56,0.664-1.332,0.996-2.315,0.996
		c-0.992,0-1.772-0.332-2.341-0.996c-0.6-0.696-0.899-1.716-0.899-3.06c0-1.345,0.3-2.364,0.899-3.061
		C107.669,74.456,108.445,74.124,109.428,74.124z M110.743,76.122c-0.309-0.476-0.744-0.714-1.309-0.714
		c-0.563,0-1,0.238-1.308,0.714c-0.308,0.477-0.462,1.162-0.462,2.059c0,0.896,0.154,1.578,0.462,2.046s0.744,0.702,1.308,0.702
		c0.564,0,1-0.234,1.309-0.702c0.308-0.468,0.462-1.15,0.462-2.046C111.205,77.284,111.051,76.598,110.743,76.122z"/>
	<path fill="#444444" d="M113.737,74.868c0.6-0.088,1.128-0.3,1.584-0.636h1.067v7.836h-1.415v-6.144
		c-0.408,0.199-0.82,0.3-1.236,0.3V74.868z"/>
	<path fill="#444444" d="M121.224,75.408c-0.872,0-1.38,0.332-1.523,0.996h-1.488c0.08-0.768,0.392-1.348,0.936-1.74
		c0.513-0.359,1.185-0.54,2.017-0.54c0.855,0,1.552,0.2,2.088,0.601c0.56,0.408,0.84,0.932,0.84,1.571
		c0,0.4-0.108,0.746-0.324,1.038c-0.216,0.293-0.536,0.511-0.96,0.654c0.473,0.16,0.851,0.398,1.134,0.714
		c0.284,0.316,0.427,0.678,0.427,1.086s-0.074,0.756-0.223,1.044c-0.147,0.288-0.357,0.536-0.63,0.744
		c-0.576,0.44-1.324,0.66-2.244,0.66c-0.88,0-1.619-0.224-2.22-0.672c-0.672-0.488-1.008-1.136-1.008-1.944h1.512
		c0.024,0.408,0.19,0.729,0.498,0.96c0.308,0.232,0.71,0.349,1.206,0.349s0.882-0.11,1.158-0.33s0.414-0.5,0.414-0.84
		c0-0.341-0.126-0.606-0.378-0.799c-0.252-0.191-0.65-0.288-1.194-0.288h-1.032v-1.115h0.889c0.456,0,0.812-0.099,1.067-0.294
		c0.256-0.196,0.384-0.454,0.384-0.774c0-0.319-0.109-0.58-0.329-0.78C122.018,75.508,121.68,75.408,121.224,75.408z"/>
</g>
<rect x="137.48" y="106.961" opacity="0.42" fill="#00628B" enable-background="new    " width="23" height="23"/>
<rect x="96.98" y="108.086" fill="none" width="28" height="16.5"/>
<g opacity="0.7" enable-background="new    ">
	<path fill="#444444" d="M100.718,115.022h4.451v1.296h-5.867v-1.332c0-0.936,0.331-1.616,0.995-2.04
		c0.225-0.144,0.484-0.271,0.78-0.384l1.596-0.612c0.353-0.136,0.61-0.306,0.774-0.51s0.246-0.458,0.246-0.762
		c0-0.305-0.108-0.559-0.324-0.763s-0.523-0.306-0.924-0.306s-0.73,0.096-0.99,0.288s-0.41,0.476-0.45,0.852h-1.571
		c0.016-0.76,0.308-1.355,0.876-1.788c0.52-0.392,1.22-0.588,2.1-0.588c0.808,0,1.477,0.217,2.004,0.648
		c0.536,0.448,0.805,0.996,0.805,1.644c0,0.648-0.162,1.166-0.486,1.555c-0.324,0.388-0.826,0.714-1.506,0.978l-1.62,0.624
		c-0.312,0.12-0.538,0.254-0.678,0.402c-0.141,0.147-0.21,0.338-0.21,0.569V115.022z"/>
	<path fill="#444444" d="M109.633,108.373c0.48,0,0.918,0.082,1.314,0.246c0.396,0.164,0.733,0.414,1.014,0.75
		c0.608,0.712,0.912,1.732,0.912,3.061s-0.304,2.348-0.912,3.06c-0.56,0.664-1.332,0.996-2.315,0.996
		c-0.992,0-1.772-0.332-2.341-0.996c-0.6-0.696-0.899-1.716-0.899-3.06c0-1.345,0.3-2.364,0.899-3.061
		C107.873,108.705,108.649,108.373,109.633,108.373z M110.947,110.371c-0.309-0.476-0.744-0.714-1.309-0.714
		c-0.563,0-1,0.238-1.308,0.714c-0.308,0.477-0.462,1.162-0.462,2.059c0,0.896,0.154,1.578,0.462,2.046s0.744,0.702,1.308,0.702
		c0.564,0,1-0.234,1.309-0.702c0.308-0.468,0.462-1.15,0.462-2.046C111.409,111.533,111.255,110.848,110.947,110.371z"/>
	<path fill="#444444" d="M113.941,109.117c0.6-0.088,1.128-0.3,1.584-0.636h1.067v7.836h-1.415v-6.144
		c-0.408,0.199-0.82,0.3-1.236,0.3V109.117z"/>
	<path fill="#444444" d="M119.857,115.022h4.451v1.296h-5.867v-1.332c0-0.936,0.331-1.616,0.995-2.04
		c0.225-0.144,0.484-0.271,0.78-0.384l1.596-0.612c0.353-0.136,0.61-0.306,0.774-0.51s0.246-0.458,0.246-0.762
		c0-0.305-0.108-0.559-0.324-0.763s-0.523-0.306-0.924-0.306s-0.73,0.096-0.99,0.288s-0.41,0.476-0.45,0.852h-1.571
		c0.016-0.76,0.308-1.355,0.876-1.788c0.52-0.392,1.22-0.588,2.1-0.588c0.808,0,1.477,0.217,2.004,0.648
		c0.536,0.448,0.805,0.996,0.805,1.644c0,0.648-0.162,1.166-0.486,1.555c-0.324,0.388-0.826,0.714-1.506,0.978l-1.62,0.624
		c-0.312,0.12-0.538,0.254-0.678,0.402c-0.141,0.147-0.21,0.338-0.21,0.569V115.022z"/>
</g>
<rect x="137.48" y="140.211" opacity="0.18" fill="#00628B" enable-background="new    " width="23" height="23"/>
<rect x="0" y="140.211" fill="none" width="124.98" height="27.25"/>
<g opacity="0.7">
	<g>
		<path fill="#444444" d="M103.693,148.147h4.451v1.296h-5.867v-1.332c0-0.936,0.331-1.616,0.995-2.04
			c0.225-0.144,0.484-0.271,0.78-0.384l1.596-0.612c0.353-0.136,0.61-0.306,0.774-0.51s0.246-0.458,0.246-0.762
			c0-0.305-0.108-0.559-0.324-0.763s-0.523-0.306-0.924-0.306s-0.73,0.096-0.99,0.288s-0.41,0.476-0.45,0.852h-1.571
			c0.016-0.76,0.308-1.355,0.876-1.788c0.52-0.392,1.22-0.588,2.1-0.588c0.808,0,1.477,0.217,2.004,0.648
			c0.536,0.448,0.805,0.996,0.805,1.644c0,0.648-0.162,1.166-0.486,1.555c-0.324,0.388-0.826,0.714-1.506,0.978l-1.62,0.624
			c-0.312,0.12-0.538,0.254-0.678,0.402c-0.141,0.147-0.21,0.338-0.21,0.569V148.147z"/>
		<path fill="#444444" d="M112.608,141.499c0.48,0,0.918,0.082,1.314,0.246c0.396,0.164,0.733,0.414,1.014,0.75
			c0.608,0.712,0.912,1.732,0.912,3.061s-0.304,2.348-0.912,3.06c-0.56,0.664-1.332,0.996-2.315,0.996
			c-0.992,0-1.772-0.332-2.341-0.996c-0.6-0.696-0.899-1.716-0.899-3.06c0-1.345,0.3-2.364,0.899-3.061
			C110.848,141.831,111.625,141.499,112.608,141.499z M113.923,143.497c-0.309-0.476-0.744-0.714-1.309-0.714
			c-0.563,0-1,0.238-1.308,0.714c-0.308,0.477-0.462,1.162-0.462,2.059c0,0.896,0.154,1.578,0.462,2.046s0.744,0.702,1.308,0.702
			c0.564,0,1-0.234,1.309-0.702c0.308-0.468,0.462-1.15,0.462-2.046C114.385,144.659,114.23,143.974,113.923,143.497z"/>
		<path fill="#444444" d="M116.917,142.243c0.6-0.088,1.128-0.3,1.584-0.636h1.067v7.836h-1.415V143.3
			c-0.408,0.199-0.82,0.3-1.236,0.3V142.243z"/>
		<path fill="#444444" d="M121.2,142.243c0.601-0.088,1.128-0.3,1.584-0.636h1.068v7.836h-1.416V143.3
			c-0.408,0.199-0.82,0.3-1.236,0.3V142.243z"/>
	</g>
</g>
<g enable-background="new    ">
	<path fill="#444444" d="M2.234,159.16c0,1.64,0.692,3.16,2.076,4.56l-0.684,0.48c-0.784-0.713-1.376-1.5-1.776-2.364
		c-0.4-0.864-0.6-1.758-0.6-2.683c0-0.924,0.2-1.815,0.6-2.676c0.4-0.859,0.992-1.649,1.776-2.37L4.31,154.6
		C2.926,156,2.234,157.52,2.234,159.16z"/>
	<path fill="#444444" d="M6.806,162.016h3.36v0.828H5.858v-7.548h0.948V162.016z"/>
	<path fill="#444444" d="M15.026,159.124c0-0.521-0.108-0.893-0.324-1.116s-0.53-0.336-0.942-0.336s-0.744,0.082-0.996,0.246
		s-0.378,0.422-0.378,0.773h-1.044c0-0.88,0.472-1.424,1.416-1.632c0.288-0.063,0.6-0.096,0.936-0.096
		c0.712,0,1.268,0.18,1.668,0.54c0.4,0.359,0.6,0.908,0.6,1.644v3.696h-0.816l-0.096-0.96c-0.352,0.728-0.988,1.092-1.908,1.092
		c-0.616,0-1.11-0.172-1.482-0.516s-0.558-0.772-0.558-1.284s0.206-0.912,0.618-1.2s0.926-0.432,1.542-0.432
		c0.616,0,1.204,0.104,1.764,0.312V159.124z M15.026,160.456c-0.568-0.16-1.064-0.24-1.488-0.24s-0.768,0.076-1.032,0.228
		c-0.264,0.152-0.396,0.393-0.396,0.721c0,0.72,0.408,1.08,1.224,1.08c0.464,0,0.862-0.166,1.194-0.498
		C14.859,161.414,15.026,160.983,15.026,160.456z"/>
	<path fill="#444444" d="M21.049,155.296l2.16,6.348l2.172-6.348h0.996l-2.676,7.548h-0.984l-2.664-7.548H21.049z"/>
	<path fill="#444444" d="M30.962,159.124c0-0.521-0.108-0.893-0.324-1.116s-0.53-0.336-0.942-0.336s-0.744,0.082-0.996,0.246
		s-0.378,0.422-0.378,0.773h-1.044c0-0.88,0.472-1.424,1.416-1.632c0.288-0.063,0.6-0.096,0.936-0.096
		c0.712,0,1.268,0.18,1.668,0.54c0.4,0.359,0.6,0.908,0.6,1.644v3.696h-0.816l-0.096-0.96c-0.352,0.728-0.988,1.092-1.908,1.092
		c-0.616,0-1.11-0.172-1.482-0.516s-0.558-0.772-0.558-1.284s0.206-0.912,0.618-1.2s0.926-0.432,1.542-0.432
		c0.616,0,1.204,0.104,1.764,0.312V159.124z M30.962,160.456c-0.568-0.16-1.064-0.24-1.488-0.24s-0.768,0.076-1.032,0.228
		c-0.264,0.152-0.396,0.393-0.396,0.721c0,0.72,0.408,1.08,1.224,1.08c0.464,0,0.862-0.166,1.194-0.498
		C30.795,161.414,30.962,160.983,30.962,160.456z"/>
	<path fill="#444444" d="M35.041,158.212c0.376-0.832,1.02-1.248,1.932-1.248c0.68,0,1.21,0.224,1.59,0.672s0.57,1.061,0.57,1.836
		v3.372h-0.936v-3.372c0-0.552-0.13-0.968-0.39-1.248c-0.26-0.28-0.63-0.42-1.11-0.42s-0.868,0.196-1.164,0.588
		c-0.296,0.393-0.452,0.937-0.468,1.632v2.82h-0.948v-5.736h0.816L35.041,158.212z"/>
	<path fill="#444444" d="M41.605,162.664c-0.48-0.232-0.72-0.588-0.72-1.068c0-0.248,0.094-0.466,0.282-0.654
		c0.188-0.188,0.422-0.313,0.702-0.378c-0.432-0.384-0.648-0.888-0.648-1.512s0.222-1.128,0.666-1.512
		c0.444-0.385,0.97-0.576,1.578-0.576s1.124,0.144,1.548,0.432c0.056-0.424,0.226-0.764,0.51-1.02
		c0.284-0.256,0.658-0.384,1.122-0.384l-0.084,0.936c-0.704,0-1.072,0.296-1.104,0.888c0.28,0.345,0.42,0.756,0.42,1.236
		c0,0.616-0.222,1.122-0.666,1.518c-0.444,0.396-0.998,0.595-1.662,0.595c-0.456,0-0.86-0.092-1.212-0.276
		c-0.16,0.032-0.304,0.106-0.432,0.222c-0.128,0.116-0.192,0.274-0.192,0.475c0,0.424,0.352,0.636,1.056,0.636h2.232
		c0.536,0,0.96,0.114,1.272,0.342c0.312,0.229,0.468,0.546,0.468,0.954c0,0.608-0.306,1.14-0.918,1.596
		c-0.612,0.456-1.386,0.685-2.322,0.685s-1.672-0.174-2.208-0.522c-0.536-0.348-0.804-0.786-0.804-1.313
		c0-0.345,0.102-0.624,0.306-0.84C40.999,162.903,41.269,162.752,41.605,162.664z M41.425,163.924c0,0.304,0.166,0.565,0.498,0.786
		c0.332,0.22,0.836,0.33,1.512,0.33c0.676,0,1.24-0.146,1.692-0.438c0.452-0.292,0.678-0.634,0.678-1.025
		c0-0.185-0.066-0.343-0.198-0.475c-0.132-0.132-0.334-0.198-0.606-0.198h-2.316c-0.408,0.017-0.72,0.114-0.936,0.294
		C41.533,163.378,41.425,163.619,41.425,163.924z M44.953,159.046c0-0.412-0.124-0.748-0.372-1.008
		c-0.248-0.26-0.59-0.391-1.026-0.391s-0.778,0.131-1.026,0.391s-0.372,0.598-0.372,1.014s0.126,0.758,0.378,1.026
		c0.252,0.268,0.594,0.401,1.026,0.401c0.432,0,0.772-0.136,1.02-0.408C44.829,159.8,44.953,159.458,44.953,159.046z"/>
	<path fill="#444444" d="M52.045,161.704c-0.392,0.832-1.028,1.248-1.908,1.248c-0.648,0-1.17-0.181-1.566-0.54
		c-0.396-0.36-0.594-0.916-0.594-1.668v-3.648h0.948v3.576c0,0.968,0.448,1.452,1.344,1.452c0.52,0,0.942-0.2,1.266-0.601
		c0.324-0.399,0.494-0.912,0.51-1.536v-2.892h0.948v5.748h-0.948V161.704z"/>
	<path fill="#444444" d="M58.969,159.124c0-0.521-0.108-0.893-0.324-1.116s-0.53-0.336-0.942-0.336s-0.744,0.082-0.996,0.246
		s-0.378,0.422-0.378,0.773h-1.044c0-0.88,0.472-1.424,1.416-1.632c0.288-0.063,0.6-0.096,0.936-0.096
		c0.712,0,1.268,0.18,1.668,0.54c0.4,0.359,0.6,0.908,0.6,1.644v3.696h-0.816l-0.096-0.96c-0.352,0.728-0.988,1.092-1.908,1.092
		c-0.616,0-1.11-0.172-1.482-0.516s-0.558-0.772-0.558-1.284s0.206-0.912,0.618-1.2s0.926-0.432,1.542-0.432
		c0.616,0,1.204,0.104,1.764,0.312V159.124z M58.969,160.456c-0.568-0.16-1.064-0.24-1.488-0.24s-0.768,0.076-1.032,0.228
		c-0.264,0.152-0.396,0.393-0.396,0.721c0,0.72,0.408,1.08,1.224,1.08c0.464,0,0.862-0.166,1.194-0.498
		C58.802,161.414,58.969,160.983,58.969,160.456z"/>
	<path fill="#444444" d="M64.477,157.912c-0.904,0-1.372,0.712-1.404,2.136v2.796h-0.948v-5.748h0.948v1.104
		c0.288-0.801,0.796-1.2,1.524-1.2c0.232,0,0.452,0.036,0.66,0.107l-0.048,0.925C64.969,157.952,64.725,157.912,64.477,157.912z"/>
	<path fill="#444444" d="M70.465,157.96v-3.288h0.936v8.172h-0.768l-0.12-0.96c-0.184,0.36-0.428,0.632-0.732,0.816
		c-0.304,0.184-0.636,0.275-0.996,0.275c-0.728,0-1.338-0.279-1.83-0.84c-0.492-0.56-0.738-1.29-0.738-2.19
		c0-0.899,0.242-1.621,0.726-2.166c0.484-0.544,1.096-0.815,1.836-0.815C69.519,156.964,70.081,157.296,70.465,157.96z
		 M68.833,157.804c-0.464,0-0.854,0.196-1.17,0.588c-0.316,0.393-0.474,0.916-0.474,1.572s0.16,1.182,0.48,1.578
		c0.32,0.396,0.704,0.594,1.152,0.594c0.448,0,0.83-0.15,1.146-0.45c0.316-0.3,0.481-0.702,0.498-1.206v-0.936
		c0-0.536-0.156-0.96-0.468-1.272C69.685,157.96,69.297,157.804,68.833,157.804z"/>
	<path fill="#444444" d="M74.365,155.752c-0.192,0-0.342-0.055-0.45-0.162c-0.108-0.108-0.162-0.252-0.162-0.432
		c0-0.181,0.054-0.324,0.162-0.433c0.108-0.107,0.258-0.162,0.45-0.162c0.192,0,0.346,0.055,0.462,0.162
		c0.116,0.108,0.174,0.252,0.174,0.433c0,0.18-0.058,0.323-0.174,0.432C74.711,155.697,74.557,155.752,74.365,155.752z
		 M73.897,157.096h0.948v5.748h-0.948V157.096z"/>
	<path fill="#444444" d="M80.976,159.124c0-0.521-0.108-0.893-0.324-1.116c-0.216-0.224-0.53-0.336-0.942-0.336
		s-0.744,0.082-0.996,0.246s-0.378,0.422-0.378,0.773h-1.044c0-0.88,0.472-1.424,1.416-1.632c0.288-0.063,0.6-0.096,0.936-0.096
		c0.712,0,1.267,0.18,1.667,0.54c0.4,0.359,0.601,0.908,0.601,1.644v3.696h-0.816l-0.096-0.96c-0.352,0.728-0.988,1.092-1.908,1.092
		c-0.616,0-1.11-0.172-1.482-0.516s-0.558-0.772-0.558-1.284s0.206-0.912,0.618-1.2s0.926-0.432,1.542-0.432
		c0.616,0,1.204,0.104,1.764,0.312V159.124z M80.976,160.456c-0.568-0.16-1.064-0.24-1.488-0.24s-0.768,0.076-1.032,0.228
		c-0.264,0.152-0.396,0.393-0.396,0.721c0,0.72,0.408,1.08,1.224,1.08c0.464,0,0.862-0.166,1.194-0.498
		C80.81,161.414,80.976,160.983,80.976,160.456z"/>
	<path fill="#444444" d="M90.552,159.124c0-0.521-0.108-0.893-0.324-1.116s-0.529-0.336-0.941-0.336s-0.744,0.082-0.996,0.246
		s-0.378,0.422-0.378,0.773h-1.044c0-0.88,0.472-1.424,1.416-1.632c0.288-0.063,0.6-0.096,0.936-0.096
		c0.712,0,1.268,0.18,1.668,0.54c0.4,0.359,0.601,0.908,0.601,1.644v3.696h-0.816l-0.096-0.96c-0.353,0.728-0.988,1.092-1.908,1.092
		c-0.616,0-1.11-0.172-1.482-0.516s-0.558-0.772-0.558-1.284s0.206-0.912,0.618-1.2s0.926-0.432,1.542-0.432
		c0.615,0,1.204,0.104,1.764,0.312V159.124z M90.552,160.456c-0.568-0.16-1.064-0.24-1.488-0.24s-0.768,0.076-1.031,0.228
		c-0.265,0.152-0.396,0.393-0.396,0.721c0,0.72,0.408,1.08,1.224,1.08c0.464,0,0.862-0.166,1.194-0.498
		S90.552,160.983,90.552,160.456z"/>
	<path fill="#444444" d="M96.06,157.912c-0.904,0-1.372,0.712-1.404,2.136v2.796h-0.947v-5.748h0.947v1.104
		c0.288-0.801,0.796-1.2,1.524-1.2c0.231,0,0.452,0.036,0.66,0.107l-0.048,0.925C96.552,157.952,96.308,157.912,96.06,157.912z"/>
	<path fill="#444444" d="M101.293,162.676c-0.688,0.32-1.316,0.388-1.884,0.204c-0.408-0.128-0.696-0.396-0.864-0.804
		c-0.088-0.2-0.132-0.44-0.132-0.721v-3.527h-0.924v-0.721h0.924v-1.596h0.936v1.596h1.8v0.721h-1.8v3.516
		c0,0.584,0.272,0.876,0.816,0.876c0.296,0,0.628-0.072,0.996-0.216L101.293,162.676z"/>
	<path fill="#444444" d="M103.333,155.752c-0.192,0-0.343-0.055-0.45-0.162c-0.108-0.108-0.162-0.252-0.162-0.432
		c0-0.181,0.054-0.324,0.162-0.433c0.107-0.107,0.258-0.162,0.45-0.162c0.191,0,0.346,0.055,0.462,0.162
		c0.115,0.108,0.174,0.252,0.174,0.433c0,0.18-0.059,0.323-0.174,0.432C103.678,155.697,103.524,155.752,103.333,155.752z
		 M102.864,157.096h0.948v5.748h-0.948V157.096z"/>
	<path fill="#444444" d="M108.306,156.964c0.676,0,1.214,0.174,1.614,0.521c0.399,0.349,0.659,0.782,0.779,1.303l-0.96,0.084
		c-0.104-0.336-0.271-0.599-0.504-0.786c-0.232-0.188-0.488-0.282-0.768-0.282c-0.513,0-0.927,0.192-1.242,0.576
		c-0.316,0.384-0.475,0.906-0.475,1.565c0,0.66,0.154,1.19,0.463,1.591c0.308,0.399,0.691,0.6,1.151,0.6s0.805-0.105,1.032-0.318
		c0.228-0.212,0.342-0.514,0.342-0.905h0.973c0,0.616-0.215,1.113-0.643,1.493c-0.428,0.381-0.986,0.57-1.674,0.57
		c-0.729,0-1.346-0.275-1.854-0.828c-0.508-0.552-0.762-1.285-0.762-2.202c0-0.915,0.252-1.642,0.756-2.178
		S107.63,156.964,108.306,156.964z"/>
	<path fill="#444444" d="M112.572,154.672h0.948v8.172h-0.948V154.672z"/>
	<path fill="#444444" d="M117.912,162.208c0.792,0,1.244-0.349,1.356-1.044h0.972c-0.088,0.576-0.342,1.021-0.762,1.338
		s-0.942,0.474-1.566,0.474c-0.768,0-1.392-0.273-1.872-0.822c-0.479-0.548-0.72-1.277-0.72-2.189s0.242-1.64,0.727-2.185
		c0.483-0.544,1.128-0.815,1.932-0.815s1.404,0.312,1.8,0.936c0.396,0.624,0.534,1.385,0.414,2.28h-3.924
		c0,0.592,0.144,1.078,0.432,1.458S117.392,162.208,117.912,162.208z M118.608,157.863c-0.184-0.096-0.408-0.144-0.672-0.144
		c-0.488,0-0.874,0.166-1.158,0.498s-0.45,0.746-0.498,1.242h3.061C119.341,158.66,119.096,158.128,118.608,157.863z"/>
	<path fill="#444444" d="M122.418,157.384c0.404-0.28,0.95-0.42,1.638-0.42c0.688,0,1.227,0.144,1.614,0.432s0.59,0.652,0.606,1.092
		h-0.924c-0.072-0.52-0.513-0.779-1.32-0.779c-0.393,0-0.694,0.088-0.906,0.264s-0.317,0.366-0.317,0.57s0.079,0.376,0.239,0.516
		c0.16,0.141,0.416,0.263,0.769,0.366l1.151,0.384c0.488,0.152,0.862,0.347,1.122,0.582c0.26,0.236,0.391,0.561,0.391,0.972
		c0,0.412-0.212,0.784-0.637,1.116c-0.424,0.332-1.016,0.498-1.775,0.498c-0.761,0-1.353-0.17-1.776-0.51s-0.647-0.778-0.672-1.314
		h0.912c0.016,0.36,0.162,0.631,0.438,0.811c0.276,0.18,0.622,0.27,1.038,0.27s0.761-0.088,1.032-0.264
		c0.272-0.176,0.408-0.386,0.408-0.63s-0.08-0.43-0.24-0.559c-0.16-0.127-0.42-0.239-0.78-0.336l-1.115-0.372
		c-1-0.296-1.5-0.815-1.5-1.56C121.812,158.04,122.013,157.664,122.418,157.384z"/>
	<path fill="#444444" d="M129.624,159.16c0-1.641-0.692-3.16-2.076-4.561l0.685-0.492c0.783,0.721,1.376,1.511,1.775,2.37
		c0.4,0.86,0.601,1.752,0.601,2.676c0,0.925-0.2,1.818-0.601,2.683c-0.399,0.864-0.992,1.651-1.775,2.364l-0.685-0.48
		C128.931,162.32,129.624,160.8,129.624,159.16z"/>
</g>
<rect x="137.48" y="180.211" fill="#F6F4F3" width="23" height="23"/>
<rect x="44.893" y="173.836" fill="none" width="79.088" height="38.25"/>
<g enable-background="new    ">
	<path fill="#444444" d="M67.233,174.279v4.848c0,0.641,0.162,1.101,0.486,1.381c0.324,0.279,0.742,0.42,1.254,0.42
		s0.93-0.141,1.254-0.42c0.324-0.28,0.486-0.74,0.486-1.381v-4.848h1.416v4.848c0,0.992-0.276,1.759-0.828,2.299
		s-1.328,0.81-2.328,0.81s-1.776-0.27-2.328-0.81s-0.828-1.307-0.828-2.299v-4.848H67.233z"/>
	<path fill="#444444" d="M75.609,177.243c0.384-0.775,1-1.164,1.848-1.164c0.721,0,1.262,0.236,1.626,0.708
		c0.364,0.473,0.546,1.097,0.546,1.872v3.408h-1.416v-3.408c0-0.432-0.104-0.758-0.312-0.978s-0.5-0.33-0.876-0.33
		s-0.698,0.168-0.966,0.504c-0.269,0.336-0.41,0.84-0.426,1.512v2.7h-1.416v-5.832h1.235L75.609,177.243z"/>
	<path fill="#444444" d="M83.758,179.224l-0.648,0.54v2.304h-1.416v-8.232h1.416v4.452l2.304-2.052h1.92l-2.58,2.16l2.725,3.672
		h-1.729L83.758,179.224z"/>
	<path fill="#444444" d="M89.985,177.243c0.384-0.775,1-1.164,1.848-1.164c0.721,0,1.262,0.236,1.626,0.708
		c0.364,0.473,0.546,1.097,0.546,1.872v3.408h-1.416v-3.408c0-0.432-0.104-0.758-0.312-0.978s-0.5-0.33-0.876-0.33
		s-0.698,0.168-0.966,0.504c-0.269,0.336-0.41,0.84-0.426,1.512v2.7h-1.416v-5.832h1.235L89.985,177.243z"/>
	<path fill="#444444" d="M98.361,176.079c0.392,0,0.76,0.062,1.104,0.187s0.64,0.313,0.888,0.569
		c0.553,0.561,0.828,1.337,0.828,2.328c0,0.977-0.275,1.744-0.828,2.305c-0.496,0.512-1.16,0.768-1.991,0.768
		c-0.833,0-1.505-0.256-2.017-0.768c-0.552-0.553-0.828-1.32-0.828-2.305c0-1,0.276-1.775,0.828-2.328
		C96.848,176.331,97.52,176.079,98.361,176.079z M99.764,179.151c0-0.616-0.12-1.078-0.359-1.386
		c-0.24-0.309-0.574-0.462-1.002-0.462c-0.429,0-0.778,0.153-1.051,0.462c-0.271,0.308-0.407,0.77-0.407,1.386
		s0.121,1.078,0.365,1.386c0.244,0.309,0.578,0.462,1.002,0.462c0.425,0,0.772-0.153,1.044-0.462
		C99.629,180.23,99.764,179.768,99.764,179.151z"/>
	<path fill="#444444" d="M103.377,176.235l1.176,4.164l1.116-3.84h1.284l1.116,3.852l1.188-4.176h1.416l-1.92,5.832h-1.392
		l-1.08-3.492l-1.057,3.492h-1.403l-1.933-5.832H103.377z"/>
	<path fill="#444444" d="M113.348,177.243c0.385-0.775,1-1.164,1.849-1.164c0.72,0,1.262,0.236,1.626,0.708
		c0.363,0.473,0.546,1.097,0.546,1.872v3.408h-1.416v-3.408c0-0.432-0.104-0.758-0.312-0.978s-0.5-0.33-0.876-0.33
		s-0.697,0.168-0.966,0.504c-0.268,0.336-0.41,0.84-0.426,1.512v2.7h-1.416v-5.832h1.236L113.348,177.243z"/>
	<path fill="#444444" d="M122.037,173.127h1.451l-3.096,9.912h-1.439L122.037,173.127z"/>
</g>
<g enable-background="new    ">
	<path fill="#444444" d="M57.31,188.68l3.432,5.521v-5.521h1.416v7.788h-1.44l-3.54-5.712v5.712h-1.416v-7.788H57.31z"/>
	<path fill="#444444" d="M66.682,190.48c0.392,0,0.76,0.062,1.104,0.187c0.344,0.124,0.64,0.313,0.888,0.569
		c0.552,0.561,0.828,1.337,0.828,2.328c0,0.977-0.276,1.744-0.828,2.305c-0.496,0.512-1.16,0.768-1.992,0.768
		c-0.833,0-1.504-0.256-2.016-0.768c-0.552-0.553-0.828-1.32-0.828-2.305c0-1,0.276-1.775,0.828-2.328
		C65.17,190.731,65.842,190.48,66.682,190.48z M68.086,193.552c0-0.616-0.12-1.078-0.36-1.386c-0.24-0.309-0.574-0.462-1.002-0.462
		c-0.428,0-0.778,0.153-1.05,0.462c-0.272,0.308-0.408,0.77-0.408,1.386s0.122,1.078,0.366,1.386
		c0.244,0.309,0.578,0.462,1.002,0.462c0.424,0,0.772-0.153,1.044-0.462C67.95,194.63,68.086,194.168,68.086,193.552z"/>
	<path fill="#444444" d="M74.47,196.324c-0.528,0.207-0.944,0.312-1.248,0.312c-0.304,0-0.57-0.036-0.798-0.108
		c-0.228-0.071-0.43-0.18-0.606-0.323c-0.368-0.328-0.552-0.78-0.552-1.356v-3.264H70.45v-0.948h0.816V189.1h1.416v1.536h1.584
		v0.948h-1.584v3.216c0,0.479,0.228,0.72,0.684,0.72c0.232,0,0.532-0.063,0.9-0.191L74.47,196.324z"/>
	<path fill="#444444" d="M80.374,191.788c0.352-0.84,0.88-1.261,1.584-1.261c0.136,0,0.308,0.028,0.516,0.084l-0.024,1.416
		c-0.224-0.048-0.443-0.071-0.659-0.071c-0.944,0-1.417,0.651-1.417,1.956v2.556h-1.416v-5.844h1.416V191.788z"/>
	<path fill="#444444" d="M88.468,192.22c0.101,0.336,0.15,0.645,0.15,0.924c0,0.28-0.016,0.532-0.048,0.756h-3.769
		c0.017,0.473,0.133,0.856,0.349,1.152s0.544,0.444,0.983,0.444c0.584,0,0.933-0.256,1.045-0.769h1.428
		c-0.097,0.584-0.364,1.044-0.805,1.38c-0.455,0.353-1.012,0.528-1.668,0.528c-0.768,0-1.412-0.28-1.932-0.84
		c-0.536-0.584-0.804-1.332-0.804-2.244c0-0.936,0.268-1.688,0.804-2.256c0.512-0.544,1.156-0.816,1.932-0.816
		c0.809,0,1.437,0.284,1.885,0.853C88.218,191.588,88.368,191.884,88.468,192.22z M86.146,191.607c-0.4,0-0.712,0.131-0.937,0.391
		c-0.224,0.26-0.355,0.594-0.396,1.002h2.483c0-0.632-0.199-1.057-0.6-1.272C86.546,191.647,86.362,191.607,86.146,191.607z"/>
	<path fill="#444444" d="M90.31,188.235h1.416v8.232H90.31V188.235z"/>
	<path fill="#444444" d="M95.878,193.06c0.464,0,1,0.076,1.608,0.229v-0.576c0-0.408-0.082-0.71-0.246-0.906
		s-0.433-0.294-0.804-0.294c-0.372,0-0.658,0.074-0.858,0.222c-0.2,0.148-0.3,0.358-0.3,0.631H93.73c0-0.664,0.233-1.145,0.701-1.44
		c0.469-0.296,1.122-0.444,1.962-0.444c1.2,0,1.977,0.42,2.328,1.261c0.12,0.287,0.181,0.628,0.181,1.02v3.708h-1.236l-0.108-0.78
		c-0.376,0.633-0.952,0.948-1.728,0.948c-0.752,0-1.336-0.184-1.752-0.552c-0.384-0.353-0.576-0.798-0.576-1.338
		s0.212-0.956,0.636-1.248S95.141,193.06,95.878,193.06z M97.486,194.188c-0.473-0.128-0.912-0.191-1.32-0.191
		c-0.768,0-1.152,0.256-1.152,0.768c0,0.216,0.088,0.402,0.265,0.558c0.176,0.156,0.458,0.234,0.846,0.234s0.708-0.13,0.96-0.39
		S97.469,194.58,97.486,194.188z"/>
	<path fill="#444444" d="M104.254,196.324c-0.528,0.207-0.944,0.312-1.248,0.312s-0.57-0.036-0.798-0.108
		c-0.229-0.071-0.431-0.18-0.606-0.323c-0.368-0.328-0.552-0.78-0.552-1.356v-3.264h-0.816v-0.948h0.816V189.1h1.416v1.536h1.584
		v0.948h-1.584v3.216c0,0.479,0.229,0.72,0.684,0.72c0.232,0,0.532-0.063,0.9-0.191L104.254,196.324z"/>
	<path fill="#444444" d="M110.223,192.22c0.1,0.336,0.15,0.645,0.15,0.924c0,0.28-0.017,0.532-0.049,0.756h-3.768
		c0.016,0.473,0.132,0.856,0.348,1.152c0.217,0.296,0.544,0.444,0.984,0.444c0.584,0,0.932-0.256,1.044-0.769h1.428
		c-0.096,0.584-0.364,1.044-0.804,1.38c-0.456,0.353-1.012,0.528-1.668,0.528c-0.768,0-1.412-0.28-1.932-0.84
		c-0.536-0.584-0.805-1.332-0.805-2.244c0-0.936,0.269-1.688,0.805-2.256c0.512-0.544,1.155-0.816,1.932-0.816
		c0.808,0,1.436,0.284,1.884,0.853C109.973,191.588,110.123,191.884,110.223,192.22z M107.901,191.607
		c-0.399,0-0.712,0.131-0.936,0.391c-0.225,0.26-0.356,0.594-0.396,1.002h2.484c0-0.632-0.2-1.057-0.601-1.272
		C108.302,191.647,108.117,191.607,107.901,191.607z"/>
	<path fill="#444444" d="M115.87,195.567c-0.36,0.713-0.912,1.068-1.656,1.068s-1.368-0.284-1.872-0.852
		c-0.52-0.593-0.78-1.345-0.78-2.257c0-0.911,0.248-1.651,0.744-2.22c0.488-0.552,1.097-0.828,1.824-0.828s1.276,0.292,1.645,0.876
		v-3.12h1.428v8.232h-1.164L115.87,195.567z M114.393,191.752c-0.399,0-0.733,0.162-1.002,0.485
		c-0.268,0.324-0.401,0.759-0.401,1.303s0.136,0.981,0.408,1.313c0.271,0.332,0.615,0.498,1.031,0.498
		c0.344,0,0.652-0.136,0.924-0.408c0.28-0.279,0.421-0.632,0.421-1.056v-0.756c-0.017-0.416-0.156-0.756-0.421-1.021
		C115.114,191.872,114.794,191.752,114.393,191.752z"/>
	<path fill="#444444" d="M122.038,187.527h1.451l-3.096,9.912h-1.439L122.038,187.527z"/>
</g>
<g enable-background="new    ">
	<path fill="#444444" d="M65.115,205.72c0.492,0.561,0.738,1.297,0.738,2.208c0,0.912-0.26,1.664-0.78,2.257
		c-0.504,0.567-1.132,0.852-1.884,0.852c-0.36,0-0.69-0.096-0.99-0.288c-0.3-0.191-0.538-0.487-0.714-0.888l-0.348,1.008h-0.924
		v-8.232h1.416v3.133c0.368-0.593,0.918-0.889,1.65-0.889S64.623,205.16,65.115,205.72z M61.63,207.592v0.769
		c0.016,0.408,0.164,0.744,0.444,1.008c0.264,0.256,0.586,0.384,0.966,0.384s0.706-0.166,0.978-0.498s0.408-0.77,0.408-1.313
		s-0.134-0.979-0.402-1.303c-0.268-0.323-0.602-0.485-1.002-0.485s-0.732,0.132-0.996,0.396
		C61.761,206.813,61.63,207.16,61.63,207.592z"/>
	<path fill="#444444" d="M68.998,206.189c0.352-0.84,0.88-1.261,1.584-1.261c0.136,0,0.308,0.028,0.516,0.084l-0.024,1.416
		c-0.224-0.048-0.444-0.071-0.66-0.071c-0.944,0-1.416,0.651-1.416,1.956v2.556h-1.416v-5.844h1.416V206.189z"/>
	<path fill="#444444" d="M74.865,204.88c0.392,0,0.76,0.062,1.104,0.187c0.344,0.124,0.64,0.313,0.888,0.569
		c0.552,0.561,0.828,1.337,0.828,2.328c0,0.977-0.276,1.744-0.828,2.305c-0.496,0.512-1.16,0.768-1.992,0.768
		c-0.833,0-1.504-0.256-2.016-0.768c-0.552-0.553-0.828-1.32-0.828-2.305c0-1,0.276-1.775,0.828-2.328
		C73.353,205.132,74.025,204.88,74.865,204.88z M76.269,207.952c0-0.616-0.12-1.078-0.36-1.386c-0.24-0.309-0.574-0.462-1.002-0.462
		c-0.428,0-0.778,0.153-1.05,0.462c-0.272,0.308-0.408,0.77-0.408,1.386s0.122,1.078,0.366,1.386
		c0.244,0.309,0.578,0.462,1.002,0.462c0.424,0,0.772-0.153,1.044-0.462C76.133,209.03,76.269,208.568,76.269,207.952z"/>
	<path fill="#444444" d="M81.429,208.024l-0.648,0.54v2.304h-1.416v-8.232h1.416v4.452l2.304-2.052h1.92l-2.58,2.16l2.725,3.672
		h-1.729L81.429,208.024z"/>
	<path fill="#444444" d="M90.783,206.62c0.1,0.336,0.15,0.645,0.15,0.924c0,0.28-0.017,0.532-0.049,0.756h-3.768
		c0.016,0.473,0.132,0.856,0.348,1.152c0.217,0.296,0.544,0.444,0.984,0.444c0.584,0,0.932-0.256,1.044-0.769h1.428
		c-0.096,0.584-0.364,1.044-0.804,1.38c-0.456,0.353-1.012,0.528-1.668,0.528c-0.768,0-1.412-0.28-1.932-0.84
		c-0.536-0.584-0.805-1.332-0.805-2.244c0-0.936,0.269-1.688,0.805-2.256c0.512-0.544,1.155-0.816,1.932-0.816
		c0.808,0,1.436,0.284,1.884,0.853C90.533,205.988,90.682,206.284,90.783,206.62z M88.461,206.008c-0.399,0-0.712,0.131-0.936,0.391
		c-0.225,0.26-0.356,0.594-0.396,1.002h2.484c0-0.632-0.2-1.057-0.601-1.272C88.861,206.048,88.677,206.008,88.461,206.008z"/>
	<path fill="#444444" d="M94.016,206.044c0.385-0.775,1-1.164,1.849-1.164c0.72,0,1.262,0.236,1.626,0.708
		c0.363,0.473,0.546,1.097,0.546,1.872v3.408h-1.416v-3.408c0-0.432-0.104-0.758-0.312-0.978s-0.5-0.33-0.876-0.33
		s-0.697,0.168-0.966,0.504c-0.268,0.336-0.41,0.84-0.426,1.512v2.7h-1.416v-5.832h1.236L94.016,206.044z"/>
	<path fill="#444444" d="M103.136,202.636h1.416v8.232h-1.416V202.636z"/>
	<path fill="#444444" d="M106.736,203.152c0-0.256,0.076-0.458,0.229-0.606c0.151-0.147,0.368-0.222,0.647-0.222
		c0.272,0,0.486,0.074,0.643,0.222c0.156,0.148,0.233,0.351,0.233,0.606s-0.077,0.458-0.233,0.605
		c-0.156,0.148-0.37,0.223-0.643,0.223c-0.279,0-0.496-0.074-0.647-0.223C106.812,203.61,106.736,203.408,106.736,203.152z
		 M106.904,205.024h1.416v5.844h-1.416V205.024z"/>
	<path fill="#444444" d="M112.112,206.044c0.384-0.775,1-1.164,1.848-1.164c0.721,0,1.262,0.236,1.626,0.708
		c0.364,0.473,0.546,1.097,0.546,1.872v3.408h-1.416v-3.408c0-0.432-0.104-0.758-0.312-0.978s-0.5-0.33-0.876-0.33
		s-0.698,0.168-0.966,0.504c-0.269,0.336-0.41,0.84-0.426,1.512v2.7h-1.416v-5.832h1.235L112.112,206.044z"/>
	<path fill="#444444" d="M120.26,208.024l-0.648,0.54v2.304h-1.416v-8.232h1.416v4.452l2.304-2.052h1.92l-2.58,2.16l2.725,3.672
		h-1.729L120.26,208.024z"/>
</g>
<line opacity="0.7" fill="none" stroke="#444444" stroke-width="0.989" stroke-miterlimit="10" enable-background="new    " x1="49.946" y1="23.461" x2="160.48" y2="23.461"/>
<line fill="none" stroke="#1D1D1B" stroke-miterlimit="10" x1="137.48" y1="180.211" x2="160.48" y2="203.211"/>
<line fill="none" stroke="#1D1D1B" stroke-miterlimit="10" x1="160.48" y1="180.211" x2="137.48" y2="203.211"/>
<circle fill="#1D1D1B" cx="148.98" cy="151.711" r="3.25"/>
</svg>
