<?xml version="1.0" encoding="utf-8"?>
<!-- Generator: Adobe Illustrator 16.0.0, SVG Export Plug-In . SVG Version: 6.00 Build 0)  -->
<!DOCTYPE svg PUBLIC "-//W3C//DTD SVG 1.1//EN" "http://www.w3.org/Graphics/SVG/1.1/DTD/svg11.dtd">
<svg version="1.1" id="Layer_1" xmlns="http://www.w3.org/2000/svg" xmlns:xlink="http://www.w3.org/1999/xlink" x="0px" y="0px"
	 width="1365.833px" height="768.002px" viewBox="0 0 1365.833 768.002" enable-background="new 0 0 1365.833 768.002"
	 xml:space="preserve">
<g id="fotoc">
	<g>
		<g>
			<g>
				<g>
					<defs>
						<rect id="SVGID_1_" y="-0.001" width="683" height="768"/>
					</defs>
					<clipPath id="SVGID_2_">
						<use xlink:href="#SVGID_1_"  overflow="visible"/>
					</clipPath>
					<g clip-path="url(#SVGID_2_)">
						
							<image overflow="visible" enable-background="new    " width="960" height="1440" xlink:href="2_1a.jpg"  transform="matrix(0.7115 0 0 0.7115 -0.0029 -0.0017)">
						</image>
					</g>
				</g>
			</g>
		</g>
	</g>
	<g>
		<g>
			<g>
				<g>
					<defs>
						<rect id="SVGID_3_" x="682.833" y="0" width="683" height="768.002"/>
					</defs>
					<clipPath id="SVGID_4_">
						<use xlink:href="#SVGID_3_"  overflow="visible"/>
					</clipPath>
					<g clip-path="url(#SVGID_4_)">
						
							<image overflow="visible" enable-background="new    " width="960" height="1440" xlink:href="2_2.jpg"  transform="matrix(0.7109 0 0 0.7109 683.5034 0.7097)">
						</image>
					</g>
				</g>
			</g>
		</g>
	</g>
</g>
<g id="fotog" display="none">
	<g display="inline">
		<g>
			<g>
				<g>
					<defs>
						<rect id="SVGID_5_" y="-0.001" width="683" height="768"/>
					</defs>
					<clipPath id="SVGID_6_">
						<use xlink:href="#SVGID_5_"  overflow="visible"/>
					</clipPath>
					<g clip-path="url(#SVGID_6_)">
						
							<image overflow="visible" enable-background="new    " width="960" height="1440" xlink:href="2_1b.jpg"  transform="matrix(0.7115 0 0 0.7115 -0.0029 -0.0017)">
						</image>
					</g>
				</g>
			</g>
		</g>
	</g>
</g>
<g id="testi_fissi">
	<rect x="251.833" y="96.333" fill="#FFFFFF" width="223.469" height="24.965"/>
	<rect x="251.833" y="121.298" fill="#FFFFFF" width="260.136" height="24.965"/>
	<g>
		<g>
			<rect x="561.333" y="359.08" fill="#FFFFFF" width="245.498" height="39.247"/>
		</g>
		<g>
			<rect x="614.887" y="393.652" fill="#FFFFFF" width="138.391" height="39.247"/>
		</g>
		<g>
			<rect x="570.667" y="428.986" fill="#FFFFFF" width="226.83" height="39.247"/>
		</g>
		<g>
			<path fill="#010101" d="M570.978,367.981h2.197l2.142,16.057l0.586,3.926l1.26-3.794l5.156-12.876l-0.337-3.313h2.106
				l1.597,16.057l0.296,3.926l1.447-3.794l6.489-16.188h2.229l-9.479,22.561h-2.256l-1.304-12.6l-0.267-3.457l-1.229,3.457
				l-4.98,12.6h-2.271L570.978,367.981z"/>
			<path fill="#010101" d="M596.363,381.414c-0.146-7.777,4.351-13.684,10.269-13.684c4.702,0,7.046,4.175,7.134,9.243
				c0.132,7.632-4.116,13.667-10.181,13.667C598.941,390.643,596.466,386.656,596.363,381.414z M611.466,377.386
				c-0.088-5.156-1.758-7.896-5.186-7.896c-4.482,0-7.705,5.361-7.617,11.484c0.073,5.36,1.948,7.969,5.273,7.969
				C608.434,388.943,611.583,383.67,611.466,377.386z"/>
			<path fill="#010101" d="M617.34,381.707l1.743-13.728h2.197l-1.688,13.347c-0.132,1.055-0.188,1.963-0.176,2.798
				c0.06,2.942,1.538,4.717,4.614,4.717c3.589,0,5.625-2.123,6.354-7.821l1.644-13.037h2.15l-1.67,13.229
				c-0.894,6.914-3.75,9.435-8.789,9.435c-4.274,0-6.486-2.389-6.563-6.432C617.149,383.45,617.237,382.571,617.34,381.707z"/>
			<path fill="#010101" d="M639.43,367.981h2.197l-2.593,20.565l8.687-0.061l-0.231,1.904h-10.887L639.43,367.981z"/>
			<path fill="#010101" d="M653.756,367.981h1.274c1.421-0.016,3.223-0.232,4.702-0.232c5.962,0,8.361,3.706,8.438,9.142
				c0.104,7.749-4.481,13.916-11.367,13.739c-0.41-0.017-1.201-0.061-1.655-0.104c-0.656-0.06-2.271-0.132-3.091-0.132h-1.128
				L653.756,367.981z M657.33,388.943c5.742-0.132,8.613-6.021,8.555-11.88c-0.073-5.332-1.948-7.676-6.782-7.676
				c-1.011,0-2.432,0.146-3.366,0.277l-2.373,18.896C654.532,388.768,656.114,388.973,657.33,388.943z"/>
			<path fill="#010101" d="M681.383,367.981h2.211l-2.829,22.412h-2.212L681.383,367.981z"/>
			<path fill="#010101" d="M693.438,369.607l-6.605,0.132l0.248-1.758h15.293l-0.248,1.758l-6.49-0.132l-2.621,20.786h-2.193
				L693.438,369.607z"/>
			<path fill="#010101" d="M718.532,367.981h2.461l4.232,22.412h-2.197l-1.113-6.313h-8.994l-2.943,6.313h-2.354L718.532,367.981z
				 M721.622,382.396l-1.889-10.752l-0.221-1.686l-0.807,1.743l-4.994,10.691L721.622,382.396L721.622,382.396z"/>
			<path fill="#010101" d="M731.479,367.981h2.197l-2.592,20.565l8.686-0.061l-0.232,1.904h-10.885L731.479,367.981z"/>
			<path fill="#010101" d="M745.807,367.981h2.197l-2.594,20.565l8.688-0.061l-0.234,1.904h-10.883L745.807,367.981z"/>
			<path fill="#010101" d="M767.237,367.981h1.201c1.377-0.016,2.826-0.232,4.32-0.232c5.068,0,6.52,2.329,6.564,4.806
				c0.059,3.192-1.816,5.316-4.689,6.122c2.461,0.278,4.527,2.008,4.57,4.541c0.088,5.315-4.203,7.384-9.857,7.384
				c-1.129,0-2.871-0.205-3.912-0.205h-1.023L767.237,367.981z M769.831,389.017c3.939,0,7.074-1.393,7.031-5.537
				c-0.045-2.622-2.053-3.911-5.055-3.911c-2.037,0-3.092,0.044-3.838,0.088l-1.143,9.082
				C767.442,388.914,769.245,389.017,769.831,389.017z M771.602,377.986c3.076,0,5.553-1.831,5.51-5.187
				c-0.029-2.229-1.334-3.518-4.863-3.518c-0.439,0-2.096,0.09-3.004,0.19l-1.068,8.511
				C769.215,378.03,770.547,377.986,771.602,377.986z"/>
			<path fill="#010101" d="M785.401,367.981h11.074l-0.088,1.758l-8.994-0.103l-1.068,8.479l6.941-0.088l-0.131,1.86l-7.018-0.161
				l-1.146,8.994l10.795-0.19l-0.158,1.86h-13.035L785.401,367.981z"/>
			<path fill="#010101" d="M624.936,402.981h1.289c1.611,0,2.915-0.232,4.497-0.232c4.233,0,6.639,1.814,6.694,5.696
				c0.103,5.759-3.662,9.243-8.994,9.243c-1.362,0-2.666-0.146-3.104-0.205l-1.014,7.91h-2.194L624.936,402.981z M628.495,415.945
				c4.38-0.027,6.636-2.622,6.693-7.295c0.027-2.781-1.555-4.248-4.807-4.248c-0.938,0-2.443,0.161-3.472,0.293l-1.377,11.001
				C626.137,415.813,627.572,415.96,628.495,415.945z"/>
			<path fill="#010101" d="M639.262,416.414c-0.146-7.777,4.354-13.684,10.271-13.684c4.702,0,7.046,4.175,7.134,9.243
				c0.132,7.632-4.116,13.667-10.181,13.667C641.84,425.643,639.364,421.656,639.262,416.414z M654.364,412.386
				c-0.088-5.156-1.758-7.896-5.188-7.896c-4.479,0-7.705,5.361-7.616,11.484c0.072,5.361,1.947,7.969,5.272,7.969
				C651.332,423.943,654.481,418.67,654.364,412.386z"/>
			<path fill="#010101" d="M658.847,422.522c0.56,0.586,2.798,1.377,4.922,1.377c2.695,0,5.244-1.157,5.244-3.982
				c0-2.036-1.271-3.34-3.56-4.818c-2.168-1.406-4.849-3.193-4.907-6.563c-0.073-3.679,2.856-5.803,6.709-5.803
				c2.9,0,4.365,0.747,5.068,1.245l-0.703,1.699c-0.835-0.835-2.637-1.245-4.219-1.245c-1.805,0-4.559,0.586-4.646,3.529
				c-0.073,2.666,1.626,3.81,3.999,5.376c2.08,1.362,4.497,2.988,4.558,6.035c0.071,4.132-3.236,6.256-7.59,6.256
				c-2.487,0-4.834-0.765-5.49-1.307L658.847,422.522z"/>
			<path fill="#010101" d="M674.14,422.522c0.56,0.586,2.801,1.377,4.922,1.377c2.695,0,5.244-1.157,5.244-3.982
				c0-2.036-1.271-3.34-3.557-4.818c-2.168-1.406-4.849-3.193-4.907-6.563c-0.072-3.679,2.856-5.803,6.709-5.803
				c2.902,0,4.367,0.747,5.07,1.245l-0.703,1.699c-0.834-0.835-2.637-1.245-4.218-1.245c-1.805,0-4.559,0.586-4.646,3.529
				c-0.072,2.666,1.626,3.81,3.999,5.376c2.083,1.362,4.499,2.988,4.559,6.035c0.068,4.132-3.24,6.256-7.591,6.256
				c-2.487,0-4.834-0.765-5.49-1.307L674.14,422.522z"/>
			<path fill="#010101" d="M693.344,402.981h2.211l-2.826,22.412h-2.213L693.344,402.981z"/>
			<path fill="#010101" d="M701.372,402.981h1.201c1.377-0.016,2.826-0.232,4.32-0.232c5.068,0,6.52,2.329,6.563,4.806
				c0.059,3.192-1.816,5.316-4.688,6.122c2.461,0.278,4.525,2.008,4.57,4.541c0.088,5.315-4.205,7.384-9.859,7.384
				c-1.127,0-2.869-0.205-3.91-0.205h-1.025L701.372,402.981z M703.963,424.017c3.941,0,7.076-1.393,7.031-5.537
				c-0.043-2.622-2.051-3.911-5.053-3.911c-2.037,0-3.096,0.044-3.844,0.088l-1.143,9.082
				C701.577,423.912,703.377,424.017,703.963,424.017z M705.737,412.986c3.074,0,5.551-1.831,5.508-5.187
				c-0.029-2.229-1.334-3.518-4.863-3.518c-0.438,0-2.096,0.09-3.004,0.19l-1.068,8.511
				C703.348,413.03,704.682,412.986,705.737,412.986z"/>
			<path fill="#010101" d="M719.536,402.981h2.197l-2.594,20.566l8.688-0.062l-0.234,1.904h-10.885L719.536,402.981z"/>
			<path fill="#010101" d="M733.862,402.981h11.072l-0.088,1.758l-8.994-0.103l-1.068,8.479l6.943-0.088l-0.133,1.86l-7.016-0.161
				l-1.146,8.994l10.797-0.19l-0.158,1.86h-13.037L733.862,402.981z"/>
			<path fill="#010101" d="M577.729,437.981h5.229l0.864,14.355l0.293,3.252l0.996-3.252l3.765-9.393l-0.527-4.966h5.057
				l0.879,14.354l0.337,3.254l0.776-3.254l4.893-14.354h5.332l-8.716,22.412h-6.05l-0.835-7.998l-0.267-2.446l-0.894,2.446
				l-2.933,7.998h-5.49L577.729,437.981z"/>
			<path fill="#010101" d="M607.364,437.981h5.186l-3.208,22.412h-5.186L607.364,437.981z"/>
			<path fill="#010101" d="M620.313,441.849l-5.262,0.161l0.646-4.028h15.63l-0.586,4.028l-5.156-0.161l-2.65,18.545h-5.271
				L620.313,441.849z"/>
			<path fill="#010101" d="M634.039,437.981h5.186l-1.392,9.728h7.061l1.395-9.728h5.244l-3.208,22.412h-5.244l1.304-9.111h-7.061
				l-1.307,9.111h-5.186L634.039,437.981z"/>
			<path fill="#010101" d="M663.951,437.745c5.303,0,7.954,4.017,7.954,8.789c0,7.633-4.104,14.095-10.931,14.095
				c-5.402,0-8.086-3.94-8.086-8.701C652.892,444.28,657.037,437.745,663.951,437.745z M666.573,446.697
				c0-3.882-1.113-5.054-3.182-5.054c-3.267,0-5.171,5.552-5.171,10.02c0,3.885,1.113,5.068,3.164,5.068
				C664.654,456.731,666.573,451.312,666.573,446.697z"/>
			<path fill="#010101" d="M674.22,451.648l1.948-13.667h5.171l-1.846,13.008c-0.146,1.069-0.161,1.979-0.161,2.813
				c0.015,2.197,0.791,2.854,2.9,2.854c2.387,0,3.53-1.229,4.174-5.552l1.855-13.125h5.156l-1.904,13.667
				c-0.902,6.489-3.852,8.979-10.075,8.979c-5.112,0-7.397-2.521-7.412-6.563C674.015,453.304,674.088,452.513,674.22,451.648z"/>
			<path fill="#010101" d="M700.69,441.849l-5.26,0.161l0.645-4.028h15.631l-0.586,4.028l-5.156-0.161l-2.65,18.545h-5.27
				L700.69,441.849z"/>
			<path fill="#010101" d="M724.684,441.849l-5.26,0.161l0.646-4.028H735.7l-0.586,4.028l-5.156-0.161l-2.65,18.545h-5.27
				L724.684,441.849z"/>
			<path fill="#010101" d="M746.348,437.745c5.305,0,7.955,4.017,7.955,8.789c0,7.633-4.102,14.095-10.928,14.095
				c-5.406,0-8.086-3.94-8.086-8.701C735.29,444.28,739.434,437.745,746.348,437.745z M748.971,446.697
				c0-3.882-1.113-5.054-3.18-5.054c-3.266,0-5.17,5.552-5.17,10.02c0,3.885,1.113,5.068,3.164,5.068
				C747.051,456.731,748.971,451.312,748.971,446.697z"/>
			<path fill="#010101" d="M758.991,437.981h2.959c1.742,0,2.313-0.234,4.232-0.234c5.846,0,8.027,2.098,8.027,5.76
				c0,3.354-1.305,6.431-4.791,7.5c0.82,0.688,1.568,2.139,2.066,4.014c1.24,3.838,1.465,4.556,2.031,5.376h-5.738
				c-0.365-0.527-0.561-1.787-1.273-4.482c-0.631-2.563-1.51-3.908-1.98-3.908h-2.301l-1.244,8.394h-5.186L758.991,437.981z
				 M765.625,448.016c2.799,0,3.59-2.521,3.531-4.263c-0.074-1.893-1.289-2.402-3.477-2.402c-0.688,0-1.582,0.073-2.008,0.146
				l-0.908,6.478C763.561,448.016,765.01,448.016,765.625,448.016z"/>
			<path fill="#010101" d="M777.725,450.035c0-1.74,0.66-2.854,3.691-4.362c2.27-1.014,3.414-1.948,3.824-2.607
				c0.102-0.293,0.336-1.128,0.336-1.859c0-1.642-1.699-3.048-4.453-3.048c-1.055,0-1.992,0.073-3.031,0.337l0.82-3.366
				c0.498-0.439,1.992-0.776,3.145-0.776c5.697,0,8.223,2.725,8.223,6.313c0,7.104-8.658,6.683-8.658,10.211
				c0,0.702,0.498,1.405,0.602,1.771l-2.445,0.967l-0.25-0.015C778.663,452.994,777.725,451.385,777.725,450.035z M782.266,455.442
				c1.73,0,2.359,1.011,2.359,2.183c0,1.922-1.23,3.193-3.121,3.193c-1.42,0-2.285-0.923-2.285-2.227
				C779.219,456.949,780.377,455.442,782.266,455.442z"/>
		</g>
	</g>
	<g>
		<g>
			<rect x="614.887" y="301.291" fill="#010101" width="135.893" height="47.789"/>
		</g>
		<g>
			<path fill="#FFFFFF" d="M626.416,308.017h8.042l-0.394,2.58l-4.692-0.037l-0.498,3.489l4.017-0.056l-0.338,2.729l-4.054-0.063
				l-0.816,5.715h-3.319L626.416,308.017z"/>
			<path fill="#FFFFFF" d="M636.549,308.017h1.896c1.116,0,1.479-0.148,2.712-0.148c3.744,0,5.143,1.342,5.143,3.688
				c0,2.148-0.835,4.119-3.066,4.805c0.522,0.441,1.004,1.37,1.32,2.571c0.798,2.459,0.938,2.919,1.307,3.443h-3.681
				c-0.232-0.338-0.354-1.146-0.813-2.871c-0.404-1.645-0.967-2.506-1.27-2.506h-1.473l-0.798,5.377h-3.322L636.549,308.017z
				 M640.8,314.444c1.792,0,2.299-1.612,2.261-2.729c-0.047-1.211-0.823-1.539-2.224-1.539c-0.441,0-1.013,0.048-1.286,0.095
				l-0.582,4.146C639.477,314.444,640.406,314.444,640.8,314.444z"/>
			<path fill="#FFFFFF" d="M649.181,308.017h8.577l-0.347,2.58l-5.274-0.02l-0.448,3.16l3.932-0.047l-0.338,2.591l-3.951-0.085
				l-0.516,3.643l5.938-0.094l-0.347,2.628h-9.281L649.181,308.017z"/>
			<path fill="#FFFFFF" d="M660.488,308.017h8.577l-0.35,2.58l-5.271-0.02l-0.451,3.16l3.932-0.047l-0.338,2.591l-3.951-0.085
				l-0.516,3.643l5.938-0.094l-0.347,2.628h-9.281L660.488,308.017z"/>
			<path fill="#FFFFFF" d="M671.796,308.017h1.464c0.797,0,2.771-0.148,3.631-0.148c3.973,0,5.453,2.337,5.453,5.762
				c0,4.646-2.553,8.896-7.938,8.896c-0.35,0-0.826-0.026-1.354-0.064c-0.646-0.037-1.37-0.084-1.961-0.084h-1.351L671.796,308.017z
				 M674.874,320.094c2.769,0,4.054-2.976,4.054-6.514c0-2.607-0.854-3.268-2.722-3.268c-0.394,0-1.06,0.047-1.436,0.122
				l-1.354,9.459C673.794,320.019,674.301,320.094,674.874,320.094z"/>
			<path fill="#FFFFFF" d="M690.133,307.865c3.398,0,5.096,2.571,5.096,5.633c0,4.89-2.627,9.025-7,9.025
				c-3.463,0-5.18-2.522-5.18-5.573C683.048,312.052,685.704,307.865,690.133,307.865z M691.813,313.6
				c0-2.486-0.715-3.237-2.035-3.237c-2.096,0-3.314,3.559-3.314,6.419c0,2.486,0.713,3.247,2.027,3.247
				C690.584,320.028,691.813,316.556,691.813,313.6z"/>
			<path fill="#FFFFFF" d="M699.163,308.017h4.832l0.639,9.881l0.061,2.111l0.445-2.111l3.332-9.881h4.855l-0.229,14.356h-3.313
				l0.834-10.688l0.254-2.196l-0.693,2.196l-4.102,10.717l-3.65,0.143l-1.127-10.856l-0.018-2.195l-0.451,2.195l-2.326,10.688
				h-3.273L699.163,308.017z"/>
			<path fill="#FFFFFF" d="M726.452,307.865c3.395,0,5.094,2.571,5.094,5.633c0,4.89-2.627,9.025-7,9.025
				c-3.463,0-5.18-2.522-5.18-5.573C719.366,312.052,722.02,307.865,726.452,307.865z M728.131,313.6
				c0-2.486-0.715-3.237-2.037-3.237c-2.092,0-3.313,3.559-3.313,6.419c0,2.486,0.713,3.247,2.021,3.247
				C726.901,320.028,728.131,316.556,728.131,313.6z"/>
			<path fill="#FFFFFF" d="M734.569,308.017h8.043l-0.396,2.58l-4.688-0.037l-0.498,3.489l4.016-0.056l-0.338,2.729l-4.053-0.063
				l-0.816,5.715h-3.322L734.569,308.017z"/>
			<path fill="#FFFFFF" d="M629.167,327.251h8.577l-0.349,2.58l-5.272-0.021l-0.451,3.162l3.935-0.047l-0.341,2.591l-3.948-0.085
				l-0.519,3.641l5.94-0.094l-0.35,2.628h-9.278L629.167,327.251z"/>
			<path fill="#FFFFFF" d="M642.098,334.026l-3.012-6.773h3.566l1.661,4.626l2.975-4.626h3.623l-5.105,7.46l3.256,6.896
				l-3.623,0.012l-1.886-4.982l-3.021,4.974h-3.716L642.098,334.026z"/>
			<path fill="#FFFFFF" d="M652.148,327.251h1.464c0.729,0,1.839-0.149,3.087-0.149c3.228,0,5.039,1.37,5.048,4.119
				c0.009,3.199-2.177,5.817-6.156,5.817c-0.657,0-1.333-0.021-1.511-0.021l-0.657,4.589h-3.322L652.148,327.251z M655.649,334.552
				c1.802,0,2.712-1.117,2.822-3.041c0.075-1.343-0.498-2.103-2.374-2.103c-0.241,0-0.667,0.047-0.938,0.094l-0.726,4.937
				C654.664,334.505,655.199,334.552,655.649,334.552z"/>
			<path fill="#FFFFFF" d="M664.339,327.251h1.896c1.114,0,1.479-0.149,2.712-0.149c3.744,0,5.143,1.342,5.143,3.688
				c0,2.147-0.835,4.12-3.069,4.806c0.525,0.44,1.007,1.369,1.323,2.57c0.798,2.459,0.938,2.919,1.307,3.442h-3.681
				c-0.232-0.338-0.354-1.146-0.813-2.871c-0.404-1.643-0.967-2.506-1.27-2.506h-1.473l-0.798,5.377h-3.322L664.339,327.251z
				 M668.59,333.679c1.792,0,2.299-1.614,2.261-2.73c-0.047-1.211-0.823-1.537-2.224-1.537c-0.44,0-1.013,0.047-1.286,0.094
				l-0.582,4.146C667.267,333.679,668.196,333.679,668.59,333.679z"/>
			<path fill="#FFFFFF" d="M676.971,327.251h8.577l-0.346,2.58l-5.275-0.021l-0.451,3.162l3.935-0.047l-0.338,2.591l-3.951-0.085
				l-0.516,3.641l5.936-0.094l-0.346,2.628h-9.282L676.971,327.251z"/>
			<path fill="#FFFFFF" d="M686.627,338.155c0.59,0.46,1.801,0.947,2.748,0.947c1.418,0,1.895-0.639,1.916-1.437
				c0.018-0.826-0.414-1.307-1.766-2.327c-1.146-0.862-2.402-2.204-2.402-3.95c0-2.618,1.99-4.288,5.012-4.288
				c1.643,0,2.9,0.45,3.389,0.798l-1.053,2.639c-0.432-0.434-1.482-0.815-2.43-0.815c-1.211,0-1.736,0.618-1.746,1.284
				c-0.018,0.893,0.76,1.539,1.793,2.354c1.107,0.883,2.6,2.142,2.6,3.951c0,2.928-2.215,4.447-5.471,4.447
				c-1.475,0-3.285-0.554-3.717-0.9L686.627,338.155z"/>
			<path fill="#FFFFFF" d="M696.563,338.155c0.592,0.46,1.803,0.947,2.75,0.947c1.416,0,1.895-0.639,1.914-1.437
				c0.02-0.826-0.414-1.307-1.764-2.327c-1.146-0.862-2.402-2.204-2.402-3.95c0-2.618,1.988-4.288,5.012-4.288
				c1.641,0,2.898,0.45,3.387,0.798l-1.051,2.639c-0.432-0.434-1.482-0.815-2.432-0.815c-1.211,0-1.734,0.618-1.744,1.284
				c-0.02,0.893,0.76,1.539,1.791,2.354c1.107,0.883,2.6,2.142,2.6,3.951c0,2.928-2.215,4.447-5.471,4.447
				c-1.473,0-3.283-0.554-3.717-0.9L696.563,338.155z"/>
			<path fill="#FFFFFF" d="M708.395,327.251h3.322l-2.057,14.355h-3.322L708.395,327.251z"/>
			<path fill="#FFFFFF" d="M719.754,327.101c3.396,0,5.096,2.57,5.096,5.631c0,4.891-2.627,9.027-7,9.027
				c-3.463,0-5.182-2.524-5.182-5.574C712.668,331.286,715.325,327.101,719.754,327.101z M721.434,332.834
				c0-2.485-0.713-3.236-2.035-3.236c-2.094,0-3.314,3.557-3.314,6.419c0,2.485,0.715,3.247,2.027,3.247
				C720.206,339.263,721.434,335.79,721.434,332.834z"/>
			<path fill="#FFFFFF" d="M727.874,327.251h2.881l3.34,7.433l0.742,2.439l0.121-2.439l0.91-7.433h3.209l-2.057,14.355h-2.785
				l-3.268-7.815l-0.928-2.58l0.027,2.58l-1.078,7.815h-3.172L727.874,327.251z"/>
		</g>
	</g>
	<rect x="853.667" y="399.334" fill="#FFFFFF" width="260.826" height="24.967"/>
	<rect x="1017.061" y="424.302" fill="#FFFFFF" width="97.434" height="24.963"/>
	<g>
		<path fill="#010101" d="M257.489,101.695h3.401v10.854h4.412v2.521h-7.813V101.695z"/>
		<path fill="#010101" d="M271.604,104.912c2.136,0,4.184,0.854,4.21,4.067c0,0.729-0.044,1.415-0.105,1.848h-5.88
			c0.149,1.492,1.037,2.083,2.505,2.083c0.967,0,2.206-0.246,2.689-0.512l0.501,1.73c-0.659,0.536-2.162,1.081-3.955,1.081
			c-3.234,0-4.992-1.941-4.992-5.193C266.577,107.101,268.414,104.912,271.604,104.912z M272.8,109.201
			c0.079-1.459-0.272-2.188-1.266-2.188c-0.923,0-1.512,0.526-1.679,2.188H272.8z"/>
		<path fill="#010101" d="M279.11,109.474c1.222-0.527,2.839-0.604,4.096-0.604v-0.605c0-0.87-0.325-1.081-1.828-1.081
			c-0.729,0-2.127,0.299-3.023,0.712l-0.659-1.916c0.729-0.438,2.619-1.1,4.403-1.1c3.164,0,4.342,1.021,4.342,3.788v6.548h-2.039
			c-0.668,0-1.028-0.044-1.028-0.914v-0.069c-0.563,0.492-1.45,0.983-2.795,0.983c-1.978,0-3.27-1.336-3.27-3.198
			C277.309,110.836,278.003,109.948,279.11,109.474z M281.94,113.209c0.519,0,1.081-0.229,1.266-0.422v-2.354
			c-0.633,0.009-1.406,0.141-1.758,0.308c-0.378,0.149-0.782,0.396-0.782,1.107C280.666,112.796,281.281,113.209,281.94,113.209z"/>
		<path fill="#010101" d="M289.06,100.474h3.261v5.527l-0.105,2.742l2.988-3.69h3.7l-3.563,3.876l3.797,6.144h-3.612l-2.285-3.865
			l-0.949,1.026l0.026,1.18v1.659h-3.261L289.06,100.474L289.06,100.474z"/>
		<path fill="#010101" d="M304.748,104.912c2.136,0,4.184,0.854,4.21,4.067c0,0.729-0.044,1.415-0.105,1.848h-5.88
			c0.149,1.492,1.037,2.083,2.505,2.083c0.97,0,2.206-0.246,2.689-0.512l0.501,1.73c-0.659,0.536-2.162,1.081-3.955,1.081
			c-3.234,0-4.992-1.941-4.992-5.193C299.721,107.101,301.558,104.912,304.748,104.912z M305.943,109.201
			c0.079-1.459-0.272-2.188-1.269-2.188c-0.923,0-1.512,0.526-1.679,2.188H305.943z"/>
		<path fill="#010101" d="M310.452,110.405c0-3.393,2.039-5.491,5.104-5.491c0.703,0,1.269,0.112,1.652,0.246l-0.026-1.072v-3.621
			h3.252v14.748h-2.493c-0.325,0-0.483-0.176-0.483-0.477v-0.701c-0.448,0.446-1.354,1.178-3.032,1.178
			C312.289,115.213,310.452,113.656,310.452,110.405z M317.185,112.321v-4.878c-0.271-0.202-0.791-0.279-1.368-0.279
			c-1.146,0-1.942,1.021-1.951,3.085c-0.009,1.872,0.642,2.529,1.679,2.529C316.165,112.778,316.833,112.559,317.185,112.321z"/>
		<path fill="#010101" d="M329.234,105.053h2.971l0.079,1.071c0.747-0.624,2.057-1.213,3.27-1.229
			c2.048-0.044,3.062,0.983,3.062,3.867v6.311h-3.252v-5.729c0-1.46-0.325-1.916-1.274-1.891c-0.475,0-1.16,0.229-1.6,0.648v6.97
			h-3.252L329.234,105.053L329.234,105.053z"/>
		<path fill="#010101" d="M345.705,104.912c2.136,0,4.184,0.854,4.21,4.067c0,0.729-0.044,1.415-0.105,1.848h-5.88
			c0.149,1.492,1.037,2.083,2.505,2.083c0.97,0,2.206-0.246,2.689-0.512l0.501,1.73c-0.659,0.536-2.162,1.081-3.955,1.081
			c-3.234,0-4.992-1.941-4.992-5.193C340.678,107.101,342.515,104.912,345.705,104.912z M346.9,109.201
			c0.079-1.459-0.272-2.188-1.269-2.188c-0.923,0-1.512,0.526-1.679,2.188H346.9z"/>
		<path fill="#010101" d="M350.645,105.053h3.176l1.025,4.052l0.536,2.628l0.606-2.628l1.187-4.052h2.927l1.181,4.052l0.568,2.628
			l0.527-2.637l0.949-4.043h3.021l-3.152,10.159h-2.856l-1.459-4.933l-0.378-1.881l-0.387,1.881l-1.406,4.933h-2.944
			L350.645,105.053z"/>
		<path fill="#010101" d="M367.59,112.154c0.299,0.246,1.635,0.89,2.962,0.89c1.028,0.01,1.45-0.222,1.45-0.729
			c0-0.545-0.809-0.87-2.171-1.316c-1.846-0.605-2.593-1.626-2.584-3.164c0-1.941,1.872-2.918,4.166-2.918
			c1.635,0,2.769,0.358,3.226,0.613l-0.29,2.285c-0.366-0.314-1.447-0.766-2.417-0.766c-1.125,0-1.526,0.229-1.538,0.687
			c0,0.527,0.483,0.791,2.06,1.283c1.854,0.598,2.769,1.459,2.769,3.016c0,2.082-1.67,3.189-4.228,3.189
			c-1.661,0-3.155-0.467-3.718-0.817L367.59,112.154z"/>
		<path fill="#010101" d="M384.368,109.474c1.222-0.527,2.839-0.604,4.096-0.604v-0.605c0-0.87-0.325-1.081-1.828-1.081
			c-0.729,0-2.127,0.299-3.021,0.712l-0.659-1.916c0.729-0.438,2.619-1.1,4.403-1.1c3.161,0,4.342,1.021,4.342,3.788v6.548h-2.039
			c-0.668,0-1.028-0.044-1.028-0.914v-0.069c-0.563,0.492-1.45,0.983-2.795,0.983c-1.978,0-3.27-1.336-3.27-3.198
			C382.566,110.836,383.261,109.948,384.368,109.474z M387.198,113.209c0.519,0,1.081-0.229,1.266-0.422v-2.354
			c-0.633,0.009-1.406,0.141-1.758,0.308c-0.378,0.149-0.782,0.396-0.782,1.107C385.924,112.796,386.539,113.209,387.198,113.209z"
			/>
		<path fill="#010101" d="M394.317,100.474h3.261v3.611l-0.07,1.837c0.492-0.447,1.354-1.011,2.83-1.011
			c2.136,0,3.973,1.527,3.973,4.779c0,3.395-2.092,5.563-5.309,5.563c-2.101,0-4.438-0.545-4.685-0.747V100.474L394.317,100.474z
			 M398.949,113.068c1.116,0,1.951-1.144,1.96-3.182c0.009-1.986-0.694-2.559-1.688-2.559c-0.686,0-1.336,0.29-1.644,0.525v4.913
			C397.763,112.98,398.246,113.068,398.949,113.068z"/>
		<path fill="#010101" d="M410.999,104.912c3.709,0,5.036,2.479,4.992,5.354c-0.044,3.217-2.171,4.947-5.178,4.947
			c-3.709,0-5.035-2.479-5-5.354C405.866,106.644,407.993,104.912,410.999,104.912z M412.607,110.115
			c0-1.615-0.404-2.942-1.671-2.942c-1.312,0-1.739,0.968-1.739,2.786c0,1.65,0.422,3.016,1.688,3.016
			C412.168,112.972,412.607,112.031,412.607,110.115z"/>
		<path fill="#010101" d="M418.021,105.053h3.264v5.968c0,1.514,0.431,1.854,1.327,1.854c0.604,0,1.192-0.266,1.424-0.466v-7.355
			h3.261v10.159h-2.354c-0.412,0-0.605-0.079-0.605-0.51v-0.424c-0.712,0.547-1.986,0.934-2.918,0.934
			c-2.936,0-3.393-1.802-3.393-4.271v-5.889H418.021z"/>
		<path fill="#010101" d="M430.379,107.188h-1.16v-1.724c0.879-0.255,1.459-0.447,1.731-1.011c0.202-0.424,0.475-1.145,0.703-1.688
			h1.978v2.285h2.604v2.136h-2.604v3.567c0,1.872,0.265,2.021,1.16,2.021c0.448,0,1.16-0.186,1.468-0.396l0.387,1.812
			c-0.48,0.457-1.881,1.021-3.34,1.021c-2.15,0-2.927-1.081-2.927-3.263V107.188L430.379,107.188z"/>
		<path fill="#010101" d="M257.63,132.188h-1.16v-1.724c0.879-0.255,1.459-0.447,1.731-1.011c0.202-0.424,0.475-1.145,0.703-1.688
			h1.978v2.285h2.602v2.136h-2.602v3.567c0,1.872,0.264,2.021,1.16,2.021c0.448,0,1.16-0.186,1.468-0.396l0.387,1.812
			c-0.483,0.457-1.881,1.021-3.34,1.021c-2.153,0-2.927-1.081-2.927-3.263V132.188L257.63,132.188z"/>
		<path fill="#010101" d="M265.505,125.465h3.261v3.763l-0.158,1.872c0.668-0.563,1.854-1.188,3.138-1.204
			c2.18-0.044,3.173,1.213,3.173,3.896v6.282h-3.261v-5.729c0-1.529-0.413-1.907-1.292-1.891c-0.404,0.009-1.116,0.167-1.6,0.648
			v6.97h-3.261V125.465L265.505,125.465z"/>
		<path fill="#010101" d="M282.011,129.912c2.136,0,4.184,0.854,4.21,4.067c0,0.729-0.044,1.415-0.105,1.848h-5.88
			c0.149,1.492,1.037,2.083,2.505,2.083c0.967,0,2.206-0.246,2.689-0.512l0.501,1.73c-0.659,0.536-2.162,1.081-3.955,1.081
			c-3.234,0-4.992-1.941-4.992-5.193C276.983,132.101,278.82,129.912,282.011,129.912z M283.206,134.201
			c0.079-1.459-0.272-2.188-1.266-2.188c-0.923,0-1.512,0.526-1.679,2.188H283.206z"/>
		<path fill="#010101" d="M297.418,126.607h3.814l4.69,13.465h-3.551l-0.738-2.494h-4.667l-0.703,2.494h-3.507L297.418,126.607z
			 M300.942,135.238l-1.239-4.19l-0.439-1.73l-0.445,1.73l-1.188,4.19H300.942z"/>
		<path fill="#010101" d="M307.104,130.053h2.854l0.141,1.607c0.413-1.021,1.529-1.769,2.886-1.769c0.29,0,0.598,0.035,0.729,0.123
			v3.208c-0.167-0.098-0.475-0.237-1.072-0.237c-1.204,0-1.896,0.536-2.273,0.949v6.135h-3.261L307.104,130.053L307.104,130.053z"/>
		<path fill="#010101" d="M316.798,134.474c1.222-0.527,2.839-0.604,4.096-0.604v-0.605c0-0.87-0.322-1.081-1.825-1.081
			c-0.729,0-2.127,0.299-3.023,0.712l-0.659-1.916c0.729-0.438,2.619-1.1,4.403-1.1c3.164,0,4.342,1.021,4.342,3.788v6.548h-2.039
			c-0.668,0-1.026-0.044-1.026-0.914v-0.069c-0.563,0.492-1.449,0.983-2.797,0.983c-1.978,0-3.27-1.336-3.27-3.198
			C314.996,135.836,315.69,134.948,316.798,134.474z M319.628,138.209c0.521,0,1.081-0.229,1.266-0.422v-2.354
			c-0.633,0.009-1.403,0.141-1.758,0.308c-0.378,0.149-0.782,0.396-0.782,1.107C318.354,137.796,318.969,138.209,319.628,138.209z"
			/>
		<path fill="#010101" d="M326.747,125.474h3.261v3.611l-0.067,1.837c0.489-0.447,1.354-1.011,2.827-1.011
			c2.139,0,3.976,1.527,3.976,4.779c0,3.395-2.092,5.563-5.312,5.563c-2.101,0-4.438-0.545-4.685-0.746V125.474L326.747,125.474z
			 M331.379,138.068c1.116,0,1.951-1.144,1.96-3.182c0.009-1.986-0.694-2.559-1.688-2.559c-0.688,0-1.336,0.288-1.646,0.525v4.913
			C330.192,137.98,330.676,138.068,331.379,138.068z"/>
		<path fill="#010101" d="M345.002,136.785c0.65,0.367,2.127,0.859,3.533,0.854c1.266,0,1.811-0.344,1.811-1.135
			c0-0.854-0.721-1.188-2.716-2.136c-1.705-0.811-3.138-1.995-3.138-4.147c0-2.436,1.939-3.665,4.771-3.665
			c2.004,0,3.287,0.482,3.771,0.765l-0.521,2.516c-0.536-0.422-1.793-0.854-2.962-0.854c-1.266,0-1.846,0.448-1.846,1.125
			c0,0.811,0.694,1.248,2.312,1.985c2.306,1.037,3.677,2.058,3.677,4.157c0,2.397-1.731,3.964-4.878,3.964
			c-1.916,0-3.709-0.501-4.229-0.825L345.002,136.785z"/>
		<path fill="#010101" d="M358.906,141.294v3.227h-3.261v-14.467h3.073v0.976c0.468-0.457,1.348-1.114,2.944-1.114
			c2.145,0,3.999,1.527,3.999,4.779c0,3.395-2.065,5.521-5.133,5.521c-0.712,0-1.274-0.113-1.661-0.245L358.906,141.294z
			 M360.286,138.016c1.143,0,1.939-1.1,1.951-3.129c0.009-1.916-0.645-2.559-1.682-2.559c-0.633,0-1.31,0.255-1.649,0.525v4.799
			C359.17,137.91,359.68,138.016,360.286,138.016z"/>
		<path fill="#010101" d="M367.757,130.053h2.856l0.141,1.607c0.413-1.021,1.529-1.769,2.883-1.769c0.29,0,0.601,0.035,0.729,0.123
			v3.208c-0.167-0.098-0.478-0.237-1.072-0.237c-1.204,0-1.898,0.536-2.276,0.949v6.135h-3.261V130.053z"/>
		<path fill="#010101" d="M376.15,127.144c0-0.982,0.902-1.812,1.96-1.812c1.063,0,1.793,0.687,1.793,1.68
			c0,0.983-0.879,1.818-1.942,1.818C376.915,128.831,376.15,128.128,376.15,127.144z M376.3,130.053h3.271v10.02H376.3V130.053z"/>
		<path fill="#010101" d="M382.399,130.053h2.971l0.079,1.071c0.747-0.624,2.057-1.213,3.27-1.229
			c2.048-0.044,3.062,0.983,3.062,3.867v6.311h-3.252v-5.729c0-1.459-0.325-1.916-1.274-1.891c-0.475,0-1.16,0.229-1.6,0.648v6.97
			H382.4L382.399,130.053L382.399,130.053z"/>
		<path fill="#010101" d="M395.188,139.457c-0.548-0.299-0.817-0.86-0.812-1.503c0.009-0.659,0.387-1.503,1.635-2.039
			c-1.271-0.512-2.004-1.459-2.004-2.742c0-2.18,1.67-3.242,4.623-3.252c1.45,0,2.593,0.246,3.396,0.738
			c0.334-0.281,0.938-0.605,1.705-0.605h1.125v2.24h-1.617c0.062,0.255,0.097,0.536,0.097,0.826c0,2.004-1.433,3.232-4.702,3.232
			c-0.352,0-0.686-0.019-1.002-0.053c-0.229,0.211-0.316,0.481-0.316,0.712c0,0.482,0.325,0.649,1.274,0.649h1.986
			c3.129,0,3.964,1.439,3.964,3.041c0,2.652-2.848,3.92-5.695,3.9c-3.56-0.024-5.159-1.193-5.159-3.032
			C393.685,140.696,394.194,139.905,395.188,139.457z M399.011,142.85c1.318,0,2.294-0.413,2.294-1.485
			c0-0.771-0.264-1.389-1.907-1.389h-2.136c-0.167,0.236-0.308,0.57-0.308,1.011C396.954,141.883,397.323,142.85,399.011,142.85z
			 M400.197,133.155c0-1.046-0.501-1.556-1.503-1.556c-0.94,0-1.564,0.354-1.564,1.547c0,0.939,0.501,1.503,1.529,1.503
			C399.573,134.649,400.197,134.342,400.197,133.155z"/>
		<path fill="#010101" d="M408.081,136.416c1.107,0,1.793,0.791,1.793,1.847c0.009,1.063-0.835,2.004-1.942,2.004
			c-1.081,0-1.811-0.801-1.816-1.854C406.112,137.356,406.974,136.416,408.081,136.416z"/>
	</g>
	<g>
		<path fill="#010101" d="M863.256,407.835h-3.576v-2.584h10.52v2.584h-3.568v10.793h-3.375V407.835L863.256,407.835z"/>
		<path fill="#010101" d="M876.221,408.469c2.137,0,4.184,0.853,4.209,4.068c0,0.729-0.043,1.415-0.104,1.846h-5.881
			c0.145,1.494,1.037,2.083,2.506,2.083c0.967,0,2.205-0.245,2.688-0.51l0.502,1.729c-0.658,0.536-2.162,1.081-3.955,1.081
			c-3.234,0-4.992-1.94-4.992-5.194C871.194,410.656,873.03,408.469,876.221,408.469z M877.417,412.757
			c0.078-1.459-0.273-2.188-1.266-2.188c-0.924,0-1.514,0.527-1.68,2.188H877.417z"/>
		<path fill="#010101" d="M882.522,408.608h2.855l0.141,1.607c0.414-1.021,1.529-1.769,2.885-1.769c0.289,0,0.598,0.035,0.729,0.123
			v3.208c-0.168-0.097-0.475-0.235-1.072-0.235c-1.205,0-1.895,0.536-2.271,0.947v6.137h-3.266V408.608L882.522,408.608z"/>
		<path fill="#010101" d="M891.012,408.608h2.857l0.141,1.607c0.412-1.021,1.529-1.769,2.883-1.769c0.289,0,0.598,0.035,0.729,0.123
			v3.208c-0.166-0.097-0.475-0.235-1.072-0.235c-1.203,0-1.895,0.536-2.271,0.947v6.137h-3.266V408.608L891.012,408.608z"/>
		<path fill="#010101" d="M904.1,408.469c3.709,0,5.035,2.479,4.992,5.353c-0.045,3.219-2.172,4.948-5.178,4.948
			c-3.709,0-5.035-2.479-5-5.354C898.967,410.198,901.094,408.469,904.1,408.469z M905.708,413.671c0-1.616-0.404-2.943-1.67-2.943
			c-1.311,0-1.74,0.967-1.74,2.786c0,1.651,0.422,3.015,1.689,3.015C905.268,416.527,905.708,415.587,905.708,413.671z"/>
		<path fill="#010101" d="M911.192,408.608h2.855l0.141,1.607c0.414-1.021,1.529-1.769,2.885-1.769c0.289,0,0.598,0.035,0.729,0.123
			v3.208c-0.168-0.097-0.475-0.235-1.072-0.235c-1.199,0-1.895,0.536-2.271,0.947v6.137h-3.264v-10.019H911.192z"/>
		<path fill="#010101" d="M919.586,405.698c0-0.982,0.904-1.811,1.959-1.811c1.064,0,1.793,0.686,1.793,1.679
			c0,0.984-0.879,1.819-1.941,1.819C920.35,407.387,919.586,406.684,919.586,405.698z M919.735,408.608h3.27v10.021h-3.27V408.608z"
			/>
		<path fill="#010101" d="M925.659,415.71c0.299,0.246,1.635,0.889,2.963,0.889c1.027,0.009,1.449-0.221,1.449-0.729
			c0-0.547-0.809-0.87-2.172-1.317c-1.846-0.606-2.592-1.627-2.584-3.164c0-1.942,1.873-2.918,4.166-2.918
			c1.637,0,2.77,0.359,3.227,0.614l-0.289,2.285c-0.369-0.315-1.451-0.767-2.418-0.767c-1.125,0-1.529,0.229-1.537,0.688
			c0,0.525,0.482,0.791,2.057,1.282c1.855,0.599,2.771,1.46,2.771,3.016c0,2.083-1.67,3.188-4.23,3.188
			c-1.658,0-3.15-0.466-3.719-0.815L925.659,415.71z"/>
		<path fill="#010101" d="M935.59,410.744h-1.16v-1.725c0.879-0.255,1.459-0.448,1.732-1.011c0.201-0.423,0.475-1.146,0.703-1.688
			h1.977v2.285h2.604v2.138h-2.604v3.566c0,1.872,0.266,2.021,1.16,2.021c0.449,0,1.16-0.187,1.469-0.396l0.387,1.813
			c-0.482,0.457-1.881,1.021-3.34,1.021c-2.152,0-2.928-1.081-2.928-3.262V410.744z"/>
		<path fill="#010101" d="M943.325,415.71c0.299,0.246,1.635,0.889,2.963,0.889c1.027,0.009,1.449-0.221,1.449-0.729
			c0-0.547-0.809-0.87-2.172-1.317c-1.846-0.606-2.592-1.627-2.584-3.164c0-1.942,1.873-2.918,4.166-2.918
			c1.637,0,2.77,0.359,3.227,0.614l-0.289,2.285c-0.369-0.315-1.451-0.767-2.418-0.767c-1.125,0-1.529,0.229-1.537,0.688
			c0,0.525,0.482,0.791,2.057,1.282c1.855,0.599,2.771,1.46,2.771,3.016c0,2.083-1.67,3.188-4.23,3.188
			c-1.658,0-3.15-0.466-3.719-0.815L943.325,415.71z"/>
		<path fill="#010101" d="M953.336,403.66h2.936l-0.359,6.616h-2.207L953.336,403.66z"/>
		<path fill="#010101" d="M969.807,408.469c1.354,0,2.451,0.264,2.77,0.501l-0.369,2.442c-0.387-0.222-0.994-0.413-1.961-0.413
			c-1.037,0-2.197,0.599-2.232,2.485c-0.035,2.065,0.994,2.786,2.264,2.786c0.854,0,1.613-0.158,2.049-0.358l0.395,1.837
			c-0.553,0.569-1.854,1.021-3.145,1.021c-3.314,0-4.855-2.162-4.855-5.055C964.717,410.788,966.299,408.469,969.807,408.469z"/>
		<path fill="#010101" d="M979.124,408.469c3.709,0,5.035,2.479,4.992,5.353c-0.045,3.219-2.172,4.948-5.178,4.948
			c-3.709,0-5.035-2.479-5.002-5.354C973.991,410.198,976.118,408.469,979.124,408.469z M980.731,413.671
			c0-1.616-0.404-2.943-1.67-2.943c-1.311,0-1.74,0.967-1.74,2.786c0,1.651,0.422,3.015,1.688,3.015
			C980.292,416.527,980.731,415.587,980.731,413.671z"/>
		<path fill="#010101" d="M986.303,408.608h2.973l0.078,1.072c0.678-0.563,1.959-1.204,3.27-1.23c1.178-0.024,2.014,0.31,2.506,1.16
			c0.564-0.446,1.818-1.169,3.348-1.16c2.018-0.009,3.23,0.925,3.23,3.858v6.318h-3.26v-5.738c0-1.459-0.305-1.898-1.271-1.882
			c-0.615,0-1.203,0.344-1.547,0.643c0.01,0.202,0.021,0.422,0.021,0.644v6.337h-3.234V412.9c0-1.45-0.299-1.906-1.248-1.891
			c-0.467,0-1.17,0.229-1.609,0.648v6.972h-3.252v-10.021H986.303z"/>
		<path fill="#010101" d="M1004.454,408.608h2.971l0.078,1.072c0.678-0.563,1.961-1.204,3.27-1.23c1.184-0.024,2.018,0.31,2.51,1.16
			c0.563-0.446,1.814-1.169,3.35-1.16c2.012-0.009,3.225,0.925,3.225,3.858v6.318h-3.26v-5.738c0-1.459-0.299-1.898-1.266-1.882
			c-0.615,0-1.205,0.344-1.547,0.643c0.008,0.202,0.018,0.422,0.018,0.644v6.337h-3.234V412.9c0-1.45-0.299-1.906-1.248-1.891
			c-0.467,0-1.17,0.229-1.607,0.648v6.972h-3.252v-10.021H1004.454z"/>
		<path fill="#010101" d="M1022.444,408.608h3.262v5.97c0,1.512,0.43,1.854,1.326,1.854c0.605,0,1.195-0.265,1.424-0.467v-7.355
			h3.262v10.16h-2.354c-0.412,0-0.605-0.079-0.605-0.511v-0.422c-0.713,0.545-1.986,0.933-2.918,0.933
			c-2.936,0-3.393-1.803-3.393-4.271v-5.891H1022.444z"/>
		<path fill="#010101" d="M1034.573,408.608h2.971l0.08,1.072c0.746-0.624,2.057-1.214,3.27-1.23
			c2.047-0.044,3.063,0.984,3.063,3.867v6.313h-3.252V412.9c0-1.459-0.324-1.916-1.273-1.891c-0.475,0-1.16,0.229-1.6,0.648v6.972
			h-3.252v-10.021H1034.573z"/>
		<path fill="#010101" d="M1046.518,405.698c0-0.982,0.904-1.811,1.959-1.811c1.064,0,1.793,0.686,1.793,1.679
			c0,0.984-0.879,1.819-1.941,1.819C1047.282,407.387,1046.518,406.684,1046.518,405.698z M1046.667,408.608h3.27v10.021h-3.27
			V408.608z"/>
		<path fill="#010101" d="M1057.17,408.469c1.354,0,2.451,0.264,2.77,0.501l-0.369,2.442c-0.389-0.222-0.994-0.413-1.961-0.413
			c-1.037,0-2.197,0.599-2.232,2.485c-0.035,2.065,0.994,2.786,2.26,2.786c0.855,0,1.617-0.158,2.047-0.358l0.396,1.837
			c-0.553,0.569-1.854,1.021-3.146,1.021c-3.313,0-4.852-2.162-4.852-5.055C1052.081,410.788,1053.663,408.469,1057.17,408.469z"/>
		<path fill="#010101" d="M1063.094,413.029c1.223-0.525,2.838-0.604,4.096-0.604v-0.605c0-0.87-0.324-1.081-1.828-1.081
			c-0.729,0-2.127,0.301-3.023,0.712l-0.658-1.914c0.73-0.438,2.619-1.101,4.402-1.101c3.164,0,4.342,1.021,4.342,3.788v6.548
			h-2.039c-0.668,0-1.023-0.044-1.023-0.914v-0.068c-0.564,0.49-1.449,0.982-2.795,0.982c-1.98,0-3.271-1.336-3.271-3.199
			C1061.292,414.392,1061.987,413.504,1063.094,413.029z M1065.924,416.765c0.52,0,1.08-0.229,1.266-0.422v-2.355
			c-0.633,0.011-1.406,0.143-1.758,0.31c-0.379,0.147-0.783,0.396-0.783,1.105C1064.649,416.352,1065.264,416.765,1065.924,416.765z
			"/>
		<path fill="#010101" d="M1073.307,410.744h-1.16v-1.725c0.879-0.255,1.459-0.448,1.73-1.011c0.203-0.423,0.475-1.146,0.703-1.688
			h1.979v2.285h2.602v2.138h-2.602v3.566c0,1.872,0.264,2.021,1.16,2.021c0.447,0,1.16-0.187,1.467-0.396l0.389,1.813
			c-0.484,0.457-1.881,1.021-3.34,1.021c-2.154,0-2.928-1.081-2.928-3.262V410.744L1073.307,410.744z"/>
		<path fill="#010101" d="M1081.032,405.698c0-0.982,0.904-1.811,1.961-1.811c1.063,0,1.793,0.686,1.793,1.679
			c0,0.984-0.879,1.819-1.943,1.819C1081.797,407.387,1081.032,406.684,1081.032,405.698z M1081.182,408.608h3.27v10.021h-3.27
			V408.608z"/>
		<path fill="#010101" d="M1091.79,408.469c3.709,0,5.037,2.479,4.992,5.353c-0.043,3.219-2.17,4.948-5.178,4.948
			c-3.709,0-5.035-2.479-5-5.354C1086.657,410.198,1088.784,408.469,1091.79,408.469z M1093.397,413.671
			c0-1.616-0.402-2.943-1.67-2.943c-1.309,0-1.738,0.967-1.738,2.786c0,1.651,0.422,3.015,1.688,3.015
			C1092.959,416.527,1093.397,415.587,1093.397,413.671z"/>
		<path fill="#010101" d="M1098.971,408.608h2.971l0.078,1.072c0.748-0.624,2.059-1.214,3.271-1.23
			c2.047-0.044,3.059,0.984,3.059,3.867v6.313h-3.252V412.9c0-1.459-0.326-1.916-1.273-1.891c-0.477,0-1.16,0.229-1.602,0.648v6.972
			h-3.252V408.608L1098.971,408.608z"/>
		<path fill="#010101" d="M1027.059,433.608h2.971l0.078,1.072c0.748-0.624,2.059-1.213,3.271-1.23
			c2.047-0.044,3.059,0.984,3.059,3.867v6.313h-3.252v-5.73c0-1.459-0.324-1.916-1.273-1.89c-0.477,0-1.16,0.229-1.602,0.647v6.973
			h-3.252V433.608L1027.059,433.608z"/>
		<path fill="#010101" d="M1043.53,433.469c2.135,0,4.184,0.853,4.209,4.066c0,0.729-0.043,1.415-0.105,1.849h-5.879
			c0.148,1.492,1.037,2.083,2.504,2.083c0.967,0,2.207-0.246,2.689-0.513l0.502,1.731c-0.66,0.536-2.162,1.081-3.955,1.081
			c-3.234,0-4.992-1.942-4.992-5.194C1038.502,435.656,1040.338,433.469,1043.53,433.469z M1044.725,437.758
			c0.078-1.459-0.271-2.188-1.266-2.188c-0.924,0-1.512,0.527-1.68,2.188H1044.725z"/>
		<path fill="#010101" d="M1050.147,435.742h-1.16v-1.723c0.879-0.255,1.459-0.448,1.73-1.011c0.203-0.422,0.475-1.146,0.703-1.688
			h1.979v2.285H1056v2.136h-2.605v3.568c0,1.872,0.268,2.021,1.16,2.021c0.447,0,1.16-0.186,1.473-0.396l0.387,1.811
			c-0.484,0.457-1.881,1.021-3.34,1.021c-2.154,0-2.932-1.081-2.932-3.261v-4.765L1050.147,435.742L1050.147,435.742z"/>
		<path fill="#010101" d="M1056.608,433.608h3.172l1.027,4.052l0.537,2.628l0.605-2.628l1.188-4.052h2.926l1.18,4.052l0.57,2.628
			l0.527-2.637l0.949-4.043h3.02l-3.152,10.16h-2.855l-1.459-4.931l-0.379-1.884l-0.387,1.884l-1.406,4.931h-2.943L1056.608,433.608
			z"/>
		<path fill="#010101" d="M1078.237,433.469c3.709,0,5.037,2.479,4.992,5.353c-0.045,3.217-2.172,4.948-5.178,4.948
			c-3.709,0-5.035-2.479-5-5.354C1073.104,435.198,1075.231,433.469,1078.237,433.469z M1079.846,438.672
			c0-1.617-0.404-2.944-1.67-2.944c-1.311,0-1.74,0.967-1.74,2.786c0,1.651,0.422,3.015,1.688,3.015
			C1079.407,441.527,1079.846,440.588,1079.846,438.672z"/>
		<path fill="#010101" d="M1085.331,433.608h2.855l0.141,1.608c0.414-1.021,1.529-1.77,2.883-1.77c0.291,0,0.598,0.035,0.73,0.123
			v3.208c-0.166-0.097-0.477-0.235-1.07-0.235c-1.205,0-1.898,0.534-2.277,0.947v6.137h-3.26v-10.02L1085.331,433.608
			L1085.331,433.608z"/>
		<path fill="#010101" d="M1093.874,429.029h3.26v5.528l-0.104,2.742l2.986-3.691h3.701l-3.561,3.876l3.797,6.146h-3.611
			l-2.285-3.867l-0.949,1.025l0.025,1.181v1.661h-3.26V429.029L1093.874,429.029z"/>
		<path fill="#010101" d="M1106.811,439.972c1.107,0,1.793,0.791,1.793,1.846c0.01,1.063-0.836,2.004-1.941,2.004
			c-1.082,0-1.813-0.8-1.82-1.854C1104.842,440.91,1105.704,439.972,1106.811,439.972z"/>
	</g>
</g>
</svg>
