<?xml version="1.0" encoding="utf-8"?>
<!-- Generator: Adobe Illustrator 16.0.0, SVG Export Plug-In . SVG Version: 6.00 Build 0)  -->
<!DOCTYPE svg PUBLIC "-//W3C//DTD SVG 1.1//EN" "http://www.w3.org/Graphics/SVG/1.1/DTD/svg11.dtd">
<svg version="1.1" id="Layer_1" xmlns="http://www.w3.org/2000/svg" xmlns:xlink="http://www.w3.org/1999/xlink" x="0px" y="0px"
	 width="1024px" height="768.002px" viewBox="0 0 1024 768.002" enable-background="new 0 0 1024 768.002" xml:space="preserve">
<g id="fotoc">
	<g>
		<g>
			<g>
				<g>
					<g>
						<g>
							<g>
								<defs>
									<rect id="SVGID_1_" x="-170.916" y="-0.001" width="683" height="768"/>
								</defs>
								<clipPath id="SVGID_2_">
									<use xlink:href="#SVGID_1_"  overflow="visible"/>
								</clipPath>
								<g clip-path="url(#SVGID_2_)">
									
										<image overflow="visible" enable-background="new    " width="960" height="1440" xlink:href="2_1a.jpg"  transform="matrix(0.7115 0 0 0.7115 -170.9189 -0.0017)">
									</image>
								</g>
							</g>
						</g>
					</g>
				</g>
			</g>
		</g>
	</g>
	<g>
		<g>
			<g>
				<g>
					<g>
						<g>
							<g>
								<defs>
									<rect id="SVGID_3_" x="511.917" y="0" width="683" height="768.002"/>
								</defs>
								<clipPath id="SVGID_4_">
									<use xlink:href="#SVGID_3_"  overflow="visible"/>
								</clipPath>
								<g clip-path="url(#SVGID_4_)">
									
										<image overflow="visible" enable-background="new    " width="960" height="1440" xlink:href="2_2.jpg"  transform="matrix(0.7109 0 0 0.7109 512.5879 0.7097)">
									</image>
								</g>
							</g>
						</g>
					</g>
				</g>
			</g>
		</g>
	</g>
</g>
<g id="fotog" display="none">
	<g display="inline">
		<g>
			<g>
				<g>
					<g>
						<g>
							<g>
								<defs>
									<rect id="SVGID_5_" x="-170.916" y="-0.001" width="683" height="768"/>
								</defs>
								<clipPath id="SVGID_6_">
									<use xlink:href="#SVGID_5_"  overflow="visible"/>
								</clipPath>
								<g clip-path="url(#SVGID_6_)">
									
										<image overflow="visible" enable-background="new    " width="960" height="1440" xlink:href="2_1b.jpg"  transform="matrix(0.7115 0 0 0.7115 -170.9189 -0.0017)">
									</image>
								</g>
							</g>
						</g>
					</g>
				</g>
			</g>
		</g>
	</g>
</g>
<g id="testi_fissi">
	<rect x="80.917" y="96.333" fill="#FFFFFF" width="223.469" height="24.965"/>
	<rect x="80.917" y="121.298" fill="#FFFFFF" width="260.136" height="24.965"/>
	<g>
		<g>
			<rect x="390.417" y="359.08" fill="#FFFFFF" width="245.498" height="39.247"/>
		</g>
		<g>
			<rect x="443.971" y="393.652" fill="#FFFFFF" width="138.396" height="39.247"/>
		</g>
		<g>
			<rect x="399.751" y="428.986" fill="#FFFFFF" width="226.83" height="39.247"/>
		</g>
		<g>
			<path fill="#010101" d="M400.062,367.981h2.197l2.145,16.06l0.586,3.926l1.26-3.794l5.156-12.876l-0.337-3.313h2.104l1.599,16.06
				l0.297,3.926l1.444-3.794l6.489-16.188h2.229l-9.479,22.563h-2.256l-1.304-12.603l-0.27-3.457l-1.229,3.457l-4.98,12.603h-2.271
				L400.062,367.981z"/>
			<path fill="#010101" d="M425.447,381.414c-0.146-7.777,4.351-13.687,10.269-13.687c4.702,0,7.046,4.175,7.134,9.243
				c0.133,7.632-4.115,13.667-10.181,13.667C428.025,390.643,425.55,386.656,425.447,381.414z M440.55,377.386
				c-0.088-5.156-1.758-7.896-5.186-7.896c-4.482,0-7.705,5.361-7.617,11.484c0.073,5.36,1.948,7.969,5.273,7.969
				C437.518,388.943,440.667,383.67,440.55,377.386z"/>
			<path fill="#010101" d="M446.424,381.707l1.743-13.729h2.197l-1.688,13.35c-0.132,1.055-0.188,1.963-0.176,2.798
				c0.06,2.939,1.538,4.717,4.614,4.717c3.589,0,5.625-2.123,6.354-7.821l1.646-13.037h2.147l-1.67,13.229
				c-0.894,6.914-3.75,9.435-8.789,9.435c-4.271,0-6.483-2.389-6.563-6.432C446.233,383.45,446.321,382.571,446.424,381.707z"/>
			<path fill="#010101" d="M468.514,367.981h2.197l-2.593,20.565l8.687-0.063l-0.229,1.904h-10.89L468.514,367.981z"/>
			<path fill="#010101" d="M482.84,367.981h1.274c1.421-0.016,3.223-0.229,4.702-0.229c5.962,0,8.358,3.706,8.438,9.142
				c0.104,7.749-4.481,13.916-11.367,13.739c-0.41-0.02-1.201-0.063-1.655-0.104c-0.653-0.06-2.271-0.132-3.091-0.132h-1.128
				L482.84,367.981z M486.414,388.943c5.742-0.132,8.613-6.021,8.555-11.88c-0.073-5.332-1.948-7.676-6.782-7.676
				c-1.011,0-2.432,0.146-3.363,0.277l-2.373,18.896C483.616,388.768,485.198,388.973,486.414,388.943z"/>
			<path fill="#010101" d="M510.467,367.981h2.211l-2.827,22.412h-2.212L510.467,367.981z"/>
			<path fill="#010101" d="M522.522,369.607l-6.605,0.132l0.248-1.758h15.293l-0.248,1.758l-6.49-0.132l-2.621,20.786h-2.192
				L522.522,369.607z"/>
			<path fill="#010101" d="M547.616,367.981h2.461l4.229,22.412h-2.192L551,384.08h-8.994l-2.942,6.313h-2.354L547.616,367.981z
				 M550.706,382.396l-1.889-10.752l-0.226-1.686l-0.807,1.743l-4.994,10.688L550.706,382.396L550.706,382.396z"/>
			<path fill="#010101" d="M560.563,367.981h2.192l-2.592,20.565l8.688-0.063l-0.23,1.904h-10.885L560.563,367.981z"/>
			<path fill="#010101" d="M574.891,367.981h2.197l-2.594,20.565l8.688-0.063l-0.229,1.904h-10.883L574.891,367.981z"/>
			<path fill="#010101" d="M596.321,367.981h1.201c1.377-0.016,2.821-0.229,4.315-0.229c5.068,0,6.521,2.329,6.564,4.806
				c0.059,3.192-1.816,5.316-4.689,6.122c2.461,0.278,4.527,2.008,4.57,4.541c0.088,5.313-4.203,7.384-9.857,7.384
				c-1.129,0-2.871-0.205-3.912-0.205h-1.021L596.321,367.981z M598.915,389.017c3.939,0,7.074-1.393,7.031-5.537
				c-0.045-2.622-2.058-3.911-5.06-3.911c-2.036,0-3.092,0.044-3.838,0.088l-1.143,9.082
				C596.526,388.914,598.329,389.017,598.915,389.017z M600.686,377.986c3.076,0,5.558-1.831,5.515-5.187
				c-0.029-2.229-1.334-3.521-4.863-3.521c-0.438,0-2.096,0.093-3.004,0.19l-1.068,8.511
				C598.299,378.03,599.631,377.986,600.686,377.986z"/>
			<path fill="#010101" d="M614.485,367.981h11.069l-0.088,1.758l-8.994-0.103l-1.063,8.479l6.938-0.088l-0.131,1.86l-7.018-0.161
				l-1.146,8.994l10.795-0.19l-0.156,1.86h-13.035L614.485,367.981z"/>
			<path fill="#010101" d="M454.021,402.981h1.288c1.611,0,2.915-0.229,4.497-0.229c4.233,0,6.642,1.813,6.694,5.693
				c0.103,5.762-3.662,9.243-8.994,9.243c-1.362,0-2.666-0.146-3.104-0.205l-1.017,7.91h-2.191L454.021,402.981z M457.579,415.945
				c4.38-0.024,6.636-2.622,6.693-7.295c0.024-2.778-1.558-4.248-4.81-4.248c-0.938,0-2.44,0.161-3.472,0.293l-1.377,11.001
				C455.221,415.813,456.656,415.96,457.579,415.945z"/>
			<path fill="#010101" d="M468.346,416.414c-0.146-7.777,4.354-13.687,10.271-13.687c4.702,0,7.046,4.175,7.134,9.243
				c0.132,7.632-4.116,13.667-10.181,13.667C470.924,425.643,468.448,421.656,468.346,416.414z M483.448,412.386
				c-0.088-5.156-1.758-7.896-5.188-7.896c-4.479,0-7.705,5.361-7.616,11.484c0.072,5.361,1.947,7.969,5.272,7.969
				C480.416,423.943,483.565,418.67,483.448,412.386z"/>
			<path fill="#010101" d="M487.931,422.522c0.563,0.586,2.799,1.377,4.922,1.377c2.695,0,5.244-1.157,5.244-3.979
				c0-2.036-1.271-3.34-3.56-4.818c-2.168-1.406-4.849-3.191-4.907-6.563c-0.073-3.682,2.856-5.806,6.709-5.806
				c2.9,0,4.365,0.747,5.068,1.245l-0.703,1.699c-0.835-0.835-2.637-1.245-4.219-1.245c-1.808,0-4.562,0.586-4.646,3.529
				c-0.073,2.666,1.626,3.81,3.999,5.376c2.08,1.362,4.497,2.988,4.558,6.035c0.071,4.132-3.233,6.256-7.59,6.256
				c-2.484,0-4.834-0.768-5.487-1.31L487.931,422.522z"/>
			<path fill="#010101" d="M503.224,422.522c0.563,0.586,2.804,1.377,4.922,1.377c2.695,0,5.244-1.157,5.244-3.979
				c0-2.036-1.271-3.34-3.559-4.818c-2.168-1.406-4.849-3.191-4.907-6.563c-0.073-3.682,2.856-5.806,6.709-5.806
				c2.9,0,4.365,0.747,5.068,1.245l-0.703,1.699c-0.834-0.835-2.637-1.245-4.218-1.245c-1.808,0-4.562,0.586-4.646,3.529
				c-0.071,2.666,1.626,3.81,3.999,5.376c2.081,1.362,4.497,2.988,4.562,6.035c0.067,4.132-3.238,6.256-7.594,6.256
				c-2.484,0-4.834-0.768-5.487-1.31L503.224,422.522z"/>
			<path fill="#010101" d="M522.428,402.981h2.211l-2.825,22.412H519.6L522.428,402.981z"/>
			<path fill="#010101" d="M530.456,402.981h1.201c1.377-0.016,2.826-0.229,4.315-0.229c5.068,0,6.521,2.329,6.563,4.806
				c0.059,3.192-1.816,5.316-4.688,6.122c2.462,0.278,4.525,2.008,4.57,4.541c0.088,5.313-4.205,7.384-9.854,7.384
				c-1.132,0-2.869-0.205-3.91-0.205h-1.025L530.456,402.981z M533.047,424.017c3.941,0,7.076-1.393,7.031-5.537
				c-0.043-2.622-2.051-3.911-5.053-3.911c-2.037,0-3.097,0.044-3.845,0.088l-1.143,9.082
				C530.661,423.909,532.461,424.017,533.047,424.017z M534.821,412.986c3.069,0,5.551-1.831,5.508-5.187
				c-0.029-2.229-1.334-3.521-4.863-3.521c-0.438,0-2.096,0.093-3.004,0.19l-1.068,8.511
				C532.432,413.03,533.766,412.986,534.821,412.986z"/>
			<path fill="#010101" d="M548.62,402.981h2.197l-2.599,20.566l8.688-0.063l-0.234,1.904h-10.885L548.62,402.981z"/>
			<path fill="#010101" d="M562.946,402.981h11.067l-0.088,1.758l-8.994-0.103l-1.063,8.479l6.938-0.088l-0.133,1.86l-7.016-0.161
				l-1.146,8.994l10.797-0.19l-0.155,1.86h-13.037L562.946,402.981z"/>
			<path fill="#010101" d="M406.813,437.981h5.229l0.864,14.355l0.293,3.252l0.996-3.252l3.765-9.396l-0.527-4.966h5.06
				l0.879,14.354l0.337,3.257l0.776-3.257l4.893-14.354h5.332l-8.716,22.412h-6.05l-0.835-7.998l-0.27-2.446l-0.894,2.446
				l-2.936,7.998h-5.487L406.813,437.981z"/>
			<path fill="#010101" d="M436.448,437.981h5.186l-3.208,22.412h-5.186L436.448,437.981z"/>
			<path fill="#010101" d="M449.397,441.849l-5.265,0.161l0.646-4.028h15.63l-0.586,4.028l-5.156-0.161l-2.65,18.545h-5.271
				L449.397,441.849z"/>
			<path fill="#010101" d="M463.123,437.981h5.186l-1.392,9.728h7.061l1.396-9.728h5.244l-3.208,22.412h-5.244l1.304-9.111h-7.061
				l-1.31,9.111h-5.186L463.123,437.981z"/>
			<path fill="#010101" d="M493.035,437.742c5.303,0,7.954,4.02,7.954,8.789c0,7.636-4.104,14.098-10.934,14.098
				c-5.399,0-8.086-3.94-8.086-8.701C481.976,444.28,486.121,437.742,493.035,437.742z M495.657,446.697
				c0-3.882-1.113-5.054-3.185-5.054c-3.267,0-5.171,5.552-5.171,10.02c0,3.888,1.113,5.068,3.164,5.068
				C493.738,456.731,495.657,451.312,495.657,446.697z"/>
			<path fill="#010101" d="M503.304,451.648l1.948-13.667h5.171l-1.846,13.008c-0.146,1.069-0.161,1.979-0.161,2.813
				c0.015,2.197,0.791,2.854,2.899,2.854c2.388,0,3.526-1.229,4.175-5.552l1.854-13.125h5.156l-1.904,13.667
				c-0.901,6.489-3.852,8.979-10.072,8.979c-5.112,0-7.397-2.521-7.412-6.563C503.099,453.304,503.172,452.513,503.304,451.648z"/>
			<path fill="#010101" d="M529.774,441.849l-5.265,0.161l0.646-4.028h15.631l-0.586,4.028l-5.156-0.161l-2.65,18.545h-5.271
				L529.774,441.849z"/>
			<path fill="#010101" d="M553.768,441.849l-5.26,0.161l0.646-4.028h15.63l-0.586,4.028l-5.156-0.161l-2.65,18.545h-5.271
				L553.768,441.849z"/>
			<path fill="#010101" d="M575.432,437.742c5.31,0,7.955,4.02,7.955,8.789c0,7.636-4.102,14.098-10.928,14.098
				c-5.406,0-8.086-3.94-8.086-8.701C564.374,444.28,568.518,437.742,575.432,437.742z M578.055,446.697
				c0-3.882-1.108-5.054-3.18-5.054c-3.266,0-5.17,5.552-5.17,10.02c0,3.888,1.113,5.068,3.164,5.068
				C576.135,456.731,578.055,451.312,578.055,446.697z"/>
			<path fill="#010101" d="M588.075,437.981h2.959c1.742,0,2.313-0.234,4.229-0.234c5.851,0,8.027,2.101,8.027,5.763
				c0,3.354-1.305,6.431-4.791,7.5c0.82,0.688,1.568,2.139,2.064,4.014c1.241,3.838,1.467,4.556,2.032,5.376h-5.737
				c-0.365-0.527-0.562-1.787-1.273-4.479c-0.631-2.563-1.51-3.908-1.979-3.908h-2.304l-1.244,8.394h-5.186L588.075,437.981z
				 M594.709,448.016c2.799,0,3.59-2.521,3.531-4.263c-0.074-1.896-1.289-2.402-3.478-2.402c-0.688,0-1.582,0.073-2.008,0.146
				l-0.908,6.479C592.646,448.016,594.094,448.016,594.709,448.016z"/>
			<path fill="#010101" d="M606.809,450.032c0-1.737,0.66-2.854,3.691-4.359c2.271-1.017,3.414-1.948,3.824-2.607
				c0.102-0.293,0.336-1.128,0.336-1.859c0-1.642-1.699-3.048-4.453-3.048c-1.055,0-1.992,0.073-3.031,0.337l0.82-3.363
				c0.498-0.439,1.992-0.776,3.146-0.776c5.697,0,8.224,2.725,8.224,6.313c0,7.104-8.658,6.684-8.658,10.212
				c0,0.699,0.498,1.402,0.602,1.771l-2.44,0.967l-0.25-0.015C607.747,452.991,606.809,451.385,606.809,450.032z M611.35,455.442
				c1.73,0,2.359,1.011,2.359,2.183c0,1.925-1.229,3.193-3.121,3.193c-1.42,0-2.285-0.923-2.285-2.227
				C608.303,456.948,609.461,455.442,611.35,455.442z"/>
		</g>
	</g>
	<g>
		<g>
			<rect x="443.971" y="301.291" fill="#010101" width="135.896" height="47.789"/>
		</g>
		<g>
			<path fill="#FFFFFF" d="M455.5,308.017h8.042l-0.395,2.58l-4.691-0.037l-0.498,3.489l4.017-0.056l-0.338,2.729l-4.054-0.063
				l-0.816,5.715h-3.316L455.5,308.017z"/>
			<path fill="#FFFFFF" d="M465.633,308.017h1.896c1.116,0,1.479-0.146,2.712-0.146c3.744,0,5.143,1.342,5.143,3.688
				c0,2.148-0.835,4.119-3.063,4.805c0.521,0.441,1.004,1.37,1.317,2.571c0.799,2.459,0.938,2.919,1.31,3.443h-3.684
				c-0.229-0.338-0.354-1.146-0.813-2.871c-0.404-1.646-0.967-2.506-1.271-2.506h-1.473l-0.798,5.377h-3.322L465.633,308.017z
				 M469.884,314.444c1.792,0,2.299-1.609,2.262-2.729c-0.048-1.211-0.821-1.539-2.225-1.539c-0.441,0-1.013,0.048-1.286,0.095
				l-0.582,4.146C468.562,314.444,469.49,314.444,469.884,314.444z"/>
			<path fill="#FFFFFF" d="M478.265,308.017h8.577l-0.347,2.58l-5.274-0.02l-0.445,3.157l3.932-0.047l-0.338,2.591l-3.951-0.085
				l-0.516,3.646l5.938-0.094l-0.347,2.628h-9.281L478.265,308.017z"/>
			<path fill="#FFFFFF" d="M489.572,308.017h8.577l-0.353,2.58l-5.271-0.02l-0.451,3.157l3.932-0.047l-0.338,2.591l-3.951-0.085
				l-0.516,3.646l5.938-0.094l-0.347,2.628h-9.281L489.572,308.017z"/>
			<path fill="#FFFFFF" d="M500.88,308.017h1.464c0.797,0,2.771-0.146,3.631-0.146c3.976,0,5.453,2.337,5.453,5.762
				c0,4.646-2.553,8.896-7.938,8.896c-0.353,0-0.826-0.023-1.354-0.063c-0.646-0.037-1.37-0.084-1.961-0.084h-1.351L500.88,308.017z
				 M503.958,320.094c2.77,0,4.054-2.976,4.054-6.514c0-2.607-0.854-3.271-2.722-3.271c-0.395,0-1.061,0.047-1.436,0.122
				l-1.354,9.459C502.878,320.019,503.385,320.094,503.958,320.094z"/>
			<path fill="#FFFFFF" d="M519.217,307.865c3.398,0,5.097,2.571,5.097,5.636c0,4.89-2.628,9.022-7,9.022
				c-3.464,0-5.181-2.521-5.181-5.572C512.132,312.052,514.788,307.865,519.217,307.865z M520.897,313.6
				c0-2.486-0.72-3.237-2.035-3.237c-2.101,0-3.314,3.562-3.314,6.419c0,2.486,0.713,3.247,2.027,3.247
				C519.668,320.028,520.897,316.556,520.897,313.6z"/>
			<path fill="#FFFFFF" d="M528.247,308.017h4.832l0.639,9.881l0.062,2.111l0.444-2.111l3.332-9.881h4.854l-0.229,14.356h-3.313
				l0.834-10.688l0.254-2.196l-0.693,2.196l-4.102,10.717l-3.65,0.146l-1.127-10.856l-0.018-2.192l-0.451,2.192l-2.326,10.688
				h-3.273L528.247,308.017z"/>
			<path fill="#FFFFFF" d="M555.536,307.865c3.395,0,5.094,2.571,5.094,5.636c0,4.89-2.627,9.022-7,9.022
				c-3.463,0-5.18-2.521-5.18-5.572C548.45,312.052,551.104,307.865,555.536,307.865z M557.215,313.6
				c0-2.486-0.715-3.237-2.037-3.237c-2.092,0-3.313,3.562-3.313,6.419c0,2.486,0.713,3.247,2.021,3.247
				C555.985,320.028,557.215,316.556,557.215,313.6z"/>
			<path fill="#FFFFFF" d="M563.653,308.017h8.043l-0.396,2.58l-4.688-0.037l-0.498,3.489l4.016-0.056l-0.338,2.729l-4.053-0.063
				l-0.816,5.715h-3.322L563.653,308.017z"/>
			<path fill="#FFFFFF" d="M458.251,327.251h8.577l-0.349,2.58l-5.272-0.021l-0.451,3.162l3.938-0.047l-0.344,2.591l-3.945-0.085
				l-0.521,3.641l5.94-0.094l-0.353,2.628h-9.275L458.251,327.251z"/>
			<path fill="#FFFFFF" d="M471.182,334.026l-3.012-6.771h3.566l1.661,4.626l2.975-4.626h3.623l-5.105,7.46l3.256,6.896
				l-3.622,0.015l-1.887-4.982l-3.021,4.975H465.9L471.182,334.026z"/>
			<path fill="#FFFFFF" d="M481.232,327.251h1.464c0.729,0,1.839-0.149,3.087-0.149c3.228,0,5.039,1.37,5.048,4.119
				c0.009,3.199-2.177,5.817-6.156,5.817c-0.657,0-1.333-0.021-1.511-0.021l-0.657,4.589h-3.322L481.232,327.251z M484.733,334.552
				c1.802,0,2.712-1.117,2.819-3.041c0.075-1.343-0.498-2.103-2.374-2.103c-0.238,0-0.667,0.047-0.938,0.094l-0.729,4.937
				C483.748,334.505,484.283,334.552,484.733,334.552z"/>
			<path fill="#FFFFFF" d="M493.423,327.251h1.896c1.111,0,1.479-0.149,2.712-0.149c3.744,0,5.143,1.342,5.143,3.688
				c0,2.146-0.835,4.12-3.069,4.806c0.525,0.44,1.01,1.369,1.323,2.57c0.798,2.459,0.938,2.919,1.31,3.439h-3.684
				c-0.229-0.338-0.354-1.146-0.813-2.871c-0.404-1.643-0.967-2.506-1.271-2.506h-1.473l-0.798,5.377h-3.322L493.423,327.251z
				 M497.674,333.679c1.792,0,2.299-1.614,2.261-2.73c-0.047-1.211-0.82-1.534-2.224-1.534c-0.44,0-1.013,0.047-1.286,0.094
				l-0.582,4.146C496.351,333.679,497.28,333.679,497.674,333.679z"/>
			<path fill="#FFFFFF" d="M506.055,327.251h8.577l-0.346,2.58l-5.275-0.021l-0.451,3.162l3.938-0.047l-0.338,2.591l-3.951-0.085
				l-0.516,3.641l5.938-0.094l-0.346,2.628h-9.282L506.055,327.251z"/>
			<path fill="#FFFFFF" d="M515.711,338.155c0.59,0.46,1.801,0.947,2.748,0.947c1.418,0,1.896-0.639,1.916-1.437
				c0.018-0.826-0.414-1.31-1.766-2.327c-1.146-0.862-2.402-2.204-2.402-3.95c0-2.618,1.99-4.288,5.012-4.288
				c1.646,0,2.9,0.45,3.394,0.798l-1.058,2.642c-0.432-0.437-1.479-0.815-2.43-0.815c-1.211,0-1.736,0.618-1.746,1.284
				c-0.018,0.893,0.76,1.539,1.793,2.354c1.107,0.886,2.604,2.145,2.604,3.951c0,2.928-2.217,4.447-5.476,4.447
				c-1.475,0-3.28-0.554-3.717-0.9L515.711,338.155z"/>
			<path fill="#FFFFFF" d="M525.647,338.155c0.592,0.46,1.803,0.947,2.75,0.947c1.416,0,1.895-0.639,1.909-1.437
				c0.021-0.826-0.409-1.31-1.764-2.327c-1.146-0.862-2.4-2.204-2.4-3.95c0-2.618,1.986-4.288,5.015-4.288
				c1.641,0,2.896,0.45,3.387,0.798l-1.051,2.642c-0.435-0.437-1.482-0.815-2.435-0.815c-1.213,0-1.731,0.618-1.741,1.284
				c-0.021,0.893,0.76,1.539,1.791,2.354c1.104,0.886,2.6,2.145,2.6,3.951c0,2.928-2.215,4.447-5.471,4.447
				c-1.478,0-3.283-0.554-3.72-0.9L525.647,338.155z"/>
			<path fill="#FFFFFF" d="M537.479,327.251h3.32l-2.057,14.354h-3.322L537.479,327.251z"/>
			<path fill="#FFFFFF" d="M548.838,327.101c3.396,0,5.096,2.57,5.096,5.631c0,4.894-2.627,9.027-7,9.027
				c-3.463,0-5.182-2.524-5.182-5.574C541.752,331.286,544.409,327.101,548.838,327.101z M550.518,332.834
				c0-2.485-0.713-3.236-2.03-3.236c-2.099,0-3.314,3.557-3.314,6.419c0,2.485,0.715,3.247,2.027,3.247
				C549.29,339.263,550.518,335.79,550.518,332.834z"/>
			<path fill="#FFFFFF" d="M556.958,327.251h2.881l3.34,7.433l0.742,2.439l0.121-2.439l0.91-7.433h3.209l-2.062,14.354h-2.78
				l-3.271-7.813l-0.928-2.58l0.025,2.58l-1.076,7.813h-3.174L556.958,327.251z"/>
		</g>
	</g>
	<rect x="682.751" y="399.334" fill="#FFFFFF" width="260.826" height="24.967"/>
	<rect x="846.146" y="424.302" fill="#FFFFFF" width="97.438" height="24.963"/>
	<g>
		<path fill="#010101" d="M86.573,101.695h3.401v10.854h4.412v2.521h-7.813V101.695z"/>
		<path fill="#010101" d="M100.688,104.912c2.136,0,4.184,0.854,4.21,4.064c0,0.729-0.044,1.415-0.105,1.851h-5.88
			c0.149,1.489,1.037,2.083,2.505,2.083c0.967,0,2.206-0.246,2.689-0.515l0.501,1.73c-0.659,0.536-2.162,1.081-3.955,1.081
			c-3.234,0-4.992-1.941-4.992-5.193C95.661,107.101,97.498,104.912,100.688,104.912z M101.884,109.201
			c0.079-1.459-0.272-2.188-1.266-2.188c-0.923,0-1.512,0.526-1.679,2.188H101.884z"/>
		<path fill="#010101" d="M108.194,109.474c1.222-0.527,2.839-0.604,4.096-0.604v-0.605c0-0.87-0.325-1.081-1.828-1.081
			c-0.729,0-2.127,0.299-3.023,0.712l-0.659-1.916c0.729-0.438,2.619-1.1,4.403-1.1c3.164,0,4.342,1.021,4.342,3.788v6.548h-2.039
			c-0.668,0-1.028-0.044-1.028-0.914v-0.069c-0.563,0.492-1.45,0.983-2.795,0.983c-1.978,0-3.27-1.336-3.27-3.198
			C106.393,110.836,107.087,109.948,108.194,109.474z M111.024,113.209c0.519,0,1.081-0.229,1.266-0.422v-2.354
			c-0.633,0.009-1.406,0.141-1.758,0.308c-0.378,0.149-0.782,0.396-0.782,1.107C109.75,112.796,110.365,113.209,111.024,113.209z"/>
		<path fill="#010101" d="M118.144,100.474h3.261v5.527l-0.105,2.742l2.988-3.69h3.7l-3.563,3.876l3.797,6.144h-3.612l-2.285-3.862
			l-0.949,1.023l0.026,1.183v1.656h-3.261L118.144,100.474L118.144,100.474z"/>
		<path fill="#010101" d="M133.832,104.912c2.136,0,4.184,0.854,4.21,4.064c0,0.729-0.044,1.415-0.105,1.851h-5.88
			c0.149,1.489,1.037,2.083,2.505,2.083c0.972,0,2.206-0.246,2.689-0.515l0.501,1.73c-0.659,0.536-2.162,1.081-3.955,1.081
			c-3.234,0-4.992-1.941-4.992-5.193C128.805,107.101,130.642,104.912,133.832,104.912z M135.027,109.201
			c0.079-1.459-0.272-2.188-1.271-2.188c-0.923,0-1.512,0.526-1.679,2.188H135.027z"/>
		<path fill="#010101" d="M139.536,110.405c0-3.393,2.039-5.488,5.104-5.488c0.703,0,1.271,0.109,1.652,0.246l-0.026-1.072v-3.621
			h3.252v14.748h-2.491c-0.325,0-0.483-0.176-0.483-0.479v-0.698c-0.448,0.443-1.354,1.178-3.032,1.178
			C141.373,115.213,139.536,113.656,139.536,110.405z M146.269,112.321v-4.878c-0.271-0.202-0.791-0.276-1.366-0.276
			c-1.146,0-1.942,1.021-1.951,3.085c-0.01,1.872,0.642,2.526,1.679,2.526C145.249,112.778,145.917,112.559,146.269,112.321z"/>
		<path fill="#010101" d="M158.318,105.053h2.971l0.079,1.071c0.747-0.624,2.057-1.213,3.27-1.229
			c2.048-0.044,3.063,0.983,3.063,3.867v6.311h-3.252v-5.729c0-1.46-0.325-1.916-1.274-1.891c-0.475,0-1.16,0.229-1.6,0.646v6.97
			h-3.252L158.318,105.053L158.318,105.053z"/>
		<path fill="#010101" d="M174.789,104.912c2.136,0,4.184,0.854,4.21,4.064c0,0.729-0.044,1.415-0.105,1.851h-5.88
			c0.149,1.489,1.037,2.083,2.505,2.083c0.972,0,2.206-0.246,2.689-0.515l0.501,1.73c-0.659,0.536-2.162,1.081-3.955,1.081
			c-3.234,0-4.992-1.941-4.992-5.193C169.762,107.101,171.599,104.912,174.789,104.912z M175.984,109.201
			c0.079-1.459-0.272-2.188-1.271-2.188c-0.923,0-1.512,0.526-1.679,2.188H175.984z"/>
		<path fill="#010101" d="M179.729,105.053h3.178l1.023,4.052l0.536,2.628l0.606-2.628l1.187-4.052h2.927l1.183,4.052l0.566,2.628
			l0.527-2.637l0.949-4.043h3.021l-3.15,10.159h-2.856l-1.459-4.936l-0.378-1.881l-0.387,1.881l-1.406,4.936h-2.944L179.729,105.053
			z"/>
		<path fill="#010101" d="M196.674,112.154c0.299,0.246,1.635,0.893,2.962,0.893c1.028,0.01,1.45-0.225,1.45-0.729
			c0-0.545-0.809-0.87-2.171-1.313c-1.846-0.605-2.593-1.626-2.584-3.164c0-1.941,1.872-2.918,4.166-2.918
			c1.635,0,2.769,0.355,3.226,0.61l-0.29,2.285c-0.364-0.313-1.445-0.766-2.417-0.766c-1.125,0-1.524,0.229-1.538,0.687
			c0,0.527,0.483,0.791,2.062,1.283c1.854,0.601,2.769,1.459,2.769,3.019c0,2.082-1.67,3.188-4.228,3.188
			c-1.661,0-3.155-0.467-3.718-0.815L196.674,112.154z"/>
		<path fill="#010101" d="M213.452,109.474c1.222-0.527,2.839-0.604,4.096-0.604v-0.605c0-0.87-0.325-1.081-1.828-1.081
			c-0.729,0-2.127,0.299-3.021,0.712l-0.659-1.916c0.729-0.438,2.619-1.1,4.403-1.1c3.161,0,4.342,1.021,4.342,3.788v6.548h-2.039
			c-0.668,0-1.028-0.044-1.028-0.914v-0.069c-0.563,0.492-1.45,0.983-2.795,0.983c-1.978,0-3.27-1.336-3.27-3.198
			C211.65,110.836,212.345,109.948,213.452,109.474z M216.282,113.209c0.519,0,1.081-0.229,1.266-0.422v-2.354
			c-0.633,0.009-1.406,0.141-1.758,0.308c-0.378,0.149-0.782,0.396-0.782,1.107C215.008,112.796,215.623,113.209,216.282,113.209z"
			/>
		<path fill="#010101" d="M223.401,100.474h3.261v3.611l-0.07,1.837c0.492-0.447,1.354-1.011,2.83-1.011
			c2.136,0,3.973,1.524,3.973,4.776c0,3.396-2.092,5.563-5.309,5.563c-2.101,0-4.438-0.545-4.685-0.747V100.474L223.401,100.474z
			 M228.033,113.068c1.116,0,1.951-1.144,1.96-3.182c0.009-1.986-0.694-2.559-1.688-2.559c-0.686,0-1.336,0.29-1.644,0.522v4.913
			C226.847,112.98,227.33,113.068,228.033,113.068z"/>
		<path fill="#010101" d="M240.083,104.912c3.709,0,5.036,2.479,4.992,5.354c-0.044,3.217-2.171,4.947-5.178,4.947
			c-3.713,0-5.035-2.479-5-5.354C234.95,106.644,237.077,104.912,240.083,104.912z M241.691,110.115
			c0-1.612-0.404-2.939-1.675-2.939c-1.31,0-1.735,0.968-1.735,2.786c0,1.647,0.422,3.016,1.688,3.016
			C241.252,112.972,241.691,112.031,241.691,110.115z"/>
		<path fill="#010101" d="M247.104,105.053h3.266v5.968c0,1.517,0.431,1.854,1.327,1.854c0.604,0,1.19-0.269,1.424-0.466v-7.355
			h3.261v10.159h-2.354c-0.412,0-0.605-0.079-0.605-0.51v-0.427c-0.712,0.55-1.986,0.937-2.918,0.937
			c-2.936,0-3.393-1.802-3.393-4.271v-5.889H247.104z"/>
		<path fill="#010101" d="M259.463,107.188h-1.16v-1.724c0.879-0.255,1.459-0.447,1.731-1.011c0.202-0.427,0.475-1.146,0.703-1.688
			h1.978v2.285h2.604v2.136h-2.604v3.567c0,1.872,0.265,2.021,1.16,2.021c0.448,0,1.16-0.186,1.468-0.396l0.387,1.812
			c-0.479,0.457-1.881,1.021-3.34,1.021c-2.148,0-2.927-1.081-2.927-3.266V107.188L259.463,107.188z"/>
		<path fill="#010101" d="M86.714,132.188h-1.16v-1.724c0.879-0.255,1.459-0.447,1.731-1.011c0.202-0.427,0.475-1.146,0.703-1.688
			h1.978v2.285h2.602v2.136h-2.602v3.567c0,1.872,0.264,2.021,1.16,2.021c0.448,0,1.16-0.186,1.468-0.396l0.387,1.812
			c-0.483,0.457-1.881,1.021-3.34,1.021c-2.153,0-2.927-1.081-2.927-3.266V132.188L86.714,132.188z"/>
		<path fill="#010101" d="M94.589,125.465h3.261v3.763l-0.158,1.872c0.668-0.563,1.854-1.188,3.138-1.204
			c2.18-0.044,3.173,1.213,3.173,3.896v6.279h-3.261v-5.729c0-1.529-0.413-1.907-1.292-1.891c-0.404,0.009-1.116,0.167-1.6,0.646
			v6.97h-3.261V125.465L94.589,125.465z"/>
		<path fill="#010101" d="M111.095,129.912c2.136,0,4.184,0.854,4.21,4.064c0,0.729-0.044,1.415-0.104,1.851h-5.88
			c0.149,1.489,1.037,2.083,2.505,2.083c0.967,0,2.206-0.246,2.688-0.515l0.501,1.73c-0.659,0.536-2.162,1.081-3.955,1.081
			c-3.234,0-4.992-1.941-4.992-5.193C106.067,132.101,107.904,129.912,111.095,129.912z M112.29,134.201
			c0.079-1.459-0.272-2.188-1.266-2.188c-0.923,0-1.512,0.526-1.679,2.188H112.29z"/>
		<path fill="#010101" d="M126.502,126.607h3.814l4.688,13.465h-3.551l-0.738-2.491h-4.667l-0.703,2.491h-3.507L126.502,126.607z
			 M130.026,135.238l-1.239-4.188l-0.439-1.73l-0.443,1.73l-1.188,4.188H130.026z"/>
		<path fill="#010101" d="M136.188,130.053h2.854l0.141,1.607c0.413-1.021,1.529-1.771,2.888-1.771c0.29,0,0.598,0.035,0.729,0.123
			v3.208c-0.167-0.098-0.475-0.237-1.072-0.237c-1.202,0-1.896,0.536-2.271,0.949v6.135h-3.261L136.188,130.053L136.188,130.053z"/>
		<path fill="#010101" d="M145.882,134.474c1.222-0.527,2.839-0.604,4.096-0.604v-0.605c0-0.87-0.32-1.081-1.823-1.081
			c-0.729,0-2.127,0.299-3.023,0.712l-0.659-1.916c0.729-0.438,2.619-1.1,4.403-1.1c3.164,0,4.342,1.021,4.342,3.788v6.548h-2.039
			c-0.668,0-1.024-0.044-1.024-0.914v-0.069c-0.563,0.492-1.449,0.983-2.798,0.983c-1.979,0-3.271-1.336-3.271-3.198
			C144.08,135.836,144.774,134.948,145.882,134.474z M148.712,138.209c0.521,0,1.081-0.229,1.266-0.422v-2.354
			c-0.633,0.009-1.401,0.141-1.758,0.308c-0.378,0.149-0.782,0.396-0.782,1.107C147.438,137.796,148.053,138.209,148.712,138.209z"
			/>
		<path fill="#010101" d="M155.831,125.474h3.261v3.611l-0.066,1.837c0.488-0.447,1.354-1.011,2.826-1.011
			c2.141,0,3.978,1.524,3.978,4.776c0,3.396-2.092,5.563-5.313,5.563c-2.101,0-4.438-0.545-4.685-0.746L155.831,125.474
			L155.831,125.474z M160.463,138.068c1.116,0,1.951-1.144,1.96-3.182c0.009-1.986-0.694-2.559-1.688-2.559
			c-0.688,0-1.336,0.285-1.646,0.522v4.913C159.276,137.98,159.76,138.068,160.463,138.068z"/>
		<path fill="#010101" d="M174.086,136.785c0.65,0.364,2.127,0.856,3.533,0.854c1.266,0,1.811-0.344,1.811-1.135
			c0-0.854-0.721-1.188-2.716-2.136c-1.705-0.813-3.138-1.995-3.138-4.147c0-2.436,1.938-3.665,4.771-3.665
			c2.004,0,3.287,0.482,3.771,0.765l-0.521,2.519c-0.536-0.422-1.793-0.854-2.962-0.854c-1.266,0-1.846,0.448-1.846,1.125
			c0,0.813,0.694,1.248,2.312,1.985c2.308,1.037,3.679,2.058,3.679,4.157c0,2.396-1.731,3.964-4.878,3.964
			c-1.916,0-3.709-0.501-4.229-0.825L174.086,136.785z"/>
		<path fill="#010101" d="M187.99,141.294v3.227h-3.261v-14.467h3.071v0.976c0.468-0.457,1.35-1.111,2.944-1.111
			c2.145,0,3.999,1.524,3.999,4.776c0,3.396-2.065,5.521-5.133,5.521c-0.712,0-1.274-0.113-1.661-0.245L187.99,141.294z
			 M189.37,138.016c1.143,0,1.938-1.1,1.951-3.129c0.009-1.916-0.646-2.559-1.684-2.559c-0.633,0-1.31,0.255-1.647,0.522v4.799
			C188.254,137.91,188.764,138.016,189.37,138.016z"/>
		<path fill="#010101" d="M196.841,130.053h2.856l0.141,1.607c0.413-1.021,1.529-1.771,2.883-1.771c0.29,0,0.603,0.035,0.729,0.123
			v3.208c-0.167-0.098-0.479-0.237-1.072-0.237c-1.204,0-1.898,0.536-2.276,0.949v6.135h-3.261V130.053z"/>
		<path fill="#010101" d="M205.234,127.144c0-0.979,0.9-1.812,1.96-1.812c1.063,0,1.793,0.687,1.793,1.68
			c0,0.983-0.879,1.818-1.942,1.818C205.999,128.831,205.234,128.128,205.234,127.144z M205.384,130.053h3.271v10.02h-3.271V130.053
			z"/>
		<path fill="#010101" d="M211.483,130.053h2.971l0.079,1.071c0.747-0.624,2.057-1.213,3.27-1.229
			c2.048-0.044,3.063,0.983,3.063,3.867v6.311h-3.252v-5.729c0-1.459-0.325-1.916-1.274-1.891c-0.475,0-1.16,0.229-1.6,0.646v6.97
			h-3.256L211.483,130.053L211.483,130.053z"/>
		<path fill="#010101" d="M224.272,139.457c-0.55-0.299-0.817-0.86-0.813-1.503c0.009-0.659,0.387-1.503,1.635-2.039
			c-1.271-0.515-2.004-1.459-2.004-2.742c0-2.18,1.67-3.242,4.623-3.252c1.45,0,2.593,0.246,3.396,0.738
			c0.334-0.281,0.938-0.605,1.704-0.605h1.125v2.24h-1.616c0.062,0.255,0.097,0.536,0.097,0.826c0,2.004-1.433,3.229-4.702,3.229
			c-0.352,0-0.686-0.019-1.002-0.053c-0.229,0.211-0.315,0.479-0.315,0.712c0,0.482,0.324,0.649,1.273,0.649h1.986
			c3.129,0,3.964,1.438,3.964,3.041c0,2.649-2.849,3.92-5.695,3.897c-3.56-0.021-5.159-1.191-5.159-3.032
			C222.769,140.696,223.278,139.905,224.272,139.457z M228.095,142.85c1.318,0,2.294-0.413,2.294-1.485
			c0-0.771-0.264-1.389-1.907-1.389h-2.136c-0.167,0.236-0.308,0.57-0.308,1.011C226.038,141.883,226.407,142.85,228.095,142.85z
			 M229.281,133.155c0-1.046-0.501-1.556-1.503-1.556c-0.94,0-1.564,0.354-1.564,1.547c0,0.939,0.501,1.503,1.529,1.503
			C228.657,134.649,229.281,134.342,229.281,133.155z"/>
		<path fill="#010101" d="M237.165,136.416c1.107,0,1.793,0.791,1.793,1.847c0.009,1.063-0.835,2.004-1.942,2.004
			c-1.081,0-1.811-0.801-1.814-1.854C235.196,137.356,236.058,136.416,237.165,136.416z"/>
	</g>
	<g>
		<path fill="#010101" d="M692.34,407.835h-3.576v-2.584h10.521v2.584h-3.568v10.793h-3.375L692.34,407.835L692.34,407.835z"/>
		<path fill="#010101" d="M705.305,408.469c2.142,0,4.188,0.853,4.209,4.068c0,0.729-0.043,1.415-0.104,1.846h-5.881
			c0.146,1.494,1.037,2.083,2.506,2.083c0.967,0,2.205-0.245,2.688-0.51l0.502,1.729c-0.653,0.536-2.161,1.081-3.955,1.081
			c-3.229,0-4.987-1.938-4.987-5.194C700.278,410.656,702.114,408.469,705.305,408.469z M706.501,412.757
			c0.078-1.459-0.273-2.188-1.266-2.188c-0.929,0-1.519,0.527-1.685,2.188H706.501z"/>
		<path fill="#010101" d="M711.606,408.608h2.854l0.141,1.607c0.414-1.021,1.529-1.771,2.89-1.771c0.289,0,0.598,0.035,0.729,0.123
			v3.208c-0.168-0.097-0.475-0.232-1.071-0.232c-1.203,0-1.896,0.536-2.271,0.944v6.14h-3.264v-10.021L711.606,408.608
			L711.606,408.608z"/>
		<path fill="#010101" d="M720.096,408.608h2.857l0.141,1.607c0.412-1.021,1.529-1.771,2.883-1.771c0.289,0,0.603,0.035,0.729,0.123
			v3.208c-0.166-0.097-0.475-0.232-1.072-0.232c-1.203,0-1.896,0.536-2.271,0.944v6.14h-3.267L720.096,408.608L720.096,408.608z"/>
		<path fill="#010101" d="M733.184,408.469c3.709,0,5.035,2.479,4.992,5.353c-0.045,3.222-2.172,4.948-5.178,4.948
			c-3.709,0-5.035-2.479-5-5.354C728.051,410.198,730.178,408.469,733.184,408.469z M734.792,413.671
			c0-1.616-0.404-2.943-1.67-2.943c-1.311,0-1.74,0.967-1.74,2.786c0,1.651,0.422,3.015,1.689,3.015
			C734.353,416.527,734.792,415.587,734.792,413.671z"/>
		<path fill="#010101" d="M740.276,408.608h2.854l0.144,1.607c0.411-1.021,1.526-1.771,2.887-1.771c0.289,0,0.598,0.035,0.729,0.123
			v3.208c-0.168-0.097-0.475-0.232-1.069-0.232c-1.201,0-1.896,0.536-2.273,0.944v6.14h-3.263L740.276,408.608L740.276,408.608z"/>
		<path fill="#010101" d="M748.67,405.698c0-0.979,0.904-1.811,1.959-1.811c1.064,0,1.793,0.686,1.793,1.679
			c0,0.984-0.879,1.819-1.939,1.819C749.434,407.387,748.67,406.684,748.67,405.698z M748.819,408.608h3.27v10.021h-3.27V408.608z"
			/>
		<path fill="#010101" d="M754.743,415.71c0.299,0.246,1.635,0.889,2.963,0.889c1.027,0.009,1.449-0.221,1.449-0.729
			c0-0.55-0.813-0.87-2.172-1.317c-1.851-0.606-2.597-1.627-2.584-3.164c0-1.942,1.873-2.918,4.166-2.918
			c1.637,0,2.77,0.359,3.227,0.614l-0.289,2.285c-0.369-0.315-1.451-0.77-2.418-0.77c-1.125,0-1.529,0.229-1.537,0.688
			c0,0.522,0.482,0.791,2.057,1.279c1.854,0.602,2.771,1.461,2.771,3.019c0,2.083-1.67,3.188-4.229,3.188
			c-1.661,0-3.153-0.466-3.723-0.813L754.743,415.71z"/>
		<path fill="#010101" d="M764.674,410.744h-1.16v-1.728c0.88-0.255,1.459-0.448,1.732-1.011c0.201-0.423,0.475-1.146,0.703-1.688
			h1.977v2.285h2.604v2.141h-2.604v3.563c0,1.872,0.271,2.021,1.16,2.021c0.449,0,1.16-0.188,1.469-0.396l0.392,1.813
			c-0.482,0.457-1.885,1.021-3.344,1.021c-2.148,0-2.929-1.081-2.929-3.262V410.744L764.674,410.744z"/>
		<path fill="#010101" d="M772.409,415.71c0.299,0.246,1.635,0.889,2.963,0.889c1.027,0.009,1.449-0.221,1.449-0.729
			c0-0.55-0.813-0.87-2.172-1.317c-1.851-0.606-2.597-1.627-2.584-3.164c0-1.942,1.873-2.918,4.166-2.918
			c1.637,0,2.77,0.359,3.227,0.614l-0.289,2.285c-0.369-0.315-1.451-0.77-2.418-0.77c-1.125,0-1.529,0.229-1.537,0.688
			c0,0.522,0.482,0.791,2.057,1.279c1.854,0.602,2.771,1.461,2.771,3.019c0,2.083-1.67,3.188-4.229,3.188
			c-1.661,0-3.153-0.466-3.723-0.813L772.409,415.71z"/>
		<path fill="#010101" d="M782.42,403.66h2.938L785,410.275h-2.207L782.42,403.66z"/>
		<path fill="#010101" d="M798.891,408.469c1.354,0,2.451,0.264,2.771,0.501l-0.369,2.442c-0.387-0.225-0.994-0.413-1.961-0.413
			c-1.037,0-2.197,0.599-2.232,2.482c-0.033,2.065,0.994,2.786,2.265,2.786c0.854,0,1.613-0.158,2.049-0.355l0.395,1.837
			c-0.553,0.566-1.854,1.021-3.145,1.021c-3.314,0-4.854-2.162-4.854-5.055C793.801,410.788,795.383,408.469,798.891,408.469z"/>
		<path fill="#010101" d="M808.208,408.469c3.709,0,5.035,2.479,4.992,5.353c-0.045,3.222-2.172,4.948-5.178,4.948
			c-3.709,0-5.035-2.479-5.002-5.354C803.075,410.198,805.202,408.469,808.208,408.469z M809.815,413.671
			c0-1.616-0.404-2.943-1.67-2.943c-1.313,0-1.74,0.967-1.74,2.786c0,1.651,0.422,3.015,1.688,3.015
			C809.376,416.527,809.815,415.587,809.815,413.671z"/>
		<path fill="#010101" d="M815.387,408.608h2.978l0.075,1.072c0.681-0.563,1.959-1.204,3.271-1.23
			c1.178-0.021,2.014,0.313,2.506,1.16c0.563-0.443,1.818-1.169,3.351-1.16c2.016-0.009,3.229,0.928,3.229,3.858v6.318h-3.26v-5.738
			c0-1.459-0.303-1.898-1.271-1.882c-0.612,0-1.202,0.344-1.547,0.643c0.011,0.202,0.021,0.422,0.021,0.646v6.337h-3.234v-5.73
			c0-1.449-0.299-1.903-1.248-1.891c-0.467,0-1.17,0.229-1.606,0.646v6.975h-3.252V408.61L815.387,408.608L815.387,408.608z"/>
		<path fill="#010101" d="M833.538,408.608h2.971l0.078,1.072c0.678-0.563,1.961-1.204,3.271-1.23
			c1.184-0.021,2.018,0.313,2.51,1.16c0.563-0.443,1.813-1.169,3.35-1.16c2.015-0.009,3.228,0.928,3.228,3.858v6.318h-3.263v-5.738
			c0-1.459-0.299-1.898-1.266-1.882c-0.615,0-1.205,0.344-1.547,0.643c0.008,0.202,0.018,0.422,0.018,0.646v6.337h-3.229v-5.73
			c0-1.449-0.303-1.903-1.248-1.891c-0.469,0-1.17,0.229-1.607,0.646v6.975h-3.252V408.61L833.538,408.608L833.538,408.608z"/>
		<path fill="#010101" d="M851.528,408.608h3.262v5.973c0,1.512,0.43,1.854,1.326,1.854c0.604,0,1.19-0.265,1.424-0.467v-7.355
			h3.262v10.16h-2.354c-0.412,0-0.605-0.079-0.605-0.511v-0.422c-0.713,0.545-1.983,0.933-2.918,0.933
			c-2.936,0-3.393-1.803-3.393-4.271v-5.894H851.528z"/>
		<path fill="#010101" d="M863.657,408.608h2.971l0.08,1.072c0.746-0.624,2.057-1.214,3.27-1.23
			c2.048-0.044,3.063,0.984,3.063,3.867v6.313h-3.252v-5.73c0-1.459-0.324-1.916-1.273-1.891c-0.475,0-1.157,0.229-1.6,0.646v6.975
			h-3.252v-10.021H863.657L863.657,408.608z"/>
		<path fill="#010101" d="M875.602,405.698c0-0.979,0.904-1.811,1.959-1.811c1.064,0,1.794,0.686,1.794,1.679
			c0,0.984-0.88,1.819-1.938,1.819C876.366,407.387,875.602,406.684,875.602,405.698z M875.751,408.608h3.27v10.021h-3.27V408.608z"
			/>
		<path fill="#010101" d="M886.254,408.469c1.354,0,2.451,0.264,2.771,0.501l-0.369,2.442c-0.394-0.225-0.994-0.413-1.961-0.413
			c-1.037,0-2.197,0.599-2.232,2.482c-0.035,2.065,0.994,2.786,2.26,2.786c0.854,0,1.617-0.158,2.048-0.355l0.396,1.837
			c-0.553,0.566-1.854,1.021-3.146,1.021c-3.313,0-4.853-2.162-4.853-5.055C881.165,410.788,882.747,408.469,886.254,408.469z"/>
		<path fill="#010101" d="M892.178,413.029c1.228-0.522,2.838-0.604,4.101-0.604v-0.605c0-0.87-0.324-1.081-1.828-1.081
			c-0.729,0-2.127,0.304-3.023,0.715l-0.655-1.914c0.729-0.438,2.616-1.104,4.399-1.104c3.164,0,4.342,1.021,4.342,3.788v6.548
			h-2.036c-0.668,0-1.025-0.044-1.025-0.914v-0.065c-0.563,0.487-1.449,0.979-2.795,0.979c-1.979,0-3.271-1.336-3.271-3.199
			C890.376,414.392,891.071,413.504,892.178,413.029z M895.008,416.765c0.521,0,1.08-0.229,1.268-0.422v-2.355
			c-0.635,0.014-1.403,0.146-1.76,0.313c-0.379,0.146-0.781,0.396-0.781,1.104C893.733,416.352,894.348,416.765,895.008,416.765z"/>
		<path fill="#010101" d="M902.391,410.744h-1.159v-1.728c0.883-0.255,1.459-0.448,1.729-1.011c0.203-0.423,0.476-1.146,0.703-1.688
			h1.979v2.285h2.604v2.141h-2.604v3.563c0,1.872,0.268,2.021,1.159,2.021c0.447,0,1.16-0.188,1.468-0.396l0.393,1.813
			c-0.484,0.457-1.881,1.021-3.34,1.021c-2.154,0-2.932-1.081-2.932-3.262L902.391,410.744L902.391,410.744z"/>
		<path fill="#010101" d="M910.116,405.698c0-0.979,0.904-1.811,1.961-1.811c1.063,0,1.793,0.686,1.793,1.679
			c0,0.984-0.879,1.819-1.943,1.819C910.881,407.387,910.116,406.684,910.116,405.698z M910.266,408.608h3.271v10.021h-3.271
			V408.608z"/>
		<path fill="#010101" d="M920.874,408.469c3.709,0,5.037,2.479,4.992,5.353c-0.043,3.222-2.17,4.948-5.178,4.948
			c-3.709,0-5.035-2.479-5-5.354C915.741,410.198,917.868,408.469,920.874,408.469z M922.481,413.671
			c0-1.616-0.402-2.943-1.675-2.943c-1.309,0-1.733,0.967-1.733,2.786c0,1.651,0.422,3.015,1.688,3.015
			C922.043,416.527,922.481,415.587,922.481,413.671z"/>
		<path fill="#010101" d="M928.055,408.608h2.976l0.074,1.072c0.748-0.624,2.063-1.214,3.271-1.23
			c2.047-0.044,3.059,0.984,3.059,3.867v6.313h-3.252v-5.73c0-1.459-0.322-1.916-1.271-1.891c-0.479,0-1.16,0.229-1.604,0.646v6.975
			h-3.252L928.055,408.608L928.055,408.608z"/>
		<path fill="#010101" d="M856.143,433.608h2.976l0.078,1.072c0.748-0.624,2.059-1.213,3.271-1.23
			c2.047-0.044,3.062,0.984,3.062,3.867v6.313h-3.252v-5.73c0-1.459-0.322-1.916-1.271-1.89c-0.479,0-1.16,0.229-1.604,0.646v6.976
			h-3.252L856.143,433.608L856.143,433.608z"/>
		<path fill="#010101" d="M872.614,433.469c2.135,0,4.184,0.853,4.209,4.063c0,0.729-0.043,1.415-0.105,1.852h-5.879
			c0.148,1.492,1.037,2.083,2.504,2.083c0.967,0,2.207-0.246,2.689-0.516l0.502,1.731c-0.66,0.536-2.162,1.081-3.955,1.081
			c-3.234,0-4.992-1.942-4.992-5.194C867.586,435.656,869.422,433.469,872.614,433.469z M873.809,437.758
			c0.078-1.459-0.271-2.188-1.266-2.188c-0.924,0-1.512,0.527-1.68,2.188H873.809z"/>
		<path fill="#010101" d="M879.231,435.74h-1.16v-1.723c0.879-0.255,1.459-0.448,1.729-1.011c0.203-0.423,0.479-1.146,0.703-1.688
			h1.979v2.285h2.603v2.136h-2.603v3.568c0,1.872,0.265,2.021,1.156,2.021c0.447,0,1.16-0.186,1.474-0.396l0.387,1.811
			c-0.484,0.457-1.881,1.021-3.34,1.021c-2.154,0-2.929-1.081-2.929-3.261v-4.768L879.231,435.74L879.231,435.74z"/>
		<path fill="#010101" d="M885.692,433.608h3.172l1.022,4.052l0.537,2.628l0.605-2.628l1.188-4.052h2.931l1.18,4.052l0.57,2.628
			l0.522-2.637l0.949-4.043h3.021l-3.149,10.16h-2.855l-1.459-4.931l-0.379-1.887l-0.387,1.887l-1.406,4.931h-2.942L885.692,433.608
			z"/>
		<path fill="#010101" d="M907.321,433.469c3.709,0,5.037,2.479,4.992,5.353c-0.05,3.217-2.177,4.948-5.183,4.948
			c-3.709,0-5.035-2.479-5-5.354C902.188,435.198,904.315,433.469,907.321,433.469z M908.93,438.672c0-1.617-0.399-2.944-1.67-2.944
			c-1.311,0-1.739,0.967-1.739,2.786c0,1.651,0.423,3.015,1.688,3.015C908.491,441.527,908.93,440.588,908.93,438.672z"/>
		<path fill="#010101" d="M914.415,433.608h2.855l0.141,1.608c0.414-1.021,1.529-1.771,2.883-1.771c0.291,0,0.598,0.035,0.729,0.123
			v3.208c-0.166-0.097-0.479-0.233-1.069-0.233c-1.205,0-1.897,0.532-2.277,0.945v6.14h-3.26L914.415,433.608L914.415,433.608z"/>
		<path fill="#010101" d="M922.958,429.029h3.26v5.528l-0.104,2.742l2.981-3.691h3.701l-3.561,3.876l3.797,6.146h-3.611
			l-2.285-3.867l-0.944,1.022l0.021,1.184v1.661h-3.26L922.958,429.029L922.958,429.029z"/>
		<path fill="#010101" d="M935.896,439.972c1.106,0,1.793,0.791,1.793,1.846c0.014,1.063-0.836,2.004-1.938,2.004
			c-1.082,0-1.813-0.8-1.82-1.854C933.926,440.907,934.788,439.972,935.896,439.972z"/>
	</g>
</g>
</svg>
