<?xml version="1.0" encoding="utf-8"?>
<!-- Generator: Adobe Illustrator 16.0.0, SVG Export Plug-In . SVG Version: 6.00 Build 0)  -->
<!DOCTYPE svg PUBLIC "-//W3C//DTD SVG 1.1//EN" "http://www.w3.org/Graphics/SVG/1.1/DTD/svg11.dtd">
<svg version="1.1" id="Layer_1" xmlns="http://www.w3.org/2000/svg" xmlns:xlink="http://www.w3.org/1999/xlink" x="0px" y="0px"
	 width="1024px" height="768.002px" viewBox="0 0 1024 768.002" enable-background="new 0 0 1024 768.002" xml:space="preserve">
<g id="fotoc">
	<g>
		<g>
			<defs>
				<rect id="SVGID_1_" y="0" width="512.249" height="768.002"/>
			</defs>
			<clipPath id="SVGID_2_">
				<use xlink:href="#SVGID_1_"  overflow="visible"/>
			</clipPath>
			<g clip-path="url(#SVGID_2_)">
				
					<image overflow="visible" enable-background="new    " width="960" height="1440" xlink:href="3_1a.jpg"  transform="matrix(0.7113 0 0 0.7113 -170.9155 7.324219e-004)">
				</image>
			</g>
		</g>
	</g>
	<g>
		<g>
			<defs>
				<rect id="SVGID_3_" x="511.916" y="0" width="512.084" height="768.002"/>
			</defs>
			<clipPath id="SVGID_4_">
				<use xlink:href="#SVGID_3_"  overflow="visible"/>
			</clipPath>
			<g clip-path="url(#SVGID_4_)">
				
					<image overflow="visible" enable-background="new    " width="960" height="1440" xlink:href="3_2.jpg"  transform="matrix(1 0 0 1 511.915 -323.9983)">
				</image>
			</g>
		</g>
	</g>
</g>
<g id="fotog" display="none">
	<g display="inline">
		<g>
			<defs>
				<rect id="SVGID_5_" y="0" width="512.249" height="768.002"/>
			</defs>
			<clipPath id="SVGID_6_">
				<use xlink:href="#SVGID_5_"  overflow="visible"/>
			</clipPath>
			<g transform="matrix(1 0 0 1 -1.525879e-005 -2.328306e-010)" clip-path="url(#SVGID_6_)">
				
					<image overflow="visible" enable-background="new    " width="960" height="1440" xlink:href="3_1b.jpg"  transform="matrix(0.712 0 0 0.712 -170.918 -0.0027)">
				</image>
			</g>
		</g>
	</g>
	<rect y="0" display="inline" fill="none" width="1024" height="768.002"/>
</g>
<g id="testi_fissi">
	<rect x="80.916" y="121.392" fill="#FFFFFF" width="99.5" height="24.964"/>
	<rect x="80.916" y="96.427" fill="#FFFFFF" width="245.5" height="24.964"/>
	<rect x="701.083" y="399.428" fill="#FFFFFF" width="242.493" height="24.966"/>
	<rect x="849.75" y="424.394" fill="#FFFFFF" width="93.826" height="24.964"/>
	<g>
		<g>
			<g>
				<rect x="390.417" y="358.732" fill="#FFFFFF" width="245.497" height="39.248"/>
			</g>
			<g>
				<rect x="443.97" y="393.304" fill="#FFFFFF" width="138.392" height="39.248"/>
			</g>
			<g>
				<rect x="399.75" y="428.638" fill="#FFFFFF" width="226.829" height="39.247"/>
			</g>
			<g>
				<path fill="#030303" d="M400.062,367.635h2.196l2.14,16.055l0.586,3.926l1.26-3.794l5.156-12.876l-0.338-3.312h2.109
					l1.597,16.056l0.294,3.926l1.449-3.794L423,367.635h2.227l-9.478,22.559h-2.256l-1.305-12.598l-0.264-3.457l-1.229,3.457
					l-4.98,12.598h-2.271L400.062,367.635z"/>
				<path fill="#030303" d="M425.446,381.066c-0.146-7.778,4.351-13.682,10.269-13.682c4.702,0,7.046,4.175,7.134,9.242
					c0.133,7.633-4.115,13.667-10.181,13.667C428.024,390.295,425.549,386.311,425.446,381.066z M440.549,377.038
					c-0.088-5.156-1.758-7.896-5.186-7.896c-4.482,0-7.705,5.36-7.617,11.483c0.073,5.361,1.948,7.97,5.272,7.97
					C437.517,388.596,440.666,383.322,440.549,377.038z"/>
				<path fill="#030303" d="M446.423,381.359l1.743-13.727h2.197l-1.686,13.346c-0.132,1.055-0.189,1.963-0.176,2.798
					c0.06,2.944,1.538,4.717,4.614,4.717c3.589,0,5.625-2.124,6.356-7.822l1.642-13.036h2.152l-1.67,13.228
					c-0.894,6.914-3.75,9.434-8.789,9.434c-4.276,0-6.488-2.388-6.563-6.431C446.232,383.103,446.32,382.224,446.423,381.359z"/>
				<path fill="#030303" d="M468.513,367.635h2.197l-2.593,20.565l8.687-0.059l-0.233,1.903h-10.884L468.513,367.635z"/>
				<path fill="#030303" d="M482.839,367.635h1.274c1.421-0.016,3.223-0.234,4.702-0.234c5.962,0,8.363,3.706,8.438,9.141
					c0.104,7.749-4.482,13.916-11.367,13.74c-0.41-0.015-1.201-0.059-1.654-0.103c-0.659-0.06-2.271-0.133-3.092-0.133h-1.128
					L482.839,367.635z M486.413,388.596c5.742-0.133,8.613-6.021,8.555-11.881c-0.072-5.331-1.947-7.676-6.782-7.676
					c-1.011,0-2.432,0.146-3.368,0.278l-2.373,18.896C483.615,388.42,485.197,388.625,486.413,388.596z"/>
				<path fill="#030303" d="M510.466,367.635h2.212l-2.827,22.411h-2.212L510.466,367.635z"/>
				<path fill="#030303" d="M522.521,369.26l-6.605,0.132l0.249-1.758h15.293l-0.249,1.758l-6.489-0.132l-2.622,20.785H519.9
					L522.521,369.26z"/>
				<path fill="#030303" d="M547.614,367.635h2.461l4.232,22.411h-2.196l-1.113-6.313h-8.994l-2.944,6.313h-2.357L547.614,367.635z
					 M550.705,382.048l-1.89-10.752l-0.221-1.685l-0.806,1.743l-4.995,10.692L550.705,382.048L550.705,382.048z"/>
				<path fill="#030303" d="M560.563,367.635h2.196l-2.593,20.565l8.688-0.059l-0.234,1.903h-10.884L560.563,367.635z"/>
				<path fill="#030303" d="M574.89,367.635h2.197l-2.593,20.565l8.687-0.059l-0.233,1.903h-10.884L574.89,367.635z"/>
				<path fill="#030303" d="M596.32,367.635h1.2c1.378-0.016,2.827-0.234,4.321-0.234c5.068,0,6.52,2.329,6.563,4.805
					c0.059,3.193-1.816,5.317-4.688,6.123c2.461,0.278,4.526,2.007,4.57,4.541c0.088,5.317-4.204,7.383-9.858,7.383
					c-1.128,0-2.871-0.205-3.911-0.205h-1.024L596.32,367.635z M598.913,388.669c3.939,0,7.075-1.392,7.031-5.537
					c-0.044-2.621-2.052-3.91-5.055-3.91c-2.035,0-3.091,0.044-3.838,0.088l-1.143,9.082
					C596.525,388.566,598.327,388.669,598.913,388.669z M600.686,377.639c3.076,0,5.553-1.831,5.509-5.187
					c-0.029-2.227-1.333-3.516-4.863-3.516c-0.439,0-2.095,0.088-3.003,0.189l-1.069,8.512
					C598.298,377.683,599.631,377.639,600.686,377.639z"/>
				<path fill="#030303" d="M614.484,367.635h11.073l-0.088,1.758l-8.994-0.104l-1.068,8.481l6.942-0.088l-0.132,1.859l-7.017-0.161
					l-1.144,8.994l10.796-0.189l-0.16,1.859h-13.037L614.484,367.635z"/>
				<path fill="#030303" d="M454.019,402.635h1.289c1.611,0,2.915-0.234,4.497-0.234c4.233,0,6.637,1.815,6.694,5.698
					c0.104,5.757-3.662,9.242-8.994,9.242c-1.361,0-2.666-0.146-3.104-0.204l-1.012,7.91h-2.196L454.019,402.635z M457.578,415.598
					c4.38-0.029,6.636-2.622,6.694-7.295c0.028-2.783-1.554-4.248-4.806-4.248c-0.938,0-2.446,0.16-3.472,0.293l-1.377,11.001
					C455.22,415.466,456.655,415.612,457.578,415.598z"/>
				<path fill="#030303" d="M468.345,416.066c-0.146-7.778,4.352-13.682,10.27-13.682c4.702,0,7.046,4.175,7.134,9.242
					c0.132,7.633-4.116,13.668-10.181,13.668C470.923,425.296,468.447,421.311,468.345,416.066z M483.447,412.038
					c-0.088-5.156-1.759-7.896-5.187-7.896c-4.481,0-7.705,5.36-7.617,11.483c0.073,5.361,1.948,7.97,5.273,7.97
					C480.415,423.596,483.563,418.322,483.447,412.038z"/>
				<path fill="#030303" d="M487.93,422.176c0.558,0.586,2.798,1.377,4.922,1.377c2.695,0,5.244-1.157,5.244-3.984
					c0-2.036-1.273-3.34-3.56-4.819c-2.168-1.405-4.85-3.192-4.907-6.563c-0.073-3.677,2.856-5.801,6.709-5.801
					c2.9,0,4.365,0.746,5.068,1.244l-0.703,1.699c-0.835-0.835-2.637-1.245-4.219-1.245c-1.803,0-4.557,0.586-4.645,3.53
					c-0.073,2.666,1.626,3.809,3.999,5.376c2.08,1.362,4.497,2.988,4.556,6.035c0.073,4.131-3.236,6.255-7.588,6.255
					c-2.489,0-4.834-0.762-5.493-1.304L487.93,422.176z"/>
				<path fill="#030303" d="M503.223,422.176c0.558,0.586,2.798,1.377,4.923,1.377c2.694,0,5.243-1.157,5.243-3.984
					c0-2.036-1.273-3.34-3.56-4.819c-2.168-1.405-4.85-3.192-4.907-6.563c-0.073-3.677,2.856-5.801,6.709-5.801
					c2.9,0,4.365,0.746,5.068,1.244l-0.703,1.699c-0.835-0.835-2.637-1.245-4.219-1.245c-1.803,0-4.557,0.586-4.645,3.53
					c-0.073,2.666,1.626,3.809,3.999,5.376c2.08,1.362,4.497,2.988,4.557,6.035c0.072,4.131-3.237,6.255-7.589,6.255
					c-2.489,0-4.834-0.762-5.493-1.304L503.223,422.176z"/>
				<path fill="#030303" d="M522.427,402.635h2.212l-2.827,22.412H519.6L522.427,402.635z"/>
				<path fill="#030303" d="M530.454,402.635h1.201c1.377-0.016,2.827-0.234,4.32-0.234c5.068,0,6.52,2.329,6.563,4.805
					c0.059,3.193-1.816,5.317-4.688,6.123c2.461,0.278,4.526,2.007,4.57,4.541c0.088,5.317-4.204,7.383-9.857,7.383
					c-1.129,0-2.871-0.204-3.911-0.204h-1.025L530.454,402.635z M533.047,423.67c3.94,0,7.075-1.393,7.031-5.538
					c-0.044-2.621-2.051-3.91-5.054-3.91c-2.036,0-3.092,0.044-3.839,0.088l-1.143,9.082
					C530.659,423.566,532.461,423.67,533.047,423.67z M534.819,412.639c3.075,0,5.552-1.831,5.508-5.187
					c-0.029-2.227-1.333-3.516-4.863-3.516c-0.438,0-2.095,0.088-3.003,0.189l-1.069,8.512
					C532.432,412.683,533.765,412.639,534.819,412.639z"/>
				<path fill="#030303" d="M548.618,402.635h2.197l-2.594,20.565l8.688-0.059l-0.234,1.904h-10.884L548.618,402.635z"/>
				<path fill="#030303" d="M562.944,402.635h11.073l-0.088,1.758l-8.994-0.104l-1.068,8.481l6.942-0.088l-0.132,1.859l-7.017-0.161
					l-1.144,8.994l10.796-0.189l-0.16,1.859h-13.037L562.944,402.635z"/>
				<path fill="#030303" d="M406.813,437.635h5.229l0.864,14.354l0.293,3.252l0.996-3.252l3.765-9.39l-0.527-4.966h5.055
					l0.879,14.354l0.337,3.252l0.776-3.252l4.893-14.354h5.332l-8.716,22.412h-6.05l-0.836-7.998l-0.264-2.446l-0.894,2.446
					l-2.931,7.998h-5.492L406.813,437.635z"/>
				<path fill="#030303" d="M436.447,437.635h5.186l-3.208,22.412h-5.186L436.447,437.635z"/>
				<path fill="#030303" d="M449.396,441.502l-5.259,0.16l0.646-4.027h15.63l-0.586,4.027l-5.156-0.16l-2.651,18.545h-5.272
					L449.396,441.502z"/>
				<path fill="#030303" d="M463.122,437.635h5.186l-1.392,9.727h7.062l1.392-9.727h5.244l-3.208,22.412h-5.244l1.304-9.111h-7.061
					l-1.305,9.111h-5.186L463.122,437.635z"/>
				<path fill="#030303" d="M493.034,437.399c5.303,0,7.954,4.014,7.954,8.789c0,7.632-4.103,14.092-10.929,14.092
					c-5.404,0-8.086-3.939-8.086-8.701C481.975,443.933,486.12,437.399,493.034,437.399z M495.656,446.35
					c0-3.882-1.113-5.054-3.179-5.054c-3.268,0-5.172,5.552-5.172,10.02c0,3.882,1.113,5.068,3.164,5.068
					C493.737,456.385,495.656,450.965,495.656,446.35z"/>
				<path fill="#030303" d="M503.303,451.302l1.948-13.667h5.171l-1.846,13.008c-0.146,1.069-0.161,1.978-0.161,2.813
					c0.015,2.197,0.791,2.856,2.9,2.856c2.388,0,3.529-1.23,4.175-5.552l1.859-13.125h5.156l-1.904,13.667
					c-0.907,6.488-3.853,8.979-10.077,8.979c-5.112,0-7.397-2.52-7.412-6.563C503.098,452.956,503.171,452.166,503.303,451.302z"/>
				<path fill="#030303" d="M529.772,441.502l-5.26,0.16l0.646-4.027h15.63l-0.586,4.027l-5.156-0.16l-2.65,18.545h-5.273
					L529.772,441.502z"/>
				<path fill="#030303" d="M553.767,441.502l-5.259,0.16l0.646-4.027h15.63l-0.586,4.027l-5.156-0.16l-2.651,18.545h-5.272
					L553.767,441.502z"/>
				<path fill="#030303" d="M575.432,437.399c5.304,0,7.954,4.014,7.954,8.789c0,7.632-4.102,14.092-10.928,14.092
					c-5.405,0-8.086-3.939-8.086-8.701C564.372,443.933,568.518,437.399,575.432,437.399z M578.054,446.35
					c0-3.882-1.112-5.054-3.179-5.054c-3.267,0-5.171,5.552-5.171,10.02c0,3.882,1.113,5.068,3.164,5.068
					C576.135,456.385,578.054,450.965,578.054,446.35z"/>
				<path fill="#030303" d="M588.073,437.635h2.959c1.743,0,2.313-0.234,4.232-0.234c5.846,0,8.027,2.095,8.027,5.757
					c0,3.354-1.304,6.432-4.79,7.5c0.82,0.688,1.567,2.14,2.065,4.015c1.244,3.838,1.465,4.556,2.035,5.376h-5.741
					c-0.366-0.527-0.558-1.787-1.274-4.482c-0.63-2.563-1.509-3.911-1.978-3.911h-2.301l-1.245,8.395h-5.186L588.073,437.635z
					 M594.709,447.668c2.798,0,3.589-2.52,3.53-4.263c-0.073-1.89-1.289-2.401-3.473-2.401c-0.688,0-1.582,0.072-2.007,0.146
					l-0.908,6.476C592.644,447.668,594.094,447.668,594.709,447.668z"/>
				<path fill="#030303" d="M606.809,449.689c0-1.743,0.659-2.855,3.691-4.365c2.271-1.011,3.413-1.947,3.823-2.606
					c0.103-0.293,0.337-1.128,0.337-1.86c0-1.641-1.699-3.047-4.453-3.047c-1.055,0-1.992,0.073-3.032,0.337l0.82-3.369
					c0.498-0.438,1.992-0.775,3.148-0.775c5.698,0,8.219,2.725,8.219,6.313c0,7.104-8.657,6.68-8.657,10.21
					c0,0.703,0.498,1.406,0.601,1.772l-2.445,0.967l-0.249-0.015C607.746,452.648,606.809,451.037,606.809,449.689z M611.35,455.095
					c1.729,0,2.358,1.011,2.358,2.183c0,1.919-1.23,3.193-3.12,3.193c-1.421,0-2.285-0.923-2.285-2.228
					C608.303,456.604,609.46,455.095,611.35,455.095z"/>
			</g>
		</g>
	</g>
	<g>
		<g>
			<rect x="437.326" y="300.941" fill="#030303" width="149.18" height="47.789"/>
		</g>
		<g>
			<path fill="#FFFFFF" d="M455.499,307.666h8.042l-0.394,2.58l-4.692-0.037l-0.498,3.49l4.017-0.056l-0.338,2.729l-4.054-0.064
				l-0.816,5.715h-3.321L455.499,307.666z"/>
			<path fill="#FFFFFF" d="M465.632,307.666h1.896c1.117,0,1.481-0.149,2.712-0.149c3.744,0,5.143,1.342,5.143,3.688
				c0,2.149-0.835,4.12-3.069,4.805c0.525,0.441,1.005,1.37,1.323,2.571c0.798,2.459,0.938,2.919,1.305,3.444h-3.679
				c-0.234-0.338-0.356-1.146-0.815-2.871c-0.404-1.643-0.968-2.506-1.268-2.506h-1.473l-0.798,5.377h-3.322L465.632,307.666z
				 M469.883,314.094c1.792,0,2.299-1.614,2.261-2.73c-0.047-1.211-0.825-1.539-2.224-1.539c-0.44,0-1.013,0.047-1.286,0.094
				l-0.582,4.147C468.56,314.094,469.489,314.094,469.883,314.094z"/>
			<path fill="#FFFFFF" d="M478.264,307.666h8.577l-0.347,2.58l-5.274-0.019l-0.451,3.162l3.933-0.048l-0.338,2.592l-3.951-0.085
				l-0.516,3.641l5.939-0.094l-0.347,2.628h-9.281L478.264,307.666z"/>
			<path fill="#FFFFFF" d="M489.571,307.666h8.577l-0.348,2.58l-5.273-0.019l-0.451,3.162l3.932-0.048l-0.338,2.592l-3.951-0.085
				l-0.516,3.641l5.94-0.094l-0.348,2.628h-9.281L489.571,307.666z"/>
			<path fill="#FFFFFF" d="M500.879,307.666h1.464c0.797,0,2.769-0.149,3.631-0.149c3.971,0,5.453,2.337,5.453,5.762
				c0,4.646-2.553,8.896-7.938,8.896c-0.348,0-0.826-0.027-1.352-0.065c-0.646-0.037-1.37-0.084-1.961-0.084h-1.351L500.879,307.666
				z M503.957,319.743c2.769,0,4.054-2.975,4.054-6.513c0-2.608-0.854-3.267-2.722-3.267c-0.394,0-1.06,0.048-1.437,0.122
				l-1.351,9.459C502.877,319.668,503.384,319.743,503.957,319.743z"/>
			<path fill="#FFFFFF" d="M519.217,307.516c3.397,0,5.095,2.57,5.095,5.631c0,4.889-2.627,9.026-7,9.026
				c-3.463,0-5.18-2.523-5.18-5.573C512.131,311.701,514.787,307.516,519.217,307.516z M520.896,313.249
				c0-2.485-0.713-3.236-2.036-3.236c-2.094,0-3.313,3.557-3.313,6.419c0,2.485,0.713,3.247,2.027,3.247
				C519.667,319.678,520.896,316.205,520.896,313.249z"/>
			<path fill="#FFFFFF" d="M528.245,307.666h4.833l0.638,9.881l0.058,2.111l0.449-2.111l3.332-9.881h4.853l-0.226,14.357h-3.313
				l0.835-10.688l0.253-2.195l-0.694,2.195l-4.101,10.718l-3.65,0.141l-1.126-10.857l-0.019-2.195l-0.45,2.195l-2.327,10.688h-3.274
				L528.245,307.666z"/>
			<path fill="#FFFFFF" d="M555.534,307.516c3.396,0,5.095,2.57,5.095,5.631c0,4.889-2.627,9.026-7,9.026
				c-3.463,0-5.18-2.523-5.18-5.573C548.448,311.701,551.104,307.516,555.534,307.516z M557.213,313.249
				c0-2.485-0.713-3.236-2.037-3.236c-2.092,0-3.313,3.557-3.313,6.419c0,2.485,0.713,3.247,2.026,3.247
				C555.984,319.678,557.213,316.205,557.213,313.249z"/>
			<path fill="#FFFFFF" d="M563.652,307.666h8.042l-0.395,2.58l-4.691-0.037l-0.498,3.49l4.017-0.056l-0.338,2.729l-4.054-0.064
				l-0.816,5.715h-3.322L563.652,307.666z"/>
			<path fill="#FFFFFF" d="M448.633,326.9h3.322l-2.055,14.356h-3.322L448.633,326.9z"/>
			<path fill="#FFFFFF" d="M455.021,326.9h2.881l3.341,7.432l0.741,2.44l0.121-2.44l0.91-7.432h3.209l-2.055,14.356h-2.787
				l-3.266-7.816l-0.929-2.58l0.027,2.58l-1.079,7.816h-3.172L455.021,326.9z"/>
			<path fill="#FFFFFF" d="M469.107,326.9h8.042l-0.395,2.58l-4.691-0.037l-0.498,3.49l4.017-0.057l-0.338,2.73l-4.054-0.065
				l-0.816,5.715h-3.322L469.107,326.9z"/>
			<path fill="#FFFFFF" d="M484.224,326.75c3.397,0,5.096,2.571,5.096,5.631c0,4.89-2.627,9.027-7,9.027
				c-3.463,0-5.181-2.523-5.181-5.574C477.138,330.936,479.794,326.75,484.224,326.75z M485.903,332.483
				c0-2.486-0.713-3.237-2.037-3.237c-2.093,0-3.313,3.558-3.313,6.419c0,2.486,0.713,3.247,2.027,3.247
				C484.674,338.912,485.903,335.439,485.903,332.483z"/>
			<path fill="#FFFFFF" d="M492.332,326.9h1.896c1.117,0,1.482-0.15,2.713-0.15c3.743,0,5.143,1.343,5.143,3.688
				c0,2.148-0.835,4.12-3.069,4.805c0.525,0.441,1.004,1.37,1.323,2.571c0.798,2.459,0.938,2.919,1.304,3.443h-3.678
				c-0.235-0.338-0.356-1.145-0.815-2.87c-0.404-1.644-0.968-2.507-1.268-2.507h-1.473l-0.798,5.377h-3.322L492.332,326.9z
				 M496.583,333.328c1.792,0,2.299-1.614,2.261-2.729c-0.047-1.211-0.826-1.539-2.224-1.539c-0.441,0-1.013,0.047-1.286,0.094
				l-0.582,4.146C495.26,333.328,496.188,333.328,496.583,333.328z"/>
			<path fill="#FFFFFF" d="M505.874,326.9h4.833l0.638,9.881l0.058,2.111l0.45-2.111l3.331-9.881h4.853l-0.225,14.356h-3.313
				l0.835-10.688l0.253-2.196l-0.694,2.196l-4.101,10.717l-3.649,0.142l-1.127-10.857l-0.019-2.196l-0.45,2.196l-2.327,10.688
				h-3.274L505.874,326.9z"/>
			<path fill="#FFFFFF" d="M526.693,326.9h4.223l2.13,14.356l-3.332,0.011l-0.31-2.693h-4.898l-1.098,2.684l-3.66,0.011
				L526.693,326.9z M529.152,336.313l-0.714-6.334l-0.057-1.117l-0.366,1.117l-2.59,6.334H529.152z"/>
			<path fill="#FFFFFF" d="M538.18,329.378l-3.369,0.104l0.413-2.58h10.014l-0.375,2.58l-3.304-0.104l-1.698,11.88h-3.378
				L538.18,329.378z"/>
			<path fill="#FFFFFF" d="M547.338,326.9h3.322l-2.055,14.356h-3.322L547.338,326.9z"/>
			<path fill="#FFFFFF" d="M558.699,326.75c3.396,0,5.095,2.571,5.095,5.631c0,4.89-2.627,9.027-7,9.027
				c-3.463,0-5.18-2.523-5.18-5.574C551.613,330.936,554.269,326.75,558.699,326.75z M560.378,332.483
				c0-2.486-0.713-3.237-2.037-3.237c-2.092,0-3.313,3.558-3.313,6.419c0,2.486,0.713,3.247,2.026,3.247
				C559.149,338.912,560.378,335.439,560.378,332.483z"/>
			<path fill="#FFFFFF" d="M566.817,326.9h2.881l3.341,7.432l0.741,2.44l0.122-2.44l0.909-7.432h3.209l-2.055,14.356h-2.787
				l-3.266-7.816l-0.929-2.58l0.027,2.58l-1.079,7.816h-3.172L566.817,326.9z"/>
		</g>
	</g>
	<g>
		<path fill="#030303" d="M84.938,101.788h3.357l1.397,7.472l0.413,3.189l0.483-3.189l1.767-7.472h3.05l1.819,7.472l0.492,3.015
			l0.396-3.015l1.389-7.472h3.226l-3.524,13.465h-3.296l-1.714-6.986l-0.431-2.795l-0.378,2.804l-1.696,6.979h-3.234L84.938,101.788
			z"/>
		<path fill="#030303" d="M104.01,100.558h3.261v3.762l-0.158,1.872c0.668-0.563,1.854-1.188,3.138-1.204
			c2.18-0.044,3.173,1.213,3.173,3.894v6.284h-3.261v-5.729c0-1.529-0.413-1.907-1.292-1.891c-0.404,0.01-1.116,0.167-1.6,0.65v6.97
			h-3.261V100.558z"/>
		<path fill="#030303" d="M115.989,102.236c0-0.984,0.905-1.812,1.96-1.812c1.063,0,1.793,0.687,1.793,1.68
			c0,0.983-0.879,1.818-1.942,1.818C116.754,103.924,115.989,103.221,115.989,102.236z M116.139,105.146h3.27v10.02h-3.27V105.146z"
			/>
		<path fill="#030303" d="M122.063,112.247c0.299,0.246,1.635,0.889,2.962,0.889c1.028,0.009,1.45-0.221,1.45-0.729
			c0-0.545-0.809-0.87-2.171-1.318c-1.846-0.605-2.593-1.626-2.584-3.164c0-1.941,1.872-2.918,4.166-2.918
			c1.635,0,2.769,0.36,3.226,0.615l-0.29,2.285c-0.369-0.316-1.45-0.765-2.417-0.765c-1.125,0-1.529,0.229-1.538,0.686
			c0,0.527,0.483,0.791,2.057,1.283c1.854,0.598,2.769,1.459,2.769,3.015c0,2.083-1.67,3.19-4.228,3.19
			c-1.661,0-3.155-0.466-3.718-0.817L122.063,112.247z"/>
		<path fill="#030303" d="M131.994,107.281h-1.16v-1.723c0.879-0.255,1.459-0.448,1.731-1.012c0.202-0.422,0.475-1.143,0.703-1.688
			h1.978v2.285h2.602v2.136h-2.602v3.568c0,1.872,0.264,2.021,1.16,2.021c0.448,0,1.16-0.185,1.468-0.396l0.387,1.811
			c-0.483,0.457-1.881,1.021-3.34,1.021c-2.153,0-2.927-1.081-2.927-3.262V107.281z"/>
		<path fill="#030303" d="M139.904,100.558h3.261v14.606h-3.261V100.558z"/>
		<path fill="#030303" d="M150.372,105.005c2.136,0,4.184,0.854,4.21,4.069c0,0.729-0.044,1.415-0.105,1.846h-5.88
			c0.149,1.494,1.037,2.083,2.505,2.083c0.967,0,2.206-0.246,2.689-0.51l0.501,1.731c-0.659,0.536-2.162,1.081-3.955,1.081
			c-3.234,0-4.992-1.942-4.992-5.194C145.345,107.193,147.182,105.005,150.372,105.005z M151.567,109.294
			c0.079-1.459-0.272-2.188-1.266-2.188c-0.923,0-1.512,0.526-1.679,2.188H151.567z"/>
		<path fill="#030303" d="M156.727,100.566h3.261v3.612l-0.07,1.837c0.492-0.448,1.354-1.012,2.83-1.012
			c2.136,0,3.973,1.529,3.973,4.781c0,3.394-2.092,5.563-5.309,5.563c-2.101,0-4.438-0.545-4.685-0.747V100.566z M161.358,113.161
			c1.116,0,1.951-1.143,1.96-3.182c0.009-1.986-0.694-2.559-1.688-2.559c-0.686,0-1.336,0.29-1.644,0.527v4.913
			C160.172,113.073,160.655,113.161,161.358,113.161z"/>
		<path fill="#030303" d="M168.899,100.558h3.261v14.606h-3.261V100.558z"/>
		<path fill="#030303" d="M179.534,105.005c3.709,0,5.036,2.479,4.992,5.354c-0.044,3.217-2.171,4.948-5.177,4.948
			c-3.709,0-5.036-2.479-5.001-5.354C174.401,106.736,176.528,105.005,179.534,105.005z M181.143,110.208
			c0-1.617-0.404-2.943-1.67-2.943c-1.31,0-1.74,0.967-1.74,2.785c0,1.652,0.422,3.016,1.688,3.016
			C180.703,113.064,181.143,112.124,181.143,110.208z"/>
		<path fill="#030303" d="M185.265,105.146h3.173l1.028,4.052l0.536,2.628l0.606-2.628l1.187-4.052h2.927l1.178,4.052l0.571,2.628
			l0.527-2.637l0.949-4.043h3.023l-3.155,10.16h-2.856l-1.459-4.932l-0.378-1.881l-0.387,1.881l-1.406,4.932h-2.944L185.265,105.146
			z"/>
		<path fill="#030303" d="M208.16,102.236c0-0.984,0.905-1.812,1.96-1.812c1.063,0,1.793,0.687,1.793,1.68
			c0,0.983-0.879,1.818-1.942,1.818C208.925,103.924,208.16,103.221,208.16,102.236z M208.31,105.146h3.27v10.02h-3.27V105.146z"/>
		<path fill="#030303" d="M214.409,105.146h2.971l0.079,1.072c0.747-0.624,2.057-1.214,3.27-1.23
			c2.048-0.044,3.059,0.984,3.059,3.867v6.311h-3.252v-5.729c0-1.459-0.325-1.916-1.274-1.891c-0.475,0-1.16,0.229-1.6,0.65v6.97
			h-3.252L214.409,105.146L214.409,105.146z"/>
		<path fill="#030303" d="M227.057,107.281H225.8v-1.898l1.257-0.236v-1.028c0-2.883,2.048-3.753,3.885-3.753
			c1.02,0,1.705,0.149,1.934,0.202v2.231c-0.22-0.113-0.659-0.22-1.283-0.22c-0.765,0-1.266,0.492-1.266,1.661v0.905h2.171v2.136
			h-2.171v7.884h-3.27V107.281z"/>
		<path fill="#030303" d="M238.79,105.005c3.709,0,5.036,2.479,4.992,5.354c-0.044,3.217-2.171,4.948-5.177,4.948
			c-3.709,0-5.036-2.479-5.001-5.354C233.657,106.736,235.784,105.005,238.79,105.005z M240.398,110.208
			c0-1.617-0.404-2.943-1.67-2.943c-1.31,0-1.74,0.967-1.74,2.785c0,1.652,0.422,3.016,1.688,3.016
			C239.959,113.064,240.398,112.124,240.398,110.208z"/>
		<path fill="#030303" d="M245.883,105.146h2.856l0.141,1.607c0.413-1.02,1.529-1.767,2.883-1.767c0.29,0,0.598,0.035,0.729,0.123
			v3.208c-0.167-0.097-0.475-0.237-1.072-0.237c-1.204,0-1.898,0.536-2.276,0.949v6.135h-3.261V105.146z"/>
		<path fill="#030303" d="M254.461,105.146h2.971l0.079,1.072c0.677-0.563,1.96-1.204,3.27-1.23c1.178-0.026,2.013,0.308,2.505,1.16
			c0.563-0.448,1.819-1.169,3.349-1.16c2.013-0.009,3.226,0.923,3.226,3.858v6.318H266.6v-5.738c0-1.46-0.299-1.898-1.266-1.882
			c-0.615,0-1.204,0.344-1.547,0.643c0.009,0.202,0.018,0.422,0.018,0.642v6.337h-3.234v-5.729c0-1.45-0.299-1.907-1.248-1.891
			c-0.466,0-1.169,0.229-1.608,0.65v6.97h-3.252v-10.02H254.461z"/>
		<path fill="#030303" d="M273.727,109.566c1.222-0.527,2.839-0.606,4.096-0.606v-0.605c0-0.87-0.325-1.081-1.828-1.081
			c-0.729,0-2.127,0.299-3.023,0.712l-0.659-1.916c0.729-0.439,2.619-1.099,4.403-1.099c3.164,0,4.342,1.02,4.342,3.787v6.549
			h-2.039c-0.668,0-1.028-0.044-1.028-0.914v-0.07c-0.563,0.492-1.45,0.984-2.795,0.984c-1.978,0-3.27-1.336-3.27-3.199
			C271.925,110.929,272.619,110.041,273.727,109.566z M276.557,113.302c0.519,0,1.081-0.229,1.266-0.423v-2.354
			c-0.633,0.009-1.406,0.141-1.758,0.308c-0.378,0.149-0.782,0.396-0.782,1.107C275.282,112.889,275.897,113.302,276.557,113.302z"
			/>
		<path fill="#030303" d="M283.939,107.281h-1.16v-1.723c0.879-0.255,1.459-0.448,1.731-1.012c0.202-0.422,0.475-1.143,0.703-1.688
			h1.978v2.285h2.602v2.136h-2.602v3.568c0,1.872,0.264,2.021,1.16,2.021c0.448,0,1.16-0.185,1.468-0.396l0.387,1.811
			c-0.483,0.457-1.881,1.021-3.34,1.021c-2.153,0-2.927-1.081-2.927-3.262V107.281L283.939,107.281z"/>
		<path fill="#030303" d="M291.665,102.236c0-0.984,0.905-1.812,1.96-1.812c1.063,0,1.793,0.687,1.793,1.68
			c0,0.983-0.879,1.818-1.942,1.818C292.43,103.924,291.665,103.221,291.665,102.236z M291.814,105.146h3.27v10.02h-3.27V105.146z"
			/>
		<path fill="#030303" d="M302.423,105.005c3.709,0,5.036,2.479,4.992,5.354c-0.044,3.217-2.171,4.948-5.177,4.948
			c-3.709,0-5.036-2.479-5.001-5.354C297.29,106.736,299.417,105.005,302.423,105.005z M304.031,110.208
			c0-1.617-0.404-2.943-1.67-2.943c-1.311,0-1.74,0.967-1.74,2.785c0,1.652,0.422,3.016,1.688,3.016
			C303.592,113.064,304.031,112.124,304.031,110.208z"/>
		<path fill="#030303" d="M309.604,105.146h2.971l0.079,1.072c0.747-0.624,2.057-1.214,3.27-1.23c2.048-0.044,3.06,0.984,3.06,3.867
			v6.311h-3.252v-5.729c0-1.459-0.325-1.916-1.274-1.891c-0.475,0-1.16,0.229-1.6,0.65v6.97h-3.253V105.146L309.604,105.146z"/>
		<path fill="#030303" d="M86.713,132.281h-1.16v-1.723c0.879-0.255,1.459-0.448,1.731-1.012c0.202-0.422,0.475-1.143,0.703-1.688
			h1.978v2.285h2.602v2.136h-2.602v3.568c0,1.872,0.264,2.021,1.16,2.021c0.448,0,1.16-0.185,1.468-0.396l0.387,1.811
			c-0.483,0.457-1.881,1.021-3.34,1.021c-2.153,0-2.927-1.081-2.927-3.262V132.281L86.713,132.281z"/>
		<path fill="#030303" d="M99.132,130.005c3.709,0,5.036,2.479,4.992,5.354c-0.044,3.217-2.171,4.948-5.177,4.948
			c-3.709,0-5.036-2.479-5.001-5.354C93.999,131.736,96.126,130.005,99.132,130.005z M100.74,135.208
			c0-1.617-0.404-2.943-1.67-2.943c-1.31,0-1.74,0.967-1.74,2.785c0,1.652,0.422,3.016,1.688,3.016
			C100.301,138.064,100.74,137.124,100.74,135.208z"/>
		<path fill="#030303" d="M112.271,130.146h2.971l0.079,1.072c0.677-0.563,1.96-1.204,3.27-1.23c1.178-0.026,2.013,0.308,2.505,1.16
			c0.563-0.448,1.819-1.169,3.349-1.16c2.013-0.009,3.226,0.923,3.226,3.858v6.318h-3.261v-5.738c0-1.459-0.299-1.898-1.266-1.882
			c-0.615,0-1.204,0.344-1.547,0.643c0.009,0.202,0.018,0.422,0.018,0.642v6.337h-3.234v-5.729c0-1.45-0.299-1.907-1.248-1.891
			c-0.466,0-1.169,0.229-1.608,0.65v6.97h-3.252v-10.02H112.271z"/>
		<path fill="#030303" d="M134.763,130.005c2.136,0,4.184,0.854,4.21,4.069c0,0.729-0.044,1.415-0.105,1.846h-5.88
			c0.149,1.494,1.037,2.083,2.505,2.083c0.967,0,2.206-0.246,2.689-0.51l0.501,1.731c-0.659,0.536-2.162,1.081-3.955,1.081
			c-3.234,0-4.992-1.942-4.992-5.194C129.735,132.193,131.572,130.005,134.763,130.005z M135.958,134.294
			c0.079-1.459-0.272-2.188-1.266-2.188c-0.923,0-1.512,0.526-1.679,2.188H135.958z"/>
		<path fill="#030303" d="M140.467,135.498c0-3.393,2.039-5.493,5.106-5.493c0.703,0,1.266,0.114,1.652,0.246l-0.026-1.071v-3.621
			h3.252v14.748h-2.496c-0.325,0-0.483-0.177-0.483-0.476v-0.703c-0.448,0.448-1.354,1.179-3.032,1.179
			C142.304,140.306,140.467,138.75,140.467,135.498z M147.199,137.414v-4.878c-0.272-0.202-0.791-0.281-1.371-0.281
			c-1.143,0-1.942,1.021-1.951,3.085c-0.009,1.872,0.642,2.531,1.679,2.531C146.18,137.871,146.848,137.651,147.199,137.414z"/>
		<path fill="#030303" d="M153.105,127.236c0-0.984,0.905-1.812,1.96-1.812c1.063,0,1.793,0.687,1.793,1.68
			c0,0.983-0.879,1.818-1.942,1.818C153.87,128.924,153.105,128.221,153.105,127.236z M153.255,130.146h3.27v10.02h-3.27V130.146z"
			/>
		<path fill="#030303" d="M160.471,134.566c1.222-0.527,2.839-0.606,4.096-0.606v-0.605c0-0.87-0.325-1.081-1.828-1.081
			c-0.729,0-2.127,0.299-3.023,0.712l-0.659-1.916c0.729-0.439,2.619-1.099,4.403-1.099c3.164,0,4.342,1.02,4.342,3.787v6.549
			h-2.039c-0.668,0-1.028-0.044-1.028-0.914v-0.07c-0.563,0.492-1.45,0.984-2.795,0.984c-1.978,0-3.27-1.336-3.27-3.199
			C158.669,135.929,159.363,135.041,160.471,134.566z M163.301,138.302c0.519,0,1.081-0.229,1.266-0.423v-2.354
			c-0.633,0.009-1.406,0.141-1.758,0.308c-0.378,0.149-0.782,0.396-0.782,1.107C162.026,137.889,162.642,138.302,163.301,138.302z"
			/>
		<path fill="#030303" d="M172.046,136.51c1.107,0,1.793,0.79,1.793,1.846c0.009,1.063-0.835,2.004-1.942,2.004
			c-1.081,0-1.811-0.8-1.819-1.854C170.077,137.449,170.938,136.51,172.046,136.51z"/>
	</g>
	<g>
		<path fill="#030303" d="M706.279,404.414h8.455v2.496h-5.143v2.83h3.964v2.435h-3.964v3.06h5.669v2.558h-8.981V404.414z"/>
		<path fill="#030303" d="M719.498,412.746l-3.507-4.975h3.683l1.389,2.171l0.396,0.668l0.352-0.668l1.318-2.171h3.63l-3.551,4.903
			l3.621,5.115h-3.709l-1.538-2.452l-0.265-0.431l-0.22,0.431l-1.389,2.452h-3.735L719.498,412.746z"/>
		<path fill="#030303" d="M732.638,407.631c1.354,0,2.452,0.265,2.77,0.501l-0.369,2.443c-0.387-0.22-0.993-0.413-1.96-0.413
			c-1.037,0-2.197,0.599-2.232,2.487c-0.035,2.064,0.993,2.786,2.259,2.786c0.854,0,1.617-0.158,2.049-0.36l0.396,1.837
			c-0.554,0.571-1.854,1.021-3.146,1.021c-3.313,0-4.853-2.162-4.853-5.055C727.549,409.951,729.131,407.631,732.638,407.631z"/>
		<path fill="#030303" d="M737.41,403.184h3.261v3.762l-0.158,1.872c0.668-0.563,1.854-1.188,3.139-1.204
			c2.18-0.044,3.173,1.213,3.173,3.894v6.284h-3.262v-5.729c0-1.529-0.413-1.907-1.292-1.891c-0.403,0.01-1.115,0.167-1.6,0.65v6.97
			h-3.261V403.184z"/>
		<path fill="#030303" d="M750.69,412.192c1.222-0.527,2.839-0.606,4.096-0.606v-0.605c0-0.87-0.325-1.081-1.828-1.081
			c-0.729,0-2.127,0.299-3.023,0.712l-0.658-1.916c0.729-0.439,2.619-1.099,4.402-1.099c3.164,0,4.342,1.02,4.342,3.788v6.548
			h-2.038c-0.669,0-1.028-0.044-1.028-0.914v-0.07c-0.563,0.492-1.45,0.984-2.795,0.984c-1.979,0-3.271-1.336-3.271-3.199
			C748.889,413.555,749.583,412.667,750.69,412.192z M753.521,415.928c0.52,0,1.081-0.229,1.267-0.423v-2.354
			c-0.633,0.009-1.406,0.141-1.758,0.308c-0.378,0.149-0.782,0.396-0.782,1.107C752.246,415.515,752.861,415.928,753.521,415.928z"
			/>
		<path fill="#030303" d="M760.675,407.771h2.971l0.079,1.072c0.747-0.624,2.058-1.214,3.271-1.23
			c2.048-0.044,3.059,0.984,3.059,3.867v6.311h-3.252v-5.729c0-1.459-0.325-1.916-1.273-1.891c-0.476,0-1.16,0.229-1.601,0.65v6.97
			h-3.252L760.675,407.771L760.675,407.771z"/>
		<path fill="#030303" d="M773.463,417.177c-0.545-0.3-0.817-0.861-0.809-1.504c0.009-0.658,0.387-1.503,1.635-2.038
			c-1.274-0.511-2.004-1.46-2.004-2.742c0-2.181,1.67-3.243,4.623-3.252c1.45,0,2.593,0.246,3.393,0.737
			c0.334-0.28,0.94-0.605,1.705-0.605h1.125v2.241h-1.617c0.063,0.255,0.098,0.535,0.098,0.825c0,2.005-1.434,3.234-4.702,3.234
			c-0.353,0-0.687-0.018-1.002-0.053c-0.229,0.211-0.316,0.482-0.316,0.712c0,0.482,0.325,0.649,1.274,0.649h1.985
			c3.129,0,3.965,1.441,3.965,3.041c0,2.654-2.849,3.921-5.695,3.902c-3.561-0.025-5.159-1.194-5.159-3.032
			C771.96,418.415,772.47,417.624,773.463,417.177z M777.286,420.568c1.318,0,2.294-0.413,2.294-1.485
			c0-0.772-0.264-1.389-1.907-1.389h-2.136c-0.167,0.237-0.308,0.571-0.308,1.011C775.229,419.602,775.599,420.568,777.286,420.568z
			 M778.473,410.874c0-1.046-0.501-1.556-1.503-1.556c-0.939,0-1.563,0.352-1.563,1.547c0,0.94,0.501,1.503,1.528,1.503
			C777.849,412.368,778.473,412.061,778.473,410.874z"/>
		<path fill="#030303" d="M789.107,407.631c2.136,0,4.184,0.854,4.21,4.069c0,0.729-0.044,1.415-0.105,1.846h-5.88
			c0.149,1.494,1.037,2.083,2.505,2.083c0.967,0,2.206-0.245,2.689-0.51l0.501,1.731c-0.659,0.536-2.162,1.081-3.955,1.081
			c-3.234,0-4.992-1.942-4.992-5.194C784.08,409.819,785.917,407.631,789.107,407.631z M790.303,411.92
			c0.079-1.459-0.271-2.188-1.266-2.188c-0.923,0-1.512,0.527-1.679,2.188H790.303z"/>
		<path fill="#030303" d="M805.965,407.631c3.709,0,5.036,2.479,4.992,5.354c-0.044,3.217-2.171,4.948-5.177,4.948
			c-3.709,0-5.036-2.479-5.001-5.354C800.832,409.362,802.959,407.631,805.965,407.631z M807.573,412.834
			c0-1.616-0.404-2.943-1.67-2.943c-1.311,0-1.74,0.967-1.74,2.786c0,1.651,0.422,3.015,1.688,3.015
			C807.134,415.69,807.573,414.75,807.573,412.834z"/>
		<path fill="#030303" d="M813.664,409.907h-1.257v-1.897l1.257-0.237v-1.028c0-2.883,2.048-3.753,3.885-3.753
			c1.021,0,1.705,0.149,1.935,0.202v2.231c-0.221-0.113-0.659-0.22-1.283-0.22c-0.766,0-1.267,0.492-1.267,1.661v0.905h2.172v2.136
			h-2.172v7.884h-3.27V409.907z"/>
		<path fill="#030303" d="M831.251,407.631c1.354,0,2.452,0.265,2.769,0.501l-0.368,2.443c-0.388-0.22-0.993-0.413-1.961-0.413
			c-1.036,0-2.196,0.599-2.231,2.487c-0.035,2.064,0.993,2.786,2.259,2.786c0.854,0,1.617-0.158,2.048-0.36l0.396,1.837
			c-0.555,0.571-1.854,1.021-3.146,1.021c-3.313,0-4.852-2.162-4.852-5.055C826.162,409.951,827.744,407.631,831.251,407.631z"/>
		<path fill="#030303" d="M840.567,407.631c3.709,0,5.035,2.479,4.991,5.354c-0.044,3.217-2.171,4.948-5.177,4.948
			c-3.709,0-5.036-2.479-5.001-5.354C835.435,409.362,837.562,407.631,840.567,407.631z M842.176,412.834
			c0-1.616-0.403-2.943-1.67-2.943c-1.31,0-1.74,0.967-1.74,2.786c0,1.651,0.423,3.015,1.688,3.015
			C841.736,415.69,842.176,414.75,842.176,412.834z"/>
		<path fill="#030303" d="M850.974,419.013v3.226h-3.261v-14.467h3.076v0.976c0.466-0.457,1.345-1.116,2.944-1.116
			c2.145,0,3.999,1.529,3.999,4.781c0,3.394-2.065,5.521-5.134,5.521c-0.712,0-1.273-0.114-1.66-0.246L850.974,419.013z
			 M852.354,415.734c1.143,0,1.941-1.099,1.95-3.129c0.009-1.916-0.642-2.559-1.679-2.559c-0.633,0-1.31,0.256-1.652,0.527v4.799
			C851.237,415.629,851.747,415.734,852.354,415.734z"/>
		<path fill="#030303" d="M860.633,419.76c0.896,0,2.058-0.133,2.515-1.97h-1.248l-3.454-10.02h3.437l1.441,5.272l0.659,2.751
			l0.598-2.751l1.125-5.272h3.41l-3.155,10.257c-0.738,2.399-1.925,3.463-3.199,3.938c-0.438,0.176-1.204,0.28-1.73,0.28
			c-0.265,0-1.38-0.104-1.485-0.176v-2.496C859.736,419.637,860.334,419.76,860.633,419.76z"/>
		<path fill="#030303" d="M870.441,407.771h2.855l0.142,1.607c0.412-1.02,1.528-1.767,2.883-1.767c0.29,0,0.598,0.035,0.729,0.123
			v3.208c-0.167-0.097-0.475-0.237-1.072-0.237c-1.203,0-1.897,0.536-2.275,0.949v6.135h-3.261V407.771z"/>
		<path fill="#030303" d="M878.835,404.862c0-0.984,0.905-1.811,1.96-1.811c1.063,0,1.793,0.686,1.793,1.679
			c0,0.983-0.879,1.818-1.941,1.818C879.6,406.55,878.835,405.847,878.835,404.862z M878.984,407.771h3.27v10.02h-3.27V407.771z"/>
		<path fill="#030303" d="M885.743,417.177c-0.545-0.3-0.817-0.861-0.81-1.504c0.01-0.658,0.388-1.503,1.636-2.038
			c-1.274-0.511-2.004-1.46-2.004-2.742c0-2.181,1.67-3.243,4.622-3.252c1.45,0,2.594,0.246,3.394,0.737
			c0.334-0.28,0.939-0.605,1.705-0.605h1.125v2.241h-1.617c0.063,0.255,0.097,0.535,0.097,0.825c0,2.005-1.433,3.234-4.702,3.234
			c-0.352,0-0.686-0.018-1.002-0.053c-0.229,0.211-0.315,0.482-0.315,0.712c0,0.482,0.325,0.649,1.273,0.649h1.986
			c3.129,0,3.964,1.441,3.964,3.041c0,2.654-2.848,3.921-5.695,3.902c-3.56-0.025-5.158-1.194-5.158-3.032
			C884.24,418.415,884.75,417.624,885.743,417.177z M889.566,420.568c1.317,0,2.294-0.413,2.294-1.485
			c0-0.772-0.265-1.389-1.907-1.389h-2.136c-0.167,0.237-0.309,0.571-0.309,1.011C887.51,419.602,887.879,420.568,889.566,420.568z
			 M890.753,410.874c0-1.046-0.501-1.556-1.503-1.556c-0.94,0-1.564,0.352-1.564,1.547c0,0.94,0.501,1.503,1.529,1.503
			C890.129,412.368,890.753,412.061,890.753,410.874z"/>
		<path fill="#030303" d="M897.011,403.184h3.262v3.762l-0.158,1.872c0.668-0.563,1.854-1.188,3.138-1.204
			c2.18-0.044,3.173,1.213,3.173,3.894v6.284h-3.261v-5.729c0-1.529-0.413-1.907-1.292-1.891c-0.404,0.01-1.116,0.167-1.6,0.65v6.97
			h-3.262V403.184z"/>
		<path fill="#030303" d="M909.403,409.907h-1.16v-1.723c0.879-0.255,1.459-0.448,1.73-1.012c0.202-0.422,0.476-1.143,0.703-1.688
			h1.979v2.285h2.602v2.136h-2.602v3.568c0,1.872,0.264,2.021,1.16,2.021c0.447,0,1.16-0.185,1.468-0.396l0.387,1.811
			c-0.482,0.457-1.881,1.021-3.34,1.021c-2.153,0-2.927-1.081-2.927-3.262V409.907z"/>
		<path fill="#030303" d="M921.655,407.631c2.136,0,4.184,0.854,4.21,4.069c0,0.729-0.044,1.415-0.105,1.846h-5.88
			c0.149,1.494,1.037,2.083,2.505,2.083c0.968,0,2.206-0.245,2.689-0.51l0.501,1.731c-0.659,0.536-2.162,1.081-3.955,1.081
			c-3.234,0-4.992-1.942-4.992-5.194C916.628,409.819,918.465,407.631,921.655,407.631z M922.851,411.92
			c0.079-1.459-0.271-2.188-1.266-2.188c-0.923,0-1.512,0.527-1.679,2.188H922.851z"/>
		<path fill="#030303" d="M927.359,413.124c0-3.393,2.038-5.493,5.105-5.493c0.703,0,1.267,0.114,1.652,0.246l-0.026-1.071v-3.621
			h3.252v14.748h-2.496c-0.324,0-0.482-0.177-0.482-0.476v-0.703c-0.448,0.448-1.354,1.179-3.032,1.179
			C929.196,417.932,927.359,416.376,927.359,413.124z M934.092,415.04v-4.878c-0.271-0.202-0.791-0.281-1.371-0.281
			c-1.143,0-1.941,1.021-1.95,3.085c-0.01,1.872,0.642,2.531,1.679,2.531C933.072,415.497,933.74,415.277,934.092,415.04z"/>
		<path fill="#030303" d="M854.401,432.771h2.971l0.079,1.072c0.677-0.563,1.96-1.204,3.27-1.23c1.179-0.025,2.014,0.309,2.505,1.16
			c0.563-0.448,1.819-1.169,3.35-1.16c2.013-0.009,3.226,0.923,3.226,3.858v6.318h-3.261v-5.738c0-1.459-0.299-1.898-1.266-1.882
			c-0.615,0-1.204,0.344-1.547,0.643c0.009,0.202,0.018,0.422,0.018,0.642v6.337h-3.234v-5.729c0-1.45-0.299-1.907-1.248-1.89
			c-0.466,0-1.169,0.229-1.607,0.649v6.97h-3.252v-10.02H854.401z"/>
		<path fill="#030303" d="M873.667,437.192c1.222-0.527,2.839-0.605,4.096-0.605v-0.606c0-0.87-0.324-1.081-1.828-1.081
			c-0.729,0-2.127,0.299-3.022,0.712l-0.659-1.916c0.729-0.438,2.619-1.099,4.403-1.099c3.164,0,4.342,1.02,4.342,3.788v6.548
			h-2.039c-0.668,0-1.028-0.044-1.028-0.914v-0.07c-0.563,0.492-1.449,0.984-2.795,0.984c-1.978,0-3.27-1.336-3.27-3.199
			C871.865,438.555,872.56,437.668,873.667,437.192z M876.497,440.928c0.519,0,1.081-0.229,1.266-0.422v-2.355
			c-0.633,0.009-1.405,0.142-1.758,0.308c-0.378,0.149-0.782,0.396-0.782,1.107C875.223,440.515,875.838,440.928,876.497,440.928z"
			/>
		<path fill="#030303" d="M883.88,434.907h-1.16v-1.723c0.879-0.255,1.459-0.448,1.731-1.011c0.202-0.422,0.475-1.144,0.703-1.688
			h1.978v2.285h2.603v2.136h-2.603v3.568c0,1.872,0.265,2.021,1.16,2.021c0.448,0,1.16-0.185,1.468-0.396l0.388,1.811
			c-0.483,0.457-1.881,1.021-3.341,1.021c-2.152,0-2.927-1.081-2.927-3.261V434.907L883.88,434.907z"/>
		<path fill="#030303" d="M896.132,432.632c2.136,0,4.185,0.853,4.21,4.068c0,0.729-0.044,1.415-0.104,1.847h-5.88
			c0.148,1.494,1.036,2.083,2.505,2.083c0.967,0,2.206-0.246,2.688-0.511l0.501,1.731c-0.658,0.536-2.162,1.081-3.955,1.081
			c-3.233,0-4.991-1.942-4.991-5.194C891.104,434.819,892.941,432.632,896.132,432.632z M897.327,436.921
			c0.079-1.459-0.272-2.188-1.266-2.188c-0.924,0-1.513,0.527-1.68,2.188H897.327z"/>
		<path fill="#030303" d="M902.435,432.771h2.855l0.141,1.608c0.413-1.021,1.529-1.768,2.883-1.768c0.291,0,0.599,0.035,0.729,0.123
			v3.208c-0.167-0.097-0.475-0.237-1.072-0.237c-1.204,0-1.897,0.536-2.275,0.949v6.136h-3.261V432.771z"/>
		<path fill="#030303" d="M910.827,429.862c0-0.983,0.905-1.811,1.96-1.811c1.063,0,1.793,0.686,1.793,1.679
			c0,0.984-0.879,1.819-1.942,1.819C911.592,431.551,910.827,430.847,910.827,429.862z M910.978,432.771h3.27v10.02h-3.27V432.771z"
			/>
		<path fill="#030303" d="M918.192,437.192c1.222-0.527,2.839-0.605,4.096-0.605v-0.606c0-0.87-0.325-1.081-1.828-1.081
			c-0.729,0-2.127,0.299-3.023,0.712l-0.658-1.916c0.729-0.438,2.619-1.099,4.402-1.099c3.164,0,4.342,1.02,4.342,3.788v6.548
			h-2.038c-0.669,0-1.028-0.044-1.028-0.914v-0.07c-0.563,0.492-1.45,0.984-2.795,0.984c-1.979,0-3.271-1.336-3.271-3.199
			C916.391,438.555,917.085,437.668,918.192,437.192z M921.022,440.928c0.519,0,1.08-0.229,1.266-0.422v-2.355
			c-0.633,0.009-1.406,0.142-1.758,0.308c-0.378,0.149-0.782,0.396-0.782,1.107C919.748,440.515,920.363,440.928,921.022,440.928z"
			/>
		<path fill="#030303" d="M928.177,428.184h3.262v14.606h-3.262V428.184z"/>
		<path fill="#030303" d="M935.894,439.135c1.107,0,1.793,0.791,1.793,1.846c0.01,1.063-0.834,2.004-1.941,2.004
			c-1.081,0-1.811-0.8-1.819-1.854C933.925,440.075,934.786,439.135,935.894,439.135z"/>
	</g>
</g>
</svg>
