<?xml version="1.0" encoding="utf-8"?>
<!-- Generator: Adobe Illustrator 16.0.0, SVG Export Plug-In . SVG Version: 6.00 Build 0)  -->
<!DOCTYPE svg PUBLIC "-//W3C//DTD SVG 1.1//EN" "http://www.w3.org/Graphics/SVG/1.1/DTD/svg11.dtd">
<svg version="1.1" id="Layer_1" xmlns="http://www.w3.org/2000/svg" xmlns:xlink="http://www.w3.org/1999/xlink" x="0px" y="0px"
	 width="1365.832px" height="768.002px" viewBox="0 0 1365.832 768.002" enable-background="new 0 0 1365.832 768.002"
	 xml:space="preserve">
<g id="fotoc">
	<g>
		<g>
			<defs>
				<rect id="SVGID_1_" x="0.165" y="0" width="683" height="768.002"/>
			</defs>
			<clipPath id="SVGID_2_">
				<use xlink:href="#SVGID_1_"  overflow="visible"/>
			</clipPath>
			<g clip-path="url(#SVGID_2_)">
				
					<image overflow="visible" enable-background="new    " width="960" height="1440" xlink:href="3_1a.jpg"  transform="matrix(0.7113 0 0 0.7113 4.882813e-004 7.324219e-004)">
				</image>
			</g>
		</g>
	</g>
	<g>
		<g>
			<defs>
				<rect id="SVGID_3_" x="682.832" y="0" width="683" height="768.002"/>
			</defs>
			<clipPath id="SVGID_4_">
				<use xlink:href="#SVGID_3_"  overflow="visible"/>
			</clipPath>
			<g clip-path="url(#SVGID_4_)">
				
					<image overflow="visible" enable-background="new    " width="960" height="1440" xlink:href="3_2.jpg"  transform="matrix(1 0 0 1 682.8311 -323.9983)">
				</image>
			</g>
		</g>
	</g>
</g>
<g id="fotog" display="none">
	<g display="inline">
		<g>
			<defs>
				<rect id="SVGID_5_" x="0.165" y="0" width="683" height="768.002"/>
			</defs>
			<clipPath id="SVGID_6_">
				<use xlink:href="#SVGID_5_"  overflow="visible"/>
			</clipPath>
			<g transform="matrix(1 0 0 1 -2.328306e-010 -2.328306e-010)" clip-path="url(#SVGID_6_)">
				
					<image overflow="visible" enable-background="new    " width="960" height="1440" xlink:href="3_1b.jpg"  transform="matrix(0.712 0 0 0.712 -0.002 -0.0027)">
				</image>
			</g>
		</g>
	</g>
</g>
<g id="testi_fissi">
	<rect x="251.832" y="121.392" fill="#FFFFFF" width="99.5" height="24.964"/>
	<rect x="251.832" y="96.427" fill="#FFFFFF" width="245.5" height="24.964"/>
	<rect x="871.999" y="399.428" fill="#FFFFFF" width="242.493" height="24.966"/>
	<rect x="1020.666" y="424.394" fill="#FFFFFF" width="93.826" height="24.964"/>
	<g>
		<g>
			<g>
				<rect x="561.333" y="358.732" fill="#FFFFFF" width="245.497" height="39.248"/>
			</g>
			<g>
				<rect x="614.886" y="393.304" fill="#FFFFFF" width="138.392" height="39.248"/>
			</g>
			<g>
				<rect x="570.666" y="428.638" fill="#FFFFFF" width="226.829" height="39.247"/>
			</g>
			<g>
				<path fill="#030303" d="M570.977,367.635h2.197l2.14,16.055l0.586,3.926l1.26-3.794l5.156-12.876l-0.338-3.312h2.109
					l1.597,16.056l0.294,3.926l1.449-3.794l6.489-16.188h2.228l-9.479,22.56h-2.256l-1.304-12.598l-0.265-3.457l-1.229,3.457
					l-4.98,12.598h-2.271L570.977,367.635z"/>
				<path fill="#030303" d="M596.362,381.066c-0.146-7.778,4.351-13.682,10.269-13.682c4.702,0,7.046,4.175,7.134,9.242
					c0.133,7.633-4.115,13.667-10.181,13.667C598.94,390.295,596.465,386.311,596.362,381.066z M611.465,377.038
					c-0.088-5.156-1.758-7.896-5.186-7.896c-4.482,0-7.705,5.36-7.617,11.483c0.073,5.361,1.948,7.97,5.272,7.97
					C608.433,388.596,611.582,383.322,611.465,377.038z"/>
				<path fill="#030303" d="M617.339,381.359l1.743-13.727h2.197l-1.686,13.346c-0.132,1.055-0.189,1.963-0.176,2.798
					c0.059,2.944,1.538,4.717,4.614,4.717c3.589,0,5.625-2.124,6.356-7.822l1.642-13.036h2.152l-1.67,13.228
					c-0.894,6.914-3.75,9.434-8.789,9.434c-4.276,0-6.488-2.388-6.563-6.431C617.148,383.103,617.236,382.224,617.339,381.359z"/>
				<path fill="#030303" d="M639.429,367.635h2.197l-2.593,20.565l8.687-0.059l-0.233,1.903h-10.884L639.429,367.635z"/>
				<path fill="#030303" d="M653.755,367.635h1.274c1.421-0.016,3.223-0.234,4.702-0.234c5.962,0,8.363,3.706,8.438,9.141
					c0.104,7.749-4.482,13.916-11.367,13.74c-0.41-0.015-1.201-0.059-1.654-0.103c-0.659-0.06-2.271-0.133-3.092-0.133h-1.128
					L653.755,367.635z M657.329,388.596c5.742-0.133,8.613-6.021,8.555-11.881c-0.073-5.331-1.948-7.676-6.782-7.676
					c-1.011,0-2.432,0.146-3.368,0.278l-2.373,18.896C654.531,388.42,656.113,388.625,657.329,388.596z"/>
				<path fill="#030303" d="M681.382,367.635h2.212l-2.827,22.411h-2.212L681.382,367.635z"/>
				<path fill="#030303" d="M693.438,369.26l-6.606,0.132l0.249-1.758h15.293l-0.249,1.758l-6.489-0.132l-2.622,20.785h-2.196
					L693.438,369.26z"/>
				<path fill="#030303" d="M718.53,367.635h2.461l4.232,22.411h-2.196l-1.113-6.313h-8.994l-2.944,6.313h-2.357L718.53,367.635z
					 M721.621,382.048l-1.89-10.752l-0.221-1.685l-0.806,1.743l-4.995,10.692L721.621,382.048L721.621,382.048z"/>
				<path fill="#030303" d="M731.479,367.635h2.196l-2.593,20.565l8.688-0.059l-0.234,1.903h-10.884L731.479,367.635z"/>
				<path fill="#030303" d="M745.806,367.635h2.197L745.41,388.2l8.687-0.059l-0.233,1.903h-10.884L745.806,367.635z"/>
				<path fill="#030303" d="M767.236,367.635h1.2c1.378-0.016,2.827-0.234,4.321-0.234c5.068,0,6.52,2.329,6.563,4.805
					c0.059,3.193-1.816,5.317-4.688,6.123c2.461,0.278,4.526,2.007,4.57,4.541c0.088,5.317-4.204,7.383-9.858,7.383
					c-1.128,0-2.871-0.205-3.911-0.205h-1.024L767.236,367.635z M769.829,388.669c3.939,0,7.075-1.392,7.031-5.537
					c-0.044-2.621-2.052-3.91-5.055-3.91c-2.036,0-3.091,0.044-3.838,0.088l-1.143,9.082
					C767.441,388.566,769.243,388.669,769.829,388.669z M771.602,377.639c3.076,0,5.553-1.831,5.509-5.187
					c-0.029-2.227-1.333-3.516-4.863-3.516c-0.439,0-2.095,0.088-3.003,0.189l-1.069,8.512
					C769.214,377.683,770.547,377.639,771.602,377.639z"/>
				<path fill="#030303" d="M785.4,367.635h11.073l-0.088,1.758l-8.994-0.104l-1.068,8.481l6.942-0.088l-0.132,1.859l-7.017-0.161
					l-1.144,8.994l10.796-0.189l-0.16,1.859h-13.037L785.4,367.635z"/>
				<path fill="#030303" d="M624.935,402.635h1.289c1.611,0,2.915-0.234,4.497-0.234c4.233,0,6.637,1.815,6.694,5.698
					c0.103,5.757-3.662,9.242-8.994,9.242c-1.362,0-2.666-0.146-3.104-0.204l-1.012,7.91h-2.196L624.935,402.635z M628.494,415.598
					c4.38-0.029,6.636-2.622,6.694-7.295c0.028-2.783-1.554-4.248-4.806-4.248c-0.938,0-2.446,0.16-3.472,0.293l-1.377,11.001
					C626.136,415.466,627.571,415.612,628.494,415.598z"/>
				<path fill="#030303" d="M639.261,416.066c-0.146-7.778,4.352-13.682,10.27-13.682c4.702,0,7.046,4.175,7.134,9.242
					c0.132,7.633-4.116,13.668-10.181,13.668C641.839,425.296,639.363,421.311,639.261,416.066z M654.363,412.038
					c-0.088-5.156-1.759-7.896-5.187-7.896c-4.481,0-7.705,5.36-7.617,11.483c0.073,5.361,1.948,7.97,5.273,7.97
					C651.331,423.596,654.479,418.322,654.363,412.038z"/>
				<path fill="#030303" d="M658.846,422.176c0.558,0.586,2.798,1.377,4.922,1.377c2.695,0,5.244-1.157,5.244-3.984
					c0-2.036-1.273-3.34-3.56-4.819c-2.168-1.405-4.85-3.192-4.907-6.563c-0.073-3.677,2.856-5.801,6.709-5.801
					c2.9,0,4.365,0.746,5.068,1.244l-0.703,1.699c-0.835-0.835-2.637-1.245-4.219-1.245c-1.803,0-4.557,0.586-4.645,3.53
					c-0.073,2.666,1.626,3.809,3.999,5.376c2.08,1.362,4.497,2.988,4.557,6.035c0.072,4.131-3.237,6.255-7.589,6.255
					c-2.489,0-4.834-0.762-5.492-1.304L658.846,422.176z"/>
				<path fill="#030303" d="M674.139,422.176c0.558,0.586,2.798,1.377,4.922,1.377c2.695,0,5.244-1.157,5.244-3.984
					c0-2.036-1.273-3.34-3.56-4.819c-2.168-1.405-4.85-3.192-4.907-6.563c-0.073-3.677,2.856-5.801,6.709-5.801
					c2.9,0,4.365,0.746,5.068,1.244l-0.703,1.699c-0.835-0.835-2.637-1.245-4.219-1.245c-1.803,0-4.557,0.586-4.645,3.53
					c-0.073,2.666,1.626,3.809,3.999,5.376c2.08,1.362,4.497,2.988,4.557,6.035c0.072,4.131-3.237,6.255-7.589,6.255
					c-2.489,0-4.834-0.762-5.492-1.304L674.139,422.176z"/>
				<path fill="#030303" d="M693.343,402.635h2.212l-2.827,22.412h-2.212L693.343,402.635z"/>
				<path fill="#030303" d="M701.37,402.635h1.201c1.377-0.016,2.827-0.234,4.32-0.234c5.068,0,6.52,2.329,6.563,4.805
					c0.059,3.193-1.816,5.317-4.688,6.123c2.461,0.278,4.526,2.007,4.57,4.541c0.088,5.317-4.204,7.383-9.857,7.383
					c-1.129,0-2.871-0.204-3.911-0.204h-1.025L701.37,402.635z M703.963,423.67c3.94,0,7.075-1.393,7.031-5.538
					c-0.044-2.621-2.051-3.91-5.054-3.91c-2.036,0-3.092,0.044-3.839,0.088l-1.143,9.082
					C701.575,423.566,703.377,423.67,703.963,423.67z M705.735,412.639c3.075,0,5.552-1.831,5.508-5.187
					c-0.029-2.227-1.333-3.516-4.863-3.516c-0.438,0-2.095,0.088-3.003,0.189l-1.069,8.512
					C703.348,412.683,704.681,412.639,705.735,412.639z"/>
				<path fill="#030303" d="M719.534,402.635h2.197l-2.594,20.565l8.688-0.059l-0.234,1.904h-10.884L719.534,402.635z"/>
				<path fill="#030303" d="M733.86,402.635h11.073l-0.088,1.758l-8.994-0.104l-1.068,8.481l6.942-0.088l-0.132,1.859l-7.017-0.161
					l-1.144,8.994l10.796-0.189l-0.16,1.859h-13.037L733.86,402.635z"/>
				<path fill="#030303" d="M577.729,437.635h5.229l0.864,14.354l0.293,3.252l0.996-3.252l3.765-9.39l-0.527-4.966h5.055
					l0.879,14.354l0.337,3.252l0.776-3.252l4.893-14.354h5.332l-8.716,22.412h-6.05l-0.836-7.998l-0.264-2.446l-0.894,2.446
					l-2.931,7.998h-5.492L577.729,437.635z"/>
				<path fill="#030303" d="M607.363,437.635h5.186l-3.208,22.412h-5.186L607.363,437.635z"/>
				<path fill="#030303" d="M620.313,441.502l-5.26,0.16l0.646-4.027h15.63l-0.586,4.027l-5.156-0.16l-2.65,18.545h-5.273
					L620.313,441.502z"/>
				<path fill="#030303" d="M634.038,437.635h5.186l-1.392,9.727h7.061l1.393-9.727h5.244l-3.208,22.412h-5.244l1.304-9.111h-7.061
					l-1.305,9.111h-5.186L634.038,437.635z"/>
				<path fill="#030303" d="M663.95,437.399c5.303,0,7.954,4.014,7.954,8.789c0,7.632-4.103,14.092-10.929,14.092
					c-5.404,0-8.086-3.939-8.086-8.701C652.891,443.933,657.036,437.399,663.95,437.399z M666.572,446.35
					c0-3.882-1.113-5.054-3.18-5.054c-3.267,0-5.171,5.552-5.171,10.02c0,3.882,1.113,5.068,3.164,5.068
					C664.653,456.385,666.572,450.965,666.572,446.35z"/>
				<path fill="#030303" d="M674.219,451.302l1.948-13.667h5.171l-1.846,13.008c-0.146,1.069-0.161,1.978-0.161,2.813
					c0.015,2.197,0.791,2.856,2.9,2.856c2.388,0,3.529-1.23,4.175-5.552l1.859-13.125h5.156l-1.904,13.667
					c-0.907,6.488-3.853,8.979-10.077,8.979c-5.112,0-7.397-2.52-7.412-6.563C674.014,452.956,674.087,452.166,674.219,451.302z"/>
				<path fill="#030303" d="M700.688,441.502l-5.26,0.16l0.646-4.027h15.63l-0.586,4.027l-5.156-0.16l-2.65,18.545h-5.273
					L700.688,441.502z"/>
				<path fill="#030303" d="M724.683,441.502l-5.259,0.16l0.646-4.027h15.63l-0.586,4.027l-5.156-0.16l-2.651,18.545h-5.272
					L724.683,441.502z"/>
				<path fill="#030303" d="M746.348,437.399c5.304,0,7.954,4.014,7.954,8.789c0,7.632-4.102,14.092-10.928,14.092
					c-5.405,0-8.086-3.939-8.086-8.701C735.288,443.933,739.434,437.399,746.348,437.399z M748.97,446.35
					c0-3.882-1.112-5.054-3.179-5.054c-3.267,0-5.171,5.552-5.171,10.02c0,3.882,1.113,5.068,3.164,5.068
					C747.051,456.385,748.97,450.965,748.97,446.35z"/>
				<path fill="#030303" d="M758.989,437.635h2.959c1.743,0,2.313-0.234,4.232-0.234c5.846,0,8.027,2.095,8.027,5.757
					c0,3.354-1.304,6.432-4.79,7.5c0.82,0.688,1.567,2.14,2.065,4.015c1.244,3.838,1.465,4.556,2.035,5.376h-5.741
					c-0.366-0.527-0.558-1.787-1.274-4.482c-0.63-2.563-1.509-3.911-1.978-3.911h-2.301l-1.245,8.395h-5.186L758.989,437.635z
					 M765.625,447.668c2.798,0,3.589-2.52,3.53-4.263c-0.073-1.89-1.289-2.401-3.473-2.401c-0.688,0-1.582,0.072-2.007,0.146
					l-0.908,6.476C763.56,447.668,765.01,447.668,765.625,447.668z"/>
				<path fill="#030303" d="M777.725,449.689c0-1.743,0.659-2.855,3.691-4.365c2.271-1.011,3.413-1.947,3.823-2.606
					c0.103-0.293,0.337-1.128,0.337-1.86c0-1.641-1.699-3.047-4.453-3.047c-1.055,0-1.992,0.073-3.032,0.337l0.82-3.369
					c0.498-0.438,1.992-0.775,3.148-0.775c5.698,0,8.219,2.725,8.219,6.313c0,7.104-8.657,6.68-8.657,10.21
					c0,0.703,0.498,1.406,0.601,1.772l-2.445,0.967l-0.249-0.015C778.662,452.648,777.725,451.037,777.725,449.689z
					 M782.266,455.095c1.729,0,2.358,1.011,2.358,2.183c0,1.919-1.23,3.193-3.12,3.193c-1.421,0-2.285-0.923-2.285-2.228
					C779.219,456.604,780.376,455.095,782.266,455.095z"/>
			</g>
		</g>
	</g>
	<g>
		<g>
			<rect x="608.242" y="300.941" fill="#030303" width="149.18" height="47.789"/>
		</g>
		<g>
			<path fill="#FFFFFF" d="M626.415,307.666h8.042l-0.394,2.58l-4.692-0.037l-0.498,3.49l4.017-0.056l-0.338,2.729l-4.054-0.064
				l-0.816,5.715h-3.321L626.415,307.666z"/>
			<path fill="#FFFFFF" d="M636.548,307.666h1.896c1.116,0,1.481-0.149,2.712-0.149c3.744,0,5.143,1.342,5.143,3.688
				c0,2.149-0.835,4.12-3.069,4.805c0.525,0.441,1.005,1.37,1.323,2.571c0.798,2.459,0.938,2.919,1.305,3.444h-3.679
				c-0.234-0.338-0.356-1.146-0.815-2.871c-0.404-1.643-0.967-2.506-1.268-2.506h-1.473l-0.798,5.377h-3.322L636.548,307.666z
				 M640.799,314.094c1.792,0,2.299-1.614,2.261-2.73c-0.047-1.211-0.825-1.539-2.224-1.539c-0.44,0-1.013,0.047-1.286,0.094
				l-0.582,4.147C639.476,314.094,640.405,314.094,640.799,314.094z"/>
			<path fill="#FFFFFF" d="M649.18,307.666h8.577l-0.347,2.58l-5.274-0.019l-0.451,3.162l3.933-0.048l-0.338,2.592l-3.951-0.085
				l-0.516,3.641l5.939-0.094l-0.347,2.628h-9.281L649.18,307.666z"/>
			<path fill="#FFFFFF" d="M660.487,307.666h8.577l-0.348,2.58l-5.273-0.019l-0.451,3.162l3.932-0.048l-0.338,2.592l-3.951-0.085
				l-0.516,3.641l5.94-0.094l-0.348,2.628h-9.281L660.487,307.666z"/>
			<path fill="#FFFFFF" d="M671.795,307.666h1.464c0.797,0,2.769-0.149,3.631-0.149c3.971,0,5.453,2.337,5.453,5.762
				c0,4.646-2.553,8.896-7.938,8.896c-0.348,0-0.826-0.027-1.352-0.065c-0.646-0.037-1.37-0.084-1.961-0.084h-1.351L671.795,307.666
				z M674.873,319.743c2.769,0,4.054-2.975,4.054-6.513c0-2.608-0.854-3.267-2.722-3.267c-0.394,0-1.06,0.048-1.437,0.122
				l-1.351,9.459C673.793,319.668,674.3,319.743,674.873,319.743z"/>
			<path fill="#FFFFFF" d="M690.133,307.516c3.397,0,5.095,2.57,5.095,5.631c0,4.889-2.627,9.026-7,9.026
				c-3.463,0-5.18-2.523-5.18-5.573C683.047,311.701,685.703,307.516,690.133,307.516z M691.813,313.249
				c0-2.485-0.714-3.236-2.037-3.236c-2.094,0-3.313,3.557-3.313,6.419c0,2.485,0.713,3.247,2.027,3.247
				C690.583,319.678,691.813,316.205,691.813,313.249z"/>
			<path fill="#FFFFFF" d="M699.161,307.666h4.833l0.638,9.881l0.058,2.111l0.449-2.111l3.332-9.881h4.853l-0.226,14.357h-3.313
				l0.835-10.688l0.253-2.195l-0.694,2.195l-4.101,10.718l-3.65,0.141l-1.126-10.857l-0.019-2.195l-0.45,2.195l-2.327,10.688h-3.274
				L699.161,307.666z"/>
			<path fill="#FFFFFF" d="M726.45,307.516c3.396,0,5.095,2.57,5.095,5.631c0,4.889-2.627,9.026-7,9.026
				c-3.463,0-5.18-2.523-5.18-5.573C719.364,311.701,722.021,307.516,726.45,307.516z M728.129,313.249
				c0-2.485-0.713-3.236-2.037-3.236c-2.092,0-3.313,3.557-3.313,6.419c0,2.485,0.713,3.247,2.026,3.247
				C726.9,319.678,728.129,316.205,728.129,313.249z"/>
			<path fill="#FFFFFF" d="M734.568,307.666h8.042l-0.395,2.58l-4.691-0.037l-0.498,3.49l4.017-0.056l-0.338,2.729l-4.054-0.064
				l-0.816,5.715h-3.322L734.568,307.666z"/>
			<path fill="#FFFFFF" d="M619.549,326.9h3.322l-2.055,14.356h-3.322L619.549,326.9z"/>
			<path fill="#FFFFFF" d="M625.936,326.9h2.882l3.341,7.432l0.741,2.44l0.121-2.44l0.91-7.432h3.209l-2.055,14.356h-2.787
				l-3.266-7.816l-0.93-2.58l0.028,2.58l-1.079,7.816h-3.172L625.936,326.9z"/>
			<path fill="#FFFFFF" d="M640.023,326.9h8.042l-0.395,2.58l-4.691-0.037l-0.498,3.49l4.017-0.057l-0.338,2.73l-4.054-0.065
				l-0.816,5.715h-3.322L640.023,326.9z"/>
			<path fill="#FFFFFF" d="M655.14,326.75c3.397,0,5.096,2.571,5.096,5.631c0,4.89-2.627,9.027-7,9.027
				c-3.463,0-5.181-2.523-5.181-5.574C648.054,330.936,650.71,326.75,655.14,326.75z M656.819,332.483
				c0-2.486-0.713-3.237-2.037-3.237c-2.094,0-3.313,3.558-3.313,6.419c0,2.486,0.713,3.247,2.027,3.247
				C655.59,338.912,656.819,335.439,656.819,332.483z"/>
			<path fill="#FFFFFF" d="M663.248,326.9h1.896c1.117,0,1.482-0.15,2.713-0.15c3.743,0,5.143,1.343,5.143,3.688
				c0,2.148-0.835,4.12-3.069,4.805c0.525,0.441,1.004,1.37,1.323,2.571c0.798,2.459,0.938,2.919,1.304,3.443h-3.678
				c-0.235-0.338-0.356-1.145-0.815-2.87c-0.404-1.644-0.968-2.507-1.268-2.507h-1.473l-0.798,5.377h-3.322L663.248,326.9z
				 M667.5,333.328c1.792,0,2.299-1.614,2.261-2.729c-0.047-1.211-0.826-1.539-2.224-1.539c-0.441,0-1.013,0.047-1.286,0.094
				l-0.582,4.146C666.176,333.328,667.104,333.328,667.5,333.328z"/>
			<path fill="#FFFFFF" d="M676.79,326.9h4.833l0.638,9.881l0.058,2.111l0.449-2.111l3.332-9.881h4.853l-0.226,14.356h-3.313
				l0.835-10.688l0.253-2.196l-0.694,2.196l-4.101,10.717l-3.65,0.142l-1.126-10.857l-0.019-2.196l-0.45,2.196l-2.327,10.688h-3.274
				L676.79,326.9z"/>
			<path fill="#FFFFFF" d="M697.609,326.9h4.223l2.13,14.356l-3.332,0.011l-0.31-2.693h-4.898l-1.098,2.684l-3.66,0.011
				L697.609,326.9z M700.068,336.313l-0.714-6.334l-0.057-1.117l-0.366,1.117l-2.59,6.334H700.068z"/>
			<path fill="#FFFFFF" d="M709.096,329.378l-3.369,0.104l0.413-2.58h10.014l-0.375,2.58l-3.304-0.104l-1.698,11.88h-3.378
				L709.096,329.378z"/>
			<path fill="#FFFFFF" d="M718.254,326.9h3.322l-2.055,14.356h-3.322L718.254,326.9z"/>
			<path fill="#FFFFFF" d="M729.615,326.75c3.396,0,5.095,2.571,5.095,5.631c0,4.89-2.627,9.027-7,9.027
				c-3.463,0-5.18-2.523-5.18-5.574C722.529,330.936,725.185,326.75,729.615,326.75z M731.294,332.483
				c0-2.486-0.713-3.237-2.037-3.237c-2.092,0-3.313,3.558-3.313,6.419c0,2.486,0.713,3.247,2.026,3.247
				C730.065,338.912,731.294,335.439,731.294,332.483z"/>
			<path fill="#FFFFFF" d="M737.733,326.9h2.881l3.341,7.432l0.741,2.44l0.122-2.44l0.909-7.432h3.209l-2.055,14.356h-2.787
				l-3.266-7.816l-0.929-2.58l0.027,2.58l-1.079,7.816h-3.172L737.733,326.9z"/>
		</g>
	</g>
	<g>
		<path fill="#030303" d="M255.854,101.788h3.357l1.397,7.472l0.413,3.189l0.483-3.189l1.767-7.472h3.05l1.819,7.472l0.492,3.015
			l0.396-3.015l1.389-7.472h3.226l-3.524,13.465h-3.296l-1.714-6.986l-0.431-2.795l-0.378,2.804l-1.696,6.979h-3.234
			L255.854,101.788z"/>
		<path fill="#030303" d="M274.926,100.558h3.261v3.762l-0.158,1.872c0.668-0.563,1.854-1.188,3.138-1.204
			c2.18-0.044,3.173,1.213,3.173,3.894v6.284h-3.261v-5.729c0-1.529-0.413-1.907-1.292-1.891c-0.404,0.01-1.116,0.167-1.6,0.65v6.97
			h-3.261V100.558L274.926,100.558z"/>
		<path fill="#030303" d="M286.905,102.236c0-0.984,0.905-1.812,1.96-1.812c1.063,0,1.793,0.687,1.793,1.68
			c0,0.983-0.879,1.818-1.942,1.818C287.67,103.924,286.905,103.221,286.905,102.236z M287.055,105.146h3.27v10.02h-3.27V105.146z"
			/>
		<path fill="#030303" d="M292.979,112.247c0.299,0.246,1.635,0.889,2.962,0.889c1.028,0.009,1.45-0.221,1.45-0.729
			c0-0.545-0.809-0.87-2.171-1.318c-1.846-0.605-2.593-1.626-2.584-3.164c0-1.941,1.872-2.918,4.166-2.918
			c1.635,0,2.77,0.36,3.227,0.615l-0.29,2.285c-0.369-0.316-1.45-0.765-2.417-0.765c-1.125,0-1.529,0.229-1.538,0.686
			c0,0.527,0.483,0.791,2.057,1.283c1.854,0.598,2.77,1.459,2.77,3.015c0,2.083-1.67,3.19-4.229,3.19
			c-1.661,0-3.155-0.466-3.718-0.817L292.979,112.247z"/>
		<path fill="#030303" d="M302.91,107.281h-1.16v-1.723c0.879-0.255,1.459-0.448,1.731-1.012c0.201-0.422,0.475-1.143,0.702-1.688
			h1.979v2.285h2.602v2.136h-2.602v3.568c0,1.872,0.264,2.021,1.16,2.021c0.447,0,1.16-0.185,1.468-0.396l0.387,1.811
			c-0.482,0.457-1.881,1.021-3.34,1.021c-2.153,0-2.927-1.081-2.927-3.262V107.281L302.91,107.281z"/>
		<path fill="#030303" d="M310.82,100.558h3.261v14.606h-3.261V100.558z"/>
		<path fill="#030303" d="M321.288,105.005c2.136,0,4.184,0.854,4.21,4.069c0,0.729-0.044,1.415-0.105,1.846h-5.88
			c0.149,1.494,1.037,2.083,2.505,2.083c0.968,0,2.206-0.246,2.689-0.51l0.501,1.731c-0.659,0.536-2.162,1.081-3.955,1.081
			c-3.234,0-4.992-1.942-4.992-5.194C316.261,107.193,318.098,105.005,321.288,105.005z M322.483,109.294
			c0.078-1.459-0.272-2.188-1.267-2.188c-0.923,0-1.512,0.526-1.679,2.188H322.483z"/>
		<path fill="#030303" d="M327.643,100.566h3.262v3.612l-0.07,1.837c0.492-0.448,1.354-1.012,2.83-1.012
			c2.136,0,3.973,1.529,3.973,4.781c0,3.394-2.092,5.563-5.309,5.563c-2.102,0-4.438-0.545-4.686-0.747V100.566L327.643,100.566z
			 M332.274,113.161c1.115,0,1.95-1.143,1.96-3.182c0.009-1.986-0.694-2.559-1.688-2.559c-0.686,0-1.336,0.29-1.644,0.527v4.913
			C331.088,113.073,331.571,113.161,332.274,113.161z"/>
		<path fill="#030303" d="M339.815,100.558h3.261v14.606h-3.261V100.558z"/>
		<path fill="#030303" d="M350.45,105.005c3.709,0,5.036,2.479,4.992,5.354c-0.044,3.217-2.171,4.948-5.178,4.948
			c-3.709,0-5.035-2.479-5.001-5.354C345.317,106.736,347.444,105.005,350.45,105.005z M352.059,110.208
			c0-1.617-0.403-2.943-1.67-2.943c-1.31,0-1.739,0.967-1.739,2.785c0,1.652,0.422,3.016,1.688,3.016
			C351.619,113.064,352.059,112.124,352.059,110.208z"/>
		<path fill="#030303" d="M356.181,105.146h3.174l1.027,4.052l0.536,2.628l0.606-2.628l1.187-4.052h2.927l1.179,4.052l0.57,2.628
			l0.527-2.637l0.949-4.043h3.022l-3.154,10.16h-2.856l-1.459-4.932l-0.378-1.881l-0.387,1.881l-1.406,4.932h-2.944L356.181,105.146
			z"/>
		<path fill="#030303" d="M379.076,102.236c0-0.984,0.905-1.812,1.96-1.812c1.063,0,1.793,0.687,1.793,1.68
			c0,0.983-0.879,1.818-1.942,1.818C379.841,103.924,379.076,103.221,379.076,102.236z M379.226,105.146h3.271v10.02h-3.271V105.146
			z"/>
		<path fill="#030303" d="M385.325,105.146h2.971l0.079,1.072c0.747-0.624,2.057-1.214,3.271-1.23
			c2.048-0.044,3.059,0.984,3.059,3.867v6.311h-3.252v-5.729c0-1.459-0.325-1.916-1.274-1.891c-0.475,0-1.16,0.229-1.6,0.65v6.97
			h-3.252L385.325,105.146L385.325,105.146z"/>
		<path fill="#030303" d="M397.973,107.281h-1.257v-1.898l1.257-0.236v-1.028c0-2.883,2.048-3.753,3.886-3.753
			c1.02,0,1.705,0.149,1.934,0.202v2.231c-0.22-0.113-0.659-0.22-1.283-0.22c-0.765,0-1.266,0.492-1.266,1.661v0.905h2.171v2.136
			h-2.171v7.884h-3.271V107.281z"/>
		<path fill="#030303" d="M409.706,105.005c3.709,0,5.036,2.479,4.992,5.354c-0.044,3.217-2.171,4.948-5.178,4.948
			c-3.709,0-5.035-2.479-5-5.354C404.573,106.736,406.7,105.005,409.706,105.005z M411.313,110.208c0-1.617-0.403-2.943-1.67-2.943
			c-1.31,0-1.739,0.967-1.739,2.785c0,1.652,0.422,3.016,1.688,3.016C410.875,113.064,411.313,112.124,411.313,110.208z"/>
		<path fill="#030303" d="M416.799,105.146h2.856l0.141,1.607c0.413-1.02,1.529-1.767,2.883-1.767c0.29,0,0.599,0.035,0.729,0.123
			v3.208c-0.167-0.097-0.476-0.237-1.072-0.237c-1.204,0-1.897,0.536-2.276,0.949v6.135h-3.261V105.146z"/>
		<path fill="#030303" d="M425.377,105.146h2.971l0.079,1.072c0.678-0.563,1.96-1.204,3.271-1.23
			c1.178-0.026,2.013,0.308,2.505,1.16c0.563-0.448,1.818-1.169,3.349-1.16c2.014-0.009,3.227,0.923,3.227,3.858v6.318h-3.262
			v-5.738c0-1.46-0.299-1.898-1.266-1.882c-0.615,0-1.204,0.344-1.547,0.643c0.009,0.202,0.018,0.422,0.018,0.642v6.337h-3.233
			v-5.729c0-1.45-0.299-1.907-1.248-1.891c-0.466,0-1.169,0.229-1.608,0.65v6.97h-3.252v-10.02H425.377z"/>
		<path fill="#030303" d="M444.643,109.566c1.223-0.527,2.84-0.606,4.097-0.606v-0.605c0-0.87-0.325-1.081-1.828-1.081
			c-0.729,0-2.127,0.299-3.023,0.712l-0.658-1.916c0.729-0.439,2.618-1.099,4.402-1.099c3.164,0,4.342,1.02,4.342,3.787v6.549
			h-2.039c-0.668,0-1.027-0.044-1.027-0.914v-0.07c-0.563,0.492-1.45,0.984-2.795,0.984c-1.979,0-3.271-1.336-3.271-3.199
			C442.841,110.929,443.535,110.041,444.643,109.566z M447.473,113.302c0.52,0,1.081-0.229,1.267-0.423v-2.354
			c-0.633,0.009-1.406,0.141-1.758,0.308c-0.379,0.149-0.782,0.396-0.782,1.107C446.198,112.889,446.813,113.302,447.473,113.302z"
			/>
		<path fill="#030303" d="M454.854,107.281h-1.159v-1.723c0.879-0.255,1.459-0.448,1.73-1.012c0.202-0.422,0.476-1.143,0.703-1.688
			h1.979v2.285h2.602v2.136h-2.602v3.568c0,1.872,0.264,2.021,1.159,2.021c0.448,0,1.16-0.185,1.469-0.396l0.387,1.811
			c-0.483,0.457-1.881,1.021-3.34,1.021c-2.153,0-2.928-1.081-2.928-3.262V107.281z"/>
		<path fill="#030303" d="M462.581,102.236c0-0.984,0.905-1.812,1.96-1.812c1.063,0,1.793,0.687,1.793,1.68
			c0,0.983-0.879,1.818-1.942,1.818C463.346,103.924,462.581,103.221,462.581,102.236z M462.729,105.146H466v10.02h-3.271V105.146z"
			/>
		<path fill="#030303" d="M473.339,105.005c3.709,0,5.036,2.479,4.992,5.354c-0.044,3.217-2.171,4.948-5.177,4.948
			c-3.709,0-5.036-2.479-5.001-5.354C468.206,106.736,470.333,105.005,473.339,105.005z M474.947,110.208
			c0-1.617-0.404-2.943-1.67-2.943c-1.311,0-1.74,0.967-1.74,2.785c0,1.652,0.422,3.016,1.688,3.016
			C474.508,113.064,474.947,112.124,474.947,110.208z"/>
		<path fill="#030303" d="M480.521,105.146h2.971l0.079,1.072c0.747-0.624,2.057-1.214,3.27-1.23c2.048-0.044,3.06,0.984,3.06,3.867
			v6.311h-3.252v-5.729c0-1.459-0.325-1.916-1.274-1.891c-0.476,0-1.16,0.229-1.601,0.65v6.97h-3.252V105.146L480.521,105.146z"/>
		<path fill="#030303" d="M257.629,132.281h-1.16v-1.723c0.879-0.255,1.459-0.448,1.731-1.012c0.202-0.422,0.475-1.143,0.703-1.688
			h1.978v2.285h2.602v2.136h-2.602v3.568c0,1.872,0.264,2.021,1.16,2.021c0.448,0,1.16-0.185,1.468-0.396l0.387,1.811
			c-0.483,0.457-1.881,1.021-3.34,1.021c-2.153,0-2.927-1.081-2.927-3.262V132.281L257.629,132.281z"/>
		<path fill="#030303" d="M270.048,130.005c3.709,0,5.036,2.479,4.992,5.354c-0.044,3.217-2.171,4.948-5.177,4.948
			c-3.709,0-5.036-2.479-5.001-5.354C264.915,131.736,267.042,130.005,270.048,130.005z M271.656,135.208
			c0-1.617-0.404-2.943-1.67-2.943c-1.31,0-1.74,0.967-1.74,2.785c0,1.652,0.422,3.016,1.688,3.016
			C271.217,138.064,271.656,137.124,271.656,135.208z"/>
		<path fill="#030303" d="M283.188,130.146h2.971l0.079,1.072c0.677-0.563,1.96-1.204,3.27-1.23c1.178-0.026,2.013,0.308,2.505,1.16
			c0.563-0.448,1.819-1.169,3.349-1.16c2.013-0.009,3.226,0.923,3.226,3.858v6.318h-3.261v-5.738c0-1.459-0.299-1.898-1.266-1.882
			c-0.615,0-1.204,0.344-1.547,0.643c0.009,0.202,0.018,0.422,0.018,0.642v6.337h-3.234v-5.729c0-1.45-0.299-1.907-1.248-1.891
			c-0.466,0-1.169,0.229-1.608,0.65v6.97h-3.252v-10.02H283.188z"/>
		<path fill="#030303" d="M305.679,130.005c2.137,0,4.185,0.854,4.21,4.069c0,0.729-0.044,1.415-0.104,1.846h-5.88
			c0.148,1.494,1.037,2.083,2.505,2.083c0.967,0,2.206-0.246,2.688-0.51l0.501,1.731c-0.658,0.536-2.162,1.081-3.955,1.081
			c-3.233,0-4.991-1.942-4.991-5.194C300.651,132.193,302.488,130.005,305.679,130.005z M306.874,134.294
			c0.079-1.459-0.272-2.188-1.266-2.188c-0.924,0-1.513,0.526-1.68,2.188H306.874z"/>
		<path fill="#030303" d="M311.383,135.498c0-3.393,2.039-5.493,5.106-5.493c0.703,0,1.266,0.114,1.651,0.246l-0.025-1.071v-3.621
			h3.252v14.748h-2.496c-0.325,0-0.483-0.177-0.483-0.476v-0.703c-0.447,0.448-1.354,1.179-3.031,1.179
			C313.22,140.306,311.383,138.75,311.383,135.498z M318.115,137.414v-4.878c-0.272-0.202-0.791-0.281-1.371-0.281
			c-1.144,0-1.942,1.021-1.951,3.085c-0.009,1.872,0.642,2.531,1.679,2.531C317.096,137.871,317.764,137.651,318.115,137.414z"/>
		<path fill="#030303" d="M324.021,127.236c0-0.984,0.905-1.812,1.961-1.812c1.063,0,1.793,0.687,1.793,1.68
			c0,0.983-0.88,1.818-1.942,1.818C324.786,128.924,324.021,128.221,324.021,127.236z M324.171,130.146h3.271v10.02h-3.271V130.146z
			"/>
		<path fill="#030303" d="M331.387,134.566c1.223-0.527,2.839-0.606,4.097-0.606v-0.605c0-0.87-0.325-1.081-1.828-1.081
			c-0.729,0-2.127,0.299-3.023,0.712l-0.659-1.916c0.729-0.439,2.619-1.099,4.403-1.099c3.164,0,4.342,1.02,4.342,3.787v6.549
			h-2.039c-0.668,0-1.027-0.044-1.027-0.914v-0.07c-0.563,0.492-1.45,0.984-2.795,0.984c-1.979,0-3.271-1.336-3.271-3.199
			C329.585,135.929,330.279,135.041,331.387,134.566z M334.217,138.302c0.52,0,1.081-0.229,1.267-0.423v-2.354
			c-0.634,0.009-1.406,0.141-1.759,0.308c-0.378,0.149-0.781,0.396-0.781,1.107C332.942,137.889,333.558,138.302,334.217,138.302z"
			/>
		<path fill="#030303" d="M342.962,136.51c1.107,0,1.793,0.79,1.793,1.846c0.009,1.063-0.835,2.004-1.941,2.004
			c-1.081,0-1.812-0.8-1.819-1.854C340.993,137.449,341.854,136.51,342.962,136.51z"/>
	</g>
	<g>
		<path fill="#030303" d="M877.195,404.414h8.455v2.496h-5.143v2.83h3.964v2.435h-3.964v3.06h5.669v2.558h-8.981V404.414z"/>
		<path fill="#030303" d="M890.414,412.746l-3.507-4.975h3.683l1.389,2.171l0.396,0.668l0.352-0.668l1.318-2.171h3.63l-3.551,4.903
			l3.621,5.115h-3.709l-1.538-2.452l-0.265-0.431l-0.22,0.431l-1.389,2.452h-3.735L890.414,412.746z"/>
		<path fill="#030303" d="M903.554,407.631c1.354,0,2.452,0.265,2.77,0.501l-0.369,2.443c-0.387-0.22-0.993-0.413-1.96-0.413
			c-1.037,0-2.197,0.599-2.232,2.487c-0.034,2.064,0.993,2.786,2.259,2.786c0.854,0,1.617-0.158,2.049-0.36l0.396,1.837
			c-0.554,0.571-1.854,1.021-3.146,1.021c-3.313,0-4.853-2.162-4.853-5.055C898.465,409.951,900.047,407.631,903.554,407.631z"/>
		<path fill="#030303" d="M908.326,403.184h3.261v3.762l-0.158,1.872c0.668-0.563,1.854-1.188,3.139-1.204
			c2.18-0.044,3.173,1.213,3.173,3.894v6.284h-3.261v-5.729c0-1.529-0.414-1.907-1.293-1.891c-0.403,0.01-1.115,0.167-1.6,0.65v6.97
			h-3.261V403.184z"/>
		<path fill="#030303" d="M921.606,412.192c1.222-0.527,2.839-0.606,4.096-0.606v-0.605c0-0.87-0.325-1.081-1.828-1.081
			c-0.729,0-2.127,0.299-3.023,0.712l-0.658-1.916c0.729-0.439,2.619-1.099,4.402-1.099c3.164,0,4.342,1.02,4.342,3.788v6.548
			h-2.039c-0.668,0-1.027-0.044-1.027-0.914v-0.07c-0.563,0.492-1.45,0.984-2.795,0.984c-1.979,0-3.271-1.336-3.271-3.199
			C919.805,413.555,920.499,412.667,921.606,412.192z M924.437,415.928c0.52,0,1.082-0.229,1.267-0.423v-2.354
			c-0.633,0.009-1.406,0.141-1.758,0.308c-0.378,0.149-0.782,0.396-0.782,1.107C923.162,415.515,923.777,415.928,924.437,415.928z"
			/>
		<path fill="#030303" d="M931.591,407.771h2.971l0.079,1.072c0.747-0.624,2.058-1.214,3.271-1.23
			c2.048-0.044,3.059,0.984,3.059,3.867v6.311h-3.252v-5.729c0-1.459-0.324-1.916-1.273-1.891c-0.476,0-1.16,0.229-1.601,0.65v6.97
			h-3.252L931.591,407.771L931.591,407.771z"/>
		<path fill="#030303" d="M944.379,417.177c-0.545-0.3-0.817-0.861-0.809-1.504c0.009-0.658,0.387-1.503,1.635-2.038
			c-1.274-0.511-2.004-1.46-2.004-2.742c0-2.181,1.67-3.243,4.623-3.252c1.45,0,2.593,0.246,3.393,0.737
			c0.334-0.28,0.94-0.605,1.705-0.605h1.125v2.241h-1.617c0.063,0.255,0.098,0.535,0.098,0.825c0,2.005-1.434,3.234-4.702,3.234
			c-0.353,0-0.687-0.018-1.002-0.053c-0.229,0.211-0.316,0.482-0.316,0.712c0,0.482,0.325,0.649,1.274,0.649h1.985
			c3.129,0,3.965,1.441,3.965,3.041c0,2.654-2.849,3.921-5.695,3.902c-3.561-0.025-5.159-1.194-5.159-3.032
			C942.876,418.415,943.386,417.624,944.379,417.177z M948.202,420.568c1.318,0,2.294-0.413,2.294-1.485
			c0-0.772-0.264-1.389-1.907-1.389h-2.136c-0.167,0.237-0.308,0.571-0.308,1.011C946.146,419.602,946.515,420.568,948.202,420.568z
			 M949.389,410.874c0-1.046-0.501-1.556-1.503-1.556c-0.939,0-1.563,0.352-1.563,1.547c0,0.94,0.501,1.503,1.528,1.503
			C948.765,412.368,949.389,412.061,949.389,410.874z"/>
		<path fill="#030303" d="M960.022,407.631c2.137,0,4.185,0.854,4.211,4.069c0,0.729-0.045,1.415-0.105,1.846h-5.88
			c0.149,1.494,1.037,2.083,2.505,2.083c0.967,0,2.206-0.245,2.689-0.51l0.501,1.731c-0.659,0.536-2.162,1.081-3.955,1.081
			c-3.234,0-4.992-1.942-4.992-5.194C954.996,409.819,956.833,407.631,960.022,407.631z M961.219,411.92
			c0.079-1.459-0.271-2.188-1.266-2.188c-0.923,0-1.513,0.527-1.679,2.188H961.219z"/>
		<path fill="#030303" d="M976.881,407.631c3.709,0,5.036,2.479,4.992,5.354c-0.044,3.217-2.171,4.948-5.177,4.948
			c-3.709,0-5.036-2.479-5.001-5.354C971.748,409.362,973.875,407.631,976.881,407.631z M978.489,412.834
			c0-1.616-0.404-2.943-1.67-2.943c-1.311,0-1.74,0.967-1.74,2.786c0,1.651,0.422,3.015,1.688,3.015
			C978.05,415.69,978.489,414.75,978.489,412.834z"/>
		<path fill="#030303" d="M984.58,409.907h-1.257v-1.897l1.257-0.237v-1.028c0-2.883,2.048-3.753,3.885-3.753
			c1.021,0,1.705,0.149,1.935,0.202v2.231c-0.221-0.113-0.659-0.22-1.283-0.22c-0.766,0-1.266,0.492-1.266,1.661v0.905h2.17v2.136
			h-2.17v7.884h-3.271V409.907z"/>
		<path fill="#030303" d="M1002.167,407.631c1.354,0,2.452,0.265,2.77,0.501l-0.369,2.443c-0.388-0.22-0.993-0.413-1.961-0.413
			c-1.036,0-2.196,0.599-2.231,2.487c-0.035,2.064,0.993,2.786,2.259,2.786c0.854,0,1.617-0.158,2.048-0.36l0.396,1.837
			c-0.554,0.571-1.854,1.021-3.146,1.021c-3.313,0-4.852-2.162-4.852-5.055C997.078,409.951,998.66,407.631,1002.167,407.631z"/>
		<path fill="#030303" d="M1011.483,407.631c3.709,0,5.035,2.479,4.991,5.354c-0.044,3.217-2.171,4.948-5.177,4.948
			c-3.709,0-5.036-2.479-5.001-5.354C1006.351,409.362,1008.478,407.631,1011.483,407.631z M1013.092,412.834
			c0-1.616-0.403-2.943-1.67-2.943c-1.31,0-1.74,0.967-1.74,2.786c0,1.651,0.423,3.015,1.688,3.015
			C1012.652,415.69,1013.092,414.75,1013.092,412.834z"/>
		<path fill="#030303" d="M1021.89,419.013v3.226h-3.261v-14.467h3.076v0.976c0.466-0.457,1.345-1.116,2.944-1.116
			c2.145,0,3.999,1.529,3.999,4.781c0,3.394-2.065,5.521-5.134,5.521c-0.712,0-1.273-0.114-1.66-0.246L1021.89,419.013z
			 M1023.271,415.734c1.143,0,1.941-1.099,1.95-3.129c0.01-1.916-0.642-2.559-1.679-2.559c-0.633,0-1.31,0.256-1.652,0.527v4.799
			C1022.153,415.629,1022.663,415.734,1023.271,415.734z"/>
		<path fill="#030303" d="M1031.549,419.76c0.896,0,2.058-0.133,2.515-1.97h-1.248l-3.454-10.02h3.437l1.441,5.272l0.659,2.751
			l0.598-2.751l1.125-5.272h3.41l-3.155,10.257c-0.738,2.399-1.925,3.463-3.199,3.938c-0.438,0.176-1.203,0.28-1.73,0.28
			c-0.264,0-1.38-0.104-1.485-0.176v-2.496C1030.652,419.637,1031.25,419.76,1031.549,419.76z"/>
		<path fill="#030303" d="M1041.357,407.771h2.855l0.142,1.607c0.412-1.02,1.528-1.767,2.883-1.767c0.29,0,0.598,0.035,0.729,0.123
			v3.208c-0.167-0.097-0.475-0.237-1.072-0.237c-1.203,0-1.897,0.536-2.275,0.949v6.135h-3.261V407.771z"/>
		<path fill="#030303" d="M1049.751,404.862c0-0.984,0.905-1.811,1.96-1.811c1.063,0,1.793,0.686,1.793,1.679
			c0,0.983-0.879,1.818-1.942,1.818C1050.516,406.55,1049.751,405.847,1049.751,404.862z M1049.9,407.771h3.27v10.02h-3.27V407.771z
			"/>
		<path fill="#030303" d="M1056.659,417.177c-0.545-0.3-0.817-0.861-0.809-1.504c0.009-0.658,0.387-1.503,1.635-2.038
			c-1.274-0.511-2.004-1.46-2.004-2.742c0-2.181,1.67-3.243,4.623-3.252c1.449,0,2.593,0.246,3.393,0.737
			c0.334-0.28,0.939-0.605,1.705-0.605h1.125v2.241h-1.617c0.063,0.255,0.098,0.535,0.098,0.825c0,2.005-1.434,3.234-4.702,3.234
			c-0.353,0-0.687-0.018-1.002-0.053c-0.229,0.211-0.316,0.482-0.316,0.712c0,0.482,0.325,0.649,1.274,0.649h1.985
			c3.129,0,3.964,1.441,3.964,3.041c0,2.654-2.848,3.921-5.694,3.902c-3.561-0.025-5.159-1.194-5.159-3.032
			C1055.156,418.415,1055.666,417.624,1056.659,417.177z M1060.482,420.568c1.317,0,2.294-0.413,2.294-1.485
			c0-0.772-0.265-1.389-1.907-1.389h-2.136c-0.167,0.237-0.309,0.571-0.309,1.011
			C1058.426,419.602,1058.795,420.568,1060.482,420.568z M1061.669,410.874c0-1.046-0.501-1.556-1.503-1.556
			c-0.94,0-1.564,0.352-1.564,1.547c0,0.94,0.501,1.503,1.529,1.503C1061.045,412.368,1061.669,412.061,1061.669,410.874z"/>
		<path fill="#030303" d="M1067.927,403.184h3.262v3.762l-0.158,1.872c0.668-0.563,1.854-1.188,3.138-1.204
			c2.18-0.044,3.173,1.213,3.173,3.894v6.284h-3.261v-5.729c0-1.529-0.413-1.907-1.292-1.891c-0.404,0.01-1.116,0.167-1.6,0.65v6.97
			h-3.262V403.184z"/>
		<path fill="#030303" d="M1080.319,409.907h-1.16v-1.723c0.879-0.255,1.459-0.448,1.73-1.012c0.202-0.422,0.476-1.143,0.703-1.688
			h1.979v2.285h2.602v2.136h-2.602v3.568c0,1.872,0.264,2.021,1.16,2.021c0.447,0,1.159-0.185,1.468-0.396l0.387,1.811
			c-0.483,0.457-1.881,1.021-3.34,1.021c-2.153,0-2.927-1.081-2.927-3.262V409.907z"/>
		<path fill="#030303" d="M1092.571,407.631c2.136,0,4.184,0.854,4.21,4.069c0,0.729-0.044,1.415-0.105,1.846h-5.88
			c0.149,1.494,1.037,2.083,2.505,2.083c0.968,0,2.206-0.245,2.689-0.51l0.501,1.731c-0.659,0.536-2.162,1.081-3.955,1.081
			c-3.234,0-4.992-1.942-4.992-5.194C1087.544,409.819,1089.381,407.631,1092.571,407.631z M1093.767,411.92
			c0.079-1.459-0.271-2.188-1.266-2.188c-0.923,0-1.512,0.527-1.679,2.188H1093.767z"/>
		<path fill="#030303" d="M1098.275,413.124c0-3.393,2.038-5.493,5.105-5.493c0.703,0,1.267,0.114,1.652,0.246l-0.026-1.071v-3.621
			h3.252v14.748h-2.496c-0.324,0-0.482-0.177-0.482-0.476v-0.703c-0.448,0.448-1.354,1.179-3.032,1.179
			C1100.112,417.932,1098.275,416.376,1098.275,413.124z M1105.008,415.04v-4.878c-0.271-0.202-0.791-0.281-1.371-0.281
			c-1.143,0-1.941,1.021-1.95,3.085c-0.01,1.872,0.642,2.531,1.679,2.531C1103.988,415.497,1104.656,415.277,1105.008,415.04z"/>
		<path fill="#030303" d="M1025.317,432.771h2.971l0.079,1.072c0.677-0.563,1.96-1.204,3.27-1.23
			c1.179-0.025,2.013,0.309,2.505,1.16c0.563-0.448,1.819-1.169,3.35-1.16c2.013-0.009,3.226,0.923,3.226,3.858v6.318h-3.261v-5.738
			c0-1.459-0.299-1.898-1.266-1.882c-0.615,0-1.204,0.344-1.548,0.643c0.01,0.202,0.019,0.422,0.019,0.642v6.337h-3.234v-5.729
			c0-1.45-0.299-1.907-1.248-1.89c-0.466,0-1.169,0.229-1.607,0.649v6.97h-3.252v-10.02H1025.317z"/>
		<path fill="#030303" d="M1044.583,437.192c1.222-0.527,2.839-0.605,4.096-0.605v-0.606c0-0.87-0.324-1.081-1.828-1.081
			c-0.729,0-2.127,0.299-3.022,0.712l-0.659-1.916c0.729-0.438,2.619-1.099,4.403-1.099c3.163,0,4.342,1.02,4.342,3.788v6.548
			h-2.039c-0.668,0-1.028-0.044-1.028-0.914v-0.07c-0.563,0.492-1.449,0.984-2.795,0.984c-1.978,0-3.27-1.336-3.27-3.199
			C1042.781,438.555,1043.476,437.668,1044.583,437.192z M1047.413,440.928c0.519,0,1.081-0.229,1.266-0.422v-2.355
			c-0.633,0.009-1.406,0.142-1.758,0.308c-0.378,0.149-0.782,0.396-0.782,1.107C1046.139,440.515,1046.754,440.928,1047.413,440.928
			z"/>
		<path fill="#030303" d="M1054.796,434.907h-1.16v-1.723c0.879-0.255,1.459-0.448,1.731-1.011c0.202-0.422,0.475-1.144,0.703-1.688
			h1.978v2.285h2.603v2.136h-2.603v3.568c0,1.872,0.264,2.021,1.16,2.021c0.448,0,1.16-0.185,1.468-0.396l0.388,1.811
			c-0.483,0.457-1.882,1.021-3.341,1.021c-2.152,0-2.927-1.081-2.927-3.261V434.907z"/>
		<path fill="#030303" d="M1067.048,432.632c2.136,0,4.184,0.853,4.21,4.068c0,0.729-0.044,1.415-0.104,1.847h-5.881
			c0.149,1.494,1.037,2.083,2.506,2.083c0.967,0,2.206-0.246,2.688-0.511l0.501,1.731c-0.659,0.536-2.162,1.081-3.955,1.081
			c-3.233,0-4.992-1.942-4.992-5.194C1062.021,434.819,1063.857,432.632,1067.048,432.632z M1068.243,436.921
			c0.079-1.459-0.272-2.188-1.266-2.188c-0.924,0-1.513,0.527-1.68,2.188H1068.243z"/>
		<path fill="#030303" d="M1073.35,432.771h2.856l0.141,1.608c0.413-1.021,1.529-1.768,2.883-1.768c0.291,0,0.599,0.035,0.729,0.123
			v3.208c-0.167-0.097-0.475-0.237-1.072-0.237c-1.204,0-1.897,0.536-2.275,0.949v6.136h-3.262V432.771z"/>
		<path fill="#030303" d="M1081.743,429.862c0-0.983,0.905-1.811,1.96-1.811c1.063,0,1.793,0.686,1.793,1.679
			c0,0.984-0.879,1.819-1.942,1.819C1082.508,431.551,1081.743,430.847,1081.743,429.862z M1081.893,432.771h3.271v10.02h-3.271
			V432.771z"/>
		<path fill="#030303" d="M1089.108,437.192c1.222-0.527,2.839-0.605,4.096-0.605v-0.606c0-0.87-0.325-1.081-1.828-1.081
			c-0.729,0-2.127,0.299-3.023,0.712l-0.658-1.916c0.729-0.438,2.619-1.099,4.402-1.099c3.164,0,4.342,1.02,4.342,3.788v6.548
			h-2.038c-0.668,0-1.028-0.044-1.028-0.914v-0.07c-0.563,0.492-1.45,0.984-2.795,0.984c-1.979,0-3.271-1.336-3.271-3.199
			C1087.307,438.555,1088.001,437.668,1089.108,437.192z M1091.938,440.928c0.519,0,1.08-0.229,1.266-0.422v-2.355
			c-0.633,0.009-1.406,0.142-1.758,0.308c-0.379,0.149-0.782,0.396-0.782,1.107C1090.664,440.515,1091.279,440.928,1091.938,440.928
			z"/>
		<path fill="#030303" d="M1099.093,428.184h3.262v14.606h-3.262V428.184z"/>
		<path fill="#030303" d="M1106.81,439.135c1.107,0,1.793,0.791,1.793,1.846c0.01,1.063-0.834,2.004-1.941,2.004
			c-1.081,0-1.812-0.8-1.819-1.854C1104.841,440.075,1105.702,439.135,1106.81,439.135z"/>
	</g>
</g>
</svg>
