<?xml version="1.0" encoding="utf-8"?>
<!-- Generator: Adobe Illustrator 16.0.0, SVG Export Plug-In . SVG Version: 6.00 Build 0)  -->
<!DOCTYPE svg PUBLIC "-//W3C//DTD SVG 1.1//EN" "http://www.w3.org/Graphics/SVG/1.1/DTD/svg11.dtd">
<svg version="1.1" id="Layer_1" xmlns="http://www.w3.org/2000/svg" xmlns:xlink="http://www.w3.org/1999/xlink" x="0px" y="0px"
	 width="1024px" height="649.19px" viewBox="0 0 1024 649.19" enable-background="new 0 0 1024 649.19" xml:space="preserve">
<g>
	<g>
		<polygon fill="#010101" points="521.893,449.251 511.5,467.251 501.107,449.251 		"/>
	</g>
	<g>
		<path fill="#010101" d="M100.281,21.653H83.389V9.451h49.68v12.202h-16.851V72.62h-15.938V21.653z"/>
		<path fill="#010101" d="M141.412,9.451h15.896v25.608h21.665V9.451h15.771V72.62h-15.771V46.431h-21.665V72.62h-15.896V9.451z"/>
		<path fill="#010101" d="M209.104,9.451h39.927v11.787h-24.28v13.364h18.718v11.497h-18.718v14.443h26.77V72.62h-42.417V9.451z"/>
		<path fill="#010101" d="M290.452,9.451h15.938V72.62h-15.938V9.451z"/>
		<path fill="#010101" d="M321.248,9.451h14.775l21.541,34.656l4.399,9.214l-1.702-16.062V9.451h14.319V72.62h-15.896
			l-20.461-33.826l-4.607-9.546l1.951,16.062v27.31h-14.319V9.451z"/>
		<path fill="#010101" d="M381.263,9.451h16.851l10.085,31.917l3.154,12.285l3.154-12.285l9.421-31.917h16.851l-22.786,63.335
			h-13.779L381.263,9.451z"/>
		<path fill="#010101" d="M447.959,9.451h15.938V72.62h-15.938V9.451z"/>
		<path fill="#010101" d="M478.921,57.098c3.071,1.743,10.044,4.067,16.685,4.026c5.977,0,8.55-1.619,8.55-5.354
			c0-4.026-3.403-5.603-12.825-10.085c-8.052-3.818-14.817-9.421-14.817-19.59c0-11.497,9.172-17.307,22.537-17.307
			c9.463,0,15.522,2.283,17.805,3.611l-2.448,11.87c-2.532-1.992-8.467-4.026-13.987-4.026c-5.977,0-8.716,2.117-8.716,5.313
			c0,3.818,3.279,5.894,10.916,9.38c10.874,4.897,17.349,9.712,17.349,19.631c0,11.331-8.176,18.718-23.035,18.718
			c-9.048,0-17.515-2.366-19.963-3.901L478.921,57.098z"/>
		<path fill="#010101" d="M530.262,9.451h15.938V72.62h-15.938V9.451z"/>
		<path fill="#010101" d="M561.057,9.41l7.679,0.042c4.316,0,8.633-0.623,15.065-0.623c17.598,0,24.28,6.267,24.28,16.27
			c0,6.682-3.154,12.368-9.463,14.153c7.305,0.872,12.825,6.226,12.825,14.236c0,11.58-5.977,19.714-26.189,19.714
			c-5.852,0-12.783-0.374-16.229-0.581h-7.969V9.41z M582.847,35.474c6.724,0,10.169-2.283,10.169-8.923
			c0-5.229-3.86-7.097-10.875-7.097c-1.162,0-4.648,0.125-5.395,0.54v15.149C578.115,35.433,581.395,35.474,582.847,35.474z
			 M584.465,62.867c7.264,0,10.791-2.656,10.791-9.255c0-5.479-3.32-8.384-11.33-8.384c-2.033,0-6.184,0.083-7.18,0.332v16.353
			C577.824,62.618,581.893,62.867,584.465,62.867z"/>
		<path fill="#010101" d="M621.736,9.451h16.063v51.257h20.835V72.62h-36.897V9.451z"/>
		<path fill="#010101" d="M668.303,9.451h39.928v11.787h-24.28v13.364h18.718v11.497H683.95v14.443h26.771V72.62h-42.418V9.451z"/>
		<path fill="#010101" d="M749.318,57.098c3.072,1.743,10.045,4.067,16.686,4.026c5.977,0,8.549-1.619,8.549-5.354
			c0-4.026-3.402-5.603-12.824-10.085c-8.052-3.818-14.816-9.421-14.816-19.59c0-11.497,9.172-17.307,22.536-17.307
			c9.463,0,15.522,2.283,17.806,3.611l-2.449,11.87c-2.531-1.992-8.467-4.026-13.986-4.026c-5.977,0-8.717,2.117-8.717,5.313
			c0,3.818,3.279,5.894,10.916,9.38c10.874,4.897,17.349,9.712,17.349,19.631c0,11.331-8.177,18.718-23.034,18.718
			c-9.049,0-17.516-2.366-19.964-3.901L749.318,57.098z"/>
		<path fill="#010101" d="M800.66,9.451h15.938V72.62H800.66V9.451z"/>
		<path fill="#010101" d="M831.455,9.451h5.811c3.154,0,11.373-0.664,17.308-0.664c21.374,0,31.003,11.248,31.003,30.671
			c0,21.541-11.745,33.909-31.999,33.826c-6.143-0.042-11.704-0.664-16.56-0.664h-5.563V9.451z M854.573,61.622
			c8.841-0.042,14.567-6.433,14.567-20.752c0-15.232-4.896-20.669-15.231-20.669c-2.116,0-5.063,0.291-6.558,0.54v40.259
			C848.929,61.456,851.751,61.622,854.573,61.622z"/>
		<path fill="#010101" d="M896.242,9.451h39.928v11.787h-24.28v13.364h18.718v11.497H911.89v14.443h26.771V72.62h-42.418V9.451z"/>
		<path fill="#010101" d="M276.382,93.787c17.93-0.498,28.721,12.119,28.347,32.166c-0.415,22.412-12.285,32-29.592,32.332
			c-18.635,0.374-29.551-12.493-29.177-32.581C246.375,103.292,258.826,94.285,276.382,93.787z M288.46,125.496
			c0-11.829-3.943-19.839-12.368-19.839c-7.637,0-13.862,5.022-13.862,20.503c0,11.953,4.316,20.544,13.198,20.544
			C283.479,146.705,288.46,140.728,288.46,125.496z"/>
		<path fill="#010101" d="M315.811,94.451h39.429v11.787h-23.657v15.066h17.971v11.746h-17.971v24.57h-15.771V94.451z"/>
		<path fill="#010101" d="M403.094,106.653h-16.892V94.451h49.68v12.202h-16.851v50.967h-15.938V106.653z"/>
		<path fill="#010101" d="M444.224,94.451h15.896v25.608h21.665V94.451h15.771v63.169h-15.771v-26.189H460.12v26.189h-15.896V94.451
			z"/>
		<path fill="#010101" d="M511.917,94.451h39.927v11.787h-24.279v13.364h18.718v11.497h-18.718v14.443h26.77v12.078h-42.417V94.451z
			"/>
		<path fill="#010101" d="M585.047,94.451H600.9l6.6,35.278l1.951,15.066l2.282-15.066l8.343-35.278h14.401l8.591,35.278
			l2.324,14.236l1.868-14.236l6.558-35.278h15.232l-16.644,63.584h-15.563l-8.094-32.996l-2.033-13.198l-1.785,13.24l-8.01,32.954
			h-15.273L585.047,94.451z"/>
		<path fill="#010101" d="M675.691,94.451h39.928v11.787h-24.28v13.364h18.718v11.497h-18.718v14.443h26.771v12.078h-42.418V94.451z
			"/>
		<path fill="#010101" d="M728.4,94.41l7.679,0.042c4.316,0,8.633-0.623,15.065-0.623c17.598,0,24.28,6.267,24.28,16.27
			c0,6.682-3.154,12.368-9.463,14.153c7.305,0.872,12.825,6.226,12.825,14.236c0,11.58-5.977,19.714-26.189,19.714
			c-5.852,0-12.783-0.374-16.229-0.581H728.4V94.41z M750.19,120.474c6.724,0,10.169-2.283,10.169-8.923
			c0-5.229-3.86-7.097-10.875-7.097c-1.162,0-4.648,0.125-5.395,0.54v15.149C745.459,120.433,748.738,120.474,750.19,120.474z
			 M751.809,147.867c7.264,0,10.791-2.656,10.791-9.255c0-5.479-3.32-8.384-11.33-8.384c-2.033,0-6.184,0.083-7.18,0.332v16.353
			C745.168,147.618,749.236,147.867,751.809,147.867z"/>
	</g>
	<g>
		<path fill="#010101" d="M226.008,292.254l2.063-0.293v-16.736l-2.026-0.183v-0.928h5.884v0.928l-2.051,0.183v16.736l2.148,0.293
			v0.818h-6.018V292.254z"/>
		<path fill="#010101" d="M235.615,289.667h0.867l0.391,1.66c0.83,0.696,1.855,0.952,2.954,1.001c1.99,0.073,3.54-0.684,3.54-2.502
			c0-1.746-1.965-2.319-3.784-3.125c-1.941-0.867-3.833-1.941-3.796-4.089c0.049-2.454,2.6-3.54,4.773-3.601
			c1.587-0.049,3.174,0.439,3.821,0.879v2.454h-0.83l-0.415-1.526c-0.525-0.488-1.416-0.842-2.49-0.842
			c-1.978-0.012-3.137,0.94-3.162,2.332c-0.024,1.587,1.575,2.197,3.43,3.064c1.807,0.806,4.138,1.636,4.138,4.065
			c0,2.576-2.222,3.931-5.188,3.931c-1.465,0-3.015-0.354-4.248-1.038V289.667z"/>
		<path fill="#010101" d="M256.159,280.633h-1.953v-0.732c1.379-0.256,1.807-0.22,2.148-0.842c0.195-0.439,0.562-2.234,0.61-2.905
			h0.928v3.296h4.578v1.184h-4.578v7.349c0,3.284,0.195,4.089,1.611,4.089c1.16,0,2.38-0.525,2.783-0.793l0.305,0.867
			c-0.732,0.806-2.612,1.221-3.735,1.221c-1.77,0-2.698-0.928-2.698-3.406V280.633z"/>
		<path fill="#010101" d="M264.96,292.242l1.855-0.22v-17.212l-2.087-0.293v-0.842l3.369-0.415l0.476,0.256l-0.012,5.762
			l-0.037,1.794c1.428-1.123,3.699-1.941,5.042-1.941c3.308,0,4.199,1.794,4.163,6.531v6.372l1.892,0.208v0.83l-5.676,0.012v-0.842
			l2.014-0.208v-5.664c0-4.199-0.476-5.872-3.174-5.872c-1.196,0-3.076,0.525-4.211,1.355v10.181l1.904,0.208v0.83h-5.518V292.242z"
			/>
		<path fill="#010101" d="M288.459,279.01c2.808-0.049,4.626,1.843,4.7,5.078c0.024,0.818-0.049,1.453-0.122,1.978h-9.485v0.134
			c-0.061,4.065,2.197,5.896,4.919,5.896c1.563,0,3.296-0.476,3.979-0.94l0.378,0.842c-0.952,0.854-3.149,1.367-4.993,1.367
			c-3.931,0-6.079-2.795-6.079-7.08C281.757,282.11,284.553,279.071,288.459,279.01z M291.291,284.967
			c0.146-2.051-0.244-3.821-1.636-4.565c-0.452-0.244-1.001-0.378-1.66-0.378c-2.234,0-4.089,1.66-4.407,4.944H291.291z"/>
		<path fill="#010101" d="M302.534,292.242l1.746-0.22v-10.767l-1.794-0.647v-0.623l2.893-0.745l0.452,0.232v1.685
			c1.099-0.891,3.479-1.965,5.151-2.026c3.064-0.085,4.175,1.465,4.175,5.847v7.056l1.99,0.208v0.83h-5.627v-0.83l1.88-0.208v-6.836
			c0-3.467-0.745-4.797-3.198-4.712c-1.245,0.049-2.917,0.671-4.15,1.514v10.034l1.929,0.208v0.83h-5.444V292.242z"/>
		<path fill="#010101" d="M325.642,279.01c4.272-0.049,6.042,3.357,6.018,7.019c-0.037,4.309-2.747,7.324-6.335,7.336
			c-4.48,0.012-6.201-3.577-6.152-7.385C319.233,281.671,322.211,279.046,325.642,279.01z M329.78,286.139
			c0-3.296-1.184-6.079-4.26-6.128c-2.82-0.049-4.468,2.185-4.468,5.859c0,3.43,1.27,6.36,4.358,6.433
			C328.229,292.364,329.78,290.167,329.78,286.139z"/>
		<path fill="#010101" d="M336.25,280.633h-1.953v-0.732c1.379-0.256,1.807-0.22,2.148-0.842c0.195-0.439,0.562-2.234,0.61-2.905
			h0.928v3.296h4.578v1.184h-4.578v7.349c0,3.284,0.195,4.089,1.611,4.089c1.16,0,2.38-0.525,2.783-0.793l0.305,0.867
			c-0.732,0.806-2.612,1.221-3.735,1.221c-1.77,0-2.698-0.928-2.698-3.406V280.633z"/>
		<path fill="#010101" d="M351.545,292.242l2.014-0.195v-10.828l-1.758-0.61v-0.623l2.991-0.745l0.464,0.232v12.561l2.039,0.208
			v0.83h-5.75V292.242z M352.778,274.615c0-0.806,0.745-1.404,1.428-1.404c0.842,0,1.221,0.537,1.221,1.196
			c0,0.842-0.72,1.392-1.44,1.392C353.364,275.799,352.778,275.348,352.778,274.615z"/>
		<path fill="#010101" d="M359.846,292.242l1.746-0.22v-10.767l-1.794-0.647v-0.623l2.893-0.745l0.452,0.232v1.685
			c1.099-0.891,3.479-1.965,5.151-2.026c3.064-0.085,4.175,1.465,4.175,5.847v7.056l1.99,0.208v0.83h-5.627v-0.83l1.88-0.208v-6.836
			c0-3.467-0.745-4.797-3.198-4.712c-1.245,0.049-2.917,0.671-4.15,1.514v10.034l1.929,0.208v0.83h-5.444V292.242z"/>
		<path fill="#010101" d="M376.521,286.468c0-4.358,3.125-7.471,6.995-7.471c1.453,0,2.246,0.342,2.759,0.537v-4.736l-2.502-0.293
			v-0.842l3.796-0.391l0.464,0.244v18.689h1.66v0.745c-0.525,0.232-1.563,0.403-2.234,0.403c-0.598,0-1.123-0.085-1.123-1.086
			v-0.354c-0.647,0.574-2.136,1.453-4.431,1.453C379.06,293.365,376.521,291.253,376.521,286.468z M383.979,291.949
			c1.172-0.232,1.892-0.732,2.295-1.111v-9.766c-0.33-0.354-0.977-1.025-2.966-1.025c-2.393,0-4.968,1.77-5.029,6.006
			c-0.061,4.053,1.917,6.03,4.309,6.03C383.112,292.083,383.576,292.035,383.979,291.949z"/>
		<path fill="#010101" d="M398.664,279.01c2.808-0.049,4.626,1.843,4.7,5.078c0.024,0.818-0.049,1.453-0.122,1.978h-9.485v0.134
			c-0.061,4.065,2.197,5.896,4.919,5.896c1.563,0,3.296-0.476,3.979-0.94l0.378,0.842c-0.952,0.854-3.149,1.367-4.993,1.367
			c-3.931,0-6.079-2.795-6.079-7.08C391.962,282.11,394.758,279.071,398.664,279.01z M401.496,284.967
			c0.146-2.051-0.244-3.821-1.636-4.565c-0.452-0.244-1.001-0.378-1.66-0.378c-2.234,0-4.089,1.66-4.407,4.944H401.496z"/>
		<path fill="#010101" d="M404.902,292.242l1.819-0.22l4.211-5.603l-4.333-5.823l-1.868-0.183v-1.001h5.847v1.001l-1.904,0.171
			l2.698,3.955l0.684,1.013l0.623-0.989l2.734-3.992l-1.782-0.159v-1.001h5.078v1.001l-1.831,0.195l-4.211,5.627l4.346,5.798
			l1.843,0.208v0.83h-5.872v-0.83l1.941-0.195c-1.355-2.039-2.527-3.625-2.6-3.748l-0.806-1.135l-0.562,0.94l-2.71,3.943
			l2.234,0.195v0.83h-5.579V292.242z"/>
		<path fill="#010101" d="M426.899,279.01c2.808-0.049,4.626,1.843,4.7,5.078c0.024,0.818-0.049,1.453-0.122,1.978h-9.485v0.134
			c-0.061,4.065,2.197,5.896,4.919,5.896c1.563,0,3.296-0.476,3.979-0.94l0.378,0.842c-0.952,0.854-3.149,1.367-4.993,1.367
			c-3.931,0-6.079-2.795-6.079-7.08C420.197,282.11,422.993,279.071,426.899,279.01z M429.731,284.967
			c0.146-2.051-0.244-3.821-1.636-4.565c-0.452-0.244-1.001-0.378-1.66-0.378c-2.234,0-4.089,1.66-4.407,4.944H429.731z"/>
		<path fill="#010101" d="M434.223,286.468c0-4.358,3.125-7.471,6.995-7.471c1.453,0,2.246,0.342,2.759,0.537v-4.736l-2.502-0.293
			v-0.842l3.796-0.391l0.464,0.244v18.689h1.66v0.745c-0.525,0.232-1.563,0.403-2.234,0.403c-0.598,0-1.123-0.085-1.123-1.086
			v-0.354c-0.647,0.574-2.136,1.453-4.431,1.453C436.762,293.365,434.223,291.253,434.223,286.468z M441.682,291.949
			c1.172-0.232,1.892-0.732,2.295-1.111v-9.766c-0.33-0.354-0.977-1.025-2.966-1.025c-2.393,0-4.968,1.77-5.029,6.006
			c-0.061,4.053,1.917,6.03,4.309,6.03C440.815,292.083,441.279,292.035,441.682,291.949z"/>
		<path fill="#010101" d="M456.745,289.667h0.867l0.391,1.66c0.83,0.696,1.855,0.952,2.954,1.001c1.99,0.073,3.54-0.684,3.54-2.502
			c0-1.746-1.965-2.319-3.784-3.125c-1.941-0.867-3.833-1.941-3.796-4.089c0.049-2.454,2.6-3.54,4.773-3.601
			c1.587-0.049,3.174,0.439,3.821,0.879v2.454h-0.83l-0.415-1.526c-0.525-0.488-1.416-0.842-2.49-0.842
			c-1.978-0.012-3.137,0.94-3.162,2.332c-0.024,1.587,1.575,2.197,3.43,3.064c1.807,0.806,4.138,1.636,4.138,4.065
			c0,2.576-2.222,3.931-5.188,3.931c-1.465,0-3.015-0.354-4.248-1.038V289.667z"/>
		<path fill="#010101" d="M469.294,292.242l2.014-0.195v-10.828l-1.758-0.61v-0.623l2.991-0.745l0.464,0.232v12.561l2.039,0.208
			v0.83h-5.75V292.242z M470.527,274.615c0-0.806,0.745-1.404,1.428-1.404c0.842,0,1.221,0.537,1.221,1.196
			c0,0.842-0.72,1.392-1.44,1.392C471.113,275.799,470.527,275.348,470.527,274.615z"/>
		<path fill="#010101" d="M477.229,286.468c0-4.358,3.125-7.471,6.995-7.471c1.453,0,2.246,0.342,2.759,0.537v-4.736l-2.502-0.293
			v-0.842l3.796-0.391l0.464,0.244v18.689h1.66v0.745c-0.525,0.232-1.563,0.403-2.234,0.403c-0.598,0-1.123-0.085-1.123-1.086
			v-0.354c-0.647,0.574-2.136,1.453-4.431,1.453C479.768,293.365,477.229,291.253,477.229,286.468z M484.687,291.949
			c1.172-0.232,1.892-0.732,2.295-1.111v-9.766c-0.33-0.354-0.977-1.025-2.966-1.025c-2.393,0-4.968,1.77-5.029,6.006
			c-0.061,4.053,1.917,6.03,4.309,6.03C483.82,292.083,484.284,292.035,484.687,291.949z"/>
		<path fill="#010101" d="M499.372,279.01c2.808-0.049,4.626,1.843,4.7,5.078c0.024,0.818-0.049,1.453-0.122,1.978h-9.485v0.134
			c-0.061,4.065,2.197,5.896,4.919,5.896c1.563,0,3.296-0.476,3.979-0.94l0.378,0.842c-0.952,0.854-3.149,1.367-4.993,1.367
			c-3.931,0-6.079-2.795-6.079-7.08C492.67,282.11,495.466,279.071,499.372,279.01z M502.204,284.967
			c0.146-2.051-0.244-3.821-1.636-4.565c-0.452-0.244-1.001-0.378-1.66-0.378c-2.234,0-4.089,1.66-4.407,4.944H502.204z"/>
		<path fill="#010101" d="M519.514,279.01c4.272-0.049,6.043,3.357,6.018,7.019c-0.036,4.309-2.746,7.324-6.335,7.336
			c-4.479,0.012-6.201-3.577-6.152-7.385C513.105,281.671,516.084,279.046,519.514,279.01z M523.652,286.139
			c0-3.296-1.185-6.079-4.261-6.128c-2.819-0.049-4.468,2.185-4.468,5.859c0,3.43,1.27,6.36,4.357,6.433
			C522.102,292.364,523.652,290.167,523.652,286.139z"/>
		<path fill="#010101" d="M528.254,292.242l2.49-0.208v-11.121h-2.76v-0.732l2.76-0.537v-1.282c0-3.638,2.709-5.823,4.857-5.823
			c0.989,0,1.429,0.085,1.746,0.208v1.575c-0.293-0.171-1.014-0.354-2.1-0.354c-1.367,0-2.734,0.574-2.734,3.711v1.965h3.992v1.27
			h-3.992v11.133l2.941,0.195v0.83h-7.201V292.242z"/>
		<path fill="#010101" d="M546.723,280.633h-1.953v-0.732c1.379-0.256,1.807-0.22,2.148-0.842c0.195-0.439,0.562-2.234,0.61-2.905
			h0.928v3.296h4.577v1.184h-4.577v7.349c0,3.284,0.195,4.089,1.611,4.089c1.159,0,2.38-0.525,2.783-0.793l0.306,0.867
			c-0.732,0.806-2.613,1.221-3.736,1.221c-1.77,0-2.697-0.928-2.697-3.406V280.633z"/>
		<path fill="#010101" d="M555.523,292.242l1.855-0.22v-17.212l-2.087-0.293v-0.842l3.369-0.415l0.476,0.256l-0.012,5.762
			l-0.037,1.794c1.429-1.123,3.699-1.941,5.042-1.941c3.308,0,4.199,1.794,4.163,6.531v6.372l1.892,0.208v0.83l-5.677,0.012v-0.842
			l2.015-0.208v-5.664c0-4.199-0.476-5.872-3.174-5.872c-1.196,0-3.076,0.525-4.212,1.355v10.181l1.904,0.208v0.83h-5.518V292.242z"
			/>
		<path fill="#010101" d="M579.022,279.01c2.808-0.049,4.626,1.843,4.7,5.078c0.023,0.818-0.049,1.453-0.123,1.978h-9.484v0.134
			c-0.061,4.065,2.197,5.896,4.92,5.896c1.563,0,3.295-0.476,3.979-0.94l0.379,0.842c-0.952,0.854-3.149,1.367-4.992,1.367
			c-3.932,0-6.08-2.795-6.08-7.08C572.32,282.11,575.116,279.071,579.022,279.01z M581.854,284.967
			c0.146-2.051-0.244-3.821-1.636-4.565c-0.451-0.244-1.001-0.378-1.66-0.378c-2.234,0-4.09,1.66-4.406,4.944H581.854z"/>
		<path fill="#010101" d="M593.146,275.226l-1.66-0.171v-0.94h6.08v0.94l-2.418,0.171l4.31,13.672l0.72,2.271l0.672-2.173
			l2.93-11.56l-0.659-2.209l-2.015-0.171v-0.94h6.25v0.94l-2.331,0.171l3.711,13.831l0.562,2.185l0.574-2.49l3.588-13.525
			l-2.221-0.171v-0.94h5.688v0.94l-1.94,0.171l-5.249,18.091h-1.453l-3.82-13.428l-3.662,13.428h-1.538L593.146,275.226z"/>
		<path fill="#010101" d="M624.812,279.01c4.272-0.049,6.042,3.357,6.019,7.019c-0.037,4.309-2.747,7.324-6.336,7.336
			c-4.48,0.012-6.201-3.577-6.152-7.385C618.402,281.671,621.381,279.046,624.812,279.01z M628.949,286.139
			c0-3.296-1.184-6.079-4.26-6.128c-2.82-0.049-4.468,2.185-4.468,5.859c0,3.43,1.27,6.36,4.358,6.433
			C627.399,292.364,628.949,290.167,628.949,286.139z"/>
		<path fill="#010101" d="M633.394,292.242l2.148-0.232v-10.754l-1.794-0.647v-0.623l2.881-0.745l0.463,0.232v1.709
			c0.696-0.842,2.918-2.014,4.566-2.014c0.537,0,1.025,0.024,1.208,0.085v1.88c-0.452-0.171-0.952-0.33-1.94-0.33
			c-1.575,0.012-2.869,0.623-3.613,1.099v10.107l3.698,0.232v0.83h-7.617V292.242z"/>
		<path fill="#010101" d="M645.039,292.242l2.039-0.208v-17.224l-1.99-0.293v-0.842l3.32-0.415l0.428,0.256v18.53l2.148,0.195v0.83
			h-5.945V292.242z"/>
		<path fill="#010101" d="M653.193,286.468c0-4.358,3.125-7.471,6.995-7.471c1.452,0,2.246,0.342,2.759,0.537v-4.736l-2.502-0.293
			v-0.842l3.796-0.391l0.464,0.244v18.689h1.66v0.745c-0.525,0.232-1.563,0.403-2.234,0.403c-0.598,0-1.123-0.085-1.123-1.086
			v-0.354c-0.646,0.574-2.136,1.453-4.431,1.453C655.732,293.365,653.193,291.253,653.193,286.468z M660.652,291.949
			c1.172-0.232,1.893-0.732,2.295-1.111v-9.766c-0.33-0.354-0.977-1.025-2.967-1.025c-2.393,0-4.968,1.77-5.029,6.006
			c-0.061,4.053,1.917,6.03,4.31,6.03C659.785,292.083,660.25,292.035,660.652,291.949z"/>
		<path fill="#010101" d="M675.484,275.226l-1.66-0.171v-0.94h6.08v0.94l-2.418,0.171l4.31,13.672l0.72,2.271l0.672-2.173
			l2.93-11.56l-0.659-2.209l-2.015-0.171v-0.94h6.25v0.94l-2.331,0.171l3.711,13.831l0.562,2.185l0.574-2.49l3.588-13.525
			l-2.221-0.171v-0.94h5.688v0.94l-1.94,0.171l-5.249,18.091h-1.453l-3.82-13.428l-3.662,13.428h-1.538L675.484,275.226z"/>
		<path fill="#010101" d="M701.119,292.242l2.014-0.195v-10.828l-1.758-0.61v-0.623l2.991-0.745l0.464,0.232v12.561l2.039,0.208
			v0.83h-5.75V292.242z M702.352,274.615c0-0.806,0.745-1.404,1.429-1.404c0.843,0,1.221,0.537,1.221,1.196
			c0,0.842-0.72,1.392-1.44,1.392C702.938,275.799,702.352,275.348,702.352,274.615z"/>
		<path fill="#010101" d="M709.055,286.468c0-4.358,3.125-7.471,6.994-7.471c1.453,0,2.246,0.342,2.759,0.537v-4.736l-2.503-0.293
			v-0.842l3.797-0.391l0.464,0.244v18.689h1.66v0.745c-0.524,0.232-1.563,0.403-2.233,0.403c-0.599,0-1.123-0.085-1.123-1.086
			v-0.354c-0.647,0.574-2.137,1.453-4.432,1.453C711.594,293.365,709.055,291.253,709.055,286.468z M716.513,291.949
			c1.172-0.232,1.892-0.732,2.295-1.111v-9.766c-0.329-0.354-0.977-1.025-2.966-1.025c-2.393,0-4.969,1.77-5.029,6.006
			c-0.062,4.053,1.916,6.03,4.309,6.03C715.646,292.083,716.109,292.035,716.513,291.949z"/>
		<path fill="#010101" d="M731.197,279.01c2.808-0.049,4.627,1.843,4.699,5.078c0.025,0.818-0.049,1.453-0.121,1.978h-9.485v0.134
			c-0.062,4.065,2.197,5.896,4.919,5.896c1.563,0,3.297-0.476,3.98-0.94l0.378,0.842c-0.952,0.854-3.149,1.367-4.993,1.367
			c-3.93,0-6.078-2.795-6.078-7.08C724.496,282.11,727.291,279.071,731.197,279.01z M734.029,284.967
			c0.146-2.051-0.244-3.821-1.636-4.565c-0.452-0.244-1.001-0.378-1.66-0.378c-2.233,0-4.089,1.66-4.407,4.944H734.029z"/>
		<path fill="#010101" d="M745.32,275.226l-1.66-0.171v-0.94h6.08v0.94l-2.418,0.171l4.31,13.672l0.72,2.271l0.672-2.173l2.93-11.56
			l-0.659-2.209l-2.015-0.171v-0.94h6.25v0.94l-2.331,0.171l3.711,13.831l0.562,2.185l0.574-2.49l3.588-13.525l-2.221-0.171v-0.94
			h5.688v0.94l-1.94,0.171l-5.249,18.091h-1.453l-3.82-13.428l-3.662,13.428h-1.538L745.32,275.226z"/>
		<path fill="#010101" d="M777.205,279.01c2.808-0.049,4.627,1.843,4.699,5.078c0.025,0.818-0.049,1.453-0.121,1.978h-9.485v0.134
			c-0.062,4.065,2.197,5.896,4.919,5.896c1.563,0,3.297-0.476,3.98-0.94l0.378,0.842c-0.952,0.854-3.149,1.367-4.993,1.367
			c-3.93,0-6.078-2.795-6.078-7.08C770.504,282.11,773.299,279.071,777.205,279.01z M780.037,284.967
			c0.146-2.051-0.244-3.821-1.636-4.565c-0.452-0.244-1.001-0.378-1.66-0.378c-2.233,0-4.089,1.66-4.407,4.944H780.037z"/>
		<path fill="#010101" d="M785.848,274.762l-2.088-0.305v-0.83l3.418-0.366l0.428,0.208v7.153c0.964-0.769,2.416-1.624,4.309-1.624
			c2.771,0,5.444,1.819,5.444,6.689c0,4.285-2.796,7.727-6.909,7.727c-2.295,0-4.26-0.598-4.602-0.952V274.762z M790.669,292.401
			c2.478,0,4.896-2.039,4.932-6.287c0.049-4.297-2.124-5.811-4.395-5.811c-1.403,0-2.819,0.586-3.601,1.331v9.802
			C787.861,292.12,789.266,292.401,790.669,292.401z"/>
		<path fill="#010101" d="M386.335,325.946v-1.074c0-2.734-1.367-3.467-3.601-3.467c-1.245,0-3.003,0.549-3.931,1.099l-0.354-0.867
			c1.221-0.988,3.699-1.477,4.895-1.477c2.588,0,4.761,0.891,4.761,4.468l-0.024,8.569h1.611v0.671
			c-0.476,0.22-1.27,0.403-2.112,0.403c-0.562,0-1.147-0.073-1.147-1.185v-0.488c-0.903,1.025-2.234,1.733-4.395,1.733
			c-2.173,0-4.272-1.44-4.114-4.077C378.217,326.874,383.283,325.946,386.335,325.946z M382.929,333.148
			c1.758,0,2.942-0.916,3.394-1.294c0-1.172,0-3.198,0.012-4.92c-2.649,0-6.592,0.696-6.616,3.345
			C379.694,332.294,381.025,333.148,382.929,333.148z"/>
		<path fill="#010101" d="M398.457,320.038c1.343-0.049,2.893,0.183,3.528,0.61v2.612h-0.903l-0.5-1.563
			c-0.562-0.439-1.44-0.562-2.271-0.562c-2.527,0-4.736,1.929-4.761,5.518c-0.037,4.639,2.429,6.384,4.797,6.384
			c1.099,0,2.905-0.342,3.674-0.928l0.33,0.879c-0.952,0.843-2.856,1.331-4.7,1.331c-3.723,0-5.786-2.905-5.811-6.824
			C391.816,323.017,394.721,320.185,398.457,320.038z"/>
		<path fill="#010101" d="M406.696,321.625h-1.953v-0.732c1.379-0.257,1.807-0.22,2.148-0.843c0.195-0.439,0.562-2.233,0.61-2.905
			h0.928v3.296h4.578v1.185h-4.578v7.349c0,3.283,0.195,4.089,1.611,4.089c1.16,0,2.38-0.524,2.783-0.793l0.305,0.866
			c-0.732,0.806-2.612,1.221-3.735,1.221c-1.77,0-2.698-0.928-2.698-3.405V321.625z"/>
		<path fill="#010101" d="M416.511,321.649l-1.257-0.244v-0.732l2.625-0.513l0.366,0.22v8.41c0,2.979,0.464,4.261,2.917,4.261
			c1.904,0,3.589-1.221,4.065-1.66v-9.619l-1.526-0.269v-0.781l2.917-0.55l0.354,0.208v12.817h1.538v0.744
			c-0.464,0.208-1.392,0.415-1.99,0.415c-0.72,0-1.123-0.293-1.123-0.928v-1.099c-1.587,1.307-3.259,1.99-4.932,1.99
			c-3.833,0-3.931-2.503-3.955-5.884V321.649z"/>
		<path fill="#010101" d="M439.436,325.946v-1.074c0-2.734-1.367-3.467-3.601-3.467c-1.245,0-3.003,0.549-3.931,1.099l-0.354-0.867
			c1.221-0.988,3.699-1.477,4.895-1.477c2.588,0,4.761,0.891,4.761,4.468l-0.024,8.569h1.611v0.671
			c-0.476,0.22-1.27,0.403-2.112,0.403c-0.562,0-1.147-0.073-1.147-1.185v-0.488c-0.903,1.025-2.234,1.733-4.395,1.733
			c-2.173,0-4.272-1.44-4.114-4.077C431.318,326.874,436.384,325.946,439.436,325.946z M436.03,333.148
			c1.758,0,2.942-0.916,3.394-1.294c0-1.172,0-3.198,0.012-4.92c-2.649,0-6.592,0.696-6.616,3.345
			C432.795,332.294,434.125,333.148,436.03,333.148z"/>
		<path fill="#010101" d="M445.319,333.233l2.039-0.207v-17.225l-1.99-0.293v-0.842l3.32-0.415l0.427,0.256v18.53l2.148,0.195v0.83
			h-5.945V333.233z"/>
		<path fill="#010101" d="M453.84,333.233l2.039-0.207v-17.225l-1.99-0.293v-0.842l3.32-0.415l0.427,0.256v18.53l2.148,0.195v0.83
			h-5.945V333.233z"/>
		<path fill="#010101" d="M463.496,338.824c1.184,0.024,3.015-0.781,4.199-4.455h-0.33l-5.139-12.781l-1.514-0.183v-1.001h5.493
			v1.001l-2.014,0.195l3.113,8.532l1.111,3.113l0.83-2.905l2.686-8.765l-2.002-0.171v-1.001h5.054v1.001l-1.514,0.171
			c-3.186,9.558-4.004,11.901-4.382,12.878c-1.282,3.271-2.515,5.273-4.541,5.774c-0.33,0.085-0.671,0.122-1.062,0.122
			c-0.33,0-0.83-0.073-0.964-0.184v-1.501C462.788,338.751,463.203,338.813,463.496,338.824z"/>
		<path fill="#010101" d="M490.876,325.946v-1.074c0-2.734-1.367-3.467-3.601-3.467c-1.245,0-3.003,0.549-3.931,1.099l-0.354-0.867
			c1.221-0.988,3.699-1.477,4.895-1.477c2.588,0,4.761,0.891,4.761,4.468l-0.024,8.569h1.611v0.671
			c-0.476,0.22-1.27,0.403-2.112,0.403c-0.562,0-1.147-0.073-1.147-1.185v-0.488c-0.903,1.025-2.234,1.733-4.395,1.733
			c-2.173,0-4.272-1.44-4.114-4.077C482.758,326.874,487.824,325.946,490.876,325.946z M487.47,333.148
			c1.758,0,2.942-0.916,3.394-1.294c0-1.172,0-3.198,0.012-4.92c-2.649,0-6.592,0.696-6.616,3.345
			C484.235,332.294,485.566,333.148,487.47,333.148z"/>
		<path fill="#010101" d="M497.041,330.658h0.867l0.391,1.66c0.83,0.695,1.855,0.952,2.954,1.001c1.99,0.073,3.54-0.684,3.54-2.503
			c0-1.745-1.965-2.319-3.784-3.125c-1.941-0.866-3.833-1.94-3.796-4.089c0.049-2.454,2.6-3.54,4.773-3.602
			c1.587-0.049,3.174,0.439,3.821,0.879v2.454h-0.83l-0.415-1.526c-0.525-0.488-1.416-0.842-2.49-0.842
			c-1.978-0.013-3.137,0.939-3.162,2.331c-0.024,1.587,1.575,2.197,3.43,3.064c1.807,0.806,4.138,1.636,4.138,4.064
			c0,2.576-2.222,3.931-5.188,3.931c-1.465,0-3.015-0.354-4.248-1.037V330.658z"/>
		<path fill="#010101" d="M517.072,338.824c1.184,0.024,3.016-0.781,4.199-4.455h-0.33l-5.139-12.781l-1.514-0.183v-1.001h5.493
			v1.001l-2.015,0.195l3.113,8.532l1.111,3.113l0.83-2.905l2.686-8.765l-2.002-0.171v-1.001h5.053v1.001l-1.514,0.171
			c-3.186,9.558-4.004,11.901-4.382,12.878c-1.282,3.271-2.515,5.273-4.541,5.774c-0.329,0.085-0.671,0.122-1.062,0.122
			c-0.33,0-0.83-0.073-0.965-0.184v-1.501C516.364,338.751,516.779,338.813,517.072,338.824z"/>
		<path fill="#010101" d="M536.042,320.001c4.272-0.049,6.042,3.357,6.019,7.02c-0.037,4.309-2.747,7.324-6.336,7.336
			c-4.48,0.013-6.201-3.576-6.152-7.385C529.633,322.662,532.611,320.038,536.042,320.001z M540.18,327.13
			c0-3.296-1.184-6.079-4.26-6.128c-2.82-0.049-4.468,2.186-4.468,5.859c0,3.431,1.27,6.36,4.358,6.434
			C538.63,333.355,540.18,331.158,540.18,327.13z"/>
		<path fill="#010101" d="M545.942,321.649l-1.257-0.244v-0.732l2.624-0.513l0.366,0.22v8.41c0,2.979,0.464,4.261,2.918,4.261
			c1.904,0,3.588-1.221,4.064-1.66v-9.619l-1.525-0.269v-0.781l2.917-0.55l0.354,0.208v12.817h1.537v0.744
			c-0.463,0.208-1.391,0.415-1.989,0.415c-0.72,0-1.123-0.293-1.123-0.928v-1.099c-1.587,1.307-3.259,1.99-4.932,1.99
			c-3.833,0-3.931-2.503-3.955-5.884V321.649z"/>
		<path fill="#010101" d="M568.807,321.625h-1.953v-0.732c1.379-0.257,1.807-0.22,2.148-0.843c0.195-0.439,0.562-2.233,0.61-2.905
			h0.928v3.296h4.577v1.185h-4.577v7.349c0,3.283,0.195,4.089,1.611,4.089c1.159,0,2.38-0.524,2.783-0.793l0.306,0.866
			c-0.732,0.806-2.613,1.221-3.736,1.221c-1.77,0-2.697-0.928-2.697-3.405V321.625z"/>
		<path fill="#010101" d="M577.607,333.233l1.855-0.22v-17.212l-2.087-0.293v-0.842l3.369-0.415l0.476,0.256l-0.012,5.762
			l-0.037,1.795c1.429-1.123,3.699-1.941,5.042-1.941c3.308,0,4.199,1.795,4.163,6.531v6.372l1.892,0.207v0.83l-5.677,0.013v-0.843
			l2.015-0.207v-5.664c0-4.199-0.476-5.872-3.174-5.872c-1.196,0-3.076,0.525-4.212,1.355v10.181l1.904,0.207v0.83h-5.518V333.233z"
			/>
		<path fill="#010101" d="M594.856,333.233l2.015-0.195v-10.827l-1.758-0.61v-0.623l2.99-0.744l0.464,0.231v12.562l2.038,0.207v0.83
			h-5.749V333.233z M596.09,315.606c0-0.806,0.744-1.403,1.428-1.403c0.842,0,1.221,0.537,1.221,1.196
			c0,0.842-0.721,1.392-1.44,1.392C596.676,316.791,596.09,316.339,596.09,315.606z"/>
		<path fill="#010101" d="M603.156,333.233l1.746-0.22v-10.767l-1.795-0.646v-0.623l2.894-0.744l0.452,0.231v1.685
			c1.098-0.891,3.479-1.965,5.15-2.026c3.064-0.085,4.176,1.465,4.176,5.848v7.056l1.989,0.207v0.83h-5.628v-0.83l1.881-0.207
			v-6.836c0-3.467-0.745-4.798-3.199-4.712c-1.244,0.049-2.917,0.671-4.15,1.514v10.034l1.93,0.207v0.83h-5.445V333.233z"/>
		<path fill="#010101" d="M620.002,333.233l1.979-0.207v-17.225l-2.148-0.293v-0.842l3.49-0.415l0.428,0.256v10.242l-0.049,2.722
			l6.201-6.042l-1.831-0.146v-1.001h5.358v0.988l-1.892,0.171l-4.541,4.346l5.481,7.239l1.794,0.22v0.817h-5.566v-0.817l1.807-0.232
			l-4.59-6.323l-2.233,2.1l0.061,2.881v1.355l1.893,0.207v0.83h-5.641V333.233z"/>
		<path fill="#010101" d="M637.703,323.907c0.023-1.978,6.066-2.808,6.311-4.406c0.122-3.406-2.795-6.201-6.274-6.214
			c-0.671,0-1.599,0.11-2.075,0.354v-1.416c0.22-0.281,1.355-0.55,2.283-0.55c5.615,0,7.715,4.334,7.422,7.715
			c0,2.124-5.494,2.954-5.921,4.468c-0.159,1.404,0.671,2.869,1.257,4.224h-1.037C638.984,327.484,637.678,325.226,637.703,323.907z
			 M641.072,331.952c0.72,0.085,0.939,0.622,0.842,1.184c-0.086,0.732-0.793,1.123-1.404,1.05c-0.537-0.085-0.939-0.549-0.83-1.184
			C639.79,332.318,640.486,331.879,641.072,331.952z"/>
	</g>
</g>
</svg>
