<?xml version="1.0" encoding="utf-8"?>
<!-- Generator: Adobe Illustrator 16.0.0, SVG Export Plug-In . SVG Version: 6.00 Build 0)  -->
<!DOCTYPE svg PUBLIC "-//W3C//DTD SVG 1.1//EN" "http://www.w3.org/Graphics/SVG/1.1/DTD/svg11.dtd">
<svg version="1.1" id="Layer_1" xmlns="http://www.w3.org/2000/svg" xmlns:xlink="http://www.w3.org/1999/xlink" x="0px" y="0px"
	 width="873px" height="485.715px" viewBox="0 0 873 485.715" enable-background="new 0 0 873 485.715" xml:space="preserve">
<g>
	<g>
		<path fill="#010101" d="M750.384,154.023h1.594c0.94,0,2.144-0.169,3.896-0.169c5.386,0,7.877,2.862,7.877,7.782
			c0,5.48-3.178,8.669-8.13,8.627c-1.5-0.011-2.64-0.169-3.611-0.169h-1.626V154.023z M755.927,167.687
			c2.556-0.021,4.276-1.689,4.276-5.691c0-4.182-1.51-5.607-4.646-5.607c-0.655,0-1.394,0.116-1.784,0.148v10.96
			C754.333,167.645,755.156,167.687,755.927,167.687z"/>
		<path fill="#010101" d="M771.558,157.888c2.492-0.021,4.741,1.214,4.783,4.72c0,0.908-0.031,1.721-0.116,2.26h-7.127
			c0.137,2.048,1.361,2.945,3.221,2.945c0.854,0,2.46-0.274,3.094-0.622l0.538,1.868c-0.792,0.645-2.598,1.204-4.467,1.204
			c-3.674,0-5.681-2.323-5.681-6.229C765.803,160.528,767.862,157.909,771.558,157.888z M773.278,163.041
			c0.106-1.763-0.348-2.809-1.826-2.809c-1.215,0-2.06,0.676-2.291,2.809H773.278z"/>
		<path fill="#010101" d="M777.539,158.057h3.559l1.837,5.913l0.761,2.936l0.738-2.936l1.838-5.913h3.484l-4.594,12.206h-3.051
			L777.539,158.057z"/>
		<path fill="#010101" d="M796.688,157.888c2.492-0.021,4.741,1.214,4.783,4.72c0,0.908-0.031,1.721-0.116,2.26h-7.127
			c0.137,2.048,1.362,2.945,3.22,2.945c0.855,0,2.461-0.274,3.095-0.622l0.538,1.868c-0.792,0.645-2.598,1.204-4.467,1.204
			c-3.674,0-5.681-2.323-5.681-6.229C790.933,160.528,792.992,157.909,796.688,157.888z M798.408,163.041
			c0.106-1.763-0.348-2.809-1.826-2.809c-1.215,0-2.06,0.676-2.291,2.809H798.408z"/>
		<path fill="#010101" d="M804.389,152.545h3.295v17.549h-3.295V152.545z"/>
		<path fill="#010101" d="M816.571,157.888c4.245,0,5.797,3.009,5.744,6.44c-0.053,3.865-2.556,5.935-5.966,5.935
			c-4.245,0-5.797-3.01-5.755-6.441C810.658,159.958,813.15,157.888,816.571,157.888z M818.904,164.17
			c0-2.048-0.676-3.917-2.407-3.938c-1.742-0.011-2.492,1.341-2.492,3.675c0,2.102,0.697,4.013,2.419,4.033
			C818.166,167.961,818.904,166.588,818.904,164.17z"/>
		<path fill="#010101" d="M828.392,171.562v3.875h-3.294v-17.38h3.072v1.225c0.549-0.549,1.573-1.394,3.506-1.394
			c2.555,0,4.794,1.837,4.794,5.744c0,4.002-2.461,6.631-6.125,6.631c-0.834,0-1.51-0.158-1.995-0.338L828.392,171.562z
			 M830.25,167.951c1.563,0,2.745-1.457,2.767-4.055c0.021-2.756-0.93-3.548-2.354-3.548c-0.919,0-1.774,0.349-2.271,0.75v6.367
			C828.824,167.856,829.521,167.951,830.25,167.951z"/>
		<path fill="#010101" d="M844.224,157.888c2.492-0.021,4.741,1.214,4.783,4.72c0,0.908-0.031,1.721-0.116,2.26h-7.127
			c0.137,2.048,1.361,2.945,3.221,2.945c0.854,0,2.46-0.274,3.094-0.622l0.538,1.868c-0.792,0.645-2.598,1.204-4.467,1.204
			c-3.674,0-5.681-2.323-5.681-6.229C838.469,160.528,840.528,157.909,844.224,157.888z M845.944,163.041
			c0.106-1.763-0.348-2.809-1.826-2.809c-1.215,0-2.06,0.676-2.291,2.809H845.944z"/>
		<path fill="#010101" d="M851.693,158.057h2.925l0.148,1.646c0.507-0.897,1.89-1.848,3.41-1.848c0.412,0,0.739,0.032,0.94,0.148
			v3.178c-0.232-0.127-0.57-0.295-1.447-0.295c-1.341,0-2.175,0.612-2.682,1.087v8.12h-3.295V158.057z"/>
	</g>
	<g>
		<path fill="#010101" d="M94.653,335.669h1.594c0.94,0,2.144-0.168,3.896-0.168c5.385,0,7.877,2.861,7.877,7.781
			c0,5.48-3.178,8.67-8.13,8.627c-1.5-0.01-2.64-0.168-3.611-0.168h-1.626V335.669z M100.197,349.333
			c2.555-0.021,4.276-1.689,4.276-5.691c0-4.182-1.51-5.607-4.646-5.607c-0.655,0-1.394,0.117-1.785,0.148v10.961
			C98.602,349.292,99.426,349.333,100.197,349.333z"/>
		<path fill="#010101" d="M110.632,336.134c0-1.076,1.003-1.975,2.102-1.975c1.172,0,1.9,0.762,1.9,1.795
			c0,1.088-0.971,1.986-2.09,1.986C111.466,337.94,110.632,337.19,110.632,336.134z M110.907,339.704h3.294v12.037h-3.294V339.704z"
			/>
		<path fill="#010101" d="M117.704,339.704h2.925l0.148,1.646c0.507-0.898,1.89-1.848,3.41-1.848c0.412,0,0.739,0.031,0.94,0.148
			v3.178c-0.232-0.127-0.57-0.295-1.447-0.295c-1.341,0-2.175,0.611-2.682,1.086v8.121h-3.294V339.704z"/>
		<path fill="#010101" d="M132.566,339.534c2.492-0.021,4.741,1.215,4.783,4.721c0,0.908-0.032,1.721-0.116,2.26h-7.127
			c0.138,2.047,1.362,2.945,3.221,2.945c0.855,0,2.46-0.275,3.094-0.623l0.539,1.869c-0.792,0.645-2.598,1.203-4.466,1.203
			c-3.675,0-5.681-2.322-5.681-6.229C126.811,342.175,128.87,339.556,132.566,339.534z M134.287,344.687
			c0.105-1.762-0.349-2.809-1.827-2.809c-1.214,0-2.059,0.676-2.292,2.809H134.287z"/>
		<path fill="#010101" d="M145.379,339.534c1.51,0,2.724,0.316,3.125,0.613l-0.412,2.545c-0.581-0.307-1.257-0.465-2.376-0.465
			c-1.383,0-3.009,0.813-3.073,3.23c-0.074,2.598,1.235,3.801,2.946,3.801c1.099,0,2.133-0.232,2.619-0.496l0.475,1.953
			c-0.739,0.719-2.175,1.193-3.696,1.193c-3.749,0-5.618-2.598-5.618-6.039C139.371,342.321,141.292,339.534,145.379,339.534z"/>
		<path fill="#010101" d="M151.657,341.983h-1.447V340.2c1.056-0.307,1.658-0.455,1.943-1.141c0.201-0.486,0.507-1.32,0.792-2.102
			h2.006v2.746h3.263v2.279h-3.263v4.836c0,2.439,0.359,2.609,1.373,2.609c0.57,0,1.489-0.232,1.869-0.508l0.401,1.848
			c-0.581,0.518-1.964,1.141-3.611,1.141c-2.397,0-3.326-1.045-3.326-3.748V341.983z"/>
		<path fill="#010101" d="M166.055,339.534c4.245,0,5.797,3.01,5.744,6.441c-0.053,3.865-2.556,5.934-5.966,5.934
			c-4.245,0-5.797-3.01-5.755-6.441C160.142,341.604,162.633,339.534,166.055,339.534z M168.388,345.817
			c0-2.049-0.676-3.918-2.408-3.939c-1.742-0.01-2.492,1.342-2.492,3.676c0,2.102,0.697,4.012,2.418,4.033
			C167.649,349.608,168.388,348.235,168.388,345.817z"/>
		<path fill="#010101" d="M174.475,339.704h2.925l0.148,1.646c0.507-0.898,1.89-1.848,3.411-1.848c0.412,0,0.739,0.031,0.939,0.148
			v3.178c-0.232-0.127-0.57-0.295-1.446-0.295c-1.341,0-2.175,0.611-2.682,1.086v8.121h-3.294V339.704z"/>
	</g>
	<g>
		<path fill="#010101" d="M94.652,409.802h1.552c0.982,0,1.954-0.168,4.266-0.168c3.009,0,5.786,1.066,5.786,4.857
			c0,2.598-0.992,4.002-2.671,4.678c1.31,1.098,1.943,3.717,2.999,5.543l0.665,1.162h-3.738c-0.19-0.275-0.274-0.486-0.591-1.162
			c-0.908-1.879-1.235-4.932-2.788-4.951c-0.539,0.031-1.214,0.041-2.123,0.041v6.072h-3.358V409.802z M100.217,417.448
			c2.027,0,2.777-1.363,2.777-2.863c0-1.244-0.422-2.449-2.925-2.449c-0.718,0-1.478,0.053-2.059,0.191v5.057
			C98.454,417.437,99.668,417.448,100.217,417.448z"/>
		<path fill="#010101" d="M114.571,413.667c2.492-0.021,4.741,1.215,4.783,4.721c0,0.908-0.032,1.721-0.116,2.26h-7.127
			c0.138,2.047,1.362,2.945,3.221,2.945c0.855,0,2.46-0.275,3.094-0.623l0.539,1.869c-0.792,0.645-2.598,1.203-4.466,1.203
			c-3.675,0-5.681-2.322-5.681-6.229C108.816,416.308,110.875,413.688,114.571,413.667z M116.292,418.819
			c0.105-1.762-0.349-2.809-1.827-2.809c-1.214,0-2.059,0.676-2.292,2.809H116.292z"/>
		<path fill="#010101" d="M121.924,422.663c0.348,0.285,1.911,0.951,3.453,0.951c1.288,0.01,1.89-0.264,1.89-1.004
			c0-0.697-0.866-1.203-2.608-1.773c-2.207-0.729-3.041-1.965-3.031-3.707c0.011-2.279,2.07-3.463,4.857-3.463
			c1.71,0,2.957,0.434,3.389,0.688l-0.359,2.533c-0.464-0.422-1.689-0.813-2.703-0.813c-1.425,0-2.027,0.273-2.038,0.949
			c-0.011,0.75,0.591,1.1,2.354,1.701c2.45,0.834,3.379,1.857,3.379,3.621c0,2.482-1.827,3.695-4.72,3.695
			c-1.753,0-3.548-0.496-4.203-0.928L121.924,422.663z"/>
		<path fill="#010101" d="M138.191,413.667c2.492-0.021,4.741,1.215,4.783,4.721c0,0.908-0.032,1.721-0.116,2.26h-7.127
			c0.138,2.047,1.362,2.945,3.221,2.945c0.855,0,2.46-0.275,3.094-0.623l0.539,1.869c-0.792,0.645-2.598,1.203-4.466,1.203
			c-3.675,0-5.681-2.322-5.681-6.229C132.436,416.308,134.495,413.688,138.191,413.667z M139.912,418.819
			c0.105-1.762-0.349-2.809-1.827-2.809c-1.214,0-2.059,0.676-2.292,2.809H139.912z"/>
		<path fill="#010101" d="M147.171,419.116c1.331-0.592,3.305-0.697,4.826-0.697v-0.76c0-1.289-0.349-1.543-2.386-1.543
			c-0.645,0-2.292,0.391-3.316,0.855l-0.729-2.111c0.771-0.465,2.936-1.256,4.836-1.256c3.347,0,4.889,0.908,4.889,4.402v8.035
			h-1.922c-0.803,0-1.235-0.053-1.235-1.098v-0.084c-0.644,0.592-1.71,1.182-3.136,1.182c-2.365,0-3.928-1.646-3.928-3.916
			C145.07,420.667,145.872,419.696,147.171,419.116z M150.127,423.815c0.739,0,1.647-0.381,1.869-0.666v-2.873
			c-0.792,0-1.985,0.201-2.481,0.434c-0.497,0.189-1.045,0.496-1.045,1.395C148.47,423.276,149.188,423.815,150.127,423.815z"/>
		<path fill="#010101" d="M158.569,413.837h2.925l0.148,1.646c0.507-0.898,1.89-1.848,3.41-1.848c0.412,0,0.739,0.031,0.94,0.148
			v3.178c-0.232-0.127-0.57-0.295-1.447-0.295c-1.341,0-2.175,0.611-2.682,1.086v8.121h-3.294V413.837z"/>
		<path fill="#010101" d="M173.685,413.667c1.51,0,2.724,0.316,3.125,0.613l-0.412,2.545c-0.581-0.307-1.257-0.465-2.376-0.465
			c-1.383,0-3.009,0.813-3.073,3.23c-0.074,2.598,1.235,3.801,2.946,3.801c1.098,0,2.133-0.232,2.618-0.496l0.476,1.953
			c-0.739,0.719-2.175,1.193-3.696,1.193c-3.749,0-5.618-2.598-5.618-6.039C167.677,416.454,169.599,413.667,173.685,413.667z"/>
		<path fill="#010101" d="M179.508,408.325h3.294v4.625l-0.18,2.143c0.834-0.697,2.355-1.414,3.675-1.457
			c2.661-0.084,3.991,1.234,3.991,4.74v7.498h-3.294v-6.842c0-1.965-0.454-2.65-1.816-2.609c-0.602,0.012-1.647,0.264-2.376,0.908
			v8.543h-3.294V408.325z"/>
		<path fill="#010101" d="M198.751,413.667c2.492-0.021,4.741,1.215,4.783,4.721c0,0.908-0.032,1.721-0.116,2.26h-7.127
			c0.137,2.047,1.362,2.945,3.221,2.945c0.855,0,2.46-0.275,3.094-0.623l0.539,1.869c-0.792,0.645-2.598,1.203-4.466,1.203
			c-3.675,0-5.681-2.322-5.681-6.229C192.996,416.308,195.055,413.688,198.751,413.667z M200.472,418.819
			c0.105-1.762-0.349-2.809-1.827-2.809c-1.214,0-2.059,0.676-2.292,2.809H200.472z"/>
		<path fill="#010101" d="M206.221,413.837h2.925l0.148,1.646c0.507-0.898,1.89-1.848,3.41-1.848c0.412,0,0.739,0.031,0.94,0.148
			v3.178c-0.232-0.127-0.57-0.295-1.447-0.295c-1.341,0-2.175,0.611-2.682,1.086v8.121h-3.294V413.837z"/>
	</g>
	<g>
		<path fill="#010101" d="M8.801,282.892c0.897,0.496,2.418,1.014,4.139,1.014c1.785,0,2.354-0.559,2.354-1.637
			c0-1.129-0.644-1.594-3.115-2.818c-1.9-0.939-3.991-2.365-3.991-4.994c0-3.168,2.587-4.33,5.607-4.33
			c2.027,0,3.58,0.559,4.149,0.93l-0.549,2.607c-0.781-0.496-1.901-1.023-3.506-1.023c-1.784,0-2.407,0.654-2.407,1.646
			c0,1.15,0.824,1.646,2.777,2.682c2.524,1.33,4.414,2.482,4.414,5.09c0,2.893-2.238,4.477-5.522,4.477
			c-2.102,0-4.224-0.58-4.826-0.949L8.801,282.892z"/>
		<path fill="#010101" d="M21.17,274.329h3.294v7c0,2.313,0.581,2.682,1.848,2.682c0.771,0,1.658-0.4,2.017-0.686v-8.996h3.294
			v12.205h-2.175c-0.517,0-0.802-0.094-0.802-0.611v-0.539c-0.887,0.633-2.344,1.15-3.516,1.15c-3.442,0-3.96-2.08-3.96-5.174
			V274.329z"/>
		<path fill="#010101" d="M38.523,287.833v3.875h-3.294v-17.379h3.073v1.225c0.549-0.549,1.573-1.395,3.505-1.395
			c2.556,0,4.794,1.838,4.794,5.744c0,4.002-2.46,6.631-6.124,6.631c-0.834,0-1.51-0.158-1.996-0.338L38.523,287.833z
			 M40.382,284.222c1.563,0,2.745-1.457,2.767-4.055c0.021-2.756-0.929-3.547-2.355-3.547c-0.918,0-1.774,0.348-2.27,0.75v6.367
			C38.957,284.128,39.653,284.222,40.382,284.222z"/>
		<path fill="#010101" d="M52.666,287.833v3.875h-3.294v-17.379h3.073v1.225c0.549-0.549,1.573-1.395,3.505-1.395
			c2.556,0,4.794,1.838,4.794,5.744c0,4.002-2.46,6.631-6.124,6.631c-0.834,0-1.51-0.158-1.996-0.338L52.666,287.833z
			 M54.524,284.222c1.563,0,2.745-1.457,2.767-4.055c0.021-2.756-0.929-3.547-2.355-3.547c-0.918,0-1.774,0.348-2.27,0.75v6.367
			C53.099,284.128,53.796,284.222,54.524,284.222z"/>
		<path fill="#010101" d="M68.73,274.159c4.245,0,5.797,3.01,5.744,6.441c-0.053,3.865-2.556,5.934-5.966,5.934
			c-4.245,0-5.797-3.01-5.755-6.441C62.817,276.229,65.309,274.159,68.73,274.159z M71.064,280.442c0-2.049-0.676-3.918-2.408-3.939
			c-1.742-0.01-2.492,1.342-2.492,3.676c0,2.102,0.697,4.012,2.418,4.033C70.325,284.233,71.064,282.86,71.064,280.442z"/>
		<path fill="#010101" d="M77.15,274.329h2.925l0.148,1.646c0.507-0.898,1.89-1.848,3.411-1.848c0.412,0,0.739,0.031,0.939,0.148
			v3.178c-0.232-0.127-0.57-0.295-1.446-0.295c-1.341,0-2.175,0.611-2.682,1.086v8.121H77.15V274.329z"/>
		<path fill="#010101" d="M87.483,276.608h-1.447v-1.783c1.056-0.307,1.658-0.455,1.943-1.141c0.201-0.486,0.507-1.32,0.792-2.102
			h2.006v2.746h3.263v2.279h-3.263v4.836c0,2.439,0.359,2.609,1.373,2.609c0.57,0,1.489-0.232,1.869-0.508l0.401,1.848
			c-0.581,0.518-1.964,1.141-3.611,1.141c-2.397,0-3.326-1.045-3.326-3.748V276.608z"/>
		<path fill="#010101" d="M101.649,274.159c2.492-0.021,4.741,1.215,4.783,4.721c0,0.908-0.032,1.721-0.116,2.26h-7.127
			c0.138,2.047,1.362,2.945,3.221,2.945c0.855,0,2.46-0.275,3.094-0.623l0.539,1.869c-0.792,0.645-2.598,1.203-4.466,1.203
			c-3.675,0-5.681-2.322-5.681-6.229C95.894,276.8,97.953,274.181,101.649,274.159z M103.37,279.312
			c0.105-1.762-0.349-2.809-1.827-2.809c-1.214,0-2.059,0.676-2.292,2.809H103.37z"/>
		<path fill="#010101" d="M109.119,274.329h2.925l0.148,1.646c0.507-0.898,1.89-1.848,3.411-1.848c0.412,0,0.739,0.031,0.939,0.148
			v3.178c-0.232-0.127-0.57-0.295-1.446-0.295c-1.341,0-2.175,0.611-2.682,1.086v8.121h-3.294V274.329z"/>
	</g>
	<g>
		<path fill="#010101" d="M16.002,42.326c4.445-0.126,7.233,3.231,7.138,8.184c-0.106,5.554-3.168,8.141-7.455,8.226
			c-4.625,0.095-7.412-3.348-7.317-8.289C8.474,44.882,11.652,42.453,16.002,42.326z M19.667,50.404
			c0-3.157-1.225-5.522-3.738-5.522c-2.239,0-4.086,1.552-4.086,5.681c0,3.168,1.288,5.67,3.917,5.67
			C18.146,56.232,19.667,54.428,19.667,50.404z"/>
		<path fill="#010101" d="M26.396,48.81h-1.447v-1.784c1.056-0.307,1.658-0.454,1.943-1.141c0.201-0.485,0.507-1.319,0.792-2.102
			h2.006v2.746h3.263v2.28H29.69v4.836c0,2.439,0.359,2.608,1.373,2.608c0.57,0,1.489-0.232,1.869-0.507l0.401,1.848
			c-0.581,0.518-1.964,1.141-3.611,1.141c-2.397,0-3.326-1.045-3.326-3.748V48.81z"/>
		<path fill="#010101" d="M35.577,41.018h3.294v4.625l-0.18,2.143c0.834-0.696,2.355-1.414,3.675-1.457
			c2.661-0.084,3.991,1.235,3.991,4.741v7.497h-3.294v-6.842c0-1.965-0.454-2.65-1.816-2.608c-0.602,0.011-1.647,0.264-2.376,0.908
			v8.542h-3.294V41.018z"/>
		<path fill="#010101" d="M54.82,46.36c2.492-0.021,4.741,1.214,4.783,4.72c0,0.908-0.032,1.721-0.116,2.26h-7.127
			c0.137,2.048,1.362,2.945,3.221,2.945c0.855,0,2.46-0.274,3.094-0.622l0.539,1.868c-0.792,0.645-2.598,1.204-4.466,1.204
			c-3.675,0-5.681-2.323-5.681-6.229C49.065,49,51.124,46.381,54.82,46.36z M56.541,51.513c0.105-1.763-0.349-2.809-1.827-2.809
			c-1.214,0-2.059,0.676-2.292,2.809H56.541z"/>
		<path fill="#010101" d="M62.29,46.529h2.925l0.148,1.646c0.507-0.897,1.89-1.848,3.41-1.848c0.412,0,0.739,0.032,0.94,0.148v3.178
			c-0.232-0.127-0.57-0.295-1.447-0.295c-1.341,0-2.175,0.612-2.682,1.087v8.12H62.29V46.529z"/>
		<path fill="#010101" d="M78.496,53.264c0-4.211,2.666-7.01,3.34-7.383l0.842,0.418c-0.564,0.41-2.9,2.761-2.988,6.965
			c-0.095,4.526,2.307,6.789,2.988,7.28l-0.842,0.417C81.198,60.559,78.496,58.193,78.496,53.264z"/>
		<path fill="#010101" d="M86.252,59.584v2.688h-1.216V50.217h1.099l0.007,0.975c0.396-0.396,1.179-1.092,2.607-1.092
			c1.714,0,3.296,1.193,3.296,4.021c0,2.666-1.663,4.563-4.182,4.563c-0.688,0-1.252-0.132-1.633-0.278L86.252,59.584z
			 M87.973,57.79c1.604,0,2.798-1.274,2.827-3.501c0.022-2.176-0.879-3.23-2.38-3.23c-0.967,0-1.765,0.498-2.168,0.85v5.465
			C86.523,57.607,87.072,57.79,87.973,57.79z"/>
		<path fill="#010101" d="M94.155,50.225h1.04l0.073,1.113c0.337-0.439,1.458-1.238,2.542-1.238c0.381,0,0.652,0.037,0.791,0.096
			v1.149c-0.139-0.073-0.403-0.169-1.011-0.169c-0.967,0-1.794,0.55-2.212,0.967v6.424h-1.223V50.225z"/>
		<path fill="#010101" d="M103.413,50.1c2.607,0,3.655,2.043,3.625,4.409c-0.037,2.659-1.626,4.175-3.779,4.175
			c-2.651,0-3.669-2.088-3.64-4.445C99.655,51.572,101.289,50.1,103.413,50.1z M105.8,54.457c0.007-1.918-0.747-3.457-2.41-3.471
			c-1.575-0.022-2.52,1.179-2.527,3.266c-0.007,1.904,0.725,3.538,2.424,3.561C104.877,57.834,105.793,56.545,105.8,54.457z"/>
		<path fill="#010101" d="M109.221,50.225h1.091l0.007,1.068c0.615-0.49,1.912-1.179,3.069-1.201
			c1.055-0.014,1.714,0.271,2.065,1.121c0.63-0.483,1.846-1.105,3.032-1.121c1.765-0.021,2.446,0.843,2.446,3.326v5.148h-1.216
			v-5.09c0-1.553-0.227-2.402-1.692-2.359c-0.791,0.016-1.736,0.462-2.358,0.901c0.066,0.381,0.095,0.835,0.095,1.362v5.186h-1.223
			v-5.105c0-1.662-0.271-2.402-1.641-2.336c-0.747,0.029-1.794,0.469-2.454,1.011v6.431h-1.223V50.225z"/>
		<path fill="#010101" d="M126.857,50.1c2.607,0,3.655,2.043,3.625,4.409c-0.037,2.659-1.626,4.175-3.779,4.175
			c-2.651,0-3.669-2.088-3.64-4.445C123.1,51.572,124.733,50.1,126.857,50.1z M129.245,54.457c0.007-1.918-0.747-3.457-2.41-3.471
			c-1.575-0.022-2.52,1.179-2.527,3.266c-0.007,1.904,0.725,3.538,2.424,3.561C128.322,57.834,129.238,56.545,129.245,54.457z"/>
		<path fill="#010101" d="M133.01,51.14h-1.165v-0.667c0.542-0.16,1.15-0.183,1.282-0.534c0.095-0.249,0.212-1.136,0.366-1.626
			h0.732v1.904h2.593v0.923h-2.593V55.9c0,1.655,0.286,1.802,1.113,1.802c0.498,0,1.289-0.228,1.567-0.417l0.212,0.71
			c-0.425,0.345-1.443,0.688-2.205,0.688c-1.025,0-1.904-0.308-1.904-2.095V51.14z"/>
		<path fill="#010101" d="M141.975,50.1c1.765-0.021,2.944,1.23,2.996,3.135c0,0.535,0,0.938-0.066,1.281h-5.479
			c0,0.096,0,0.198,0.007,0.293c0.073,2.146,1.208,2.952,2.754,2.952c0.754,0,1.831-0.271,2.271-0.557l0.234,0.71
			c-0.549,0.455-1.787,0.77-2.82,0.77c-2.344,0-3.64-1.582-3.64-4.256C138.232,51.916,139.572,50.129,141.975,50.1z M143.82,53.695
			c0.088-1.53-0.403-2.725-1.919-2.725c-1.238,0-2.205,0.799-2.424,2.725H143.82z"/>
		<path fill="#010101" d="M147.087,50.225h1.04l0.073,1.113c0.337-0.439,1.458-1.238,2.542-1.238c0.381,0,0.652,0.037,0.791,0.096
			v1.149c-0.139-0.073-0.403-0.169-1.011-0.169c-0.967,0-1.794,0.55-2.212,0.967v6.424h-1.223V50.225z"/>
		<path fill="#010101" d="M153.254,57.402l0.769-0.726c0.872,0.41,1.165,1.429,1.165,2.22c0,1.654-0.857,2.914-1.787,3.324
			l-0.41-0.505l-0.007-0.153c0.498-0.286,1.047-1.15,1.047-2.293c0-0.601-0.352-1.362-0.776-1.516V57.402z"/>
		<path fill="#010101" d="M12.27,68.1c0.674,0,1.238,0.132,1.619,0.278l-0.022-0.498v-3.501h1.223v12.275h-0.527
			c-0.374,0-0.623-0.044-0.623-0.506v-0.505c-0.417,0.403-1.201,1.04-2.563,1.04c-1.707,0-3.296-1.193-3.296-4.021
			C8.081,69.996,9.75,68.1,12.27,68.1z M13.867,74.889v-5.485c-0.271-0.234-0.82-0.41-1.714-0.41c-1.597,0-2.798,1.274-2.82,3.501
			c-0.029,2.176,0.879,3.23,2.373,3.23C12.666,75.725,13.457,75.24,13.867,74.889z"/>
		<path fill="#010101" d="M20.913,68.1c1.765-0.021,2.944,1.23,2.996,3.135c0,0.535,0,0.938-0.066,1.281h-5.479
			c0,0.096,0,0.198,0.007,0.293c0.073,2.146,1.208,2.952,2.754,2.952c0.754,0,1.831-0.271,2.271-0.557l0.234,0.71
			c-0.549,0.455-1.787,0.77-2.82,0.77c-2.344,0-3.64-1.582-3.64-4.256C17.17,69.916,18.51,68.129,20.913,68.1z M22.758,71.695
			c0.088-1.53-0.403-2.725-1.919-2.725c-1.238,0-2.205,0.799-2.424,2.725H22.758z"/>
		<path fill="#010101" d="M25.761,75.16c0.315,0.22,1.392,0.601,2.402,0.615c1.069,0,1.831-0.432,1.831-1.297
			c0-0.879-0.996-1.267-1.992-1.67c-1.282-0.52-2.38-1.237-2.366-2.6c0.029-1.436,1.348-2.102,2.915-2.109
			c0.974-0.008,1.853,0.264,2.146,0.432l-0.205,0.931c-0.286-0.22-1.077-0.454-1.897-0.454c-1.194,0-1.816,0.477-1.824,1.135
			c-0.015,0.879,0.74,1.297,1.824,1.715c1.099,0.432,2.542,1.091,2.542,2.533c0,1.465-1.135,2.293-2.915,2.293
			c-1.069,0-2.168-0.285-2.651-0.601L25.761,75.16z"/>
		<path fill="#010101" d="M33.217,65.565c0-0.542,0.454-0.938,0.901-0.938c0.527,0,0.784,0.352,0.784,0.827
			c0,0.572-0.432,0.945-0.901,0.945C33.576,66.4,33.217,66.093,33.217,65.565z M33.422,68.225h1.216v8.342h-1.216V68.225z"/>
		<path fill="#010101" d="M38.234,76.229c-0.527-0.293-0.637-0.769-0.63-1.253c0.007-0.563,0.403-1.208,0.996-1.633
			c-0.842-0.461-1.377-1.281-1.377-2.329c0-1.985,1.45-2.878,3.23-2.915c0.769-0.015,1.487,0.146,2.058,0.498
			c0.352-0.184,1.011-0.359,1.611-0.359h0.784v0.982h-1.699c0.315,0.424,0.505,0.974,0.505,1.647c0,1.89-1.465,2.915-3.303,2.915
			c-0.403,0-0.784-0.051-1.128-0.154c-0.278,0.213-0.557,0.623-0.557,1.041c0,0.71,0.308,0.93,1.194,0.93h1.809
			c2.395,0,2.871,1.025,2.871,2.072c0,1.656-1.802,2.688-4.028,2.682c-2.124,0-3.501-0.703-3.501-2.366
			C37.07,77.138,37.714,76.516,38.234,76.229z M40.615,79.511c1.436,0,2.813-0.505,2.813-1.582c0-0.96-0.549-1.362-2.197-1.362
			h-1.128c-0.483,0-0.864-0.021-1.165-0.073c-0.33,0.271-0.674,0.688-0.674,1.348C38.264,79.013,39.025,79.511,40.615,79.511z
			 M42.497,70.912c0-1.333-0.754-1.984-1.978-1.978c-1.084,0.007-2.08,0.462-2.08,2.021c0,1.143,0.688,2.007,1.992,2.007
			C41.647,72.963,42.497,72.398,42.497,70.912z"/>
		<path fill="#010101" d="M46.562,68.225h1.091l0.007,1.068c0.593-0.446,1.853-1.179,3.069-1.201
			c1.816-0.029,2.498,0.857,2.498,3.311v5.164h-1.223v-5.171c0-1.655-0.352-2.344-1.78-2.285c-0.791,0.015-1.809,0.521-2.439,1.025
			v6.431h-1.223V68.225z"/>
		<path fill="#010101" d="M59.086,68.1c1.765-0.021,2.944,1.23,2.996,3.135c0,0.535,0,0.938-0.066,1.281h-5.479
			c0,0.096,0,0.198,0.007,0.293c0.073,2.146,1.208,2.952,2.754,2.952c0.754,0,1.831-0.271,2.271-0.557l0.234,0.71
			c-0.549,0.455-1.787,0.77-2.82,0.77c-2.344,0-3.64-1.582-3.64-4.256C55.344,69.916,56.684,68.129,59.086,68.1z M60.932,71.695
			c0.088-1.53-0.403-2.725-1.919-2.725c-1.238,0-2.205,0.799-2.424,2.725H60.932z"/>
		<path fill="#010101" d="M64.199,68.225h1.04l0.073,1.113c0.337-0.439,1.458-1.238,2.542-1.238c0.381,0,0.652,0.037,0.791,0.096
			v1.149c-0.139-0.073-0.403-0.169-1.011-0.169c-0.967,0-1.794,0.55-2.212,0.967v6.424h-1.223V68.225z"/>
		<path fill="#010101" d="M70.366,75.402l0.769-0.726c0.872,0.41,1.165,1.429,1.165,2.22c0,1.654-0.857,2.914-1.787,3.324
			l-0.41-0.505l-0.007-0.153c0.498-0.286,1.047-1.15,1.047-2.293c0-0.601-0.352-1.362-0.776-1.516V75.402z"/>
		<path fill="#010101" d="M79.184,75.16c0.315,0.22,1.392,0.601,2.402,0.615c1.069,0,1.831-0.432,1.831-1.297
			c0-0.879-0.996-1.267-1.992-1.67c-1.282-0.52-2.38-1.237-2.366-2.6c0.029-1.436,1.348-2.102,2.915-2.109
			c0.974-0.008,1.853,0.264,2.146,0.432l-0.205,0.931c-0.286-0.22-1.077-0.454-1.897-0.454c-1.194,0-1.816,0.477-1.824,1.135
			c-0.015,0.879,0.74,1.297,1.824,1.715c1.099,0.432,2.542,1.091,2.542,2.533c0,1.465-1.135,2.293-2.915,2.293
			c-1.069,0-2.168-0.285-2.651-0.601L79.184,75.16z"/>
		<path fill="#010101" d="M87.058,69.14h-1.165v-0.667c0.542-0.16,1.15-0.183,1.282-0.534c0.095-0.249,0.212-1.136,0.366-1.626
			h0.732v1.904h2.593v0.923h-2.593V73.9c0,1.655,0.286,1.802,1.113,1.802c0.498,0,1.289-0.228,1.567-0.417l0.212,0.71
			c-0.425,0.345-1.443,0.688-2.205,0.688c-1.025,0-1.904-0.308-1.904-2.095V69.14z"/>
		<path fill="#010101" d="M94.125,72.063c0.981-0.367,2.388-0.491,3.259-0.491v-0.967c0-1.348-0.703-1.582-1.948-1.582
			c-0.85,0-2.014,0.396-2.454,0.71l-0.3-0.805c0.286-0.191,1.714-0.836,3.069-0.836c1.699,0,2.849,0.469,2.849,2.564v6.027h-0.498
			c-0.425,0-0.645-0.037-0.645-0.586l-0.007-0.308c-0.454,0.41-1.399,0.894-2.585,0.894c-1.479,0-2.542-0.871-2.542-2.322
			C92.324,73.264,92.961,72.494,94.125,72.063z M95.224,75.768c1.047,0,1.97-0.52,2.161-0.725v-2.688
			c-0.601,0-1.875,0.095-2.585,0.388c-0.835,0.315-1.267,0.784-1.267,1.523C93.532,75.146,94.023,75.768,95.224,75.768z"/>
		<path fill="#010101" d="M101.662,69.14h-1.165v-0.667c0.542-0.16,1.15-0.183,1.282-0.534c0.095-0.249,0.212-1.136,0.366-1.626
			h0.732v1.904h2.593v0.923h-2.593V73.9c0,1.655,0.286,1.802,1.113,1.802c0.498,0,1.289-0.228,1.567-0.417l0.212,0.71
			c-0.425,0.345-1.443,0.688-2.205,0.688c-1.025,0-1.904-0.308-1.904-2.095V69.14z"/>
		<path fill="#010101" d="M107.463,65.565c0-0.542,0.454-0.938,0.901-0.938c0.527,0,0.784,0.352,0.784,0.827
			c0,0.572-0.432,0.945-0.901,0.945C107.822,66.4,107.463,66.093,107.463,65.565z M107.668,68.225h1.216v8.342h-1.216V68.225z"/>
		<path fill="#010101" d="M111.521,75.16c0.315,0.22,1.392,0.601,2.402,0.615c1.069,0,1.831-0.432,1.831-1.297
			c0-0.879-0.996-1.267-1.992-1.67c-1.282-0.52-2.38-1.237-2.366-2.6c0.029-1.436,1.348-2.102,2.915-2.109
			c0.974-0.008,1.853,0.264,2.146,0.432l-0.205,0.931c-0.286-0.22-1.077-0.454-1.897-0.454c-1.194,0-1.816,0.477-1.824,1.135
			c-0.015,0.879,0.74,1.297,1.824,1.715c1.099,0.432,2.542,1.091,2.542,2.533c0,1.465-1.135,2.293-2.915,2.293
			c-1.069,0-2.168-0.285-2.651-0.601L111.521,75.16z"/>
		<path fill="#010101" d="M119.394,69.14h-1.165v-0.667c0.542-0.16,1.15-0.183,1.282-0.534c0.095-0.249,0.212-1.136,0.366-1.626
			h0.732v1.904h2.593v0.923h-2.593V73.9c0,1.655,0.286,1.802,1.113,1.802c0.498,0,1.289-0.228,1.567-0.417l0.212,0.71
			c-0.425,0.345-1.443,0.688-2.205,0.688c-1.025,0-1.904-0.308-1.904-2.095V69.14z"/>
		<path fill="#010101" d="M125.195,65.565c0-0.542,0.454-0.938,0.901-0.938c0.527,0,0.784,0.352,0.784,0.827
			c0,0.572-0.432,0.945-0.901,0.945C125.554,66.4,125.195,66.093,125.195,65.565z M125.4,68.225h1.216v8.342H125.4V68.225z"/>
		<path fill="#010101" d="M132.878,68.1c0.981,0,1.736,0.234,2.029,0.432l-0.212,0.967c-0.41-0.3-1.099-0.453-1.882-0.453
			c-1.37,0-2.629,1.047-2.688,3.229c-0.059,2.337,1.187,3.486,2.607,3.486c0.967,0,1.75-0.345,2.109-0.579l0.256,0.703
			c-0.527,0.484-1.494,0.799-2.549,0.799c-2.3,0-3.611-1.787-3.611-4.168C128.93,69.989,130.329,68.1,132.878,68.1z"/>
		<path fill="#010101" d="M137.814,74.742c0.527,0,0.806,0.41,0.813,0.908c0.022,0.602-0.41,1.033-0.894,1.033
			c-0.425,0-0.798-0.366-0.813-0.908C136.914,75.197,137.346,74.742,137.814,74.742z"/>
		<path fill="#010101" d="M142.216,74.742c0.527,0,0.806,0.41,0.813,0.908c0.022,0.602-0.41,1.033-0.894,1.033
			c-0.425,0-0.798-0.366-0.813-0.908C141.315,75.197,141.748,74.742,142.216,74.742z"/>
		<path fill="#010101" d="M146.618,74.742c0.527,0,0.806,0.41,0.813,0.908c0.022,0.602-0.41,1.033-0.894,1.033
			c-0.425,0-0.798-0.366-0.813-0.908C145.717,75.197,146.149,74.742,146.618,74.742z"/>
		<path fill="#010101" d="M153.95,71.418c0,4.211-2.666,7.009-3.34,7.383l-0.842-0.418c0.564-0.41,2.9-2.762,2.988-6.965
			c0.095-4.527-2.307-6.79-2.988-7.281l0.842-0.417C151.247,64.123,153.95,66.488,153.95,71.418z"/>
	</g>
	<g>
		<path fill="#010101" d="M681.197,431.196h3.4l5.987,16.24h-3.664l-1.077-3.4h-5.913l-1.056,3.4h-3.611L681.197,431.196z
			 M685.073,441.618l-1.742-5.512l-0.454-1.658l-0.465,1.658l-1.722,5.512H685.073z"/>
		<path fill="#010101" d="M697.546,435.229c0.824,0,1.5,0.158,1.975,0.338l-0.031-1.055v-4.625h3.294v17.717h-2.238
			c-0.475,0-0.792-0.074-0.792-0.611v-0.814c-0.549,0.561-1.573,1.426-3.537,1.426c-2.556,0-4.794-1.889-4.794-5.797
			C691.422,437.806,693.883,435.229,697.546,435.229z M699.489,444.405v-6.482c-0.433-0.307-1.13-0.35-1.848-0.35
			c-1.563,0-2.745,1.289-2.767,3.961c-0.021,2.682,0.929,3.506,2.354,3.506C698.138,445.04,698.993,444.743,699.489,444.405z"/>
		<path fill="#010101" d="M704.731,435.399h3.559l1.837,5.912l0.76,2.936l0.739-2.936l1.838-5.912h3.484l-4.594,12.205h-3.051
			L704.731,435.399z"/>
		<path fill="#010101" d="M724.111,435.229c4.244,0,5.797,3.01,5.744,6.441c-0.053,3.865-2.556,5.934-5.966,5.934
			c-4.245,0-5.797-3.01-5.755-6.441C718.198,437.3,720.69,435.229,724.111,435.229z M726.444,441.513
			c0-2.049-0.676-3.918-2.407-3.939c-1.742-0.01-2.492,1.342-2.492,3.676c0,2.102,0.697,4.012,2.418,4.033
			C725.706,445.304,726.444,443.931,726.444,441.513z"/>
		<path fill="#010101" d="M737.875,435.229c1.51,0,2.724,0.316,3.125,0.613l-0.412,2.545c-0.58-0.307-1.256-0.465-2.375-0.465
			c-1.384,0-3.01,0.813-3.073,3.23c-0.074,2.598,1.235,3.801,2.946,3.801c1.098,0,2.133-0.232,2.618-0.496l0.476,1.953
			c-0.739,0.719-2.176,1.193-3.696,1.193c-3.748,0-5.617-2.598-5.617-6.039C731.866,438.017,733.788,435.229,737.875,435.229z"/>
		<path fill="#010101" d="M745.103,440.679c1.33-0.592,3.305-0.697,4.825-0.697v-0.76c0-1.289-0.349-1.543-2.387-1.543
			c-0.644,0-2.291,0.391-3.315,0.855l-0.729-2.111c0.771-0.465,2.936-1.256,4.836-1.256c3.348,0,4.889,0.908,4.889,4.402v8.035
			h-1.921c-0.803,0-1.236-0.053-1.236-1.098v-0.084c-0.644,0.592-1.71,1.182-3.136,1.182c-2.365,0-3.928-1.646-3.928-3.916
			C743.001,442.229,743.804,441.259,745.103,440.679z M748.059,445.378c0.739,0,1.647-0.381,1.869-0.666v-2.873
			c-0.792,0-1.985,0.201-2.481,0.434c-0.496,0.189-1.046,0.496-1.046,1.395C746.4,444.839,747.119,445.378,748.059,445.378z"/>
		<path fill="#010101" d="M757.06,437.679h-1.446v-1.783c1.056-0.307,1.658-0.455,1.943-1.141c0.2-0.486,0.507-1.32,0.792-2.102
			h2.006v2.746h3.263v2.279h-3.263v4.836c0,2.439,0.359,2.609,1.373,2.609c0.569,0,1.488-0.232,1.868-0.508l0.401,1.848
			c-0.58,0.518-1.964,1.141-3.611,1.141c-2.396,0-3.326-1.045-3.326-3.748V437.679z"/>
		<path fill="#010101" d="M771.226,435.229c2.492-0.021,4.741,1.215,4.783,4.721c0,0.908-0.031,1.721-0.116,2.26h-7.127
			c0.137,2.047,1.361,2.945,3.221,2.945c0.854,0,2.46-0.275,3.094-0.623l0.538,1.869c-0.792,0.645-2.598,1.203-4.467,1.203
			c-3.674,0-5.681-2.322-5.681-6.229C765.471,437.87,767.53,435.251,771.226,435.229z M772.946,440.382
			c0.106-1.762-0.348-2.809-1.826-2.809c-1.215,0-2.06,0.676-2.291,2.809H772.946z"/>
	</g>
	<g>
		<path fill="#010101" d="M735.314,475.897l3.598-0.248v-11.836c-1.211,0.439-2.102,0.701-3.301,1.01l-0.178-0.914
			c1.437-0.439,4.048-1.746,4.605-2.209l0.63,0.178l-0.024,13.771l3.407,0.248v0.809h-8.737V475.897z"/>
		<path fill="#010101" d="M746.393,475.897l3.598-0.248v-11.836c-1.211,0.439-2.102,0.701-3.301,1.01l-0.178-0.914
			c1.437-0.439,4.048-1.746,4.605-2.209l0.63,0.178l-0.024,13.771l3.407,0.248v0.809h-8.737V475.897z"/>
		<path fill="#010101" d="M757.091,464.204c0-2.836,1.864-4.367,3.93-4.439c2.505-0.082,3.585,1.924,3.585,4.334
			c0,2.824-1.863,4.332-3.917,4.393C758.456,468.55,757.091,466.521,757.091,464.204z M763.193,464.181
			c0-2.088-0.796-3.479-2.268-3.479c-1.496,0-2.398,1.318-2.398,3.408c0,1.982,0.796,3.418,2.268,3.418
			C762.279,467.528,763.193,466.294,763.193,464.181z M769.164,457.7h1.437l-6.802,19.006h-1.449L769.164,457.7z M772.346,466.034
			c2.505-0.084,3.585,1.922,3.585,4.332c0,2.826-1.863,4.334-3.917,4.393c-2.232,0.059-3.598-1.971-3.598-4.285
			C768.416,467.636,770.28,466.104,772.346,466.034z M772.108,473.798c1.448,0,2.397-1.236,2.397-3.348
			c0-2.09-0.795-3.479-2.267-3.479c-1.484,0-2.398,1.316-2.398,3.406C769.841,472.36,770.637,473.798,772.108,473.798z"/>
	</g>
	<polyline fill="none" stroke="#1B171C" stroke-miterlimit="10" points="449.227,425.876 477.546,454.194 775.333,454.194 	"/>
	<polyline fill="none" stroke="#1B171C" stroke-miterlimit="10" points="326.666,397.646 291.14,433.175 94,433.175 	"/>
	<polyline fill="none" stroke="#1B171C" stroke-miterlimit="10" points="254.043,323.608 219.154,358.497 94,358.497 	"/>
	<polyline fill="none" stroke="#1B171C" stroke-miterlimit="10" points="230.137,262.548 193.534,293.618 7.333,293.618 	"/>
	<polyline fill="none" stroke="#1B171C" stroke-miterlimit="10" points="637.663,212.876 673.911,176.689 858.667,176.689 	"/>
	<g>
		<path fill="#010101" d="M812.112,198.474c2.481-4.487,5.021-8.737,7.491-14.222h0.617l1.021,0.76
			c-0.819,1.686-6.161,10.922-6.992,12.43l-0.558,0.878l6.897-0.297l0.035-6.042l1.567-0.439v6.41l2.802-0.13v1.543h-2.802v4.464
			h-1.627l0.024-4.464h-8.18L812.112,198.474z"/>
		<path fill="#010101" d="M835.608,197.121c0-2.231-1.329-3.739-4.629-3.502l-1.793,0.404v-1.235
			c3.313-0.534,5.39-2.326,5.413-4.143c0.036-2.185-1.365-3.146-3.24-3.146c-2.007,0-3.206,0.902-3.966,1.52l-0.51-0.843
			c0.747-0.76,2.54-1.899,5.104-1.899c2.208,0,4.428,1.104,4.428,3.87c0,1.911-1.947,4.12-3.988,4.737
			c3.371-0.166,4.997,1.674,4.997,3.941c0,3.645-3.977,7.336-9.841,6.315c0-0.297-0.012-0.713-0.012-1.01
			C832.356,202.938,835.608,200.053,835.608,197.121z"/>
		<path fill="#010101" d="M839.86,186.864c0-2.837,1.864-4.368,3.93-4.439c2.505-0.083,3.585,1.923,3.585,4.333
			c0,2.825-1.863,4.333-3.917,4.393C841.226,191.209,839.86,189.179,839.86,186.864z M845.963,186.84
			c0-2.089-0.796-3.479-2.268-3.479c-1.496,0-2.398,1.318-2.398,3.407c0,1.982,0.796,3.419,2.268,3.419
			C845.049,190.188,845.963,188.954,845.963,186.84z M851.934,180.359h1.437l-6.802,19.006h-1.449L851.934,180.359z
			 M855.115,188.693c2.505-0.084,3.585,1.923,3.585,4.333c0,2.825-1.863,4.333-3.917,4.392c-2.232,0.06-3.598-1.971-3.598-4.285
			C851.186,190.295,853.05,188.763,855.115,188.693z M854.878,196.457c1.448,0,2.397-1.235,2.397-3.348
			c0-2.09-0.795-3.479-2.267-3.479c-1.484,0-2.398,1.317-2.398,3.407C852.61,195.02,853.406,196.457,854.878,196.457z"/>
	</g>
	<g>
		<path fill="#010101" d="M104.396,362.8l0.38,0.783c-5.722,1.639-8.666,6.078-8.761,9.9c-0.083,3.514,1.187,6.814,4.44,6.814
			c2.885,0,4.119-2.861,4.119-4.891c0-3.135-1.543-4.689-3.265-4.689c-1.52,0-2.255,0.486-2.718,0.855l-0.416-0.736
			c0.463-0.617,2.018-1.318,3.526-1.318c3.027,0,4.523,2.695,4.523,5.199c0,3.051-2.196,6.541-6.055,6.541
			c-3.775,0-5.995-3.217-5.995-6.932C94.174,368.214,99.6,363.702,104.396,362.8z"/>
		<path fill="#010101" d="M108.6,368.509c0-2.836,1.864-4.367,3.93-4.439c2.505-0.082,3.585,1.924,3.585,4.334
			c0,2.824-1.864,4.332-3.917,4.393C109.965,372.854,108.6,370.825,108.6,368.509z M114.702,368.485
			c0-2.088-0.795-3.479-2.268-3.479c-1.496,0-2.398,1.318-2.398,3.408c0,1.982,0.795,3.418,2.268,3.418
			C113.788,371.833,114.702,370.599,114.702,368.485z M120.673,362.005h1.437l-6.802,19.006h-1.448L120.673,362.005z
			 M123.855,370.339c2.505-0.084,3.585,1.922,3.585,4.332c0,2.826-1.864,4.334-3.917,4.393c-2.231,0.059-3.597-1.971-3.597-4.285
			C119.926,371.94,121.79,370.409,123.855,370.339z M123.618,378.103c1.448,0,2.398-1.236,2.398-3.348
			c0-2.09-0.795-3.479-2.268-3.479c-1.484,0-2.398,1.316-2.398,3.406C121.35,376.665,122.146,378.103,123.618,378.103z"/>
	</g>
	<g>
		<path fill="#010101" d="M104.158,448.685c0.047-3.609-0.962-6.803-4.274-6.803c-2.885,0-4.119,2.861-4.119,4.855
			c0,3.051,1.543,4.713,3.276,4.713c1.318,0,2.303-0.51,2.707-0.842l0.416,0.734c-0.605,0.689-2.006,1.318-3.514,1.318
			c-3.027,0-4.535-2.695-4.535-5.199c0-3.051,2.196-6.541,6.054-6.541c3.823,0,5.793,3.275,5.793,6.932
			c0,6.363-5.152,11.859-10.043,12.762l-0.344-0.807C101.154,458.169,104.099,452.661,104.158,448.685z"/>
		<path fill="#010101" d="M108.707,443.306c0-2.836,1.864-4.367,3.93-4.439c2.505-0.082,3.585,1.924,3.585,4.334
			c0,2.824-1.864,4.332-3.917,4.393C110.072,447.651,108.707,445.622,108.707,443.306z M114.809,443.282
			c0-2.088-0.795-3.479-2.268-3.479c-1.496,0-2.398,1.318-2.398,3.408c0,1.982,0.795,3.418,2.268,3.418
			C113.895,446.63,114.809,445.396,114.809,443.282z M120.78,436.802h1.437l-6.802,19.006h-1.448L120.78,436.802z M123.962,445.136
			c2.505-0.084,3.585,1.922,3.585,4.332c0,2.826-1.864,4.334-3.917,4.393c-2.232,0.059-3.597-1.971-3.597-4.285
			C120.033,446.737,121.896,445.206,123.962,445.136z M123.725,452.899c1.448,0,2.398-1.236,2.398-3.348
			c0-2.09-0.795-3.479-2.268-3.479c-1.484,0-2.398,1.316-2.398,3.406C121.457,451.462,122.252,452.899,123.725,452.899z"/>
	</g>
	<g>
		<path fill="#010101" d="M15.398,313.245c0-4.332-3.775-4.902-7.633-3.479l-0.416-0.355l0.938-7.965h6.684l0.332-0.227h1.033
			l-0.451,1.697h-6.28l-0.866,5.818c3.977-1.793,8.476-0.381,8.476,4.297c0,3.371-3.692,7.277-8.488,7.266
			c-0.392,0-0.831-0.023-1.282-0.166l0.012-0.879C11.148,319.835,15.398,316.938,15.398,313.245z"/>
		<path fill="#010101" d="M19.721,303.63c0-2.838,1.864-4.369,3.93-4.439c2.505-0.084,3.585,1.922,3.585,4.332
			c0,2.826-1.864,4.334-3.917,4.393C21.086,307.976,19.721,305.944,19.721,303.63z M25.823,303.606c0-2.09-0.795-3.479-2.268-3.479
			c-1.496,0-2.398,1.318-2.398,3.406c0,1.982,0.795,3.42,2.268,3.42C24.909,306.954,25.823,305.72,25.823,303.606z M31.794,297.124
			h1.437l-6.802,19.006H24.98L31.794,297.124z M34.976,305.458c2.505-0.084,3.585,1.924,3.585,4.334
			c0,2.824-1.864,4.332-3.917,4.391c-2.231,0.061-3.597-1.971-3.597-4.285C31.047,307.062,32.911,305.528,34.976,305.458z
			 M34.739,313.222c1.448,0,2.398-1.234,2.398-3.348c0-2.09-0.795-3.479-2.268-3.479c-1.484,0-2.398,1.318-2.398,3.408
			C32.471,311.786,33.267,313.222,34.739,313.222z"/>
	</g>
	<g>
		<path fill="#010101" d="M13.102,149.122H8.498v-2.577h12.565v2.577H16.48v13.494h-3.379V149.122z"/>
		<path fill="#010101" d="M23.042,150.579h2.925l0.148,1.647c0.507-0.898,1.89-1.849,3.41-1.849c0.412,0,0.739,0.032,0.94,0.148
			v3.178c-0.232-0.126-0.57-0.296-1.447-0.296c-1.341,0-2.175,0.613-2.682,1.088v8.12h-3.294V150.579z"/>
		<path fill="#010101" d="M34.325,155.858c1.331-0.591,3.305-0.697,4.826-0.697v-0.76c0-1.288-0.349-1.542-2.386-1.542
			c-0.645,0-2.292,0.391-3.316,0.855l-0.729-2.111c0.771-0.465,2.936-1.257,4.836-1.257c3.347,0,4.889,0.908,4.889,4.403v8.035
			h-1.922c-0.803,0-1.235-0.053-1.235-1.098v-0.085c-0.644,0.591-1.71,1.183-3.136,1.183c-2.365,0-3.928-1.647-3.928-3.917
			C32.224,157.41,33.026,156.439,34.325,155.858z M37.282,160.558c0.739,0,1.647-0.381,1.869-0.666v-2.872
			c-0.792,0-1.985,0.201-2.481,0.434c-0.497,0.189-1.045,0.496-1.045,1.394C35.624,160.019,36.342,160.558,37.282,160.558z"/>
		<path fill="#010101" d="M45.892,150.579h2.988l0.063,1.288c0.813-0.612,2.439-1.446,3.917-1.489
			c2.545-0.084,3.759,1.162,3.759,4.688v7.55h-3.294v-6.843c0-1.984-0.391-2.66-1.774-2.618c-0.612,0.011-1.637,0.274-2.365,0.919
			v8.542h-3.294V150.579z"/>
		<path fill="#010101" d="M59.876,159.406c0.348,0.285,1.911,0.95,3.453,0.95c1.288,0.011,1.89-0.264,1.89-1.003
			c0-0.697-0.866-1.204-2.608-1.774c-2.207-0.729-3.041-1.964-3.031-3.706c0.011-2.28,2.07-3.463,4.857-3.463
			c1.71,0,2.957,0.433,3.389,0.687l-0.359,2.534c-0.464-0.423-1.689-0.813-2.703-0.813c-1.425,0-2.027,0.274-2.038,0.95
			c-0.011,0.75,0.591,1.099,2.354,1.7c2.45,0.834,3.379,1.858,3.379,3.622c0,2.481-1.827,3.695-4.72,3.695
			c-1.753,0-3.548-0.496-4.203-0.93L59.876,159.406z"/>
		<path fill="#010101" d="M71.285,145.067h3.295v17.549h-3.295V145.067z"/>
		<path fill="#010101" d="M79.656,155.858c1.331-0.591,3.305-0.697,4.826-0.697v-0.76c0-1.288-0.349-1.542-2.387-1.542
			c-0.644,0-2.291,0.391-3.315,0.855l-0.729-2.111c0.771-0.465,2.936-1.257,4.836-1.257c3.348,0,4.889,0.908,4.889,4.403v8.035
			h-1.922c-0.802,0-1.235-0.053-1.235-1.098v-0.085c-0.644,0.591-1.71,1.183-3.136,1.183c-2.365,0-3.928-1.647-3.928-3.917
			C77.555,157.41,78.357,156.439,79.656,155.858z M82.612,160.558c0.739,0,1.647-0.381,1.869-0.666v-2.872
			c-0.792,0-1.985,0.201-2.481,0.434c-0.496,0.189-1.045,0.496-1.045,1.394C80.955,160.019,81.673,160.558,82.612,160.558z"/>
		<path fill="#010101" d="M91.613,152.859h-1.447v-1.784c1.056-0.307,1.658-0.454,1.943-1.141c0.201-0.485,0.507-1.319,0.792-2.101
			h2.006v2.745h3.263v2.28h-3.263v4.836c0,2.439,0.359,2.608,1.373,2.608c0.57,0,1.489-0.232,1.869-0.507l0.401,1.848
			c-0.581,0.518-1.964,1.141-3.611,1.141c-2.397,0-3.326-1.045-3.326-3.748V152.859z"/>
		<path fill="#010101" d="M106.011,150.41c4.245,0,5.797,3.009,5.744,6.44c-0.053,3.865-2.555,5.935-5.966,5.935
			c-4.245,0-5.797-3.01-5.755-6.441C100.098,152.479,102.59,150.41,106.011,150.41z M108.345,156.692
			c0-2.048-0.676-3.917-2.408-3.938c-1.742-0.011-2.492,1.341-2.492,3.675c0,2.102,0.697,4.013,2.418,4.033
			C107.605,160.483,108.345,159.11,108.345,156.692z"/>
		<path fill="#010101" d="M114.431,150.579h2.925l0.148,1.647c0.507-0.898,1.89-1.849,3.41-1.849c0.412,0,0.739,0.032,0.94,0.148
			v3.178c-0.232-0.126-0.57-0.296-1.447-0.296c-1.341,0-2.175,0.613-2.682,1.088v8.12h-3.294V150.579z"/>
	</g>
	<g>
		<path fill="#010101" d="M16.902,189.496c0-4.333-3.775-4.902-7.633-3.479l-0.416-0.355l0.938-7.966h6.684l0.332-0.226h1.033
			l-0.451,1.697h-6.28l-0.866,5.817c3.977-1.793,8.476-0.38,8.476,4.297c0,3.372-3.692,7.277-8.488,7.266
			c-0.392,0-0.831-0.023-1.282-0.166l0.012-0.879C12.652,196.085,16.902,193.188,16.902,189.496z"/>
		<path fill="#010101" d="M21.225,179.88c0-2.837,1.864-4.368,3.93-4.439c2.505-0.083,3.585,1.923,3.585,4.333
			c0,2.825-1.864,4.333-3.917,4.393C22.59,184.226,21.225,182.195,21.225,179.88z M27.327,179.856c0-2.089-0.795-3.479-2.268-3.479
			c-1.496,0-2.398,1.318-2.398,3.407c0,1.982,0.795,3.419,2.268,3.419C26.413,183.204,27.327,181.97,27.327,179.856z
			 M33.298,173.375h1.437l-6.802,19.006h-1.448L33.298,173.375z M36.48,181.709c2.505-0.084,3.585,1.923,3.585,4.333
			c0,2.825-1.864,4.333-3.917,4.392c-2.232,0.06-3.597-1.971-3.597-4.285C32.551,183.312,34.415,181.779,36.48,181.709z
			 M36.243,189.473c1.448,0,2.398-1.235,2.398-3.348c0-2.09-0.795-3.479-2.268-3.479c-1.484,0-2.398,1.317-2.398,3.407
			C33.975,188.036,34.771,189.473,36.243,189.473z"/>
	</g>
	<g>
		<path fill="#010101" d="M17.293,95.625c-0.023-1.828-1.175-3.407-3.478-3.407c-1.591,0-3.419,0.997-4.381,1.935l-0.439-0.724
			c0.89-1.128,3.027-2.41,5.377-2.41c3.253,0,4.701,2.006,4.713,4.06c0.012,3.455-3.514,7.289-7.847,9.913l7.598-0.403l1.057-2.066
			l0.795,0.262l-0.772,3.276H9.28l-0.273-0.725C13.317,102.688,17.317,98.842,17.293,95.625z"/>
		<path fill="#010101" d="M23.291,105.252l3.597-0.249V93.167c-1.211,0.439-2.101,0.701-3.3,1.01l-0.178-0.914
			c1.436-0.439,4.048-1.745,4.606-2.208l0.629,0.178l-0.023,13.771l3.407,0.249v0.808h-8.737V105.252z"/>
		<path fill="#010101" d="M33.989,93.559c0-2.837,1.864-4.368,3.93-4.439c2.505-0.083,3.585,1.923,3.585,4.333
			c0,2.825-1.864,4.333-3.917,4.393C35.354,97.904,33.989,95.874,33.989,93.559z M40.091,93.535c0-2.089-0.795-3.479-2.268-3.479
			c-1.496,0-2.398,1.318-2.398,3.407c0,1.982,0.795,3.419,2.268,3.419C39.177,96.883,40.091,95.648,40.091,93.535z M46.063,87.054
			h1.437l-6.802,19.006h-1.448L46.063,87.054z M49.244,95.388c2.505-0.084,3.585,1.923,3.585,4.333c0,2.825-1.864,4.333-3.917,4.392
			c-2.231,0.06-3.597-1.971-3.597-4.285C45.315,96.99,47.179,95.458,49.244,95.388z M49.007,103.151
			c1.448,0,2.398-1.235,2.398-3.348c0-2.09-0.795-3.479-2.268-3.479c-1.484,0-2.398,1.317-2.398,3.407
			C46.739,101.715,47.535,103.151,49.007,103.151z"/>
	</g>
	<g>
		<path fill="#CDCCCC" d="M431.871,220.49l-198.774-53.263C257.363,76.655,338.107,14.699,431.871,14.699V220.49z"/>
	</g>
	<g>
		<path fill="#358540" d="M431.871,220.49l-205.669,7.183c-0.751-21.582,1.299-39.588,6.896-60.445L431.871,220.49z"/>
	</g>
	<g>
		<path fill="#BDCF31" d="M431.871,220.49l-194.58,67c-7.034-20.42-10.33-38.238-11.09-59.817L431.871,220.49z"/>
	</g>
	<g>
		<path fill="#FEC131" d="M431.871,220.49L278.938,358.188c-19.236-21.367-32.284-43.514-41.647-70.699L431.871,220.49z"/>
	</g>
	<g>
		<path fill="#F68523" d="M431.871,220.49l-49.786,199.679c-41.909-10.449-74.249-29.881-103.146-61.98L431.871,220.49z"/>
	</g>
	<g>
		<path fill="#EF4963" d="M431.871,220.49l90.21,184.96c-45.352,22.125-91.036,26.926-139.997,14.719L431.871,220.49z"/>
	</g>
	<g>
		<path fill="#963985" d="M431.871,220.49V14.699c113.651,0,205.792,92.136,205.792,205.791c0,81.148-42.642,149.388-115.582,184.96
			L431.871,220.49z"/>
	</g>
	<circle fill="#FFFFFF" cx="431.871" cy="220.49" r="126.104"/>
	<circle fill="#FFFFFF" stroke="#1B171C" stroke-miterlimit="10" cx="326.666" cy="397.646" r="2.155"/>
	<circle fill="#FFFFFF" stroke="#1B171C" stroke-miterlimit="10" cx="449.227" cy="425.876" r="2.154"/>
	<circle fill="#FFFFFF" stroke="#1B171C" stroke-miterlimit="10" cx="254.043" cy="323.608" r="2.155"/>
	<circle fill="#FFFFFF" stroke="#1B171C" stroke-miterlimit="10" cx="230.137" cy="262.548" r="2.155"/>
	<g>
		<polyline fill="none" stroke="#1B171C" stroke-miterlimit="10" points="227.114,201.166 190.511,170.095 7.333,170.095 		"/>
		<circle fill="#FFFFFF" stroke="#1B171C" stroke-miterlimit="10" cx="227.114" cy="200.5" r="2.154"/>
	</g>
	<g>
		<polyline fill="none" stroke="#1B171C" stroke-miterlimit="10" points="255.264,114.617 218.661,83.545 7.333,83.545 		"/>
		<circle fill="#FFFFFF" stroke="#1B171C" stroke-miterlimit="10" cx="255.264" cy="113.951" r="2.154"/>
	</g>
	<circle fill="#FFFFFF" stroke="#1B171C" stroke-miterlimit="10" cx="637.532" cy="212.876" r="2.154"/>
</g>
</svg>
