<?xml version="1.0" encoding="utf-8"?>
<!-- Generator: Adobe Illustrator 16.0.0, SVG Export Plug-In . SVG Version: 6.00 Build 0)  -->
<!DOCTYPE svg PUBLIC "-//W3C//DTD SVG 1.1//EN" "http://www.w3.org/Graphics/SVG/1.1/DTD/svg11.dtd">
<svg version="1.1" xmlns="http://www.w3.org/2000/svg" xmlns:xlink="http://www.w3.org/1999/xlink" x="0px" y="0px" width="5.84px"
	 height="44.812px" viewBox="0 0 5.84 44.812" enable-background="new 0 0 5.84 44.812" xml:space="preserve">
<g id="zero">
	<g>
		<circle fill="#010101" cx="2.919" cy="2.958" r="2.757"/>
		<g>
			<path fill="#FFFFFF" d="M2.919,0.362c1.432,0,2.596,1.165,2.596,2.596S4.351,5.553,2.919,5.553c-1.431,0-2.595-1.164-2.595-2.595
				S1.489,0.362,2.919,0.362 M2.919,0.038C1.308,0.038,0,1.345,0,2.958C0,4.57,1.308,5.877,2.919,5.877
				c1.613,0,2.92-1.307,2.92-2.919C5.84,1.345,4.533,0.038,2.919,0.038L2.919,0.038z"/>
		</g>
	</g>
</g>
<g id="zerof" display="none">
	<g display="inline">
		<circle fill="#FFFFFF" cx="2.919" cy="2.958" r="2.757"/>
		<g>
			<path fill="#010101" d="M2.919,0.362c1.432,0,2.596,1.165,2.596,2.596S4.351,5.553,2.919,5.553c-1.431,0-2.595-1.164-2.595-2.595
				S1.489,0.362,2.919,0.362 M2.919,0.038C1.308,0.038,0,1.345,0,2.958C0,4.57,1.308,5.877,2.919,5.877
				c1.613,0,2.92-1.307,2.92-2.919C5.84,1.345,4.533,0.038,2.919,0.038L2.919,0.038z"/>
		</g>
	</g>
</g>
<g id="primo" display="none">
	<g display="inline">
		<circle fill="#010101" cx="2.919" cy="15.936" r="2.758"/>
		<path fill="#FFFFFF" d="M2.919,13.34c1.432,0,2.596,1.164,2.596,2.595c0,1.432-1.165,2.597-2.596,2.597
			c-1.431,0-2.595-1.165-2.595-2.597C0.324,14.504,1.489,13.34,2.919,13.34 M2.919,13.016C1.308,13.016,0,14.323,0,15.935
			c0,1.613,1.308,2.921,2.919,2.921c1.613,0,2.92-1.308,2.92-2.921C5.84,14.323,4.533,13.016,2.919,13.016L2.919,13.016z"/>
	</g>
</g>
<g id="primof">
	<g>
		<circle fill="#FFFFFF" cx="2.919" cy="15.936" r="2.758"/>
		<path fill="#010101" d="M2.919,13.34c1.432,0,2.596,1.164,2.596,2.595c0,1.432-1.165,2.597-2.596,2.597
			c-1.431,0-2.595-1.165-2.595-2.597C0.324,14.504,1.489,13.34,2.919,13.34 M2.919,13.016C1.308,13.016,0,14.323,0,15.935
			c0,1.613,1.308,2.921,2.919,2.921c1.613,0,2.92-1.308,2.92-2.921C5.84,14.323,4.533,13.016,2.919,13.016L2.919,13.016z"/>
	</g>
</g>
<g id="secondo" display="none">
	<g display="inline">
		<circle fill="#010101" cx="2.919" cy="28.914" r="2.757"/>
		<path fill="#FFFFFF" d="M2.919,26.318c1.432,0,2.596,1.164,2.596,2.595s-1.165,2.596-2.596,2.596
			c-1.431,0-2.595-1.165-2.595-2.596S1.489,26.318,2.919,26.318 M2.919,25.994C1.308,25.994,0,27.301,0,28.913
			c0,1.613,1.308,2.92,2.919,2.92c1.613,0,2.92-1.307,2.92-2.92C5.84,27.301,4.533,25.994,2.919,25.994L2.919,25.994z"/>
	</g>
</g>
<g id="secondof">
	<g>
		<circle fill="#FFFFFF" cx="2.919" cy="28.914" r="2.757"/>
		<path fill="#010101" d="M2.919,26.318c1.432,0,2.596,1.164,2.596,2.595s-1.165,2.596-2.596,2.596
			c-1.431,0-2.595-1.165-2.595-2.596S1.489,26.318,2.919,26.318 M2.919,25.994C1.308,25.994,0,27.301,0,28.913
			c0,1.613,1.308,2.92,2.919,2.92c1.613,0,2.92-1.307,2.92-2.92C5.84,27.301,4.533,25.994,2.919,25.994L2.919,25.994z"/>
	</g>
</g>
<g id="terzo" display="none">
	<g display="inline">
		<circle fill="#010101" cx="2.919" cy="41.892" r="2.757"/>
		<path fill="#FFFFFF" d="M2.919,39.297c1.432,0,2.596,1.164,2.596,2.595s-1.165,2.596-2.596,2.596
			c-1.431,0-2.595-1.165-2.595-2.596S1.489,39.297,2.919,39.297 M2.919,38.973C1.308,38.973,0,40.279,0,41.892
			c0,1.613,1.308,2.92,2.919,2.92c1.613,0,2.92-1.307,2.92-2.92C5.84,40.279,4.533,38.973,2.919,38.973L2.919,38.973z"/>
	</g>
</g>
<g id="terzof">
	<g>
		<circle fill="#FFFFFF" cx="2.919" cy="41.892" r="2.757"/>
		<path fill="#010101" d="M2.919,39.297c1.432,0,2.596,1.164,2.596,2.595s-1.165,2.596-2.596,2.596
			c-1.431,0-2.595-1.165-2.595-2.596S1.489,39.297,2.919,39.297 M2.919,38.973C1.308,38.973,0,40.279,0,41.892
			c0,1.613,1.308,2.92,2.919,2.92c1.613,0,2.92-1.307,2.92-2.92C5.84,40.279,4.533,38.973,2.919,38.973L2.919,38.973z"/>
	</g>
</g>
</svg>
