<?xml version="1.0" encoding="utf-8"?>
<!-- Generator: Adobe Illustrator 16.0.0, SVG Export Plug-In . SVG Version: 6.00 Build 0)  -->
<!DOCTYPE svg PUBLIC "-//W3C//DTD SVG 1.1//EN" "http://www.w3.org/Graphics/SVG/1.1/DTD/svg11.dtd">
<svg version="1.1" id="Layer_1" xmlns="http://www.w3.org/2000/svg" xmlns:xlink="http://www.w3.org/1999/xlink" x="0px" y="0px"
	 width="1024px" height="768.002px" viewBox="0 0 1024 768.002" enable-background="new 0 0 1024 768.002" xml:space="preserve">
<g id="fotoc">
	<g>
		<g>
			<g>
				<defs>
					<rect id="SVGID_1_" y="0" width="512.001" height="768.002"/>
				</defs>
				<clipPath id="SVGID_2_">
					<use xlink:href="#SVGID_1_"  overflow="visible"/>
				</clipPath>
				<g transform="matrix(1 0 0 1 0 -2.328306e-010)" clip-path="url(#SVGID_2_)">
					
						<image overflow="visible" enable-background="new    " width="960" height="1440" xlink:href="4_1a.jpg"  transform="matrix(0.7113 0 0 0.7113 -170.9175 -0.0037)">
					</image>
				</g>
			</g>
		</g>
	</g>
	<g>
		<g>
			<g>
				<defs>
					<rect id="SVGID_3_" x="511.918" y="0" width="512.082" height="768.002"/>
				</defs>
				<clipPath id="SVGID_4_">
					<use xlink:href="#SVGID_3_"  overflow="visible"/>
				</clipPath>
				<g clip-path="url(#SVGID_4_)">
					
						<image overflow="visible" enable-background="new    " width="960" height="1440" xlink:href="4_2.jpg"  transform="matrix(-0.7116 0 0 0.7116 1194.751 -0.0017)">
					</image>
				</g>
			</g>
		</g>
	</g>
	<rect x="80.918" y="219.519" fill="#FFFFFF" width="64" height="24.965"/>
</g>
<g id="fotog" display="none">
	<g display="inline">
		<g>
			<g>
				<defs>
					<rect id="SVGID_5_" y="0" width="512" height="768.002"/>
				</defs>
				<clipPath id="SVGID_6_">
					<use xlink:href="#SVGID_5_"  overflow="visible"/>
				</clipPath>
				<g clip-path="url(#SVGID_6_)">
					
						<image overflow="visible" enable-background="new    " width="960" height="1440" xlink:href="4_1b.jpg"  transform="matrix(0.7113 0 0 0.7113 -170.9175 -0.0046)">
					</image>
				</g>
			</g>
		</g>
	</g>
</g>
<g id="testi_fissi">
	<rect x="80.918" y="94.694" fill="#FFFFFF" width="260.136" height="24.967"/>
	<rect x="80.918" y="119.66" fill="#FFFFFF" width="130.068" height="24.964"/>
	<rect x="80.918" y="144.624" fill="#FFFFFF" width="142.833" height="24.965"/>
	<rect x="787.085" y="397.696" fill="#FFFFFF" width="156.492" height="24.965"/>
	<rect x="805.751" y="422.66" fill="#FFFFFF" width="137.826" height="24.964"/>
	<g>
		<g>
			<g>
				<rect x="390.418" y="357" fill="#FFFFFF" width="245.498" height="39.247"/>
			</g>
			<g>
				<rect x="443.972" y="391.572" fill="#FFFFFF" width="138.392" height="39.247"/>
			</g>
			<g>
				<rect x="399.752" y="426.906" fill="#FFFFFF" width="226.83" height="39.248"/>
			</g>
			<g>
				<path fill="#030303" d="M400.063,365.901h2.195l2.141,16.056l0.586,3.926l1.26-3.794l5.156-12.876l-0.338-3.312h2.108
					l1.599,16.056l0.293,3.926l1.448-3.794l6.489-16.188h2.229l-9.479,22.56h-2.256l-1.304-12.599l-0.266-3.457l-1.229,3.457
					l-4.98,12.599h-2.271L400.063,365.901z"/>
				<path fill="#030303" d="M425.448,379.334c-0.146-7.777,4.351-13.683,10.269-13.683c4.702,0,7.046,4.176,7.134,9.243
					c0.134,7.632-4.114,13.667-10.181,13.667C428.026,388.563,425.551,384.578,425.448,379.334z M440.551,375.306
					c-0.088-5.156-1.758-7.896-5.186-7.896c-4.482,0-7.705,5.36-7.617,11.483c0.073,5.36,1.948,7.969,5.272,7.969
					C437.519,386.863,440.668,381.59,440.551,375.306z"/>
				<path fill="#030303" d="M446.425,379.627l1.743-13.727h2.197l-1.687,13.346c-0.132,1.056-0.188,1.963-0.176,2.798
					c0.061,2.943,1.538,4.718,4.614,4.718c3.589,0,5.625-2.124,6.355-7.822l1.643-13.037h2.151l-1.67,13.229
					c-0.894,6.914-3.75,9.435-8.789,9.435c-4.275,0-6.487-2.388-6.563-6.431C446.234,381.37,446.322,380.49,446.425,379.627z"/>
				<path fill="#030303" d="M468.515,365.901h2.197l-2.593,20.566l8.687-0.061l-0.232,1.904h-10.884L468.515,365.901z"/>
				<path fill="#030303" d="M482.841,365.901h1.274c1.421-0.015,3.223-0.233,4.702-0.233c5.962,0,8.362,3.706,8.438,9.142
					c0.104,7.749-4.482,13.916-11.367,13.739c-0.41-0.016-1.201-0.06-1.653-0.104c-0.659-0.059-2.271-0.132-3.093-0.132h-1.128
					L482.841,365.901z M486.415,386.863c5.742-0.132,8.613-6.021,8.555-11.88c-0.071-5.332-1.946-7.676-6.781-7.676
					c-1.012,0-2.433,0.146-3.368,0.277l-2.373,18.896C483.617,386.688,485.199,386.893,486.415,386.863z"/>
				<path fill="#030303" d="M510.468,365.901h2.211l-2.826,22.412h-2.213L510.468,365.901z"/>
				<path fill="#030303" d="M522.523,367.527l-6.605,0.133l0.248-1.759h15.293l-0.248,1.759l-6.49-0.133l-2.62,20.786h-2.197
					L522.523,367.527z"/>
				<path fill="#030303" d="M547.617,365.901h2.461l4.231,22.412h-2.196L551,382h-8.994l-2.942,6.313h-2.357L547.617,365.901z
					 M550.707,380.315l-1.889-10.752l-0.222-1.686l-0.807,1.743l-4.994,10.692L550.707,380.315L550.707,380.315z"/>
				<path fill="#030303" d="M560.566,365.901h2.194l-2.592,20.566l8.688-0.061l-0.234,1.904h-10.885L560.566,365.901z"/>
				<path fill="#030303" d="M574.892,365.901h2.197l-2.594,20.566l8.688-0.061l-0.233,1.904h-10.883L574.892,365.901z"/>
				<path fill="#030303" d="M596.322,365.901h1.201c1.377-0.015,2.825-0.233,4.319-0.233c5.068,0,6.521,2.329,6.564,4.806
					c0.059,3.192-1.816,5.316-4.689,6.123c2.461,0.277,4.527,2.007,4.57,4.541c0.088,5.316-4.203,7.383-9.857,7.383
					c-1.129,0-2.871-0.205-3.909-0.205h-1.025L596.322,365.901z M598.916,386.937c3.939,0,7.074-1.393,7.031-5.537
					c-0.045-2.622-2.054-3.911-5.056-3.911c-2.034,0-3.092,0.045-3.838,0.089l-1.143,9.082
					C596.527,386.834,598.33,386.937,598.916,386.937z M600.689,375.906c3.073,0,5.551-1.83,5.508-5.186
					c-0.029-2.228-1.334-3.517-4.863-3.517c-0.438,0-2.096,0.088-3.004,0.189l-1.068,8.511
					C598.3,375.95,599.632,375.906,600.689,375.906z"/>
				<path fill="#030303" d="M614.486,365.901h11.073l-0.088,1.759l-8.994-0.104l-1.067,8.48l6.94-0.089l-0.131,1.86l-7.018-0.161
					l-1.144,8.994l10.798-0.19l-0.162,1.86h-13.037L614.486,365.901z"/>
				<path fill="#030303" d="M454.021,400.901h1.289c1.611,0,2.915-0.233,4.497-0.233c4.233,0,6.638,1.815,6.694,5.697
					c0.104,5.758-3.662,9.243-8.994,9.243c-1.361,0-2.666-0.146-3.104-0.205l-1.013,7.91h-2.195L454.021,400.901z M457.58,413.865
					c4.38-0.028,6.636-2.621,6.694-7.295c0.027-2.782-1.555-4.248-4.807-4.248c-0.938,0-2.445,0.161-3.472,0.293l-1.377,11.001
					C455.222,413.733,456.657,413.88,457.58,413.865z"/>
				<path fill="#030303" d="M468.347,414.334c-0.146-7.777,4.353-13.683,10.271-13.683c4.702,0,7.046,4.176,7.134,9.243
					c0.132,7.632-4.116,13.667-10.181,13.667C470.925,423.563,468.449,419.578,468.347,414.334z M483.449,410.306
					c-0.088-5.156-1.758-7.896-5.188-7.896c-4.48,0-7.705,5.36-7.616,11.483c0.072,5.36,1.947,7.969,5.272,7.969
					C480.417,421.863,483.566,416.59,483.449,410.306z"/>
				<path fill="#030303" d="M487.932,420.442c0.559,0.586,2.798,1.377,4.923,1.377c2.694,0,5.243-1.156,5.243-3.983
					c0-2.036-1.272-3.34-3.56-4.818c-2.168-1.406-4.85-3.193-4.907-6.563c-0.073-3.678,2.856-5.802,6.709-5.802
					c2.9,0,4.365,0.747,5.068,1.245l-0.703,1.699c-0.835-0.835-2.637-1.245-4.219-1.245c-1.804,0-4.558,0.586-4.646,3.529
					c-0.072,2.666,1.626,3.81,3.999,5.376c2.08,1.362,4.497,2.988,4.558,6.035c0.071,4.132-3.237,6.256-7.59,6.256
					c-2.488,0-4.834-0.764-5.492-1.306L487.932,420.442z"/>
				<path fill="#030303" d="M503.225,420.442c0.559,0.586,2.8,1.377,4.924,1.377c2.693,0,5.242-1.156,5.242-3.983
					c0-2.036-1.272-3.34-3.559-4.818c-2.168-1.406-4.849-3.193-4.907-6.563c-0.073-3.678,2.856-5.802,6.709-5.802
					c2.9,0,4.365,0.747,5.068,1.245l-0.703,1.699c-0.834-0.835-2.637-1.245-4.218-1.245c-1.804,0-4.558,0.586-4.646,3.529
					c-0.072,2.666,1.626,3.81,3.999,5.376c2.081,1.362,4.497,2.988,4.558,6.035c0.071,4.132-3.238,6.256-7.59,6.256
					c-2.488,0-4.834-0.764-5.491-1.306L503.225,420.442z"/>
				<path fill="#030303" d="M522.429,400.901h2.211l-2.825,22.412h-2.214L522.429,400.901z"/>
				<path fill="#030303" d="M530.457,400.901h1.201c1.377-0.015,2.826-0.233,4.319-0.233c5.068,0,6.521,2.329,6.563,4.806
					c0.059,3.192-1.816,5.316-4.688,6.123c2.461,0.277,4.525,2.007,4.57,4.541c0.088,5.315-4.205,7.383-9.856,7.383
					c-1.13,0-2.871-0.205-3.912-0.205h-1.025L530.457,400.901z M533.048,421.937c3.941,0,7.076-1.393,7.031-5.537
					c-0.043-2.622-2.051-3.911-5.053-3.911c-2.037,0-3.093,0.045-3.838,0.089l-1.146,9.081
					C530.662,421.833,532.462,421.937,533.048,421.937z M534.822,410.906c3.076,0,5.551-1.83,5.508-5.186
					c-0.029-2.228-1.334-3.517-4.863-3.517c-0.438,0-2.096,0.088-3.004,0.189l-1.067,8.511
					C532.433,410.95,533.767,410.906,534.822,410.906z"/>
				<path fill="#030303" d="M548.621,400.901h2.197l-2.595,20.566l8.688-0.061l-0.234,1.904h-10.885L548.621,400.901z"/>
				<path fill="#030303" d="M562.947,400.901h11.071l-0.088,1.759l-8.994-0.104l-1.067,8.48l6.942-0.089l-0.133,1.86l-7.016-0.161
					l-1.146,8.994l10.798-0.19l-0.16,1.86h-13.037L562.947,400.901z"/>
				<path fill="#030303" d="M406.815,435.901h5.229l0.864,14.355l0.293,3.252l0.996-3.252l3.765-9.392l-0.527-4.966h5.056
					l0.879,14.355l0.337,3.252l0.776-3.252l4.893-14.355h5.332l-8.716,22.412h-6.05l-0.835-7.998l-0.266-2.446l-0.894,2.446
					l-2.932,7.998h-5.491L406.815,435.901z"/>
				<path fill="#030303" d="M436.449,435.901h5.186l-3.208,22.412h-5.186L436.449,435.901z"/>
				<path fill="#030303" d="M449.398,439.769l-5.261,0.161l0.646-4.028h15.63l-0.586,4.028l-5.156-0.161l-2.651,18.545h-5.271
					L449.398,439.769z"/>
				<path fill="#030303" d="M463.124,435.901h5.186l-1.392,9.729h7.062l1.393-9.729h5.244l-3.208,22.412h-5.244l1.304-9.111h-7.061
					l-1.306,9.111h-5.186L463.124,435.901z"/>
				<path fill="#030303" d="M493.036,435.667c5.303,0,7.954,4.015,7.954,8.788c0,7.634-4.104,14.094-10.929,14.094
					c-5.404,0-8.087-3.94-8.087-8.701C481.977,442.199,486.122,435.667,493.036,435.667z M495.658,444.616
					c0-3.882-1.113-5.054-3.179-5.054c-3.269,0-5.173,5.552-5.173,10.021c0,3.883,1.113,5.067,3.164,5.067
					C493.739,454.651,495.658,449.231,495.658,444.616z"/>
				<path fill="#030303" d="M503.305,449.568l1.948-13.667h5.171l-1.846,13.008c-0.146,1.069-0.161,1.979-0.161,2.813
					c0.015,2.197,0.791,2.854,2.9,2.854c2.387,0,3.529-1.229,4.174-5.552l1.858-13.125h5.156l-1.904,13.667
					c-0.905,6.489-3.852,8.979-10.076,8.979c-5.112,0-7.397-2.521-7.412-6.563C503.1,451.224,503.173,450.433,503.305,449.568z"/>
				<path fill="#030303" d="M529.775,439.769l-5.261,0.161l0.646-4.028h15.631l-0.586,4.028l-5.156-0.161l-2.649,18.545h-5.273
					L529.775,439.769z"/>
				<path fill="#030303" d="M553.769,439.769l-5.26,0.161l0.646-4.028h15.629l-0.586,4.028l-5.156-0.161l-2.65,18.545h-5.272
					L553.769,439.769z"/>
				<path fill="#030303" d="M575.433,435.667c5.306,0,7.955,4.015,7.955,8.788c0,7.634-4.102,14.094-10.928,14.094
					c-5.406,0-8.086-3.94-8.086-8.701C564.375,442.199,568.521,435.667,575.433,435.667z M578.056,444.616
					c0-3.882-1.112-5.054-3.18-5.054c-3.266,0-5.17,5.552-5.17,10.021c0,3.883,1.113,5.067,3.164,5.067
					C576.136,454.651,578.056,449.231,578.056,444.616z"/>
				<path fill="#030303" d="M588.076,435.901h2.959c1.742,0,2.313-0.233,4.231-0.233c5.847,0,8.027,2.096,8.027,5.758
					c0,3.354-1.305,6.431-4.791,7.5c0.82,0.688,1.568,2.139,2.066,4.014c1.243,3.838,1.465,4.556,2.034,5.376h-5.741
					c-0.365-0.527-0.558-1.787-1.273-4.481c-0.631-2.563-1.51-3.91-1.979-3.91h-2.302l-1.244,8.394h-5.186L588.076,435.901z
					 M594.71,445.936c2.799,0,3.59-2.521,3.531-4.263c-0.074-1.892-1.289-2.402-3.474-2.402c-0.688,0-1.581,0.073-2.008,0.146
					l-0.905,6.475C592.646,445.936,594.095,445.936,594.71,445.936z"/>
				<path fill="#030303" d="M606.81,447.956c0-1.741,0.66-2.854,3.691-4.363c2.271-1.012,3.414-1.948,3.824-2.607
					c0.102-0.293,0.336-1.128,0.336-1.859c0-1.642-1.699-3.048-4.453-3.048c-1.055,0-1.992,0.073-3.031,0.339l0.82-3.369
					c0.498-0.439,1.992-0.776,3.147-0.776c5.697,0,8.22,2.726,8.22,6.313c0,7.104-8.658,6.68-8.658,10.21
					c0,0.701,0.498,1.404,0.602,1.771l-2.444,0.967l-0.25-0.015C607.748,450.915,606.81,449.305,606.81,447.956z M611.351,453.362
					c1.73,0,2.359,1.011,2.359,2.185c0,1.919-1.229,3.191-3.121,3.191c-1.42,0-2.285-0.923-2.285-2.227
					C608.304,454.87,609.462,453.362,611.351,453.362z"/>
			</g>
		</g>
		<g>
			<g>
				<rect x="405.973" y="299.211" fill="#030303" width="211.893" height="47.789"/>
			</g>
			<g>
				<path fill="#FFFFFF" d="M455.5,305.937h8.042l-0.395,2.58l-4.691-0.037l-0.498,3.49l4.017-0.057l-0.338,2.729l-4.054-0.064
					l-0.816,5.715h-3.32L455.5,305.937z"/>
				<path fill="#FFFFFF" d="M465.633,305.937h1.896c1.116,0,1.48-0.149,2.712-0.149c3.744,0,5.143,1.342,5.143,3.688
					c0,2.148-0.835,4.12-3.067,4.805c0.523,0.441,1.004,1.37,1.321,2.571c0.799,2.459,0.938,2.919,1.306,3.443h-3.68
					c-0.233-0.338-0.355-1.146-0.814-2.871c-0.404-1.644-0.967-2.506-1.269-2.506h-1.473l-0.798,5.377h-3.322L465.633,305.937z
					 M469.884,312.364c1.792,0,2.299-1.613,2.262-2.729c-0.048-1.212-0.825-1.539-2.225-1.539c-0.441,0-1.013,0.047-1.286,0.094
					l-0.582,4.146C468.562,312.364,469.49,312.364,469.884,312.364z"/>
				<path fill="#FFFFFF" d="M478.265,305.937h8.577l-0.348,2.58l-5.273-0.02l-0.45,3.162l3.933-0.048l-0.338,2.592l-3.951-0.085
					l-0.516,3.642l5.938-0.095l-0.347,2.628h-9.281L478.265,305.937z"/>
				<path fill="#FFFFFF" d="M489.572,305.937h8.577l-0.35,2.58l-5.271-0.02l-0.451,3.162l3.932-0.048l-0.338,2.592l-3.951-0.085
					l-0.516,3.642l5.938-0.095l-0.347,2.628h-9.281L489.572,305.937z"/>
				<path fill="#FFFFFF" d="M500.88,305.937h1.464c0.797,0,2.77-0.149,3.631-0.149c3.972,0,5.453,2.337,5.453,5.762
					c0,4.646-2.553,8.896-7.938,8.896c-0.349,0-0.826-0.027-1.353-0.065c-0.646-0.036-1.369-0.084-1.961-0.084h-1.351
					L500.88,305.937z M503.958,318.014c2.77,0,4.054-2.976,4.054-6.514c0-2.607-0.854-3.267-2.722-3.267
					c-0.395,0-1.061,0.047-1.436,0.122l-1.354,9.459C502.878,317.938,503.385,318.014,503.958,318.014z"/>
				<path fill="#FFFFFF" d="M519.218,305.786c3.396,0,5.097,2.57,5.097,5.631c0,4.89-2.628,9.026-7,9.026
					c-3.466,0-5.182-2.523-5.182-5.573C512.132,309.972,514.789,305.786,519.218,305.786z M520.898,311.52
					c0-2.485-0.716-3.237-2.037-3.237c-2.095,0-3.314,3.558-3.314,6.42c0,2.485,0.715,3.246,2.027,3.246
					C519.667,317.948,520.898,314.476,520.898,311.52z"/>
				<path fill="#FFFFFF" d="M528.246,305.937h4.834l0.637,9.881l0.06,2.111l0.448-2.111l3.332-9.881h4.853l-0.228,14.356h-3.313
					l0.836-10.688l0.254-2.195l-0.695,2.195l-4.102,10.717l-3.65,0.142l-1.125-10.856l-0.02-2.195l-0.449,2.195l-2.328,10.688
					h-3.274L528.246,305.937z"/>
				<path fill="#FFFFFF" d="M555.535,305.786c3.396,0,5.096,2.57,5.096,5.631c0,4.89-2.627,9.026-7,9.026
					c-3.463,0-5.182-2.523-5.182-5.573C548.449,309.972,551.104,305.786,555.535,305.786z M557.214,311.52
					c0-2.485-0.713-3.237-2.037-3.237c-2.092,0-3.313,3.558-3.313,6.42c0,2.485,0.715,3.246,2.024,3.246
					C555.986,317.948,557.214,314.476,557.214,311.52z"/>
				<path fill="#FFFFFF" d="M563.654,305.937h8.041l-0.396,2.58l-4.69-0.037l-0.498,3.49l4.018-0.057l-0.338,2.729l-4.055-0.064
					l-0.816,5.715h-3.322L563.654,305.937z"/>
				<path fill="#FFFFFF" d="M415.534,325.171h1.464c0.731,0,1.839-0.149,3.087-0.149c3.229,0,5.039,1.37,5.048,4.119
					c0.009,3.199-2.177,5.817-6.156,5.817c-0.655,0-1.333-0.02-1.511-0.02l-0.657,4.589h-3.32L415.534,325.171z M419.034,332.472
					c1.802,0,2.712-1.117,2.825-3.041c0.073-1.343-0.498-2.103-2.374-2.103c-0.244,0-0.667,0.047-0.938,0.094l-0.723,4.937
					C418.049,332.425,418.584,332.472,419.034,332.472z"/>
				<path fill="#FFFFFF" d="M427.724,325.171h1.896c1.117,0,1.48-0.149,2.712-0.149c3.744,0,5.143,1.342,5.143,3.688
					c0,2.148-0.835,4.12-3.067,4.806c0.523,0.44,1.004,1.369,1.322,2.57c0.799,2.459,0.938,2.919,1.305,3.443h-3.68
					c-0.233-0.338-0.355-1.145-0.814-2.87c-0.404-1.644-0.967-2.507-1.267-2.507h-1.475L429,339.528h-3.322L427.724,325.171z
					 M431.976,331.599c1.792,0,2.301-1.614,2.263-2.729c-0.047-1.212-0.826-1.539-2.226-1.539c-0.439,0-1.013,0.047-1.286,0.094
					l-0.581,4.146C430.652,331.599,431.581,331.599,431.976,331.599z"/>
				<path fill="#FFFFFF" d="M440.6,325.171h3.322l-2.055,14.356h-3.322L440.6,325.171z"/>
				<path fill="#FFFFFF" d="M445.222,325.171h3.322l1.107,9.196l0.157,2.459l0.725-2.459l3.341-9.196h3.519l-6.191,14.356h-3.866
					L445.222,325.171z"/>
				<path fill="#FFFFFF" d="M461.625,325.171h4.223l2.13,14.356l-3.332,0.011l-0.31-2.692h-4.897l-1.099,2.684l-3.66,0.011
					L461.625,325.171z M464.083,334.583l-0.713-6.334l-0.057-1.117l-0.366,1.117l-2.59,6.334H464.083z"/>
				<path fill="#FFFFFF" d="M469.246,333.673c0-4.684,3.104-8.651,7.62-8.651c1.445,0,2.327,0.328,2.806,0.524l0.498,0.133
					l-0.958,3.144c-0.384-0.338-1.286-0.994-2.693-0.994c-2.813,0-3.885,2.983-3.885,5.837c0,2.243,0.723,3.321,2.581,3.321
					c1.211,0,2.402-0.487,2.892-0.845l0.433,2.337c-0.396,0.3-2.168,1.201-4.204,1.201
					C470.419,339.679,469.246,336.656,469.246,333.673z"/>
				<path fill="#FFFFFF" d="M483.434,333.99l-2.992-8.819h3.489l1.323,4.928l0.235,1.257l0.544-1.257l2.665-4.928h3.688
					l-5.631,8.819l-0.797,5.537h-3.322L483.434,333.99z"/>
				<path fill="#FFFFFF" d="M497.869,325.171h1.464c0.732,0,1.839-0.149,3.087-0.149c3.228,0,5.039,1.37,5.048,4.119
					c0.009,3.199-2.177,5.817-6.156,5.817c-0.655,0-1.332-0.02-1.511-0.02l-0.657,4.589h-3.32L497.869,325.171z M501.37,332.472
					c1.802,0,2.712-1.117,2.825-3.041c0.075-1.343-0.498-2.103-2.374-2.103c-0.244,0-0.667,0.047-0.938,0.094l-0.723,4.937
					C500.384,332.425,500.919,332.472,501.37,332.472z"/>
				<path fill="#FFFFFF" d="M510.06,325.171h1.896c1.118,0,1.482-0.149,2.711-0.149c3.744,0,5.143,1.342,5.143,3.688
					c0,2.148-0.836,4.12-3.067,4.806c0.524,0.44,1.004,1.369,1.324,2.57c0.797,2.459,0.938,2.919,1.303,3.443h-3.678
					c-0.234-0.338-0.357-1.145-0.816-2.87c-0.404-1.644-0.967-2.507-1.268-2.507h-1.474l-0.798,5.377h-3.322L510.06,325.171z
					 M514.312,331.599c1.791,0,2.3-1.614,2.263-2.729c-0.047-1.212-0.826-1.539-2.226-1.539c-0.44,0-1.014,0.047-1.284,0.094
					l-0.583,4.146C512.988,331.599,513.917,331.599,514.312,331.599z"/>
				<path fill="#FFFFFF" d="M527.666,325.021c3.396,0,5.096,2.571,5.096,5.631c0,4.89-2.629,9.027-7.002,9.027
					c-3.463,0-5.18-2.524-5.18-5.574C520.58,329.206,523.236,325.021,527.666,325.021z M529.345,330.754
					c0-2.485-0.713-3.236-2.037-3.236c-2.092,0-3.313,3.558-3.313,6.419c0,2.485,0.713,3.247,2.027,3.247
					C528.115,337.183,529.345,333.71,529.345,330.754z"/>
				<path fill="#FFFFFF" d="M537.697,327.648l-3.367,0.104l0.412-2.58h10.014l-0.377,2.58l-3.303-0.104l-1.699,11.88H536
					L537.697,327.648z"/>
				<path fill="#FFFFFF" d="M546.613,325.171h8.575l-0.348,2.58l-5.272-0.02l-0.451,3.162l3.934-0.047l-0.338,2.591l-3.951-0.085
					l-0.516,3.642l5.938-0.095l-0.348,2.628h-9.279L546.613,325.171z"/>
				<path fill="#FFFFFF" d="M555.968,333.673c0-4.684,3.105-8.651,7.619-8.651c1.445,0,2.328,0.328,2.807,0.524l0.496,0.133
					l-0.957,3.144c-0.385-0.338-1.284-0.994-2.69-0.994c-2.816,0-3.887,2.983-3.887,5.837c0,2.243,0.723,3.321,2.581,3.321
					c1.212,0,2.4-0.487,2.892-0.845l0.432,2.337c-0.395,0.3-2.168,1.201-4.205,1.201
					C557.14,339.679,555.968,336.656,555.968,333.673z"/>
				<path fill="#FFFFFF" d="M571.029,327.648l-3.369,0.104l0.412-2.58h10.014l-0.375,2.58l-3.303-0.104l-1.699,11.88h-3.379
					L571.029,327.648z"/>
				<path fill="#FFFFFF" d="M580.187,325.171h3.322l-2.055,14.356h-3.322L580.187,325.171z"/>
				<path fill="#FFFFFF" d="M591.546,325.021c3.398,0,5.096,2.571,5.096,5.631c0,4.89-2.627,9.027-7,9.027
					c-3.463,0-5.18-2.524-5.18-5.574C584.462,329.206,587.117,325.021,591.546,325.021z M593.226,330.754
					c0-2.485-0.713-3.236-2.034-3.236c-2.095,0-3.313,3.558-3.313,6.419c0,2.485,0.713,3.247,2.025,3.247
					C591.998,337.183,593.226,333.71,593.226,330.754z"/>
				<path fill="#FFFFFF" d="M599.666,325.171h2.881l3.34,7.433l0.742,2.439l0.121-2.439l0.91-7.433h3.211l-2.058,14.356h-2.786
					l-3.267-7.816l-0.93-2.58l0.027,2.58l-1.078,7.816h-3.172L599.666,325.171z"/>
			</g>
		</g>
	</g>
	<g>
		<path fill="#030303" d="M86.574,100.057h1.301c1.23,0,2.426-0.142,3.762-0.142c3.226,0,5.159,1.238,5.159,4.721
			c0,3.173-1.925,4.938-5.502,4.938c-0.703,0-1.081-0.009-1.362-0.018v3.876h-3.357L86.574,100.057L86.574,100.057z M91.294,107.177
			c1.257,0,2.224-0.688,2.224-2.559c0-1.45-0.721-2.408-2.294-2.364c-0.413,0.01-0.914,0.035-1.292,0.098v4.755
			C90.301,107.141,90.749,107.177,91.294,107.177z"/>
		<path fill="#030303" d="M98.633,103.414h2.856l0.141,1.607c0.413-1.021,1.529-1.768,2.883-1.768c0.29,0,0.598,0.035,0.729,0.123
			v3.208c-0.167-0.098-0.475-0.236-1.072-0.236c-1.204,0-1.898,0.536-2.276,0.948v6.136h-3.261V103.414z"/>
		<path fill="#030303" d="M111.72,103.273c3.709,0,5.036,2.479,4.992,5.354c-0.044,3.218-2.171,4.947-5.177,4.947
			c-3.709,0-5.036-2.479-5.001-5.353C106.587,105.005,108.714,103.273,111.72,103.273z M113.328,108.477
			c0-1.617-0.404-2.943-1.67-2.943c-1.31,0-1.74,0.967-1.74,2.785c0,1.652,0.422,3.016,1.688,3.016
			C112.889,111.333,113.328,110.393,113.328,108.477z"/>
		<path fill="#030303" d="M119.129,105.55h-1.16v-1.723c0.879-0.256,1.459-0.448,1.731-1.012c0.202-0.422,0.475-1.144,0.703-1.688
			h1.978v2.285h2.602v2.136h-2.602v3.568c0,1.871,0.264,2.021,1.16,2.021c0.448,0,1.16-0.186,1.468-0.396l0.387,1.812
			c-0.483,0.457-1.881,1.02-3.34,1.02c-2.153,0-2.927-1.08-2.927-3.261V105.55z"/>
		<path fill="#030303" d="M131.381,103.273c2.136,0,4.184,0.854,4.21,4.068c0,0.729-0.044,1.415-0.105,1.847h-5.88
			c0.149,1.494,1.037,2.083,2.505,2.083c0.967,0,2.206-0.246,2.689-0.51l0.501,1.73c-0.659,0.535-2.162,1.08-3.955,1.08
			c-3.234,0-4.992-1.941-4.992-5.193C126.354,105.462,128.19,103.273,131.381,103.273z M132.576,107.563
			c0.079-1.459-0.272-2.188-1.266-2.188c-0.923,0-1.512,0.526-1.679,2.188H132.576z"/>
		<path fill="#030303" d="M142.174,103.273c1.354,0,2.452,0.265,2.769,0.501l-0.369,2.442c-0.387-0.22-0.993-0.412-1.96-0.412
			c-1.037,0-2.197,0.598-2.232,2.486c-0.035,2.064,0.993,2.786,2.259,2.786c0.853,0,1.617-0.158,2.048-0.36l0.396,1.838
			c-0.554,0.57-1.854,1.02-3.146,1.02c-3.313,0-4.852-2.161-4.852-5.054C137.085,105.594,138.667,103.273,142.174,103.273z"/>
		<path fill="#030303" d="M147.21,105.55h-1.16v-1.723c0.879-0.256,1.459-0.448,1.731-1.012c0.202-0.422,0.475-1.144,0.703-1.688
			h1.978v2.285h2.602v2.136h-2.602v3.568c0,1.871,0.264,2.021,1.16,2.021c0.448,0,1.16-0.186,1.468-0.396l0.387,1.812
			c-0.483,0.457-1.881,1.02-3.34,1.02c-2.153,0-2.927-1.08-2.927-3.261V105.55z"/>
		<path fill="#030303" d="M159.462,103.273c2.136,0,4.184,0.854,4.21,4.068c0,0.729-0.044,1.415-0.105,1.847h-5.88
			c0.149,1.494,1.037,2.083,2.505,2.083c0.967,0,2.206-0.246,2.689-0.51l0.501,1.73c-0.659,0.535-2.162,1.08-3.955,1.08
			c-3.234,0-4.992-1.941-4.992-5.193C154.435,105.462,156.271,103.273,159.462,103.273z M160.657,107.563
			c0.079-1.459-0.272-2.188-1.266-2.188c-0.923,0-1.512,0.526-1.679,2.188H160.657z"/>
		<path fill="#030303" d="M165.166,108.767c0-3.394,2.039-5.493,5.106-5.493c0.703,0,1.266,0.114,1.652,0.246l-0.026-1.072v-3.62
			h3.252v14.748h-2.496c-0.325,0-0.483-0.177-0.483-0.476v-0.703c-0.448,0.448-1.354,1.179-3.032,1.179
			C167.003,113.573,165.166,112.019,165.166,108.767z M171.898,110.683v-4.878c-0.272-0.202-0.791-0.281-1.371-0.281
			c-1.143,0-1.942,1.021-1.951,3.085c-0.009,1.872,0.642,2.531,1.679,2.531C170.879,111.14,171.547,110.92,171.898,110.683z"/>
		<path fill="#030303" d="M188.352,103.273c1.354,0,2.452,0.265,2.769,0.501l-0.369,2.442c-0.387-0.22-0.993-0.412-1.96-0.412
			c-1.037,0-2.197,0.598-2.232,2.486c-0.035,2.064,0.993,2.786,2.259,2.786c0.853,0,1.617-0.158,2.048-0.36l0.396,1.838
			c-0.554,0.57-1.854,1.02-3.146,1.02c-3.313,0-4.852-2.161-4.852-5.054C183.263,105.594,184.845,103.273,188.352,103.273z"/>
		<path fill="#030303" d="M197.668,103.273c3.709,0,5.036,2.479,4.992,5.354c-0.044,3.218-2.171,4.947-5.177,4.947
			c-3.709,0-5.036-2.479-5.001-5.353C192.535,105.005,194.662,103.273,197.668,103.273z M199.276,108.477
			c0-1.617-0.404-2.943-1.67-2.943c-1.31,0-1.74,0.967-1.74,2.785c0,1.652,0.422,3.016,1.688,3.016
			C198.837,111.333,199.276,110.393,199.276,108.477z"/>
		<path fill="#030303" d="M204.849,103.414h2.971l0.079,1.071c0.677-0.563,1.96-1.204,3.27-1.229
			c1.178-0.025,2.013,0.309,2.505,1.16c0.563-0.447,1.819-1.169,3.349-1.16c2.013-0.009,3.226,0.924,3.226,3.857v6.319h-3.261
			v-5.739c0-1.459-0.299-1.897-1.266-1.881c-0.615,0-1.204,0.343-1.547,0.643c0.009,0.201,0.018,0.422,0.018,0.643v6.337h-3.234
			v-5.729c0-1.45-0.299-1.907-1.248-1.891c-0.466,0-1.169,0.229-1.608,0.649v6.971h-3.252v-10.021H204.849z"/>
		<path fill="#030303" d="M222.998,103.414h2.971l0.079,1.071c0.677-0.563,1.96-1.204,3.27-1.229
			c1.178-0.025,2.013,0.309,2.505,1.16c0.563-0.447,1.819-1.169,3.349-1.16c2.013-0.009,3.226,0.924,3.226,3.857v6.319h-3.261
			v-5.739c0-1.459-0.299-1.897-1.266-1.881c-0.615,0-1.204,0.343-1.547,0.643c0.009,0.201,0.018,0.422,0.018,0.643v6.337h-3.234
			v-5.729c0-1.45-0.299-1.907-1.248-1.891c-0.466,0-1.169,0.229-1.608,0.649v6.971H223v-10.021H222.998z"/>
		<path fill="#030303" d="M240.989,103.414h3.261v5.968c0,1.513,0.431,1.854,1.327,1.854c0.606,0,1.195-0.264,1.424-0.466v-7.355
			h3.261v10.159h-2.355c-0.413,0-0.606-0.078-0.606-0.51v-0.422c-0.712,0.545-1.986,0.932-2.918,0.932
			c-2.936,0-3.393-1.802-3.393-4.271L240.989,103.414L240.989,103.414z"/>
		<path fill="#030303" d="M253.118,103.414h2.971l0.079,1.071c0.747-0.624,2.057-1.213,3.27-1.229
			c2.048-0.044,3.059,0.983,3.059,3.867v6.312h-3.252v-5.729c0-1.459-0.325-1.916-1.274-1.891c-0.475,0-1.16,0.229-1.6,0.649v6.971
			h-3.252L253.118,103.414L253.118,103.414z"/>
		<path fill="#030303" d="M265.063,100.505c0-0.983,0.905-1.812,1.96-1.812c1.063,0,1.793,0.687,1.793,1.68
			c0,0.983-0.879,1.818-1.942,1.818C265.827,102.192,265.063,101.489,265.063,100.505z M265.212,103.414h3.27v10.021h-3.27V103.414z
			"/>
		<path fill="#030303" d="M275.715,103.273c1.354,0,2.452,0.265,2.769,0.501l-0.369,2.442c-0.387-0.22-0.993-0.412-1.96-0.412
			c-1.037,0-2.197,0.598-2.232,2.486c-0.035,2.064,0.993,2.786,2.259,2.786c0.853,0,1.617-0.158,2.048-0.36l0.396,1.838
			c-0.554,0.57-1.854,1.02-3.146,1.02c-3.313,0-4.852-2.161-4.852-5.054C270.626,105.594,272.208,103.273,275.715,103.273z"/>
		<path fill="#030303" d="M281.639,107.835c1.222-0.526,2.839-0.605,4.096-0.605v-0.605c0-0.87-0.325-1.081-1.828-1.081
			c-0.729,0-2.127,0.299-3.023,0.712l-0.659-1.916c0.729-0.438,2.619-1.1,4.403-1.1c3.164,0,4.342,1.021,4.342,3.788v6.549h-2.039
			c-0.668,0-1.028-0.045-1.028-0.914v-0.07c-0.563,0.492-1.45,0.984-2.795,0.984c-1.978,0-3.27-1.337-3.27-3.199
			C279.837,109.197,280.531,108.31,281.639,107.835z M284.469,111.57c0.519,0,1.081-0.229,1.266-0.422v-2.354
			c-0.633,0.01-1.406,0.142-1.758,0.309c-0.378,0.148-0.782,0.396-0.782,1.106C283.194,111.156,283.81,111.57,284.469,111.57z"/>
		<path fill="#030303" d="M291.852,105.55h-1.16v-1.723c0.879-0.256,1.459-0.448,1.731-1.012c0.202-0.422,0.475-1.144,0.703-1.688
			h1.978v2.285h2.602v2.136h-2.602v3.568c0,1.871,0.264,2.021,1.16,2.021c0.448,0,1.16-0.186,1.468-0.396l0.387,1.812
			c-0.483,0.457-1.881,1.02-3.34,1.02c-2.153,0-2.927-1.08-2.927-3.261V105.55L291.852,105.55z"/>
		<path fill="#030303" d="M299.577,100.505c0-0.983,0.905-1.812,1.96-1.812c1.063,0,1.793,0.687,1.793,1.68
			c0,0.983-0.879,1.818-1.942,1.818C300.342,102.192,299.577,101.489,299.577,100.505z M299.727,103.414h3.271v10.021h-3.271
			V103.414z"/>
		<path fill="#030303" d="M310.335,103.273c3.709,0,5.036,2.479,4.992,5.354c-0.044,3.218-2.171,4.947-5.177,4.947
			c-3.709,0-5.036-2.479-5.001-5.353C305.202,105.005,307.329,103.273,310.335,103.273z M311.943,108.477
			c0-1.617-0.404-2.943-1.67-2.943c-1.312,0-1.74,0.967-1.74,2.785c0,1.652,0.422,3.016,1.688,3.016
			C311.504,111.333,311.943,110.393,311.943,108.477z"/>
		<path fill="#030303" d="M317.516,103.414h2.973l0.079,1.071c0.747-0.624,2.057-1.213,3.27-1.229
			c2.048-0.044,3.059,0.983,3.059,3.867v6.312h-3.252v-5.729c0-1.459-0.323-1.916-1.272-1.891c-0.477,0-1.16,0.229-1.602,0.649
			v6.971h-3.252L317.516,103.414L317.516,103.414z"/>
		<path fill="#030303" d="M329.469,110.516c0.299,0.246,1.636,0.888,2.962,0.888c1.028,0.01,1.45-0.22,1.45-0.729
			c0-0.545-0.809-0.869-2.171-1.317c-1.846-0.605-2.593-1.626-2.584-3.164c0-1.941,1.872-2.918,4.166-2.918
			c1.635,0,2.769,0.36,3.226,0.615l-0.29,2.284c-0.367-0.315-1.448-0.765-2.417-0.765c-1.125,0-1.527,0.229-1.536,0.687
			c0,0.526,0.481,0.791,2.057,1.282c1.854,0.599,2.769,1.459,2.769,3.016c0,2.083-1.67,3.189-4.228,3.189
			c-1.661,0-3.155-0.466-3.718-0.816L329.469,110.516z"/>
		<path fill="#030303" d="M90.995,128.273c3.709,0,5.036,2.479,4.992,5.354c-0.044,3.218-2.171,4.947-5.177,4.947
			c-3.709,0-5.036-2.479-5.001-5.353C85.862,130.005,87.989,128.273,90.995,128.273z M92.604,133.477
			c0-1.617-0.404-2.943-1.67-2.943c-1.31,0-1.74,0.967-1.74,2.785c0,1.652,0.422,3.016,1.688,3.016
			C92.164,136.333,92.604,135.393,92.604,133.477z"/>
		<path fill="#030303" d="M98.694,130.55h-1.257v-1.897l1.257-0.236v-1.027c0-2.884,2.048-3.753,3.885-3.753
			c1.02,0,1.705,0.148,1.934,0.201v2.231c-0.22-0.113-0.659-0.22-1.283-0.22c-0.765,0-1.266,0.491-1.266,1.661v0.904h2.171v2.137
			h-2.171v7.884h-3.27V130.55z"/>
		<path fill="#030303" d="M111.878,128.414h2.971l0.079,1.071c0.747-0.624,2.057-1.213,3.27-1.229
			c2.048-0.044,3.059,0.983,3.059,3.867v6.312h-3.252v-5.729c0-1.459-0.325-1.916-1.274-1.891c-0.475,0-1.16,0.229-1.6,0.649v6.971
			h-3.252L111.878,128.414L111.878,128.414z"/>
		<path fill="#030303" d="M128.516,128.273c3.709,0,5.036,2.479,4.992,5.354c-0.044,3.218-2.171,4.947-5.177,4.947
			c-3.709,0-5.036-2.479-5.001-5.353C123.383,130.005,125.51,128.273,128.516,128.273z M130.124,133.477
			c0-1.617-0.404-2.943-1.67-2.943c-1.31,0-1.74,0.967-1.74,2.785c0,1.652,0.422,3.016,1.688,3.016
			C129.685,136.333,130.124,135.393,130.124,133.477z"/>
		<path fill="#030303" d="M135.696,128.414h2.971l0.079,1.071c0.747-0.624,2.057-1.213,3.27-1.229
			c2.048-0.044,3.059,0.983,3.059,3.867v6.312h-3.252v-5.729c0-1.459-0.325-1.916-1.274-1.891c-0.475,0-1.16,0.229-1.6,0.649v6.971
			h-3.252L135.696,128.414L135.696,128.414z"/>
		<path fill="#030303" d="M157.01,139.655v3.227h-3.261v-14.467h3.076v0.977c0.466-0.457,1.345-1.116,2.944-1.116
			c2.145,0,3.999,1.529,3.999,4.781c0,3.394-2.065,5.521-5.133,5.521c-0.712,0-1.274-0.114-1.661-0.246L157.01,139.655z
			 M158.39,136.377c1.143,0,1.942-1.1,1.951-3.129c0.009-1.916-0.642-2.559-1.679-2.559c-0.633,0-1.31,0.255-1.652,0.526v4.8
			C157.273,136.271,157.783,136.377,158.39,136.377z"/>
		<path fill="#030303" d="M165.86,128.414h2.856l0.141,1.607c0.413-1.021,1.529-1.768,2.883-1.768c0.29,0,0.598,0.035,0.729,0.123
			v3.208c-0.167-0.098-0.475-0.236-1.072-0.236c-1.204,0-1.898,0.536-2.276,0.948v6.136h-3.261V128.414z"/>
		<path fill="#030303" d="M178.947,128.273c3.709,0,5.036,2.479,4.992,5.354c-0.044,3.218-2.171,4.947-5.177,4.947
			c-3.709,0-5.036-2.479-5.001-5.353C173.814,130.005,175.941,128.273,178.947,128.273z M180.556,133.477
			c0-1.617-0.404-2.943-1.67-2.943c-1.31,0-1.74,0.967-1.74,2.785c0,1.652,0.422,3.016,1.688,3.016
			C180.116,136.333,180.556,135.393,180.556,133.477z"/>
		<path fill="#030303" d="M186.646,130.55h-1.257v-1.897l1.257-0.236v-1.027c0-2.884,2.048-3.753,3.885-3.753
			c1.02,0,1.705,0.148,1.934,0.201v2.231c-0.22-0.113-0.659-0.22-1.283-0.22c-0.765,0-1.266,0.491-1.266,1.661v0.904h2.171v2.137
			h-2.171v7.884h-3.27V130.55z"/>
		<path fill="#030303" d="M193.687,125.505c0-0.983,0.905-1.812,1.96-1.812c1.063,0,1.793,0.687,1.793,1.68
			c0,0.983-0.879,1.818-1.942,1.818C194.451,127.192,193.687,126.489,193.687,125.505z M193.836,128.414h3.27v10.021h-3.27V128.414z
			"/>
		<path fill="#030303" d="M200.164,130.55h-1.16v-1.723c0.879-0.256,1.459-0.448,1.731-1.012c0.202-0.422,0.475-1.144,0.703-1.688
			h1.978v2.285h2.602v2.136h-2.602v3.568c0,1.871,0.264,2.021,1.16,2.021c0.448,0,1.16-0.186,1.468-0.396l0.387,1.812
			c-0.483,0.457-1.881,1.02-3.34,1.02c-2.153,0-2.927-1.08-2.927-3.261V130.55z"/>
		<path fill="#030303" d="M90.995,153.273c3.709,0,5.036,2.479,4.992,5.354c-0.044,3.218-2.171,4.947-5.177,4.947
			c-3.709,0-5.036-2.479-5.001-5.353C85.862,155.005,87.989,153.273,90.995,153.273z M92.604,158.477
			c0-1.617-0.404-2.943-1.67-2.943c-1.31,0-1.74,0.967-1.74,2.785c0,1.652,0.422,3.016,1.688,3.016
			C92.164,161.333,92.604,160.393,92.604,158.477z"/>
		<path fill="#030303" d="M98.088,153.414h2.856l0.141,1.607c0.413-1.021,1.529-1.768,2.883-1.768c0.29,0,0.598,0.035,0.729,0.123
			v3.208c-0.167-0.098-0.475-0.236-1.072-0.236c-1.204,0-1.898,0.536-2.276,0.948v6.136h-3.261V153.414z"/>
		<path fill="#030303" d="M107.325,162.818c-0.545-0.299-0.817-0.86-0.809-1.503c0.009-0.659,0.387-1.503,1.635-2.039
			c-1.274-0.51-2.004-1.459-2.004-2.741c0-2.181,1.67-3.243,4.623-3.253c1.45,0,2.593,0.246,3.393,0.738
			c0.334-0.281,0.94-0.605,1.705-0.605h1.125v2.24h-1.617c0.062,0.256,0.097,0.536,0.097,0.826c0,2.004-1.433,3.233-4.702,3.233
			c-0.352,0-0.686-0.019-1.002-0.053c-0.229,0.211-0.316,0.482-0.316,0.712c0,0.482,0.325,0.649,1.274,0.649h1.986
			c3.129,0,3.964,1.44,3.964,3.041c0,2.654-2.848,3.92-5.695,3.901c-3.56-0.025-5.159-1.194-5.159-3.031
			C105.822,164.058,106.332,163.267,107.325,162.818z M111.148,166.211c1.318,0,2.294-0.413,2.294-1.484
			c0-0.772-0.264-1.39-1.907-1.39h-2.136c-0.167,0.236-0.308,0.571-0.308,1.012C109.092,165.244,109.461,166.211,111.148,166.211z
			 M112.335,156.517c0-1.046-0.501-1.557-1.503-1.557c-0.94,0-1.564,0.353-1.564,1.547c0,0.939,0.501,1.504,1.529,1.504
			C111.711,158.011,112.335,157.703,112.335,156.517z"/>
		<path fill="#030303" d="M119.744,157.835c1.222-0.526,2.839-0.605,4.096-0.605v-0.605c0-0.87-0.325-1.081-1.828-1.081
			c-0.729,0-2.127,0.299-3.023,0.712l-0.659-1.916c0.729-0.438,2.619-1.1,4.403-1.1c3.164,0,4.342,1.021,4.342,3.788v6.549h-2.039
			c-0.668,0-1.028-0.045-1.028-0.914v-0.07c-0.563,0.492-1.45,0.984-2.795,0.984c-1.978,0-3.27-1.337-3.27-3.199
			C117.942,159.197,118.637,158.31,119.744,157.835z M122.574,161.57c0.519,0,1.081-0.229,1.266-0.422v-2.354
			c-0.633,0.01-1.406,0.142-1.758,0.309c-0.378,0.148-0.782,0.396-0.782,1.106C121.3,161.156,121.915,161.57,122.574,161.57z"/>
		<path fill="#030303" d="M129.729,153.414h2.971l0.079,1.071c0.747-0.624,2.057-1.213,3.27-1.229
			c2.048-0.044,3.059,0.983,3.059,3.867v6.312h-3.252v-5.729c0-1.459-0.325-1.916-1.274-1.891c-0.475,0-1.16,0.229-1.6,0.649v6.971
			h-3.252L129.729,153.414L129.729,153.414z"/>
		<path fill="#030303" d="M141.673,150.505c0-0.983,0.905-1.812,1.96-1.812c1.063,0,1.793,0.687,1.793,1.68
			c0,0.983-0.879,1.818-1.942,1.818C142.438,152.192,141.673,151.489,141.673,150.505z M141.822,153.414h3.27v10.021h-3.27V153.414z
			"/>
		<path fill="#030303" d="M146.946,162.704l4.025-6.274l0.527-0.801h-3.955l0.018-2.215h7.937l0.308,0.835l-3.929,6.091l-0.58,0.81
			h4.324v2.285h-8.306L146.946,162.704z"/>
		<path fill="#030303" d="M158.794,157.835c1.222-0.526,2.839-0.605,4.096-0.605v-0.605c0-0.87-0.325-1.081-1.828-1.081
			c-0.729,0-2.127,0.299-3.023,0.712l-0.659-1.916c0.729-0.438,2.619-1.1,4.403-1.1c3.164,0,4.342,1.021,4.342,3.788v6.549h-2.039
			c-0.668,0-1.028-0.045-1.028-0.914v-0.07c-0.563,0.492-1.45,0.984-2.795,0.984c-1.978,0-3.27-1.337-3.27-3.199
			C156.992,159.197,157.687,158.31,158.794,157.835z M161.624,161.57c0.519,0,1.081-0.229,1.266-0.422v-2.354
			c-0.633,0.01-1.406,0.142-1.758,0.309c-0.378,0.148-0.782,0.396-0.782,1.106C160.35,161.156,160.965,161.57,161.624,161.57z"/>
		<path fill="#030303" d="M169.007,155.55h-1.16v-1.723c0.879-0.256,1.459-0.448,1.731-1.012c0.202-0.422,0.475-1.144,0.703-1.688
			h1.978v2.285h2.602v2.136h-2.602v3.568c0,1.871,0.264,2.021,1.16,2.021c0.448,0,1.16-0.186,1.468-0.396l0.387,1.812
			c-0.483,0.457-1.881,1.02-3.34,1.02c-2.153,0-2.927-1.08-2.927-3.261V155.55z"/>
		<path fill="#030303" d="M176.732,150.505c0-0.983,0.905-1.812,1.96-1.812c1.063,0,1.793,0.687,1.793,1.68
			c0,0.983-0.879,1.818-1.942,1.818C177.497,152.192,176.732,151.489,176.732,150.505z M176.882,153.414h3.27v10.021h-3.27V153.414z
			"/>
		<path fill="#030303" d="M187.49,153.273c3.709,0,5.036,2.479,4.992,5.354c-0.044,3.218-2.171,4.947-5.177,4.947
			c-3.709,0-5.036-2.479-5.001-5.353C182.357,155.005,184.484,153.273,187.49,153.273z M189.099,158.477
			c0-1.617-0.404-2.943-1.67-2.943c-1.31,0-1.74,0.967-1.74,2.785c0,1.652,0.422,3.016,1.688,3.016
			C188.659,161.333,189.099,160.393,189.099,158.477z"/>
		<path fill="#030303" d="M194.671,153.414h2.971l0.079,1.071c0.747-0.624,2.057-1.213,3.27-1.229
			c2.048-0.044,3.059,0.983,3.059,3.867v6.312h-3.252v-5.729c0-1.459-0.325-1.916-1.274-1.891c-0.475,0-1.16,0.229-1.6,0.649v6.971
			h-3.252L194.671,153.414L194.671,153.414z"/>
		<path fill="#030303" d="M206.624,160.516c0.299,0.246,1.635,0.888,2.962,0.888c1.028,0.01,1.45-0.22,1.45-0.729
			c0-0.545-0.809-0.869-2.171-1.317c-1.846-0.605-2.593-1.626-2.584-3.164c0-1.941,1.872-2.918,4.166-2.918
			c1.635,0,2.769,0.36,3.226,0.615l-0.29,2.285c-0.369-0.316-1.45-0.766-2.417-0.766c-1.125,0-1.529,0.229-1.538,0.687
			c0,0.526,0.483,0.791,2.057,1.282c1.854,0.599,2.769,1.459,2.769,3.016c0,2.083-1.67,3.189-4.228,3.189
			c-1.661,0-3.155-0.466-3.718-0.816L206.624,160.516z"/>
		<path fill="#030303" d="M217.918,159.777c1.107,0,1.793,0.791,1.793,1.847c0.009,1.063-0.835,2.004-1.942,2.004
			c-1.081,0-1.811-0.8-1.819-1.854C215.949,160.719,216.811,159.777,217.918,159.777z"/>
	</g>
	<g>
		<path fill="#030303" d="M790.613,413.703c0.647,0.368,2.127,0.86,3.532,0.854c1.267,0,1.812-0.344,1.812-1.135
			c0-0.854-0.721-1.188-2.717-2.136c-1.705-0.81-3.14-1.995-3.14-4.147c0-2.436,1.943-3.665,4.773-3.665
			c2.004,0,3.287,0.482,3.77,0.765l-0.518,2.515c-0.537-0.422-1.793-0.854-2.963-0.854c-1.266,0-1.846,0.448-1.846,1.125
			c0,0.81,0.692,1.248,2.313,1.986c2.303,1.036,3.674,2.057,3.674,4.156c0,2.398-1.729,3.964-4.879,3.964
			c-1.916,0-3.709-0.501-4.227-0.825L790.613,413.703z"/>
		<path fill="#030303" d="M801.255,402.383h3.262v3.763l-0.157,1.872c0.668-0.563,1.854-1.188,3.139-1.204
			c2.18-0.044,3.172,1.213,3.172,3.895v6.284h-3.26v-5.729c0-1.529-0.414-1.907-1.293-1.891c-0.404,0.009-1.115,0.167-1.601,0.649
			v6.971h-3.262V402.383L801.255,402.383z"/>
		<path fill="#030303" d="M814.537,411.392c1.221-0.527,2.838-0.605,4.096-0.605v-0.605c0-0.87-0.326-1.081-1.828-1.081
			c-0.729,0-2.127,0.299-3.022,0.712l-0.658-1.916c0.729-0.438,2.619-1.1,4.402-1.1c3.164,0,4.342,1.021,4.342,3.788v6.549h-2.039
			c-0.668,0-1.027-0.045-1.027-0.914v-0.07c-0.563,0.492-1.451,0.984-2.795,0.984c-1.979,0-3.27-1.337-3.27-3.199
			C812.734,412.754,813.429,411.865,814.537,411.392z M817.367,415.127c0.518,0,1.08-0.229,1.266-0.422v-2.354
			c-0.633,0.009-1.406,0.142-1.758,0.309c-0.379,0.148-0.783,0.396-0.783,1.106C816.091,414.714,816.707,415.127,817.367,415.127z"
			/>
		<path fill="#030303" d="M824.433,406.971h2.855l0.141,1.607c0.414-1.021,1.529-1.768,2.885-1.768c0.289,0,0.599,0.035,0.729,0.123
			v3.208c-0.168-0.098-0.475-0.237-1.072-0.237c-1.205,0-1.897,0.536-2.274,0.949v6.135h-3.263L824.433,406.971L824.433,406.971z"/>
		<path fill="#030303" d="M832.826,404.062c0-0.983,0.906-1.812,1.961-1.812c1.063,0,1.793,0.687,1.793,1.68
			c0,0.983-0.879,1.818-1.943,1.818C833.591,405.749,832.826,405.046,832.826,404.062z M832.976,406.971h3.271v10.02h-3.271V406.971
			z"/>
		<path fill="#030303" d="M839.076,406.971h2.971l0.078,1.071c0.748-0.624,2.057-1.213,3.271-1.229
			c2.048-0.044,3.06,0.983,3.06,3.867v6.312h-3.252v-5.729c0-1.459-0.326-1.916-1.275-1.891c-0.475,0-1.158,0.229-1.6,0.649v6.971
			h-3.252V406.971L839.076,406.971z"/>
		<path fill="#030303" d="M851.863,416.375c-0.545-0.299-0.816-0.86-0.81-1.503c0.008-0.659,0.388-1.503,1.635-2.039
			c-1.272-0.511-2.004-1.459-2.004-2.742c0-2.18,1.67-3.242,4.623-3.252c1.449,0,2.595,0.246,3.394,0.738
			c0.334-0.281,0.938-0.605,1.705-0.605h1.125v2.24h-1.617c0.063,0.256,0.098,0.536,0.098,0.826c0,2.004-1.434,3.233-4.703,3.233
			c-0.352,0-0.686-0.019-1.002-0.053c-0.229,0.211-0.313,0.481-0.313,0.712c0,0.482,0.324,0.649,1.272,0.649h1.986
			c3.129,0,3.963,1.44,3.963,3.041c0,2.653-2.848,3.92-5.695,3.901c-3.559-0.026-5.157-1.194-5.157-3.032
			C850.361,417.614,850.871,416.823,851.863,416.375z M855.687,419.768c1.318,0,2.296-0.413,2.296-1.484
			c0-0.772-0.267-1.39-1.908-1.39h-2.136c-0.168,0.236-0.309,0.57-0.309,1.011C853.63,418.802,854,419.768,855.687,419.768z
			 M856.873,410.073c0-1.046-0.5-1.556-1.502-1.556c-0.941,0-1.564,0.353-1.564,1.547c0,0.939,0.5,1.503,1.529,1.503
			C856.25,411.567,856.873,411.26,856.873,410.073z"/>
		<path fill="#030303" d="M873.634,406.83c3.709,0,5.035,2.479,4.992,5.354c-0.045,3.217-2.172,4.947-5.178,4.947
			c-3.709,0-5.035-2.479-5-5.354C868.501,408.562,870.628,406.83,873.634,406.83z M875.242,412.032c0-1.616-0.404-2.943-1.67-2.943
			c-1.312,0-1.74,0.968-1.74,2.786c0,1.651,0.422,3.016,1.689,3.016C874.802,414.89,875.242,413.948,875.242,412.032z"/>
		<path fill="#030303" d="M881.333,409.106h-1.258v-1.897l1.258-0.236v-1.028c0-2.883,2.047-3.753,3.885-3.753
			c1.021,0,1.705,0.148,1.935,0.202v2.231c-0.222-0.114-0.658-0.221-1.283-0.221c-0.764,0-1.267,0.492-1.267,1.661v0.905h2.173
			v2.136h-2.173v7.884h-3.27V409.106z"/>
		<path fill="#030303" d="M898.919,406.83c1.355,0,2.453,0.265,2.77,0.501l-0.368,2.442c-0.388-0.22-0.992-0.413-1.959-0.413
			c-1.037,0-2.197,0.599-2.232,2.487c-0.035,2.064,0.992,2.786,2.258,2.786c0.854,0,1.617-0.158,2.05-0.36l0.396,1.837
			c-0.555,0.571-1.854,1.021-3.146,1.021c-3.313,0-4.853-2.161-4.853-5.054C893.832,409.15,895.414,406.83,898.919,406.83z"/>
		<path fill="#030303" d="M903.693,402.383h3.26v3.763l-0.158,1.872c0.668-0.563,1.854-1.188,3.139-1.204
			c2.181-0.044,3.175,1.213,3.175,3.895v6.284h-3.263v-5.729c0-1.529-0.414-1.907-1.293-1.891c-0.401,0.009-1.114,0.167-1.6,0.649
			v6.971h-3.261L903.693,402.383L903.693,402.383z"/>
		<path fill="#030303" d="M915.671,404.062c0-0.983,0.906-1.812,1.961-1.812c1.063,0,1.793,0.687,1.793,1.68
			c0,0.983-0.879,1.818-1.94,1.818C916.437,405.749,915.671,405.046,915.671,404.062z M915.822,406.971h3.27v10.02h-3.27V406.971z"
			/>
		<path fill="#030303" d="M921.921,402.383h3.26v14.606h-3.26V402.383z"/>
		<path fill="#030303" d="M927.361,412.323c0-3.393,2.039-5.492,5.104-5.492c0.703,0,1.269,0.113,1.652,0.246l-0.025-1.072v-3.621
			h3.252v14.748h-2.496c-0.323,0-0.481-0.176-0.481-0.476v-0.702c-0.449,0.447-1.355,1.178-3.033,1.178
			C929.199,417.131,927.361,415.575,927.361,412.323z M934.093,414.239v-4.878c-0.271-0.201-0.791-0.28-1.371-0.28
			c-1.143,0-1.94,1.021-1.948,3.085c-0.011,1.872,0.641,2.53,1.678,2.53C933.074,414.696,933.742,414.477,934.093,414.239z"/>
		<path fill="#030303" d="M814.906,443.213v3.226h-3.263v-14.467h3.076v0.976c0.467-0.457,1.347-1.114,2.943-1.114
			c2.145,0,4,1.527,4,4.779c0,3.395-2.066,5.521-5.133,5.521c-0.713,0-1.275-0.114-1.662-0.246L814.906,443.213z M816.285,439.934
			c1.143,0,1.94-1.099,1.951-3.129c0.01-1.916-0.644-2.56-1.681-2.56c-0.633,0-1.309,0.256-1.649,0.527v4.799
			C815.169,439.827,815.679,439.934,816.285,439.934z"/>
		<path fill="#030303" d="M828.353,431.829c3.709,0,5.035,2.479,4.992,5.354c-0.045,3.217-2.172,4.948-5.178,4.948
			c-3.709,0-5.035-2.479-5-5.354C823.22,433.562,825.347,431.829,828.353,431.829z M829.96,437.032c0-1.617-0.404-2.942-1.67-2.942
			c-1.309,0-1.74,0.967-1.74,2.784c0,1.652,0.422,3.017,1.689,3.017C829.521,439.89,829.96,438.948,829.96,437.032z"/>
		<path fill="#030303" d="M835.445,431.971h2.854l0.144,1.606c0.411-1.02,1.526-1.767,2.883-1.767c0.289,0,0.598,0.035,0.729,0.123
			v3.208c-0.168-0.097-0.475-0.237-1.071-0.237c-1.203,0-1.898,0.536-2.275,0.949v6.135h-3.262L835.445,431.971L835.445,431.971z"/>
		<path fill="#030303" d="M844.023,431.971h2.971l0.08,1.071c0.746-0.623,2.057-1.214,3.27-1.229c2.047-0.044,3.06,0.984,3.06,3.867
			v6.311h-3.252v-5.729c0-1.459-0.324-1.916-1.273-1.892c-0.475,0-1.16,0.229-1.6,0.65v6.97h-3.252v-10.02H844.023L844.023,431.971z
			"/>
		<path fill="#030303" d="M860.662,431.829c3.709,0,5.035,2.479,4.992,5.354c-0.045,3.217-2.172,4.948-5.179,4.948
			c-3.709,0-5.034-2.479-5.002-5.354C855.529,433.562,857.656,431.829,860.662,431.829z M862.271,437.032
			c0-1.617-0.403-2.942-1.672-2.942c-1.309,0-1.737,0.967-1.737,2.784c0,1.652,0.422,3.017,1.688,3.017
			C861.83,439.89,862.271,438.948,862.271,437.032z"/>
		<path fill="#030303" d="M868.501,441.374c-0.545-0.299-0.818-0.859-0.809-1.503c0.008-0.657,0.387-1.503,1.635-2.038
			c-1.275-0.511-2.004-1.459-2.004-2.741c0-2.182,1.67-3.243,4.623-3.252c1.448,0,2.592,0.246,3.393,0.736
			c0.334-0.279,0.939-0.604,1.705-0.604h1.125v2.241h-1.617c0.063,0.255,0.099,0.534,0.099,0.824c0,2.005-1.435,3.234-4.703,3.234
			c-0.353,0-0.687-0.018-1.002-0.053c-0.229,0.211-0.316,0.481-0.316,0.712c0,0.481,0.326,0.648,1.275,0.648h1.983
			c3.129,0,3.965,1.441,3.965,3.041c0,2.654-2.848,3.922-5.694,3.902c-3.562-0.026-5.158-1.195-5.158-3.032
			C866.998,442.614,867.507,441.823,868.501,441.374z M872.324,444.768c1.317,0,2.295-0.413,2.295-1.485
			c0-0.771-0.265-1.389-1.908-1.389h-2.135c-0.168,0.237-0.31,0.571-0.31,1.011C870.267,443.802,870.636,444.768,872.324,444.768z
			 M873.511,435.073c0-1.046-0.502-1.556-1.504-1.556c-0.938,0-1.563,0.352-1.563,1.547c0,0.94,0.5,1.503,1.526,1.503
			C872.886,436.567,873.511,436.26,873.511,435.073z"/>
		<path fill="#030303" d="M879.716,431.971h2.855l0.141,1.606c0.414-1.02,1.529-1.767,2.883-1.767c0.291,0,0.601,0.035,0.73,0.123
			v3.208c-0.168-0.097-0.478-0.237-1.072-0.237c-1.205,0-1.898,0.536-2.277,0.949v6.135h-3.26V431.971L879.716,431.971z"/>
		<path fill="#030303" d="M889.41,436.392c1.223-0.527,2.84-0.606,4.096-0.606v-0.604c0-0.87-0.324-1.081-1.828-1.081
			c-0.729,0-2.127,0.299-3.021,0.712l-0.66-1.916c0.729-0.438,2.619-1.099,4.404-1.099c3.164,0,4.342,1.02,4.342,3.788v6.548h-2.039
			c-0.668,0-1.029-0.044-1.029-0.914v-0.07c-0.563,0.492-1.449,0.984-2.795,0.984c-1.977,0-3.27-1.336-3.27-3.199
			C887.609,437.755,888.302,436.865,889.41,436.392z M892.24,440.128c0.52,0,1.082-0.229,1.266-0.424v-2.354
			c-0.633,0.009-1.406,0.141-1.758,0.308c-0.377,0.149-0.781,0.396-0.781,1.107C890.966,439.715,891.582,440.128,892.24,440.128z"/>
		<path fill="#030303" d="M902.621,443.213v3.226h-3.262v-14.467h3.075v0.976c0.467-0.457,1.347-1.114,2.943-1.114
			c2.146,0,4,1.527,4,4.779c0,3.395-2.064,5.521-5.133,5.521c-0.713,0-1.275-0.114-1.662-0.246L902.621,443.213z M904,439.934
			c1.146,0,1.943-1.099,1.951-3.129c0.01-1.916-0.644-2.56-1.679-2.56c-0.635,0-1.311,0.256-1.651,0.527v4.799
			C902.884,439.827,903.394,439.934,904,439.934z"/>
		<path fill="#030303" d="M911.522,427.384h3.263v3.762l-0.158,1.872c0.668-0.563,1.854-1.188,3.137-1.204
			c2.183-0.044,3.175,1.213,3.175,3.895v6.283h-3.263v-5.729c0-1.529-0.412-1.907-1.291-1.892c-0.403,0.011-1.116,0.167-1.6,0.65
			v6.97h-3.263V427.384z"/>
		<path fill="#030303" d="M924.408,443.958c0.896,0,2.057-0.132,2.514-1.969h-1.248l-3.453-10.02h3.438l1.438,5.271l0.66,2.751
			l0.599-2.751l1.125-5.271h3.409l-3.153,10.257c-0.738,2.399-1.926,3.463-3.199,3.938c-0.439,0.176-1.205,0.279-1.732,0.279
			c-0.264,0-1.379-0.104-1.483-0.176v-2.496C923.511,443.837,924.109,443.958,924.408,443.958z"/>
		<path fill="#030303" d="M935.896,438.333c1.107,0,1.793,0.791,1.793,1.848c0.011,1.063-0.834,2.004-1.94,2.004
			c-1.082,0-1.812-0.8-1.82-1.854C933.927,439.274,934.789,438.333,935.896,438.333z"/>
	</g>
</g>
</svg>
