<?xml version="1.0" encoding="utf-8"?>
<!-- Generator: Adobe Illustrator 16.0.0, SVG Export Plug-In . SVG Version: 6.00 Build 0)  -->
<!DOCTYPE svg PUBLIC "-//W3C//DTD SVG 1.1//EN" "http://www.w3.org/Graphics/SVG/1.1/DTD/svg11.dtd">
<svg version="1.1" id="Layer_1" xmlns="http://www.w3.org/2000/svg" xmlns:xlink="http://www.w3.org/1999/xlink" x="0px" y="0px"
	 width="1365.836px" height="768.002px" viewBox="0 0 1365.836 768.002" enable-background="new 0 0 1365.836 768.002"
	 xml:space="preserve">
<g id="fotoc">
	<g>
		<g>
			<g>
				<defs>
					<rect id="SVGID_1_" x="-0.081" y="0" width="683" height="768.002"/>
				</defs>
				<clipPath id="SVGID_2_">
					<use xlink:href="#SVGID_1_"  overflow="visible"/>
				</clipPath>
				<g transform="matrix(1 0 0 1 0 -2.328306e-010)" clip-path="url(#SVGID_2_)">
					
						<image overflow="visible" enable-background="new    " width="960" height="1440" xlink:href="4_1a.jpg"  transform="matrix(0.7113 0 0 0.7113 4.882813e-004 -0.0037)">
					</image>
				</g>
			</g>
		</g>
	</g>
	<g>
		<g>
			<g>
				<defs>
					<rect id="SVGID_3_" x="682.836" y="0" width="683" height="768.002"/>
				</defs>
				<clipPath id="SVGID_4_">
					<use xlink:href="#SVGID_3_"  overflow="visible"/>
				</clipPath>
				<g clip-path="url(#SVGID_4_)">
					
						<image overflow="visible" enable-background="new    " width="960" height="1440" xlink:href="4_2.jpg"  transform="matrix(-0.7116 0 0 0.7116 1365.6709 -0.0017)">
					</image>
				</g>
			</g>
		</g>
	</g>
	<rect x="251.836" y="219.519" fill="#FFFFFF" width="64" height="24.965"/>
</g>
<g id="fotog" display="none">
	<g display="inline">
		<g>
			<g>
				<defs>
					<rect id="SVGID_5_" x="-0.081" y="0" width="683" height="768.002"/>
				</defs>
				<clipPath id="SVGID_6_">
					<use xlink:href="#SVGID_5_"  overflow="visible"/>
				</clipPath>
				<g clip-path="url(#SVGID_6_)">
					
						<image overflow="visible" enable-background="new    " width="960" height="1440" xlink:href="4_1b.jpg"  transform="matrix(0.7113 0 0 0.7113 4.882813e-004 -0.0046)">
					</image>
				</g>
			</g>
		</g>
	</g>
</g>
<g id="testi_fissi">
	<rect x="251.836" y="94.694" fill="#FFFFFF" width="260.136" height="24.967"/>
	<rect x="251.836" y="119.66" fill="#FFFFFF" width="130.068" height="24.964"/>
	<rect x="251.836" y="144.624" fill="#FFFFFF" width="142.833" height="24.965"/>
	<rect x="958.003" y="397.696" fill="#FFFFFF" width="156.493" height="24.965"/>
	<rect x="976.67" y="422.66" fill="#FFFFFF" width="137.826" height="24.964"/>
	<g>
		<g>
			<g>
				<rect x="561.337" y="357" fill="#FFFFFF" width="245.497" height="39.247"/>
			</g>
			<g>
				<rect x="614.89" y="391.572" fill="#FFFFFF" width="138.393" height="39.247"/>
			</g>
			<g>
				<rect x="570.67" y="426.906" fill="#FFFFFF" width="226.829" height="39.248"/>
			</g>
			<g>
				<path fill="#030303" d="M570.981,365.901h2.195l2.141,16.056l0.586,3.926l1.26-3.794l5.156-12.876l-0.337-3.312h2.107
					l1.599,16.056l0.293,3.926l1.448-3.794l6.489-16.188h2.229l-9.479,22.56h-2.256l-1.304-12.599l-0.266-3.457l-1.229,3.457
					l-4.98,12.599h-2.271L570.981,365.901z"/>
				<path fill="#030303" d="M596.367,379.334c-0.146-7.777,4.351-13.683,10.269-13.683c4.702,0,7.046,4.176,7.134,9.243
					c0.134,7.632-4.114,13.667-10.181,13.667C598.945,388.563,596.469,384.578,596.367,379.334z M611.469,375.306
					c-0.088-5.156-1.758-7.896-5.186-7.896c-4.482,0-7.705,5.36-7.617,11.483c0.073,5.36,1.948,7.969,5.273,7.969
					C608.437,386.863,611.586,381.59,611.469,375.306z"/>
				<path fill="#030303" d="M617.343,379.627l1.743-13.727h2.197l-1.687,13.346c-0.132,1.056-0.188,1.963-0.176,2.798
					c0.061,2.943,1.538,4.718,4.614,4.718c3.589,0,5.625-2.124,6.355-7.822l1.643-13.037h2.151l-1.67,13.229
					c-0.894,6.914-3.75,9.435-8.789,9.435c-4.275,0-6.487-2.388-6.563-6.431C617.153,381.37,617.241,380.49,617.343,379.627z"/>
				<path fill="#030303" d="M639.433,365.901h2.197l-2.593,20.566l8.687-0.061l-0.232,1.904h-10.884L639.433,365.901z"/>
				<path fill="#030303" d="M653.759,365.901h1.274c1.421-0.015,3.223-0.233,4.702-0.233c5.962,0,8.362,3.706,8.438,9.142
					c0.104,7.749-4.48,13.916-11.367,13.739c-0.41-0.016-1.201-0.06-1.653-0.104c-0.659-0.059-2.271-0.132-3.093-0.132h-1.128
					L653.759,365.901z M657.333,386.863c5.742-0.132,8.613-6.021,8.555-11.88c-0.071-5.332-1.946-7.676-6.78-7.676
					c-1.013,0-2.434,0.146-3.369,0.277l-2.373,18.896C654.536,386.688,656.118,386.893,657.333,386.863z"/>
				<path fill="#030303" d="M681.386,365.901h2.212l-2.827,22.412h-2.212L681.386,365.901z"/>
				<path fill="#030303" d="M693.442,367.527l-6.606,0.133l0.249-1.759h15.293l-0.249,1.759l-6.489-0.133l-2.622,20.786h-2.195
					L693.442,367.527z"/>
				<path fill="#030303" d="M718.535,365.901h2.461l4.231,22.412h-2.195L721.918,382h-8.994l-2.942,6.313h-2.358L718.535,365.901z
					 M721.625,380.315l-1.89-10.752l-0.222-1.686l-0.806,1.743l-4.995,10.692L721.625,380.315L721.625,380.315z"/>
				<path fill="#030303" d="M731.484,365.901h2.195l-2.593,20.566l8.688-0.061l-0.234,1.904h-10.884L731.484,365.901z"/>
				<path fill="#030303" d="M745.81,365.901h2.197l-2.593,20.566l8.687-0.061l-0.232,1.904h-10.884L745.81,365.901z"/>
				<path fill="#030303" d="M767.241,365.901h1.201c1.377-0.015,2.825-0.233,4.319-0.233c5.068,0,6.521,2.329,6.563,4.806
					c0.059,3.192-1.816,5.316-4.688,6.123c2.461,0.277,4.526,2.007,4.57,4.541c0.088,5.316-4.204,7.383-9.858,7.383
					c-1.128,0-2.869-0.205-3.909-0.205h-1.025L767.241,365.901z M769.833,386.937c3.94,0,7.075-1.393,7.031-5.537
					c-0.044-2.622-2.051-3.911-5.056-3.911c-2.034,0-3.091,0.045-3.838,0.089l-1.143,9.082
					C767.446,386.834,769.248,386.937,769.833,386.937z M771.606,375.906c3.074,0,5.552-1.83,5.508-5.186
					c-0.029-2.228-1.333-3.517-4.863-3.517c-0.439,0-2.095,0.088-3.003,0.189l-1.069,8.511
					C769.218,375.95,770.551,375.906,771.606,375.906z"/>
				<path fill="#030303" d="M785.405,365.901h11.074l-0.09,1.759l-8.992-0.104l-1.069,8.48l6.942-0.089l-0.133,1.86l-7.017-0.161
					l-1.144,8.994l10.797-0.19l-0.161,1.86h-13.037L785.405,365.901z"/>
				<path fill="#030303" d="M624.939,400.901h1.288c1.61,0,2.914-0.233,4.496-0.233c4.233,0,6.638,1.815,6.694,5.697
					c0.104,5.758-3.662,9.243-8.994,9.243c-1.36,0-2.666-0.146-3.104-0.205l-1.013,7.91h-2.195L624.939,400.901z M628.499,413.865
					c4.38-0.028,6.636-2.621,6.694-7.295c0.027-2.782-1.555-4.248-4.807-4.248c-0.938,0-2.444,0.161-3.472,0.293l-1.377,11.001
					C626.14,413.733,627.576,413.88,628.499,413.865z"/>
				<path fill="#030303" d="M639.265,414.334c-0.146-7.777,4.353-13.683,10.271-13.683c4.702,0,7.046,4.176,7.134,9.243
					c0.132,7.632-4.116,13.667-10.181,13.667C641.843,423.563,639.368,419.578,639.265,414.334z M654.368,410.306
					c-0.088-5.156-1.758-7.896-5.188-7.896c-4.48,0-7.705,5.36-7.615,11.483c0.071,5.36,1.946,7.969,5.271,7.969
					C651.335,421.863,654.485,416.59,654.368,410.306z"/>
				<path fill="#030303" d="M658.85,420.442c0.559,0.586,2.798,1.377,4.923,1.377c2.694,0,5.243-1.156,5.243-3.983
					c0-2.036-1.272-3.34-3.56-4.818c-2.168-1.406-4.85-3.193-4.907-6.563c-0.073-3.678,2.856-5.802,6.709-5.802
					c2.9,0,4.365,0.747,5.068,1.245l-0.703,1.699c-0.835-0.835-2.637-1.245-4.219-1.245c-1.804,0-4.558,0.586-4.646,3.529
					c-0.073,2.666,1.626,3.81,3.999,5.376c2.08,1.362,4.497,2.988,4.558,6.035c0.071,4.132-3.237,6.256-7.589,6.256
					c-2.489,0-4.834-0.764-5.492-1.306L658.85,420.442z"/>
				<path fill="#030303" d="M674.143,420.442c0.559,0.586,2.8,1.377,4.924,1.377c2.693,0,5.242-1.156,5.242-3.983
					c0-2.036-1.272-3.34-3.56-4.818c-2.168-1.406-4.849-3.193-4.907-6.563c-0.073-3.678,2.856-5.802,6.709-5.802
					c2.9,0,4.365,0.747,5.068,1.245l-0.703,1.699c-0.835-0.835-2.637-1.245-4.219-1.245c-1.803,0-4.558,0.586-4.646,3.529
					c-0.072,2.666,1.626,3.81,3.999,5.376c2.08,1.362,4.497,2.988,4.558,6.035c0.071,4.132-3.237,6.256-7.589,6.256
					c-2.489,0-4.834-0.764-5.492-1.306L674.143,420.442z"/>
				<path fill="#030303" d="M693.347,400.901h2.212l-2.827,22.412h-2.212L693.347,400.901z"/>
				<path fill="#030303" d="M701.375,400.901h1.201c1.377-0.015,2.827-0.233,4.321-0.233c5.066,0,6.519,2.329,6.563,4.806
					c0.059,3.192-1.816,5.316-4.688,6.123c2.461,0.277,4.524,2.007,4.568,4.541c0.088,5.315-4.204,7.383-9.856,7.383
					c-1.128,0-2.871-0.205-3.911-0.205h-1.025L701.375,400.901z M703.967,421.937c3.94,0,7.075-1.393,7.031-5.537
					c-0.044-2.622-2.051-3.911-5.054-3.911c-2.036,0-3.093,0.045-3.838,0.089l-1.145,9.081
					C701.58,421.833,703.381,421.937,703.967,421.937z M705.74,410.906c3.076,0,5.552-1.83,5.508-5.186
					c-0.029-2.228-1.333-3.517-4.863-3.517c-0.438,0-2.095,0.088-3.003,0.189l-1.067,8.511
					C703.352,410.95,704.685,410.906,705.74,410.906z"/>
				<path fill="#030303" d="M719.539,400.901h2.197l-2.595,20.566l8.688-0.061l-0.234,1.904h-10.884L719.539,400.901z"/>
				<path fill="#030303" d="M733.865,400.901h11.073l-0.089,1.759l-8.993-0.104l-1.068,8.48l6.943-0.089l-0.134,1.86l-7.017-0.161
					l-1.145,8.994l10.798-0.19l-0.161,1.86h-13.037L733.865,400.901z"/>
				<path fill="#030303" d="M577.734,435.901h5.229l0.864,14.355l0.293,3.252l0.996-3.252l3.765-9.392l-0.525-4.966h5.054
					l0.879,14.355l0.337,3.252l0.776-3.252l4.893-14.355h5.332l-8.716,22.412h-6.05l-0.835-7.998l-0.266-2.446l-0.894,2.446
					l-2.93,7.998h-5.493L577.734,435.901z"/>
				<path fill="#030303" d="M607.368,435.901h5.186l-3.208,22.412h-5.186L607.368,435.901z"/>
				<path fill="#030303" d="M620.317,439.769l-5.261,0.161l0.646-4.028h15.63l-0.586,4.028l-5.156-0.161l-2.649,18.545h-5.273
					L620.317,439.769z"/>
				<path fill="#030303" d="M634.042,435.901h5.186l-1.392,9.729h7.061l1.394-9.729h5.244l-3.208,22.412h-5.244l1.304-9.111h-7.061
					l-1.306,9.111h-5.186L634.042,435.901z"/>
				<path fill="#030303" d="M663.955,435.667c5.303,0,7.954,4.015,7.954,8.788c0,7.634-4.104,14.094-10.928,14.094
					c-5.405,0-8.086-3.94-8.086-8.701C652.896,442.199,657.041,435.667,663.955,435.667z M666.577,444.616
					c0-3.882-1.113-5.054-3.179-5.054c-3.269,0-5.173,5.552-5.173,10.021c0,3.883,1.113,5.067,3.164,5.067
					C664.658,454.651,666.577,449.231,666.577,444.616z"/>
				<path fill="#030303" d="M674.223,449.568l1.948-13.667h5.171l-1.846,13.008c-0.146,1.069-0.161,1.979-0.161,2.813
					c0.015,2.197,0.791,2.854,2.9,2.854c2.388,0,3.528-1.229,4.175-5.552l1.86-13.125h5.154l-1.902,13.667
					c-0.908,6.489-3.854,8.979-10.078,8.979c-5.112,0-7.397-2.521-7.412-6.563C674.018,451.224,674.091,450.433,674.223,449.568z"/>
				<path fill="#030303" d="M700.693,439.769l-5.261,0.161l0.646-4.028h15.63l-0.586,4.028l-5.156-0.161l-2.649,18.545h-5.273
					L700.693,439.769z"/>
				<path fill="#030303" d="M724.687,439.769l-5.259,0.161l0.646-4.028h15.63l-0.586,4.028l-5.156-0.161l-2.65,18.545h-5.272
					L724.687,439.769z"/>
				<path fill="#030303" d="M746.352,435.667c5.305,0,7.954,4.015,7.954,8.788c0,7.634-4.102,14.094-10.928,14.094
					c-5.405,0-8.086-3.94-8.086-8.701C735.292,442.199,739.438,435.667,746.352,435.667z M748.974,444.616
					c0-3.882-1.111-5.054-3.179-5.054c-3.267,0-5.171,5.552-5.171,10.021c0,3.883,1.113,5.067,3.164,5.067
					C747.055,454.651,748.974,449.231,748.974,444.616z"/>
				<path fill="#030303" d="M758.994,435.901h2.959c1.743,0,2.313-0.233,4.231-0.233c5.847,0,8.027,2.096,8.027,5.758
					c0,3.354-1.304,6.431-4.79,7.5c0.82,0.688,1.567,2.139,2.065,4.014c1.245,3.838,1.465,4.556,2.036,5.376h-5.742
					c-0.366-0.527-0.559-1.787-1.274-4.481c-0.63-2.563-1.509-3.91-1.978-3.91h-2.302l-1.243,8.394H755.8L758.994,435.901z
					 M765.629,445.936c2.798,0,3.589-2.521,3.53-4.263c-0.073-1.892-1.289-2.402-3.472-2.402c-0.688,0-1.582,0.073-2.009,0.146
					l-0.906,6.475C763.564,445.936,765.014,445.936,765.629,445.936z"/>
				<path fill="#030303" d="M777.729,447.956c0-1.741,0.657-2.854,3.689-4.363c2.271-1.012,3.413-1.948,3.823-2.607
					c0.103-0.293,0.337-1.128,0.337-1.859c0-1.642-1.699-3.048-4.453-3.048c-1.055,0-1.992,0.073-3.032,0.339l0.82-3.369
					c0.498-0.439,1.992-0.776,3.147-0.776c5.698,0,8.22,2.726,8.22,6.313c0,7.104-8.657,6.68-8.657,10.21
					c0,0.701,0.498,1.404,0.601,1.771l-2.444,0.967l-0.249-0.015C778.667,450.915,777.729,449.305,777.729,447.956z
					 M782.271,453.362c1.729,0,2.357,1.011,2.357,2.185c0,1.919-1.229,3.191-3.12,3.191c-1.421,0-2.285-0.923-2.285-2.227
					C779.223,454.87,780.38,453.362,782.271,453.362z"/>
			</g>
		</g>
		<g>
			<g>
				<rect x="576.891" y="299.211" fill="#030303" width="211.893" height="47.789"/>
			</g>
			<g>
				<path fill="#FFFFFF" d="M626.418,305.937h8.042l-0.394,2.58l-4.692-0.037l-0.498,3.49l4.018-0.057l-0.339,2.729l-4.054-0.064
					l-0.816,5.715h-3.32L626.418,305.937z"/>
				<path fill="#FFFFFF" d="M636.551,305.937h1.896c1.117,0,1.48-0.149,2.712-0.149c3.744,0,5.143,1.342,5.143,3.688
					c0,2.148-0.835,4.12-3.067,4.805c0.523,0.441,1.004,1.37,1.321,2.571c0.8,2.459,0.938,2.919,1.306,3.443h-3.68
					c-0.233-0.338-0.355-1.146-0.814-2.871c-0.404-1.644-0.967-2.506-1.269-2.506h-1.473l-0.798,5.377h-3.322L636.551,305.937z
					 M640.803,312.364c1.792,0,2.299-1.613,2.261-2.729c-0.047-1.212-0.824-1.539-2.224-1.539c-0.439,0-1.013,0.047-1.286,0.094
					l-0.582,4.146C639.479,312.364,640.408,312.364,640.803,312.364z"/>
				<path fill="#FFFFFF" d="M649.183,305.937h8.577l-0.348,2.58l-5.273-0.02l-0.45,3.162l3.933-0.048l-0.338,2.592l-3.951-0.085
					l-0.516,3.642l5.938-0.095l-0.347,2.628h-9.281L649.183,305.937z"/>
				<path fill="#FFFFFF" d="M660.491,305.937h8.577l-0.35,2.58l-5.271-0.02l-0.451,3.162l3.932-0.048l-0.338,2.592l-3.951-0.085
					l-0.516,3.642l5.94-0.095l-0.349,2.628h-9.28L660.491,305.937z"/>
				<path fill="#FFFFFF" d="M671.798,305.937h1.464c0.797,0,2.77-0.149,3.631-0.149c3.972,0,5.453,2.337,5.453,5.762
					c0,4.646-2.553,8.896-7.938,8.896c-0.349,0-0.826-0.027-1.353-0.065c-0.646-0.036-1.37-0.084-1.961-0.084h-1.351
					L671.798,305.937z M674.876,318.014c2.769,0,4.054-2.976,4.054-6.514c0-2.607-0.854-3.267-2.722-3.267
					c-0.394,0-1.06,0.047-1.436,0.122l-1.354,9.459C673.797,317.938,674.304,318.014,674.876,318.014z"/>
				<path fill="#FFFFFF" d="M690.136,305.786c3.396,0,5.098,2.57,5.098,5.631c0,4.89-2.629,9.026-7.001,9.026
					c-3.465,0-5.182-2.523-5.182-5.573C683.051,309.972,685.707,305.786,690.136,305.786z M691.816,311.52
					c0-2.485-0.715-3.237-2.037-3.237c-2.094,0-3.313,3.558-3.313,6.42c0,2.485,0.714,3.246,2.027,3.246
					C690.586,317.948,691.816,314.476,691.816,311.52z"/>
				<path fill="#FFFFFF" d="M699.165,305.937h4.833l0.638,9.881l0.059,2.111l0.448-2.111l3.332-9.881h4.854l-0.228,14.356h-3.313
					l0.835-10.688l0.254-2.195l-0.695,2.195l-4.101,10.717l-3.65,0.142l-1.126-10.856l-0.02-2.195l-0.449,2.195l-2.328,10.688
					h-3.273L699.165,305.937z"/>
				<path fill="#FFFFFF" d="M726.453,305.786c3.396,0,5.096,2.57,5.096,5.631c0,4.89-2.627,9.026-7,9.026
					c-3.463,0-5.181-2.523-5.181-5.573C719.368,309.972,722.023,305.786,726.453,305.786z M728.132,311.52
					c0-2.485-0.713-3.237-2.036-3.237c-2.093,0-3.313,3.558-3.313,6.42c0,2.485,0.714,3.246,2.024,3.246
					C726.904,317.948,728.132,314.476,728.132,311.52z"/>
				<path fill="#FFFFFF" d="M734.572,305.937h8.041l-0.396,2.58l-4.69-0.037l-0.497,3.49l4.017-0.057l-0.338,2.729l-4.055-0.064
					l-0.816,5.715h-3.321L734.572,305.937z"/>
				<path fill="#FFFFFF" d="M586.452,325.171h1.464c0.732,0,1.839-0.149,3.087-0.149c3.229,0,5.039,1.37,5.048,4.119
					c0.009,3.199-2.177,5.817-6.156,5.817c-0.655,0-1.333-0.02-1.511-0.02l-0.657,4.589h-3.32L586.452,325.171z M589.953,332.472
					c1.802,0,2.712-1.117,2.825-3.041c0.073-1.343-0.498-2.103-2.374-2.103c-0.244,0-0.667,0.047-0.938,0.094l-0.723,4.937
					C588.967,332.425,589.502,332.472,589.953,332.472z"/>
				<path fill="#FFFFFF" d="M598.643,325.171h1.896c1.117,0,1.481-0.149,2.712-0.149c3.744,0,5.143,1.342,5.143,3.688
					c0,2.148-0.835,4.12-3.067,4.806c0.523,0.44,1.004,1.369,1.323,2.57c0.798,2.459,0.938,2.919,1.304,3.443h-3.678
					c-0.235-0.338-0.357-1.145-0.816-2.87c-0.404-1.644-0.967-2.507-1.267-2.507h-1.475l-0.798,5.377h-3.322L598.643,325.171z
					 M602.894,331.599c1.792,0,2.301-1.614,2.263-2.729c-0.047-1.212-0.826-1.539-2.226-1.539c-0.439,0-1.013,0.047-1.285,0.094
					l-0.581,4.146C601.571,331.599,602.5,331.599,602.894,331.599z"/>
				<path fill="#FFFFFF" d="M611.518,325.171h3.322l-2.055,14.356h-3.322L611.518,325.171z"/>
				<path fill="#FFFFFF" d="M616.141,325.171h3.322l1.107,9.196l0.159,2.459l0.723-2.459l3.341-9.196h3.519l-6.191,14.356h-3.866
					L616.141,325.171z"/>
				<path fill="#FFFFFF" d="M632.543,325.171h4.223l2.132,14.356l-3.332,0.011l-0.312-2.692h-4.896l-1.1,2.684l-3.659,0.011
					L632.543,325.171z M635.002,334.583l-0.713-6.334l-0.057-1.117l-0.366,1.117l-2.59,6.334H635.002z"/>
				<path fill="#FFFFFF" d="M640.164,333.673c0-4.684,3.106-8.651,7.62-8.651c1.445,0,2.327,0.328,2.806,0.524l0.498,0.133
					l-0.958,3.144c-0.384-0.338-1.286-0.994-2.693-0.994c-2.813,0-3.885,2.983-3.885,5.837c0,2.243,0.725,3.321,2.581,3.321
					c1.211,0,2.402-0.487,2.893-0.845l0.432,2.337c-0.396,0.3-2.168,1.201-4.204,1.201
					C641.337,339.679,640.164,336.656,640.164,333.673z"/>
				<path fill="#FFFFFF" d="M654.353,333.99l-2.992-8.819h3.489l1.323,4.928l0.235,1.257l0.544-1.257l2.665-4.928h3.688
					l-5.631,8.819l-0.797,5.537h-3.322L654.353,333.99z"/>
				<path fill="#FFFFFF" d="M668.788,325.171h1.464c0.732,0,1.839-0.149,3.087-0.149c3.229,0,5.039,1.37,5.048,4.119
					c0.009,3.199-2.177,5.817-6.155,5.817c-0.656,0-1.334-0.02-1.512-0.02l-0.656,4.589h-3.321L668.788,325.171z M672.288,332.472
					c1.802,0,2.712-1.117,2.825-3.041c0.075-1.343-0.498-2.103-2.374-2.103c-0.244,0-0.667,0.047-0.938,0.094l-0.723,4.937
					C671.303,332.425,671.838,332.472,672.288,332.472z"/>
				<path fill="#FFFFFF" d="M680.978,325.171h1.896c1.117,0,1.483-0.149,2.711-0.149c3.744,0,5.143,1.342,5.143,3.688
					c0,2.148-0.835,4.12-3.066,4.806c0.523,0.44,1.004,1.369,1.323,2.57c0.798,2.459,0.938,2.919,1.304,3.443h-3.678
					c-0.234-0.338-0.357-1.145-0.816-2.87c-0.404-1.644-0.967-2.507-1.268-2.507h-1.475l-0.798,5.377h-3.322L680.978,325.171z
					 M685.229,331.599c1.791,0,2.3-1.614,2.262-2.729c-0.047-1.212-0.825-1.539-2.226-1.539c-0.439,0-1.014,0.047-1.284,0.094
					l-0.582,4.146C683.906,331.599,684.835,331.599,685.229,331.599z"/>
				<path fill="#FFFFFF" d="M698.583,325.021c3.396,0,5.096,2.571,5.096,5.631c0,4.89-2.628,9.027-7.001,9.027
					c-3.463,0-5.181-2.524-5.181-5.574C691.498,329.206,694.154,325.021,698.583,325.021z M700.263,330.754
					c0-2.485-0.713-3.236-2.037-3.236c-2.092,0-3.313,3.558-3.313,6.419c0,2.485,0.714,3.247,2.027,3.247
					C699.034,337.183,700.263,333.71,700.263,330.754z"/>
				<path fill="#FFFFFF" d="M708.616,327.648l-3.368,0.104l0.412-2.58h10.014l-0.376,2.58l-3.304-0.104l-1.698,11.88h-3.378
					L708.616,327.648z"/>
				<path fill="#FFFFFF" d="M717.531,325.171h8.576l-0.349,2.58l-5.272-0.02l-0.45,3.162l3.933-0.047l-0.338,2.591l-3.951-0.085
					l-0.516,3.642l5.938-0.095l-0.348,2.628h-9.28L717.531,325.171z"/>
				<path fill="#FFFFFF" d="M726.886,333.673c0-4.684,3.105-8.651,7.619-8.651c1.445,0,2.328,0.328,2.807,0.524l0.497,0.133
					l-0.958,3.144c-0.384-0.338-1.283-0.994-2.69-0.994c-2.815,0-3.886,2.983-3.886,5.837c0,2.243,0.723,3.321,2.581,3.321
					c1.211,0,2.4-0.487,2.891-0.845l0.432,2.337c-0.394,0.3-2.168,1.201-4.204,1.201
					C728.059,339.679,726.886,336.656,726.886,333.673z"/>
				<path fill="#FFFFFF" d="M741.947,327.648l-3.369,0.104l0.413-2.58h10.013l-0.375,2.58l-3.303-0.104l-1.699,11.88h-3.378
					L741.947,327.648z"/>
				<path fill="#FFFFFF" d="M751.104,325.171h3.321l-2.055,14.356h-3.322L751.104,325.171z"/>
				<path fill="#FFFFFF" d="M762.465,325.021c3.397,0,5.095,2.571,5.095,5.631c0,4.89-2.627,9.027-7,9.027
					c-3.463,0-5.18-2.524-5.18-5.574C755.38,329.206,758.036,325.021,762.465,325.021z M764.146,330.754
					c0-2.485-0.715-3.236-2.035-3.236c-2.095,0-3.313,3.558-3.313,6.419c0,2.485,0.713,3.247,2.026,3.247
					C762.916,337.183,764.146,333.71,764.146,330.754z"/>
				<path fill="#FFFFFF" d="M770.583,325.171h2.881l3.341,7.433l0.741,2.439l0.122-2.439l0.91-7.433h3.21l-2.056,14.356h-2.787
					l-3.268-7.816l-0.929-2.58l0.027,2.58l-1.078,7.816h-3.172L770.583,325.171z"/>
			</g>
		</g>
	</g>
	<g>
		<path fill="#030303" d="M257.493,100.057h1.301c1.23,0,2.426-0.142,3.762-0.142c3.226,0,5.159,1.238,5.159,4.721
			c0,3.173-1.925,4.938-5.502,4.938c-0.703,0-1.081-0.009-1.362-0.018v3.876h-3.357L257.493,100.057L257.493,100.057z
			 M262.212,107.177c1.257,0,2.224-0.688,2.224-2.559c0-1.45-0.721-2.408-2.294-2.364c-0.413,0.01-0.914,0.035-1.292,0.098v4.755
			C261.219,107.141,261.667,107.177,262.212,107.177z"/>
		<path fill="#030303" d="M269.551,103.414h2.856l0.141,1.607c0.413-1.021,1.529-1.768,2.883-1.768c0.29,0,0.598,0.035,0.729,0.123
			v3.208c-0.167-0.098-0.475-0.236-1.072-0.236c-1.204,0-1.898,0.536-2.276,0.948v6.136h-3.261V103.414z"/>
		<path fill="#030303" d="M282.638,103.273c3.709,0,5.036,2.479,4.992,5.354c-0.044,3.218-2.171,4.947-5.177,4.947
			c-3.709,0-5.036-2.479-5.001-5.353C277.505,105.005,279.632,103.273,282.638,103.273z M284.247,108.477
			c0-1.617-0.404-2.943-1.67-2.943c-1.31,0-1.74,0.967-1.74,2.785c0,1.652,0.422,3.016,1.688,3.016
			C283.807,111.333,284.247,110.393,284.247,108.477z"/>
		<path fill="#030303" d="M290.047,105.55h-1.16v-1.723c0.879-0.256,1.459-0.448,1.731-1.012c0.202-0.422,0.475-1.144,0.703-1.688
			h1.978v2.285h2.602v2.136h-2.602v3.568c0,1.871,0.264,2.021,1.16,2.021c0.448,0,1.16-0.186,1.468-0.396l0.387,1.812
			c-0.483,0.457-1.881,1.02-3.34,1.02c-2.153,0-2.927-1.08-2.927-3.261V105.55L290.047,105.55z"/>
		<path fill="#030303" d="M302.299,103.273c2.136,0,4.186,0.854,4.21,4.068c0,0.729-0.044,1.415-0.104,1.847h-5.88
			c0.147,1.494,1.035,2.083,2.505,2.083c0.967,0,2.206-0.246,2.688-0.51l0.501,1.73c-0.659,0.535-2.162,1.08-3.955,1.08
			c-3.232,0-4.992-1.941-4.992-5.193C297.272,105.462,299.109,103.273,302.299,103.273z M303.495,107.563
			c0.079-1.459-0.272-2.188-1.266-2.188c-0.925,0-1.514,0.526-1.681,2.188H303.495z"/>
		<path fill="#030303" d="M313.092,103.273c1.354,0,2.452,0.265,2.771,0.501l-0.369,2.442c-0.387-0.22-0.993-0.412-1.96-0.412
			c-1.037,0-2.197,0.598-2.232,2.486c-0.035,2.064,0.993,2.786,2.259,2.786c0.854,0,1.617-0.158,2.05-0.36l0.396,1.838
			c-0.554,0.57-1.854,1.02-3.146,1.02c-3.313,0-4.854-2.161-4.854-5.054C308.003,105.594,309.585,103.273,313.092,103.273z"/>
		<path fill="#030303" d="M318.128,105.55h-1.16v-1.723c0.879-0.256,1.459-0.448,1.731-1.012c0.202-0.422,0.475-1.144,0.703-1.688
			h1.978v2.285h2.604v2.136h-2.604v3.568c0,1.871,0.264,2.021,1.16,2.021c0.448,0,1.16-0.186,1.468-0.396l0.387,1.812
			c-0.481,0.457-1.881,1.02-3.34,1.02c-2.151,0-2.927-1.08-2.927-3.261V105.55L318.128,105.55z"/>
		<path fill="#030303" d="M330.38,103.273c2.136,0,4.186,0.854,4.21,4.068c0,0.729-0.044,1.415-0.104,1.847h-5.882
			c0.149,1.494,1.037,2.083,2.507,2.083c0.967,0,2.206-0.246,2.688-0.51l0.501,1.73c-0.659,0.535-2.162,1.08-3.955,1.08
			c-3.232,0-4.992-1.941-4.992-5.193C325.353,105.462,327.19,103.273,330.38,103.273z M331.576,107.563
			c0.079-1.459-0.272-2.188-1.268-2.188c-0.923,0-1.512,0.526-1.679,2.188H331.576z"/>
		<path fill="#030303" d="M336.084,108.767c0-3.394,2.039-5.493,5.106-5.493c0.701,0,1.266,0.114,1.65,0.246l-0.024-1.072v-3.62
			h3.252v14.748h-2.496c-0.325,0-0.483-0.177-0.483-0.476v-0.703c-0.448,0.448-1.354,1.179-3.032,1.179
			C337.921,113.573,336.084,112.019,336.084,108.767z M342.817,110.683v-4.878c-0.272-0.202-0.791-0.281-1.371-0.281
			c-1.145,0-1.942,1.021-1.951,3.085c-0.009,1.872,0.642,2.531,1.679,2.531C341.797,111.14,342.465,110.92,342.817,110.683z"/>
		<path fill="#030303" d="M359.27,103.273c1.354,0,2.452,0.265,2.771,0.501l-0.369,2.442c-0.387-0.22-0.993-0.412-1.96-0.412
			c-1.037,0-2.197,0.598-2.231,2.486c-0.034,2.064,0.992,2.786,2.26,2.786c0.853,0,1.617-0.158,2.048-0.36l0.396,1.838
			c-0.554,0.57-1.854,1.02-3.146,1.02c-3.313,0-4.854-2.161-4.854-5.054C354.181,105.594,355.763,103.273,359.27,103.273z"/>
		<path fill="#030303" d="M368.586,103.273c3.709,0,5.036,2.479,4.992,5.354c-0.044,3.218-2.171,4.947-5.177,4.947
			c-3.709,0-5.036-2.479-5.001-5.353C363.454,105.005,365.581,103.273,368.586,103.273z M370.195,108.477
			c0-1.617-0.404-2.943-1.67-2.943c-1.312,0-1.74,0.967-1.74,2.785c0,1.652,0.422,3.016,1.688,3.016
			C369.755,111.333,370.195,110.393,370.195,108.477z"/>
		<path fill="#030303" d="M375.767,103.414h2.973l0.079,1.071c0.677-0.563,1.96-1.204,3.27-1.229
			c1.178-0.025,2.013,0.309,2.505,1.16c0.563-0.447,1.819-1.169,3.351-1.16c2.013-0.009,3.226,0.924,3.226,3.857v6.319h-3.261
			v-5.739c0-1.459-0.299-1.897-1.268-1.881c-0.613,0-1.202,0.343-1.547,0.643c0.011,0.201,0.02,0.422,0.02,0.643v6.337h-3.234
			v-5.729c0-1.45-0.299-1.907-1.248-1.891c-0.466,0-1.169,0.229-1.606,0.649v6.971h-3.253v-10.021H375.767z"/>
		<path fill="#030303" d="M393.917,103.414h2.971l0.079,1.071c0.677-0.563,1.96-1.204,3.271-1.229
			c1.178-0.025,2.013,0.309,2.505,1.16c0.563-0.447,1.818-1.169,3.349-1.16c2.015-0.009,3.228,0.924,3.228,3.857v6.319h-3.263
			v-5.739c0-1.459-0.299-1.897-1.266-1.881c-0.615,0-1.204,0.343-1.547,0.643c0.009,0.201,0.018,0.422,0.018,0.643v6.337h-3.232
			v-5.729c0-1.45-0.3-1.907-1.248-1.891c-0.466,0-1.169,0.229-1.608,0.649v6.971h-3.252v-10.021H393.917z"/>
		<path fill="#030303" d="M411.908,103.414h3.261v5.968c0,1.513,0.431,1.854,1.327,1.854c0.604,0,1.195-0.264,1.424-0.466v-7.355
			h3.261v10.159h-2.354c-0.413,0-0.606-0.078-0.606-0.51v-0.422c-0.712,0.545-1.984,0.932-2.918,0.932
			c-2.936,0-3.393-1.802-3.393-4.271L411.908,103.414L411.908,103.414z"/>
		<path fill="#030303" d="M424.037,103.414h2.971l0.079,1.071c0.747-0.624,2.057-1.213,3.271-1.229
			c2.048-0.044,3.059,0.983,3.059,3.867v6.312h-3.252v-5.729c0-1.459-0.325-1.916-1.274-1.891c-0.475,0-1.159,0.229-1.6,0.649v6.971
			h-3.252L424.037,103.414L424.037,103.414z"/>
		<path fill="#030303" d="M435.981,100.505c0-0.983,0.903-1.812,1.96-1.812c1.063,0,1.793,0.687,1.793,1.68
			c0,0.983-0.88,1.818-1.942,1.818C436.746,102.192,435.981,101.489,435.981,100.505z M436.13,103.414h3.271v10.021h-3.271V103.414z
			"/>
		<path fill="#030303" d="M446.633,103.273c1.354,0,2.452,0.265,2.771,0.501l-0.369,2.442c-0.389-0.22-0.993-0.412-1.96-0.412
			c-1.037,0-2.197,0.598-2.232,2.486c-0.035,2.064,0.993,2.786,2.259,2.786c0.854,0,1.617-0.158,2.05-0.36l0.396,1.838
			c-0.554,0.57-1.854,1.02-3.146,1.02c-3.313,0-4.854-2.161-4.854-5.054C441.544,105.594,443.126,103.273,446.633,103.273z"/>
		<path fill="#030303" d="M452.557,107.835c1.224-0.526,2.839-0.605,4.098-0.605v-0.605c0-0.87-0.325-1.081-1.828-1.081
			c-0.729,0-2.127,0.299-3.023,0.712l-0.659-1.916c0.729-0.438,2.619-1.1,4.403-1.1c3.164,0,4.342,1.021,4.342,3.788v6.549h-2.039
			c-0.668,0-1.026-0.045-1.026-0.914v-0.07c-0.563,0.492-1.45,0.984-2.795,0.984c-1.979,0-3.271-1.337-3.271-3.199
			C450.755,109.197,451.45,108.31,452.557,107.835z M455.387,111.57c0.521,0,1.081-0.229,1.268-0.422v-2.354
			c-0.634,0.01-1.406,0.142-1.759,0.309c-0.379,0.148-0.781,0.396-0.781,1.106C454.113,111.156,454.728,111.57,455.387,111.57z"/>
		<path fill="#030303" d="M462.771,105.55h-1.159v-1.723c0.879-0.256,1.459-0.448,1.729-1.012c0.202-0.422,0.477-1.144,0.703-1.688
			h1.979v2.285h2.602v2.136h-2.602v3.568c0,1.871,0.264,2.021,1.158,2.021c0.448,0,1.16-0.186,1.47-0.396l0.387,1.812
			c-0.483,0.457-1.881,1.02-3.34,1.02c-2.153,0-2.928-1.08-2.928-3.261V105.55L462.771,105.55z"/>
		<path fill="#030303" d="M470.496,100.505c0-0.983,0.905-1.812,1.96-1.812c1.063,0,1.793,0.687,1.793,1.68
			c0,0.983-0.879,1.818-1.942,1.818C471.26,102.192,470.496,101.489,470.496,100.505z M470.646,103.414h3.271v10.021h-3.271V103.414
			z"/>
		<path fill="#030303" d="M481.253,103.273c3.709,0,5.036,2.479,4.992,5.354c-0.044,3.218-2.171,4.947-5.177,4.947
			c-3.709,0-5.036-2.479-5.001-5.353C476.121,105.005,478.248,103.273,481.253,103.273z M482.862,108.477
			c0-1.617-0.404-2.943-1.67-2.943c-1.312,0-1.74,0.967-1.74,2.785c0,1.652,0.422,3.016,1.688,3.016
			C482.422,111.333,482.862,110.393,482.862,108.477z"/>
		<path fill="#030303" d="M488.434,103.414h2.973l0.079,1.071c0.747-0.624,2.057-1.213,3.27-1.229
			c2.048-0.044,3.061,0.983,3.061,3.867v6.312h-3.254v-5.729c0-1.459-0.323-1.916-1.272-1.891c-0.476,0-1.16,0.229-1.601,0.649
			v6.971h-3.253L488.434,103.414L488.434,103.414z"/>
		<path fill="#030303" d="M500.387,110.516c0.3,0.246,1.636,0.888,2.962,0.888c1.028,0.01,1.45-0.22,1.45-0.729
			c0-0.545-0.809-0.869-2.171-1.317c-1.846-0.605-2.593-1.626-2.584-3.164c0-1.941,1.872-2.918,4.166-2.918
			c1.635,0,2.77,0.36,3.227,0.615l-0.291,2.284c-0.367-0.315-1.448-0.765-2.416-0.765c-1.125,0-1.528,0.229-1.537,0.687
			c0,0.526,0.481,0.791,2.057,1.282c1.854,0.599,2.77,1.459,2.77,3.016c0,2.083-1.671,3.189-4.229,3.189
			c-1.661,0-3.155-0.466-3.718-0.816L500.387,110.516z"/>
		<path fill="#030303" d="M261.914,128.273c3.709,0,5.036,2.479,4.992,5.354c-0.044,3.218-2.171,4.947-5.177,4.947
			c-3.709,0-5.036-2.479-5.001-5.353C256.781,130.005,258.908,128.273,261.914,128.273z M263.522,133.477
			c0-1.617-0.404-2.943-1.67-2.943c-1.31,0-1.74,0.967-1.74,2.785c0,1.652,0.422,3.016,1.688,3.016
			C263.083,136.333,263.522,135.393,263.522,133.477z"/>
		<path fill="#030303" d="M269.613,130.55h-1.257v-1.897l1.257-0.236v-1.027c0-2.884,2.048-3.753,3.885-3.753
			c1.02,0,1.705,0.148,1.934,0.201v2.231c-0.22-0.113-0.659-0.22-1.283-0.22c-0.765,0-1.266,0.491-1.266,1.661v0.904h2.171v2.137
			h-2.171v7.884h-3.27L269.613,130.55L269.613,130.55z"/>
		<path fill="#030303" d="M282.796,128.414h2.971l0.079,1.071c0.747-0.624,2.057-1.213,3.27-1.229
			c2.048-0.044,3.059,0.983,3.059,3.867v6.312h-3.252v-5.729c0-1.459-0.325-1.916-1.274-1.891c-0.475,0-1.16,0.229-1.6,0.649v6.971
			h-3.252L282.796,128.414L282.796,128.414z"/>
		<path fill="#030303" d="M299.434,128.273c3.709,0,5.036,2.479,4.992,5.354c-0.044,3.218-2.171,4.947-5.177,4.947
			c-3.709,0-5.036-2.479-5.001-5.353C294.301,130.005,296.428,128.273,299.434,128.273z M301.042,133.477
			c0-1.617-0.404-2.943-1.67-2.943c-1.312,0-1.74,0.967-1.74,2.785c0,1.652,0.422,3.016,1.688,3.016
			C300.603,136.333,301.042,135.393,301.042,133.477z"/>
		<path fill="#030303" d="M306.615,128.414h2.971l0.079,1.071c0.747-0.624,2.057-1.213,3.27-1.229
			c2.05-0.044,3.061,0.983,3.061,3.867v6.312h-3.252v-5.729c0-1.459-0.325-1.916-1.274-1.891c-0.475,0-1.16,0.229-1.6,0.649v6.971
			h-3.252L306.615,128.414L306.615,128.414z"/>
		<path fill="#030303" d="M327.928,139.655v3.227h-3.261v-14.467h3.076v0.977c0.466-0.457,1.345-1.116,2.942-1.116
			c2.146,0,3.999,1.529,3.999,4.781c0,3.394-2.063,5.521-5.133,5.521c-0.712,0-1.272-0.114-1.661-0.246L327.928,139.655z
			 M329.308,136.377c1.145,0,1.942-1.1,1.951-3.129c0.009-1.916-0.642-2.559-1.679-2.559c-0.633,0-1.31,0.255-1.652,0.526v4.8
			C328.192,136.271,328.702,136.377,329.308,136.377z"/>
		<path fill="#030303" d="M336.779,128.414h2.854l0.143,1.607c0.412-1.021,1.527-1.768,2.883-1.768c0.29,0,0.598,0.035,0.729,0.123
			v3.208c-0.167-0.098-0.475-0.236-1.07-0.236c-1.204,0-1.898,0.536-2.276,0.948v6.136h-3.261L336.779,128.414L336.779,128.414z"/>
		<path fill="#030303" d="M349.866,128.273c3.709,0,5.036,2.479,4.992,5.354c-0.044,3.218-2.173,4.947-5.179,4.947
			c-3.709,0-5.036-2.479-5.001-5.353C344.733,130.005,346.86,128.273,349.866,128.273z M351.474,133.477
			c0-1.617-0.402-2.943-1.67-2.943c-1.31,0-1.738,0.967-1.738,2.785c0,1.652,0.422,3.016,1.688,3.016
			C351.035,136.333,351.474,135.393,351.474,133.477z"/>
		<path fill="#030303" d="M357.565,130.55h-1.259v-1.897l1.259-0.236v-1.027c0-2.884,2.048-3.753,3.885-3.753
			c1.02,0,1.705,0.148,1.934,0.201v2.231c-0.22-0.113-0.659-0.22-1.283-0.22c-0.765,0-1.266,0.491-1.266,1.661v0.904h2.171v2.137
			h-2.171v7.884h-3.27V130.55L357.565,130.55z"/>
		<path fill="#030303" d="M364.605,125.505c0-0.983,0.903-1.812,1.96-1.812c1.063,0,1.793,0.687,1.793,1.68
			c0,0.983-0.879,1.818-1.942,1.818C365.37,127.192,364.605,126.489,364.605,125.505z M364.754,128.414h3.271v10.021h-3.271V128.414
			z"/>
		<path fill="#030303" d="M371.083,130.55h-1.16v-1.723c0.879-0.256,1.459-0.448,1.731-1.012c0.202-0.422,0.475-1.144,0.703-1.688
			h1.978v2.285h2.602v2.136h-2.602v3.568c0,1.871,0.264,2.021,1.16,2.021c0.448,0,1.16-0.186,1.468-0.396l0.387,1.812
			c-0.481,0.457-1.881,1.02-3.34,1.02c-2.151,0-2.927-1.08-2.927-3.261V130.55L371.083,130.55z"/>
		<path fill="#030303" d="M261.914,153.273c3.709,0,5.036,2.479,4.992,5.354c-0.044,3.218-2.171,4.947-5.177,4.947
			c-3.709,0-5.036-2.479-5.001-5.353C256.781,155.005,258.908,153.273,261.914,153.273z M263.522,158.477
			c0-1.617-0.404-2.943-1.67-2.943c-1.31,0-1.74,0.967-1.74,2.785c0,1.652,0.422,3.016,1.688,3.016
			C263.083,161.333,263.522,160.393,263.522,158.477z"/>
		<path fill="#030303" d="M269.006,153.414h2.856l0.141,1.607c0.413-1.021,1.529-1.768,2.883-1.768c0.29,0,0.598,0.035,0.729,0.123
			v3.208c-0.167-0.098-0.475-0.236-1.072-0.236c-1.204,0-1.898,0.536-2.276,0.948v6.136h-3.261V153.414z"/>
		<path fill="#030303" d="M278.244,162.818c-0.545-0.299-0.817-0.86-0.809-1.503c0.009-0.659,0.387-1.503,1.635-2.039
			c-1.274-0.51-2.004-1.459-2.004-2.741c0-2.181,1.67-3.243,4.623-3.253c1.45,0,2.593,0.246,3.393,0.738
			c0.334-0.281,0.94-0.605,1.705-0.605h1.125v2.24h-1.617c0.062,0.256,0.097,0.536,0.097,0.826c0,2.004-1.433,3.233-4.702,3.233
			c-0.352,0-0.686-0.019-1.002-0.053c-0.229,0.211-0.316,0.482-0.316,0.712c0,0.482,0.325,0.649,1.274,0.649h1.986
			c3.129,0,3.964,1.44,3.964,3.041c0,2.654-2.848,3.92-5.695,3.901c-3.56-0.025-5.159-1.194-5.159-3.031
			C276.741,164.058,277.25,163.267,278.244,162.818z M282.067,166.211c1.318,0,2.294-0.413,2.294-1.484
			c0-0.772-0.264-1.39-1.907-1.39h-2.136c-0.167,0.236-0.308,0.571-0.308,1.012C280.01,165.244,280.379,166.211,282.067,166.211z
			 M283.253,156.517c0-1.046-0.501-1.557-1.503-1.557c-0.94,0-1.564,0.353-1.564,1.547c0,0.939,0.501,1.504,1.529,1.504
			C282.629,158.011,283.253,157.703,283.253,156.517z"/>
		<path fill="#030303" d="M290.663,157.835c1.222-0.526,2.839-0.605,4.096-0.605v-0.605c0-0.87-0.325-1.081-1.828-1.081
			c-0.729,0-2.127,0.299-3.023,0.712l-0.659-1.916c0.729-0.438,2.619-1.1,4.403-1.1c3.164,0,4.342,1.021,4.342,3.788v6.549h-2.039
			c-0.668,0-1.028-0.045-1.028-0.914v-0.07c-0.563,0.492-1.45,0.984-2.795,0.984c-1.978,0-3.27-1.337-3.27-3.199
			C288.861,159.197,289.555,158.31,290.663,157.835z M293.493,161.57c0.519,0,1.081-0.229,1.266-0.422v-2.354
			c-0.633,0.01-1.406,0.142-1.758,0.309c-0.378,0.148-0.782,0.396-0.782,1.106C292.218,161.156,292.833,161.57,293.493,161.57z"/>
		<path fill="#030303" d="M300.647,153.414h2.971l0.079,1.071c0.747-0.624,2.057-1.213,3.27-1.229
			c2.048-0.044,3.061,0.983,3.061,3.867v6.312h-3.252v-5.729c0-1.459-0.325-1.916-1.274-1.891c-0.475,0-1.16,0.229-1.6,0.649v6.971
			h-3.252L300.647,153.414L300.647,153.414z"/>
		<path fill="#030303" d="M312.591,150.505c0-0.983,0.905-1.812,1.96-1.812c1.063,0,1.793,0.687,1.793,1.68
			c0,0.983-0.879,1.818-1.94,1.818C313.356,152.192,312.591,151.489,312.591,150.505z M312.741,153.414h3.27v10.021h-3.27V153.414z"
			/>
		<path fill="#030303" d="M317.865,162.704l4.023-6.274l0.527-0.801h-3.955l0.02-2.215h7.937l0.308,0.835l-3.929,6.091l-0.58,0.81
			h4.324v2.285h-8.306L317.865,162.704z"/>
		<path fill="#030303" d="M329.712,157.835c1.222-0.526,2.839-0.605,4.096-0.605v-0.605c0-0.87-0.323-1.081-1.826-1.081
			c-0.729,0-2.129,0.299-3.023,0.712l-0.659-1.916c0.729-0.438,2.619-1.1,4.403-1.1c3.164,0,4.342,1.021,4.342,3.788v6.549h-2.039
			c-0.668,0-1.028-0.045-1.028-0.914v-0.07c-0.563,0.492-1.448,0.984-2.795,0.984c-1.978,0-3.27-1.337-3.27-3.199
			C327.911,159.197,328.605,158.31,329.712,157.835z M332.542,161.57c0.519,0,1.081-0.229,1.266-0.422v-2.354
			c-0.633,0.01-1.404,0.142-1.758,0.309c-0.378,0.148-0.782,0.396-0.782,1.106C331.268,161.156,331.883,161.57,332.542,161.57z"/>
		<path fill="#030303" d="M339.925,155.55h-1.16v-1.723c0.879-0.256,1.459-0.448,1.731-1.012c0.202-0.422,0.475-1.144,0.703-1.688
			h1.978v2.285h2.604v2.136h-2.604v3.568c0,1.871,0.266,2.021,1.16,2.021c0.448,0,1.16-0.186,1.468-0.396l0.389,1.812
			c-0.483,0.457-1.883,1.02-3.342,1.02c-2.151,0-2.927-1.08-2.927-3.261V155.55L339.925,155.55z"/>
		<path fill="#030303" d="M347.651,150.505c0-0.983,0.903-1.812,1.96-1.812c1.063,0,1.793,0.687,1.793,1.68
			c0,0.983-0.879,1.818-1.942,1.818C348.416,152.192,347.651,151.489,347.651,150.505z M347.8,153.414h3.271v10.021H347.8V153.414z"
			/>
		<path fill="#030303" d="M358.409,153.273c3.709,0,5.036,2.479,4.992,5.354c-0.044,3.218-2.171,4.947-5.179,4.947
			c-3.709,0-5.034-2.479-5.001-5.353C353.276,155.005,355.403,153.273,358.409,153.273z M360.017,158.477
			c0-1.617-0.402-2.943-1.67-2.943c-1.31,0-1.738,0.967-1.738,2.785c0,1.652,0.422,3.016,1.688,3.016
			C359.578,161.333,360.017,160.393,360.017,158.477z"/>
		<path fill="#030303" d="M365.589,153.414h2.971l0.079,1.071c0.747-0.624,2.059-1.213,3.271-1.229
			c2.048-0.044,3.059,0.983,3.059,3.867v6.312h-3.252v-5.729c0-1.459-0.325-1.916-1.272-1.891c-0.477,0-1.16,0.229-1.602,0.649
			v6.971h-3.252L365.589,153.414L365.589,153.414z"/>
		<path fill="#030303" d="M377.542,160.516c0.299,0.246,1.635,0.888,2.962,0.888c1.028,0.01,1.45-0.22,1.45-0.729
			c0-0.545-0.809-0.869-2.171-1.317c-1.847-0.605-2.593-1.626-2.584-3.164c0-1.941,1.872-2.918,4.166-2.918
			c1.635,0,2.769,0.36,3.226,0.615l-0.29,2.285c-0.369-0.316-1.45-0.766-2.417-0.766c-1.125,0-1.527,0.229-1.538,0.687
			c0,0.526,0.483,0.791,2.059,1.282c1.854,0.599,2.769,1.459,2.769,3.016c0,2.083-1.67,3.189-4.228,3.189
			c-1.661,0-3.155-0.466-3.72-0.816L377.542,160.516z"/>
		<path fill="#030303" d="M388.836,159.777c1.107,0,1.793,0.791,1.793,1.847c0.009,1.063-0.835,2.004-1.942,2.004
			c-1.079,0-1.811-0.8-1.817-1.854C386.868,160.719,387.729,159.777,388.836,159.777z"/>
	</g>
	<g>
		<path fill="#030303" d="M961.531,413.703c0.648,0.368,2.127,0.86,3.532,0.854c1.267,0,1.812-0.344,1.812-1.135
			c0-0.854-0.721-1.188-2.716-2.136c-1.705-0.81-3.139-1.995-3.139-4.147c0-2.436,1.941-3.665,4.771-3.665
			c2.004,0,3.287,0.482,3.771,0.765l-0.52,2.515c-0.536-0.422-1.793-0.854-2.962-0.854c-1.266,0-1.846,0.448-1.846,1.125
			c0,0.81,0.692,1.248,2.312,1.986c2.305,1.036,3.674,2.057,3.674,4.156c0,2.398-1.729,3.964-4.878,3.964
			c-1.916,0-3.709-0.501-4.228-0.825L961.531,413.703z"/>
		<path fill="#030303" d="M972.174,402.383h3.261v3.763l-0.156,1.872c0.668-0.563,1.854-1.188,3.138-1.204
			c2.18-0.044,3.173,1.213,3.173,3.895v6.284h-3.261v-5.729c0-1.529-0.413-1.907-1.292-1.891c-0.404,0.009-1.116,0.167-1.602,0.649
			v6.971h-3.261V402.383z"/>
		<path fill="#030303" d="M985.455,411.392c1.222-0.527,2.839-0.605,4.096-0.605v-0.605c0-0.87-0.325-1.081-1.828-1.081
			c-0.729,0-2.127,0.299-3.021,0.712l-0.659-1.916c0.729-0.438,2.619-1.1,4.403-1.1c3.164,0,4.342,1.021,4.342,3.788v6.549h-2.039
			c-0.668,0-1.028-0.045-1.028-0.914v-0.07c-0.563,0.492-1.449,0.984-2.795,0.984c-1.978,0-3.27-1.337-3.27-3.199
			C983.653,412.754,984.347,411.865,985.455,411.392z M988.285,415.127c0.519,0,1.081-0.229,1.266-0.422v-2.354
			c-0.633,0.009-1.405,0.142-1.758,0.309c-0.378,0.148-0.782,0.396-0.782,1.106C987.01,414.714,987.625,415.127,988.285,415.127z"/>
		<path fill="#030303" d="M995.351,406.971h2.856l0.141,1.607c0.413-1.021,1.529-1.768,2.884-1.768c0.289,0,0.599,0.035,0.729,0.123
			v3.208c-0.167-0.098-0.475-0.237-1.072-0.237c-1.202,0-1.896,0.536-2.274,0.949v6.135h-3.263L995.351,406.971L995.351,406.971z"/>
		<path fill="#030303" d="M1003.745,404.062c0-0.983,0.905-1.812,1.96-1.812c1.063,0,1.793,0.687,1.793,1.68
			c0,0.983-0.879,1.818-1.942,1.818C1004.509,405.749,1003.745,405.046,1003.745,404.062z M1003.894,406.971h3.271v10.02h-3.271
			V406.971z"/>
		<path fill="#030303" d="M1009.994,406.971h2.971l0.079,1.071c0.747-0.624,2.057-1.213,3.27-1.229
			c2.05-0.044,3.061,0.983,3.061,3.867v6.312h-3.252v-5.729c0-1.459-0.325-1.916-1.274-1.891c-0.475,0-1.159,0.229-1.6,0.649v6.971
			h-3.252L1009.994,406.971L1009.994,406.971z"/>
		<path fill="#030303" d="M1022.782,416.375c-0.545-0.299-0.817-0.86-0.811-1.503c0.01-0.659,0.389-1.503,1.637-2.039
			c-1.274-0.511-2.004-1.459-2.004-2.742c0-2.18,1.67-3.242,4.621-3.252c1.45,0,2.595,0.246,3.395,0.738
			c0.334-0.281,0.938-0.605,1.705-0.605h1.125v2.24h-1.617c0.063,0.256,0.097,0.536,0.097,0.826c0,2.004-1.433,3.233-4.702,3.233
			c-0.352,0-0.686-0.019-1.002-0.053c-0.229,0.211-0.314,0.481-0.314,0.712c0,0.482,0.325,0.649,1.273,0.649h1.985
			c3.129,0,3.964,1.44,3.964,3.041c0,2.653-2.848,3.92-5.694,3.901c-3.561-0.026-5.158-1.194-5.158-3.032
			C1021.279,417.614,1021.789,416.823,1022.782,416.375z M1026.604,419.768c1.317,0,2.295-0.413,2.295-1.484
			c0-0.772-0.266-1.39-1.907-1.39h-2.136c-0.168,0.236-0.31,0.57-0.31,1.011C1024.548,418.802,1024.917,419.768,1026.604,419.768z
			 M1027.792,410.073c0-1.046-0.501-1.556-1.503-1.556c-0.94,0-1.564,0.353-1.564,1.547c0,0.939,0.501,1.503,1.529,1.503
			C1027.167,411.567,1027.792,411.26,1027.792,410.073z"/>
		<path fill="#030303" d="M1044.552,406.83c3.709,0,5.036,2.479,4.992,5.354c-0.044,3.217-2.171,4.947-5.177,4.947
			c-3.709,0-5.036-2.479-5.001-5.354C1039.419,408.562,1041.546,406.83,1044.552,406.83z M1046.161,412.032
			c0-1.616-0.404-2.943-1.67-2.943c-1.312,0-1.74,0.968-1.74,2.786c0,1.651,0.422,3.016,1.688,3.016
			C1045.721,414.89,1046.161,413.948,1046.161,412.032z"/>
		<path fill="#030303" d="M1052.251,409.106h-1.257v-1.897l1.257-0.236v-1.028c0-2.883,2.048-3.753,3.885-3.753
			c1.021,0,1.705,0.148,1.936,0.202v2.231c-0.221-0.114-0.659-0.221-1.283-0.221c-0.765,0-1.267,0.492-1.267,1.661v0.905h2.172
			v2.136h-2.172v7.884h-3.271V409.106L1052.251,409.106z"/>
		<path fill="#030303" d="M1069.838,406.83c1.354,0,2.452,0.265,2.771,0.501l-0.369,2.442c-0.389-0.22-0.993-0.413-1.96-0.413
			c-1.037,0-2.197,0.599-2.232,2.487c-0.035,2.064,0.993,2.786,2.259,2.786c0.854,0,1.617-0.158,2.049-0.36l0.396,1.837
			c-0.554,0.571-1.854,1.021-3.146,1.021c-3.313,0-4.853-2.161-4.853-5.054C1064.75,409.15,1066.332,406.83,1069.838,406.83z"/>
		<path fill="#030303" d="M1074.611,402.383h3.261v3.763l-0.158,1.872c0.668-0.563,1.854-1.188,3.138-1.204
			c2.182-0.044,3.173,1.213,3.173,3.895v6.284h-3.261v-5.729c0-1.529-0.413-1.907-1.292-1.891c-0.404,0.009-1.115,0.167-1.6,0.649
			v6.971h-3.261V402.383z"/>
		<path fill="#030303" d="M1086.59,404.062c0-0.983,0.905-1.812,1.96-1.812c1.063,0,1.793,0.687,1.793,1.68
			c0,0.983-0.879,1.818-1.941,1.818C1087.354,405.749,1086.59,405.046,1086.59,404.062z M1086.74,406.971h3.27v10.02h-3.27V406.971z
			"/>
		<path fill="#030303" d="M1092.839,402.383h3.261v14.606h-3.261V402.383z"/>
		<path fill="#030303" d="M1098.28,412.323c0-3.393,2.039-5.492,5.104-5.492c0.703,0,1.268,0.113,1.652,0.246l-0.026-1.072v-3.621
			h3.252v14.748h-2.496c-0.323,0-0.481-0.176-0.481-0.476v-0.702c-0.448,0.447-1.354,1.178-3.032,1.178
			C1100.117,417.131,1098.28,415.575,1098.28,412.323z M1105.012,414.239v-4.878c-0.271-0.201-0.791-0.28-1.371-0.28
			c-1.143,0-1.94,1.021-1.949,3.085c-0.011,1.872,0.642,2.53,1.679,2.53C1103.993,414.696,1104.661,414.477,1105.012,414.239z"/>
		<path fill="#030303" d="M985.824,443.213v3.226h-3.261v-14.467h3.074v0.976c0.467-0.457,1.346-1.114,2.944-1.114
			c2.146,0,3.999,1.527,3.999,4.779c0,3.395-2.065,5.521-5.133,5.521c-0.712,0-1.274-0.114-1.661-0.246L985.824,443.213z
			 M987.204,439.934c1.143,0,1.941-1.099,1.951-3.129c0.009-1.916-0.644-2.56-1.681-2.56c-0.633,0-1.31,0.256-1.65,0.527v4.799
			C986.087,439.827,986.597,439.934,987.204,439.934z"/>
		<path fill="#030303" d="M999.271,431.829c3.709,0,5.036,2.479,4.992,5.354c-0.044,3.217-2.171,4.948-5.177,4.948
			c-3.709,0-5.036-2.479-5.001-5.354C994.138,433.562,996.265,431.829,999.271,431.829z M1000.879,437.032
			c0-1.617-0.403-2.942-1.67-2.942c-1.31,0-1.74,0.967-1.74,2.784c0,1.652,0.423,3.017,1.688,3.017
			C1000.44,439.89,1000.879,438.948,1000.879,437.032z"/>
		<path fill="#030303" d="M1006.364,431.971h2.854l0.143,1.606c0.413-1.02,1.527-1.767,2.883-1.767c0.29,0,0.598,0.035,0.729,0.123
			v3.208c-0.167-0.097-0.475-0.237-1.07-0.237c-1.204,0-1.898,0.536-2.276,0.949v6.135h-3.261L1006.364,431.971L1006.364,431.971z"
			/>
		<path fill="#030303" d="M1014.942,431.971h2.971l0.079,1.071c0.747-0.623,2.057-1.214,3.27-1.229
			c2.048-0.044,3.061,0.984,3.061,3.867v6.311h-3.252v-5.729c0-1.459-0.325-1.916-1.274-1.892c-0.475,0-1.16,0.229-1.6,0.65v6.97
			h-3.252L1014.942,431.971L1014.942,431.971z"/>
		<path fill="#030303" d="M1031.58,431.829c3.709,0,5.036,2.479,4.992,5.354c-0.044,3.217-2.171,4.948-5.179,4.948
			c-3.709,0-5.035-2.479-5.001-5.354C1026.447,433.562,1028.574,431.829,1031.58,431.829z M1033.188,437.032
			c0-1.617-0.404-2.942-1.672-2.942c-1.31,0-1.738,0.967-1.738,2.784c0,1.652,0.422,3.017,1.688,3.017
			C1032.749,439.89,1033.188,438.948,1033.188,437.032z"/>
		<path fill="#030303" d="M1039.419,441.374c-0.545-0.299-0.817-0.859-0.809-1.503c0.009-0.657,0.387-1.503,1.635-2.038
			c-1.274-0.511-2.004-1.459-2.004-2.741c0-2.182,1.67-3.243,4.623-3.252c1.449,0,2.593,0.246,3.393,0.736
			c0.334-0.279,0.94-0.604,1.705-0.604h1.125v2.241h-1.617c0.063,0.255,0.099,0.534,0.099,0.824c0,2.005-1.435,3.234-4.702,3.234
			c-0.354,0-0.688-0.018-1.002-0.053c-0.229,0.211-0.316,0.481-0.316,0.712c0,0.481,0.325,0.648,1.274,0.648h1.984
			c3.13,0,3.964,1.441,3.964,3.041c0,2.654-2.848,3.922-5.693,3.902c-3.562-0.026-5.159-1.195-5.159-3.032
			C1037.917,442.614,1038.426,441.823,1039.419,441.374z M1043.243,444.768c1.318,0,2.294-0.413,2.294-1.485
			c0-0.771-0.265-1.389-1.907-1.389h-2.136c-0.167,0.237-0.308,0.571-0.308,1.011
			C1041.187,443.802,1041.555,444.768,1043.243,444.768z M1044.429,435.073c0-1.046-0.501-1.556-1.503-1.556
			c-0.938,0-1.563,0.352-1.563,1.547c0,0.94,0.501,1.503,1.527,1.503C1043.805,436.567,1044.429,436.26,1044.429,435.073z"/>
		<path fill="#030303" d="M1050.634,431.971h2.856l0.141,1.606c0.413-1.02,1.529-1.767,2.883-1.767c0.29,0,0.6,0.035,0.729,0.123
			v3.208c-0.167-0.097-0.475-0.237-1.072-0.237c-1.204,0-1.896,0.536-2.275,0.949v6.135h-3.262V431.971z"/>
		<path fill="#030303" d="M1060.329,436.392c1.222-0.527,2.839-0.606,4.096-0.606v-0.604c0-0.87-0.325-1.081-1.828-1.081
			c-0.729,0-2.127,0.299-3.021,0.712l-0.659-1.916c0.729-0.438,2.619-1.099,4.401-1.099c3.164,0,4.344,1.02,4.344,3.788v6.548
			h-2.039c-0.668,0-1.028-0.044-1.028-0.914v-0.07c-0.563,0.492-1.448,0.984-2.795,0.984c-1.978,0-3.27-1.336-3.27-3.199
			C1058.527,437.755,1059.221,436.865,1060.329,436.392z M1063.159,440.128c0.519,0,1.081-0.229,1.266-0.424v-2.354
			c-0.633,0.009-1.406,0.141-1.758,0.308c-0.378,0.149-0.782,0.396-0.782,1.107C1061.884,439.715,1062.5,440.128,1063.159,440.128z"
			/>
		<path fill="#030303" d="M1073.539,443.213v3.226h-3.261v-14.467h3.076v0.976c0.466-0.457,1.345-1.114,2.942-1.114
			c2.146,0,3.999,1.527,3.999,4.779c0,3.395-2.063,5.521-5.133,5.521c-0.712,0-1.274-0.114-1.661-0.246L1073.539,443.213z
			 M1074.918,439.934c1.143,0,1.942-1.099,1.951-3.129c0.009-1.916-0.642-2.56-1.679-2.56c-0.635,0-1.312,0.256-1.652,0.527v4.799
			C1073.802,439.827,1074.312,439.934,1074.918,439.934z"/>
		<path fill="#030303" d="M1082.442,427.384h3.261v3.762l-0.158,1.872c0.668-0.563,1.854-1.188,3.138-1.204
			c2.182-0.044,3.174,1.213,3.174,3.895v6.283h-3.262v-5.729c0-1.529-0.413-1.907-1.292-1.892c-0.402,0.011-1.116,0.167-1.6,0.65
			v6.97h-3.261V427.384z"/>
		<path fill="#030303" d="M1095.327,443.958c0.896,0,2.057-0.132,2.514-1.969h-1.248l-3.454-10.02h3.438l1.439,5.271l0.659,2.751
			l0.6-2.751l1.125-5.271h3.409l-3.154,10.257c-0.738,2.399-1.926,3.463-3.199,3.938c-0.438,0.176-1.204,0.279-1.73,0.279
			c-0.265,0-1.38-0.104-1.484-0.176v-2.496C1094.43,443.837,1095.028,443.958,1095.327,443.958z"/>
		<path fill="#030303" d="M1106.813,438.333c1.106,0,1.793,0.791,1.793,1.848c0.01,1.063-0.834,2.004-1.941,2.004
			c-1.081,0-1.813-0.8-1.819-1.854C1104.845,439.274,1105.707,438.333,1106.813,438.333z"/>
	</g>
	<rect x="170.918" y="0" fill="none" width="1023.999" height="767.999"/>
</g>
</svg>
