<?xml version="1.0" encoding="utf-8"?>
<!-- Generator: Adobe Illustrator 16.0.0, SVG Export Plug-In . SVG Version: 6.00 Build 0)  -->
<!DOCTYPE svg PUBLIC "-//W3C//DTD SVG 1.1//EN" "http://www.w3.org/Graphics/SVG/1.1/DTD/svg11.dtd">
<svg version="1.1" id="Layer_1" xmlns="http://www.w3.org/2000/svg" xmlns:xlink="http://www.w3.org/1999/xlink" x="0px" y="0px"
	 width="1024px" height="768.002px" viewBox="0 0 1024 768.002" enable-background="new 0 0 1024 768.002" xml:space="preserve">
<g id="fotoc">
	<g>
		<g>
			<defs>
				<rect id="SVGID_1_" y="0" width="512" height="768.002"/>
			</defs>
			<clipPath id="SVGID_2_">
				<use xlink:href="#SVGID_1_"  overflow="visible"/>
			</clipPath>
			<g clip-path="url(#SVGID_2_)">
				
					<image overflow="visible" enable-background="new    " width="960" height="1440" xlink:href="1_1a.jpg"  transform="matrix(0.7113 0 0 0.7113 -170.9175 -2.441406e-004)">
				</image>
			</g>
		</g>
	</g>
	<g>
		<g>
			<defs>
				<rect id="SVGID_3_" x="511.917" y="0" width="512.083" height="768.002"/>
			</defs>
			<clipPath id="SVGID_4_">
				<use xlink:href="#SVGID_3_"  overflow="visible"/>
			</clipPath>
			<g clip-path="url(#SVGID_4_)">
				
					<image overflow="visible" enable-background="new    " width="960" height="1440" xlink:href="1_2.jpg"  transform="matrix(0.7115 0 0 0.7115 512.0811 -0.0032)">
				</image>
			</g>
		</g>
	</g>
</g>
<g id="fotog" display="none">
	<g display="inline">
		<g>
			<defs>
				<rect id="SVGID_5_" y="0" width="512" height="768.002"/>
			</defs>
			<clipPath id="SVGID_6_">
				<use xlink:href="#SVGID_5_"  overflow="visible"/>
			</clipPath>
			<g clip-path="url(#SVGID_6_)">
				
					<image overflow="visible" enable-background="new    " width="960" height="1440" xlink:href="1_1b.jpg"  transform="matrix(0.7113 0 0 0.7113 -170.9155 0.1267)">
				</image>
			</g>
		</g>
	</g>
</g>
<g id="testi_fissi">
	<rect x="80.917" y="97.11" fill="#FFFFFF" width="227.167" height="24.965"/>
	<rect x="80.917" y="122.075" fill="#FFFFFF" width="227.167" height="24.964"/>
	<rect x="80.917" y="147.04" fill="#FFFFFF" width="80.667" height="24.965"/>
	<rect x="769.834" y="400.111" fill="#FFFFFF" width="173.743" height="24.965"/>
	<rect x="754.834" y="375.146" fill="#FFFFFF" width="188.743" height="24.965"/>
	<g>
		<g>
			<g>
				<rect x="390.417" y="359.416" fill="#FFFFFF" width="245.497" height="39.247"/>
			</g>
			<g>
				<rect x="443.971" y="393.988" fill="#FFFFFF" width="138.392" height="39.247"/>
			</g>
			<g>
				<rect x="399.751" y="429.321" fill="#FFFFFF" width="226.829" height="39.247"/>
			</g>
			<g>
				<path fill="#030303" d="M400.062,368.316h2.197l2.14,16.055l0.586,3.926l1.26-3.794l5.156-12.876l-0.337-3.311h2.108
					l1.597,16.055l0.293,3.926l1.45-3.794l6.489-16.187h2.227l-9.478,22.559h-2.256l-1.304-12.598l-0.265-3.457l-1.229,3.457
					l-4.98,12.598h-2.271L400.062,368.316z"/>
				<path fill="#030303" d="M425.447,381.749c-0.146-7.777,4.351-13.682,10.269-13.682c4.702,0,7.046,4.175,7.134,9.243
					c0.133,7.632-4.115,13.667-10.181,13.667C428.025,390.978,425.55,386.993,425.447,381.749z M440.55,377.721
					c-0.088-5.156-1.758-7.896-5.186-7.896c-4.482,0-7.705,5.361-7.617,11.484c0.073,5.36,1.948,7.969,5.273,7.969
					C437.518,389.278,440.667,384.005,440.55,377.721z"/>
				<path fill="#030303" d="M446.424,382.042l1.743-13.726h2.197l-1.686,13.345c-0.132,1.055-0.189,1.963-0.176,2.798
					c0.059,2.944,1.538,4.718,4.614,4.718c3.589,0,5.625-2.124,6.356-7.822l1.642-13.037h2.153l-1.671,13.228
					c-0.894,6.914-3.75,9.435-8.789,9.435c-4.276,0-6.488-2.389-6.563-6.432C446.233,383.785,446.321,382.906,446.424,382.042z"/>
				<path fill="#030303" d="M468.514,368.316h2.197l-2.593,20.565l8.687-0.059l-0.233,1.904h-10.885L468.514,368.316z"/>
				<path fill="#030303" d="M482.84,368.316h1.274c1.421-0.015,3.223-0.234,4.702-0.234c5.962,0,8.363,3.706,8.438,9.142
					c0.103,7.749-4.481,13.916-11.367,13.739c-0.41-0.015-1.201-0.059-1.655-0.103c-0.658-0.059-2.271-0.132-3.091-0.132h-1.128
					L482.84,368.316z M486.414,389.278c5.742-0.132,8.613-6.021,8.555-11.88c-0.073-5.332-1.948-7.676-6.782-7.676
					c-1.011,0-2.432,0.146-3.368,0.277l-2.373,18.896C483.616,389.103,485.198,389.308,486.414,389.278z"/>
				<path fill="#030303" d="M510.467,368.316h2.212l-2.826,22.412h-2.213L510.467,368.316z"/>
				<path fill="#030303" d="M522.522,369.942l-6.606,0.132l0.249-1.758h15.293l-0.249,1.758l-6.489-0.132l-2.622,20.786H519.9
					L522.522,369.942z"/>
				<path fill="#030303" d="M547.615,368.316h2.461l4.232,22.412h-2.196l-1.113-6.313h-8.994l-2.944,6.313h-2.357L547.615,368.316z
					 M550.706,382.73l-1.89-10.752l-0.221-1.686l-0.806,1.743l-4.995,10.693L550.706,382.73L550.706,382.73z"/>
				<path fill="#030303" d="M560.564,368.316h2.196l-2.593,20.565l8.688-0.059l-0.234,1.904h-10.884L560.564,368.316z"/>
				<path fill="#030303" d="M574.891,368.316h2.197l-2.593,20.565l8.687-0.059l-0.233,1.904h-10.884L574.891,368.316z"/>
				<path fill="#030303" d="M596.321,368.316h1.201c1.377-0.015,2.826-0.234,4.32-0.234c5.068,0,6.52,2.329,6.563,4.806
					c0.059,3.192-1.816,5.316-4.688,6.123c2.461,0.277,4.526,2.007,4.57,4.54c0.088,5.317-4.204,7.384-9.858,7.384
					c-1.128,0-2.871-0.205-3.911-0.205h-1.024L596.321,368.316z M598.914,389.352c3.94,0,7.075-1.393,7.031-5.537
					c-0.044-2.622-2.052-3.911-5.055-3.911c-2.036,0-3.091,0.044-3.838,0.088l-1.143,9.082
					C596.526,389.249,598.328,389.352,598.914,389.352z M600.687,378.321c3.076,0,5.553-1.831,5.509-5.186
					c-0.029-2.228-1.333-3.517-4.863-3.517c-0.439,0-2.095,0.088-3.003,0.19l-1.069,8.511
					C598.299,378.365,599.632,378.321,600.687,378.321z"/>
				<path fill="#030303" d="M614.485,368.316h11.073l-0.088,1.758l-8.994-0.103l-1.068,8.48l6.942-0.088l-0.132,1.86l-7.017-0.161
					l-1.144,8.994l10.796-0.19l-0.16,1.86h-13.037L614.485,368.316z"/>
				<path fill="#030303" d="M454.021,403.316h1.288c1.611,0,2.915-0.234,4.497-0.234c4.233,0,6.637,1.816,6.694,5.698
					c0.103,5.757-3.662,9.243-8.994,9.243c-1.362,0-2.666-0.146-3.104-0.205l-1.012,7.91h-2.196L454.021,403.316z M457.579,416.28
					c4.38-0.029,6.636-2.622,6.694-7.295c0.028-2.783-1.554-4.248-4.806-4.248c-0.938,0-2.445,0.161-3.472,0.293l-1.377,11.001
					C455.221,416.148,456.656,416.295,457.579,416.28z"/>
				<path fill="#030303" d="M468.346,416.749c-0.146-7.777,4.352-13.682,10.27-13.682c4.702,0,7.046,4.175,7.134,9.243
					c0.132,7.632-4.116,13.667-10.181,13.667C470.924,425.978,468.448,421.993,468.346,416.749z M483.448,412.721
					c-0.088-5.156-1.758-7.896-5.187-7.896c-4.481,0-7.705,5.361-7.616,11.484c0.072,5.361,1.947,7.969,5.272,7.969
					C480.416,424.278,483.565,419.005,483.448,412.721z"/>
				<path fill="#030303" d="M487.931,422.857c0.558,0.586,2.799,1.377,4.922,1.377c2.695,0,5.244-1.157,5.244-3.984
					c0-2.036-1.273-3.34-3.56-4.818c-2.168-1.406-4.849-3.193-4.907-6.563c-0.073-3.677,2.856-5.801,6.709-5.801
					c2.9,0,4.365,0.747,5.068,1.245l-0.703,1.699c-0.835-0.835-2.637-1.245-4.219-1.245c-1.803,0-4.557,0.586-4.645,3.529
					c-0.073,2.666,1.626,3.81,3.999,5.376c2.08,1.362,4.497,2.988,4.556,6.035c0.073,4.132-3.236,6.256-7.588,6.256
					c-2.489,0-4.834-0.763-5.492-1.305L487.931,422.857z"/>
				<path fill="#030303" d="M503.224,422.857c0.558,0.586,2.799,1.377,4.922,1.377c2.695,0,5.244-1.157,5.244-3.984
					c0-2.036-1.273-3.34-3.56-4.818c-2.168-1.406-4.849-3.193-4.907-6.563c-0.073-3.677,2.856-5.801,6.709-5.801
					c2.9,0,4.365,0.747,5.068,1.245l-0.703,1.699c-0.835-0.835-2.637-1.245-4.219-1.245c-1.803,0-4.557,0.586-4.645,3.529
					c-0.072,2.666,1.626,3.81,3.999,5.376c2.08,1.362,4.497,2.988,4.557,6.035c0.072,4.132-3.237,6.256-7.589,6.256
					c-2.489,0-4.834-0.763-5.492-1.305L503.224,422.857z"/>
				<path fill="#030303" d="M522.428,403.316h2.212l-2.827,22.412h-2.212L522.428,403.316z"/>
				<path fill="#030303" d="M530.455,403.316h1.201c1.377-0.015,2.827-0.234,4.32-0.234c5.068,0,6.52,2.329,6.563,4.806
					c0.059,3.192-1.816,5.316-4.688,6.123c2.462,0.277,4.526,2.007,4.57,4.54c0.088,5.317-4.204,7.384-9.857,7.384
					c-1.128,0-2.871-0.205-3.911-0.205h-1.025L530.455,403.316z M533.048,424.352c3.94,0,7.075-1.392,7.031-5.537
					c-0.044-2.622-2.051-3.911-5.054-3.911c-2.036,0-3.092,0.044-3.839,0.088l-1.143,9.082
					C530.66,424.25,532.462,424.352,533.048,424.352z M534.82,413.321c3.075,0,5.552-1.831,5.508-5.186
					c-0.029-2.228-1.333-3.517-4.863-3.517c-0.438,0-2.095,0.088-3.003,0.19l-1.068,8.511
					C532.433,413.365,533.766,413.321,534.82,413.321z"/>
				<path fill="#030303" d="M548.619,403.316h2.197l-2.594,20.566l8.688-0.06l-0.234,1.904h-10.884L548.619,403.316z"/>
				<path fill="#030303" d="M562.945,403.316h11.073l-0.088,1.758l-8.994-0.103l-1.068,8.48l6.942-0.088l-0.132,1.86l-7.017-0.161
					l-1.144,8.994l10.797-0.19l-0.161,1.86h-13.037L562.945,403.316z"/>
				<path fill="#030303" d="M406.813,438.316h5.229l0.864,14.355l0.293,3.252l0.996-3.252l3.765-9.391l-0.527-4.966h5.055
					l0.879,14.355l0.337,3.252l0.775-3.252l4.894-14.355h5.332l-8.716,22.412h-6.05l-0.835-7.998l-0.265-2.446l-0.894,2.446
					l-2.931,7.998h-5.492L406.813,438.316z"/>
				<path fill="#030303" d="M436.448,438.316h5.186l-3.208,22.412h-5.186L436.448,438.316z"/>
				<path fill="#030303" d="M449.397,442.184l-5.26,0.161l0.646-4.028h15.63l-0.586,4.028l-5.156-0.161l-2.65,18.545h-5.273
					L449.397,442.184z"/>
				<path fill="#030303" d="M463.123,438.316h5.186l-1.392,9.727h7.061l1.393-9.727h5.244l-3.208,22.412h-5.244l1.304-9.111h-7.061
					l-1.305,9.111h-5.186L463.123,438.316z"/>
				<path fill="#030303" d="M493.035,438.082c5.303,0,7.954,4.015,7.954,8.789c0,7.633-4.103,14.093-10.928,14.093
					c-5.405,0-8.087-3.94-8.087-8.701C481.976,444.615,486.121,438.082,493.035,438.082z M495.657,447.032
					c0-3.882-1.113-5.054-3.18-5.054c-3.267,0-5.171,5.552-5.171,10.02c0,3.883,1.113,5.068,3.164,5.068
					C493.738,457.066,495.657,451.646,495.657,447.032z"/>
				<path fill="#030303" d="M503.304,451.983l1.948-13.667h5.171l-1.846,13.008c-0.146,1.069-0.161,1.979-0.161,2.813
					c0.015,2.196,0.791,2.855,2.899,2.855c2.389,0,3.53-1.229,4.176-5.552l1.859-13.125h5.156l-1.904,13.667
					c-0.907,6.489-3.853,8.979-10.077,8.979c-5.112,0-7.397-2.521-7.412-6.563C503.099,453.639,503.172,452.848,503.304,451.983z"/>
				<path fill="#030303" d="M529.773,442.184l-5.26,0.161l0.646-4.028h15.63l-0.586,4.028l-5.156-0.161l-2.65,18.545h-5.273
					L529.773,442.184z"/>
				<path fill="#030303" d="M553.768,442.184l-5.259,0.161l0.646-4.028h15.63l-0.586,4.028l-5.156-0.161l-2.651,18.545h-5.272
					L553.768,442.184z"/>
				<path fill="#030303" d="M575.433,438.082c5.304,0,7.954,4.015,7.954,8.789c0,7.633-4.102,14.093-10.928,14.093
					c-5.405,0-8.086-3.94-8.086-8.701C564.373,444.615,568.519,438.082,575.433,438.082z M578.055,447.032
					c0-3.882-1.112-5.054-3.179-5.054c-3.267,0-5.171,5.552-5.171,10.02c0,3.883,1.113,5.068,3.164,5.068
					C576.136,457.066,578.055,451.646,578.055,447.032z"/>
				<path fill="#030303" d="M588.074,438.316h2.959c1.743,0,2.313-0.234,4.232-0.234c5.846,0,8.027,2.096,8.027,5.758
					c0,3.354-1.304,6.431-4.79,7.5c0.82,0.688,1.567,2.139,2.065,4.014c1.244,3.838,1.465,4.556,2.035,5.376h-5.741
					c-0.366-0.527-0.558-1.787-1.274-4.482c-0.63-2.563-1.509-3.91-1.978-3.91h-2.301l-1.244,8.394h-5.187L588.074,438.316z
					 M594.71,448.351c2.798,0,3.589-2.52,3.53-4.263c-0.073-1.891-1.289-2.402-3.472-2.402c-0.688,0-1.582,0.073-2.008,0.146
					l-0.908,6.476C592.646,448.351,594.095,448.351,594.71,448.351z"/>
				<path fill="#030303" d="M606.81,450.372c0-1.742,0.659-2.855,3.691-4.364c2.271-1.012,3.413-1.948,3.823-2.607
					c0.103-0.293,0.337-1.128,0.337-1.859c0-1.642-1.699-3.048-4.453-3.048c-1.055,0-1.992,0.073-3.032,0.337l0.82-3.368
					c0.498-0.439,1.992-0.776,3.148-0.776c5.698,0,8.219,2.725,8.219,6.313c0,7.104-8.657,6.681-8.657,10.211
					c0,0.702,0.498,1.405,0.601,1.771l-2.445,0.967l-0.249-0.015C607.747,453.331,606.81,451.72,606.81,450.372z M611.351,455.777
					c1.729,0,2.358,1.011,2.358,2.184c0,1.919-1.229,3.192-3.12,3.192c-1.421,0-2.285-0.923-2.285-2.227
					C608.304,457.286,609.461,455.777,611.351,455.777z"/>
			</g>
		</g>
	</g>
	<g>
		<g>
			<rect x="445.46" y="301.625" fill="#030303" width="133.516" height="47.789"/>
		</g>
		<g>
			<path fill="#FFFFFF" d="M455.799,308.351h8.042l-0.394,2.58l-4.692-0.037l-0.498,3.49l4.018-0.057l-0.338,2.73l-4.055-0.065
				l-0.815,5.715h-3.322L455.799,308.351z"/>
			<path fill="#FFFFFF" d="M465.933,308.351h1.896c1.117,0,1.482-0.15,2.712-0.15c3.744,0,5.143,1.342,5.143,3.688
				c0,2.148-0.835,4.12-3.068,4.805c0.524,0.441,1.004,1.37,1.323,2.571c0.798,2.459,0.938,2.919,1.304,3.443h-3.679
				c-0.234-0.338-0.356-1.145-0.815-2.871c-0.404-1.643-0.967-2.506-1.267-2.506h-1.474l-0.798,5.377h-3.322L465.933,308.351z
				 M470.184,314.778c1.792,0,2.3-1.614,2.262-2.73c-0.048-1.211-0.826-1.538-2.225-1.538c-0.44,0-1.013,0.047-1.286,0.094
				l-0.582,4.146C468.861,314.778,469.79,314.778,470.184,314.778z"/>
			<path fill="#FFFFFF" d="M478.563,308.351h8.577l-0.347,2.58l-5.273-0.02l-0.451,3.162l3.932-0.047l-0.338,2.591l-3.951-0.085
				l-0.516,3.641l5.939-0.094l-0.347,2.628h-9.281L478.563,308.351z"/>
			<path fill="#FFFFFF" d="M489.872,308.351h8.577l-0.347,2.58l-5.274-0.02l-0.451,3.162l3.933-0.047l-0.339,2.591l-3.95-0.085
				l-0.517,3.641l5.94-0.094l-0.348,2.628h-9.28L489.872,308.351z"/>
			<path fill="#FFFFFF" d="M501.18,308.351h1.464c0.798,0,2.769-0.15,3.632-0.15c3.97,0,5.452,2.337,5.452,5.762
				c0,4.646-2.553,8.896-7.938,8.896c-0.347,0-0.826-0.028-1.351-0.066c-0.647-0.037-1.37-0.084-1.962-0.084h-1.351L501.18,308.351z
				 M504.257,320.428c2.77,0,4.054-2.976,4.054-6.514c0-2.607-0.854-3.266-2.722-3.266c-0.394,0-1.06,0.047-1.436,0.122
				l-1.352,9.459C503.178,320.353,503.685,320.428,504.257,320.428z"/>
			<path fill="#FFFFFF" d="M519.518,308.2c3.396,0,5.097,2.571,5.097,5.631c0,4.89-2.628,9.027-7.001,9.027
				c-3.463,0-5.181-2.524-5.181-5.574C512.432,312.386,515.088,308.2,519.518,308.2z M521.197,313.934
				c0-2.486-0.713-3.237-2.037-3.237c-2.092,0-3.313,3.557-3.313,6.419c0,2.486,0.715,3.247,2.027,3.247
				C519.968,320.362,521.197,316.89,521.197,313.934z"/>
			<path fill="#FFFFFF" d="M528.546,308.351h4.833l0.638,9.881l0.058,2.111l0.45-2.111l3.332-9.881h4.852l-0.226,14.356h-3.313
				l0.836-10.688l0.254-2.196l-0.694,2.196l-4.102,10.717l-3.649,0.141l-1.127-10.856l-0.02-2.196l-0.449,2.196l-2.328,10.688
				h-3.274L528.546,308.351z"/>
			<path fill="#FFFFFF" d="M555.834,308.2c3.397,0,5.096,2.571,5.096,5.631c0,4.89-2.627,9.027-7,9.027
				c-3.463,0-5.181-2.524-5.181-5.574C548.749,312.386,551.404,308.2,555.834,308.2z M557.514,313.934
				c0-2.486-0.713-3.237-2.036-3.237c-2.093,0-3.313,3.557-3.313,6.419c0,2.486,0.714,3.247,2.026,3.247
				C556.285,320.362,557.514,316.89,557.514,313.934z"/>
			<path fill="#FFFFFF" d="M563.953,308.351h8.041l-0.395,2.58l-4.691-0.037l-0.497,3.49l4.017-0.057l-0.338,2.73l-4.055-0.065
				l-0.816,5.715h-3.32L563.953,308.351z"/>
			<path fill="#FFFFFF" d="M486.484,330.063l-3.369,0.103l0.413-2.58h10.013l-0.375,2.58l-3.303-0.103l-1.699,11.88h-3.378
				L486.484,330.063z"/>
			<path fill="#FFFFFF" d="M495.389,327.585h1.896c1.117,0,1.481-0.149,2.712-0.149c3.744,0,5.143,1.342,5.143,3.688
				c0,2.149-0.835,4.12-3.068,4.806c0.524,0.44,1.004,1.369,1.322,2.57c0.799,2.459,0.938,2.919,1.305,3.444h-3.678
				c-0.235-0.338-0.357-1.146-0.816-2.871c-0.404-1.643-0.967-2.506-1.268-2.506h-1.473l-0.798,5.377h-3.322L495.389,327.585z
				 M499.641,334.013c1.792,0,2.3-1.614,2.262-2.73c-0.048-1.211-0.826-1.539-2.225-1.539c-0.44,0-1.013,0.047-1.286,0.094
				l-0.582,4.147C498.317,334.013,499.246,334.013,499.641,334.013z"/>
			<path fill="#FFFFFF" d="M511.08,327.585h4.223l2.131,14.357l-3.332,0.01l-0.31-2.692h-4.898l-1.098,2.684l-3.66,0.01
				L511.08,327.585z M513.539,336.997l-0.713-6.334l-0.058-1.117l-0.365,1.117l-2.59,6.334H513.539z"/>
			<path fill="#FFFFFF" d="M520.652,327.585h1.465c0.797,0,2.768-0.149,3.631-0.149c3.97,0,5.453,2.337,5.453,5.762
				c0,4.646-2.553,8.896-7.939,8.896c-0.348,0-0.826-0.028-1.352-0.066c-0.647-0.037-1.37-0.084-1.961-0.084h-1.353L520.652,327.585
				z M523.729,339.662c2.77,0,4.056-2.975,4.056-6.513c0-2.608-0.854-3.267-2.724-3.267c-0.394,0-1.06,0.048-1.436,0.122
				l-1.352,9.459C522.651,339.587,523.158,339.662,523.729,339.662z"/>
			<path fill="#FFFFFF" d="M534.018,327.585h8.576l-0.348,2.58l-5.273-0.019l-0.45,3.162l3.934-0.047l-0.338,2.591l-3.951-0.085
				l-0.516,3.641l5.938-0.094l-0.348,2.628h-9.28L534.018,327.585z"/>
		</g>
	</g>
	<g>
		<path fill="#030303" d="M86.573,102.464l1.626,0.01c0.914,0,1.828-0.133,3.19-0.133c3.727,0,5.142,1.327,5.142,3.445
			c0,1.415-0.668,2.619-2.004,2.997c1.547,0.186,2.716,1.318,2.716,3.015c0,2.452-1.266,4.176-5.546,4.176
			c-1.239,0-2.707-0.079-3.437-0.123h-1.688v-13.387H86.573z M91.188,107.983c1.424,0,2.153-0.483,2.153-1.89
			c0-1.107-0.817-1.504-2.303-1.504c-0.246,0-0.984,0.026-1.143,0.114v3.208C90.186,107.975,90.88,107.983,91.188,107.983z
			 M91.53,113.784c1.538,0,2.285-0.563,2.285-1.96c0-1.16-0.703-1.775-2.399-1.775c-0.431,0-1.31,0.019-1.521,0.07v3.463
			C90.124,113.731,90.985,113.784,91.53,113.784z"/>
		<path fill="#030303" d="M99.177,105.83h3.261v5.968c0,1.513,0.431,1.854,1.327,1.854c0.606,0,1.195-0.264,1.424-0.466v-7.356
			h3.261v10.16h-2.355c-0.413,0-0.606-0.079-0.606-0.51v-0.422c-0.712,0.545-1.986,0.932-2.918,0.932
			c-2.936,0-3.393-1.802-3.393-4.271v-5.89H99.177z"/>
		<path fill="#030303" d="M112.026,117.818c0.896,0,2.057-0.132,2.514-1.969h-1.248l-3.454-10.021h3.437l1.441,5.273l0.659,2.751
			l0.598-2.751l1.125-5.273h3.41l-3.155,10.257c-0.738,2.399-1.925,3.463-3.199,3.938c-0.439,0.176-1.204,0.281-1.731,0.281
			c-0.264,0-1.38-0.105-1.485-0.177v-2.496C111.13,117.695,111.728,117.818,112.026,117.818z"/>
		<path fill="#030303" d="M121.738,102.921c0-0.983,0.905-1.811,1.96-1.811c1.063,0,1.793,0.686,1.793,1.679
			c0,0.984-0.879,1.819-1.942,1.819C122.503,104.608,121.738,103.905,121.738,102.921z M121.888,105.83h3.27v10.021h-3.27V105.83z"
			/>
		<path fill="#030303" d="M127.987,105.83h2.971l0.079,1.072c0.747-0.624,2.057-1.213,3.27-1.23
			c2.048-0.044,3.059,0.984,3.059,3.867v6.312h-3.252v-5.73c0-1.459-0.325-1.916-1.274-1.89c-0.475,0-1.16,0.229-1.6,0.649v6.971
			h-3.252L127.987,105.83L127.987,105.83z"/>
		<path fill="#030303" d="M140.775,115.234c-0.545-0.299-0.817-0.861-0.809-1.503c0.009-0.659,0.387-1.503,1.635-2.039
			c-1.274-0.51-2.004-1.459-2.004-2.742c0-2.18,1.67-3.243,4.623-3.252c1.45,0,2.593,0.246,3.393,0.738
			c0.334-0.281,0.94-0.606,1.705-0.606h1.125v2.241h-1.617c0.062,0.255,0.097,0.536,0.097,0.826c0,2.004-1.433,3.233-4.702,3.233
			c-0.352,0-0.686-0.018-1.002-0.053c-0.229,0.211-0.316,0.483-0.316,0.712c0,0.483,0.325,0.65,1.274,0.65h1.986
			c3.129,0,3.964,1.44,3.964,3.041c0,2.654-2.848,3.92-5.695,3.901c-3.56-0.025-5.159-1.194-5.159-3.031
			C139.272,116.474,139.782,115.683,140.775,115.234z M144.599,118.627c1.318,0,2.294-0.413,2.294-1.484
			c0-0.773-0.264-1.39-1.907-1.39h-2.136c-0.167,0.237-0.308,0.571-0.308,1.012C142.542,117.66,142.911,118.627,144.599,118.627z
			 M145.785,108.933c0-1.046-0.501-1.557-1.503-1.557c-0.94,0-1.564,0.353-1.564,1.547c0,0.94,0.501,1.504,1.529,1.504
			C145.161,110.427,145.785,110.119,145.785,108.933z"/>
		<path fill="#030303" d="M162.546,105.689c3.709,0,5.036,2.479,4.992,5.353c-0.044,3.218-2.171,4.948-5.177,4.948
			c-3.709,0-5.036-2.479-5.001-5.353C157.413,107.421,159.54,105.689,162.546,105.689z M164.154,110.893
			c0-1.617-0.404-2.944-1.67-2.944c-1.31,0-1.74,0.967-1.74,2.786c0,1.652,0.422,3.015,1.688,3.015
			C163.715,113.749,164.154,112.809,164.154,110.893z"/>
		<path fill="#030303" d="M170.245,107.966h-1.257v-1.897l1.257-0.237v-1.027c0-2.884,2.048-3.754,3.885-3.754
			c1.02,0,1.705,0.149,1.934,0.202v2.232c-0.22-0.114-0.659-0.22-1.283-0.22c-0.765,0-1.266,0.491-1.266,1.66v0.905h2.171v2.136
			h-2.171v7.885h-3.27V107.966z"/>
		<path fill="#030303" d="M183.429,105.83h2.971l0.079,1.072c0.677-0.563,1.96-1.204,3.27-1.23c1.178-0.025,2.013,0.309,2.505,1.16
			c0.563-0.447,1.819-1.169,3.349-1.16c2.013-0.009,3.226,0.924,3.226,3.858v6.319h-3.261v-5.739c0-1.459-0.299-1.898-1.266-1.881
			c-0.615,0-1.204,0.343-1.547,0.642c0.009,0.202,0.018,0.422,0.018,0.643v6.337h-3.234v-5.73c0-1.45-0.299-1.907-1.248-1.89
			c-0.466,0-1.169,0.229-1.608,0.649v6.971h-3.252V105.83H183.429z"/>
		<path fill="#030303" d="M205.92,105.689c2.136,0,4.184,0.853,4.21,4.068c0,0.729-0.044,1.415-0.105,1.847h-5.88
			c0.149,1.494,1.037,2.083,2.505,2.083c0.967,0,2.206-0.246,2.689-0.51l0.501,1.73c-0.659,0.536-2.162,1.081-3.955,1.081
			c-3.234,0-4.992-1.942-4.992-5.194C200.893,107.878,202.729,105.689,205.92,105.689z M207.115,109.979
			c0.079-1.459-0.272-2.188-1.266-2.188c-0.923,0-1.512,0.527-1.679,2.188H207.115z"/>
		<path fill="#030303" d="M211.624,111.183c0-3.394,2.039-5.493,5.106-5.493c0.703,0,1.266,0.114,1.652,0.246l-0.026-1.072v-3.621
			h3.252v14.748h-2.496c-0.325,0-0.483-0.176-0.483-0.475v-0.703c-0.448,0.448-1.354,1.178-3.032,1.178
			C213.461,115.99,211.624,114.435,211.624,111.183z M218.356,113.099v-4.878c-0.272-0.202-0.791-0.281-1.371-0.281
			c-1.143,0-1.942,1.02-1.951,3.085c-0.009,1.872,0.642,2.531,1.679,2.531C217.337,113.556,218.005,113.336,218.356,113.099z"/>
		<path fill="#030303" d="M224.263,102.921c0-0.983,0.905-1.811,1.96-1.811c1.063,0,1.793,0.686,1.793,1.679
			c0,0.984-0.879,1.819-1.942,1.819C225.027,104.608,224.263,103.905,224.263,102.921z M224.412,105.83h3.27v10.021h-3.27V105.83z"
			/>
		<path fill="#030303" d="M234.915,105.689c1.354,0,2.452,0.264,2.769,0.501l-0.369,2.442c-0.387-0.22-0.993-0.412-1.96-0.412
			c-1.037,0-2.197,0.598-2.232,2.486c-0.035,2.065,0.993,2.786,2.259,2.786c0.853,0,1.617-0.158,2.048-0.36l0.396,1.838
			c-0.554,0.57-1.854,1.02-3.146,1.02c-3.313,0-4.852-2.162-4.852-5.054C229.826,108.01,231.408,105.689,234.915,105.689z"/>
		<path fill="#030303" d="M239.538,102.921c0-0.983,0.905-1.811,1.96-1.811c1.063,0,1.793,0.686,1.793,1.679
			c0,0.984-0.879,1.819-1.942,1.819C240.303,104.608,239.538,103.905,239.538,102.921z M239.688,105.83h3.27v10.021h-3.27V105.83z"
			/>
		<path fill="#030303" d="M245.787,105.83h2.971l0.079,1.072c0.747-0.624,2.057-1.213,3.27-1.23
			c2.048-0.044,3.059,0.984,3.059,3.867v6.312h-3.252v-5.73c0-1.459-0.325-1.916-1.274-1.89c-0.475,0-1.16,0.229-1.6,0.649v6.971
			h-3.252L245.787,105.83L245.787,105.83z"/>
		<path fill="#030303" d="M262.258,105.689c2.136,0,4.184,0.853,4.21,4.068c0,0.729-0.044,1.415-0.105,1.847h-5.88
			c0.149,1.494,1.037,2.083,2.505,2.083c0.967,0,2.206-0.246,2.689-0.51l0.501,1.73c-0.659,0.536-2.162,1.081-3.955,1.081
			c-3.234,0-4.992-1.942-4.992-5.194C257.23,107.878,259.067,105.689,262.258,105.689z M263.453,109.979
			c0.079-1.459-0.272-2.188-1.266-2.188c-0.923,0-1.512,0.527-1.679,2.188H263.453z"/>
		<path fill="#030303" d="M274.606,105.83h2.971l0.079,1.072c0.747-0.624,2.057-1.213,3.27-1.23
			c2.048-0.044,3.059,0.984,3.059,3.867v6.312h-3.252v-5.73c0-1.459-0.325-1.916-1.274-1.89c-0.475,0-1.16,0.229-1.6,0.649v6.971
			h-3.252L274.606,105.83L274.606,105.83z"/>
		<path fill="#030303" d="M291.244,105.689c3.709,0,5.036,2.479,4.992,5.353c-0.044,3.218-2.171,4.948-5.177,4.948
			c-3.709,0-5.036-2.479-5.001-5.353C286.111,107.421,288.238,105.689,291.244,105.689z M292.853,110.893
			c0-1.617-0.404-2.944-1.67-2.944c-1.31,0-1.74,0.967-1.74,2.786c0,1.652,0.422,3.015,1.688,3.015
			C292.413,113.749,292.853,112.809,292.853,110.893z"/>
		<path fill="#030303" d="M298.653,107.966h-1.16v-1.723c0.879-0.255,1.459-0.448,1.73-1.011c0.202-0.422,0.476-1.144,0.703-1.688
			h1.979v2.285h2.602v2.136h-2.602v3.568c0,1.872,0.264,2.021,1.16,2.021c0.447,0,1.159-0.186,1.468-0.396l0.387,1.812
			c-0.483,0.457-1.881,1.02-3.34,1.02c-2.153,0-2.927-1.081-2.927-3.261V107.966L298.653,107.966z"/>
		<path fill="#030303" d="M89.711,142.071v3.226H86.45V130.83h3.076v0.977c0.466-0.457,1.345-1.116,2.944-1.116
			c2.145,0,3.999,1.529,3.999,4.781c0,3.393-2.065,5.52-5.133,5.52c-0.712,0-1.274-0.114-1.661-0.246L89.711,142.071z
			 M91.091,138.793c1.143,0,1.942-1.099,1.951-3.129c0.009-1.916-0.642-2.558-1.679-2.558c-0.633,0-1.31,0.255-1.652,0.526v4.8
			C89.975,138.688,90.484,138.793,91.091,138.793z"/>
		<path fill="#030303" d="M98.562,130.83h2.856l0.141,1.608c0.413-1.021,1.529-1.768,2.883-1.768c0.29,0,0.598,0.035,0.729,0.123
			v3.208c-0.167-0.097-0.475-0.236-1.072-0.236c-1.204,0-1.898,0.536-2.276,0.948v6.136h-3.261V130.83z"/>
		<path fill="#030303" d="M111.648,130.689c3.709,0,5.036,2.479,4.992,5.353c-0.044,3.217-2.171,4.948-5.177,4.948
			c-3.709,0-5.036-2.479-5.001-5.353C106.516,132.421,108.643,130.689,111.648,130.689z M113.257,135.893
			c0-1.617-0.404-2.944-1.67-2.944c-1.31,0-1.74,0.967-1.74,2.786c0,1.652,0.422,3.015,1.688,3.015
			C112.817,138.749,113.257,137.809,113.257,135.893z"/>
		<path fill="#030303" d="M117.353,130.83h3.489l1.292,4.368l0.633,2.558l0.589-2.558l1.248-4.368h3.41l-3.753,10.16h-3.111
			L117.353,130.83z"/>
		<path fill="#030303" d="M129.218,127.921c0-0.983,0.905-1.811,1.96-1.811c1.063,0,1.793,0.686,1.793,1.679
			c0,0.984-0.879,1.819-1.942,1.819C129.982,129.608,129.218,128.905,129.218,127.921z M129.367,130.83h3.27v10.021h-3.27V130.83z"
			/>
		<path fill="#030303" d="M134.781,136.183c0-3.394,2.039-5.493,5.106-5.493c0.703,0,1.266,0.114,1.652,0.246l-0.026-1.072v-3.621
			h3.252v14.748h-2.496c-0.325,0-0.483-0.176-0.483-0.475v-0.703c-0.448,0.448-1.354,1.178-3.032,1.178
			C136.618,140.99,134.781,139.435,134.781,136.183z M141.514,138.099v-4.878c-0.272-0.202-0.791-0.281-1.371-0.281
			c-1.143,0-1.942,1.02-1.951,3.085c-0.009,1.872,0.642,2.531,1.679,2.531C140.494,138.556,141.162,138.336,141.514,138.099z"/>
		<path fill="#030303" d="M151.946,130.689c2.136,0,4.184,0.853,4.21,4.068c0,0.729-0.044,1.415-0.105,1.847h-5.88
			c0.149,1.494,1.037,2.083,2.505,2.083c0.967,0,2.206-0.246,2.689-0.51l0.501,1.73c-0.659,0.536-2.162,1.081-3.955,1.081
			c-3.234,0-4.992-1.942-4.992-5.194C146.919,132.878,148.756,130.689,151.946,130.689z M153.142,134.979
			c0.079-1.459-0.272-2.188-1.266-2.188c-0.923,0-1.512,0.527-1.679,2.188H153.142z"/>
		<path fill="#030303" d="M157.65,136.183c0-3.394,2.039-5.493,5.106-5.493c0.703,0,1.266,0.114,1.652,0.246l-0.026-1.072v-3.621
			h3.252v14.748h-2.496c-0.325,0-0.483-0.176-0.483-0.475v-0.703c-0.448,0.448-1.354,1.178-3.032,1.178
			C159.487,140.99,157.65,139.435,157.65,136.183z M164.383,138.099v-4.878c-0.272-0.202-0.791-0.281-1.371-0.281
			c-1.143,0-1.942,1.02-1.951,3.085c-0.009,1.872,0.642,2.531,1.679,2.531C163.363,138.556,164.031,138.336,164.383,138.099z"/>
		<path fill="#030303" d="M176.397,126.251h3.261v3.612l-0.07,1.837c0.492-0.448,1.354-1.011,2.83-1.011
			c2.136,0,3.973,1.529,3.973,4.781c0,3.393-2.092,5.563-5.309,5.563c-2.101,0-4.438-0.545-4.685-0.747V126.251z M181.029,138.846
			c1.116,0,1.951-1.144,1.96-3.183c0.009-1.985-0.694-2.558-1.688-2.558c-0.686,0-1.336,0.29-1.644,0.526v4.913
			C179.843,138.758,180.326,138.846,181.029,138.846z"/>
		<path fill="#030303" d="M189.291,142.818c0.896,0,2.057-0.132,2.514-1.969h-1.248l-3.454-10.021h3.437l1.441,5.273l0.659,2.751
			l0.598-2.751l1.125-5.273h3.41l-3.155,10.257c-0.738,2.399-1.925,3.463-3.199,3.938c-0.439,0.176-1.204,0.281-1.731,0.281
			c-0.264,0-1.38-0.105-1.485-0.177v-2.496C188.395,142.695,188.992,142.818,189.291,142.818z"/>
		<path fill="#030303" d="M205.375,132.966h-1.16v-1.723c0.879-0.255,1.459-0.448,1.731-1.011c0.202-0.422,0.475-1.144,0.703-1.688
			h1.978v2.285h2.602v2.136h-2.602v3.568c0,1.872,0.264,2.021,1.16,2.021c0.448,0,1.16-0.186,1.468-0.396l0.387,1.812
			c-0.483,0.457-1.881,1.02-3.34,1.02c-2.153,0-2.927-1.081-2.927-3.261V132.966z"/>
		<path fill="#030303" d="M213.25,126.242h3.261v3.762l-0.158,1.872c0.668-0.563,1.854-1.187,3.138-1.204
			c2.18-0.044,3.173,1.214,3.173,3.895v6.284h-3.261v-5.73c0-1.529-0.413-1.907-1.292-1.89c-0.404,0.009-1.116,0.167-1.6,0.649
			v6.971h-3.261V126.242z"/>
		<path fill="#030303" d="M229.756,130.689c2.136,0,4.184,0.853,4.21,4.068c0,0.729-0.044,1.415-0.105,1.847h-5.88
			c0.149,1.494,1.037,2.083,2.505,2.083c0.967,0,2.206-0.246,2.689-0.51l0.501,1.73c-0.659,0.536-2.162,1.081-3.955,1.081
			c-3.234,0-4.992-1.942-4.992-5.194C224.729,132.878,226.565,130.689,229.756,130.689z M230.951,134.979
			c0.079-1.459-0.272-2.188-1.266-2.188c-0.923,0-1.512,0.527-1.679,2.188H230.951z"/>
		<path fill="#030303" d="M242.069,126.242h3.261v3.762l-0.158,1.872c0.668-0.563,1.854-1.187,3.138-1.204
			c2.18-0.044,3.173,1.214,3.173,3.895v6.284h-3.261v-5.73c0-1.529-0.413-1.907-1.292-1.89c-0.404,0.009-1.116,0.167-1.6,0.649
			v6.971h-3.261V126.242L242.069,126.242z"/>
		<path fill="#030303" d="M258.575,130.689c2.136,0,4.184,0.853,4.21,4.068c0,0.729-0.044,1.415-0.105,1.847h-5.88
			c0.149,1.494,1.037,2.083,2.505,2.083c0.967,0,2.206-0.246,2.689-0.51l0.501,1.73c-0.659,0.536-2.162,1.081-3.955,1.081
			c-3.234,0-4.992-1.942-4.992-5.194C253.548,132.878,255.385,130.689,258.575,130.689z M259.771,134.979
			c0.079-1.459-0.272-2.188-1.266-2.188c-0.923,0-1.512,0.527-1.679,2.188H259.771z"/>
		<path fill="#030303" d="M266.081,135.251c1.222-0.526,2.839-0.605,4.096-0.605v-0.606c0-0.87-0.325-1.081-1.828-1.081
			c-0.729,0-2.127,0.299-3.023,0.712l-0.659-1.916c0.729-0.438,2.619-1.099,4.403-1.099c3.164,0,4.342,1.021,4.342,3.788v6.548
			h-2.039c-0.668,0-1.028-0.044-1.028-0.914v-0.07c-0.563,0.492-1.45,0.984-2.795,0.984c-1.978,0-3.27-1.336-3.27-3.199
			C264.279,136.613,264.974,135.726,266.081,135.251z M268.911,138.986c0.519,0,1.081-0.229,1.266-0.422v-2.355
			c-0.633,0.01-1.406,0.142-1.758,0.309c-0.378,0.148-0.782,0.396-0.782,1.106C267.637,138.573,268.252,138.986,268.911,138.986z"/>
		<path fill="#030303" d="M276.065,126.242h3.261v14.607h-3.261V126.242z"/>
		<path fill="#030303" d="M282.42,132.966h-1.16v-1.723c0.879-0.255,1.459-0.448,1.731-1.011c0.202-0.422,0.475-1.144,0.703-1.688
			h1.978v2.285h2.602v2.136h-2.602v3.568c0,1.872,0.264,2.021,1.16,2.021c0.448,0,1.16-0.186,1.468-0.396l0.387,1.812
			c-0.483,0.457-1.881,1.02-3.34,1.02c-2.153,0-2.927-1.081-2.927-3.261V132.966L282.42,132.966z"/>
		<path fill="#030303" d="M290.295,126.242h3.261v3.762l-0.158,1.872c0.668-0.563,1.854-1.187,3.138-1.204
			c2.18-0.044,3.173,1.214,3.173,3.895v6.284h-3.261v-5.73c0-1.529-0.413-1.907-1.292-1.89c-0.404,0.009-1.116,0.167-1.6,0.649
			v6.971h-3.261V126.242L290.295,126.242z"/>
		<path fill="#030303" d="M86.31,162.932c0.299,0.246,1.635,0.888,2.962,0.888c1.028,0.009,1.45-0.22,1.45-0.729
			c0-0.545-0.809-0.869-2.171-1.317c-1.846-0.606-2.593-1.626-2.584-3.164c0-1.942,1.872-2.918,4.166-2.918
			c1.635,0,2.769,0.36,3.226,0.615l-0.29,2.284c-0.369-0.315-1.45-0.765-2.417-0.765c-1.125,0-1.529,0.229-1.538,0.687
			c0,0.526,0.483,0.791,2.057,1.282c1.854,0.599,2.769,1.459,2.769,3.016c0,2.083-1.67,3.189-4.228,3.189
			c-1.661,0-3.155-0.466-3.718-0.816L86.31,162.932z"/>
		<path fill="#030303" d="M96.733,167.818c0.896,0,2.057-0.132,2.514-1.969h-1.248l-3.454-10.021h3.437l1.441,5.273l0.659,2.751
			l0.598-2.751l1.125-5.273h3.41l-3.155,10.257c-0.738,2.399-1.925,3.463-3.199,3.938c-0.439,0.176-1.204,0.281-1.731,0.281
			c-0.264,0-1.38-0.105-1.485-0.177v-2.496C95.837,167.695,96.435,167.818,96.733,167.818z"/>
		<path fill="#030303" d="M106.454,162.932c0.299,0.246,1.635,0.888,2.962,0.888c1.028,0.009,1.45-0.22,1.45-0.729
			c0-0.545-0.809-0.869-2.171-1.317c-1.846-0.606-2.593-1.626-2.584-3.164c0-1.942,1.872-2.918,4.166-2.918
			c1.635,0,2.769,0.36,3.226,0.615l-0.29,2.284c-0.369-0.315-1.45-0.765-2.417-0.765c-1.125,0-1.529,0.229-1.538,0.687
			c0,0.526,0.483,0.791,2.057,1.282c1.854,0.599,2.769,1.459,2.769,3.016c0,2.083-1.67,3.189-4.228,3.189
			c-1.661,0-3.155-0.466-3.718-0.816L106.454,162.932z"/>
		<path fill="#030303" d="M116.386,157.966h-1.16v-1.723c0.879-0.255,1.459-0.448,1.731-1.011c0.202-0.422,0.475-1.144,0.703-1.688
			h1.978v2.285h2.602v2.136h-2.602v3.568c0,1.872,0.264,2.021,1.16,2.021c0.448,0,1.16-0.186,1.468-0.396l0.387,1.812
			c-0.483,0.457-1.881,1.02-3.34,1.02c-2.153,0-2.927-1.081-2.927-3.261V157.966L116.386,157.966z"/>
		<path fill="#030303" d="M128.638,155.689c2.136,0,4.184,0.853,4.21,4.068c0,0.729-0.044,1.415-0.105,1.847h-5.88
			c0.149,1.494,1.037,2.083,2.505,2.083c0.967,0,2.206-0.246,2.689-0.51l0.501,1.73c-0.659,0.536-2.162,1.081-3.955,1.081
			c-3.234,0-4.992-1.942-4.992-5.194C123.61,157.878,125.447,155.689,128.638,155.689z M129.833,159.979
			c0.079-1.459-0.272-2.188-1.266-2.188c-0.923,0-1.512,0.527-1.679,2.188H129.833z"/>
		<path fill="#030303" d="M135.027,155.83h2.971l0.079,1.072c0.677-0.563,1.96-1.204,3.27-1.23c1.178-0.025,2.013,0.309,2.505,1.16
			c0.563-0.447,1.819-1.169,3.349-1.16c2.013-0.009,3.226,0.924,3.226,3.858v6.319h-3.261v-5.739c0-1.459-0.299-1.898-1.266-1.881
			c-0.615,0-1.204,0.343-1.547,0.642c0.009,0.202,0.018,0.422,0.018,0.643v6.337h-3.234v-5.73c0-1.45-0.299-1.907-1.248-1.89
			c-0.466,0-1.169,0.229-1.608,0.649v6.971h-3.252V155.83H135.027z"/>
		<path fill="#030303" d="M154.768,162.193c1.107,0,1.793,0.791,1.793,1.846c0.009,1.063-0.835,2.004-1.942,2.004
			c-1.081,0-1.811-0.8-1.819-1.854C152.799,163.135,153.66,162.193,154.768,162.193z"/>
	</g>
	<g>
		<path fill="#030303" d="M760.315,380.261l1.626,0.009c0.913,0,1.827-0.132,3.189-0.132c3.728,0,5.143,1.326,5.143,3.444
			c0,1.415-0.669,2.619-2.005,2.997c1.548,0.186,2.717,1.318,2.717,3.016c0,2.451-1.267,4.175-5.547,4.175
			c-1.238,0-2.706-0.079-3.437-0.123h-1.688v-13.386H760.315z M764.93,385.78c1.425,0,2.153-0.483,2.153-1.89
			c0-1.107-0.817-1.503-2.303-1.503c-0.246,0-0.984,0.025-1.144,0.113v3.208C763.928,385.771,764.622,385.78,764.93,385.78z
			 M765.272,391.581c1.537,0,2.284-0.563,2.284-1.96c0-1.16-0.703-1.774-2.398-1.774c-0.432,0-1.311,0.018-1.521,0.069v3.463
			C763.866,391.528,764.728,391.581,765.272,391.581z"/>
		<path fill="#030303" d="M772.919,383.627h3.261v5.969c0,1.512,0.432,1.854,1.327,1.854c0.606,0,1.195-0.264,1.424-0.466v-7.356
			h3.262v10.16h-2.355c-0.413,0-0.605-0.079-0.605-0.51v-0.422c-0.713,0.545-1.986,0.932-2.918,0.932
			c-2.937,0-3.394-1.802-3.394-4.271L772.919,383.627L772.919,383.627z"/>
		<path fill="#030303" d="M785.769,395.615c0.896,0,2.058-0.132,2.515-1.969h-1.248l-3.454-10.021h3.437l1.441,5.273l0.659,2.751
			l0.598-2.751l1.125-5.273h3.41l-3.155,10.257c-0.737,2.399-1.925,3.464-3.198,3.938c-0.439,0.176-1.204,0.281-1.731,0.281
			c-0.264,0-1.38-0.105-1.485-0.176v-2.496C784.872,395.492,785.47,395.615,785.769,395.615z"/>
		<path fill="#030303" d="M795.479,380.719c0-0.984,0.905-1.812,1.961-1.812c1.063,0,1.793,0.687,1.793,1.679
			c0,0.984-0.879,1.819-1.942,1.819C796.245,382.405,795.479,381.702,795.479,380.719z M795.63,383.627h3.271v10.021h-3.271V383.627
			z"/>
		<path fill="#030303" d="M801.729,383.627h2.971l0.079,1.072c0.747-0.624,2.057-1.213,3.27-1.229
			c2.048-0.045,3.06,0.983,3.06,3.866v6.312h-3.252v-5.73c0-1.459-0.325-1.916-1.274-1.89c-0.475,0-1.16,0.229-1.6,0.65v6.97h-3.252
			L801.729,383.627L801.729,383.627z"/>
		<path fill="#030303" d="M814.518,393.031c-0.545-0.299-0.816-0.861-0.809-1.503c0.009-0.659,0.387-1.503,1.635-2.039
			c-1.273-0.51-2.004-1.459-2.004-2.742c0-2.18,1.67-3.243,4.623-3.252c1.45,0,2.593,0.246,3.394,0.738
			c0.334-0.281,0.939-0.606,1.704-0.606h1.125v2.241h-1.616c0.062,0.255,0.097,0.536,0.097,0.826c0,2.004-1.433,3.234-4.702,3.234
			c-0.352,0-0.686-0.019-1.002-0.054c-0.229,0.211-0.316,0.483-0.316,0.712c0,0.483,0.325,0.65,1.274,0.65h1.986
			c3.129,0,3.964,1.441,3.964,3.041c0,2.654-2.849,3.92-5.695,3.902c-3.56-0.026-5.159-1.195-5.159-3.032
			C813.015,394.271,813.524,393.479,814.518,393.031z M818.341,396.424c1.318,0,2.294-0.412,2.294-1.484
			c0-0.773-0.264-1.389-1.907-1.389h-2.136c-0.167,0.236-0.308,0.57-0.308,1.011C816.284,395.457,816.653,396.424,818.341,396.424z
			 M819.527,386.729c0-1.046-0.501-1.557-1.503-1.557c-0.94,0-1.564,0.353-1.564,1.548c0,0.939,0.501,1.503,1.529,1.503
			C818.903,388.224,819.527,387.916,819.527,386.729z"/>
		<path fill="#030303" d="M836.288,383.486c3.709,0,5.036,2.479,4.992,5.353c-0.044,3.218-2.171,4.948-5.178,4.948
			c-3.709,0-5.035-2.479-5-5.353C831.155,385.219,833.282,383.486,836.288,383.486z M837.896,388.689
			c0-1.617-0.403-2.944-1.67-2.944c-1.31,0-1.739,0.967-1.739,2.786c0,1.652,0.422,3.015,1.688,3.015
			C837.457,391.546,837.896,390.605,837.896,388.689z"/>
		<path fill="#030303" d="M843.987,385.763h-1.258v-1.898l1.258-0.237V382.6c0-2.884,2.048-3.753,3.885-3.753
			c1.02,0,1.705,0.148,1.934,0.201v2.232c-0.22-0.114-0.658-0.22-1.282-0.22c-0.766,0-1.267,0.492-1.267,1.661v0.904h2.171v2.137
			h-2.171v7.884h-3.27V385.763z"/>
		<path fill="#030303" d="M855.721,383.627h3.173l1.028,4.053l0.536,2.628l0.606-2.628l1.187-4.053h2.927l1.179,4.053l0.57,2.628
			l0.527-2.638l0.949-4.043h3.022l-3.155,10.16h-2.855l-1.459-4.931l-0.378-1.881l-0.388,1.881l-1.405,4.931h-2.944L855.721,383.627
			z"/>
		<path fill="#030303" d="M877.184,383.486c2.137,0,4.185,0.853,4.21,4.069c0,0.729-0.044,1.415-0.104,1.846h-5.88
			c0.148,1.494,1.037,2.083,2.505,2.083c0.967,0,2.206-0.246,2.689-0.51l0.501,1.73c-0.659,0.536-2.162,1.081-3.955,1.081
			c-3.234,0-4.992-1.941-4.992-5.194C872.156,385.675,873.993,383.486,877.184,383.486z M878.379,387.775
			c0.079-1.459-0.271-2.188-1.266-2.188c-0.923,0-1.513,0.527-1.68,2.188H878.379z"/>
		<path fill="#030303" d="M884.689,388.048c1.222-0.526,2.839-0.605,4.096-0.605v-0.606c0-0.869-0.325-1.081-1.828-1.081
			c-0.729,0-2.127,0.3-3.023,0.713l-0.658-1.916c0.729-0.439,2.618-1.1,4.402-1.1c3.164,0,4.343,1.021,4.343,3.788v6.548h-2.039
			c-0.668,0-1.028-0.044-1.028-0.914v-0.069c-0.563,0.491-1.45,0.983-2.795,0.983c-1.979,0-3.271-1.336-3.271-3.199
			C882.888,389.41,883.582,388.522,884.689,388.048z M887.521,391.783c0.519,0,1.08-0.229,1.266-0.422v-2.355
			c-0.633,0.01-1.406,0.142-1.758,0.309c-0.378,0.148-0.782,0.396-0.782,1.106C886.245,391.37,886.86,391.783,887.521,391.783z"/>
		<path fill="#030303" d="M897.899,394.868v3.227h-3.262v-14.468h3.076v0.977c0.466-0.457,1.345-1.116,2.944-1.116
			c2.145,0,3.999,1.529,3.999,4.781c0,3.393-2.065,5.52-5.133,5.52c-0.713,0-1.274-0.114-1.661-0.246L897.899,394.868z
			 M899.279,391.59c1.143,0,1.941-1.099,1.95-3.129c0.01-1.916-0.642-2.558-1.679-2.558c-0.633,0-1.31,0.255-1.651,0.527v4.799
			C898.163,391.484,898.673,391.59,899.279,391.59z"/>
		<path fill="#030303" d="M911.347,383.486c3.709,0,5.036,2.479,4.992,5.353c-0.044,3.218-2.171,4.948-5.177,4.948
			c-3.709,0-5.036-2.479-5.001-5.353C906.214,385.219,908.341,383.486,911.347,383.486z M912.955,388.689
			c0-1.617-0.404-2.944-1.67-2.944c-1.31,0-1.74,0.967-1.74,2.786c0,1.652,0.422,3.015,1.688,3.015
			C912.516,391.546,912.955,390.605,912.955,388.689z"/>
		<path fill="#030303" d="M918.527,383.627h2.971l0.079,1.072c0.747-0.624,2.057-1.213,3.27-1.229
			c2.049-0.045,3.06,0.983,3.06,3.866v6.312h-3.252v-5.73c0-1.459-0.325-1.916-1.274-1.89c-0.475,0-1.16,0.229-1.6,0.65v6.97h-3.252
			L918.527,383.627L918.527,383.627z"/>
		<path fill="#030303" d="M930.479,390.729c0.3,0.246,1.636,0.888,2.963,0.888c1.027,0.009,1.449-0.22,1.449-0.729
			c0-0.545-0.809-0.87-2.171-1.318c-1.846-0.606-2.593-1.626-2.584-3.164c0-1.942,1.872-2.918,4.166-2.918
			c1.636,0,2.77,0.36,3.227,0.615l-0.29,2.285c-0.369-0.316-1.45-0.766-2.417-0.766c-1.125,0-1.529,0.229-1.538,0.687
			c0,0.526,0.482,0.791,2.057,1.282c1.854,0.599,2.77,1.46,2.77,3.016c0,2.083-1.67,3.189-4.229,3.189
			c-1.661,0-3.155-0.466-3.718-0.816L930.479,390.729z"/>
		<path fill="#030303" d="M775.811,413.048c1.223-0.526,2.84-0.605,4.097-0.605v-0.606c0-0.869-0.325-1.081-1.828-1.081
			c-0.729,0-2.127,0.3-3.023,0.713l-0.658-1.916c0.729-0.439,2.618-1.1,4.402-1.1c3.164,0,4.342,1.021,4.342,3.788v6.548h-2.039
			c-0.668,0-1.027-0.044-1.027-0.914v-0.069c-0.563,0.491-1.45,0.983-2.795,0.983c-1.979,0-3.271-1.336-3.271-3.199
			C774.009,414.41,774.703,413.522,775.811,413.048z M778.641,416.783c0.52,0,1.081-0.229,1.267-0.422v-2.355
			c-0.633,0.01-1.406,0.142-1.758,0.309c-0.379,0.148-0.782,0.396-0.782,1.106C777.366,416.37,777.981,416.783,778.641,416.783z"/>
		<path fill="#030303" d="M785.795,408.627h2.971l0.079,1.072c0.747-0.624,2.058-1.213,3.271-1.229
			c2.048-0.045,3.059,0.983,3.059,3.866v6.312h-3.252v-5.73c0-1.459-0.325-1.916-1.273-1.89c-0.476,0-1.16,0.229-1.601,0.65v6.97
			h-3.252L785.795,408.627L785.795,408.627z"/>
		<path fill="#030303" d="M797.238,413.979c0-3.394,2.039-5.493,5.105-5.493c0.703,0,1.267,0.114,1.652,0.246l-0.026-1.072v-3.621
			h3.252v14.748h-2.496c-0.324,0-0.482-0.176-0.482-0.475v-0.703c-0.448,0.448-1.354,1.178-3.032,1.178
			C799.075,418.787,797.238,417.231,797.238,413.979z M803.971,415.896v-4.878c-0.271-0.202-0.791-0.281-1.371-0.281
			c-1.143,0-1.941,1.02-1.95,3.085c-0.01,1.872,0.642,2.531,1.679,2.531C802.951,416.353,803.619,416.133,803.971,415.896z"/>
		<path fill="#030303" d="M815.836,405.719c0-0.984,0.905-1.812,1.96-1.812c1.063,0,1.793,0.687,1.793,1.679
			c0,0.984-0.879,1.819-1.941,1.819C816.601,407.405,815.836,406.702,815.836,405.719z M815.985,408.627h3.27v10.021h-3.27V408.627z
			"/>
		<path fill="#030303" d="M822.085,404.039h3.261v14.607h-3.261V404.039z"/>
		<path fill="#030303" d="M828.211,404.039h3.261v14.607h-3.261V404.039z"/>
		<path fill="#030303" d="M838.679,408.486c2.137,0,4.185,0.853,4.21,4.069c0,0.729-0.044,1.415-0.104,1.846h-5.88
			c0.148,1.494,1.037,2.083,2.505,2.083c0.967,0,2.206-0.246,2.688-0.51l0.501,1.73c-0.658,0.536-2.161,1.081-3.955,1.081
			c-3.233,0-4.991-1.941-4.991-5.194C833.651,410.675,835.488,408.486,838.679,408.486z M839.874,412.775
			c0.079-1.459-0.271-2.188-1.266-2.188c-0.924,0-1.513,0.527-1.68,2.188H839.874z"/>
		<path fill="#030303" d="M845.728,418.031c-0.545-0.299-0.816-0.861-0.809-1.503c0.009-0.659,0.387-1.503,1.635-2.039
			c-1.273-0.51-2.004-1.459-2.004-2.742c0-2.18,1.67-3.243,4.623-3.252c1.45,0,2.593,0.246,3.394,0.738
			c0.334-0.281,0.939-0.606,1.704-0.606h1.125v2.241h-1.616c0.062,0.255,0.097,0.536,0.097,0.826c0,2.004-1.433,3.234-4.702,3.234
			c-0.352,0-0.686-0.019-1.002-0.054c-0.229,0.211-0.315,0.483-0.315,0.712c0,0.483,0.324,0.65,1.273,0.65h1.986
			c3.129,0,3.964,1.441,3.964,3.041c0,2.654-2.849,3.92-5.695,3.902c-3.56-0.026-5.159-1.195-5.159-3.032
			C844.225,419.271,844.734,418.479,845.728,418.031z M849.551,421.425c1.318,0,2.294-0.413,2.294-1.485
			c0-0.773-0.264-1.389-1.906-1.389h-2.137c-0.167,0.236-0.308,0.57-0.308,1.011C847.494,420.457,847.863,421.425,849.551,421.425z
			 M850.737,411.729c0-1.046-0.501-1.557-1.503-1.557c-0.94,0-1.564,0.353-1.564,1.548c0,0.939,0.501,1.503,1.529,1.503
			C850.113,413.224,850.737,412.916,850.737,411.729z"/>
		<path fill="#030303" d="M858.146,413.048c1.223-0.526,2.84-0.605,4.097-0.605v-0.606c0-0.869-0.325-1.081-1.828-1.081
			c-0.729,0-2.127,0.3-3.023,0.713l-0.658-1.916c0.729-0.439,2.618-1.1,4.402-1.1c3.164,0,4.342,1.021,4.342,3.788v6.548h-2.038
			c-0.669,0-1.028-0.044-1.028-0.914v-0.069c-0.563,0.491-1.45,0.983-2.795,0.983c-1.979,0-3.271-1.336-3.271-3.199
			C856.345,414.41,857.039,413.522,858.146,413.048z M860.977,416.783c0.52,0,1.081-0.229,1.267-0.422v-2.355
			c-0.633,0.01-1.406,0.142-1.758,0.309c-0.378,0.148-0.782,0.396-0.782,1.106C859.702,416.37,860.317,416.783,860.977,416.783z"/>
		<path fill="#030303" d="M868.131,404.039h3.261v14.607h-3.261V404.039z"/>
		<path fill="#030303" d="M879.53,413.979c0-3.394,2.039-5.493,5.105-5.493c0.703,0,1.267,0.114,1.652,0.246l-0.026-1.072v-3.621
			h3.252v14.748h-2.495c-0.325,0-0.483-0.176-0.483-0.475v-0.703c-0.448,0.448-1.354,1.178-3.032,1.178
			C881.367,418.787,879.53,417.231,879.53,413.979z M886.263,415.896v-4.878c-0.271-0.202-0.791-0.281-1.371-0.281
			c-1.143,0-1.941,1.02-1.95,3.085c-0.01,1.872,0.642,2.531,1.679,2.531C885.243,416.353,885.911,416.133,886.263,415.896z"/>
		<path fill="#030303" d="M892.266,408.627h2.856l0.141,1.608c0.413-1.021,1.529-1.767,2.883-1.767c0.29,0,0.599,0.034,0.729,0.122
			v3.208c-0.167-0.097-0.475-0.236-1.072-0.236c-1.204,0-1.897,0.536-2.275,0.949v6.135h-3.262V408.627z"/>
		<path fill="#030303" d="M900.687,408.627h3.261v5.969c0,1.512,0.431,1.854,1.327,1.854c0.605,0,1.194-0.264,1.424-0.466v-7.356
			h3.261v10.16h-2.354c-0.414,0-0.606-0.079-0.606-0.51v-0.422c-0.712,0.545-1.986,0.932-2.918,0.932
			c-2.937,0-3.394-1.802-3.394-4.271V408.627L900.687,408.627z"/>
		<path fill="#030303" d="M913.474,418.031c-0.545-0.299-0.816-0.861-0.809-1.503c0.009-0.659,0.387-1.503,1.635-2.039
			c-1.273-0.51-2.004-1.459-2.004-2.742c0-2.18,1.67-3.243,4.623-3.252c1.45,0,2.593,0.246,3.393,0.738
			c0.334-0.281,0.94-0.606,1.705-0.606h1.125v2.241h-1.617c0.063,0.255,0.098,0.536,0.098,0.826c0,2.004-1.434,3.234-4.702,3.234
			c-0.353,0-0.687-0.019-1.002-0.054c-0.229,0.211-0.316,0.483-0.316,0.712c0,0.483,0.325,0.65,1.274,0.65h1.986
			c3.129,0,3.964,1.441,3.964,3.041c0,2.654-2.849,3.92-5.695,3.902c-3.56-0.026-5.159-1.195-5.159-3.032
			C911.971,419.271,912.479,418.479,913.474,418.031z M917.297,421.425c1.318,0,2.294-0.413,2.294-1.485
			c0-0.773-0.264-1.389-1.906-1.389h-2.137c-0.167,0.236-0.308,0.57-0.308,1.011C915.24,420.457,915.609,421.425,917.297,421.425z
			 M918.483,411.729c0-1.046-0.502-1.557-1.504-1.557c-0.939,0-1.563,0.353-1.563,1.548c0,0.939,0.501,1.503,1.529,1.503
			C917.859,413.224,918.483,412.916,918.483,411.729z"/>
		<path fill="#030303" d="M924.601,415.729c0.3,0.246,1.636,0.888,2.963,0.888c1.027,0.009,1.449-0.22,1.449-0.729
			c0-0.545-0.809-0.87-2.171-1.318c-1.846-0.606-2.593-1.626-2.584-3.164c0-1.942,1.872-2.918,4.166-2.918
			c1.636,0,2.77,0.36,3.227,0.615l-0.29,2.285c-0.369-0.316-1.45-0.766-2.417-0.766c-1.125,0-1.529,0.229-1.538,0.687
			c0,0.526,0.482,0.791,2.057,1.282c1.854,0.599,2.77,1.46,2.77,3.016c0,2.083-1.67,3.189-4.229,3.189
			c-1.661,0-3.155-0.466-3.718-0.816L924.601,415.729z"/>
		<path fill="#030303" d="M935.896,414.99c1.106,0,1.793,0.791,1.793,1.846c0.009,1.063-0.836,2.004-1.942,2.004
			c-1.081,0-1.812-0.8-1.819-1.854C933.926,415.931,934.787,414.99,935.896,414.99z"/>
	</g>
</g>
</svg>
