<?xml version="1.0" encoding="utf-8"?>
<!-- Generator: Adobe Illustrator 16.0.0, SVG Export Plug-In . SVG Version: 6.00 Build 0)  -->
<!DOCTYPE svg PUBLIC "-//W3C//DTD SVG 1.1//EN" "http://www.w3.org/Graphics/SVG/1.1/DTD/svg11.dtd">
<svg version="1.1" id="Layer_1" xmlns="http://www.w3.org/2000/svg" xmlns:xlink="http://www.w3.org/1999/xlink" x="0px" y="0px"
	 width="1365.834px" height="768.002px" viewBox="0 0 1365.834 768.002" enable-background="new 0 0 1365.834 768.002"
	 xml:space="preserve">
<g id="fotoc">
	<g>
		<g>
			<g>
				<defs>
					<rect id="SVGID_1_" x="-0.083" y="0" width="683" height="768.002"/>
				</defs>
				<clipPath id="SVGID_2_">
					<use xlink:href="#SVGID_1_"  overflow="visible"/>
				</clipPath>
				<g clip-path="url(#SVGID_2_)">
					
						<image overflow="visible" enable-background="new    " width="960" height="1440" xlink:href="1_1a.jpg"  transform="matrix(0.7113 0 0 0.7113 4.882813e-004 -7.324219e-004)">
					</image>
				</g>
			</g>
		</g>
	</g>
	<g>
		<g>
			<g>
				<defs>
					<rect id="SVGID_3_" x="682.834" y="0" width="683" height="768.002"/>
				</defs>
				<clipPath id="SVGID_4_">
					<use xlink:href="#SVGID_3_"  overflow="visible"/>
				</clipPath>
				<g clip-path="url(#SVGID_4_)">
					
						<image overflow="visible" enable-background="new    " width="960" height="1440" xlink:href="1_2.jpg"  transform="matrix(0.7115 0 0 0.7115 682.999 -0.0037)">
					</image>
				</g>
			</g>
		</g>
	</g>
</g>
<g id="fotog" display="none">
	<g display="inline">
		<g>
			<g>
				<defs>
					<rect id="SVGID_5_" x="-0.083" y="0" width="683" height="768.002"/>
				</defs>
				<clipPath id="SVGID_6_">
					<use xlink:href="#SVGID_5_"  overflow="visible"/>
				</clipPath>
				<g clip-path="url(#SVGID_6_)">
					
						<image overflow="visible" enable-background="new    " width="960" height="1440" xlink:href="1_1b.jpg"  transform="matrix(0.7113 0 0 0.7113 0.0024 0.1262)">
					</image>
				</g>
			</g>
		</g>
	</g>
</g>
<g id="testi_fissi">
	<rect x="251.834" y="97.11" fill="#FFFFFF" width="227.167" height="24.966"/>
	<rect x="251.834" y="122.075" fill="#FFFFFF" width="227.167" height="24.964"/>
	<rect x="251.834" y="147.04" fill="#FFFFFF" width="80.667" height="24.965"/>
	<rect x="940.751" y="400.111" fill="#FFFFFF" width="173.743" height="24.965"/>
	<rect x="925.751" y="375.146" fill="#FFFFFF" width="188.743" height="24.965"/>
	<g>
		<g>
			<g>
				<rect x="561.335" y="359.416" fill="#FFFFFF" width="245.497" height="39.247"/>
			</g>
			<g>
				<rect x="614.888" y="393.988" fill="#FFFFFF" width="138.393" height="39.247"/>
			</g>
			<g>
				<rect x="570.668" y="429.321" fill="#FFFFFF" width="226.829" height="39.247"/>
			</g>
			<g>
				<path fill="#030303" d="M570.979,368.316h2.195l2.141,16.056l0.586,3.926l1.26-3.794l5.156-12.876l-0.337-3.312h2.107
					l1.599,16.056l0.293,3.926l1.448-3.794l6.489-16.188h2.229l-9.479,22.56h-2.256l-1.304-12.599l-0.266-3.457l-1.229,3.457
					l-4.98,12.599h-2.271L570.979,368.316z"/>
				<path fill="#030303" d="M596.365,381.749c-0.146-7.777,4.351-13.683,10.269-13.683c4.702,0,7.046,4.175,7.134,9.243
					c0.134,7.632-4.114,13.667-10.181,13.667C598.943,390.978,596.467,386.993,596.365,381.749z M611.467,377.721
					c-0.088-5.156-1.758-7.896-5.186-7.896c-4.482,0-7.705,5.36-7.617,11.483c0.073,5.36,1.948,7.969,5.271,7.969
					C608.435,389.278,611.584,384.005,611.467,377.721z"/>
				<path fill="#030303" d="M617.341,382.042l1.743-13.727h2.197l-1.687,13.346c-0.132,1.055-0.188,1.963-0.176,2.798
					c0.061,2.943,1.538,4.718,4.614,4.718c3.589,0,5.625-2.124,6.355-7.822l1.643-13.037h2.151l-1.67,13.229
					c-0.894,6.914-3.75,9.435-8.789,9.435c-4.275,0-6.487-2.389-6.563-6.432C617.151,383.785,617.239,382.906,617.341,382.042z"/>
				<path fill="#030303" d="M639.431,368.316h2.197l-2.593,20.565l8.687-0.06l-0.232,1.904h-10.884L639.431,368.316z"/>
				<path fill="#030303" d="M653.757,368.316h1.274c1.421-0.015,3.223-0.233,4.702-0.233c5.962,0,8.362,3.706,8.438,9.142
					c0.104,7.749-4.48,13.916-11.367,13.739c-0.41-0.016-1.201-0.06-1.653-0.104c-0.659-0.059-2.271-0.132-3.093-0.132h-1.128
					L653.757,368.316z M657.332,389.278c5.742-0.132,8.613-6.021,8.555-11.88c-0.073-5.332-1.948-7.676-6.782-7.676
					c-1.011,0-2.432,0.146-3.367,0.277l-2.373,18.896C654.534,389.103,656.116,389.308,657.332,389.278z"/>
				<path fill="#030303" d="M681.384,368.316h2.212l-2.827,22.412h-2.212L681.384,368.316z"/>
				<path fill="#030303" d="M693.44,369.942l-6.606,0.132l0.249-1.758h15.293l-0.249,1.758l-6.489-0.132l-2.622,20.786h-2.195
					L693.44,369.942z"/>
				<path fill="#030303" d="M718.533,368.316h2.461l4.231,22.412h-2.195l-1.113-6.313h-8.994l-2.942,6.313h-2.358L718.533,368.316z
					 M721.624,382.73l-1.89-10.752l-0.222-1.686l-0.806,1.743l-4.995,10.692L721.624,382.73L721.624,382.73z"/>
				<path fill="#030303" d="M731.482,368.316h2.195l-2.593,20.565l8.688-0.06l-0.233,1.904h-10.884L731.482,368.316z"/>
				<path fill="#030303" d="M745.808,368.316h2.197l-2.593,20.565l8.687-0.06l-0.232,1.904h-10.884L745.808,368.316z"/>
				<path fill="#030303" d="M767.239,368.316h1.201c1.377-0.015,2.825-0.233,4.319-0.233c5.068,0,6.521,2.329,6.563,4.806
					c0.059,3.192-1.816,5.316-4.688,6.123c2.461,0.277,4.526,2.007,4.57,4.54c0.088,5.317-4.204,7.384-9.858,7.384
					c-1.128,0-2.869-0.205-3.91-0.205h-1.024L767.239,368.316z M769.832,389.352c3.94,0,7.075-1.393,7.031-5.537
					c-0.044-2.622-2.053-3.911-5.056-3.911c-2.035,0-3.091,0.044-3.838,0.089l-1.143,9.081
					C767.444,389.249,769.246,389.352,769.832,389.352z M771.604,378.321c3.074,0,5.552-1.831,5.508-5.186
					c-0.029-2.229-1.333-3.517-4.863-3.517c-0.439,0-2.095,0.088-3.003,0.189l-1.069,8.511
					C769.216,378.365,770.549,378.321,771.604,378.321z"/>
				<path fill="#030303" d="M785.403,368.316h11.072l-0.088,1.758l-8.994-0.103l-1.067,8.48l6.941-0.089l-0.132,1.86l-7.017-0.161
					l-1.145,8.994l10.796-0.19l-0.159,1.86h-13.037L785.403,368.316z"/>
				<path fill="#030303" d="M624.937,403.316h1.289c1.611,0,2.915-0.233,4.497-0.233c4.233,0,6.638,1.815,6.694,5.697
					c0.104,5.758-3.662,9.243-8.994,9.243c-1.362,0-2.666-0.146-3.104-0.205l-1.013,7.91h-2.195L624.937,403.316z M628.497,416.28
					c4.38-0.028,6.636-2.622,6.694-7.295c0.027-2.782-1.555-4.248-4.807-4.248c-0.938,0-2.444,0.161-3.472,0.293l-1.377,11.001
					C626.138,416.148,627.574,416.295,628.497,416.28z"/>
				<path fill="#030303" d="M639.263,416.749c-0.146-7.777,4.353-13.683,10.271-13.683c4.702,0,7.046,4.175,7.134,9.243
					c0.132,7.632-4.116,13.667-10.181,13.667C641.841,425.978,639.366,421.992,639.263,416.749z M654.366,412.721
					c-0.088-5.156-1.758-7.896-5.188-7.896c-4.48,0-7.705,5.36-7.615,11.483c0.071,5.361,1.946,7.969,5.271,7.969
					C651.333,424.278,654.483,419.005,654.366,412.721z"/>
				<path fill="#030303" d="M658.848,422.857c0.559,0.586,2.798,1.377,4.923,1.377c2.694,0,5.243-1.157,5.243-3.983
					c0-2.036-1.272-3.34-3.56-4.818c-2.168-1.406-4.85-3.193-4.907-6.563c-0.073-3.678,2.856-5.802,6.709-5.802
					c2.9,0,4.365,0.747,5.068,1.245l-0.703,1.699c-0.835-0.835-2.637-1.245-4.219-1.245c-1.804,0-4.558,0.586-4.646,3.529
					c-0.073,2.666,1.626,3.81,3.999,5.376c2.08,1.362,4.497,2.988,4.558,6.035c0.071,4.132-3.237,6.256-7.589,6.256
					c-2.489,0-4.834-0.764-5.492-1.306L658.848,422.857z"/>
				<path fill="#030303" d="M674.141,422.857c0.559,0.586,2.798,1.377,4.923,1.377c2.694,0,5.243-1.157,5.243-3.983
					c0-2.036-1.272-3.34-3.56-4.818c-2.168-1.406-4.85-3.193-4.907-6.563c-0.073-3.678,2.856-5.802,6.709-5.802
					c2.9,0,4.365,0.747,5.068,1.245l-0.703,1.699c-0.835-0.835-2.637-1.245-4.219-1.245c-1.804,0-4.558,0.586-4.646,3.529
					c-0.073,2.666,1.626,3.81,3.999,5.376c2.08,1.362,4.497,2.988,4.558,6.035c0.071,4.132-3.237,6.256-7.589,6.256
					c-2.489,0-4.834-0.764-5.492-1.306L674.141,422.857z"/>
				<path fill="#030303" d="M693.345,403.316h2.212l-2.827,22.412h-2.212L693.345,403.316z"/>
				<path fill="#030303" d="M701.373,403.316h1.201c1.377-0.015,2.827-0.233,4.319-0.233c5.068,0,6.521,2.329,6.563,4.806
					c0.059,3.192-1.816,5.316-4.688,6.123c2.463,0.277,4.526,2.007,4.57,4.54c0.088,5.316-4.204,7.384-9.856,7.384
					c-1.128,0-2.871-0.205-3.911-0.205h-1.025L701.373,403.316z M703.965,424.352c3.94,0,7.075-1.392,7.031-5.537
					c-0.044-2.622-2.051-3.911-5.054-3.911c-2.036,0-3.093,0.044-3.838,0.089l-1.145,9.081
					C701.578,424.249,703.379,424.352,703.965,424.352z M705.738,413.321c3.075,0,5.552-1.831,5.508-5.186
					c-0.029-2.229-1.333-3.517-4.863-3.517c-0.438,0-2.095,0.088-3.003,0.189l-1.068,8.511
					C703.35,413.365,704.683,413.321,705.738,413.321z"/>
				<path fill="#030303" d="M719.537,403.316h2.197l-2.595,20.566l8.688-0.061l-0.234,1.904H716.71L719.537,403.316z"/>
				<path fill="#030303" d="M733.863,403.316h11.072l-0.088,1.758l-8.994-0.103l-1.067,8.48l6.941-0.089l-0.132,1.86l-7.017-0.161
					l-1.145,8.994l10.797-0.19l-0.16,1.86h-13.037L733.863,403.316z"/>
				<path fill="#030303" d="M577.732,438.316h5.229l0.864,14.355l0.293,3.252l0.996-3.252l3.765-9.392l-0.526-4.966h5.055
					l0.879,14.355l0.337,3.252l0.776-3.252l4.893-14.355h5.332l-8.716,22.412h-6.05l-0.835-7.998l-0.266-2.446l-0.894,2.446
					l-2.931,7.998h-5.492L577.732,438.316z"/>
				<path fill="#030303" d="M607.366,438.316h5.186l-3.208,22.412h-5.186L607.366,438.316z"/>
				<path fill="#030303" d="M620.315,442.184l-5.261,0.161l0.646-4.028h15.63l-0.586,4.028l-5.156-0.161l-2.65,18.545h-5.272
					L620.315,442.184z"/>
				<path fill="#030303" d="M634.041,438.316h5.186l-1.392,9.727h7.061l1.394-9.727h5.244l-3.208,22.412h-5.244l1.304-9.111h-7.061
					l-1.306,9.111h-5.186L634.041,438.316z"/>
				<path fill="#030303" d="M663.953,438.081c5.303,0,7.954,4.016,7.954,8.789c0,7.634-4.104,14.094-10.928,14.094
					c-5.405,0-8.088-3.94-8.088-8.701C652.893,444.615,657.039,438.081,663.953,438.081z M666.575,447.031
					c0-3.882-1.113-5.054-3.18-5.054c-3.268,0-5.172,5.552-5.172,10.02c0,3.884,1.113,5.068,3.164,5.068
					C664.656,457.066,666.575,451.646,666.575,447.031z"/>
				<path fill="#030303" d="M674.221,451.983l1.948-13.667h5.171l-1.846,13.008c-0.146,1.069-0.161,1.979-0.161,2.813
					c0.015,2.196,0.791,2.854,2.9,2.854c2.388,0,3.528-1.229,4.175-5.552l1.858-13.125h5.156l-1.902,13.667
					c-0.908,6.489-3.854,8.979-10.078,8.979c-5.112,0-7.397-2.521-7.412-6.563C674.016,453.639,674.089,452.848,674.221,451.983z"/>
				<path fill="#030303" d="M700.691,442.184l-5.261,0.161l0.646-4.028h15.63l-0.586,4.028l-5.156-0.161l-2.649,18.545h-5.273
					L700.691,442.184z"/>
				<path fill="#030303" d="M724.685,442.184l-5.259,0.161l0.646-4.028h15.63l-0.586,4.028l-5.156-0.161l-2.651,18.545h-5.271
					L724.685,442.184z"/>
				<path fill="#030303" d="M746.35,438.081c5.305,0,7.954,4.016,7.954,8.789c0,7.634-4.102,14.094-10.928,14.094
					c-5.405,0-8.086-3.94-8.086-8.701C735.291,444.615,739.436,438.081,746.35,438.081z M748.972,447.031
					c0-3.882-1.111-5.054-3.179-5.054c-3.267,0-5.171,5.552-5.171,10.02c0,3.884,1.113,5.068,3.164,5.068
					C747.053,457.066,748.972,451.646,748.972,447.031z"/>
				<path fill="#030303" d="M758.992,438.316h2.959c1.743,0,2.313-0.234,4.231-0.234c5.847,0,8.027,2.097,8.027,5.759
					c0,3.354-1.304,6.431-4.79,7.5c0.82,0.688,1.567,2.139,2.065,4.014c1.244,3.838,1.465,4.556,2.035,5.376h-5.741
					c-0.366-0.527-0.559-1.787-1.274-4.482c-0.63-2.563-1.509-3.909-1.978-3.909h-2.302l-1.244,8.394h-5.187L758.992,438.316z
					 M765.627,448.351c2.798,0,3.589-2.52,3.53-4.263c-0.073-1.892-1.289-2.402-3.474-2.402c-0.688,0-1.581,0.073-2.007,0.146
					l-0.906,6.477C763.562,448.351,765.012,448.351,765.627,448.351z"/>
				<path fill="#030303" d="M777.727,450.371c0-1.741,0.659-2.854,3.691-4.363c2.271-1.013,3.413-1.948,3.823-2.607
					c0.103-0.293,0.337-1.128,0.337-1.858c0-1.643-1.699-3.049-4.453-3.049c-1.055,0-1.992,0.073-3.032,0.337l0.82-3.367
					c0.498-0.439,1.992-0.776,3.147-0.776c5.698,0,8.22,2.725,8.22,6.313c0,7.104-8.657,6.682-8.657,10.211
					c0,0.702,0.498,1.405,0.601,1.771l-2.444,0.967l-0.249-0.015C778.665,453.33,777.727,451.72,777.727,450.371z M782.268,455.777
					c1.729,0,2.358,1.011,2.358,2.185c0,1.919-1.23,3.191-3.12,3.191c-1.421,0-2.285-0.923-2.285-2.227
					C779.221,457.285,780.378,455.777,782.268,455.777z"/>
			</g>
		</g>
	</g>
	<g>
		<g>
			<rect x="616.377" y="301.625" fill="#030303" width="133.516" height="47.789"/>
		</g>
		<g>
			<path fill="#FFFFFF" d="M626.717,308.351h8.042l-0.394,2.58l-4.692-0.037l-0.498,3.49l4.019-0.057l-0.339,2.729l-4.055-0.064
				l-0.814,5.715h-3.322L626.717,308.351z"/>
			<path fill="#FFFFFF" d="M636.85,308.351h1.896c1.117,0,1.48-0.149,2.712-0.149c3.744,0,5.143,1.342,5.143,3.688
				c0,2.148-0.835,4.12-3.067,4.805c0.523,0.441,1.004,1.37,1.321,2.571c0.8,2.459,0.938,2.919,1.306,3.443h-3.678
				c-0.235-0.338-0.357-1.146-0.816-2.871c-0.404-1.644-0.967-2.506-1.267-2.506h-1.475l-0.798,5.377h-3.322L636.85,308.351z
				 M641.102,314.778c1.792,0,2.301-1.613,2.263-2.729c-0.047-1.211-0.826-1.538-2.226-1.538c-0.439,0-1.013,0.047-1.286,0.094
				l-0.581,4.146C639.778,314.778,640.707,314.778,641.102,314.778z"/>
			<path fill="#FFFFFF" d="M649.482,308.351h8.575l-0.347,2.58l-5.272-0.02l-0.451,3.161l3.932-0.047l-0.338,2.592l-3.951-0.086
				l-0.516,3.642l5.938-0.094l-0.347,2.628h-9.281L649.482,308.351z"/>
			<path fill="#FFFFFF" d="M660.79,308.351h8.577l-0.347,2.58l-5.274-0.02l-0.451,3.161l3.933-0.047l-0.339,2.592l-3.949-0.086
				l-0.518,3.642l5.94-0.094l-0.349,2.628h-9.279L660.79,308.351z"/>
			<path fill="#FFFFFF" d="M672.097,308.351h1.464c0.799,0,2.77-0.149,3.633-0.149c3.97,0,5.452,2.337,5.452,5.762
				c0,4.646-2.554,8.896-7.938,8.896c-0.347,0-0.826-0.027-1.352-0.065c-0.646-0.037-1.369-0.084-1.962-0.084h-1.351
				L672.097,308.351z M675.175,320.428c2.771,0,4.055-2.976,4.055-6.514c0-2.607-0.854-3.267-2.723-3.267
				c-0.394,0-1.06,0.047-1.436,0.122l-1.353,9.459C674.096,320.353,674.603,320.428,675.175,320.428z"/>
			<path fill="#FFFFFF" d="M690.435,308.2c3.396,0,5.098,2.57,5.098,5.631c0,4.89-2.628,9.026-7.001,9.026
				c-3.463,0-5.182-2.523-5.182-5.573C683.35,312.386,686.005,308.2,690.435,308.2z M692.115,313.934
				c0-2.486-0.713-3.237-2.037-3.237c-2.092,0-3.313,3.558-3.313,6.419c0,2.486,0.716,3.247,2.027,3.247
				C690.885,320.362,692.115,316.89,692.115,313.934z"/>
			<path fill="#FFFFFF" d="M699.463,308.351h4.833l0.638,9.881l0.059,2.111l0.45-2.111l3.332-9.881h4.852l-0.226,14.356h-3.313
				l0.836-10.688l0.254-2.196l-0.693,2.196l-4.103,10.717l-3.649,0.142l-1.125-10.856l-0.021-2.195l-0.449,2.195l-2.328,10.688
				h-3.273L699.463,308.351z"/>
			<path fill="#FFFFFF" d="M726.751,308.2c3.396,0,5.096,2.57,5.096,5.631c0,4.89-2.627,9.026-7,9.026
				c-3.463,0-5.181-2.523-5.181-5.573C719.667,312.386,722.322,308.2,726.751,308.2z M728.431,313.934
				c0-2.486-0.713-3.237-2.034-3.237c-2.095,0-3.313,3.558-3.313,6.419c0,2.486,0.714,3.247,2.026,3.247
				C727.203,320.362,728.431,316.89,728.431,313.934z"/>
			<path fill="#FFFFFF" d="M734.871,308.351h8.041l-0.396,2.58l-4.69-0.037l-0.497,3.49l4.017-0.057l-0.338,2.729l-4.055-0.064
				l-0.816,5.715h-3.319L734.871,308.351z"/>
			<path fill="#FFFFFF" d="M657.402,330.063l-3.369,0.104l0.413-2.58h10.013l-0.375,2.58l-3.303-0.104l-1.699,11.88h-3.378
				L657.402,330.063z"/>
			<path fill="#FFFFFF" d="M666.307,327.585h1.896c1.117,0,1.48-0.149,2.712-0.149c3.744,0,5.143,1.342,5.143,3.688
				c0,2.148-0.835,4.12-3.067,4.806c0.523,0.44,1.004,1.369,1.321,2.57c0.8,2.459,0.938,2.919,1.306,3.443h-3.678
				c-0.235-0.338-0.357-1.146-0.816-2.871c-0.404-1.643-0.967-2.506-1.267-2.506h-1.475l-0.798,5.377h-3.322L666.307,327.585z
				 M670.558,334.013c1.792,0,2.301-1.614,2.263-2.73c-0.047-1.211-0.826-1.538-2.226-1.538c-0.439,0-1.013,0.047-1.286,0.094
				l-0.581,4.146C669.235,334.013,670.164,334.013,670.558,334.013z"/>
			<path fill="#FFFFFF" d="M681.998,327.585h4.223l2.131,14.356l-3.331,0.011l-0.311-2.692h-4.898l-1.098,2.684l-3.66,0.011
				L681.998,327.585z M684.457,336.997l-0.713-6.334l-0.059-1.117l-0.364,1.117l-2.592,6.334H684.457z"/>
			<path fill="#FFFFFF" d="M691.57,327.585h1.465c0.797,0,2.768-0.149,3.631-0.149c3.97,0,5.453,2.337,5.453,5.762
				c0,4.646-2.553,8.896-7.939,8.896c-0.348,0-0.825-0.028-1.352-0.066c-0.647-0.037-1.37-0.084-1.961-0.084h-1.354L691.57,327.585z
				 M694.648,339.662c2.769,0,4.055-2.976,4.055-6.514c0-2.607-0.854-3.267-2.724-3.267c-0.395,0-1.061,0.048-1.437,0.122
				l-1.352,9.459C693.569,339.587,694.076,339.662,694.648,339.662z"/>
			<path fill="#FFFFFF" d="M704.935,327.585h8.576l-0.348,2.58l-5.273-0.02l-0.448,3.162l3.933-0.047l-0.338,2.591l-3.951-0.085
				l-0.516,3.641l5.938-0.094l-0.348,2.628h-9.28L704.935,327.585z"/>
		</g>
	</g>
	<g>
		<path fill="#030303" d="M257.491,102.464l1.626,0.01c0.914,0,1.828-0.133,3.19-0.133c3.727,0,5.142,1.327,5.142,3.445
			c0,1.415-0.668,2.618-2.004,2.997c1.547,0.186,2.716,1.317,2.716,3.015c0,2.452-1.266,4.176-5.546,4.176
			c-1.239,0-2.707-0.079-3.437-0.123h-1.688L257.491,102.464L257.491,102.464z M262.105,107.983c1.424,0,2.153-0.482,2.153-1.89
			c0-1.107-0.817-1.504-2.303-1.504c-0.246,0-0.984,0.025-1.143,0.114v3.208C261.103,107.975,261.797,107.983,262.105,107.983z
			 M262.448,113.784c1.538,0,2.285-0.563,2.285-1.961c0-1.159-0.703-1.774-2.399-1.774c-0.431,0-1.31,0.019-1.521,0.07v3.463
			C261.042,113.731,261.903,113.784,262.448,113.784z"/>
		<path fill="#030303" d="M270.094,105.83h3.261v5.968c0,1.513,0.431,1.854,1.327,1.854c0.606,0,1.195-0.264,1.424-0.466v-7.355
			h3.261v10.159h-2.355c-0.413,0-0.606-0.078-0.606-0.51v-0.422c-0.712,0.545-1.986,0.932-2.918,0.932
			c-2.936,0-3.393-1.802-3.393-4.271L270.094,105.83L270.094,105.83z"/>
		<path fill="#030303" d="M282.944,117.818c0.896,0,2.057-0.132,2.514-1.969h-1.248l-3.454-10.021h3.437l1.441,5.272l0.659,2.751
			l0.598-2.751l1.125-5.272h3.41l-3.155,10.257c-0.738,2.398-1.925,3.463-3.199,3.938c-0.439,0.177-1.204,0.281-1.731,0.281
			c-0.264,0-1.38-0.105-1.485-0.177v-2.496C282.047,117.695,282.645,117.818,282.944,117.818z"/>
		<path fill="#030303" d="M292.656,102.921c0-0.983,0.905-1.812,1.96-1.812c1.063,0,1.793,0.687,1.793,1.68
			c0,0.983-0.879,1.818-1.942,1.818C293.42,104.608,292.656,103.905,292.656,102.921z M292.805,105.83h3.27v10.021h-3.27V105.83z"/>
		<path fill="#030303" d="M298.905,105.83h2.971l0.079,1.071c0.747-0.624,2.057-1.213,3.27-1.229
			c2.05-0.044,3.061,0.983,3.061,3.867v6.312h-3.252v-5.729c0-1.459-0.325-1.916-1.274-1.891c-0.475,0-1.16,0.229-1.6,0.649v6.971
			h-3.252L298.905,105.83L298.905,105.83z"/>
		<path fill="#030303" d="M311.693,115.234c-0.545-0.299-0.817-0.86-0.811-1.503c0.009-0.659,0.387-1.503,1.635-2.039
			c-1.272-0.51-2.004-1.459-2.004-2.741c0-2.181,1.67-3.243,4.623-3.253c1.45,0,2.595,0.246,3.395,0.738
			c0.334-0.281,0.938-0.605,1.705-0.605h1.125v2.24h-1.617c0.062,0.256,0.097,0.536,0.097,0.826c0,2.004-1.433,3.233-4.702,3.233
			c-0.352,0-0.686-0.019-1.002-0.053c-0.229,0.211-0.314,0.482-0.314,0.712c0,0.482,0.323,0.649,1.272,0.649h1.986
			c3.129,0,3.964,1.44,3.964,3.041c0,2.654-2.848,3.92-5.695,3.901c-3.56-0.025-5.158-1.194-5.158-3.031
			C310.19,116.474,310.7,115.683,311.693,115.234z M315.516,118.627c1.318,0,2.294-0.413,2.294-1.484c0-0.772-0.264-1.39-1.905-1.39
			h-2.138c-0.167,0.236-0.308,0.57-0.308,1.012C313.459,117.66,313.829,118.627,315.516,118.627z M316.703,108.933
			c0-1.046-0.501-1.557-1.503-1.557c-0.94,0-1.564,0.353-1.564,1.547c0,0.939,0.501,1.504,1.529,1.504
			C316.079,110.427,316.703,110.119,316.703,108.933z"/>
		<path fill="#030303" d="M333.463,105.689c3.709,0,5.036,2.479,4.992,5.354c-0.044,3.218-2.171,4.947-5.177,4.947
			c-3.709,0-5.036-2.479-5.001-5.353C328.331,107.421,330.458,105.689,333.463,105.689z M335.072,110.893
			c0-1.617-0.404-2.944-1.67-2.944c-1.312,0-1.74,0.968-1.74,2.786c0,1.652,0.422,3.016,1.688,3.016
			C334.632,113.749,335.072,112.809,335.072,110.893z"/>
		<path fill="#030303" d="M341.163,107.966h-1.257v-1.897l1.257-0.236v-1.027c0-2.884,2.048-3.754,3.885-3.754
			c1.021,0,1.705,0.149,1.936,0.202v2.231c-0.222-0.113-0.659-0.22-1.283-0.22c-0.767,0-1.268,0.491-1.268,1.66v0.905h2.173v2.136
			h-2.173v7.885h-3.27V107.966L341.163,107.966z"/>
		<path fill="#030303" d="M354.346,105.83h2.973l0.079,1.071c0.677-0.563,1.96-1.204,3.27-1.229c1.178-0.025,2.013,0.309,2.505,1.16
			c0.563-0.447,1.819-1.169,3.351-1.16c2.013-0.009,3.226,0.924,3.226,3.857v6.319h-3.261v-5.739c0-1.459-0.299-1.897-1.268-1.881
			c-0.613,0-1.204,0.343-1.547,0.643c0.009,0.201,0.02,0.422,0.02,0.643v6.337h-3.234v-5.729c0-1.45-0.299-1.907-1.248-1.891
			c-0.466,0-1.169,0.229-1.607,0.649v6.971h-3.253V105.83H354.346z"/>
		<path fill="#030303" d="M376.837,105.689c2.136,0,4.184,0.854,4.21,4.068c0,0.729-0.044,1.415-0.104,1.847h-5.882
			c0.149,1.494,1.037,2.083,2.507,2.083c0.967,0,2.206-0.246,2.688-0.51l0.501,1.729c-0.659,0.536-2.162,1.081-3.955,1.081
			c-3.232,0-4.992-1.941-4.992-5.193C371.81,107.878,373.647,105.689,376.837,105.689z M378.033,109.979
			c0.079-1.459-0.272-2.188-1.268-2.188c-0.923,0-1.512,0.526-1.679,2.188H378.033z"/>
		<path fill="#030303" d="M382.542,111.183c0-3.394,2.039-5.493,5.106-5.493c0.701,0,1.266,0.114,1.65,0.246l-0.024-1.072v-3.62
			h3.252v14.748h-2.496c-0.325,0-0.483-0.177-0.483-0.476v-0.703c-0.448,0.448-1.354,1.179-3.032,1.179
			C384.378,115.99,382.542,114.435,382.542,111.183z M389.274,113.099v-4.878c-0.272-0.202-0.791-0.281-1.371-0.281
			c-1.145,0-1.942,1.021-1.951,3.085c-0.009,1.872,0.642,2.531,1.679,2.531C388.254,113.556,388.922,113.336,389.274,113.099z"/>
		<path fill="#030303" d="M395.18,102.921c0-0.983,0.905-1.812,1.96-1.812c1.063,0,1.793,0.687,1.793,1.68
			c0,0.983-0.879,1.818-1.94,1.818C395.945,104.608,395.18,103.905,395.18,102.921z M395.33,105.83h3.27v10.021h-3.27V105.83z"/>
		<path fill="#030303" d="M405.833,105.689c1.354,0,2.452,0.265,2.77,0.501l-0.368,2.442c-0.389-0.22-0.993-0.412-1.96-0.412
			c-1.037,0-2.197,0.598-2.232,2.486c-0.035,2.064,0.993,2.786,2.259,2.786c0.854,0,1.617-0.158,2.048-0.36l0.396,1.838
			c-0.554,0.57-1.854,1.02-3.146,1.02c-3.313,0-4.852-2.161-4.852-5.054C400.744,108.01,402.326,105.689,405.833,105.689z"/>
		<path fill="#030303" d="M410.456,102.921c0-0.983,0.905-1.812,1.96-1.812c1.063,0,1.793,0.687,1.793,1.68
			c0,0.983-0.879,1.818-1.942,1.818C411.22,104.608,410.456,103.905,410.456,102.921z M410.604,105.83h3.271v10.021h-3.271V105.83z"
			/>
		<path fill="#030303" d="M416.705,105.83h2.971l0.079,1.071c0.747-0.624,2.057-1.213,3.271-1.229
			c2.048-0.044,3.059,0.983,3.059,3.867v6.312h-3.252v-5.729c0-1.459-0.325-1.916-1.274-1.891c-0.475,0-1.159,0.229-1.6,0.649v6.971
			h-3.252L416.705,105.83L416.705,105.83z"/>
		<path fill="#030303" d="M433.175,105.689c2.136,0,4.186,0.854,4.21,4.068c0,0.729-0.044,1.415-0.104,1.847h-5.88
			c0.147,1.494,1.035,2.083,2.505,2.083c0.967,0,2.206-0.246,2.688-0.51l0.501,1.729c-0.659,0.536-2.162,1.081-3.955,1.081
			c-3.232,0-4.992-1.941-4.992-5.193C428.148,107.878,429.985,105.689,433.175,105.689z M434.371,109.979
			c0.079-1.459-0.272-2.188-1.267-2.188c-0.924,0-1.513,0.526-1.68,2.188H434.371z"/>
		<path fill="#030303" d="M445.524,105.83h2.971l0.079,1.071c0.747-0.624,2.057-1.213,3.27-1.229
			c2.048-0.044,3.061,0.983,3.061,3.867v6.312h-3.252v-5.729c0-1.459-0.325-1.916-1.274-1.891c-0.475,0-1.16,0.229-1.6,0.649v6.971
			h-3.252L445.524,105.83L445.524,105.83z"/>
		<path fill="#030303" d="M462.162,105.689c3.709,0,5.036,2.479,4.992,5.354c-0.044,3.218-2.171,4.947-5.179,4.947
			c-3.709,0-5.034-2.479-5.001-5.353C457.029,107.421,459.156,105.689,462.162,105.689z M463.771,110.893
			c0-1.617-0.403-2.944-1.671-2.944c-1.31,0-1.738,0.968-1.738,2.786c0,1.652,0.422,3.016,1.688,3.016
			C463.331,113.749,463.771,112.809,463.771,110.893z"/>
		<path fill="#030303" d="M469.571,107.966h-1.16v-1.723c0.879-0.256,1.459-0.448,1.729-1.012c0.202-0.422,0.477-1.144,0.703-1.688
			h1.979v2.285h2.602v2.136h-2.602v3.568c0,1.871,0.264,2.021,1.16,2.021c0.446,0,1.158-0.186,1.468-0.396l0.387,1.812
			c-0.483,0.457-1.881,1.02-3.34,1.02c-2.153,0-2.927-1.08-2.927-3.261V107.966L469.571,107.966z"/>
		<path fill="#030303" d="M260.628,142.071v3.227h-3.261V130.83h3.076v0.977c0.466-0.457,1.345-1.116,2.944-1.116
			c2.145,0,3.999,1.529,3.999,4.781c0,3.393-2.065,5.521-5.133,5.521c-0.712,0-1.274-0.114-1.661-0.246L260.628,142.071z
			 M262.008,138.793c1.143,0,1.942-1.1,1.951-3.129c0.009-1.916-0.642-2.559-1.679-2.559c-0.633,0-1.31,0.255-1.652,0.526v4.8
			C260.892,138.688,261.402,138.793,262.008,138.793z"/>
		<path fill="#030303" d="M269.479,130.83h2.856l0.141,1.607c0.413-1.021,1.529-1.768,2.883-1.768c0.29,0,0.598,0.035,0.729,0.123
			v3.208c-0.167-0.098-0.475-0.236-1.072-0.236c-1.204,0-1.898,0.536-2.276,0.948v6.136h-3.261V130.83z"/>
		<path fill="#030303" d="M282.566,130.689c3.709,0,5.036,2.479,4.992,5.354c-0.044,3.217-2.171,4.947-5.177,4.947
			c-3.709,0-5.036-2.479-5.001-5.353C277.433,132.421,279.56,130.689,282.566,130.689z M284.174,135.893
			c0-1.617-0.404-2.944-1.67-2.944c-1.31,0-1.74,0.968-1.74,2.786c0,1.652,0.422,3.016,1.688,3.016
			C283.735,138.749,284.174,137.809,284.174,135.893z"/>
		<path fill="#030303" d="M288.27,130.83h3.489l1.292,4.367l0.633,2.559l0.589-2.559l1.248-4.367h3.41l-3.753,10.159h-3.111
			L288.27,130.83z"/>
		<path fill="#030303" d="M300.135,127.921c0-0.983,0.905-1.812,1.96-1.812c1.063,0,1.793,0.687,1.793,1.68
			c0,0.983-0.879,1.818-1.94,1.818C300.9,129.608,300.135,128.905,300.135,127.921z M300.285,130.83h3.27v10.021h-3.27V130.83z"/>
		<path fill="#030303" d="M305.699,136.183c0-3.394,2.039-5.493,5.104-5.493c0.703,0,1.268,0.114,1.652,0.246l-0.026-1.072v-3.62
			h3.252v14.747h-2.495c-0.324,0-0.482-0.176-0.482-0.475v-0.703c-0.448,0.448-1.354,1.178-3.032,1.178
			C307.536,140.99,305.699,139.435,305.699,136.183z M312.431,138.099v-4.878c-0.271-0.202-0.791-0.281-1.371-0.281
			c-1.143,0-1.94,1.021-1.949,3.085c-0.011,1.872,0.642,2.531,1.679,2.531C311.412,138.556,312.08,138.336,312.431,138.099z"/>
		<path fill="#030303" d="M322.864,130.689c2.136,0,4.184,0.854,4.21,4.068c0,0.729-0.044,1.415-0.105,1.847h-5.88
			c0.149,1.494,1.037,2.083,2.505,2.083c0.967,0,2.206-0.246,2.689-0.51l0.501,1.729c-0.659,0.536-2.162,1.081-3.955,1.081
			c-3.234,0-4.992-1.941-4.992-5.193C317.836,132.878,319.673,130.689,322.864,130.689z M324.059,134.979
			c0.079-1.459-0.271-2.188-1.266-2.188c-0.923,0-1.512,0.526-1.679,2.188H324.059z"/>
		<path fill="#030303" d="M328.568,136.183c0-3.394,2.039-5.493,5.104-5.493c0.703,0,1.268,0.114,1.652,0.246l-0.026-1.072v-3.62
			h3.252v14.747h-2.496c-0.323,0-0.481-0.176-0.481-0.475v-0.703c-0.448,0.448-1.354,1.178-3.032,1.178
			C330.405,140.99,328.568,139.435,328.568,136.183z M335.3,138.099v-4.878c-0.271-0.202-0.791-0.281-1.371-0.281
			c-1.143,0-1.94,1.021-1.951,3.085c-0.009,1.872,0.644,2.531,1.681,2.531C334.281,138.556,334.949,138.336,335.3,138.099z"/>
		<path fill="#030303" d="M347.315,126.251h3.261v3.611l-0.07,1.838c0.492-0.448,1.354-1.012,2.83-1.012
			c2.136,0,3.973,1.529,3.973,4.781c0,3.393-2.092,5.563-5.309,5.563c-2.101,0-4.438-0.546-4.685-0.747V126.251L347.315,126.251z
			 M351.947,138.846c1.116,0,1.951-1.144,1.96-3.183c0.009-1.985-0.694-2.559-1.688-2.559c-0.686,0-1.336,0.29-1.644,0.526v4.913
			C350.76,138.758,351.244,138.846,351.947,138.846z"/>
		<path fill="#030303" d="M360.208,142.818c0.896,0,2.057-0.132,2.514-1.969h-1.248l-3.452-10.021h3.437l1.441,5.272l0.657,2.751
			l0.6-2.751l1.125-5.272h3.41l-3.155,10.257c-0.738,2.398-1.925,3.463-3.199,3.938c-0.438,0.176-1.204,0.281-1.729,0.281
			c-0.266,0-1.382-0.104-1.485-0.177v-2.496C359.312,142.695,359.91,142.818,360.208,142.818z"/>
		<path fill="#030303" d="M376.292,132.966h-1.16v-1.723c0.879-0.256,1.459-0.448,1.731-1.012c0.202-0.422,0.475-1.144,0.703-1.688
			h1.978v2.285h2.602v2.136h-2.602v3.567c0,1.872,0.264,2.021,1.16,2.021c0.448,0,1.16-0.186,1.468-0.396l0.387,1.813
			c-0.481,0.457-1.881,1.02-3.34,1.02c-2.151,0-2.927-1.08-2.927-3.261V132.966L376.292,132.966z"/>
		<path fill="#030303" d="M384.167,126.242h3.261v3.762l-0.158,1.872c0.67-0.563,1.854-1.188,3.14-1.204
			c2.18-0.044,3.173,1.214,3.173,3.895v6.284h-3.261v-5.729c0-1.529-0.413-1.907-1.292-1.891c-0.404,0.009-1.116,0.167-1.602,0.649
			v6.971h-3.261V126.242L384.167,126.242z"/>
		<path fill="#030303" d="M400.673,130.689c2.136,0,4.186,0.854,4.21,4.068c0,0.729-0.044,1.415-0.104,1.847h-5.882
			c0.149,1.494,1.037,2.083,2.507,2.083c0.967,0,2.206-0.246,2.688-0.51l0.501,1.729c-0.659,0.536-2.162,1.081-3.955,1.081
			c-3.232,0-4.992-1.941-4.992-5.193C395.646,132.878,397.483,130.689,400.673,130.689z M401.869,134.979
			c0.079-1.459-0.272-2.188-1.268-2.188c-0.923,0-1.512,0.526-1.679,2.188H401.869z"/>
		<path fill="#030303" d="M412.987,126.242h3.261v3.762l-0.158,1.872c0.668-0.563,1.854-1.188,3.138-1.204
			c2.182-0.044,3.175,1.214,3.175,3.895v6.284h-3.263v-5.729c0-1.529-0.412-1.907-1.292-1.891c-0.402,0.009-1.114,0.167-1.6,0.649
			v6.971h-3.261V126.242L412.987,126.242z"/>
		<path fill="#030303" d="M429.493,130.689c2.136,0,4.184,0.854,4.21,4.068c0,0.729-0.044,1.415-0.105,1.847h-5.88
			c0.149,1.494,1.037,2.083,2.505,2.083c0.969,0,2.206-0.246,2.689-0.51l0.501,1.729c-0.659,0.536-2.162,1.081-3.955,1.081
			c-3.234,0-4.992-1.941-4.992-5.193C424.465,132.878,426.302,130.689,429.493,130.689z M430.688,134.979
			c0.077-1.459-0.272-2.188-1.268-2.188c-0.923,0-1.512,0.526-1.679,2.188H430.688z"/>
		<path fill="#030303" d="M436.999,135.251c1.222-0.526,2.839-0.605,4.096-0.605v-0.605c0-0.87-0.324-1.081-1.828-1.081
			c-0.729,0-2.127,0.299-3.021,0.712l-0.659-1.916c0.729-0.438,2.619-1.1,4.403-1.1c3.164,0,4.342,1.021,4.342,3.788v6.549h-2.039
			c-0.668,0-1.028-0.045-1.028-0.914v-0.07c-0.563,0.492-1.448,0.984-2.795,0.984c-1.978,0-3.27-1.337-3.27-3.199
			C435.197,136.613,435.891,135.726,436.999,135.251z M439.829,138.986c0.519,0,1.081-0.229,1.266-0.422v-2.354
			c-0.633,0.01-1.406,0.142-1.758,0.309c-0.378,0.148-0.782,0.396-0.782,1.106C438.554,138.573,439.169,138.986,439.829,138.986z"/>
		<path fill="#030303" d="M446.983,126.242h3.261v14.606h-3.261V126.242z"/>
		<path fill="#030303" d="M453.337,132.966h-1.16v-1.723c0.879-0.256,1.459-0.448,1.731-1.012c0.202-0.422,0.475-1.144,0.703-1.688
			h1.978v2.285h2.604v2.136h-2.604v3.567c0,1.872,0.264,2.021,1.16,2.021c0.448,0,1.16-0.186,1.468-0.396l0.388,1.813
			c-0.482,0.457-1.882,1.02-3.341,1.02c-2.151,0-2.927-1.08-2.927-3.261V132.966L453.337,132.966z"/>
		<path fill="#030303" d="M461.212,126.242h3.261v3.762l-0.156,1.872c0.668-0.563,1.854-1.188,3.138-1.204
			c2.18-0.044,3.173,1.214,3.173,3.895v6.284h-3.261v-5.729c0-1.529-0.413-1.907-1.292-1.891c-0.404,0.009-1.116,0.167-1.602,0.649
			v6.971h-3.261V126.242z"/>
		<path fill="#030303" d="M257.227,162.932c0.299,0.246,1.635,0.888,2.962,0.888c1.028,0.01,1.45-0.22,1.45-0.729
			c0-0.545-0.809-0.869-2.171-1.317c-1.846-0.605-2.593-1.626-2.584-3.164c0-1.941,1.872-2.918,4.166-2.918
			c1.635,0,2.769,0.36,3.226,0.615l-0.29,2.284c-0.369-0.315-1.45-0.765-2.417-0.765c-1.125,0-1.529,0.229-1.538,0.687
			c0,0.526,0.483,0.791,2.057,1.282c1.854,0.599,2.769,1.459,2.769,3.016c0,2.083-1.67,3.189-4.228,3.189
			c-1.661,0-3.155-0.466-3.718-0.816L257.227,162.932z"/>
		<path fill="#030303" d="M267.651,167.818c0.896,0,2.057-0.132,2.514-1.969h-1.248l-3.454-10.021h3.437l1.441,5.272l0.659,2.751
			l0.598-2.751l1.125-5.272h3.41l-3.155,10.257c-0.738,2.398-1.925,3.463-3.199,3.938c-0.439,0.176-1.204,0.281-1.731,0.281
			c-0.264,0-1.38-0.104-1.485-0.177v-2.496C266.754,167.695,267.352,167.818,267.651,167.818z"/>
		<path fill="#030303" d="M277.372,162.932c0.299,0.246,1.635,0.888,2.962,0.888c1.028,0.01,1.45-0.22,1.45-0.729
			c0-0.545-0.809-0.869-2.171-1.317c-1.846-0.605-2.593-1.626-2.584-3.164c0-1.941,1.872-2.918,4.166-2.918
			c1.635,0,2.769,0.36,3.226,0.615l-0.29,2.284c-0.369-0.315-1.45-0.765-2.417-0.765c-1.125,0-1.529,0.229-1.538,0.687
			c0,0.526,0.483,0.791,2.057,1.282c1.854,0.599,2.769,1.459,2.769,3.016c0,2.083-1.67,3.189-4.228,3.189
			c-1.661,0-3.155-0.466-3.718-0.816L277.372,162.932z"/>
		<path fill="#030303" d="M287.303,157.966h-1.16v-1.723c0.879-0.256,1.459-0.448,1.731-1.012c0.202-0.422,0.475-1.144,0.703-1.688
			h1.978v2.285h2.602v2.136h-2.602v3.567c0,1.872,0.264,2.021,1.16,2.021c0.448,0,1.16-0.186,1.468-0.396l0.387,1.813
			c-0.483,0.457-1.881,1.02-3.34,1.02c-2.153,0-2.927-1.08-2.927-3.261L287.303,157.966L287.303,157.966z"/>
		<path fill="#030303" d="M299.555,155.689c2.138,0,4.186,0.854,4.21,4.068c0,0.729-0.044,1.415-0.104,1.847h-5.88
			c0.147,1.494,1.037,2.083,2.505,2.083c0.967,0,2.206-0.246,2.688-0.51l0.501,1.729c-0.657,0.536-2.161,1.081-3.955,1.081
			c-3.232,0-4.992-1.941-4.992-5.193C294.528,157.878,296.365,155.689,299.555,155.689z M300.75,159.979
			c0.079-1.459-0.272-2.188-1.266-2.188c-0.925,0-1.514,0.526-1.681,2.188H300.75z"/>
		<path fill="#030303" d="M305.945,155.83h2.971l0.079,1.071c0.677-0.563,1.96-1.204,3.27-1.229c1.18-0.025,2.015,0.309,2.507,1.16
			c0.563-0.447,1.817-1.169,3.349-1.16c2.013-0.009,3.226,0.924,3.226,3.857v6.319h-3.261v-5.739c0-1.459-0.299-1.897-1.266-1.881
			c-0.615,0-1.204,0.343-1.547,0.643c0.009,0.201,0.018,0.422,0.018,0.643v6.337h-3.234v-5.729c0-1.45-0.299-1.907-1.248-1.891
			c-0.466,0-1.169,0.229-1.606,0.649v6.971h-3.252V155.83H305.945z"/>
		<path fill="#030303" d="M325.685,162.193c1.107,0,1.793,0.791,1.793,1.847c0.011,1.063-0.835,2.004-1.94,2.004
			c-1.081,0-1.813-0.8-1.819-1.854C323.716,163.135,324.578,162.193,325.685,162.193z"/>
	</g>
	<g>
		<path fill="#030303" d="M931.233,380.261l1.625,0.009c0.914,0,1.828-0.132,3.189-0.132c3.729,0,5.143,1.326,5.143,3.444
			c0,1.415-0.668,2.619-2.004,2.997c1.547,0.186,2.717,1.317,2.717,3.016c0,2.451-1.268,4.175-5.547,4.175
			c-1.238,0-2.707-0.079-3.438-0.123h-1.688v-13.386H931.233z M935.847,385.78c1.424,0,2.153-0.482,2.153-1.89
			c0-1.107-0.817-1.503-2.303-1.503c-0.246,0-0.984,0.025-1.145,0.113v3.208C934.845,385.771,935.54,385.78,935.847,385.78z
			 M936.19,391.581c1.537,0,2.283-0.563,2.283-1.96c0-1.16-0.701-1.774-2.397-1.774c-0.431,0-1.312,0.018-1.521,0.069v3.463
			C934.784,391.528,935.646,391.581,936.19,391.581z"/>
		<path fill="#030303" d="M943.836,383.627h3.261v5.969c0,1.512,0.433,1.854,1.327,1.854c0.606,0,1.195-0.265,1.424-0.467v-7.355
			h3.263v10.16h-2.355c-0.413,0-0.605-0.079-0.605-0.511v-0.422c-0.711,0.545-1.985,0.933-2.918,0.933
			c-2.937,0-3.394-1.803-3.394-4.271L943.836,383.627L943.836,383.627z"/>
		<path fill="#030303" d="M956.687,395.615c0.896,0,2.058-0.132,2.515-1.969h-1.248l-3.454-10.021h3.438l1.44,5.272l0.659,2.751
			l0.598-2.751l1.125-5.272h3.41l-3.155,10.257c-0.737,2.398-1.925,3.464-3.198,3.938c-0.438,0.177-1.203,0.281-1.73,0.281
			c-0.264,0-1.38-0.104-1.484-0.176v-2.496C955.79,395.492,956.387,395.615,956.687,395.615z"/>
		<path fill="#030303" d="M966.397,380.719c0-0.984,0.904-1.813,1.961-1.813c1.063,0,1.793,0.688,1.793,1.68
			c0,0.983-0.879,1.818-1.942,1.818C967.163,382.405,966.397,381.702,966.397,380.719z M966.547,383.627h3.271v10.021h-3.271
			V383.627z"/>
		<path fill="#030303" d="M972.647,383.627h2.971l0.079,1.071c0.747-0.623,2.057-1.213,3.27-1.229
			c2.048-0.045,3.061,0.983,3.061,3.866v6.312h-3.253v-5.729c0-1.459-0.324-1.916-1.273-1.891c-0.475,0-1.16,0.229-1.6,0.65v6.97
			h-3.254V383.627L972.647,383.627z"/>
		<path fill="#030303" d="M985.435,393.031c-0.545-0.299-0.815-0.86-0.809-1.503c0.009-0.658,0.387-1.503,1.635-2.039
			c-1.272-0.51-2.004-1.459-2.004-2.741c0-2.181,1.67-3.243,4.623-3.252c1.45,0,2.593,0.245,3.393,0.737
			c0.334-0.28,0.94-0.605,1.705-0.605h1.125v2.241h-1.615c0.062,0.255,0.097,0.535,0.097,0.825c0,2.004-1.435,3.234-4.702,3.234
			c-0.352,0-0.686-0.019-1.002-0.054c-0.229,0.211-0.314,0.482-0.314,0.712c0,0.482,0.323,0.649,1.272,0.649h1.986
			c3.129,0,3.964,1.441,3.964,3.041c0,2.654-2.85,3.92-5.695,3.902c-3.56-0.026-5.159-1.195-5.159-3.032
			C983.932,394.271,984.442,393.479,985.435,393.031z M989.258,396.424c1.318,0,2.294-0.412,2.294-1.484
			c0-0.772-0.264-1.389-1.906-1.389h-2.137c-0.167,0.236-0.308,0.57-0.308,1.011C987.202,395.457,987.571,396.424,989.258,396.424z
			 M990.445,386.729c0-1.046-0.501-1.557-1.503-1.557c-0.94,0-1.564,0.353-1.564,1.548c0,0.939,0.501,1.503,1.529,1.503
			C989.821,388.224,990.445,387.916,990.445,386.729z"/>
		<path fill="#030303" d="M1007.206,383.486c3.709,0,5.036,2.479,4.992,5.354c-0.044,3.218-2.171,4.948-5.178,4.948
			c-3.709,0-5.035-2.479-5-5.354C1002.073,385.219,1004.2,383.486,1007.206,383.486z M1008.813,388.689
			c0-1.617-0.403-2.943-1.67-2.943c-1.311,0-1.739,0.967-1.739,2.785c0,1.652,0.422,3.016,1.688,3.016
			C1008.375,391.546,1008.813,390.605,1008.813,388.689z"/>
		<path fill="#030303" d="M1014.905,385.763h-1.258v-1.898l1.258-0.236V382.6c0-2.884,2.048-3.753,3.885-3.753
			c1.02,0,1.705,0.148,1.934,0.201v2.231c-0.22-0.113-0.657-0.22-1.281-0.22c-0.767,0-1.268,0.492-1.268,1.661v0.904h2.171v2.137
			h-2.171v7.884h-3.27V385.763z"/>
		<path fill="#030303" d="M1026.638,383.627h3.173l1.028,4.053l0.536,2.628l0.604-2.628l1.188-4.053h2.927l1.178,4.053l0.571,2.628
			l0.527-2.638l0.948-4.043h3.022l-3.155,10.16h-2.854l-1.459-4.932l-0.378-1.881l-0.389,1.881l-1.404,4.932h-2.944
			L1026.638,383.627z"/>
		<path fill="#030303" d="M1048.101,383.486c2.138,0,4.186,0.854,4.21,4.069c0,0.729-0.044,1.415-0.104,1.846h-5.88
			c0.147,1.494,1.037,2.083,2.505,2.083c0.967,0,2.206-0.246,2.688-0.51l0.501,1.73c-0.657,0.535-2.162,1.081-3.955,1.081
			c-3.232,0-4.99-1.941-4.99-5.194C1043.074,385.675,1044.911,383.486,1048.101,383.486z M1049.296,387.775
			c0.079-1.459-0.271-2.188-1.266-2.188c-0.923,0-1.512,0.526-1.681,2.188H1049.296z"/>
		<path fill="#030303" d="M1055.607,388.048c1.222-0.526,2.839-0.605,4.096-0.605v-0.605c0-0.869-0.325-1.081-1.828-1.081
			c-0.729,0-2.127,0.3-3.022,0.713l-0.658-1.916c0.729-0.439,2.617-1.1,4.401-1.1c3.164,0,4.343,1.021,4.343,3.788v6.548h-2.038
			c-0.668,0-1.028-0.044-1.028-0.914v-0.069c-0.563,0.491-1.45,0.983-2.795,0.983c-1.979,0-3.271-1.336-3.271-3.199
			C1053.805,389.41,1054.5,388.522,1055.607,388.048z M1058.437,391.782c0.521,0,1.082-0.229,1.268-0.422v-2.354
			c-0.633,0.01-1.406,0.142-1.758,0.309c-0.379,0.148-0.782,0.396-0.782,1.106C1057.163,391.37,1057.778,391.782,1058.437,391.782z"
			/>
		<path fill="#030303" d="M1068.817,394.868v3.227h-3.263v-14.468h3.076v0.977c0.466-0.457,1.347-1.116,2.944-1.116
			c2.145,0,3.999,1.529,3.999,4.781c0,3.394-2.065,5.521-5.133,5.521c-0.714,0-1.274-0.114-1.661-0.246L1068.817,394.868z
			 M1070.197,391.59c1.143,0,1.94-1.1,1.951-3.129c0.009-1.916-0.644-2.559-1.681-2.559c-0.633,0-1.31,0.255-1.65,0.527v4.799
			C1069.081,391.484,1069.59,391.59,1070.197,391.59z"/>
		<path fill="#030303" d="M1082.264,383.486c3.709,0,5.036,2.479,4.992,5.354c-0.044,3.218-2.171,4.948-5.177,4.948
			c-3.709,0-5.036-2.479-5.001-5.354C1077.131,385.219,1079.258,383.486,1082.264,383.486z M1083.873,388.689
			c0-1.617-0.404-2.943-1.67-2.943c-1.312,0-1.74,0.967-1.74,2.785c0,1.652,0.422,3.016,1.688,3.016
			C1083.433,391.546,1083.873,390.605,1083.873,388.689z"/>
		<path fill="#030303" d="M1089.445,383.627h2.971l0.079,1.071c0.747-0.623,2.057-1.213,3.27-1.229
			c2.048-0.045,3.061,0.983,3.061,3.866v6.312h-3.252v-5.729c0-1.459-0.325-1.916-1.274-1.891c-0.475,0-1.16,0.229-1.6,0.65v6.97
			h-3.252L1089.445,383.627L1089.445,383.627z"/>
		<path fill="#030303" d="M1101.397,390.729c0.3,0.246,1.636,0.889,2.963,0.889c1.026,0.009,1.448-0.221,1.448-0.729
			c0-0.545-0.809-0.87-2.171-1.318c-1.846-0.605-2.593-1.626-2.584-3.164c0-1.941,1.872-2.918,4.166-2.918
			c1.637,0,2.771,0.36,3.228,0.615l-0.29,2.285c-0.369-0.316-1.45-0.766-2.417-0.766c-1.125,0-1.529,0.229-1.538,0.687
			c0,0.526,0.482,0.791,2.057,1.282c1.854,0.599,2.771,1.46,2.771,3.016c0,2.083-1.67,3.189-4.229,3.189
			c-1.661,0-3.154-0.466-3.718-0.816L1101.397,390.729z"/>
		<path fill="#030303" d="M946.728,413.048c1.224-0.526,2.841-0.605,4.098-0.605v-0.605c0-0.869-0.325-1.081-1.828-1.081
			c-0.729,0-2.127,0.3-3.023,0.713l-0.658-1.916c0.729-0.439,2.619-1.1,4.402-1.1c3.164,0,4.344,1.021,4.344,3.788v6.548h-2.039
			c-0.668,0-1.028-0.044-1.028-0.914v-0.069c-0.563,0.491-1.45,0.983-2.795,0.983c-1.979,0-3.271-1.336-3.271-3.199
			C944.926,414.41,945.621,413.522,946.728,413.048z M949.558,416.782c0.521,0,1.081-0.229,1.268-0.422v-2.354
			c-0.634,0.01-1.406,0.142-1.759,0.309c-0.378,0.148-0.781,0.396-0.781,1.106C948.284,416.37,948.899,416.782,949.558,416.782z"/>
		<path fill="#030303" d="M956.712,408.627h2.971l0.079,1.071c0.747-0.623,2.059-1.213,3.271-1.229
			c2.048-0.045,3.059,0.983,3.059,3.866v6.312h-3.252v-5.729c0-1.459-0.325-1.916-1.272-1.891c-0.477,0-1.16,0.229-1.602,0.65v6.97
			h-3.252L956.712,408.627L956.712,408.627z"/>
		<path fill="#030303" d="M968.156,413.979c0-3.394,2.039-5.493,5.104-5.493c0.703,0,1.268,0.114,1.652,0.246l-0.026-1.071v-3.621
			h3.252v14.748h-2.495c-0.324,0-0.482-0.177-0.482-0.476v-0.703c-0.448,0.448-1.354,1.179-3.032,1.179
			C969.993,418.787,968.156,417.231,968.156,413.979z M974.888,415.896v-4.878c-0.271-0.202-0.791-0.281-1.371-0.281
			c-1.143,0-1.94,1.021-1.949,3.085c-0.01,1.872,0.642,2.531,1.679,2.531C973.869,416.353,974.537,416.133,974.888,415.896z"/>
		<path fill="#030303" d="M986.753,405.719c0-0.984,0.905-1.813,1.96-1.813c1.063,0,1.793,0.688,1.793,1.68
			c0,0.983-0.879,1.818-1.942,1.818C987.519,407.405,986.753,406.702,986.753,405.719z M986.903,408.627h3.27v10.021h-3.27V408.627z
			"/>
		<path fill="#030303" d="M993.002,404.039h3.261v14.606h-3.261V404.039z"/>
		<path fill="#030303" d="M999.128,404.039h3.261v14.606h-3.261V404.039z"/>
		<path fill="#030303" d="M1009.596,408.486c2.136,0,4.186,0.854,4.21,4.069c0,0.729-0.044,1.415-0.104,1.846h-5.88
			c0.147,1.494,1.037,2.083,2.505,2.083c0.967,0,2.206-0.246,2.688-0.51l0.502,1.73c-0.658,0.535-2.162,1.081-3.955,1.081
			c-3.233,0-4.991-1.941-4.991-5.194C1004.569,410.675,1006.406,408.486,1009.596,408.486z M1010.792,412.775
			c0.079-1.459-0.271-2.188-1.266-2.188c-0.924,0-1.514,0.526-1.681,2.188H1010.792z"/>
		<path fill="#030303" d="M1016.646,418.031c-0.545-0.299-0.816-0.86-0.81-1.503c0.009-0.658,0.387-1.503,1.635-2.039
			c-1.272-0.51-2.004-1.459-2.004-2.741c0-2.181,1.67-3.243,4.623-3.252c1.45,0,2.593,0.245,3.394,0.737
			c0.334-0.28,0.939-0.605,1.705-0.605h1.125v2.241h-1.616c0.062,0.255,0.097,0.535,0.097,0.825c0,2.004-1.433,3.234-4.702,3.234
			c-0.352,0-0.686-0.019-1.002-0.054c-0.229,0.211-0.314,0.482-0.314,0.712c0,0.482,0.325,0.649,1.272,0.649h1.986
			c3.129,0,3.964,1.441,3.964,3.041c0,2.654-2.848,3.92-5.695,3.902c-3.56-0.026-5.157-1.195-5.157-3.032
			C1015.142,419.271,1015.652,418.479,1016.646,418.031z M1020.468,421.425c1.318,0,2.294-0.413,2.294-1.485
			c0-0.772-0.264-1.389-1.907-1.389h-2.136c-0.167,0.236-0.308,0.57-0.308,1.011
			C1018.412,420.457,1018.781,421.425,1020.468,421.425z M1021.655,411.729c0-1.046-0.501-1.557-1.503-1.557
			c-0.94,0-1.564,0.353-1.564,1.548c0,0.939,0.501,1.503,1.529,1.503C1021.031,413.224,1021.655,412.916,1021.655,411.729z"/>
		<path fill="#030303" d="M1029.063,413.048c1.223-0.526,2.84-0.605,4.097-0.605v-0.605c0-0.869-0.325-1.081-1.828-1.081
			c-0.729,0-2.127,0.3-3.022,0.713l-0.659-1.916c0.729-0.439,2.618-1.1,4.402-1.1c3.164,0,4.343,1.021,4.343,3.788v6.548h-2.038
			c-0.668,0-1.028-0.044-1.028-0.914v-0.069c-0.563,0.491-1.45,0.983-2.795,0.983c-1.979,0-3.271-1.336-3.271-3.199
			C1027.262,414.41,1027.957,413.522,1029.063,413.048z M1031.894,416.782c0.521,0,1.082-0.229,1.268-0.422v-2.354
			c-0.633,0.01-1.406,0.142-1.758,0.309c-0.379,0.148-0.782,0.396-0.782,1.106C1030.62,416.37,1031.235,416.782,1031.894,416.782z"
			/>
		<path fill="#030303" d="M1039.048,404.039h3.261v14.606h-3.261V404.039z"/>
		<path fill="#030303" d="M1050.448,413.979c0-3.394,2.039-5.493,5.104-5.493c0.703,0,1.268,0.114,1.652,0.246l-0.026-1.071v-3.621
			h3.252v14.748h-2.496c-0.323,0-0.481-0.177-0.481-0.476v-0.703c-0.448,0.448-1.354,1.179-3.032,1.179
			C1052.285,418.787,1050.448,417.231,1050.448,413.979z M1057.18,415.896v-4.878c-0.271-0.202-0.791-0.281-1.37-0.281
			c-1.144,0-1.941,1.021-1.95,3.085c-0.011,1.872,0.642,2.531,1.679,2.531C1056.161,416.353,1056.829,416.133,1057.18,415.896z"/>
		<path fill="#030303" d="M1063.183,408.627h2.856l0.141,1.607c0.413-1.021,1.529-1.767,2.884-1.767
			c0.289,0,0.599,0.034,0.729,0.122v3.208c-0.167-0.097-0.475-0.236-1.072-0.236c-1.204,0-1.896,0.536-2.274,0.949v6.135h-3.263
			L1063.183,408.627L1063.183,408.627z"/>
		<path fill="#030303" d="M1071.603,408.627h3.263v5.969c0,1.512,0.431,1.854,1.327,1.854c0.604,0,1.193-0.265,1.424-0.467v-7.355
			h3.261v10.16h-2.354c-0.412,0-0.605-0.079-0.605-0.511v-0.422c-0.712,0.545-1.986,0.933-2.918,0.933
			c-2.936,0-3.393-1.803-3.393-4.271v-5.89H1071.603z"/>
		<path fill="#030303" d="M1084.391,418.031c-0.545-0.299-0.815-0.86-0.809-1.503c0.009-0.658,0.387-1.503,1.635-2.039
			c-1.272-0.51-2.004-1.459-2.004-2.741c0-2.181,1.67-3.243,4.623-3.252c1.45,0,2.593,0.245,3.395,0.737
			c0.334-0.28,0.938-0.605,1.704-0.605h1.125v2.241h-1.616c0.062,0.255,0.097,0.535,0.097,0.825c0,2.004-1.433,3.234-4.702,3.234
			c-0.352,0-0.686-0.019-1.002-0.054c-0.229,0.211-0.315,0.482-0.315,0.712c0,0.482,0.324,0.649,1.273,0.649h1.986
			c3.129,0,3.964,1.441,3.964,3.041c0,2.654-2.848,3.92-5.695,3.902c-3.56-0.026-5.159-1.195-5.159-3.032
			C1082.888,419.271,1083.397,418.479,1084.391,418.031z M1088.214,421.425c1.318,0,2.294-0.413,2.294-1.485
			c0-0.772-0.264-1.389-1.907-1.389h-2.136c-0.167,0.236-0.308,0.57-0.308,1.011
			C1086.158,420.457,1086.527,421.425,1088.214,421.425z M1089.401,411.729c0-1.046-0.501-1.557-1.504-1.557
			c-0.939,0-1.563,0.353-1.563,1.548c0,0.939,0.501,1.503,1.529,1.503C1088.777,413.224,1089.401,412.916,1089.401,411.729z"/>
		<path fill="#030303" d="M1095.518,415.729c0.301,0.246,1.637,0.889,2.962,0.889c1.028,0.009,1.45-0.221,1.45-0.729
			c0-0.545-0.809-0.87-2.171-1.318c-1.846-0.605-2.593-1.626-2.584-3.164c0-1.941,1.872-2.918,4.166-2.918
			c1.635,0,2.771,0.36,3.228,0.615l-0.291,2.285c-0.368-0.316-1.449-0.766-2.416-0.766c-1.125,0-1.529,0.229-1.538,0.687
			c0,0.526,0.481,0.791,2.057,1.282c1.854,0.599,2.77,1.46,2.77,3.016c0,2.083-1.67,3.189-4.229,3.189
			c-1.661,0-3.155-0.466-3.718-0.816L1095.518,415.729z"/>
		<path fill="#030303" d="M1106.812,414.99c1.107,0,1.793,0.791,1.793,1.847c0.011,1.063-0.834,2.004-1.94,2.004
			c-1.081,0-1.813-0.8-1.819-1.854C1104.843,415.931,1105.705,414.99,1106.812,414.99z"/>
	</g>
</g>
</svg>
