<?xml version="1.0" encoding="utf-8"?>
<!-- Generator: Adobe Illustrator 16.0.0, SVG Export Plug-In . SVG Version: 6.00 Build 0)  -->
<!DOCTYPE svg PUBLIC "-//W3C//DTD SVG 1.1//EN" "http://www.w3.org/Graphics/SVG/1.1/DTD/svg11.dtd">
<svg version="1.1" id="Layer_1" xmlns="http://www.w3.org/2000/svg" xmlns:xlink="http://www.w3.org/1999/xlink" x="0px" y="0px"
	 width="943.999px" height="1517.028px" viewBox="0 0 943.999 1517.028" enable-background="new 0 0 943.999 1517.028"
	 xml:space="preserve">
<g>
	<path fill="#DADADA" d="M571.836,1044.252c-12.688,0-23.012-10.322-23.012-23.01c0-12.688,10.323-23.012,23.012-23.012
		c12.688,0,23.01,10.323,23.01,23.012C594.846,1033.93,584.523,1044.252,571.836,1044.252z"/>
	<path fill="#51BDCE" d="M571.836,999.23c12.137,0,22.01,9.874,22.01,22.012c0,12.136-9.873,22.01-22.01,22.01
		s-22.012-9.874-22.012-22.01C549.824,1009.104,559.699,999.23,571.836,999.23 M571.836,997.23
		c-13.262,0-24.012,10.75-24.012,24.012c0,13.26,10.75,24.01,24.012,24.01c13.26,0,24.01-10.75,24.01-24.01
		C595.846,1007.98,585.096,997.23,571.836,997.23L571.836,997.23z"/>
</g>
<g>
	<text transform="matrix(1 0 0 1 615.917 1025.5439)" fill="#1A1A1A" font-family="'Karla-Regular'" font-size="15">Netflix</text>
</g>
<g>
	<path fill="#DADADA" d="M571.834,1120.064c-12.313,0-22.33-10.018-22.33-22.33c0-12.313,10.018-22.332,22.33-22.332
		c12.313,0,22.332,10.019,22.332,22.332C594.166,1110.047,584.147,1120.064,571.834,1120.064z"/>
	<path fill="#51BDCE" d="M571.834,1076.402c11.763,0,21.332,9.569,21.332,21.332c0,11.762-9.569,21.33-21.332,21.33
		c-11.762,0-21.33-9.568-21.33-21.33C550.504,1085.972,560.072,1076.402,571.834,1076.402 M571.834,1074.402
		c-12.885,0-23.33,10.447-23.33,23.332s10.445,23.33,23.33,23.33s23.332-10.445,23.332-23.33S584.719,1074.402,571.834,1074.402
		L571.834,1074.402z"/>
</g>
<g>
	<text transform="matrix(1 0 0 1 614.0332 1102.0352)" fill="#1A1A1A" font-family="'Karla-Regular'" font-size="15">Google</text>
</g>
<g>
	<path fill="#DADADA" d="M571.836,967.081c-13.542,0-24.559-11.017-24.559-24.559c0-13.541,11.017-24.557,24.559-24.557
		s24.559,11.016,24.559,24.557C596.395,956.064,585.378,967.081,571.836,967.081z"/>
	<path fill="#51BDCE" d="M571.836,918.966c12.99,0,23.559,10.567,23.559,23.557c0,12.99-10.568,23.559-23.559,23.559
		s-23.559-10.568-23.559-23.559C548.277,929.533,558.846,918.966,571.836,918.966 M571.836,916.966
		c-14.115,0-25.559,11.441-25.559,25.557s11.443,25.559,25.559,25.559s25.559-11.443,25.559-25.559S585.951,916.966,571.836,916.966
		L571.836,916.966z"/>
</g>
<g>
	<text transform="matrix(1 0 0 1 615.1611 946.8252)" fill="#1A1A1A" font-family="'Karla-Regular'" font-size="15">Amazon</text>
</g>
<g>
	<path fill="#DADADA" d="M571.836,1190.255c-10.765,0-19.521-8.757-19.521-19.52c0-10.765,8.757-19.521,19.521-19.521
		c10.763,0,19.52,8.757,19.52,19.521C591.355,1181.498,582.599,1190.255,571.836,1190.255z"/>
	<path fill="#51BDCE" d="M571.836,1152.214c10.212,0,18.52,8.309,18.52,18.521c0,10.212-8.308,18.52-18.52,18.52
		c-10.213,0-18.521-8.308-18.521-18.52C553.314,1160.522,561.623,1152.214,571.836,1152.214 M571.836,1150.214
		c-11.334,0-20.521,9.188-20.521,20.521c0,11.332,9.188,20.52,20.521,20.52c11.332,0,20.52-9.188,20.52-20.52
		C592.355,1159.401,583.168,1150.214,571.836,1150.214L571.836,1150.214z"/>
</g>
<g>
	<text transform="matrix(1 0 0 1 610.6826 1175.0352)" fill="#1A1A1A" font-family="'Karla-Regular'" font-size="15">Yahoo</text>
</g>
<g>
	<path fill="#DADADA" d="M789.798,1027.247c-6.62,0-12.006-5.386-12.006-12.006s5.386-12.006,12.006-12.006
		s12.006,5.386,12.006,12.006S796.418,1027.247,789.798,1027.247z"/>
	<path fill="#51BDCE" d="M789.798,1004.235c6.068,0,11.006,4.938,11.006,11.006s-4.938,11.006-11.006,11.006
		s-11.006-4.938-11.006-11.006S783.729,1004.235,789.798,1004.235 M789.798,1002.235c-7.184,0-13.006,5.822-13.006,13.006
		s5.822,13.006,13.006,13.006s13.006-5.822,13.006-13.006S796.981,1002.235,789.798,1002.235L789.798,1002.235z"/>
</g>
<g>
	<text transform="matrix(1 0 0 1 820.001 1019.542)" fill="#1A1A1A" font-family="'Karla-Regular'" font-size="15">Facebook</text>
</g>
<circle fill="#51BDCE" stroke="#DDDDDD" stroke-opacity="0" cx="789.798" cy="937.858" r="13.393"/>
<g>
	<text transform="matrix(1 0 0 1 824.4385 942.1592)" fill="#1A1A1A" font-family="'Karla-Regular'" font-size="15">Pinterest</text>
</g>
<g>
	<path fill="#DADADA" d="M789.799,1106.918c-6.491,0-11.771-5.28-11.771-11.77c0-6.491,5.28-11.771,11.771-11.771
		c6.489,0,11.77,5.28,11.77,11.771C801.568,1101.638,796.288,1106.918,789.799,1106.918z"/>
	<path fill="#51BDCE" d="M789.799,1084.377c5.938,0,10.77,4.832,10.77,10.771c0,5.938-4.831,10.77-10.77,10.77
		c-5.939,0-10.771-4.831-10.771-10.77C779.027,1089.209,783.859,1084.377,789.799,1084.377 M789.799,1082.377
		c-7.053,0-12.771,5.719-12.771,12.771s5.719,12.77,12.771,12.77s12.77-5.717,12.77-12.77S796.852,1082.377,789.799,1082.377
		L789.799,1082.377z"/>
</g>
<g>
	<text transform="matrix(1 0 0 1 818.1924 1091.4482)"><tspan x="0" y="0" fill="#1A1A1A" font-family="'Karla-Regular'" font-size="15">Pandora</tspan><tspan x="0" y="16" fill="#1A1A1A" font-family="'Karla-Regular'" font-size="15">Radio</tspan></text>
</g>
<g>
	<path fill="#DADADA" d="M789.798,1182.755c-5.413,0-9.816-4.402-9.816-9.814c0-5.413,4.403-9.816,9.816-9.816
		s9.816,4.403,9.816,9.816C799.614,1178.353,795.211,1182.755,789.798,1182.755z"/>
	<path fill="#51BDCE" d="M789.798,1164.124c4.861,0,8.816,3.955,8.816,8.816c0,4.86-3.955,8.814-8.816,8.814
		s-8.816-3.954-8.816-8.814C780.981,1168.079,784.937,1164.124,789.798,1164.124 M789.798,1162.124
		c-5.975,0-10.816,4.842-10.816,10.816c0,5.973,4.842,10.814,10.816,10.814c5.973,0,10.816-4.842,10.816-10.814
		C800.614,1166.966,795.771,1162.124,789.798,1162.124L789.798,1162.124z"/>
</g>
<g>
	<text transform="matrix(1 0 0 1 821.2354 1177.2402)" fill="#1A1A1A" font-family="'Karla-Regular'" font-size="15">Twitter</text>
</g>
<circle fill="#51BDCE" stroke="#DDDDDD" stroke-opacity="0" cx="790.006" cy="1327.643" r="4.611"/>
<g>
	<text transform="matrix(1 0 0 1 809.6182 1323.9053)"><tspan x="0" y="0" fill="#1A1A1A" font-family="'Karla-Regular'" font-size="15">Introna</tspan><tspan x="0" y="16" fill="#1A1A1A" font-family="'Karla-Regular'" font-size="15">Nissenbaum</tspan></text>
</g>
<circle fill="#51BDCE" stroke="#DDDDDD" stroke-opacity="0" cx="790.302" cy="1390.305" r="2.781"/>
<g>
	<text transform="matrix(1 0 0 1 810.1064 1394.5674)" fill="#1A1A1A" font-family="'Karla-Regular'" font-size="15">Elgesem</text>
</g>
<circle fill="#51BDCE" stroke="#DDDDDD" stroke-opacity="0" cx="571.879" cy="93.104" r="47.354"/>
<g>
	<text transform="matrix(1 0 0 1 636.332 97.3691)" fill="#1A1A1A" font-family="'Karla-Regular'" font-size="15">Pagerank</text>
</g>
<circle fill="#51BDCE" stroke="#DDDDDD" stroke-opacity="0" cx="571.842" cy="215.004" r="36.372"/>
<g>
	<text transform="matrix(1 0 0 1 623.0186 212.2686)"><tspan x="0" y="0" fill="#1A1A1A" font-family="'Karla-Regular'" font-size="15">System</tspan><tspan x="0" y="16" fill="#1A1A1A" font-family="'Karla-Regular'" font-size="15">Recommendation </tspan></text>
</g>
<circle fill="#51BDCE" stroke="#DDDDDD" stroke-opacity="0" cx="572.006" cy="325.825" r="36.273"/>
<g>
	<text transform="matrix(1 0 0 1 623.4766 323.0869)"><tspan x="0" y="0" fill="#1A1A1A" font-family="'Karla-Regular'" font-size="15">Knnmd</tspan><tspan x="0" y="16" fill="#1A1A1A" font-family="'Karla-Regular'" font-size="15">Method</tspan></text>
</g>
<circle fill="#51BDCE" stroke="#DDDDDD" stroke-opacity="0" cx="571.819" cy="436.172" r="35.899"/>
<g>
	<text transform="matrix(1 0 0 1 622.7178 432.4346)"><tspan x="0" y="0" fill="#1A1A1A" font-family="'Karla-Regular'" font-size="15">Km </tspan><tspan x="0" y="16" fill="#1A1A1A" font-family="'Karla-Regular'" font-size="15">Strategy</tspan></text>
</g>
<circle fill="#51BDCE" stroke="#DDDDDD" stroke-opacity="0" cx="789.999" cy="82.523" r="31.772"/>
<g>
	<text transform="matrix(1 0 0 1 836.7705 79.7881)"><tspan x="0" y="0" fill="#1A1A1A" font-family="'Karla-Regular'" font-size="15">Cf-based</tspan><tspan x="0" y="16" fill="#1A1A1A" font-family="'Karla-Regular'" font-size="15">Technique</tspan></text>
</g>
<circle fill="#51BDCE" stroke="#DDDDDD" stroke-opacity="0" cx="789.999" cy="184.734" r="31.772"/>
<g>
	<text transform="matrix(1 0 0 1 836.7705 181.998)"><tspan x="0" y="0" fill="#1A1A1A" font-family="'Karla-Regular'" font-size="15">Technique</tspan><tspan x="0" y="16" fill="#1A1A1A" font-family="'Karla-Regular'" font-size="15">User-based</tspan></text>
</g>
<g>
	<path fill="#DADADA" d="M789.999,311.024c-15.123,0-27.426-12.303-27.426-27.426s12.303-27.426,27.426-27.426
		s27.426,12.303,27.426,27.426S805.122,311.024,789.999,311.024z"/>
	<path fill="#51BDCE" d="M789.999,257.173c14.571,0,26.426,11.855,26.426,26.426c0,14.572-11.854,26.426-26.426,26.426
		s-26.426-11.854-26.426-26.426C763.573,269.028,775.428,257.173,789.999,257.173 M789.999,255.173
		c-15.699,0-28.426,12.727-28.426,28.426s12.727,28.426,28.426,28.426s28.426-12.727,28.426-28.426S805.698,255.173,789.999,255.173
		L789.999,255.173z"/>
</g>
<g>
	<text transform="matrix(1 0 0 1 833.4248 280.8623)"><tspan x="0" y="0" fill="#1A1A1A" font-family="'Karla-Regular'" font-size="15">Analysis</tspan><tspan x="0" y="16" fill="#1A1A1A" font-family="'Karla-Regular'" font-size="15">Predictive</tspan></text>
</g>
<g>
	<path fill="#DADADA" d="M789.999,389.325c-10.375,0-18.816-8.441-18.816-18.816s8.441-18.816,18.816-18.816
		s18.816,8.441,18.816,18.816S800.374,389.325,789.999,389.325z"/>
	<path fill="#51BDCE" d="M789.999,352.692c9.824,0,17.816,7.992,17.816,17.816s-7.992,17.816-17.816,17.816
		s-17.816-7.992-17.816-17.816S780.175,352.692,789.999,352.692 M789.999,350.692c-10.945,0-19.816,8.871-19.816,19.816
		c0,10.943,8.871,19.816,19.816,19.816c10.943,0,19.816-8.873,19.816-19.816C809.815,359.563,800.942,350.692,789.999,350.692
		L789.999,350.692z"/>
</g>
<g>
	<text transform="matrix(1 0 0 1 826.7314 374.7715)" fill="#1A1A1A" font-family="'Karla-Regular'" font-size="15">News Feed</text>
</g>
<circle fill="#51BDCE" stroke="#DDDDDD" stroke-opacity="0" cx="789.999" cy="448.032" r="19.039"/>
<g>
	<text transform="matrix(1 0 0 1 825.3027 452.2939)" fill="#1A1A1A" font-family="'Karla-Regular'" font-size="15">Cookie</text>
</g>
<g>
	<path fill="#DADADA" d="M790.265,701.072c-17.285,0-31.348-14.064-31.348-31.35s14.063-31.348,31.348-31.348
		c17.286,0,31.35,14.063,31.35,31.348S807.551,701.072,790.265,701.072z"/>
	<path fill="#51BDCE" d="M790.265,639.375c16.734,0,30.35,13.613,30.35,30.348s-13.615,30.35-30.35,30.35
		c-16.733,0-30.348-13.615-30.348-30.35S773.531,639.375,790.265,639.375 M790.265,637.375c-17.865,0-32.348,14.482-32.348,32.348
		s14.482,32.35,32.348,32.35s32.35-14.484,32.35-32.35S808.13,637.375,790.265,637.375L790.265,637.375z"/>
</g>
<g>
	<text transform="matrix(1 0 0 1 846.418 674.0244)" fill="#1A1A1A" font-family="'Karla-Regular'" font-size="15">Google News</text>
</g>
<circle fill="#DADADA" stroke="#51BDCE" stroke-width="2" cx="790.266" cy="761.847" r="3.443"/>
<rect x="808.709" y="755.667" fill="none" width="92.607" height="12.357"/>
<text transform="matrix(1 0 0 1 808.709 765.8809)" fill="#1A1A1A" font-family="'Karla-Regular'" font-size="15">Newspaper</text>
<g>
	<path fill="#DADADA" d="M113.277,1004.788c-23.938,0-43.412-19.474-43.412-43.41c0-23.938,19.475-43.412,43.412-43.412
		c23.937,0,43.41,19.475,43.41,43.412C156.688,985.314,137.214,1004.788,113.277,1004.788z"/>
	<path fill="#FD7865" d="M113.277,918.966c23.385,0,42.41,19.026,42.41,42.412c0,23.385-19.025,42.41-42.41,42.41
		c-23.386,0-42.412-19.025-42.412-42.41C70.865,937.992,89.892,918.966,113.277,918.966 M113.277,916.966
		c-24.527,0-44.412,19.885-44.412,44.412s19.885,44.41,44.412,44.41s44.41-19.883,44.41-44.41S137.805,916.966,113.277,916.966
		L113.277,916.966z"/>
</g>
<g>
	<text transform="matrix(1 0 0 1 176.1631 965.6787)" fill="#1A1A1A" font-family="'Karla-Regular'" font-size="15">Facebook</text>
</g>
<g>
	<path fill="#DADADA" d="M113.275,1100.124c-15.555,0-28.209-12.655-28.209-28.211c0-15.555,12.654-28.209,28.209-28.209
		c15.556,0,28.211,12.654,28.211,28.209C141.486,1087.469,128.831,1100.124,113.275,1100.124z"/>
	<path fill="#FD7865" d="M113.275,1044.704c15.004,0,27.211,12.206,27.211,27.209c0,15.004-12.207,27.211-27.211,27.211
		c-15.003,0-27.209-12.207-27.209-27.211C86.066,1056.91,98.272,1044.704,113.275,1044.704 M113.275,1042.704
		c-16.131,0-29.209,13.076-29.209,29.209s13.078,29.211,29.209,29.211c16.133,0,29.211-13.078,29.211-29.211
		S129.408,1042.704,113.275,1042.704L113.275,1042.704z"/>
</g>
<g>
	<text transform="matrix(1 0 0 1 161.6035 1076.1768)" fill="#1A1A1A" font-family="'Karla-Regular'" font-size="15">Google</text>
</g>
<g>
	<path fill="#DADADA" d="M113.276,1190.255c-11.363,0-20.607-9.244-20.607-20.607s9.244-20.607,20.607-20.607
		s20.607,9.244,20.607,20.607S124.64,1190.255,113.276,1190.255z"/>
	<path fill="#FD7865" d="M113.276,1150.04c10.812,0,19.607,8.796,19.607,19.607s-8.796,19.607-19.607,19.607
		s-19.607-8.796-19.607-19.607S102.465,1150.04,113.276,1150.04 M113.276,1148.04c-11.934,0-21.607,9.674-21.607,21.607
		s9.674,21.607,21.607,21.607s21.607-9.674,21.607-21.607S125.21,1148.04,113.276,1148.04L113.276,1148.04z"/>
</g>
<g>
	<text transform="matrix(1 0 0 1 152.2383 1173.9111)" fill="#1A1A1A" font-family="'Karla-Regular'" font-size="15">Yahoo</text>
</g>
<g>
	<path fill="#DADADA" d="M330.711,1038.744c-8.141,0-14.764-6.623-14.764-14.764c0-8.142,6.623-14.766,14.764-14.766
		s14.764,6.624,14.764,14.766C345.475,1032.121,338.852,1038.744,330.711,1038.744z"/>
	<path fill="#FD7865" d="M330.711,1010.215c7.589,0,13.764,6.175,13.764,13.766c0,7.589-6.175,13.764-13.764,13.764
		s-13.764-6.175-13.764-13.764C316.947,1016.39,323.122,1010.215,330.711,1010.215 M330.711,1008.215
		c-8.705,0-15.764,7.059-15.764,15.766c0,8.705,7.059,15.764,15.764,15.764c8.707,0,15.764-7.059,15.764-15.764
		C346.475,1015.273,339.418,1008.215,330.711,1008.215L330.711,1008.215z"/>
</g>
<g>
	<text transform="matrix(1 0 0 1 363.876 1028.2451)" fill="#1A1A1A" font-family="'Karla-Regular'" font-size="15">Amazon</text>
</g>
<g>
	<path fill="#DADADA" d="M330.71,958.944c-9.229,0-16.738-7.509-16.738-16.738c0-9.23,7.509-16.74,16.738-16.74
		c9.23,0,16.74,7.51,16.74,16.74C347.45,951.436,339.94,958.944,330.71,958.944z"/>
	<path fill="#FD7865" d="M330.71,926.466c8.68,0,15.74,7.061,15.74,15.74c0,8.678-7.061,15.738-15.74,15.738
		c-8.678,0-15.738-7.061-15.738-15.738C314.972,933.526,322.032,926.466,330.71,926.466 M330.71,924.466
		c-9.797,0-17.738,7.943-17.738,17.74s7.941,17.738,17.738,17.738s17.74-7.941,17.74-17.738S340.507,924.466,330.71,924.466
		L330.71,924.466z"/>
</g>
<g>
	<text transform="matrix(1 0 0 1 363.4502 938.4697)"><tspan x="0" y="0" fill="#1A1A1A" font-family="'Karla-Regular'" font-size="15">Pandora</tspan><tspan x="0" y="16" fill="#1A1A1A" font-family="'Karla-Regular'" font-size="15">Radio</tspan></text>
</g>
<g>
	<path fill="#DADADA" d="M330.711,1182.744c-5.775,0-10.474-4.598-10.474-10.249s4.698-10.249,10.474-10.249
		s10.474,4.598,10.474,10.249S336.486,1182.744,330.711,1182.744z"/>
	<path fill="#FD7865" d="M330.711,1163.257c5.218,0,9.463,4.145,9.463,9.238s-4.245,9.238-9.463,9.238s-9.463-4.145-9.463-9.238
		S325.493,1163.257,330.711,1163.257 M330.711,1161.235c-6.342,0-11.484,5.041-11.484,11.26s5.143,11.26,11.484,11.26
		c6.344,0,11.484-5.041,11.484-11.26S337.055,1161.235,330.711,1161.235L330.711,1161.235z"/>
</g>
<g>
	<text transform="matrix(1.0199 0 0 1 362.9902 1176.7637)" fill="#1A1A1A" font-family="'Karla-Regular'" font-size="15.014">Twitter</text>
</g>
<g>
	<path fill="#DADADA" d="M330.711,1111.965c-6.327,0-11.475-5.147-11.475-11.475s5.147-11.475,11.475-11.475
		s11.475,5.147,11.475,11.475S337.038,1111.965,330.711,1111.965z"/>
	<path fill="#FD7865" d="M330.711,1090.016c5.775,0,10.475,4.699,10.475,10.475s-4.699,10.475-10.475,10.475
		s-10.475-4.699-10.475-10.475S324.936,1090.016,330.711,1090.016 M330.711,1088.016c-6.889,0-12.475,5.584-12.475,12.475
		s5.586,12.475,12.475,12.475c6.891,0,12.475-5.584,12.475-12.475S337.602,1088.016,330.711,1088.016L330.711,1088.016z"/>
</g>
<g>
	<text transform="matrix(1 0 0 1 362.3271 1104.7539)" fill="#1A1A1A" font-family="'Karla-Regular'" font-size="15">Netflix</text>
</g>
<circle fill="#FD7865" stroke="#DDDDDD" stroke-opacity="0" cx="331.009" cy="1368.135" r="3.105"/>
<g>
	<text transform="matrix(1 0 0 1 351.4443 1372.3994)" fill="#1A1A1A" font-family="'Karla-Regular'" font-size="15">Sunstein</text>
</g>
<circle fill="#FD7865" stroke="#DDDDDD" stroke-opacity="0" cx="112.521" cy="1413.326" r="6.211"/>
<g>
	<text transform="matrix(1 0 0 1 131.5049 1417.5879)" fill="#1A1A1A" font-family="'Karla-Regular'" font-size="15">Diaz</text>
</g>
<circle fill="#FD7865" stroke="#DDDDDD" stroke-opacity="0" cx="112.274" cy="1276.143" r="30.121"/>
<g>
	<text transform="matrix(1 0 0 1 161.0684 1280.4072)" fill="#1A1A1A" font-family="'Karla-Regular'" font-size="15">Eli Pariser</text>
</g>
<circle fill="#FD7865" stroke="#DDDDDD" stroke-opacity="0" cx="112.274" cy="1469.13" r="4.392"/>
<g>
	<text transform="matrix(1 0 0 1 133.9854 1473.3936)" fill="#1A1A1A" font-family="'Karla-Regular'" font-size="15">Halpern</text>
</g>
<circle fill="#FD7865" stroke="#DDDDDD" stroke-opacity="0" cx="112.274" cy="1355.817" r="9.655"/>
<g>
	<text transform="matrix(1 0 0 1 135.4316 1360.0811)" fill="#1A1A1A" font-family="'Karla-Regular'" font-size="15">Hinman</text>
</g>
<circle fill="#FD7865" stroke="#DDDDDD" stroke-opacity="0" cx="331.01" cy="1430.136" r="2.536"/>
<g>
	<text transform="matrix(1 0 0 1 349.751 1434.3994)" fill="#1A1A1A" font-family="'Karla-Regular'" font-size="15">Lessig</text>
</g>
<circle fill="#FD7865" stroke="#DDDDDD" stroke-opacity="0" cx="331.009" cy="1306.137" r="4.009"/>
<g>
	<text transform="matrix(1 0 0 1 354.1553 1310.3994)" fill="#1A1A1A" font-family="'Karla-Regular'" font-size="15">Morozov</text>
</g>
<circle fill="#FD7865" stroke="#DDDDDD" stroke-opacity="0" cx="329.837" cy="289.862" r="12.369"/>
<g>
	<text transform="matrix(1 0 0 1 357.2061 286.126)"><tspan x="0" y="0" fill="#1A1A1A" font-family="'Karla-Regular'" font-size="15">Adaptive </tspan><tspan x="0" y="16" fill="#1A1A1A" font-family="'Karla-Regular'" font-size="15">Hypermedia</tspan></text>
</g>
<circle fill="#FD7865" stroke="#DDDDDD" stroke-opacity="0" cx="112.999" cy="345.801" r="32.565"/>
<g>
	<text transform="matrix(1 0 0 1 160.5654 334.0654)"><tspan x="0" y="0" fill="#1A1A1A" font-family="'Karla-Regular'" font-size="15">Algorithmically </tspan><tspan x="0" y="16" fill="#1A1A1A" font-family="'Karla-Regular'" font-size="15">Cherry-picking </tspan><tspan x="0" y="32" fill="#1A1A1A" font-family="'Karla-Regular'" font-size="15">Content</tspan></text>
</g>
<g>
	<path fill="#DADADA" d="M112.999,465.071c-11.262,0-20.424-9.163-20.424-20.426c0-11.262,9.162-20.424,20.424-20.424
		c11.263,0,20.426,9.162,20.426,20.424C133.425,455.908,124.262,465.071,112.999,465.071z"/>
	<path fill="#FD7865" d="M112.999,425.222c10.711,0,19.426,8.714,19.426,19.424c0,10.711-8.715,19.426-19.426,19.426
		s-19.424-8.715-19.424-19.426C93.575,433.936,102.288,425.222,112.999,425.222 M112.999,423.222
		c-11.832,0-21.424,9.592-21.424,21.424c0,11.834,9.592,21.426,21.424,21.426c11.834,0,21.426-9.592,21.426-21.426
		C134.425,432.813,124.833,423.222,112.999,423.222L112.999,423.222z"/>
</g>
<g>
	<text transform="matrix(1 0 0 1 149.4248 440.9092)"><tspan x="0" y="0" fill="#1A1A1A" font-family="'Karla-Regular'" font-size="15">Analysis </tspan><tspan x="0" y="16" fill="#1A1A1A" font-family="'Karla-Regular'" font-size="15">Predictive</tspan></text>
</g>
<circle fill="#FD7865" stroke="#DDDDDD" stroke-opacity="0" cx="113.001" cy="231.622" r="36.76"/>
<g>
	<text transform="matrix(1 0 0 1 164.7607 227.8857)"><tspan x="0" y="0" fill="#1A1A1A" font-family="'Karla-Regular'" font-size="15">Data Or Analytics</tspan><tspan x="0" y="16" fill="#1A1A1A" font-family="'Karla-Regular'" font-size="15">Models</tspan></text>
</g>
<circle fill="#FD7865" stroke="#DDDDDD" stroke-opacity="0" cx="329.837" cy="177.782" r="18.775"/>
<g>
	<text transform="matrix(1 0 0 1 368.7119 182.0459)" fill="#1A1A1A" font-family="'Karla-Regular'" font-size="15">Digital Trace</text>
</g>
<g>
	<path fill="#DADADA" d="M112.999,149.007c-28.191,0-51.127-22.937-51.127-51.129c0-28.191,22.936-51.127,51.127-51.127
		c28.192,0,51.129,22.936,51.129,51.127C164.128,126.07,141.191,149.007,112.999,149.007z"/>
	<path fill="#FD7865" d="M112.999,47.751c27.641,0,50.129,22.487,50.129,50.127c0,27.642-22.488,50.129-50.129,50.129
		S62.872,125.52,62.872,97.878C62.872,70.238,85.358,47.751,112.999,47.751 M112.999,45.751c-28.789,0-52.127,23.338-52.127,52.127
		c0,28.791,23.338,52.129,52.127,52.129c28.791,0,52.129-23.338,52.129-52.129C165.128,69.089,141.79,45.751,112.999,45.751
		L112.999,45.751z"/>
</g>
<g>
	<text transform="matrix(1 0 0 1 182.6865 102.1436)" fill="#1A1A1A" font-family="'Karla-Regular'" font-size="15">News Feed</text>
</g>
<g>
	<path fill="#DADADA" d="M112.559,644.906c-31.89,0-57.834-25.945-57.834-57.836c0-31.89,25.944-57.834,57.834-57.834
		c31.891,0,57.836,25.944,57.836,57.834C170.395,618.961,144.449,644.906,112.559,644.906z"/>
	<path fill="#FD7865" d="M112.559,530.236c31.339,0,56.836,25.495,56.836,56.834c0,31.34-25.497,56.836-56.836,56.836
		S55.725,618.41,55.725,587.07C55.725,555.731,81.22,530.236,112.559,530.236 M112.559,528.236
		c-32.492,0-58.834,26.342-58.834,58.834c0,32.494,26.342,58.836,58.834,58.836c32.494,0,58.836-26.342,58.836-58.836
		C171.395,554.578,145.053,528.236,112.559,528.236L112.559,528.236z"/>
</g>
<g>
	<text transform="matrix(1 0 0 1 197.7129 591.3721)" fill="#1A1A1A" font-family="'Karla-Regular'" font-size="15">Google News</text>
</g>
<g>
	<path fill="#DADADA" d="M112.561,723.704c-9.879,0-17.916-8.036-17.916-17.914c0-9.879,8.037-17.916,17.916-17.916
		c9.878,0,17.914,8.037,17.914,17.916C130.475,715.668,122.438,723.704,112.561,723.704z"/>
	<path fill="#FD7865" d="M112.561,688.874c9.326,0,16.914,7.589,16.914,16.916c0,9.326-7.588,16.914-16.914,16.914
		c-9.327,0-16.916-7.588-16.916-16.914C95.645,696.463,103.233,688.874,112.561,688.874 M112.561,686.874
		c-10.447,0-18.916,8.469-18.916,18.916c0,10.445,8.469,18.914,18.916,18.914c10.445,0,18.914-8.469,18.914-18.914
		C131.475,695.343,123.006,686.874,112.561,686.874L112.561,686.874z"/>
</g>
<g>
	<text transform="matrix(1 0 0 1 151.8291 708.4697)" fill="#1A1A1A" font-family="'Karla-Regular'" font-size="15">Newspaper</text>
</g>
<circle fill="#FD7865" stroke="#DDDDDD" stroke-opacity="0" cx="112.559" cy="780.663" r="14.992"/>
<g>
	<text transform="matrix(1 0.0089 -0.0089 1 143.958 785.2959)" fill="#1A1A1A" font-family="'Karla-Regular'" font-size="15">Ny Times</text>
</g>
<circle fill="#FD7865" stroke="#DDDDDD" stroke-opacity="0" cx="112.561" cy="849.186" r="12.563"/>
<g>
	<text transform="matrix(1 0 0 1 145.7178 854.5986)" fill="#1A1A1A" font-family="'Karla-Regular'" font-size="15">Guardian</text>
</g>
<rect y="45.751" fill="none" width="95.227" height="426.318"/>
<text transform="matrix(0 -1 1 0 11.6631 320.4512)" font-family="'Karla-Bold'" font-size="17">TECHNOLOGIES</text>
<rect x="-0.001" y="522.809" fill="none" width="95.229" height="344.367"/>
<text transform="matrix(0 -1 1 0 11.6611 719.7012)" font-family="'Karla-Bold'" font-size="17">NEWS</text>
<rect y="907.905" fill="none" width="95.228" height="295.769"/>
<text transform="matrix(0 -1 1 0 11.6631 1095.2031)" font-family="'Karla-Bold'" font-size="17">SERVICES</text>
<rect x="-0.001" y="1226.021" fill="none" width="95.229" height="267.371"/>
<text transform="matrix(0 -1 1 0 11.6611 1422.0361)" font-family="'Karla-Bold'" font-size="17">PERSONALITIES</text>
<polyline fill="none" stroke="#333333" stroke-width="1.5011" points="39.999,475.069 24.999,475.069 24.999,42.751 39.999,42.751 
	"/>
<polyline fill="none" stroke="#333333" stroke-width="1.5011" points="39.999,864.749 24.999,864.749 24.999,525.236 
	39.999,525.236 "/>
<polyline fill="none" stroke="#333333" stroke-width="1.5011" points="39.999,1197.255 24.999,1197.255 24.999,910.966 
	39.999,910.966 "/>
<polyline fill="none" stroke="#333333" stroke-width="1.5011" points="39.999,1476.521 24.999,1476.521 24.999,1240.021 
	39.999,1240.021 "/>
</svg>
