<?xml version="1.0" encoding="utf-8"?>
<!-- Generator: Adobe Illustrator 16.0.0, SVG Export Plug-In . SVG Version: 6.00 Build 0)  -->
<!DOCTYPE svg PUBLIC "-//W3C//DTD SVG 1.1//EN" "http://www.w3.org/Graphics/SVG/1.1/DTD/svg11.dtd">
<svg version="1.1" id="Layer_1" xmlns="http://www.w3.org/2000/svg" xmlns:xlink="http://www.w3.org/1999/xlink" x="0px" y="0px"
	 width="841.89px" height="227px" viewBox="0 0 841.89 227" enable-background="new 0 0 841.89 227" xml:space="preserve">
<g id="timeline">
	<g>
		<g>
			
				<line fill="none" stroke="#D9D9D9" stroke-width="0.4022" stroke-miterlimit="10" x1="777.736" y1="203.094" x2="777.736" y2="45.674"/>
			
				<line fill="none" stroke="#D9D9D9" stroke-width="0.4022" stroke-miterlimit="10" x1="712.912" y1="203.094" x2="712.912" y2="45.674"/>
			
				<line fill="none" stroke="#D9D9D9" stroke-width="0.4022" stroke-miterlimit="10" x1="648.082" y1="203.094" x2="648.082" y2="45.674"/>
			
				<line fill="none" stroke="#D9D9D9" stroke-width="0.4022" stroke-miterlimit="10" x1="583.251" y1="203.094" x2="583.251" y2="45.674"/>
			
				<line fill="none" stroke="#D9D9D9" stroke-width="0.4022" stroke-miterlimit="10" x1="518.427" y1="203.094" x2="518.427" y2="45.674"/>
			
				<line fill="none" stroke="#D9D9D9" stroke-width="0.4022" stroke-miterlimit="10" x1="453.462" y1="203.094" x2="453.462" y2="45.674"/>
			
				<line fill="none" stroke="#D9D9D9" stroke-width="0.4022" stroke-miterlimit="10" x1="388.636" y1="203.094" x2="388.636" y2="45.674"/>
			
				<line fill="none" stroke="#D9D9D9" stroke-width="0.4022" stroke-miterlimit="10" x1="323.808" y1="203.094" x2="323.808" y2="45.674"/>
			
				<line fill="none" stroke="#D9D9D9" stroke-width="0.4022" stroke-miterlimit="10" x1="258.979" y1="203.094" x2="258.979" y2="45.674"/>
			
				<line fill="none" stroke="#D9D9D9" stroke-width="0.4022" stroke-miterlimit="10" x1="194.018" y1="203.094" x2="194.018" y2="45.674"/>
			
				<line fill="none" stroke="#D9D9D9" stroke-width="0.4022" stroke-miterlimit="10" x1="129.189" y1="203.094" x2="129.189" y2="45.674"/>
			
				<line fill="none" stroke="#D9D9D9" stroke-width="0.4022" stroke-miterlimit="10" x1="64.361" y1="203.094" x2="64.361" y2="45.674"/>
		</g>
		<g>
			<g>
				
					<line fill="none" stroke="#868686" stroke-width="1.2172" stroke-miterlimit="10" x1="777.873" y1="53.896" x2="777.873" y2="45.674"/>
				
					<line fill="none" stroke="#868686" stroke-width="1.2172" stroke-miterlimit="10" x1="713.042" y1="53.896" x2="713.042" y2="45.674"/>
				
					<line fill="none" stroke="#868686" stroke-width="1.2172" stroke-miterlimit="10" x1="648.082" y1="53.896" x2="648.082" y2="45.674"/>
				
					<line fill="none" stroke="#868686" stroke-width="1.2172" stroke-miterlimit="10" x1="583.251" y1="53.896" x2="583.251" y2="45.674"/>
				
					<line fill="none" stroke="#868686" stroke-width="1.2172" stroke-miterlimit="10" x1="518.427" y1="53.896" x2="518.427" y2="45.674"/>
				
					<line fill="none" stroke="#868686" stroke-width="1.2172" stroke-miterlimit="10" x1="453.597" y1="53.896" x2="453.597" y2="45.674"/>
				
					<line fill="none" stroke="#868686" stroke-width="1.2172" stroke-miterlimit="10" x1="388.636" y1="53.896" x2="388.636" y2="45.674"/>
				
					<line fill="none" stroke="#868686" stroke-width="1.2172" stroke-miterlimit="10" x1="323.808" y1="53.896" x2="323.808" y2="45.674"/>
				
					<line fill="none" stroke="#868686" stroke-width="1.2172" stroke-miterlimit="10" x1="258.979" y1="53.896" x2="258.979" y2="45.674"/>
				
					<line fill="none" stroke="#868686" stroke-width="1.2172" stroke-miterlimit="10" x1="194.152" y1="53.896" x2="194.152" y2="45.674"/>
				
					<line fill="none" stroke="#868686" stroke-width="1.2172" stroke-miterlimit="10" x1="129.324" y1="53.896" x2="129.324" y2="45.674"/>
				
					<line fill="none" stroke="#868686" stroke-width="1.2172" stroke-miterlimit="10" x1="64.361" y1="53.896" x2="64.361" y2="45.674"/>
			</g>
		</g>
		
			<line fill="none" stroke="#868686" stroke-width="1.2172" stroke-miterlimit="10" x1="3.712" y1="49.717" x2="837.712" y2="49.717"/>
		<polyline fill="none" stroke="#868686" stroke-width="1.2172" stroke-miterlimit="10" points="831.917,44.057 837.712,49.717 
			831.917,55.512 		"/>
		<rect x="43.606" y="19.526" fill="none" width="41.512" height="21.295"/>
		<text transform="matrix(1 0 0 1 51.9136 27.4473)" fill="#868686" font-family="'ArialMT'" font-size="10.7822">2002</text>
		<rect x="108.569" y="19.526" fill="none" width="41.511" height="21.295"/>
		<text transform="matrix(1 0 0 1 116.769 27.4473)" fill="#868686" font-family="'ArialMT'" font-size="10.7822">2003</text>
		<rect x="173.396" y="19.526" fill="none" width="41.511" height="21.295"/>
		<text transform="matrix(1 0 0 1 181.6265 27.4473)" fill="#868686" font-family="'ArialMT'" font-size="10.7822">2004</text>
		<rect x="238.224" y="19.526" fill="none" width="41.511" height="21.295"/>
		<text transform="matrix(1 0 0 1 246.4829 27.4473)" fill="#868686" font-family="'ArialMT'" font-size="10.7822">2005</text>
		<rect x="303.052" y="19.526" fill="none" width="41.511" height="21.295"/>
		<text transform="matrix(1 0 0 1 311.3394 27.4473)" fill="#868686" font-family="'ArialMT'" font-size="10.7822">2006</text>
		<rect x="368.015" y="19.526" fill="none" width="41.511" height="21.295"/>
		<text transform="matrix(1 0 0 1 376.1948 27.4473)" fill="#868686" font-family="'ArialMT'" font-size="10.7822">2007</text>
		<rect x="432.843" y="19.526" fill="none" width="41.512" height="21.295"/>
		<text transform="matrix(1 0 0 1 441.0522 27.4473)" fill="#868686" font-family="'ArialMT'" font-size="10.7822">2008</text>
		<rect x="497.669" y="19.526" fill="none" width="41.51" height="21.295"/>
		<text transform="matrix(1 0 0 1 505.9087 27.4473)" fill="#868686" font-family="'ArialMT'" font-size="10.7822">2009</text>
		<rect x="562.5" y="19.526" fill="none" width="41.51" height="21.295"/>
		<text transform="matrix(1 0 0 1 570.7651 27.4473)" fill="#868686" font-family="'ArialMT'" font-size="10.7822">2010</text>
		<rect x="627.328" y="19.526" fill="none" width="41.512" height="21.295"/>
		<text transform="matrix(1 0 0 1 635.6206 27.4473)" fill="#868686" font-family="'ArialMT'" font-size="10.7822">2011</text>
		<rect x="692.289" y="19.526" fill="none" width="41.512" height="21.295"/>
		<text transform="matrix(1 0 0 1 700.478 27.4473)" fill="#868686" font-family="'ArialMT'" font-size="10.7822">2012</text>
		<rect x="757.119" y="19.526" fill="none" width="41.51" height="21.295"/>
		<text transform="matrix(1 0 0 1 765.3345 27.4473)" fill="#868686" font-family="'ArialMT'" font-size="10.7822">2013</text>
	</g>
</g>
<g id="cit">
	<circle fill="#54A8DE" cx="129.324" cy="108.076" r="17.253"/>
	<circle fill="#E73E4C" cx="194.018" cy="108.075" r="40.163"/>
	<g>
		<path fill="#E73E4C" d="M777.736,105.65c1.342,0,2.43,1.086,2.43,2.427c0,1.338-1.088,2.425-2.43,2.425
			c-1.338,0-2.424-1.087-2.424-2.425C775.312,106.735,776.398,105.65,777.736,105.65z"/>
		<path opacity="0" fill="#54A8DE" d="M777.722,94.048c7.76,0,14.051,6.28,14.051,14.035c0,7.737-6.291,14.023-14.051,14.023
			c-7.737,0-14.018-6.286-14.018-14.023C763.705,100.323,769.985,94.048,777.722,94.048z"/>
	</g>
	<g>
		<circle fill="#E73E4C" cx="648.082" cy="108.075" r="2.426"/>
		<path opacity="0" fill="#54A8DE" d="M648.065,94.046c7.76,0,14.051,6.28,14.051,14.034c0,7.738-6.291,14.023-14.051,14.023
			c-7.737,0-14.018-6.285-14.018-14.023C634.047,100.321,640.328,94.046,648.065,94.046z"/>
	</g>
	<g>
		<path fill="#54A8DE" d="M583.251,103.358c2.609,0,4.719,2.112,4.719,4.718c0,2.604-2.109,4.718-4.719,4.718
			c-2.604,0-4.717-2.112-4.717-4.718S580.646,103.358,583.251,103.358z"/>
		<path opacity="0" fill="#54A8DE" d="M583.235,94.046c7.76,0,14.051,6.28,14.051,14.034c0,7.738-6.291,14.023-14.051,14.023
			c-7.737,0-14.018-6.285-14.018-14.023C569.217,100.321,575.498,94.046,583.235,94.046z"/>
	</g>
	<g>
		<path fill="#E73E4C" d="M777.736,152.956c1.342,0,2.43,1.087,2.43,2.425c0,1.343-1.088,2.43-2.43,2.43
			c-1.338,0-2.424-1.087-2.424-2.43C775.312,154.043,776.398,152.956,777.736,152.956z"/>
		<path opacity="0" fill="#54A8DE" d="M777.722,141.354c7.76,0,14.051,6.28,14.051,14.034c0,7.737-6.291,14.023-14.051,14.023
			c-7.737,0-14.018-6.286-14.018-14.023C763.705,147.629,769.985,141.354,777.722,141.354z"/>
	</g>
	<g>
		<circle fill="#E73E4C" cx="518.427" cy="108.076" r="9.568"/>
		<path opacity="0" fill="#54A8DE" d="M518.408,94.046c7.76,0,14.051,6.28,14.051,14.034c0,7.738-6.291,14.023-14.051,14.023
			c-7.737,0-14.018-6.285-14.018-14.023C504.39,100.321,510.67,94.046,518.408,94.046z"/>
	</g>
	<g>
		<circle fill="#54A8DE" cx="388.636" cy="108.075" r="2.426"/>
		<path opacity="0" fill="#54A8DE" d="M388.754,94.046c7.76,0,14.051,6.28,14.051,14.034c0,7.738-6.291,14.023-14.051,14.023
			c-7.737,0-14.018-6.285-14.018-14.023C374.736,100.321,381.017,94.046,388.754,94.046z"/>
	</g>
	<g>
		<circle fill="#E73E4C" cx="323.808" cy="108.076" r="4.718"/>
		<path opacity="0" fill="#54A8DE" d="M323.792,94.046c7.76,0,14.051,6.28,14.051,14.034c0,7.738-6.291,14.023-14.051,14.023
			c-7.737,0-14.018-6.285-14.018-14.023C309.774,100.321,316.054,94.046,323.792,94.046z"/>
	</g>
	<g>
		<circle fill="#54A8DE" cx="323.808" cy="155.381" r="4.718"/>
		<path opacity="0" fill="#54A8DE" d="M323.792,141.352c7.76,0,14.051,6.281,14.051,14.035c0,7.737-6.291,14.022-14.051,14.022
			c-7.737,0-14.018-6.285-14.018-14.022C309.774,147.627,316.054,141.352,323.792,141.352z"/>
	</g>
	<g>
		<circle fill="#9B9B9A" cx="64.361" cy="108.076" r="9.568"/>
		<path opacity="0" fill="#54A8DE" d="M64.344,94.047c7.76,0,14.051,6.281,14.051,14.036c0,7.736-6.291,14.021-14.051,14.021
			c-7.737,0-14.018-6.285-14.018-14.021C50.327,100.323,56.607,94.047,64.344,94.047z"/>
	</g>
</g>
</svg>
