<?xml version="1.0" encoding="utf-8"?>
<!-- Generator: Adobe Illustrator 16.0.0, SVG Export Plug-In . SVG Version: 6.00 Build 0)  -->
<!DOCTYPE svg PUBLIC "-//W3C//DTD SVG 1.1//EN" "http://www.w3.org/Graphics/SVG/1.1/DTD/svg11.dtd" [
	<!ENTITY ns_extend "http://ns.adobe.com/Extensibility/1.0/">
	<!ENTITY ns_ai "http://ns.adobe.com/AdobeIllustrator/10.0/">
	<!ENTITY ns_graphs "http://ns.adobe.com/Graphs/1.0/">
	<!ENTITY ns_vars "http://ns.adobe.com/Variables/1.0/">
	<!ENTITY ns_imrep "http://ns.adobe.com/ImageReplacement/1.0/">
	<!ENTITY ns_sfw "http://ns.adobe.com/SaveForWeb/1.0/">
	<!ENTITY ns_custom "http://ns.adobe.com/GenericCustomNamespace/1.0/">
	<!ENTITY ns_adobe_xpath "http://ns.adobe.com/XPath/1.0/">
]>
<svg version="1.1" id="Livello_1" xmlns:x="&ns_extend;" xmlns:i="&ns_ai;" xmlns:graph="&ns_graphs;"
	 xmlns="http://www.w3.org/2000/svg" xmlns:xlink="http://www.w3.org/1999/xlink" x="0px" y="0px" width="960px" height="900px"
	 viewBox="-59.681 -1091.18 960 900" enable-background="new -59.681 -1091.18 960 900" xml:space="preserve">
<metadata>
	<sfw  xmlns="&ns_sfw;">
		<slices></slices>
		<sliceSourceBounds  y="-1181.941" x="-7552" width="16383" height="3152.666" bottomLeftOrigin="true"></sliceSourceBounds>
	</sfw>
</metadata>
<circle opacity="0.05" fill="#A52A2A" stroke="#DDDDDD" stroke-opacity="0" cx="277.705" cy="-478.19" r="31.036"/>
<circle opacity="0.05" fill="#4682B4" stroke="#DDDDDD" stroke-opacity="0" cx="347.203" cy="-478.19" r="33.663"/>
<circle opacity="0.05" fill="#A52A2A" stroke="#DDDDDD" stroke-opacity="0" cx="306.945" cy="-619.593" r="108.56"/>
<circle opacity="0.05" fill="#A52A2A" stroke="#DDDDDD" stroke-opacity="0" cx="193.704" cy="-500.399" r="51.052"/>
<circle opacity="0.05" fill="#A52A2A" stroke="#DDDDDD" stroke-opacity="0" cx="235.236" cy="-391.513" r="60.688"/>
<circle opacity="0.05" fill="#A52A2A" stroke="#DDDDDD" stroke-opacity="0" cx="672.669" cy="-521.21" r="33.663"/>
<circle opacity="0.05" fill="#A52A2A" stroke="#DDDDDD" stroke-opacity="0" cx="745.626" cy="-521.21" r="34.494"/>
<circle opacity="0.05" fill="#A52A2A" stroke="#DDDDDD" stroke-opacity="0" cx="708.302" cy="-585.802" r="35.306"/>
<circle opacity="0.05" fill="#A52A2A" stroke="#DDDDDD" stroke-opacity="0" cx="604.627" cy="-598.236" r="64.312"/>
<circle opacity="0.05" fill="#A52A2A" stroke="#DDDDDD" stroke-opacity="0" cx="584.231" cy="-463.544" r="67.115"/>
<circle opacity="0.05" fill="#4682B4" stroke="#DDDDDD" stroke-opacity="0" cx="465.863" cy="-734.033" r="66.691"/>
<circle opacity="0.05" fill="#A52A2A" stroke="#DDDDDD" stroke-opacity="0" cx="571.849" cy="-734.033" r="34.494"/>
<circle opacity="0.05" fill="#A52A2A" stroke="#DDDDDD" stroke-opacity="0" cx="546.53" cy="-804.629" r="35.705"/>
<circle opacity="0.05" fill="#4682B4" stroke="#DDDDDD" stroke-opacity="0" cx="475.839" cy="-846.995" r="41.91"/>
<circle opacity="0.05" fill="#A52A2A" stroke="#DDDDDD" stroke-opacity="0" cx="219.943" cy="-838.346" r="35.306"/>
<circle opacity="0.05" fill="#A52A2A" stroke="#DDDDDD" stroke-opacity="0" cx="320.968" cy="-838.346" r="60.919"/>
<circle opacity="0.05" fill="#A52A2A" stroke="#DDDDDD" stroke-opacity="0" cx="75.592" cy="-767.253" r="36.49"/>
<circle opacity="0.05" fill="#4682B4" stroke="#DDDDDD" stroke-opacity="0" cx="155.63" cy="-767.254" r="38.749"/>
<circle fill-opacity="0" stroke="#DDDDDD" cx="420.501" cy="-638" r="431.499"/>
<circle opacity="0.2" stroke="#DDDDDD" enable-background="new    " cx="279.078" cy="-529.489" r="205.46"/>
<circle opacity="0.2" stroke="#DDDDDD" enable-background="new    " cx="648.618" cy="-529.489" r="159.28"/>
<circle opacity="0.2" stroke="#DDDDDD" enable-background="new    " cx="502.757" cy="-778.125" r="124.181"/>
<circle opacity="0.2" stroke="#DDDDDD" enable-background="new    " cx="283.264" cy="-838.346" r="98.625"/>
<circle opacity="0.2" stroke="#DDDDDD" enable-background="new    " cx="116.74" cy="-767.254" r="77.638"/>
<g>
	<g enable-background="new    ">
		<path d="M253.603-537.891h5.764c1.584,0,2.809,0.374,3.674,1.122c0.821,0.689,1.232,1.577,1.232,2.662
			c0,0.807-0.224,1.496-0.671,2.068s-1.075,0.976-1.881,1.21c0.806,0.161,1.474,0.524,2.002,1.089s0.792,1.287,0.792,2.167
			c0,1.76-0.873,2.963-2.618,3.608c-0.66,0.234-1.496,0.352-2.508,0.352h-5.786V-537.891z M256.199-531.862h3.058
			c0.777,0,1.364-0.168,1.76-0.506c0.396-0.337,0.594-0.796,0.594-1.375s-0.195-1.041-0.583-1.386
			c-0.389-0.345-0.972-0.518-1.749-0.518h-3.08V-531.862z M259.323-525.878c0.836,0,1.441-0.169,1.815-0.507
			c0.374-0.337,0.561-0.784,0.561-1.342c0-0.557-0.195-1.008-0.583-1.353c-0.389-0.345-0.987-0.518-1.793-0.518h-3.124v3.719
			H259.323z"/>
		<path d="M270.455-525.878h5.874v2.266h-8.47v-14.278h2.596V-525.878z"/>
		<path d="M284.204-538.177c0.953,0,1.826,0.158,2.618,0.474s1.474,0.781,2.046,1.396c1.203,1.291,1.804,3.139,1.804,5.544
			c0,2.42-0.602,4.29-1.804,5.61c-1.144,1.232-2.706,1.848-4.686,1.848c-1.965,0-3.52-0.63-4.664-1.892
			c-1.203-1.306-1.804-3.16-1.804-5.566c0-2.434,0.601-4.297,1.804-5.588C280.647-537.567,282.209-538.177,284.204-538.177z
			 M287.988-530.729c0-1.635-0.341-2.896-1.023-3.784c-0.682-0.887-1.603-1.331-2.761-1.331s-2.083,0.444-2.772,1.331
			c-0.689,0.888-1.034,2.149-1.034,3.784c0,1.636,0.345,2.89,1.034,3.762c0.689,0.873,1.613,1.31,2.772,1.31s2.079-0.437,2.761-1.31
			C287.647-527.84,287.988-529.094,287.988-530.729z"/>
		<path d="M302.508-525.878c-0.616,1.716-1.796,2.573-3.542,2.573c-1.79,0-3.263-0.674-4.422-2.023
			c-1.203-1.394-1.804-3.176-1.804-5.346c0-2.288,0.645-4.122,1.936-5.5c1.246-1.335,2.852-2.003,4.818-2.003
			c1.334,0,2.453,0.29,3.355,0.869c0.902,0.58,1.609,1.493,2.123,2.739l-2.662,0.616c-0.777-1.247-1.76-1.87-2.948-1.87
			c-1.085,0-1.987,0.462-2.706,1.386c-0.748,0.939-1.122,2.193-1.122,3.763c0,1.481,0.337,2.684,1.012,3.607
			c0.66,0.909,1.54,1.364,2.64,1.364c0.938,0,1.708-0.301,2.31-0.902c0.616-0.616,0.924-1.459,0.924-2.53v-0.088l-3.212-0.065
			v-1.672h5.698v7.348h-2.112L302.508-525.878z"/>
	</g>
</g>
<g>
	<g enable-background="new    ">
		<path d="M604.256-544.931h3.256l4.686,14.278h-2.75l-0.99-3.08h-5.302l-1.012,3.08h-2.75L604.256-544.931z M603.816-535.69h4.004
			l-1.98-6.138L603.816-535.69z"/>
		<path d="M619.854-545.217c0.88,0,1.643,0.107,2.288,0.319c0.645,0.213,1.203,0.51,1.672,0.892
			c0.924,0.747,1.525,1.796,1.804,3.146l-2.772,0.506c-0.235-0.748-0.598-1.353-1.089-1.814c-0.492-0.462-1.104-0.693-1.837-0.693
			c-0.998,0-1.804,0.418-2.42,1.254c-0.66,0.909-0.99,2.167-0.99,3.773c0,1.605,0.293,2.859,0.88,3.762
			c0.586,0.902,1.386,1.353,2.398,1.353c1.012,0,1.774-0.245,2.288-0.736c0.513-0.491,0.77-1.126,0.77-1.903h2.794
			c0,1.599-0.51,2.835-1.529,3.707c-1.02,0.873-2.417,1.309-4.191,1.309c-1.892,0-3.396-0.659-4.51-1.979
			c-1.129-1.35-1.694-3.183-1.694-5.5c0-2.347,0.579-4.18,1.738-5.5C616.568-544.586,618.035-545.217,619.854-545.217z"/>
		<path d="M626.762-544.931h11.44v2.244h-4.422v12.034h-2.596v-12.034h-4.422V-544.931z"/>
		<path d="M640.379-544.931h2.596v14.278h-2.596V-544.931z"/>
		<path d="M648.211-544.931l3.476,11.022l3.52-11.022h2.728l-4.906,14.278h-2.728l-4.84-14.278H648.211z"/>
		<path d="M660.421-544.931h2.596v14.278h-2.596V-544.931z"/>
		<path d="M674.611-540.992c-0.235-1.247-1.115-1.87-2.64-1.87c-0.748,0-1.331,0.15-1.749,0.451s-0.627,0.663-0.627,1.089
			s0.135,0.759,0.407,1.001s0.693,0.466,1.265,0.671l3.102,1.21c1.056,0.411,1.87,0.928,2.442,1.551
			c0.572,0.624,0.858,1.405,0.858,2.344c0,1.29-0.484,2.313-1.452,3.068c-0.968,0.756-2.347,1.133-4.136,1.133
			c-1.584,0-2.868-0.388-3.85-1.166c-1.1-0.85-1.68-2.053-1.738-3.607h2.574c0,1.174,0.608,1.914,1.826,2.222
			c0.366,0.103,0.851,0.154,1.452,0.154c0.601,0,1.158-0.15,1.672-0.451c0.513-0.301,0.77-0.704,0.77-1.21s-0.14-0.895-0.418-1.166
			c-0.279-0.271-0.734-0.524-1.364-0.759l-2.838-1.122c-1.1-0.426-1.943-0.924-2.53-1.496c-0.587-0.572-0.88-1.364-0.88-2.376
			c0-1.188,0.462-2.127,1.386-2.816c0.938-0.718,2.211-1.078,3.817-1.078s2.845,0.371,3.718,1.111
			c0.872,0.741,1.375,1.778,1.507,3.113H674.611z"/>
		<path d="M684.863-544.931l3.916,8.492l3.916-8.492h3.586v14.278h-2.618v-10.846l-4.048,9.284h-1.694l-4.18-9.593v11.154h-2.596
			v-14.278H684.863z"/>
	</g>
</g>
<g>
	<g enable-background="new    ">
		<path d="M474.62-791.566l6.292,10.12v-10.12h2.596v14.278h-2.64l-6.49-10.472v10.472h-2.596v-14.278H474.62z"/>
		<path d="M487.578-791.566h9.196v2.244h-6.6v3.762h6.182v2.244h-6.182v3.763h6.6v2.266h-9.196V-791.566z"/>
		<path d="M501.791-791.566l3.146,10.847l3.058-9.9h1.76l3.234,9.944l3.344-10.891h2.926l-4.906,14.278h-2.728l-2.684-8.052
			l-2.662,8.052h-2.728l-4.664-14.278H501.791z"/>
		<path d="M529.246-787.628c-0.235-1.247-1.115-1.87-2.64-1.87c-0.748,0-1.331,0.15-1.749,0.451s-0.627,0.663-0.627,1.089
			s0.135,0.759,0.407,1.001s0.693,0.466,1.265,0.671l3.102,1.21c1.056,0.411,1.87,0.928,2.442,1.551
			c0.572,0.624,0.858,1.405,0.858,2.344c0,1.29-0.484,2.313-1.452,3.068c-0.968,0.756-2.347,1.133-4.136,1.133
			c-1.584,0-2.868-0.388-3.85-1.166c-1.1-0.85-1.68-2.053-1.738-3.607h2.574c0,1.174,0.608,1.914,1.826,2.222
			c0.366,0.103,0.851,0.154,1.452,0.154c0.601,0,1.158-0.15,1.672-0.451c0.513-0.301,0.77-0.704,0.77-1.21s-0.14-0.895-0.418-1.166
			c-0.279-0.271-0.734-0.524-1.364-0.759l-2.838-1.122c-1.1-0.426-1.943-0.924-2.53-1.496c-0.587-0.572-0.88-1.364-0.88-2.376
			c0-1.188,0.462-2.127,1.386-2.816c0.938-0.718,2.211-1.078,3.817-1.078s2.845,0.371,3.718,1.111
			c0.872,0.741,1.375,1.778,1.507,3.113H529.246z"/>
	</g>
</g>
<g>
	<g enable-background="new    ">
		<path d="M225.493-850.551c2.17,0,3.923,0.646,5.258,1.937c1.35,1.291,2.024,3.028,2.024,5.214c0,2.171-0.675,3.901-2.024,5.192
			c-1.334,1.29-3.087,1.936-5.258,1.936h-4.642v-14.278H225.493z M223.469-838.626h2.024c1.349,0,2.442-0.455,3.278-1.364
			c0.792-0.88,1.188-2.017,1.188-3.41c0-1.423-0.396-2.574-1.188-3.454c-0.821-0.895-1.914-1.342-3.278-1.342h-2.024V-838.626z"/>
		<path d="M235.943-850.551h9.196v2.244h-6.6v3.762h6.182v2.244h-6.182v3.763h6.6v2.266h-9.196V-850.551z"/>
		<path d="M252.575-850.551l3.916,8.492l3.916-8.492h3.586v14.278h-2.618v-10.846l-4.048,9.284h-1.694l-4.18-9.593v11.154h-2.596
			v-14.278H252.575z"/>
		<path d="M273.562-850.837c0.953,0,1.826,0.158,2.618,0.474s1.474,0.781,2.046,1.396c1.203,1.291,1.804,3.139,1.804,5.544
			c0,2.42-0.602,4.29-1.804,5.61c-1.144,1.232-2.706,1.848-4.686,1.848c-1.965,0-3.52-0.63-4.664-1.892
			c-1.203-1.306-1.804-3.16-1.804-5.566c0-2.434,0.601-4.297,1.804-5.588C270.006-850.228,271.568-850.837,273.562-850.837z
			 M277.347-843.39c0-1.635-0.341-2.896-1.023-3.784c-0.682-0.887-1.603-1.331-2.761-1.331s-2.083,0.444-2.772,1.331
			c-0.689,0.888-1.034,2.149-1.034,3.784c0,1.636,0.345,2.89,1.034,3.762c0.689,0.873,1.613,1.31,2.772,1.31s2.079-0.437,2.761-1.31
			C277.005-840.5,277.347-841.754,277.347-843.39z"/>
		<path d="M288.236-850.837c0.88,0,1.643,0.107,2.288,0.319c0.645,0.213,1.203,0.51,1.672,0.892
			c0.924,0.747,1.525,1.796,1.804,3.146l-2.772,0.506c-0.235-0.748-0.598-1.353-1.089-1.814c-0.492-0.462-1.104-0.693-1.837-0.693
			c-0.998,0-1.804,0.418-2.42,1.254c-0.66,0.909-0.99,2.167-0.99,3.773c0,1.605,0.293,2.859,0.88,3.762
			c0.586,0.902,1.386,1.353,2.398,1.353c1.012,0,1.774-0.245,2.288-0.736c0.513-0.491,0.77-1.126,0.77-1.903h2.794
			c0,1.599-0.51,2.835-1.529,3.707c-1.02,0.873-2.417,1.309-4.191,1.309c-1.892,0-3.396-0.659-4.51-1.979
			c-1.129-1.35-1.694-3.183-1.694-5.5c0-2.347,0.579-4.18,1.738-5.5C284.951-850.206,286.417-850.837,288.236-850.837z"/>
		<path d="M307.662-846.173c0,1.013-0.286,1.878-0.858,2.597s-1.394,1.217-2.464,1.496l3.828,5.808h-3.388l-3.146-5.566h-1.98v5.566
			h-2.596v-14.278h5.28c1.686,0,2.999,0.404,3.938,1.21C307.2-848.562,307.662-847.507,307.662-846.173z M302.096-843.576
			c0.953,0,1.672-0.217,2.156-0.649c0.484-0.433,0.726-1.004,0.726-1.716c0-0.711-0.22-1.283-0.66-1.716s-1.1-0.649-1.98-0.649
			h-2.684v4.73H302.096z"/>
		<path d="M314.526-850.551h3.256l4.686,14.278h-2.75l-0.99-3.08h-5.302l-1.012,3.08h-2.75L314.526-850.551z M314.086-841.311h4.004
			l-1.98-6.138L314.086-841.311z"/>
		<path d="M322.094-850.551h11.44v2.244h-4.422v12.034h-2.596v-12.034h-4.422V-850.551z"/>
		<path d="M343.214-846.612c-0.235-1.247-1.115-1.87-2.64-1.87c-0.748,0-1.331,0.15-1.749,0.451s-0.627,0.663-0.627,1.089
			s0.135,0.759,0.407,1.001s0.693,0.466,1.265,0.671l3.102,1.21c1.056,0.411,1.87,0.928,2.442,1.551
			c0.572,0.624,0.858,1.405,0.858,2.344c0,1.29-0.484,2.313-1.452,3.068c-0.968,0.756-2.347,1.133-4.136,1.133
			c-1.584,0-2.868-0.388-3.85-1.166c-1.1-0.85-1.68-2.053-1.738-3.607h2.574c0,1.174,0.608,1.914,1.826,2.222
			c0.366,0.103,0.851,0.154,1.452,0.154c0.601,0,1.158-0.15,1.672-0.451c0.513-0.301,0.77-0.704,0.77-1.21s-0.14-0.895-0.418-1.166
			c-0.279-0.271-0.734-0.524-1.364-0.759l-2.838-1.122c-1.1-0.426-1.943-0.924-2.53-1.496c-0.587-0.572-0.88-1.364-0.88-2.376
			c0-1.188,0.462-2.127,1.386-2.816c0.938-0.718,2.211-1.078,3.817-1.078s2.845,0.371,3.718,1.111
			c0.872,0.741,1.375,1.778,1.507,3.113H343.214z"/>
	</g>
</g>
<g enable-background="new    ">
	<path d="M57.209-772.318c0,1.013-0.286,1.878-0.858,2.597s-1.394,1.217-2.464,1.496l3.828,5.808h-3.388l-3.146-5.566h-1.98v5.566
		h-2.596v-14.278h5.28c1.686,0,2.999,0.404,3.938,1.21C56.747-774.708,57.209-773.652,57.209-772.318z M51.643-769.722
		c0.953,0,1.672-0.217,2.156-0.649c0.484-0.433,0.726-1.004,0.726-1.716c0-0.711-0.22-1.283-0.66-1.716s-1.1-0.649-1.98-0.649
		h-2.684v4.73H51.643z"/>
	<path d="M60.751-776.696h9.196v2.244h-6.6v3.762h6.182v2.244h-6.182v3.763h6.6v2.266h-9.196V-776.696z"/>
	<path d="M82.41-775.519c0.902,0.784,1.353,1.906,1.353,3.365c0,1.46-0.451,2.582-1.353,3.366c-0.902,0.785-2.16,1.177-3.773,1.177
		h-2.42v5.192h-2.618v-14.278h5.038C80.25-776.696,81.508-776.304,82.41-775.519z M78.637-769.876c0.806,0,1.415-0.213,1.826-0.638
		c0.41-0.426,0.616-0.972,0.616-1.64c0-0.667-0.206-1.217-0.616-1.649c-0.411-0.433-1.02-0.649-1.826-0.649h-2.42v4.576H78.637z"/>
	<path d="M88.823-776.696v8.889c0,1.173,0.297,2.017,0.891,2.529c0.594,0.514,1.36,0.771,2.299,0.771s1.705-0.257,2.299-0.771
		c0.594-0.513,0.891-1.356,0.891-2.529v-8.889h2.596v8.889c0,1.818-0.506,3.223-1.518,4.213c-1.012,0.99-2.435,1.484-4.268,1.484
		s-3.256-0.494-4.268-1.484c-1.012-0.99-1.518-2.395-1.518-4.213v-8.889H88.823z"/>
	<path d="M101.626-776.696h5.764c1.584,0,2.809,0.374,3.674,1.122c0.821,0.689,1.232,1.577,1.232,2.662
		c0,0.807-0.224,1.496-0.671,2.068s-1.075,0.976-1.881,1.21c0.806,0.161,1.474,0.524,2.002,1.089s0.792,1.287,0.792,2.167
		c0,1.76-0.873,2.963-2.618,3.608c-0.66,0.234-1.496,0.352-2.508,0.352h-5.786V-776.696z M104.223-770.668h3.058
		c0.777,0,1.364-0.168,1.76-0.506c0.396-0.337,0.594-0.796,0.594-1.375s-0.195-1.041-0.583-1.386
		c-0.389-0.345-0.972-0.518-1.749-0.518h-3.08V-770.668z M107.347-764.684c0.836,0,1.441-0.169,1.815-0.507
		c0.374-0.337,0.561-0.784,0.561-1.342c0-0.557-0.195-1.008-0.583-1.353c-0.389-0.345-0.987-0.518-1.793-0.518h-3.124v3.719H107.347
		z"/>
	<path d="M118.479-764.684h5.874v2.266h-8.47v-14.278h2.596V-764.684z"/>
	<path d="M126.75-776.696h2.596v14.278h-2.596V-776.696z"/>
	<path d="M138.564-776.982c0.88,0,1.643,0.107,2.288,0.319c0.645,0.213,1.203,0.51,1.672,0.892c0.924,0.747,1.525,1.796,1.804,3.146
		l-2.772,0.506c-0.235-0.748-0.598-1.353-1.089-1.814c-0.492-0.462-1.104-0.693-1.837-0.693c-0.998,0-1.804,0.418-2.42,1.254
		c-0.66,0.909-0.99,2.167-0.99,3.773c0,1.605,0.293,2.859,0.88,3.762c0.586,0.902,1.386,1.353,2.398,1.353
		c1.012,0,1.774-0.245,2.288-0.736c0.513-0.491,0.77-1.126,0.77-1.903h2.794c0,1.599-0.51,2.835-1.529,3.707
		c-1.02,0.873-2.417,1.309-4.191,1.309c-1.892,0-3.396-0.659-4.51-1.979c-1.129-1.35-1.694-3.183-1.694-5.5
		c0-2.347,0.579-4.18,1.738-5.5C135.278-776.352,136.745-776.982,138.564-776.982z"/>
	<path d="M150.686-776.696h3.256l4.686,14.278h-2.75l-0.99-3.08h-5.302l-1.012,3.08h-2.75L150.686-776.696z M150.245-767.456h4.004
		l-1.98-6.138L150.245-767.456z"/>
	<path d="M163.951-776.696l6.292,10.12v-10.12h2.596v14.278h-2.64l-6.49-10.472v10.472h-2.596v-14.278H163.951z"/>
	<path d="M184.433-772.758c-0.235-1.247-1.115-1.87-2.64-1.87c-0.748,0-1.331,0.15-1.749,0.451s-0.627,0.663-0.627,1.089
		s0.135,0.759,0.407,1.001s0.693,0.466,1.265,0.671l3.102,1.21c1.056,0.411,1.87,0.928,2.442,1.551
		c0.572,0.624,0.858,1.405,0.858,2.344c0,1.29-0.484,2.313-1.452,3.068c-0.968,0.756-2.347,1.133-4.136,1.133
		c-1.584,0-2.868-0.388-3.85-1.166c-1.1-0.85-1.68-2.053-1.738-3.607h2.574c0,1.174,0.608,1.914,1.826,2.222
		c0.366,0.103,0.851,0.154,1.452,0.154c0.601,0,1.158-0.15,1.672-0.451c0.513-0.301,0.77-0.704,0.77-1.21s-0.14-0.895-0.418-1.166
		c-0.279-0.271-0.734-0.524-1.364-0.759l-2.838-1.122c-1.1-0.426-1.943-0.924-2.53-1.496c-0.587-0.572-0.88-1.364-0.88-2.376
		c0-1.188,0.462-2.127,1.386-2.816c0.938-0.718,2.211-1.078,3.817-1.078s2.845,0.371,3.718,1.111
		c0.872,0.741,1.375,1.778,1.507,3.113H184.433z"/>
</g>
</svg>
