<?xml version="1.0" encoding="utf-8"?>
<!-- Generator: Adobe Illustrator 16.0.0, SVG Export Plug-In . SVG Version: 6.00 Build 0)  -->
<!DOCTYPE svg PUBLIC "-//W3C//DTD SVG 1.1//EN" "http://www.w3.org/Graphics/SVG/1.1/DTD/svg11.dtd">
<svg version="1.1" xmlns="http://www.w3.org/2000/svg" xmlns:xlink="http://www.w3.org/1999/xlink" x="0px" y="0px"
	 width="1634.89px" height="2948.513px" viewBox="0 0 1634.89 2948.513" enable-background="new 0 0 1634.89 2948.513"
	 xml:space="preserve">
<g id="guide">
</g>
<g id="palette_x5F_colori">
</g>
<g id="sfondo">
	<rect fill="#F0F0EC" width="1634.89" height="2948.513"/>
</g>
<g id="fondale">
	<rect x="75.255" y="74.168" fill="#C4CCE6" width="1484.581" height="310.657"/>
	<rect x="75.255" y="384.826" fill="#BEC5DE" width="1484.581" height="310.657"/>
	<rect x="75.255" y="695.483" fill="#BAC0D9" width="1484.581" height="310.657"/>
	<rect x="75.255" y="1006.14" fill="#B5BCD4" width="1484.581" height="310.657"/>
	<rect x="75.255" y="1316.797" fill="#B1B7CF" width="1484.581" height="310.657"/>
	<rect x="75.255" y="1627.455" fill="#ADB3CA" width="1484.581" height="310.657"/>
	<rect x="75.255" y="1938.112" fill="#AAB0C7" width="1484.581" height="310.657"/>
	<rect x="75.255" y="2248.769" fill="#A4AABF" width="1484.581" height="310.657"/>
	<rect x="75.255" y="2559.426" fill="#A0A5BA" width="1484.581" height="310.657"/>
</g>
<g id="acqua" opacity="0.8">
	<g>
		<path fill="#D7DDEF" d="M72.046,70.966L71.97,342.708c21.007,0,32.167,14.442,51.205,18.382
			c17.725,4.595,32.823,5.251,49.235-3.939c14.442-8.534,30.197-17.725,45.296-24.29c17.725-7.221,32.167-18.38,49.892-25.602
			c13.786-5.908,26.915-8.534,41.357-11.16c15.755-3.282,36.106-2.626,39.388-22.977c4.908-35.579-26.353-66.843-51.475-87.265
			c-11.406-9.272-28.172-17.433-27.519-34.435c0.268-6.959,2.854-13.782,3.315-20.792c0.697-10.59,1.389-15.603,9.193-23.118
			c4.778-4.602,10.683-8.797,13.312-14.953c2.926-6.852-0.16-13.546,0-20.316L72.046,70.966z"/>
	</g>
	<g>
		<path fill="#D7DDEF" d="M343.857,73.287c9.263,12.351,22.556,14.41,34.907,21.614c13.38,7.205,21.57,20.584,32.892,29.848
			c22.643,16.468,45.264,28.818,74.083,27.79c11.322-1.029,24.691-6.176,37.042-4.117c16.467,2.058,24.696,18.526,38.076,26.76
			c12.351,8.234,23.669,7.205,32.933,21.614c7.204,13.38,7.203,28.819,8.232,43.228c3.088,17.497,3.087,23.672-6.176,38.081
			c-8.234,13.38-13.38,21.614-11.322,39.111c4.117,25.73,12.351,43.228,9.263,72.046c-3.088,26.76-2.059,51.461-25.73,67.929
			c-17.221,11.98-38.123,23.667-46.527,44.008c-3.921,9.492-5.803,20.693-1.82,30.383c4.446,10.816,13.591,19.893,22.72,26.932
			c5.563,4.29,12.596,5.741,18.081,10.101c5.091,4.046,10.448,6.482,16.186,9.411c3.78,1.93,7.263,4.035,11.009,6.011
			c5.93,3.125,12.975,4.15,19.031,6.987c15.271,7.155,25.217,20.889,35.052,33.957c4.482,5.955,8.013,12.693,12.362,18.964
			c4.039,5.823,8.698,11.365,12.712,16.542c9.494,12.247,24.648,24.916,40.131,27.17c13.242,1.928,29.619,3.702,42.892,0.986
			c13.68-2.799,28.036-8.983,41.783-12.467c19.695-4.992,39.909,4.172,59.321,5.151c6.521,0.329,15.615,1.314,21.564-0.844
			c6.904-2.505,12.994-9.074,17.781-14.408c16.228-18.084,12.786-46.397,17.389-69.77c2.949-14.969,2.235-27.895-1.838-42.438
			c-4.774-17.046-0.239-29.465,9.282-44.018c8.522-13.026,18.635-32.975,13.723-48.801c-2.684-8.647-7.944-15.155-5.746-25.223
			c1.689-7.731,6.979-16.961,11.251-23.726c8.704-13.782,8.651-28.477,16.746-41.33c8.987-14.271,22.546-17.722,37.948-19.997
			c16.742-2.473,32.005-8.214,49.078-10.925c9.542-1.515,19.898-4.183,29.974-3.023c8.292,0.954,14.477,5.027,22,7.807
			c29.165,10.772,70.101,21.172,97.777,2.197c28.723-19.692,57.252-32.849,93.445-27.203c15.609,2.435,35.424-2.825,49.777,4.922
			c13.875,7.488,25.364,19.538,39.219,27.032c14.07,7.61,31.011,15.213,43.004,26.246c10.068,9.263,21.09,22.827,35.777,25.023
			c19.63,2.935,36.786-6.806,55.174-8.023c20.285-1.343,39.174,1.972,58.174,4V72.674L343.857,73.287z"/>
	</g>
	<g>
		<path fill="#D7DDEF" d="M70.335,974.589c26.989-13.96,38.157-6.331,48.394-36.112c9.307-25.128,21.406-53.979,21.406-81.899
			c0-22.336-8.086-46.716-14.601-68.121c-6.515-22.336-30.5-42.445-55.627-49.891L70.335,974.589z"/>
	</g>
	<g>
		<path fill="#D7DDEF" d="M651.069,703.766c41.061-10.75,68.869,25.128,86.552,56.771c28.851,51.187,27.92,109.818-14.891,151.698
			c-11.168,10.237-21.405,16.752-33.504,24.197c-13.029,10.237-21.405,24.197-33.504,34.435
			c-20.475,20.475-53.048,18.614-73.522-2.792c-22.336-23.267-12.099-53.979,0.931-80.037c6.515-13.029,21.405-23.267,25.128-37.227
			c2.792-10.237-2.792-19.544-2.792-29.781c-0.931-21.405,8.376-41.88,8.376-63.285c0-30.712-1.604-45.346,28.177-51.86
			C642.02,705.884,649.943,704.061,651.069,703.766z"/>
	</g>
	<g>
		<path fill="#D7DDEF" d="M793.474,914.159c-34.667,16.667-40,58-27.333,88.667c3.333,8,9.333,17.333,10.667,26
			c2,10.667,0,17.333,4,28c8,18,12.667,34.667,27.333,50c15.333,15.333,30,12,50,12c22,0,26.667,14,35.333,31.333
			c19.333,41.333,64.667,13.333,94,2.667c20-7.333,26-22,26-42c0-16.667,4.667-34-3.333-48.667c-12-21.333-13.333-35.333-10-60
			c2.667-18.667,0.667-32-15.333-44c-14.667-10.667-31.333-20-46.667-29.333c-8-5.333-16.667-10-24-16
			c-6.667-4.667-12-13.333-19.333-16c-4.667-2-9.333,0-13.333-2c-4.667-2-6.667-6.667-10.667-9.333
			c-8.667-5.333-17.333-3.333-26.667,0c-17.333,6.667-30.43,22.95-47.763,27.616L793.474,914.159z"/>
	</g>
	<g>
		<path fill="#D7DDEF" d="M706.141,1266.826c3.135-2.508,37-31,61-38c21-6,42.317-9.131,63.317-15.131
			c25-7,43.683-8.869,62.683,12.131c21,24,13,47-4,71c-19,28-38,46-71,47c-16,1-29,3-42,12c-13,8-19,18-34,21
			c-71,13-92.667-77.833-55-99.167C692.727,1274.495,702.807,1269.492,706.141,1266.826z"/>
	</g>
	<g>
		<path fill="#D7DDEF" d="M1238.667,561.776c-13.208-3.774-25.474,12.266-34.909,19.813c-10.378,9.435-23.588,15.096-34.909,24.531
			c-23.587,17.927-48.118,43.4-34.909,74.535c16.04,39.626,66.044,121.71,115.105,77.366
			c25.474-23.587,48.118-72.648,51.892-107.558c2.831-27.361-25.474-82.083-54.722-87.744L1238.667,561.776z"/>
	</g>
	<g>
		<path fill="#D7DDEF" d="M1563.226,602.346c-26.417,2.831-50.948,14.152-77.366,16.983c-25.474,2.83-47.174-1.887-70.761-1.887
			c-52.836,0-89.631,77.365-72.648,120.766c7.548,18.87,21.7,34.909,30.191,52.836c7.548,14.151,8.491,31.134,9.435,46.229
			c1.5,23.996-7.054,47.343-6.566,71.629c0.544,27.052,2.35,53.916,15.081,78.386c7.547,14.506,9.604,30.354,17.194,45.081
			c7.874,15.276,18.659,29.332,24.526,45.074c3.908,10.486,3.849,21.992,7.109,32.782c4.048,13.393,10.342,26.593,18.002,38.186
			c9.304,14.08,21.557,25.296,32.972,37.033c23.12,23.773,51.076,40.878,70.945,66.963L1563.226,602.346z"/>
	</g>
	<g>
		<path fill="#D7DDEF" d="M1202.465,1708.788c9.361-14.979,14.354-32.454,24.964-46.808c11.858-15.603,38.694-18.099,56.793-21.844
			c18.099-3.121,38.694-4.369,57.417-1.873c19.971,3.121,22.468,24.34,29.957,39.319c7.489,14.354,19.347,28.708,18.723,44.935
			c-0.624,23.092-12.482,49.305-28.084,66.155c-19.971,21.219-61.163,22.468-88.623,29.333
			c-20.595,5.617-46.808,16.851-68.651,9.985c-18.099-6.241-19.347-30.581-19.347-46.808c0-25.588,6.241-44.936,14.979-68.651
			L1202.465,1708.788z"/>
	</g>
	<g>
		<path fill="#D7DDEF" d="M510.488,2116.61c-1,12.135,9.558,20.225,15.221,29.933c7.281,11.326,4.779,24.271,8.824,37.214
			c5.663,18.607,30.704,50.967,50.12,58.248c21.034,8.09,43.667-8.09,61.465-16.18c29.933-12.944,46.103-28.315,67.945-51.776
			c33.169-36.404,50.154-105.169,50.154-152.091c0-28.315-15.373-38.832-35.599-55.821c-20.225-16.988-39.642-34.786-62.294-49.349
			c-37.214-23.461-90.608-33.978-128.631-7.28c-48.54,34.786-28.974,88.18-22.502,136.72c3.236,23.461,3.296,39.641-4.704,62.293
			V2116.61z"/>
	</g>
	<g>
		<path fill="#D7DDEF" d="M688.396,2872.828c-0.835-13.374-5.016-24.241,5.852-35.107c10.031-10.867,23.406-9.195,34.272-17.555
			c10.867-6.688,18.39-15.046,29.257-22.569c13.375-8.359,12.539-17.555,15.882-30.929c10.031-48.483,62.693-86.935,110.34-65.201
			c23.405,10.867,43.467,25.077,62.693,42.632c17.554,15.882,32.6,30.929,57.678,32.601c9.195,0.836,18.39-1.672,27.585-0.836
			c13.374,0.836,20.898,9.194,33.437,13.374c19.226,5.852,42.631,0,62.693,0c24.241,0,49.318,15.047,70.217,25.913
			c21.733,11.703,60.185,30.929,68.544,56.006L688.396,2872.828z"/>
	</g>
</g>
<g id="penisola">
	<g>
		<path fill="#F5F5F3" d="M72.046,339.625c8.97-7.625,23.771-5.382,32.741,0.449c6.279,4.037,9.867,7.176,17.043,7.625
			c5.831,0.449,11.661-2.242,16.595-1.345c6.728,0.896,10.764,7.176,17.94,8.072c5.382,0.897,9.418-0.448,14.801-2.691
			c12.11-4.485,23.322-10.764,34.087-17.492c22.425-14.801,40.365-35.433,66.828-43.057c9.867-2.691,20.631-8.073,31.396-7.625
			c11.661,0.448,25.117,10.315,34.535-1.346c11.213-13.903-0.448-39.917-10.764-52.027c-8.97-9.418-21.08-20.631-31.396-28.256
			c-10.764-8.073-20.183-4.934-32.293-8.073c-15.25-3.14-15.698-16.146-13.904-29.152c0.703-5.099-0.319-10.202-1.342-15.175
			c-0.95-4.615-3.656-8.392-4.446-12.915c-1.631-9.341,4.653-19.6,11.171-25.758c4.25-4.015,8.778-7.627,13.434-11.288
			c4.088-3.214,9.102-6.708,11.336-11.451c2.003-4.255,1.919-12.501,0.347-17.153H72.046V339.625z"/>
	</g>
	<g>
		<path fill="#F5F5F3" d="M923.336,398.048c3.194-10.066-2.013-14.925-3.247-24.416c-2.827-21.747,21.931-29.646,39.052-29.807
			c8.924-0.083,17.272,1,26.052,1c20.289,0.001,32.778-12.116,49.929-18.804c18.057-7.042,43.518-3.351,61.016,2.585
			c15.062,5.108,27.957,17.171,42.978,20.245c8.066,1.651,19.488,2.265,28.026,0.974c11.27-1.704,14.136-9.204,20.726-17.246
			c9.885-12.063,20.839-24.468,34.027-33.753c11.571-8.146,29.068-12.512,43.228-10.44c17.854,2.612,32.101,16.22,51.02,16.439
			c16.078,0.187,32.821-7.791,47.974,0.753c16.551,9.332,18.682,25.492,33.03,35.518c8.761,6.122,12.23,6.589,15.941,17.729
			c2.823,8.475,5.014,15.14,12.032,21.777c10.811,10.225,22.592,12.797,37.126,12.223c16.946-0.669,24.803-9.259,37.874-17.726
			c14.727-9.541,24.701-8.511,39.995-7.223c12.951,1.091,18.132-5.798,23.028-16.052V72.674L374.038,70.827
			c27.89,8.048,29.096,29.541,50.812,32.557c8.445,1.207,13.874-0.603,19.906,6.635c5.429,6.636,6.032,17.494,12.667,24.129
			c11.461,10.857,31.97,11.46,45.844,6.635c15.08-5.429,15.541-8.652,31.225-9.858c6.635-0.604,13.874-1.81,19.906,1.206
			c7.238,4.223,11.461,13.271,19.906,16.287c7.239,2.413,18.096-0.603,24.128,3.016c9.049,5.429,4.223,15.684,3.62,24.128
			c-1.206,10.255,1.81,13.874,7.842,22.319c2.413,3.016,4.854,5.221,7.267,8.237c4.223,7.842,0.055,16.886-1.754,24.727
			c-2.816,12.204,8.825,11.185,13.291,21.748c6.307,14.917-1.104,21.61-11.715,31.379c-3.601,3.316-15.24,13.311-17.937,17.424
			c-5.991,9.137-2.65,19.984,3.436,27.761c6.509,8.317,14.12,15.652,19.183,25.347c11.082,21.226,8.606,47.142-8.55,64.099
			c-6.633,6.556-11.6,9.64-13.968,19.223c-2.546,10.305-0.923,14.05-10.278,19.723c-6.299,3.82-14.476,6.353-20.971,10.028
			c-12.086,6.839-27.65,17.197-30.22,32.174c-2.572,14.995,12.968,27.6,21.821,37.229c4.74,5.156,8.527,9.508,10.758,15.925
			c2.266,6.519,5.711,11.174,11.511,15.503c9.057,6.761,19.96,9.467,31.501,9.457c10.415-0.009,22.621-1.176,30.898,6.454
			c5.23,4.822,2.479,12.564,6.207,18.063c6.006,8.855,14.748,7.792,14.106,20.239c-1.266,24.575,20.373,43.978,42.174,51.139
			c26.863,8.825,53.528-9.769,80.012-11.547c15.324-1.029,27.47,7.873,42.31,9.91c9.771,1.342,19.328,3.754,29.28,4.722
			c10.932,1.063,18.083-0.906,24.305-10.318c5.458-8.259,11.531-15.382,10.863-25.847c-0.715-11.198-3.431-21.784-10.852-30.119
			c-5.487-6.162-7.3-13.261-4.329-21.529c2.322-6.462,5.923-11.969,10.113-17.526c5.079-6.735,4.537-13.34-0.19-20.225
			c-4.235-6.169-12.251-14.909-13.149-22.57c-1.193-10.183,10.415-21.022,15.848-28.536c6.808-9.415,14.217-21.397,16.643-32.909
			c2.735-12.979-7.76-24.476-3.815-37.778C907.29,417.348,919.485,410.189,923.336,398.048z"/>
	</g>
	<g>
		<path fill="#F5F5F3" d="M69.907,738.566c7.55,22.651,34.182,33.223,46.263,52.854c7.55,15.101,3.02,15.101,4.53,28.693
			c1.51,10.57,6.041,21.142,4.53,31.712c-1.51,9.061-12.081,15.101-13.591,27.182c0,9.06,6.041,18.122,6.041,28.692
			c-1.51,18.121-25.121,40.773-43.243,45.303h-4.53V738.566z"/>
	</g>
	<g>
		<path fill="#F5F5F3" d="M685.369,1317.944c-8.333,44.448,44.998,58.997,76.496,37.998c22.499-14.999,29.999-22.499,56.997-22.499
			c23.999,0,26.999,0,41.998-19.499c19.499-28.499,50.998-80.996-4.5-94.496c-22.499-4.5-40.498,10.5-56.997,20.999
			c-19.499,13.5-31.618,10.096-52.497,16.5C689.391,1274.576,685.369,1317.944,685.369,1317.944z"/>
	</g>
	<g>
		<path fill="#F5F5F3" d="M1176.733,625.52c28.774,9.011,54.005-91.009,90.009-40.004c12.001,15.002-9.001,105.011-12.001,126.013
			c-24.002,132.013-126.012-33.003-96.009-84.008C1158.731,627.521,1164.608,621.723,1176.733,625.52z"/>
	</g>
	<g>
		<path fill="#F5F5F3" d="M1562.336,612.354c-45.005-3-52.569,36.168-103.575,24.167c-45.004-12.001-63.006-18.001-90.009,30.003
			l-6,12.001c-21.002,66.007,30.003,87.01,42.004,144.015c9.001,48.005-24.002,90.009-3,144.015
			c9,21.002,27.002,36.004,39.004,60.006c9.001,24.002,6,42.004,24.002,66.007c30.003,36.003,70.571,74.255,97.574,116.259V612.354z
			"/>
	</g>
	<g>
		<path fill="#F5F5F3" d="M920.899,1053.609c22.144-3.611,56.481-2.066,74.39,11.71c15.843,12.398-2.066,30.307,4.822,46.149
			c4.133,10.332,7.577,12.398-0.689,22.73c-6.199,8.266-13.776,9.644-24.108,11.021c-21.352,3.444-33.75,20.664-57.17,10.332
			c-13.087-5.51-13.087-11.709-13.087-23.419c0,0,4.965-13.776-9.916-30.996S902.333,1056.638,920.899,1053.609z"/>
	</g>
	<g>
		<path fill="#F5F5F3" d="M532.652,1935.058c-23.891,27.662,20.118,77.958,25.147,106.878c7.544,33.949-27.663,59.097-21.375,89.274
			c1.257,7.544,7.544,12.573,12.574,17.604c2.515,3.771,8.802,7.544,10.059,11.316c1.258,6.287-6.287,8.802-5.029,13.831
			c3.772,11.316,8.802,10.059,15.088,18.86c7.544,8.802,6.287,17.604,11.317,26.405c21.375,36.465,70.414-23.89,89.274-41.493
			c22.633-20.118,45.266-44.009,49.038-75.443c2.515-15.089-2.515-31.435,1.257-47.781c3.772-16.346,21.375-23.89,23.89-40.236
			c6.287-64.127-174.777-126.996-207.469-86.76L532.652,1935.058z"/>
	</g>
	<g>
		<path fill="#F5F5F3" d="M1364.864,1713.992c2.557-6.038,1.291-9.645-2.993-14.529c-5.078-5.151-7.726-6.481-5.803-14.322
			c2.295-7.894,4.851-13.931,3.065-22.574c-1.84-7.689-7.135-10.35-14.665-8.721c-11.401,2.363-17.093,13.005-27.595,16.378
			c-6.151,2.002-33.071-17.36-39.113-17.266c-6.254-0.065-10.663,4.909-16.393,7.229c-7.691,3.166-15.273,4.424-22.068,9.923
			c-8.442,7.245-3.979,29.925-10.886,38.657c-5.525,6.456-11.421,12.964-15.464,20.536c-3.988,6.618-4.265,12.713-5.922,19.759
			c-3.151,12.556,7.24,25.7,4.513,38.574c-1.498,6.835-5.708,18.594,4.786,19.197c19.131,1.468,33.433-20.607,52.979-14.845
			c14.991,4.322,28.407,1.485,41.198-7.13c16.24-10.993,30.522-23.793,39.832-41.001c5.106-9.425,9.312-18.533,13.783-28.437
			L1364.864,1713.992z"/>
	</g>
	<g>
		<path fill="#F5F5F3" d="M703.448,2872.737c0-6.681,2.505-28.395,7.516-33.405c6.681-7.517,20.878-3.341,30.064-11.692
			c4.176-4.176,6.682-10.856,10.857-14.197c5.846-4.176,9.187-3.341,15.033-5.846c10.857-5.011,10.857-10.857,13.362-24.22
			c6.682-28.395,26.725-65.141,56.79-74.327c27.56-7.517,59.295,4.176,80.174,23.384c17.538,15.032,23.384,47.604,45.098,57.625
			c24.219,12.527,54.284-2.506,79.339,9.187c10.856,5.011,20.043,11.692,31.735,13.362c12.527,1.67,26.725,0,39.251-0.835
			c23.384-0.835,56.79-6.682,75.998,8.352c9.187,8.352,16.703,18.373,25.889,26.725c7.517,7.516,20.879,13.362,21.714,24.219
			L703.448,2872.737z"/>
	</g>
	<g>
		<path fill="#F5F5F3" d="M607.416,907.013c3.216-2.144,6.433-4.288,9.649-7.505c12.865-11.794,19.299-20.371,16.083-38.598
			c-3.217-12.866-15.01-24.659-12.866-38.598c4.289-17.154,20.371-13.938,16.083-36.453c-2.145-10.722-8.577-20.371-9.649-33.236
			c-2.145-33.237,31.092-49.319,58.969-34.31c26.804,12.866,41.813,48.247,51.463,75.051c4.289,12.866,12.866,26.804,13.938,39.67
			c1.072,19.299-13.938,27.876-23.588,42.886c-7.505,9.649-7.505,18.227-11.794,28.948c-9.649,23.587-18.226,12.866-35.381,19.299
			c-28.948,10.721-30.02,61.113-71.834,47.175c-35.381-10.721-39.67-47.175-4.289-61.113L607.416,907.013z"/>
	</g>
	<g>
		<path fill="#F5F5F3" d="M785.855,934.153c11.458-14.582,48.954-46.87,69.785-41.663c8.332,3.125,10.416,10.416,17.706,13.541
			c4.166,2.083,8.333,0,13.54,2.083c15.624,6.249,21.873,19.789,34.372,30.204c21.873,17.707,55.203,9.374,68.743,42.705
			c12.499,28.122-19.79,45.828-42.704,45.828c-32.289,1.042-52.078,3.125-74.992,29.164c-15.624,16.666-37.496,64.577-62.494,43.746
			c-22.914-18.748-13.54-39.58-16.665-65.618c-2.083-17.707-11.457-28.122-17.707-44.787c-8.333-20.831,3.125-29.164,6.25-48.953
			L785.855,934.153z"/>
	</g>
	<path fill="none" stroke="#333333" stroke-width="0.75" stroke-miterlimit="10" d="M75.499,332.178
		c1.686-0.421,4.571,1.58,6.678,1.158c1.265-0.421,2.107-2.529,4.215-2.95s5.479,0,7.586-0.421
		c1.265,8.852,14.331,1.686,18.124,6.744c-4.215,5.479,9.694,6.744,11.801,5.479c4.215-2.528-0.421-5.058,5.9-5.058
		c3.372-0.421,6.744,2.529,9.694,3.793c2.107,0.843,4.636,1.264,6.744,2.529c0.843,1.265-1.265,2.95,0.421,4.215
		c2.107,0.843,3.793,0,5.058,0.422c1.686,0.421,7.165,2.528,8.851,2.528c0.421,0,2.95-3.372,4.215-3.793
		c0.843-0.421,2.529,1.686,4.215,1.265c5.058-1.687,9.694-6.323,15.173-8.43c5.9-1.687,12.223-5.479,17.28-10.116
		c3.793-3.793,0.843-3.372,2.107-7.165c0.843-2.528,0.421-5.9,5.058-5.058c6.322,1.265,4.214,9.694,12.644,3.793
		c2.529-2.107,2.951-5.48,5.058-8.008c2.95-3.793,2.95-2.95,6.743-5.058c2.107-1.265,4.215-2.529,6.322-3.372
		c3.372-2.107,6.322-2.529,9.272-4.214c6.744-3.372,5.901-10.958,10.958-15.173c2.951-2.529,4.637-3.793,8.43-3.372
		c5.901,0.843,3.372,3.372,9.694,0.421c5.058-2.107,7.166-3.372,13.066-2.95c4.215,0.421,1.686,3.372,6.322,0
		c5.058-3.372-1.264-5.901,5.479-2.95c1.265,0.421,0,3.371,1.686,3.793c1.265,0.421,2.951-1.686,2.951-1.265
		c-0.422-0.421,3.372-0.843,3.372-0.843c-0.421,0,2.95,2.95,3.372,3.372c11.38,5.058,6.322-7.165,10.958-7.165
		c2.528,0,5.058,4.214,6.322,5.9c3.793-3.372,5.479-9.694,5.058-14.752c-0.422-2.107-1.686-5.479-2.107-8.008
		c-0.422-1.685,0-3.371-0.421-5.056c-0.54-2.159-3.533-2.761-4.464-4.629c-1.451-2.913,0.739-4.012,0.308-6.542
		c-0.719-4.225-7.42-9.319-10.634-12.285c-3.738-3.448-8.495-7.104-13.094-9.269c-5.947-2.798-6.266-1.623-9.31-7.224
		c-1.764-3.246-4.945-2.345-8.022-3.782c-3.122-1.458-6.087-3.273-9.04-4.857c-2.885-1.547-5.854-2.288-9.164-1.157
		c-3.697,1.264-4.57,4.786-8.537,1.273c-2.71-2.4-2.657-4.329-6.534-5.806c-2.365-0.9-2.449-0.152-4.561-2.12
		c-1.202-1.119-1.443-2.692-2.92-3.782c-2.794-2.061-7.393-0.319-8.406-4.676c5.489,0.37,3.171-2.906,3.317-5.934
		c0.178-3.691,1.894-5.636,1.284-9.715c-0.271-1.817-0.909-3.069-0.841-5.058c0.047-1.403,1.454-3.302,0.769-4.657
		c-1.469-2.907-6.574-2.225-8.271-5.985c-2.056-4.554,1.48-6.558-1.77-10.863c-1.857-2.459-5.607-5.806-3.73-9.694
		c1.21-2.506,6.077-3.619,8.061-5.797c1.452-1.595,4.073-6.344,3.699-8.502c-0.662-3.817-6.037-3.497-5.016-8.388
		c2.339-0.288,3.93,2.374,5.835,2.051c2.165-0.367,1.923-2.918,3.024-4.57c5.783,0.652,3.397-3.346,6.66-5.89
		c0.562-0.438,2.025-0.123,2.54-0.505c0.463-0.344,1.349-1.306,1.78-1.602c1.571-1.08,3.19-1.374,3.624-2.255
		c0.753-3.118,6.066-2.915,8.003-4.785c4.083-4.083-1.16-7.054,1.243-9.069c1.648-1.382,6.757,2.485,7.625-0.056
		c0.409-5.07-2.153-3.788-3.432-7.407c-1.182-3.345,3.413-1.398,2.613-4.978"/>
	<path fill="none" stroke="#333333" stroke-width="0.75" stroke-miterlimit="10" d="M386.711,73.95
		c0.492,1.22,3.133,1.251,4.249,2.565c1.807,2.125,3.966,0.283,5.949,1.699c0.85,0.284-0.566,2.267,1.133,2.833
		c1.417,0.283,1.7-1.417,1.983-1.417c1.983,0.283,3.399-1.133,3.966,2.833c0.283,0.567-1.983,1.133-1.983,1.983
		c0.566,1.134,1.416,0.851,1.983,1.983c0.566,0.85,3.399,3.116,4.532,4.249c0.566,0.567,2.266,0.284,2.833,0.85
		c0.85,0.283,0,2.549,1.417,2.833c1.983,0.566,3.683-1.7,5.949-1.133c1.983,0.566,1.983,3.116,3.683,3.966
		c2.549,0.85,3.399-1.7,5.665-1.7c2.55,0,1.983,0.566,3.683,2.266c2.549,2.55,0.566,2.833,4.532,3.683
		c5.666,1.133,6.516,1.416,9.348,5.949c1.983,3.399,6.515,6.232,7.932,9.914c0.283,0.85-0.85,7.365,3.116,5.949
		c1.699-0.849,0-5.099,2.266-6.232c2.833-1.133,3.683,1.133,4.533,3.116c0.566,0.85,0.283,2.833,0.566,3.966
		c0.85,1.416,2.833,1.983,3.116,3.966c0.567,3.399-1.983,2.833,1.133,6.515c1.133,1.416,3.116,3.399,5.099,3.682
		c1.417,0.284,4.249-1.133,6.232-0.85c2.266,0.566,3.966,1.983,6.232,2.266c2.266-8.781,4.533-3.399,10.48-1.417
		c4.25,1.133,8.782-1.416,12.181-3.682c1.7-1.133,4.816-2.55,6.232-3.966c1.983-1.699,1.417-3.399,4.532-4.532
		c4.25-1.417,9.348,1.699,13.313,2.55"/>
	<path fill="none" stroke="#333333" stroke-width="0.75" stroke-miterlimit="10" d="M534.012,129.769
		c2.266-0.283,2.833-2.548,5.099-2.833c2.833-0.566,2.833,1.417,5.099,0c1.133-0.85-0.284-3.682,2.549-3.965
		c1.417,0,1.7,2.266,2.549,2.549c0.85,0.283,1.983,0.283,3.116,0.566c0.85,0,1.416-1.7,2.549-1.417
		c0.566,0.283,0.566,1.417,1.133,1.417c0.284,0.283-0.283,1.7,0,1.7c0.567,0.566,2.266,0.85,2.833,1.133
		c3.399,2.549,5.665,6.231,9.348,9.064c0.567,0.566,1.982,0.283,3.116,1.133c0.85,0.567,0,2.266,0.566,2.833
		c3.399,2.833,1.7,1.133,3.966-0.85c1.417-1.7,1.7-3.966,4.249-2.833c1.983,0.566,0.566,3.399,1.7,3.683
		c3.399,1.7,1.7-1.133,4.249-2.266c3.399-1.133,3.399,0.283,5.099,1.416c0.567,0.567,2.55,2.266,3.399,3.117
		c0.85,0.85,0.283,2.266,1.7,2.549c1.133,0.283,3.115-1.133,3.399-1.133c1.699,0.566,1.699,2.549,2.833,3.116
		c2.549,1.983,1.417,0.85,4.532,1.133c5.383,0,8.782,0.283,5.949,5.665c-1.133,2.266-2.549,1.983-2.266,5.1
		c0,3.115,1.417,3.398,0.567,6.798c-0.85,3.683-1.133,6.799-2.833,9.914c-0.851,1.7-3.116,3.399-2.833,5.383
		c0.283,1.982,2.833,2.833,3.966,4.815c1.133,1.7-1.983,2.55,1.983,3.116c0.567,0.283,2.549-2.267,4.249-1.416
		c1.7,1.133,0.567,3.115,0.85,4.249c0.283,1.7,0,3.966,0.566,5.382c0.283,0.85-1.133,1.133,0.283,2.266
		c0.85,1.133,1.699,0.001,2.832,0.283c3.337,0.83,5.634-0.159,6.53,4.746c0.687,3.764-3.802,6.029,0.028,9.126
		c-0.59,0.796-1.504,1.298-2.5,1.489c1.904,1.052,2.234,4.197-0.615,3.662c-0.372,1.728,1.21,2.604,1.33,4.163
		c-3.211-0.233-4.808,6.869-4.778,9.107c0.021,1.583,0.845,4.803,1.438,5.664c1.296,1.877,4.255,1.946,5.712,3.968
		c1.206,1.674,1.551,3.393,3.125,5.027c0.577,0.6,1.754,1.075,2.123,1.842c0.624,1.294-0.203,1.418-0.155,1.961
		c0.263,3.001,0.57,2.224,3.059,3.69c1.432,0.845,3.447,2.212,3.068,4.144c-1.346,0.978-3.701,0.81-3.929,2.598
		c-0.229,1.799,2.135,3.226,1.443,5.616c-0.132,0.453-1.525,0.933-1.451,2.031c0.067,1.007,1.115,0.78,1.509,1.629
		c1.751,3.777-0.169,1.538-3.407,2.614c-2.54,0.845-1.865,1.967-1.764,3.626c0.032,0.527,1.434,0.703,0.586,1.846
		c-0.433,0.585-2.493,0.243-3.136,0.484c-2.924,1.097-1.342,3.33-3.11,4.821c-1.402,1.183-4.262-0.187-5.628-0.535
		c-0.27,1.684,0.334,3.099,0.197,4.736c-2.061,0.351-2.82-2.524-4.715-1.883c-2.573,0.87,0.341,3.186,0.241,4.177
		c-0.319,3.138-4.47,0.424-5.616,3.13c-0.613,1.445,1.378,3.816-2.309,3.711c0.406,0.527,0.562,1.4,1.081,1.875
		c0.301,0.274-3.927,0.785-4.04,0.82c-2.49,0.766-2.084,1.619-3.087,4.196c-1.138,2.923-3.637,5.943-3.83,9.162
		c-0.108,1.813,7.041,13.048,7.275,12.893c-0.115,4.063,4.069,1.772,5.213,4.077c1.282,2.583-2.875,2.514,0.482,4.058
		c0.741,0.34,1.981-0.429,2.617,0.199c1.066,1.053-0.318,1.593-0.004,2.412c0.761,1.987,1.702,1.501,3.569,2.819
		c-1.049,7.833,19.621,1.411,13.591,10.707c-1.131,1.742-2.199,1.6-1.084,3.848c0.67,1.349,3.124,1.899,3.418,3.525
		c0.283,1.566-1.283,1.348-0.593,3.178c0.603,1.599,2.702,0.856,1.954,3.288c-1.114,0.398-2.416,0.432-3.597,0.375
		c-0.595,2.545,1.471,5.512,1.594,8.172c0.127,2.73-1.098,5.726-0.737,8.166c1.643,0.845,3.774,1.934,4.214,4.014
		c0.511,2.421-1.641,4.209-3.625,2.593c-1.656,3.306,1.737,4.522,3.286,6.853c0.917,1.381,1.355,3.876-1.625,2.97
		c-0.027-0.156-0.053-0.313-0.08-0.469c-0.014,0.003-0.771-0.01-0.761-0.006c-0.161,1.147,0.349,2.08,1.274,2.802
		c-2.632-2.053-4.303,5.677-4.361,6.714c-0.218,3.854,1.732,7.507,1.586,11.36c-0.893,0.048-2.579-0.309-3.349,0.034
		c-1.875,0.835-1.063,2.961-2.544,3.696c-1.581,0.785-4.038-0.279-5.687,0.838c-3.356,2.276-1.057,10.854-7.308,9.312
		c-1.131-1.98-0.813-5.602-3.972-5.296c-0.062,0.942-0.364,1.789-0.369,2.748c-1.366-0.208-3.467,1.029-3.306,2.591
		c0.15,1.46,3.4,2.315,3.078,3.959c-0.39,1.984-3.786-0.292-4.289,1.991c-0.279,1.263,2.624,2.675,3.377,3.164
		c0.694,2.474-1.742,1.776-2.569,3.281c-0.877,1.594,0.362,3.513,0.31,5.126c-3.307-0.57-1.911,2.264-3.576,3.794
		c-0.818,0.751-2.115,0.213-2.696,1.341c-0.732,1.424,0.904,2.23,0.655,3.406c-0.285,1.338-0.793,1.708-2.271,1.99
		c-0.673,0.129-3.054-0.747-2.896-0.807c-2.125,0.805-0.451,3.39-3.966,3.35c-2.488-0.029-4.159-2.172-5.319,0.566
		c-1.516,3.578,1.227,3.648-3.145,5.885c-1.251,0.64-2.385,1.005-3.369,2.047c-0.619,0.654-1.107,2.878-1.397,3.121
		c-2.456,2.054-5.992-1.353-8.461-1.96c0.121,0.544-0.217,1.358-0.1,1.911c-1.556,0.079-3.172,0.001-4.724,0.093
		c-0.771,0.853-0.517,2.581-1.161,3.15c-1.337,1.184-2.664-0.368-2.854,1.899c-0.158,1.88,1.842,1.614,2.208,3.117
		c0.7,2.867-2.749,2.093-4.712,2.271c0.215-0.057,0.517-0.037,0.735-0.063c-3.009-1.566-7.771-2.798-8.741,1.189
		c0.206,0.244,0.409,0.619,0.581,0.837c-1.35,1.292-4.039,0.614-4.523,2.281c-0.567,1.952,1.353,1.441,1.933,2.604
		c1.816,3.64-1.722,3.899-2.668,7.291c-0.856,3.068,0.82,2.523,1.875,4.268c1.248,2.063,0.854,1.096-0.282,3.399
		c-0.903,1.831-0.833,1.7-0.78,3.611c0.01,0.339,0.75,0.954,0.807,1.494c0.076,0.725-1.127,0.695-0.882,1.7
		c0.329,1.351,1.964,0.92,1.747,2.784c2.276,0.454,10.202,4.564,9.532,7.35c-0.463,1.923-3.827,2.103-2.719,4.878
		c0.526,1.318,3.688,2.42,4.842,2.8c1.17-1.398,4.007-7.05,6.154-2.535c1.609,3.383-2.865,5.398-1.07,9.015
		c0.667,1.345,2.113,2.42,2.977,3.753c0.891,1.373,0.512,2.74,1.196,3.965c0.727,1.3,1.757,0.992,2.763,2.047
		c1.556,1.632,0.854,1.991,0.686,4.129c0.835,0.361,3.412,1.08,3.922,1.516c2.036,1.742,0.133,2.419,0.568,4.2
		c0.979,4.008,3.202-1.7,5.402-2.229c1.603,3.03-3.151,3.226-2.591,5.917c0.646,3.099,3.812,0.647,4.899,0.632
		c2.952-0.042,1.241,1.557,1.991,3.818c0.827,2.49,2.683,2.752,4.532,4.009c1.761,1.196,2.712,3.147,4.454,4.316
		c1.336-1.485,4.343-3.129,6.543-2.306c1.738,0.65,1.957,3.042,3.655,3.631c1.962,0.68,3.885-1.319,5.964-1.358
		c2.819-0.055,3.961,1.602,6.457,2.562c1.386-3.02,2.666-7.813,6.848-3.752c0.905-2.876,6.46-4.42,8.435-2.43
		c0.936,0.943-0.504,1.704,1.191,2.492c1.777,0.825,3.213-0.955,4.616-1.351c1.096-0.309,1.404-0.946,2.684-0.298
		c2.396,1.216,0.552,1.776,0.646,2.989c0.069,0.89-1.042,1.043,0.261,2.13c0.875,0.729,3.027-0.006,4.051,0.192
		c4.579,0.887,1.543,3.088,2.465,5.962c0.593,1.848,2.474,1.562,3.432,2.763c1.093,1.371,0.427,2.041,0.831,3.751
		c0.556,2.353,3.163,2.713,3.97,4.817c0.843,2.194-2.232,3.354,0.325,5.333c2.597,0.187,0.615,4.603,0.852,6.515
		c1.961,0.777,4.501-0.222,6.438,0.899c2.196,1.271,3.258,5.286,3.281,7.674c4.332,0.231,4.502,2.912,3.552,5.991
		c-0.277,0.897-1.343,0.287-1.081,1.574c0.086,0.42,1.08,0.81,1.281,1.268c0.432,0.985,2.688,2.888-0.73,2.797
		c-0.646,1.836,1.331,4.376-0.85,4.533c-0.393,1.829,1.636,3.664-0.565,4.843c0.121,0.142,1.422,1.361,1.394,1.262
		c0.073,0.265,0.126,2.104,0.32,2.287c1.938,1.833,2.519,0.008,4.475,0.042c4.596,0.082,1.698,5.019,1.467,7.622
		c1.741,1.006,3.695-1.75,5.274-0.256c1.975,1.869-1.159,4.401-1.65,5.748c-1.9,5.215,6.817,3.449,5.994,8.388
		c1.169,0.39,3.242,0.558,4.212,1.146c1.275,0.771,2.024,2.395,3.356,3.129c0.104-2.077-0.417-5.724,2.592-5.932
		c3.453-0.237,2.007,4.175,3.322,5.748c0.741,0.884,2.194,1.206,3.256,1.277c0.733,0.049,3.23-0.865,3.343-0.813
		c0.896,0.412,0.537,1.668,1.08,2.293c0.817,0.94,1.849,1.014,2.818,1.743c1.171,0.883,2.194,3.034,3.763,3.179
		c2.095,0.194,3.038-2.35,5.401-1.849c2.025,0.43,2.822,2.467,5.28,2.039c1.441-0.25,2.757-1.8,4.013-2.018
		c1.587-0.275,2.628,0.634,4.045,0.863c3.273,0.529,4.221-1.988,7.103-3.336c1.547-0.725,5.696-0.336,6.514-1.687
		c1.304-2.153-2.508-3.764-0.436-6.365c0.796-1,1.529-1.661,2.902-1.358c2.168,0.479,0.996,2.343,2.026,3.142
		c2.986,2.317,5.183-2.616,6.544-4.198c0.695-0.808,1.916-2.337,3.043-2.343c1.516-0.007,1.729,1.956,3.11,2.216
		c3.006,0.563,7.427-7.56,8.525-9.66c0.856-1.637,1.299-4.265,3.103-5.239c2.332-1.26,5.456-0.265,6.45,2.217
		c1.958,4.89-4.229,5.299-3.859,9.573c2.218,1.252,3.186-0.575,5.332-0.239c1.085,0.17,1.293,1.34,2.276,1.696
		c1.602,0.58,2.584,0.096,4.537-0.549c2.196-0.725,3.579-1.379,5.659-0.08c1.521,0.95,1.909,2.578,3.669,3.257
		c2.656,1.023,6.17-0.727,8.796,0.263c1.758,0.662,2.904,2.839,4.447,3.973c2.871,2.109,1.333,0.128,3.974-0.125
		c1.926-0.185,2.848,0.964,2.668,3.136c1.223,0.625,2.409-0.063,3.585-0.482c1.571,3.792,2.549,1.648,5.361,1.311
		c1.639-0.195,1.396,0.516,2.688,0.857c0.463,0.122,0.608,0.741,1.05,0.932c0.738,0.317,1.143-0.981,1.995-0.542
		c1.112,0.572,1.504,2.059,2.544,2.717c1.428,0.903,3.223,0.751,4.83,0.979c2.351,0.333,5.141,0.496,7.422,1.068
		c3.305,0.828,3.38,0.752,6.23-0.786c2.33-1.257,4.127-2.146,6.521-0.969c2.367,1.164,3.427,3.546,5.815,0.85
		c2.201-2.484,0.014-4.363,4.001-4.753c4.542-0.444,8.471,2.811,9.963-2.516c0.658-2.349,0.462-4.742,1.445-7.065
		c1.42-0.357,2.966-0.225,4.44-0.438c0.543-3.046-1.071-4.023-2.86-5.758c-3.014-2.921-0.861-3.012,0.12-6.273
		c1.029,0.241,2.172,0.671,3.308,0.48c0.096-1.893-0.032-3.763-0.199-5.581c0.534-0.025,0.828-0.333,1.325-0.375
		c-0.216-1.417-0.476-2.585-0.453-4.135c0.03-2.041,0.071-2.046-0.835-4.108c-0.846-1.926-0.59-2.012-0.293-4.108
		c0.23-1.619,0.699-3.187-1.195-3.752c-1.75-0.521-2.524,1.559-3.957,1.112c-3.075-0.96-0.503-3.292,0.061-4.441
		c2.562-5.224-3.073-2.023-4.361-5.452c2.927-2.274,0.066-2.891-1.098-4.18c-0.297-0.33-0.804-0.512-1.138-0.913
		c-0.279-0.334,0.236-1.243-0.051-1.643c-0.606-0.843-1.468-1.435-2.449-1.577c-0.038-1.063,0.935-1.877,0.873-2.666
		c-0.066-0.848-1.088-1.08-1.199-2.043c-0.412-3.551,4.33-6.624,0.886-10.271c-1.068-1.131-3.837-1.13-1.941-3.256
		c1.075-1.204,2.935-0.1,3.97-1.475c0.775-1.029,0.174-4.105,0.25-5.347c1.107-0.301,2.186-0.814,2.789-1.75
		c0.204-0.315,1.147-3.329,1.142-3.384c-0.159-1.526-1.357-1.796-1.649-3.131c-0.366-1.671,0.838-1.977,1.075-3.398
		c0.603-3.608-2.948-3.567-4.191-6.515c-1.134-2.69,0.348-4.954,2.203-6.862c2.171-2.233,4.419-3.534,1.699-6.153
		c-2.481-2.389-3.061-1.978-3.399-5.681c-0.104-1.133-0.769-2.367-0.786-3.399c-0.019-1.065,0.9-2.143,0.801-3.116
		c-0.269-2.625-2.671-3.057-4.824-3.958c-6.863-2.875-0.783-5.949,0.789-9.702c0.755-1.802,2.081-4.377,1.484-6.466
		c-0.699-2.446-4.004-2.52-4.851-4.512c-1.616-3.803,1.731-3.286,3.484-2.619c2.361,0.898,6.629,2.522,6.657-0.715
		c0.021-2.599-2.189-3.073,1.142-4.956c2.055-1.161,3.911-0.917,3.795-4.138c2.669,0.214,4.202-1.301,5.104-3.677
		c3.392-1.94,6.474-5.692,7.885-9.113c0.714-1.73,2.202-3.16,2.764-4.947c0.757-2.409-0.388-4.303-0.303-6.693
		c0.153-4.331,4.323-7.575,3.77-12.169c-0.172-1.425-1.126-1.89-1.423-3.109c-0.611-2.509-0.382-1.116,1.389-2.845
		c1.282-1.252,1.147,0.313,0.82-1.962c-0.144-0.998-0.98-1.827-1.021-3.117c-0.038-1.25,1.583-1.838,0.178-3.35
		c-0.569-0.612-2.597-0.72-3.336-0.905c-1.366-0.343-5.706-1.532-3.206-4.263c0.882-0.963,6.282,0.124,3.566-3.732
		c-1.044-1.481-6.973-1.405-3.498-4.753c0.9-0.867,2.729-0.05,3.357-1.127c0.997-1.711-1.133-1.668-1.862-2.831
		c-1.068-1.705-0.9-1.534,0.212-3.408c1.097-1.847,1.278-1.967,1.708-4.241c0.416-2.203,1.182-2.449,2.209-4.384
		c0.949-1.785,0.147-2.98,2.267-4.192c1.863-1.066,6.296-1.105,6.286-4.456c-0.003-0.838-6.34-7.905-0.614-6.182
		c1.877,5.985,2.38-1.926,4.886,0c0.297-1.82,1.116-2.375,1.961-3.448c0.826-1.048,1.672-0.937,1.459-3.074
		c2.025-0.13,1.373-3.442,2.146-4.935c0.911-1.759,3.035-2.947,2.578-5.256c-0.743-3.751-11.029-3.03-10.997-8.263
		c0.024-3.927,2.918-1.025,4.474-2.317c2.678-2.227-0.294-5.852-1.706-7.362c-3.771-4.035-0.062-2.788,0.075-6.467
		c0.082-2.168-3.743-3.168-2.581-5.671c0.472-1.016,2.14-0.956,2.796-1.468c0.851-0.665,1.37-1.63,1.982-2.492
		c2.348-3.307,5.688-5.329,6.914-9.602c1.606,0.484,2.847,1.409,3.922,2.563c2.19-1.963-0.766-4.525,3.611-3.747
		c0.854,0.152,1.282,1.591,2.903,0.608c0.688-0.417,1.172-2.104,1.424-2.81c1.602-0.035,2.926,1.009,4.155,1.91
		c0.127-0.831,0.712-1.438,0.944-2.188c1.816-0.297,2.948,0.852,4.504,0.8c1.901-0.064,1.505-0.743,2.91-1.406
		c2.362-1.115,4.555-0.995,7.224-0.583c2.883,0.446,5.938-0.12,8.852,0.291c1.254,0.176,4.28,1.666,5.229,0.649
		c0.803-0.859-0.729-2.19-0.654-3.439c0.542-0.155,1.638-0.158,2.174,0.007c0.054,0.583,0.428,0.955,0.382,1.602
		c1.864,1.549,2.011-1.414,4.561,0.255c2.091,1.368,1.327,2.856,4.454,1.188c2.538-1.354,2.273-1.513,4.872-0.82
		c2.495,0.665,5.198,0.902,7.589-0.174c2.68-1.208,4.393-4.571,7.708-4.104c2.853,0.402,1.938,1.673,4.257,0.02
		c1.837-1.31,1.555-2.415,4.492-2.777c4.661-0.574,6.998,2.565,7.059-3.738c0.029-2.984,0.195-6.877,4.489-6.189
		c0.154,0.97-0.019,1.91-0.494,2.747c2.619,0.682,2.717-1.262,4.283-2.507c2.904-2.308,2.685,0.738,5.319,0.304
		c1.25-0.205,1.332-2.046,2.55-2.512c1.136-0.434,2.295,0.415,3.398,0.225c2.832-0.488,3.532-2.676,2.066-5.099
		c-0.907-1.5-4.32-3.674-0.65-5.332c2.61-1.179,3.646,1.655,4.746,3.288c2.588,3.836,4.309,2.219,8.134,0.332
		c2.793-1.379,6.248-0.829,5.569,3.087c2.181,0.101,5.363-1.057,7.335-0.528c2.204,0.591,1.698,1.615,4.037,1.152
		c2.037-0.403,1.654-1.583,4.102,0.07c1.193,0.806,1.994,2.429,3.694,2.153c0.499-1.601,0.464-3.878,2.608-3.937
		c1.588-0.043,2.228,1.363,2.306,2.792c2.775,0.879,6.308-0.921,8.98-1.92c0.046,0.928-0.407,3.824,0.307,4.467
		c0.767,0.691,3.803-0.207,4.51-0.487c-0.623,4.527,6.571,2.569,8.76,4.276c1.033,0.806,1.382,2.545,2.67,3.28
		c0.926,0.527,3.207,1.016,4.151,1.083c-0.032-1.921,1.445-3.716,3.115-2.242c1.849,1.633-0.528,3.318-0.197,5.138
		c1.15,0.041,1.302-1.043,2.159-1.145c1.451-0.173,0.025-0.739,1.479,0.337c0.673,0.499,0.063,1.551,1.127,1.989
		c0.626,0.257,2.162-0.654,2.797-0.812c0.246,4.493,1.82,2.252,4.801,3.838c1.14,0.606,1.273,1.649,2.602,2.066
		c2.647,0.831,5.263-0.745,6.724-2.533c1.356-1.662,2.507-5.874,5.248-3.701c3.266,2.589,0.316,7.747,4.746,9.352
		c1.273,0.461,2.275,0.399,3.606,0.982c1.44,0.631,3.523,2.226,5.145,2.146c3.567-0.174,3.163-4.133,7.346-2.483
		c0.51,0.2,0.625,1.176,1.178,1.356c1.158,0.378,1.645-0.268,2.858-0.387c1.604-0.157,4.567,0.44,5.879-0.483
		c1.183-0.833,0.542-1.648,1.247-2.484c1.679-1.994,2.351-0.995,5.115-1.764c3.794-1.056-0.787-2.135,1.833-4.815
		c1.738-1.779,5.132-2.196,4.644,1.373c2.126-0.512,3.554-4.222,3.683-6.367c1.762-0.104,2.138-3.957,3.35-5.417
		c1.171-1.409,1.247-1.786,1.991-3.468c0.782-1.771,1.07-2.428,3.13-3.372c0.754,1.562,2.062,1.763,2.824,0.537
		c1.991-3.201-3.591-6.39,3.687-5.972c-0.113-0.007-0.068-4.029,0.146-4.416c1.183-2.124,1.606-0.959,3.662-0.63
		c4.55,0.728,7.457-1.94,7.592-6.684c0.123-4.323,0.097-7.896,5.598-8.04c3.222-0.084,7.213,2.103,10.157-0.027
		c1.451-1.05,2.004-2.466,3.707-3.124c1.987-0.768,4.237-0.124,6.236-0.566c1.575-0.35,1.765-1.121,2.896-1.621
		c2.087-0.925,4.787-0.84,7.278-1.246c-0.243-3.098,2.024-5.806,5.405-5.631c2.787,0.145,2.675,2.998,5.396,2.341
		c1.063-0.256,1.295-1.718,2.813-1.78c2.218-0.091,2.188,1.671,3.101,2.562c2.481,2.424,5.979,2.004,8.816,3.888
		c2.911,1.933,3.919,1.801,7.352,2.039c3.659,0.254,2.73,2.278,5.171,3.971c2.828,1.962,4.91,0.59,4.749-2.667
		c-0.06-1.198-2.701-9.373,1.347-4.405c0.845,1.038,0.531,2.717,1.476,3.342c2.115,1.399,4.439-1.579,6.038-1.593
		c1.663-0.014,4.215,4.101,4.744,6.168c0.325,1.271-0.609,1.64,0.326,2.848c0.694,0.896,2.939,1.362,3.993,1.14
		c1.362-0.288,1.356-1.396,2.535-1.927c1.311-0.591,2.968-0.375,4.419-0.304c0.067,1.183-0.972,1.967-0.888,2.979
		c0.206,2.472,0.565,1.099,2.348,1.787c0.354,0.137,0.993,0.294,1.395,0.328c0.253,0.273,0.521,0.529,0.808,0.768
		c2.157,0.173,2.779-1.546,4.554-1.95c1.882-0.428,3.879,0.453,5.998,0.081c0.74-0.131,1.32-0.772,2.225-0.92
		c1.905-0.311,3.359,0.817,5.148,0.856c2.27,0.05,4.144-1.191,4.255-3.646c1.664-0.087,3.875-0.311,5.381,0.573
		c0.985,0.579,0.286,1.841,1.963,2.294c1.557,0.421,1.763-0.978,2.537-0.94c1.253,0.062,2.142,1.37,3.413,1.102
		c1.303-0.274,6.096-7.793,7.937-3.022c0.676,1.753-1.861,2.603-1.659,3.916c0.236,1.539,5.062,2.299,6.444,2.308
		c-0.405,4.591,4.11,3.114,7.656,4.541c0.041,1.616-0.34,3.523,0.585,4.765c1.074,1.441,3.404,1.27,4.703,2.558
		c3.148,3.126-1.428,6.664,5.188,7.294c-0.124-0.947-2.389-7.644,1.234-5.685c1.535,0.83,0.252,4.558,0.751,5.797
		c0.796,1.974,1.221,0.872,1.099,2.785c-0.084,1.313-1.214,1.341-0.242,3.114c0.458,0.835,1.879,1.316,2.422,2.047
		c0.741,0.996,0.428,2.112,1.245,3.166c1.481,1.91,3.152,0.762,4.936,1.592c1.532,0.712,1.602,1.744,2.723,2.858
		c2.37,2.354,5.406,1.659,7.391,4.5c1.322,1.894,1.109,2.077,3.463,2.826c2.061,0.657,2.93,0.369,3.549,2.557
		c0.474,1.674-0.172,2.473,0.551,4.044c0.208,0.451,1.369,0.889,1.509,1.261c0.351,0.933-0.62,1.203-0.532,1.762
		c0.112,0.712,0.102,1.576,0.222,2.217c0.155,0.829,1.39,0.562,1.371,1.707c-0.012,0.768-3.495,1.748-0.77,3.227
		c0.378-1.428,0.053-2.84,1.665-3.673c2.181-1.127,2.263-0.016,2.568,1.574c0.157,0.82-0.724,1.158-0.57,2.046
		c0.146,0.845,1.034,1.35,1.145,1.989c0.243,1.396,0.835,2.34-1.098,3.158c-0.698,2.483,1.866,2.814,3.052,4.264
		c1.348,1.647,0.908,3.35,2.581,4.972c1.487,1.441,3.662,1.516,5.027,3.236c0.804,1.014,1.667,5.243,3.476,2.803
		c0.646-0.872-0.201-7.914,4.242-5.152c1.962,1.219,0.143,5.142,1.1,6.902c0.218,0.401,1.754,1.264,2.065,1.625
		c0.813,0.942,0.392,1.896,1.624,2.561c1.107,0.597,3.314-0.313,4.558-0.019c1.169,0.275,1.816,1.18,3.091,1.398
		c0.446-1.868-0.948-2.396-1.457-3.922c-0.253-0.758-0.966-1.898-0.384-2.729c1.843-2.628,3.635,2.637,4.034,3.87
		c3.161-0.553,15.376-10.169,17.105-2.337c3.964,0.188,8.604,0.996,10.389-2.699c1.036-2.145,0.468-3.862,3.186-3.78
		c1.468,0.045,2.303,1.144,3.596,1.067c0.901-0.053,2.565-0.891,3.832-1.061c2.636-0.354,2.051-0.074,3.627-2.129
		c2.661-3.471,4.734-3.13,9.303-3.643c0.083-2.318-1.883-5.862,0.306-7.484c2.675-1.982,3.321,2.053,5.963,1.641
		c2.955-0.46,1.62-5.461,5.608-4.531c1.775,0.414,1.157,1.277,2.338,2.534c1.077,1.145,0.792,0.813,2.812,1.134
		c3.382,0.539,6.757,0.836,10.204,0.306c1.602-0.247,3.428-1.229,5.111-1.155c1.696,0.075,2.399,1.274,3.607,1.444
		c2.992,0.422,2.207-3.383,5.515-2.853c0.889,0.142,1.938,1.585,2.755,1.428c1.803-0.347,1.095-2.043,2.211-3.205
		c1.892-1.97,4.918-1.283,6.011-4.449c0.564-1.638-0.263-5.019,2.833-4.248"/>
	<path fill="none" stroke="#333333" stroke-width="0.75" stroke-miterlimit="10" d="M75.367,756.596
		c3.902,0,3.495,5.214,5.504,7.455c1,1.115-0.354,2.129,1.064,2.838c1.064,0.354,2.537,0.649,3.192-0.355
		c0.99-1.521,4.611-1.418,3.192,3.547c-0.404,2.354,3.477,1.517,4.187,4c0.354,1.418-0.994,5.933,1.134,6.642
		c1.773,0.71,1.124-4.194,2.128-3.902c1.419,0.355,3.547,1.774,4.256,3.193c1.064,1.419,0.709,4.611,1.064,5.32
		c1.064,1.774,5.675,3.902,8.158,6.031c1.278,0.85-0.711,3.261,2.837,5.675c4.168,2.835,2.838,5.675,1.419,9.577
		c-0.709,2.837-3.192,5.675-3.547,8.513c-1.064,4.61,3.192,5.675,4.611,9.222c-2.483,1.773-2.128,4.611-0.354,6.739
		c1.064,1.418,3.192,0.354,3.901,1.418c0.709,1.064,0,2.483,0.355,2.838c0.709,1.419,2.483,5.321,2.837,7.094
		c0.355,3.192-3.192,6.385,1.064,8.513c-2.482,2.838-6.384,0.355-8.513,3.902c-0.709,1.773,0.709,4.611,0,6.385
		c-0.726,1.298-3.547-0.355-5.32,0c-2.079,0.452,1.064,3.547,2.128,4.966c0.845,0.938-3.547,9.931-2.483,11.704
		c-1.064,0.355-3.192,1.065-4.611,0.71c-2.931-0.417,1.773,4.256,3.192,7.095c0.354,0.709-1.186,2.988,0.709,4.61
		c1.347,1.153,2.837,2.483,3.547,3.902c0.709,1.773,3.192,5.32,2.483,7.093c-1.064,3.547-6.739,2.839-2.128,7.804
		c2.141,1.954-5.675,1.064-6.03,2.128c-1.064,1.774,1.697,5.877,2.108,7.638c0.875,3.75-2.296,10.933-6.125,10.688
		c-4.698-0.301-5.559,4.671-5.915,7.922c-0.743,6.77-5.558,3.268-9.46,2.203c-2.238-0.442-2.6,4.536-7.21,4.891
		c-1.352-0.141,0.007,5.715-3.54,4.296"/>
	<path fill="none" stroke="#333333" stroke-width="0.75" stroke-miterlimit="10" d="M1169.875,633.941
		c2.863-0.953,2.959-5.733,6.51-3.958c4.733,2.958,0,5.326,1.183,8.284c1.184,2.367-2.367,5.918,1.776,7.102
		c3.55,1.184,2.366-3.551,4.142-3.551c0,0,2.959-2.366,4.142-2.959c0.592,0,2.367,2.368,3.551,1.775
		c2.367-1.183,2.958,1.184,5.917-1.775c2.367-2.958-2.959-9.467,2.367-10.65c5.917-0.592,7.101,12.426,13.018,13.018
		c9.468,1.184,3.551-4.142,4.734-8.285c0.592-2.367-1.184-3.55,0.592-6.509c1.183-1.775,7.101,0.592,8.284-2.367
		c1.775-3.55-4.734-10.06-4.142-14.793c3.55,2.367,8.876,5.326,13.61,3.55c-3.551-6.509-7.101-15.385,2.367-20.12
		c6.509,14.794,7.101,2.367,15.977,0.592c12.427-2.958,1.184,12.427,0.591,17.161c-1.184,6.51,0,18.937,1.184,25.445
		c0.592,2.366,2.959,3.551,2.959,6.509s-4.143,3.55-4.143,4.142c-0.591,4.142,2.959,8.876,2.367,11.835
		c-1.184,5.918-6.509,2.959-8.876,7.693c-3.551,6.509,1.775,6.509,2.367,12.427c0,5.917-3.55,5.917-4.734,11.243
		c-1.184,3.55,0.592,6.509,0.592,10.06c-0.592,5.326-1.775,5.917-4.142,9.468c0,0-3.551,0-4.734,1.184
		c-1.184,1.184,0,3.55-1.184,4.734c-7.101,4.734-2.367,0.592-9.468,1.184c-5.326,0-5.917-4.143-5.326,4.142
		c0,6.509,11.243,20.712,1.775,27.813c-10.652,8.284-13.019-10.06-17.161-13.61c-2.959,2.959-8.517,8.233-10.06,5.326
		c2.75-11.74-4.143-5.918-4.734-10.652c-0.592-3.551,4.142-6.509,3.55-9.468c-1.184-7.693-9.354,0.226-12.427-2.958
		c-1.609-2.856,3.954-4.742,2.771-8.292c-0.453-2.869-6.946,5.134-6.913,2.375c-0.592-5.326,5.917-13.019-4.142-11.835
		c1.775-8.876-2.367-8.284-5.918-13.61c-4.142-6.509-1.775-8.284,1.184-11.835c1.184-1.775,4.734,1.775,6.509-2.959
		c0,0-2.367-6.509-2.958-7.101c-2.959-6.51-2.959-8.876-10.06-4.734c-1.183-3.551,0-6.509,3.551-7.693
		c-4.734-6.509,4.142-8.285,2.367-13.61C1168.691,637.675,1166.108,635.195,1169.875,633.941z"/>
	<path fill="none" stroke="#333333" stroke-width="0.75" stroke-miterlimit="10" d="M636.938,752.873
		c0,0.394,1.97,1.183,2.364,1.576c0.788,0.788-0.394,3.152,0,3.152c-0.788-1.182,2.364,5.911,2.758,3.547
		c-0.788,3.545-7.881,3.151-6.698,7.88c0.788,2.759,4.334,0.788,5.516,2.759c1.182,1.97-0.788,3.546-0.394,5.516
		c0,0.395,1.576,2.364,1.97,3.547c0,0.394-1.576,1.182-1.182,2.364c0.394,0.788,2.758,1.182,2.758,1.577
		c0.394,1.576,3.546,9.456,3.152,10.639c-1.182,3.546-4.334,1.182-5.517,3.152c-1.576,3.152,0.394,2.364,0.394,4.728
		c0,1.183,0.788,2.364,0.394,4.334c0,1.183-3.939-0.394-1.97,3.94c-6.305-0.788-9.063,6.305-9.457,11.427
		c-7.092,0.394,0.394,11.821,0.788,15.761c0.394,4.334-0.788,3.941,1.576,7.88c1.182,1.576,3.94,5.123,6.698,5.123
		c-0.788,2.758-4.334,4.334-4.334,7.486c0,1.576,2.364,2.364,2.364,3.152c0,0.394-0.788,4.729-0.788,4.334
		c0.394,1.97,0.394,4.334,0.788,6.698c0,1.183-1.576,2.758-1.182,4.729c0.394,1.576,3.546,1.183,3.94,2.758
		c2.364,5.911-5.516,9.852-8.274,13.791c-2.365,3.94-2.365,15.761-9.457,9.063c0,1.182-0.788,2.364-0.788,3.546
		c-2.364,0.394-1.576,0.788-3.152,1.97c-0.395,0-2.758,1.576-3.152,1.576c0.394-0.395-3.152,1.576-3.152,1.576
		c-0.788,0.394-2.758,1.971-3.546,2.759c-2.364,1.575-5.517,1.575-7.88,3.546c-4.729,2.758-1.97,3.546-3.153,6.698
		c-0.788,2.364-0.788,3.546-4.728,5.517c-1.97,1.182-6.305,0.788-7.093,3.546c-0.394,2.758,1.576,1.576,1.97,3.152
		c0,0,1.182,3.546,1.182,3.939c0-0.394-1.576,3.547-1.576,3.941c0,1.182,0.394,2.758,0,4.334c3.546,1.97,2.364,9.851,4.728,11.033
		c2.758,1.182,6.305-7.881,9.063-3.546c1.97,2.758-2.758,3.94-2.364,5.517c0.788,3.152,1.576,0.788,3.94,2.364
		c3.546,2.758,9.457,5.911,7.486-1.97c4.729-1.575,1.182,3.547,3.94,5.123c3.546,1.577,4.334-1.576,7.092-1.576
		c1.971,0,3.547,2.363,7.093,1.576c3.94-1.182,3.152-3.152,6.699-5.516c3.152-1.97,11.427-1.97,11.427-8.274
		c0-2.365-4.334-3.94-4.729-6.305c-0.788-5.91,2.365-1.97,5.123-3.152c4.334-1.97,9.457-8.274,11.821-12.609
		c1.576-2.758,1.97-4.728,3.94-6.698c0.394-0.394,2.364,0,3.152-0.394c1.576-1.182,1.97-3.546,3.152-4.334
		c1.576-0.788,5.122-1.576,7.092-1.97c0.788-0.394,1.182-2.758,2.364-2.758c1.97,0,2.364,2.758,3.546,3.152
		c3.546,0.788,4.728,0,7.88,0c1.97,0,7.486,1.182,8.668,0.394c0.788-0.788-0.788-5.91-0.394-7.88c2.364,0,3.546,1.576,3.546,3.94
		c4.729-4.728,8.274-11.821,9.851-18.125c0.394-0.394-1.576-2.364-0.788-4.334c1.182-1.97,3.94-0.788,5.122-3.546
		c0.789-1.576-1.576-4.334-1.182-5.123c0.788-2.364,3.152-1.182,4.334-2.364c2.364-3.546,2.364-6.304,4.728-9.063
		c1.97-1.97,5.911-4.334,7.881-7.092c0-0.395-1.576-2.364-1.182-3.153c0.788-0.788,1.97-0.788,2.364-1.182
		c0-0.788,2.758-1.97,3.546-3.152c3.941-5.91-0.788-3.151-3.546-7.486c2.758-2.758,10.245-0.395,9.063-5.123
		c-0.394-3.545-9.063-4.334-9.063-9.85c0-2.364,3.152-3.152,3.152-5.517c0.394-2.758-1.97-2.758-2.758-5.517
		c-1.182-3.94-2.364-9.457-1.97-13.396c0-2.364,3.546-3.152,1.97-6.305c-1.182-2.364-4.728,0-6.304-2.364
		c-2.364-3.94,3.546-8.274,1.97-13.003c-0.789-1.97-3.152-2.364-4.334-3.94c-0.788-0.788,0.395-2.758-0.395-3.546
		c-0.788-0.394-3.152-0.394-3.546-0.788c0-0.394-1.576-1.576-1.576-1.97c-0.394-0.789,1.97-2.364,1.97-2.364
		c-1.182-1.971,0.788-3.152-3.152-3.152c1.97-2.758,1.576-4.729-1.971-5.517c3.94-3.546-5.516-10.639-7.486-15.367
		c-1.182-2.758-0.788-4.728-1.576-7.486c-0.788-1.576,0-2.364-1.576-3.546c-1.182-1.182-3.94-0.788-3.94-0.394
		c-1.182-1.182-1.576,0.394-2.758-2.363c-0.788-1.183,1.182-3.547,0.394-4.729c-2.416-3.625-2.373-2.157-6.439-1.987
		c-5.511,0.23-8.279-2.81-10.447-7.501c-1.474-3.192-1.78-6.357-5.802-6.917c-2.724-0.379-4.875,1.775-7.454,1.857
		c-1.526,0.049-2.647-1.168-3.862-0.915c-1.293,0.27-2.592,4.841-3.892,0.557c-5.173-0.96-1.384,4.452-1.192,5.833
		c0.273,1.965,0.391,3.547-1.89,3.554c-1.99,0.006-1.438-1.635-2.662-2.766c-7.395-6.836-5.197,5.195-10.666,6.777
		c0.518,2.39,2.387,5.046-1.241,5.762c-1.744,0.344-7.505-3.773-5.836,1.081C630.21,738.099,635.75,750.201,636.938,752.873z"/>
	<path fill="none" stroke="#333333" stroke-miterlimit="10" d="M1561.492,616.043c-3.411,0.853-5.97-0.829-7.675,4.171h-2.558
		c0,4-2.559,6.916-4.264,10.327c-0.853-3.411-2.559-4.218-1.706-8.481c-5.117-0.854-5.97,0.023-7.675,5.993
		c-7.675-4.264-7.675,3.423-15.351,2.57c-0.853,1.706-10.233,17.063-10.233,17.063c-5.117,2.558-6.822-3.409-9.381-2.556
		c-2.559,0-9.381,1.707-11.939,1.707c-5.97,0-14.498,0.854-20.467-0.853c-4.265-0.853-11.939-13.645-15.351,1.706
		c-3.411-3.411-5.97-3.411-6.822-9.381c-7.676,4.265-17.057,0.854-22.174,0c-4.264-0.852-5.116-6.822-11.086-5.117
		c-0.853,0.853-2.559,9.381-5.117,10.233c-4.264,2.559-5.97-5.117-11.939-2.558c-2.558,1.706-1.706,9.381-4.264,11.939
		c-4.264,4.264-17.056,5.97-12.792,14.498c-5.117,2.558-12.792,11.086-7.676,17.909c-1.705,0.853-3.411,2.558-5.116,3.41
		c1.706,5.118,1.706,7.676,1.706,12.793c-7.675,4.264,9.025,11.549-1.209,14.959c-4.831,2.741,6.836,2.145,7.179,14.889
		c1.937,5.621,16.203,1.02,17.056,1.873c5.117,6.822-14.718,15.946-8.528,18.076c1.706,0,5.117,0,6.822,0
		c0.853,1,0,2.392,0.853,4.097c5.97,3.411,1.706,10.15,9.381,11.003c-1.706,5.97-1.847,9.242-0.994,15.21
		c0.536,4.959,20.882,2.559,12.198,14.075c-4.592,6.091,17.961,20.911,9.263,27.78c-4.264,4.264,1.021,12.593-0.684,16.856
		c0,0-9.549,9.572-9.549,7.867c0,5.116,4.264,5.968,4.264,11.085s-11.94,2.558-3.412,11.086c-1.706,2.558-0.853,5.116-1.706,7.675
		c-0.853,3.411-5.117,7.675-5.969,9.381c-0.854,5.116-0.854,12.792,5.969,15.35c-5.969,9.381,2.558,18.762-10.234,22.173
		c1.706,0.853,4.265,5.117,6.823,5.969c-0.853,1.706-2.559,3.411-2.559,4.264c8.527,1.706,6.822,7.675,0.853,11.939
		c3.411,0,8.528,0.853,11.086-0.853c-0.852,2.559-9.38,10.234-9.38,12.792c1.704,6.82,11.078,0.858,13.641-1.702
		c-0.775,0.774-1.642,7.032-2.095,8.496c-0.995,3.211-2.068,6.104-0.838,9.441c1.174,3.182,3.758,3.775,5.621,6.083
		c2.13,2.636,1.408,6.8,3.716,8.955c1.901,1.775,5.784-1.813,6.329,2.355c0.183,1.4-2.424,1.967-2.327,3.179
		c0.246,3.065,1.763,1.157,3.232,2.654c3.011,3.068,1.878,3.225,1.887,7.36c5.129,0.076,3.021,3.397,4.942,6.002
		c2.713,3.679,11.704,2.522,16.181,5.968c5.078,3.908,3.088,4.727,0.301,8.679c-4.745,6.729,1.146,7.543,6.823,11.405
		c-1.437,2.654-7.634,2.673-8.56,5.148c-1.337,3.575,5.334,4.974,3.597,8.287c-0.978,1.865-5.493,0.994-6.375,3.078
		c-0.968,2.287,0.643,1.676,1.312,3.644c0.835,2.459,2.213,4.545,2.333,7.695c4.362-0.346,2.935,6.894,5.328,9.244
		c2.475,2.429,5.379,0.496,7.886,1.8c6.128,3.188,0.499,12.525,4.931,15.098c4.939,2.869,3.616-13.621,9.141-3.086
		c2.409,4.593-3.372,10.522,4.612,8.628c0.337,3.735-1.299,5.838-1.722,9.015c3.468,0.199,7.01-0.032,10.483,0.127
		c-1.714,2.893-4.387,12.468,2.67,10.845c-0.041-1.591,0.171-4.195,1.888-4.511c3.527-0.649,2.803,6.164,2.765,8.271
		c-0.049,2.654-1.256,3.509,1.063,5.352c1.91,1.518,8.089,0.963,9.819-0.363c-0.004,0.646-3.214,16.594,3.259,9.536
		c5.963,3.889-0.652,8.278,0.448,11.966c1.394,4.668,6.606,0.089,6.023,7.247c0.99,0.154,3.99-0.703,4.54-0.43
		c1.259,0.625,1.606,3.681,2.798,4.09c5.129,1.76,3.056-7.225,5.732-9.646c5.52-4.996,6.934,2.743,7.462,6.536
		c0.26,1.863-0.596,3.433,0.909,4.582c1.611,1.23,8.576,0.479,10.977,1.305c0.222,6.188-8.615,17,4.051,15.97
		c0.078-0.776,0.259-1.94,0.069-2.722"/>
	<path fill="none" stroke="#333333" stroke-width="0.75" stroke-miterlimit="10" d="M816.13,913.694
		c0.805,3.217,2.413,6.032,3.217,8.847c-4.021,1.207-10.857-1.608-11.662,4.424c-3.619-1.608-3.619,1.206-5.228,1.608
		c0.402,0-6.836,4.423-6.836,4.021c-0.402,2.815,5.63,2.815,6.032,5.63c1.206,4.424-3.217,3.218-4.826,6.032
		c-0.805,1.206-0.805,6.836-0.402,6.836c-3.217,4.021-4.826-1.207-8.445-1.609c-11.26-0.402-2.815,6.836-3.619,11.26
		c-0.402,1.206-4.021,2.01-4.021,3.217c-0.402,2.413,1.608,2.815,1.608,4.424c0,2.815-0.402,5.63,0.804,7.64
		c0.804,1.609,3.619,0.402,4.826,3.217c1.207,3.62-4.021,4.424-0.804,7.239c1.207,1.207,4.826-0.804,5.63,0
		c3.217,3.217-0.402,3.217-0.402,5.63c0,1.608-1.609,2.413-0.805,4.423c0,1.207,2.815,0.804,2.815,1.207
		c1.206,2.413,1.206,3.217,1.206,7.239c-0.402,1.608-2.011,2.814-1.206,4.423c1.206,2.815,4.021,1.206,5.228,2.413
		c3.619,5.228-3.217,10.456,0,14.075c0.402-2.011,1.608-2.815,4.021-1.609c4.021,2.413,1.207,2.011,2.011,5.228
		c-0.402-0.804,0,7.238,0.804,5.63c-1.207,2.815-4.826,2.815-5.228,4.424c-1.206,2.814,1.609,2.814,1.206,5.228
		c-0.401,2.413-2.412,3.619-2.412,6.032c0.402,2.413,3.217,3.217,3.217,5.63c0,2.815-3.619,3.62-3.619,6.836
		c0,2.413,3.217,3.217,2.814,6.836c0,2.815-3.619,3.217-1.608,6.434c4.022,7.238,6.435-5.228,8.043-6.032
		c4.424-2.413,4.424,4.021,4.424,7.641c-0.402,2.011-1.207,4.424-1.608,6.032c0,2.011,1.206,4.021-0.402,6.434
		c8.444,5.228,6.032-15.683,11.26-18.096c4.021,3.619,3.619,9.25,2.011,13.673c8.445,2.413,7.238-9.651,16.488-2.815
		c2.413-3.62,0.804-9.249,4.021-12.466c4.021-4.021,9.651,1.207,12.466-2.413c0.804-2.011-1.207-4.423-0.804-6.032
		c0.804-2.814,1.608-2.814,3.619-5.228c2.413-2.815,7.238-8.847,10.456-5.63c1.608-3.217,3.619-4.826,6.032-7.641
		c3.217-3.217,2.815,0.805,3.619-4.423c0.402-2.816-2.815-4.826,0.402-7.642c2.814-2.413,5.63-0.401,6.434,2.815
		c4.021-4.424,5.63-2.815,9.651-4.424c4.021-1.206,5.629-4.423,9.651-6.032c1.207-0.401,3.217,0.805,4.423,0
		c2.011-1.206,2.011-3.619,2.815-4.424c1.609-1.206-0.402-3.217,3.619-2.412c0.403,0,0.804,4.021,0.403,4.423
		c2.01,0,4.021-2.413,5.228-2.011c1.206,0,3.619,2.815,3.619,2.815c4.021-0.401,4.423-5.63,8.042-5.228
		c1.207,0.402,1.609,4.021,3.217,4.423c1.207,0.804,2.815,0,4.424,0c1.206,0.403,8.847-0.804,10.053-1.207
		c5.229-3.217,0-6.434,8.043-5.228c4.423,0.402,6.836,3.217,8.445-4.424c0.402-4.021-2.413-4.826,0.804-8.847
		c2.815-3.619,6.435-3.619,9.652,0c2.413-2.815,3.217-9.651,1.608-13.271c-0.804-2.815-4.423-4.021-5.63-6.032
		c-1.608-2.413-0.402-4.021-1.207-6.435c-2.815-7.238-4.826-0.804-9.651-3.619c-6.434-4.423,3.619-10.858-6.032-10.858
		c-1.207,0-1.609,2.815-3.217,2.815s-2.011-2.815-3.217-2.815c-4.423-0.402-2.413-1.206-6.434,0.804
		c-2.413,1.207-0.402,5.228-5.228,2.815c-3.218-1.609-0.402-5.228-2.815-6.837c-4.021-2.814-3.619,1.609-6.836,1.207
		c-2.413-0.805-3.62-4.021-6.032-5.63c-1.608-0.804-14.075-4.826-4.424-5.228c-0.402-1.207-3.217-2.413-3.619-3.62
		c-0.804-1.206-0.804-4.825-1.206-5.228c-1.207-1.608-4.021-1.207-5.228-2.815c-0.804-0.804-1.608-5.63-1.608-5.228
		c-2.011-2.011-5.63,0-8.445-0.804c-4.423-1.608-3.619-4.423-7.641-8.445c-5.63-5.228-4.826-1.207-10.456-1.608
		c-8.847,0-2.011-3.62-4.423-6.836c-3.619-4.021-7.641,2.413-11.26,1.608c-1.608-0.402-1.206-4.021-3.619-4.423
		c-1.608,0-4.826,1.608-6.434,2.011c-0.804-3.217,4.021-4.826,3.217-7.641c-1.609-5.228-5.63,0.805-6.837,0.805
		c-0.804,0-4.423-1.207-4.423-1.207c-0.402,0-4.423,2.413-4.423,2.413c-6.032,0.804-2.011-1.206-6.032-3.217
		c-11.26-4.826-2.011,7.64-7.641,9.249c-1.206,0.402-17.694-9.651-13.271,1.207"/>
	<path fill="none" stroke="#333333" stroke-miterlimit="10" d="M913.448,1061.475c1.051-3.486,11.26,10.054,8.445-1.608
		c5.228,2.815,13.673-4.825,16.89,1.207c3.619-4.826,5.63-2.815,8.445-0.805c4.825,2.815,3.217,4.423,8.043,1.207
		c3.217-2.011,4.021-6.836,7.641-0.402c2.011,2.815-1.608,5.228,3.217,7.238c4.021,1.608,8.043-4.021,11.662,1.207
		c1.207,2.413-0.804,6.434,1.207,8.847c4.826,6.032,4.423-5.63,10.053-1.609c4.424,3.217-2.413,8.043-1.206,12.064
		c1.206,4.021,4.423,0.804,3.619,6.434c0,1.608-2.815,2.815-2.815,4.021c0,2.012,2.011,2.012,2.413,3.62
		c0.805,1.206,2.413,1.608,2.815,3.619c0,1.608-2.413,2.413-2.413,3.619c0,3.217,2.815,3.619,3.619,6.836
		c2.011,9.651-5.228,2.815-9.249,2.413c-1.207-0.402-6.032,0-6.836,2.011c-0.804,2.815,4.826,3.217,6.836,4.021
		c8.043,4.021,4.021,6.434-2.413,8.444c-2.815,0.805-4.825,1.207-7.238,2.012c-2.815,1.608-3.218,2.814-6.837,3.217
		c-6.836,0.402-7.64-2.815-14.074,1.206c-2.815,1.608-1.609,4.424-6.032,4.021c-3.217-0.402-5.228-4.423-8.445-5.228
		c0.402,6.032-13.673,7.64-13.673,0.402c-4.021,2.412-1.207,16.89-8.847,6.434c-0.804-1.206,0-3.619-0.804-4.825
		c-0.403-1.608-2.815-0.805-2.815-2.413c-0.804-2.814,0-6.032,1.207-8.445c0.98-1.795-2.717,1.114-4.021,0.804
		c-1.604-0.114,6.578-5.69,2.815-6.032c-1.608,0.402-5.389,1.19-5.63-0.402c0-3.619,4.021-2.814,4.021-5.228
		c0-3.217-3.217-3.217-3.619-5.228c-0.805-2.413,0.804-4.021,0-6.434c0-0.804-2.413-2.413-3.217-4.021
		c-0.402-1.206,4.003-2.086,3.601-2.89c0-0.402-3.605-2.283-4.003-2.337c-1.936-0.269,3.701-6.511-0.804-4.424
		c-4.526,3.488-3.619-3.217-4.021-3.619c-0.804-1.608-6.322-1.923-3.217-2.814c0.804-0.403,5.06-0.464,5.864-0.865
		c0-0.805-9.441-5.897-5.152-5.455c2.243,0.061,6.954,0.728,7.758,0.728c5.03-0.122-2.84-3.255-2.439-4.461
		c0,0,1.609-1.206,2.011-2.01c0-1.207-1.207-2.413-1.207-3.217c0.402-2.815-2.011-2.815,1.207-5.229
		C905.807,1067.105,912.177,1065.69,913.448,1061.475z"/>
	<path fill="none" stroke="#333333" stroke-miterlimit="10" d="M711.145,1283.938c-1.143,0.762-3.809,3.427-4.57,4.189
		c-2.285,3.047-4.188,3.428-1.523,8.378c-2.285,1.523-5.713,0-7.617,1.904c-1.142,1.143,0.381,3.427-0.38,4.57
		c-0.762,1.142-3.428,1.904-3.809,2.666c-1.143,1.904-1.143,3.427-1.143,6.474c0,0.381,1.523,2.666,1.523,3.428
		c0,0-2.285,3.428-2.285,3.809c6.093-0.381,1.143,5.332,1.143,7.997c0,0.381,2.666,0.381,3.047,1.523
		c0,1.143-1.904,2.285-1.904,2.666c0.381,1.904,1.523,3.808,1.904,5.712c3.046,10.283,9.14,10.664,16.757,16.757
		c0.381-1.904-0.381-6.855,1.523-7.998c4.189-3.428,3.428,2.666,5.332,4.951c5.712,6.474,3.808-1.904,7.617-5.712
		c2.666,2.285,1.904,6.855,3.808,9.521c2.285-3.809,4.951-2.666,6.855,0.381c2.285-3.809,4.951-1.143,7.998-2.286
		c1.142-0.38,1.904,0,3.427-0.38c1.524-1.143,0.381-3.428,1.905-4.57c3.046-1.523,4.951,0.762,7.617-2.285
		c1.904-1.904-0.381-5.332,2.666-7.998c4.189,1.523,3.046,8.759,9.521,3.428c2.285-1.905,1.904-5.332,4.189-7.237
		c2.666-1.904,4.569-0.38,7.617-0.38c6.093-0.762,5.712-1.904,7.236-7.236c0.381-1.522-2.285-6.093,2.285-6.474
		c2.666,0,3.427,2.666,3.046,4.952c2.667,0,4.951-1.143,7.236-1.143c0.762-0.381,1.904,1.143,3.047,1.143
		c1.904-0.381,3.047-2.286,4.57-2.666c1.142-0.381,1.142-2.286,3.046-1.905c2.285,0.381,1.523,3.047,2.666,3.428
		c1.143,0.762,1.523,1.904,3.427,2.285c2.285,0.381,0.762-2.666,2.666-2.666c1.523-0.381,4.95,0.381,7.235,0.762
		c4.571,0.762,2.666,1.142,6.475-0.381c1.523-0.381,2.285-2.666,3.428-3.047c1.523-0.762,3.047,0.381,3.808,0.381
		c1.523-0.381,6.094-0.381,6.855-2.286c1.523-3.046-2.285-3.046-1.904-6.093c0.38-3.428,2.666-2.666,4.57-4.189
		c2.666-2.286,2.666-1.143,4.57-5.332c1.143-2.666-0.381-4.57,2.665-7.617c3.809-3.808,9.141-4.951,12.949-9.902
		c6.474-7.998,0.381-6.474-3.428-11.806c-0.762-0.762-0.381-2.285,0-3.047c3.047,3.428,3.047,1.143,4.951-0.38
		c0.381-0.38,5.332-5.712,5.332-6.474c1.142-3.047-1.905-4.951-1.143-7.997c0.761-3.047,3.427-2.666,4.189-7.236
		c0.761-4.951-0.381-2.285-1.904-5.712c-0.381-1.142-1.524-1.904-1.904-3.427c-0.381-1.143,1.904-2.666,1.523-3.809
		c-3.427-7.236-6.474,6.855-10.283-2.666c-1.143-3.809,2.666-4.189-3.047-5.331c-1.142-0.382-3.046,2.284-4.189,1.903
		c-1.904-0.762-1.142-2.285-1.904-3.046c-0.38,0,0-2.285-1.523-3.047c-1.142-0.38-2.285,2.666-3.427,2.285
		c-1.904-0.38-3.809-3.428-6.474-2.666c-4.951,1.142,0,15.614-7.617,11.806c-3.047-1.523-0.762-5.332-3.809-6.854
		c-3.047-1.524-5.332,1.903-7.998,2.665s-4.292,1.663-6.474-1.904c-1.275-1.552-1.947,4.857-3.851,6.381
		c-1.523,1.142-4.908,0.094-6.051,1.236c-3.427,3.427-7.236,5.332-11.425,8.378c-6.093,4.57-3.808,9.521-12.187,7.236
		c-6.474-1.904-8.378-3.047-13.329,3.046c-4.189,5.712,1.143,9.521-5.713,14.472c-4.951,3.427-7.617,7.616-12.948,7.235
		c-2.285-0.38-5.712-1.142-7.617-2.285c-2.666-1.143-4.57-4.57-6.855-5.712c-4.951-2.285-2.285,0.762-6.093,1.903
		c-3.428,1.143-3.809,0-6.855-0.38c-6.855-0.38-5.712,1.143-10.282,4.951c-1.524,1.523-3.047,1.523-4.57,3.046L711.145,1283.938z"/>
	<path fill="none" stroke="#333333" stroke-miterlimit="10" d="M1245.528,1672.646c-0.356,3.559,3.203,8.898-1.424,9.966
		c0.712,1.067,1.424,3.204,2.491,4.271c-0.711,0.355-1.423,0.711-2.135,0.711c0.356,0.712,0.712,1.78,0.712,2.492
		c-2.136,0.355-5.339-0.356-6.407,2.135c-0.711,1.424,1.424,2.491,1.068,3.559c0,0.712-1.068,3.56-1.068,4.271
		c0,1.424-0.711,4.271-0.711,5.694c0,1.424,1.067,5.695,0.355,7.119c-0.711,1.423-3.203,0.355-3.915,1.423
		c-0.355,1.068-1.067,2.491-1.779,3.559c-2.136,3.203,1.779,3.56-4.627,4.271c-2.135,0-3.915-2.491-5.694-0.356
		c-2.136,2.491,1.067,5.694,1.067,8.187c0,1.067-2.847,1.067-2.847,2.847c0,0.712,1.78,2.136,1.78,2.491
		c-0.356,1.424,0.712,1.78-0.356,3.915c-0.355,1.068-2.847,0.712-3.203,1.424c-1.78,4.271,1.067,1.779,2.491,4.627
		c1.424,3.915,0.711,1.423-2.135,4.982c-1.78,2.136-2.136,1.78-2.848,4.271c-0.355,1.779,0.356,5.694,0.712,7.474
		c0,1.78,1.068,4.627,1.068,6.051c0,1.779-1.068,3.915-1.068,5.338c-0.356,3.559-0.356,4.627,2.136,7.83
		c1.067,1.424,6.406,4.271,6.406,5.338c0.712,3.204-2.847,2.848-3.56,4.983c-1.423,4.627,0.356,4.271,2.848,1.068
		s2.847-14.236,9.965-12.457c4.983,1.424,2.492,10.321,9.966,9.61c1.423,0,3.559-2.848,5.695-3.204
		c2.135-0.355,5.338-0.711,6.762-1.067c4.271-0.355,8.186,2.847,12.813,2.847c2.135,0,3.559-2.135,6.05-2.135
		c1.067,0,2.492,1.424,3.559,1.067c1.424,0,2.492-0.712,3.916-1.067c7.474-1.067,7.118-1.78,9.965-8.186
		c5.339-11.745,2.136,8.542,7.119,5.694c3.915-2.135,2.135-18.507,11.033-7.83c0.711-4.626,1.423-8.897,7.83-4.982
		c1.068-7.118,3.915-4.983,8.186-9.254c1.068-1.067,0-2.847,1.068-3.915c1.067-1.423,2.847-1.779,3.559-2.491
		c3.56-4.271,4.271-7.83,3.203-12.457c-0.711-2.847-4.982-2.847,0-5.694c4.983-2.491,2.848,1.779,4.983,3.559
		c7.118,5.339,3.559-2.847,5.694-7.118c0.712-1.067,3.203,0.356,3.559-1.067c0.712-1.424-0.712-2.491-0.356-3.56
		c0.356-0.712-0.712-2.135-0.356-3.203c0.712-1.779,2.848-2.135,3.204-2.847c0.355-1.068,3.915,0,2.135-2.847
		c-1.424-2.848-6.05-1.067-8.186-2.136c-6.762-3.559,1.424-6.762,4.271-10.677c5.339-7.474-1.78-5.338-4.627-11.745
		c-1.067-2.847,0.711-3.915,0.711-6.762c0.356-1.068-1.423-2.135-1.423-3.559s1.779-2.491,1.779-3.559
		c0-4.983-4.627-8.898-9.965-5.694c-2.492,1.424-2.492,4.626-4.627,5.694c-3.915,2.491-4.626-1.068-6.762-1.068
		c-4.627,0.712-4.271,7.474-9.61,7.474c-6.406,0-3.559-6.051-4.626-9.253c-1.424-4.627-6.051-6.762-9.966-8.542
		c-2.491-1.068-4.627-1.423-7.118-2.135c-2.491-1.068-3.915-2.848-6.406-3.915c-1.779-1.068-5.694-2.492-7.475-3.203
		c-3.559-0.712-2.491-1.78-4.982,0.711c-1.779,2.136-0.355,5.339-4.626,6.407c-1.85,0.646,0.434-6.176-0.712-4.627
		c-2.491,3.559-7.004,7.09-10.321,5.339c-1.533-0.746,2.847,3.915,2.135,6.051c-2.135,4.982-3.379-2.272-4.627-3.204
		c-3.915-2.492-3.203,1.067-4.982,1.067c-2.492,0-3.559-1.423-5.695-2.491c-1.177-0.178-0.355,1.068-0.711,1.78L1245.528,1672.646z"
		/>
	<path fill="none" stroke="#333333" stroke-width="0.75" stroke-miterlimit="10" d="M543.224,1954.205
		c-3.267,3.92-5.226,9.146,0,11.105c-3.92,5.88,4.573,24.172,10.453,28.092c3.267,1.96,9.146-5.88,8.493,5.88
		c-0.653,5.227-12.413,7.84-0.653,12.413c-3.267,4.572,0.653,13.065,3.266,16.985c1.96,3.267,4.573,0,6.533,5.227
		c0,0-1.96,6.532-1.96,8.492c0,0.653,4.573,3.267,5.227,5.88c0,1.96-3.267,5.88-3.267,8.493c0,3.267,7.186,3.267,4.573,7.839
		c-2.613,3.92-7.186,1.96-9.799-0.652c1.307,3.919-0.653,7.839-4.573,8.492c1.96,3.92,1.307,7.187-2.613,9.146
		c7.186,8.493-3.267,5.227-5.88,9.146c-0.653,1.959,3.267,5.226,2.613,7.186s-5.879,4.573-5.227,6.533
		c2.613,7.84,10.453-1.96,11.76,4.573c0-1.307-5.88,15.679-5.88,16.332c-3.92-1.307-8.493-1.96-12.413-0.653
		c2.613,3.267,3.267,8.493,5.227,11.106c2.613,4.573,8.493,2.613,5.879,10.452c1.307-0.653,3.92-0.653,5.227-1.307
		c1.307,4.573,3.92,7.84,8.493,7.187c-0.653,5.88-3.267,10.453,2.613,13.72c-3.92,3.266-4.573,8.492,0.654,11.105
		c3.266,5.88-1.96,9.146-0.654,14.373c1.307,3.92,4.573,2.613,5.226,3.92c0,0,3.267-0.654,4.573,0.652
		c0.653,1.307-0.653,3.92,0,4.573c1.307,1.96,3.92,13.72,7.187,13.72c7.839,1.307,1.307-8.493,7.839-9.146
		c0,7.187,9.799,13.72,9.799,3.267c1.307,0.653,0.653,1.307,1.96,1.96c5.226-3.266,5.88-9.798,9.797-13.064
		c-1.862,1.552,0.086,6.854,2.423,6.735c2.635-0.134,5.979-7.273,7.36-8.977c5.136-6.33,13.425-8.8,19.669-13.898
		c0.601,1.104,1.975,1.91,2.659,2.95c0.629-1.064,1.652-3.766,2.987-4.183c2.271-0.71,3.158,2.075,5.315,1.909
		c0.107-2.331,0.134-4.783-0.227-6.961c1.265,0.787,2.579,1.543,3.858,2.216c0.025-8.966,2.724-10.129,10.625-11.474
		c3.158-0.537,7.645-2.167,7.824-6.083c0.103-2.261-4.363-4.9-2.367-7.906c2.192-3.302,6.5-0.676,8.043,1.319
		c1.559-1.786,3.315-6.327,5.357-7.476c2.942-1.653,8.406,0.916,6.672-4.829c-0.727-2.406-5.319-3.187-3.481-6.622
		c2.258-4.22,7.524-0.844,10.324-1.343c1.233-4.759-3.575-5.822-1.242-10.084c1.846-3.371,7.138-4.686,6.168-9.345
		c-0.81-3.892-6.028-4.591-8.035-7.36c-4.263-5.88,3.988-4.41,4.518-9.234c0.229-2.083-1.79-2.799-2.124-4.379
		c-0.435-2.055,0.807-3.627,0.275-5.74c-0.485-1.928-6.521-9.056,1.409-7.071c1.751,0.438,6.125,7.953,7.057,2.684
		c0.296-1.676-3.36-3.672-3.139-5.741c0.335-3.136,3.151-2.812,5.67-3.584c1.049-4.075-4.64-3.232-5.341-6.522
		c-0.665-3.119,3.285-3.856,5.017-6.151c-1.484-2.219-7.058-3.132-7.463-6.057c-0.369-2.675,2.194-4.353,4.687-3.979
		c1.946,0.293,2.241,3.057,4.583,2.25c1.156-0.398,3.526-4.934,4.182-6.066c1.099-1.897,2.452-3.143,1.891-5.521
		c-0.662-2.805-4.382-2.973-5.396-5.245c-2.149-4.821,5.912-6.417,9.247-8.03c3.392-1.642,12.303-3.151,10.92-7.829
		c-0.938-3.176-7.688-6.1-9.612-9.128c-3.662-5.761,1.845-7.484,2.21-12.428c0.26-3.523-2.053-2.865-3.793-5.288
		c-1.804-2.511-0.515-2.027-0.848-4.278c0.009,0.061,1.077-1.064,1.178-1.133c-0.219-0.075-0.709,0.032-0.852-0.009
		c-1.226-1.796-1.307-5.677-3.161-6.82c-2.229-1.375-6.03,1.613-8.271,0.385c-1.834-1.007-1.265-3.342-2.364-5.363
		c-2.191-4.023-6.411-10.758-11.605-10.826c-1.804-0.023-3.702,1.856-4.903,1.715c-2.836-0.334-2.927-3.326-5.767-3.579
		c-5.023-0.449-4.458,4.698-7.385-1.358c-1.924-3.98-0.026-5.719-6.659-4.482c-1.924,0.358-6.498,3.347-8.384,2.36
		c-3.73-1.95,3.891-7.898,0.69-11.855c5.675-1.428-2.263-3.879-4.212-4.022c-1.605-0.119-2.849,0.963-4.598-0.102
		c-1.743-1.063-0.806-3.547-2.079-4.221c-1.488-0.788-2.976,0.896-3.969,0.714c-2.257-0.412-2.308-1.431-4.301-2.219
		c-4.667-1.845-5.487,0.82-9.237,1.887c-4.471,1.271-4.031-0.879-5.278-3.968c-0.965-2.391,0.298-2.408-2.321-3.527
		c-1.123-0.479-4.337-0.196-5.595,0.01c-2.405,0.396-6.357,4.297-8.37,3.976c-3.367-0.538-2.125-6.605-2.255-9.188
		c-2.909-0.457-3.275,2.802-5.203,2.955c-2.628,0.208-3.028-3.399-5.289-3.933c-2.412-0.569-3.049,1.501-4.949,1.778
		c-3.031,0.44-3.583-1.648-6.851-1.307c-4.854,0.51-1.462,6.314-5.786,7.047c-3.47,0.589-2.027-1.874-3.09-3.528
		c-0.505-0.786,0.492-1.802-0.408-2.573c-0.671-0.576-2.35,0.335-3.013,0.031c-0.245-0.112-1.575,0.449-2.318,0.031
		c-0.895-0.502-0.48-2.089-0.825-2.327c-2.431-1.676-3.266-1.769-6.762-1.761c-3.96,0.009-8.238-0.16-11.23,2.629
		c-1.431,1.335-0.522,3.773-3.477,3.559c-2.797-0.203-2.564-4.15-4.497-4.457c-1.847-0.294-7.351,5.477-8.478,6.628
		c-1.833,1.874-1.745,4.278-3.027,6.354c-1.402,2.269-3.943,3.097-4.883,5.141C534.216,1946.57,539.708,1958.424,543.224,1954.205z"
		/>
	<path fill="none" stroke="#333333" stroke-width="0.75" stroke-miterlimit="10" d="M710.039,2869.944
		c0.237-4.61,3.47-8.171,4.732-12.381c5.474,2.947,3.79-4.211,5.474-7.579c0.422,0.421,1.264,0.842,1.685,0.842
		c0.841-3.789-5.474-7.578-0.421-9.684c1.685-0.421,2.526,3.368,4.632,3.368c3.79-0.421,3.368-4.211,5.474-5.895
		c7.579-4.632,1.684,1.684,7.157,3.789c5.474,2.105,8.422-6.736,10.527-9.684c1.263,1.263,3.369,1.263,4.632,1.684
		c0.421-3.789,0.841-10.526,6.315-5.474c0.843-3.368-3.789-5.895-1.684-9.263c2.105-3.79,6.316-2.947,8,0.421
		c1.684-1.264,2.947-5.474,4.632-6.737c5.895-2.526,5.895,4.632,10.105,4.632c6.316,0.421,3.79-14.736,11.369-11.368
		c2.526-7.158-7.158-8.843-3.79-15.579c1.263-2.105,5.894-1.685,7.158-3.789c2.526-4.211-1.264-4.211-2.526-7.579
		c-0.421-1.685-2.105-0.421-2.105-2.947c0.421-1.685,3.368-1.685,3.79-2.948c0-2.104-2.526-5.474-1.685-7.578
		c1.263-2.526,6.736-0.843,8-3.369c1.263-2.526-1.684-5.895-2.105-8c4.631,0.422,6.316-4.631,7.158-8.842
		c2.947-0.421,6.737,4.211,9.263,0.842c3.369-4.21-4.21-5.474-3.79-8.842c0-6.315,5.474-1.263,7.579-2.105
		c3.79-1.263,5.895-6.736,8.421-9.263c0.421,1.263,2.947,2.105,3.79,2.947c2.526-3.368,3.79-7.579,7.579-10.526
		c2.105,0.842,3.368,3.368,2.526,5.895c3.79-0.421,5.895-5.474,9.684-6.736c7.157-2.526,6.316,1.684,10.105,6.315
		c5.052-1.263,2.105-10.105,7.579-10.947c5.473-0.842,5.053,8.842,5.053,12.21c10.105,3.79,18.105,9.685,28.21,13.053
		c5.053,1.685,14.737,5.896,11.369,11.79c1.684-0.843,4.631-0.843,5.895-1.685c0.842,2.526,0.42,5.474-0.421,7.579
		c2.947,0.842,3.79,3.368,3.368,5.895c2.106,0.421,4.632,0,6.737-0.842c0,4.632,7.158,7.158,6.736,10.526
		c-0.841,4.632-9.684,2.526-7.157,10.526c7.579-5.053,6.316,4.21,9.684,8c5.896,5.474,10.527,0.842,5.896-5.474
		c2.526,1.684,7.578,7.157,9.684,9.263c1.263,1.685,2.105,2.526,3.369,4.211c0.842,1.684,0.842,4.21,3.368,5.895
		c0.421-11.368,11.79-2.526,9.263,6.737c5.894,0.421,6.737-10.526,13.894-3.369c0.422-1.263,2.106-3.368,2.526-5.053
		c2.106,2.105,4.632,2.526,6.737,0c7.158,6.316,8,3.79,11.79-4.21c2.947,1.263,5.053,4.21,8.421,5.053
		c3.789,1.263,16.842-0.843,12.631,6.315c1.263,0.421,5.053,0.842,5.474,1.264c1.263,1.263,2.526,4.21,3.79,5.052
		c6.737,5.053,4.21,0,7.157-4.631c2.948-5.053,0-2.947,5.053,0.421c3.79,2.526,7.158,5.474,11.79,1.684
		c2.526,2.105,0.842,5.475,3.368,7.158c4.211,2.526,5.895-1.684,8.421-2.526c4.631-0.421,3.79,0.843,8.421,1.685
		c1.263,0,2.526-2.105,4.21-2.105c1.685,0,1.685,2.526,3.369,2.526c2.526,0,7.158-2.526,8.841-0.842
		c2.526,2.104-0.42,6.736,1.685,8.421c2.526,2.526,9.684,0,11.79-2.105c3.368-4.211,0.842-5.053-2.105-8
		c6.316-1.685,12.631,0,14.316,6.737c1.263-1.264,3.79-4.632,5.474-5.474c4.21-1.685,3.368,2.104,5.474,1.684
		c5.053-0.421,8.42-5.474,14.316-2.947c2.526,1.264,3.789,5.474,6.315,5.474c2.105,0,4.632-4.21,6.736-4.21
		c0.421-0.421,3.359,2.096,5.045,2.104c2.685,0.014,5.242-1.603,7.521-2.794c1.436,3.829,2.941,7.723,7.912,6.689
		c0.378,7.964,3.563,23.496,14.858,17.252c0.365,2.167-0.702,5.954,1.201,7.554c2.22,1.867,6.469,0.013,8.095-1.863
		c3.411,5.435,1.468,6.83,8.237,8.109c5.163,0.976,5.531,9.41,10.281,9.692c2.438,0.146,2.227-2.226,4.229-2.668
		c3.845-0.851,4.982,3.081,5.042,6.705"/>
</g>
<g id="meridiani">
	
		<line fill="none" stroke="#333333" stroke-width="0.5" stroke-miterlimit="10" x1="75.256" y1="73.951" x2="1559.653" y2="73.951"/>
	
		<line fill="none" stroke="#333333" stroke-width="0.5" stroke-miterlimit="10" x1="67.064" y1="65.908" x2="1568.057" y2="65.908"/>
	
		<line fill="none" stroke="#333333" stroke-width="0.25" stroke-miterlimit="10" stroke-dasharray="3.4391,3.4391" x1="75.261" y1="384.826" x2="1559.653" y2="384.826"/>
	
		<line fill="none" stroke="#333333" stroke-width="0.25" stroke-miterlimit="10" stroke-dasharray="3.4391,3.4391" x1="75.261" y1="695.476" x2="1559.653" y2="695.476"/>
	
		<line fill="none" stroke="#333333" stroke-width="0.25" stroke-miterlimit="10" stroke-dasharray="3.4391,3.4391" x1="75.261" y1="1006.126" x2="1559.653" y2="1006.126"/>
	
		<line fill="none" stroke="#333333" stroke-width="0.25" stroke-miterlimit="10" stroke-dasharray="3.4391,3.4391" x1="75.261" y1="1316.777" x2="1559.653" y2="1316.777"/>
	
		<line fill="none" stroke="#333333" stroke-width="0.25" stroke-miterlimit="10" stroke-dasharray="3.4391,3.4391" x1="75.261" y1="1627.427" x2="1559.653" y2="1627.427"/>
	
		<line fill="none" stroke="#333333" stroke-width="0.25" stroke-miterlimit="10" stroke-dasharray="3.4391,3.4391" x1="75.261" y1="1938.078" x2="1559.653" y2="1938.078"/>
	
		<line fill="none" stroke="#333333" stroke-width="0.25" stroke-miterlimit="10" stroke-dasharray="3.4391,3.4391" x1="75.261" y1="2248.728" x2="1559.653" y2="2248.728"/>
	
		<line display="none" fill="none" stroke="#333333" stroke-width="0.25" stroke-miterlimit="10" stroke-dasharray="3.4391,3.4391" x1="75.261" y1="2559.378" x2="1559.653" y2="2559.378"/>
	
		<line fill="none" stroke="#333333" stroke-width="0.5" stroke-miterlimit="10" x1="75.261" y1="2870.029" x2="1559.653" y2="2870.029"/>
	<line fill="none" stroke="#333333" stroke-width="0.5" stroke-miterlimit="10" x1="67.31" y1="2878.122" x2="1567.804" y2="2878"/>
	
		<line fill="none" stroke="#333333" stroke-width="0.25" stroke-miterlimit="10" stroke-dasharray="3.4391,3.4391" x1="230.584" y1="73.112" x2="230.584" y2="2870.06"/>
	<line fill="none" stroke="#333333" stroke-width="0.5" stroke-miterlimit="10" x1="75.261" y1="68.848" x2="75.261" y2="2875.09"/>
	<line fill="none" stroke="#333333" stroke-width="0.5" stroke-miterlimit="10" x1="67.31" y1="65.908" x2="67.31" y2="2878.372"/>
	
		<line fill="none" stroke="#333333" stroke-width="0.5" stroke-miterlimit="10" x1="1559.871" y1="73.674" x2="1559.871" y2="2874.874"/>
	
		<line fill="none" stroke="#333333" stroke-width="0.5" stroke-miterlimit="10" x1="1567.804" y1="65.908" x2="1567.804" y2="2878.251"/>
	
		<line fill="none" stroke="#333333" stroke-width="0.25" stroke-miterlimit="10" stroke-dasharray="3.4391,3.4391" x1="396.843" y1="74.076" x2="396.843" y2="2871.024"/>
	
		<line fill="none" stroke="#333333" stroke-width="0.25" stroke-miterlimit="10" stroke-dasharray="3.4391,3.4391" x1="562.895" y1="73.112" x2="562.895" y2="2870.06"/>
	
		<line fill="none" stroke="#333333" stroke-width="0.25" stroke-miterlimit="10" stroke-dasharray="3.4391,3.4391" x1="729.089" y1="73.112" x2="729.089" y2="2870.06"/>
	
		<line fill="none" stroke="#333333" stroke-width="0.25" stroke-miterlimit="10" stroke-dasharray="3.4391,3.4391" x1="895.141" y1="73.112" x2="895.141" y2="2870.06"/>
	
		<line fill="none" stroke="#333333" stroke-width="0.25" stroke-miterlimit="10" stroke-dasharray="3.4391,3.4391" x1="1061.391" y1="73.112" x2="1061.391" y2="2870.06"/>
	
		<line fill="none" stroke="#333333" stroke-width="0.25" stroke-miterlimit="10" stroke-dasharray="3.4391,3.4391" x1="1227.443" y1="74.112" x2="1227.443" y2="2870.06"/>
	
		<line display="none" fill="none" stroke="#333333" stroke-width="0.25" stroke-miterlimit="10" stroke-dasharray="3.4391,3.4391" x1="1393.633" y1="73.112" x2="1393.633" y2="2870.06"/>
</g>
<g id="p_x5F_ecolodges">
	<circle fill="#B7E268" stroke="#333333" stroke-width="2" stroke-miterlimit="10" cx="585.427" cy="110.478" r="6"/>
	<circle fill="#B7E268" stroke="#333333" stroke-width="2" stroke-miterlimit="10" cx="288.427" cy="259.478" r="6"/>
	<circle fill="#B7E268" stroke="#333333" stroke-width="2" stroke-miterlimit="10" cx="86.427" cy="813.477" r="6"/>
	<circle fill="#B7E268" stroke="#333333" stroke-width="2" stroke-miterlimit="10" cx="188.427" cy="158.478" r="6"/>
	<circle fill="#B7E268" stroke="#333333" stroke-width="2" stroke-miterlimit="10" cx="114.427" cy="176.478" r="6"/>
	<circle fill="#B7E268" stroke="#333333" stroke-width="2" stroke-miterlimit="10" cx="611.427" cy="124.478" r="6"/>
	<circle fill="#B7E268" stroke="#333333" stroke-width="2" stroke-miterlimit="10" cx="649.427" cy="100.478" r="6"/>
	<circle fill="#B7E268" stroke="#333333" stroke-width="2" stroke-miterlimit="10" cx="671.427" cy="271.478" r="6"/>
	<circle fill="#B7E268" stroke="#333333" stroke-width="2" stroke-miterlimit="10" cx="590.427" cy="491.477" r="6"/>
	<circle fill="#B7E268" stroke="#333333" stroke-width="2" stroke-miterlimit="10" cx="720.427" cy="634.477" r="6"/>
	<circle fill="#B7E268" stroke="#333333" stroke-width="2" stroke-miterlimit="10" cx="738.427" cy="1325.477" r="6"/>
	<circle fill="#B7E268" stroke="#333333" stroke-width="2" stroke-miterlimit="10" cx="1317.427" cy="169.478" r="6"/>
	<circle fill="#B7E268" stroke="#333333" stroke-width="2" stroke-miterlimit="10" cx="1317.427" cy="202.478" r="6"/>
	<circle fill="#B7E268" stroke="#333333" stroke-width="2" stroke-miterlimit="10" cx="1305.427" cy="259.478" r="6"/>
	<circle fill="#B7E268" stroke="#333333" stroke-width="2" stroke-miterlimit="10" cx="1411.427" cy="259.478" r="6"/>
	<circle fill="#B7E268" stroke="#333333" stroke-width="2" stroke-miterlimit="10" cx="1449.427" cy="182.478" r="6"/>
	<circle fill="#B7E268" stroke="#333333" stroke-width="2" stroke-miterlimit="10" cx="1449.427" cy="271.477" r="6"/>
	<circle fill="#B7E268" stroke="#333333" stroke-width="2" stroke-miterlimit="10" cx="1455.427" cy="355.477" r="6"/>
	<circle fill="#B7E268" stroke="#333333" stroke-width="2" stroke-miterlimit="10" cx="1516.427" cy="289.477" r="6"/>
	<circle fill="#B7E268" stroke="#333333" stroke-width="2" stroke-miterlimit="10" cx="713.427" cy="221.478" r="6"/>
	<circle fill="#B7E268" stroke="#333333" stroke-width="2" stroke-miterlimit="10" cx="708.427" cy="253.478" r="6"/>
	<circle fill="#B7E268" stroke="#333333" stroke-width="2" stroke-miterlimit="10" cx="706.427" cy="326.477" r="6"/>
	<circle fill="#B7E268" stroke="#333333" stroke-width="2" stroke-miterlimit="10" cx="739.427" cy="229.478" r="6"/>
	<circle fill="#B7E268" stroke="#333333" stroke-width="2" stroke-miterlimit="10" cx="783.427" cy="160.478" r="6"/>
	<circle fill="#B7E268" stroke="#333333" stroke-width="2" stroke-miterlimit="10" cx="797.427" cy="310.477" r="6"/>
	<circle fill="#B7E268" stroke="#333333" stroke-width="2" stroke-miterlimit="10" cx="745.427" cy="411.477" r="6"/>
	<circle fill="#B7E268" stroke="#333333" stroke-width="2" stroke-miterlimit="10" cx="847.427" cy="229.478" r="6"/>
	<circle fill="#B7E268" stroke="#333333" stroke-width="2" stroke-miterlimit="10" cx="858.427" cy="166.478" r="6"/>
	<circle fill="#B7E268" stroke="#333333" stroke-width="2" stroke-miterlimit="10" cx="856.427" cy="124.478" r="6"/>
	<circle fill="#B7E268" stroke="#333333" stroke-width="2" stroke-miterlimit="10" cx="891.427" cy="138.478" r="6"/>
	<circle fill="#B7E268" stroke="#333333" stroke-width="2" stroke-miterlimit="10" cx="902.427" cy="115.478" r="6"/>
	<circle fill="#B7E268" stroke="#333333" stroke-width="2" stroke-miterlimit="10" cx="964.427" cy="301.477" r="6"/>
</g>
<g id="p_x5F_spa">
	<circle fill="#6096B3" stroke="#333333" stroke-width="2" stroke-miterlimit="10" cx="893.427" cy="192.478" r="6"/>
	<circle fill="#6096B3" stroke="#333333" stroke-width="2" stroke-miterlimit="10" cx="872.427" cy="229.478" r="6"/>
	<circle fill="#6096B3" stroke="#333333" stroke-width="2" stroke-miterlimit="10" cx="839.427" cy="181.478" r="6"/>
	<circle fill="#6096B3" stroke="#333333" stroke-width="2" stroke-miterlimit="10" cx="844.427" cy="361.477" r="6"/>
	<circle fill="#6096B3" stroke="#333333" stroke-width="2" stroke-miterlimit="10" cx="865.427" cy="469.477" r="6"/>
	<circle fill="#6096B3" stroke="#333333" stroke-width="2" stroke-miterlimit="10" cx="868.427" cy="646.477" r="6"/>
	<circle fill="#6096B3" stroke="#333333" stroke-width="2" stroke-miterlimit="10" cx="918.427" cy="265.477" r="6"/>
	<circle fill="#6096B3" stroke="#333333" stroke-width="2" stroke-miterlimit="10" cx="784.427" cy="431.477" r="6"/>
	<circle fill="#6096B3" stroke="#333333" stroke-width="2" stroke-miterlimit="10" cx="769.427" cy="441.477" r="6"/>
	<circle fill="#6096B3" stroke="#333333" stroke-width="2" stroke-miterlimit="10" cx="751.427" cy="469.477" r="6"/>
	<circle fill="#6096B3" stroke="#333333" stroke-width="2" stroke-miterlimit="10" cx="773.427" cy="356.477" r="6"/>
	<circle fill="#6096B3" stroke="#333333" stroke-width="2" stroke-miterlimit="10" cx="787.427" cy="332.477" r="6"/>
	<circle fill="#6096B3" stroke="#333333" stroke-width="2" stroke-miterlimit="10" cx="714.427" cy="361.477" r="6"/>
	<circle fill="#6096B3" stroke="#333333" stroke-width="2" stroke-miterlimit="10" cx="699.427" cy="295.477" r="6"/>
	<circle fill="#6096B3" stroke="#333333" stroke-width="2" stroke-miterlimit="10" cx="665.427" cy="441.477" r="6"/>
	<circle fill="#6096B3" stroke="#333333" stroke-width="2" stroke-miterlimit="10" cx="685.427" cy="754.477" r="6"/>
	<circle fill="#6096B3" stroke="#333333" stroke-width="2" stroke-miterlimit="10" cx="693.427" cy="806.477" r="6"/>
	<circle fill="#6096B3" stroke="#333333" stroke-width="2" stroke-miterlimit="10" cx="608.427" cy="938.477" r="6"/>
	<circle fill="#6096B3" stroke="#333333" stroke-width="2" stroke-miterlimit="10" cx="828.427" cy="973.477" r="6"/>
	<circle fill="#6096B3" stroke="#333333" stroke-width="2" stroke-miterlimit="10" cx="852.427" cy="1248.477" r="6"/>
	<circle fill="#6096B3" stroke="#333333" stroke-width="2" stroke-miterlimit="10" cx="685.427" cy="2010.477" r="6"/>
	<circle fill="#6096B3" stroke="#333333" stroke-width="2" stroke-miterlimit="10" cx="925.427" cy="1112.477" r="6"/>
	<circle fill="#6096B3" stroke="#333333" stroke-width="2" stroke-miterlimit="10" cx="1446.427" cy="740.477" r="6"/>
	<circle fill="#6096B3" stroke="#333333" stroke-width="2" stroke-miterlimit="10" cx="1464.427" cy="271.477" r="6"/>
	<circle fill="#6096B3" stroke="#333333" stroke-width="2" stroke-miterlimit="10" cx="1117.427" cy="265.478" r="6"/>
	<circle fill="#6096B3" stroke="#333333" stroke-width="2" stroke-miterlimit="10" cx="1468.427" cy="979.477" r="6"/>
	<circle fill="#6096B3" stroke="#333333" stroke-width="2" stroke-miterlimit="10" cx="1294.427" cy="1722.477" r="6"/>
	<circle fill="#6096B3" stroke="#333333" stroke-width="2" stroke-miterlimit="10" cx="843.427" cy="2794.477" r="6"/>
	<circle fill="#6096B3" stroke="#333333" stroke-width="2" stroke-miterlimit="10" cx="201.427" cy="202.478" r="6"/>
	<circle fill="#6096B3" stroke="#333333" stroke-width="2" stroke-miterlimit="10" cx="153.427" cy="223.478" r="6"/>
	<circle fill="#6096B3" stroke="#333333" stroke-width="2" stroke-miterlimit="10" cx="92.427" cy="204.478" r="6"/>
	<circle fill="#6096B3" stroke="#333333" stroke-width="2" stroke-miterlimit="10" cx="767.427" cy="221.478" r="6"/>
	<circle fill="#6096B3" stroke="#333333" stroke-width="2" stroke-miterlimit="10" cx="771.427" cy="198.478" r="6"/>
</g>
<g id="p_x5F_city">
	<circle fill="#CE7DCA" stroke="#333333" stroke-width="2" stroke-miterlimit="10" cx="884.427" cy="208.478" r="6"/>
	<circle fill="#CE7DCA" stroke="#333333" stroke-width="2" stroke-miterlimit="10" cx="811.427" cy="198.478" r="6"/>
	<circle fill="#CE7DCA" stroke="#333333" stroke-width="2" stroke-miterlimit="10" cx="682.427" cy="134.478" r="6"/>
	<circle fill="#CE7DCA" stroke="#333333" stroke-width="2" stroke-miterlimit="10" cx="647.427" cy="190.478" r="6"/>
	<circle fill="#CE7DCA" stroke="#333333" stroke-width="2" stroke-miterlimit="10" cx="192.427" cy="307.477" r="6"/>
</g>
<g id="p_x5F_unusual">
	<circle fill="#F07863" stroke="#333333" stroke-width="2" stroke-miterlimit="10" cx="792.427" cy="133.478" r="6"/>
	<circle fill="#F07863" stroke="#333333" stroke-width="2" stroke-miterlimit="10" cx="811.427" cy="235.478" r="6"/>
	<circle fill="#F07863" stroke="#333333" stroke-width="2" stroke-miterlimit="10" cx="867.427" cy="146.478" r="6"/>
	<circle fill="#F07863" stroke="#333333" stroke-width="2" stroke-miterlimit="10" cx="866.427" cy="97.478" r="6"/>
	<circle fill="#F07863" stroke="#333333" stroke-width="2" stroke-miterlimit="10" cx="879.427" cy="326.477" r="6"/>
	<circle fill="#F07863" stroke="#333333" stroke-width="2" stroke-miterlimit="10" cx="883.427" cy="394.477" r="6"/>
	<circle fill="#F07863" stroke="#333333" stroke-width="2" stroke-miterlimit="10" cx="657.427" cy="313.477" r="6"/>
	<circle fill="#F07863" stroke="#333333" stroke-width="2" stroke-miterlimit="10" cx="1209.427" cy="677.477" r="6"/>
	<circle fill="#F07863" stroke="#333333" stroke-width="2" stroke-miterlimit="10" cx="608.427" cy="2126.477" r="6"/>
	<circle fill="#F07863" stroke="#333333" stroke-width="2" stroke-miterlimit="10" cx="1144.427" cy="315.477" r="6"/>
</g>
<g id="rosa_venti">
	
		<line fill="none" stroke="#FAFAF9" stroke-miterlimit="10" stroke-dasharray="3.4391,3.4391" x1="1560.622" y1="2726.374" x2="72.756" y2="1238.508"/>
	
		<line fill="none" stroke="#FAFAF9" stroke-miterlimit="10" stroke-dasharray="3.4391,3.4391" x1="1082.165" y1="2870.688" x2="1562.323" y2="2390.529"/>
	
		<line fill="none" stroke="#FAFAF9" stroke-miterlimit="10" stroke-dasharray="3.4391,3.4391" x1="1393.668" y1="2367.576" x2="1393.668" y2="73.908"/>
	
		<line fill="none" stroke="#FAFAF9" stroke-miterlimit="10" stroke-dasharray="3.4391,3.4391" x1="1393.668" y1="2875.06" x2="1393.668" y2="2428.138"/>
	
		<line fill="none" stroke="#FAFAF9" stroke-miterlimit="10" stroke-dasharray="3.4391,3.4391" x1="1564.836" y1="2559.207" x2="75.261" y2="2559.207"/>
	<text transform="matrix(1 0 0 1 1386.124 2399.8394)" fill="#FFFFFF" font-family="'TimesNewRomanPS-BoldMT'" font-size="30">$</text>
	<g>
		<g>
			<g>
				<polygon fill="#C4CCE6" points="1371.66,2597.739 1393.667,2702.895 1393.667,2559.421 				"/>
			</g>
			<g>
				<polygon fill="#F4F4F4" points="1415.678,2597.739 1393.667,2702.895 1393.667,2559.421 				"/>
			</g>
			<g>
				<polygon fill="#9496AA" points="1394.694,2563.272 1414.589,2597.913 1394.694,2692.981 				"/>
			</g>
		</g>
		<g>
			<g>
				<polygon fill="#F4F4F4" points="1371.66,2521.115 1393.667,2415.958 1393.667,2559.421 				"/>
			</g>
			<g>
				<polygon fill="#9496AA" points="1372.738,2520.945 1392.641,2425.876 1392.641,2555.58 				"/>
			</g>
			<g>
				<polygon fill="#C4CCE6" points="1415.678,2521.115 1393.667,2415.958 1393.667,2559.421 				"/>
			</g>
		</g>
		<g>
			<g>
				<polygon fill="#C4CCE6" points="1355.356,2537.421 1250.196,2559.421 1393.667,2559.421 				"/>
			</g>
			<g>
				<polygon fill="#F4F4F4" points="1355.356,2581.435 1250.196,2559.421 1393.667,2559.421 				"/>
			</g>
			<g>
				<polygon fill="#9496AA" points="1260.118,2560.453 1389.82,2560.453 1355.18,2580.356 				"/>
			</g>
		</g>
		<g>
			<g>
				<polygon fill="#C4CCE6" points="1371.66,2521.115 1325.438,2490.728 1393.667,2559.421 				"/>
			</g>
			<g>
				<polygon fill="#F4F4F4" points="1355.356,2537.421 1325.438,2490.728 1393.667,2559.421 				"/>
			</g>
			<g>
				<polygon fill="#9496AA" points="1356.109,2536.662 1330.654,2497.079 1388.169,2555.083 				"/>
			</g>
		</g>
		<g>
			<g>
				<polygon fill="#C4CCE6" points="1431.974,2537.416 1462.36,2491.193 1393.667,2559.421 				"/>
			</g>
			<g>
				<polygon fill="#F4F4F4" points="1415.667,2521.111 1462.36,2491.193 1393.667,2559.421 				"/>
			</g>
			<g>
				<polygon fill="#9496AA" points="1416.427,2521.865 1456.01,2496.409 1398.006,2553.923 				"/>
			</g>
		</g>
		<g>
			<g>
				<polygon fill="#C4CCE6" points="1355.451,2581.212 1325.064,2627.435 1393.758,2559.207 				"/>
			</g>
			<g>
				<polygon fill="#F4F4F4" points="1371.758,2597.517 1325.064,2627.435 1393.758,2559.207 				"/>
			</g>
			<g>
				<polygon fill="#9496AA" points="1370.998,2596.763 1331.415,2622.219 1389.419,2564.705 				"/>
			</g>
		</g>
		<g>
			<g>
				<polygon fill="#C4CCE6" points="1415.673,2597.733 1461.896,2628.12 1393.667,2559.426 				"/>
			</g>
			<g>
				<polygon fill="#F4F4F4" points="1431.978,2581.426 1461.896,2628.12 1393.667,2559.426 				"/>
			</g>
			<g>
				<polygon fill="#9496AA" points="1431.225,2582.185 1456.681,2621.769 1399.166,2563.765 				"/>
			</g>
		</g>
		<g>
			<g>
				<polygon fill="#C4CCE6" points="1431.978,2581.435 1537.138,2559.435 1393.667,2559.435 				"/>
			</g>
			<g>
				<polygon fill="#F4F4F4" points="1431.978,2537.421 1537.138,2559.435 1393.667,2559.435 				"/>
			</g>
			<g>
				<polygon fill="#9496AA" points="1527.216,2558.404 1397.514,2558.404 1432.153,2538.5 				"/>
			</g>
		</g>
	</g>
</g>
<g id="scala">
	<g>
		<rect x="396.843" y="2870.041" fill="#333333" width="166.052" height="8"/>
		<rect x="729.089" y="2870.041" fill="#333333" width="166.052" height="8"/>
		<rect x="1061.391" y="2870.041" fill="#333333" width="166.053" height="8"/>
		<rect x="1393.659" y="2870.041" fill="#333333" width="166.215" height="8"/>
		<rect x="75.256" y="2870.041" fill="#333333" width="155.329" height="8"/>
		<rect x="230.584" y="2870.041" fill="#FFFFFF" width="166.258" height="8"/>
		<rect x="562.895" y="2870.041" fill="#FFFFFF" width="166.258" height="8"/>
		<rect x="895.141" y="2870.187" fill="#FFFFFF" width="166.258" height="7.707"/>
		<rect x="1227.443" y="2870.041" fill="#FFFFFF" width="166.258" height="8"/>
	</g>
	<g>
		<rect x="396.875" y="65.908" fill="#333333" width="166.052" height="8"/>
		<rect x="729.121" y="65.908" fill="#333333" width="166.052" height="8"/>
		<rect x="1061.423" y="65.908" fill="#333333" width="166.053" height="8"/>
		<rect x="1393.691" y="65.908" fill="#333333" width="166.215" height="8"/>
		<rect x="75.288" y="65.908" fill="#333333" width="155.329" height="8"/>
		<rect x="230.617" y="65.908" fill="#FFFFFF" width="166.258" height="8"/>
		<rect x="562.927" y="65.908" fill="#FFFFFF" width="166.258" height="8"/>
		<rect x="895.173" y="66.055" fill="#FFFFFF" width="166.258" height="7.706"/>
		<rect x="1227.476" y="65.908" fill="#FFFFFF" width="166.258" height="8"/>
	</g>
	<g>
		<rect x="1559.826" y="384.826" fill="#333333" width="7.914" height="310.657"/>
		<rect x="1559.826" y="695.483" fill="#FFFFFF" width="7.914" height="310.657"/>
		<rect x="1559.912" y="65.905" fill="#FFFFFF" width="7.914" height="318.92"/>
		<rect x="1559.826" y="1006.12" fill="#333333" width="7.914" height="310.657"/>
		<rect x="1559.826" y="1317.797" fill="#FFFFFF" width="7.914" height="310.657"/>
		<rect x="1559.826" y="1627.427" fill="#333333" width="7.914" height="310.657"/>
		<rect x="1559.826" y="2248.728" fill="#333333" width="7.914" height="310.657"/>
		<rect x="1559.826" y="1938.112" fill="#FFFFFF" width="7.914" height="310.657"/>
		<rect x="1559.88" y="2559.161" fill="#FFFFFF" width="7.915" height="318.655"/>
	</g>
	<g>
		<rect x="67.285" y="384.826" fill="#333333" width="7.914" height="310.657"/>
		<rect x="67.285" y="695.483" fill="#FFFFFF" width="7.914" height="310.657"/>
		<rect x="67.371" y="66.005" fill="#FFFFFF" width="7.914" height="318.82"/>
		<rect x="67.285" y="1006.12" fill="#333333" width="7.914" height="310.657"/>
		<rect x="67.285" y="1317.797" fill="#FFFFFF" width="7.914" height="310.657"/>
		<rect x="67.285" y="1627.427" fill="#333333" width="7.914" height="310.657"/>
		<rect x="67.285" y="2248.728" fill="#333333" width="7.914" height="310.657"/>
		<rect x="67.285" y="1938.112" fill="#FFFFFF" width="7.914" height="310.657"/>
		<rect x="67.339" y="2559.161" fill="#FFFFFF" width="7.914" height="318.854"/>
	</g>
</g>
<g id="prezzi">
	<g>
		<text transform="matrix(1 0 0 1 12.772 1321.6821)" fill="#333333" font-family="'PTSans-Regular'" font-size="15">4.000$</text>
	</g>
	<g>
		<text transform="matrix(1 0 0 1 13.1533 1633.3452)" fill="#333333" font-family="'PTSans-Regular'" font-size="15">5.000$</text>
	</g>
	<g>
		<text transform="matrix(1 0 0 1 12.772 1943.4106)" fill="#333333" font-family="'PTSans-Regular'" font-size="15">6.000$</text>
	</g>
	<g>
		<text transform="matrix(1 0 0 1 14.3555 2254.0972)" fill="#333333" font-family="'PTSans-Regular'" font-size="15">7.000$</text>
	</g>
	<g>
		<text transform="matrix(1 0 0 1 12.772 2564.5425)" fill="#333333" font-family="'PTSans-Regular'" font-size="15">8.000$</text>
	</g>
	<g>
		<text transform="matrix(1 0 0 1 12.7979 1011.8628)" fill="#333333" font-family="'PTSans-Regular'" font-size="15">3.000$</text>
	</g>
	<g>
		<text transform="matrix(1 0 0 1 12.7979 700.9028)" fill="#333333" font-family="'PTSans-Regular'" font-size="15">2.000$</text>
	</g>
	<g>
		<text transform="matrix(1 0 0 1 12.7461 390.0679)" fill="#333333" font-family="'PTSans-Regular'" font-size="15">1.000$</text>
	</g>
</g>
<g id="distanze">
	<g>
		<text transform="matrix(1 0 0 1 206.9604 55.8999)" fill="#333333" font-family="'PTSans-Regular'" font-size="15">2.000 km</text>
	</g>
	<g>
		<text transform="matrix(1 0 0 1 63.0215 55.8999)" fill="#333333" font-family="'PTSans-Regular'" font-size="15">0 km</text>
	</g>
	<g>
		<text transform="matrix(1 0 0 1 373.0151 55.8999)" fill="#333333" font-family="'PTSans-Regular'" font-size="15">4.000 km</text>
	</g>
	<g>
		<text transform="matrix(1 0 0 1 539.4155 55.8999)" fill="#333333" font-family="'PTSans-Regular'" font-size="15">6.000 km</text>
	</g>
	<g>
		<text transform="matrix(1 0 0 1 705.3774 55.8999)" fill="#333333" font-family="'PTSans-Regular'" font-size="15">8.000 km</text>
	</g>
	<g>
		<text transform="matrix(1 0 0 1 869.0444 55.8999)" fill="#333333" font-family="'PTSans-Regular'" font-size="15">10.000 km</text>
	</g>
	<g>
		<text transform="matrix(1 0 0 1 1035.0054 55.8999)" fill="#333333" font-family="'PTSans-Regular'" font-size="15">12.000 km</text>
	</g>
	<g>
		<text transform="matrix(1 0 0 1 1201.1489 55.8999)" fill="#333333" font-family="'PTSans-Regular'" font-size="15">14.000 km</text>
	</g>
	<g>
		<text transform="matrix(1 0 0 1 1367.9409 55.8999)" fill="#333333" font-family="'PTSans-Regular'" font-size="15">16.000 km</text>
	</g>
</g>
</svg>
