<?xml version="1.0" encoding="utf-8"?>
<!-- Generator: Adobe Illustrator 16.0.0, SVG Export Plug-In . SVG Version: 6.00 Build 0)  -->
<!DOCTYPE svg PUBLIC "-//W3C//DTD SVG 1.1//EN" "http://www.w3.org/Graphics/SVG/1.1/DTD/svg11.dtd">
<svg version="1.1" id="Layer_1" xmlns="http://www.w3.org/2000/svg" xmlns:xlink="http://www.w3.org/1999/xlink" x="0px" y="0px"
	 width="162.702px" height="29.855px" viewBox="0 0 162.702 29.855" enable-background="new 0 0 162.702 29.855"
	 xml:space="preserve">
<g>
	<g>
		<path fill="#1C191C" d="M16.277,7.639c0-0.365-0.145-0.666-0.435-0.904c-0.29-0.237-0.781-0.46-1.475-0.668
			c-0.758-0.208-1.335-0.468-1.731-0.779s-0.593-0.733-0.593-1.267c0-0.543,0.221-0.99,0.664-1.34s1.007-0.525,1.694-0.525
			c0.723,0,1.304,0.198,1.743,0.593s0.653,0.897,0.64,1.506l-0.01,0.029h-0.547c0-0.469-0.17-0.858-0.51-1.167
			s-0.779-0.464-1.316-0.464c-0.553,0-0.987,0.131-1.301,0.393s-0.471,0.583-0.471,0.964c0,0.361,0.143,0.658,0.427,0.891
			s0.787,0.45,1.506,0.652c0.749,0.218,1.32,0.487,1.714,0.806c0.394,0.318,0.591,0.742,0.591,1.27c0,0.553-0.23,0.998-0.691,1.335
			s-1.041,0.505-1.741,0.505s-1.31-0.178-1.831-0.534s-0.773-0.876-0.757-1.56l0.01-0.029H12.4c0,0.55,0.207,0.959,0.62,1.228
			s0.885,0.403,1.416,0.403c0.543,0,0.986-0.125,1.328-0.374S16.277,8.032,16.277,7.639z"/>
		<path fill="#1C191C" d="M22.078,5.924h-3.188v2.949h3.687v0.494h-4.272v-7.11h4.248v0.498h-3.662v2.671h3.188V5.924z"/>
		<path fill="#1C191C" d="M24.402,8.873h3.672v0.494h-4.258v-7.11h0.586V8.873z"/>
		<path fill="#1C191C" d="M33.098,5.924H29.91v2.949h3.687v0.494h-4.272v-7.11h4.248v0.498H29.91v2.671h3.188V5.924z"/>
		<path fill="#1C191C" d="M39.734,7.145l0.01,0.029c0.013,0.697-0.215,1.254-0.684,1.67c-0.469,0.417-1.084,0.625-1.846,0.625
			c-0.791,0-1.429-0.285-1.914-0.856s-0.728-1.312-0.728-2.22V5.236c0-0.905,0.243-1.645,0.728-2.219s1.123-0.862,1.914-0.862
			c0.771,0,1.389,0.204,1.853,0.61s0.689,0.967,0.676,1.68l-0.01,0.029h-0.547c0-0.573-0.175-1.02-0.525-1.34
			s-0.833-0.481-1.448-0.481c-0.622,0-1.121,0.241-1.497,0.723s-0.564,1.099-0.564,1.851v1.167c0,0.762,0.188,1.383,0.564,1.863
			s0.875,0.721,1.497,0.721c0.615,0,1.098-0.156,1.448-0.469s0.525-0.768,0.525-1.363H39.734z"/>
		<path fill="#1C191C" d="M45.94,2.755h-2.422v6.612h-0.581V2.755h-2.505V2.257h5.508V2.755z"/>
		<path fill="#1C191C" d="M53.235,7.385h-3.12l-0.718,1.982h-0.605l2.612-7.11h0.552l2.593,7.11h-0.605L53.235,7.385z M50.3,6.861
			h2.744l-1.348-3.769h-0.029L50.3,6.861z"/>
		<path fill="#1C191C" d="M61.931,6.037h-3.267v3.331h-0.586v-7.11h4.351v0.498h-3.765v2.778h3.267V6.037z"/>
		<path fill="#1C191C" d="M64.324,9.367h-0.586v-7.11h0.586V9.367z"/>
		<path fill="#1C191C" d="M66.877,8.873h3.672v0.494h-4.258v-7.11h0.586V8.873z"/>
		<path fill="#1C191C" d="M75.291,2.755h-2.422v6.612h-0.581V2.755h-2.505V2.257h5.508V2.755z"/>
		<path fill="#1C191C" d="M80.208,5.924h-3.188v2.949h3.687v0.494h-4.272v-7.11h4.248v0.498h-3.662v2.671h3.188V5.924z"/>
		<path fill="#1C191C" d="M82.517,6.154v3.213h-0.586V2.262h2.368c0.762,0,1.346,0.167,1.753,0.5s0.61,0.821,0.61,1.462
			c0,0.377-0.108,0.715-0.325,1.013s-0.523,0.515-0.92,0.652c0.439,0.111,0.756,0.309,0.95,0.593s0.291,0.642,0.291,1.071v0.67
			c0,0.221,0.026,0.42,0.078,0.596s0.138,0.318,0.259,0.43v0.117h-0.596c-0.121-0.117-0.205-0.282-0.254-0.494
			c-0.049-0.211-0.073-0.431-0.073-0.658v-0.65c0-0.436-0.141-0.779-0.422-1.032s-0.675-0.378-1.179-0.378H82.517z M82.517,5.656
			h1.714c0.641,0,1.11-0.129,1.406-0.388s0.444-0.608,0.444-1.047c0-0.469-0.147-0.829-0.442-1.082s-0.741-0.378-1.34-0.378h-1.782
			V5.656z"/>
		<path fill="#1C191C" d="M94.753,6.037h-3.267v3.331h-0.586v-7.11h4.351v0.498h-3.765v2.778h3.267V6.037z"/>
		<path fill="#1C191C" d="M101.624,6.393c0,0.918-0.251,1.66-0.754,2.227s-1.178,0.85-2.024,0.85c-0.833,0-1.498-0.283-1.995-0.85
			s-0.745-1.309-0.745-2.227V5.236c0-0.915,0.248-1.657,0.742-2.227s1.159-0.854,1.992-0.854c0.846,0,1.522,0.285,2.026,0.854
			s0.757,1.312,0.757,2.227V6.393z M101.042,5.226c0-0.768-0.194-1.387-0.583-1.855S99.53,2.667,98.84,2.667
			c-0.677,0-1.205,0.234-1.582,0.703s-0.566,1.087-0.566,1.855v1.167c0,0.775,0.189,1.396,0.569,1.865s0.907,0.703,1.584,0.703
			c0.693,0,1.233-0.232,1.619-0.7s0.579-1.09,0.579-1.868V5.226z"/>
		<path fill="#1C191C" d="M103.708,6.154v3.213h-0.586V2.262h2.368c0.762,0,1.346,0.167,1.753,0.5s0.61,0.821,0.61,1.462
			c0,0.377-0.108,0.715-0.325,1.013s-0.523,0.515-0.92,0.652c0.439,0.111,0.756,0.309,0.95,0.593s0.291,0.642,0.291,1.071v0.67
			c0,0.221,0.026,0.42,0.078,0.596s0.138,0.318,0.259,0.43v0.117h-0.596c-0.121-0.117-0.205-0.282-0.254-0.494
			c-0.049-0.211-0.073-0.431-0.073-0.658v-0.65c0-0.436-0.141-0.779-0.422-1.032s-0.675-0.378-1.179-0.378H103.708z M103.708,5.656
			h1.714c0.641,0,1.11-0.129,1.406-0.388s0.444-0.608,0.444-1.047c0-0.469-0.147-0.829-0.442-1.082s-0.741-0.378-1.34-0.378h-1.782
			V5.656z"/>
		<path fill="#1C191C" d="M116.926,2.755h-2.422v6.612h-0.581V2.755h-2.505V2.257h5.508V2.755z"/>
		<path fill="#1C191C" d="M123.279,9.367h-0.586V6.095h-4.038v3.272h-0.586v-7.11h0.586v3.34h4.038v-3.34h0.586V9.367z"/>
		<path fill="#1C191C" d="M128.87,5.924h-3.188v2.949h3.687v0.494h-4.272v-7.11h4.248v0.498h-3.662v2.671h3.188V5.924z"/>
		<path fill="#1C191C" d="M136.458,8.518h0.029l2.646-6.26h0.713v7.11h-0.586V3.395l-0.029-0.005l-2.549,5.977h-0.42l-2.607-6.124
			l-0.029,0.005v6.119h-0.586v-7.11h0.781L136.458,8.518z"/>
		<path fill="#1C191C" d="M145.471,7.385h-3.12l-0.718,1.982h-0.605l2.612-7.11h0.552l2.593,7.11h-0.605L145.471,7.385z
			 M142.537,6.861h2.744l-1.348-3.769h-0.029L142.537,6.861z"/>
		<path fill="#1C191C" d="M148.469,6.412v2.955h-0.586v-7.11h2.451c0.746,0,1.322,0.19,1.73,0.571
			c0.409,0.381,0.613,0.882,0.613,1.504c0,0.631-0.204,1.136-0.613,1.514c-0.408,0.377-0.984,0.566-1.73,0.566H148.469z
			 M148.469,5.915h1.865c0.586,0,1.025-0.149,1.318-0.447s0.439-0.673,0.439-1.125c0-0.456-0.146-0.834-0.439-1.135
			s-0.732-0.452-1.318-0.452h-1.865V5.915z"/>
	</g>
	<g>
		<polygon fill="#ED8223" points="0,10.128 0.021,0 7.52,6.804 4.326,7.403 5.811,10.76 4.07,11.517 2.592,8.171 		"/>
	</g>
</g>
<g>
	<g>
		<path fill="#1C191C" d="M17.478,24.295h-0.586v-3.271h-4.038v3.271h-0.586v-7.109h0.586v3.34h4.038v-3.34h0.586V24.295z"/>
		<path fill="#1C191C" d="M24.509,21.32c0,0.918-0.251,1.66-0.754,2.227s-1.178,0.85-2.024,0.85c-0.833,0-1.498-0.283-1.995-0.85
			s-0.745-1.309-0.745-2.227v-1.156c0-0.915,0.248-1.657,0.742-2.227c0.495-0.57,1.159-0.855,1.992-0.855
			c0.846,0,1.522,0.285,2.026,0.855c0.504,0.569,0.757,1.312,0.757,2.227V21.32z M23.928,20.154c0-0.769-0.194-1.387-0.583-1.855
			s-0.929-0.703-1.619-0.703c-0.677,0-1.205,0.234-1.582,0.703s-0.566,1.087-0.566,1.855v1.166c0,0.775,0.189,1.396,0.569,1.865
			s0.907,0.703,1.584,0.703c0.693,0,1.233-0.232,1.619-0.7s0.579-1.09,0.579-1.868V20.154z"/>
		<path fill="#1C191C" d="M27.917,23.049l0.142,0.498h0.029l0.142-0.498l2.139-5.863h0.63l-2.646,7.109h-0.557l-2.646-7.109h0.635
			L27.917,23.049z"/>
		<path fill="#1C191C" d="M35.823,20.852h-3.188v2.949h3.687v0.494h-4.272v-7.109h4.248v0.498h-3.662v2.67h3.188V20.852z"/>
		<path fill="#1C191C" d="M38.132,21.082v3.213h-0.586v-7.105h2.368c0.762,0,1.346,0.168,1.753,0.501s0.61,0.821,0.61,1.462
			c0,0.378-0.108,0.716-0.325,1.014s-0.523,0.516-0.92,0.652c0.439,0.11,0.756,0.309,0.95,0.593s0.291,0.642,0.291,1.071v0.67
			c0,0.221,0.026,0.42,0.078,0.596s0.138,0.318,0.259,0.43v0.117h-0.596c-0.121-0.117-0.205-0.282-0.254-0.494
			c-0.049-0.211-0.073-0.431-0.073-0.658v-0.65c0-0.436-0.141-0.779-0.422-1.032s-0.675-0.378-1.179-0.378H38.132z M38.132,20.584
			h1.714c0.641,0,1.11-0.13,1.406-0.389s0.444-0.607,0.444-1.047c0-0.469-0.147-0.83-0.442-1.082s-0.741-0.379-1.34-0.379h-1.782
			V20.584z"/>
		<path fill="#1C191C" d="M51.731,21.32c0,0.918-0.251,1.66-0.754,2.227s-1.178,0.85-2.024,0.85c-0.833,0-1.498-0.283-1.995-0.85
			s-0.745-1.309-0.745-2.227v-1.156c0-0.915,0.248-1.657,0.742-2.227c0.495-0.57,1.159-0.855,1.992-0.855
			c0.846,0,1.522,0.285,2.026,0.855c0.504,0.569,0.757,1.312,0.757,2.227V21.32z M51.15,20.154c0-0.769-0.194-1.387-0.583-1.855
			s-0.929-0.703-1.619-0.703c-0.677,0-1.205,0.234-1.582,0.703s-0.566,1.087-0.566,1.855v1.166c0,0.775,0.189,1.396,0.569,1.865
			s0.907,0.703,1.584,0.703c0.693,0,1.233-0.232,1.619-0.7s0.579-1.09,0.579-1.868V20.154z"/>
		<path fill="#1C191C" d="M55.139,23.049l0.142,0.498h0.029l0.142-0.498l2.139-5.863h0.63l-2.646,7.109h-0.557l-2.646-7.109h0.635
			L55.139,23.049z"/>
		<path fill="#1C191C" d="M63.044,20.852h-3.188v2.949h3.687v0.494H59.27v-7.109h4.248v0.498h-3.662v2.67h3.188V20.852z"/>
		<path fill="#1C191C" d="M65.354,21.082v3.213h-0.586v-7.105h2.368c0.762,0,1.346,0.168,1.753,0.501s0.61,0.821,0.61,1.462
			c0,0.378-0.108,0.716-0.325,1.014s-0.523,0.516-0.92,0.652c0.439,0.11,0.756,0.309,0.95,0.593s0.291,0.642,0.291,1.071v0.67
			c0,0.221,0.026,0.42,0.078,0.596s0.138,0.318,0.259,0.43v0.117h-0.596c-0.121-0.117-0.205-0.282-0.254-0.494
			c-0.049-0.211-0.073-0.431-0.073-0.658v-0.65c0-0.436-0.141-0.779-0.422-1.032s-0.675-0.378-1.179-0.378H65.354z M65.354,20.584
			h1.714c0.641,0,1.11-0.13,1.406-0.389s0.444-0.607,0.444-1.047c0-0.469-0.147-0.83-0.442-1.082s-0.741-0.379-1.34-0.379h-1.782
			V20.584z"/>
		<path fill="#1C191C" d="M78.977,24.295h-0.586l-4.038-6.084l-0.029,0.004v6.08h-0.586v-7.109h0.586l4.038,6.068l0.029-0.004
			v-6.064h0.586V24.295z"/>
		<path fill="#1C191C" d="M84.602,22.313h-3.12l-0.718,1.982h-0.605l2.612-7.109h0.552l2.593,7.109H85.31L84.602,22.313z
			 M81.667,21.789h2.744l-1.348-3.77h-0.029L81.667,21.789z"/>
		<path fill="#1C191C" d="M91.218,17.684h-2.422v6.611h-0.581v-6.611H85.71v-0.498h5.508V17.684z"/>
		<path fill="#1C191C" d="M93.098,24.295h-0.586v-7.109h0.586V24.295z"/>
		<path fill="#1C191C" d="M100.281,21.32c0,0.918-0.251,1.66-0.754,2.227s-1.178,0.85-2.024,0.85c-0.833,0-1.498-0.283-1.995-0.85
			s-0.745-1.309-0.745-2.227v-1.156c0-0.915,0.248-1.657,0.742-2.227c0.495-0.57,1.159-0.855,1.992-0.855
			c0.846,0,1.522,0.285,2.026,0.855c0.504,0.569,0.757,1.312,0.757,2.227V21.32z M99.7,20.154c0-0.769-0.194-1.387-0.583-1.855
			s-0.929-0.703-1.619-0.703c-0.677,0-1.205,0.234-1.582,0.703s-0.566,1.087-0.566,1.855v1.166c0,0.775,0.189,1.396,0.569,1.865
			s0.907,0.703,1.584,0.703c0.693,0,1.233-0.232,1.619-0.7s0.579-1.09,0.579-1.868V20.154z"/>
		<path fill="#1C191C" d="M107.034,24.295h-0.586l-4.038-6.084l-0.029,0.004v6.08h-0.586v-7.109h0.586l4.038,6.068l0.029-0.004
			v-6.064h0.586V24.295z"/>
		<path fill="#1C191C" d="M112.859,22.566c0-0.365-0.145-0.666-0.435-0.904c-0.29-0.237-0.781-0.46-1.475-0.668
			c-0.758-0.209-1.335-0.469-1.731-0.779s-0.593-0.733-0.593-1.268c0-0.543,0.221-0.99,0.664-1.34s1.007-0.525,1.694-0.525
			c0.723,0,1.304,0.198,1.743,0.594s0.653,0.897,0.64,1.506l-0.01,0.029h-0.547c0-0.469-0.17-0.857-0.51-1.166
			c-0.34-0.31-0.779-0.465-1.316-0.465c-0.553,0-0.987,0.131-1.301,0.394s-0.471,0.583-0.471,0.964c0,0.361,0.143,0.658,0.427,0.892
			s0.787,0.45,1.506,0.651c0.749,0.219,1.32,0.487,1.714,0.807c0.394,0.318,0.591,0.742,0.591,1.27c0,0.553-0.23,0.998-0.691,1.335
			s-1.041,0.505-1.741,0.505s-1.31-0.178-1.831-0.534s-0.773-0.876-0.757-1.56l0.01-0.029h0.542c0,0.55,0.207,0.959,0.62,1.228
			s0.885,0.403,1.416,0.403c0.543,0,0.986-0.125,1.328-0.374S112.859,22.96,112.859,22.566z"/>
		<path fill="#1C191C" d="M121.169,20.965h-3.267v3.33h-0.586v-7.109h4.351v0.498h-3.765v2.777h3.267V20.965z"/>
		<path fill="#1C191C" d="M128.04,21.32c0,0.918-0.251,1.66-0.754,2.227s-1.178,0.85-2.024,0.85c-0.833,0-1.498-0.283-1.995-0.85
			s-0.745-1.309-0.745-2.227v-1.156c0-0.915,0.248-1.657,0.742-2.227c0.495-0.57,1.159-0.855,1.992-0.855
			c0.846,0,1.522,0.285,2.026,0.855c0.504,0.569,0.757,1.312,0.757,2.227V21.32z M127.458,20.154c0-0.769-0.194-1.387-0.583-1.855
			s-0.929-0.703-1.619-0.703c-0.677,0-1.205,0.234-1.582,0.703s-0.566,1.087-0.566,1.855v1.166c0,0.775,0.189,1.396,0.569,1.865
			s0.907,0.703,1.584,0.703c0.693,0,1.233-0.232,1.619-0.7s0.579-1.09,0.579-1.868V20.154z"/>
		<path fill="#1C191C" d="M130.125,21.082v3.213h-0.586v-7.105h2.368c0.762,0,1.346,0.168,1.753,0.501s0.61,0.821,0.61,1.462
			c0,0.378-0.108,0.716-0.325,1.014s-0.523,0.516-0.92,0.652c0.439,0.11,0.756,0.309,0.95,0.593s0.291,0.642,0.291,1.071v0.67
			c0,0.221,0.026,0.42,0.078,0.596s0.138,0.318,0.259,0.43v0.117h-0.596c-0.121-0.117-0.205-0.282-0.254-0.494
			c-0.049-0.211-0.073-0.431-0.073-0.658v-0.65c0-0.436-0.141-0.779-0.422-1.032s-0.675-0.378-1.179-0.378H130.125z M130.125,20.584
			h1.714c0.641,0,1.11-0.13,1.406-0.389s0.444-0.607,0.444-1.047c0-0.469-0.147-0.83-0.442-1.082s-0.741-0.379-1.34-0.379h-1.782
			V20.584z"/>
		<path fill="#1C191C" d="M138.508,24.295v-7.109h2.168c0.869,0,1.588,0.289,2.156,0.869c0.568,0.579,0.852,1.322,0.852,2.23v0.914
			c0,0.908-0.284,1.65-0.852,2.229s-1.287,0.867-2.156,0.867H138.508z M139.094,17.684v6.117h1.582c0.703,0,1.283-0.245,1.738-0.736
			c0.456-0.492,0.684-1.113,0.684-1.865v-0.928c0-0.742-0.229-1.359-0.686-1.852c-0.458-0.491-1.036-0.736-1.736-0.736H139.094z"/>
		<path fill="#1C191C" d="M148.855,22.313h-3.12l-0.718,1.982h-0.605l2.612-7.109h0.552l2.593,7.109h-0.605L148.855,22.313z
			 M145.92,21.789h2.744l-1.348-3.77h-0.029L145.92,21.789z"/>
		<path fill="#1C191C" d="M155.471,17.684h-2.422v6.611h-0.581v-6.611h-2.505v-0.498h5.508V17.684z"/>
		<path fill="#1C191C" d="M159.949,22.313h-3.12l-0.718,1.982h-0.605l2.612-7.109h0.552l2.593,7.109h-0.605L159.949,22.313z
			 M157.014,21.789h2.744l-1.348-3.77h-0.029L157.014,21.789z"/>
	</g>
	<g>
		<polygon fill="#ED8223" points="0,25.056 0.021,14.928 7.52,21.731 4.326,22.331 5.811,25.688 4.07,26.444 2.592,23.099 		"/>
	</g>
</g>
</svg>
