<?xml version="1.0" encoding="utf-8"?>
<!-- Generator: Adobe Illustrator 16.0.0, SVG Export Plug-In . SVG Version: 6.00 Build 0)  -->
<!DOCTYPE svg PUBLIC "-//W3C//DTD SVG 1.1//EN" "http://www.w3.org/Graphics/SVG/1.1/DTD/svg11.dtd">
<svg version="1.1" id="Layer_1" xmlns="http://www.w3.org/2000/svg" xmlns:xlink="http://www.w3.org/1999/xlink" x="0px" y="0px"
	 width="107.5px" height="122.167px" viewBox="0 0 107.5 122.167" enable-background="new 0 0 107.5 122.167" xml:space="preserve">
<rect y="20" fill="#01AFA4" width="20" height="20"/>
<rect y="60" fill="#65C7C3" width="20" height="20"/>
<rect y="80" fill="#94D4D3" width="20" height="20"/>
<rect y="100" fill="#C0E5E4" width="20" height="20"/>
<rect y="40" fill="#1CBAB3" width="20" height="20"/>
<rect fill="#00A096" width="20" height="20"/>
<g enable-background="new    ">
	<path fill="#030303" d="M63.264,9.429c0-0.328-0.113-0.592-0.342-0.791s-0.631-0.387-1.205-0.563
		c-0.984-0.297-1.73-0.646-2.24-1.049s-0.766-0.951-0.766-1.646c0-0.699,0.287-1.271,0.861-1.714s1.307-0.665,2.197-0.665
		c0.945,0,1.707,0.238,2.283,0.715s0.854,1.102,0.834,1.875l-0.012,0.035h-1.658c0-0.426-0.129-0.753-0.387-0.981
		s-0.619-0.343-1.084-0.343c-0.422,0-0.748,0.102-0.979,0.305s-0.346,0.463-0.346,0.779c0,0.289,0.125,0.526,0.375,0.712
		s0.682,0.382,1.295,0.589c0.938,0.266,1.652,0.612,2.145,1.04s0.738,0.991,0.738,1.69c0,0.73-0.285,1.307-0.855,1.729
		s-1.324,0.633-2.262,0.633c-0.918,0-1.705-0.229-2.363-0.686s-0.979-1.139-0.959-2.045l0.012-0.035h1.658
		c0,0.504,0.148,0.875,0.445,1.113s0.699,0.357,1.207,0.357c0.457,0,0.807-0.096,1.047-0.287S63.264,9.75,63.264,9.429z"/>
	<path fill="#030303" d="M71.619,9.3h0.035l0.768-3.984h1.664l-1.611,6.34h-1.43L69.867,8h-0.035l-1.178,3.656H67.23l-1.611-6.34
		h1.664l0.779,3.967h0.035l1.184-3.967h1.143L71.619,9.3z"/>
	<path fill="#030303" d="M77.684,11.779c-0.945,0-1.684-0.29-2.215-0.87s-0.797-1.327-0.797-2.241V8.433
		c0-0.949,0.258-1.727,0.773-2.332s1.225-0.906,2.127-0.902c0.852,0,1.506,0.261,1.961,0.782s0.682,1.224,0.682,2.106v0.885h-3.779
		l-0.018,0.035c0.027,0.434,0.16,0.785,0.396,1.055s0.586,0.404,1.051,0.404c0.383,0,0.709-0.039,0.977-0.117
		s0.543-0.197,0.828-0.357l0.463,1.055c-0.254,0.207-0.598,0.381-1.031,0.521S78.195,11.779,77.684,11.779z M77.572,6.517
		c-0.344,0-0.607,0.118-0.793,0.354s-0.299,0.55-0.338,0.94l0.012,0.029h2.086V7.712c0-0.371-0.076-0.663-0.229-0.876
		S77.912,6.517,77.572,6.517z"/>
	<path fill="#030303" d="M80.947,8.539c0-1,0.217-1.807,0.648-2.42s1.039-0.92,1.824-0.92c0.316,0,0.602,0.068,0.855,0.205
		s0.477,0.332,0.668,0.586V2.515h1.717v9.141h-1.459l-0.146-0.779c-0.199,0.293-0.436,0.517-0.709,0.671s-0.586,0.231-0.938,0.231
		c-0.777,0-1.381-0.285-1.813-0.855s-0.648-1.324-0.648-2.262V8.539z M82.652,8.662c0,0.555,0.094,0.991,0.281,1.31
		s0.492,0.478,0.914,0.478c0.246,0,0.461-0.05,0.645-0.149s0.334-0.245,0.451-0.437V7.162c-0.117-0.199-0.266-0.354-0.447-0.466
		s-0.395-0.167-0.637-0.167c-0.418,0-0.723,0.186-0.916,0.557s-0.291,0.855-0.291,1.453V8.662z"/>
	<path fill="#030303" d="M90.732,11.779c-0.945,0-1.684-0.29-2.215-0.87s-0.797-1.327-0.797-2.241V8.433
		c0-0.949,0.258-1.727,0.773-2.332s1.225-0.906,2.127-0.902c0.852,0,1.506,0.261,1.961,0.782s0.682,1.224,0.682,2.106v0.885h-3.779
		l-0.018,0.035c0.027,0.434,0.16,0.785,0.396,1.055s0.586,0.404,1.051,0.404c0.383,0,0.709-0.039,0.977-0.117
		s0.543-0.197,0.828-0.357l0.463,1.055c-0.254,0.207-0.598,0.381-1.031,0.521S91.244,11.779,90.732,11.779z M90.621,6.517
		c-0.344,0-0.607,0.118-0.793,0.354s-0.299,0.55-0.338,0.94l0.012,0.029h2.086V7.712c0-0.371-0.076-0.663-0.229-0.876
		S90.961,6.517,90.621,6.517z"/>
	<path fill="#030303" d="M95.824,5.316L95.9,6.224c0.211-0.324,0.471-0.576,0.779-0.756s0.654-0.27,1.037-0.27
		c0.641,0,1.141,0.206,1.5,0.618s0.539,1.063,0.539,1.954v3.885h-1.717V7.777c0-0.453-0.078-0.774-0.236-0.964
		s-0.396-0.284-0.713-0.284c-0.254,0-0.477,0.048-0.67,0.144S96.066,6.9,95.941,7.068v4.588H94.23v-6.34H95.824z"/>
</g>
<g enable-background="new    ">
	<path fill="#030303" d="M60.861,116.589V120H59.15v-8.531h2.953c0.973,0,1.732,0.222,2.281,0.665s0.824,1.062,0.824,1.854
		c0,0.438-0.117,0.815-0.35,1.134s-0.57,0.575-1.016,0.771c0.504,0.148,0.865,0.396,1.086,0.744s0.332,0.777,0.332,1.289v0.627
		c0,0.238,0.031,0.487,0.096,0.747s0.176,0.452,0.332,0.577V120h-1.764c-0.156-0.125-0.258-0.332-0.303-0.621
		s-0.066-0.568-0.066-0.838v-0.604c0-0.426-0.117-0.757-0.35-0.993s-0.561-0.354-0.986-0.354H60.861z M60.861,115.271h1.213
		c0.48,0,0.838-0.102,1.072-0.305s0.352-0.504,0.352-0.902c0-0.391-0.119-0.701-0.355-0.932s-0.582-0.346-1.039-0.346h-1.242
		V115.271z"/>
	<path fill="#030303" d="M66.404,116.771c0-0.945,0.264-1.72,0.791-2.323s1.258-0.905,2.191-0.905c0.938,0,1.672,0.301,2.203,0.902
		s0.797,1.377,0.797,2.326v0.123c0,0.953-0.266,1.729-0.795,2.329s-1.26,0.899-2.193,0.899c-0.938,0-1.672-0.3-2.201-0.899
		s-0.793-1.376-0.793-2.329V116.771z M68.109,116.894c0,0.578,0.102,1.042,0.305,1.392s0.531,0.524,0.984,0.524
		c0.441,0,0.764-0.176,0.969-0.527s0.309-0.814,0.309-1.389v-0.123c0-0.563-0.104-1.021-0.311-1.377s-0.533-0.533-0.979-0.533
		c-0.441,0-0.766,0.179-0.971,0.536s-0.307,0.815-0.307,1.374V116.894z"/>
	<path fill="#030303" d="M75.029,113.66l0.07,0.838c0.203-0.305,0.457-0.54,0.764-0.706s0.662-0.249,1.064-0.249
		c0.406,0,0.754,0.09,1.043,0.27s0.508,0.451,0.656,0.814c0.195-0.34,0.449-0.605,0.762-0.797s0.68-0.287,1.102-0.287
		c0.625,0,1.117,0.222,1.479,0.665s0.543,1.12,0.543,2.03V120h-1.711v-3.768c0-0.508-0.078-0.861-0.234-1.061
		s-0.389-0.299-0.697-0.299c-0.242,0-0.453,0.054-0.631,0.161s-0.318,0.257-0.424,0.448c0,0.074,0.002,0.138,0.006,0.19
		s0.006,0.106,0.006,0.161V120h-1.705v-3.768c0-0.496-0.078-0.847-0.234-1.052s-0.391-0.308-0.703-0.308
		c-0.23,0-0.434,0.044-0.607,0.132s-0.316,0.212-0.43,0.372V120h-1.705v-6.34H75.029z"/>
	<path fill="#030303" d="M87.563,120c-0.063-0.145-0.117-0.297-0.162-0.457s-0.076-0.324-0.096-0.492
		c-0.176,0.309-0.408,0.564-0.697,0.768s-0.633,0.305-1.031,0.305c-0.664,0-1.176-0.171-1.535-0.513s-0.539-0.808-0.539-1.397
		c0-0.621,0.238-1.103,0.717-1.444s1.178-0.513,2.096-0.513h0.961v-0.504c0-0.305-0.08-0.541-0.24-0.709s-0.398-0.252-0.715-0.252
		c-0.277,0-0.492,0.067-0.643,0.202s-0.225,0.319-0.225,0.554h-1.646l-0.012-0.035c-0.027-0.535,0.205-0.997,0.699-1.386
		s1.141-0.583,1.938-0.583c0.762,0,1.377,0.191,1.848,0.574s0.707,0.932,0.707,1.646v2.619c0,0.297,0.021,0.576,0.066,0.838
		s0.117,0.521,0.215,0.779H87.563z M85.998,118.857c0.297,0,0.563-0.074,0.797-0.223s0.395-0.32,0.48-0.516v-0.896h-0.961
		c-0.363,0-0.639,0.09-0.824,0.27s-0.277,0.4-0.277,0.662c0,0.215,0.068,0.386,0.207,0.513S85.752,118.857,85.998,118.857z"/>
	<path fill="#030303" d="M91.834,113.66l0.076,0.908c0.211-0.324,0.471-0.576,0.779-0.756s0.654-0.27,1.037-0.27
		c0.641,0,1.141,0.206,1.5,0.618s0.539,1.063,0.539,1.954V120h-1.717v-3.879c0-0.453-0.08-0.774-0.238-0.964
		s-0.395-0.284-0.711-0.284c-0.254,0-0.479,0.048-0.672,0.144s-0.352,0.228-0.477,0.396V120H90.24v-6.34H91.834z"/>
	<path fill="#030303" d="M98.842,112.142h-1.711v-1.283h1.711V112.142z M98.842,120h-1.711v-6.34h1.711V120z"/>
	<path fill="#030303" d="M103.986,120c-0.063-0.145-0.117-0.297-0.162-0.457s-0.076-0.324-0.096-0.492
		c-0.176,0.309-0.408,0.564-0.697,0.768s-0.633,0.305-1.031,0.305c-0.664,0-1.176-0.171-1.535-0.513s-0.539-0.808-0.539-1.397
		c0-0.621,0.238-1.103,0.717-1.444s1.178-0.513,2.096-0.513h0.961v-0.504c0-0.305-0.08-0.541-0.24-0.709s-0.398-0.252-0.715-0.252
		c-0.277,0-0.492,0.067-0.643,0.202s-0.225,0.319-0.225,0.554h-1.646l-0.012-0.035c-0.027-0.535,0.205-0.997,0.699-1.386
		s1.141-0.583,1.938-0.583c0.762,0,1.377,0.191,1.848,0.574s0.707,0.932,0.707,1.646v2.619c0,0.297,0.021,0.576,0.066,0.838
		s0.117,0.521,0.215,0.779H103.986z M102.422,118.857c0.297,0,0.563-0.074,0.797-0.223s0.395-0.32,0.48-0.516v-0.896h-0.961
		c-0.363,0-0.639,0.09-0.824,0.27s-0.277,0.4-0.277,0.662c0,0.215,0.068,0.386,0.207,0.513S102.176,118.857,102.422,118.857z"/>
</g>
<g enable-background="new    ">
	<path fill="#030303" d="M26.996,11.187c0.625,0,1.123-0.207,1.494-0.621s0.557-0.992,0.557-1.734V7.589
		c-0.207,0.348-0.483,0.615-0.829,0.803s-0.728,0.281-1.146,0.281c-0.773,0-1.394-0.257-1.86-0.771s-0.7-1.183-0.7-2.007
		c0-0.832,0.244-1.522,0.732-2.071s1.1-0.823,1.834-0.823c0.805,0,1.455,0.264,1.951,0.791s0.744,1.277,0.744,2.25V8.82
		c0,0.926-0.257,1.65-0.771,2.174s-1.183,0.785-2.007,0.785c-0.293,0-0.589-0.031-0.888-0.094s-0.589-0.154-0.87-0.275l0.129-0.568
		c0.258,0.125,0.511,0.214,0.759,0.267S26.664,11.187,26.996,11.187z M27.072,8.082c0.496,0,0.914-0.125,1.254-0.375
		s0.58-0.559,0.721-0.926V5.966c0-0.758-0.176-1.342-0.527-1.752s-0.822-0.615-1.412-0.615c-0.551,0-1,0.221-1.348,0.662
		s-0.521,0.986-0.521,1.635c0,0.625,0.163,1.146,0.489,1.562S26.501,8.082,27.072,8.082z"/>
	<path fill="#030303" d="M35.65,8.908h1.336V9.5H35.65v2.156h-0.697V9.5h-3.92V9.101l3.85-5.977h0.768V8.908z M31.865,8.908h3.088
		V4.044l-0.035-0.012l-0.299,0.639L31.865,8.908z"/>
	<path fill="#030303" d="M37.906,4.765c0-0.496,0.153-0.914,0.46-1.254s0.71-0.51,1.21-0.51c0.496,0,0.897,0.17,1.204,0.51
		s0.46,0.758,0.46,1.254v0.451c0,0.492-0.152,0.907-0.457,1.245s-0.703,0.507-1.195,0.507c-0.504,0-0.91-0.169-1.219-0.507
		s-0.463-0.753-0.463-1.245V4.765z M38.468,5.216c0,0.344,0.097,0.637,0.29,0.879s0.47,0.363,0.829,0.363
		c0.348,0,0.616-0.121,0.806-0.363s0.284-0.535,0.284-0.879V4.765c0-0.344-0.096-0.639-0.287-0.885s-0.463-0.369-0.814-0.369
		s-0.624,0.123-0.817,0.369s-0.29,0.541-0.29,0.885V5.216z M39.757,10.947l-0.434-0.281l4.166-6.668l0.434,0.281L39.757,10.947z
		 M42.195,9.564c0-0.492,0.153-0.908,0.46-1.248s0.71-0.51,1.21-0.51c0.496,0,0.898,0.17,1.207,0.51s0.463,0.756,0.463,1.248v0.457
		c0,0.496-0.153,0.913-0.46,1.251s-0.706,0.507-1.198,0.507c-0.504,0-0.91-0.169-1.219-0.507s-0.463-0.755-0.463-1.251V9.564z
		 M42.763,10.021c0,0.348,0.096,0.643,0.287,0.885s0.467,0.363,0.826,0.363c0.348,0,0.616-0.121,0.806-0.363
		s0.284-0.537,0.284-0.885V9.564c0-0.355-0.096-0.652-0.287-0.891s-0.463-0.357-0.814-0.357s-0.623,0.12-0.814,0.36
		s-0.287,0.536-0.287,0.888V10.021z"/>
</g>
<g enable-background="new    ">
	<path fill="#030303" d="M27.523,115.324c0.621,0,1.092-0.154,1.412-0.463s0.48-0.707,0.48-1.195c0-0.508-0.148-0.922-0.445-1.242
		s-0.736-0.48-1.318-0.48c-0.547,0-1,0.163-1.359,0.489s-0.539,0.749-0.539,1.269h-0.656l-0.012-0.035
		c-0.02-0.664,0.217-1.217,0.709-1.658s1.111-0.662,1.857-0.662c0.758,0,1.358,0.205,1.802,0.615s0.665,0.986,0.665,1.729
		c0,0.422-0.122,0.805-0.366,1.148s-0.579,0.6-1.005,0.768c0.492,0.156,0.87,0.412,1.134,0.768s0.396,0.793,0.396,1.313
		c0,0.762-0.24,1.358-0.721,1.79s-1.105,0.647-1.875,0.647c-0.723,0-1.362-0.214-1.919-0.642s-0.825-1.015-0.806-1.761l0.012-0.035
		h0.656c0,0.527,0.193,0.967,0.58,1.318s0.879,0.527,1.477,0.527c0.594,0,1.059-0.164,1.395-0.492s0.504-0.771,0.504-1.33
		c0-0.602-0.179-1.05-0.536-1.345s-0.864-0.442-1.521-0.442h-0.785v-0.598H27.523z"/>
	<path fill="#030303" d="M36.781,113.613c0,0.461-0.134,0.865-0.401,1.213s-0.622,0.6-1.063,0.756
		c0.508,0.16,0.919,0.428,1.233,0.803s0.472,0.811,0.472,1.307c0,0.766-0.255,1.362-0.765,1.79s-1.149,0.642-1.919,0.642
		c-0.82,0-1.493-0.213-2.019-0.639s-0.788-1.023-0.788-1.793c0-0.5,0.16-0.938,0.48-1.313s0.746-0.643,1.277-0.803
		c-0.465-0.156-0.834-0.407-1.107-0.753s-0.41-0.749-0.41-1.21c0-0.727,0.238-1.286,0.715-1.679s1.09-0.589,1.84-0.589
		c0.707,0,1.293,0.196,1.758,0.589S36.781,112.886,36.781,113.613z M36.318,117.697c0-0.535-0.193-0.973-0.58-1.313
		s-0.857-0.51-1.412-0.51c-0.598,0-1.097,0.17-1.497,0.51s-0.601,0.777-0.601,1.313c0,0.559,0.199,1.004,0.598,1.336
		s0.902,0.498,1.512,0.498c0.559,0,1.028-0.167,1.409-0.501S36.318,118.251,36.318,117.697z M36.078,113.607
		c0-0.488-0.17-0.888-0.51-1.198s-0.754-0.466-1.242-0.466c-0.539,0-0.983,0.149-1.333,0.448s-0.524,0.704-0.524,1.216
		c0,0.504,0.178,0.909,0.533,1.216s0.801,0.46,1.336,0.46c0.488,0,0.9-0.154,1.236-0.463S36.078,114.107,36.078,113.607z"/>
	<path fill="#030303" d="M39.183,119.894l-0.621,1.617h-0.48l0.404-1.635v-0.979h0.697V119.894z"/>
	<path fill="#030303" d="M43.56,111.345c0.316,0,0.632,0.033,0.946,0.1s0.587,0.162,0.817,0.287l-0.182,0.574
		c-0.234-0.121-0.474-0.212-0.718-0.272s-0.532-0.091-0.864-0.091c-0.598,0-1.091,0.238-1.479,0.715s-0.583,1.096-0.583,1.857v1.172
		c0.234-0.328,0.537-0.591,0.908-0.788s0.781-0.296,1.23-0.296c0.754,0,1.342,0.246,1.764,0.738s0.633,1.158,0.633,1.998
		c0,0.832-0.237,1.504-0.712,2.016s-1.099,0.768-1.872,0.768c-0.766,0-1.398-0.291-1.898-0.873s-0.75-1.369-0.75-2.361v-2.309
		c0-0.945,0.265-1.721,0.794-2.326S42.779,111.345,43.56,111.345z M43.443,115.177c-0.461,0-0.868,0.124-1.222,0.372
		s-0.595,0.563-0.724,0.946v0.445c0,0.785,0.184,1.413,0.551,1.884s0.834,0.706,1.4,0.706c0.578,0,1.036-0.207,1.374-0.621
		s0.507-0.938,0.507-1.57c0-0.688-0.159-1.22-0.478-1.597S44.064,115.177,43.443,115.177z"/>
	<path fill="#030303" d="M47.187,113.109c0-0.496,0.153-0.914,0.46-1.254s0.71-0.51,1.21-0.51c0.496,0,0.897,0.17,1.204,0.51
		s0.46,0.758,0.46,1.254v0.451c0,0.492-0.152,0.907-0.457,1.245s-0.703,0.507-1.195,0.507c-0.504,0-0.91-0.169-1.219-0.507
		s-0.463-0.753-0.463-1.245V113.109z M47.75,113.56c0,0.344,0.097,0.637,0.29,0.879s0.47,0.363,0.829,0.363
		c0.348,0,0.616-0.121,0.806-0.363s0.284-0.535,0.284-0.879v-0.451c0-0.344-0.096-0.639-0.287-0.885s-0.463-0.369-0.814-0.369
		s-0.624,0.123-0.817,0.369s-0.29,0.541-0.29,0.885V113.56z M49.039,119.291l-0.434-0.281l4.166-6.668l0.434,0.281L49.039,119.291z
		 M51.476,117.908c0-0.492,0.153-0.908,0.46-1.248s0.71-0.51,1.21-0.51c0.496,0,0.898,0.17,1.208,0.51
		c0.309,0.34,0.463,0.756,0.463,1.248v0.457c0,0.496-0.154,0.913-0.461,1.251c-0.306,0.338-0.706,0.507-1.198,0.507
		c-0.504,0-0.91-0.169-1.219-0.507s-0.463-0.755-0.463-1.251V117.908z M52.044,118.365c0,0.348,0.096,0.643,0.287,0.885
		s0.467,0.363,0.826,0.363c0.348,0,0.616-0.121,0.806-0.363s0.284-0.537,0.284-0.885v-0.457c0-0.355-0.096-0.652-0.287-0.891
		s-0.463-0.357-0.814-0.357s-0.623,0.12-0.814,0.36s-0.287,0.536-0.287,0.888V118.365z"/>
</g>
<g enable-background="new    ">
	<path fill="#030303" d="M60.979,94h-1.711v-8.531h1.711V94z"/>
	<path fill="#030303" d="M64.594,86.107v1.553h1.072v1.201h-1.072v3.229c0,0.246,0.051,0.422,0.154,0.527s0.24,0.158,0.408,0.158
		c0.09,0,0.168-0.005,0.234-0.015s0.143-0.026,0.229-0.05l0.141,1.236c-0.172,0.059-0.34,0.103-0.502,0.132
		s-0.338,0.044-0.529,0.044c-0.59,0-1.045-0.162-1.363-0.486s-0.477-0.838-0.477-1.541v-3.234h-0.926V87.66h0.926v-1.553H64.594z"/>
	<path fill="#030303" d="M70.459,94c-0.063-0.145-0.117-0.297-0.162-0.457s-0.076-0.324-0.096-0.492
		c-0.176,0.309-0.408,0.564-0.697,0.768s-0.633,0.305-1.031,0.305c-0.664,0-1.176-0.171-1.535-0.513s-0.539-0.808-0.539-1.397
		c0-0.621,0.238-1.103,0.717-1.444s1.178-0.513,2.096-0.513h0.961v-0.504c0-0.305-0.08-0.541-0.24-0.709s-0.398-0.252-0.715-0.252
		c-0.277,0-0.492,0.067-0.643,0.202s-0.225,0.319-0.225,0.554h-1.646l-0.012-0.035c-0.027-0.535,0.205-0.997,0.699-1.386
		s1.141-0.583,1.938-0.583c0.762,0,1.377,0.191,1.848,0.574s0.707,0.932,0.707,1.646v2.619c0,0.297,0.021,0.576,0.066,0.838
		s0.117,0.521,0.215,0.779H70.459z M68.895,92.857c0.297,0,0.563-0.074,0.797-0.223s0.395-0.32,0.48-0.516v-0.896h-0.961
		c-0.363,0-0.639,0.09-0.824,0.27s-0.277,0.4-0.277,0.662c0,0.215,0.068,0.386,0.207,0.513S68.648,92.857,68.895,92.857z"/>
	<path fill="#030303" d="M74.965,94h-1.711v-9.141h1.711V94z"/>
	<path fill="#030303" d="M78.656,91.339l0.07,0.352h0.035l1.213-4.031h1.84l-2.572,7.289c-0.18,0.453-0.424,0.835-0.732,1.146
		s-0.771,0.466-1.389,0.466c-0.145,0-0.279-0.012-0.402-0.035s-0.271-0.057-0.447-0.1l0.199-1.248
		c0.051,0.008,0.105,0.016,0.164,0.023s0.111,0.012,0.158,0.012c0.281,0,0.498-0.069,0.65-0.208s0.27-0.312,0.352-0.519l0.199-0.492
		l-2.25-6.334h1.84L78.656,91.339z"/>
</g>
<g enable-background="new    ">
	<path fill="#030303" d="M29.333,91.251h1.336v0.592h-1.336V94h-0.697v-2.156h-3.92v-0.398l3.85-5.977h0.768V91.251z M25.548,91.251
		h3.088v-4.863l-0.035-0.012l-0.299,0.639L25.548,91.251z"/>
	<path fill="#030303" d="M32.041,90.162l0.469-4.693h4.148v0.65h-3.545l-0.316,3.07c0.215-0.191,0.452-0.342,0.712-0.451
		s0.608-0.17,1.046-0.182c0.73-0.012,1.317,0.229,1.761,0.721s0.665,1.16,0.665,2.004c0,0.863-0.217,1.553-0.65,2.068
		s-1.084,0.773-1.951,0.773c-0.703,0-1.289-0.196-1.758-0.589s-0.693-0.974-0.674-1.743l0.012-0.035h0.633
		c0,0.574,0.162,1.014,0.486,1.318s0.758,0.457,1.301,0.457c0.637,0,1.112-0.191,1.427-0.574s0.472-0.938,0.472-1.664
		c0-0.637-0.157-1.143-0.472-1.518s-0.757-0.563-1.327-0.563c-0.543,0-0.958,0.087-1.245,0.261s-0.495,0.437-0.624,0.788
		L32.041,90.162z"/>
	<path fill="#030303" d="M39.183,93.894l-0.621,1.617h-0.48l0.404-1.635v-0.979h0.697V93.894z"/>
	<path fill="#030303" d="M45.98,94h-5.191V93.46l2.807-3.275c0.5-0.59,0.846-1.073,1.037-1.45s0.287-0.749,0.287-1.116
		c0-0.52-0.14-0.929-0.419-1.228s-0.692-0.448-1.239-0.448c-0.609,0-1.078,0.181-1.406,0.542s-0.492,0.823-0.492,1.386h-0.656
		l-0.012-0.035c-0.02-0.695,0.205-1.284,0.674-1.767s1.1-0.724,1.893-0.724c0.73,0,1.307,0.205,1.729,0.615s0.633,0.965,0.633,1.664
		c0,0.461-0.139,0.922-0.416,1.383s-0.686,1.02-1.225,1.676l-2.309,2.695l0.012,0.029h4.295V94z"/>
	<path fill="#030303" d="M47.187,87.109c0-0.496,0.153-0.914,0.46-1.254s0.71-0.51,1.21-0.51c0.496,0,0.897,0.17,1.204,0.51
		s0.46,0.758,0.46,1.254v0.451c0,0.492-0.152,0.907-0.457,1.245s-0.703,0.507-1.195,0.507c-0.504,0-0.91-0.169-1.219-0.507
		s-0.463-0.753-0.463-1.245V87.109z M47.75,87.56c0,0.344,0.097,0.637,0.29,0.879s0.47,0.363,0.829,0.363
		c0.348,0,0.616-0.121,0.806-0.363s0.284-0.535,0.284-0.879v-0.451c0-0.344-0.096-0.639-0.287-0.885s-0.463-0.369-0.814-0.369
		s-0.624,0.123-0.817,0.369s-0.29,0.541-0.29,0.885V87.56z M49.039,93.291l-0.434-0.281l4.166-6.668l0.434,0.281L49.039,93.291z
		 M51.476,91.908c0-0.492,0.153-0.908,0.46-1.248s0.71-0.51,1.21-0.51c0.496,0,0.898,0.17,1.208,0.51
		c0.309,0.34,0.463,0.756,0.463,1.248v0.457c0,0.496-0.154,0.913-0.461,1.251c-0.306,0.338-0.706,0.507-1.198,0.507
		c-0.504,0-0.91-0.169-1.219-0.507s-0.463-0.755-0.463-1.251V91.908z M52.044,92.365c0,0.348,0.096,0.643,0.287,0.885
		s0.467,0.363,0.826,0.363c0.348,0,0.616-0.121,0.806-0.363s0.284-0.537,0.284-0.885v-0.457c0-0.355-0.096-0.652-0.287-0.891
		s-0.463-0.357-0.814-0.357s-0.623,0.12-0.814,0.36s-0.287,0.536-0.287,0.888V92.365z"/>
</g>
</svg>
