<?xml version="1.0" encoding="utf-8"?>
<!-- Generator: Adobe Illustrator 16.0.0, SVG Export Plug-In . SVG Version: 6.00 Build 0)  -->
<!DOCTYPE svg PUBLIC "-//W3C//DTD SVG 1.1//EN" "http://www.w3.org/Graphics/SVG/1.1/DTD/svg11.dtd">
<svg version="1.1" id="Layer_1" xmlns="http://www.w3.org/2000/svg" xmlns:xlink="http://www.w3.org/1999/xlink" x="0px" y="0px"
	 width="402.353px" height="173.404px" viewBox="0 0 402.353 173.404" enable-background="new 0 0 402.353 173.404"
	 xml:space="preserve">
<g>
	<path fill="#C8C8C8" d="M119.766,32.395c-18.011,21.073-30.261,40.05-36.75,56.93c-6.49,16.881-9.734,36.222-9.734,58.023v19.688
		H41.344v-19.688c0-22.166,4.064-42.383,12.195-60.648c8.13-18.266,19.961-36.367,35.492-54.305H7.766V7.786h112V32.395z"/>
	<path fill="#C8C8C8" d="M181.104,144.833c7.875,0,14.328-2.971,19.359-8.914c5.031-5.942,7.547-14.236,7.547-24.883v-10.281
		c-3.573,4.594-7.803,8.058-12.688,10.391c-4.886,2.334-10.136,3.5-15.75,3.5c-14.803,0-26.414-4.813-34.836-14.438
		s-12.633-22.713-12.633-39.266c0-15.969,4.994-29.203,14.984-39.703c9.989-10.5,22.75-15.75,38.281-15.75
		c16.041,0,29.13,5.396,39.266,16.188c10.135,10.792,15.203,25.74,15.203,44.844v42.875c0,18.375-5.523,32.959-16.57,43.75
		c-11.047,10.792-25.102,16.188-42.164,16.188c-5.542,0-11.248-0.602-17.117-1.805c-5.87-1.203-11.394-2.898-16.57-5.086
		l5.359-23.078c4.594,1.896,9.078,3.281,13.453,4.156S175.562,144.833,181.104,144.833z M184.932,91.239
		c5.177,0,9.734-1.057,13.672-3.172c3.938-2.114,7.072-4.958,9.406-8.531V60.942c0-9.989-2.042-17.627-6.125-22.914
		c-4.084-5.286-9.553-7.93-16.406-7.93c-6.417,0-11.594,2.972-15.531,8.914c-3.938,5.943-5.906,13.253-5.906,21.93
		c0,9.115,1.786,16.443,5.359,21.984C172.973,88.468,178.15,91.239,184.932,91.239z"/>
	<path fill="#C8C8C8" d="M256.222,38.411c0-9.406,3.044-17.244,9.133-23.516c6.088-6.271,14.564-9.406,25.43-9.406
		c11.01,0,19.541,3.117,25.594,9.352c6.052,6.234,9.078,14.092,9.078,23.57v8.422c0,9.406-3.026,17.209-9.078,23.406
		c-6.053,6.198-14.511,9.297-25.375,9.297c-10.938,0-19.469-3.099-25.594-9.297c-6.125-6.197-9.188-14-9.188-23.406V38.411z
		 M277.44,46.833c0,4.229,1.166,7.784,3.5,10.664c2.333,2.881,5.688,4.32,10.063,4.32c4.229,0,7.492-1.439,9.789-4.32
		c2.297-2.88,3.445-6.435,3.445-10.664v-8.422c0-4.229-1.167-7.82-3.5-10.773c-2.334-2.953-5.651-4.43-9.953-4.43
		c-4.303,0-7.602,1.477-9.898,4.43s-3.445,6.545-3.445,10.773V46.833z M296.253,155.114l-15.531-8.203l77.766-124.469l15.531,8.203
		L296.253,155.114z M332.347,127.989c0-9.333,3.063-17.135,9.188-23.406c6.125-6.271,14.619-9.406,25.484-9.406
		c10.938,0,19.45,3.117,25.539,9.352c6.088,6.234,9.133,14.055,9.133,23.461v8.422c0,9.479-3.026,17.318-9.078,23.516
		c-6.053,6.198-14.511,9.297-25.375,9.297c-10.938,0-19.487-3.117-25.648-9.352c-6.162-6.234-9.242-14.055-9.242-23.461V127.989z
		 M353.565,136.411c0,4.156,1.258,7.711,3.773,10.664s5.814,4.43,9.898,4.43c4.739,0,8.13-1.367,10.172-4.102
		c2.041-2.734,3.063-6.398,3.063-10.992v-8.422c0-4.156-1.167-7.711-3.5-10.664c-2.334-2.953-5.651-4.43-9.953-4.43
		c-4.375,0-7.711,1.477-10.008,4.43s-3.445,6.508-3.445,10.664V136.411z"/>
</g>
<g>
	<path fill="#1B181C" d="M19.822,143.917c0,1.576-0.495,2.876-1.485,3.898s-2.279,1.533-3.867,1.533
		c-1.582,0-2.865-0.512-3.85-1.537s-1.477-2.324-1.477-3.895v-2.303c0-1.564,0.491-2.86,1.472-3.889s2.26-1.543,3.836-1.543
		c1.588,0,2.88,0.515,3.876,1.543s1.494,2.324,1.494,3.889V143.917z M17.265,141.596c0-0.996-0.249-1.813-0.747-2.451
		s-1.187-0.959-2.065-0.959c-0.867,0-1.542,0.32-2.026,0.959s-0.725,1.455-0.725,2.451v2.32c0,1.014,0.243,1.84,0.729,2.479
		s1.166,0.959,2.039,0.959c0.879,0,1.564-0.32,2.057-0.959s0.738-1.465,0.738-2.479V141.596z"/>
	<path fill="#1B181C" d="M29.332,143.846h-4.913v5.318h-2.566v-12.797h8.376v1.977h-5.81v3.525h4.913V143.846z"/>
	<path fill="#1B181C" d="M45.267,138.344H41.61v10.82h-2.566v-10.82H35.44v-1.977h9.826V138.344z"/>
	<path fill="#1B181C" d="M57.018,149.165h-2.566v-5.318h-5.212v5.318h-2.566v-12.797h2.566v5.502h5.212v-5.502h2.566V149.165z"/>
	<path fill="#1B181C" d="M66.686,143.54h-4.746v3.656h5.643v1.969h-8.209v-12.797h8.191v1.977h-5.625v3.217h4.746V143.54z"/>
	<path fill="#1B181C" d="M76.433,144.524v4.641h-2.566v-12.797h4.896c1.471,0,2.628,0.375,3.472,1.125s1.266,1.736,1.266,2.961
		s-0.422,2.209-1.266,2.953s-2.001,1.117-3.472,1.117H76.433z M76.433,142.545h2.329c0.715,0,1.257-0.194,1.626-0.584
		s0.554-0.887,0.554-1.49c0-0.615-0.183-1.123-0.549-1.524s-0.91-0.603-1.63-0.603h-2.329V142.545z"/>
	<path fill="#1B181C" d="M87.902,144.049v5.115h-2.566v-12.797h4.43c1.459,0,2.6,0.332,3.423,0.997s1.235,1.593,1.235,2.782
		c0,0.656-0.174,1.223-0.523,1.7s-0.857,0.862-1.525,1.155c0.756,0.223,1.299,0.596,1.63,1.117s0.497,1.166,0.497,1.934v0.939
		c0,0.357,0.048,0.731,0.145,1.121s0.262,0.678,0.497,0.865v0.186h-2.646c-0.234-0.188-0.385-0.498-0.453-0.932
		s-0.101-0.854-0.101-1.258v-0.904c0-0.639-0.174-1.136-0.523-1.49s-0.842-0.531-1.481-0.531H87.902z M87.902,142.071h1.819
		c0.721,0,1.257-0.152,1.608-0.457s0.527-0.756,0.527-1.354c0-0.586-0.177-1.051-0.532-1.396s-0.875-0.52-1.56-0.52h-1.863V142.071z
		"/>
	<path fill="#1B181C" d="M107.159,143.917c0,1.576-0.495,2.876-1.485,3.898s-2.279,1.533-3.867,1.533
		c-1.582,0-2.865-0.512-3.85-1.537s-1.477-2.324-1.477-3.895v-2.303c0-1.564,0.491-2.86,1.472-3.889s2.26-1.543,3.836-1.543
		c1.588,0,2.88,0.515,3.876,1.543s1.494,2.324,1.494,3.889V143.917z M104.602,141.596c0-0.996-0.249-1.813-0.747-2.451
		s-1.187-0.959-2.065-0.959c-0.867,0-1.542,0.32-2.026,0.959s-0.725,1.455-0.725,2.451v2.32c0,1.014,0.243,1.84,0.729,2.479
		s1.166,0.959,2.039,0.959c0.879,0,1.564-0.32,2.057-0.959s0.738-1.465,0.738-2.479V141.596z"/>
	<path fill="#1B181C" d="M118.787,144.928l0.018,0.053c0.023,1.365-0.393,2.434-1.248,3.207s-2.036,1.16-3.542,1.16
		c-1.535,0-2.774-0.493-3.718-1.48s-1.415-2.264-1.415-3.828V141.5c0-1.559,0.46-2.835,1.38-3.828s2.127-1.49,3.621-1.49
		c1.559,0,2.777,0.381,3.656,1.143s1.307,1.834,1.283,3.217l-0.018,0.053h-2.496c0-0.82-0.198-1.431-0.593-1.832
		s-1.006-0.602-1.833-0.602c-0.768,0-1.367,0.309-1.797,0.927s-0.646,1.417-0.646,2.396v2.557c0,0.984,0.227,1.787,0.681,2.408
		s1.085,0.932,1.894,0.932c0.768,0,1.34-0.2,1.718-0.602s0.567-1.018,0.567-1.85H118.787z"/>
	<path fill="#1B181C" d="M127.954,143.54h-4.746v3.656h5.643v1.969h-8.209v-12.797h8.191v1.977h-5.625v3.217h4.746V143.54z"/>
	<path fill="#1B181C" d="M137.965,143.54h-4.746v3.656h5.643v1.969h-8.209v-12.797h8.191v1.977h-5.625v3.217h4.746V143.54z"/>
	<path fill="#1B181C" d="M140.663,149.165v-12.797h4.465c1.564,0,2.854,0.499,3.867,1.498s1.521,2.281,1.521,3.846v2.117
		c0,1.57-0.507,2.853-1.521,3.846s-2.303,1.49-3.867,1.49H140.663z M143.229,138.344v8.852h1.898c0.844,0,1.523-0.315,2.039-0.945
		s0.773-1.438,0.773-2.422v-2.135c0-0.979-0.258-1.781-0.773-2.408s-1.195-0.941-2.039-0.941H143.229z"/>
	<path fill="#1B181C" d="M155.314,149.165h-2.566v-12.797h2.566V149.165z"/>
	<path fill="#1B181C" d="M168.199,149.165h-2.566l-5.159-8.631l-0.053,0.008v8.623h-2.566v-12.797h2.566l5.159,8.621l0.053-0.008
		v-8.613h2.566V149.165z"/>
	<path fill="#1B181C" d="M180.363,147.415c-0.398,0.521-0.993,0.975-1.784,1.358s-1.811,0.575-3.059,0.575
		c-1.547,0-2.813-0.486-3.797-1.459s-1.477-2.234-1.477-3.787v-2.672c0-1.547,0.478-2.809,1.433-3.784s2.183-1.464,3.683-1.464
		c1.564,0,2.763,0.371,3.595,1.112s1.233,1.729,1.204,2.966l-0.018,0.053h-2.417c0-0.68-0.196-1.208-0.589-1.586
		s-0.964-0.566-1.714-0.566c-0.785,0-1.418,0.303-1.898,0.909s-0.721,1.388-0.721,2.343v2.689c0,0.967,0.246,1.754,0.738,2.363
		s1.151,0.914,1.978,0.914c0.609,0,1.091-0.061,1.446-0.184s0.628-0.279,0.822-0.467v-2.479h-2.461v-1.775h5.036V147.415z"/>
	<path fill="#1B181C" d="M189.214,145.825c0-0.492-0.171-0.889-0.514-1.188s-0.945-0.58-1.806-0.844
		c-1.477-0.445-2.597-0.969-3.362-1.572s-1.147-1.428-1.147-2.471c0-1.049,0.431-1.905,1.292-2.57s1.96-0.998,3.296-0.998
		c1.418,0,2.559,0.357,3.423,1.072s1.282,1.652,1.252,2.813l-0.018,0.053h-2.487c0-0.639-0.193-1.129-0.58-1.472
		s-0.929-0.515-1.626-0.515c-0.633,0-1.122,0.152-1.468,0.457s-0.519,0.695-0.519,1.17c0,0.434,0.188,0.789,0.563,1.067
		s1.022,0.573,1.942,0.884c1.406,0.398,2.479,0.918,3.217,1.56s1.107,1.487,1.107,2.536c0,1.096-0.428,1.959-1.283,2.592
		s-1.986,0.949-3.393,0.949c-1.377,0-2.559-0.342-3.546-1.027s-1.466-1.709-1.437-3.068l0.018-0.053h2.487
		c0,0.756,0.223,1.313,0.668,1.67s1.049,0.537,1.811,0.537c0.686,0,1.208-0.145,1.569-0.432S189.214,146.305,189.214,145.825z"/>
	<path fill="#1B181C" d="M207.75,144.928l0.018,0.053c0.023,1.365-0.393,2.434-1.248,3.207s-2.036,1.16-3.542,1.16
		c-1.535,0-2.774-0.493-3.718-1.48s-1.415-2.264-1.415-3.828V141.5c0-1.559,0.46-2.835,1.38-3.828s2.127-1.49,3.621-1.49
		c1.559,0,2.777,0.381,3.656,1.143s1.307,1.834,1.283,3.217l-0.018,0.053h-2.496c0-0.82-0.198-1.431-0.593-1.832
		s-1.006-0.602-1.833-0.602c-0.768,0-1.367,0.309-1.797,0.927s-0.646,1.417-0.646,2.396v2.557c0,0.984,0.227,1.787,0.681,2.408
		s1.085,0.932,1.894,0.932c0.768,0,1.34-0.2,1.718-0.602s0.567-1.018,0.567-1.85H207.75z"/>
	<path fill="#1B181C" d="M216.275,146.405h-4.148l-0.861,2.76h-2.681l4.315-12.797h2.628l4.298,12.797h-2.681L216.275,146.405z
		 M212.76,144.391h2.892l-1.415-4.508h-0.053L212.76,144.391z"/>
	<path fill="#1B181C" d="M231.401,149.165h-2.566l-5.159-8.631l-0.053,0.008v8.623h-2.566v-12.797h2.566l5.159,8.621l0.053-0.008
		v-8.613h2.566V149.165z"/>
	<path fill="#1B181C" d="M236.139,138.643l-0.896,2.506h-1.266v-4.781h2.162V138.643z"/>
	<path fill="#1B181C" d="M247.573,138.344h-3.656v10.82h-2.566v-10.82h-3.604v-1.977h9.826V138.344z"/>
	<path fill="#1B181C" d="M253.462,149.165v-12.797h4.192c1.506,0,2.681,0.294,3.524,0.883s1.266,1.463,1.266,2.623
		c0,0.586-0.152,1.111-0.457,1.574s-0.75,0.811-1.336,1.045c0.797,0.146,1.397,0.492,1.802,1.037s0.606,1.182,0.606,1.908
		c0,1.225-0.404,2.151-1.213,2.781s-1.954,0.945-3.437,0.945H253.462z M256.028,141.729h1.714c0.686,0,1.213-0.141,1.582-0.422
		s0.554-0.691,0.554-1.23c0-0.592-0.187-1.029-0.558-1.311c-0.373-0.281-0.928-0.422-1.666-0.422h-1.626V141.729z M256.028,143.504
		v3.691h2.382c0.68,0,1.198-0.148,1.556-0.444s0.536-0.733,0.536-1.313c0-0.621-0.176-1.1-0.527-1.434s-0.882-0.5-1.591-0.5H256.028
		z"/>
	<path fill="#1B181C" d="M272.244,143.54h-4.746v3.656h5.643v1.969h-8.209v-12.797h8.191v1.977h-5.625v3.217h4.746V143.54z"/>
	<path fill="#1B181C" d="M286.096,145.825c0-0.492-0.172-0.889-0.514-1.188c-0.344-0.299-0.945-0.58-1.807-0.844
		c-1.477-0.445-2.598-0.969-3.361-1.572c-0.766-0.604-1.147-1.428-1.147-2.471c0-1.049,0.431-1.905,1.292-2.57
		s1.96-0.998,3.296-0.998c1.418,0,2.56,0.357,3.423,1.072c0.865,0.715,1.282,1.652,1.253,2.813l-0.018,0.053h-2.487
		c0-0.639-0.193-1.129-0.58-1.472s-0.929-0.515-1.626-0.515c-0.633,0-1.122,0.152-1.468,0.457s-0.519,0.695-0.519,1.17
		c0,0.434,0.188,0.789,0.563,1.067s1.022,0.573,1.942,0.884c1.406,0.398,2.479,0.918,3.217,1.56s1.107,1.487,1.107,2.536
		c0,1.096-0.428,1.959-1.283,2.592s-1.986,0.949-3.393,0.949c-1.377,0-2.559-0.342-3.547-1.027
		c-0.986-0.686-1.466-1.709-1.437-3.068l0.018-0.053h2.487c0,0.756,0.223,1.313,0.668,1.67s1.049,0.537,1.811,0.537
		c0.686,0,1.209-0.145,1.568-0.432C285.916,146.688,286.096,146.305,286.096,145.825z"/>
	<path fill="#1B181C" d="M299.473,138.344h-3.656v10.82h-2.566v-10.82h-3.604v-1.977h9.826V138.344z"/>
	<path fill="#1B181C" d="M306.592,146.405h-4.148l-0.861,2.76h-2.681l4.315-12.797h2.628l4.298,12.797h-2.681L306.592,146.405z
		 M303.076,144.391h2.892l-1.415-4.508H304.5L303.076,144.391z"/>
	<path fill="#1B181C" d="M313.939,144.049v5.115h-2.566v-12.797h4.43c1.459,0,2.6,0.332,3.424,0.997
		c0.822,0.665,1.234,1.593,1.234,2.782c0,0.656-0.174,1.223-0.523,1.7c-0.348,0.478-0.856,0.862-1.524,1.155
		c0.756,0.223,1.3,0.596,1.63,1.117c0.332,0.521,0.497,1.166,0.497,1.934v0.939c0,0.357,0.048,0.731,0.146,1.121
		c0.096,0.39,0.262,0.678,0.496,0.865v0.186h-2.646c-0.234-0.188-0.386-0.498-0.452-0.932c-0.068-0.434-0.102-0.854-0.102-1.258
		v-0.904c0-0.639-0.174-1.136-0.523-1.49c-0.348-0.354-0.842-0.531-1.48-0.531H313.939z M313.939,142.071h1.819
		c0.721,0,1.257-0.152,1.608-0.457s0.527-0.756,0.527-1.354c0-0.586-0.178-1.051-0.531-1.396c-0.355-0.346-0.875-0.52-1.561-0.52
		h-1.863V142.071z"/>
	<path fill="#1B181C" d="M331.324,138.344h-3.656v10.82h-2.566v-10.82h-3.604v-1.977h9.826V138.344z"/>
	<path fill="#1B181C" d="M340.043,143.54h-4.746v3.656h5.643v1.969h-8.209v-12.797h8.191v1.977h-5.625v3.217h4.746V143.54z"/>
	<path fill="#1B181C" d="M342.741,149.165v-12.797h4.465c1.564,0,2.854,0.499,3.867,1.498s1.521,2.281,1.521,3.846v2.117
		c0,1.57-0.507,2.853-1.521,3.846s-2.303,1.49-3.867,1.49H342.741z M345.308,138.344v8.852h1.898c0.844,0,1.523-0.315,2.039-0.945
		s0.773-1.438,0.773-2.422v-2.135c0-0.979-0.258-1.781-0.773-2.408s-1.195-0.941-2.039-0.941H345.308z"/>
	<path fill="#1B181C" d="M16.14,164.405h-4.148l-0.861,2.76H8.449l4.315-12.797h2.628l4.298,12.797H17.01L16.14,164.405z
		 M12.624,162.391h2.892l-1.415-4.508h-0.053L12.624,162.391z"/>
	<path fill="#1B181C" d="M31.266,167.165h-2.566l-5.159-8.631l-0.053,0.008v8.623h-2.566v-12.797h2.566l5.159,8.621l0.053-0.008
		v-8.613h2.566V167.165z"/>
	<path fill="#1B181C" d="M33.621,167.165v-12.797h4.465c1.564,0,2.854,0.499,3.867,1.498s1.521,2.281,1.521,3.846v2.117
		c0,1.57-0.507,2.853-1.521,3.846s-2.303,1.49-3.867,1.49H33.621z M36.188,156.344v8.852h1.898c0.844,0,1.523-0.315,2.039-0.945
		s0.773-1.438,0.773-2.422v-2.135c0-0.979-0.258-1.781-0.773-2.408s-1.195-0.941-2.039-0.941H36.188z"/>
	<path fill="#1B181C" d="M59.61,162.928l0.018,0.053c0.023,1.365-0.393,2.434-1.248,3.207s-2.036,1.16-3.542,1.16
		c-1.535,0-2.774-0.493-3.718-1.48s-1.415-2.264-1.415-3.828V159.5c0-1.559,0.46-2.835,1.38-3.828s2.127-1.49,3.621-1.49
		c1.559,0,2.777,0.381,3.656,1.143s1.307,1.834,1.283,3.217l-0.018,0.053h-2.496c0-0.82-0.198-1.431-0.593-1.832
		s-1.006-0.602-1.833-0.602c-0.768,0-1.367,0.309-1.797,0.927s-0.646,1.417-0.646,2.396v2.557c0,0.984,0.227,1.787,0.681,2.408
		s1.085,0.932,1.894,0.932c0.768,0,1.34-0.2,1.718-0.602s0.567-1.018,0.567-1.85H59.61z"/>
	<path fill="#1B181C" d="M71.818,161.917c0,1.576-0.495,2.876-1.485,3.898s-2.279,1.533-3.867,1.533
		c-1.582,0-2.865-0.512-3.85-1.537s-1.477-2.324-1.477-3.895v-2.303c0-1.564,0.491-2.86,1.472-3.889s2.26-1.543,3.836-1.543
		c1.588,0,2.88,0.515,3.876,1.543s1.494,2.324,1.494,3.889V161.917z M69.261,159.596c0-0.996-0.249-1.813-0.747-2.451
		s-1.187-0.959-2.065-0.959c-0.867,0-1.542,0.32-2.026,0.959s-0.725,1.455-0.725,2.451v2.32c0,1.014,0.243,1.84,0.729,2.479
		s1.166,0.959,2.039,0.959c0.879,0,1.564-0.32,2.057-0.959s0.738-1.465,0.738-2.479V159.596z"/>
	<path fill="#1B181C" d="M80.467,163.797h0.053l3.287-9.43h3.349v12.797h-2.566v-8.736l-0.053-0.01l-3.164,8.746h-1.74l-3.164-8.764
		l-0.053,0.01v8.754h-2.566v-12.797h3.366L80.467,163.797z"/>
	<path fill="#1B181C" d="M92.077,162.524v4.641h-2.566v-12.797h4.896c1.471,0,2.628,0.375,3.472,1.125s1.266,1.736,1.266,2.961
		s-0.422,2.209-1.266,2.953s-2.001,1.117-3.472,1.117H92.077z M92.077,160.545h2.329c0.715,0,1.257-0.194,1.626-0.584
		s0.554-0.887,0.554-1.49c0-0.615-0.183-1.123-0.549-1.524s-0.91-0.603-1.63-0.603h-2.329V160.545z"/>
	<path fill="#1B181C" d="M103.547,165.196h5.73v1.969h-8.297v-12.797h2.566V165.196z"/>
	<path fill="#1B181C" d="M118.295,161.54h-4.746v3.656h5.643v1.969h-8.209v-12.797h8.191v1.977h-5.625v3.217h4.746V161.54z"/>
	<path fill="#1B181C" d="M129.914,156.344h-3.656v10.82h-2.566v-10.82h-3.604v-1.977h9.826V156.344z"/>
	<path fill="#1B181C" d="M138.633,161.54h-4.746v3.656h5.643v1.969h-8.209v-12.797h8.191v1.977h-5.625v3.217h4.746V161.54z"/>
	<path fill="#1B181C" d="M141.331,167.165v-12.797h4.465c1.564,0,2.854,0.499,3.867,1.498s1.521,2.281,1.521,3.846v2.117
		c0,1.57-0.507,2.853-1.521,3.846s-2.303,1.49-3.867,1.49H141.331z M143.897,156.344v8.852h1.898c0.844,0,1.523-0.315,2.039-0.945
		s0.773-1.438,0.773-2.422v-2.135c0-0.979-0.258-1.781-0.773-2.408s-1.195-0.941-2.039-0.941H143.897z"/>
	<path fill="#1B181C" d="M168.076,161.917c0,1.576-0.495,2.876-1.485,3.898s-2.279,1.533-3.867,1.533
		c-1.582,0-2.865-0.512-3.85-1.537s-1.477-2.324-1.477-3.895v-2.303c0-1.564,0.491-2.86,1.472-3.889s2.26-1.543,3.836-1.543
		c1.588,0,2.88,0.515,3.876,1.543s1.494,2.324,1.494,3.889V161.917z M165.519,159.596c0-0.996-0.249-1.813-0.747-2.451
		s-1.187-0.959-2.065-0.959c-0.867,0-1.542,0.32-2.026,0.959s-0.725,1.455-0.725,2.451v2.32c0,1.014,0.243,1.84,0.729,2.479
		s1.166,0.959,2.039,0.959c0.879,0,1.564-0.32,2.057-0.959s0.738-1.465,0.738-2.479V159.596z"/>
	<path fill="#1B181C" d="M180.451,167.165h-2.566l-5.159-8.631l-0.053,0.008v8.623h-2.566v-12.797h2.566l5.159,8.621l0.053-0.008
		v-8.613h2.566V167.165z"/>
	<path fill="#1B181C" d="M185.373,165.196h5.73v1.969h-8.297v-12.797h2.566V165.196z"/>
	<path fill="#1B181C" d="M195.551,167.165h-2.566v-12.797h2.566V167.165z"/>
	<path fill="#1B181C" d="M208.436,167.165h-2.566l-5.159-8.631l-0.053,0.008v8.623h-2.566v-12.797h2.566l5.159,8.621l0.053-0.008
		v-8.613h2.566V167.165z"/>
	<path fill="#1B181C" d="M218.104,161.54h-4.746v3.656H219v1.969h-8.209v-12.797h8.191v1.977h-5.625v3.217h4.746V161.54z"/>
</g>
</svg>
