<?xml version="1.0" encoding="utf-8"?>
<!-- Generator: Adobe Illustrator 16.0.0, SVG Export Plug-In . SVG Version: 6.00 Build 0)  -->
<!DOCTYPE svg PUBLIC "-//W3C//DTD SVG 1.1//EN" "http://www.w3.org/Graphics/SVG/1.1/DTD/svg11.dtd">
<svg version="1.1" id="Layer_1" xmlns="http://www.w3.org/2000/svg" xmlns:xlink="http://www.w3.org/1999/xlink" x="0px" y="0px"
	 width="107.5px" height="122.167px" viewBox="0 0 107.5 122.167" enable-background="new 0 0 107.5 122.167" xml:space="preserve">
<rect y="20" fill="#F7963E" width="20" height="20"/>
<rect y="60" fill="#FCC18A" width="20" height="20"/>
<rect y="80" fill="#FED6B1" width="20" height="20"/>
<rect y="100" fill="#FFEBD6" width="20" height="20"/>
<rect y="40" fill="#FAAB66" width="20" height="20"/>
<rect fill="#F58120" width="20" height="20"/>
<g enable-background="new    ">
	<path fill="#030303" d="M58.816,11.656V3.125h2.977c1.043,0,1.902,0.333,2.578,0.999s1.014,1.521,1.014,2.563v1.412
		c0,1.047-0.338,1.901-1.014,2.563s-1.535,0.993-2.578,0.993H58.816z M60.527,4.443v5.9h1.266c0.563,0,1.016-0.21,1.359-0.63
		s0.516-0.958,0.516-1.614V6.675c0-0.652-0.172-1.188-0.516-1.605s-0.797-0.627-1.359-0.627H60.527z"/>
	<path fill="#030303" d="M69.375,11.779c-0.945,0-1.684-0.29-2.215-0.87s-0.797-1.327-0.797-2.241V8.433
		c0-0.949,0.258-1.727,0.773-2.332s1.225-0.906,2.127-0.902c0.852,0,1.506,0.261,1.961,0.782s0.682,1.224,0.682,2.106v0.885h-3.779
		l-0.018,0.035c0.027,0.434,0.16,0.785,0.396,1.055s0.586,0.404,1.051,0.404c0.383,0,0.709-0.039,0.977-0.117
		s0.543-0.197,0.828-0.357l0.463,1.055c-0.254,0.207-0.598,0.381-1.031,0.521S69.887,11.779,69.375,11.779z M69.264,6.517
		c-0.344,0-0.607,0.118-0.793,0.354s-0.299,0.55-0.338,0.94l0.012,0.029h2.086V7.712c0-0.371-0.076-0.663-0.229-0.876
		S69.604,6.517,69.264,6.517z"/>
	<path fill="#030303" d="M74.467,5.316l0.076,0.908c0.211-0.324,0.471-0.576,0.779-0.756s0.654-0.27,1.037-0.27
		c0.641,0,1.141,0.206,1.5,0.618s0.539,1.063,0.539,1.954v3.885h-1.717V7.777c0-0.453-0.078-0.774-0.236-0.964
		s-0.396-0.284-0.713-0.284c-0.254,0-0.477,0.048-0.67,0.144S74.709,6.9,74.584,7.068v4.588h-1.711v-6.34H74.467z"/>
	<path fill="#030303" d="M81.264,5.316l0.07,0.838c0.203-0.305,0.459-0.54,0.766-0.706s0.66-0.249,1.063-0.249
		c0.406,0,0.754,0.09,1.043,0.27s0.508,0.451,0.656,0.814c0.195-0.34,0.449-0.605,0.762-0.797s0.68-0.287,1.102-0.287
		c0.625,0,1.119,0.222,1.48,0.665s0.541,1.12,0.541,2.03v3.762h-1.711V7.888c0-0.508-0.078-0.861-0.234-1.061
		s-0.389-0.299-0.697-0.299c-0.242,0-0.451,0.054-0.629,0.161s-0.32,0.257-0.426,0.448c0,0.074,0.002,0.138,0.006,0.19
		s0.006,0.106,0.006,0.161v4.166h-1.705V7.888c0-0.496-0.078-0.847-0.234-1.052s-0.391-0.308-0.703-0.308
		c-0.23,0-0.432,0.044-0.605,0.132s-0.318,0.212-0.432,0.372v4.623h-1.705v-6.34H81.264z"/>
	<path fill="#030303" d="M93.797,11.656c-0.063-0.145-0.115-0.297-0.16-0.457s-0.078-0.324-0.098-0.492
		c-0.176,0.309-0.408,0.564-0.697,0.768s-0.633,0.305-1.031,0.305c-0.664,0-1.176-0.171-1.535-0.513s-0.539-0.808-0.539-1.397
		c0-0.621,0.24-1.103,0.719-1.444s1.176-0.513,2.094-0.513h0.961V7.408c0-0.305-0.08-0.541-0.24-0.709s-0.398-0.252-0.715-0.252
		c-0.277,0-0.49,0.067-0.641,0.202s-0.227,0.319-0.227,0.554h-1.646l-0.012-0.035c-0.027-0.535,0.207-0.997,0.701-1.386
		s1.139-0.583,1.936-0.583c0.762,0,1.379,0.191,1.85,0.574s0.705,0.932,0.705,1.646v2.619c0,0.297,0.023,0.576,0.068,0.838
		s0.115,0.521,0.213,0.779H93.797z M92.232,10.513c0.297,0,0.563-0.074,0.797-0.223s0.395-0.32,0.48-0.516V8.878h-0.961
		c-0.363,0-0.637,0.09-0.822,0.27s-0.279,0.4-0.279,0.662c0,0.215,0.07,0.386,0.209,0.513S91.986,10.513,92.232,10.513z"/>
	<path fill="#030303" d="M99.838,6.787l-0.627-0.018c-0.254,0-0.463,0.053-0.627,0.158s-0.289,0.254-0.375,0.445v4.283h-1.705v-6.34
		h1.588l0.076,0.938c0.148-0.332,0.342-0.591,0.578-0.776s0.508-0.278,0.816-0.278c0.086,0,0.166,0.007,0.238,0.021
		s0.145,0.03,0.219,0.05L99.838,6.787z"/>
	<path fill="#030303" d="M102.873,9.001h-0.434v2.654h-1.711V2.515h1.711v5.186h0.381l1.518-2.385h1.98l-2.063,2.889l2.344,3.451
		h-1.969L102.873,9.001z"/>
</g>
<g enable-background="new    ">
	<path fill="#030303" d="M60.861,116.589V120H59.15v-8.531h2.953c0.973,0,1.732,0.222,2.281,0.665s0.824,1.062,0.824,1.854
		c0,0.438-0.117,0.815-0.35,1.134s-0.57,0.575-1.016,0.771c0.504,0.148,0.865,0.396,1.086,0.744s0.332,0.777,0.332,1.289v0.627
		c0,0.238,0.031,0.487,0.096,0.747s0.176,0.452,0.332,0.577V120h-1.764c-0.156-0.125-0.258-0.332-0.303-0.621
		s-0.066-0.568-0.066-0.838v-0.604c0-0.426-0.117-0.757-0.35-0.993s-0.561-0.354-0.986-0.354H60.861z M60.861,115.271h1.213
		c0.48,0,0.838-0.102,1.072-0.305s0.352-0.504,0.352-0.902c0-0.391-0.119-0.701-0.355-0.932s-0.582-0.346-1.039-0.346h-1.242
		V115.271z"/>
	<path fill="#030303" d="M66.404,116.771c0-0.945,0.264-1.72,0.791-2.323s1.258-0.905,2.191-0.905c0.938,0,1.672,0.301,2.203,0.902
		s0.797,1.377,0.797,2.326v0.123c0,0.953-0.266,1.729-0.795,2.329s-1.26,0.899-2.193,0.899c-0.938,0-1.672-0.3-2.201-0.899
		s-0.793-1.376-0.793-2.329V116.771z M68.109,116.894c0,0.578,0.102,1.042,0.305,1.392s0.531,0.524,0.984,0.524
		c0.441,0,0.764-0.176,0.969-0.527s0.309-0.814,0.309-1.389v-0.123c0-0.563-0.104-1.021-0.311-1.377s-0.533-0.533-0.979-0.533
		c-0.441,0-0.766,0.179-0.971,0.536s-0.307,0.815-0.307,1.374V116.894z"/>
	<path fill="#030303" d="M75.029,113.66l0.07,0.838c0.203-0.305,0.457-0.54,0.764-0.706s0.662-0.249,1.064-0.249
		c0.406,0,0.754,0.09,1.043,0.27s0.508,0.451,0.656,0.814c0.195-0.34,0.449-0.605,0.762-0.797s0.68-0.287,1.102-0.287
		c0.625,0,1.117,0.222,1.479,0.665s0.543,1.12,0.543,2.03V120h-1.711v-3.768c0-0.508-0.078-0.861-0.234-1.061
		s-0.389-0.299-0.697-0.299c-0.242,0-0.453,0.054-0.631,0.161s-0.318,0.257-0.424,0.448c0,0.074,0.002,0.138,0.006,0.19
		s0.006,0.106,0.006,0.161V120h-1.705v-3.768c0-0.496-0.078-0.847-0.234-1.052s-0.391-0.308-0.703-0.308
		c-0.23,0-0.434,0.044-0.607,0.132s-0.316,0.212-0.43,0.372V120h-1.705v-6.34H75.029z"/>
	<path fill="#030303" d="M87.563,120c-0.063-0.145-0.117-0.297-0.162-0.457s-0.076-0.324-0.096-0.492
		c-0.176,0.309-0.408,0.564-0.697,0.768s-0.633,0.305-1.031,0.305c-0.664,0-1.176-0.171-1.535-0.513s-0.539-0.808-0.539-1.397
		c0-0.621,0.238-1.103,0.717-1.444s1.178-0.513,2.096-0.513h0.961v-0.504c0-0.305-0.08-0.541-0.24-0.709s-0.398-0.252-0.715-0.252
		c-0.277,0-0.492,0.067-0.643,0.202s-0.225,0.319-0.225,0.554h-1.646l-0.012-0.035c-0.027-0.535,0.205-0.997,0.699-1.386
		s1.141-0.583,1.938-0.583c0.762,0,1.377,0.191,1.848,0.574s0.707,0.932,0.707,1.646v2.619c0,0.297,0.021,0.576,0.066,0.838
		s0.117,0.521,0.215,0.779H87.563z M85.998,118.857c0.297,0,0.563-0.074,0.797-0.223s0.395-0.32,0.48-0.516v-0.896h-0.961
		c-0.363,0-0.639,0.09-0.824,0.27s-0.277,0.4-0.277,0.662c0,0.215,0.068,0.386,0.207,0.513S85.752,118.857,85.998,118.857z"/>
	<path fill="#030303" d="M91.834,113.66l0.076,0.908c0.211-0.324,0.471-0.576,0.779-0.756s0.654-0.27,1.037-0.27
		c0.641,0,1.141,0.206,1.5,0.618s0.539,1.063,0.539,1.954V120h-1.717v-3.879c0-0.453-0.08-0.774-0.238-0.964
		s-0.395-0.284-0.711-0.284c-0.254,0-0.479,0.048-0.672,0.144s-0.352,0.228-0.477,0.396V120H90.24v-6.34H91.834z"/>
	<path fill="#030303" d="M98.842,112.142h-1.711v-1.283h1.711V112.142z M98.842,120h-1.711v-6.34h1.711V120z"/>
	<path fill="#030303" d="M103.986,120c-0.063-0.145-0.117-0.297-0.162-0.457s-0.076-0.324-0.096-0.492
		c-0.176,0.309-0.408,0.564-0.697,0.768s-0.633,0.305-1.031,0.305c-0.664,0-1.176-0.171-1.535-0.513s-0.539-0.808-0.539-1.397
		c0-0.621,0.238-1.103,0.717-1.444s1.178-0.513,2.096-0.513h0.961v-0.504c0-0.305-0.08-0.541-0.24-0.709s-0.398-0.252-0.715-0.252
		c-0.277,0-0.492,0.067-0.643,0.202s-0.225,0.319-0.225,0.554h-1.646l-0.012-0.035c-0.027-0.535,0.205-0.997,0.699-1.386
		s1.141-0.583,1.938-0.583c0.762,0,1.377,0.191,1.848,0.574s0.707,0.932,0.707,1.646v2.619c0,0.297,0.021,0.576,0.066,0.838
		s0.117,0.521,0.215,0.779H103.986z M102.422,118.857c0.297,0,0.563-0.074,0.797-0.223s0.395-0.32,0.48-0.516v-0.896h-0.961
		c-0.363,0-0.639,0.09-0.824,0.27s-0.277,0.4-0.277,0.662c0,0.215,0.068,0.386,0.207,0.513S102.176,118.857,102.422,118.857z"/>
</g>
<g enable-background="new    ">
	<path fill="#030303" d="M30.042,3.722c-0.957,1.117-1.677,2.235-2.159,3.354s-0.724,2.364-0.724,3.735v0.844h-0.703v-0.844
		c0-1.355,0.251-2.609,0.753-3.762s1.204-2.262,2.106-3.328h-4.822V3.125h5.549V3.722z"/>
	<path fill="#030303" d="M33.646,11.187c0.625,0,1.123-0.207,1.494-0.621s0.557-0.992,0.557-1.734V7.589
		c-0.207,0.348-0.483,0.615-0.829,0.803s-0.728,0.281-1.146,0.281c-0.773,0-1.394-0.257-1.86-0.771s-0.7-1.183-0.7-2.007
		c0-0.832,0.244-1.522,0.732-2.071s1.1-0.823,1.834-0.823c0.805,0,1.455,0.264,1.951,0.791s0.744,1.277,0.744,2.25V8.82
		c0,0.926-0.257,1.65-0.771,2.174s-1.183,0.785-2.007,0.785c-0.293,0-0.589-0.031-0.888-0.094s-0.589-0.154-0.87-0.275l0.129-0.568
		c0.258,0.125,0.511,0.214,0.759,0.267S33.314,11.187,33.646,11.187z M33.722,8.082c0.496,0,0.914-0.125,1.254-0.375
		s0.58-0.559,0.721-0.926V5.966c0-0.758-0.176-1.342-0.527-1.752s-0.822-0.615-1.412-0.615c-0.551,0-1,0.221-1.348,0.662
		s-0.521,0.986-0.521,1.635c0,0.625,0.163,1.146,0.489,1.562S33.152,8.082,33.722,8.082z"/>
	<path fill="#030303" d="M38.849,11.55l-0.621,1.617h-0.48l0.404-1.635v-0.979h0.697V11.55z"/>
	<path fill="#030303" d="M42.593,11.187c0.625,0,1.123-0.207,1.494-0.621s0.557-0.992,0.557-1.734V7.589
		c-0.207,0.348-0.483,0.615-0.829,0.803s-0.728,0.281-1.146,0.281c-0.773,0-1.394-0.257-1.86-0.771s-0.7-1.183-0.7-2.007
		c0-0.832,0.244-1.522,0.732-2.071s1.1-0.823,1.834-0.823c0.805,0,1.455,0.264,1.951,0.791s0.744,1.277,0.744,2.25V8.82
		c0,0.926-0.257,1.65-0.771,2.174s-1.183,0.785-2.007,0.785c-0.293,0-0.589-0.031-0.888-0.094s-0.589-0.154-0.87-0.275l0.129-0.568
		c0.258,0.125,0.511,0.214,0.759,0.267S42.261,11.187,42.593,11.187z M42.669,8.082c0.496,0,0.914-0.125,1.254-0.375
		s0.58-0.559,0.721-0.926V5.966c0-0.758-0.176-1.342-0.527-1.752s-0.822-0.615-1.412-0.615c-0.551,0-1,0.221-1.348,0.662
		s-0.521,0.986-0.521,1.635c0,0.625,0.163,1.146,0.489,1.562S42.099,8.082,42.669,8.082z"/>
	<path fill="#030303" d="M46.853,4.765c0-0.496,0.153-0.914,0.46-1.254s0.71-0.51,1.21-0.51c0.496,0,0.897,0.17,1.204,0.51
		s0.46,0.758,0.46,1.254v0.451c0,0.492-0.152,0.907-0.457,1.245s-0.703,0.507-1.195,0.507c-0.504,0-0.91-0.169-1.219-0.507
		s-0.463-0.753-0.463-1.245V4.765z M47.416,5.216c0,0.344,0.097,0.637,0.29,0.879s0.47,0.363,0.829,0.363
		c0.348,0,0.616-0.121,0.806-0.363s0.284-0.535,0.284-0.879V4.765c0-0.344-0.096-0.639-0.287-0.885s-0.463-0.369-0.814-0.369
		s-0.624,0.123-0.817,0.369s-0.29,0.541-0.29,0.885V5.216z M48.705,10.947l-0.434-0.281l4.166-6.668l0.434,0.281L48.705,10.947z
		 M51.142,9.564c0-0.492,0.153-0.908,0.46-1.248s0.71-0.51,1.21-0.51c0.496,0,0.898,0.17,1.207,0.51
		c0.309,0.34,0.463,0.756,0.463,1.248v0.457c0,0.496-0.154,0.913-0.46,1.251c-0.307,0.338-0.706,0.507-1.198,0.507
		c-0.504,0-0.91-0.169-1.219-0.507s-0.463-0.755-0.463-1.251V9.564z M51.71,10.021c0,0.348,0.096,0.643,0.287,0.885
		s0.467,0.363,0.826,0.363c0.348,0,0.616-0.121,0.806-0.363s0.284-0.537,0.284-0.885V9.564c0-0.355-0.096-0.652-0.287-0.891
		s-0.463-0.357-0.814-0.357s-0.623,0.12-0.814,0.36S51.71,9.212,51.71,9.564V10.021z"/>
</g>
<g enable-background="new    ">
	<path fill="#030303" d="M30.382,120h-5.191v-0.539l2.807-3.275c0.5-0.59,0.846-1.073,1.037-1.45s0.287-0.749,0.287-1.116
		c0-0.52-0.14-0.929-0.419-1.228s-0.692-0.448-1.239-0.448c-0.609,0-1.078,0.181-1.406,0.542s-0.492,0.823-0.492,1.386h-0.656
		l-0.012-0.035c-0.02-0.695,0.205-1.284,0.674-1.767s1.1-0.724,1.893-0.724c0.73,0,1.307,0.205,1.729,0.615s0.633,0.965,0.633,1.664
		c0,0.461-0.139,0.922-0.416,1.383s-0.686,1.02-1.225,1.676l-2.309,2.695l0.012,0.029h4.295V120z"/>
	<path fill="#030303" d="M32.533,119.894l-0.621,1.617h-0.48l0.404-1.635v-0.979h0.697V119.894z"/>
	<path fill="#030303" d="M34.337,116.162l0.469-4.693h4.148v0.65H35.41l-0.316,3.07c0.215-0.191,0.452-0.342,0.712-0.451
		s0.608-0.17,1.046-0.182c0.73-0.012,1.317,0.229,1.761,0.721s0.665,1.16,0.665,2.004c0,0.863-0.217,1.553-0.65,2.068
		s-1.084,0.773-1.951,0.773c-0.703,0-1.289-0.196-1.758-0.589s-0.693-0.974-0.674-1.743l0.012-0.035h0.633
		c0,0.574,0.162,1.014,0.486,1.318s0.758,0.457,1.301,0.457c0.637,0,1.112-0.191,1.427-0.574s0.472-0.938,0.472-1.664
		c0-0.637-0.157-1.143-0.472-1.518s-0.757-0.563-1.327-0.563c-0.543,0-0.958,0.087-1.245,0.261s-0.495,0.437-0.624,0.788
		L34.337,116.162z"/>
	<path fill="#030303" d="M40.537,113.109c0-0.496,0.153-0.914,0.46-1.254s0.71-0.51,1.21-0.51c0.496,0,0.897,0.17,1.204,0.51
		s0.46,0.758,0.46,1.254v0.451c0,0.492-0.152,0.907-0.457,1.245s-0.703,0.507-1.195,0.507c-0.504,0-0.91-0.169-1.219-0.507
		s-0.463-0.753-0.463-1.245V113.109z M41.099,113.56c0,0.344,0.097,0.637,0.29,0.879s0.47,0.363,0.829,0.363
		c0.348,0,0.616-0.121,0.806-0.363s0.284-0.535,0.284-0.879v-0.451c0-0.344-0.096-0.639-0.287-0.885s-0.463-0.369-0.814-0.369
		s-0.624,0.123-0.817,0.369s-0.29,0.541-0.29,0.885V113.56z M42.388,119.291l-0.434-0.281l4.166-6.668l0.434,0.281L42.388,119.291z
		 M44.826,117.908c0-0.492,0.153-0.908,0.46-1.248s0.71-0.51,1.21-0.51c0.496,0,0.898,0.17,1.207,0.51s0.463,0.756,0.463,1.248
		v0.457c0,0.496-0.153,0.913-0.46,1.251s-0.706,0.507-1.198,0.507c-0.504,0-0.91-0.169-1.219-0.507s-0.463-0.755-0.463-1.251
		V117.908z M45.394,118.365c0,0.348,0.096,0.643,0.287,0.885s0.467,0.363,0.826,0.363c0.348,0,0.616-0.121,0.806-0.363
		s0.284-0.537,0.284-0.885v-0.457c0-0.355-0.096-0.652-0.287-0.891s-0.463-0.357-0.814-0.357s-0.623,0.12-0.814,0.36
		s-0.287,0.536-0.287,0.888V118.365z"/>
</g>
<g enable-background="new    ">
	<path fill="#030303" d="M60.979,94h-1.711v-8.531h1.711V94z"/>
	<path fill="#030303" d="M64.594,86.107v1.553h1.072v1.201h-1.072v3.229c0,0.246,0.051,0.422,0.154,0.527s0.24,0.158,0.408,0.158
		c0.09,0,0.168-0.005,0.234-0.015s0.143-0.026,0.229-0.05l0.141,1.236c-0.172,0.059-0.34,0.103-0.502,0.132
		s-0.338,0.044-0.529,0.044c-0.59,0-1.045-0.162-1.363-0.486s-0.477-0.838-0.477-1.541v-3.234h-0.926V87.66h0.926v-1.553H64.594z"/>
	<path fill="#030303" d="M70.459,94c-0.063-0.145-0.117-0.297-0.162-0.457s-0.076-0.324-0.096-0.492
		c-0.176,0.309-0.408,0.564-0.697,0.768s-0.633,0.305-1.031,0.305c-0.664,0-1.176-0.171-1.535-0.513s-0.539-0.808-0.539-1.397
		c0-0.621,0.238-1.103,0.717-1.444s1.178-0.513,2.096-0.513h0.961v-0.504c0-0.305-0.08-0.541-0.24-0.709s-0.398-0.252-0.715-0.252
		c-0.277,0-0.492,0.067-0.643,0.202s-0.225,0.319-0.225,0.554h-1.646l-0.012-0.035c-0.027-0.535,0.205-0.997,0.699-1.386
		s1.141-0.583,1.938-0.583c0.762,0,1.377,0.191,1.848,0.574s0.707,0.932,0.707,1.646v2.619c0,0.297,0.021,0.576,0.066,0.838
		s0.117,0.521,0.215,0.779H70.459z M68.895,92.857c0.297,0,0.563-0.074,0.797-0.223s0.395-0.32,0.48-0.516v-0.896h-0.961
		c-0.363,0-0.639,0.09-0.824,0.27s-0.277,0.4-0.277,0.662c0,0.215,0.068,0.386,0.207,0.513S68.648,92.857,68.895,92.857z"/>
	<path fill="#030303" d="M74.965,94h-1.711v-9.141h1.711V94z"/>
	<path fill="#030303" d="M78.656,91.339l0.07,0.352h0.035l1.213-4.031h1.84l-2.572,7.289c-0.18,0.453-0.424,0.835-0.732,1.146
		s-0.771,0.466-1.389,0.466c-0.145,0-0.279-0.012-0.402-0.035s-0.271-0.057-0.447-0.1l0.199-1.248
		c0.051,0.008,0.105,0.016,0.164,0.023s0.111,0.012,0.158,0.012c0.281,0,0.498-0.069,0.65-0.208s0.27-0.312,0.352-0.519l0.199-0.492
		l-2.25-6.334h1.84L78.656,91.339z"/>
</g>
<g enable-background="new    ">
	<path fill="#030303" d="M28.156,94h-0.703v-7.928l-2.021,0.246v-0.563l2.725-0.41V94z"/>
	<path fill="#030303" d="M34.613,85.345c0.316,0,0.632,0.033,0.946,0.1s0.587,0.162,0.817,0.287l-0.182,0.574
		c-0.234-0.121-0.474-0.212-0.718-0.272s-0.532-0.091-0.864-0.091c-0.598,0-1.091,0.238-1.479,0.715s-0.583,1.096-0.583,1.857v1.172
		c0.234-0.328,0.537-0.591,0.908-0.788s0.781-0.296,1.23-0.296c0.754,0,1.342,0.246,1.764,0.738s0.633,1.158,0.633,1.998
		c0,0.832-0.237,1.504-0.712,2.016s-1.099,0.768-1.872,0.768c-0.766,0-1.398-0.291-1.898-0.873s-0.75-1.369-0.75-2.361V88.58
		c0-0.945,0.265-1.721,0.794-2.326S33.832,85.345,34.613,85.345z M34.496,89.177c-0.461,0-0.868,0.124-1.222,0.372
		s-0.595,0.563-0.724,0.946v0.445c0,0.785,0.184,1.413,0.551,1.884s0.834,0.706,1.4,0.706c0.578,0,1.036-0.207,1.374-0.621
		s0.507-0.938,0.507-1.57c0-0.688-0.159-1.22-0.478-1.597S35.117,89.177,34.496,89.177z"/>
	<path fill="#030303" d="M39.183,93.894l-0.621,1.617h-0.48l0.404-1.635v-0.979h0.697V93.894z"/>
	<path fill="#030303" d="M42.927,93.531c0.625,0,1.123-0.207,1.494-0.621s0.557-0.992,0.557-1.734v-1.242
		c-0.207,0.348-0.483,0.615-0.829,0.803s-0.728,0.281-1.146,0.281c-0.773,0-1.394-0.257-1.86-0.771s-0.7-1.183-0.7-2.007
		c0-0.832,0.244-1.522,0.732-2.071s1.1-0.823,1.834-0.823c0.805,0,1.455,0.264,1.951,0.791s0.744,1.277,0.744,2.25v2.777
		c0,0.926-0.257,1.65-0.771,2.174s-1.183,0.785-2.007,0.785c-0.293,0-0.589-0.031-0.888-0.094s-0.589-0.154-0.87-0.275l0.129-0.568
		c0.258,0.125,0.511,0.214,0.759,0.267S42.595,93.531,42.927,93.531z M43.003,90.425c0.496,0,0.914-0.125,1.254-0.375
		s0.58-0.559,0.721-0.926V88.31c0-0.758-0.176-1.342-0.527-1.752s-0.822-0.615-1.412-0.615c-0.551,0-1,0.221-1.348,0.662
		s-0.521,0.986-0.521,1.635c0,0.625,0.163,1.146,0.489,1.562S42.433,90.425,43.003,90.425z"/>
	<path fill="#030303" d="M47.187,87.109c0-0.496,0.153-0.914,0.46-1.254s0.71-0.51,1.21-0.51c0.496,0,0.897,0.17,1.204,0.51
		s0.46,0.758,0.46,1.254v0.451c0,0.492-0.152,0.907-0.457,1.245s-0.703,0.507-1.195,0.507c-0.504,0-0.91-0.169-1.219-0.507
		s-0.463-0.753-0.463-1.245V87.109z M47.75,87.56c0,0.344,0.097,0.637,0.29,0.879s0.47,0.363,0.829,0.363
		c0.348,0,0.616-0.121,0.806-0.363s0.284-0.535,0.284-0.879v-0.451c0-0.344-0.096-0.639-0.287-0.885s-0.463-0.369-0.814-0.369
		s-0.624,0.123-0.817,0.369s-0.29,0.541-0.29,0.885V87.56z M49.039,93.291l-0.434-0.281l4.166-6.668l0.434,0.281L49.039,93.291z
		 M51.476,91.908c0-0.492,0.153-0.908,0.46-1.248s0.71-0.51,1.21-0.51c0.496,0,0.898,0.17,1.208,0.51
		c0.309,0.34,0.463,0.756,0.463,1.248v0.457c0,0.496-0.154,0.913-0.461,1.251c-0.306,0.338-0.706,0.507-1.198,0.507
		c-0.504,0-0.91-0.169-1.219-0.507s-0.463-0.755-0.463-1.251V91.908z M52.044,92.365c0,0.348,0.096,0.643,0.287,0.885
		s0.467,0.363,0.826,0.363c0.348,0,0.616-0.121,0.806-0.363s0.284-0.537,0.284-0.885v-0.457c0-0.355-0.096-0.652-0.287-0.891
		s-0.463-0.357-0.814-0.357s-0.623,0.12-0.814,0.36s-0.287,0.536-0.287,0.888V92.365z"/>
</g>
</svg>
