<?xml version="1.0" encoding="utf-8"?>
<!-- Generator: Adobe Illustrator 15.0.2, SVG Export Plug-In . SVG Version: 6.00 Build 0)  -->
<!DOCTYPE svg PUBLIC "-//W3C//DTD SVG 1.1//EN" "http://www.w3.org/Graphics/SVG/1.1/DTD/svg11.dtd">
<svg version="1.1" id="Layer_1" xmlns="http://www.w3.org/2000/svg" xmlns:xlink="http://www.w3.org/1999/xlink" x="0px" y="0px"
	 width="15px" height="15px" viewBox="0 0 15 15" style="enable-background:new 0 0 15 15;" xml:space="preserve">
<g>
	<g>
		
			<linearGradient id="SVGID_1_" gradientUnits="userSpaceOnUse" x1="363.167" y1="-244" x2="377.833" y2="-244" gradientTransform="matrix(1 0 0 -1 -363 -236.5)">
			<stop  offset="0" style="stop-color:#F0F0F0"/>
			<stop  offset="1" style="stop-color:#E8E8E8"/>
		</linearGradient>
		<path style="fill:url(#SVGID_1_);" d="M14.833,10.833c0,2.199-1.801,4-4,4H4.167c-2.2,0-4-1.801-4-4V4.167c0-2.2,1.8-4,4-4h6.666
			c2.199,0,4,1.8,4,4V10.833z"/>
	</g>
	<g>
		<path style="fill:#B6B6B2;" d="M11.165,6.166c0,1.101-0.899,2-2,2H5.834c-1.101,0-2-0.899-2-2V2.833c0-1.1,0.899-2,2-2h3.331
			c1.101,0,2,0.9,2,2V6.166z"/>
	</g>
</g>
</svg>
