<?xml version="1.0" encoding="utf-8"?>
<!-- Generator: Adobe Illustrator 16.0.0, SVG Export Plug-In . SVG Version: 6.00 Build 0)  -->
<!DOCTYPE svg PUBLIC "-//W3C//DTD SVG 1.1//EN" "http://www.w3.org/Graphics/SVG/1.1/DTD/svg11.dtd">
<svg version="1.1" id="Livello_1" xmlns="http://www.w3.org/2000/svg" xmlns:xlink="http://www.w3.org/1999/xlink" x="0px" y="0px"
	 width="120px" height="100px" viewBox="0 0 120 100" enable-background="new 0 0 120 100" xml:space="preserve">
<g>
	<g>
		<g>
			<path fill="#98D0D9" d="M15.473,60.037c3.285,0,5.972,2.688,5.972,5.973v7.936c0,3.285,2.688,5.973,5.972,5.973h7.934
				c3.285,0,5.973,2.688,5.973,5.973l0.001,7.933c0,3.285,2.688,5.973,5.973,5.973h66.646c3.285,0,5.973-2.688,5.973-5.973V46.13
				c0-3.285-2.688-5.972-5.973-5.972h-7.937c-3.285,0-5.973-2.688-5.973-5.972V26.25c0-3.285-2.688-5.972-5.973-5.972h-7.934
				c-3.285,0-5.973-2.688-5.973-5.972V6.373c0-3.285-2.688-5.972-5.973-5.972H26.488c-3.285,0-5.972,2.688-5.972,5.972v7.934
				c0,3.285-2.688,5.972-5.972,5.972H6.609c-3.285,0-5.972,2.688-5.972,5.972v27.814c0,3.285,2.688,5.973,5.972,5.973H15.473z"/>
		</g>
	</g>
	<g>
		<g>
			<linearGradient id="SVGID_1_" gradientUnits="userSpaceOnUse" x1="19.0991" y1="50.0986" x2="107.4551" y2="50.0986">
				<stop  offset="0" style="stop-color:#939599"/>
				<stop  offset="1" style="stop-color:#A0A2A5"/>
			</linearGradient>
			<path fill="url(#SVGID_1_)" d="M30.089,57.461c2.433,0,4.424,1.991,4.424,4.424v5.879c0,2.433,1.991,4.424,4.424,4.424h5.877
				c2.433,0,4.424,1.991,4.425,4.424l0.001,5.877c0,2.433,1.991,4.424,4.424,4.424h49.368c2.433,0,4.424-1.991,4.424-4.424V47.159
				c0-2.433-1.991-4.424-4.424-4.424h-5.88c-2.433,0-4.424-1.991-4.424-4.424v-5.878c0-2.433-1.991-4.424-4.424-4.424h-5.877
				c-2.433,0-4.424-1.991-4.424-4.424v-5.877c0-2.433-1.991-4.424-4.424-4.424H38.249c-2.433,0-4.424,1.991-4.424,4.424v5.877
				c0,2.433-1.991,4.424-4.424,4.424h-5.878c-2.433,0-4.424,1.991-4.424,4.424v20.604c0,2.433,1.991,4.424,4.424,4.424H30.089z"/>
		</g>
	</g>
	<g>
		<g>
			<linearGradient id="SVGID_2_" gradientUnits="userSpaceOnUse" x1="19.0991" y1="43.7783" x2="107.4551" y2="43.7783">
				<stop  offset="0" style="stop-color:#F0F0F0"/>
				<stop  offset="1" style="stop-color:#E8E8E8"/>
			</linearGradient>
			<path fill="url(#SVGID_2_)" d="M30.089,51.141c2.433,0,4.424,1.991,4.424,4.424v5.879c0,2.433,1.991,4.424,4.424,4.424h5.877
				c2.433,0,4.424,1.991,4.425,4.424l0.001,5.877c0,2.433,1.991,4.424,4.424,4.424h49.368c2.433,0,4.424-1.991,4.424-4.424V40.84
				c0-2.433-1.991-4.424-4.424-4.424h-5.88c-2.433,0-4.424-1.991-4.424-4.424v-5.879c0-2.433-1.991-4.424-4.424-4.424h-5.877
				c-2.433,0-4.424-1.991-4.424-4.424v-5.877c0-2.433-1.991-4.424-4.424-4.424H38.249c-2.433,0-4.424,1.991-4.424,4.424v5.877
				c0,2.433-1.991,4.424-4.424,4.424h-5.878c-2.433,0-4.424,1.991-4.424,4.424v20.604c0,2.433,1.991,4.424,4.424,4.424H30.089z"/>
		</g>
	</g>
	<g>
		<path fill="none" stroke="#CDCCCB" stroke-width="4.68" stroke-miterlimit="10" d="M49.237,72.248h27.207
			c2.573,0,4.68-2.105,4.68-4.68V55.845c0-2.574,2.106-4.681,4.68-4.681h21.651"/>
	</g>
	<g>
		<path fill="none" stroke="#FFFFFF" stroke-width="0.78" stroke-miterlimit="10" stroke-dasharray="2.34" d="M49.237,72.248h27.207
			c2.573,0,4.68-2.105,4.68-4.68V55.845c0-2.574,2.106-4.681,4.68-4.681h21.651"/>
	</g>
	<g>
		<linearGradient id="SVGID_3_" gradientUnits="userSpaceOnUse" x1="25.4956" y1="14.5273" x2="87.9844" y2="14.5273">
			<stop  offset="0" style="stop-color:#929497"/>
			<stop  offset="1" style="stop-color:#A0A1A5"/>
		</linearGradient>
		<polygon fill="url(#SVGID_3_)" points="55.261,6.747 25.496,6.747 25.496,9.859 25.496,12.971 25.496,16.083 25.496,19.196 
			25.496,22.308 55.261,22.308 87.984,22.308 87.984,19.196 87.984,16.083 87.984,12.971 87.984,9.859 87.984,6.747 		"/>
		<linearGradient id="SVGID_4_" gradientUnits="userSpaceOnUse" x1="25.4956" y1="4.7065" x2="87.9844" y2="4.7065">
			<stop  offset="0" style="stop-color:#7B7D81"/>
			<stop  offset="1" style="stop-color:#8A8A8E"/>
		</linearGradient>
		<polygon fill="url(#SVGID_4_)" points="55.261,2.667 25.496,2.667 25.496,3.482 25.496,4.299 25.496,5.115 25.496,5.931 
			25.496,6.747 55.261,6.747 87.984,6.747 87.984,5.931 87.984,5.115 87.984,4.299 87.984,3.482 87.984,2.667 		"/>
		<polygon fill="#FFFFFF" points="78.104,21.259 70.393,21.259 70.393,25.413 70.393,29.566 70.393,33.72 70.393,37.874 
			70.393,42.028 78.104,42.028 87.984,42.028 87.984,37.874 87.984,33.72 87.984,29.566 87.984,25.413 87.984,21.259 		"/>
		<linearGradient id="SVGID_5_" gradientUnits="userSpaceOnUse" x1="79.1885" y1="42.0278" x2="79.1885" y2="60.3491">
			<stop  offset="0" style="stop-color:#414142"/>
			<stop  offset="1" style="stop-color:#E7EAE4;stop-opacity:0"/>
		</linearGradient>
		<rect x="70.393" y="42.028" opacity="0.1" fill="url(#SVGID_5_)" width="17.592" height="18.321"/>
		<linearGradient id="SVGID_6_" gradientUnits="userSpaceOnUse" x1="31.6655" y1="42.0278" x2="31.6655" y2="60.3491">
			<stop  offset="0" style="stop-color:#414142"/>
			<stop  offset="1" style="stop-color:#E7EAE4;stop-opacity:0"/>
		</linearGradient>
		<rect x="25.496" y="42.028" opacity="0.1" fill="url(#SVGID_6_)" width="12.34" height="18.321"/>
		<linearGradient id="SVGID_7_" gradientUnits="userSpaceOnUse" x1="42.189" y1="48.5244" x2="42.189" y2="66.8472">
			<stop  offset="0" style="stop-color:#414142"/>
			<stop  offset="1" style="stop-color:#E7EAE4;stop-opacity:0"/>
		</linearGradient>
		<rect x="37.836" y="48.524" opacity="0.1" fill="url(#SVGID_7_)" width="8.707" height="18.322"/>
		<linearGradient id="SVGID_8_" gradientUnits="userSpaceOnUse" x1="58.4673" y1="52.8555" x2="58.4673" y2="71.7832">
			<stop  offset="0" style="stop-color:#414142"/>
			<stop  offset="1" style="stop-color:#E7EAE4;stop-opacity:0"/>
		</linearGradient>
		<rect x="46.542" y="52.855" opacity="0.1" fill="url(#SVGID_8_)" width="23.85" height="18.928"/>
		<linearGradient id="SVGID_9_" gradientUnits="userSpaceOnUse" x1="46.5425" y1="29.04" x2="50.894" y2="29.04">
			<stop  offset="0" style="stop-color:#929497"/>
			<stop  offset="1" style="stop-color:#A0A1A5"/>
		</linearGradient>
		<rect x="46.542" y="26.875" fill="url(#SVGID_9_)" width="4.352" height="4.33"/>
		<linearGradient id="SVGID_10_" gradientUnits="userSpaceOnUse" x1="50.894" y1="29.04" x2="55.2461" y2="29.04">
			<stop  offset="0" style="stop-color:#929497"/>
			<stop  offset="1" style="stop-color:#A0A1A5"/>
		</linearGradient>
		<rect x="50.894" y="26.875" fill="url(#SVGID_10_)" width="4.352" height="4.33"/>
		<linearGradient id="SVGID_11_" gradientUnits="userSpaceOnUse" x1="55.2461" y1="29.04" x2="59.5986" y2="29.04">
			<stop  offset="0" style="stop-color:#929497"/>
			<stop  offset="1" style="stop-color:#A0A1A5"/>
		</linearGradient>
		<rect x="55.246" y="26.875" fill="url(#SVGID_11_)" width="4.353" height="4.33"/>
		<linearGradient id="SVGID_12_" gradientUnits="userSpaceOnUse" x1="59.5986" y1="29.04" x2="63.9521" y2="29.04">
			<stop  offset="0" style="stop-color:#929497"/>
			<stop  offset="1" style="stop-color:#A0A1A5"/>
		</linearGradient>
		<rect x="59.599" y="26.875" fill="url(#SVGID_12_)" width="4.354" height="4.33"/>
		<linearGradient id="SVGID_13_" gradientUnits="userSpaceOnUse" x1="46.5425" y1="33.3701" x2="50.894" y2="33.3701">
			<stop  offset="0" style="stop-color:#F0F0F0"/>
			<stop  offset="1" style="stop-color:#E8E8E8"/>
		</linearGradient>
		<rect x="46.542" y="31.205" fill="url(#SVGID_13_)" width="4.352" height="4.33"/>
		<linearGradient id="SVGID_14_" gradientUnits="userSpaceOnUse" x1="50.894" y1="33.3701" x2="55.2461" y2="33.3701">
			<stop  offset="0" style="stop-color:#F0F0F0"/>
			<stop  offset="1" style="stop-color:#E8E8E8"/>
		</linearGradient>
		<rect x="50.894" y="31.205" fill="url(#SVGID_14_)" width="4.352" height="4.33"/>
		<linearGradient id="SVGID_15_" gradientUnits="userSpaceOnUse" x1="55.2461" y1="33.3701" x2="59.5986" y2="33.3701">
			<stop  offset="0" style="stop-color:#F0F0F0"/>
			<stop  offset="1" style="stop-color:#E8E8E8"/>
		</linearGradient>
		<rect x="55.246" y="31.205" fill="url(#SVGID_15_)" width="4.353" height="4.33"/>
		<linearGradient id="SVGID_16_" gradientUnits="userSpaceOnUse" x1="59.5986" y1="33.3701" x2="63.9521" y2="33.3701">
			<stop  offset="0" style="stop-color:#F0F0F0"/>
			<stop  offset="1" style="stop-color:#E8E8E8"/>
		</linearGradient>
		<rect x="59.599" y="31.205" fill="url(#SVGID_16_)" width="4.354" height="4.33"/>
		<rect x="63.952" y="35.535" fill="#3399CC" width="6.44" height="12.99"/>
		<linearGradient id="SVGID_17_" gradientUnits="userSpaceOnUse" x1="63.9521" y1="28.3965" x2="70.3926" y2="28.3965">
			<stop  offset="0" style="stop-color:#7B7D81"/>
			<stop  offset="1" style="stop-color:#8A8A8E"/>
		</linearGradient>
		<rect x="63.952" y="21.259" fill="url(#SVGID_17_)" width="6.44" height="14.276"/>
		<rect x="46.542" y="35.535" fill="#A9CB57" width="4.352" height="4.33"/>
		<linearGradient id="SVGID_18_" gradientUnits="userSpaceOnUse" x1="50.894" y1="37.6992" x2="55.2461" y2="37.6992">
			<stop  offset="0" style="stop-color:#929497"/>
			<stop  offset="1" style="stop-color:#A0A1A5"/>
		</linearGradient>
		<rect x="50.894" y="35.535" fill="url(#SVGID_18_)" width="4.352" height="4.33"/>
		<linearGradient id="SVGID_19_" gradientUnits="userSpaceOnUse" x1="55.2461" y1="37.6992" x2="59.5986" y2="37.6992">
			<stop  offset="0" style="stop-color:#F0F0F0"/>
			<stop  offset="1" style="stop-color:#E8E8E8"/>
		</linearGradient>
		<rect x="55.246" y="35.535" fill="url(#SVGID_19_)" width="4.353" height="4.33"/>
		<linearGradient id="SVGID_20_" gradientUnits="userSpaceOnUse" x1="59.5986" y1="37.6992" x2="63.9521" y2="37.6992">
			<stop  offset="0" style="stop-color:#929497"/>
			<stop  offset="1" style="stop-color:#A0A1A5"/>
		</linearGradient>
		<rect x="59.599" y="35.535" fill="url(#SVGID_20_)" width="4.354" height="4.33"/>
		<rect x="46.542" y="39.864" fill="#A9CB57" width="4.352" height="4.331"/>
		<rect x="50.894" y="39.864" fill="#A9CB57" width="4.352" height="4.331"/>
		<linearGradient id="SVGID_21_" gradientUnits="userSpaceOnUse" x1="55.2461" y1="42.0298" x2="59.5986" y2="42.0298">
			<stop  offset="0" style="stop-color:#F0F0F0"/>
			<stop  offset="1" style="stop-color:#E8E8E8"/>
		</linearGradient>
		<rect x="55.246" y="39.864" fill="url(#SVGID_21_)" width="4.353" height="4.331"/>
		<linearGradient id="SVGID_22_" gradientUnits="userSpaceOnUse" x1="59.5986" y1="42.0298" x2="63.9521" y2="42.0298">
			<stop  offset="0" style="stop-color:#F0F0F0"/>
			<stop  offset="1" style="stop-color:#E8E8E8"/>
		</linearGradient>
		<rect x="59.599" y="39.864" fill="url(#SVGID_22_)" width="4.354" height="4.331"/>
		<linearGradient id="SVGID_23_" gradientUnits="userSpaceOnUse" x1="46.5425" y1="46.3599" x2="50.894" y2="46.3599">
			<stop  offset="0" style="stop-color:#F0F0F0"/>
			<stop  offset="1" style="stop-color:#E8E8E8"/>
		</linearGradient>
		<rect x="46.542" y="44.195" fill="url(#SVGID_23_)" width="4.352" height="4.329"/>
		<linearGradient id="SVGID_24_" gradientUnits="userSpaceOnUse" x1="50.894" y1="46.3599" x2="55.2461" y2="46.3599">
			<stop  offset="0" style="stop-color:#929497"/>
			<stop  offset="1" style="stop-color:#A0A1A5"/>
		</linearGradient>
		<rect x="50.894" y="44.195" fill="url(#SVGID_24_)" width="4.352" height="4.329"/>
		<polygon fill="#E84C3D" points="42.189,26.875 37.836,26.875 37.836,31.205 37.836,35.535 37.836,39.864 37.836,44.195 
			37.836,48.524 42.189,48.524 46.542,48.524 46.542,44.195 46.542,39.864 46.542,35.535 46.542,31.205 46.542,26.875 		"/>
		<polygon fill="#FFFFFF" points="31.666,31.205 25.496,31.205 25.496,33.369 25.496,35.535 25.496,37.698 25.496,39.864 
			25.496,42.028 31.666,42.028 37.836,42.028 37.836,39.864 37.836,37.698 37.836,35.535 37.836,33.369 37.836,31.205 		"/>
		<linearGradient id="SVGID_25_" gradientUnits="userSpaceOnUse" x1="25.4956" y1="26.7568" x2="37.8359" y2="26.7568">
			<stop  offset="0" style="stop-color:#929497"/>
			<stop  offset="1" style="stop-color:#A0A1A5"/>
		</linearGradient>
		<polygon fill="url(#SVGID_25_)" points="31.666,22.308 25.496,22.308 25.496,24.088 25.496,25.867 25.496,27.646 25.496,29.425 
			25.496,31.205 31.666,31.205 37.836,31.205 37.836,29.425 37.836,27.646 37.836,25.867 37.836,24.088 37.836,22.308 		"/>
		<polygon fill="#FFFFFF" points="31.666,13.412 25.496,13.412 25.496,15.191 25.496,16.97 25.496,18.749 25.496,20.529 
			25.496,22.308 31.666,22.308 37.836,22.308 37.836,20.529 37.836,18.749 37.836,16.97 37.836,15.191 37.836,13.412 		"/>
		<rect x="55.246" y="44.195" fill="#A9CB57" width="4.353" height="4.329"/>
		<linearGradient id="SVGID_26_" gradientUnits="userSpaceOnUse" x1="59.5986" y1="46.3599" x2="63.9521" y2="46.3599">
			<stop  offset="0" style="stop-color:#F0F0F0"/>
			<stop  offset="1" style="stop-color:#E8E8E8"/>
		</linearGradient>
		<rect x="59.599" y="44.195" fill="url(#SVGID_26_)" width="4.354" height="4.329"/>
		<linearGradient id="SVGID_27_" gradientUnits="userSpaceOnUse" x1="46.5425" y1="50.6899" x2="50.894" y2="50.6899">
			<stop  offset="0" style="stop-color:#F0F0F0"/>
			<stop  offset="1" style="stop-color:#E8E8E8"/>
		</linearGradient>
		<rect x="46.542" y="48.524" fill="url(#SVGID_27_)" width="4.352" height="4.331"/>
		<linearGradient id="SVGID_28_" gradientUnits="userSpaceOnUse" x1="50.894" y1="50.6899" x2="55.2461" y2="50.6899">
			<stop  offset="0" style="stop-color:#F0F0F0"/>
			<stop  offset="1" style="stop-color:#E8E8E8"/>
		</linearGradient>
		<rect x="50.894" y="48.524" fill="url(#SVGID_28_)" width="4.352" height="4.331"/>
		<linearGradient id="SVGID_29_" gradientUnits="userSpaceOnUse" x1="55.2461" y1="50.6899" x2="59.5986" y2="50.6899">
			<stop  offset="0" style="stop-color:#F0F0F0"/>
			<stop  offset="1" style="stop-color:#E8E8E8"/>
		</linearGradient>
		<polygon fill="url(#SVGID_29_)" points="59.599,48.524 55.246,48.524 55.246,52.855 59.599,50.689 		"/>
		<linearGradient id="SVGID_30_" gradientUnits="userSpaceOnUse" x1="59.5986" y1="49.6069" x2="63.9521" y2="49.6069">
			<stop  offset="0" style="stop-color:#F0F0F0"/>
			<stop  offset="1" style="stop-color:#E8E8E8"/>
		</linearGradient>
		<polygon fill="url(#SVGID_30_)" points="63.952,48.524 59.599,48.524 59.599,50.689 		"/>
		<linearGradient id="SVGID_31_" gradientUnits="userSpaceOnUse" x1="55.2461" y1="50.6899" x2="70.3926" y2="50.6899">
			<stop  offset="0" style="stop-color:#929497"/>
			<stop  offset="1" style="stop-color:#A0A1A5"/>
		</linearGradient>
		<polygon fill="url(#SVGID_31_)" points="63.952,48.524 59.599,50.689 55.246,52.855 59.599,52.855 63.952,52.855 70.393,52.855 
			70.393,48.524 		"/>
		<g>
			<path fill="#FFFFFF" d="M49.515,36.766c0.151,0.132,0.228,0.321,0.228,0.566c0,0.247-0.077,0.436-0.228,0.566
				c-0.152,0.133-0.364,0.198-0.636,0.198h-0.406v0.874h-0.441v-2.403h0.847C49.151,36.568,49.363,36.634,49.515,36.766z
				 M48.879,37.716c0.137,0,0.24-0.035,0.307-0.106c0.071-0.072,0.105-0.164,0.105-0.277c0-0.111-0.034-0.205-0.105-0.278
				c-0.067-0.071-0.17-0.108-0.307-0.108h-0.406v0.77H48.879z"/>
		</g>
		<g>
			<path fill="#FFFFFF" d="M53.026,36.52c0.16,0,0.309,0.027,0.439,0.079c0.135,0.053,0.25,0.131,0.346,0.235
				c0.201,0.218,0.303,0.528,0.303,0.934c0,0.407-0.102,0.723-0.303,0.944c-0.192,0.207-0.455,0.311-0.789,0.311
				c-0.331,0-0.591-0.106-0.784-0.318c-0.202-0.219-0.304-0.531-0.304-0.937c0-0.41,0.102-0.723,0.304-0.94
				C52.428,36.621,52.691,36.52,53.026,36.52z M53.664,37.772c0-0.274-0.058-0.487-0.173-0.636c-0.113-0.15-0.268-0.224-0.464-0.224
				c-0.196,0-0.351,0.074-0.466,0.224c-0.117,0.149-0.175,0.362-0.175,0.636c0,0.276,0.059,0.488,0.175,0.634
				c0.115,0.147,0.27,0.22,0.466,0.22c0.196,0,0.351-0.073,0.464-0.22C53.606,38.26,53.664,38.049,53.664,37.772z"/>
		</g>
		<g>
			<path fill="#FFFFFF" d="M48.48,42.847h0.988v0.382h-1.426v-2.404h0.438V42.847z"/>
		</g>
		<g>
			<path fill="#FFFFFF" d="M52.853,40.826h0.438v2.404h-0.438V40.826z"/>
		</g>
		<g>
			<path fill="#FFFFFF" d="M52.422,45.085l0.66,1.428l0.658-1.428h0.604v2.403h-0.441v-1.827l-0.681,1.563h-0.285l-0.705-1.615
				v1.878h-0.437v-2.403H52.422z"/>
		</g>
		<g>
			<path fill="#FFFFFF" d="M57.203,45.085h0.438v2.403h-0.438V45.085z"/>
		</g>
		<linearGradient id="SVGID_32_" gradientUnits="userSpaceOnUse" x1="37.8359" y1="22.3086" x2="63.9521" y2="22.3086">
			<stop  offset="0" style="stop-color:#7B7D81"/>
			<stop  offset="1" style="stop-color:#8A8A8E"/>
		</linearGradient>
		<rect x="37.836" y="17.741" fill="url(#SVGID_32_)" width="26.116" height="9.134"/>
		<linearGradient id="SVGID_33_" gradientUnits="userSpaceOnUse" x1="27.2065" y1="35.5342" x2="36.4136" y2="35.5342">
			<stop  offset="0" style="stop-color:#F0F0F0"/>
			<stop  offset="1" style="stop-color:#E8E8E8"/>
		</linearGradient>
		<rect x="27.207" y="32.861" fill="url(#SVGID_33_)" width="9.207" height="5.347"/>
		<rect x="76.502" y="35.535" fill="#1E1E1C" width="5.37" height="6.493"/>
		<linearGradient id="SVGID_34_" gradientUnits="userSpaceOnUse" x1="72.6533" y1="28.6865" x2="85.7236" y2="28.6865">
			<stop  offset="0" style="stop-color:#F0F0F0"/>
			<stop  offset="1" style="stop-color:#E8E8E8"/>
		</linearGradient>
		<rect x="72.653" y="24.989" fill="url(#SVGID_34_)" width="13.07" height="7.394"/>
		<linearGradient id="SVGID_35_" gradientUnits="userSpaceOnUse" x1="27.2065" y1="17.7412" x2="36.4136" y2="17.7412">
			<stop  offset="0" style="stop-color:#F0F0F0"/>
			<stop  offset="1" style="stop-color:#E8E8E8"/>
		</linearGradient>
		<rect x="27.207" y="15.067" fill="url(#SVGID_35_)" width="9.207" height="5.347"/>
		<linearGradient id="SVGID_36_" gradientUnits="userSpaceOnUse" x1="31.6655" y1="22.4824" x2="31.6655" y2="30.2573">
			<stop  offset="0" style="stop-color:#414142"/>
			<stop  offset="1" style="stop-color:#E7EAE4;stop-opacity:0"/>
		</linearGradient>
		<rect x="25.496" y="22.482" opacity="0.1" fill="url(#SVGID_36_)" width="12.34" height="7.775"/>
	</g>
	<g>
		<g opacity="0.1">
			<linearGradient id="SVGID_37_" gradientUnits="userSpaceOnUse" x1="97.998" y1="43.4067" x2="97.998" y2="51.856">
				<stop  offset="0" style="stop-color:#414142"/>
				<stop  offset="1" style="stop-color:#E7EAE4;stop-opacity:0"/>
			</linearGradient>
			<line fill="url(#SVGID_37_)" x1="97.998" y1="43.407" x2="97.998" y2="51.855"/>
			<linearGradient id="SVGID_38_" gradientUnits="userSpaceOnUse" x1="97.998" y1="42.9648" x2="97.998" y2="52.2974">
				<stop  offset="0" style="stop-color:#414142"/>
				<stop  offset="1" style="stop-color:#E7EAE4;stop-opacity:0"/>
			</linearGradient>
			<path fill="url(#SVGID_38_)" d="M97.998,52.297c-0.208,0-0.374-0.198-0.374-0.441v-8.449c0-0.244,0.166-0.442,0.374-0.442
				c0.205,0,0.373,0.198,0.373,0.442v8.449C98.371,52.099,98.203,52.297,97.998,52.297z"/>
		</g>
		<linearGradient id="SVGID_39_" gradientUnits="userSpaceOnUse" x1="92.3438" y1="35.3818" x2="103.6523" y2="35.3818">
			<stop  offset="0" style="stop-color:#D2BAA8"/>
			<stop  offset="1" style="stop-color:#D7C0AE"/>
		</linearGradient>
		<circle fill="url(#SVGID_39_)" cx="97.998" cy="35.381" r="5.654"/>
		
			<line fill="none" stroke="#010202" stroke-width="0.624" stroke-linecap="round" stroke-miterlimit="10" x1="97.998" y1="43.863" x2="97.998" y2="33.632"/>
		
			<line fill="none" stroke="#010202" stroke-width="0.624" stroke-linecap="round" stroke-miterlimit="10" x1="97.998" y1="37.872" x2="96.067" y2="35.943"/>
		
			<line fill="none" stroke="#010202" stroke-width="0.624" stroke-linecap="round" stroke-miterlimit="10" x1="97.998" y1="37.872" x2="99.927" y2="35.943"/>
	</g>
	<g>
		<g opacity="0.1">
			<linearGradient id="SVGID_40_" gradientUnits="userSpaceOnUse" x1="55.8545" y1="65.377" x2="55.8545" y2="73.8242">
				<stop  offset="0" style="stop-color:#414142"/>
				<stop  offset="1" style="stop-color:#E7EAE4;stop-opacity:0"/>
			</linearGradient>
			<line fill="url(#SVGID_40_)" x1="55.854" y1="65.377" x2="55.854" y2="73.824"/>
			<linearGradient id="SVGID_41_" gradientUnits="userSpaceOnUse" x1="55.853" y1="64.9346" x2="55.853" y2="74.2656">
				<stop  offset="0" style="stop-color:#414142"/>
				<stop  offset="1" style="stop-color:#E7EAE4;stop-opacity:0"/>
			</linearGradient>
			<path fill="url(#SVGID_41_)" d="M55.854,74.266c-0.208,0-0.375-0.197-0.375-0.441v-8.447c0-0.244,0.167-0.442,0.375-0.442
				c0.205,0,0.372,0.198,0.372,0.442v8.447C56.227,74.068,56.06,74.266,55.854,74.266z"/>
		</g>
		<linearGradient id="SVGID_42_" gradientUnits="userSpaceOnUse" x1="50.1987" y1="57.3516" x2="61.5078" y2="57.3516">
			<stop  offset="0" style="stop-color:#D2BAA8"/>
			<stop  offset="1" style="stop-color:#D7C0AE"/>
		</linearGradient>
		<path fill="url(#SVGID_42_)" d="M61.508,57.35c0,3.125-2.531,5.656-5.653,5.656c-3.125,0-5.656-2.531-5.656-5.656
			c0-3.121,2.531-5.652,5.656-5.652C58.977,51.697,61.508,54.229,61.508,57.35z"/>
		
			<line fill="none" stroke="#010202" stroke-width="0.624" stroke-linecap="round" stroke-miterlimit="10" x1="55.854" y1="65.831" x2="55.854" y2="55.602"/>
		
			<line fill="none" stroke="#010202" stroke-width="0.624" stroke-linecap="round" stroke-miterlimit="10" x1="55.854" y1="59.842" x2="53.923" y2="57.912"/>
		
			<line fill="none" stroke="#010202" stroke-width="0.624" stroke-linecap="round" stroke-miterlimit="10" x1="55.854" y1="59.842" x2="57.783" y2="57.912"/>
	</g>
	<g>
		<g opacity="0.1">
			<linearGradient id="SVGID_43_" gradientUnits="userSpaceOnUse" x1="69.8857" y1="65.0049" x2="69.8857" y2="73.4512">
				<stop  offset="0" style="stop-color:#414142"/>
				<stop  offset="1" style="stop-color:#E7EAE4;stop-opacity:0"/>
			</linearGradient>
			<line fill="url(#SVGID_43_)" x1="69.886" y1="65.005" x2="69.886" y2="73.451"/>
			<linearGradient id="SVGID_44_" gradientUnits="userSpaceOnUse" x1="69.8848" y1="64.5645" x2="69.8848" y2="73.8945">
				<stop  offset="0" style="stop-color:#414142"/>
				<stop  offset="1" style="stop-color:#E7EAE4;stop-opacity:0"/>
			</linearGradient>
			<path fill="url(#SVGID_44_)" d="M69.886,73.895c-0.206,0-0.373-0.199-0.373-0.443v-8.446c0-0.243,0.167-0.44,0.373-0.44
				c0.207,0,0.372,0.197,0.372,0.44v8.446C70.258,73.695,70.093,73.895,69.886,73.895z"/>
		</g>
		<g>
			<circle fill="#FFFFFF" cx="69.886" cy="56.98" r="5.653"/>
			<linearGradient id="SVGID_45_" gradientUnits="userSpaceOnUse" x1="69.418" y1="60.3438" x2="70.3535" y2="60.3438">
				<stop  offset="0" style="stop-color:#D2BAA8"/>
				<stop  offset="1" style="stop-color:#D7C0AE"/>
			</linearGradient>
			
				<line fill="none" stroke="url(#SVGID_45_)" stroke-width="0.936" stroke-linecap="round" stroke-miterlimit="10" x1="69.886" y1="65.459" x2="69.886" y2="55.229"/>
			<linearGradient id="SVGID_46_" gradientUnits="userSpaceOnUse" x1="67.6455" y1="58.5039" x2="70.1973" y2="58.5039">
				<stop  offset="0" style="stop-color:#D2BAA8"/>
				<stop  offset="1" style="stop-color:#D7C0AE"/>
			</linearGradient>
			
				<line fill="none" stroke="url(#SVGID_46_)" stroke-width="0.624" stroke-linecap="round" stroke-miterlimit="10" x1="69.886" y1="59.469" x2="67.957" y2="57.54"/>
			<linearGradient id="SVGID_47_" gradientUnits="userSpaceOnUse" x1="69.5742" y1="58.5039" x2="72.1279" y2="58.5039">
				<stop  offset="0" style="stop-color:#D2BAA8"/>
				<stop  offset="1" style="stop-color:#D7C0AE"/>
			</linearGradient>
			
				<line fill="none" stroke="url(#SVGID_47_)" stroke-width="0.624" stroke-linecap="round" stroke-miterlimit="10" x1="69.886" y1="59.469" x2="71.816" y2="57.54"/>
		</g>
	</g>
	<g>
		<g opacity="0.1">
			<linearGradient id="SVGID_48_" gradientUnits="userSpaceOnUse" x1="93.124" y1="74.709" x2="93.124" y2="83.1563">
				<stop  offset="0" style="stop-color:#414142"/>
				<stop  offset="1" style="stop-color:#E7EAE4;stop-opacity:0"/>
			</linearGradient>
			<line fill="url(#SVGID_48_)" x1="93.124" y1="74.709" x2="93.124" y2="83.156"/>
			<linearGradient id="SVGID_49_" gradientUnits="userSpaceOnUse" x1="93.123" y1="74.2676" x2="93.123" y2="83.5986">
				<stop  offset="0" style="stop-color:#414142"/>
				<stop  offset="1" style="stop-color:#E7EAE4;stop-opacity:0"/>
			</linearGradient>
			<path fill="url(#SVGID_49_)" d="M93.124,83.599c-0.208,0-0.375-0.199-0.375-0.442v-8.447c0-0.244,0.167-0.441,0.375-0.441
				c0.205,0,0.372,0.197,0.372,0.441v8.447C93.496,83.399,93.329,83.599,93.124,83.599z"/>
		</g>
		<linearGradient id="SVGID_50_" gradientUnits="userSpaceOnUse" x1="87.4688" y1="66.3906" x2="98.7773" y2="66.3906">
			<stop  offset="0" style="stop-color:#D2BAA8"/>
			<stop  offset="1" style="stop-color:#D7C0AE"/>
		</linearGradient>
		<circle fill="url(#SVGID_50_)" cx="93.123" cy="66.391" r="5.654"/>
		<linearGradient id="SVGID_51_" gradientUnits="userSpaceOnUse" x1="87.4688" y1="60.25" x2="98.7773" y2="60.25">
			<stop  offset="0" style="stop-color:#D2BAA8"/>
			<stop  offset="1" style="stop-color:#D7C0AE"/>
		</linearGradient>
		<circle fill="url(#SVGID_51_)" cx="93.123" cy="60.25" r="5.654"/>
		
			<line fill="none" stroke="#010202" stroke-width="0.624" stroke-linecap="round" stroke-miterlimit="10" x1="93.121" y1="74.871" x2="93.121" y2="57.236"/>
		
			<line fill="none" stroke="#010202" stroke-width="0.624" stroke-linecap="round" stroke-miterlimit="10" x1="93.121" y1="68.88" x2="91.192" y2="66.951"/>
		
			<line fill="none" stroke="#010202" stroke-width="0.624" stroke-linecap="round" stroke-miterlimit="10" x1="93.121" y1="68.88" x2="95.053" y2="66.951"/>
		
			<line fill="none" stroke="#010202" stroke-width="0.624" stroke-linecap="round" stroke-miterlimit="10" x1="93.121" y1="62.18" x2="91.192" y2="60.25"/>
		
			<line fill="none" stroke="#010202" stroke-width="0.624" stroke-linecap="round" stroke-miterlimit="10" x1="93.121" y1="62.18" x2="95.053" y2="60.25"/>
	</g>
</g>
</svg>
