<?xml version="1.0" encoding="utf-8"?>
<!-- Generator: Adobe Illustrator 16.0.0, SVG Export Plug-In . SVG Version: 6.00 Build 0)  -->
<!DOCTYPE svg PUBLIC "-//W3C//DTD SVG 1.1//EN" "http://www.w3.org/Graphics/SVG/1.1/DTD/svg11.dtd">
<svg version="1.1" id="Livello_1" xmlns="http://www.w3.org/2000/svg" xmlns:xlink="http://www.w3.org/1999/xlink" x="0px" y="0px"
	 width="133px" height="100px" viewBox="0 0 133 100" enable-background="new 0 0 133 100" xml:space="preserve">
<g>
	<g>
		<path fill="#98D0D9" d="M39.78,14.767c0,3.285-2.688,5.972-5.973,5.972h-7.934c-3.285,0-5.973,2.688-5.973,5.972v27.812
			c0,3.285-2.688,5.973-5.973,5.973H5.994c-3.285,0-5.973,2.688-5.973,5.973v27.814c0,3.285,2.688,5.973,5.973,5.973h99.96
			c3.285,0,5.973-2.688,5.973-5.973V86.35c0-3.285,2.688-5.973,5.973-5.973h7.933c3.285-0.001,5.973-2.688,5.973-5.973V26.711
			c0-3.285-2.688-5.972-5.973-5.972h-20.438c-3.285,0-5.973-2.688-5.973-5.972V6.832c0-3.285-2.688-5.972-5.973-5.972H45.753
			c-3.285,0-5.973,2.688-5.973,5.972V14.767z"/>
	</g>
	<g>
		
			<linearGradient id="SVGID_1_" gradientUnits="userSpaceOnUse" x1="2100.2695" y1="-3042.6211" x2="2173.8965" y2="-3042.6211" gradientTransform="matrix(0 -1 1 0 3108.5342 2187.6406)">
			<stop  offset="0" style="stop-color:#939599"/>
			<stop  offset="1" style="stop-color:#A0A2A5"/>
		</linearGradient>
		<path fill="url(#SVGID_1_)" d="M46.556,24.046c0,2.433-1.991,4.424-4.424,4.424h-5.878c-2.433,0-4.424,1.991-4.424,4.424v20.602
			c0,2.433-1.991,4.424-4.424,4.424h-5.878c-2.433,0-4.424,1.991-4.424,4.424v20.604c0,2.433,1.991,4.424,4.424,4.424h74.045
			c2.433,0,4.424-1.991,4.424-4.424V77.07c0-2.433,1.991-4.424,4.424-4.424l5.877-0.001c2.433,0,4.424-1.991,4.424-4.424V32.894
			c0-2.433-1.991-4.424-4.424-4.424H95.157c-2.433,0-4.424-1.991-4.424-4.424v-5.878c0-2.433-1.991-4.424-4.424-4.424h-35.33
			c-2.433,0-4.424,1.991-4.424,4.424V24.046z"/>
	</g>
	<g>
		
			<linearGradient id="SVGID_2_" gradientUnits="userSpaceOnUse" x1="2106.5078" y1="-3042.6211" x2="2180.1348" y2="-3042.6211" gradientTransform="matrix(0 -1 1 0 3108.5342 2187.6406)">
			<stop  offset="0" style="stop-color:#F0F0F0"/>
			<stop  offset="1" style="stop-color:#E8E8E8"/>
		</linearGradient>
		<path fill="url(#SVGID_2_)" d="M46.556,17.808c0,2.433-1.991,4.424-4.424,4.424h-5.878c-2.433,0-4.424,1.991-4.424,4.424v20.602
			c0,2.433-1.991,4.424-4.424,4.424h-5.878c-2.433,0-4.424,1.991-4.424,4.424v20.604c0,2.433,1.991,4.424,4.424,4.424h74.045
			c2.433,0,4.424-1.991,4.424-4.424v-5.877c0-2.434,1.991-4.424,4.424-4.425l5.877-0.001c2.433,0,4.424-1.99,4.424-4.424V26.655
			c0-2.433-1.991-4.424-4.424-4.424H95.157c-2.433,0-4.424-1.991-4.424-4.424v-5.878c0-2.433-1.991-4.424-4.424-4.424h-35.33
			c-2.433,0-4.424,1.991-4.424,4.424V17.808z"/>
	</g>
	<g>
		<g opacity="0.1">
			<linearGradient id="SVGID_3_" gradientUnits="userSpaceOnUse" x1="58.3174" y1="18.7251" x2="58.3174" y2="27.1743">
				<stop  offset="0" style="stop-color:#414142"/>
				<stop  offset="1" style="stop-color:#E7EAE4;stop-opacity:0"/>
			</linearGradient>
			<line fill="url(#SVGID_3_)" x1="58.317" y1="18.725" x2="58.317" y2="27.174"/>
			<linearGradient id="SVGID_4_" gradientUnits="userSpaceOnUse" x1="58.3159" y1="18.2847" x2="58.3159" y2="27.6147">
				<stop  offset="0" style="stop-color:#414142"/>
				<stop  offset="1" style="stop-color:#E7EAE4;stop-opacity:0"/>
			</linearGradient>
			<path fill="url(#SVGID_4_)" d="M58.317,27.615c-0.208,0-0.375-0.197-0.375-0.44v-8.449c0-0.244,0.167-0.44,0.375-0.44
				c0.206,0,0.372,0.197,0.372,0.44v8.449C58.689,27.418,58.523,27.615,58.317,27.615z"/>
		</g>
		<linearGradient id="SVGID_5_" gradientUnits="userSpaceOnUse" x1="52.6611" y1="10.7012" x2="63.9697" y2="10.7012">
			<stop  offset="0" style="stop-color:#D2BAA8"/>
			<stop  offset="1" style="stop-color:#D7C0AE"/>
		</linearGradient>
		<circle fill="url(#SVGID_5_)" cx="58.315" cy="10.7" r="5.654"/>
		
			<line fill="none" stroke="#010202" stroke-width="0.624" stroke-linecap="round" stroke-miterlimit="10" x1="58.317" y1="19.181" x2="58.317" y2="8.952"/>
		
			<line fill="none" stroke="#010202" stroke-width="0.624" stroke-linecap="round" stroke-miterlimit="10" x1="58.317" y1="13.191" x2="56.386" y2="11.263"/>
		
			<line fill="none" stroke="#010202" stroke-width="0.624" stroke-linecap="round" stroke-miterlimit="10" x1="58.317" y1="13.191" x2="60.246" y2="11.263"/>
	</g>
	<g>
		<g>
			<linearGradient id="SVGID_6_" gradientUnits="userSpaceOnUse" x1="39.75" y1="45.6328" x2="66.9023" y2="45.6328">
				<stop  offset="0" style="stop-color:#CDCFD4"/>
				<stop  offset="1" style="stop-color:#DBDCE2"/>
			</linearGradient>
			<rect x="39.75" y="28.514" fill="url(#SVGID_6_)" width="27.152" height="34.238"/>
			<linearGradient id="SVGID_7_" gradientUnits="userSpaceOnUse" x1="39.75" y1="26.1162" x2="66.9023" y2="26.1162">
				<stop  offset="0" style="stop-color:#7B7D81"/>
				<stop  offset="1" style="stop-color:#8A8A8E"/>
			</linearGradient>
			<rect x="39.75" y="23.727" fill="url(#SVGID_7_)" width="27.152" height="4.779"/>
			<linearGradient id="SVGID_8_" gradientUnits="userSpaceOnUse" x1="39.75" y1="28.0591" x2="66.9023" y2="28.0591">
				<stop  offset="0" style="stop-color:#929497"/>
				<stop  offset="1" style="stop-color:#A0A1A5"/>
			</linearGradient>
			<rect x="39.75" y="25.669" fill="url(#SVGID_8_)" width="27.152" height="4.779"/>
			<linearGradient id="SVGID_9_" gradientUnits="userSpaceOnUse" x1="47.2451" y1="36.1929" x2="47.2451" y2="45.5376">
				<stop  offset="0" style="stop-color:#414142"/>
				<stop  offset="1" style="stop-color:#E7EAE4;stop-opacity:0"/>
			</linearGradient>
			<rect x="39.75" y="36.193" opacity="0.1" fill="url(#SVGID_9_)" width="14.99" height="9.345"/>
			<linearGradient id="SVGID_10_" gradientUnits="userSpaceOnUse" x1="46.8901" y1="62.752" x2="46.8901" y2="72.0977">
				<stop  offset="0" style="stop-color:#414142"/>
				<stop  offset="1" style="stop-color:#E7EAE4;stop-opacity:0"/>
			</linearGradient>
			<rect x="42.579" y="62.752" opacity="0.1" fill="url(#SVGID_10_)" width="8.622" height="9.346"/>
			<linearGradient id="SVGID_11_" gradientUnits="userSpaceOnUse" x1="59.0195" y1="62.752" x2="59.0195" y2="66.0684">
				<stop  offset="0" style="stop-color:#414142"/>
				<stop  offset="1" style="stop-color:#E7EAE4;stop-opacity:0"/>
			</linearGradient>
			<rect x="51.143" y="62.752" opacity="0.1" fill="url(#SVGID_11_)" width="15.754" height="3.316"/>
			<rect x="42.579" y="57.074" fill="#E55B54" width="8.622" height="5.678"/>
			<linearGradient id="SVGID_12_" gradientUnits="userSpaceOnUse" x1="59.0518" y1="56.5273" x2="59.0518" y2="54.9707">
				<stop  offset="0" style="stop-color:#F0F0F0"/>
				<stop  offset="1" style="stop-color:#DEDEDE"/>
			</linearGradient>
			<rect x="51.201" y="54.971" fill="url(#SVGID_12_)" width="15.701" height="1.557"/>
			<linearGradient id="SVGID_13_" gradientUnits="userSpaceOnUse" x1="59.0518" y1="58.084" x2="59.0518" y2="56.5273">
				<stop  offset="0" style="stop-color:#F0F0F0"/>
				<stop  offset="1" style="stop-color:#DEDEDE"/>
			</linearGradient>
			<rect x="51.201" y="56.527" fill="url(#SVGID_13_)" width="15.701" height="1.557"/>
			<linearGradient id="SVGID_14_" gradientUnits="userSpaceOnUse" x1="59.0518" y1="59.6406" x2="59.0518" y2="58.084">
				<stop  offset="0" style="stop-color:#F0F0F0"/>
				<stop  offset="1" style="stop-color:#DEDEDE"/>
			</linearGradient>
			<rect x="51.201" y="58.084" fill="url(#SVGID_14_)" width="15.701" height="1.557"/>
			<linearGradient id="SVGID_15_" gradientUnits="userSpaceOnUse" x1="59.0518" y1="61.1963" x2="59.0518" y2="59.6406">
				<stop  offset="0" style="stop-color:#F0F0F0"/>
				<stop  offset="1" style="stop-color:#DEDEDE"/>
			</linearGradient>
			<rect x="51.201" y="59.641" fill="url(#SVGID_15_)" width="15.701" height="1.556"/>
			<linearGradient id="SVGID_16_" gradientUnits="userSpaceOnUse" x1="59.0518" y1="62.752" x2="59.0518" y2="61.1963">
				<stop  offset="0" style="stop-color:#F0F0F0"/>
				<stop  offset="1" style="stop-color:#DEDEDE"/>
			</linearGradient>
			<rect x="51.201" y="61.196" fill="url(#SVGID_16_)" width="15.701" height="1.556"/>
			<linearGradient id="SVGID_17_" gradientUnits="userSpaceOnUse" x1="54.7402" y1="34.0396" x2="55.4531" y2="34.0396">
				<stop  offset="0" style="stop-color:#7B7D81"/>
				<stop  offset="1" style="stop-color:#8A8A8E"/>
			</linearGradient>
			<rect x="54.74" y="20.982" fill="url(#SVGID_17_)" width="0.713" height="26.115"/>
			<linearGradient id="SVGID_18_" gradientUnits="userSpaceOnUse" x1="55.4531" y1="27.2422" x2="61.1777" y2="27.2422">
				<stop  offset="0" style="stop-color:#929497"/>
				<stop  offset="1" style="stop-color:#A0A1A5"/>
			</linearGradient>
			<rect x="55.453" y="25.669" fill="url(#SVGID_18_)" width="5.725" height="3.146"/>
			<linearGradient id="SVGID_19_" gradientUnits="userSpaceOnUse" x1="55.4531" y1="34.0396" x2="61.1777" y2="34.0396">
				<stop  offset="0" style="stop-color:#929497"/>
				<stop  offset="1" style="stop-color:#A0A1A5"/>
			</linearGradient>
			<rect x="55.453" y="32.466" fill="url(#SVGID_19_)" width="5.725" height="3.146"/>
			<linearGradient id="SVGID_20_" gradientUnits="userSpaceOnUse" x1="61.1777" y1="32.0215" x2="66.9023" y2="32.0215">
				<stop  offset="0" style="stop-color:#929497"/>
				<stop  offset="1" style="stop-color:#A0A1A5"/>
			</linearGradient>
			<rect x="61.178" y="30.449" fill="url(#SVGID_20_)" width="5.725" height="3.145"/>
			<linearGradient id="SVGID_21_" gradientUnits="userSpaceOnUse" x1="55.4531" y1="40.7681" x2="61.1777" y2="40.7681">
				<stop  offset="0" style="stop-color:#929497"/>
				<stop  offset="1" style="stop-color:#A0A1A5"/>
			</linearGradient>
			<rect x="55.453" y="39.195" fill="url(#SVGID_21_)" width="5.725" height="3.146"/>
			<linearGradient id="SVGID_22_" gradientUnits="userSpaceOnUse" x1="61.1777" y1="38.9189" x2="66.9023" y2="38.9189">
				<stop  offset="0" style="stop-color:#929497"/>
				<stop  offset="1" style="stop-color:#A0A1A5"/>
			</linearGradient>
			<rect x="61.178" y="37.175" fill="url(#SVGID_22_)" width="5.725" height="3.487"/>
			<linearGradient id="SVGID_23_" gradientUnits="userSpaceOnUse" x1="61.1777" y1="45.5605" x2="66.9023" y2="45.5605">
				<stop  offset="0" style="stop-color:#929497"/>
				<stop  offset="1" style="stop-color:#A0A1A5"/>
			</linearGradient>
			<rect x="61.178" y="43.987" fill="url(#SVGID_23_)" width="5.725" height="3.146"/>
			<linearGradient id="SVGID_24_" gradientUnits="userSpaceOnUse" x1="54.7402" y1="35.4053" x2="66.9023" y2="35.4053">
				<stop  offset="0" style="stop-color:#7B7D81"/>
				<stop  offset="1" style="stop-color:#8A8A8E"/>
			</linearGradient>
			<rect x="54.74" y="33.594" fill="url(#SVGID_24_)" width="12.162" height="3.624"/>
			<linearGradient id="SVGID_25_" gradientUnits="userSpaceOnUse" x1="54.7402" y1="42.1758" x2="66.9023" y2="42.1758">
				<stop  offset="0" style="stop-color:#7B7D81"/>
				<stop  offset="1" style="stop-color:#8A8A8E"/>
			</linearGradient>
			<rect x="54.74" y="40.364" fill="url(#SVGID_25_)" width="12.162" height="3.624"/>
			<linearGradient id="SVGID_26_" gradientUnits="userSpaceOnUse" x1="54.7402" y1="28.6367" x2="66.9023" y2="28.6367">
				<stop  offset="0" style="stop-color:#7B7D81"/>
				<stop  offset="1" style="stop-color:#8A8A8E"/>
			</linearGradient>
			<rect x="54.74" y="26.825" fill="url(#SVGID_26_)" width="12.162" height="3.624"/>
			<linearGradient id="SVGID_27_" gradientUnits="userSpaceOnUse" x1="64.04" y1="47.1338" x2="64.04" y2="54.2075">
				<stop  offset="0" style="stop-color:#414142"/>
				<stop  offset="1" style="stop-color:#E7EAE4;stop-opacity:0"/>
			</linearGradient>
			<rect x="61.178" y="47.134" opacity="0.1" fill="url(#SVGID_27_)" width="5.725" height="7.073"/>
			<linearGradient id="SVGID_28_" gradientUnits="userSpaceOnUse" x1="55.0967" y1="47.1338" x2="55.0967" y2="54.2075">
				<stop  offset="0" style="stop-color:#414142"/>
				<stop  offset="1" style="stop-color:#E7EAE4;stop-opacity:0"/>
			</linearGradient>
			<rect x="54.74" y="47.134" opacity="0.1" fill="url(#SVGID_28_)" width="0.713" height="7.073"/>
			<rect x="66.896" y="60.768" fill="#E55B54" width="27.189" height="1.984"/>
			<rect x="66.896" y="54.578" fill="#3399CC" width="27.189" height="6.189"/>
			<linearGradient id="SVGID_29_" gradientUnits="userSpaceOnUse" x1="68.1035" y1="58.7031" x2="72.7788" y2="54.0279">
				<stop  offset="0" style="stop-color:#CDCFD4"/>
				<stop  offset="1" style="stop-color:#DBDCE2"/>
			</linearGradient>
			<rect x="68.632" y="53.498" fill="url(#SVGID_29_)" width="3.618" height="5.732"/>
			<linearGradient id="SVGID_30_" gradientUnits="userSpaceOnUse" x1="72.124" y1="58.7021" x2="76.7993" y2="54.0269">
				<stop  offset="0" style="stop-color:#CDCFD4"/>
				<stop  offset="1" style="stop-color:#DBDCE2"/>
			</linearGradient>
			<rect x="72.652" y="53.498" fill="url(#SVGID_30_)" width="3.618" height="5.732"/>
			<linearGradient id="SVGID_31_" gradientUnits="userSpaceOnUse" x1="76.1455" y1="58.7021" x2="80.8201" y2="54.0276">
				<stop  offset="0" style="stop-color:#CDCFD4"/>
				<stop  offset="1" style="stop-color:#DBDCE2"/>
			</linearGradient>
			<rect x="76.673" y="53.498" fill="url(#SVGID_31_)" width="3.617" height="5.732"/>
			<linearGradient id="SVGID_32_" gradientUnits="userSpaceOnUse" x1="80.1641" y1="58.7012" x2="84.8386" y2="54.0266">
				<stop  offset="0" style="stop-color:#CDCFD4"/>
				<stop  offset="1" style="stop-color:#DBDCE2"/>
			</linearGradient>
			<rect x="80.692" y="53.498" fill="url(#SVGID_32_)" width="3.617" height="5.732"/>
			<linearGradient id="SVGID_33_" gradientUnits="userSpaceOnUse" x1="84.1846" y1="58.7021" x2="88.8602" y2="54.0265">
				<stop  offset="0" style="stop-color:#CDCFD4"/>
				<stop  offset="1" style="stop-color:#DBDCE2"/>
			</linearGradient>
			<rect x="84.712" y="53.498" fill="url(#SVGID_33_)" width="3.619" height="5.732"/>
			<linearGradient id="SVGID_34_" gradientUnits="userSpaceOnUse" x1="88.2051" y1="58.7031" x2="92.88" y2="54.0282">
				<stop  offset="0" style="stop-color:#CDCFD4"/>
				<stop  offset="1" style="stop-color:#DBDCE2"/>
			</linearGradient>
			<rect x="88.733" y="53.498" fill="url(#SVGID_34_)" width="3.617" height="5.732"/>
			<rect x="66.896" y="37.118" fill="#E55B54" width="27.189" height="17.853"/>
			<rect x="68.431" y="37.154" fill="#F8EA68" width="24.121" height="5.208"/>
			<rect x="66.896" y="13.009" fill="#E84C3D" width="27.189" height="24.15"/>
			<linearGradient id="SVGID_35_" gradientUnits="userSpaceOnUse" x1="68.125" y1="47.5459" x2="72.7588" y2="42.9121">
				<stop  offset="0" style="stop-color:#F0F0F0"/>
				<stop  offset="1" style="stop-color:#E8E8E8"/>
			</linearGradient>
			<rect x="68.531" y="42.505" fill="url(#SVGID_35_)" width="3.82" height="5.447"/>
			<linearGradient id="SVGID_36_" gradientUnits="userSpaceOnUse" x1="72.1436" y1="47.5454" x2="76.7774" y2="42.9116">
				<stop  offset="0" style="stop-color:#F0F0F0"/>
				<stop  offset="1" style="stop-color:#E8E8E8"/>
			</linearGradient>
			<rect x="72.551" y="42.505" fill="url(#SVGID_36_)" width="3.82" height="5.447"/>
			<linearGradient id="SVGID_37_" gradientUnits="userSpaceOnUse" x1="76.165" y1="47.5459" x2="80.7982" y2="42.9128">
				<stop  offset="0" style="stop-color:#F0F0F0"/>
				<stop  offset="1" style="stop-color:#E8E8E8"/>
			</linearGradient>
			<rect x="76.571" y="42.505" fill="url(#SVGID_37_)" width="3.819" height="5.447"/>
			<linearGradient id="SVGID_38_" gradientUnits="userSpaceOnUse" x1="80.1855" y1="47.5454" x2="84.8187" y2="42.9123">
				<stop  offset="0" style="stop-color:#F0F0F0"/>
				<stop  offset="1" style="stop-color:#E8E8E8"/>
			</linearGradient>
			<rect x="80.592" y="42.505" fill="url(#SVGID_38_)" width="3.819" height="5.447"/>
			<linearGradient id="SVGID_39_" gradientUnits="userSpaceOnUse" x1="84.2051" y1="47.5454" x2="88.8386" y2="42.9119">
				<stop  offset="0" style="stop-color:#F0F0F0"/>
				<stop  offset="1" style="stop-color:#E8E8E8"/>
			</linearGradient>
			<rect x="84.611" y="42.505" fill="url(#SVGID_39_)" width="3.82" height="5.447"/>
			<linearGradient id="SVGID_40_" gradientUnits="userSpaceOnUse" x1="88.2256" y1="47.5459" x2="92.8587" y2="42.9128">
				<stop  offset="0" style="stop-color:#F0F0F0"/>
				<stop  offset="1" style="stop-color:#E8E8E8"/>
			</linearGradient>
			<rect x="88.632" y="42.505" fill="url(#SVGID_40_)" width="3.819" height="5.447"/>
			<linearGradient id="SVGID_41_" gradientUnits="userSpaceOnUse" x1="68.125" y1="53.2793" x2="72.7588" y2="48.6455">
				<stop  offset="0" style="stop-color:#F0F0F0"/>
				<stop  offset="1" style="stop-color:#E8E8E8"/>
			</linearGradient>
			<rect x="68.531" y="48.238" fill="url(#SVGID_41_)" width="3.82" height="5.447"/>
			<linearGradient id="SVGID_42_" gradientUnits="userSpaceOnUse" x1="72.1436" y1="53.2783" x2="76.7774" y2="48.6445">
				<stop  offset="0" style="stop-color:#F0F0F0"/>
				<stop  offset="1" style="stop-color:#E8E8E8"/>
			</linearGradient>
			<rect x="72.551" y="48.238" fill="url(#SVGID_42_)" width="3.82" height="5.447"/>
			<linearGradient id="SVGID_43_" gradientUnits="userSpaceOnUse" x1="76.165" y1="53.2783" x2="80.7982" y2="48.6452">
				<stop  offset="0" style="stop-color:#F0F0F0"/>
				<stop  offset="1" style="stop-color:#E8E8E8"/>
			</linearGradient>
			<rect x="76.571" y="48.238" fill="url(#SVGID_43_)" width="3.819" height="5.447"/>
			<linearGradient id="SVGID_44_" gradientUnits="userSpaceOnUse" x1="80.1846" y1="53.2783" x2="84.8177" y2="48.6452">
				<stop  offset="0" style="stop-color:#F0F0F0"/>
				<stop  offset="1" style="stop-color:#E8E8E8"/>
			</linearGradient>
			<rect x="80.592" y="48.238" fill="url(#SVGID_44_)" width="3.819" height="5.447"/>
			<linearGradient id="SVGID_45_" gradientUnits="userSpaceOnUse" x1="84.2051" y1="53.2793" x2="88.8386" y2="48.6458">
				<stop  offset="0" style="stop-color:#F0F0F0"/>
				<stop  offset="1" style="stop-color:#E8E8E8"/>
			</linearGradient>
			<rect x="84.611" y="48.238" fill="url(#SVGID_45_)" width="3.82" height="5.447"/>
			<linearGradient id="SVGID_46_" gradientUnits="userSpaceOnUse" x1="88.2256" y1="53.2783" x2="92.8587" y2="48.6452">
				<stop  offset="0" style="stop-color:#F0F0F0"/>
				<stop  offset="1" style="stop-color:#E8E8E8"/>
			</linearGradient>
			<rect x="88.632" y="48.238" fill="url(#SVGID_46_)" width="3.819" height="5.447"/>
			<linearGradient id="SVGID_47_" gradientUnits="userSpaceOnUse" x1="80.4912" y1="62.752" x2="80.4912" y2="89.3516">
				<stop  offset="0" style="stop-color:#414142"/>
				<stop  offset="1" style="stop-color:#E7EAE4;stop-opacity:0"/>
			</linearGradient>
			<rect x="66.896" y="62.752" opacity="0.1" fill="url(#SVGID_47_)" width="27.189" height="26.6"/>
			<linearGradient id="SVGID_48_" gradientUnits="userSpaceOnUse" x1="80.4912" y1="37.1587" x2="80.4912" y2="42.3618">
				<stop  offset="0" style="stop-color:#414142"/>
				<stop  offset="1" style="stop-color:#E7EAE4;stop-opacity:0"/>
			</linearGradient>
			<rect x="66.896" y="37.159" opacity="0.1" fill="url(#SVGID_48_)" width="27.189" height="5.203"/>
			
				<line fill="none" stroke="#FFFFFF" stroke-width="0.7087" stroke-linecap="round" stroke-miterlimit="10" x1="42.579" y1="34.604" x2="42.579" y2="55.998"/>
			
				<line fill="none" stroke="#FFFFFF" stroke-width="0.7087" stroke-linecap="round" stroke-miterlimit="10" x1="42.579" y1="55.998" x2="51.201" y2="55.998"/>
			
				<line fill="none" stroke="#FFFFFF" stroke-width="0.7087" stroke-linecap="round" stroke-miterlimit="10" x1="42.579" y1="54.604" x2="51.201" y2="54.604"/>
			
				<line fill="none" stroke="#FFFFFF" stroke-width="0.7087" stroke-linecap="round" stroke-miterlimit="10" x1="42.579" y1="53.131" x2="51.201" y2="53.131"/>
		</g>
	</g>
	<g>
		<path fill="none" stroke="#CDCCCB" stroke-width="4.68" stroke-miterlimit="10" d="M24.471,51.681v17.737
			c0,2.574,2.106,4.681,4.68,4.681h70.847"/>
	</g>
	<g>
		<path fill="none" stroke="#FFFFFF" stroke-width="0.78" stroke-miterlimit="10" stroke-dasharray="2.34" d="M24.471,51.681v17.737
			c0,2.574,2.106,4.681,4.68,4.681h70.847"/>
	</g>
	<g>
		<g opacity="0.1">
			<linearGradient id="SVGID_49_" gradientUnits="userSpaceOnUse" x1="104.8135" y1="58.9258" x2="104.8135" y2="67.3721">
				<stop  offset="0" style="stop-color:#414142"/>
				<stop  offset="1" style="stop-color:#E7EAE4;stop-opacity:0"/>
			</linearGradient>
			<line fill="url(#SVGID_49_)" x1="104.813" y1="58.926" x2="104.813" y2="67.372"/>
			<linearGradient id="SVGID_50_" gradientUnits="userSpaceOnUse" x1="104.8135" y1="58.4834" x2="104.8135" y2="67.8145">
				<stop  offset="0" style="stop-color:#414142"/>
				<stop  offset="1" style="stop-color:#E7EAE4;stop-opacity:0"/>
			</linearGradient>
			<path fill="url(#SVGID_50_)" d="M104.813,67.814c-0.207,0-0.374-0.199-0.374-0.442v-8.446c0-0.244,0.167-0.442,0.374-0.442
				c0.205,0,0.374,0.198,0.374,0.442v8.446C105.188,67.615,105.019,67.814,104.813,67.814z"/>
		</g>
		<linearGradient id="SVGID_51_" gradientUnits="userSpaceOnUse" x1="99.1592" y1="50.8984" x2="110.4678" y2="50.8984">
			<stop  offset="0" style="stop-color:#D2BAA8"/>
			<stop  offset="1" style="stop-color:#D7C0AE"/>
		</linearGradient>
		<circle fill="url(#SVGID_51_)" cx="104.813" cy="50.899" r="5.654"/>
		
			<line fill="none" stroke="#010202" stroke-width="0.624" stroke-linecap="round" stroke-miterlimit="10" x1="104.813" y1="59.38" x2="104.813" y2="49.149"/>
		
			<line fill="none" stroke="#010202" stroke-width="0.624" stroke-linecap="round" stroke-miterlimit="10" x1="104.813" y1="53.389" x2="102.884" y2="51.461"/>
		
			<line fill="none" stroke="#010202" stroke-width="0.624" stroke-linecap="round" stroke-miterlimit="10" x1="104.813" y1="53.389" x2="106.742" y2="51.461"/>
	</g>
	<g>
		<g opacity="0.1">
			<linearGradient id="SVGID_52_" gradientUnits="userSpaceOnUse" x1="104.2383" y1="39.6128" x2="104.2383" y2="48.0605">
				<stop  offset="0" style="stop-color:#414142"/>
				<stop  offset="1" style="stop-color:#E7EAE4;stop-opacity:0"/>
			</linearGradient>
			<line fill="url(#SVGID_52_)" x1="104.238" y1="39.613" x2="104.238" y2="48.061"/>
			<linearGradient id="SVGID_53_" gradientUnits="userSpaceOnUse" x1="104.2393" y1="39.1719" x2="104.2393" y2="48.5024">
				<stop  offset="0" style="stop-color:#414142"/>
				<stop  offset="1" style="stop-color:#E7EAE4;stop-opacity:0"/>
			</linearGradient>
			<path fill="url(#SVGID_53_)" d="M104.238,48.502c-0.205,0-0.373-0.197-0.373-0.442v-8.448c0-0.244,0.168-0.441,0.373-0.441
				c0.207,0,0.375,0.197,0.375,0.441v8.448C104.613,48.306,104.445,48.502,104.238,48.502z"/>
		</g>
		<g>
			<circle fill="#FFFFFF" cx="104.239" cy="31.294" r="5.655"/>
			<circle fill="#FFFFFF" cx="104.239" cy="25.154" r="5.655"/>
			<linearGradient id="SVGID_54_" gradientUnits="userSpaceOnUse" x1="103.7705" y1="30.9595" x2="104.7061" y2="30.9595">
				<stop  offset="0" style="stop-color:#D2BAA8"/>
				<stop  offset="1" style="stop-color:#D7C0AE"/>
			</linearGradient>
			
				<line fill="none" stroke="url(#SVGID_54_)" stroke-width="0.936" stroke-linecap="round" stroke-miterlimit="10" x1="104.238" y1="39.777" x2="104.238" y2="22.142"/>
			<linearGradient id="SVGID_55_" gradientUnits="userSpaceOnUse" x1="101.998" y1="32.8213" x2="104.5498" y2="32.8213">
				<stop  offset="0" style="stop-color:#D2BAA8"/>
				<stop  offset="1" style="stop-color:#D7C0AE"/>
			</linearGradient>
			
				<line fill="none" stroke="url(#SVGID_55_)" stroke-width="0.624" stroke-linecap="round" stroke-miterlimit="10" x1="104.238" y1="33.786" x2="102.31" y2="31.856"/>
			<linearGradient id="SVGID_56_" gradientUnits="userSpaceOnUse" x1="103.9268" y1="32.8213" x2="106.4785" y2="32.8213">
				<stop  offset="0" style="stop-color:#D2BAA8"/>
				<stop  offset="1" style="stop-color:#D7C0AE"/>
			</linearGradient>
			
				<line fill="none" stroke="url(#SVGID_56_)" stroke-width="0.624" stroke-linecap="round" stroke-miterlimit="10" x1="104.238" y1="33.786" x2="106.167" y2="31.856"/>
			<linearGradient id="SVGID_57_" gradientUnits="userSpaceOnUse" x1="101.998" y1="26.1191" x2="104.5498" y2="26.1191">
				<stop  offset="0" style="stop-color:#D2BAA8"/>
				<stop  offset="1" style="stop-color:#D7C0AE"/>
			</linearGradient>
			
				<line fill="none" stroke="url(#SVGID_57_)" stroke-width="0.624" stroke-linecap="round" stroke-miterlimit="10" x1="104.238" y1="27.084" x2="102.31" y2="25.154"/>
			<linearGradient id="SVGID_58_" gradientUnits="userSpaceOnUse" x1="103.9268" y1="26.1191" x2="106.4785" y2="26.1191">
				<stop  offset="0" style="stop-color:#D2BAA8"/>
				<stop  offset="1" style="stop-color:#D7C0AE"/>
			</linearGradient>
			
				<line fill="none" stroke="url(#SVGID_58_)" stroke-width="0.624" stroke-linecap="round" stroke-miterlimit="10" x1="104.238" y1="27.084" x2="106.167" y2="25.154"/>
		</g>
	</g>
	<g>
		<g opacity="0.1">
			<linearGradient id="SVGID_59_" gradientUnits="userSpaceOnUse" x1="35.1182" y1="67.7324" x2="35.1182" y2="76.1816">
				<stop  offset="0" style="stop-color:#414142"/>
				<stop  offset="1" style="stop-color:#E7EAE4;stop-opacity:0"/>
			</linearGradient>
			<line fill="url(#SVGID_59_)" x1="35.118" y1="67.732" x2="35.118" y2="76.182"/>
			<linearGradient id="SVGID_60_" gradientUnits="userSpaceOnUse" x1="35.1191" y1="67.293" x2="35.1191" y2="76.623">
				<stop  offset="0" style="stop-color:#414142"/>
				<stop  offset="1" style="stop-color:#E7EAE4;stop-opacity:0"/>
			</linearGradient>
			<path fill="url(#SVGID_60_)" d="M35.118,76.623c-0.205,0-0.372-0.198-0.372-0.441v-8.449c0-0.243,0.167-0.439,0.372-0.439
				c0.209,0,0.374,0.196,0.374,0.439v8.449C35.492,76.425,35.327,76.623,35.118,76.623z"/>
		</g>
		<g>
			<circle fill="#FFFFFF" cx="35.119" cy="59.708" r="5.653"/>
			<linearGradient id="SVGID_61_" gradientUnits="userSpaceOnUse" x1="34.6504" y1="63.0723" x2="35.5859" y2="63.0723">
				<stop  offset="0" style="stop-color:#D2BAA8"/>
				<stop  offset="1" style="stop-color:#D7C0AE"/>
			</linearGradient>
			
				<line fill="none" stroke="url(#SVGID_61_)" stroke-width="0.936" stroke-linecap="round" stroke-miterlimit="10" x1="35.118" y1="68.188" x2="35.118" y2="57.957"/>
			<linearGradient id="SVGID_62_" gradientUnits="userSpaceOnUse" x1="32.8784" y1="61.2324" x2="35.4302" y2="61.2324">
				<stop  offset="0" style="stop-color:#D2BAA8"/>
				<stop  offset="1" style="stop-color:#D7C0AE"/>
			</linearGradient>
			
				<line fill="none" stroke="url(#SVGID_62_)" stroke-width="0.624" stroke-linecap="round" stroke-miterlimit="10" x1="35.118" y1="62.198" x2="33.19" y2="60.268"/>
			<linearGradient id="SVGID_63_" gradientUnits="userSpaceOnUse" x1="34.8062" y1="61.2324" x2="37.3618" y2="61.2324">
				<stop  offset="0" style="stop-color:#D2BAA8"/>
				<stop  offset="1" style="stop-color:#D7C0AE"/>
			</linearGradient>
			
				<line fill="none" stroke="url(#SVGID_63_)" stroke-width="0.624" stroke-linecap="round" stroke-miterlimit="10" x1="35.118" y1="62.198" x2="37.05" y2="60.268"/>
		</g>
	</g>
</g>
</svg>
