<?xml version="1.0" encoding="utf-8"?>
<!-- Generator: Adobe Illustrator 16.0.0, SVG Export Plug-In . SVG Version: 6.00 Build 0)  -->
<!DOCTYPE svg PUBLIC "-//W3C//DTD SVG 1.1//EN" "http://www.w3.org/Graphics/SVG/1.1/DTD/svg11.dtd">
<svg version="1.1" id="Livello_1" xmlns="http://www.w3.org/2000/svg" xmlns:xlink="http://www.w3.org/1999/xlink" x="0px" y="0px"
	 width="297px" height="1005px" viewBox="0 0 297 1005" enable-background="new 0 0 297 1005" xml:space="preserve">
<g>
	<path fill="#98D0D9" d="M274.494,978.338c-5.5,0-10-4.5-10-10v-51.254c0-5.5-4.5-10-10-10h-11.535c-5.5,0-10-4.5-10-10v-83.158
		c0-5.5-4.5-10-10-10h-5.954c-5.5,0-10-4.5-10-10v-5.955c0-5.5-4.5-10-10-10h-15.344c-5.5,0-10-4.5-10-10v-29.387
		c0-5.5-4.5-10-10-10h-19.438c-5.5,0-10-4.5-10-10v-13.066c0-5.5,4.5-10,10-10.002h32.855c5.5-0.002,10-4.502,10-10.002v-32.857
		c0-5.5,4.5-10,10-10.002h6.434c5.5,0,10-4.502,10-10.002v-32.859c0-5.5-4.5-10-10-10h-6.434c-5.5,0-10-4.5-10-10v-6.428
		c0-5.5-4.5-10-10-10h-19.417c-5.5,0-10-4.5-10-10v-4.781c0-5.5-4.5-10-10-10h-23.333c-5.5,0-10-4.5-10-10v-10.957
		c0-5.5,4.5-10,10-10h10.099c5.5,0,10-4.5,10-10l-0.001-85.723c0-5.5-4.5-10-10-10h-6.431c-5.5,0-10-4.5-10-10v-38.168
		c0-5.5,3.444-10,7.654-10s7.654-4.5,7.654-10v-32.855c0-5.5,4.5-10,10-10h6.431c5.5,0,10-4.5,10-10v-59.294c0-5.5-4.5-10-10-10
		h-6.431c-5.5,0-10-4.5-10-10v-6.432c0-5.5-4.5-10-10-10H78.445c-5.5,0-10-4.248-10-9.439c0-5.192,4.5-9.44,10-9.44h31.565
		c5.5,0,10-4.5,10-10v-13.914c0-5.5,4.5-10,10-10h18.842c5.5,0,10-4.5,10-10v-59.29c0-5.5-4.5-10-10-10h-6.432c-5.5,0-10-4.5-10-10
		v-6.431c0-5.5-4.5-10-10-10h-6.43c-5.5,0-10-4.5-10-10V10.21c0-5.5-4.5-10-10-10H36.697c-5.5,0-10,4.5-10,10v6.431
		c0,5.5-4.5,10-10,10h-6.432c-5.5,0-10,4.5-10,10V69.5c0,5.5,4.5,10,10,10h32.865c5.5,0,10,4.5,10,10v6.431c0,5.5,4.5,10,10,10
		h6.428c5.5,0,10.001,3.994,10.002,8.875c0,4.881-4.499,8.875-9.999,8.875H50.515c-5.5,0-10,4.5-10,10v15.042c0,5.5-4.5,10-10,10
		h-4.931c-5.5,0-10,4.5-10,10v138.582c0,5.5,4.5,10,10,10h6.431c5.5,0,10,4.5,10,10v6.43c0,5.5,4.5,10,10,10h10.313
		c5.5,0,10,4.5,10,10v11.736c0,5.5-4.317,10-9.595,10s-9.595,4.5-9.596,10l-0.002,32.861c-0.001,5.5-4.501,10-10.001,10h-6.432
		c-5.5,0-10,4.5-10,10v6.43c0,5.5,4.5,10.002,10,10.002h6.434c5.5,0.002,10,4.502,10,10.002v6.432c0,5.5,4.5,10,10,10h6.429
		c5.5,0,10,4.5,10,10v62.164c0,5.5-0.012,14.5-0.025,20l-0.154,59.289c-0.014,5.5-4.525,10-10.025,10h-6.428c-5.5,0-10,4.5-10,10
		v59.295c0,5.5,4.5,10,10,10h12.729c5.5,0,10,4.5,10,10v8.637c0,5.5,4.5,10,10,10h23.486c5.5,0,10,4.5,10,10v59.295
		c0,5.5,4.5,10,10,10h5.952c5.5,0,10,4.5,10,10v5.953c0,5.5,4.5,10,10,10h5.954c5.5,0,10-4.5,10-10v-5.953c0-5.5,4.5-10,10-10h5.94
		c5.5,0,10,4.5,10,10v96.205c0,5.5,4.5,10,10,10h16.708c5.5,0,10,4.5,10,10v38.684c0,5.5,4.5,10,10,10h32.854c5.5,0,10-4.5,10-10
		v-6.43c0-5.5-4.5-10-10-10H274.494z"/>
</g>
</svg>
