<?xml version="1.0" encoding="utf-8"?>
<!-- Generator: Adobe Illustrator 16.0.0, SVG Export Plug-In . SVG Version: 6.00 Build 0)  -->
<!DOCTYPE svg PUBLIC "-//W3C//DTD SVG 1.1//EN" "http://www.w3.org/Graphics/SVG/1.1/DTD/svg11.dtd">
<svg version="1.1" id="Livello_1" xmlns="http://www.w3.org/2000/svg" xmlns:xlink="http://www.w3.org/1999/xlink" x="0px" y="0px"
	 width="46px" height="91px" viewBox="0 0 46 91" enable-background="new 0 0 46 91" xml:space="preserve">
<g>
	
		<linearGradient id="SVGID_1_" gradientUnits="userSpaceOnUse" x1="1368.9785" y1="2434.6797" x2="1434.3418" y2="2434.6797" gradientTransform="matrix(0 1 -1 0 2458.0332 -1368.502)">
		<stop  offset="0" style="stop-color:#98D0D9;stop-opacity:0"/>
		<stop  offset="1" style="stop-color:#98D0D9"/>
	</linearGradient>
	<path fill="url(#SVGID_1_)" d="M29.284,51.088c0-1.146,0.937-2.082,2.082-2.082h1.622c1.146,0,2.082-0.937,2.082-2.082V30.309
		c0-1.145,0.937-2.082,2.082-2.082h6.758c1.146,0,2.082-0.937,2.082-2.082V7.676c0-1.145-0.937-2.082-2.082-2.082H32.089
		c-1.146,0-2.082,0.937-2.082,2.082v4.215c0,1.145-0.937,2.082-2.082,2.082h-4.778c-1.145,0-2.082-0.937-2.082-2.082V2.559
		c0-1.145-0.937-2.082-2.082-2.082H2.798c-1.145,0-2.082,0.937-2.082,2.082v20.349c0,1.145,0.937,2.082,2.082,2.082h1.497
		c1.145,0,2.082,0.937,2.082,2.082v6.853c0,1.145,0.937,2.082,2.082,2.082h6.294c1.145,0,2.082,0.937,2.082,2.082v8.836
		c0,1.146,0,3.019,0,4.164v12.67c0,1.146,0.937,2.082,2.082,2.082h8.285c1.146,0,2.082-0.937,2.082-2.082V51.088z"/>
</g>
<path fill="#B6B6B2" d="M26.105,39.484c-4.174,0-7.557,2.574-7.557,5.75v2.154c0-3.176,3.383-5.75,7.557-5.75
	s7.557,2.574,7.557,5.75v-2.154C33.662,42.059,30.279,39.484,26.105,39.484z"/>
<linearGradient id="SVGID_2_" gradientUnits="userSpaceOnUse" x1="18.5488" y1="61.9238" x2="33.6621" y2="61.9238">
	<stop  offset="0" style="stop-color:#EEF1EC"/>
	<stop  offset="1" style="stop-color:#E7EAE4"/>
</linearGradient>
<path fill="url(#SVGID_2_)" d="M26.105,41.639c-4.174,0-7.557,2.574-7.557,5.75v29.07c0,3.176,3.383,5.75,7.557,5.75
	s7.557-2.574,7.557-5.75v-29.07C33.662,44.213,30.279,41.639,26.105,41.639z"/>
<linearGradient id="SVGID_3_" gradientUnits="userSpaceOnUse" x1="18.5488" y1="76.459" x2="33.6621" y2="76.459">
	<stop  offset="0" style="stop-color:#E6D0BD"/>
	<stop  offset="1" style="stop-color:#ECD6C2"/>
</linearGradient>
<path fill="url(#SVGID_3_)" d="M26.105,64.006c-4.619,3.008-7.557,7.467-7.557,12.453c0,4.988,2.938,9.447,7.557,12.453
	c4.619-3.006,7.557-7.465,7.557-12.453C33.662,71.473,30.725,67.014,26.105,64.006z"/>
<linearGradient id="SVGID_4_" gradientUnits="userSpaceOnUse" x1="18.5488" y1="76.459" x2="61.6298" y2="76.459">
	<stop  offset="0" style="stop-color:#E6D0BD"/>
	<stop  offset="1" style="stop-color:#ECD6C2"/>
</linearGradient>
<path fill="url(#SVGID_4_)" d="M26.105,64.006c-4.619,3.008-7.557,7.467-7.557,12.453c0,4.988,2.938,9.447,7.557,12.453
	c4.619-3.006,7.557-7.465,7.557-12.453C33.662,71.473,30.725,67.014,26.105,64.006z"/>
<path fill="#B6B6B2" d="M26.105,61.84c-5.422,3.531-8.871,8.766-8.871,14.619c0,5.855,3.449,11.09,8.871,14.619
	c5.424-3.529,8.871-8.764,8.871-14.619C34.977,70.605,31.529,65.371,26.105,61.84z"/>
<linearGradient id="SVGID_5_" gradientUnits="userSpaceOnUse" x1="18.5488" y1="61.9238" x2="33.6621" y2="61.9238">
	<stop  offset="0" style="stop-color:#E6D0BD"/>
	<stop  offset="1" style="stop-color:#ECD6C2"/>
</linearGradient>
<path fill="url(#SVGID_5_)" d="M26.105,41.639c-4.174,0-7.557,2.574-7.557,5.75v29.07c0,3.176,3.383,5.75,7.557,5.75
	s7.557-2.574,7.557-5.75v-29.07C33.662,44.213,30.279,41.639,26.105,41.639z"/>
<linearGradient id="SVGID_6_" gradientUnits="userSpaceOnUse" x1="17.2344" y1="60.8467" x2="34.9766" y2="60.8467">
	<stop  offset="0" style="stop-color:#EEF1EC"/>
	<stop  offset="1" style="stop-color:#E7EAE4"/>
</linearGradient>
<path fill="url(#SVGID_6_)" d="M26.105,38.484c-4.893,0-8.871,3.027-8.871,6.75v31.225c0,3.723,3.979,6.75,8.871,6.75
	s8.871-3.027,8.871-6.75V45.234C34.977,41.512,30.998,38.484,26.105,38.484z M33.662,47.389v29.07c0,3.176-3.383,5.75-7.557,5.75
	s-7.557-2.574-7.557-5.75v-29.07v-2.154c0-3.176,3.383-5.75,7.557-5.75s7.557,2.574,7.557,5.75V47.389z"/>
<g>
	<rect x="18.742" y="58.965" fill="#B6B6B2" width="14.729" height="15.814"/>
</g>
<g>
	<linearGradient id="SVGID_7_" gradientUnits="userSpaceOnUse" x1="18.7422" y1="58.3965" x2="33.4707" y2="58.3965">
		<stop  offset="0" style="stop-color:#E5E5E5"/>
		<stop  offset="1" style="stop-color:#E7EAE4"/>
	</linearGradient>
	<rect x="18.742" y="46.333" fill="url(#SVGID_7_)" width="14.729" height="24.126"/>
</g>
<g>
	<linearGradient id="SVGID_8_" gradientUnits="userSpaceOnUse" x1="18.7422" y1="61.9678" x2="33.4707" y2="61.9678">
		<stop  offset="0" style="stop-color:#D2BAA8"/>
		<stop  offset="1" style="stop-color:#D7C0AE"/>
	</linearGradient>
	<rect x="18.742" y="59.799" fill="url(#SVGID_8_)" width="14.729" height="4.338"/>
</g>
<g>
	<linearGradient id="SVGID_9_" gradientUnits="userSpaceOnUse" x1="18.5488" y1="54.4414" x2="33.6621" y2="54.4414">
		<stop  offset="0" style="stop-color:#E6D0BD"/>
		<stop  offset="1" style="stop-color:#ECD6C2"/>
	</linearGradient>
	<rect x="18.549" y="49.084" fill="url(#SVGID_9_)" width="15.113" height="10.715"/>
</g>
<linearGradient id="SVGID_10_" gradientUnits="userSpaceOnUse" x1="28.9141" y1="49.084" x2="29.6641" y2="49.084">
	<stop  offset="0" style="stop-color:#EEF1EC"/>
	<stop  offset="1" style="stop-color:#E7EAE4"/>
</linearGradient>
<line fill="none" stroke="url(#SVGID_10_)" stroke-width="0.75" stroke-linecap="round" stroke-miterlimit="10" x1="29.289" y1="42.937" x2="29.289" y2="55.232"/>
</svg>
