<?xml version="1.0" encoding="utf-8"?>
<!-- Generator: Adobe Illustrator 16.0.0, SVG Export Plug-In . SVG Version: 6.00 Build 0)  -->
<!DOCTYPE svg PUBLIC "-//W3C//DTD SVG 1.1//EN" "http://www.w3.org/Graphics/SVG/1.1/DTD/svg11.dtd">
<svg version="1.1" id="Livello_1" xmlns="http://www.w3.org/2000/svg" xmlns:xlink="http://www.w3.org/1999/xlink" x="0px" y="0px"
	 width="46px" height="94px" viewBox="0 0 46 94" enable-background="new 0 0 46 94" xml:space="preserve">
<g>
	
		<linearGradient id="SVGID_1_" gradientUnits="userSpaceOnUse" x1="1366.4141" y1="2436.8086" x2="1431.7773" y2="2436.8086" gradientTransform="matrix(0 1 -1 0 2460.0332 -1366.502)">
		<stop  offset="0" style="stop-color:#98D0D9;stop-opacity:0"/>
		<stop  offset="1" style="stop-color:#98D0D9"/>
	</linearGradient>
	<path fill="url(#SVGID_1_)" d="M29.155,50.523c0-1.146,0.937-2.082,2.082-2.082h1.622c1.146,0,2.082-0.937,2.082-2.082V29.744
		c0-1.145,0.937-2.082,2.082-2.082h6.758c1.146,0,2.082-0.937,2.082-2.082V7.111c0-1.145-0.937-2.082-2.082-2.082H31.96
		c-1.146,0-2.082,0.937-2.082,2.082v4.215c0,1.145-0.937,2.082-2.082,2.082h-4.778c-1.145,0-2.082-0.937-2.082-2.082V1.994
		c0-1.145-0.937-2.082-2.082-2.082H2.669c-1.145,0-2.082,0.937-2.082,2.082v20.349c0,1.145,0.937,2.082,2.082,2.082h1.497
		c1.145,0,2.082,0.937,2.082,2.082v6.853c0,1.145,0.937,2.082,2.082,2.082h6.294c1.145,0,2.082,0.937,2.082,2.082v8.836
		c0,1.146,0,3.019,0,4.164v12.67c0,1.146,0.937,2.082,2.082,2.082h8.285c1.146,0,2.082-0.937,2.082-2.082V50.523z"/>
</g>
<g>
	<g>
		<path fill="#B6B6B2" d="M25.793,41.484c-4.174,0-7.557,2.574-7.557,5.75v2.154c0-3.176,3.383-5.75,7.557-5.75
			s7.557,2.574,7.557,5.75v-2.154C33.35,44.059,29.967,41.484,25.793,41.484z"/>
		<linearGradient id="SVGID_2_" gradientUnits="userSpaceOnUse" x1="18.2363" y1="63.9238" x2="33.3496" y2="63.9238">
			<stop  offset="0" style="stop-color:#EEF1EC"/>
			<stop  offset="1" style="stop-color:#E7EAE4"/>
		</linearGradient>
		<path fill="url(#SVGID_2_)" d="M25.793,43.639c-4.174,0-7.557,2.574-7.557,5.75v29.07c0,3.176,3.383,5.75,7.557,5.75
			s7.557-2.574,7.557-5.75v-29.07C33.35,46.213,29.967,43.639,25.793,43.639z"/>
		<linearGradient id="SVGID_3_" gradientUnits="userSpaceOnUse" x1="18.2363" y1="78.459" x2="33.3496" y2="78.459">
			<stop  offset="0" style="stop-color:#E6D0BD"/>
			<stop  offset="1" style="stop-color:#ECD6C2"/>
		</linearGradient>
		<path fill="url(#SVGID_3_)" d="M25.793,66.006c-4.619,3.008-7.557,7.467-7.557,12.453c0,4.988,2.938,9.447,7.557,12.453
			c4.619-3.006,7.557-7.465,7.557-12.453C33.35,73.473,30.412,69.014,25.793,66.006z"/>
		<linearGradient id="SVGID_4_" gradientUnits="userSpaceOnUse" x1="18.2363" y1="78.459" x2="61.3173" y2="78.459">
			<stop  offset="0" style="stop-color:#E6D0BD"/>
			<stop  offset="1" style="stop-color:#ECD6C2"/>
		</linearGradient>
		<path fill="url(#SVGID_4_)" d="M25.793,66.006c-4.619,3.008-7.557,7.467-7.557,12.453c0,4.988,2.938,9.447,7.557,12.453
			c4.619-3.006,7.557-7.465,7.557-12.453C33.35,73.473,30.412,69.014,25.793,66.006z"/>
		<linearGradient id="SVGID_5_" gradientUnits="userSpaceOnUse" x1="-15.9106" y1="78.459" x2="34.6642" y2="78.459">
			<stop  offset="0" style="stop-color:#E6D0BD"/>
			<stop  offset="1" style="stop-color:#ECD6C2"/>
		</linearGradient>
		<path fill="url(#SVGID_5_)" d="M25.793,63.84c-5.422,3.531-8.871,8.766-8.871,14.619c0,5.855,3.449,11.09,8.871,14.619
			c5.424-3.529,8.871-8.764,8.871-14.619C34.664,72.605,31.217,67.371,25.793,63.84z"/>
		<linearGradient id="SVGID_6_" gradientUnits="userSpaceOnUse" x1="18.2363" y1="63.9238" x2="33.3496" y2="63.9238">
			<stop  offset="0" style="stop-color:#E5E5E5"/>
			<stop  offset="1" style="stop-color:#E7EAE4"/>
		</linearGradient>
		<path fill="url(#SVGID_6_)" d="M25.793,43.639c-4.174,0-7.557,2.574-7.557,5.75v29.07c0,3.176,3.383,5.75,7.557,5.75
			s7.557-2.574,7.557-5.75v-29.07C33.35,46.213,29.967,43.639,25.793,43.639z"/>
		<linearGradient id="SVGID_7_" gradientUnits="userSpaceOnUse" x1="16.9219" y1="62.8467" x2="34.6641" y2="62.8467">
			<stop  offset="0" style="stop-color:#EEF1EC"/>
			<stop  offset="1" style="stop-color:#E7EAE4"/>
		</linearGradient>
		<path fill="url(#SVGID_7_)" d="M25.793,40.484c-4.893,0-8.871,3.027-8.871,6.75v31.225c0,3.723,3.979,6.75,8.871,6.75
			s8.871-3.027,8.871-6.75V47.234C34.664,43.512,30.686,40.484,25.793,40.484z M33.35,49.389v29.07c0,3.176-3.383,5.75-7.557,5.75
			s-7.557-2.574-7.557-5.75v-29.07v-2.154c0-3.176,3.383-5.75,7.557-5.75s7.557,2.574,7.557,5.75V49.389z"/>
		<linearGradient id="SVGID_8_" gradientUnits="userSpaceOnUse" x1="25.7939" y1="74.8613" x2="25.7939" y2="81.459">
			<stop  offset="0" style="stop-color:#414142"/>
			<stop  offset="1" style="stop-color:#E7EAE4;stop-opacity:0"/>
		</linearGradient>
		<rect x="18.43" y="74.861" opacity="0.1" fill="url(#SVGID_8_)" width="14.729" height="6.598"/>
		<g>
			<linearGradient id="SVGID_9_" gradientUnits="userSpaceOnUse" x1="18.4297" y1="68.8721" x2="33.1582" y2="68.8721">
				<stop  offset="0" style="stop-color:#D2BAA8"/>
				<stop  offset="1" style="stop-color:#D7C0AE"/>
			</linearGradient>
			<rect x="18.43" y="60.965" fill="url(#SVGID_9_)" width="14.729" height="15.814"/>
		</g>
		<g>
			<linearGradient id="SVGID_10_" gradientUnits="userSpaceOnUse" x1="18.4297" y1="60.4063" x2="33.1582" y2="60.4063">
				<stop  offset="0" style="stop-color:#E6D0BD"/>
				<stop  offset="1" style="stop-color:#ECD6C2"/>
			</linearGradient>
			<rect x="18.43" y="48.354" fill="url(#SVGID_10_)" width="14.729" height="24.105"/>
		</g>
		<g>
			<rect x="18.43" y="48.484" fill="#B6B6B2" width="14.729" height="17.652"/>
		</g>
		<g>
			<linearGradient id="SVGID_11_" gradientUnits="userSpaceOnUse" x1="18.2363" y1="55.0762" x2="33.3496" y2="55.0762">
				<stop  offset="0" style="stop-color:#E5E5E5"/>
				<stop  offset="1" style="stop-color:#E7EAE4"/>
			</linearGradient>
			<rect x="18.236" y="48.354" fill="url(#SVGID_11_)" width="15.113" height="13.445"/>
		</g>
		<linearGradient id="SVGID_12_" gradientUnits="userSpaceOnUse" x1="23.2246" y1="47.0098" x2="28.082" y2="47.0098">
			<stop  offset="0" style="stop-color:#D2BAA8"/>
			<stop  offset="1" style="stop-color:#D7C0AE"/>
		</linearGradient>
		<rect x="23.225" y="43.715" fill="url(#SVGID_12_)" width="4.857" height="6.59"/>
		<ellipse fill="#1E1E1C" cx="25.653" cy="43.715" rx="2.429" ry="2.502"/>
		<linearGradient id="SVGID_13_" gradientUnits="userSpaceOnUse" x1="23.2246" y1="54.3096" x2="28.082" y2="54.3096">
			<stop  offset="0" style="stop-color:#D2BAA8"/>
			<stop  offset="1" style="stop-color:#D7C0AE"/>
		</linearGradient>
		<rect x="23.225" y="51.016" fill="url(#SVGID_13_)" width="4.857" height="6.588"/>
		<ellipse fill="#1E1E1C" cx="25.653" cy="51.016" rx="2.429" ry="2.5"/>
		<linearGradient id="SVGID_14_" gradientUnits="userSpaceOnUse" x1="25.6533" y1="57.6035" x2="25.6533" y2="61.5303">
			<stop  offset="0" style="stop-color:#414142"/>
			<stop  offset="1" style="stop-color:#E7EAE4;stop-opacity:0"/>
		</linearGradient>
		<rect x="23.225" y="57.604" opacity="0.1" fill="url(#SVGID_14_)" width="4.857" height="3.927"/>
	</g>
	<path fill="#FFFFFF" d="M28.201,27.801c-1.193,1.381-2.721,2.992-0.871,5.569c2.473,3.448-0.945,5.665-0.945,5.665
		c1.557-3.777-2.279-2.764-4.436-7.396c-0.963-2.069-0.791-6.161,0.34-8.083c1.086-1.848,3.578-3.844,5.822-2.77
		C31.371,22.348,30.543,25.09,28.201,27.801z"/>
</g>
</svg>
