<?xml version="1.0" encoding="utf-8"?>
<!-- Generator: Adobe Illustrator 16.0.0, SVG Export Plug-In . SVG Version: 6.00 Build 0)  -->
<!DOCTYPE svg PUBLIC "-//W3C//DTD SVG 1.1//EN" "http://www.w3.org/Graphics/SVG/1.1/DTD/svg11.dtd">
<svg version="1.1" id="Livello_1" xmlns="http://www.w3.org/2000/svg" xmlns:xlink="http://www.w3.org/1999/xlink" x="0px" y="0px"
	 width="127px" height="62px" viewBox="0 0 127 62" enable-background="new 0 0 127 62" xml:space="preserve">
<g>
	<g>
		<linearGradient id="SVGID_1_" gradientUnits="userSpaceOnUse" x1="0.3809" y1="44.4561" x2="77.0762" y2="44.4561">
			<stop  offset="0" style="stop-color:#98D0D9;stop-opacity:0"/>
			<stop  offset="1" style="stop-color:#98D0D9"/>
		</linearGradient>
		<path fill="url(#SVGID_1_)" d="M62.242,35.64c-1.1,0-2-0.9-2-2v-1.338c0-1.1-0.9-2-2-2H39.209c-1.1,0-2-0.763-2-1.695
			s-0.9-1.695-2-1.695H18.83c-1.1,0-2,0.9-2,2v8.89c0,1.1,0.9,2,2,2h4.379c1.1,0,2,0.9,2,2v3.865c0,1.1-0.9,2-2,2H2.381
			c-1.1,0-2,0.9-2,2V60c0,1.1,0.9,2,2,2h31.845c1.1,0,2-0.9,2-2v-1.224c0-1.1,0.9-2,2-2h7.017c1.1,0,2-0.9,2-2v-5.649
			c0-1.1,0.9-2,2-2h9c1.1,0,2.9,0,4,0h12.834c1.1,0,2-0.9,2-2V37.64c0-1.1-0.9-2-2-2H62.242z"/>
	</g>
	<linearGradient id="SVGID_2_" gradientUnits="userSpaceOnUse" x1="65.7012" y1="41.4551" x2="126.8926" y2="41.4551">
		<stop  offset="0" style="stop-color:#E6D0BD"/>
		<stop  offset="1" style="stop-color:#ECD6C2"/>
	</linearGradient>
	<path fill="url(#SVGID_2_)" d="M122.631,46.396c2.537-2.895,4.122-6.637,4.262-10.757c-0.295,2.898-2.744,5.162-5.721,5.162h-49.57
		h-0.18c-2.977,0-5.426-2.264-5.721-5.162c0.25,5.405,3.879,9.924,8.826,11.488C88.607,47.643,109.438,46.604,122.631,46.396z"/>
	<linearGradient id="SVGID_3_" gradientUnits="userSpaceOnUse" x1="96.2969" y1="30.3018" x2="96.2969" y2="39.8022">
		<stop  offset="0" style="stop-color:#E5E5E5"/>
		<stop  offset="1" style="stop-color:#E7EAE4"/>
	</linearGradient>
	<path fill="url(#SVGID_3_)" d="M71.422,39.802c-2.447,0-4.479-1.834-4.725-4.264l-0.012-0.174
		c-0.006-0.104-0.014-0.207-0.014-0.313s0.008-0.209,0.014-0.313l0.016-0.229c0.242-2.377,2.273-4.209,4.721-4.209h49.75
		c2.447,0,4.479,1.832,4.725,4.262l0.012,0.211c0.006,0.092,0.014,0.184,0.014,0.277s-0.008,0.186-0.014,0.277l-0.016,0.275
		c-0.242,2.363-2.273,4.197-4.721,4.197H71.422z"/>
	<path fill="#B6B6B2" d="M71.422,31.802h49.75c2.746,0,5.039,1.926,5.609,4.5c0.09-0.404,0.141-0.82,0.141-1.25
		c0-3.176-2.574-5.75-5.75-5.75h-49.75c-3.176,0-5.75,2.574-5.75,5.75c0,0.43,0.051,0.846,0.141,1.25
		C66.383,33.728,68.676,31.802,71.422,31.802z"/>
	<circle fill="#FFFFFF" cx="95.02" cy="45.185" r="1.189"/>
	<circle fill="#FFFFFF" cx="89.02" cy="45.185" r="1.189"/>
	<circle fill="#FFFFFF" cx="101.02" cy="45.185" r="1.189"/>
	<circle fill="#FFFFFF" cx="107.353" cy="45.185" r="1.19"/>
	<circle fill="#FFFFFF" cx="113.02" cy="45.185" r="1.189"/>
	<linearGradient id="SVGID_4_" gradientUnits="userSpaceOnUse" x1="65.6719" y1="35.0518" x2="126.9219" y2="35.0518">
		<stop  offset="0" style="stop-color:#EEF1EC"/>
		<stop  offset="1" style="stop-color:#E7EAE4"/>
	</linearGradient>
	<path fill="url(#SVGID_4_)" d="M126.893,34.464c-0.295-2.9-2.744-5.162-5.721-5.162H93.424h-3.807H71.422
		c-2.977,0-5.426,2.262-5.721,5.162c-0.01,0.195-0.029,0.389-0.029,0.588c0,0.197,0.02,0.391,0.029,0.588
		c0.295,2.898,2.744,5.162,5.721,5.162h0.18h18.016h3.807h27.748c2.977,0,5.426-2.264,5.721-5.162
		c0.006-0.197,0.029-0.391,0.029-0.588C126.922,34.853,126.898,34.659,126.893,34.464z M125.908,35.329l-0.016,0.275
		c-0.242,2.363-2.273,4.197-4.721,4.197h-49.75c-2.447,0-4.479-1.834-4.725-4.264l-0.012-0.174
		c-0.006-0.104-0.014-0.207-0.014-0.313s0.008-0.209,0.014-0.313l0.016-0.229c0.242-2.377,2.273-4.209,4.721-4.209h49.75
		c2.447,0,4.479,1.832,4.725,4.262l0.012,0.211c0.006,0.092,0.014,0.184,0.014,0.277S125.914,35.237,125.908,35.329z"/>
	<linearGradient id="SVGID_5_" gradientUnits="userSpaceOnUse" x1="80.6348" y1="35.3594" x2="117.6348" y2="35.3594">
		<stop  offset="0" style="stop-color:#D2BAA8"/>
		<stop  offset="1" style="stop-color:#D7C0AE"/>
	</linearGradient>
	<rect x="80.635" y="30.917" fill="url(#SVGID_5_)" width="37" height="8.885"/>
	<linearGradient id="SVGID_6_" gradientUnits="userSpaceOnUse" x1="99.1406" y1="39.8018" x2="99.1406" y2="43.1572">
		<stop  offset="0" style="stop-color:#414142"/>
		<stop  offset="1" style="stop-color:#E7EAE4;stop-opacity:0"/>
	</linearGradient>
	<rect x="80.646" y="39.802" opacity="0.1" fill="url(#SVGID_6_)" width="36.988" height="3.355"/>
	<g>
		<linearGradient id="SVGID_7_" gradientUnits="userSpaceOnUse" x1="80.6348" y1="31.917" x2="117.6348" y2="31.917">
			<stop  offset="0" style="stop-color:#E6D0BD"/>
			<stop  offset="1" style="stop-color:#ECD6C2"/>
		</linearGradient>
		<rect x="80.635" y="27.532" fill="url(#SVGID_7_)" width="37" height="8.77"/>
	</g>
	<g>
		<rect x="80.635" y="27.532" fill="#B6B6B2" width="25.793" height="8.77"/>
	</g>
	<g>
		<linearGradient id="SVGID_8_" gradientUnits="userSpaceOnUse" x1="80.6348" y1="27.5327" x2="106.4277" y2="27.5327">
			<stop  offset="0" style="stop-color:#E5E5E5"/>
			<stop  offset="1" style="stop-color:#E7EAE4"/>
		</linearGradient>
		<rect x="80.635" y="23.148" fill="url(#SVGID_8_)" width="25.793" height="8.769"/>
	</g>
	<linearGradient id="SVGID_9_" gradientUnits="userSpaceOnUse" x1="85.3281" y1="24.6968" x2="90.332" y2="24.6968">
		<stop  offset="0" style="stop-color:#D2BAA8"/>
		<stop  offset="1" style="stop-color:#D7C0AE"/>
	</linearGradient>
	<rect x="85.328" y="21.402" fill="url(#SVGID_9_)" width="5.004" height="6.589"/>
	<circle fill="#1E1E1C" cx="87.83" cy="21.402" r="2.502"/>
	<linearGradient id="SVGID_10_" gradientUnits="userSpaceOnUse" x1="95.5293" y1="24.6968" x2="100.5332" y2="24.6968">
		<stop  offset="0" style="stop-color:#D2BAA8"/>
		<stop  offset="1" style="stop-color:#D7C0AE"/>
	</linearGradient>
	<rect x="95.529" y="21.402" fill="url(#SVGID_10_)" width="5.004" height="6.589"/>
	<circle fill="#1E1E1C" cx="98.031" cy="21.402" r="2.502"/>
	<linearGradient id="SVGID_11_" gradientUnits="userSpaceOnUse" x1="87.8301" y1="27.9912" x2="87.8301" y2="31.917">
		<stop  offset="0" style="stop-color:#414142"/>
		<stop  offset="1" style="stop-color:#E7EAE4;stop-opacity:0"/>
	</linearGradient>
	<rect x="85.328" y="27.991" opacity="0.1" fill="url(#SVGID_11_)" width="5.004" height="3.926"/>
	<linearGradient id="SVGID_12_" gradientUnits="userSpaceOnUse" x1="98.0313" y1="27.9912" x2="98.0313" y2="31.917">
		<stop  offset="0" style="stop-color:#414142"/>
		<stop  offset="1" style="stop-color:#E7EAE4;stop-opacity:0"/>
	</linearGradient>
	<rect x="95.529" y="27.991" opacity="0.1" fill="url(#SVGID_12_)" width="5.004" height="3.926"/>
	<path fill="#FFFFFF" d="M87.941,17.098c0,0-0.096-4.273-4.631-4.041c-4.533,0.23-3.486-0.895-4.584-3.92
		c-1.102-3.027-3.896-8.313-10.775-8.222c-6.881,0.09-7.549,4.687-6.914,7.072c0.533,2.003,4.188,4.398,7.428,3.45
		c3.674-1.074,4.494-0.552,5.617,1.861c1.121,2.412,3.896,3.885,5.908,3.704C82,16.818,85.375,13.558,87.941,17.098z"/>
</g>
</svg>
