<?xml version="1.0" encoding="utf-8"?>
<!-- Generator: Adobe Illustrator 16.0.0, SVG Export Plug-In . SVG Version: 6.00 Build 0)  -->
<!DOCTYPE svg PUBLIC "-//W3C//DTD SVG 1.1//EN" "http://www.w3.org/Graphics/SVG/1.1/DTD/svg11.dtd">
<svg version="1.1" id="Livello_1" xmlns="http://www.w3.org/2000/svg" xmlns:xlink="http://www.w3.org/1999/xlink" x="0px" y="0px"
	 width="46px" height="93px" viewBox="0 0 46 93" enable-background="new 0 0 46 93" xml:space="preserve">
<g>
	
		<linearGradient id="SVGID_1_" gradientUnits="userSpaceOnUse" x1="1367.9688" y1="2436.041" x2="1433.332" y2="2436.041" gradientTransform="matrix(0 1 -1 0 2459.0332 -1367.502)">
		<stop  offset="0" style="stop-color:#98D0D9;stop-opacity:0"/>
		<stop  offset="1" style="stop-color:#98D0D9"/>
	</linearGradient>
	<path fill="url(#SVGID_1_)" d="M28.923,51.079c0-1.146,0.937-2.082,2.082-2.082h1.622c1.146,0,2.082-0.937,2.082-2.082V30.3
		c0-1.145,0.937-2.082,2.082-2.082h6.758c1.146,0,2.082-0.937,2.082-2.082V7.667c0-1.145-0.937-2.082-2.082-2.082H31.728
		c-1.146,0-2.082,0.937-2.082,2.082v4.215c0,1.145-0.937,2.082-2.082,2.082h-4.778c-1.145,0-2.082-0.937-2.082-2.082V2.55
		c0-1.145-0.937-2.082-2.082-2.082H2.437c-1.145,0-2.082,0.937-2.082,2.082v20.349c0,1.145,0.937,2.082,2.082,2.082h1.497
		c1.145,0,2.082,0.937,2.082,2.082v6.853c0,1.145,0.937,2.082,2.082,2.082h6.294c1.145,0,2.082,0.937,2.082,2.082v8.836
		c0,1.146,0,3.019,0,4.164v12.67c0,1.146,0.937,2.082,2.082,2.082h8.285c1.146,0,2.082-0.937,2.082-2.082V51.079z"/>
</g>
<g>
	<path fill="#B6B6B2" d="M25.035,41.309c-3.176,0-5.75,2.575-5.75,5.751v2.154c0-3.176,2.574-5.75,5.75-5.75s5.75,2.574,5.75,5.75
		V47.06C30.785,43.884,28.211,41.309,25.035,41.309z"/>
	<linearGradient id="SVGID_2_" gradientUnits="userSpaceOnUse" x1="19.2852" y1="63.749" x2="30.7852" y2="63.749">
		<stop  offset="0" style="stop-color:#EEF1EC"/>
		<stop  offset="1" style="stop-color:#E7EAE4"/>
	</linearGradient>
	<path fill="url(#SVGID_2_)" d="M25.035,43.464c-3.176,0-5.75,2.574-5.75,5.75v29.07c0,3.176,2.574,5.75,5.75,5.75
		s5.75-2.574,5.75-5.75v-29.07C30.785,46.038,28.211,43.464,25.035,43.464z"/>
	<linearGradient id="SVGID_3_" gradientUnits="userSpaceOnUse" x1="19.2852" y1="78.2842" x2="30.7852" y2="78.2842">
		<stop  offset="0" style="stop-color:#E6D0BD"/>
		<stop  offset="1" style="stop-color:#ECD6C2"/>
	</linearGradient>
	<path fill="url(#SVGID_3_)" d="M25.035,65.831c-3.516,3.008-5.75,7.467-5.75,12.453c0,4.988,2.234,9.447,5.75,12.453
		c3.514-3.006,5.75-7.465,5.75-12.453C30.785,73.298,28.549,68.839,25.035,65.831z"/>
	<linearGradient id="SVGID_4_" gradientUnits="userSpaceOnUse" x1="19.2852" y1="78.2842" x2="52.0664" y2="78.2842">
		<stop  offset="0" style="stop-color:#E6D0BD"/>
		<stop  offset="1" style="stop-color:#ECD6C2"/>
	</linearGradient>
	<path fill="url(#SVGID_4_)" d="M25.035,65.831c-3.516,3.008-5.75,7.467-5.75,12.453c0,4.988,2.234,9.447,5.75,12.453
		c3.514-3.006,5.75-7.465,5.75-12.453C30.785,73.298,28.549,68.839,25.035,65.831z"/>
	<linearGradient id="SVGID_5_" gradientUnits="userSpaceOnUse" x1="-6.6973" y1="78.2842" x2="31.785" y2="78.2842">
		<stop  offset="0" style="stop-color:#D2BAA8"/>
		<stop  offset="1" style="stop-color:#D7C0AE"/>
	</linearGradient>
	<path fill="url(#SVGID_5_)" d="M25.035,63.665c-4.127,3.531-6.75,8.766-6.75,14.619c0,5.855,2.623,11.09,6.75,14.619
		c4.125-3.529,6.75-8.764,6.75-14.619C31.785,72.431,29.16,67.196,25.035,63.665z"/>
	<linearGradient id="SVGID_6_" gradientUnits="userSpaceOnUse" x1="19.2852" y1="63.749" x2="30.7852" y2="63.749">
		<stop  offset="0" style="stop-color:#E5E5E5"/>
		<stop  offset="1" style="stop-color:#E7EAE4"/>
	</linearGradient>
	<path fill="url(#SVGID_6_)" d="M25.035,43.464c-3.176,0-5.75,2.574-5.75,5.75v29.07c0,3.176,2.574,5.75,5.75,5.75
		s5.75-2.574,5.75-5.75v-29.07C30.785,46.038,28.211,43.464,25.035,43.464z"/>
	<linearGradient id="SVGID_7_" gradientUnits="userSpaceOnUse" x1="25.0352" y1="75.2559" x2="25.0352" y2="80.2842">
		<stop  offset="0" style="stop-color:#414142"/>
		<stop  offset="1" style="stop-color:#E7EAE4;stop-opacity:0"/>
	</linearGradient>
	<rect x="19.432" y="75.256" opacity="0.1" fill="url(#SVGID_7_)" width="11.207" height="5.028"/>
	<linearGradient id="SVGID_8_" gradientUnits="userSpaceOnUse" x1="18.2852" y1="62.6719" x2="31.7852" y2="62.6719">
		<stop  offset="0" style="stop-color:#EEF1EC"/>
		<stop  offset="1" style="stop-color:#E7EAE4"/>
	</linearGradient>
	<path fill="url(#SVGID_8_)" d="M25.035,40.309c-3.723,0-6.75,3.028-6.75,6.751v31.225c0,3.723,3.027,6.75,6.75,6.75
		s6.75-3.027,6.75-6.75V47.06C31.785,43.337,28.758,40.309,25.035,40.309z M30.785,49.214v29.07c0,3.176-2.574,5.75-5.75,5.75
		s-5.75-2.574-5.75-5.75v-29.07V47.06c0-3.176,2.574-5.751,5.75-5.751s5.75,2.575,5.75,5.751V49.214z"/>
	<linearGradient id="SVGID_9_" gradientUnits="userSpaceOnUse" x1="19.4121" y1="73.4023" x2="30.9121" y2="73.4023">
		<stop  offset="0" style="stop-color:#D2BAA8"/>
		<stop  offset="1" style="stop-color:#D7C0AE"/>
	</linearGradient>
	<rect x="19.412" y="71.152" fill="url(#SVGID_9_)" width="11.5" height="4.5"/>
	<linearGradient id="SVGID_10_" gradientUnits="userSpaceOnUse" x1="19.4121" y1="60.124" x2="30.9121" y2="60.124">
		<stop  offset="0" style="stop-color:#E6D0BD"/>
		<stop  offset="1" style="stop-color:#ECD6C2"/>
	</linearGradient>
	<rect x="19.412" y="49.096" fill="url(#SVGID_10_)" width="11.5" height="22.057"/>
	<path fill="#B6B6B2" d="M25.16,25.725c-0.605,0-1.096,0.491-1.096,1.098V59.22h2.193V26.822
		C26.258,26.216,25.768,25.725,25.16,25.725z"/>
	<linearGradient id="SVGID_11_" gradientUnits="userSpaceOnUse" x1="25.0352" y1="56.0762" x2="25.0352" y2="29.9595">
		<stop  offset="0" style="stop-color:#F5F5F5"/>
		<stop  offset="1" style="stop-color:#FFFFFF"/>
	</linearGradient>
	<rect x="11.977" y="29.959" fill="url(#SVGID_11_)" width="26.117" height="26.117"/>
	<path fill="#B6B6B2" d="M25.16,37.387c-0.605,0-1.096,0.491-1.096,1.098V64.9h2.193V38.484
		C26.258,37.878,25.768,37.387,25.16,37.387z"/>
	<linearGradient id="SVGID_12_" gradientUnits="userSpaceOnUse" x1="25.0352" y1="67.7383" x2="25.0352" y2="41.6216">
		<stop  offset="0" style="stop-color:#F5F5F5"/>
		<stop  offset="1" style="stop-color:#FFFFFF"/>
	</linearGradient>
	<rect x="11.977" y="41.621" fill="url(#SVGID_12_)" width="26.117" height="26.117"/>
</g>
</svg>
