<?xml version="1.0" encoding="utf-8"?>
<!-- Generator: Adobe Illustrator 16.0.0, SVG Export Plug-In . SVG Version: 6.00 Build 0)  -->
<!DOCTYPE svg PUBLIC "-//W3C//DTD SVG 1.1//EN" "http://www.w3.org/Graphics/SVG/1.1/DTD/svg11.dtd">
<svg version="1.1" id="Layer_1" xmlns="http://www.w3.org/2000/svg" xmlns:xlink="http://www.w3.org/1999/xlink" x="0px" y="0px"
	 width="20px" height="50px" viewBox="0 0 20 50" enable-background="new 0 0 20 50" xml:space="preserve">
<g>
	<rect x="1.605" y="35.626" fill="#E86C66" width="7.438" height="6.356"/>
	<rect x="1.605" y="30.487" fill="#D94738" width="7.438" height="5.139"/>
	<rect x="3.006" y="27.987" fill="#E86C66" width="7.438" height="6.356"/>
	<rect x="3.006" y="22.849" fill="#D94738" width="7.438" height="5.139"/>
	<rect x="2.305" y="20.37" fill="#E86C66" width="7.439" height="6.356"/>
	<rect x="2.305" y="15.231" fill="#D94738" width="7.439" height="5.139"/>
	<rect x="1.605" y="12.873" fill="#E86C66" width="7.438" height="6.356"/>
	<rect x="1.605" y="7.733" fill="#D94738" width="7.438" height="5.14"/>
	<rect x="3.006" y="5.375" fill="#E86C66" width="7.438" height="6.356"/>
	<rect x="3.006" y="0.236" fill="#D94738" width="7.438" height="5.139"/>
	<linearGradient id="SVGID_1_" gradientUnits="userSpaceOnUse" x1="5.3247" y1="41.9824" x2="5.3247" y2="48.3369">
		<stop  offset="0" style="stop-color:#414042"/>
		<stop  offset="1" style="stop-color:#E6E9E4;stop-opacity:0"/>
	</linearGradient>
	<rect x="1.605" y="41.982" opacity="0.1" fill="url(#SVGID_1_)" width="7.438" height="6.354"/>
	<rect x="12.28" y="35.626" fill="#E86C66" width="7.438" height="6.356"/>
	<rect x="12.28" y="30.487" fill="#D94738" width="7.438" height="5.139"/>
	<linearGradient id="SVGID_2_" gradientUnits="userSpaceOnUse" x1="16" y1="41.9824" x2="16" y2="48.3369">
		<stop  offset="0" style="stop-color:#414042"/>
		<stop  offset="1" style="stop-color:#E6E9E4;stop-opacity:0"/>
	</linearGradient>
	<rect x="12.28" y="41.982" opacity="0.1" fill="url(#SVGID_2_)" width="7.438" height="6.354"/>
</g>
</svg>
