<?xml version="1.0" encoding="utf-8"?>
<!-- Generator: Adobe Illustrator 16.0.0, SVG Export Plug-In . SVG Version: 6.00 Build 0)  -->
<!DOCTYPE svg PUBLIC "-//W3C//DTD SVG 1.1//EN" "http://www.w3.org/Graphics/SVG/1.1/DTD/svg11.dtd">
<svg version="1.1" id="Layer_1" xmlns="http://www.w3.org/2000/svg" xmlns:xlink="http://www.w3.org/1999/xlink" x="0px" y="0px"
	 width="22px" height="52px" viewBox="0 0 22 52" enable-background="new 0 0 22 52" xml:space="preserve">
<g>
	<linearGradient id="SVGID_1_" gradientUnits="userSpaceOnUse" x1="5.4692" y1="43.3369" x2="5.4692" y2="49.6914">
		<stop  offset="0" style="stop-color:#414042"/>
		<stop  offset="1" style="stop-color:#E6E9E4;stop-opacity:0"/>
	</linearGradient>
	<rect x="1.75" y="43.337" opacity="0.1" fill="url(#SVGID_1_)" width="7.438" height="6.354"/>
	<rect x="1.75" y="36.981" fill="#E86C66" width="7.438" height="6.355"/>
	<rect x="1.75" y="31.841" fill="#D94738" width="7.438" height="5.141"/>
	<rect x="3.149" y="29.483" fill="#E86C66" width="7.438" height="6.355"/>
	<rect x="3.149" y="24.343" fill="#D94738" width="7.438" height="5.141"/>
	<rect x="2.449" y="21.985" fill="#E86C66" width="7.439" height="6.355"/>
	<rect x="2.449" y="16.846" fill="#D94738" width="7.439" height="5.14"/>
	<rect x="1.05" y="14.487" fill="#E86C66" width="7.438" height="6.355"/>
	<rect x="1.05" y="9.349" fill="#D94738" width="7.438" height="5.139"/>
	<rect x="1.75" y="6.989" fill="#E86C66" width="7.438" height="6.356"/>
	<rect x="1.75" y="1.851" fill="#D94738" width="7.438" height="5.139"/>
	<linearGradient id="SVGID_2_" gradientUnits="userSpaceOnUse" x1="17.6816" y1="43.3369" x2="17.6816" y2="49.6914">
		<stop  offset="0" style="stop-color:#414042"/>
		<stop  offset="1" style="stop-color:#E6E9E4;stop-opacity:0"/>
	</linearGradient>
	<rect x="13.963" y="43.337" opacity="0.1" fill="url(#SVGID_2_)" width="7.438" height="6.354"/>
	<rect x="13.963" y="36.981" fill="#E86C66" width="7.438" height="6.355"/>
	<rect x="13.963" y="31.841" fill="#D94738" width="7.438" height="5.141"/>
	<rect x="13.263" y="29.483" fill="#E86C66" width="7.438" height="6.355"/>
	<rect x="13.263" y="24.343" fill="#D94738" width="7.438" height="5.141"/>
	<rect x="13.963" y="21.985" fill="#E86C66" width="7.438" height="6.355"/>
	<rect x="13.963" y="16.846" fill="#D94738" width="7.438" height="5.14"/>
	<rect x="13.263" y="14.487" fill="#E86C66" width="7.438" height="6.355"/>
	<rect x="13.263" y="9.349" fill="#D94738" width="7.438" height="5.139"/>
	<rect x="13.963" y="6.989" fill="#E86C66" width="7.438" height="6.356"/>
	<rect x="13.963" y="1.851" fill="#D94738" width="7.438" height="5.139"/>
</g>
</svg>
