<?xml version="1.0" encoding="utf-8"?>
<!-- Generator: Adobe Illustrator 16.0.0, SVG Export Plug-In . SVG Version: 6.00 Build 0)  -->
<!DOCTYPE svg PUBLIC "-//W3C//DTD SVG 1.1//EN" "http://www.w3.org/Graphics/SVG/1.1/DTD/svg11.dtd">
<svg version="1.1" id="Livello_1" xmlns="http://www.w3.org/2000/svg" xmlns:xlink="http://www.w3.org/1999/xlink" x="0px" y="0px"
	 width="52px" height="70px" viewBox="0 0 52 70" enable-background="new 0 0 52 70" xml:space="preserve">
<path fill="#98D0D9" d="M5.658,42.545c-2.758,0-5-2.242-5-4.998c0-2.757,2.242-5.001,5-5.001s5,2.244,5,5.001
	C10.658,40.303,8.416,42.545,5.658,42.545z"/>
<path fill="#98D0D9" d="M46.714,42.545c-2.758,0-5.001-2.242-5.001-4.998c0-2.757,2.243-5.001,5.001-5.001c2.757,0,5,2.244,5,5.001
	C51.714,40.303,49.471,42.545,46.714,42.545z"/>
<polygon fill="#A9CB57" points="12.439,13.764 17.332,5.289 22.226,13.764 "/>
<linearGradient id="SVGID_1_" gradientUnits="userSpaceOnUse" x1="46.7139" y1="37.5449" x2="46.7139" y2="46.4688">
	<stop  offset="0" style="stop-color:#414142"/>
	<stop  offset="1" style="stop-color:#E7EAE4;stop-opacity:0"/>
</linearGradient>
<path opacity="0.1" fill="url(#SVGID_1_)" d="M44.547,37.545v6.758c0,1.195,0.971,2.166,2.167,2.166s2.167-0.971,2.167-2.166v-6.758
	H44.547z"/>
<linearGradient id="SVGID_2_" gradientUnits="userSpaceOnUse" x1="5.6582" y1="37.5449" x2="5.6582" y2="46.4688">
	<stop  offset="0" style="stop-color:#414142"/>
	<stop  offset="1" style="stop-color:#E7EAE4;stop-opacity:0"/>
</linearGradient>
<path opacity="0.1" fill="url(#SVGID_2_)" d="M3.491,37.545v6.758c0,1.195,0.971,2.166,2.167,2.166s2.167-0.971,2.167-2.166v-6.758
	H3.491z"/>
<linearGradient id="SVGID_3_" gradientUnits="userSpaceOnUse" x1="3.4912" y1="37.5459" x2="7.8252" y2="37.5459">
	<stop  offset="0" style="stop-color:#D2BAA8"/>
	<stop  offset="1" style="stop-color:#D7C0AE"/>
</linearGradient>
<circle fill="url(#SVGID_3_)" cx="5.658" cy="37.547" r="2.167"/>
<linearGradient id="SVGID_4_" gradientUnits="userSpaceOnUse" x1="3.4912" y1="31.7666" x2="7.8252" y2="31.7666">
	<stop  offset="0" style="stop-color:#D2BAA8"/>
	<stop  offset="1" style="stop-color:#D7C0AE"/>
</linearGradient>
<rect x="3.491" y="25.987" fill="url(#SVGID_4_)" width="4.334" height="11.56"/>
<linearGradient id="SVGID_5_" gradientUnits="userSpaceOnUse" x1="3.4912" y1="25.9858" x2="7.8252" y2="25.9858">
	<stop  offset="0" style="stop-color:#E6D0BD"/>
	<stop  offset="1" style="stop-color:#ECD6C2"/>
</linearGradient>
<circle fill="url(#SVGID_5_)" cx="5.658" cy="25.987" r="2.167"/>
<linearGradient id="SVGID_6_" gradientUnits="userSpaceOnUse" x1="44.5469" y1="37.5459" x2="48.8809" y2="37.5459">
	<stop  offset="0" style="stop-color:#D2BAA8"/>
	<stop  offset="1" style="stop-color:#D7C0AE"/>
</linearGradient>
<circle fill="url(#SVGID_6_)" cx="46.714" cy="37.547" r="2.167"/>
<linearGradient id="SVGID_7_" gradientUnits="userSpaceOnUse" x1="44.5469" y1="31.7666" x2="48.8809" y2="31.7666">
	<stop  offset="0" style="stop-color:#D2BAA8"/>
	<stop  offset="1" style="stop-color:#D7C0AE"/>
</linearGradient>
<rect x="44.547" y="25.987" fill="url(#SVGID_7_)" width="4.334" height="11.56"/>
<linearGradient id="SVGID_8_" gradientUnits="userSpaceOnUse" x1="44.5469" y1="25.9858" x2="48.8809" y2="25.9858">
	<stop  offset="0" style="stop-color:#E6D0BD"/>
	<stop  offset="1" style="stop-color:#ECD6C2"/>
</linearGradient>
<circle fill="url(#SVGID_8_)" cx="46.714" cy="25.987" r="2.167"/>
<linearGradient id="SVGID_9_" gradientUnits="userSpaceOnUse" x1="5.6582" y1="45.5225" x2="46.7139" y2="45.5225">
	<stop  offset="0" style="stop-color:#D2BAA8"/>
	<stop  offset="1" style="stop-color:#D7C0AE"/>
</linearGradient>
<rect x="5.658" y="32.586" fill="url(#SVGID_9_)" width="41.056" height="25.873"/>
<linearGradient id="SVGID_10_" gradientUnits="userSpaceOnUse" x1="5.6582" y1="43.7314" x2="46.7139" y2="43.7314">
	<stop  offset="0" style="stop-color:#E6D0BD"/>
	<stop  offset="1" style="stop-color:#ECD6C2"/>
</linearGradient>
<rect x="5.658" y="30.795" fill="url(#SVGID_10_)" width="41.056" height="25.873"/>
<linearGradient id="SVGID_11_" gradientUnits="userSpaceOnUse" x1="3.4912" y1="30.7896" x2="7.8252" y2="30.7896">
	<stop  offset="0" style="stop-color:#D2BAA8"/>
	<stop  offset="1" style="stop-color:#D7C0AE"/>
</linearGradient>
<circle fill="url(#SVGID_11_)" cx="5.658" cy="30.791" r="2.167"/>
<linearGradient id="SVGID_12_" gradientUnits="userSpaceOnUse" x1="44.5469" y1="30.7896" x2="48.8809" y2="30.7896">
	<stop  offset="0" style="stop-color:#D2BAA8"/>
	<stop  offset="1" style="stop-color:#D7C0AE"/>
</linearGradient>
<circle fill="url(#SVGID_12_)" cx="46.714" cy="30.791" r="2.167"/>
<g>
	<rect x="9.215" y="2.465" fill="#FFFFFF" width="15.929" height="14.956"/>
	
		<line fill="none" stroke="#010202" stroke-width="0.75" stroke-linecap="round" stroke-miterlimit="10" x1="25.77" y1="2.465" x2="25.77" y2="44.572"/>
	<g opacity="0.15">
		<linearGradient id="SVGID_13_" gradientUnits="userSpaceOnUse" x1="25.7695" y1="44.8008" x2="25.7695" y2="57.7363">
			<stop  offset="0" style="stop-color:#414142"/>
			<stop  offset="1" style="stop-color:#E7EAE4;stop-opacity:0"/>
		</linearGradient>
		<line fill="url(#SVGID_13_)" x1="25.77" y1="44.801" x2="25.77" y2="57.736"/>
		<linearGradient id="SVGID_14_" gradientUnits="userSpaceOnUse" x1="25.771" y1="44.123" x2="25.771" y2="58.4219">
			<stop  offset="0" style="stop-color:#414142"/>
			<stop  offset="1" style="stop-color:#E7EAE4;stop-opacity:0"/>
		</linearGradient>
		<path fill="url(#SVGID_14_)" d="M25.77,58.422c-0.316,0-0.572-0.311-0.572-0.686V44.801c0-0.375,0.256-0.678,0.572-0.678
			c0.317,0,0.575,0.303,0.575,0.678v12.936C26.345,58.111,26.087,58.422,25.77,58.422z"/>
	</g>
</g>
<path fill="#98D0D9" d="M5.658,68.239c-2.758,0-5-2.242-5-5c0-2.756,2.242-5.001,5-5.001s5,2.245,5,5.001
	C10.658,65.997,8.416,68.239,5.658,68.239z"/>
<radialGradient id="SVGID_15_" cx="46.7129" cy="63.2383" r="5.001" gradientUnits="userSpaceOnUse">
	<stop  offset="0" style="stop-color:#98D0D9;stop-opacity:0"/>
	<stop  offset="1" style="stop-color:#98D0D9"/>
</radialGradient>
<path fill="url(#SVGID_15_)" d="M46.714,68.239c-2.758,0-5.001-2.242-5.001-5c0-2.756,2.243-5.001,5.001-5.001
	c2.757,0,5,2.245,5,5.001C51.714,65.997,49.471,68.239,46.714,68.239z"/>
<linearGradient id="SVGID_16_" gradientUnits="userSpaceOnUse" x1="3.4912" y1="63.2383" x2="7.8252" y2="63.2383">
	<stop  offset="0" style="stop-color:#D2BAA8"/>
	<stop  offset="1" style="stop-color:#D7C0AE"/>
</linearGradient>
<circle fill="url(#SVGID_16_)" cx="5.658" cy="63.239" r="2.167"/>
<linearGradient id="SVGID_17_" gradientUnits="userSpaceOnUse" x1="3.4912" y1="57.459" x2="7.8252" y2="57.459">
	<stop  offset="0" style="stop-color:#D2BAA8"/>
	<stop  offset="1" style="stop-color:#D7C0AE"/>
</linearGradient>
<rect x="3.491" y="51.68" fill="url(#SVGID_17_)" width="4.334" height="11.56"/>
<linearGradient id="SVGID_18_" gradientUnits="userSpaceOnUse" x1="3.4912" y1="51.6787" x2="7.8252" y2="51.6787">
	<stop  offset="0" style="stop-color:#E6D0BD"/>
	<stop  offset="1" style="stop-color:#ECD6C2"/>
</linearGradient>
<circle fill="url(#SVGID_18_)" cx="5.658" cy="51.68" r="2.167"/>
<linearGradient id="SVGID_19_" gradientUnits="userSpaceOnUse" x1="44.5469" y1="63.2383" x2="48.8809" y2="63.2383">
	<stop  offset="0" style="stop-color:#D2BAA8"/>
	<stop  offset="1" style="stop-color:#D7C0AE"/>
</linearGradient>
<circle fill="url(#SVGID_19_)" cx="46.714" cy="63.239" r="2.167"/>
<linearGradient id="SVGID_20_" gradientUnits="userSpaceOnUse" x1="44.5469" y1="57.459" x2="48.8809" y2="57.459">
	<stop  offset="0" style="stop-color:#D2BAA8"/>
	<stop  offset="1" style="stop-color:#D7C0AE"/>
</linearGradient>
<rect x="44.547" y="51.68" fill="url(#SVGID_20_)" width="4.334" height="11.56"/>
<linearGradient id="SVGID_21_" gradientUnits="userSpaceOnUse" x1="44.5469" y1="51.6787" x2="48.8809" y2="51.6787">
	<stop  offset="0" style="stop-color:#E6D0BD"/>
	<stop  offset="1" style="stop-color:#ECD6C2"/>
</linearGradient>
<circle fill="url(#SVGID_21_)" cx="46.714" cy="51.68" r="2.167"/>
<g>
	<path fill="#A9CB57" d="M17.332,7.299l3.149,5.454h-6.298L17.332,7.299 M17.332,5.299l-4.881,8.454h9.762L17.332,5.299
		L17.332,5.299z"/>
</g>
</svg>
