<?xml version="1.0" encoding="utf-8"?>
<!-- Generator: Adobe Illustrator 16.0.0, SVG Export Plug-In . SVG Version: 6.00 Build 0)  -->
<!DOCTYPE svg PUBLIC "-//W3C//DTD SVG 1.1//EN" "http://www.w3.org/Graphics/SVG/1.1/DTD/svg11.dtd">
<svg version="1.1" id="Livello_1" xmlns="http://www.w3.org/2000/svg" xmlns:xlink="http://www.w3.org/1999/xlink" x="0px" y="0px"
	 width="52px" height="70px" viewBox="0 0 52 70" enable-background="new 0 0 52 70" xml:space="preserve">
<path fill="#98D0D9" d="M5.658,40.545c-2.758,0-5-2.242-5-4.999c0-2.757,2.242-5.001,5-5.001s5,2.244,5,5.001
	C10.658,38.303,8.416,40.545,5.658,40.545z"/>
<path fill="#98D0D9" d="M46.714,40.545c-2.758,0-5.001-2.242-5.001-4.999c0-2.757,2.243-5.001,5.001-5.001c2.757,0,5,2.244,5,5.001
	C51.714,38.303,49.471,40.545,46.714,40.545z"/>
<polygon fill="#A9CB57" points="12.439,11.764 17.332,3.289 22.226,11.764 "/>
<linearGradient id="SVGID_1_" gradientUnits="userSpaceOnUse" x1="46.7139" y1="35.5454" x2="46.7139" y2="44.4692">
	<stop  offset="0" style="stop-color:#414142"/>
	<stop  offset="1" style="stop-color:#E7EAE4;stop-opacity:0"/>
</linearGradient>
<path opacity="0.1" fill="url(#SVGID_1_)" d="M44.547,35.545v6.757c0,1.195,0.971,2.166,2.167,2.166s2.167-0.971,2.167-2.166v-6.757
	H44.547z"/>
<linearGradient id="SVGID_2_" gradientUnits="userSpaceOnUse" x1="5.6582" y1="35.5454" x2="5.6582" y2="44.4692">
	<stop  offset="0" style="stop-color:#414142"/>
	<stop  offset="1" style="stop-color:#E7EAE4;stop-opacity:0"/>
</linearGradient>
<path opacity="0.1" fill="url(#SVGID_2_)" d="M3.491,35.545v6.757c0,1.195,0.971,2.166,2.167,2.166s2.167-0.971,2.167-2.166v-6.757
	H3.491z"/>
<linearGradient id="SVGID_3_" gradientUnits="userSpaceOnUse" x1="3.4912" y1="35.5459" x2="7.8252" y2="35.5459">
	<stop  offset="0" style="stop-color:#D2BAA8"/>
	<stop  offset="1" style="stop-color:#D7C0AE"/>
</linearGradient>
<circle fill="url(#SVGID_3_)" cx="5.658" cy="35.546" r="2.167"/>
<linearGradient id="SVGID_4_" gradientUnits="userSpaceOnUse" x1="3.4912" y1="29.7666" x2="7.8252" y2="29.7666">
	<stop  offset="0" style="stop-color:#D2BAA8"/>
	<stop  offset="1" style="stop-color:#D7C0AE"/>
</linearGradient>
<rect x="3.491" y="23.987" fill="url(#SVGID_4_)" width="4.334" height="11.56"/>
<linearGradient id="SVGID_5_" gradientUnits="userSpaceOnUse" x1="3.4912" y1="23.9858" x2="7.8252" y2="23.9858">
	<stop  offset="0" style="stop-color:#E6D0BD"/>
	<stop  offset="1" style="stop-color:#ECD6C2"/>
</linearGradient>
<circle fill="url(#SVGID_5_)" cx="5.658" cy="23.987" r="2.167"/>
<linearGradient id="SVGID_6_" gradientUnits="userSpaceOnUse" x1="44.5469" y1="35.5459" x2="48.8809" y2="35.5459">
	<stop  offset="0" style="stop-color:#D2BAA8"/>
	<stop  offset="1" style="stop-color:#D7C0AE"/>
</linearGradient>
<circle fill="url(#SVGID_6_)" cx="46.714" cy="35.546" r="2.167"/>
<linearGradient id="SVGID_7_" gradientUnits="userSpaceOnUse" x1="44.5469" y1="29.7666" x2="48.8809" y2="29.7666">
	<stop  offset="0" style="stop-color:#D2BAA8"/>
	<stop  offset="1" style="stop-color:#D7C0AE"/>
</linearGradient>
<rect x="44.547" y="23.987" fill="url(#SVGID_7_)" width="4.334" height="11.56"/>
<linearGradient id="SVGID_8_" gradientUnits="userSpaceOnUse" x1="44.5469" y1="23.9858" x2="48.8809" y2="23.9858">
	<stop  offset="0" style="stop-color:#E6D0BD"/>
	<stop  offset="1" style="stop-color:#ECD6C2"/>
</linearGradient>
<circle fill="url(#SVGID_8_)" cx="46.714" cy="23.987" r="2.167"/>
<linearGradient id="SVGID_9_" gradientUnits="userSpaceOnUse" x1="5.6582" y1="43.5225" x2="46.7139" y2="43.5225">
	<stop  offset="0" style="stop-color:#D2BAA8"/>
	<stop  offset="1" style="stop-color:#D7C0AE"/>
</linearGradient>
<rect x="5.658" y="30.586" fill="url(#SVGID_9_)" width="41.056" height="25.873"/>
<linearGradient id="SVGID_10_" gradientUnits="userSpaceOnUse" x1="5.6582" y1="41.7314" x2="46.7139" y2="41.7314">
	<stop  offset="0" style="stop-color:#E6D0BD"/>
	<stop  offset="1" style="stop-color:#ECD6C2"/>
</linearGradient>
<rect x="5.658" y="28.795" fill="url(#SVGID_10_)" width="41.056" height="25.873"/>
<linearGradient id="SVGID_11_" gradientUnits="userSpaceOnUse" x1="3.4912" y1="28.7896" x2="7.8252" y2="28.7896">
	<stop  offset="0" style="stop-color:#D2BAA8"/>
	<stop  offset="1" style="stop-color:#D7C0AE"/>
</linearGradient>
<circle fill="url(#SVGID_11_)" cx="5.658" cy="28.791" r="2.167"/>
<linearGradient id="SVGID_12_" gradientUnits="userSpaceOnUse" x1="44.5469" y1="28.7896" x2="48.8809" y2="28.7896">
	<stop  offset="0" style="stop-color:#D2BAA8"/>
	<stop  offset="1" style="stop-color:#D7C0AE"/>
</linearGradient>
<circle fill="url(#SVGID_12_)" cx="46.714" cy="28.791" r="2.167"/>
<g>
	<rect x="9.368" y="0.465" fill="#FFFFFF" width="15.929" height="14.956"/>
	
		<line fill="none" stroke="#010202" stroke-width="0.75" stroke-linecap="round" stroke-miterlimit="10" x1="25.77" y1="0.465" x2="25.77" y2="42.572"/>
	<g opacity="0.15">
		<linearGradient id="SVGID_13_" gradientUnits="userSpaceOnUse" x1="25.7695" y1="42.8008" x2="25.7695" y2="55.7363">
			<stop  offset="0" style="stop-color:#414142"/>
			<stop  offset="1" style="stop-color:#E7EAE4;stop-opacity:0"/>
		</linearGradient>
		<line fill="url(#SVGID_13_)" x1="25.77" y1="42.801" x2="25.77" y2="55.736"/>
		<linearGradient id="SVGID_14_" gradientUnits="userSpaceOnUse" x1="25.771" y1="42.123" x2="25.771" y2="56.4219">
			<stop  offset="0" style="stop-color:#414142"/>
			<stop  offset="1" style="stop-color:#E7EAE4;stop-opacity:0"/>
		</linearGradient>
		<path fill="url(#SVGID_14_)" d="M25.77,56.422c-0.316,0-0.572-0.311-0.572-0.686V42.801c0-0.375,0.256-0.678,0.572-0.678
			c0.317,0,0.575,0.303,0.575,0.678v12.936C26.345,56.111,26.087,56.422,25.77,56.422z"/>
	</g>
</g>
<path fill="#98D0D9" d="M5.658,66.239c-2.758,0-5-2.242-5-5c0-2.756,2.242-5.001,5-5.001s5,2.245,5,5.001
	C10.658,63.997,8.416,66.239,5.658,66.239z"/>
<radialGradient id="SVGID_15_" cx="46.7129" cy="61.2383" r="5.001" gradientUnits="userSpaceOnUse">
	<stop  offset="0" style="stop-color:#98D0D9;stop-opacity:0"/>
	<stop  offset="1" style="stop-color:#98D0D9"/>
</radialGradient>
<path fill="url(#SVGID_15_)" d="M46.714,66.239c-2.758,0-5.001-2.242-5.001-5c0-2.756,2.243-5.001,5.001-5.001
	c2.757,0,5,2.245,5,5.001C51.714,63.997,49.471,66.239,46.714,66.239z"/>
<linearGradient id="SVGID_16_" gradientUnits="userSpaceOnUse" x1="5.6582" y1="61.2373" x2="5.6582" y2="70.1611">
	<stop  offset="0" style="stop-color:#414142"/>
	<stop  offset="1" style="stop-color:#E7EAE4;stop-opacity:0"/>
</linearGradient>
<path opacity="0.1" fill="url(#SVGID_16_)" d="M3.491,61.237v6.758c0,1.195,0.971,2.166,2.167,2.166s2.167-0.971,2.167-2.166v-6.758
	H3.491z"/>
<linearGradient id="SVGID_17_" gradientUnits="userSpaceOnUse" x1="3.4912" y1="61.2383" x2="7.8252" y2="61.2383">
	<stop  offset="0" style="stop-color:#D2BAA8"/>
	<stop  offset="1" style="stop-color:#D7C0AE"/>
</linearGradient>
<circle fill="url(#SVGID_17_)" cx="5.658" cy="61.239" r="2.167"/>
<linearGradient id="SVGID_18_" gradientUnits="userSpaceOnUse" x1="3.4912" y1="55.459" x2="7.8252" y2="55.459">
	<stop  offset="0" style="stop-color:#D2BAA8"/>
	<stop  offset="1" style="stop-color:#D7C0AE"/>
</linearGradient>
<rect x="3.491" y="49.68" fill="url(#SVGID_18_)" width="4.334" height="11.56"/>
<linearGradient id="SVGID_19_" gradientUnits="userSpaceOnUse" x1="3.4912" y1="49.6787" x2="7.8252" y2="49.6787">
	<stop  offset="0" style="stop-color:#E6D0BD"/>
	<stop  offset="1" style="stop-color:#ECD6C2"/>
</linearGradient>
<circle fill="url(#SVGID_19_)" cx="5.658" cy="49.68" r="2.167"/>
<linearGradient id="SVGID_20_" gradientUnits="userSpaceOnUse" x1="44.5469" y1="61.2383" x2="48.8809" y2="61.2383">
	<stop  offset="0" style="stop-color:#D2BAA8"/>
	<stop  offset="1" style="stop-color:#D7C0AE"/>
</linearGradient>
<circle fill="url(#SVGID_20_)" cx="46.714" cy="61.239" r="2.167"/>
<linearGradient id="SVGID_21_" gradientUnits="userSpaceOnUse" x1="44.5469" y1="55.459" x2="48.8809" y2="55.459">
	<stop  offset="0" style="stop-color:#D2BAA8"/>
	<stop  offset="1" style="stop-color:#D7C0AE"/>
</linearGradient>
<rect x="44.547" y="49.68" fill="url(#SVGID_21_)" width="4.334" height="11.56"/>
<linearGradient id="SVGID_22_" gradientUnits="userSpaceOnUse" x1="44.5469" y1="49.6787" x2="48.8809" y2="49.6787">
	<stop  offset="0" style="stop-color:#E6D0BD"/>
	<stop  offset="1" style="stop-color:#ECD6C2"/>
</linearGradient>
<circle fill="url(#SVGID_22_)" cx="46.714" cy="49.68" r="2.167"/>
<g>
	<polygon fill="#A9CB57" points="12.451,11.753 17.332,3.299 22.213,11.753 	"/>
</g>
</svg>
