<?xml version="1.0" encoding="utf-8"?>
<!-- Generator: Adobe Illustrator 16.0.0, SVG Export Plug-In . SVG Version: 6.00 Build 0)  -->
<!DOCTYPE svg PUBLIC "-//W3C//DTD SVG 1.1//EN" "http://www.w3.org/Graphics/SVG/1.1/DTD/svg11.dtd">
<svg version="1.1" id="Livello_1" xmlns="http://www.w3.org/2000/svg" xmlns:xlink="http://www.w3.org/1999/xlink" x="0px" y="0px"
	 width="52px" height="70px" viewBox="0 0 52 70" enable-background="new 0 0 52 70" xml:space="preserve">
<path fill="#98D0D9" d="M5.658,40.546c-2.758,0-5-2.242-5-5c0-2.756,2.242-5,5-5s5,2.244,5,5
	C10.658,38.304,8.416,40.546,5.658,40.546z"/>
<path fill="#98D0D9" d="M46.714,40.546c-2.758,0-5.001-2.242-5.001-5c0-2.756,2.243-5,5.001-5c2.757,0,5,2.244,5,5
	C51.714,38.304,49.471,40.546,46.714,40.546z"/>
<polygon fill="#A9CB57" points="12.439,11.765 17.332,3.288 22.226,11.765 "/>
<linearGradient id="SVGID_1_" gradientUnits="userSpaceOnUse" x1="46.7139" y1="35.5459" x2="46.7139" y2="44.4683">
	<stop  offset="0" style="stop-color:#414142"/>
	<stop  offset="1" style="stop-color:#E7EAE4;stop-opacity:0"/>
</linearGradient>
<path opacity="0.1" fill="url(#SVGID_1_)" d="M44.547,35.546v6.756c0,1.197,0.971,2.166,2.167,2.166s2.167-0.969,2.167-2.166v-6.756
	H44.547z"/>
<linearGradient id="SVGID_2_" gradientUnits="userSpaceOnUse" x1="5.6582" y1="35.5459" x2="5.6582" y2="44.4683">
	<stop  offset="0" style="stop-color:#414142"/>
	<stop  offset="1" style="stop-color:#E7EAE4;stop-opacity:0"/>
</linearGradient>
<path opacity="0.1" fill="url(#SVGID_2_)" d="M3.491,35.546v6.756c0,1.197,0.971,2.166,2.167,2.166s2.167-0.969,2.167-2.166v-6.756
	H3.491z"/>
<linearGradient id="SVGID_3_" gradientUnits="userSpaceOnUse" x1="3.4912" y1="35.5449" x2="7.8252" y2="35.5449">
	<stop  offset="0" style="stop-color:#D2BAA8"/>
	<stop  offset="1" style="stop-color:#D7C0AE"/>
</linearGradient>
<circle fill="url(#SVGID_3_)" cx="5.658" cy="35.546" r="2.167"/>
<linearGradient id="SVGID_4_" gradientUnits="userSpaceOnUse" x1="3.4912" y1="29.7666" x2="7.8252" y2="29.7666">
	<stop  offset="0" style="stop-color:#D2BAA8"/>
	<stop  offset="1" style="stop-color:#D7C0AE"/>
</linearGradient>
<rect x="3.491" y="23.987" fill="url(#SVGID_4_)" width="4.334" height="11.559"/>
<linearGradient id="SVGID_5_" gradientUnits="userSpaceOnUse" x1="3.4912" y1="23.9863" x2="7.8252" y2="23.9863">
	<stop  offset="0" style="stop-color:#E6D0BD"/>
	<stop  offset="1" style="stop-color:#ECD6C2"/>
</linearGradient>
<circle fill="url(#SVGID_5_)" cx="5.658" cy="23.987" r="2.167"/>
<linearGradient id="SVGID_6_" gradientUnits="userSpaceOnUse" x1="44.5469" y1="35.5449" x2="48.8809" y2="35.5449">
	<stop  offset="0" style="stop-color:#D2BAA8"/>
	<stop  offset="1" style="stop-color:#D7C0AE"/>
</linearGradient>
<circle fill="url(#SVGID_6_)" cx="46.714" cy="35.546" r="2.167"/>
<linearGradient id="SVGID_7_" gradientUnits="userSpaceOnUse" x1="44.5469" y1="29.7666" x2="48.8809" y2="29.7666">
	<stop  offset="0" style="stop-color:#D2BAA8"/>
	<stop  offset="1" style="stop-color:#D7C0AE"/>
</linearGradient>
<rect x="44.547" y="23.987" fill="url(#SVGID_7_)" width="4.334" height="11.559"/>
<linearGradient id="SVGID_8_" gradientUnits="userSpaceOnUse" x1="44.5469" y1="23.9863" x2="48.8809" y2="23.9863">
	<stop  offset="0" style="stop-color:#E6D0BD"/>
	<stop  offset="1" style="stop-color:#ECD6C2"/>
</linearGradient>
<circle fill="url(#SVGID_8_)" cx="46.714" cy="23.987" r="2.167"/>
<linearGradient id="SVGID_9_" gradientUnits="userSpaceOnUse" x1="5.6582" y1="43.5234" x2="46.7139" y2="43.5234">
	<stop  offset="0" style="stop-color:#D2BAA8"/>
	<stop  offset="1" style="stop-color:#D7C0AE"/>
</linearGradient>
<rect x="5.658" y="30.587" fill="url(#SVGID_9_)" width="41.056" height="25.873"/>
<linearGradient id="SVGID_10_" gradientUnits="userSpaceOnUse" x1="5.6582" y1="41.7324" x2="46.7139" y2="41.7324">
	<stop  offset="0" style="stop-color:#E6D0BD"/>
	<stop  offset="1" style="stop-color:#ECD6C2"/>
</linearGradient>
<rect x="5.658" y="28.796" fill="url(#SVGID_10_)" width="41.056" height="25.873"/>
<linearGradient id="SVGID_11_" gradientUnits="userSpaceOnUse" x1="3.4912" y1="28.7891" x2="7.8252" y2="28.7891">
	<stop  offset="0" style="stop-color:#D2BAA8"/>
	<stop  offset="1" style="stop-color:#D7C0AE"/>
</linearGradient>
<circle fill="url(#SVGID_11_)" cx="5.658" cy="28.79" r="2.167"/>
<linearGradient id="SVGID_12_" gradientUnits="userSpaceOnUse" x1="44.5469" y1="28.7891" x2="48.8809" y2="28.7891">
	<stop  offset="0" style="stop-color:#D2BAA8"/>
	<stop  offset="1" style="stop-color:#D7C0AE"/>
</linearGradient>
<circle fill="url(#SVGID_12_)" cx="46.714" cy="28.79" r="2.167"/>
<g>
	<rect x="9.215" y="0.466" fill="#A9CB57" width="15.929" height="14.955"/>
	
		<line fill="none" stroke="#010202" stroke-width="0.75" stroke-linecap="round" stroke-miterlimit="10" x1="25.77" y1="0.466" x2="25.77" y2="42.573"/>
	<g opacity="0.15">
		<linearGradient id="SVGID_13_" gradientUnits="userSpaceOnUse" x1="25.7695" y1="42.7998" x2="25.7695" y2="55.7373">
			<stop  offset="0" style="stop-color:#414142"/>
			<stop  offset="1" style="stop-color:#E7EAE4;stop-opacity:0"/>
		</linearGradient>
		<line fill="url(#SVGID_13_)" x1="25.77" y1="42.8" x2="25.77" y2="55.737"/>
		<linearGradient id="SVGID_14_" gradientUnits="userSpaceOnUse" x1="25.771" y1="42.1221" x2="25.771" y2="56.4229">
			<stop  offset="0" style="stop-color:#414142"/>
			<stop  offset="1" style="stop-color:#E7EAE4;stop-opacity:0"/>
		</linearGradient>
		<path fill="url(#SVGID_14_)" d="M25.77,56.423c-0.316,0-0.572-0.311-0.572-0.686V42.8c0-0.375,0.256-0.678,0.572-0.678
			c0.317,0,0.575,0.303,0.575,0.678v12.938C26.345,56.112,26.087,56.423,25.77,56.423z"/>
	</g>
</g>
<path fill="#98D0D9" d="M5.658,66.239c-2.758,0-5-2.242-5-5c0-2.756,2.242-5,5-5s5,2.244,5,5
	C10.658,63.997,8.416,66.239,5.658,66.239z"/>
<radialGradient id="SVGID_15_" cx="46.7129" cy="61.2393" r="5.0005" gradientUnits="userSpaceOnUse">
	<stop  offset="0" style="stop-color:#98D0D9;stop-opacity:0"/>
	<stop  offset="1" style="stop-color:#98D0D9"/>
</radialGradient>
<path fill="url(#SVGID_15_)" d="M46.714,66.239c-2.758,0-5.001-2.242-5.001-5c0-2.756,2.243-5,5.001-5c2.757,0,5,2.244,5,5
	C51.714,63.997,49.471,66.239,46.714,66.239z"/>
<linearGradient id="SVGID_16_" gradientUnits="userSpaceOnUse" x1="46.7139" y1="61.2373" x2="46.7139" y2="70.1611">
	<stop  offset="0" style="stop-color:#414142"/>
	<stop  offset="1" style="stop-color:#E7EAE4;stop-opacity:0"/>
</linearGradient>
<path opacity="0.1" fill="url(#SVGID_16_)" d="M44.547,61.237v6.758c0,1.195,0.971,2.166,2.167,2.166s2.167-0.971,2.167-2.166
	v-6.758H44.547z"/>
<linearGradient id="SVGID_17_" gradientUnits="userSpaceOnUse" x1="5.6582" y1="61.2373" x2="5.6582" y2="70.1611">
	<stop  offset="0" style="stop-color:#414142"/>
	<stop  offset="1" style="stop-color:#E7EAE4;stop-opacity:0"/>
</linearGradient>
<path opacity="0.1" fill="url(#SVGID_17_)" d="M3.491,61.237v6.758c0,1.195,0.971,2.166,2.167,2.166s2.167-0.971,2.167-2.166v-6.758
	H3.491z"/>
<linearGradient id="SVGID_18_" gradientUnits="userSpaceOnUse" x1="3.4912" y1="61.2383" x2="7.8252" y2="61.2383">
	<stop  offset="0" style="stop-color:#D2BAA8"/>
	<stop  offset="1" style="stop-color:#D7C0AE"/>
</linearGradient>
<circle fill="url(#SVGID_18_)" cx="5.658" cy="61.239" r="2.167"/>
<linearGradient id="SVGID_19_" gradientUnits="userSpaceOnUse" x1="3.4912" y1="55.46" x2="7.8252" y2="55.46">
	<stop  offset="0" style="stop-color:#D2BAA8"/>
	<stop  offset="1" style="stop-color:#D7C0AE"/>
</linearGradient>
<rect x="3.491" y="49.681" fill="url(#SVGID_19_)" width="4.334" height="11.559"/>
<linearGradient id="SVGID_20_" gradientUnits="userSpaceOnUse" x1="3.4912" y1="49.6797" x2="7.8252" y2="49.6797">
	<stop  offset="0" style="stop-color:#E6D0BD"/>
	<stop  offset="1" style="stop-color:#ECD6C2"/>
</linearGradient>
<circle fill="url(#SVGID_20_)" cx="5.658" cy="49.681" r="2.167"/>
<linearGradient id="SVGID_21_" gradientUnits="userSpaceOnUse" x1="44.5469" y1="61.2383" x2="48.8809" y2="61.2383">
	<stop  offset="0" style="stop-color:#D2BAA8"/>
	<stop  offset="1" style="stop-color:#D7C0AE"/>
</linearGradient>
<circle fill="url(#SVGID_21_)" cx="46.714" cy="61.239" r="2.167"/>
<linearGradient id="SVGID_22_" gradientUnits="userSpaceOnUse" x1="44.5469" y1="55.46" x2="48.8809" y2="55.46">
	<stop  offset="0" style="stop-color:#D2BAA8"/>
	<stop  offset="1" style="stop-color:#D7C0AE"/>
</linearGradient>
<rect x="44.547" y="49.681" fill="url(#SVGID_22_)" width="4.334" height="11.559"/>
<linearGradient id="SVGID_23_" gradientUnits="userSpaceOnUse" x1="44.5469" y1="49.6797" x2="48.8809" y2="49.6797">
	<stop  offset="0" style="stop-color:#E6D0BD"/>
	<stop  offset="1" style="stop-color:#ECD6C2"/>
</linearGradient>
<circle fill="url(#SVGID_23_)" cx="46.714" cy="49.681" r="2.167"/>
<polygon fill="#FFFFFF" points="12.451,11.765 17.332,3.312 22.213,11.765 "/>
</svg>
