<?xml version="1.0" encoding="utf-8"?>
<!-- Generator: Adobe Illustrator 16.0.0, SVG Export Plug-In . SVG Version: 6.00 Build 0)  -->
<!DOCTYPE svg PUBLIC "-//W3C//DTD SVG 1.1//EN" "http://www.w3.org/Graphics/SVG/1.1/DTD/svg11.dtd">
<svg version="1.1" id="Livello_1" xmlns="http://www.w3.org/2000/svg" xmlns:xlink="http://www.w3.org/1999/xlink" x="0px" y="0px"
	 width="52px" height="19px" viewBox="0 0 52 19" enable-background="new 0 0 52 19" xml:space="preserve">
<path fill="#98D0D9" d="M5.658,18.873c-2.758,0-5-2.242-5-5c0-2.756,2.242-5,5-5s5,2.244,5,5
	C10.658,16.631,8.416,18.873,5.658,18.873z"/>
<path fill="#98D0D9" d="M26.186,18.873c-2.758,0-5-2.242-5-5c0-2.756,2.242-5,5-5s5,2.244,5,5
	C31.186,16.631,28.943,18.873,26.186,18.873z"/>
<radialGradient id="SVGID_1_" cx="46.7129" cy="13.873" r="5.0005" gradientUnits="userSpaceOnUse">
	<stop  offset="0" style="stop-color:#98D0D9;stop-opacity:0"/>
	<stop  offset="1" style="stop-color:#98D0D9"/>
</radialGradient>
<path fill="url(#SVGID_1_)" d="M46.714,18.873c-2.758,0-5.001-2.242-5.001-5c0-2.756,2.243-5,5.001-5c2.757,0,5,2.244,5,5
	C51.714,16.631,49.471,18.873,46.714,18.873z"/>
<linearGradient id="SVGID_2_" gradientUnits="userSpaceOnUse" x1="3.4912" y1="8.0938" x2="7.8252" y2="8.0938">
	<stop  offset="0" style="stop-color:#D2BAA8"/>
	<stop  offset="1" style="stop-color:#D7C0AE"/>
</linearGradient>
<rect x="3.491" y="2.314" fill="url(#SVGID_2_)" width="4.334" height="11.559"/>
<linearGradient id="SVGID_3_" gradientUnits="userSpaceOnUse" x1="3.4912" y1="2.3135" x2="7.8252" y2="2.3135">
	<stop  offset="0" style="stop-color:#E6D0BD"/>
	<stop  offset="1" style="stop-color:#ECD6C2"/>
</linearGradient>
<circle fill="url(#SVGID_3_)" cx="5.658" cy="2.314" r="2.167"/>
<linearGradient id="SVGID_4_" gradientUnits="userSpaceOnUse" x1="24.0186" y1="8.0938" x2="28.3525" y2="8.0938">
	<stop  offset="0" style="stop-color:#D2BAA8"/>
	<stop  offset="1" style="stop-color:#D7C0AE"/>
</linearGradient>
<rect x="24.019" y="2.314" fill="url(#SVGID_4_)" width="4.334" height="11.559"/>
<linearGradient id="SVGID_5_" gradientUnits="userSpaceOnUse" x1="24.0186" y1="2.3135" x2="28.3525" y2="2.3135">
	<stop  offset="0" style="stop-color:#E6D0BD"/>
	<stop  offset="1" style="stop-color:#ECD6C2"/>
</linearGradient>
<circle fill="url(#SVGID_5_)" cx="26.186" cy="2.314" r="2.167"/>
<linearGradient id="SVGID_6_" gradientUnits="userSpaceOnUse" x1="44.5469" y1="8.0938" x2="48.8809" y2="8.0938">
	<stop  offset="0" style="stop-color:#D2BAA8"/>
	<stop  offset="1" style="stop-color:#D7C0AE"/>
</linearGradient>
<rect x="44.547" y="2.314" fill="url(#SVGID_6_)" width="4.334" height="11.559"/>
<linearGradient id="SVGID_7_" gradientUnits="userSpaceOnUse" x1="44.5469" y1="2.3135" x2="48.8809" y2="2.3135">
	<stop  offset="0" style="stop-color:#E6D0BD"/>
	<stop  offset="1" style="stop-color:#ECD6C2"/>
</linearGradient>
<circle fill="url(#SVGID_7_)" cx="46.714" cy="2.314" r="2.167"/>
</svg>
